<svg xmlns="http://www.w3.org/2000/svg" xmlns:xlink="http://www.w3.org/1999/xlink" version="1.1" class="marks" width="1043" height="436" viewBox="0 0 1043 436"><rect width="1043" height="436" fill="white"/><g fill="none" stroke-miterlimit="10" transform="translate(44,27)"><g class="mark-group role-frame root" role="graphics-object" aria-roledescription="group mark container"><g transform="translate(0,0)"><path class="background" aria-hidden="true" d="M0.5,0.5h800v300h-800Z" stroke="#ddd"/><g><g class="mark-group role-axis" aria-hidden="true"><g transform="translate(0.5,300.5)"><path class="background" aria-hidden="true" d="M0,0h0v0h0Z" pointer-events="none"/><g><g class="mark-rule role-axis-grid" pointer-events="none"><line transform="translate(28,-300)" x2="0" y2="300" stroke="#ddd" stroke-width="1" opacity="1"/><line transform="translate(83,-300)" x2="0" y2="300" stroke="#ddd" stroke-width="1" opacity="1"/><line transform="translate(138,-300)" x2="0" y2="300" stroke="#ddd" stroke-width="1" opacity="1"/><line transform="translate(193,-300)" x2="0" y2="300" stroke="#ddd" stroke-width="1" opacity="1"/><line transform="translate(248,-300)" x2="0" y2="300" stroke="#ddd" stroke-width="1" opacity="1"/><line transform="translate(303,-300)" x2="0" y2="300" stroke="#ddd" stroke-width="1" opacity="1"/><line transform="translate(359,-300)" x2="0" y2="300" stroke="#ddd" stroke-width="1" opacity="1"/><line transform="translate(414,-300)" x2="0" y2="300" stroke="#ddd" stroke-width="1" opacity="1"/><line transform="translate(441,-300)" x2="0" y2="300" stroke="#ddd" stroke-width="1" opacity="1"/><line transform="translate(497,-300)" x2="0" y2="300" stroke="#ddd" stroke-width="1" opacity="1"/><line transform="translate(552,-300)" x2="0" y2="300" stroke="#ddd" stroke-width="1" opacity="1"/><line transform="translate(607,-300)" x2="0" y2="300" stroke="#ddd" stroke-width="1" opacity="1"/><line transform="translate(662,-300)" x2="0" y2="300" stroke="#ddd" stroke-width="1" opacity="1"/><line transform="translate(717,-300)" x2="0" y2="300" stroke="#ddd" stroke-width="1" opacity="1"/><line transform="translate(772,-300)" x2="0" y2="300" stroke="#ddd" stroke-width="1" opacity="1"/></g></g><path class="foreground" aria-hidden="true" d="" pointer-events="none" display="none"/></g></g><g class="mark-group role-axis" aria-hidden="true"><g transform="translate(0.5,0.5)"><path class="background" aria-hidden="true" d="M0,0h0v0h0Z" pointer-events="none"/><g><g class="mark-rule role-axis-grid" pointer-events="none"><line transform="translate(0,300)" x2="800" y2="0" stroke="#ddd" stroke-width="1" opacity="1"/><line transform="translate(0,267)" x2="800" y2="0" stroke="#ddd" stroke-width="1" opacity="1"/><line transform="translate(0,233)" x2="800" y2="0" stroke="#ddd" stroke-width="1" opacity="1"/><line transform="translate(0,200)" x2="800" y2="0" stroke="#ddd" stroke-width="1" opacity="1"/><line transform="translate(0,167)" x2="800" y2="0" stroke="#ddd" stroke-width="1" opacity="1"/><line transform="translate(0,133)" x2="800" y2="0" stroke="#ddd" stroke-width="1" opacity="1"/><line transform="translate(0,100)" x2="800" y2="0" stroke="#ddd" stroke-width="1" opacity="1"/><line transform="translate(0,67)" x2="800" y2="0" stroke="#ddd" stroke-width="1" opacity="1"/><line transform="translate(0,33)" x2="800" y2="0" stroke="#ddd" stroke-width="1" opacity="1"/><line transform="translate(0,0)" x2="800" y2="0" stroke="#ddd" stroke-width="1" opacity="1"/></g></g><path class="foreground" aria-hidden="true" d="" pointer-events="none" display="none"/></g></g><g class="mark-group role-axis" role="graphics-symbol" aria-roledescription="axis" aria-label="X-axis titled 'Date' for a time scale with values from Monday, 16 March 2026, 12:00:00 AM to Tuesday, 14 April 2026, 12:00:00 AM"><g transform="translate(0.5,300.5)"><path class="background" aria-hidden="true" d="M0,0h0v0h0Z" pointer-events="none"/><g><g class="mark-rule role-axis-tick" pointer-events="none"><line transform="translate(28,0)" x2="0" y2="5" stroke="#888" stroke-width="1" opacity="1"/><line transform="translate(83,0)" x2="0" y2="5" stroke="#888" stroke-width="1" opacity="1"/><line transform="translate(138,0)" x2="0" y2="5" stroke="#888" stroke-width="1" opacity="1"/><line transform="translate(193,0)" x2="0" y2="5" stroke="#888" stroke-width="1" opacity="1"/><line transform="translate(248,0)" x2="0" y2="5" stroke="#888" stroke-width="1" opacity="1"/><line transform="translate(303,0)" x2="0" y2="5" stroke="#888" stroke-width="1" opacity="1"/><line transform="translate(359,0)" x2="0" y2="5" stroke="#888" stroke-width="1" opacity="1"/><line transform="translate(414,0)" x2="0" y2="5" stroke="#888" stroke-width="1" opacity="1"/><line transform="translate(441,0)" x2="0" y2="5" stroke="#888" stroke-width="1" opacity="1"/><line transform="translate(497,0)" x2="0" y2="5" stroke="#888" stroke-width="1" opacity="1"/><line transform="translate(552,0)" x2="0" y2="5" stroke="#888" stroke-width="1" opacity="1"/><line transform="translate(607,0)" x2="0" y2="5" stroke="#888" stroke-width="1" opacity="1"/><line transform="translate(662,0)" x2="0" y2="5" stroke="#888" stroke-width="1" opacity="1"/><line transform="translate(717,0)" x2="0" y2="5" stroke="#888" stroke-width="1" opacity="1"/><line transform="translate(772,0)" x2="0" y2="5" stroke="#888" stroke-width="1" opacity="1"/></g><g class="mark-text role-axis-label" pointer-events="none"><text text-anchor="middle" transform="translate(27.586206896551722,15)" font-family="sans-serif" font-size="10px" fill="#000" opacity="1">Tue 17</text><text text-anchor="middle" transform="translate(82.75862068965517,15)" font-family="sans-serif" font-size="10px" fill="#000" opacity="1">Thu 19</text><text text-anchor="middle" transform="translate(137.93103448275863,15)" font-family="sans-serif" font-size="10px" fill="#000" opacity="1">Sat 21</text><text text-anchor="middle" transform="translate(193.10344827586206,15)" font-family="sans-serif" font-size="10px" fill="#000" opacity="1">Mon 23</text><text text-anchor="middle" transform="translate(248.27586206896552,15)" font-family="sans-serif" font-size="10px" fill="#000" opacity="1">Wed 25</text><text text-anchor="middle" transform="translate(303.44827586206895,15)" font-family="sans-serif" font-size="10px" fill="#000" opacity="1">Fri 27</text><text text-anchor="middle" transform="translate(358.62068965517244,15)" font-family="sans-serif" font-size="10px" fill="#000" opacity="1">Mar 29</text><text text-anchor="middle" transform="translate(413.7931034482759,15)" font-family="sans-serif" font-size="10px" fill="#000" opacity="1">Tue 31</text><text text-anchor="middle" transform="translate(441.37931034482756,15)" font-family="sans-serif" font-size="10px" fill="#000" opacity="1">April</text><text text-anchor="middle" transform="translate(496.55172413793105,15)" font-family="sans-serif" font-size="10px" fill="#000" opacity="1">Fri 03</text><text text-anchor="middle" transform="translate(551.7241379310345,15)" font-family="sans-serif" font-size="10px" fill="#000" opacity="1">Apr 05</text><text text-anchor="middle" transform="translate(606.8965517241379,15)" font-family="sans-serif" font-size="10px" fill="#000" opacity="1">Tue 07</text><text text-anchor="middle" transform="translate(662.0689655172414,15)" font-family="sans-serif" font-size="10px" fill="#000" opacity="1">Thu 09</text><text text-anchor="middle" transform="translate(717.2413793103449,15)" font-family="sans-serif" font-size="10px" fill="#000" opacity="1">Sat 11</text><text text-anchor="middle" transform="translate(772.4137931034483,15)" font-family="sans-serif" font-size="10px" fill="#000" opacity="1">Mon 13</text></g><g class="mark-rule role-axis-domain" pointer-events="none"><line transform="translate(0,0)" x2="800" y2="0" stroke="#888" stroke-width="1" opacity="1"/></g><g class="mark-text role-axis-title" pointer-events="none"><text text-anchor="middle" transform="translate(400,30)" font-family="sans-serif" font-size="11px" font-weight="bold" fill="#000" opacity="1">Date</text></g></g><path class="foreground" aria-hidden="true" d="" pointer-events="none" display="none"/></g></g><g class="mark-group role-axis" role="graphics-symbol" aria-roledescription="axis" aria-label="Y-axis titled 'Unique Clones/day' for a linear scale with values from 0 to 180"><g transform="translate(0.5,0.5)"><path class="background" aria-hidden="true" d="M0,0h0v0h0Z" pointer-events="none"/><g><g class="mark-rule role-axis-tick" pointer-events="none"><line transform="translate(0,300)" x2="-5" y2="0" stroke="#888" stroke-width="1" opacity="1"/><line transform="translate(0,267)" x2="-5" y2="0" stroke="#888" stroke-width="1" opacity="1"/><line transform="translate(0,233)" x2="-5" y2="0" stroke="#888" stroke-width="1" opacity="1"/><line transform="translate(0,200)" x2="-5" y2="0" stroke="#888" stroke-width="1" opacity="1"/><line transform="translate(0,167)" x2="-5" y2="0" stroke="#888" stroke-width="1" opacity="1"/><line transform="translate(0,133)" x2="-5" y2="0" stroke="#888" stroke-width="1" opacity="1"/><line transform="translate(0,100)" x2="-5" y2="0" stroke="#888" stroke-width="1" opacity="1"/><line transform="translate(0,67)" x2="-5" y2="0" stroke="#888" stroke-width="1" opacity="1"/><line transform="translate(0,33)" x2="-5" y2="0" stroke="#888" stroke-width="1" opacity="1"/><line transform="translate(0,0)" x2="-5" y2="0" stroke="#888" stroke-width="1" opacity="1"/></g><g class="mark-text role-axis-label" pointer-events="none"><text text-anchor="end" transform="translate(-7,303)" font-family="sans-serif" font-size="10px" fill="#000" opacity="1">0</text><text text-anchor="end" transform="translate(-7,269.66666666666663)" font-family="sans-serif" font-size="10px" fill="#000" opacity="1">20</text><text text-anchor="end" transform="translate(-7,236.33333333333334)" font-family="sans-serif" font-size="10px" fill="#000" opacity="1">40</text><text text-anchor="end" transform="translate(-7,203.00000000000003)" font-family="sans-serif" font-size="10px" fill="#000" opacity="1">60</text><text text-anchor="end" transform="translate(-7,169.66666666666669)" font-family="sans-serif" font-size="10px" fill="#000" opacity="1">80</text><text text-anchor="end" transform="translate(-7,136.33333333333331)" font-family="sans-serif" font-size="10px" fill="#000" opacity="1">100</text><text text-anchor="end" transform="translate(-7,103.00000000000001)" font-family="sans-serif" font-size="10px" fill="#000" opacity="1">120</text><text text-anchor="end" transform="translate(-7,69.66666666666666)" font-family="sans-serif" font-size="10px" fill="#000" opacity="1">140</text><text text-anchor="end" transform="translate(-7,36.33333333333335)" font-family="sans-serif" font-size="10px" fill="#000" opacity="1">160</text><text text-anchor="end" transform="translate(-7,3)" font-family="sans-serif" font-size="10px" fill="#000" opacity="1">180</text></g><g class="mark-rule role-axis-domain" pointer-events="none"><line transform="translate(0,300)" x2="0" y2="-300" stroke="#888" stroke-width="1" opacity="1"/></g><g class="mark-text role-axis-title" pointer-events="none"><text text-anchor="middle" transform="translate(-27.6845703125,150) rotate(-90) translate(0,-2)" font-family="sans-serif" font-size="11px" font-weight="bold" fill="#000" opacity="1">Unique Clones/day</text></g></g><path class="foreground" aria-hidden="true" d="" pointer-events="none" display="none"/></g></g><g class="mark-group role-scope pathgroup" role="graphics-object" aria-roledescription="group mark container"><g transform="translate(0,0)"><path class="background" aria-hidden="true" d="M0,0h800v300h-800Z"/><g><g class="mark-area role-mark marks" role="graphics-object" aria-roledescription="area mark container"><path aria-label="Date: Mar 16, 2026; Unique Clones/day: 0; Repository: justdavis-family/github-analytics-data" role="graphics-symbol" aria-roledescription="area mark" d="M0,298.333L27.586,300L55.172,300L82.759,298.333L110.345,300L137.931,300L165.517,300L193.103,278.333L220.69,296.667L248.276,288.333L275.862,273.333L303.448,185L331.034,223.333L358.621,140L386.207,245L413.793,261.667L441.379,268.333L468.966,283.333L496.552,250L524.138,23.333L551.724,115L579.31,248.333L606.897,123.333L634.483,240L662.069,213.333L689.655,265L717.241,238.333L744.828,193.333L772.414,1.667L800,300L800,300L772.414,10L744.828,213.333L717.241,251.667L689.655,276.667L662.069,225L634.483,248.333L606.897,166.667L579.31,248.333L551.724,115L524.138,23.333L496.552,250L468.966,283.333L441.379,268.333L413.793,261.667L386.207,245L358.621,140L331.034,223.333L303.448,185L275.862,273.333L248.276,288.333L220.69,296.667L193.103,278.333L165.517,300L137.931,300L110.345,300L82.759,298.333L55.172,300L27.586,300L0,298.333Z" fill="#4c78a8"/></g></g><path class="foreground" aria-hidden="true" d="" display="none"/></g><g transform="translate(0,0)"><path class="background" aria-hidden="true" d="M0,0h800v300h-800Z"/><g><g class="mark-area role-mark marks" role="graphics-object" aria-roledescription="area mark container"><path aria-label="Date: Mar 16, 2026; Unique Clones/day: 0; Repository: justdavis-family/justdavis" role="graphics-symbol" aria-roledescription="area mark" d="M0,298.333L27.586,300L55.172,300L82.759,298.333L110.345,300L137.931,300L165.517,300L193.103,278.333L220.69,296.667L248.276,288.333L275.862,273.333L303.448,185L331.034,223.333L358.621,140L386.207,245L413.793,261.667L441.379,268.333L468.966,283.333L496.552,250L524.138,23.333L551.724,115L579.31,248.333L606.897,166.667L634.483,248.333L662.069,225L689.655,276.667L717.241,251.667L744.828,213.333L772.414,10L800,300L800,300L772.414,215L744.828,240L717.241,256.667L689.655,280L662.069,231.667L634.483,251.667L606.897,250L579.31,278.333L551.724,165L524.138,153.333L496.552,251.667L468.966,283.333L441.379,270L413.793,261.667L386.207,245L358.621,140L331.034,223.333L303.448,185L275.862,273.333L248.276,288.333L220.69,296.667L193.103,280L165.517,300L137.931,300L110.345,300L82.759,298.333L55.172,300L27.586,300L0,298.333Z" fill="#f58518"/></g></g><path class="foreground" aria-hidden="true" d="" display="none"/></g><g transform="translate(0,0)"><path class="background" aria-hidden="true" d="M0,0h800v300h-800Z"/><g><g class="mark-area role-mark marks" role="graphics-object" aria-roledescription="area mark container"><path aria-label="Date: Mar 16, 2026; Unique Clones/day: 0; Repository: karlmdavis/FHIR-Server" role="graphics-symbol" aria-roledescription="area mark" d="M0,298.333L27.586,300L55.172,300L82.759,298.333L110.345,300L137.931,300L165.517,300L193.103,280L220.69,296.667L248.276,288.333L275.862,273.333L303.448,185L331.034,223.333L358.621,140L386.207,245L413.793,261.667L441.379,270L468.966,283.333L496.552,251.667L524.138,153.333L551.724,165L579.31,278.333L606.897,250L634.483,251.667L662.069,231.667L689.655,280L717.241,256.667L744.828,240L772.414,215L800,300L800,300L772.414,215L744.828,241.667L717.241,260L689.655,280L662.069,231.667L634.483,251.667L606.897,250L579.31,278.333L551.724,165L524.138,153.333L496.552,251.667L468.966,283.333L441.379,270L413.793,263.333L386.207,245L358.621,140L331.034,223.333L303.448,185L275.862,273.333L248.276,288.333L220.69,296.667L193.103,280L165.517,300L137.931,300L110.345,300L82.759,298.333L55.172,300L27.586,300L0,298.333Z" fill="#e45756"/></g></g><path class="foreground" aria-hidden="true" d="" display="none"/></g><g transform="translate(0,0)"><path class="background" aria-hidden="true" d="M0,0h800v300h-800Z"/><g><g class="mark-area role-mark marks" role="graphics-object" aria-roledescription="area mark container"><path aria-label="Date: Mar 16, 2026; Unique Clones/day: 1; Repository: karlmdavis/ansible" role="graphics-symbol" aria-roledescription="area mark" d="M0,298.333L27.586,300L55.172,300L82.759,298.333L110.345,300L137.931,300L165.517,300L193.103,280L220.69,296.667L248.276,288.333L275.862,273.333L303.448,185L331.034,223.333L358.621,140L386.207,245L413.793,263.333L441.379,270L468.966,283.333L496.552,251.667L524.138,153.333L551.724,165L579.31,278.333L606.897,250L634.483,251.667L662.069,231.667L689.655,280L717.241,260L744.828,241.667L772.414,215L800,300L800,300L772.414,215L744.828,241.667L717.241,260L689.655,280L662.069,231.667L634.483,251.667L606.897,250L579.31,278.333L551.724,165L524.138,153.333L496.552,251.667L468.966,283.333L441.379,270L413.793,263.333L386.207,245L358.621,140L331.034,223.333L303.448,185L275.862,273.333L248.276,288.333L220.69,296.667L193.103,280L165.517,300L137.931,300L110.345,300L82.759,298.333L55.172,300L27.586,300L0,300Z" fill="#72b7b2"/></g></g><path class="foreground" aria-hidden="true" d="" display="none"/></g><g transform="translate(0,0)"><path class="background" aria-hidden="true" d="M0,0h800v300h-800Z"/><g><g class="mark-area role-mark marks" role="graphics-object" aria-roledescription="area mark container"><path aria-label="Date: Mar 16, 2026; Unique Clones/day: 0; Repository: karlmdavis/ansible-jenkins" role="graphics-symbol" aria-roledescription="area mark" d="M0,300L27.586,300L55.172,300L82.759,298.333L110.345,300L137.931,300L165.517,300L193.103,280L220.69,296.667L248.276,288.333L275.862,273.333L303.448,185L331.034,223.333L358.621,140L386.207,245L413.793,263.333L441.379,270L468.966,283.333L496.552,251.667L524.138,153.333L551.724,165L579.31,278.333L606.897,250L634.483,251.667L662.069,231.667L689.655,280L717.241,260L744.828,241.667L772.414,215L800,300L800,300L772.414,215L744.828,243.333L717.241,260L689.655,280L662.069,231.667L634.483,251.667L606.897,250L579.31,278.333L551.724,165L524.138,155L496.552,253.333L468.966,283.333L441.379,270L413.793,263.333L386.207,245L358.621,140L331.034,223.333L303.448,185L275.862,275L248.276,288.333L220.69,296.667L193.103,280L165.517,300L137.931,300L110.345,300L82.759,298.333L55.172,300L27.586,300L0,300Z" fill="#54a24b"/></g></g><path class="foreground" aria-hidden="true" d="" display="none"/></g><g transform="translate(0,0)"><path class="background" aria-hidden="true" d="M0,0h800v300h-800Z"/><g><g class="mark-area role-mark marks" role="graphics-object" aria-roledescription="area mark container"><path aria-label="Date: Mar 16, 2026; Unique Clones/day: 0; Repository: karlmdavis/ansible-role-acmetool" role="graphics-symbol" aria-roledescription="area mark" d="M0,300L27.586,300L55.172,300L82.759,298.333L110.345,300L137.931,300L165.517,300L193.103,280L220.69,296.667L248.276,288.333L275.862,275L303.448,185L331.034,223.333L358.621,140L386.207,245L413.793,263.333L441.379,270L468.966,283.333L496.552,253.333L524.138,155L551.724,165L579.31,278.333L606.897,250L634.483,251.667L662.069,231.667L689.655,280L717.241,260L744.828,243.333L772.414,215L800,300L800,300L772.414,215L744.828,245L717.241,260L689.655,280L662.069,231.667L634.483,251.667L606.897,250L579.31,278.333L551.724,165L524.138,155L496.552,253.333L468.966,283.333L441.379,270L413.793,263.333L386.207,245L358.621,140L331.034,223.333L303.448,185L275.862,276.667L248.276,288.333L220.69,296.667L193.103,280L165.517,300L137.931,300L110.345,300L82.759,298.333L55.172,300L27.586,300L0,300Z" fill="#eeca3b"/></g></g><path class="foreground" aria-hidden="true" d="" display="none"/></g><g transform="translate(0,0)"><path class="background" aria-hidden="true" d="M0,0h800v300h-800Z"/><g><g class="mark-area role-mark marks" role="graphics-object" aria-roledescription="area mark container"><path aria-label="Date: Mar 16, 2026; Unique Clones/day: 0; Repository: karlmdavis/ansible-role-bind-dns" role="graphics-symbol" aria-roledescription="area mark" d="M0,300L27.586,300L55.172,300L82.759,298.333L110.345,300L137.931,300L165.517,300L193.103,280L220.69,296.667L248.276,288.333L275.862,276.667L303.448,185L331.034,223.333L358.621,140L386.207,245L413.793,263.333L441.379,270L468.966,283.333L496.552,253.333L524.138,155L551.724,165L579.31,278.333L606.897,250L634.483,251.667L662.069,231.667L689.655,280L717.241,260L744.828,245L772.414,215L800,300L800,300L772.414,221.667L744.828,246.667L717.241,260L689.655,280L662.069,233.333L634.483,253.333L606.897,250L579.31,278.333L551.724,165L524.138,156.667L496.552,253.333L468.966,283.333L441.379,275L413.793,263.333L386.207,246.667L358.621,141.667L331.034,223.333L303.448,188.333L275.862,276.667L248.276,288.333L220.69,296.667L193.103,280L165.517,300L137.931,300L110.345,300L82.759,298.333L55.172,300L27.586,300L0,300Z" fill="#b279a2"/></g></g><path class="foreground" aria-hidden="true" d="" display="none"/></g><g transform="translate(0,0)"><path class="background" aria-hidden="true" d="M0,0h800v300h-800Z"/><g><g class="mark-area role-mark marks" role="graphics-object" aria-roledescription="area mark container"><path aria-label="Date: Mar 16, 2026; Unique Clones/day: 0; Repository: karlmdavis/ansible-role-jenkins2" role="graphics-symbol" aria-roledescription="area mark" d="M0,300L27.586,300L55.172,300L82.759,298.333L110.345,300L137.931,300L165.517,300L193.103,280L220.69,296.667L248.276,288.333L275.862,276.667L303.448,188.333L331.034,223.333L358.621,141.667L386.207,246.667L413.793,263.333L441.379,275L468.966,283.333L496.552,253.333L524.138,156.667L551.724,165L579.31,278.333L606.897,250L634.483,253.333L662.069,233.333L689.655,280L717.241,260L744.828,246.667L772.414,221.667L800,300L800,300L772.414,221.667L744.828,246.667L717.241,261.667L689.655,283.333L662.069,241.667L634.483,253.333L606.897,250L579.31,278.333L551.724,166.667L524.138,160L496.552,255L468.966,285L441.379,276.667L413.793,265L386.207,246.667L358.621,141.667L331.034,225L303.448,190L275.862,278.333L248.276,290L220.69,298.333L193.103,280L165.517,300L137.931,300L110.345,300L82.759,298.333L55.172,300L27.586,300L0,300Z" fill="#ff9da6"/></g></g><path class="foreground" aria-hidden="true" d="" display="none"/></g><g transform="translate(0,0)"><path class="background" aria-hidden="true" d="M0,0h800v300h-800Z"/><g><g class="mark-area role-mark marks" role="graphics-object" aria-roledescription="area mark container"><path aria-label="Date: Mar 16, 2026; Unique Clones/day: 0; Repository: karlmdavis/ansible-role-ldap" role="graphics-symbol" aria-roledescription="area mark" d="M0,300L27.586,300L55.172,300L82.759,298.333L110.345,300L137.931,300L165.517,300L193.103,280L220.69,298.333L248.276,290L275.862,278.333L303.448,190L331.034,225L358.621,141.667L386.207,246.667L413.793,265L441.379,276.667L468.966,285L496.552,255L524.138,160L551.724,166.667L579.31,278.333L606.897,250L634.483,253.333L662.069,241.667L689.655,283.333L717.241,261.667L744.828,246.667L772.414,221.667L800,300L800,300L772.414,223.333L744.828,246.667L717.241,261.667L689.655,283.333L662.069,241.667L634.483,253.333L606.897,250L579.31,278.333L551.724,166.667L524.138,160L496.552,255L468.966,285L441.379,276.667L413.793,266.667L386.207,246.667L358.621,141.667L331.034,225L303.448,190L275.862,278.333L248.276,290L220.69,298.333L193.103,280L165.517,300L137.931,300L110.345,300L82.759,298.333L55.172,300L27.586,300L0,300Z" fill="#9d755d"/></g></g><path class="foreground" aria-hidden="true" d="" display="none"/></g><g transform="translate(0,0)"><path class="background" aria-hidden="true" d="M0,0h800v300h-800Z"/><g><g class="mark-area role-mark marks" role="graphics-object" aria-roledescription="area mark container"><path aria-label="Date: Mar 16, 2026; Unique Clones/day: 0; Repository: karlmdavis/ansible-role-rcm-dotfiles" role="graphics-symbol" aria-roledescription="area mark" d="M0,300L27.586,300L55.172,300L82.759,298.333L110.345,300L137.931,300L165.517,300L193.103,280L220.69,298.333L248.276,290L275.862,278.333L303.448,190L331.034,225L358.621,141.667L386.207,246.667L413.793,266.667L441.379,276.667L468.966,285L496.552,255L524.138,160L551.724,166.667L579.31,278.333L606.897,250L634.483,253.333L662.069,241.667L689.655,283.333L717.241,261.667L744.828,246.667L772.414,223.333L800,300L800,300L772.414,228.333L744.828,248.333L717.241,261.667L689.655,283.333L662.069,243.333L634.483,253.333L606.897,250L579.31,278.333L551.724,166.667L524.138,161.667L496.552,255L468.966,285L441.379,276.667L413.793,266.667L386.207,248.333L358.621,143.333L331.034,225L303.448,193.333L275.862,278.333L248.276,290L220.69,298.333L193.103,280L165.517,300L137.931,300L110.345,300L82.759,298.333L55.172,300L27.586,300L0,300Z" fill="#bab0ac"/></g></g><path class="foreground" aria-hidden="true" d="" display="none"/></g><g transform="translate(0,0)"><path class="background" aria-hidden="true" d="M0,0h800v300h-800Z"/><g><g class="mark-area role-mark marks" role="graphics-object" aria-roledescription="area mark container"><path aria-label="Date: Mar 16, 2026; Unique Clones/day: 0; Repository: karlmdavis/ansible-roles" role="graphics-symbol" aria-roledescription="area mark" d="M0,300L27.586,300L55.172,300L82.759,298.333L110.345,300L137.931,300L165.517,300L193.103,280L220.69,298.333L248.276,290L275.862,278.333L303.448,193.333L331.034,225L358.621,143.333L386.207,248.333L413.793,266.667L441.379,276.667L468.966,285L496.552,255L524.138,161.667L551.724,166.667L579.31,278.333L606.897,250L634.483,253.333L662.069,243.333L689.655,283.333L717.241,261.667L744.828,248.333L772.414,228.333L800,300L800,300L772.414,228.333L744.828,248.333L717.241,263.333L689.655,283.333L662.069,243.333L634.483,253.333L606.897,250L579.31,278.333L551.724,166.667L524.138,161.667L496.552,255L468.966,285L441.379,276.667L413.793,266.667L386.207,250L358.621,143.333L331.034,225L303.448,193.333L275.862,280L248.276,290L220.69,298.333L193.103,280L165.517,300L137.931,300L110.345,300L82.759,298.333L55.172,300L27.586,300L0,300Z" fill="#4c78a8"/></g></g><path class="foreground" aria-hidden="true" d="" display="none"/></g><g transform="translate(0,0)"><path class="background" aria-hidden="true" d="M0,0h800v300h-800Z"/><g><g class="mark-area role-mark marks" role="graphics-object" aria-roledescription="area mark container"><path aria-label="Date: Mar 16, 2026; Unique Clones/day: 0; Repository: karlmdavis/bbonfhir-dev-infra-docker" role="graphics-symbol" aria-roledescription="area mark" d="M0,300L27.586,300L55.172,300L82.759,298.333L110.345,300L137.931,300L165.517,300L193.103,280L220.69,298.333L248.276,290L275.862,280L303.448,193.333L331.034,225L358.621,143.333L386.207,250L413.793,266.667L441.379,276.667L468.966,285L496.552,255L524.138,161.667L551.724,166.667L579.31,278.333L606.897,250L634.483,253.333L662.069,243.333L689.655,283.333L717.241,263.333L744.828,248.333L772.414,228.333L800,300L800,300L772.414,233.333L744.828,250L717.241,263.333L689.655,283.333L662.069,245L634.483,253.333L606.897,250L579.31,278.333L551.724,166.667L524.138,163.333L496.552,255L468.966,285L441.379,276.667L413.793,266.667L386.207,251.667L358.621,143.333L331.034,225L303.448,195L275.862,280L248.276,291.667L220.69,298.333L193.103,280L165.517,300L137.931,300L110.345,300L82.759,298.333L55.172,300L27.586,300L0,300Z" fill="#f58518"/></g></g><path class="foreground" aria-hidden="true" d="" display="none"/></g><g transform="translate(0,0)"><path class="background" aria-hidden="true" d="M0,0h800v300h-800Z"/><g><g class="mark-area role-mark marks" role="graphics-object" aria-roledescription="area mark container"><path aria-label="Date: Mar 16, 2026; Unique Clones/day: 0; Repository: karlmdavis/can-i-kayak-baltimore" role="graphics-symbol" aria-roledescription="area mark" d="M0,300L27.586,300L55.172,300L82.759,298.333L110.345,300L137.931,300L165.517,300L193.103,280L220.69,298.333L248.276,291.667L275.862,280L303.448,195L331.034,225L358.621,143.333L386.207,251.667L413.793,266.667L441.379,276.667L468.966,285L496.552,255L524.138,163.333L551.724,166.667L579.31,278.333L606.897,250L634.483,253.333L662.069,245L689.655,283.333L717.241,263.333L744.828,250L772.414,233.333L800,300L800,300L772.414,233.333L744.828,251.667L717.241,263.333L689.655,283.333L662.069,246.667L634.483,253.333L606.897,250L579.31,278.333L551.724,166.667L524.138,165L496.552,255L468.966,285L441.379,278.333L413.793,266.667L386.207,251.667L358.621,143.333L331.034,225L303.448,200L275.862,280L248.276,291.667L220.69,298.333L193.103,280L165.517,300L137.931,300L110.345,300L82.759,298.333L55.172,300L27.586,300L0,300Z" fill="#e45756"/></g></g><path class="foreground" aria-hidden="true" d="" display="none"/></g><g transform="translate(0,0)"><path class="background" aria-hidden="true" d="M0,0h800v300h-800Z"/><g><g class="mark-area role-mark marks" role="graphics-object" aria-roledescription="area mark container"><path aria-label="Date: Mar 16, 2026; Unique Clones/day: 0; Repository: karlmdavis/datanucleus-test-jdo-1-to-n" role="graphics-symbol" aria-roledescription="area mark" d="M0,300L27.586,300L55.172,300L82.759,298.333L110.345,300L137.931,300L165.517,300L193.103,280L220.69,298.333L248.276,291.667L275.862,280L303.448,200L331.034,225L358.621,143.333L386.207,251.667L413.793,266.667L441.379,278.333L468.966,285L496.552,255L524.138,165L551.724,166.667L579.31,278.333L606.897,250L634.483,253.333L662.069,246.667L689.655,283.333L717.241,263.333L744.828,251.667L772.414,233.333L800,300L800,300L772.414,233.333L744.828,251.667L717.241,263.333L689.655,283.333L662.069,246.667L634.483,253.333L606.897,250L579.31,278.333L551.724,166.667L524.138,165L496.552,255L468.966,285L441.379,278.333L413.793,266.667L386.207,251.667L358.621,143.333L331.034,226.667L303.448,200L275.862,280L248.276,291.667L220.69,298.333L193.103,280L165.517,300L137.931,300L110.345,300L82.759,298.333L55.172,300L27.586,300L0,300Z" fill="#72b7b2"/></g></g><path class="foreground" aria-hidden="true" d="" display="none"/></g><g transform="translate(0,0)"><path class="background" aria-hidden="true" d="M0,0h800v300h-800Z"/><g><g class="mark-area role-mark marks" role="graphics-object" aria-roledescription="area mark container"><path aria-label="Date: Mar 16, 2026; Unique Clones/day: 0; Repository: karlmdavis/dotfiles" role="graphics-symbol" aria-roledescription="area mark" d="M0,300L27.586,300L55.172,300L82.759,298.333L110.345,300L137.931,300L165.517,300L193.103,280L220.69,298.333L248.276,291.667L275.862,280L303.448,200L331.034,226.667L358.621,143.333L386.207,251.667L413.793,266.667L441.379,278.333L468.966,285L496.552,255L524.138,165L551.724,166.667L579.31,278.333L606.897,250L634.483,253.333L662.069,246.667L689.655,283.333L717.241,263.333L744.828,251.667L772.414,233.333L800,300L800,300L772.414,241.667L744.828,251.667L717.241,266.667L689.655,283.333L662.069,248.333L634.483,255L606.897,250L579.31,278.333L551.724,168.333L524.138,166.667L496.552,255L468.966,286.667L441.379,280L413.793,268.333L386.207,251.667L358.621,143.333L331.034,226.667L303.448,203.333L275.862,280L248.276,291.667L220.69,298.333L193.103,281.667L165.517,300L137.931,300L110.345,300L82.759,298.333L55.172,300L27.586,300L0,300Z" fill="#54a24b"/></g></g><path class="foreground" aria-hidden="true" d="" display="none"/></g><g transform="translate(0,0)"><path class="background" aria-hidden="true" d="M0,0h800v300h-800Z"/><g><g class="mark-area role-mark marks" role="graphics-object" aria-roledescription="area mark container"><path aria-label="Date: Mar 16, 2026; Unique Clones/day: 0; Repository: karlmdavis/fhir-benchmarks" role="graphics-symbol" aria-roledescription="area mark" d="M0,300L27.586,300L55.172,300L82.759,298.333L110.345,300L137.931,300L165.517,300L193.103,281.667L220.69,298.333L248.276,291.667L275.862,280L303.448,203.333L331.034,226.667L358.621,143.333L386.207,251.667L413.793,268.333L441.379,280L468.966,286.667L496.552,255L524.138,166.667L551.724,168.333L579.31,278.333L606.897,250L634.483,255L662.069,248.333L689.655,283.333L717.241,266.667L744.828,251.667L772.414,241.667L800,300L800,300L772.414,250L744.828,251.667L717.241,270L689.655,283.333L662.069,251.667L634.483,266.667L606.897,251.667L579.31,278.333L551.724,170L524.138,168.333L496.552,256.667L468.966,286.667L441.379,281.667L413.793,271.667L386.207,253.333L358.621,145L331.034,226.667L303.448,206.667L275.862,280L248.276,293.333L220.69,298.333L193.103,283.333L165.517,300L137.931,300L110.345,300L82.759,298.333L55.172,300L27.586,300L0,300Z" fill="#eeca3b"/></g></g><path class="foreground" aria-hidden="true" d="" display="none"/></g><g transform="translate(0,0)"><path class="background" aria-hidden="true" d="M0,0h800v300h-800Z"/><g><g class="mark-area role-mark marks" role="graphics-object" aria-roledescription="area mark container"><path aria-label="Date: Mar 16, 2026; Unique Clones/day: 0; Repository: karlmdavis/hapi-fhir-jpaserver-starter" role="graphics-symbol" aria-roledescription="area mark" d="M0,300L27.586,300L55.172,300L82.759,298.333L110.345,300L137.931,300L165.517,300L193.103,283.333L220.69,298.333L248.276,293.333L275.862,280L303.448,206.667L331.034,226.667L358.621,145L386.207,253.333L413.793,271.667L441.379,281.667L468.966,286.667L496.552,256.667L524.138,168.333L551.724,170L579.31,278.333L606.897,251.667L634.483,266.667L662.069,251.667L689.655,283.333L717.241,270L744.828,251.667L772.414,250L800,300L800,300L772.414,251.667L744.828,251.667L717.241,270L689.655,283.333L662.069,251.667L634.483,266.667L606.897,251.667L579.31,278.333L551.724,170L524.138,168.333L496.552,258.333L468.966,288.333L441.379,281.667L413.793,271.667L386.207,253.333L358.621,145L331.034,226.667L303.448,206.667L275.862,281.667L248.276,293.333L220.69,298.333L193.103,283.333L165.517,300L137.931,300L110.345,300L82.759,298.333L55.172,300L27.586,300L0,300Z" fill="#b279a2"/></g></g><path class="foreground" aria-hidden="true" d="" display="none"/></g><g transform="translate(0,0)"><path class="background" aria-hidden="true" d="M0,0h800v300h-800Z"/><g><g class="mark-area role-mark marks" role="graphics-object" aria-roledescription="area mark container"><path aria-label="Date: Mar 16, 2026; Unique Clones/day: 0; Repository: karlmdavis/hello-rust-actix" role="graphics-symbol" aria-roledescription="area mark" d="M0,300L27.586,300L55.172,300L82.759,298.333L110.345,300L137.931,300L165.517,300L193.103,283.333L220.69,298.333L248.276,293.333L275.862,281.667L303.448,206.667L331.034,226.667L358.621,145L386.207,253.333L413.793,271.667L441.379,281.667L468.966,288.333L496.552,258.333L524.138,168.333L551.724,170L579.31,278.333L606.897,251.667L634.483,266.667L662.069,251.667L689.655,283.333L717.241,270L744.828,251.667L772.414,251.667L800,300L800,300L772.414,255L744.828,253.333L717.241,270L689.655,283.333L662.069,253.333L634.483,266.667L606.897,251.667L579.31,278.333L551.724,170L524.138,170L496.552,258.333L468.966,288.333L441.379,281.667L413.793,273.333L386.207,253.333L358.621,145L331.034,226.667L303.448,208.333L275.862,281.667L248.276,293.333L220.69,298.333L193.103,283.333L165.517,300L137.931,300L110.345,300L82.759,298.333L55.172,300L27.586,300L0,300Z" fill="#ff9da6"/></g></g><path class="foreground" aria-hidden="true" d="" display="none"/></g><g transform="translate(0,0)"><path class="background" aria-hidden="true" d="M0,0h800v300h-800Z"/><g><g class="mark-area role-mark marks" role="graphics-object" aria-roledescription="area mark container"><path aria-label="Date: Mar 16, 2026; Unique Clones/day: 0; Repository: karlmdavis/jessentials" role="graphics-symbol" aria-roledescription="area mark" d="M0,300L27.586,300L55.172,300L82.759,298.333L110.345,300L137.931,300L165.517,300L193.103,283.333L220.69,298.333L248.276,293.333L275.862,281.667L303.448,208.333L331.034,226.667L358.621,145L386.207,253.333L413.793,273.333L441.379,281.667L468.966,288.333L496.552,258.333L524.138,170L551.724,170L579.31,278.333L606.897,251.667L634.483,266.667L662.069,253.333L689.655,283.333L717.241,270L744.828,253.333L772.414,255L800,300L800,300L772.414,255L744.828,253.333L717.241,271.667L689.655,283.333L662.069,256.667L634.483,280L606.897,251.667L579.31,278.333L551.724,170L524.138,171.667L496.552,258.333L468.966,288.333L441.379,281.667L413.793,273.333L386.207,255L358.621,145L331.034,226.667L303.448,210L275.862,281.667L248.276,293.333L220.69,298.333L193.103,285L165.517,300L137.931,300L110.345,300L82.759,298.333L55.172,300L27.586,300L0,300Z" fill="#9d755d"/></g></g><path class="foreground" aria-hidden="true" d="" display="none"/></g><g transform="translate(0,0)"><path class="background" aria-hidden="true" d="M0,0h800v300h-800Z"/><g><g class="mark-area role-mark marks" role="graphics-object" aria-roledescription="area mark container"><path aria-label="Date: Mar 16, 2026; Unique Clones/day: 0; Repository: karlmdavis/justdavis-ansible" role="graphics-symbol" aria-roledescription="area mark" d="M0,300L27.586,300L55.172,300L82.759,298.333L110.345,300L137.931,300L165.517,300L193.103,285L220.69,298.333L248.276,293.333L275.862,281.667L303.448,210L331.034,226.667L358.621,145L386.207,255L413.793,273.333L441.379,281.667L468.966,288.333L496.552,258.333L524.138,171.667L551.724,170L579.31,278.333L606.897,251.667L634.483,280L662.069,256.667L689.655,283.333L717.241,271.667L744.828,253.333L772.414,255L800,300L800,300L772.414,255L744.828,260L717.241,271.667L689.655,285L662.069,258.333L634.483,280L606.897,251.667L579.31,278.333L551.724,170L524.138,173.333L496.552,258.333L468.966,288.333L441.379,283.333L413.793,273.333L386.207,255L358.621,145L331.034,228.333L303.448,211.667L275.862,281.667L248.276,295L220.69,298.333L193.103,285L165.517,300L137.931,300L110.345,300L82.759,298.333L55.172,300L27.586,300L0,300Z" fill="#bab0ac"/></g></g><path class="foreground" aria-hidden="true" d="" display="none"/></g><g transform="translate(0,0)"><path class="background" aria-hidden="true" d="M0,0h800v300h-800Z"/><g><g class="mark-area role-mark marks" role="graphics-object" aria-roledescription="area mark container"><path aria-label="Date: Mar 16, 2026; Unique Clones/day: 0; Repository: karlmdavis/justdavis-finances" role="graphics-symbol" aria-roledescription="area mark" d="M0,300L27.586,300L55.172,300L82.759,298.333L110.345,300L137.931,300L165.517,300L193.103,285L220.69,298.333L248.276,295L275.862,281.667L303.448,211.667L331.034,228.333L358.621,145L386.207,255L413.793,273.333L441.379,283.333L468.966,288.333L496.552,258.333L524.138,173.333L551.724,170L579.31,278.333L606.897,251.667L634.483,280L662.069,258.333L689.655,285L717.241,271.667L744.828,260L772.414,255L800,300L800,300L772.414,255L744.828,288.333L717.241,275L689.655,285L662.069,260L634.483,281.667L606.897,280L579.31,291.667L551.724,295L524.138,268.333L496.552,291.667L468.966,290L441.379,285L413.793,275L386.207,280L358.621,286.667L331.034,290L303.448,263.333L275.862,283.333L248.276,296.667L220.69,298.333L193.103,285L165.517,300L137.931,300L110.345,300L82.759,298.333L55.172,300L27.586,300L0,300Z" fill="#4c78a8"/></g></g><path class="foreground" aria-hidden="true" d="" display="none"/></g><g transform="translate(0,0)"><path class="background" aria-hidden="true" d="M0,0h800v300h-800Z"/><g><g class="mark-area role-mark marks" role="graphics-object" aria-roledescription="area mark container"><path aria-label="Date: Mar 16, 2026; Unique Clones/day: 0; Repository: karlmdavis/justdavis-karl" role="graphics-symbol" aria-roledescription="area mark" d="M0,300L27.586,300L55.172,300L82.759,298.333L110.345,300L137.931,300L165.517,300L193.103,285L220.69,298.333L248.276,296.667L275.862,283.333L303.448,263.333L331.034,290L358.621,286.667L386.207,280L413.793,275L441.379,285L468.966,290L496.552,291.667L524.138,268.333L551.724,295L579.31,291.667L606.897,280L634.483,281.667L662.069,260L689.655,285L717.241,275L744.828,288.333L772.414,255L800,300L800,300L772.414,260L744.828,290L717.241,276.667L689.655,285L662.069,263.333L634.483,281.667L606.897,280L579.31,293.333L551.724,295L524.138,270L496.552,291.667L468.966,291.667L441.379,285L413.793,276.667L386.207,281.667L358.621,286.667L331.034,291.667L303.448,265L275.862,283.333L248.276,296.667L220.69,298.333L193.103,286.667L165.517,300L137.931,300L110.345,300L82.759,298.333L55.172,300L27.586,300L0,300Z" fill="#f58518"/></g></g><path class="foreground" aria-hidden="true" d="" display="none"/></g><g transform="translate(0,0)"><path class="background" aria-hidden="true" d="M0,0h800v300h-800Z"/><g><g class="mark-area role-mark marks" role="graphics-object" aria-roledescription="area mark container"><path aria-label="Date: Mar 16, 2026; Unique Clones/day: 0; Repository: karlmdavis/justdavis-puppet" role="graphics-symbol" aria-roledescription="area mark" d="M0,300L27.586,300L55.172,300L82.759,298.333L110.345,300L137.931,300L165.517,300L193.103,286.667L220.69,298.333L248.276,296.667L275.862,283.333L303.448,265L331.034,291.667L358.621,286.667L386.207,281.667L413.793,276.667L441.379,285L468.966,291.667L496.552,291.667L524.138,270L551.724,295L579.31,293.333L606.897,280L634.483,281.667L662.069,263.333L689.655,285L717.241,276.667L744.828,290L772.414,260L800,300L800,300L772.414,263.333L744.828,291.667L717.241,278.333L689.655,285L662.069,265L634.483,283.333L606.897,280L579.31,293.333L551.724,295L524.138,271.667L496.552,291.667L468.966,291.667L441.379,285L413.793,280L386.207,283.333L358.621,286.667L331.034,291.667L303.448,266.667L275.862,283.333L248.276,296.667L220.69,298.333L193.103,286.667L165.517,300L137.931,300L110.345,300L82.759,298.333L55.172,300L27.586,300L0,300Z" fill="#e45756"/></g></g><path class="foreground" aria-hidden="true" d="" display="none"/></g><g transform="translate(0,0)"><path class="background" aria-hidden="true" d="M0,0h800v300h-800Z"/><g><g class="mark-area role-mark marks" role="graphics-object" aria-roledescription="area mark container"><path aria-label="Date: Mar 16, 2026; Unique Clones/day: 0; Repository: karlmdavis/kobjects" role="graphics-symbol" aria-roledescription="area mark" d="M0,300L27.586,300L55.172,300L82.759,298.333L110.345,300L137.931,300L165.517,300L193.103,286.667L220.69,298.333L248.276,296.667L275.862,283.333L303.448,266.667L331.034,291.667L358.621,286.667L386.207,283.333L413.793,280L441.379,285L468.966,291.667L496.552,291.667L524.138,271.667L551.724,295L579.31,293.333L606.897,280L634.483,283.333L662.069,265L689.655,285L717.241,278.333L744.828,291.667L772.414,263.333L800,300L800,300L772.414,263.333L744.828,291.667L717.241,280L689.655,285L662.069,268.333L634.483,283.333L606.897,280L579.31,293.333L551.724,295L524.138,273.333L496.552,291.667L468.966,291.667L441.379,285L413.793,280L386.207,283.333L358.621,286.667L331.034,291.667L303.448,268.333L275.862,285L248.276,296.667L220.69,298.333L193.103,286.667L165.517,300L137.931,300L110.345,300L82.759,298.333L55.172,300L27.586,300L0,300Z" fill="#72b7b2"/></g></g><path class="foreground" aria-hidden="true" d="" display="none"/></g><g transform="translate(0,0)"><path class="background" aria-hidden="true" d="M0,0h800v300h-800Z"/><g><g class="mark-area role-mark marks" role="graphics-object" aria-roledescription="area mark container"><path aria-label="Date: Mar 16, 2026; Unique Clones/day: 0; Repository: karlmdavis/ksoap2-android" role="graphics-symbol" aria-roledescription="area mark" d="M0,300L27.586,300L55.172,300L82.759,298.333L110.345,300L137.931,300L165.517,300L193.103,286.667L220.69,298.333L248.276,296.667L275.862,285L303.448,268.333L331.034,291.667L358.621,286.667L386.207,283.333L413.793,280L441.379,285L468.966,291.667L496.552,291.667L524.138,273.333L551.724,295L579.31,293.333L606.897,280L634.483,283.333L662.069,268.333L689.655,285L717.241,280L744.828,291.667L772.414,263.333L800,300L800,300L772.414,263.333L744.828,291.667L717.241,281.667L689.655,290L662.069,270L634.483,293.333L606.897,288.333L579.31,295L551.724,295L524.138,278.333L496.552,291.667L468.966,293.333L441.379,286.667L413.793,281.667L386.207,290L358.621,290L331.034,291.667L303.448,270L275.862,290L248.276,296.667L220.69,298.333L193.103,288.333L165.517,300L137.931,300L110.345,300L82.759,298.333L55.172,300L27.586,300L0,300Z" fill="#54a24b"/></g></g><path class="foreground" aria-hidden="true" d="" display="none"/></g><g transform="translate(0,0)"><path class="background" aria-hidden="true" d="M0,0h800v300h-800Z"/><g><g class="mark-area role-mark marks" role="graphics-object" aria-roledescription="area mark container"><path aria-label="Date: Mar 16, 2026; Unique Clones/day: 0; Repository: karlmdavis/kxml2" role="graphics-symbol" aria-roledescription="area mark" d="M0,300L27.586,300L55.172,300L82.759,298.333L110.345,300L137.931,300L165.517,300L193.103,288.333L220.69,298.333L248.276,296.667L275.862,290L303.448,270L331.034,291.667L358.621,290L386.207,290L413.793,281.667L441.379,286.667L468.966,293.333L496.552,291.667L524.138,278.333L551.724,295L579.31,295L606.897,288.333L634.483,293.333L662.069,270L689.655,290L717.241,281.667L744.828,291.667L772.414,263.333L800,300L800,300L772.414,263.333L744.828,291.667L717.241,281.667L689.655,290L662.069,271.667L634.483,293.333L606.897,290L579.31,296.667L551.724,296.667L524.138,280L496.552,291.667L468.966,293.333L441.379,286.667L413.793,283.333L386.207,295L358.621,291.667L331.034,291.667L303.448,273.333L275.862,291.667L248.276,296.667L220.69,298.333L193.103,290L165.517,300L137.931,300L110.345,300L82.759,298.333L55.172,300L27.586,300L0,300Z" fill="#eeca3b"/></g></g><path class="foreground" aria-hidden="true" d="" display="none"/></g><g transform="translate(0,0)"><path class="background" aria-hidden="true" d="M0,0h800v300h-800Z"/><g><g class="mark-area role-mark marks" role="graphics-object" aria-roledescription="area mark container"><path aria-label="Date: Mar 16, 2026; Unique Clones/day: 0; Repository: karlmdavis/ldap-plugin" role="graphics-symbol" aria-roledescription="area mark" d="M0,300L27.586,300L55.172,300L82.759,298.333L110.345,300L137.931,300L165.517,300L193.103,290L220.69,298.333L248.276,296.667L275.862,291.667L303.448,273.333L331.034,291.667L358.621,291.667L386.207,295L413.793,283.333L441.379,286.667L468.966,293.333L496.552,291.667L524.138,280L551.724,296.667L579.31,296.667L606.897,290L634.483,293.333L662.069,271.667L689.655,290L717.241,281.667L744.828,291.667L772.414,263.333L800,300L800,300L772.414,263.333L744.828,291.667L717.241,281.667L689.655,290L662.069,271.667L634.483,293.333L606.897,290L579.31,296.667L551.724,296.667L524.138,280L496.552,293.333L468.966,295L441.379,286.667L413.793,283.333L386.207,295L358.621,291.667L331.034,291.667L303.448,273.333L275.862,291.667L248.276,296.667L220.69,298.333L193.103,290L165.517,300L137.931,300L110.345,300L82.759,298.333L55.172,300L27.586,300L0,300Z" fill="#b279a2"/></g></g><path class="foreground" aria-hidden="true" d="" display="none"/></g><g transform="translate(0,0)"><path class="background" aria-hidden="true" d="M0,0h800v300h-800Z"/><g><g class="mark-area role-mark marks" role="graphics-object" aria-roledescription="area mark container"><path aria-label="Date: Mar 16, 2026; Unique Clones/day: 0; Repository: karlmdavis/lego-ev3dev-rs" role="graphics-symbol" aria-roledescription="area mark" d="M0,300L27.586,300L55.172,300L82.759,298.333L110.345,300L137.931,300L165.517,300L193.103,290L220.69,298.333L248.276,296.667L275.862,291.667L303.448,273.333L331.034,291.667L358.621,291.667L386.207,295L413.793,283.333L441.379,286.667L468.966,295L496.552,293.333L524.138,280L551.724,296.667L579.31,296.667L606.897,290L634.483,293.333L662.069,271.667L689.655,290L717.241,281.667L744.828,291.667L772.414,263.333L800,300L800,300L772.414,268.333L744.828,291.667L717.241,285L689.655,290L662.069,275L634.483,293.333L606.897,291.667L579.31,296.667L551.724,298.333L524.138,281.667L496.552,295L468.966,295L441.379,288.333L413.793,286.667L386.207,295L358.621,293.333L331.034,293.333L303.448,278.333L275.862,291.667L248.276,298.333L220.69,298.333L193.103,291.667L165.517,300L137.931,300L110.345,300L82.759,298.333L55.172,300L27.586,300L0,300Z" fill="#ff9da6"/></g></g><path class="foreground" aria-hidden="true" d="" display="none"/></g><g transform="translate(0,0)"><path class="background" aria-hidden="true" d="M0,0h800v300h-800Z"/><g><g class="mark-area role-mark marks" role="graphics-object" aria-roledescription="area mark container"><path aria-label="Date: Mar 16, 2026; Unique Clones/day: 0; Repository: karlmdavis/liquibase" role="graphics-symbol" aria-roledescription="area mark" d="M0,300L27.586,300L55.172,300L82.759,298.333L110.345,300L137.931,300L165.517,300L193.103,291.667L220.69,298.333L248.276,298.333L275.862,291.667L303.448,278.333L331.034,293.333L358.621,293.333L386.207,295L413.793,286.667L441.379,288.333L468.966,295L496.552,295L524.138,281.667L551.724,298.333L579.31,296.667L606.897,291.667L634.483,293.333L662.069,275L689.655,290L717.241,285L744.828,291.667L772.414,268.333L800,300L800,300L772.414,268.333L744.828,291.667L717.241,285L689.655,291.667L662.069,276.667L634.483,293.333L606.897,291.667L579.31,296.667L551.724,298.333L524.138,281.667L496.552,295L468.966,295L441.379,288.333L413.793,286.667L386.207,295L358.621,293.333L331.034,293.333L303.448,278.333L275.862,291.667L248.276,298.333L220.69,298.333L193.103,291.667L165.517,300L137.931,300L110.345,300L82.759,300L55.172,300L27.586,300L0,300Z" fill="#9d755d"/></g></g><path class="foreground" aria-hidden="true" d="" display="none"/></g><g transform="translate(0,0)"><path class="background" aria-hidden="true" d="M0,0h800v300h-800Z"/><g><g class="mark-area role-mark marks" role="graphics-object" aria-roledescription="area mark container"><path aria-label="Date: Mar 16, 2026; Unique Clones/day: 0; Repository: karlmdavis/m2e-core" role="graphics-symbol" aria-roledescription="area mark" d="M0,300L27.586,300L55.172,300L82.759,300L110.345,300L137.931,300L165.517,300L193.103,291.667L220.69,298.333L248.276,298.333L275.862,291.667L303.448,278.333L331.034,293.333L358.621,293.333L386.207,295L413.793,286.667L441.379,288.333L468.966,295L496.552,295L524.138,281.667L551.724,298.333L579.31,296.667L606.897,291.667L634.483,293.333L662.069,276.667L689.655,291.667L717.241,285L744.828,291.667L772.414,268.333L800,300L800,300L772.414,271.667L744.828,291.667L717.241,286.667L689.655,293.333L662.069,280L634.483,295L606.897,293.333L579.31,296.667L551.724,298.333L524.138,283.333L496.552,295L468.966,295L441.379,288.333L413.793,286.667L386.207,295L358.621,295L331.034,293.333L303.448,280L275.862,291.667L248.276,298.333L220.69,298.333L193.103,291.667L165.517,300L137.931,300L110.345,300L82.759,300L55.172,300L27.586,300L0,300Z" fill="#bab0ac"/></g></g><path class="foreground" aria-hidden="true" d="" display="none"/></g><g transform="translate(0,0)"><path class="background" aria-hidden="true" d="M0,0h800v300h-800Z"/><g><g class="mark-area role-mark marks" role="graphics-object" aria-roledescription="area mark container"><path aria-label="Date: Mar 16, 2026; Unique Clones/day: 0; Repository: karlmdavis/m2e-core-tests" role="graphics-symbol" aria-roledescription="area mark" d="M0,300L27.586,300L55.172,300L82.759,300L110.345,300L137.931,300L165.517,300L193.103,291.667L220.69,298.333L248.276,298.333L275.862,291.667L303.448,280L331.034,293.333L358.621,295L386.207,295L413.793,286.667L441.379,288.333L468.966,295L496.552,295L524.138,283.333L551.724,298.333L579.31,296.667L606.897,293.333L634.483,295L662.069,280L689.655,293.333L717.241,286.667L744.828,291.667L772.414,271.667L800,300L800,300L772.414,271.667L744.828,293.333L717.241,286.667L689.655,296.667L662.069,281.667L634.483,296.667L606.897,295L579.31,296.667L551.724,298.333L524.138,283.333L496.552,295L468.966,295L441.379,291.667L413.793,286.667L386.207,295L358.621,295L331.034,295L303.448,280L275.862,293.333L248.276,298.333L220.69,298.333L193.103,291.667L165.517,300L137.931,300L110.345,300L82.759,300L55.172,300L27.586,300L0,300Z" fill="#4c78a8"/></g></g><path class="foreground" aria-hidden="true" d="" display="none"/></g><g transform="translate(0,0)"><path class="background" aria-hidden="true" d="M0,0h800v300h-800Z"/><g><g class="mark-area role-mark marks" role="graphics-object" aria-roledescription="area mark container"><path aria-label="Date: Mar 16, 2026; Unique Clones/day: 0; Repository: karlmdavis/obsidian-operator" role="graphics-symbol" aria-roledescription="area mark" d="M0,300L27.586,300L55.172,300L82.759,300L110.345,300L137.931,300L165.517,300L193.103,291.667L220.69,298.333L248.276,298.333L275.862,293.333L303.448,280L331.034,295L358.621,295L386.207,295L413.793,286.667L441.379,291.667L468.966,295L496.552,295L524.138,283.333L551.724,298.333L579.31,296.667L606.897,295L634.483,296.667L662.069,281.667L689.655,296.667L717.241,286.667L744.828,293.333L772.414,271.667L800,300L800,300L772.414,275L744.828,295L717.241,290L689.655,296.667L662.069,283.333L634.483,296.667L606.897,295L579.31,296.667L551.724,298.333L524.138,285L496.552,298.333L468.966,295L441.379,291.667L413.793,291.667L386.207,295L358.621,295L331.034,295L303.448,281.667L275.862,293.333L248.276,298.333L220.69,298.333L193.103,293.333L165.517,300L137.931,300L110.345,300L82.759,300L55.172,300L27.586,300L0,300Z" fill="#f58518"/></g></g><path class="foreground" aria-hidden="true" d="" display="none"/></g><g transform="translate(0,0)"><path class="background" aria-hidden="true" d="M0,0h800v300h-800Z"/><g><g class="mark-area role-mark marks" role="graphics-object" aria-roledescription="area mark container"><path aria-label="Date: Mar 16, 2026; Unique Clones/day: 0; Repository: karlmdavis/perfect-note" role="graphics-symbol" aria-roledescription="area mark" d="M0,300L27.586,300L55.172,300L82.759,300L110.345,300L137.931,300L165.517,300L193.103,293.333L220.69,298.333L248.276,298.333L275.862,293.333L303.448,281.667L331.034,295L358.621,295L386.207,295L413.793,291.667L441.379,291.667L468.966,295L496.552,298.333L524.138,285L551.724,298.333L579.31,296.667L606.897,295L634.483,296.667L662.069,283.333L689.655,296.667L717.241,290L744.828,295L772.414,275L800,300L800,300L772.414,278.333L744.828,295L717.241,290L689.655,296.667L662.069,285L634.483,296.667L606.897,295L579.31,296.667L551.724,298.333L524.138,286.667L496.552,298.333L468.966,295L441.379,291.667L413.793,291.667L386.207,295L358.621,295L331.034,296.667L303.448,283.333L275.862,295L248.276,298.333L220.69,298.333L193.103,293.333L165.517,300L137.931,300L110.345,300L82.759,300L55.172,300L27.586,300L0,300Z" fill="#e45756"/></g></g><path class="foreground" aria-hidden="true" d="" display="none"/></g><g transform="translate(0,0)"><path class="background" aria-hidden="true" d="M0,0h800v300h-800Z"/><g><g class="mark-area role-mark marks" role="graphics-object" aria-roledescription="area mark container"><path aria-label="Date: Mar 16, 2026; Unique Clones/day: 0; Repository: karlmdavis/puppet-archive" role="graphics-symbol" aria-roledescription="area mark" d="M0,300L27.586,300L55.172,300L82.759,300L110.345,300L137.931,300L165.517,300L193.103,293.333L220.69,298.333L248.276,298.333L275.862,295L303.448,283.333L331.034,296.667L358.621,295L386.207,295L413.793,291.667L441.379,291.667L468.966,295L496.552,298.333L524.138,286.667L551.724,298.333L579.31,296.667L606.897,295L634.483,296.667L662.069,285L689.655,296.667L717.241,290L744.828,295L772.414,278.333L800,300L800,300L772.414,278.333L744.828,295L717.241,291.667L689.655,296.667L662.069,286.667L634.483,296.667L606.897,295L579.31,296.667L551.724,298.333L524.138,286.667L496.552,298.333L468.966,295L441.379,291.667L413.793,291.667L386.207,295L358.621,295L331.034,296.667L303.448,283.333L275.862,295L248.276,298.333L220.69,298.333L193.103,295L165.517,300L137.931,300L110.345,300L82.759,300L55.172,300L27.586,300L0,300Z" fill="#72b7b2"/></g></g><path class="foreground" aria-hidden="true" d="" display="none"/></g><g transform="translate(0,0)"><path class="background" aria-hidden="true" d="M0,0h800v300h-800Z"/><g><g class="mark-area role-mark marks" role="graphics-object" aria-roledescription="area mark container"><path aria-label="Date: Mar 16, 2026; Unique Clones/day: 0; Repository: karlmdavis/puppet-sonar" role="graphics-symbol" aria-roledescription="area mark" d="M0,300L27.586,300L55.172,300L82.759,300L110.345,300L137.931,300L165.517,300L193.103,295L220.69,298.333L248.276,298.333L275.862,295L303.448,283.333L331.034,296.667L358.621,295L386.207,295L413.793,291.667L441.379,291.667L468.966,295L496.552,298.333L524.138,286.667L551.724,298.333L579.31,296.667L606.897,295L634.483,296.667L662.069,286.667L689.655,296.667L717.241,291.667L744.828,295L772.414,278.333L800,300L800,300L772.414,278.333L744.828,295L717.241,293.333L689.655,296.667L662.069,286.667L634.483,298.333L606.897,296.667L579.31,296.667L551.724,298.333L524.138,286.667L496.552,298.333L468.966,296.667L441.379,291.667L413.793,295L386.207,295L358.621,295L331.034,298.333L303.448,283.333L275.862,295L248.276,298.333L220.69,298.333L193.103,295L165.517,300L137.931,300L110.345,300L82.759,300L55.172,300L27.586,300L0,300Z" fill="#54a24b"/></g></g><path class="foreground" aria-hidden="true" d="" display="none"/></g><g transform="translate(0,0)"><path class="background" aria-hidden="true" d="M0,0h800v300h-800Z"/><g><g class="mark-area role-mark marks" role="graphics-object" aria-roledescription="area mark container"><path aria-label="Date: Mar 16, 2026; Unique Clones/day: 0; Repository: karlmdavis/rps-tourney" role="graphics-symbol" aria-roledescription="area mark" d="M0,300L27.586,300L55.172,300L82.759,300L110.345,300L137.931,300L165.517,300L193.103,295L220.69,298.333L248.276,298.333L275.862,295L303.448,283.333L331.034,298.333L358.621,295L386.207,295L413.793,295L441.379,291.667L468.966,296.667L496.552,298.333L524.138,286.667L551.724,298.333L579.31,296.667L606.897,296.667L634.483,298.333L662.069,286.667L689.655,296.667L717.241,293.333L744.828,295L772.414,278.333L800,300L800,300L772.414,281.667L744.828,295L717.241,295L689.655,296.667L662.069,288.333L634.483,298.333L606.897,296.667L579.31,296.667L551.724,298.333L524.138,288.333L496.552,298.333L468.966,298.333L441.379,291.667L413.793,295L386.207,295L358.621,295L331.034,298.333L303.448,285L275.862,295L248.276,298.333L220.69,298.333L193.103,296.667L165.517,300L137.931,300L110.345,300L82.759,300L55.172,300L27.586,300L0,300Z" fill="#eeca3b"/></g></g><path class="foreground" aria-hidden="true" d="" display="none"/></g><g transform="translate(0,0)"><path class="background" aria-hidden="true" d="M0,0h800v300h-800Z"/><g><g class="mark-area role-mark marks" role="graphics-object" aria-roledescription="area mark container"><path aria-label="Date: Mar 16, 2026; Unique Clones/day: 0; Repository: karlmdavis/sample-maven-and-rcp" role="graphics-symbol" aria-roledescription="area mark" d="M0,300L27.586,300L55.172,300L82.759,300L110.345,300L137.931,300L165.517,300L193.103,296.667L220.69,298.333L248.276,298.333L275.862,295L303.448,285L331.034,298.333L358.621,295L386.207,295L413.793,295L441.379,291.667L468.966,298.333L496.552,298.333L524.138,288.333L551.724,298.333L579.31,296.667L606.897,296.667L634.483,298.333L662.069,288.333L689.655,296.667L717.241,295L744.828,295L772.414,281.667L800,300L800,300L772.414,281.667L744.828,295L717.241,295L689.655,296.667L662.069,290L634.483,298.333L606.897,296.667L579.31,296.667L551.724,298.333L524.138,290L496.552,298.333L468.966,298.333L441.379,293.333L413.793,295L386.207,295L358.621,295L331.034,298.333L303.448,286.667L275.862,295L248.276,298.333L220.69,298.333L193.103,296.667L165.517,300L137.931,300L110.345,300L82.759,300L55.172,300L27.586,300L0,300Z" fill="#b279a2"/></g></g><path class="foreground" aria-hidden="true" d="" display="none"/></g><g transform="translate(0,0)"><path class="background" aria-hidden="true" d="M0,0h800v300h-800Z"/><g><g class="mark-area role-mark marks" role="graphics-object" aria-roledescription="area mark container"><path aria-label="Date: Mar 16, 2026; Unique Clones/day: 0; Repository: karlmdavis/stockfighter-trades-solutions" role="graphics-symbol" aria-roledescription="area mark" d="M0,300L27.586,300L55.172,300L82.759,300L110.345,300L137.931,300L165.517,300L193.103,296.667L220.69,298.333L248.276,298.333L275.862,295L303.448,286.667L331.034,298.333L358.621,295L386.207,295L413.793,295L441.379,293.333L468.966,298.333L496.552,298.333L524.138,290L551.724,298.333L579.31,296.667L606.897,296.667L634.483,298.333L662.069,290L689.655,296.667L717.241,295L744.828,295L772.414,281.667L800,300L800,300L772.414,286.667L744.828,295L717.241,295L689.655,296.667L662.069,291.667L634.483,298.333L606.897,296.667L579.31,296.667L551.724,298.333L524.138,291.667L496.552,298.333L468.966,298.333L441.379,293.333L413.793,295L386.207,295L358.621,296.667L331.034,298.333L303.448,290L275.862,295L248.276,298.333L220.69,298.333L193.103,296.667L165.517,300L137.931,300L110.345,300L82.759,300L55.172,300L27.586,300L0,300Z" fill="#ff9da6"/></g></g><path class="foreground" aria-hidden="true" d="" display="none"/></g><g transform="translate(0,0)"><path class="background" aria-hidden="true" d="M0,0h800v300h-800Z"/><g><g class="mark-area role-mark marks" role="graphics-object" aria-roledescription="area mark container"><path aria-label="Date: Mar 16, 2026; Unique Clones/day: 0; Repository: karlmdavis/test-repo-for-move" role="graphics-symbol" aria-roledescription="area mark" d="M0,300L27.586,300L55.172,300L82.759,300L110.345,300L137.931,300L165.517,300L193.103,296.667L220.69,298.333L248.276,298.333L275.862,295L303.448,290L331.034,298.333L358.621,296.667L386.207,295L413.793,295L441.379,293.333L468.966,298.333L496.552,298.333L524.138,291.667L551.724,298.333L579.31,296.667L606.897,296.667L634.483,298.333L662.069,291.667L689.655,296.667L717.241,295L744.828,295L772.414,286.667L800,300L800,300L772.414,290L744.828,295L717.241,295L689.655,296.667L662.069,293.333L634.483,298.333L606.897,296.667L579.31,296.667L551.724,298.333L524.138,293.333L496.552,298.333L468.966,298.333L441.379,293.333L413.793,295L386.207,295L358.621,298.333L331.034,298.333L303.448,291.667L275.862,296.667L248.276,298.333L220.69,298.333L193.103,296.667L165.517,300L137.931,300L110.345,300L82.759,300L55.172,300L27.586,300L0,300Z" fill="#9d755d"/></g></g><path class="foreground" aria-hidden="true" d="" display="none"/></g><g transform="translate(0,0)"><path class="background" aria-hidden="true" d="M0,0h800v300h-800Z"/><g><g class="mark-area role-mark marks" role="graphics-object" aria-roledescription="area mark container"><path aria-label="Date: Mar 16, 2026; Unique Clones/day: 0; Repository: karlmdavis/todoist-ai" role="graphics-symbol" aria-roledescription="area mark" d="M0,300L27.586,300L55.172,300L82.759,300L110.345,300L137.931,300L165.517,300L193.103,296.667L220.69,298.333L248.276,298.333L275.862,296.667L303.448,291.667L331.034,298.333L358.621,298.333L386.207,295L413.793,295L441.379,293.333L468.966,298.333L496.552,298.333L524.138,293.333L551.724,298.333L579.31,296.667L606.897,296.667L634.483,298.333L662.069,293.333L689.655,296.667L717.241,295L744.828,295L772.414,290L800,300L800,300L772.414,290L744.828,295L717.241,296.667L689.655,296.667L662.069,293.333L634.483,298.333L606.897,296.667L579.31,296.667L551.724,298.333L524.138,293.333L496.552,298.333L468.966,298.333L441.379,296.667L413.793,295L386.207,295L358.621,298.333L331.034,298.333L303.448,291.667L275.862,296.667L248.276,298.333L220.69,298.333L193.103,296.667L165.517,300L137.931,300L110.345,300L82.759,300L55.172,300L27.586,300L0,300Z" fill="#bab0ac"/></g></g><path class="foreground" aria-hidden="true" d="" display="none"/></g><g transform="translate(0,0)"><path class="background" aria-hidden="true" d="M0,0h800v300h-800Z"/><g><g class="mark-area role-mark marks" role="graphics-object" aria-roledescription="area mark container"><path aria-label="Date: Mar 16, 2026; Unique Clones/day: 0; Repository: karlmdavis/usgs-water-api-java" role="graphics-symbol" aria-roledescription="area mark" d="M0,300L27.586,300L55.172,300L82.759,300L110.345,300L137.931,300L165.517,300L193.103,296.667L220.69,298.333L248.276,298.333L275.862,296.667L303.448,291.667L331.034,298.333L358.621,298.333L386.207,295L413.793,295L441.379,296.667L468.966,298.333L496.552,298.333L524.138,293.333L551.724,298.333L579.31,296.667L606.897,296.667L634.483,298.333L662.069,293.333L689.655,296.667L717.241,296.667L744.828,295L772.414,290L800,300L800,300L772.414,295L744.828,300L717.241,298.333L689.655,298.333L662.069,296.667L634.483,300L606.897,298.333L579.31,300L551.724,300L524.138,296.667L496.552,300L468.966,300L441.379,298.333L413.793,296.667L386.207,298.333L358.621,300L331.034,300L303.448,295L275.862,300L248.276,300L220.69,300L193.103,300L165.517,300L137.931,300L110.345,300L82.759,300L55.172,300L27.586,300L0,300Z" fill="#4c78a8"/></g></g><path class="foreground" aria-hidden="true" d="" display="none"/></g><g transform="translate(0,0)"><path class="background" aria-hidden="true" d="M0,0h800v300h-800Z"/><g><g class="mark-area role-mark marks" role="graphics-object" aria-roledescription="area mark container"><path aria-label="Date: Mar 16, 2026; Unique Clones/day: 0; Repository: karlmdavis/workstation-base-ansible-role" role="graphics-symbol" aria-roledescription="area mark" d="M0,300L27.586,300L55.172,300L82.759,300L110.345,300L137.931,300L165.517,300L193.103,300L220.69,300L248.276,300L275.862,300L303.448,295L331.034,300L358.621,300L386.207,298.333L413.793,296.667L441.379,298.333L468.966,300L496.552,300L524.138,296.667L551.724,300L579.31,300L606.897,298.333L634.483,300L662.069,296.667L689.655,298.333L717.241,298.333L744.828,300L772.414,295L800,300L800,300L772.414,300L744.828,300L717.241,300L689.655,298.333L662.069,298.333L634.483,300L606.897,298.333L579.31,300L551.724,300L524.138,298.333L496.552,300L468.966,300L441.379,300L413.793,298.333L386.207,300L358.621,300L331.034,300L303.448,298.333L275.862,300L248.276,300L220.69,300L193.103,300L165.517,300L137.931,300L110.345,300L82.759,300L55.172,300L27.586,300L0,300Z" fill="#f58518"/></g></g><path class="foreground" aria-hidden="true" d="" display="none"/></g><g transform="translate(0,0)"><path class="background" aria-hidden="true" d="M0,0h800v300h-800Z"/><g><g class="mark-area role-mark marks" role="graphics-object" aria-roledescription="area mark container"><path aria-label="Date: Mar 16, 2026; Unique Clones/day: 0; Repository: karlmdavis/xmlpull" role="graphics-symbol" aria-roledescription="area mark" d="M0,300L27.586,300L55.172,300L82.759,300L110.345,300L137.931,300L165.517,300L193.103,300L220.69,300L248.276,300L275.862,300L303.448,298.333L331.034,300L358.621,300L386.207,300L413.793,298.333L441.379,300L468.966,300L496.552,300L524.138,298.333L551.724,300L579.31,300L606.897,298.333L634.483,300L662.069,298.333L689.655,298.333L717.241,300L744.828,300L772.414,300L800,300L800,300L772.414,300L744.828,300L717.241,300L689.655,300L662.069,300L634.483,300L606.897,300L579.31,300L551.724,300L524.138,300L496.552,300L468.966,300L441.379,300L413.793,300L386.207,300L358.621,300L331.034,300L303.448,300L275.862,300L248.276,300L220.69,300L193.103,300L165.517,300L137.931,300L110.345,300L82.759,300L55.172,300L27.586,300L0,300Z" fill="#e45756"/></g></g><path class="foreground" aria-hidden="true" d="" display="none"/></g></g><g class="mark-group role-legend" role="graphics-symbol" aria-roledescription="legend" aria-label="Symbol legend titled 'Repository' for fill color with 43 values: justdavis-family/github-analytics-data, justdavis-family/justdavis, karlmdavis/FHIR-Server, karlmdavis/ansible, karlmdavis/ansible-jenkins, ending with karlmdavis/xmlpull"><g transform="translate(818,0)"><path class="background" aria-hidden="true" d="M0,0h176v404h-176Z" pointer-events="none"/><g><g class="mark-group role-legend-entry"><g transform="translate(0,16)"><path class="background" aria-hidden="true" d="M0,0h0v0h0Z" pointer-events="none"/><g><g class="mark-group role-scope" role="graphics-object" aria-roledescription="group mark container"><g transform="translate(0,0)"><path class="background" aria-hidden="true" d="M0,0h176v11h-176Z" pointer-events="none" opacity="1"/><g><g class="mark-symbol role-legend-symbol" pointer-events="none"><path transform="translate(6,6)" d="M5,0A5,5,0,1,1,-5,0A5,5,0,1,1,5,0" fill="#4c78a8" stroke-width="1.5" opacity="1"/></g><g class="mark-text role-legend-label" pointer-events="none"><text text-anchor="start" transform="translate(16,9)" font-family="sans-serif" font-size="10px" fill="#000" opacity="1">justdavis-family/github-analytics-d…</text></g></g><path class="foreground" aria-hidden="true" d="" pointer-events="none" display="none"/></g><g transform="translate(0,13)"><path class="background" aria-hidden="true" d="M0,0h176v11h-176Z" pointer-events="none" opacity="1"/><g><g class="mark-symbol role-legend-symbol" pointer-events="none"><path transform="translate(6,6)" d="M5,0A5,5,0,1,1,-5,0A5,5,0,1,1,5,0" fill="#f58518" stroke-width="1.5" opacity="1"/></g><g class="mark-text role-legend-label" pointer-events="none"><text text-anchor="start" transform="translate(16,9)" font-family="sans-serif" font-size="10px" fill="#000" opacity="1">justdavis-family/justdavis</text></g></g><path class="foreground" aria-hidden="true" d="" pointer-events="none" display="none"/></g><g transform="translate(0,26)"><path class="background" aria-hidden="true" d="M0,0h176v11h-176Z" pointer-events="none" opacity="1"/><g><g class="mark-symbol role-legend-symbol" pointer-events="none"><path transform="translate(6,6)" d="M5,0A5,5,0,1,1,-5,0A5,5,0,1,1,5,0" fill="#e45756" stroke-width="1.5" opacity="1"/></g><g class="mark-text role-legend-label" pointer-events="none"><text text-anchor="start" transform="translate(16,9)" font-family="sans-serif" font-size="10px" fill="#000" opacity="1">karlmdavis/FHIR-Server</text></g></g><path class="foreground" aria-hidden="true" d="" pointer-events="none" display="none"/></g><g transform="translate(0,39)"><path class="background" aria-hidden="true" d="M0,0h176v11h-176Z" pointer-events="none" opacity="1"/><g><g class="mark-symbol role-legend-symbol" pointer-events="none"><path transform="translate(6,6)" d="M5,0A5,5,0,1,1,-5,0A5,5,0,1,1,5,0" fill="#72b7b2" stroke-width="1.5" opacity="1"/></g><g class="mark-text role-legend-label" pointer-events="none"><text text-anchor="start" transform="translate(16,9)" font-family="sans-serif" font-size="10px" fill="#000" opacity="1">karlmdavis/ansible</text></g></g><path class="foreground" aria-hidden="true" d="" pointer-events="none" display="none"/></g><g transform="translate(0,52)"><path class="background" aria-hidden="true" d="M0,0h176v11h-176Z" pointer-events="none" opacity="1"/><g><g class="mark-symbol role-legend-symbol" pointer-events="none"><path transform="translate(6,6)" d="M5,0A5,5,0,1,1,-5,0A5,5,0,1,1,5,0" fill="#54a24b" stroke-width="1.5" opacity="1"/></g><g class="mark-text role-legend-label" pointer-events="none"><text text-anchor="start" transform="translate(16,9)" font-family="sans-serif" font-size="10px" fill="#000" opacity="1">karlmdavis/ansible-jenkins</text></g></g><path class="foreground" aria-hidden="true" d="" pointer-events="none" display="none"/></g><g transform="translate(0,65)"><path class="background" aria-hidden="true" d="M0,0h176v11h-176Z" pointer-events="none" opacity="1"/><g><g class="mark-symbol role-legend-symbol" pointer-events="none"><path transform="translate(6,6)" d="M5,0A5,5,0,1,1,-5,0A5,5,0,1,1,5,0" fill="#eeca3b" stroke-width="1.5" opacity="1"/></g><g class="mark-text role-legend-label" pointer-events="none"><text text-anchor="start" transform="translate(16,9)" font-family="sans-serif" font-size="10px" fill="#000" opacity="1">karlmdavis/ansible-role-acmetool</text></g></g><path class="foreground" aria-hidden="true" d="" pointer-events="none" display="none"/></g><g transform="translate(0,78)"><path class="background" aria-hidden="true" d="M0,0h176v11h-176Z" pointer-events="none" opacity="1"/><g><g class="mark-symbol role-legend-symbol" pointer-events="none"><path transform="translate(6,6)" d="M5,0A5,5,0,1,1,-5,0A5,5,0,1,1,5,0" fill="#b279a2" stroke-width="1.5" opacity="1"/></g><g class="mark-text role-legend-label" pointer-events="none"><text text-anchor="start" transform="translate(16,9)" font-family="sans-serif" font-size="10px" fill="#000" opacity="1">karlmdavis/ansible-role-bind-dns</text></g></g><path class="foreground" aria-hidden="true" d="" pointer-events="none" display="none"/></g><g transform="translate(0,91)"><path class="background" aria-hidden="true" d="M0,0h176v11h-176Z" pointer-events="none" opacity="1"/><g><g class="mark-symbol role-legend-symbol" pointer-events="none"><path transform="translate(6,6)" d="M5,0A5,5,0,1,1,-5,0A5,5,0,1,1,5,0" fill="#ff9da6" stroke-width="1.5" opacity="1"/></g><g class="mark-text role-legend-label" pointer-events="none"><text text-anchor="start" transform="translate(16,9)" font-family="sans-serif" font-size="10px" fill="#000" opacity="1">karlmdavis/ansible-role-jenkins2</text></g></g><path class="foreground" aria-hidden="true" d="" pointer-events="none" display="none"/></g><g transform="translate(0,104)"><path class="background" aria-hidden="true" d="M0,0h176v11h-176Z" pointer-events="none" opacity="1"/><g><g class="mark-symbol role-legend-symbol" pointer-events="none"><path transform="translate(6,6)" d="M5,0A5,5,0,1,1,-5,0A5,5,0,1,1,5,0" fill="#9d755d" stroke-width="1.5" opacity="1"/></g><g class="mark-text role-legend-label" pointer-events="none"><text text-anchor="start" transform="translate(16,9)" font-family="sans-serif" font-size="10px" fill="#000" opacity="1">karlmdavis/ansible-role-ldap</text></g></g><path class="foreground" aria-hidden="true" d="" pointer-events="none" display="none"/></g><g transform="translate(0,117)"><path class="background" aria-hidden="true" d="M0,0h176v11h-176Z" pointer-events="none" opacity="1"/><g><g class="mark-symbol role-legend-symbol" pointer-events="none"><path transform="translate(6,6)" d="M5,0A5,5,0,1,1,-5,0A5,5,0,1,1,5,0" fill="#bab0ac" stroke-width="1.5" opacity="1"/></g><g class="mark-text role-legend-label" pointer-events="none"><text text-anchor="start" transform="translate(16,9)" font-family="sans-serif" font-size="10px" fill="#000" opacity="1">karlmdavis/ansible-role-rcm-dotfiles</text></g></g><path class="foreground" aria-hidden="true" d="" pointer-events="none" display="none"/></g><g transform="translate(0,130)"><path class="background" aria-hidden="true" d="M0,0h176v11h-176Z" pointer-events="none" opacity="1"/><g><g class="mark-symbol role-legend-symbol" pointer-events="none"><path transform="translate(6,6)" d="M5,0A5,5,0,1,1,-5,0A5,5,0,1,1,5,0" fill="#4c78a8" stroke-width="1.5" opacity="1"/></g><g class="mark-text role-legend-label" pointer-events="none"><text text-anchor="start" transform="translate(16,9)" font-family="sans-serif" font-size="10px" fill="#000" opacity="1">karlmdavis/ansible-roles</text></g></g><path class="foreground" aria-hidden="true" d="" pointer-events="none" display="none"/></g><g transform="translate(0,143)"><path class="background" aria-hidden="true" d="M0,0h176v11h-176Z" pointer-events="none" opacity="1"/><g><g class="mark-symbol role-legend-symbol" pointer-events="none"><path transform="translate(6,6)" d="M5,0A5,5,0,1,1,-5,0A5,5,0,1,1,5,0" fill="#f58518" stroke-width="1.5" opacity="1"/></g><g class="mark-text role-legend-label" pointer-events="none"><text text-anchor="start" transform="translate(16,9)" font-family="sans-serif" font-size="10px" fill="#000" opacity="1">karlmdavis/bbonfhir-dev-infra-doc…</text></g></g><path class="foreground" aria-hidden="true" d="" pointer-events="none" display="none"/></g><g transform="translate(0,156)"><path class="background" aria-hidden="true" d="M0,0h176v11h-176Z" pointer-events="none" opacity="1"/><g><g class="mark-symbol role-legend-symbol" pointer-events="none"><path transform="translate(6,6)" d="M5,0A5,5,0,1,1,-5,0A5,5,0,1,1,5,0" fill="#e45756" stroke-width="1.5" opacity="1"/></g><g class="mark-text role-legend-label" pointer-events="none"><text text-anchor="start" transform="translate(16,9)" font-family="sans-serif" font-size="10px" fill="#000" opacity="1">karlmdavis/can-i-kayak-baltimore</text></g></g><path class="foreground" aria-hidden="true" d="" pointer-events="none" display="none"/></g><g transform="translate(0,169)"><path class="background" aria-hidden="true" d="M0,0h176v11h-176Z" pointer-events="none" opacity="1"/><g><g class="mark-symbol role-legend-symbol" pointer-events="none"><path transform="translate(6,6)" d="M5,0A5,5,0,1,1,-5,0A5,5,0,1,1,5,0" fill="#72b7b2" stroke-width="1.5" opacity="1"/></g><g class="mark-text role-legend-label" pointer-events="none"><text text-anchor="start" transform="translate(16,9)" font-family="sans-serif" font-size="10px" fill="#000" opacity="1">karlmdavis/datanucleus-test-jdo-1…</text></g></g><path class="foreground" aria-hidden="true" d="" pointer-events="none" display="none"/></g><g transform="translate(0,182)"><path class="background" aria-hidden="true" d="M0,0h176v11h-176Z" pointer-events="none" opacity="1"/><g><g class="mark-symbol role-legend-symbol" pointer-events="none"><path transform="translate(6,6)" d="M5,0A5,5,0,1,1,-5,0A5,5,0,1,1,5,0" fill="#54a24b" stroke-width="1.5" opacity="1"/></g><g class="mark-text role-legend-label" pointer-events="none"><text text-anchor="start" transform="translate(16,9)" font-family="sans-serif" font-size="10px" fill="#000" opacity="1">karlmdavis/dotfiles</text></g></g><path class="foreground" aria-hidden="true" d="" pointer-events="none" display="none"/></g><g transform="translate(0,195)"><path class="background" aria-hidden="true" d="M0,0h176v11h-176Z" pointer-events="none" opacity="1"/><g><g class="mark-symbol role-legend-symbol" pointer-events="none"><path transform="translate(6,6)" d="M5,0A5,5,0,1,1,-5,0A5,5,0,1,1,5,0" fill="#eeca3b" stroke-width="1.5" opacity="1"/></g><g class="mark-text role-legend-label" pointer-events="none"><text text-anchor="start" transform="translate(16,9)" font-family="sans-serif" font-size="10px" fill="#000" opacity="1">karlmdavis/fhir-benchmarks</text></g></g><path class="foreground" aria-hidden="true" d="" pointer-events="none" display="none"/></g><g transform="translate(0,208)"><path class="background" aria-hidden="true" d="M0,0h176v11h-176Z" pointer-events="none" opacity="1"/><g><g class="mark-symbol role-legend-symbol" pointer-events="none"><path transform="translate(6,6)" d="M5,0A5,5,0,1,1,-5,0A5,5,0,1,1,5,0" fill="#b279a2" stroke-width="1.5" opacity="1"/></g><g class="mark-text role-legend-label" pointer-events="none"><text text-anchor="start" transform="translate(16,9)" font-family="sans-serif" font-size="10px" fill="#000" opacity="1">karlmdavis/hapi-fhir-jpaserver-sta…</text></g></g><path class="foreground" aria-hidden="true" d="" pointer-events="none" display="none"/></g><g transform="translate(0,221)"><path class="background" aria-hidden="true" d="M0,0h176v11h-176Z" pointer-events="none" opacity="1"/><g><g class="mark-symbol role-legend-symbol" pointer-events="none"><path transform="translate(6,6)" d="M5,0A5,5,0,1,1,-5,0A5,5,0,1,1,5,0" fill="#ff9da6" stroke-width="1.5" opacity="1"/></g><g class="mark-text role-legend-label" pointer-events="none"><text text-anchor="start" transform="translate(16,9)" font-family="sans-serif" font-size="10px" fill="#000" opacity="1">karlmdavis/hello-rust-actix</text></g></g><path class="foreground" aria-hidden="true" d="" pointer-events="none" display="none"/></g><g transform="translate(0,234)"><path class="background" aria-hidden="true" d="M0,0h176v11h-176Z" pointer-events="none" opacity="1"/><g><g class="mark-symbol role-legend-symbol" pointer-events="none"><path transform="translate(6,6)" d="M5,0A5,5,0,1,1,-5,0A5,5,0,1,1,5,0" fill="#9d755d" stroke-width="1.5" opacity="1"/></g><g class="mark-text role-legend-label" pointer-events="none"><text text-anchor="start" transform="translate(16,9)" font-family="sans-serif" font-size="10px" fill="#000" opacity="1">karlmdavis/jessentials</text></g></g><path class="foreground" aria-hidden="true" d="" pointer-events="none" display="none"/></g><g transform="translate(0,247)"><path class="background" aria-hidden="true" d="M0,0h176v11h-176Z" pointer-events="none" opacity="1"/><g><g class="mark-symbol role-legend-symbol" pointer-events="none"><path transform="translate(6,6)" d="M5,0A5,5,0,1,1,-5,0A5,5,0,1,1,5,0" fill="#bab0ac" stroke-width="1.5" opacity="1"/></g><g class="mark-text role-legend-label" pointer-events="none"><text text-anchor="start" transform="translate(16,9)" font-family="sans-serif" font-size="10px" fill="#000" opacity="1">karlmdavis/justdavis-ansible</text></g></g><path class="foreground" aria-hidden="true" d="" pointer-events="none" display="none"/></g><g transform="translate(0,260)"><path class="background" aria-hidden="true" d="M0,0h176v11h-176Z" pointer-events="none" opacity="1"/><g><g class="mark-symbol role-legend-symbol" pointer-events="none"><path transform="translate(6,6)" d="M5,0A5,5,0,1,1,-5,0A5,5,0,1,1,5,0" fill="#4c78a8" stroke-width="1.5" opacity="1"/></g><g class="mark-text role-legend-label" pointer-events="none"><text text-anchor="start" transform="translate(16,9)" font-family="sans-serif" font-size="10px" fill="#000" opacity="1">karlmdavis/justdavis-finances</text></g></g><path class="foreground" aria-hidden="true" d="" pointer-events="none" display="none"/></g><g transform="translate(0,273)"><path class="background" aria-hidden="true" d="M0,0h176v11h-176Z" pointer-events="none" opacity="1"/><g><g class="mark-symbol role-legend-symbol" pointer-events="none"><path transform="translate(6,6)" d="M5,0A5,5,0,1,1,-5,0A5,5,0,1,1,5,0" fill="#f58518" stroke-width="1.5" opacity="1"/></g><g class="mark-text role-legend-label" pointer-events="none"><text text-anchor="start" transform="translate(16,9)" font-family="sans-serif" font-size="10px" fill="#000" opacity="1">karlmdavis/justdavis-karl</text></g></g><path class="foreground" aria-hidden="true" d="" pointer-events="none" display="none"/></g><g transform="translate(0,286)"><path class="background" aria-hidden="true" d="M0,0h176v11h-176Z" pointer-events="none" opacity="1"/><g><g class="mark-symbol role-legend-symbol" pointer-events="none"><path transform="translate(6,6)" d="M5,0A5,5,0,1,1,-5,0A5,5,0,1,1,5,0" fill="#e45756" stroke-width="1.5" opacity="1"/></g><g class="mark-text role-legend-label" pointer-events="none"><text text-anchor="start" transform="translate(16,9)" font-family="sans-serif" font-size="10px" fill="#000" opacity="1">karlmdavis/justdavis-puppet</text></g></g><path class="foreground" aria-hidden="true" d="" pointer-events="none" display="none"/></g><g transform="translate(0,299)"><path class="background" aria-hidden="true" d="M0,0h176v11h-176Z" pointer-events="none" opacity="1"/><g><g class="mark-symbol role-legend-symbol" pointer-events="none"><path transform="translate(6,6)" d="M5,0A5,5,0,1,1,-5,0A5,5,0,1,1,5,0" fill="#72b7b2" stroke-width="1.5" opacity="1"/></g><g class="mark-text role-legend-label" pointer-events="none"><text text-anchor="start" transform="translate(16,9)" font-family="sans-serif" font-size="10px" fill="#000" opacity="1">karlmdavis/kobjects</text></g></g><path class="foreground" aria-hidden="true" d="" pointer-events="none" display="none"/></g><g transform="translate(0,312)"><path class="background" aria-hidden="true" d="M0,0h176v11h-176Z" pointer-events="none" opacity="1"/><g><g class="mark-symbol role-legend-symbol" pointer-events="none"><path transform="translate(6,6)" d="M5,0A5,5,0,1,1,-5,0A5,5,0,1,1,5,0" fill="#54a24b" stroke-width="1.5" opacity="1"/></g><g class="mark-text role-legend-label" pointer-events="none"><text text-anchor="start" transform="translate(16,9)" font-family="sans-serif" font-size="10px" fill="#000" opacity="1">karlmdavis/ksoap2-android</text></g></g><path class="foreground" aria-hidden="true" d="" pointer-events="none" display="none"/></g><g transform="translate(0,325)"><path class="background" aria-hidden="true" d="M0,0h176v11h-176Z" pointer-events="none" opacity="1"/><g><g class="mark-symbol role-legend-symbol" pointer-events="none"><path transform="translate(6,6)" d="M5,0A5,5,0,1,1,-5,0A5,5,0,1,1,5,0" fill="#eeca3b" stroke-width="1.5" opacity="1"/></g><g class="mark-text role-legend-label" pointer-events="none"><text text-anchor="start" transform="translate(16,9)" font-family="sans-serif" font-size="10px" fill="#000" opacity="1">karlmdavis/kxml2</text></g></g><path class="foreground" aria-hidden="true" d="" pointer-events="none" display="none"/></g><g transform="translate(0,338)"><path class="background" aria-hidden="true" d="M0,0h176v11h-176Z" pointer-events="none" opacity="1"/><g><g class="mark-symbol role-legend-symbol" pointer-events="none"><path transform="translate(6,6)" d="M5,0A5,5,0,1,1,-5,0A5,5,0,1,1,5,0" fill="#b279a2" stroke-width="1.5" opacity="1"/></g><g class="mark-text role-legend-label" pointer-events="none"><text text-anchor="start" transform="translate(16,9)" font-family="sans-serif" font-size="10px" fill="#000" opacity="1">karlmdavis/ldap-plugin</text></g></g><path class="foreground" aria-hidden="true" d="" pointer-events="none" display="none"/></g><g transform="translate(0,351)"><path class="background" aria-hidden="true" d="M0,0h176v11h-176Z" pointer-events="none" opacity="1"/><g><g class="mark-symbol role-legend-symbol" pointer-events="none"><path transform="translate(6,6)" d="M5,0A5,5,0,1,1,-5,0A5,5,0,1,1,5,0" fill="#ff9da6" stroke-width="1.5" opacity="1"/></g><g class="mark-text role-legend-label" pointer-events="none"><text text-anchor="start" transform="translate(16,9)" font-family="sans-serif" font-size="10px" fill="#000" opacity="1">karlmdavis/lego-ev3dev-rs</text></g></g><path class="foreground" aria-hidden="true" d="" pointer-events="none" display="none"/></g><g transform="translate(0,364)"><path class="background" aria-hidden="true" d="M0,0h176v11h-176Z" pointer-events="none" opacity="1"/><g><g class="mark-symbol role-legend-symbol" pointer-events="none"><path transform="translate(6,6)" d="M5,0A5,5,0,1,1,-5,0A5,5,0,1,1,5,0" fill="#9d755d" stroke-width="1.5" opacity="1"/></g><g class="mark-text role-legend-label" pointer-events="none"><text text-anchor="start" transform="translate(16,9)" font-family="sans-serif" font-size="10px" fill="#000" opacity="1">karlmdavis/liquibase</text></g></g><path class="foreground" aria-hidden="true" d="" pointer-events="none" display="none"/></g><g transform="translate(0,377)"><path class="background" aria-hidden="true" d="M0,0h176v11h-176Z" pointer-events="none" opacity="1"/><g><g class="mark-symbol role-legend-symbol" pointer-events="none"><path transform="translate(6,6)" d="M5,0A5,5,0,1,1,-5,0A5,5,0,1,1,5,0" fill="#bab0ac" stroke-width="1.5" opacity="1"/></g><g class="mark-text role-legend-label" pointer-events="none"><text text-anchor="start" transform="translate(16,9)" font-family="sans-serif" font-size="10px" fill="#000" opacity="1">…14 entries</text></g></g><path class="foreground" aria-hidden="true" d="" pointer-events="none" display="none"/></g></g></g><path class="foreground" aria-hidden="true" d="" pointer-events="none" display="none"/></g></g><g class="mark-text role-legend-title" pointer-events="none"><text text-anchor="start" transform="translate(0,9)" font-family="sans-serif" font-size="11px" font-weight="bold" fill="#000" opacity="1">Repository</text></g></g><path class="foreground" aria-hidden="true" d="" pointer-events="none" display="none"/></g></g><g class="mark-group role-title"><g transform="translate(400,-22)"><path class="background" aria-hidden="true" d="M0,0h0v0h0Z" pointer-events="none"/><g><g class="mark-text role-title-text" role="graphics-symbol" aria-roledescription="title" aria-label="Title text 'Unique Clones per Day'" pointer-events="none"><text text-anchor="middle" transform="translate(0,10)" font-family="sans-serif" font-size="13px" font-weight="bold" fill="#000" opacity="1">Unique Clones per Day</text></g></g><path class="foreground" aria-hidden="true" d="" pointer-events="none" display="none"/></g></g></g><path class="foreground" aria-hidden="true" d="" display="none"/></g></g></g></svg>