<svg xmlns="http://www.w3.org/2000/svg" xmlns:xlink="http://www.w3.org/1999/xlink" version="1.1" class="marks" width="1043" height="436" viewBox="0 0 1043 436"><rect width="1043" height="436" fill="white"/><g fill="none" stroke-miterlimit="10" transform="translate(44,27)"><g class="mark-group role-frame root" role="graphics-object" aria-roledescription="group mark container"><g transform="translate(0,0)"><path class="background" aria-hidden="true" d="M0.5,0.5h800v300h-800Z" stroke="#ddd"/><g><g class="mark-group role-axis" aria-hidden="true"><g transform="translate(0.5,300.5)"><path class="background" aria-hidden="true" d="M0,0h0v0h0Z" pointer-events="none"/><g><g class="mark-rule role-axis-grid" pointer-events="none"><line transform="translate(0,-300)" x2="0" y2="300" stroke="#ddd" stroke-width="1" opacity="1"/><line transform="translate(31,-300)" x2="0" y2="300" stroke="#ddd" stroke-width="1" opacity="1"/><line transform="translate(62,-300)" x2="0" y2="300" stroke="#ddd" stroke-width="1" opacity="1"/><line transform="translate(92,-300)" x2="0" y2="300" stroke="#ddd" stroke-width="1" opacity="1"/><line transform="translate(123,-300)" x2="0" y2="300" stroke="#ddd" stroke-width="1" opacity="1"/><line transform="translate(154,-300)" x2="0" y2="300" stroke="#ddd" stroke-width="1" opacity="1"/><line transform="translate(185,-300)" x2="0" y2="300" stroke="#ddd" stroke-width="1" opacity="1"/><line transform="translate(215,-300)" x2="0" y2="300" stroke="#ddd" stroke-width="1" opacity="1"/><line transform="translate(246,-300)" x2="0" y2="300" stroke="#ddd" stroke-width="1" opacity="1"/><line transform="translate(277,-300)" x2="0" y2="300" stroke="#ddd" stroke-width="1" opacity="1"/><line transform="translate(308,-300)" x2="0" y2="300" stroke="#ddd" stroke-width="1" opacity="1"/><line transform="translate(338,-300)" x2="0" y2="300" stroke="#ddd" stroke-width="1" opacity="1"/><line transform="translate(369,-300)" x2="0" y2="300" stroke="#ddd" stroke-width="1" opacity="1"/><line transform="translate(400,-300)" x2="0" y2="300" stroke="#ddd" stroke-width="1" opacity="1"/><line transform="translate(431,-300)" x2="0" y2="300" stroke="#ddd" stroke-width="1" opacity="1"/><line transform="translate(462,-300)" x2="0" y2="300" stroke="#ddd" stroke-width="1" opacity="1"/><line transform="translate(492,-300)" x2="0" y2="300" stroke="#ddd" stroke-width="1" opacity="1"/><line transform="translate(523,-300)" x2="0" y2="300" stroke="#ddd" stroke-width="1" opacity="1"/><line transform="translate(554,-300)" x2="0" y2="300" stroke="#ddd" stroke-width="1" opacity="1"/><line transform="translate(585,-300)" x2="0" y2="300" stroke="#ddd" stroke-width="1" opacity="1"/><line transform="translate(615,-300)" x2="0" y2="300" stroke="#ddd" stroke-width="1" opacity="1"/><line transform="translate(646,-300)" x2="0" y2="300" stroke="#ddd" stroke-width="1" opacity="1"/><line transform="translate(677,-300)" x2="0" y2="300" stroke="#ddd" stroke-width="1" opacity="1"/><line transform="translate(708,-300)" x2="0" y2="300" stroke="#ddd" stroke-width="1" opacity="1"/><line transform="translate(738,-300)" x2="0" y2="300" stroke="#ddd" stroke-width="1" opacity="1"/><line transform="translate(769,-300)" x2="0" y2="300" stroke="#ddd" stroke-width="1" opacity="1"/><line transform="translate(800,-300)" x2="0" y2="300" stroke="#ddd" stroke-width="1" opacity="1"/></g></g><path class="foreground" aria-hidden="true" d="" pointer-events="none" display="none"/></g></g><g class="mark-group role-axis" aria-hidden="true"><g transform="translate(0.5,0.5)"><path class="background" aria-hidden="true" d="M0,0h0v0h0Z" pointer-events="none"/><g><g class="mark-rule role-axis-grid" pointer-events="none"><line transform="translate(0,300)" x2="800" y2="0" stroke="#ddd" stroke-width="1" opacity="1"/><line transform="translate(0,267)" x2="800" y2="0" stroke="#ddd" stroke-width="1" opacity="1"/><line transform="translate(0,233)" x2="800" y2="0" stroke="#ddd" stroke-width="1" opacity="1"/><line transform="translate(0,200)" x2="800" y2="0" stroke="#ddd" stroke-width="1" opacity="1"/><line transform="translate(0,167)" x2="800" y2="0" stroke="#ddd" stroke-width="1" opacity="1"/><line transform="translate(0,133)" x2="800" y2="0" stroke="#ddd" stroke-width="1" opacity="1"/><line transform="translate(0,100)" x2="800" y2="0" stroke="#ddd" stroke-width="1" opacity="1"/><line transform="translate(0,67)" x2="800" y2="0" stroke="#ddd" stroke-width="1" opacity="1"/><line transform="translate(0,33)" x2="800" y2="0" stroke="#ddd" stroke-width="1" opacity="1"/><line transform="translate(0,0)" x2="800" y2="0" stroke="#ddd" stroke-width="1" opacity="1"/></g></g><path class="foreground" aria-hidden="true" d="" pointer-events="none" display="none"/></g></g><g class="mark-group role-axis" role="graphics-symbol" aria-roledescription="axis" aria-label="X-axis titled 'Date' for a time scale with values from Monday, 16 March 2026, 12:00:00 AM to Saturday, 11 April 2026, 12:00:00 AM"><g transform="translate(0.5,300.5)"><path class="background" aria-hidden="true" d="M0,0h0v0h0Z" pointer-events="none"/><g><g class="mark-rule role-axis-tick" pointer-events="none"><line transform="translate(0,0)" x2="0" y2="5" stroke="#888" stroke-width="1" opacity="1"/><line transform="translate(31,0)" x2="0" y2="5" stroke="#888" stroke-width="1" opacity="1"/><line transform="translate(62,0)" x2="0" y2="5" stroke="#888" stroke-width="1" opacity="1"/><line transform="translate(92,0)" x2="0" y2="5" stroke="#888" stroke-width="1" opacity="1"/><line transform="translate(123,0)" x2="0" y2="5" stroke="#888" stroke-width="1" opacity="1"/><line transform="translate(154,0)" x2="0" y2="5" stroke="#888" stroke-width="1" opacity="1"/><line transform="translate(185,0)" x2="0" y2="5" stroke="#888" stroke-width="1" opacity="1"/><line transform="translate(215,0)" x2="0" y2="5" stroke="#888" stroke-width="1" opacity="1"/><line transform="translate(246,0)" x2="0" y2="5" stroke="#888" stroke-width="1" opacity="1"/><line transform="translate(277,0)" x2="0" y2="5" stroke="#888" stroke-width="1" opacity="1"/><line transform="translate(308,0)" x2="0" y2="5" stroke="#888" stroke-width="1" opacity="1"/><line transform="translate(338,0)" x2="0" y2="5" stroke="#888" stroke-width="1" opacity="1"/><line transform="translate(369,0)" x2="0" y2="5" stroke="#888" stroke-width="1" opacity="1"/><line transform="translate(400,0)" x2="0" y2="5" stroke="#888" stroke-width="1" opacity="1"/><line transform="translate(431,0)" x2="0" y2="5" stroke="#888" stroke-width="1" opacity="1"/><line transform="translate(462,0)" x2="0" y2="5" stroke="#888" stroke-width="1" opacity="1"/><line transform="translate(492,0)" x2="0" y2="5" stroke="#888" stroke-width="1" opacity="1"/><line transform="translate(523,0)" x2="0" y2="5" stroke="#888" stroke-width="1" opacity="1"/><line transform="translate(554,0)" x2="0" y2="5" stroke="#888" stroke-width="1" opacity="1"/><line transform="translate(585,0)" x2="0" y2="5" stroke="#888" stroke-width="1" opacity="1"/><line transform="translate(615,0)" x2="0" y2="5" stroke="#888" stroke-width="1" opacity="1"/><line transform="translate(646,0)" x2="0" y2="5" stroke="#888" stroke-width="1" opacity="1"/><line transform="translate(677,0)" x2="0" y2="5" stroke="#888" stroke-width="1" opacity="1"/><line transform="translate(708,0)" x2="0" y2="5" stroke="#888" stroke-width="1" opacity="1"/><line transform="translate(738,0)" x2="0" y2="5" stroke="#888" stroke-width="1" opacity="1"/><line transform="translate(769,0)" x2="0" y2="5" stroke="#888" stroke-width="1" opacity="1"/><line transform="translate(800,0)" x2="0" y2="5" stroke="#888" stroke-width="1" opacity="1"/></g><g class="mark-text role-axis-label" pointer-events="none"><text text-anchor="start" transform="translate(0,15)" font-family="sans-serif" font-size="10px" fill="#000" opacity="1">Mon 16</text><text text-anchor="middle" transform="translate(30.76923076923077,15)" font-family="sans-serif" font-size="10px" fill="#000" opacity="0">Tue 17</text><text text-anchor="middle" transform="translate(61.53846153846154,15)" font-family="sans-serif" font-size="10px" fill="#000" opacity="1">Wed 18</text><text text-anchor="middle" transform="translate(92.3076923076923,15)" font-family="sans-serif" font-size="10px" fill="#000" opacity="0">Thu 19</text><text text-anchor="middle" transform="translate(123.07692307692308,15)" font-family="sans-serif" font-size="10px" fill="#000" opacity="1">Fri 20</text><text text-anchor="middle" transform="translate(153.84615384615387,15)" font-family="sans-serif" font-size="10px" fill="#000" opacity="0">Sat 21</text><text text-anchor="middle" transform="translate(184.6153846153846,15)" font-family="sans-serif" font-size="10px" fill="#000" opacity="1">Mar 22</text><text text-anchor="middle" transform="translate(215.3846153846154,15)" font-family="sans-serif" font-size="10px" fill="#000" opacity="0">Mon 23</text><text text-anchor="middle" transform="translate(246.15384615384616,15)" font-family="sans-serif" font-size="10px" fill="#000" opacity="1">Tue 24</text><text text-anchor="middle" transform="translate(276.9230769230769,15)" font-family="sans-serif" font-size="10px" fill="#000" opacity="0">Wed 25</text><text text-anchor="middle" transform="translate(307.69230769230774,15)" font-family="sans-serif" font-size="10px" fill="#000" opacity="1">Thu 26</text><text text-anchor="middle" transform="translate(338.46153846153845,15)" font-family="sans-serif" font-size="10px" fill="#000" opacity="0">Fri 27</text><text text-anchor="middle" transform="translate(369.2307692307692,15)" font-family="sans-serif" font-size="10px" fill="#000" opacity="1">Sat 28</text><text text-anchor="middle" transform="translate(400,15)" font-family="sans-serif" font-size="10px" fill="#000" opacity="0">Mar 29</text><text text-anchor="middle" transform="translate(430.7692307692308,15)" font-family="sans-serif" font-size="10px" fill="#000" opacity="1">Mon 30</text><text text-anchor="middle" transform="translate(461.5384615384615,15)" font-family="sans-serif" font-size="10px" fill="#000" opacity="0">Tue 31</text><text text-anchor="middle" transform="translate(492.3076923076923,15)" font-family="sans-serif" font-size="10px" fill="#000" opacity="1">April</text><text text-anchor="middle" transform="translate(523.0769230769231,15)" font-family="sans-serif" font-size="10px" fill="#000" opacity="0">Thu 02</text><text text-anchor="middle" transform="translate(553.8461538461538,15)" font-family="sans-serif" font-size="10px" fill="#000" opacity="1">Fri 03</text><text text-anchor="middle" transform="translate(584.6153846153845,15)" font-family="sans-serif" font-size="10px" fill="#000" opacity="0">Sat 04</text><text text-anchor="middle" transform="translate(615.3846153846155,15)" font-family="sans-serif" font-size="10px" fill="#000" opacity="1">Apr 05</text><text text-anchor="middle" transform="translate(646.1538461538462,15)" font-family="sans-serif" font-size="10px" fill="#000" opacity="0">Mon 06</text><text text-anchor="middle" transform="translate(676.9230769230769,15)" font-family="sans-serif" font-size="10px" fill="#000" opacity="1">Tue 07</text><text text-anchor="middle" transform="translate(707.6923076923076,15)" font-family="sans-serif" font-size="10px" fill="#000" opacity="0">Wed 08</text><text text-anchor="middle" transform="translate(738.4615384615385,15)" font-family="sans-serif" font-size="10px" fill="#000" opacity="1">Thu 09</text><text text-anchor="middle" transform="translate(769.2307692307693,15)" font-family="sans-serif" font-size="10px" fill="#000" opacity="0">Fri 10</text><text text-anchor="end" transform="translate(800,15)" font-family="sans-serif" font-size="10px" fill="#000" opacity="1">Sat 11</text></g><g class="mark-rule role-axis-domain" pointer-events="none"><line transform="translate(0,0)" x2="800" y2="0" stroke="#888" stroke-width="1" opacity="1"/></g><g class="mark-text role-axis-title" pointer-events="none"><text text-anchor="middle" transform="translate(400,30)" font-family="sans-serif" font-size="11px" font-weight="bold" fill="#000" opacity="1">Date</text></g></g><path class="foreground" aria-hidden="true" d="" pointer-events="none" display="none"/></g></g><g class="mark-group role-axis" role="graphics-symbol" aria-roledescription="axis" aria-label="Y-axis titled 'Unique Clones/day' for a linear scale with values from 0 to 180"><g transform="translate(0.5,0.5)"><path class="background" aria-hidden="true" d="M0,0h0v0h0Z" pointer-events="none"/><g><g class="mark-rule role-axis-tick" pointer-events="none"><line transform="translate(0,300)" x2="-5" y2="0" stroke="#888" stroke-width="1" opacity="1"/><line transform="translate(0,267)" x2="-5" y2="0" stroke="#888" stroke-width="1" opacity="1"/><line transform="translate(0,233)" x2="-5" y2="0" stroke="#888" stroke-width="1" opacity="1"/><line transform="translate(0,200)" x2="-5" y2="0" stroke="#888" stroke-width="1" opacity="1"/><line transform="translate(0,167)" x2="-5" y2="0" stroke="#888" stroke-width="1" opacity="1"/><line transform="translate(0,133)" x2="-5" y2="0" stroke="#888" stroke-width="1" opacity="1"/><line transform="translate(0,100)" x2="-5" y2="0" stroke="#888" stroke-width="1" opacity="1"/><line transform="translate(0,67)" x2="-5" y2="0" stroke="#888" stroke-width="1" opacity="1"/><line transform="translate(0,33)" x2="-5" y2="0" stroke="#888" stroke-width="1" opacity="1"/><line transform="translate(0,0)" x2="-5" y2="0" stroke="#888" stroke-width="1" opacity="1"/></g><g class="mark-text role-axis-label" pointer-events="none"><text text-anchor="end" transform="translate(-7,303)" font-family="sans-serif" font-size="10px" fill="#000" opacity="1">0</text><text text-anchor="end" transform="translate(-7,269.66666666666663)" font-family="sans-serif" font-size="10px" fill="#000" opacity="1">20</text><text text-anchor="end" transform="translate(-7,236.33333333333334)" font-family="sans-serif" font-size="10px" fill="#000" opacity="1">40</text><text text-anchor="end" transform="translate(-7,203.00000000000003)" font-family="sans-serif" font-size="10px" fill="#000" opacity="1">60</text><text text-anchor="end" transform="translate(-7,169.66666666666669)" font-family="sans-serif" font-size="10px" fill="#000" opacity="1">80</text><text text-anchor="end" transform="translate(-7,136.33333333333331)" font-family="sans-serif" font-size="10px" fill="#000" opacity="1">100</text><text text-anchor="end" transform="translate(-7,103.00000000000001)" font-family="sans-serif" font-size="10px" fill="#000" opacity="1">120</text><text text-anchor="end" transform="translate(-7,69.66666666666666)" font-family="sans-serif" font-size="10px" fill="#000" opacity="1">140</text><text text-anchor="end" transform="translate(-7,36.33333333333335)" font-family="sans-serif" font-size="10px" fill="#000" opacity="1">160</text><text text-anchor="end" transform="translate(-7,3)" font-family="sans-serif" font-size="10px" fill="#000" opacity="1">180</text></g><g class="mark-rule role-axis-domain" pointer-events="none"><line transform="translate(0,300)" x2="0" y2="-300" stroke="#888" stroke-width="1" opacity="1"/></g><g class="mark-text role-axis-title" pointer-events="none"><text text-anchor="middle" transform="translate(-27.6845703125,150) rotate(-90) translate(0,-2)" font-family="sans-serif" font-size="11px" font-weight="bold" fill="#000" opacity="1">Unique Clones/day</text></g></g><path class="foreground" aria-hidden="true" d="" pointer-events="none" display="none"/></g></g><g class="mark-group role-scope pathgroup" role="graphics-object" aria-roledescription="group mark container"><g transform="translate(0,0)"><path class="background" aria-hidden="true" d="M0,0h800v300h-800Z"/><g><g class="mark-area role-mark marks" role="graphics-object" aria-roledescription="area mark container"><path aria-label="Date: Mar 16, 2026; Unique Clones/day: 0; Repository: justdavis-family/github-analytics-data" role="graphics-symbol" aria-roledescription="area mark" d="M0,298.333L30.769,300L61.538,300L92.308,298.333L123.077,300L153.846,300L184.615,300L215.385,278.333L246.154,296.667L276.923,288.333L307.692,273.333L338.462,185L369.231,223.333L400,140L430.769,245L461.538,261.667L492.308,268.333L523.077,283.333L553.846,250L584.615,23.333L615.385,115L646.154,248.333L676.923,123.333L707.692,240L738.462,213.333L769.231,265L800,268.333L800,268.333L769.231,276.667L738.462,225L707.692,248.333L676.923,166.667L646.154,248.333L615.385,115L584.615,23.333L553.846,250L523.077,283.333L492.308,268.333L461.538,261.667L430.769,245L400,140L369.231,223.333L338.462,185L307.692,273.333L276.923,288.333L246.154,296.667L215.385,278.333L184.615,300L153.846,300L123.077,300L92.308,298.333L61.538,300L30.769,300L0,298.333Z" fill="#4c78a8"/></g></g><path class="foreground" aria-hidden="true" d="" display="none"/></g><g transform="translate(0,0)"><path class="background" aria-hidden="true" d="M0,0h800v300h-800Z"/><g><g class="mark-area role-mark marks" role="graphics-object" aria-roledescription="area mark container"><path aria-label="Date: Mar 16, 2026; Unique Clones/day: 0; Repository: justdavis-family/justdavis" role="graphics-symbol" aria-roledescription="area mark" d="M0,298.333L30.769,300L61.538,300L92.308,298.333L123.077,300L153.846,300L184.615,300L215.385,278.333L246.154,296.667L276.923,288.333L307.692,273.333L338.462,185L369.231,223.333L400,140L430.769,245L461.538,261.667L492.308,268.333L523.077,283.333L553.846,250L584.615,23.333L615.385,115L646.154,248.333L676.923,166.667L707.692,248.333L738.462,225L769.231,276.667L800,268.333L800,273.333L769.231,280L738.462,231.667L707.692,251.667L676.923,250L646.154,278.333L615.385,165L584.615,153.333L553.846,251.667L523.077,283.333L492.308,270L461.538,261.667L430.769,245L400,140L369.231,223.333L338.462,185L307.692,273.333L276.923,288.333L246.154,296.667L215.385,280L184.615,300L153.846,300L123.077,300L92.308,298.333L61.538,300L30.769,300L0,298.333Z" fill="#f58518"/></g></g><path class="foreground" aria-hidden="true" d="" display="none"/></g><g transform="translate(0,0)"><path class="background" aria-hidden="true" d="M0,0h800v300h-800Z"/><g><g class="mark-area role-mark marks" role="graphics-object" aria-roledescription="area mark container"><path aria-label="Date: Mar 16, 2026; Unique Clones/day: 0; Repository: karlmdavis/FHIR-Server" role="graphics-symbol" aria-roledescription="area mark" d="M0,298.333L30.769,300L61.538,300L92.308,298.333L123.077,300L153.846,300L184.615,300L215.385,280L246.154,296.667L276.923,288.333L307.692,273.333L338.462,185L369.231,223.333L400,140L430.769,245L461.538,261.667L492.308,270L523.077,283.333L553.846,251.667L584.615,153.333L615.385,165L646.154,278.333L676.923,250L707.692,251.667L738.462,231.667L769.231,280L800,273.333L800,276.667L769.231,280L738.462,231.667L707.692,251.667L676.923,250L646.154,278.333L615.385,165L584.615,153.333L553.846,251.667L523.077,283.333L492.308,270L461.538,263.333L430.769,245L400,140L369.231,223.333L338.462,185L307.692,273.333L276.923,288.333L246.154,296.667L215.385,280L184.615,300L153.846,300L123.077,300L92.308,298.333L61.538,300L30.769,300L0,298.333Z" fill="#e45756"/></g></g><path class="foreground" aria-hidden="true" d="" display="none"/></g><g transform="translate(0,0)"><path class="background" aria-hidden="true" d="M0,0h800v300h-800Z"/><g><g class="mark-area role-mark marks" role="graphics-object" aria-roledescription="area mark container"><path aria-label="Date: Mar 16, 2026; Unique Clones/day: 1; Repository: karlmdavis/ansible" role="graphics-symbol" aria-roledescription="area mark" d="M0,298.333L30.769,300L61.538,300L92.308,298.333L123.077,300L153.846,300L184.615,300L215.385,280L246.154,296.667L276.923,288.333L307.692,273.333L338.462,185L369.231,223.333L400,140L430.769,245L461.538,263.333L492.308,270L523.077,283.333L553.846,251.667L584.615,153.333L615.385,165L646.154,278.333L676.923,250L707.692,251.667L738.462,231.667L769.231,280L800,276.667L800,276.667L769.231,280L738.462,231.667L707.692,251.667L676.923,250L646.154,278.333L615.385,165L584.615,153.333L553.846,251.667L523.077,283.333L492.308,270L461.538,263.333L430.769,245L400,140L369.231,223.333L338.462,185L307.692,273.333L276.923,288.333L246.154,296.667L215.385,280L184.615,300L153.846,300L123.077,300L92.308,298.333L61.538,300L30.769,300L0,300Z" fill="#72b7b2"/></g></g><path class="foreground" aria-hidden="true" d="" display="none"/></g><g transform="translate(0,0)"><path class="background" aria-hidden="true" d="M0,0h800v300h-800Z"/><g><g class="mark-area role-mark marks" role="graphics-object" aria-roledescription="area mark container"><path aria-label="Date: Mar 16, 2026; Unique Clones/day: 0; Repository: karlmdavis/ansible-jenkins" role="graphics-symbol" aria-roledescription="area mark" d="M0,300L30.769,300L61.538,300L92.308,298.333L123.077,300L153.846,300L184.615,300L215.385,280L246.154,296.667L276.923,288.333L307.692,273.333L338.462,185L369.231,223.333L400,140L430.769,245L461.538,263.333L492.308,270L523.077,283.333L553.846,251.667L584.615,153.333L615.385,165L646.154,278.333L676.923,250L707.692,251.667L738.462,231.667L769.231,280L800,276.667L800,276.667L769.231,280L738.462,231.667L707.692,251.667L676.923,250L646.154,278.333L615.385,165L584.615,155L553.846,253.333L523.077,283.333L492.308,270L461.538,263.333L430.769,245L400,140L369.231,223.333L338.462,185L307.692,275L276.923,288.333L246.154,296.667L215.385,280L184.615,300L153.846,300L123.077,300L92.308,298.333L61.538,300L30.769,300L0,300Z" fill="#54a24b"/></g></g><path class="foreground" aria-hidden="true" d="" display="none"/></g><g transform="translate(0,0)"><path class="background" aria-hidden="true" d="M0,0h800v300h-800Z"/><g><g class="mark-area role-mark marks" role="graphics-object" aria-roledescription="area mark container"><path aria-label="Date: Mar 16, 2026; Unique Clones/day: 0; Repository: karlmdavis/ansible-role-acmetool" role="graphics-symbol" aria-roledescription="area mark" d="M0,300L30.769,300L61.538,300L92.308,298.333L123.077,300L153.846,300L184.615,300L215.385,280L246.154,296.667L276.923,288.333L307.692,275L338.462,185L369.231,223.333L400,140L430.769,245L461.538,263.333L492.308,270L523.077,283.333L553.846,253.333L584.615,155L615.385,165L646.154,278.333L676.923,250L707.692,251.667L738.462,231.667L769.231,280L800,276.667L800,276.667L769.231,280L738.462,231.667L707.692,251.667L676.923,250L646.154,278.333L615.385,165L584.615,155L553.846,253.333L523.077,283.333L492.308,270L461.538,263.333L430.769,245L400,140L369.231,223.333L338.462,185L307.692,276.667L276.923,288.333L246.154,296.667L215.385,280L184.615,300L153.846,300L123.077,300L92.308,298.333L61.538,300L30.769,300L0,300Z" fill="#eeca3b"/></g></g><path class="foreground" aria-hidden="true" d="" display="none"/></g><g transform="translate(0,0)"><path class="background" aria-hidden="true" d="M0,0h800v300h-800Z"/><g><g class="mark-area role-mark marks" role="graphics-object" aria-roledescription="area mark container"><path aria-label="Date: Mar 16, 2026; Unique Clones/day: 0; Repository: karlmdavis/ansible-role-bind-dns" role="graphics-symbol" aria-roledescription="area mark" d="M0,300L30.769,300L61.538,300L92.308,298.333L123.077,300L153.846,300L184.615,300L215.385,280L246.154,296.667L276.923,288.333L307.692,276.667L338.462,185L369.231,223.333L400,140L430.769,245L461.538,263.333L492.308,270L523.077,283.333L553.846,253.333L584.615,155L615.385,165L646.154,278.333L676.923,250L707.692,251.667L738.462,231.667L769.231,280L800,276.667L800,276.667L769.231,280L738.462,233.333L707.692,253.333L676.923,250L646.154,278.333L615.385,165L584.615,156.667L553.846,253.333L523.077,283.333L492.308,275L461.538,263.333L430.769,246.667L400,141.667L369.231,223.333L338.462,188.333L307.692,276.667L276.923,288.333L246.154,296.667L215.385,280L184.615,300L153.846,300L123.077,300L92.308,298.333L61.538,300L30.769,300L0,300Z" fill="#b279a2"/></g></g><path class="foreground" aria-hidden="true" d="" display="none"/></g><g transform="translate(0,0)"><path class="background" aria-hidden="true" d="M0,0h800v300h-800Z"/><g><g class="mark-area role-mark marks" role="graphics-object" aria-roledescription="area mark container"><path aria-label="Date: Mar 16, 2026; Unique Clones/day: 0; Repository: karlmdavis/ansible-role-jenkins2" role="graphics-symbol" aria-roledescription="area mark" d="M0,300L30.769,300L61.538,300L92.308,298.333L123.077,300L153.846,300L184.615,300L215.385,280L246.154,296.667L276.923,288.333L307.692,276.667L338.462,188.333L369.231,223.333L400,141.667L430.769,246.667L461.538,263.333L492.308,275L523.077,283.333L553.846,253.333L584.615,156.667L615.385,165L646.154,278.333L676.923,250L707.692,253.333L738.462,233.333L769.231,280L800,276.667L800,276.667L769.231,283.333L738.462,241.667L707.692,253.333L676.923,250L646.154,278.333L615.385,166.667L584.615,160L553.846,255L523.077,285L492.308,276.667L461.538,265L430.769,246.667L400,141.667L369.231,225L338.462,190L307.692,278.333L276.923,290L246.154,298.333L215.385,280L184.615,300L153.846,300L123.077,300L92.308,298.333L61.538,300L30.769,300L0,300Z" fill="#ff9da6"/></g></g><path class="foreground" aria-hidden="true" d="" display="none"/></g><g transform="translate(0,0)"><path class="background" aria-hidden="true" d="M0,0h800v300h-800Z"/><g><g class="mark-area role-mark marks" role="graphics-object" aria-roledescription="area mark container"><path aria-label="Date: Mar 16, 2026; Unique Clones/day: 0; Repository: karlmdavis/ansible-role-ldap" role="graphics-symbol" aria-roledescription="area mark" d="M0,300L30.769,300L61.538,300L92.308,298.333L123.077,300L153.846,300L184.615,300L215.385,280L246.154,298.333L276.923,290L307.692,278.333L338.462,190L369.231,225L400,141.667L430.769,246.667L461.538,265L492.308,276.667L523.077,285L553.846,255L584.615,160L615.385,166.667L646.154,278.333L676.923,250L707.692,253.333L738.462,241.667L769.231,283.333L800,276.667L800,276.667L769.231,283.333L738.462,241.667L707.692,253.333L676.923,250L646.154,278.333L615.385,166.667L584.615,160L553.846,255L523.077,285L492.308,276.667L461.538,266.667L430.769,246.667L400,141.667L369.231,225L338.462,190L307.692,278.333L276.923,290L246.154,298.333L215.385,280L184.615,300L153.846,300L123.077,300L92.308,298.333L61.538,300L30.769,300L0,300Z" fill="#9d755d"/></g></g><path class="foreground" aria-hidden="true" d="" display="none"/></g><g transform="translate(0,0)"><path class="background" aria-hidden="true" d="M0,0h800v300h-800Z"/><g><g class="mark-area role-mark marks" role="graphics-object" aria-roledescription="area mark container"><path aria-label="Date: Mar 16, 2026; Unique Clones/day: 0; Repository: karlmdavis/ansible-role-rcm-dotfiles" role="graphics-symbol" aria-roledescription="area mark" d="M0,300L30.769,300L61.538,300L92.308,298.333L123.077,300L153.846,300L184.615,300L215.385,280L246.154,298.333L276.923,290L307.692,278.333L338.462,190L369.231,225L400,141.667L430.769,246.667L461.538,266.667L492.308,276.667L523.077,285L553.846,255L584.615,160L615.385,166.667L646.154,278.333L676.923,250L707.692,253.333L738.462,241.667L769.231,283.333L800,276.667L800,276.667L769.231,283.333L738.462,243.333L707.692,253.333L676.923,250L646.154,278.333L615.385,166.667L584.615,161.667L553.846,255L523.077,285L492.308,276.667L461.538,266.667L430.769,248.333L400,143.333L369.231,225L338.462,193.333L307.692,278.333L276.923,290L246.154,298.333L215.385,280L184.615,300L153.846,300L123.077,300L92.308,298.333L61.538,300L30.769,300L0,300Z" fill="#bab0ac"/></g></g><path class="foreground" aria-hidden="true" d="" display="none"/></g><g transform="translate(0,0)"><path class="background" aria-hidden="true" d="M0,0h800v300h-800Z"/><g><g class="mark-area role-mark marks" role="graphics-object" aria-roledescription="area mark container"><path aria-label="Date: Mar 16, 2026; Unique Clones/day: 0; Repository: karlmdavis/ansible-roles" role="graphics-symbol" aria-roledescription="area mark" d="M0,300L30.769,300L61.538,300L92.308,298.333L123.077,300L153.846,300L184.615,300L215.385,280L246.154,298.333L276.923,290L307.692,278.333L338.462,193.333L369.231,225L400,143.333L430.769,248.333L461.538,266.667L492.308,276.667L523.077,285L553.846,255L584.615,161.667L615.385,166.667L646.154,278.333L676.923,250L707.692,253.333L738.462,243.333L769.231,283.333L800,276.667L800,278.333L769.231,283.333L738.462,243.333L707.692,253.333L676.923,250L646.154,278.333L615.385,166.667L584.615,161.667L553.846,255L523.077,285L492.308,276.667L461.538,266.667L430.769,250L400,143.333L369.231,225L338.462,193.333L307.692,280L276.923,290L246.154,298.333L215.385,280L184.615,300L153.846,300L123.077,300L92.308,298.333L61.538,300L30.769,300L0,300Z" fill="#4c78a8"/></g></g><path class="foreground" aria-hidden="true" d="" display="none"/></g><g transform="translate(0,0)"><path class="background" aria-hidden="true" d="M0,0h800v300h-800Z"/><g><g class="mark-area role-mark marks" role="graphics-object" aria-roledescription="area mark container"><path aria-label="Date: Mar 16, 2026; Unique Clones/day: 0; Repository: karlmdavis/bbonfhir-dev-infra-docker" role="graphics-symbol" aria-roledescription="area mark" d="M0,300L30.769,300L61.538,300L92.308,298.333L123.077,300L153.846,300L184.615,300L215.385,280L246.154,298.333L276.923,290L307.692,280L338.462,193.333L369.231,225L400,143.333L430.769,250L461.538,266.667L492.308,276.667L523.077,285L553.846,255L584.615,161.667L615.385,166.667L646.154,278.333L676.923,250L707.692,253.333L738.462,243.333L769.231,283.333L800,278.333L800,278.333L769.231,283.333L738.462,245L707.692,253.333L676.923,250L646.154,278.333L615.385,166.667L584.615,163.333L553.846,255L523.077,285L492.308,276.667L461.538,266.667L430.769,251.667L400,143.333L369.231,225L338.462,195L307.692,280L276.923,291.667L246.154,298.333L215.385,280L184.615,300L153.846,300L123.077,300L92.308,298.333L61.538,300L30.769,300L0,300Z" fill="#f58518"/></g></g><path class="foreground" aria-hidden="true" d="" display="none"/></g><g transform="translate(0,0)"><path class="background" aria-hidden="true" d="M0,0h800v300h-800Z"/><g><g class="mark-area role-mark marks" role="graphics-object" aria-roledescription="area mark container"><path aria-label="Date: Mar 16, 2026; Unique Clones/day: 0; Repository: karlmdavis/can-i-kayak-baltimore" role="graphics-symbol" aria-roledescription="area mark" d="M0,300L30.769,300L61.538,300L92.308,298.333L123.077,300L153.846,300L184.615,300L215.385,280L246.154,298.333L276.923,291.667L307.692,280L338.462,195L369.231,225L400,143.333L430.769,251.667L461.538,266.667L492.308,276.667L523.077,285L553.846,255L584.615,163.333L615.385,166.667L646.154,278.333L676.923,250L707.692,253.333L738.462,245L769.231,283.333L800,278.333L800,278.333L769.231,283.333L738.462,246.667L707.692,253.333L676.923,250L646.154,278.333L615.385,166.667L584.615,165L553.846,255L523.077,285L492.308,278.333L461.538,266.667L430.769,251.667L400,143.333L369.231,225L338.462,200L307.692,280L276.923,291.667L246.154,298.333L215.385,280L184.615,300L153.846,300L123.077,300L92.308,298.333L61.538,300L30.769,300L0,300Z" fill="#e45756"/></g></g><path class="foreground" aria-hidden="true" d="" display="none"/></g><g transform="translate(0,0)"><path class="background" aria-hidden="true" d="M0,0h800v300h-800Z"/><g><g class="mark-area role-mark marks" role="graphics-object" aria-roledescription="area mark container"><path aria-label="Date: Mar 16, 2026; Unique Clones/day: 0; Repository: karlmdavis/datanucleus-test-jdo-1-to-n" role="graphics-symbol" aria-roledescription="area mark" d="M0,300L30.769,300L61.538,300L92.308,298.333L123.077,300L153.846,300L184.615,300L215.385,280L246.154,298.333L276.923,291.667L307.692,280L338.462,200L369.231,225L400,143.333L430.769,251.667L461.538,266.667L492.308,278.333L523.077,285L553.846,255L584.615,165L615.385,166.667L646.154,278.333L676.923,250L707.692,253.333L738.462,246.667L769.231,283.333L800,278.333L800,278.333L769.231,283.333L738.462,246.667L707.692,253.333L676.923,250L646.154,278.333L615.385,166.667L584.615,165L553.846,255L523.077,285L492.308,278.333L461.538,266.667L430.769,251.667L400,143.333L369.231,226.667L338.462,200L307.692,280L276.923,291.667L246.154,298.333L215.385,280L184.615,300L153.846,300L123.077,300L92.308,298.333L61.538,300L30.769,300L0,300Z" fill="#72b7b2"/></g></g><path class="foreground" aria-hidden="true" d="" display="none"/></g><g transform="translate(0,0)"><path class="background" aria-hidden="true" d="M0,0h800v300h-800Z"/><g><g class="mark-area role-mark marks" role="graphics-object" aria-roledescription="area mark container"><path aria-label="Date: Mar 16, 2026; Unique Clones/day: 0; Repository: karlmdavis/dotfiles" role="graphics-symbol" aria-roledescription="area mark" d="M0,300L30.769,300L61.538,300L92.308,298.333L123.077,300L153.846,300L184.615,300L215.385,280L246.154,298.333L276.923,291.667L307.692,280L338.462,200L369.231,226.667L400,143.333L430.769,251.667L461.538,266.667L492.308,278.333L523.077,285L553.846,255L584.615,165L615.385,166.667L646.154,278.333L676.923,250L707.692,253.333L738.462,246.667L769.231,283.333L800,278.333L800,281.667L769.231,283.333L738.462,248.333L707.692,255L676.923,250L646.154,278.333L615.385,168.333L584.615,166.667L553.846,255L523.077,286.667L492.308,280L461.538,268.333L430.769,251.667L400,143.333L369.231,226.667L338.462,203.333L307.692,280L276.923,291.667L246.154,298.333L215.385,281.667L184.615,300L153.846,300L123.077,300L92.308,298.333L61.538,300L30.769,300L0,300Z" fill="#54a24b"/></g></g><path class="foreground" aria-hidden="true" d="" display="none"/></g><g transform="translate(0,0)"><path class="background" aria-hidden="true" d="M0,0h800v300h-800Z"/><g><g class="mark-area role-mark marks" role="graphics-object" aria-roledescription="area mark container"><path aria-label="Date: Mar 16, 2026; Unique Clones/day: 0; Repository: karlmdavis/fhir-benchmarks" role="graphics-symbol" aria-roledescription="area mark" d="M0,300L30.769,300L61.538,300L92.308,298.333L123.077,300L153.846,300L184.615,300L215.385,281.667L246.154,298.333L276.923,291.667L307.692,280L338.462,203.333L369.231,226.667L400,143.333L430.769,251.667L461.538,268.333L492.308,280L523.077,286.667L553.846,255L584.615,166.667L615.385,168.333L646.154,278.333L676.923,250L707.692,255L738.462,248.333L769.231,283.333L800,281.667L800,281.667L769.231,283.333L738.462,251.667L707.692,266.667L676.923,251.667L646.154,278.333L615.385,170L584.615,168.333L553.846,256.667L523.077,286.667L492.308,281.667L461.538,271.667L430.769,253.333L400,145L369.231,226.667L338.462,206.667L307.692,280L276.923,293.333L246.154,298.333L215.385,283.333L184.615,300L153.846,300L123.077,300L92.308,298.333L61.538,300L30.769,300L0,300Z" fill="#eeca3b"/></g></g><path class="foreground" aria-hidden="true" d="" display="none"/></g><g transform="translate(0,0)"><path class="background" aria-hidden="true" d="M0,0h800v300h-800Z"/><g><g class="mark-area role-mark marks" role="graphics-object" aria-roledescription="area mark container"><path aria-label="Date: Mar 16, 2026; Unique Clones/day: 0; Repository: karlmdavis/hapi-fhir-jpaserver-starter" role="graphics-symbol" aria-roledescription="area mark" d="M0,300L30.769,300L61.538,300L92.308,298.333L123.077,300L153.846,300L184.615,300L215.385,283.333L246.154,298.333L276.923,293.333L307.692,280L338.462,206.667L369.231,226.667L400,145L430.769,253.333L461.538,271.667L492.308,281.667L523.077,286.667L553.846,256.667L584.615,168.333L615.385,170L646.154,278.333L676.923,251.667L707.692,266.667L738.462,251.667L769.231,283.333L800,281.667L800,281.667L769.231,283.333L738.462,251.667L707.692,266.667L676.923,251.667L646.154,278.333L615.385,170L584.615,168.333L553.846,258.333L523.077,288.333L492.308,281.667L461.538,271.667L430.769,253.333L400,145L369.231,226.667L338.462,206.667L307.692,281.667L276.923,293.333L246.154,298.333L215.385,283.333L184.615,300L153.846,300L123.077,300L92.308,298.333L61.538,300L30.769,300L0,300Z" fill="#b279a2"/></g></g><path class="foreground" aria-hidden="true" d="" display="none"/></g><g transform="translate(0,0)"><path class="background" aria-hidden="true" d="M0,0h800v300h-800Z"/><g><g class="mark-area role-mark marks" role="graphics-object" aria-roledescription="area mark container"><path aria-label="Date: Mar 16, 2026; Unique Clones/day: 0; Repository: karlmdavis/hello-rust-actix" role="graphics-symbol" aria-roledescription="area mark" d="M0,300L30.769,300L61.538,300L92.308,298.333L123.077,300L153.846,300L184.615,300L215.385,283.333L246.154,298.333L276.923,293.333L307.692,281.667L338.462,206.667L369.231,226.667L400,145L430.769,253.333L461.538,271.667L492.308,281.667L523.077,288.333L553.846,258.333L584.615,168.333L615.385,170L646.154,278.333L676.923,251.667L707.692,266.667L738.462,251.667L769.231,283.333L800,281.667L800,281.667L769.231,283.333L738.462,253.333L707.692,266.667L676.923,251.667L646.154,278.333L615.385,170L584.615,170L553.846,258.333L523.077,288.333L492.308,281.667L461.538,273.333L430.769,253.333L400,145L369.231,226.667L338.462,208.333L307.692,281.667L276.923,293.333L246.154,298.333L215.385,283.333L184.615,300L153.846,300L123.077,300L92.308,298.333L61.538,300L30.769,300L0,300Z" fill="#ff9da6"/></g></g><path class="foreground" aria-hidden="true" d="" display="none"/></g><g transform="translate(0,0)"><path class="background" aria-hidden="true" d="M0,0h800v300h-800Z"/><g><g class="mark-area role-mark marks" role="graphics-object" aria-roledescription="area mark container"><path aria-label="Date: Mar 16, 2026; Unique Clones/day: 0; Repository: karlmdavis/jessentials" role="graphics-symbol" aria-roledescription="area mark" d="M0,300L30.769,300L61.538,300L92.308,298.333L123.077,300L153.846,300L184.615,300L215.385,283.333L246.154,298.333L276.923,293.333L307.692,281.667L338.462,208.333L369.231,226.667L400,145L430.769,253.333L461.538,273.333L492.308,281.667L523.077,288.333L553.846,258.333L584.615,170L615.385,170L646.154,278.333L676.923,251.667L707.692,266.667L738.462,253.333L769.231,283.333L800,281.667L800,283.333L769.231,283.333L738.462,256.667L707.692,280L676.923,251.667L646.154,278.333L615.385,170L584.615,171.667L553.846,258.333L523.077,288.333L492.308,281.667L461.538,273.333L430.769,255L400,145L369.231,226.667L338.462,210L307.692,281.667L276.923,293.333L246.154,298.333L215.385,285L184.615,300L153.846,300L123.077,300L92.308,298.333L61.538,300L30.769,300L0,300Z" fill="#9d755d"/></g></g><path class="foreground" aria-hidden="true" d="" display="none"/></g><g transform="translate(0,0)"><path class="background" aria-hidden="true" d="M0,0h800v300h-800Z"/><g><g class="mark-area role-mark marks" role="graphics-object" aria-roledescription="area mark container"><path aria-label="Date: Mar 16, 2026; Unique Clones/day: 0; Repository: karlmdavis/justdavis-ansible" role="graphics-symbol" aria-roledescription="area mark" d="M0,300L30.769,300L61.538,300L92.308,298.333L123.077,300L153.846,300L184.615,300L215.385,285L246.154,298.333L276.923,293.333L307.692,281.667L338.462,210L369.231,226.667L400,145L430.769,255L461.538,273.333L492.308,281.667L523.077,288.333L553.846,258.333L584.615,171.667L615.385,170L646.154,278.333L676.923,251.667L707.692,280L738.462,256.667L769.231,283.333L800,283.333L800,283.333L769.231,285L738.462,258.333L707.692,280L676.923,251.667L646.154,278.333L615.385,170L584.615,173.333L553.846,258.333L523.077,288.333L492.308,283.333L461.538,273.333L430.769,255L400,145L369.231,228.333L338.462,211.667L307.692,281.667L276.923,295L246.154,298.333L215.385,285L184.615,300L153.846,300L123.077,300L92.308,298.333L61.538,300L30.769,300L0,300Z" fill="#bab0ac"/></g></g><path class="foreground" aria-hidden="true" d="" display="none"/></g><g transform="translate(0,0)"><path class="background" aria-hidden="true" d="M0,0h800v300h-800Z"/><g><g class="mark-area role-mark marks" role="graphics-object" aria-roledescription="area mark container"><path aria-label="Date: Mar 16, 2026; Unique Clones/day: 0; Repository: karlmdavis/justdavis-finances" role="graphics-symbol" aria-roledescription="area mark" d="M0,300L30.769,300L61.538,300L92.308,298.333L123.077,300L153.846,300L184.615,300L215.385,285L246.154,298.333L276.923,295L307.692,281.667L338.462,211.667L369.231,228.333L400,145L430.769,255L461.538,273.333L492.308,283.333L523.077,288.333L553.846,258.333L584.615,173.333L615.385,170L646.154,278.333L676.923,251.667L707.692,280L738.462,258.333L769.231,285L800,283.333L800,286.667L769.231,285L738.462,260L707.692,281.667L676.923,280L646.154,291.667L615.385,295L584.615,268.333L553.846,291.667L523.077,290L492.308,285L461.538,275L430.769,280L400,286.667L369.231,290L338.462,263.333L307.692,283.333L276.923,296.667L246.154,298.333L215.385,285L184.615,300L153.846,300L123.077,300L92.308,298.333L61.538,300L30.769,300L0,300Z" fill="#4c78a8"/></g></g><path class="foreground" aria-hidden="true" d="" display="none"/></g><g transform="translate(0,0)"><path class="background" aria-hidden="true" d="M0,0h800v300h-800Z"/><g><g class="mark-area role-mark marks" role="graphics-object" aria-roledescription="area mark container"><path aria-label="Date: Mar 16, 2026; Unique Clones/day: 0; Repository: karlmdavis/justdavis-karl" role="graphics-symbol" aria-roledescription="area mark" d="M0,300L30.769,300L61.538,300L92.308,298.333L123.077,300L153.846,300L184.615,300L215.385,285L246.154,298.333L276.923,296.667L307.692,283.333L338.462,263.333L369.231,290L400,286.667L430.769,280L461.538,275L492.308,285L523.077,290L553.846,291.667L584.615,268.333L615.385,295L646.154,291.667L676.923,280L707.692,281.667L738.462,260L769.231,285L800,286.667L800,288.333L769.231,285L738.462,263.333L707.692,281.667L676.923,280L646.154,293.333L615.385,295L584.615,270L553.846,291.667L523.077,291.667L492.308,285L461.538,276.667L430.769,281.667L400,286.667L369.231,291.667L338.462,265L307.692,283.333L276.923,296.667L246.154,298.333L215.385,286.667L184.615,300L153.846,300L123.077,300L92.308,298.333L61.538,300L30.769,300L0,300Z" fill="#f58518"/></g></g><path class="foreground" aria-hidden="true" d="" display="none"/></g><g transform="translate(0,0)"><path class="background" aria-hidden="true" d="M0,0h800v300h-800Z"/><g><g class="mark-area role-mark marks" role="graphics-object" aria-roledescription="area mark container"><path aria-label="Date: Mar 16, 2026; Unique Clones/day: 0; Repository: karlmdavis/justdavis-puppet" role="graphics-symbol" aria-roledescription="area mark" d="M0,300L30.769,300L61.538,300L92.308,298.333L123.077,300L153.846,300L184.615,300L215.385,286.667L246.154,298.333L276.923,296.667L307.692,283.333L338.462,265L369.231,291.667L400,286.667L430.769,281.667L461.538,276.667L492.308,285L523.077,291.667L553.846,291.667L584.615,270L615.385,295L646.154,293.333L676.923,280L707.692,281.667L738.462,263.333L769.231,285L800,288.333L800,288.333L769.231,285L738.462,265L707.692,283.333L676.923,280L646.154,293.333L615.385,295L584.615,271.667L553.846,291.667L523.077,291.667L492.308,285L461.538,280L430.769,283.333L400,286.667L369.231,291.667L338.462,266.667L307.692,283.333L276.923,296.667L246.154,298.333L215.385,286.667L184.615,300L153.846,300L123.077,300L92.308,298.333L61.538,300L30.769,300L0,300Z" fill="#e45756"/></g></g><path class="foreground" aria-hidden="true" d="" display="none"/></g><g transform="translate(0,0)"><path class="background" aria-hidden="true" d="M0,0h800v300h-800Z"/><g><g class="mark-area role-mark marks" role="graphics-object" aria-roledescription="area mark container"><path aria-label="Date: Mar 16, 2026; Unique Clones/day: 0; Repository: karlmdavis/kobjects" role="graphics-symbol" aria-roledescription="area mark" d="M0,300L30.769,300L61.538,300L92.308,298.333L123.077,300L153.846,300L184.615,300L215.385,286.667L246.154,298.333L276.923,296.667L307.692,283.333L338.462,266.667L369.231,291.667L400,286.667L430.769,283.333L461.538,280L492.308,285L523.077,291.667L553.846,291.667L584.615,271.667L615.385,295L646.154,293.333L676.923,280L707.692,283.333L738.462,265L769.231,285L800,288.333L800,288.333L769.231,285L738.462,268.333L707.692,283.333L676.923,280L646.154,293.333L615.385,295L584.615,273.333L553.846,291.667L523.077,291.667L492.308,285L461.538,280L430.769,283.333L400,286.667L369.231,291.667L338.462,268.333L307.692,285L276.923,296.667L246.154,298.333L215.385,286.667L184.615,300L153.846,300L123.077,300L92.308,298.333L61.538,300L30.769,300L0,300Z" fill="#72b7b2"/></g></g><path class="foreground" aria-hidden="true" d="" display="none"/></g><g transform="translate(0,0)"><path class="background" aria-hidden="true" d="M0,0h800v300h-800Z"/><g><g class="mark-area role-mark marks" role="graphics-object" aria-roledescription="area mark container"><path aria-label="Date: Mar 16, 2026; Unique Clones/day: 0; Repository: karlmdavis/ksoap2-android" role="graphics-symbol" aria-roledescription="area mark" d="M0,300L30.769,300L61.538,300L92.308,298.333L123.077,300L153.846,300L184.615,300L215.385,286.667L246.154,298.333L276.923,296.667L307.692,285L338.462,268.333L369.231,291.667L400,286.667L430.769,283.333L461.538,280L492.308,285L523.077,291.667L553.846,291.667L584.615,273.333L615.385,295L646.154,293.333L676.923,280L707.692,283.333L738.462,268.333L769.231,285L800,288.333L800,288.333L769.231,290L738.462,270L707.692,293.333L676.923,288.333L646.154,295L615.385,295L584.615,278.333L553.846,291.667L523.077,293.333L492.308,286.667L461.538,281.667L430.769,290L400,290L369.231,291.667L338.462,270L307.692,290L276.923,296.667L246.154,298.333L215.385,288.333L184.615,300L153.846,300L123.077,300L92.308,298.333L61.538,300L30.769,300L0,300Z" fill="#54a24b"/></g></g><path class="foreground" aria-hidden="true" d="" display="none"/></g><g transform="translate(0,0)"><path class="background" aria-hidden="true" d="M0,0h800v300h-800Z"/><g><g class="mark-area role-mark marks" role="graphics-object" aria-roledescription="area mark container"><path aria-label="Date: Mar 16, 2026; Unique Clones/day: 0; Repository: karlmdavis/kxml2" role="graphics-symbol" aria-roledescription="area mark" d="M0,300L30.769,300L61.538,300L92.308,298.333L123.077,300L153.846,300L184.615,300L215.385,288.333L246.154,298.333L276.923,296.667L307.692,290L338.462,270L369.231,291.667L400,290L430.769,290L461.538,281.667L492.308,286.667L523.077,293.333L553.846,291.667L584.615,278.333L615.385,295L646.154,295L676.923,288.333L707.692,293.333L738.462,270L769.231,290L800,288.333L800,288.333L769.231,290L738.462,271.667L707.692,293.333L676.923,290L646.154,296.667L615.385,296.667L584.615,280L553.846,291.667L523.077,293.333L492.308,286.667L461.538,283.333L430.769,295L400,291.667L369.231,291.667L338.462,273.333L307.692,291.667L276.923,296.667L246.154,298.333L215.385,290L184.615,300L153.846,300L123.077,300L92.308,298.333L61.538,300L30.769,300L0,300Z" fill="#eeca3b"/></g></g><path class="foreground" aria-hidden="true" d="" display="none"/></g><g transform="translate(0,0)"><path class="background" aria-hidden="true" d="M0,0h800v300h-800Z"/><g><g class="mark-area role-mark marks" role="graphics-object" aria-roledescription="area mark container"><path aria-label="Date: Mar 16, 2026; Unique Clones/day: 0; Repository: karlmdavis/ldap-plugin" role="graphics-symbol" aria-roledescription="area mark" d="M0,300L30.769,300L61.538,300L92.308,298.333L123.077,300L153.846,300L184.615,300L215.385,290L246.154,298.333L276.923,296.667L307.692,291.667L338.462,273.333L369.231,291.667L400,291.667L430.769,295L461.538,283.333L492.308,286.667L523.077,293.333L553.846,291.667L584.615,280L615.385,296.667L646.154,296.667L676.923,290L707.692,293.333L738.462,271.667L769.231,290L800,288.333L800,288.333L769.231,290L738.462,271.667L707.692,293.333L676.923,290L646.154,296.667L615.385,296.667L584.615,280L553.846,293.333L523.077,295L492.308,286.667L461.538,283.333L430.769,295L400,291.667L369.231,291.667L338.462,273.333L307.692,291.667L276.923,296.667L246.154,298.333L215.385,290L184.615,300L153.846,300L123.077,300L92.308,298.333L61.538,300L30.769,300L0,300Z" fill="#b279a2"/></g></g><path class="foreground" aria-hidden="true" d="" display="none"/></g><g transform="translate(0,0)"><path class="background" aria-hidden="true" d="M0,0h800v300h-800Z"/><g><g class="mark-area role-mark marks" role="graphics-object" aria-roledescription="area mark container"><path aria-label="Date: Mar 16, 2026; Unique Clones/day: 0; Repository: karlmdavis/lego-ev3dev-rs" role="graphics-symbol" aria-roledescription="area mark" d="M0,300L30.769,300L61.538,300L92.308,298.333L123.077,300L153.846,300L184.615,300L215.385,290L246.154,298.333L276.923,296.667L307.692,291.667L338.462,273.333L369.231,291.667L400,291.667L430.769,295L461.538,283.333L492.308,286.667L523.077,295L553.846,293.333L584.615,280L615.385,296.667L646.154,296.667L676.923,290L707.692,293.333L738.462,271.667L769.231,290L800,288.333L800,291.667L769.231,290L738.462,275L707.692,293.333L676.923,291.667L646.154,296.667L615.385,298.333L584.615,281.667L553.846,295L523.077,295L492.308,288.333L461.538,286.667L430.769,295L400,293.333L369.231,293.333L338.462,278.333L307.692,291.667L276.923,298.333L246.154,298.333L215.385,291.667L184.615,300L153.846,300L123.077,300L92.308,298.333L61.538,300L30.769,300L0,300Z" fill="#ff9da6"/></g></g><path class="foreground" aria-hidden="true" d="" display="none"/></g><g transform="translate(0,0)"><path class="background" aria-hidden="true" d="M0,0h800v300h-800Z"/><g><g class="mark-area role-mark marks" role="graphics-object" aria-roledescription="area mark container"><path aria-label="Date: Mar 16, 2026; Unique Clones/day: 0; Repository: karlmdavis/liquibase" role="graphics-symbol" aria-roledescription="area mark" d="M0,300L30.769,300L61.538,300L92.308,298.333L123.077,300L153.846,300L184.615,300L215.385,291.667L246.154,298.333L276.923,298.333L307.692,291.667L338.462,278.333L369.231,293.333L400,293.333L430.769,295L461.538,286.667L492.308,288.333L523.077,295L553.846,295L584.615,281.667L615.385,298.333L646.154,296.667L676.923,291.667L707.692,293.333L738.462,275L769.231,290L800,291.667L800,291.667L769.231,291.667L738.462,276.667L707.692,293.333L676.923,291.667L646.154,296.667L615.385,298.333L584.615,281.667L553.846,295L523.077,295L492.308,288.333L461.538,286.667L430.769,295L400,293.333L369.231,293.333L338.462,278.333L307.692,291.667L276.923,298.333L246.154,298.333L215.385,291.667L184.615,300L153.846,300L123.077,300L92.308,300L61.538,300L30.769,300L0,300Z" fill="#9d755d"/></g></g><path class="foreground" aria-hidden="true" d="" display="none"/></g><g transform="translate(0,0)"><path class="background" aria-hidden="true" d="M0,0h800v300h-800Z"/><g><g class="mark-area role-mark marks" role="graphics-object" aria-roledescription="area mark container"><path aria-label="Date: Mar 16, 2026; Unique Clones/day: 0; Repository: karlmdavis/m2e-core" role="graphics-symbol" aria-roledescription="area mark" d="M0,300L30.769,300L61.538,300L92.308,300L123.077,300L153.846,300L184.615,300L215.385,291.667L246.154,298.333L276.923,298.333L307.692,291.667L338.462,278.333L369.231,293.333L400,293.333L430.769,295L461.538,286.667L492.308,288.333L523.077,295L553.846,295L584.615,281.667L615.385,298.333L646.154,296.667L676.923,291.667L707.692,293.333L738.462,276.667L769.231,291.667L800,291.667L800,293.333L769.231,293.333L738.462,280L707.692,295L676.923,293.333L646.154,296.667L615.385,298.333L584.615,283.333L553.846,295L523.077,295L492.308,288.333L461.538,286.667L430.769,295L400,295L369.231,293.333L338.462,280L307.692,291.667L276.923,298.333L246.154,298.333L215.385,291.667L184.615,300L153.846,300L123.077,300L92.308,300L61.538,300L30.769,300L0,300Z" fill="#bab0ac"/></g></g><path class="foreground" aria-hidden="true" d="" display="none"/></g><g transform="translate(0,0)"><path class="background" aria-hidden="true" d="M0,0h800v300h-800Z"/><g><g class="mark-area role-mark marks" role="graphics-object" aria-roledescription="area mark container"><path aria-label="Date: Mar 16, 2026; Unique Clones/day: 0; Repository: karlmdavis/m2e-core-tests" role="graphics-symbol" aria-roledescription="area mark" d="M0,300L30.769,300L61.538,300L92.308,300L123.077,300L153.846,300L184.615,300L215.385,291.667L246.154,298.333L276.923,298.333L307.692,291.667L338.462,280L369.231,293.333L400,295L430.769,295L461.538,286.667L492.308,288.333L523.077,295L553.846,295L584.615,283.333L615.385,298.333L646.154,296.667L676.923,293.333L707.692,295L738.462,280L769.231,293.333L800,293.333L800,293.333L769.231,296.667L738.462,281.667L707.692,296.667L676.923,295L646.154,296.667L615.385,298.333L584.615,283.333L553.846,295L523.077,295L492.308,291.667L461.538,286.667L430.769,295L400,295L369.231,295L338.462,280L307.692,293.333L276.923,298.333L246.154,298.333L215.385,291.667L184.615,300L153.846,300L123.077,300L92.308,300L61.538,300L30.769,300L0,300Z" fill="#4c78a8"/></g></g><path class="foreground" aria-hidden="true" d="" display="none"/></g><g transform="translate(0,0)"><path class="background" aria-hidden="true" d="M0,0h800v300h-800Z"/><g><g class="mark-area role-mark marks" role="graphics-object" aria-roledescription="area mark container"><path aria-label="Date: Mar 16, 2026; Unique Clones/day: 0; Repository: karlmdavis/obsidian-operator" role="graphics-symbol" aria-roledescription="area mark" d="M0,300L30.769,300L61.538,300L92.308,300L123.077,300L153.846,300L184.615,300L215.385,291.667L246.154,298.333L276.923,298.333L307.692,293.333L338.462,280L369.231,295L400,295L430.769,295L461.538,286.667L492.308,291.667L523.077,295L553.846,295L584.615,283.333L615.385,298.333L646.154,296.667L676.923,295L707.692,296.667L738.462,281.667L769.231,296.667L800,293.333L800,293.333L769.231,296.667L738.462,283.333L707.692,296.667L676.923,295L646.154,296.667L615.385,298.333L584.615,285L553.846,298.333L523.077,295L492.308,291.667L461.538,291.667L430.769,295L400,295L369.231,295L338.462,281.667L307.692,293.333L276.923,298.333L246.154,298.333L215.385,293.333L184.615,300L153.846,300L123.077,300L92.308,300L61.538,300L30.769,300L0,300Z" fill="#f58518"/></g></g><path class="foreground" aria-hidden="true" d="" display="none"/></g><g transform="translate(0,0)"><path class="background" aria-hidden="true" d="M0,0h800v300h-800Z"/><g><g class="mark-area role-mark marks" role="graphics-object" aria-roledescription="area mark container"><path aria-label="Date: Mar 16, 2026; Unique Clones/day: 0; Repository: karlmdavis/perfect-note" role="graphics-symbol" aria-roledescription="area mark" d="M0,300L30.769,300L61.538,300L92.308,300L123.077,300L153.846,300L184.615,300L215.385,293.333L246.154,298.333L276.923,298.333L307.692,293.333L338.462,281.667L369.231,295L400,295L430.769,295L461.538,291.667L492.308,291.667L523.077,295L553.846,298.333L584.615,285L615.385,298.333L646.154,296.667L676.923,295L707.692,296.667L738.462,283.333L769.231,296.667L800,293.333L800,293.333L769.231,296.667L738.462,285L707.692,296.667L676.923,295L646.154,296.667L615.385,298.333L584.615,286.667L553.846,298.333L523.077,295L492.308,291.667L461.538,291.667L430.769,295L400,295L369.231,296.667L338.462,283.333L307.692,295L276.923,298.333L246.154,298.333L215.385,293.333L184.615,300L153.846,300L123.077,300L92.308,300L61.538,300L30.769,300L0,300Z" fill="#e45756"/></g></g><path class="foreground" aria-hidden="true" d="" display="none"/></g><g transform="translate(0,0)"><path class="background" aria-hidden="true" d="M0,0h800v300h-800Z"/><g><g class="mark-area role-mark marks" role="graphics-object" aria-roledescription="area mark container"><path aria-label="Date: Mar 16, 2026; Unique Clones/day: 0; Repository: karlmdavis/puppet-archive" role="graphics-symbol" aria-roledescription="area mark" d="M0,300L30.769,300L61.538,300L92.308,300L123.077,300L153.846,300L184.615,300L215.385,293.333L246.154,298.333L276.923,298.333L307.692,295L338.462,283.333L369.231,296.667L400,295L430.769,295L461.538,291.667L492.308,291.667L523.077,295L553.846,298.333L584.615,286.667L615.385,298.333L646.154,296.667L676.923,295L707.692,296.667L738.462,285L769.231,296.667L800,293.333L800,295L769.231,296.667L738.462,286.667L707.692,296.667L676.923,295L646.154,296.667L615.385,298.333L584.615,286.667L553.846,298.333L523.077,295L492.308,291.667L461.538,291.667L430.769,295L400,295L369.231,296.667L338.462,283.333L307.692,295L276.923,298.333L246.154,298.333L215.385,295L184.615,300L153.846,300L123.077,300L92.308,300L61.538,300L30.769,300L0,300Z" fill="#72b7b2"/></g></g><path class="foreground" aria-hidden="true" d="" display="none"/></g><g transform="translate(0,0)"><path class="background" aria-hidden="true" d="M0,0h800v300h-800Z"/><g><g class="mark-area role-mark marks" role="graphics-object" aria-roledescription="area mark container"><path aria-label="Date: Mar 16, 2026; Unique Clones/day: 0; Repository: karlmdavis/puppet-sonar" role="graphics-symbol" aria-roledescription="area mark" d="M0,300L30.769,300L61.538,300L92.308,300L123.077,300L153.846,300L184.615,300L215.385,295L246.154,298.333L276.923,298.333L307.692,295L338.462,283.333L369.231,296.667L400,295L430.769,295L461.538,291.667L492.308,291.667L523.077,295L553.846,298.333L584.615,286.667L615.385,298.333L646.154,296.667L676.923,295L707.692,296.667L738.462,286.667L769.231,296.667L800,295L800,296.667L769.231,296.667L738.462,286.667L707.692,298.333L676.923,296.667L646.154,296.667L615.385,298.333L584.615,286.667L553.846,298.333L523.077,296.667L492.308,291.667L461.538,295L430.769,295L400,295L369.231,298.333L338.462,283.333L307.692,295L276.923,298.333L246.154,298.333L215.385,295L184.615,300L153.846,300L123.077,300L92.308,300L61.538,300L30.769,300L0,300Z" fill="#54a24b"/></g></g><path class="foreground" aria-hidden="true" d="" display="none"/></g><g transform="translate(0,0)"><path class="background" aria-hidden="true" d="M0,0h800v300h-800Z"/><g><g class="mark-area role-mark marks" role="graphics-object" aria-roledescription="area mark container"><path aria-label="Date: Mar 16, 2026; Unique Clones/day: 0; Repository: karlmdavis/rps-tourney" role="graphics-symbol" aria-roledescription="area mark" d="M0,300L30.769,300L61.538,300L92.308,300L123.077,300L153.846,300L184.615,300L215.385,295L246.154,298.333L276.923,298.333L307.692,295L338.462,283.333L369.231,298.333L400,295L430.769,295L461.538,295L492.308,291.667L523.077,296.667L553.846,298.333L584.615,286.667L615.385,298.333L646.154,296.667L676.923,296.667L707.692,298.333L738.462,286.667L769.231,296.667L800,296.667L800,298.333L769.231,296.667L738.462,288.333L707.692,298.333L676.923,296.667L646.154,296.667L615.385,298.333L584.615,288.333L553.846,298.333L523.077,298.333L492.308,291.667L461.538,295L430.769,295L400,295L369.231,298.333L338.462,285L307.692,295L276.923,298.333L246.154,298.333L215.385,296.667L184.615,300L153.846,300L123.077,300L92.308,300L61.538,300L30.769,300L0,300Z" fill="#eeca3b"/></g></g><path class="foreground" aria-hidden="true" d="" display="none"/></g><g transform="translate(0,0)"><path class="background" aria-hidden="true" d="M0,0h800v300h-800Z"/><g><g class="mark-area role-mark marks" role="graphics-object" aria-roledescription="area mark container"><path aria-label="Date: Mar 16, 2026; Unique Clones/day: 0; Repository: karlmdavis/sample-maven-and-rcp" role="graphics-symbol" aria-roledescription="area mark" d="M0,300L30.769,300L61.538,300L92.308,300L123.077,300L153.846,300L184.615,300L215.385,296.667L246.154,298.333L276.923,298.333L307.692,295L338.462,285L369.231,298.333L400,295L430.769,295L461.538,295L492.308,291.667L523.077,298.333L553.846,298.333L584.615,288.333L615.385,298.333L646.154,296.667L676.923,296.667L707.692,298.333L738.462,288.333L769.231,296.667L800,298.333L800,298.333L769.231,296.667L738.462,290L707.692,298.333L676.923,296.667L646.154,296.667L615.385,298.333L584.615,290L553.846,298.333L523.077,298.333L492.308,293.333L461.538,295L430.769,295L400,295L369.231,298.333L338.462,286.667L307.692,295L276.923,298.333L246.154,298.333L215.385,296.667L184.615,300L153.846,300L123.077,300L92.308,300L61.538,300L30.769,300L0,300Z" fill="#b279a2"/></g></g><path class="foreground" aria-hidden="true" d="" display="none"/></g><g transform="translate(0,0)"><path class="background" aria-hidden="true" d="M0,0h800v300h-800Z"/><g><g class="mark-area role-mark marks" role="graphics-object" aria-roledescription="area mark container"><path aria-label="Date: Mar 16, 2026; Unique Clones/day: 0; Repository: karlmdavis/stockfighter-trades-solutions" role="graphics-symbol" aria-roledescription="area mark" d="M0,300L30.769,300L61.538,300L92.308,300L123.077,300L153.846,300L184.615,300L215.385,296.667L246.154,298.333L276.923,298.333L307.692,295L338.462,286.667L369.231,298.333L400,295L430.769,295L461.538,295L492.308,293.333L523.077,298.333L553.846,298.333L584.615,290L615.385,298.333L646.154,296.667L676.923,296.667L707.692,298.333L738.462,290L769.231,296.667L800,298.333L800,298.333L769.231,296.667L738.462,291.667L707.692,298.333L676.923,296.667L646.154,296.667L615.385,298.333L584.615,291.667L553.846,298.333L523.077,298.333L492.308,293.333L461.538,295L430.769,295L400,296.667L369.231,298.333L338.462,290L307.692,295L276.923,298.333L246.154,298.333L215.385,296.667L184.615,300L153.846,300L123.077,300L92.308,300L61.538,300L30.769,300L0,300Z" fill="#ff9da6"/></g></g><path class="foreground" aria-hidden="true" d="" display="none"/></g><g transform="translate(0,0)"><path class="background" aria-hidden="true" d="M0,0h800v300h-800Z"/><g><g class="mark-area role-mark marks" role="graphics-object" aria-roledescription="area mark container"><path aria-label="Date: Mar 16, 2026; Unique Clones/day: 0; Repository: karlmdavis/test-repo-for-move" role="graphics-symbol" aria-roledescription="area mark" d="M0,300L30.769,300L61.538,300L92.308,300L123.077,300L153.846,300L184.615,300L215.385,296.667L246.154,298.333L276.923,298.333L307.692,295L338.462,290L369.231,298.333L400,296.667L430.769,295L461.538,295L492.308,293.333L523.077,298.333L553.846,298.333L584.615,291.667L615.385,298.333L646.154,296.667L676.923,296.667L707.692,298.333L738.462,291.667L769.231,296.667L800,298.333L800,298.333L769.231,296.667L738.462,293.333L707.692,298.333L676.923,296.667L646.154,296.667L615.385,298.333L584.615,293.333L553.846,298.333L523.077,298.333L492.308,293.333L461.538,295L430.769,295L400,298.333L369.231,298.333L338.462,291.667L307.692,296.667L276.923,298.333L246.154,298.333L215.385,296.667L184.615,300L153.846,300L123.077,300L92.308,300L61.538,300L30.769,300L0,300Z" fill="#9d755d"/></g></g><path class="foreground" aria-hidden="true" d="" display="none"/></g><g transform="translate(0,0)"><path class="background" aria-hidden="true" d="M0,0h800v300h-800Z"/><g><g class="mark-area role-mark marks" role="graphics-object" aria-roledescription="area mark container"><path aria-label="Date: Mar 16, 2026; Unique Clones/day: 0; Repository: karlmdavis/todoist-ai" role="graphics-symbol" aria-roledescription="area mark" d="M0,300L30.769,300L61.538,300L92.308,300L123.077,300L153.846,300L184.615,300L215.385,296.667L246.154,298.333L276.923,298.333L307.692,296.667L338.462,291.667L369.231,298.333L400,298.333L430.769,295L461.538,295L492.308,293.333L523.077,298.333L553.846,298.333L584.615,293.333L615.385,298.333L646.154,296.667L676.923,296.667L707.692,298.333L738.462,293.333L769.231,296.667L800,298.333L800,300L769.231,296.667L738.462,293.333L707.692,298.333L676.923,296.667L646.154,296.667L615.385,298.333L584.615,293.333L553.846,298.333L523.077,298.333L492.308,296.667L461.538,295L430.769,295L400,298.333L369.231,298.333L338.462,291.667L307.692,296.667L276.923,298.333L246.154,298.333L215.385,296.667L184.615,300L153.846,300L123.077,300L92.308,300L61.538,300L30.769,300L0,300Z" fill="#bab0ac"/></g></g><path class="foreground" aria-hidden="true" d="" display="none"/></g><g transform="translate(0,0)"><path class="background" aria-hidden="true" d="M0,0h800v300h-800Z"/><g><g class="mark-area role-mark marks" role="graphics-object" aria-roledescription="area mark container"><path aria-label="Date: Mar 16, 2026; Unique Clones/day: 0; Repository: karlmdavis/usgs-water-api-java" role="graphics-symbol" aria-roledescription="area mark" d="M0,300L30.769,300L61.538,300L92.308,300L123.077,300L153.846,300L184.615,300L215.385,296.667L246.154,298.333L276.923,298.333L307.692,296.667L338.462,291.667L369.231,298.333L400,298.333L430.769,295L461.538,295L492.308,296.667L523.077,298.333L553.846,298.333L584.615,293.333L615.385,298.333L646.154,296.667L676.923,296.667L707.692,298.333L738.462,293.333L769.231,296.667L800,300L800,300L769.231,298.333L738.462,296.667L707.692,300L676.923,298.333L646.154,300L615.385,300L584.615,296.667L553.846,300L523.077,300L492.308,298.333L461.538,296.667L430.769,298.333L400,300L369.231,300L338.462,295L307.692,300L276.923,300L246.154,300L215.385,300L184.615,300L153.846,300L123.077,300L92.308,300L61.538,300L30.769,300L0,300Z" fill="#4c78a8"/></g></g><path class="foreground" aria-hidden="true" d="" display="none"/></g><g transform="translate(0,0)"><path class="background" aria-hidden="true" d="M0,0h800v300h-800Z"/><g><g class="mark-area role-mark marks" role="graphics-object" aria-roledescription="area mark container"><path aria-label="Date: Mar 16, 2026; Unique Clones/day: 0; Repository: karlmdavis/workstation-base-ansible-role" role="graphics-symbol" aria-roledescription="area mark" d="M0,300L30.769,300L61.538,300L92.308,300L123.077,300L153.846,300L184.615,300L215.385,300L246.154,300L276.923,300L307.692,300L338.462,295L369.231,300L400,300L430.769,298.333L461.538,296.667L492.308,298.333L523.077,300L553.846,300L584.615,296.667L615.385,300L646.154,300L676.923,298.333L707.692,300L738.462,296.667L769.231,298.333L800,300L800,300L769.231,298.333L738.462,298.333L707.692,300L676.923,298.333L646.154,300L615.385,300L584.615,298.333L553.846,300L523.077,300L492.308,300L461.538,298.333L430.769,300L400,300L369.231,300L338.462,298.333L307.692,300L276.923,300L246.154,300L215.385,300L184.615,300L153.846,300L123.077,300L92.308,300L61.538,300L30.769,300L0,300Z" fill="#f58518"/></g></g><path class="foreground" aria-hidden="true" d="" display="none"/></g><g transform="translate(0,0)"><path class="background" aria-hidden="true" d="M0,0h800v300h-800Z"/><g><g class="mark-area role-mark marks" role="graphics-object" aria-roledescription="area mark container"><path aria-label="Date: Mar 16, 2026; Unique Clones/day: 0; Repository: karlmdavis/xmlpull" role="graphics-symbol" aria-roledescription="area mark" d="M0,300L30.769,300L61.538,300L92.308,300L123.077,300L153.846,300L184.615,300L215.385,300L246.154,300L276.923,300L307.692,300L338.462,298.333L369.231,300L400,300L430.769,300L461.538,298.333L492.308,300L523.077,300L553.846,300L584.615,298.333L615.385,300L646.154,300L676.923,298.333L707.692,300L738.462,298.333L769.231,298.333L800,300L800,300L769.231,300L738.462,300L707.692,300L676.923,300L646.154,300L615.385,300L584.615,300L553.846,300L523.077,300L492.308,300L461.538,300L430.769,300L400,300L369.231,300L338.462,300L307.692,300L276.923,300L246.154,300L215.385,300L184.615,300L153.846,300L123.077,300L92.308,300L61.538,300L30.769,300L0,300Z" fill="#e45756"/></g></g><path class="foreground" aria-hidden="true" d="" display="none"/></g></g><g class="mark-group role-legend" role="graphics-symbol" aria-roledescription="legend" aria-label="Symbol legend titled 'Repository' for fill color with 43 values: justdavis-family/github-analytics-data, justdavis-family/justdavis, karlmdavis/FHIR-Server, karlmdavis/ansible, karlmdavis/ansible-jenkins, ending with karlmdavis/xmlpull"><g transform="translate(818,0)"><path class="background" aria-hidden="true" d="M0,0h176v404h-176Z" pointer-events="none"/><g><g class="mark-group role-legend-entry"><g transform="translate(0,16)"><path class="background" aria-hidden="true" d="M0,0h0v0h0Z" pointer-events="none"/><g><g class="mark-group role-scope" role="graphics-object" aria-roledescription="group mark container"><g transform="translate(0,0)"><path class="background" aria-hidden="true" d="M0,0h176v11h-176Z" pointer-events="none" opacity="1"/><g><g class="mark-symbol role-legend-symbol" pointer-events="none"><path transform="translate(6,6)" d="M5,0A5,5,0,1,1,-5,0A5,5,0,1,1,5,0" fill="#4c78a8" stroke-width="1.5" opacity="1"/></g><g class="mark-text role-legend-label" pointer-events="none"><text text-anchor="start" transform="translate(16,9)" font-family="sans-serif" font-size="10px" fill="#000" opacity="1">justdavis-family/github-analytics-d…</text></g></g><path class="foreground" aria-hidden="true" d="" pointer-events="none" display="none"/></g><g transform="translate(0,13)"><path class="background" aria-hidden="true" d="M0,0h176v11h-176Z" pointer-events="none" opacity="1"/><g><g class="mark-symbol role-legend-symbol" pointer-events="none"><path transform="translate(6,6)" d="M5,0A5,5,0,1,1,-5,0A5,5,0,1,1,5,0" fill="#f58518" stroke-width="1.5" opacity="1"/></g><g class="mark-text role-legend-label" pointer-events="none"><text text-anchor="start" transform="translate(16,9)" font-family="sans-serif" font-size="10px" fill="#000" opacity="1">justdavis-family/justdavis</text></g></g><path class="foreground" aria-hidden="true" d="" pointer-events="none" display="none"/></g><g transform="translate(0,26)"><path class="background" aria-hidden="true" d="M0,0h176v11h-176Z" pointer-events="none" opacity="1"/><g><g class="mark-symbol role-legend-symbol" pointer-events="none"><path transform="translate(6,6)" d="M5,0A5,5,0,1,1,-5,0A5,5,0,1,1,5,0" fill="#e45756" stroke-width="1.5" opacity="1"/></g><g class="mark-text role-legend-label" pointer-events="none"><text text-anchor="start" transform="translate(16,9)" font-family="sans-serif" font-size="10px" fill="#000" opacity="1">karlmdavis/FHIR-Server</text></g></g><path class="foreground" aria-hidden="true" d="" pointer-events="none" display="none"/></g><g transform="translate(0,39)"><path class="background" aria-hidden="true" d="M0,0h176v11h-176Z" pointer-events="none" opacity="1"/><g><g class="mark-symbol role-legend-symbol" pointer-events="none"><path transform="translate(6,6)" d="M5,0A5,5,0,1,1,-5,0A5,5,0,1,1,5,0" fill="#72b7b2" stroke-width="1.5" opacity="1"/></g><g class="mark-text role-legend-label" pointer-events="none"><text text-anchor="start" transform="translate(16,9)" font-family="sans-serif" font-size="10px" fill="#000" opacity="1">karlmdavis/ansible</text></g></g><path class="foreground" aria-hidden="true" d="" pointer-events="none" display="none"/></g><g transform="translate(0,52)"><path class="background" aria-hidden="true" d="M0,0h176v11h-176Z" pointer-events="none" opacity="1"/><g><g class="mark-symbol role-legend-symbol" pointer-events="none"><path transform="translate(6,6)" d="M5,0A5,5,0,1,1,-5,0A5,5,0,1,1,5,0" fill="#54a24b" stroke-width="1.5" opacity="1"/></g><g class="mark-text role-legend-label" pointer-events="none"><text text-anchor="start" transform="translate(16,9)" font-family="sans-serif" font-size="10px" fill="#000" opacity="1">karlmdavis/ansible-jenkins</text></g></g><path class="foreground" aria-hidden="true" d="" pointer-events="none" display="none"/></g><g transform="translate(0,65)"><path class="background" aria-hidden="true" d="M0,0h176v11h-176Z" pointer-events="none" opacity="1"/><g><g class="mark-symbol role-legend-symbol" pointer-events="none"><path transform="translate(6,6)" d="M5,0A5,5,0,1,1,-5,0A5,5,0,1,1,5,0" fill="#eeca3b" stroke-width="1.5" opacity="1"/></g><g class="mark-text role-legend-label" pointer-events="none"><text text-anchor="start" transform="translate(16,9)" font-family="sans-serif" font-size="10px" fill="#000" opacity="1">karlmdavis/ansible-role-acmetool</text></g></g><path class="foreground" aria-hidden="true" d="" pointer-events="none" display="none"/></g><g transform="translate(0,78)"><path class="background" aria-hidden="true" d="M0,0h176v11h-176Z" pointer-events="none" opacity="1"/><g><g class="mark-symbol role-legend-symbol" pointer-events="none"><path transform="translate(6,6)" d="M5,0A5,5,0,1,1,-5,0A5,5,0,1,1,5,0" fill="#b279a2" stroke-width="1.5" opacity="1"/></g><g class="mark-text role-legend-label" pointer-events="none"><text text-anchor="start" transform="translate(16,9)" font-family="sans-serif" font-size="10px" fill="#000" opacity="1">karlmdavis/ansible-role-bind-dns</text></g></g><path class="foreground" aria-hidden="true" d="" pointer-events="none" display="none"/></g><g transform="translate(0,91)"><path class="background" aria-hidden="true" d="M0,0h176v11h-176Z" pointer-events="none" opacity="1"/><g><g class="mark-symbol role-legend-symbol" pointer-events="none"><path transform="translate(6,6)" d="M5,0A5,5,0,1,1,-5,0A5,5,0,1,1,5,0" fill="#ff9da6" stroke-width="1.5" opacity="1"/></g><g class="mark-text role-legend-label" pointer-events="none"><text text-anchor="start" transform="translate(16,9)" font-family="sans-serif" font-size="10px" fill="#000" opacity="1">karlmdavis/ansible-role-jenkins2</text></g></g><path class="foreground" aria-hidden="true" d="" pointer-events="none" display="none"/></g><g transform="translate(0,104)"><path class="background" aria-hidden="true" d="M0,0h176v11h-176Z" pointer-events="none" opacity="1"/><g><g class="mark-symbol role-legend-symbol" pointer-events="none"><path transform="translate(6,6)" d="M5,0A5,5,0,1,1,-5,0A5,5,0,1,1,5,0" fill="#9d755d" stroke-width="1.5" opacity="1"/></g><g class="mark-text role-legend-label" pointer-events="none"><text text-anchor="start" transform="translate(16,9)" font-family="sans-serif" font-size="10px" fill="#000" opacity="1">karlmdavis/ansible-role-ldap</text></g></g><path class="foreground" aria-hidden="true" d="" pointer-events="none" display="none"/></g><g transform="translate(0,117)"><path class="background" aria-hidden="true" d="M0,0h176v11h-176Z" pointer-events="none" opacity="1"/><g><g class="mark-symbol role-legend-symbol" pointer-events="none"><path transform="translate(6,6)" d="M5,0A5,5,0,1,1,-5,0A5,5,0,1,1,5,0" fill="#bab0ac" stroke-width="1.5" opacity="1"/></g><g class="mark-text role-legend-label" pointer-events="none"><text text-anchor="start" transform="translate(16,9)" font-family="sans-serif" font-size="10px" fill="#000" opacity="1">karlmdavis/ansible-role-rcm-dotfiles</text></g></g><path class="foreground" aria-hidden="true" d="" pointer-events="none" display="none"/></g><g transform="translate(0,130)"><path class="background" aria-hidden="true" d="M0,0h176v11h-176Z" pointer-events="none" opacity="1"/><g><g class="mark-symbol role-legend-symbol" pointer-events="none"><path transform="translate(6,6)" d="M5,0A5,5,0,1,1,-5,0A5,5,0,1,1,5,0" fill="#4c78a8" stroke-width="1.5" opacity="1"/></g><g class="mark-text role-legend-label" pointer-events="none"><text text-anchor="start" transform="translate(16,9)" font-family="sans-serif" font-size="10px" fill="#000" opacity="1">karlmdavis/ansible-roles</text></g></g><path class="foreground" aria-hidden="true" d="" pointer-events="none" display="none"/></g><g transform="translate(0,143)"><path class="background" aria-hidden="true" d="M0,0h176v11h-176Z" pointer-events="none" opacity="1"/><g><g class="mark-symbol role-legend-symbol" pointer-events="none"><path transform="translate(6,6)" d="M5,0A5,5,0,1,1,-5,0A5,5,0,1,1,5,0" fill="#f58518" stroke-width="1.5" opacity="1"/></g><g class="mark-text role-legend-label" pointer-events="none"><text text-anchor="start" transform="translate(16,9)" font-family="sans-serif" font-size="10px" fill="#000" opacity="1">karlmdavis/bbonfhir-dev-infra-doc…</text></g></g><path class="foreground" aria-hidden="true" d="" pointer-events="none" display="none"/></g><g transform="translate(0,156)"><path class="background" aria-hidden="true" d="M0,0h176v11h-176Z" pointer-events="none" opacity="1"/><g><g class="mark-symbol role-legend-symbol" pointer-events="none"><path transform="translate(6,6)" d="M5,0A5,5,0,1,1,-5,0A5,5,0,1,1,5,0" fill="#e45756" stroke-width="1.5" opacity="1"/></g><g class="mark-text role-legend-label" pointer-events="none"><text text-anchor="start" transform="translate(16,9)" font-family="sans-serif" font-size="10px" fill="#000" opacity="1">karlmdavis/can-i-kayak-baltimore</text></g></g><path class="foreground" aria-hidden="true" d="" pointer-events="none" display="none"/></g><g transform="translate(0,169)"><path class="background" aria-hidden="true" d="M0,0h176v11h-176Z" pointer-events="none" opacity="1"/><g><g class="mark-symbol role-legend-symbol" pointer-events="none"><path transform="translate(6,6)" d="M5,0A5,5,0,1,1,-5,0A5,5,0,1,1,5,0" fill="#72b7b2" stroke-width="1.5" opacity="1"/></g><g class="mark-text role-legend-label" pointer-events="none"><text text-anchor="start" transform="translate(16,9)" font-family="sans-serif" font-size="10px" fill="#000" opacity="1">karlmdavis/datanucleus-test-jdo-1…</text></g></g><path class="foreground" aria-hidden="true" d="" pointer-events="none" display="none"/></g><g transform="translate(0,182)"><path class="background" aria-hidden="true" d="M0,0h176v11h-176Z" pointer-events="none" opacity="1"/><g><g class="mark-symbol role-legend-symbol" pointer-events="none"><path transform="translate(6,6)" d="M5,0A5,5,0,1,1,-5,0A5,5,0,1,1,5,0" fill="#54a24b" stroke-width="1.5" opacity="1"/></g><g class="mark-text role-legend-label" pointer-events="none"><text text-anchor="start" transform="translate(16,9)" font-family="sans-serif" font-size="10px" fill="#000" opacity="1">karlmdavis/dotfiles</text></g></g><path class="foreground" aria-hidden="true" d="" pointer-events="none" display="none"/></g><g transform="translate(0,195)"><path class="background" aria-hidden="true" d="M0,0h176v11h-176Z" pointer-events="none" opacity="1"/><g><g class="mark-symbol role-legend-symbol" pointer-events="none"><path transform="translate(6,6)" d="M5,0A5,5,0,1,1,-5,0A5,5,0,1,1,5,0" fill="#eeca3b" stroke-width="1.5" opacity="1"/></g><g class="mark-text role-legend-label" pointer-events="none"><text text-anchor="start" transform="translate(16,9)" font-family="sans-serif" font-size="10px" fill="#000" opacity="1">karlmdavis/fhir-benchmarks</text></g></g><path class="foreground" aria-hidden="true" d="" pointer-events="none" display="none"/></g><g transform="translate(0,208)"><path class="background" aria-hidden="true" d="M0,0h176v11h-176Z" pointer-events="none" opacity="1"/><g><g class="mark-symbol role-legend-symbol" pointer-events="none"><path transform="translate(6,6)" d="M5,0A5,5,0,1,1,-5,0A5,5,0,1,1,5,0" fill="#b279a2" stroke-width="1.5" opacity="1"/></g><g class="mark-text role-legend-label" pointer-events="none"><text text-anchor="start" transform="translate(16,9)" font-family="sans-serif" font-size="10px" fill="#000" opacity="1">karlmdavis/hapi-fhir-jpaserver-sta…</text></g></g><path class="foreground" aria-hidden="true" d="" pointer-events="none" display="none"/></g><g transform="translate(0,221)"><path class="background" aria-hidden="true" d="M0,0h176v11h-176Z" pointer-events="none" opacity="1"/><g><g class="mark-symbol role-legend-symbol" pointer-events="none"><path transform="translate(6,6)" d="M5,0A5,5,0,1,1,-5,0A5,5,0,1,1,5,0" fill="#ff9da6" stroke-width="1.5" opacity="1"/></g><g class="mark-text role-legend-label" pointer-events="none"><text text-anchor="start" transform="translate(16,9)" font-family="sans-serif" font-size="10px" fill="#000" opacity="1">karlmdavis/hello-rust-actix</text></g></g><path class="foreground" aria-hidden="true" d="" pointer-events="none" display="none"/></g><g transform="translate(0,234)"><path class="background" aria-hidden="true" d="M0,0h176v11h-176Z" pointer-events="none" opacity="1"/><g><g class="mark-symbol role-legend-symbol" pointer-events="none"><path transform="translate(6,6)" d="M5,0A5,5,0,1,1,-5,0A5,5,0,1,1,5,0" fill="#9d755d" stroke-width="1.5" opacity="1"/></g><g class="mark-text role-legend-label" pointer-events="none"><text text-anchor="start" transform="translate(16,9)" font-family="sans-serif" font-size="10px" fill="#000" opacity="1">karlmdavis/jessentials</text></g></g><path class="foreground" aria-hidden="true" d="" pointer-events="none" display="none"/></g><g transform="translate(0,247)"><path class="background" aria-hidden="true" d="M0,0h176v11h-176Z" pointer-events="none" opacity="1"/><g><g class="mark-symbol role-legend-symbol" pointer-events="none"><path transform="translate(6,6)" d="M5,0A5,5,0,1,1,-5,0A5,5,0,1,1,5,0" fill="#bab0ac" stroke-width="1.5" opacity="1"/></g><g class="mark-text role-legend-label" pointer-events="none"><text text-anchor="start" transform="translate(16,9)" font-family="sans-serif" font-size="10px" fill="#000" opacity="1">karlmdavis/justdavis-ansible</text></g></g><path class="foreground" aria-hidden="true" d="" pointer-events="none" display="none"/></g><g transform="translate(0,260)"><path class="background" aria-hidden="true" d="M0,0h176v11h-176Z" pointer-events="none" opacity="1"/><g><g class="mark-symbol role-legend-symbol" pointer-events="none"><path transform="translate(6,6)" d="M5,0A5,5,0,1,1,-5,0A5,5,0,1,1,5,0" fill="#4c78a8" stroke-width="1.5" opacity="1"/></g><g class="mark-text role-legend-label" pointer-events="none"><text text-anchor="start" transform="translate(16,9)" font-family="sans-serif" font-size="10px" fill="#000" opacity="1">karlmdavis/justdavis-finances</text></g></g><path class="foreground" aria-hidden="true" d="" pointer-events="none" display="none"/></g><g transform="translate(0,273)"><path class="background" aria-hidden="true" d="M0,0h176v11h-176Z" pointer-events="none" opacity="1"/><g><g class="mark-symbol role-legend-symbol" pointer-events="none"><path transform="translate(6,6)" d="M5,0A5,5,0,1,1,-5,0A5,5,0,1,1,5,0" fill="#f58518" stroke-width="1.5" opacity="1"/></g><g class="mark-text role-legend-label" pointer-events="none"><text text-anchor="start" transform="translate(16,9)" font-family="sans-serif" font-size="10px" fill="#000" opacity="1">karlmdavis/justdavis-karl</text></g></g><path class="foreground" aria-hidden="true" d="" pointer-events="none" display="none"/></g><g transform="translate(0,286)"><path class="background" aria-hidden="true" d="M0,0h176v11h-176Z" pointer-events="none" opacity="1"/><g><g class="mark-symbol role-legend-symbol" pointer-events="none"><path transform="translate(6,6)" d="M5,0A5,5,0,1,1,-5,0A5,5,0,1,1,5,0" fill="#e45756" stroke-width="1.5" opacity="1"/></g><g class="mark-text role-legend-label" pointer-events="none"><text text-anchor="start" transform="translate(16,9)" font-family="sans-serif" font-size="10px" fill="#000" opacity="1">karlmdavis/justdavis-puppet</text></g></g><path class="foreground" aria-hidden="true" d="" pointer-events="none" display="none"/></g><g transform="translate(0,299)"><path class="background" aria-hidden="true" d="M0,0h176v11h-176Z" pointer-events="none" opacity="1"/><g><g class="mark-symbol role-legend-symbol" pointer-events="none"><path transform="translate(6,6)" d="M5,0A5,5,0,1,1,-5,0A5,5,0,1,1,5,0" fill="#72b7b2" stroke-width="1.5" opacity="1"/></g><g class="mark-text role-legend-label" pointer-events="none"><text text-anchor="start" transform="translate(16,9)" font-family="sans-serif" font-size="10px" fill="#000" opacity="1">karlmdavis/kobjects</text></g></g><path class="foreground" aria-hidden="true" d="" pointer-events="none" display="none"/></g><g transform="translate(0,312)"><path class="background" aria-hidden="true" d="M0,0h176v11h-176Z" pointer-events="none" opacity="1"/><g><g class="mark-symbol role-legend-symbol" pointer-events="none"><path transform="translate(6,6)" d="M5,0A5,5,0,1,1,-5,0A5,5,0,1,1,5,0" fill="#54a24b" stroke-width="1.5" opacity="1"/></g><g class="mark-text role-legend-label" pointer-events="none"><text text-anchor="start" transform="translate(16,9)" font-family="sans-serif" font-size="10px" fill="#000" opacity="1">karlmdavis/ksoap2-android</text></g></g><path class="foreground" aria-hidden="true" d="" pointer-events="none" display="none"/></g><g transform="translate(0,325)"><path class="background" aria-hidden="true" d="M0,0h176v11h-176Z" pointer-events="none" opacity="1"/><g><g class="mark-symbol role-legend-symbol" pointer-events="none"><path transform="translate(6,6)" d="M5,0A5,5,0,1,1,-5,0A5,5,0,1,1,5,0" fill="#eeca3b" stroke-width="1.5" opacity="1"/></g><g class="mark-text role-legend-label" pointer-events="none"><text text-anchor="start" transform="translate(16,9)" font-family="sans-serif" font-size="10px" fill="#000" opacity="1">karlmdavis/kxml2</text></g></g><path class="foreground" aria-hidden="true" d="" pointer-events="none" display="none"/></g><g transform="translate(0,338)"><path class="background" aria-hidden="true" d="M0,0h176v11h-176Z" pointer-events="none" opacity="1"/><g><g class="mark-symbol role-legend-symbol" pointer-events="none"><path transform="translate(6,6)" d="M5,0A5,5,0,1,1,-5,0A5,5,0,1,1,5,0" fill="#b279a2" stroke-width="1.5" opacity="1"/></g><g class="mark-text role-legend-label" pointer-events="none"><text text-anchor="start" transform="translate(16,9)" font-family="sans-serif" font-size="10px" fill="#000" opacity="1">karlmdavis/ldap-plugin</text></g></g><path class="foreground" aria-hidden="true" d="" pointer-events="none" display="none"/></g><g transform="translate(0,351)"><path class="background" aria-hidden="true" d="M0,0h176v11h-176Z" pointer-events="none" opacity="1"/><g><g class="mark-symbol role-legend-symbol" pointer-events="none"><path transform="translate(6,6)" d="M5,0A5,5,0,1,1,-5,0A5,5,0,1,1,5,0" fill="#ff9da6" stroke-width="1.5" opacity="1"/></g><g class="mark-text role-legend-label" pointer-events="none"><text text-anchor="start" transform="translate(16,9)" font-family="sans-serif" font-size="10px" fill="#000" opacity="1">karlmdavis/lego-ev3dev-rs</text></g></g><path class="foreground" aria-hidden="true" d="" pointer-events="none" display="none"/></g><g transform="translate(0,364)"><path class="background" aria-hidden="true" d="M0,0h176v11h-176Z" pointer-events="none" opacity="1"/><g><g class="mark-symbol role-legend-symbol" pointer-events="none"><path transform="translate(6,6)" d="M5,0A5,5,0,1,1,-5,0A5,5,0,1,1,5,0" fill="#9d755d" stroke-width="1.5" opacity="1"/></g><g class="mark-text role-legend-label" pointer-events="none"><text text-anchor="start" transform="translate(16,9)" font-family="sans-serif" font-size="10px" fill="#000" opacity="1">karlmdavis/liquibase</text></g></g><path class="foreground" aria-hidden="true" d="" pointer-events="none" display="none"/></g><g transform="translate(0,377)"><path class="background" aria-hidden="true" d="M0,0h176v11h-176Z" pointer-events="none" opacity="1"/><g><g class="mark-symbol role-legend-symbol" pointer-events="none"><path transform="translate(6,6)" d="M5,0A5,5,0,1,1,-5,0A5,5,0,1,1,5,0" fill="#bab0ac" stroke-width="1.5" opacity="1"/></g><g class="mark-text role-legend-label" pointer-events="none"><text text-anchor="start" transform="translate(16,9)" font-family="sans-serif" font-size="10px" fill="#000" opacity="1">…14 entries</text></g></g><path class="foreground" aria-hidden="true" d="" pointer-events="none" display="none"/></g></g></g><path class="foreground" aria-hidden="true" d="" pointer-events="none" display="none"/></g></g><g class="mark-text role-legend-title" pointer-events="none"><text text-anchor="start" transform="translate(0,9)" font-family="sans-serif" font-size="11px" font-weight="bold" fill="#000" opacity="1">Repository</text></g></g><path class="foreground" aria-hidden="true" d="" pointer-events="none" display="none"/></g></g><g class="mark-group role-title"><g transform="translate(400,-22)"><path class="background" aria-hidden="true" d="M0,0h0v0h0Z" pointer-events="none"/><g><g class="mark-text role-title-text" role="graphics-symbol" aria-roledescription="title" aria-label="Title text 'Unique Clones per Day'" pointer-events="none"><text text-anchor="middle" transform="translate(0,10)" font-family="sans-serif" font-size="13px" font-weight="bold" fill="#000" opacity="1">Unique Clones per Day</text></g></g><path class="foreground" aria-hidden="true" d="" pointer-events="none" display="none"/></g></g></g><path class="foreground" aria-hidden="true" d="" display="none"/></g></g></g></svg>