<svg xmlns="http://www.w3.org/2000/svg" xmlns:xlink="http://www.w3.org/1999/xlink" version="1.1" class="marks" width="1043" height="436" viewBox="0 0 1043 436"><rect width="1043" height="436" fill="white"/><g fill="none" stroke-miterlimit="10" transform="translate(44,27)"><g class="mark-group role-frame root" role="graphics-object" aria-roledescription="group mark container"><g transform="translate(0,0)"><path class="background" aria-hidden="true" d="M0.5,0.5h800v300h-800Z" stroke="#ddd"/><g><g class="mark-group role-axis" aria-hidden="true"><g transform="translate(0.5,300.5)"><path class="background" aria-hidden="true" d="M0,0h0v0h0Z" pointer-events="none"/><g><g class="mark-rule role-axis-grid" pointer-events="none"><line transform="translate(26,-300)" x2="0" y2="300" stroke="#ddd" stroke-width="1" opacity="1"/><line transform="translate(77,-300)" x2="0" y2="300" stroke="#ddd" stroke-width="1" opacity="1"/><line transform="translate(129,-300)" x2="0" y2="300" stroke="#ddd" stroke-width="1" opacity="1"/><line transform="translate(181,-300)" x2="0" y2="300" stroke="#ddd" stroke-width="1" opacity="1"/><line transform="translate(232,-300)" x2="0" y2="300" stroke="#ddd" stroke-width="1" opacity="1"/><line transform="translate(284,-300)" x2="0" y2="300" stroke="#ddd" stroke-width="1" opacity="1"/><line transform="translate(335,-300)" x2="0" y2="300" stroke="#ddd" stroke-width="1" opacity="1"/><line transform="translate(387,-300)" x2="0" y2="300" stroke="#ddd" stroke-width="1" opacity="1"/><line transform="translate(413,-300)" x2="0" y2="300" stroke="#ddd" stroke-width="1" opacity="1"/><line transform="translate(465,-300)" x2="0" y2="300" stroke="#ddd" stroke-width="1" opacity="1"/><line transform="translate(516,-300)" x2="0" y2="300" stroke="#ddd" stroke-width="1" opacity="1"/><line transform="translate(568,-300)" x2="0" y2="300" stroke="#ddd" stroke-width="1" opacity="1"/><line transform="translate(619,-300)" x2="0" y2="300" stroke="#ddd" stroke-width="1" opacity="1"/><line transform="translate(671,-300)" x2="0" y2="300" stroke="#ddd" stroke-width="1" opacity="1"/><line transform="translate(723,-300)" x2="0" y2="300" stroke="#ddd" stroke-width="1" opacity="1"/><line transform="translate(774,-300)" x2="0" y2="300" stroke="#ddd" stroke-width="1" opacity="1"/></g></g><path class="foreground" aria-hidden="true" d="" pointer-events="none" display="none"/></g></g><g class="mark-group role-axis" aria-hidden="true"><g transform="translate(0.5,0.5)"><path class="background" aria-hidden="true" d="M0,0h0v0h0Z" pointer-events="none"/><g><g class="mark-rule role-axis-grid" pointer-events="none"><line transform="translate(0,300)" x2="800" y2="0" stroke="#ddd" stroke-width="1" opacity="1"/><line transform="translate(0,273)" x2="800" y2="0" stroke="#ddd" stroke-width="1" opacity="1"/><line transform="translate(0,245)" x2="800" y2="0" stroke="#ddd" stroke-width="1" opacity="1"/><line transform="translate(0,218)" x2="800" y2="0" stroke="#ddd" stroke-width="1" opacity="1"/><line transform="translate(0,191)" x2="800" y2="0" stroke="#ddd" stroke-width="1" opacity="1"/><line transform="translate(0,164)" x2="800" y2="0" stroke="#ddd" stroke-width="1" opacity="1"/><line transform="translate(0,136)" x2="800" y2="0" stroke="#ddd" stroke-width="1" opacity="1"/><line transform="translate(0,109)" x2="800" y2="0" stroke="#ddd" stroke-width="1" opacity="1"/><line transform="translate(0,82)" x2="800" y2="0" stroke="#ddd" stroke-width="1" opacity="1"/><line transform="translate(0,55)" x2="800" y2="0" stroke="#ddd" stroke-width="1" opacity="1"/><line transform="translate(0,27)" x2="800" y2="0" stroke="#ddd" stroke-width="1" opacity="1"/><line transform="translate(0,0)" x2="800" y2="0" stroke="#ddd" stroke-width="1" opacity="1"/></g></g><path class="foreground" aria-hidden="true" d="" pointer-events="none" display="none"/></g></g><g class="mark-group role-axis" role="graphics-symbol" aria-roledescription="axis" aria-label="X-axis titled 'Date' for a time scale with values from Monday, 16 March 2026, 12:00:00 AM to Thursday, 16 April 2026, 12:00:00 AM"><g transform="translate(0.5,300.5)"><path class="background" aria-hidden="true" d="M0,0h0v0h0Z" pointer-events="none"/><g><g class="mark-rule role-axis-tick" pointer-events="none"><line transform="translate(26,0)" x2="0" y2="5" stroke="#888" stroke-width="1" opacity="1"/><line transform="translate(77,0)" x2="0" y2="5" stroke="#888" stroke-width="1" opacity="1"/><line transform="translate(129,0)" x2="0" y2="5" stroke="#888" stroke-width="1" opacity="1"/><line transform="translate(181,0)" x2="0" y2="5" stroke="#888" stroke-width="1" opacity="1"/><line transform="translate(232,0)" x2="0" y2="5" stroke="#888" stroke-width="1" opacity="1"/><line transform="translate(284,0)" x2="0" y2="5" stroke="#888" stroke-width="1" opacity="1"/><line transform="translate(335,0)" x2="0" y2="5" stroke="#888" stroke-width="1" opacity="1"/><line transform="translate(387,0)" x2="0" y2="5" stroke="#888" stroke-width="1" opacity="1"/><line transform="translate(413,0)" x2="0" y2="5" stroke="#888" stroke-width="1" opacity="1"/><line transform="translate(465,0)" x2="0" y2="5" stroke="#888" stroke-width="1" opacity="1"/><line transform="translate(516,0)" x2="0" y2="5" stroke="#888" stroke-width="1" opacity="1"/><line transform="translate(568,0)" x2="0" y2="5" stroke="#888" stroke-width="1" opacity="1"/><line transform="translate(619,0)" x2="0" y2="5" stroke="#888" stroke-width="1" opacity="1"/><line transform="translate(671,0)" x2="0" y2="5" stroke="#888" stroke-width="1" opacity="1"/><line transform="translate(723,0)" x2="0" y2="5" stroke="#888" stroke-width="1" opacity="1"/><line transform="translate(774,0)" x2="0" y2="5" stroke="#888" stroke-width="1" opacity="1"/></g><g class="mark-text role-axis-label" pointer-events="none"><text text-anchor="middle" transform="translate(25.806451612903224,15)" font-family="sans-serif" font-size="10px" fill="#000" opacity="1">Tue 17</text><text text-anchor="middle" transform="translate(77.41935483870968,15)" font-family="sans-serif" font-size="10px" fill="#000" opacity="1">Thu 19</text><text text-anchor="middle" transform="translate(129.03225806451613,15)" font-family="sans-serif" font-size="10px" fill="#000" opacity="1">Sat 21</text><text text-anchor="middle" transform="translate(180.64516129032256,15)" font-family="sans-serif" font-size="10px" fill="#000" opacity="1">Mon 23</text><text text-anchor="middle" transform="translate(232.25806451612905,15)" font-family="sans-serif" font-size="10px" fill="#000" opacity="1">Wed 25</text><text text-anchor="middle" transform="translate(283.8709677419355,15)" font-family="sans-serif" font-size="10px" fill="#000" opacity="1">Fri 27</text><text text-anchor="middle" transform="translate(335.48387096774195,15)" font-family="sans-serif" font-size="10px" fill="#000" opacity="1">Mar 29</text><text text-anchor="middle" transform="translate(387.0967741935484,15)" font-family="sans-serif" font-size="10px" fill="#000" opacity="1">Tue 31</text><text text-anchor="middle" transform="translate(412.9032258064516,15)" font-family="sans-serif" font-size="10px" fill="#000" opacity="1">April</text><text text-anchor="middle" transform="translate(464.5161290322581,15)" font-family="sans-serif" font-size="10px" fill="#000" opacity="1">Fri 03</text><text text-anchor="middle" transform="translate(516.1290322580645,15)" font-family="sans-serif" font-size="10px" fill="#000" opacity="1">Apr 05</text><text text-anchor="middle" transform="translate(567.741935483871,15)" font-family="sans-serif" font-size="10px" fill="#000" opacity="1">Tue 07</text><text text-anchor="middle" transform="translate(619.3548387096774,15)" font-family="sans-serif" font-size="10px" fill="#000" opacity="1">Thu 09</text><text text-anchor="middle" transform="translate(670.9677419354839,15)" font-family="sans-serif" font-size="10px" fill="#000" opacity="1">Sat 11</text><text text-anchor="middle" transform="translate(722.5806451612902,15)" font-family="sans-serif" font-size="10px" fill="#000" opacity="1">Mon 13</text><text text-anchor="middle" transform="translate(774.1935483870968,15)" font-family="sans-serif" font-size="10px" fill="#000" opacity="1">Wed 15</text></g><g class="mark-rule role-axis-domain" pointer-events="none"><line transform="translate(0,0)" x2="800" y2="0" stroke="#888" stroke-width="1" opacity="1"/></g><g class="mark-text role-axis-title" pointer-events="none"><text text-anchor="middle" transform="translate(400,30)" font-family="sans-serif" font-size="11px" font-weight="bold" fill="#000" opacity="1">Date</text></g></g><path class="foreground" aria-hidden="true" d="" pointer-events="none" display="none"/></g></g><g class="mark-group role-axis" role="graphics-symbol" aria-roledescription="axis" aria-label="Y-axis titled 'Unique Clones/day' for a linear scale with values from 0 to 220"><g transform="translate(0.5,0.5)"><path class="background" aria-hidden="true" d="M0,0h0v0h0Z" pointer-events="none"/><g><g class="mark-rule role-axis-tick" pointer-events="none"><line transform="translate(0,300)" x2="-5" y2="0" stroke="#888" stroke-width="1" opacity="1"/><line transform="translate(0,273)" x2="-5" y2="0" stroke="#888" stroke-width="1" opacity="1"/><line transform="translate(0,245)" x2="-5" y2="0" stroke="#888" stroke-width="1" opacity="1"/><line transform="translate(0,218)" x2="-5" y2="0" stroke="#888" stroke-width="1" opacity="1"/><line transform="translate(0,191)" x2="-5" y2="0" stroke="#888" stroke-width="1" opacity="1"/><line transform="translate(0,164)" x2="-5" y2="0" stroke="#888" stroke-width="1" opacity="1"/><line transform="translate(0,136)" x2="-5" y2="0" stroke="#888" stroke-width="1" opacity="1"/><line transform="translate(0,109)" x2="-5" y2="0" stroke="#888" stroke-width="1" opacity="1"/><line transform="translate(0,82)" x2="-5" y2="0" stroke="#888" stroke-width="1" opacity="1"/><line transform="translate(0,55)" x2="-5" y2="0" stroke="#888" stroke-width="1" opacity="1"/><line transform="translate(0,27)" x2="-5" y2="0" stroke="#888" stroke-width="1" opacity="1"/><line transform="translate(0,0)" x2="-5" y2="0" stroke="#888" stroke-width="1" opacity="1"/></g><g class="mark-text role-axis-label" pointer-events="none"><text text-anchor="end" transform="translate(-7,303)" font-family="sans-serif" font-size="10px" fill="#000" opacity="1">0</text><text text-anchor="end" transform="translate(-7,275.7272727272727)" font-family="sans-serif" font-size="10px" fill="#000" opacity="1">20</text><text text-anchor="end" transform="translate(-7,248.45454545454544)" font-family="sans-serif" font-size="10px" fill="#000" opacity="1">40</text><text text-anchor="end" transform="translate(-7,221.1818181818182)" font-family="sans-serif" font-size="10px" fill="#000" opacity="1">60</text><text text-anchor="end" transform="translate(-7,193.9090909090909)" font-family="sans-serif" font-size="10px" fill="#000" opacity="1">80</text><text text-anchor="end" transform="translate(-7,166.63636363636363)" font-family="sans-serif" font-size="10px" fill="#000" opacity="1">100</text><text text-anchor="end" transform="translate(-7,139.36363636363637)" font-family="sans-serif" font-size="10px" fill="#000" opacity="1">120</text><text text-anchor="end" transform="translate(-7,112.0909090909091)" font-family="sans-serif" font-size="10px" fill="#000" opacity="1">140</text><text text-anchor="end" transform="translate(-7,84.81818181818181)" font-family="sans-serif" font-size="10px" fill="#000" opacity="1">160</text><text text-anchor="end" transform="translate(-7,57.54545454545453)" font-family="sans-serif" font-size="10px" fill="#000" opacity="1">180</text><text text-anchor="end" transform="translate(-7,30.27272727272728)" font-family="sans-serif" font-size="10px" fill="#000" opacity="1">200</text><text text-anchor="end" transform="translate(-7,3)" font-family="sans-serif" font-size="10px" fill="#000" opacity="1">220</text></g><g class="mark-rule role-axis-domain" pointer-events="none"><line transform="translate(0,300)" x2="0" y2="-300" stroke="#888" stroke-width="1" opacity="1"/></g><g class="mark-text role-axis-title" pointer-events="none"><text text-anchor="middle" transform="translate(-27.6845703125,150) rotate(-90) translate(0,-2)" font-family="sans-serif" font-size="11px" font-weight="bold" fill="#000" opacity="1">Unique Clones/day</text></g></g><path class="foreground" aria-hidden="true" d="" pointer-events="none" display="none"/></g></g><g class="mark-group role-scope pathgroup" role="graphics-object" aria-roledescription="group mark container"><g transform="translate(0,0)"><path class="background" aria-hidden="true" d="M0,0h800v300h-800Z"/><g><g class="mark-area role-mark marks" role="graphics-object" aria-roledescription="area mark container"><path aria-label="Date: Mar 16, 2026; Unique Clones/day: 0; Repository: justdavis-family/github-analytics-data" role="graphics-symbol" aria-roledescription="area mark" d="M0,298.636L25.806,300L51.613,300L77.419,298.636L103.226,300L129.032,300L154.839,300L180.645,282.273L206.452,297.273L232.258,290.455L258.065,278.182L283.871,205.909L309.677,237.273L335.484,169.091L361.29,255L387.097,268.636L412.903,274.091L438.71,286.364L464.516,259.091L490.323,73.636L516.129,148.636L541.935,257.727L567.742,155.455L593.548,250.909L619.355,229.091L645.161,271.364L670.968,249.545L696.774,212.727L722.581,4.091L748.387,267.273L774.194,260.455L800,276.818L800,291.818L774.194,278.182L748.387,282.273L722.581,10.909L696.774,229.091L670.968,260.455L645.161,280.909L619.355,238.636L593.548,257.727L567.742,190.909L541.935,257.727L516.129,148.636L490.323,73.636L464.516,259.091L438.71,286.364L412.903,274.091L387.097,268.636L361.29,255L335.484,169.091L309.677,237.273L283.871,205.909L258.065,278.182L232.258,290.455L206.452,297.273L180.645,282.273L154.839,300L129.032,300L103.226,300L77.419,298.636L51.613,300L25.806,300L0,298.636Z" fill="#4c78a8"/></g></g><path class="foreground" aria-hidden="true" d="" display="none"/></g><g transform="translate(0,0)"><path class="background" aria-hidden="true" d="M0,0h800v300h-800Z"/><g><g class="mark-area role-mark marks" role="graphics-object" aria-roledescription="area mark container"><path aria-label="Date: Mar 16, 2026; Unique Clones/day: 0; Repository: justdavis-family/justdavis" role="graphics-symbol" aria-roledescription="area mark" d="M0,298.636L25.806,300L51.613,300L77.419,298.636L103.226,300L129.032,300L154.839,300L180.645,282.273L206.452,297.273L232.258,290.455L258.065,278.182L283.871,205.909L309.677,237.273L335.484,169.091L361.29,255L387.097,268.636L412.903,274.091L438.71,286.364L464.516,259.091L490.323,73.636L516.129,148.636L541.935,257.727L567.742,190.909L593.548,257.727L619.355,238.636L645.161,280.909L670.968,260.455L696.774,229.091L722.581,10.909L748.387,282.273L774.194,278.182L800,291.818L800,294.545L774.194,283.636L748.387,283.636L722.581,178.636L696.774,250.909L670.968,264.545L645.161,283.636L619.355,244.091L593.548,260.455L567.742,259.091L541.935,282.273L516.129,189.545L490.323,180L464.516,260.455L438.71,286.364L412.903,275.455L387.097,268.636L361.29,255L335.484,169.091L309.677,237.273L283.871,205.909L258.065,278.182L232.258,290.455L206.452,297.273L180.645,283.636L154.839,300L129.032,300L103.226,300L77.419,298.636L51.613,300L25.806,300L0,298.636Z" fill="#f58518"/></g></g><path class="foreground" aria-hidden="true" d="" display="none"/></g><g transform="translate(0,0)"><path class="background" aria-hidden="true" d="M0,0h800v300h-800Z"/><g><g class="mark-area role-mark marks" role="graphics-object" aria-roledescription="area mark container"><path aria-label="Date: Mar 16, 2026; Unique Clones/day: 0; Repository: karlmdavis/FHIR-Server" role="graphics-symbol" aria-roledescription="area mark" d="M0,298.636L25.806,300L51.613,300L77.419,298.636L103.226,300L129.032,300L154.839,300L180.645,283.636L206.452,297.273L232.258,290.455L258.065,278.182L283.871,205.909L309.677,237.273L335.484,169.091L361.29,255L387.097,268.636L412.903,275.455L438.71,286.364L464.516,260.455L490.323,180L516.129,189.545L541.935,282.273L567.742,259.091L593.548,260.455L619.355,244.091L645.161,283.636L670.968,264.545L696.774,250.909L722.581,178.636L748.387,283.636L774.194,283.636L800,294.545L800,294.545L774.194,283.636L748.387,283.636L722.581,178.636L696.774,252.273L670.968,267.273L645.161,283.636L619.355,244.091L593.548,260.455L567.742,259.091L541.935,282.273L516.129,189.545L490.323,180L464.516,260.455L438.71,286.364L412.903,275.455L387.097,270L361.29,255L335.484,169.091L309.677,237.273L283.871,205.909L258.065,278.182L232.258,290.455L206.452,297.273L180.645,283.636L154.839,300L129.032,300L103.226,300L77.419,298.636L51.613,300L25.806,300L0,298.636Z" fill="#e45756"/></g></g><path class="foreground" aria-hidden="true" d="" display="none"/></g><g transform="translate(0,0)"><path class="background" aria-hidden="true" d="M0,0h800v300h-800Z"/><g><g class="mark-area role-mark marks" role="graphics-object" aria-roledescription="area mark container"><path aria-label="Date: Mar 16, 2026; Unique Clones/day: 1; Repository: karlmdavis/ansible" role="graphics-symbol" aria-roledescription="area mark" d="M0,298.636L25.806,300L51.613,300L77.419,298.636L103.226,300L129.032,300L154.839,300L180.645,283.636L206.452,297.273L232.258,290.455L258.065,278.182L283.871,205.909L309.677,237.273L335.484,169.091L361.29,255L387.097,270L412.903,275.455L438.71,286.364L464.516,260.455L490.323,180L516.129,189.545L541.935,282.273L567.742,259.091L593.548,260.455L619.355,244.091L645.161,283.636L670.968,267.273L696.774,252.273L722.581,178.636L748.387,283.636L774.194,283.636L800,294.545L800,294.545L774.194,283.636L748.387,285L722.581,178.636L696.774,252.273L670.968,267.273L645.161,283.636L619.355,244.091L593.548,260.455L567.742,259.091L541.935,282.273L516.129,189.545L490.323,180L464.516,260.455L438.71,286.364L412.903,275.455L387.097,270L361.29,255L335.484,169.091L309.677,237.273L283.871,205.909L258.065,278.182L232.258,290.455L206.452,297.273L180.645,283.636L154.839,300L129.032,300L103.226,300L77.419,298.636L51.613,300L25.806,300L0,300Z" fill="#72b7b2"/></g></g><path class="foreground" aria-hidden="true" d="" display="none"/></g><g transform="translate(0,0)"><path class="background" aria-hidden="true" d="M0,0h800v300h-800Z"/><g><g class="mark-area role-mark marks" role="graphics-object" aria-roledescription="area mark container"><path aria-label="Date: Mar 16, 2026; Unique Clones/day: 0; Repository: karlmdavis/ansible-jenkins" role="graphics-symbol" aria-roledescription="area mark" d="M0,300L25.806,300L51.613,300L77.419,298.636L103.226,300L129.032,300L154.839,300L180.645,283.636L206.452,297.273L232.258,290.455L258.065,278.182L283.871,205.909L309.677,237.273L335.484,169.091L361.29,255L387.097,270L412.903,275.455L438.71,286.364L464.516,260.455L490.323,180L516.129,189.545L541.935,282.273L567.742,259.091L593.548,260.455L619.355,244.091L645.161,283.636L670.968,267.273L696.774,252.273L722.581,178.636L748.387,285L774.194,283.636L800,294.545L800,294.545L774.194,283.636L748.387,285L722.581,178.636L696.774,253.636L670.968,267.273L645.161,283.636L619.355,244.091L593.548,260.455L567.742,259.091L541.935,282.273L516.129,189.545L490.323,181.364L464.516,261.818L438.71,286.364L412.903,275.455L387.097,270L361.29,255L335.484,169.091L309.677,237.273L283.871,205.909L258.065,279.545L232.258,290.455L206.452,297.273L180.645,283.636L154.839,300L129.032,300L103.226,300L77.419,298.636L51.613,300L25.806,300L0,300Z" fill="#54a24b"/></g></g><path class="foreground" aria-hidden="true" d="" display="none"/></g><g transform="translate(0,0)"><path class="background" aria-hidden="true" d="M0,0h800v300h-800Z"/><g><g class="mark-area role-mark marks" role="graphics-object" aria-roledescription="area mark container"><path aria-label="Date: Mar 16, 2026; Unique Clones/day: 0; Repository: karlmdavis/ansible-role-acmetool" role="graphics-symbol" aria-roledescription="area mark" d="M0,300L25.806,300L51.613,300L77.419,298.636L103.226,300L129.032,300L154.839,300L180.645,283.636L206.452,297.273L232.258,290.455L258.065,279.545L283.871,205.909L309.677,237.273L335.484,169.091L361.29,255L387.097,270L412.903,275.455L438.71,286.364L464.516,261.818L490.323,181.364L516.129,189.545L541.935,282.273L567.742,259.091L593.548,260.455L619.355,244.091L645.161,283.636L670.968,267.273L696.774,253.636L722.581,178.636L748.387,285L774.194,283.636L800,294.545L800,294.545L774.194,283.636L748.387,285L722.581,178.636L696.774,255L670.968,267.273L645.161,283.636L619.355,244.091L593.548,260.455L567.742,259.091L541.935,282.273L516.129,189.545L490.323,181.364L464.516,261.818L438.71,286.364L412.903,275.455L387.097,270L361.29,255L335.484,169.091L309.677,237.273L283.871,205.909L258.065,280.909L232.258,290.455L206.452,297.273L180.645,283.636L154.839,300L129.032,300L103.226,300L77.419,298.636L51.613,300L25.806,300L0,300Z" fill="#eeca3b"/></g></g><path class="foreground" aria-hidden="true" d="" display="none"/></g><g transform="translate(0,0)"><path class="background" aria-hidden="true" d="M0,0h800v300h-800Z"/><g><g class="mark-area role-mark marks" role="graphics-object" aria-roledescription="area mark container"><path aria-label="Date: Mar 16, 2026; Unique Clones/day: 0; Repository: karlmdavis/ansible-role-bind-dns" role="graphics-symbol" aria-roledescription="area mark" d="M0,300L25.806,300L51.613,300L77.419,298.636L103.226,300L129.032,300L154.839,300L180.645,283.636L206.452,297.273L232.258,290.455L258.065,280.909L283.871,205.909L309.677,237.273L335.484,169.091L361.29,255L387.097,270L412.903,275.455L438.71,286.364L464.516,261.818L490.323,181.364L516.129,189.545L541.935,282.273L567.742,259.091L593.548,260.455L619.355,244.091L645.161,283.636L670.968,267.273L696.774,255L722.581,178.636L748.387,285L774.194,283.636L800,294.545L800,295.909L774.194,283.636L748.387,285L722.581,184.091L696.774,256.364L670.968,267.273L645.161,283.636L619.355,245.455L593.548,261.818L567.742,259.091L541.935,282.273L516.129,189.545L490.323,182.727L464.516,261.818L438.71,286.364L412.903,279.545L387.097,270L361.29,256.364L335.484,170.455L309.677,237.273L283.871,208.636L258.065,280.909L232.258,290.455L206.452,297.273L180.645,283.636L154.839,300L129.032,300L103.226,300L77.419,298.636L51.613,300L25.806,300L0,300Z" fill="#b279a2"/></g></g><path class="foreground" aria-hidden="true" d="" display="none"/></g><g transform="translate(0,0)"><path class="background" aria-hidden="true" d="M0,0h800v300h-800Z"/><g><g class="mark-area role-mark marks" role="graphics-object" aria-roledescription="area mark container"><path aria-label="Date: Mar 16, 2026; Unique Clones/day: 0; Repository: karlmdavis/ansible-role-jenkins2" role="graphics-symbol" aria-roledescription="area mark" d="M0,300L25.806,300L51.613,300L77.419,298.636L103.226,300L129.032,300L154.839,300L180.645,283.636L206.452,297.273L232.258,290.455L258.065,280.909L283.871,208.636L309.677,237.273L335.484,170.455L361.29,256.364L387.097,270L412.903,279.545L438.71,286.364L464.516,261.818L490.323,182.727L516.129,189.545L541.935,282.273L567.742,259.091L593.548,261.818L619.355,245.455L645.161,283.636L670.968,267.273L696.774,256.364L722.581,184.091L748.387,285L774.194,283.636L800,295.909L800,295.909L774.194,285L748.387,285L722.581,190.909L696.774,256.364L670.968,268.636L645.161,286.364L619.355,252.273L593.548,261.818L567.742,259.091L541.935,282.273L516.129,190.909L490.323,185.455L464.516,263.182L438.71,287.727L412.903,280.909L387.097,271.364L361.29,256.364L335.484,170.455L309.677,238.636L283.871,210L258.065,282.273L232.258,291.818L206.452,298.636L180.645,283.636L154.839,300L129.032,300L103.226,300L77.419,298.636L51.613,300L25.806,300L0,300Z" fill="#ff9da6"/></g></g><path class="foreground" aria-hidden="true" d="" display="none"/></g><g transform="translate(0,0)"><path class="background" aria-hidden="true" d="M0,0h800v300h-800Z"/><g><g class="mark-area role-mark marks" role="graphics-object" aria-roledescription="area mark container"><path aria-label="Date: Mar 16, 2026; Unique Clones/day: 0; Repository: karlmdavis/ansible-role-ldap" role="graphics-symbol" aria-roledescription="area mark" d="M0,300L25.806,300L51.613,300L77.419,298.636L103.226,300L129.032,300L154.839,300L180.645,283.636L206.452,298.636L232.258,291.818L258.065,282.273L283.871,210L309.677,238.636L335.484,170.455L361.29,256.364L387.097,271.364L412.903,280.909L438.71,287.727L464.516,263.182L490.323,185.455L516.129,190.909L541.935,282.273L567.742,259.091L593.548,261.818L619.355,252.273L645.161,286.364L670.968,268.636L696.774,256.364L722.581,190.909L748.387,285L774.194,285L800,295.909L800,295.909L774.194,285L748.387,285L722.581,192.273L696.774,256.364L670.968,268.636L645.161,286.364L619.355,252.273L593.548,261.818L567.742,259.091L541.935,282.273L516.129,190.909L490.323,185.455L464.516,263.182L438.71,287.727L412.903,280.909L387.097,272.727L361.29,256.364L335.484,170.455L309.677,238.636L283.871,210L258.065,282.273L232.258,291.818L206.452,298.636L180.645,283.636L154.839,300L129.032,300L103.226,300L77.419,298.636L51.613,300L25.806,300L0,300Z" fill="#9d755d"/></g></g><path class="foreground" aria-hidden="true" d="" display="none"/></g><g transform="translate(0,0)"><path class="background" aria-hidden="true" d="M0,0h800v300h-800Z"/><g><g class="mark-area role-mark marks" role="graphics-object" aria-roledescription="area mark container"><path aria-label="Date: Mar 16, 2026; Unique Clones/day: 0; Repository: karlmdavis/ansible-role-rcm-dotfiles" role="graphics-symbol" aria-roledescription="area mark" d="M0,300L25.806,300L51.613,300L77.419,298.636L103.226,300L129.032,300L154.839,300L180.645,283.636L206.452,298.636L232.258,291.818L258.065,282.273L283.871,210L309.677,238.636L335.484,170.455L361.29,256.364L387.097,272.727L412.903,280.909L438.71,287.727L464.516,263.182L490.323,185.455L516.129,190.909L541.935,282.273L567.742,259.091L593.548,261.818L619.355,252.273L645.161,286.364L670.968,268.636L696.774,256.364L722.581,192.273L748.387,285L774.194,285L800,295.909L800,295.909L774.194,286.364L748.387,285L722.581,196.364L696.774,257.727L670.968,268.636L645.161,286.364L619.355,253.636L593.548,261.818L567.742,259.091L541.935,282.273L516.129,190.909L490.323,186.818L464.516,263.182L438.71,287.727L412.903,280.909L387.097,272.727L361.29,257.727L335.484,171.818L309.677,238.636L283.871,212.727L258.065,282.273L232.258,291.818L206.452,298.636L180.645,283.636L154.839,300L129.032,300L103.226,300L77.419,298.636L51.613,300L25.806,300L0,300Z" fill="#bab0ac"/></g></g><path class="foreground" aria-hidden="true" d="" display="none"/></g><g transform="translate(0,0)"><path class="background" aria-hidden="true" d="M0,0h800v300h-800Z"/><g><g class="mark-area role-mark marks" role="graphics-object" aria-roledescription="area mark container"><path aria-label="Date: Mar 16, 2026; Unique Clones/day: 0; Repository: karlmdavis/ansible-roles" role="graphics-symbol" aria-roledescription="area mark" d="M0,300L25.806,300L51.613,300L77.419,298.636L103.226,300L129.032,300L154.839,300L180.645,283.636L206.452,298.636L232.258,291.818L258.065,282.273L283.871,212.727L309.677,238.636L335.484,171.818L361.29,257.727L387.097,272.727L412.903,280.909L438.71,287.727L464.516,263.182L490.323,186.818L516.129,190.909L541.935,282.273L567.742,259.091L593.548,261.818L619.355,253.636L645.161,286.364L670.968,268.636L696.774,257.727L722.581,196.364L748.387,285L774.194,286.364L800,295.909L800,295.909L774.194,286.364L748.387,285L722.581,196.364L696.774,257.727L670.968,270L645.161,286.364L619.355,253.636L593.548,261.818L567.742,259.091L541.935,282.273L516.129,190.909L490.323,186.818L464.516,263.182L438.71,287.727L412.903,280.909L387.097,272.727L361.29,259.091L335.484,171.818L309.677,238.636L283.871,212.727L258.065,283.636L232.258,291.818L206.452,298.636L180.645,283.636L154.839,300L129.032,300L103.226,300L77.419,298.636L51.613,300L25.806,300L0,300Z" fill="#4c78a8"/></g></g><path class="foreground" aria-hidden="true" d="" display="none"/></g><g transform="translate(0,0)"><path class="background" aria-hidden="true" d="M0,0h800v300h-800Z"/><g><g class="mark-area role-mark marks" role="graphics-object" aria-roledescription="area mark container"><path aria-label="Date: Mar 16, 2026; Unique Clones/day: 0; Repository: karlmdavis/bbonfhir-dev-infra-docker" role="graphics-symbol" aria-roledescription="area mark" d="M0,300L25.806,300L51.613,300L77.419,298.636L103.226,300L129.032,300L154.839,300L180.645,283.636L206.452,298.636L232.258,291.818L258.065,283.636L283.871,212.727L309.677,238.636L335.484,171.818L361.29,259.091L387.097,272.727L412.903,280.909L438.71,287.727L464.516,263.182L490.323,186.818L516.129,190.909L541.935,282.273L567.742,259.091L593.548,261.818L619.355,253.636L645.161,286.364L670.968,270L696.774,257.727L722.581,196.364L748.387,285L774.194,286.364L800,295.909L800,295.909L774.194,286.364L748.387,285L722.581,200.455L696.774,259.091L670.968,270L645.161,286.364L619.355,255L593.548,261.818L567.742,259.091L541.935,282.273L516.129,190.909L490.323,188.182L464.516,263.182L438.71,287.727L412.903,280.909L387.097,272.727L361.29,260.455L335.484,171.818L309.677,238.636L283.871,214.091L258.065,283.636L232.258,293.182L206.452,298.636L180.645,283.636L154.839,300L129.032,300L103.226,300L77.419,298.636L51.613,300L25.806,300L0,300Z" fill="#f58518"/></g></g><path class="foreground" aria-hidden="true" d="" display="none"/></g><g transform="translate(0,0)"><path class="background" aria-hidden="true" d="M0,0h800v300h-800Z"/><g><g class="mark-area role-mark marks" role="graphics-object" aria-roledescription="area mark container"><path aria-label="Date: Mar 16, 2026; Unique Clones/day: 0; Repository: karlmdavis/can-i-kayak-baltimore" role="graphics-symbol" aria-roledescription="area mark" d="M0,300L25.806,300L51.613,300L77.419,298.636L103.226,300L129.032,300L154.839,300L180.645,283.636L206.452,298.636L232.258,293.182L258.065,283.636L283.871,214.091L309.677,238.636L335.484,171.818L361.29,260.455L387.097,272.727L412.903,280.909L438.71,287.727L464.516,263.182L490.323,188.182L516.129,190.909L541.935,282.273L567.742,259.091L593.548,261.818L619.355,255L645.161,286.364L670.968,270L696.774,259.091L722.581,200.455L748.387,285L774.194,286.364L800,295.909L800,295.909L774.194,286.364L748.387,285L722.581,203.182L696.774,260.455L670.968,270L645.161,286.364L619.355,256.364L593.548,261.818L567.742,259.091L541.935,282.273L516.129,190.909L490.323,189.545L464.516,263.182L438.71,287.727L412.903,282.273L387.097,272.727L361.29,260.455L335.484,171.818L309.677,238.636L283.871,218.182L258.065,283.636L232.258,293.182L206.452,298.636L180.645,283.636L154.839,300L129.032,300L103.226,300L77.419,298.636L51.613,300L25.806,300L0,300Z" fill="#e45756"/></g></g><path class="foreground" aria-hidden="true" d="" display="none"/></g><g transform="translate(0,0)"><path class="background" aria-hidden="true" d="M0,0h800v300h-800Z"/><g><g class="mark-area role-mark marks" role="graphics-object" aria-roledescription="area mark container"><path aria-label="Date: Mar 16, 2026; Unique Clones/day: 0; Repository: karlmdavis/datanucleus-test-jdo-1-to-n" role="graphics-symbol" aria-roledescription="area mark" d="M0,300L25.806,300L51.613,300L77.419,298.636L103.226,300L129.032,300L154.839,300L180.645,283.636L206.452,298.636L232.258,293.182L258.065,283.636L283.871,218.182L309.677,238.636L335.484,171.818L361.29,260.455L387.097,272.727L412.903,282.273L438.71,287.727L464.516,263.182L490.323,189.545L516.129,190.909L541.935,282.273L567.742,259.091L593.548,261.818L619.355,256.364L645.161,286.364L670.968,270L696.774,260.455L722.581,203.182L748.387,285L774.194,286.364L800,295.909L800,295.909L774.194,286.364L748.387,286.364L722.581,203.182L696.774,260.455L670.968,270L645.161,286.364L619.355,256.364L593.548,261.818L567.742,259.091L541.935,282.273L516.129,190.909L490.323,189.545L464.516,263.182L438.71,287.727L412.903,282.273L387.097,272.727L361.29,260.455L335.484,171.818L309.677,240L283.871,218.182L258.065,283.636L232.258,293.182L206.452,298.636L180.645,283.636L154.839,300L129.032,300L103.226,300L77.419,298.636L51.613,300L25.806,300L0,300Z" fill="#72b7b2"/></g></g><path class="foreground" aria-hidden="true" d="" display="none"/></g><g transform="translate(0,0)"><path class="background" aria-hidden="true" d="M0,0h800v300h-800Z"/><g><g class="mark-area role-mark marks" role="graphics-object" aria-roledescription="area mark container"><path aria-label="Date: Mar 16, 2026; Unique Clones/day: 0; Repository: karlmdavis/dotfiles" role="graphics-symbol" aria-roledescription="area mark" d="M0,300L25.806,300L51.613,300L77.419,298.636L103.226,300L129.032,300L154.839,300L180.645,283.636L206.452,298.636L232.258,293.182L258.065,283.636L283.871,218.182L309.677,240L335.484,171.818L361.29,260.455L387.097,272.727L412.903,282.273L438.71,287.727L464.516,263.182L490.323,189.545L516.129,190.909L541.935,282.273L567.742,259.091L593.548,261.818L619.355,256.364L645.161,286.364L670.968,270L696.774,260.455L722.581,203.182L748.387,286.364L774.194,286.364L800,295.909L800,297.273L774.194,286.364L748.387,286.364L722.581,210L696.774,260.455L670.968,272.727L645.161,286.364L619.355,257.727L593.548,263.182L567.742,259.091L541.935,282.273L516.129,192.273L490.323,190.909L464.516,263.182L438.71,289.091L412.903,283.636L387.097,274.091L361.29,260.455L335.484,171.818L309.677,240L283.871,220.909L258.065,283.636L232.258,293.182L206.452,298.636L180.645,285L154.839,300L129.032,300L103.226,300L77.419,298.636L51.613,300L25.806,300L0,300Z" fill="#54a24b"/></g></g><path class="foreground" aria-hidden="true" d="" display="none"/></g><g transform="translate(0,0)"><path class="background" aria-hidden="true" d="M0,0h800v300h-800Z"/><g><g class="mark-area role-mark marks" role="graphics-object" aria-roledescription="area mark container"><path aria-label="Date: Mar 16, 2026; Unique Clones/day: 0; Repository: karlmdavis/fhir-benchmarks" role="graphics-symbol" aria-roledescription="area mark" d="M0,300L25.806,300L51.613,300L77.419,298.636L103.226,300L129.032,300L154.839,300L180.645,285L206.452,298.636L232.258,293.182L258.065,283.636L283.871,220.909L309.677,240L335.484,171.818L361.29,260.455L387.097,274.091L412.903,283.636L438.71,289.091L464.516,263.182L490.323,190.909L516.129,192.273L541.935,282.273L567.742,259.091L593.548,263.182L619.355,257.727L645.161,286.364L670.968,272.727L696.774,260.455L722.581,210L748.387,286.364L774.194,286.364L800,297.273L800,297.273L774.194,287.727L748.387,290.455L722.581,216.818L696.774,260.455L670.968,275.455L645.161,286.364L619.355,260.455L593.548,272.727L567.742,260.455L541.935,282.273L516.129,193.636L490.323,192.273L464.516,264.545L438.71,289.091L412.903,285L387.097,276.818L361.29,261.818L335.484,173.182L309.677,240L283.871,223.636L258.065,283.636L232.258,294.545L206.452,298.636L180.645,286.364L154.839,300L129.032,300L103.226,300L77.419,298.636L51.613,300L25.806,300L0,300Z" fill="#eeca3b"/></g></g><path class="foreground" aria-hidden="true" d="" display="none"/></g><g transform="translate(0,0)"><path class="background" aria-hidden="true" d="M0,0h800v300h-800Z"/><g><g class="mark-area role-mark marks" role="graphics-object" aria-roledescription="area mark container"><path aria-label="Date: Mar 16, 2026; Unique Clones/day: 0; Repository: karlmdavis/hapi-fhir-jpaserver-starter" role="graphics-symbol" aria-roledescription="area mark" d="M0,300L25.806,300L51.613,300L77.419,298.636L103.226,300L129.032,300L154.839,300L180.645,286.364L206.452,298.636L232.258,294.545L258.065,283.636L283.871,223.636L309.677,240L335.484,173.182L361.29,261.818L387.097,276.818L412.903,285L438.71,289.091L464.516,264.545L490.323,192.273L516.129,193.636L541.935,282.273L567.742,260.455L593.548,272.727L619.355,260.455L645.161,286.364L670.968,275.455L696.774,260.455L722.581,216.818L748.387,290.455L774.194,287.727L800,297.273L800,297.273L774.194,287.727L748.387,290.455L722.581,218.182L696.774,260.455L670.968,275.455L645.161,286.364L619.355,260.455L593.548,272.727L567.742,260.455L541.935,282.273L516.129,193.636L490.323,192.273L464.516,265.909L438.71,290.455L412.903,285L387.097,276.818L361.29,261.818L335.484,173.182L309.677,240L283.871,223.636L258.065,285L232.258,294.545L206.452,298.636L180.645,286.364L154.839,300L129.032,300L103.226,300L77.419,298.636L51.613,300L25.806,300L0,300Z" fill="#b279a2"/></g></g><path class="foreground" aria-hidden="true" d="" display="none"/></g><g transform="translate(0,0)"><path class="background" aria-hidden="true" d="M0,0h800v300h-800Z"/><g><g class="mark-area role-mark marks" role="graphics-object" aria-roledescription="area mark container"><path aria-label="Date: Mar 16, 2026; Unique Clones/day: 0; Repository: karlmdavis/hello-rust-actix" role="graphics-symbol" aria-roledescription="area mark" d="M0,300L25.806,300L51.613,300L77.419,298.636L103.226,300L129.032,300L154.839,300L180.645,286.364L206.452,298.636L232.258,294.545L258.065,285L283.871,223.636L309.677,240L335.484,173.182L361.29,261.818L387.097,276.818L412.903,285L438.71,290.455L464.516,265.909L490.323,192.273L516.129,193.636L541.935,282.273L567.742,260.455L593.548,272.727L619.355,260.455L645.161,286.364L670.968,275.455L696.774,260.455L722.581,218.182L748.387,290.455L774.194,287.727L800,297.273L800,297.273L774.194,287.727L748.387,290.455L722.581,220.909L696.774,261.818L670.968,275.455L645.161,286.364L619.355,261.818L593.548,272.727L567.742,260.455L541.935,282.273L516.129,193.636L490.323,193.636L464.516,265.909L438.71,290.455L412.903,285L387.097,278.182L361.29,261.818L335.484,173.182L309.677,240L283.871,225L258.065,285L232.258,294.545L206.452,298.636L180.645,286.364L154.839,300L129.032,300L103.226,300L77.419,298.636L51.613,300L25.806,300L0,300Z" fill="#ff9da6"/></g></g><path class="foreground" aria-hidden="true" d="" display="none"/></g><g transform="translate(0,0)"><path class="background" aria-hidden="true" d="M0,0h800v300h-800Z"/><g><g class="mark-area role-mark marks" role="graphics-object" aria-roledescription="area mark container"><path aria-label="Date: Mar 16, 2026; Unique Clones/day: 0; Repository: karlmdavis/jessentials" role="graphics-symbol" aria-roledescription="area mark" d="M0,300L25.806,300L51.613,300L77.419,298.636L103.226,300L129.032,300L154.839,300L180.645,286.364L206.452,298.636L232.258,294.545L258.065,285L283.871,225L309.677,240L335.484,173.182L361.29,261.818L387.097,278.182L412.903,285L438.71,290.455L464.516,265.909L490.323,193.636L516.129,193.636L541.935,282.273L567.742,260.455L593.548,272.727L619.355,261.818L645.161,286.364L670.968,275.455L696.774,261.818L722.581,220.909L748.387,290.455L774.194,287.727L800,297.273L800,297.273L774.194,287.727L748.387,290.455L722.581,223.636L696.774,261.818L670.968,276.818L645.161,286.364L619.355,264.545L593.548,283.636L567.742,260.455L541.935,282.273L516.129,193.636L490.323,195L464.516,265.909L438.71,290.455L412.903,285L387.097,278.182L361.29,263.182L335.484,173.182L309.677,240L283.871,226.364L258.065,285L232.258,294.545L206.452,298.636L180.645,287.727L154.839,300L129.032,300L103.226,300L77.419,298.636L51.613,300L25.806,300L0,300Z" fill="#9d755d"/></g></g><path class="foreground" aria-hidden="true" d="" display="none"/></g><g transform="translate(0,0)"><path class="background" aria-hidden="true" d="M0,0h800v300h-800Z"/><g><g class="mark-area role-mark marks" role="graphics-object" aria-roledescription="area mark container"><path aria-label="Date: Mar 16, 2026; Unique Clones/day: 0; Repository: karlmdavis/justdavis-ansible" role="graphics-symbol" aria-roledescription="area mark" d="M0,300L25.806,300L51.613,300L77.419,298.636L103.226,300L129.032,300L154.839,300L180.645,287.727L206.452,298.636L232.258,294.545L258.065,285L283.871,226.364L309.677,240L335.484,173.182L361.29,263.182L387.097,278.182L412.903,285L438.71,290.455L464.516,265.909L490.323,195L516.129,193.636L541.935,282.273L567.742,260.455L593.548,283.636L619.355,264.545L645.161,286.364L670.968,276.818L696.774,261.818L722.581,223.636L748.387,290.455L774.194,287.727L800,297.273L800,297.273L774.194,287.727L748.387,290.455L722.581,227.727L696.774,267.273L670.968,276.818L645.161,287.727L619.355,265.909L593.548,283.636L567.742,260.455L541.935,282.273L516.129,193.636L490.323,196.364L464.516,265.909L438.71,290.455L412.903,286.364L387.097,278.182L361.29,263.182L335.484,173.182L309.677,241.364L283.871,227.727L258.065,285L232.258,295.909L206.452,298.636L180.645,287.727L154.839,300L129.032,300L103.226,300L77.419,298.636L51.613,300L25.806,300L0,300Z" fill="#bab0ac"/></g></g><path class="foreground" aria-hidden="true" d="" display="none"/></g><g transform="translate(0,0)"><path class="background" aria-hidden="true" d="M0,0h800v300h-800Z"/><g><g class="mark-area role-mark marks" role="graphics-object" aria-roledescription="area mark container"><path aria-label="Date: Mar 16, 2026; Unique Clones/day: 0; Repository: karlmdavis/justdavis-finances" role="graphics-symbol" aria-roledescription="area mark" d="M0,300L25.806,300L51.613,300L77.419,298.636L103.226,300L129.032,300L154.839,300L180.645,287.727L206.452,298.636L232.258,295.909L258.065,285L283.871,227.727L309.677,241.364L335.484,173.182L361.29,263.182L387.097,278.182L412.903,286.364L438.71,290.455L464.516,265.909L490.323,196.364L516.129,193.636L541.935,282.273L567.742,260.455L593.548,283.636L619.355,265.909L645.161,287.727L670.968,276.818L696.774,267.273L722.581,227.727L748.387,290.455L774.194,287.727L800,297.273L800,297.273L774.194,289.091L748.387,293.182L722.581,248.182L696.774,290.455L670.968,279.545L645.161,287.727L619.355,267.273L593.548,285L567.742,283.636L541.935,293.182L516.129,295.909L490.323,274.091L464.516,293.182L438.71,291.818L412.903,287.727L387.097,279.545L361.29,283.636L335.484,289.091L309.677,291.818L283.871,270L258.065,286.364L232.258,297.273L206.452,298.636L180.645,287.727L154.839,300L129.032,300L103.226,300L77.419,298.636L51.613,300L25.806,300L0,300Z" fill="#4c78a8"/></g></g><path class="foreground" aria-hidden="true" d="" display="none"/></g><g transform="translate(0,0)"><path class="background" aria-hidden="true" d="M0,0h800v300h-800Z"/><g><g class="mark-area role-mark marks" role="graphics-object" aria-roledescription="area mark container"><path aria-label="Date: Mar 16, 2026; Unique Clones/day: 0; Repository: karlmdavis/justdavis-karl" role="graphics-symbol" aria-roledescription="area mark" d="M0,300L25.806,300L51.613,300L77.419,298.636L103.226,300L129.032,300L154.839,300L180.645,287.727L206.452,298.636L232.258,297.273L258.065,286.364L283.871,270L309.677,291.818L335.484,289.091L361.29,283.636L387.097,279.545L412.903,287.727L438.71,291.818L464.516,293.182L490.323,274.091L516.129,295.909L541.935,293.182L567.742,283.636L593.548,285L619.355,267.273L645.161,287.727L670.968,279.545L696.774,290.455L722.581,248.182L748.387,293.182L774.194,289.091L800,297.273L800,297.273L774.194,289.091L748.387,293.182L722.581,252.273L696.774,291.818L670.968,280.909L645.161,287.727L619.355,270L593.548,285L567.742,283.636L541.935,294.545L516.129,295.909L490.323,275.455L464.516,293.182L438.71,293.182L412.903,287.727L387.097,280.909L361.29,285L335.484,289.091L309.677,293.182L283.871,271.364L258.065,286.364L232.258,297.273L206.452,298.636L180.645,289.091L154.839,300L129.032,300L103.226,300L77.419,298.636L51.613,300L25.806,300L0,300Z" fill="#f58518"/></g></g><path class="foreground" aria-hidden="true" d="" display="none"/></g><g transform="translate(0,0)"><path class="background" aria-hidden="true" d="M0,0h800v300h-800Z"/><g><g class="mark-area role-mark marks" role="graphics-object" aria-roledescription="area mark container"><path aria-label="Date: Mar 16, 2026; Unique Clones/day: 0; Repository: karlmdavis/justdavis-puppet" role="graphics-symbol" aria-roledescription="area mark" d="M0,300L25.806,300L51.613,300L77.419,298.636L103.226,300L129.032,300L154.839,300L180.645,289.091L206.452,298.636L232.258,297.273L258.065,286.364L283.871,271.364L309.677,293.182L335.484,289.091L361.29,285L387.097,280.909L412.903,287.727L438.71,293.182L464.516,293.182L490.323,275.455L516.129,295.909L541.935,294.545L567.742,283.636L593.548,285L619.355,270L645.161,287.727L670.968,280.909L696.774,291.818L722.581,252.273L748.387,293.182L774.194,289.091L800,297.273L800,297.273L774.194,289.091L748.387,293.182L722.581,255L696.774,293.182L670.968,282.273L645.161,287.727L619.355,271.364L593.548,286.364L567.742,283.636L541.935,294.545L516.129,295.909L490.323,276.818L464.516,293.182L438.71,293.182L412.903,287.727L387.097,283.636L361.29,286.364L335.484,289.091L309.677,293.182L283.871,272.727L258.065,286.364L232.258,297.273L206.452,298.636L180.645,289.091L154.839,300L129.032,300L103.226,300L77.419,298.636L51.613,300L25.806,300L0,300Z" fill="#e45756"/></g></g><path class="foreground" aria-hidden="true" d="" display="none"/></g><g transform="translate(0,0)"><path class="background" aria-hidden="true" d="M0,0h800v300h-800Z"/><g><g class="mark-area role-mark marks" role="graphics-object" aria-roledescription="area mark container"><path aria-label="Date: Mar 16, 2026; Unique Clones/day: 0; Repository: karlmdavis/kobjects" role="graphics-symbol" aria-roledescription="area mark" d="M0,300L25.806,300L51.613,300L77.419,298.636L103.226,300L129.032,300L154.839,300L180.645,289.091L206.452,298.636L232.258,297.273L258.065,286.364L283.871,272.727L309.677,293.182L335.484,289.091L361.29,286.364L387.097,283.636L412.903,287.727L438.71,293.182L464.516,293.182L490.323,276.818L516.129,295.909L541.935,294.545L567.742,283.636L593.548,286.364L619.355,271.364L645.161,287.727L670.968,282.273L696.774,293.182L722.581,255L748.387,293.182L774.194,289.091L800,297.273L800,297.273L774.194,289.091L748.387,293.182L722.581,257.727L696.774,293.182L670.968,283.636L645.161,287.727L619.355,274.091L593.548,286.364L567.742,283.636L541.935,294.545L516.129,295.909L490.323,278.182L464.516,293.182L438.71,293.182L412.903,287.727L387.097,283.636L361.29,286.364L335.484,289.091L309.677,293.182L283.871,274.091L258.065,287.727L232.258,297.273L206.452,298.636L180.645,289.091L154.839,300L129.032,300L103.226,300L77.419,298.636L51.613,300L25.806,300L0,300Z" fill="#72b7b2"/></g></g><path class="foreground" aria-hidden="true" d="" display="none"/></g><g transform="translate(0,0)"><path class="background" aria-hidden="true" d="M0,0h800v300h-800Z"/><g><g class="mark-area role-mark marks" role="graphics-object" aria-roledescription="area mark container"><path aria-label="Date: Mar 16, 2026; Unique Clones/day: 0; Repository: karlmdavis/ksoap2-android" role="graphics-symbol" aria-roledescription="area mark" d="M0,300L25.806,300L51.613,300L77.419,298.636L103.226,300L129.032,300L154.839,300L180.645,289.091L206.452,298.636L232.258,297.273L258.065,287.727L283.871,274.091L309.677,293.182L335.484,289.091L361.29,286.364L387.097,283.636L412.903,287.727L438.71,293.182L464.516,293.182L490.323,278.182L516.129,295.909L541.935,294.545L567.742,283.636L593.548,286.364L619.355,274.091L645.161,287.727L670.968,283.636L696.774,293.182L722.581,257.727L748.387,293.182L774.194,289.091L800,297.273L800,297.273L774.194,291.818L748.387,293.182L722.581,260.455L696.774,293.182L670.968,285L645.161,291.818L619.355,275.455L593.548,294.545L567.742,290.455L541.935,295.909L516.129,295.909L490.323,282.273L464.516,293.182L438.71,294.545L412.903,289.091L387.097,285L361.29,291.818L335.484,291.818L309.677,293.182L283.871,275.455L258.065,291.818L232.258,297.273L206.452,298.636L180.645,290.455L154.839,300L129.032,300L103.226,300L77.419,298.636L51.613,300L25.806,300L0,300Z" fill="#54a24b"/></g></g><path class="foreground" aria-hidden="true" d="" display="none"/></g><g transform="translate(0,0)"><path class="background" aria-hidden="true" d="M0,0h800v300h-800Z"/><g><g class="mark-area role-mark marks" role="graphics-object" aria-roledescription="area mark container"><path aria-label="Date: Mar 16, 2026; Unique Clones/day: 0; Repository: karlmdavis/kxml2" role="graphics-symbol" aria-roledescription="area mark" d="M0,300L25.806,300L51.613,300L77.419,298.636L103.226,300L129.032,300L154.839,300L180.645,290.455L206.452,298.636L232.258,297.273L258.065,291.818L283.871,275.455L309.677,293.182L335.484,291.818L361.29,291.818L387.097,285L412.903,289.091L438.71,294.545L464.516,293.182L490.323,282.273L516.129,295.909L541.935,295.909L567.742,290.455L593.548,294.545L619.355,275.455L645.161,291.818L670.968,285L696.774,293.182L722.581,260.455L748.387,293.182L774.194,291.818L800,297.273L800,298.636L774.194,293.182L748.387,294.545L722.581,264.545L696.774,293.182L670.968,285L645.161,291.818L619.355,276.818L593.548,294.545L567.742,291.818L541.935,297.273L516.129,297.273L490.323,283.636L464.516,293.182L438.71,294.545L412.903,289.091L387.097,286.364L361.29,295.909L335.484,293.182L309.677,293.182L283.871,278.182L258.065,293.182L232.258,297.273L206.452,298.636L180.645,291.818L154.839,300L129.032,300L103.226,300L77.419,298.636L51.613,300L25.806,300L0,300Z" fill="#eeca3b"/></g></g><path class="foreground" aria-hidden="true" d="" display="none"/></g><g transform="translate(0,0)"><path class="background" aria-hidden="true" d="M0,0h800v300h-800Z"/><g><g class="mark-area role-mark marks" role="graphics-object" aria-roledescription="area mark container"><path aria-label="Date: Mar 16, 2026; Unique Clones/day: 0; Repository: karlmdavis/ldap-plugin" role="graphics-symbol" aria-roledescription="area mark" d="M0,300L25.806,300L51.613,300L77.419,298.636L103.226,300L129.032,300L154.839,300L180.645,291.818L206.452,298.636L232.258,297.273L258.065,293.182L283.871,278.182L309.677,293.182L335.484,293.182L361.29,295.909L387.097,286.364L412.903,289.091L438.71,294.545L464.516,293.182L490.323,283.636L516.129,297.273L541.935,297.273L567.742,291.818L593.548,294.545L619.355,276.818L645.161,291.818L670.968,285L696.774,293.182L722.581,264.545L748.387,294.545L774.194,293.182L800,298.636L800,298.636L774.194,293.182L748.387,294.545L722.581,264.545L696.774,293.182L670.968,285L645.161,291.818L619.355,276.818L593.548,294.545L567.742,291.818L541.935,297.273L516.129,297.273L490.323,283.636L464.516,294.545L438.71,295.909L412.903,289.091L387.097,286.364L361.29,295.909L335.484,293.182L309.677,293.182L283.871,278.182L258.065,293.182L232.258,297.273L206.452,298.636L180.645,291.818L154.839,300L129.032,300L103.226,300L77.419,298.636L51.613,300L25.806,300L0,300Z" fill="#b279a2"/></g></g><path class="foreground" aria-hidden="true" d="" display="none"/></g><g transform="translate(0,0)"><path class="background" aria-hidden="true" d="M0,0h800v300h-800Z"/><g><g class="mark-area role-mark marks" role="graphics-object" aria-roledescription="area mark container"><path aria-label="Date: Mar 16, 2026; Unique Clones/day: 0; Repository: karlmdavis/lego-ev3dev-rs" role="graphics-symbol" aria-roledescription="area mark" d="M0,300L25.806,300L51.613,300L77.419,298.636L103.226,300L129.032,300L154.839,300L180.645,291.818L206.452,298.636L232.258,297.273L258.065,293.182L283.871,278.182L309.677,293.182L335.484,293.182L361.29,295.909L387.097,286.364L412.903,289.091L438.71,295.909L464.516,294.545L490.323,283.636L516.129,297.273L541.935,297.273L567.742,291.818L593.548,294.545L619.355,276.818L645.161,291.818L670.968,285L696.774,293.182L722.581,264.545L748.387,294.545L774.194,293.182L800,298.636L800,298.636L774.194,294.545L748.387,294.545L722.581,268.636L696.774,293.182L670.968,287.727L645.161,291.818L619.355,279.545L593.548,294.545L567.742,293.182L541.935,297.273L516.129,298.636L490.323,285L464.516,295.909L438.71,295.909L412.903,290.455L387.097,289.091L361.29,295.909L335.484,294.545L309.677,294.545L283.871,282.273L258.065,293.182L232.258,298.636L206.452,298.636L180.645,293.182L154.839,300L129.032,300L103.226,300L77.419,298.636L51.613,300L25.806,300L0,300Z" fill="#ff9da6"/></g></g><path class="foreground" aria-hidden="true" d="" display="none"/></g><g transform="translate(0,0)"><path class="background" aria-hidden="true" d="M0,0h800v300h-800Z"/><g><g class="mark-area role-mark marks" role="graphics-object" aria-roledescription="area mark container"><path aria-label="Date: Mar 16, 2026; Unique Clones/day: 0; Repository: karlmdavis/liquibase" role="graphics-symbol" aria-roledescription="area mark" d="M0,300L25.806,300L51.613,300L77.419,298.636L103.226,300L129.032,300L154.839,300L180.645,293.182L206.452,298.636L232.258,298.636L258.065,293.182L283.871,282.273L309.677,294.545L335.484,294.545L361.29,295.909L387.097,289.091L412.903,290.455L438.71,295.909L464.516,295.909L490.323,285L516.129,298.636L541.935,297.273L567.742,293.182L593.548,294.545L619.355,279.545L645.161,291.818L670.968,287.727L696.774,293.182L722.581,268.636L748.387,294.545L774.194,294.545L800,298.636L800,298.636L774.194,294.545L748.387,294.545L722.581,268.636L696.774,293.182L670.968,287.727L645.161,293.182L619.355,280.909L593.548,294.545L567.742,293.182L541.935,297.273L516.129,298.636L490.323,285L464.516,295.909L438.71,295.909L412.903,290.455L387.097,289.091L361.29,295.909L335.484,294.545L309.677,294.545L283.871,282.273L258.065,293.182L232.258,298.636L206.452,298.636L180.645,293.182L154.839,300L129.032,300L103.226,300L77.419,300L51.613,300L25.806,300L0,300Z" fill="#9d755d"/></g></g><path class="foreground" aria-hidden="true" d="" display="none"/></g><g transform="translate(0,0)"><path class="background" aria-hidden="true" d="M0,0h800v300h-800Z"/><g><g class="mark-area role-mark marks" role="graphics-object" aria-roledescription="area mark container"><path aria-label="Date: Mar 16, 2026; Unique Clones/day: 0; Repository: karlmdavis/m2e-core" role="graphics-symbol" aria-roledescription="area mark" d="M0,300L25.806,300L51.613,300L77.419,300L103.226,300L129.032,300L154.839,300L180.645,293.182L206.452,298.636L232.258,298.636L258.065,293.182L283.871,282.273L309.677,294.545L335.484,294.545L361.29,295.909L387.097,289.091L412.903,290.455L438.71,295.909L464.516,295.909L490.323,285L516.129,298.636L541.935,297.273L567.742,293.182L593.548,294.545L619.355,280.909L645.161,293.182L670.968,287.727L696.774,293.182L722.581,268.636L748.387,294.545L774.194,294.545L800,298.636L800,298.636L774.194,294.545L748.387,294.545L722.581,271.364L696.774,293.182L670.968,289.091L645.161,294.545L619.355,283.636L593.548,295.909L567.742,294.545L541.935,297.273L516.129,298.636L490.323,286.364L464.516,295.909L438.71,295.909L412.903,290.455L387.097,289.091L361.29,295.909L335.484,295.909L309.677,294.545L283.871,283.636L258.065,293.182L232.258,298.636L206.452,298.636L180.645,293.182L154.839,300L129.032,300L103.226,300L77.419,300L51.613,300L25.806,300L0,300Z" fill="#bab0ac"/></g></g><path class="foreground" aria-hidden="true" d="" display="none"/></g><g transform="translate(0,0)"><path class="background" aria-hidden="true" d="M0,0h800v300h-800Z"/><g><g class="mark-area role-mark marks" role="graphics-object" aria-roledescription="area mark container"><path aria-label="Date: Mar 16, 2026; Unique Clones/day: 0; Repository: karlmdavis/m2e-core-tests" role="graphics-symbol" aria-roledescription="area mark" d="M0,300L25.806,300L51.613,300L77.419,300L103.226,300L129.032,300L154.839,300L180.645,293.182L206.452,298.636L232.258,298.636L258.065,293.182L283.871,283.636L309.677,294.545L335.484,295.909L361.29,295.909L387.097,289.091L412.903,290.455L438.71,295.909L464.516,295.909L490.323,286.364L516.129,298.636L541.935,297.273L567.742,294.545L593.548,295.909L619.355,283.636L645.161,294.545L670.968,289.091L696.774,293.182L722.581,271.364L748.387,294.545L774.194,294.545L800,298.636L800,298.636L774.194,294.545L748.387,294.545L722.581,271.364L696.774,294.545L670.968,289.091L645.161,297.273L619.355,285L593.548,297.273L567.742,295.909L541.935,297.273L516.129,298.636L490.323,286.364L464.516,295.909L438.71,295.909L412.903,293.182L387.097,289.091L361.29,295.909L335.484,295.909L309.677,295.909L283.871,283.636L258.065,294.545L232.258,298.636L206.452,298.636L180.645,293.182L154.839,300L129.032,300L103.226,300L77.419,300L51.613,300L25.806,300L0,300Z" fill="#4c78a8"/></g></g><path class="foreground" aria-hidden="true" d="" display="none"/></g><g transform="translate(0,0)"><path class="background" aria-hidden="true" d="M0,0h800v300h-800Z"/><g><g class="mark-area role-mark marks" role="graphics-object" aria-roledescription="area mark container"><path aria-label="Date: Mar 16, 2026; Unique Clones/day: 0; Repository: karlmdavis/obsidian-operator" role="graphics-symbol" aria-roledescription="area mark" d="M0,300L25.806,300L51.613,300L77.419,300L103.226,300L129.032,300L154.839,300L180.645,293.182L206.452,298.636L232.258,298.636L258.065,294.545L283.871,283.636L309.677,295.909L335.484,295.909L361.29,295.909L387.097,289.091L412.903,293.182L438.71,295.909L464.516,295.909L490.323,286.364L516.129,298.636L541.935,297.273L567.742,295.909L593.548,297.273L619.355,285L645.161,297.273L670.968,289.091L696.774,294.545L722.581,271.364L748.387,294.545L774.194,294.545L800,298.636L800,298.636L774.194,297.273L748.387,295.909L722.581,274.091L696.774,295.909L670.968,291.818L645.161,297.273L619.355,286.364L593.548,297.273L567.742,295.909L541.935,297.273L516.129,298.636L490.323,287.727L464.516,298.636L438.71,295.909L412.903,293.182L387.097,293.182L361.29,295.909L335.484,295.909L309.677,295.909L283.871,285L258.065,294.545L232.258,298.636L206.452,298.636L180.645,294.545L154.839,300L129.032,300L103.226,300L77.419,300L51.613,300L25.806,300L0,300Z" fill="#f58518"/></g></g><path class="foreground" aria-hidden="true" d="" display="none"/></g><g transform="translate(0,0)"><path class="background" aria-hidden="true" d="M0,0h800v300h-800Z"/><g><g class="mark-area role-mark marks" role="graphics-object" aria-roledescription="area mark container"><path aria-label="Date: Mar 16, 2026; Unique Clones/day: 0; Repository: karlmdavis/perfect-note" role="graphics-symbol" aria-roledescription="area mark" d="M0,300L25.806,300L51.613,300L77.419,300L103.226,300L129.032,300L154.839,300L180.645,294.545L206.452,298.636L232.258,298.636L258.065,294.545L283.871,285L309.677,295.909L335.484,295.909L361.29,295.909L387.097,293.182L412.903,293.182L438.71,295.909L464.516,298.636L490.323,287.727L516.129,298.636L541.935,297.273L567.742,295.909L593.548,297.273L619.355,286.364L645.161,297.273L670.968,291.818L696.774,295.909L722.581,274.091L748.387,295.909L774.194,297.273L800,298.636L800,298.636L774.194,297.273L748.387,297.273L722.581,276.818L696.774,295.909L670.968,291.818L645.161,297.273L619.355,287.727L593.548,297.273L567.742,295.909L541.935,297.273L516.129,298.636L490.323,289.091L464.516,298.636L438.71,295.909L412.903,293.182L387.097,293.182L361.29,295.909L335.484,295.909L309.677,297.273L283.871,286.364L258.065,295.909L232.258,298.636L206.452,298.636L180.645,294.545L154.839,300L129.032,300L103.226,300L77.419,300L51.613,300L25.806,300L0,300Z" fill="#e45756"/></g></g><path class="foreground" aria-hidden="true" d="" display="none"/></g><g transform="translate(0,0)"><path class="background" aria-hidden="true" d="M0,0h800v300h-800Z"/><g><g class="mark-area role-mark marks" role="graphics-object" aria-roledescription="area mark container"><path aria-label="Date: Mar 16, 2026; Unique Clones/day: 0; Repository: karlmdavis/puppet-archive" role="graphics-symbol" aria-roledescription="area mark" d="M0,300L25.806,300L51.613,300L77.419,300L103.226,300L129.032,300L154.839,300L180.645,294.545L206.452,298.636L232.258,298.636L258.065,295.909L283.871,286.364L309.677,297.273L335.484,295.909L361.29,295.909L387.097,293.182L412.903,293.182L438.71,295.909L464.516,298.636L490.323,289.091L516.129,298.636L541.935,297.273L567.742,295.909L593.548,297.273L619.355,287.727L645.161,297.273L670.968,291.818L696.774,295.909L722.581,276.818L748.387,297.273L774.194,297.273L800,298.636L800,298.636L774.194,297.273L748.387,297.273L722.581,276.818L696.774,295.909L670.968,293.182L645.161,297.273L619.355,289.091L593.548,297.273L567.742,295.909L541.935,297.273L516.129,298.636L490.323,289.091L464.516,298.636L438.71,295.909L412.903,293.182L387.097,293.182L361.29,295.909L335.484,295.909L309.677,297.273L283.871,286.364L258.065,295.909L232.258,298.636L206.452,298.636L180.645,295.909L154.839,300L129.032,300L103.226,300L77.419,300L51.613,300L25.806,300L0,300Z" fill="#72b7b2"/></g></g><path class="foreground" aria-hidden="true" d="" display="none"/></g><g transform="translate(0,0)"><path class="background" aria-hidden="true" d="M0,0h800v300h-800Z"/><g><g class="mark-area role-mark marks" role="graphics-object" aria-roledescription="area mark container"><path aria-label="Date: Mar 16, 2026; Unique Clones/day: 0; Repository: karlmdavis/puppet-sonar" role="graphics-symbol" aria-roledescription="area mark" d="M0,300L25.806,300L51.613,300L77.419,300L103.226,300L129.032,300L154.839,300L180.645,295.909L206.452,298.636L232.258,298.636L258.065,295.909L283.871,286.364L309.677,297.273L335.484,295.909L361.29,295.909L387.097,293.182L412.903,293.182L438.71,295.909L464.516,298.636L490.323,289.091L516.129,298.636L541.935,297.273L567.742,295.909L593.548,297.273L619.355,289.091L645.161,297.273L670.968,293.182L696.774,295.909L722.581,276.818L748.387,297.273L774.194,297.273L800,298.636L800,298.636L774.194,297.273L748.387,298.636L722.581,276.818L696.774,295.909L670.968,294.545L645.161,297.273L619.355,289.091L593.548,298.636L567.742,297.273L541.935,297.273L516.129,298.636L490.323,289.091L464.516,298.636L438.71,297.273L412.903,293.182L387.097,295.909L361.29,295.909L335.484,295.909L309.677,298.636L283.871,286.364L258.065,295.909L232.258,298.636L206.452,298.636L180.645,295.909L154.839,300L129.032,300L103.226,300L77.419,300L51.613,300L25.806,300L0,300Z" fill="#54a24b"/></g></g><path class="foreground" aria-hidden="true" d="" display="none"/></g><g transform="translate(0,0)"><path class="background" aria-hidden="true" d="M0,0h800v300h-800Z"/><g><g class="mark-area role-mark marks" role="graphics-object" aria-roledescription="area mark container"><path aria-label="Date: Mar 16, 2026; Unique Clones/day: 0; Repository: karlmdavis/rps-tourney" role="graphics-symbol" aria-roledescription="area mark" d="M0,300L25.806,300L51.613,300L77.419,300L103.226,300L129.032,300L154.839,300L180.645,295.909L206.452,298.636L232.258,298.636L258.065,295.909L283.871,286.364L309.677,298.636L335.484,295.909L361.29,295.909L387.097,295.909L412.903,293.182L438.71,297.273L464.516,298.636L490.323,289.091L516.129,298.636L541.935,297.273L567.742,297.273L593.548,298.636L619.355,289.091L645.161,297.273L670.968,294.545L696.774,295.909L722.581,276.818L748.387,298.636L774.194,297.273L800,298.636L800,298.636L774.194,297.273L748.387,298.636L722.581,279.545L696.774,295.909L670.968,295.909L645.161,297.273L619.355,290.455L593.548,298.636L567.742,297.273L541.935,297.273L516.129,298.636L490.323,290.455L464.516,298.636L438.71,298.636L412.903,293.182L387.097,295.909L361.29,295.909L335.484,295.909L309.677,298.636L283.871,287.727L258.065,295.909L232.258,298.636L206.452,298.636L180.645,297.273L154.839,300L129.032,300L103.226,300L77.419,300L51.613,300L25.806,300L0,300Z" fill="#eeca3b"/></g></g><path class="foreground" aria-hidden="true" d="" display="none"/></g><g transform="translate(0,0)"><path class="background" aria-hidden="true" d="M0,0h800v300h-800Z"/><g><g class="mark-area role-mark marks" role="graphics-object" aria-roledescription="area mark container"><path aria-label="Date: Mar 16, 2026; Unique Clones/day: 0; Repository: karlmdavis/sample-maven-and-rcp" role="graphics-symbol" aria-roledescription="area mark" d="M0,300L25.806,300L51.613,300L77.419,300L103.226,300L129.032,300L154.839,300L180.645,297.273L206.452,298.636L232.258,298.636L258.065,295.909L283.871,287.727L309.677,298.636L335.484,295.909L361.29,295.909L387.097,295.909L412.903,293.182L438.71,298.636L464.516,298.636L490.323,290.455L516.129,298.636L541.935,297.273L567.742,297.273L593.548,298.636L619.355,290.455L645.161,297.273L670.968,295.909L696.774,295.909L722.581,279.545L748.387,298.636L774.194,297.273L800,298.636L800,298.636L774.194,297.273L748.387,298.636L722.581,282.273L696.774,295.909L670.968,295.909L645.161,297.273L619.355,291.818L593.548,298.636L567.742,297.273L541.935,297.273L516.129,298.636L490.323,291.818L464.516,298.636L438.71,298.636L412.903,294.545L387.097,295.909L361.29,295.909L335.484,295.909L309.677,298.636L283.871,289.091L258.065,295.909L232.258,298.636L206.452,298.636L180.645,297.273L154.839,300L129.032,300L103.226,300L77.419,300L51.613,300L25.806,300L0,300Z" fill="#b279a2"/></g></g><path class="foreground" aria-hidden="true" d="" display="none"/></g><g transform="translate(0,0)"><path class="background" aria-hidden="true" d="M0,0h800v300h-800Z"/><g><g class="mark-area role-mark marks" role="graphics-object" aria-roledescription="area mark container"><path aria-label="Date: Mar 16, 2026; Unique Clones/day: 0; Repository: karlmdavis/stockfighter-trades-solutions" role="graphics-symbol" aria-roledescription="area mark" d="M0,300L25.806,300L51.613,300L77.419,300L103.226,300L129.032,300L154.839,300L180.645,297.273L206.452,298.636L232.258,298.636L258.065,295.909L283.871,289.091L309.677,298.636L335.484,295.909L361.29,295.909L387.097,295.909L412.903,294.545L438.71,298.636L464.516,298.636L490.323,291.818L516.129,298.636L541.935,297.273L567.742,297.273L593.548,298.636L619.355,291.818L645.161,297.273L670.968,295.909L696.774,295.909L722.581,282.273L748.387,298.636L774.194,297.273L800,298.636L800,298.636L774.194,297.273L748.387,298.636L722.581,286.364L696.774,295.909L670.968,295.909L645.161,297.273L619.355,293.182L593.548,298.636L567.742,297.273L541.935,297.273L516.129,298.636L490.323,293.182L464.516,298.636L438.71,298.636L412.903,294.545L387.097,295.909L361.29,295.909L335.484,297.273L309.677,298.636L283.871,291.818L258.065,295.909L232.258,298.636L206.452,298.636L180.645,297.273L154.839,300L129.032,300L103.226,300L77.419,300L51.613,300L25.806,300L0,300Z" fill="#ff9da6"/></g></g><path class="foreground" aria-hidden="true" d="" display="none"/></g><g transform="translate(0,0)"><path class="background" aria-hidden="true" d="M0,0h800v300h-800Z"/><g><g class="mark-area role-mark marks" role="graphics-object" aria-roledescription="area mark container"><path aria-label="Date: Mar 16, 2026; Unique Clones/day: 0; Repository: karlmdavis/test-repo-for-move" role="graphics-symbol" aria-roledescription="area mark" d="M0,300L25.806,300L51.613,300L77.419,300L103.226,300L129.032,300L154.839,300L180.645,297.273L206.452,298.636L232.258,298.636L258.065,295.909L283.871,291.818L309.677,298.636L335.484,297.273L361.29,295.909L387.097,295.909L412.903,294.545L438.71,298.636L464.516,298.636L490.323,293.182L516.129,298.636L541.935,297.273L567.742,297.273L593.548,298.636L619.355,293.182L645.161,297.273L670.968,295.909L696.774,295.909L722.581,286.364L748.387,298.636L774.194,297.273L800,298.636L800,300L774.194,297.273L748.387,298.636L722.581,289.091L696.774,295.909L670.968,295.909L645.161,297.273L619.355,294.545L593.548,298.636L567.742,297.273L541.935,297.273L516.129,298.636L490.323,294.545L464.516,298.636L438.71,298.636L412.903,294.545L387.097,295.909L361.29,295.909L335.484,298.636L309.677,298.636L283.871,293.182L258.065,297.273L232.258,298.636L206.452,298.636L180.645,297.273L154.839,300L129.032,300L103.226,300L77.419,300L51.613,300L25.806,300L0,300Z" fill="#9d755d"/></g></g><path class="foreground" aria-hidden="true" d="" display="none"/></g><g transform="translate(0,0)"><path class="background" aria-hidden="true" d="M0,0h800v300h-800Z"/><g><g class="mark-area role-mark marks" role="graphics-object" aria-roledescription="area mark container"><path aria-label="Date: Mar 16, 2026; Unique Clones/day: 0; Repository: karlmdavis/todoist-ai" role="graphics-symbol" aria-roledescription="area mark" d="M0,300L25.806,300L51.613,300L77.419,300L103.226,300L129.032,300L154.839,300L180.645,297.273L206.452,298.636L232.258,298.636L258.065,297.273L283.871,293.182L309.677,298.636L335.484,298.636L361.29,295.909L387.097,295.909L412.903,294.545L438.71,298.636L464.516,298.636L490.323,294.545L516.129,298.636L541.935,297.273L567.742,297.273L593.548,298.636L619.355,294.545L645.161,297.273L670.968,295.909L696.774,295.909L722.581,289.091L748.387,298.636L774.194,297.273L800,300L800,300L774.194,298.636L748.387,298.636L722.581,289.091L696.774,295.909L670.968,297.273L645.161,297.273L619.355,294.545L593.548,298.636L567.742,297.273L541.935,297.273L516.129,298.636L490.323,294.545L464.516,298.636L438.71,298.636L412.903,297.273L387.097,295.909L361.29,295.909L335.484,298.636L309.677,298.636L283.871,293.182L258.065,297.273L232.258,298.636L206.452,298.636L180.645,297.273L154.839,300L129.032,300L103.226,300L77.419,300L51.613,300L25.806,300L0,300Z" fill="#bab0ac"/></g></g><path class="foreground" aria-hidden="true" d="" display="none"/></g><g transform="translate(0,0)"><path class="background" aria-hidden="true" d="M0,0h800v300h-800Z"/><g><g class="mark-area role-mark marks" role="graphics-object" aria-roledescription="area mark container"><path aria-label="Date: Mar 16, 2026; Unique Clones/day: 0; Repository: karlmdavis/usgs-water-api-java" role="graphics-symbol" aria-roledescription="area mark" d="M0,300L25.806,300L51.613,300L77.419,300L103.226,300L129.032,300L154.839,300L180.645,297.273L206.452,298.636L232.258,298.636L258.065,297.273L283.871,293.182L309.677,298.636L335.484,298.636L361.29,295.909L387.097,295.909L412.903,297.273L438.71,298.636L464.516,298.636L490.323,294.545L516.129,298.636L541.935,297.273L567.742,297.273L593.548,298.636L619.355,294.545L645.161,297.273L670.968,297.273L696.774,295.909L722.581,289.091L748.387,298.636L774.194,298.636L800,300L800,300L774.194,300L748.387,300L722.581,293.182L696.774,300L670.968,298.636L645.161,298.636L619.355,297.273L593.548,300L567.742,298.636L541.935,300L516.129,300L490.323,297.273L464.516,300L438.71,300L412.903,298.636L387.097,297.273L361.29,298.636L335.484,300L309.677,300L283.871,295.909L258.065,300L232.258,300L206.452,300L180.645,300L154.839,300L129.032,300L103.226,300L77.419,300L51.613,300L25.806,300L0,300Z" fill="#4c78a8"/></g></g><path class="foreground" aria-hidden="true" d="" display="none"/></g><g transform="translate(0,0)"><path class="background" aria-hidden="true" d="M0,0h800v300h-800Z"/><g><g class="mark-area role-mark marks" role="graphics-object" aria-roledescription="area mark container"><path aria-label="Date: Mar 16, 2026; Unique Clones/day: 0; Repository: karlmdavis/workstation-base-ansible-role" role="graphics-symbol" aria-roledescription="area mark" d="M0,300L25.806,300L51.613,300L77.419,300L103.226,300L129.032,300L154.839,300L180.645,300L206.452,300L232.258,300L258.065,300L283.871,295.909L309.677,300L335.484,300L361.29,298.636L387.097,297.273L412.903,298.636L438.71,300L464.516,300L490.323,297.273L516.129,300L541.935,300L567.742,298.636L593.548,300L619.355,297.273L645.161,298.636L670.968,298.636L696.774,300L722.581,293.182L748.387,300L774.194,300L800,300L800,300L774.194,300L748.387,300L722.581,297.273L696.774,300L670.968,300L645.161,298.636L619.355,298.636L593.548,300L567.742,298.636L541.935,300L516.129,300L490.323,298.636L464.516,300L438.71,300L412.903,300L387.097,298.636L361.29,300L335.484,300L309.677,300L283.871,298.636L258.065,300L232.258,300L206.452,300L180.645,300L154.839,300L129.032,300L103.226,300L77.419,300L51.613,300L25.806,300L0,300Z" fill="#f58518"/></g></g><path class="foreground" aria-hidden="true" d="" display="none"/></g><g transform="translate(0,0)"><path class="background" aria-hidden="true" d="M0,0h800v300h-800Z"/><g><g class="mark-area role-mark marks" role="graphics-object" aria-roledescription="area mark container"><path aria-label="Date: Mar 16, 2026; Unique Clones/day: 0; Repository: karlmdavis/xmlpull" role="graphics-symbol" aria-roledescription="area mark" d="M0,300L25.806,300L51.613,300L77.419,300L103.226,300L129.032,300L154.839,300L180.645,300L206.452,300L232.258,300L258.065,300L283.871,298.636L309.677,300L335.484,300L361.29,300L387.097,298.636L412.903,300L438.71,300L464.516,300L490.323,298.636L516.129,300L541.935,300L567.742,298.636L593.548,300L619.355,298.636L645.161,298.636L670.968,300L696.774,300L722.581,297.273L748.387,300L774.194,300L800,300L800,300L774.194,300L748.387,300L722.581,300L696.774,300L670.968,300L645.161,300L619.355,300L593.548,300L567.742,300L541.935,300L516.129,300L490.323,300L464.516,300L438.71,300L412.903,300L387.097,300L361.29,300L335.484,300L309.677,300L283.871,300L258.065,300L232.258,300L206.452,300L180.645,300L154.839,300L129.032,300L103.226,300L77.419,300L51.613,300L25.806,300L0,300Z" fill="#e45756"/></g></g><path class="foreground" aria-hidden="true" d="" display="none"/></g></g><g class="mark-group role-legend" role="graphics-symbol" aria-roledescription="legend" aria-label="Symbol legend titled 'Repository' for fill color with 43 values: justdavis-family/github-analytics-data, justdavis-family/justdavis, karlmdavis/FHIR-Server, karlmdavis/ansible, karlmdavis/ansible-jenkins, ending with karlmdavis/xmlpull"><g transform="translate(818,0)"><path class="background" aria-hidden="true" d="M0,0h176v404h-176Z" pointer-events="none"/><g><g class="mark-group role-legend-entry"><g transform="translate(0,16)"><path class="background" aria-hidden="true" d="M0,0h0v0h0Z" pointer-events="none"/><g><g class="mark-group role-scope" role="graphics-object" aria-roledescription="group mark container"><g transform="translate(0,0)"><path class="background" aria-hidden="true" d="M0,0h176v11h-176Z" pointer-events="none" opacity="1"/><g><g class="mark-symbol role-legend-symbol" pointer-events="none"><path transform="translate(6,6)" d="M5,0A5,5,0,1,1,-5,0A5,5,0,1,1,5,0" fill="#4c78a8" stroke-width="1.5" opacity="1"/></g><g class="mark-text role-legend-label" pointer-events="none"><text text-anchor="start" transform="translate(16,9)" font-family="sans-serif" font-size="10px" fill="#000" opacity="1">justdavis-family/github-analytics-d…</text></g></g><path class="foreground" aria-hidden="true" d="" pointer-events="none" display="none"/></g><g transform="translate(0,13)"><path class="background" aria-hidden="true" d="M0,0h176v11h-176Z" pointer-events="none" opacity="1"/><g><g class="mark-symbol role-legend-symbol" pointer-events="none"><path transform="translate(6,6)" d="M5,0A5,5,0,1,1,-5,0A5,5,0,1,1,5,0" fill="#f58518" stroke-width="1.5" opacity="1"/></g><g class="mark-text role-legend-label" pointer-events="none"><text text-anchor="start" transform="translate(16,9)" font-family="sans-serif" font-size="10px" fill="#000" opacity="1">justdavis-family/justdavis</text></g></g><path class="foreground" aria-hidden="true" d="" pointer-events="none" display="none"/></g><g transform="translate(0,26)"><path class="background" aria-hidden="true" d="M0,0h176v11h-176Z" pointer-events="none" opacity="1"/><g><g class="mark-symbol role-legend-symbol" pointer-events="none"><path transform="translate(6,6)" d="M5,0A5,5,0,1,1,-5,0A5,5,0,1,1,5,0" fill="#e45756" stroke-width="1.5" opacity="1"/></g><g class="mark-text role-legend-label" pointer-events="none"><text text-anchor="start" transform="translate(16,9)" font-family="sans-serif" font-size="10px" fill="#000" opacity="1">karlmdavis/FHIR-Server</text></g></g><path class="foreground" aria-hidden="true" d="" pointer-events="none" display="none"/></g><g transform="translate(0,39)"><path class="background" aria-hidden="true" d="M0,0h176v11h-176Z" pointer-events="none" opacity="1"/><g><g class="mark-symbol role-legend-symbol" pointer-events="none"><path transform="translate(6,6)" d="M5,0A5,5,0,1,1,-5,0A5,5,0,1,1,5,0" fill="#72b7b2" stroke-width="1.5" opacity="1"/></g><g class="mark-text role-legend-label" pointer-events="none"><text text-anchor="start" transform="translate(16,9)" font-family="sans-serif" font-size="10px" fill="#000" opacity="1">karlmdavis/ansible</text></g></g><path class="foreground" aria-hidden="true" d="" pointer-events="none" display="none"/></g><g transform="translate(0,52)"><path class="background" aria-hidden="true" d="M0,0h176v11h-176Z" pointer-events="none" opacity="1"/><g><g class="mark-symbol role-legend-symbol" pointer-events="none"><path transform="translate(6,6)" d="M5,0A5,5,0,1,1,-5,0A5,5,0,1,1,5,0" fill="#54a24b" stroke-width="1.5" opacity="1"/></g><g class="mark-text role-legend-label" pointer-events="none"><text text-anchor="start" transform="translate(16,9)" font-family="sans-serif" font-size="10px" fill="#000" opacity="1">karlmdavis/ansible-jenkins</text></g></g><path class="foreground" aria-hidden="true" d="" pointer-events="none" display="none"/></g><g transform="translate(0,65)"><path class="background" aria-hidden="true" d="M0,0h176v11h-176Z" pointer-events="none" opacity="1"/><g><g class="mark-symbol role-legend-symbol" pointer-events="none"><path transform="translate(6,6)" d="M5,0A5,5,0,1,1,-5,0A5,5,0,1,1,5,0" fill="#eeca3b" stroke-width="1.5" opacity="1"/></g><g class="mark-text role-legend-label" pointer-events="none"><text text-anchor="start" transform="translate(16,9)" font-family="sans-serif" font-size="10px" fill="#000" opacity="1">karlmdavis/ansible-role-acmetool</text></g></g><path class="foreground" aria-hidden="true" d="" pointer-events="none" display="none"/></g><g transform="translate(0,78)"><path class="background" aria-hidden="true" d="M0,0h176v11h-176Z" pointer-events="none" opacity="1"/><g><g class="mark-symbol role-legend-symbol" pointer-events="none"><path transform="translate(6,6)" d="M5,0A5,5,0,1,1,-5,0A5,5,0,1,1,5,0" fill="#b279a2" stroke-width="1.5" opacity="1"/></g><g class="mark-text role-legend-label" pointer-events="none"><text text-anchor="start" transform="translate(16,9)" font-family="sans-serif" font-size="10px" fill="#000" opacity="1">karlmdavis/ansible-role-bind-dns</text></g></g><path class="foreground" aria-hidden="true" d="" pointer-events="none" display="none"/></g><g transform="translate(0,91)"><path class="background" aria-hidden="true" d="M0,0h176v11h-176Z" pointer-events="none" opacity="1"/><g><g class="mark-symbol role-legend-symbol" pointer-events="none"><path transform="translate(6,6)" d="M5,0A5,5,0,1,1,-5,0A5,5,0,1,1,5,0" fill="#ff9da6" stroke-width="1.5" opacity="1"/></g><g class="mark-text role-legend-label" pointer-events="none"><text text-anchor="start" transform="translate(16,9)" font-family="sans-serif" font-size="10px" fill="#000" opacity="1">karlmdavis/ansible-role-jenkins2</text></g></g><path class="foreground" aria-hidden="true" d="" pointer-events="none" display="none"/></g><g transform="translate(0,104)"><path class="background" aria-hidden="true" d="M0,0h176v11h-176Z" pointer-events="none" opacity="1"/><g><g class="mark-symbol role-legend-symbol" pointer-events="none"><path transform="translate(6,6)" d="M5,0A5,5,0,1,1,-5,0A5,5,0,1,1,5,0" fill="#9d755d" stroke-width="1.5" opacity="1"/></g><g class="mark-text role-legend-label" pointer-events="none"><text text-anchor="start" transform="translate(16,9)" font-family="sans-serif" font-size="10px" fill="#000" opacity="1">karlmdavis/ansible-role-ldap</text></g></g><path class="foreground" aria-hidden="true" d="" pointer-events="none" display="none"/></g><g transform="translate(0,117)"><path class="background" aria-hidden="true" d="M0,0h176v11h-176Z" pointer-events="none" opacity="1"/><g><g class="mark-symbol role-legend-symbol" pointer-events="none"><path transform="translate(6,6)" d="M5,0A5,5,0,1,1,-5,0A5,5,0,1,1,5,0" fill="#bab0ac" stroke-width="1.5" opacity="1"/></g><g class="mark-text role-legend-label" pointer-events="none"><text text-anchor="start" transform="translate(16,9)" font-family="sans-serif" font-size="10px" fill="#000" opacity="1">karlmdavis/ansible-role-rcm-dotfiles</text></g></g><path class="foreground" aria-hidden="true" d="" pointer-events="none" display="none"/></g><g transform="translate(0,130)"><path class="background" aria-hidden="true" d="M0,0h176v11h-176Z" pointer-events="none" opacity="1"/><g><g class="mark-symbol role-legend-symbol" pointer-events="none"><path transform="translate(6,6)" d="M5,0A5,5,0,1,1,-5,0A5,5,0,1,1,5,0" fill="#4c78a8" stroke-width="1.5" opacity="1"/></g><g class="mark-text role-legend-label" pointer-events="none"><text text-anchor="start" transform="translate(16,9)" font-family="sans-serif" font-size="10px" fill="#000" opacity="1">karlmdavis/ansible-roles</text></g></g><path class="foreground" aria-hidden="true" d="" pointer-events="none" display="none"/></g><g transform="translate(0,143)"><path class="background" aria-hidden="true" d="M0,0h176v11h-176Z" pointer-events="none" opacity="1"/><g><g class="mark-symbol role-legend-symbol" pointer-events="none"><path transform="translate(6,6)" d="M5,0A5,5,0,1,1,-5,0A5,5,0,1,1,5,0" fill="#f58518" stroke-width="1.5" opacity="1"/></g><g class="mark-text role-legend-label" pointer-events="none"><text text-anchor="start" transform="translate(16,9)" font-family="sans-serif" font-size="10px" fill="#000" opacity="1">karlmdavis/bbonfhir-dev-infra-doc…</text></g></g><path class="foreground" aria-hidden="true" d="" pointer-events="none" display="none"/></g><g transform="translate(0,156)"><path class="background" aria-hidden="true" d="M0,0h176v11h-176Z" pointer-events="none" opacity="1"/><g><g class="mark-symbol role-legend-symbol" pointer-events="none"><path transform="translate(6,6)" d="M5,0A5,5,0,1,1,-5,0A5,5,0,1,1,5,0" fill="#e45756" stroke-width="1.5" opacity="1"/></g><g class="mark-text role-legend-label" pointer-events="none"><text text-anchor="start" transform="translate(16,9)" font-family="sans-serif" font-size="10px" fill="#000" opacity="1">karlmdavis/can-i-kayak-baltimore</text></g></g><path class="foreground" aria-hidden="true" d="" pointer-events="none" display="none"/></g><g transform="translate(0,169)"><path class="background" aria-hidden="true" d="M0,0h176v11h-176Z" pointer-events="none" opacity="1"/><g><g class="mark-symbol role-legend-symbol" pointer-events="none"><path transform="translate(6,6)" d="M5,0A5,5,0,1,1,-5,0A5,5,0,1,1,5,0" fill="#72b7b2" stroke-width="1.5" opacity="1"/></g><g class="mark-text role-legend-label" pointer-events="none"><text text-anchor="start" transform="translate(16,9)" font-family="sans-serif" font-size="10px" fill="#000" opacity="1">karlmdavis/datanucleus-test-jdo-1…</text></g></g><path class="foreground" aria-hidden="true" d="" pointer-events="none" display="none"/></g><g transform="translate(0,182)"><path class="background" aria-hidden="true" d="M0,0h176v11h-176Z" pointer-events="none" opacity="1"/><g><g class="mark-symbol role-legend-symbol" pointer-events="none"><path transform="translate(6,6)" d="M5,0A5,5,0,1,1,-5,0A5,5,0,1,1,5,0" fill="#54a24b" stroke-width="1.5" opacity="1"/></g><g class="mark-text role-legend-label" pointer-events="none"><text text-anchor="start" transform="translate(16,9)" font-family="sans-serif" font-size="10px" fill="#000" opacity="1">karlmdavis/dotfiles</text></g></g><path class="foreground" aria-hidden="true" d="" pointer-events="none" display="none"/></g><g transform="translate(0,195)"><path class="background" aria-hidden="true" d="M0,0h176v11h-176Z" pointer-events="none" opacity="1"/><g><g class="mark-symbol role-legend-symbol" pointer-events="none"><path transform="translate(6,6)" d="M5,0A5,5,0,1,1,-5,0A5,5,0,1,1,5,0" fill="#eeca3b" stroke-width="1.5" opacity="1"/></g><g class="mark-text role-legend-label" pointer-events="none"><text text-anchor="start" transform="translate(16,9)" font-family="sans-serif" font-size="10px" fill="#000" opacity="1">karlmdavis/fhir-benchmarks</text></g></g><path class="foreground" aria-hidden="true" d="" pointer-events="none" display="none"/></g><g transform="translate(0,208)"><path class="background" aria-hidden="true" d="M0,0h176v11h-176Z" pointer-events="none" opacity="1"/><g><g class="mark-symbol role-legend-symbol" pointer-events="none"><path transform="translate(6,6)" d="M5,0A5,5,0,1,1,-5,0A5,5,0,1,1,5,0" fill="#b279a2" stroke-width="1.5" opacity="1"/></g><g class="mark-text role-legend-label" pointer-events="none"><text text-anchor="start" transform="translate(16,9)" font-family="sans-serif" font-size="10px" fill="#000" opacity="1">karlmdavis/hapi-fhir-jpaserver-sta…</text></g></g><path class="foreground" aria-hidden="true" d="" pointer-events="none" display="none"/></g><g transform="translate(0,221)"><path class="background" aria-hidden="true" d="M0,0h176v11h-176Z" pointer-events="none" opacity="1"/><g><g class="mark-symbol role-legend-symbol" pointer-events="none"><path transform="translate(6,6)" d="M5,0A5,5,0,1,1,-5,0A5,5,0,1,1,5,0" fill="#ff9da6" stroke-width="1.5" opacity="1"/></g><g class="mark-text role-legend-label" pointer-events="none"><text text-anchor="start" transform="translate(16,9)" font-family="sans-serif" font-size="10px" fill="#000" opacity="1">karlmdavis/hello-rust-actix</text></g></g><path class="foreground" aria-hidden="true" d="" pointer-events="none" display="none"/></g><g transform="translate(0,234)"><path class="background" aria-hidden="true" d="M0,0h176v11h-176Z" pointer-events="none" opacity="1"/><g><g class="mark-symbol role-legend-symbol" pointer-events="none"><path transform="translate(6,6)" d="M5,0A5,5,0,1,1,-5,0A5,5,0,1,1,5,0" fill="#9d755d" stroke-width="1.5" opacity="1"/></g><g class="mark-text role-legend-label" pointer-events="none"><text text-anchor="start" transform="translate(16,9)" font-family="sans-serif" font-size="10px" fill="#000" opacity="1">karlmdavis/jessentials</text></g></g><path class="foreground" aria-hidden="true" d="" pointer-events="none" display="none"/></g><g transform="translate(0,247)"><path class="background" aria-hidden="true" d="M0,0h176v11h-176Z" pointer-events="none" opacity="1"/><g><g class="mark-symbol role-legend-symbol" pointer-events="none"><path transform="translate(6,6)" d="M5,0A5,5,0,1,1,-5,0A5,5,0,1,1,5,0" fill="#bab0ac" stroke-width="1.5" opacity="1"/></g><g class="mark-text role-legend-label" pointer-events="none"><text text-anchor="start" transform="translate(16,9)" font-family="sans-serif" font-size="10px" fill="#000" opacity="1">karlmdavis/justdavis-ansible</text></g></g><path class="foreground" aria-hidden="true" d="" pointer-events="none" display="none"/></g><g transform="translate(0,260)"><path class="background" aria-hidden="true" d="M0,0h176v11h-176Z" pointer-events="none" opacity="1"/><g><g class="mark-symbol role-legend-symbol" pointer-events="none"><path transform="translate(6,6)" d="M5,0A5,5,0,1,1,-5,0A5,5,0,1,1,5,0" fill="#4c78a8" stroke-width="1.5" opacity="1"/></g><g class="mark-text role-legend-label" pointer-events="none"><text text-anchor="start" transform="translate(16,9)" font-family="sans-serif" font-size="10px" fill="#000" opacity="1">karlmdavis/justdavis-finances</text></g></g><path class="foreground" aria-hidden="true" d="" pointer-events="none" display="none"/></g><g transform="translate(0,273)"><path class="background" aria-hidden="true" d="M0,0h176v11h-176Z" pointer-events="none" opacity="1"/><g><g class="mark-symbol role-legend-symbol" pointer-events="none"><path transform="translate(6,6)" d="M5,0A5,5,0,1,1,-5,0A5,5,0,1,1,5,0" fill="#f58518" stroke-width="1.5" opacity="1"/></g><g class="mark-text role-legend-label" pointer-events="none"><text text-anchor="start" transform="translate(16,9)" font-family="sans-serif" font-size="10px" fill="#000" opacity="1">karlmdavis/justdavis-karl</text></g></g><path class="foreground" aria-hidden="true" d="" pointer-events="none" display="none"/></g><g transform="translate(0,286)"><path class="background" aria-hidden="true" d="M0,0h176v11h-176Z" pointer-events="none" opacity="1"/><g><g class="mark-symbol role-legend-symbol" pointer-events="none"><path transform="translate(6,6)" d="M5,0A5,5,0,1,1,-5,0A5,5,0,1,1,5,0" fill="#e45756" stroke-width="1.5" opacity="1"/></g><g class="mark-text role-legend-label" pointer-events="none"><text text-anchor="start" transform="translate(16,9)" font-family="sans-serif" font-size="10px" fill="#000" opacity="1">karlmdavis/justdavis-puppet</text></g></g><path class="foreground" aria-hidden="true" d="" pointer-events="none" display="none"/></g><g transform="translate(0,299)"><path class="background" aria-hidden="true" d="M0,0h176v11h-176Z" pointer-events="none" opacity="1"/><g><g class="mark-symbol role-legend-symbol" pointer-events="none"><path transform="translate(6,6)" d="M5,0A5,5,0,1,1,-5,0A5,5,0,1,1,5,0" fill="#72b7b2" stroke-width="1.5" opacity="1"/></g><g class="mark-text role-legend-label" pointer-events="none"><text text-anchor="start" transform="translate(16,9)" font-family="sans-serif" font-size="10px" fill="#000" opacity="1">karlmdavis/kobjects</text></g></g><path class="foreground" aria-hidden="true" d="" pointer-events="none" display="none"/></g><g transform="translate(0,312)"><path class="background" aria-hidden="true" d="M0,0h176v11h-176Z" pointer-events="none" opacity="1"/><g><g class="mark-symbol role-legend-symbol" pointer-events="none"><path transform="translate(6,6)" d="M5,0A5,5,0,1,1,-5,0A5,5,0,1,1,5,0" fill="#54a24b" stroke-width="1.5" opacity="1"/></g><g class="mark-text role-legend-label" pointer-events="none"><text text-anchor="start" transform="translate(16,9)" font-family="sans-serif" font-size="10px" fill="#000" opacity="1">karlmdavis/ksoap2-android</text></g></g><path class="foreground" aria-hidden="true" d="" pointer-events="none" display="none"/></g><g transform="translate(0,325)"><path class="background" aria-hidden="true" d="M0,0h176v11h-176Z" pointer-events="none" opacity="1"/><g><g class="mark-symbol role-legend-symbol" pointer-events="none"><path transform="translate(6,6)" d="M5,0A5,5,0,1,1,-5,0A5,5,0,1,1,5,0" fill="#eeca3b" stroke-width="1.5" opacity="1"/></g><g class="mark-text role-legend-label" pointer-events="none"><text text-anchor="start" transform="translate(16,9)" font-family="sans-serif" font-size="10px" fill="#000" opacity="1">karlmdavis/kxml2</text></g></g><path class="foreground" aria-hidden="true" d="" pointer-events="none" display="none"/></g><g transform="translate(0,338)"><path class="background" aria-hidden="true" d="M0,0h176v11h-176Z" pointer-events="none" opacity="1"/><g><g class="mark-symbol role-legend-symbol" pointer-events="none"><path transform="translate(6,6)" d="M5,0A5,5,0,1,1,-5,0A5,5,0,1,1,5,0" fill="#b279a2" stroke-width="1.5" opacity="1"/></g><g class="mark-text role-legend-label" pointer-events="none"><text text-anchor="start" transform="translate(16,9)" font-family="sans-serif" font-size="10px" fill="#000" opacity="1">karlmdavis/ldap-plugin</text></g></g><path class="foreground" aria-hidden="true" d="" pointer-events="none" display="none"/></g><g transform="translate(0,351)"><path class="background" aria-hidden="true" d="M0,0h176v11h-176Z" pointer-events="none" opacity="1"/><g><g class="mark-symbol role-legend-symbol" pointer-events="none"><path transform="translate(6,6)" d="M5,0A5,5,0,1,1,-5,0A5,5,0,1,1,5,0" fill="#ff9da6" stroke-width="1.5" opacity="1"/></g><g class="mark-text role-legend-label" pointer-events="none"><text text-anchor="start" transform="translate(16,9)" font-family="sans-serif" font-size="10px" fill="#000" opacity="1">karlmdavis/lego-ev3dev-rs</text></g></g><path class="foreground" aria-hidden="true" d="" pointer-events="none" display="none"/></g><g transform="translate(0,364)"><path class="background" aria-hidden="true" d="M0,0h176v11h-176Z" pointer-events="none" opacity="1"/><g><g class="mark-symbol role-legend-symbol" pointer-events="none"><path transform="translate(6,6)" d="M5,0A5,5,0,1,1,-5,0A5,5,0,1,1,5,0" fill="#9d755d" stroke-width="1.5" opacity="1"/></g><g class="mark-text role-legend-label" pointer-events="none"><text text-anchor="start" transform="translate(16,9)" font-family="sans-serif" font-size="10px" fill="#000" opacity="1">karlmdavis/liquibase</text></g></g><path class="foreground" aria-hidden="true" d="" pointer-events="none" display="none"/></g><g transform="translate(0,377)"><path class="background" aria-hidden="true" d="M0,0h176v11h-176Z" pointer-events="none" opacity="1"/><g><g class="mark-symbol role-legend-symbol" pointer-events="none"><path transform="translate(6,6)" d="M5,0A5,5,0,1,1,-5,0A5,5,0,1,1,5,0" fill="#bab0ac" stroke-width="1.5" opacity="1"/></g><g class="mark-text role-legend-label" pointer-events="none"><text text-anchor="start" transform="translate(16,9)" font-family="sans-serif" font-size="10px" fill="#000" opacity="1">…14 entries</text></g></g><path class="foreground" aria-hidden="true" d="" pointer-events="none" display="none"/></g></g></g><path class="foreground" aria-hidden="true" d="" pointer-events="none" display="none"/></g></g><g class="mark-text role-legend-title" pointer-events="none"><text text-anchor="start" transform="translate(0,9)" font-family="sans-serif" font-size="11px" font-weight="bold" fill="#000" opacity="1">Repository</text></g></g><path class="foreground" aria-hidden="true" d="" pointer-events="none" display="none"/></g></g><g class="mark-group role-title"><g transform="translate(400,-22)"><path class="background" aria-hidden="true" d="M0,0h0v0h0Z" pointer-events="none"/><g><g class="mark-text role-title-text" role="graphics-symbol" aria-roledescription="title" aria-label="Title text 'Unique Clones per Day'" pointer-events="none"><text text-anchor="middle" transform="translate(0,10)" font-family="sans-serif" font-size="13px" font-weight="bold" fill="#000" opacity="1">Unique Clones per Day</text></g></g><path class="foreground" aria-hidden="true" d="" pointer-events="none" display="none"/></g></g></g><path class="foreground" aria-hidden="true" d="" display="none"/></g></g></g></svg>