<svg xmlns="http://www.w3.org/2000/svg" xmlns:xlink="http://www.w3.org/1999/xlink" version="1.1" class="marks" width="1043" height="436" viewBox="0 0 1043 436"><rect width="1043" height="436" fill="white"/><g fill="none" stroke-miterlimit="10" transform="translate(44,27)"><g class="mark-group role-frame root" role="graphics-object" aria-roledescription="group mark container"><g transform="translate(0,0)"><path class="background" aria-hidden="true" d="M0.5,0.5h800v300h-800Z" stroke="#ddd"/><g><g class="mark-group role-axis" aria-hidden="true"><g transform="translate(0.5,300.5)"><path class="background" aria-hidden="true" d="M0,0h0v0h0Z" pointer-events="none"/><g><g class="mark-rule role-axis-grid" pointer-events="none"><line transform="translate(25,-300)" x2="0" y2="300" stroke="#ddd" stroke-width="1" opacity="1"/><line transform="translate(75,-300)" x2="0" y2="300" stroke="#ddd" stroke-width="1" opacity="1"/><line transform="translate(125,-300)" x2="0" y2="300" stroke="#ddd" stroke-width="1" opacity="1"/><line transform="translate(175,-300)" x2="0" y2="300" stroke="#ddd" stroke-width="1" opacity="1"/><line transform="translate(225,-300)" x2="0" y2="300" stroke="#ddd" stroke-width="1" opacity="1"/><line transform="translate(275,-300)" x2="0" y2="300" stroke="#ddd" stroke-width="1" opacity="1"/><line transform="translate(325,-300)" x2="0" y2="300" stroke="#ddd" stroke-width="1" opacity="1"/><line transform="translate(375,-300)" x2="0" y2="300" stroke="#ddd" stroke-width="1" opacity="1"/><line transform="translate(400,-300)" x2="0" y2="300" stroke="#ddd" stroke-width="1" opacity="1"/><line transform="translate(450,-300)" x2="0" y2="300" stroke="#ddd" stroke-width="1" opacity="1"/><line transform="translate(500,-300)" x2="0" y2="300" stroke="#ddd" stroke-width="1" opacity="1"/><line transform="translate(550,-300)" x2="0" y2="300" stroke="#ddd" stroke-width="1" opacity="1"/><line transform="translate(600,-300)" x2="0" y2="300" stroke="#ddd" stroke-width="1" opacity="1"/><line transform="translate(650,-300)" x2="0" y2="300" stroke="#ddd" stroke-width="1" opacity="1"/><line transform="translate(700,-300)" x2="0" y2="300" stroke="#ddd" stroke-width="1" opacity="1"/><line transform="translate(750,-300)" x2="0" y2="300" stroke="#ddd" stroke-width="1" opacity="1"/><line transform="translate(800,-300)" x2="0" y2="300" stroke="#ddd" stroke-width="1" opacity="1"/></g></g><path class="foreground" aria-hidden="true" d="" pointer-events="none" display="none"/></g></g><g class="mark-group role-axis" aria-hidden="true"><g transform="translate(0.5,0.5)"><path class="background" aria-hidden="true" d="M0,0h0v0h0Z" pointer-events="none"/><g><g class="mark-rule role-axis-grid" pointer-events="none"><line transform="translate(0,300)" x2="800" y2="0" stroke="#ddd" stroke-width="1" opacity="1"/><line transform="translate(0,273)" x2="800" y2="0" stroke="#ddd" stroke-width="1" opacity="1"/><line transform="translate(0,245)" x2="800" y2="0" stroke="#ddd" stroke-width="1" opacity="1"/><line transform="translate(0,218)" x2="800" y2="0" stroke="#ddd" stroke-width="1" opacity="1"/><line transform="translate(0,191)" x2="800" y2="0" stroke="#ddd" stroke-width="1" opacity="1"/><line transform="translate(0,164)" x2="800" y2="0" stroke="#ddd" stroke-width="1" opacity="1"/><line transform="translate(0,136)" x2="800" y2="0" stroke="#ddd" stroke-width="1" opacity="1"/><line transform="translate(0,109)" x2="800" y2="0" stroke="#ddd" stroke-width="1" opacity="1"/><line transform="translate(0,82)" x2="800" y2="0" stroke="#ddd" stroke-width="1" opacity="1"/><line transform="translate(0,55)" x2="800" y2="0" stroke="#ddd" stroke-width="1" opacity="1"/><line transform="translate(0,27)" x2="800" y2="0" stroke="#ddd" stroke-width="1" opacity="1"/><line transform="translate(0,0)" x2="800" y2="0" stroke="#ddd" stroke-width="1" opacity="1"/></g></g><path class="foreground" aria-hidden="true" d="" pointer-events="none" display="none"/></g></g><g class="mark-group role-axis" role="graphics-symbol" aria-roledescription="axis" aria-label="X-axis titled 'Date' for a time scale with values from Monday, 16 March 2026, 12:00:00 AM to Friday, 17 April 2026, 12:00:00 AM"><g transform="translate(0.5,300.5)"><path class="background" aria-hidden="true" d="M0,0h0v0h0Z" pointer-events="none"/><g><g class="mark-rule role-axis-tick" pointer-events="none"><line transform="translate(25,0)" x2="0" y2="5" stroke="#888" stroke-width="1" opacity="1"/><line transform="translate(75,0)" x2="0" y2="5" stroke="#888" stroke-width="1" opacity="1"/><line transform="translate(125,0)" x2="0" y2="5" stroke="#888" stroke-width="1" opacity="1"/><line transform="translate(175,0)" x2="0" y2="5" stroke="#888" stroke-width="1" opacity="1"/><line transform="translate(225,0)" x2="0" y2="5" stroke="#888" stroke-width="1" opacity="1"/><line transform="translate(275,0)" x2="0" y2="5" stroke="#888" stroke-width="1" opacity="1"/><line transform="translate(325,0)" x2="0" y2="5" stroke="#888" stroke-width="1" opacity="1"/><line transform="translate(375,0)" x2="0" y2="5" stroke="#888" stroke-width="1" opacity="1"/><line transform="translate(400,0)" x2="0" y2="5" stroke="#888" stroke-width="1" opacity="1"/><line transform="translate(450,0)" x2="0" y2="5" stroke="#888" stroke-width="1" opacity="1"/><line transform="translate(500,0)" x2="0" y2="5" stroke="#888" stroke-width="1" opacity="1"/><line transform="translate(550,0)" x2="0" y2="5" stroke="#888" stroke-width="1" opacity="1"/><line transform="translate(600,0)" x2="0" y2="5" stroke="#888" stroke-width="1" opacity="1"/><line transform="translate(650,0)" x2="0" y2="5" stroke="#888" stroke-width="1" opacity="1"/><line transform="translate(700,0)" x2="0" y2="5" stroke="#888" stroke-width="1" opacity="1"/><line transform="translate(750,0)" x2="0" y2="5" stroke="#888" stroke-width="1" opacity="1"/><line transform="translate(800,0)" x2="0" y2="5" stroke="#888" stroke-width="1" opacity="1"/></g><g class="mark-text role-axis-label" pointer-events="none"><text text-anchor="middle" transform="translate(25,15)" font-family="sans-serif" font-size="10px" fill="#000" opacity="1">Tue 17</text><text text-anchor="middle" transform="translate(75,15)" font-family="sans-serif" font-size="10px" fill="#000" opacity="0">Thu 19</text><text text-anchor="middle" transform="translate(125,15)" font-family="sans-serif" font-size="10px" fill="#000" opacity="1">Sat 21</text><text text-anchor="middle" transform="translate(175,15)" font-family="sans-serif" font-size="10px" fill="#000" opacity="0">Mon 23</text><text text-anchor="middle" transform="translate(225,15)" font-family="sans-serif" font-size="10px" fill="#000" opacity="1">Wed 25</text><text text-anchor="middle" transform="translate(275,15)" font-family="sans-serif" font-size="10px" fill="#000" opacity="0">Fri 27</text><text text-anchor="middle" transform="translate(325,15)" font-family="sans-serif" font-size="10px" fill="#000" opacity="1">Mar 29</text><text text-anchor="middle" transform="translate(375,15)" font-family="sans-serif" font-size="10px" fill="#000" opacity="0">Tue 31</text><text text-anchor="middle" transform="translate(400,15)" font-family="sans-serif" font-size="10px" fill="#000" opacity="1">April</text><text text-anchor="middle" transform="translate(450,15)" font-family="sans-serif" font-size="10px" fill="#000" opacity="0">Fri 03</text><text text-anchor="middle" transform="translate(500,15)" font-family="sans-serif" font-size="10px" fill="#000" opacity="1">Apr 05</text><text text-anchor="middle" transform="translate(550,15)" font-family="sans-serif" font-size="10px" fill="#000" opacity="0">Tue 07</text><text text-anchor="middle" transform="translate(600,15)" font-family="sans-serif" font-size="10px" fill="#000" opacity="1">Thu 09</text><text text-anchor="middle" transform="translate(650,15)" font-family="sans-serif" font-size="10px" fill="#000" opacity="0">Sat 11</text><text text-anchor="middle" transform="translate(700,15)" font-family="sans-serif" font-size="10px" fill="#000" opacity="1">Mon 13</text><text text-anchor="middle" transform="translate(750,15)" font-family="sans-serif" font-size="10px" fill="#000" opacity="0">Wed 15</text><text text-anchor="end" transform="translate(800,15)" font-family="sans-serif" font-size="10px" fill="#000" opacity="1">Fri 17</text></g><g class="mark-rule role-axis-domain" pointer-events="none"><line transform="translate(0,0)" x2="800" y2="0" stroke="#888" stroke-width="1" opacity="1"/></g><g class="mark-text role-axis-title" pointer-events="none"><text text-anchor="middle" transform="translate(400,30)" font-family="sans-serif" font-size="11px" font-weight="bold" fill="#000" opacity="1">Date</text></g></g><path class="foreground" aria-hidden="true" d="" pointer-events="none" display="none"/></g></g><g class="mark-group role-axis" role="graphics-symbol" aria-roledescription="axis" aria-label="Y-axis titled 'Unique Clones/day' for a linear scale with values from 0 to 220"><g transform="translate(0.5,0.5)"><path class="background" aria-hidden="true" d="M0,0h0v0h0Z" pointer-events="none"/><g><g class="mark-rule role-axis-tick" pointer-events="none"><line transform="translate(0,300)" x2="-5" y2="0" stroke="#888" stroke-width="1" opacity="1"/><line transform="translate(0,273)" x2="-5" y2="0" stroke="#888" stroke-width="1" opacity="1"/><line transform="translate(0,245)" x2="-5" y2="0" stroke="#888" stroke-width="1" opacity="1"/><line transform="translate(0,218)" x2="-5" y2="0" stroke="#888" stroke-width="1" opacity="1"/><line transform="translate(0,191)" x2="-5" y2="0" stroke="#888" stroke-width="1" opacity="1"/><line transform="translate(0,164)" x2="-5" y2="0" stroke="#888" stroke-width="1" opacity="1"/><line transform="translate(0,136)" x2="-5" y2="0" stroke="#888" stroke-width="1" opacity="1"/><line transform="translate(0,109)" x2="-5" y2="0" stroke="#888" stroke-width="1" opacity="1"/><line transform="translate(0,82)" x2="-5" y2="0" stroke="#888" stroke-width="1" opacity="1"/><line transform="translate(0,55)" x2="-5" y2="0" stroke="#888" stroke-width="1" opacity="1"/><line transform="translate(0,27)" x2="-5" y2="0" stroke="#888" stroke-width="1" opacity="1"/><line transform="translate(0,0)" x2="-5" y2="0" stroke="#888" stroke-width="1" opacity="1"/></g><g class="mark-text role-axis-label" pointer-events="none"><text text-anchor="end" transform="translate(-7,303)" font-family="sans-serif" font-size="10px" fill="#000" opacity="1">0</text><text text-anchor="end" transform="translate(-7,275.7272727272727)" font-family="sans-serif" font-size="10px" fill="#000" opacity="1">20</text><text text-anchor="end" transform="translate(-7,248.45454545454544)" font-family="sans-serif" font-size="10px" fill="#000" opacity="1">40</text><text text-anchor="end" transform="translate(-7,221.1818181818182)" font-family="sans-serif" font-size="10px" fill="#000" opacity="1">60</text><text text-anchor="end" transform="translate(-7,193.9090909090909)" font-family="sans-serif" font-size="10px" fill="#000" opacity="1">80</text><text text-anchor="end" transform="translate(-7,166.63636363636363)" font-family="sans-serif" font-size="10px" fill="#000" opacity="1">100</text><text text-anchor="end" transform="translate(-7,139.36363636363637)" font-family="sans-serif" font-size="10px" fill="#000" opacity="1">120</text><text text-anchor="end" transform="translate(-7,112.0909090909091)" font-family="sans-serif" font-size="10px" fill="#000" opacity="1">140</text><text text-anchor="end" transform="translate(-7,84.81818181818181)" font-family="sans-serif" font-size="10px" fill="#000" opacity="1">160</text><text text-anchor="end" transform="translate(-7,57.54545454545453)" font-family="sans-serif" font-size="10px" fill="#000" opacity="1">180</text><text text-anchor="end" transform="translate(-7,30.27272727272728)" font-family="sans-serif" font-size="10px" fill="#000" opacity="1">200</text><text text-anchor="end" transform="translate(-7,3)" font-family="sans-serif" font-size="10px" fill="#000" opacity="1">220</text></g><g class="mark-rule role-axis-domain" pointer-events="none"><line transform="translate(0,300)" x2="0" y2="-300" stroke="#888" stroke-width="1" opacity="1"/></g><g class="mark-text role-axis-title" pointer-events="none"><text text-anchor="middle" transform="translate(-27.6845703125,150) rotate(-90) translate(0,-2)" font-family="sans-serif" font-size="11px" font-weight="bold" fill="#000" opacity="1">Unique Clones/day</text></g></g><path class="foreground" aria-hidden="true" d="" pointer-events="none" display="none"/></g></g><g class="mark-group role-scope pathgroup" role="graphics-object" aria-roledescription="group mark container"><g transform="translate(0,0)"><path class="background" aria-hidden="true" d="M0,0h800v300h-800Z"/><g><g class="mark-area role-mark marks" role="graphics-object" aria-roledescription="area mark container"><path aria-label="Date: Mar 16, 2026; Unique Clones/day: 0; Repository: justdavis-family/github-analytics-data" role="graphics-symbol" aria-roledescription="area mark" d="M0,298.636L25,300L50,300L75,298.636L100,300L125,300L150,300L175,282.273L200,297.273L225,290.455L250,278.182L275,205.909L300,237.273L325,169.091L350,255L375,268.636L400,274.091L425,286.364L450,259.091L475,73.636L500,148.636L525,257.727L550,155.455L575,250.909L600,229.091L625,271.364L650,249.545L675,212.727L700,4.091L725,267.273L750,260.455L775,274.091L800,282.273L800,289.091L775,289.091L750,278.182L725,282.273L700,10.909L675,229.091L650,260.455L625,280.909L600,238.636L575,257.727L550,190.909L525,257.727L500,148.636L475,73.636L450,259.091L425,286.364L400,274.091L375,268.636L350,255L325,169.091L300,237.273L275,205.909L250,278.182L225,290.455L200,297.273L175,282.273L150,300L125,300L100,300L75,298.636L50,300L25,300L0,298.636Z" fill="#4c78a8"/></g></g><path class="foreground" aria-hidden="true" d="" display="none"/></g><g transform="translate(0,0)"><path class="background" aria-hidden="true" d="M0,0h800v300h-800Z"/><g><g class="mark-area role-mark marks" role="graphics-object" aria-roledescription="area mark container"><path aria-label="Date: Mar 16, 2026; Unique Clones/day: 0; Repository: justdavis-family/justdavis" role="graphics-symbol" aria-roledescription="area mark" d="M0,298.636L25,300L50,300L75,298.636L100,300L125,300L150,300L175,282.273L200,297.273L225,290.455L250,278.182L275,205.909L300,237.273L325,169.091L350,255L375,268.636L400,274.091L425,286.364L450,259.091L475,73.636L500,148.636L525,257.727L550,190.909L575,257.727L600,238.636L625,280.909L650,260.455L675,229.091L700,10.909L725,282.273L750,278.182L775,289.091L800,289.091L800,293.182L775,291.818L750,283.636L725,283.636L700,178.636L675,250.909L650,264.545L625,283.636L600,244.091L575,260.455L550,259.091L525,282.273L500,189.545L475,180L450,260.455L425,286.364L400,275.455L375,268.636L350,255L325,169.091L300,237.273L275,205.909L250,278.182L225,290.455L200,297.273L175,283.636L150,300L125,300L100,300L75,298.636L50,300L25,300L0,298.636Z" fill="#f58518"/></g></g><path class="foreground" aria-hidden="true" d="" display="none"/></g><g transform="translate(0,0)"><path class="background" aria-hidden="true" d="M0,0h800v300h-800Z"/><g><g class="mark-area role-mark marks" role="graphics-object" aria-roledescription="area mark container"><path aria-label="Date: Mar 16, 2026; Unique Clones/day: 0; Repository: karlmdavis/FHIR-Server" role="graphics-symbol" aria-roledescription="area mark" d="M0,298.636L25,300L50,300L75,298.636L100,300L125,300L150,300L175,283.636L200,297.273L225,290.455L250,278.182L275,205.909L300,237.273L325,169.091L350,255L375,268.636L400,275.455L425,286.364L450,260.455L475,180L500,189.545L525,282.273L550,259.091L575,260.455L600,244.091L625,283.636L650,264.545L675,250.909L700,178.636L725,283.636L750,283.636L775,291.818L800,293.182L800,293.182L775,291.818L750,283.636L725,283.636L700,178.636L675,252.273L650,267.273L625,283.636L600,244.091L575,260.455L550,259.091L525,282.273L500,189.545L475,180L450,260.455L425,286.364L400,275.455L375,270L350,255L325,169.091L300,237.273L275,205.909L250,278.182L225,290.455L200,297.273L175,283.636L150,300L125,300L100,300L75,298.636L50,300L25,300L0,298.636Z" fill="#e45756"/></g></g><path class="foreground" aria-hidden="true" d="" display="none"/></g><g transform="translate(0,0)"><path class="background" aria-hidden="true" d="M0,0h800v300h-800Z"/><g><g class="mark-area role-mark marks" role="graphics-object" aria-roledescription="area mark container"><path aria-label="Date: Mar 16, 2026; Unique Clones/day: 1; Repository: karlmdavis/ansible" role="graphics-symbol" aria-roledescription="area mark" d="M0,298.636L25,300L50,300L75,298.636L100,300L125,300L150,300L175,283.636L200,297.273L225,290.455L250,278.182L275,205.909L300,237.273L325,169.091L350,255L375,270L400,275.455L425,286.364L450,260.455L475,180L500,189.545L525,282.273L550,259.091L575,260.455L600,244.091L625,283.636L650,267.273L675,252.273L700,178.636L725,283.636L750,283.636L775,291.818L800,293.182L800,293.182L775,291.818L750,283.636L725,285L700,178.636L675,252.273L650,267.273L625,283.636L600,244.091L575,260.455L550,259.091L525,282.273L500,189.545L475,180L450,260.455L425,286.364L400,275.455L375,270L350,255L325,169.091L300,237.273L275,205.909L250,278.182L225,290.455L200,297.273L175,283.636L150,300L125,300L100,300L75,298.636L50,300L25,300L0,300Z" fill="#72b7b2"/></g></g><path class="foreground" aria-hidden="true" d="" display="none"/></g><g transform="translate(0,0)"><path class="background" aria-hidden="true" d="M0,0h800v300h-800Z"/><g><g class="mark-area role-mark marks" role="graphics-object" aria-roledescription="area mark container"><path aria-label="Date: Mar 16, 2026; Unique Clones/day: 0; Repository: karlmdavis/ansible-jenkins" role="graphics-symbol" aria-roledescription="area mark" d="M0,300L25,300L50,300L75,298.636L100,300L125,300L150,300L175,283.636L200,297.273L225,290.455L250,278.182L275,205.909L300,237.273L325,169.091L350,255L375,270L400,275.455L425,286.364L450,260.455L475,180L500,189.545L525,282.273L550,259.091L575,260.455L600,244.091L625,283.636L650,267.273L675,252.273L700,178.636L725,285L750,283.636L775,291.818L800,293.182L800,293.182L775,291.818L750,283.636L725,285L700,178.636L675,253.636L650,267.273L625,283.636L600,244.091L575,260.455L550,259.091L525,282.273L500,189.545L475,181.364L450,261.818L425,286.364L400,275.455L375,270L350,255L325,169.091L300,237.273L275,205.909L250,279.545L225,290.455L200,297.273L175,283.636L150,300L125,300L100,300L75,298.636L50,300L25,300L0,300Z" fill="#54a24b"/></g></g><path class="foreground" aria-hidden="true" d="" display="none"/></g><g transform="translate(0,0)"><path class="background" aria-hidden="true" d="M0,0h800v300h-800Z"/><g><g class="mark-area role-mark marks" role="graphics-object" aria-roledescription="area mark container"><path aria-label="Date: Mar 16, 2026; Unique Clones/day: 0; Repository: karlmdavis/ansible-role-acmetool" role="graphics-symbol" aria-roledescription="area mark" d="M0,300L25,300L50,300L75,298.636L100,300L125,300L150,300L175,283.636L200,297.273L225,290.455L250,279.545L275,205.909L300,237.273L325,169.091L350,255L375,270L400,275.455L425,286.364L450,261.818L475,181.364L500,189.545L525,282.273L550,259.091L575,260.455L600,244.091L625,283.636L650,267.273L675,253.636L700,178.636L725,285L750,283.636L775,291.818L800,293.182L800,293.182L775,291.818L750,283.636L725,285L700,178.636L675,255L650,267.273L625,283.636L600,244.091L575,260.455L550,259.091L525,282.273L500,189.545L475,181.364L450,261.818L425,286.364L400,275.455L375,270L350,255L325,169.091L300,237.273L275,205.909L250,280.909L225,290.455L200,297.273L175,283.636L150,300L125,300L100,300L75,298.636L50,300L25,300L0,300Z" fill="#eeca3b"/></g></g><path class="foreground" aria-hidden="true" d="" display="none"/></g><g transform="translate(0,0)"><path class="background" aria-hidden="true" d="M0,0h800v300h-800Z"/><g><g class="mark-area role-mark marks" role="graphics-object" aria-roledescription="area mark container"><path aria-label="Date: Mar 16, 2026; Unique Clones/day: 0; Repository: karlmdavis/ansible-role-bind-dns" role="graphics-symbol" aria-roledescription="area mark" d="M0,300L25,300L50,300L75,298.636L100,300L125,300L150,300L175,283.636L200,297.273L225,290.455L250,280.909L275,205.909L300,237.273L325,169.091L350,255L375,270L400,275.455L425,286.364L450,261.818L475,181.364L500,189.545L525,282.273L550,259.091L575,260.455L600,244.091L625,283.636L650,267.273L675,255L700,178.636L725,285L750,283.636L775,291.818L800,293.182L800,293.182L775,293.182L750,283.636L725,285L700,184.091L675,256.364L650,267.273L625,283.636L600,245.455L575,261.818L550,259.091L525,282.273L500,189.545L475,182.727L450,261.818L425,286.364L400,279.545L375,270L350,256.364L325,170.455L300,237.273L275,208.636L250,280.909L225,290.455L200,297.273L175,283.636L150,300L125,300L100,300L75,298.636L50,300L25,300L0,300Z" fill="#b279a2"/></g></g><path class="foreground" aria-hidden="true" d="" display="none"/></g><g transform="translate(0,0)"><path class="background" aria-hidden="true" d="M0,0h800v300h-800Z"/><g><g class="mark-area role-mark marks" role="graphics-object" aria-roledescription="area mark container"><path aria-label="Date: Mar 16, 2026; Unique Clones/day: 0; Repository: karlmdavis/ansible-role-jenkins2" role="graphics-symbol" aria-roledescription="area mark" d="M0,300L25,300L50,300L75,298.636L100,300L125,300L150,300L175,283.636L200,297.273L225,290.455L250,280.909L275,208.636L300,237.273L325,170.455L350,256.364L375,270L400,279.545L425,286.364L450,261.818L475,182.727L500,189.545L525,282.273L550,259.091L575,261.818L600,245.455L625,283.636L650,267.273L675,256.364L700,184.091L725,285L750,283.636L775,293.182L800,293.182L800,293.182L775,293.182L750,285L725,285L700,190.909L675,256.364L650,268.636L625,286.364L600,252.273L575,261.818L550,259.091L525,282.273L500,190.909L475,185.455L450,263.182L425,287.727L400,280.909L375,271.364L350,256.364L325,170.455L300,238.636L275,210L250,282.273L225,291.818L200,298.636L175,283.636L150,300L125,300L100,300L75,298.636L50,300L25,300L0,300Z" fill="#ff9da6"/></g></g><path class="foreground" aria-hidden="true" d="" display="none"/></g><g transform="translate(0,0)"><path class="background" aria-hidden="true" d="M0,0h800v300h-800Z"/><g><g class="mark-area role-mark marks" role="graphics-object" aria-roledescription="area mark container"><path aria-label="Date: Mar 16, 2026; Unique Clones/day: 0; Repository: karlmdavis/ansible-role-ldap" role="graphics-symbol" aria-roledescription="area mark" d="M0,300L25,300L50,300L75,298.636L100,300L125,300L150,300L175,283.636L200,298.636L225,291.818L250,282.273L275,210L300,238.636L325,170.455L350,256.364L375,271.364L400,280.909L425,287.727L450,263.182L475,185.455L500,190.909L525,282.273L550,259.091L575,261.818L600,252.273L625,286.364L650,268.636L675,256.364L700,190.909L725,285L750,285L775,293.182L800,293.182L800,293.182L775,293.182L750,285L725,285L700,192.273L675,256.364L650,268.636L625,286.364L600,252.273L575,261.818L550,259.091L525,282.273L500,190.909L475,185.455L450,263.182L425,287.727L400,280.909L375,272.727L350,256.364L325,170.455L300,238.636L275,210L250,282.273L225,291.818L200,298.636L175,283.636L150,300L125,300L100,300L75,298.636L50,300L25,300L0,300Z" fill="#9d755d"/></g></g><path class="foreground" aria-hidden="true" d="" display="none"/></g><g transform="translate(0,0)"><path class="background" aria-hidden="true" d="M0,0h800v300h-800Z"/><g><g class="mark-area role-mark marks" role="graphics-object" aria-roledescription="area mark container"><path aria-label="Date: Mar 16, 2026; Unique Clones/day: 0; Repository: karlmdavis/ansible-role-rcm-dotfiles" role="graphics-symbol" aria-roledescription="area mark" d="M0,300L25,300L50,300L75,298.636L100,300L125,300L150,300L175,283.636L200,298.636L225,291.818L250,282.273L275,210L300,238.636L325,170.455L350,256.364L375,272.727L400,280.909L425,287.727L450,263.182L475,185.455L500,190.909L525,282.273L550,259.091L575,261.818L600,252.273L625,286.364L650,268.636L675,256.364L700,192.273L725,285L750,285L775,293.182L800,293.182L800,293.182L775,293.182L750,286.364L725,285L700,196.364L675,257.727L650,268.636L625,286.364L600,253.636L575,261.818L550,259.091L525,282.273L500,190.909L475,186.818L450,263.182L425,287.727L400,280.909L375,272.727L350,257.727L325,171.818L300,238.636L275,212.727L250,282.273L225,291.818L200,298.636L175,283.636L150,300L125,300L100,300L75,298.636L50,300L25,300L0,300Z" fill="#bab0ac"/></g></g><path class="foreground" aria-hidden="true" d="" display="none"/></g><g transform="translate(0,0)"><path class="background" aria-hidden="true" d="M0,0h800v300h-800Z"/><g><g class="mark-area role-mark marks" role="graphics-object" aria-roledescription="area mark container"><path aria-label="Date: Mar 16, 2026; Unique Clones/day: 0; Repository: karlmdavis/ansible-roles" role="graphics-symbol" aria-roledescription="area mark" d="M0,300L25,300L50,300L75,298.636L100,300L125,300L150,300L175,283.636L200,298.636L225,291.818L250,282.273L275,212.727L300,238.636L325,171.818L350,257.727L375,272.727L400,280.909L425,287.727L450,263.182L475,186.818L500,190.909L525,282.273L550,259.091L575,261.818L600,253.636L625,286.364L650,268.636L675,257.727L700,196.364L725,285L750,286.364L775,293.182L800,293.182L800,293.182L775,293.182L750,286.364L725,285L700,196.364L675,257.727L650,270L625,286.364L600,253.636L575,261.818L550,259.091L525,282.273L500,190.909L475,186.818L450,263.182L425,287.727L400,280.909L375,272.727L350,259.091L325,171.818L300,238.636L275,212.727L250,283.636L225,291.818L200,298.636L175,283.636L150,300L125,300L100,300L75,298.636L50,300L25,300L0,300Z" fill="#4c78a8"/></g></g><path class="foreground" aria-hidden="true" d="" display="none"/></g><g transform="translate(0,0)"><path class="background" aria-hidden="true" d="M0,0h800v300h-800Z"/><g><g class="mark-area role-mark marks" role="graphics-object" aria-roledescription="area mark container"><path aria-label="Date: Mar 16, 2026; Unique Clones/day: 0; Repository: karlmdavis/bbonfhir-dev-infra-docker" role="graphics-symbol" aria-roledescription="area mark" d="M0,300L25,300L50,300L75,298.636L100,300L125,300L150,300L175,283.636L200,298.636L225,291.818L250,283.636L275,212.727L300,238.636L325,171.818L350,259.091L375,272.727L400,280.909L425,287.727L450,263.182L475,186.818L500,190.909L525,282.273L550,259.091L575,261.818L600,253.636L625,286.364L650,270L675,257.727L700,196.364L725,285L750,286.364L775,293.182L800,293.182L800,293.182L775,293.182L750,286.364L725,285L700,200.455L675,259.091L650,270L625,286.364L600,255L575,261.818L550,259.091L525,282.273L500,190.909L475,188.182L450,263.182L425,287.727L400,280.909L375,272.727L350,260.455L325,171.818L300,238.636L275,214.091L250,283.636L225,293.182L200,298.636L175,283.636L150,300L125,300L100,300L75,298.636L50,300L25,300L0,300Z" fill="#f58518"/></g></g><path class="foreground" aria-hidden="true" d="" display="none"/></g><g transform="translate(0,0)"><path class="background" aria-hidden="true" d="M0,0h800v300h-800Z"/><g><g class="mark-area role-mark marks" role="graphics-object" aria-roledescription="area mark container"><path aria-label="Date: Mar 16, 2026; Unique Clones/day: 0; Repository: karlmdavis/can-i-kayak-baltimore" role="graphics-symbol" aria-roledescription="area mark" d="M0,300L25,300L50,300L75,298.636L100,300L125,300L150,300L175,283.636L200,298.636L225,293.182L250,283.636L275,214.091L300,238.636L325,171.818L350,260.455L375,272.727L400,280.909L425,287.727L450,263.182L475,188.182L500,190.909L525,282.273L550,259.091L575,261.818L600,255L625,286.364L650,270L675,259.091L700,200.455L725,285L750,286.364L775,293.182L800,293.182L800,293.182L775,293.182L750,286.364L725,285L700,203.182L675,260.455L650,270L625,286.364L600,256.364L575,261.818L550,259.091L525,282.273L500,190.909L475,189.545L450,263.182L425,287.727L400,282.273L375,272.727L350,260.455L325,171.818L300,238.636L275,218.182L250,283.636L225,293.182L200,298.636L175,283.636L150,300L125,300L100,300L75,298.636L50,300L25,300L0,300Z" fill="#e45756"/></g></g><path class="foreground" aria-hidden="true" d="" display="none"/></g><g transform="translate(0,0)"><path class="background" aria-hidden="true" d="M0,0h800v300h-800Z"/><g><g class="mark-area role-mark marks" role="graphics-object" aria-roledescription="area mark container"><path aria-label="Date: Mar 16, 2026; Unique Clones/day: 0; Repository: karlmdavis/datanucleus-test-jdo-1-to-n" role="graphics-symbol" aria-roledescription="area mark" d="M0,300L25,300L50,300L75,298.636L100,300L125,300L150,300L175,283.636L200,298.636L225,293.182L250,283.636L275,218.182L300,238.636L325,171.818L350,260.455L375,272.727L400,282.273L425,287.727L450,263.182L475,189.545L500,190.909L525,282.273L550,259.091L575,261.818L600,256.364L625,286.364L650,270L675,260.455L700,203.182L725,285L750,286.364L775,293.182L800,293.182L800,293.182L775,293.182L750,286.364L725,286.364L700,203.182L675,260.455L650,270L625,286.364L600,256.364L575,261.818L550,259.091L525,282.273L500,190.909L475,189.545L450,263.182L425,287.727L400,282.273L375,272.727L350,260.455L325,171.818L300,240L275,218.182L250,283.636L225,293.182L200,298.636L175,283.636L150,300L125,300L100,300L75,298.636L50,300L25,300L0,300Z" fill="#72b7b2"/></g></g><path class="foreground" aria-hidden="true" d="" display="none"/></g><g transform="translate(0,0)"><path class="background" aria-hidden="true" d="M0,0h800v300h-800Z"/><g><g class="mark-area role-mark marks" role="graphics-object" aria-roledescription="area mark container"><path aria-label="Date: Mar 16, 2026; Unique Clones/day: 0; Repository: karlmdavis/dotfiles" role="graphics-symbol" aria-roledescription="area mark" d="M0,300L25,300L50,300L75,298.636L100,300L125,300L150,300L175,283.636L200,298.636L225,293.182L250,283.636L275,218.182L300,240L325,171.818L350,260.455L375,272.727L400,282.273L425,287.727L450,263.182L475,189.545L500,190.909L525,282.273L550,259.091L575,261.818L600,256.364L625,286.364L650,270L675,260.455L700,203.182L725,286.364L750,286.364L775,293.182L800,293.182L800,294.545L775,294.545L750,286.364L725,286.364L700,210L675,260.455L650,272.727L625,286.364L600,257.727L575,263.182L550,259.091L525,282.273L500,192.273L475,190.909L450,263.182L425,289.091L400,283.636L375,274.091L350,260.455L325,171.818L300,240L275,220.909L250,283.636L225,293.182L200,298.636L175,285L150,300L125,300L100,300L75,298.636L50,300L25,300L0,300Z" fill="#54a24b"/></g></g><path class="foreground" aria-hidden="true" d="" display="none"/></g><g transform="translate(0,0)"><path class="background" aria-hidden="true" d="M0,0h800v300h-800Z"/><g><g class="mark-area role-mark marks" role="graphics-object" aria-roledescription="area mark container"><path aria-label="Date: Mar 16, 2026; Unique Clones/day: 0; Repository: karlmdavis/fhir-benchmarks" role="graphics-symbol" aria-roledescription="area mark" d="M0,300L25,300L50,300L75,298.636L100,300L125,300L150,300L175,285L200,298.636L225,293.182L250,283.636L275,220.909L300,240L325,171.818L350,260.455L375,274.091L400,283.636L425,289.091L450,263.182L475,190.909L500,192.273L525,282.273L550,259.091L575,263.182L600,257.727L625,286.364L650,272.727L675,260.455L700,210L725,286.364L750,286.364L775,294.545L800,294.545L800,295.909L775,294.545L750,287.727L725,290.455L700,216.818L675,260.455L650,275.455L625,286.364L600,260.455L575,272.727L550,260.455L525,282.273L500,193.636L475,192.273L450,264.545L425,289.091L400,285L375,276.818L350,261.818L325,173.182L300,240L275,223.636L250,283.636L225,294.545L200,298.636L175,286.364L150,300L125,300L100,300L75,298.636L50,300L25,300L0,300Z" fill="#eeca3b"/></g></g><path class="foreground" aria-hidden="true" d="" display="none"/></g><g transform="translate(0,0)"><path class="background" aria-hidden="true" d="M0,0h800v300h-800Z"/><g><g class="mark-area role-mark marks" role="graphics-object" aria-roledescription="area mark container"><path aria-label="Date: Mar 16, 2026; Unique Clones/day: 0; Repository: karlmdavis/hapi-fhir-jpaserver-starter" role="graphics-symbol" aria-roledescription="area mark" d="M0,300L25,300L50,300L75,298.636L100,300L125,300L150,300L175,286.364L200,298.636L225,294.545L250,283.636L275,223.636L300,240L325,173.182L350,261.818L375,276.818L400,285L425,289.091L450,264.545L475,192.273L500,193.636L525,282.273L550,260.455L575,272.727L600,260.455L625,286.364L650,275.455L675,260.455L700,216.818L725,290.455L750,287.727L775,294.545L800,295.909L800,295.909L775,294.545L750,287.727L725,290.455L700,218.182L675,260.455L650,275.455L625,286.364L600,260.455L575,272.727L550,260.455L525,282.273L500,193.636L475,192.273L450,265.909L425,290.455L400,285L375,276.818L350,261.818L325,173.182L300,240L275,223.636L250,285L225,294.545L200,298.636L175,286.364L150,300L125,300L100,300L75,298.636L50,300L25,300L0,300Z" fill="#b279a2"/></g></g><path class="foreground" aria-hidden="true" d="" display="none"/></g><g transform="translate(0,0)"><path class="background" aria-hidden="true" d="M0,0h800v300h-800Z"/><g><g class="mark-area role-mark marks" role="graphics-object" aria-roledescription="area mark container"><path aria-label="Date: Mar 16, 2026; Unique Clones/day: 0; Repository: karlmdavis/hello-rust-actix" role="graphics-symbol" aria-roledescription="area mark" d="M0,300L25,300L50,300L75,298.636L100,300L125,300L150,300L175,286.364L200,298.636L225,294.545L250,285L275,223.636L300,240L325,173.182L350,261.818L375,276.818L400,285L425,290.455L450,265.909L475,192.273L500,193.636L525,282.273L550,260.455L575,272.727L600,260.455L625,286.364L650,275.455L675,260.455L700,218.182L725,290.455L750,287.727L775,294.545L800,295.909L800,295.909L775,294.545L750,287.727L725,290.455L700,220.909L675,261.818L650,275.455L625,286.364L600,261.818L575,272.727L550,260.455L525,282.273L500,193.636L475,193.636L450,265.909L425,290.455L400,285L375,278.182L350,261.818L325,173.182L300,240L275,225L250,285L225,294.545L200,298.636L175,286.364L150,300L125,300L100,300L75,298.636L50,300L25,300L0,300Z" fill="#ff9da6"/></g></g><path class="foreground" aria-hidden="true" d="" display="none"/></g><g transform="translate(0,0)"><path class="background" aria-hidden="true" d="M0,0h800v300h-800Z"/><g><g class="mark-area role-mark marks" role="graphics-object" aria-roledescription="area mark container"><path aria-label="Date: Mar 16, 2026; Unique Clones/day: 0; Repository: karlmdavis/jessentials" role="graphics-symbol" aria-roledescription="area mark" d="M0,300L25,300L50,300L75,298.636L100,300L125,300L150,300L175,286.364L200,298.636L225,294.545L250,285L275,225L300,240L325,173.182L350,261.818L375,278.182L400,285L425,290.455L450,265.909L475,193.636L500,193.636L525,282.273L550,260.455L575,272.727L600,261.818L625,286.364L650,275.455L675,261.818L700,220.909L725,290.455L750,287.727L775,294.545L800,295.909L800,295.909L775,294.545L750,287.727L725,290.455L700,223.636L675,261.818L650,276.818L625,286.364L600,264.545L575,283.636L550,260.455L525,282.273L500,193.636L475,195L450,265.909L425,290.455L400,285L375,278.182L350,263.182L325,173.182L300,240L275,226.364L250,285L225,294.545L200,298.636L175,287.727L150,300L125,300L100,300L75,298.636L50,300L25,300L0,300Z" fill="#9d755d"/></g></g><path class="foreground" aria-hidden="true" d="" display="none"/></g><g transform="translate(0,0)"><path class="background" aria-hidden="true" d="M0,0h800v300h-800Z"/><g><g class="mark-area role-mark marks" role="graphics-object" aria-roledescription="area mark container"><path aria-label="Date: Mar 16, 2026; Unique Clones/day: 0; Repository: karlmdavis/justdavis-ansible" role="graphics-symbol" aria-roledescription="area mark" d="M0,300L25,300L50,300L75,298.636L100,300L125,300L150,300L175,287.727L200,298.636L225,294.545L250,285L275,226.364L300,240L325,173.182L350,263.182L375,278.182L400,285L425,290.455L450,265.909L475,195L500,193.636L525,282.273L550,260.455L575,283.636L600,264.545L625,286.364L650,276.818L675,261.818L700,223.636L725,290.455L750,287.727L775,294.545L800,295.909L800,295.909L775,294.545L750,287.727L725,290.455L700,227.727L675,267.273L650,276.818L625,287.727L600,265.909L575,283.636L550,260.455L525,282.273L500,193.636L475,196.364L450,265.909L425,290.455L400,286.364L375,278.182L350,263.182L325,173.182L300,241.364L275,227.727L250,285L225,295.909L200,298.636L175,287.727L150,300L125,300L100,300L75,298.636L50,300L25,300L0,300Z" fill="#bab0ac"/></g></g><path class="foreground" aria-hidden="true" d="" display="none"/></g><g transform="translate(0,0)"><path class="background" aria-hidden="true" d="M0,0h800v300h-800Z"/><g><g class="mark-area role-mark marks" role="graphics-object" aria-roledescription="area mark container"><path aria-label="Date: Mar 16, 2026; Unique Clones/day: 0; Repository: karlmdavis/justdavis-finances" role="graphics-symbol" aria-roledescription="area mark" d="M0,300L25,300L50,300L75,298.636L100,300L125,300L150,300L175,287.727L200,298.636L225,295.909L250,285L275,227.727L300,241.364L325,173.182L350,263.182L375,278.182L400,286.364L425,290.455L450,265.909L475,196.364L500,193.636L525,282.273L550,260.455L575,283.636L600,265.909L625,287.727L650,276.818L675,267.273L700,227.727L725,290.455L750,287.727L775,294.545L800,295.909L800,295.909L775,294.545L750,289.091L725,293.182L700,248.182L675,290.455L650,279.545L625,287.727L600,267.273L575,285L550,283.636L525,293.182L500,295.909L475,274.091L450,293.182L425,291.818L400,287.727L375,279.545L350,283.636L325,289.091L300,291.818L275,270L250,286.364L225,297.273L200,298.636L175,287.727L150,300L125,300L100,300L75,298.636L50,300L25,300L0,300Z" fill="#4c78a8"/></g></g><path class="foreground" aria-hidden="true" d="" display="none"/></g><g transform="translate(0,0)"><path class="background" aria-hidden="true" d="M0,0h800v300h-800Z"/><g><g class="mark-area role-mark marks" role="graphics-object" aria-roledescription="area mark container"><path aria-label="Date: Mar 16, 2026; Unique Clones/day: 0; Repository: karlmdavis/justdavis-karl" role="graphics-symbol" aria-roledescription="area mark" d="M0,300L25,300L50,300L75,298.636L100,300L125,300L150,300L175,287.727L200,298.636L225,297.273L250,286.364L275,270L300,291.818L325,289.091L350,283.636L375,279.545L400,287.727L425,291.818L450,293.182L475,274.091L500,295.909L525,293.182L550,283.636L575,285L600,267.273L625,287.727L650,279.545L675,290.455L700,248.182L725,293.182L750,289.091L775,294.545L800,295.909L800,295.909L775,294.545L750,289.091L725,293.182L700,252.273L675,291.818L650,280.909L625,287.727L600,270L575,285L550,283.636L525,294.545L500,295.909L475,275.455L450,293.182L425,293.182L400,287.727L375,280.909L350,285L325,289.091L300,293.182L275,271.364L250,286.364L225,297.273L200,298.636L175,289.091L150,300L125,300L100,300L75,298.636L50,300L25,300L0,300Z" fill="#f58518"/></g></g><path class="foreground" aria-hidden="true" d="" display="none"/></g><g transform="translate(0,0)"><path class="background" aria-hidden="true" d="M0,0h800v300h-800Z"/><g><g class="mark-area role-mark marks" role="graphics-object" aria-roledescription="area mark container"><path aria-label="Date: Mar 16, 2026; Unique Clones/day: 0; Repository: karlmdavis/justdavis-puppet" role="graphics-symbol" aria-roledescription="area mark" d="M0,300L25,300L50,300L75,298.636L100,300L125,300L150,300L175,289.091L200,298.636L225,297.273L250,286.364L275,271.364L300,293.182L325,289.091L350,285L375,280.909L400,287.727L425,293.182L450,293.182L475,275.455L500,295.909L525,294.545L550,283.636L575,285L600,270L625,287.727L650,280.909L675,291.818L700,252.273L725,293.182L750,289.091L775,294.545L800,295.909L800,295.909L775,294.545L750,289.091L725,293.182L700,255L675,293.182L650,282.273L625,287.727L600,271.364L575,286.364L550,283.636L525,294.545L500,295.909L475,276.818L450,293.182L425,293.182L400,287.727L375,283.636L350,286.364L325,289.091L300,293.182L275,272.727L250,286.364L225,297.273L200,298.636L175,289.091L150,300L125,300L100,300L75,298.636L50,300L25,300L0,300Z" fill="#e45756"/></g></g><path class="foreground" aria-hidden="true" d="" display="none"/></g><g transform="translate(0,0)"><path class="background" aria-hidden="true" d="M0,0h800v300h-800Z"/><g><g class="mark-area role-mark marks" role="graphics-object" aria-roledescription="area mark container"><path aria-label="Date: Mar 16, 2026; Unique Clones/day: 0; Repository: karlmdavis/kobjects" role="graphics-symbol" aria-roledescription="area mark" d="M0,300L25,300L50,300L75,298.636L100,300L125,300L150,300L175,289.091L200,298.636L225,297.273L250,286.364L275,272.727L300,293.182L325,289.091L350,286.364L375,283.636L400,287.727L425,293.182L450,293.182L475,276.818L500,295.909L525,294.545L550,283.636L575,286.364L600,271.364L625,287.727L650,282.273L675,293.182L700,255L725,293.182L750,289.091L775,294.545L800,295.909L800,295.909L775,294.545L750,289.091L725,293.182L700,257.727L675,293.182L650,283.636L625,287.727L600,274.091L575,286.364L550,283.636L525,294.545L500,295.909L475,278.182L450,293.182L425,293.182L400,287.727L375,283.636L350,286.364L325,289.091L300,293.182L275,274.091L250,287.727L225,297.273L200,298.636L175,289.091L150,300L125,300L100,300L75,298.636L50,300L25,300L0,300Z" fill="#72b7b2"/></g></g><path class="foreground" aria-hidden="true" d="" display="none"/></g><g transform="translate(0,0)"><path class="background" aria-hidden="true" d="M0,0h800v300h-800Z"/><g><g class="mark-area role-mark marks" role="graphics-object" aria-roledescription="area mark container"><path aria-label="Date: Mar 16, 2026; Unique Clones/day: 0; Repository: karlmdavis/ksoap2-android" role="graphics-symbol" aria-roledescription="area mark" d="M0,300L25,300L50,300L75,298.636L100,300L125,300L150,300L175,289.091L200,298.636L225,297.273L250,287.727L275,274.091L300,293.182L325,289.091L350,286.364L375,283.636L400,287.727L425,293.182L450,293.182L475,278.182L500,295.909L525,294.545L550,283.636L575,286.364L600,274.091L625,287.727L650,283.636L675,293.182L700,257.727L725,293.182L750,289.091L775,294.545L800,295.909L800,295.909L775,294.545L750,291.818L725,293.182L700,260.455L675,293.182L650,285L625,291.818L600,275.455L575,294.545L550,290.455L525,295.909L500,295.909L475,282.273L450,293.182L425,294.545L400,289.091L375,285L350,291.818L325,291.818L300,293.182L275,275.455L250,291.818L225,297.273L200,298.636L175,290.455L150,300L125,300L100,300L75,298.636L50,300L25,300L0,300Z" fill="#54a24b"/></g></g><path class="foreground" aria-hidden="true" d="" display="none"/></g><g transform="translate(0,0)"><path class="background" aria-hidden="true" d="M0,0h800v300h-800Z"/><g><g class="mark-area role-mark marks" role="graphics-object" aria-roledescription="area mark container"><path aria-label="Date: Mar 16, 2026; Unique Clones/day: 0; Repository: karlmdavis/kxml2" role="graphics-symbol" aria-roledescription="area mark" d="M0,300L25,300L50,300L75,298.636L100,300L125,300L150,300L175,290.455L200,298.636L225,297.273L250,291.818L275,275.455L300,293.182L325,291.818L350,291.818L375,285L400,289.091L425,294.545L450,293.182L475,282.273L500,295.909L525,295.909L550,290.455L575,294.545L600,275.455L625,291.818L650,285L675,293.182L700,260.455L725,293.182L750,291.818L775,294.545L800,295.909L800,295.909L775,295.909L750,293.182L725,294.545L700,264.545L675,293.182L650,285L625,291.818L600,276.818L575,294.545L550,291.818L525,297.273L500,297.273L475,283.636L450,293.182L425,294.545L400,289.091L375,286.364L350,295.909L325,293.182L300,293.182L275,278.182L250,293.182L225,297.273L200,298.636L175,291.818L150,300L125,300L100,300L75,298.636L50,300L25,300L0,300Z" fill="#eeca3b"/></g></g><path class="foreground" aria-hidden="true" d="" display="none"/></g><g transform="translate(0,0)"><path class="background" aria-hidden="true" d="M0,0h800v300h-800Z"/><g><g class="mark-area role-mark marks" role="graphics-object" aria-roledescription="area mark container"><path aria-label="Date: Mar 16, 2026; Unique Clones/day: 0; Repository: karlmdavis/ldap-plugin" role="graphics-symbol" aria-roledescription="area mark" d="M0,300L25,300L50,300L75,298.636L100,300L125,300L150,300L175,291.818L200,298.636L225,297.273L250,293.182L275,278.182L300,293.182L325,293.182L350,295.909L375,286.364L400,289.091L425,294.545L450,293.182L475,283.636L500,297.273L525,297.273L550,291.818L575,294.545L600,276.818L625,291.818L650,285L675,293.182L700,264.545L725,294.545L750,293.182L775,295.909L800,295.909L800,295.909L775,295.909L750,293.182L725,294.545L700,264.545L675,293.182L650,285L625,291.818L600,276.818L575,294.545L550,291.818L525,297.273L500,297.273L475,283.636L450,294.545L425,295.909L400,289.091L375,286.364L350,295.909L325,293.182L300,293.182L275,278.182L250,293.182L225,297.273L200,298.636L175,291.818L150,300L125,300L100,300L75,298.636L50,300L25,300L0,300Z" fill="#b279a2"/></g></g><path class="foreground" aria-hidden="true" d="" display="none"/></g><g transform="translate(0,0)"><path class="background" aria-hidden="true" d="M0,0h800v300h-800Z"/><g><g class="mark-area role-mark marks" role="graphics-object" aria-roledescription="area mark container"><path aria-label="Date: Mar 16, 2026; Unique Clones/day: 0; Repository: karlmdavis/lego-ev3dev-rs" role="graphics-symbol" aria-roledescription="area mark" d="M0,300L25,300L50,300L75,298.636L100,300L125,300L150,300L175,291.818L200,298.636L225,297.273L250,293.182L275,278.182L300,293.182L325,293.182L350,295.909L375,286.364L400,289.091L425,295.909L450,294.545L475,283.636L500,297.273L525,297.273L550,291.818L575,294.545L600,276.818L625,291.818L650,285L675,293.182L700,264.545L725,294.545L750,293.182L775,295.909L800,295.909L800,297.273L775,295.909L750,294.545L725,294.545L700,268.636L675,293.182L650,287.727L625,291.818L600,279.545L575,294.545L550,293.182L525,297.273L500,298.636L475,285L450,295.909L425,295.909L400,290.455L375,289.091L350,295.909L325,294.545L300,294.545L275,282.273L250,293.182L225,298.636L200,298.636L175,293.182L150,300L125,300L100,300L75,298.636L50,300L25,300L0,300Z" fill="#ff9da6"/></g></g><path class="foreground" aria-hidden="true" d="" display="none"/></g><g transform="translate(0,0)"><path class="background" aria-hidden="true" d="M0,0h800v300h-800Z"/><g><g class="mark-area role-mark marks" role="graphics-object" aria-roledescription="area mark container"><path aria-label="Date: Mar 16, 2026; Unique Clones/day: 0; Repository: karlmdavis/liquibase" role="graphics-symbol" aria-roledescription="area mark" d="M0,300L25,300L50,300L75,298.636L100,300L125,300L150,300L175,293.182L200,298.636L225,298.636L250,293.182L275,282.273L300,294.545L325,294.545L350,295.909L375,289.091L400,290.455L425,295.909L450,295.909L475,285L500,298.636L525,297.273L550,293.182L575,294.545L600,279.545L625,291.818L650,287.727L675,293.182L700,268.636L725,294.545L750,294.545L775,295.909L800,297.273L800,297.273L775,295.909L750,294.545L725,294.545L700,268.636L675,293.182L650,287.727L625,293.182L600,280.909L575,294.545L550,293.182L525,297.273L500,298.636L475,285L450,295.909L425,295.909L400,290.455L375,289.091L350,295.909L325,294.545L300,294.545L275,282.273L250,293.182L225,298.636L200,298.636L175,293.182L150,300L125,300L100,300L75,300L50,300L25,300L0,300Z" fill="#9d755d"/></g></g><path class="foreground" aria-hidden="true" d="" display="none"/></g><g transform="translate(0,0)"><path class="background" aria-hidden="true" d="M0,0h800v300h-800Z"/><g><g class="mark-area role-mark marks" role="graphics-object" aria-roledescription="area mark container"><path aria-label="Date: Mar 16, 2026; Unique Clones/day: 0; Repository: karlmdavis/m2e-core" role="graphics-symbol" aria-roledescription="area mark" d="M0,300L25,300L50,300L75,300L100,300L125,300L150,300L175,293.182L200,298.636L225,298.636L250,293.182L275,282.273L300,294.545L325,294.545L350,295.909L375,289.091L400,290.455L425,295.909L450,295.909L475,285L500,298.636L525,297.273L550,293.182L575,294.545L600,280.909L625,293.182L650,287.727L675,293.182L700,268.636L725,294.545L750,294.545L775,295.909L800,297.273L800,297.273L775,295.909L750,294.545L725,294.545L700,271.364L675,293.182L650,289.091L625,294.545L600,283.636L575,295.909L550,294.545L525,297.273L500,298.636L475,286.364L450,295.909L425,295.909L400,290.455L375,289.091L350,295.909L325,295.909L300,294.545L275,283.636L250,293.182L225,298.636L200,298.636L175,293.182L150,300L125,300L100,300L75,300L50,300L25,300L0,300Z" fill="#bab0ac"/></g></g><path class="foreground" aria-hidden="true" d="" display="none"/></g><g transform="translate(0,0)"><path class="background" aria-hidden="true" d="M0,0h800v300h-800Z"/><g><g class="mark-area role-mark marks" role="graphics-object" aria-roledescription="area mark container"><path aria-label="Date: Mar 16, 2026; Unique Clones/day: 0; Repository: karlmdavis/m2e-core-tests" role="graphics-symbol" aria-roledescription="area mark" d="M0,300L25,300L50,300L75,300L100,300L125,300L150,300L175,293.182L200,298.636L225,298.636L250,293.182L275,283.636L300,294.545L325,295.909L350,295.909L375,289.091L400,290.455L425,295.909L450,295.909L475,286.364L500,298.636L525,297.273L550,294.545L575,295.909L600,283.636L625,294.545L650,289.091L675,293.182L700,271.364L725,294.545L750,294.545L775,295.909L800,297.273L800,297.273L775,295.909L750,294.545L725,294.545L700,271.364L675,294.545L650,289.091L625,297.273L600,285L575,297.273L550,295.909L525,297.273L500,298.636L475,286.364L450,295.909L425,295.909L400,293.182L375,289.091L350,295.909L325,295.909L300,295.909L275,283.636L250,294.545L225,298.636L200,298.636L175,293.182L150,300L125,300L100,300L75,300L50,300L25,300L0,300Z" fill="#4c78a8"/></g></g><path class="foreground" aria-hidden="true" d="" display="none"/></g><g transform="translate(0,0)"><path class="background" aria-hidden="true" d="M0,0h800v300h-800Z"/><g><g class="mark-area role-mark marks" role="graphics-object" aria-roledescription="area mark container"><path aria-label="Date: Mar 16, 2026; Unique Clones/day: 0; Repository: karlmdavis/obsidian-operator" role="graphics-symbol" aria-roledescription="area mark" d="M0,300L25,300L50,300L75,300L100,300L125,300L150,300L175,293.182L200,298.636L225,298.636L250,294.545L275,283.636L300,295.909L325,295.909L350,295.909L375,289.091L400,293.182L425,295.909L450,295.909L475,286.364L500,298.636L525,297.273L550,295.909L575,297.273L600,285L625,297.273L650,289.091L675,294.545L700,271.364L725,294.545L750,294.545L775,295.909L800,297.273L800,297.273L775,295.909L750,297.273L725,295.909L700,274.091L675,295.909L650,291.818L625,297.273L600,286.364L575,297.273L550,295.909L525,297.273L500,298.636L475,287.727L450,298.636L425,295.909L400,293.182L375,293.182L350,295.909L325,295.909L300,295.909L275,285L250,294.545L225,298.636L200,298.636L175,294.545L150,300L125,300L100,300L75,300L50,300L25,300L0,300Z" fill="#f58518"/></g></g><path class="foreground" aria-hidden="true" d="" display="none"/></g><g transform="translate(0,0)"><path class="background" aria-hidden="true" d="M0,0h800v300h-800Z"/><g><g class="mark-area role-mark marks" role="graphics-object" aria-roledescription="area mark container"><path aria-label="Date: Mar 16, 2026; Unique Clones/day: 0; Repository: karlmdavis/perfect-note" role="graphics-symbol" aria-roledescription="area mark" d="M0,300L25,300L50,300L75,300L100,300L125,300L150,300L175,294.545L200,298.636L225,298.636L250,294.545L275,285L300,295.909L325,295.909L350,295.909L375,293.182L400,293.182L425,295.909L450,298.636L475,287.727L500,298.636L525,297.273L550,295.909L575,297.273L600,286.364L625,297.273L650,291.818L675,295.909L700,274.091L725,295.909L750,297.273L775,295.909L800,297.273L800,297.273L775,295.909L750,297.273L725,297.273L700,276.818L675,295.909L650,291.818L625,297.273L600,287.727L575,297.273L550,295.909L525,297.273L500,298.636L475,289.091L450,298.636L425,295.909L400,293.182L375,293.182L350,295.909L325,295.909L300,297.273L275,286.364L250,295.909L225,298.636L200,298.636L175,294.545L150,300L125,300L100,300L75,300L50,300L25,300L0,300Z" fill="#e45756"/></g></g><path class="foreground" aria-hidden="true" d="" display="none"/></g><g transform="translate(0,0)"><path class="background" aria-hidden="true" d="M0,0h800v300h-800Z"/><g><g class="mark-area role-mark marks" role="graphics-object" aria-roledescription="area mark container"><path aria-label="Date: Mar 16, 2026; Unique Clones/day: 0; Repository: karlmdavis/puppet-archive" role="graphics-symbol" aria-roledescription="area mark" d="M0,300L25,300L50,300L75,300L100,300L125,300L150,300L175,294.545L200,298.636L225,298.636L250,295.909L275,286.364L300,297.273L325,295.909L350,295.909L375,293.182L400,293.182L425,295.909L450,298.636L475,289.091L500,298.636L525,297.273L550,295.909L575,297.273L600,287.727L625,297.273L650,291.818L675,295.909L700,276.818L725,297.273L750,297.273L775,295.909L800,297.273L800,297.273L775,295.909L750,297.273L725,297.273L700,276.818L675,295.909L650,293.182L625,297.273L600,289.091L575,297.273L550,295.909L525,297.273L500,298.636L475,289.091L450,298.636L425,295.909L400,293.182L375,293.182L350,295.909L325,295.909L300,297.273L275,286.364L250,295.909L225,298.636L200,298.636L175,295.909L150,300L125,300L100,300L75,300L50,300L25,300L0,300Z" fill="#72b7b2"/></g></g><path class="foreground" aria-hidden="true" d="" display="none"/></g><g transform="translate(0,0)"><path class="background" aria-hidden="true" d="M0,0h800v300h-800Z"/><g><g class="mark-area role-mark marks" role="graphics-object" aria-roledescription="area mark container"><path aria-label="Date: Mar 16, 2026; Unique Clones/day: 0; Repository: karlmdavis/puppet-sonar" role="graphics-symbol" aria-roledescription="area mark" d="M0,300L25,300L50,300L75,300L100,300L125,300L150,300L175,295.909L200,298.636L225,298.636L250,295.909L275,286.364L300,297.273L325,295.909L350,295.909L375,293.182L400,293.182L425,295.909L450,298.636L475,289.091L500,298.636L525,297.273L550,295.909L575,297.273L600,289.091L625,297.273L650,293.182L675,295.909L700,276.818L725,297.273L750,297.273L775,295.909L800,297.273L800,297.273L775,295.909L750,297.273L725,298.636L700,276.818L675,295.909L650,294.545L625,297.273L600,289.091L575,298.636L550,297.273L525,297.273L500,298.636L475,289.091L450,298.636L425,297.273L400,293.182L375,295.909L350,295.909L325,295.909L300,298.636L275,286.364L250,295.909L225,298.636L200,298.636L175,295.909L150,300L125,300L100,300L75,300L50,300L25,300L0,300Z" fill="#54a24b"/></g></g><path class="foreground" aria-hidden="true" d="" display="none"/></g><g transform="translate(0,0)"><path class="background" aria-hidden="true" d="M0,0h800v300h-800Z"/><g><g class="mark-area role-mark marks" role="graphics-object" aria-roledescription="area mark container"><path aria-label="Date: Mar 16, 2026; Unique Clones/day: 0; Repository: karlmdavis/rps-tourney" role="graphics-symbol" aria-roledescription="area mark" d="M0,300L25,300L50,300L75,300L100,300L125,300L150,300L175,295.909L200,298.636L225,298.636L250,295.909L275,286.364L300,298.636L325,295.909L350,295.909L375,295.909L400,293.182L425,297.273L450,298.636L475,289.091L500,298.636L525,297.273L550,297.273L575,298.636L600,289.091L625,297.273L650,294.545L675,295.909L700,276.818L725,298.636L750,297.273L775,295.909L800,297.273L800,297.273L775,295.909L750,297.273L725,298.636L700,279.545L675,295.909L650,295.909L625,297.273L600,290.455L575,298.636L550,297.273L525,297.273L500,298.636L475,290.455L450,298.636L425,298.636L400,293.182L375,295.909L350,295.909L325,295.909L300,298.636L275,287.727L250,295.909L225,298.636L200,298.636L175,297.273L150,300L125,300L100,300L75,300L50,300L25,300L0,300Z" fill="#eeca3b"/></g></g><path class="foreground" aria-hidden="true" d="" display="none"/></g><g transform="translate(0,0)"><path class="background" aria-hidden="true" d="M0,0h800v300h-800Z"/><g><g class="mark-area role-mark marks" role="graphics-object" aria-roledescription="area mark container"><path aria-label="Date: Mar 16, 2026; Unique Clones/day: 0; Repository: karlmdavis/sample-maven-and-rcp" role="graphics-symbol" aria-roledescription="area mark" d="M0,300L25,300L50,300L75,300L100,300L125,300L150,300L175,297.273L200,298.636L225,298.636L250,295.909L275,287.727L300,298.636L325,295.909L350,295.909L375,295.909L400,293.182L425,298.636L450,298.636L475,290.455L500,298.636L525,297.273L550,297.273L575,298.636L600,290.455L625,297.273L650,295.909L675,295.909L700,279.545L725,298.636L750,297.273L775,295.909L800,297.273L800,297.273L775,295.909L750,297.273L725,298.636L700,282.273L675,295.909L650,295.909L625,297.273L600,291.818L575,298.636L550,297.273L525,297.273L500,298.636L475,291.818L450,298.636L425,298.636L400,294.545L375,295.909L350,295.909L325,295.909L300,298.636L275,289.091L250,295.909L225,298.636L200,298.636L175,297.273L150,300L125,300L100,300L75,300L50,300L25,300L0,300Z" fill="#b279a2"/></g></g><path class="foreground" aria-hidden="true" d="" display="none"/></g><g transform="translate(0,0)"><path class="background" aria-hidden="true" d="M0,0h800v300h-800Z"/><g><g class="mark-area role-mark marks" role="graphics-object" aria-roledescription="area mark container"><path aria-label="Date: Mar 16, 2026; Unique Clones/day: 0; Repository: karlmdavis/stockfighter-trades-solutions" role="graphics-symbol" aria-roledescription="area mark" d="M0,300L25,300L50,300L75,300L100,300L125,300L150,300L175,297.273L200,298.636L225,298.636L250,295.909L275,289.091L300,298.636L325,295.909L350,295.909L375,295.909L400,294.545L425,298.636L450,298.636L475,291.818L500,298.636L525,297.273L550,297.273L575,298.636L600,291.818L625,297.273L650,295.909L675,295.909L700,282.273L725,298.636L750,297.273L775,295.909L800,297.273L800,297.273L775,295.909L750,297.273L725,298.636L700,286.364L675,295.909L650,295.909L625,297.273L600,293.182L575,298.636L550,297.273L525,297.273L500,298.636L475,293.182L450,298.636L425,298.636L400,294.545L375,295.909L350,295.909L325,297.273L300,298.636L275,291.818L250,295.909L225,298.636L200,298.636L175,297.273L150,300L125,300L100,300L75,300L50,300L25,300L0,300Z" fill="#ff9da6"/></g></g><path class="foreground" aria-hidden="true" d="" display="none"/></g><g transform="translate(0,0)"><path class="background" aria-hidden="true" d="M0,0h800v300h-800Z"/><g><g class="mark-area role-mark marks" role="graphics-object" aria-roledescription="area mark container"><path aria-label="Date: Mar 16, 2026; Unique Clones/day: 0; Repository: karlmdavis/test-repo-for-move" role="graphics-symbol" aria-roledescription="area mark" d="M0,300L25,300L50,300L75,300L100,300L125,300L150,300L175,297.273L200,298.636L225,298.636L250,295.909L275,291.818L300,298.636L325,297.273L350,295.909L375,295.909L400,294.545L425,298.636L450,298.636L475,293.182L500,298.636L525,297.273L550,297.273L575,298.636L600,293.182L625,297.273L650,295.909L675,295.909L700,286.364L725,298.636L750,297.273L775,295.909L800,297.273L800,297.273L775,297.273L750,297.273L725,298.636L700,289.091L675,295.909L650,295.909L625,297.273L600,294.545L575,298.636L550,297.273L525,297.273L500,298.636L475,294.545L450,298.636L425,298.636L400,294.545L375,295.909L350,295.909L325,298.636L300,298.636L275,293.182L250,297.273L225,298.636L200,298.636L175,297.273L150,300L125,300L100,300L75,300L50,300L25,300L0,300Z" fill="#9d755d"/></g></g><path class="foreground" aria-hidden="true" d="" display="none"/></g><g transform="translate(0,0)"><path class="background" aria-hidden="true" d="M0,0h800v300h-800Z"/><g><g class="mark-area role-mark marks" role="graphics-object" aria-roledescription="area mark container"><path aria-label="Date: Mar 16, 2026; Unique Clones/day: 0; Repository: karlmdavis/todoist-ai" role="graphics-symbol" aria-roledescription="area mark" d="M0,300L25,300L50,300L75,300L100,300L125,300L150,300L175,297.273L200,298.636L225,298.636L250,297.273L275,293.182L300,298.636L325,298.636L350,295.909L375,295.909L400,294.545L425,298.636L450,298.636L475,294.545L500,298.636L525,297.273L550,297.273L575,298.636L600,294.545L625,297.273L650,295.909L675,295.909L700,289.091L725,298.636L750,297.273L775,297.273L800,297.273L800,297.273L775,297.273L750,298.636L725,298.636L700,289.091L675,295.909L650,297.273L625,297.273L600,294.545L575,298.636L550,297.273L525,297.273L500,298.636L475,294.545L450,298.636L425,298.636L400,297.273L375,295.909L350,295.909L325,298.636L300,298.636L275,293.182L250,297.273L225,298.636L200,298.636L175,297.273L150,300L125,300L100,300L75,300L50,300L25,300L0,300Z" fill="#bab0ac"/></g></g><path class="foreground" aria-hidden="true" d="" display="none"/></g><g transform="translate(0,0)"><path class="background" aria-hidden="true" d="M0,0h800v300h-800Z"/><g><g class="mark-area role-mark marks" role="graphics-object" aria-roledescription="area mark container"><path aria-label="Date: Mar 16, 2026; Unique Clones/day: 0; Repository: karlmdavis/usgs-water-api-java" role="graphics-symbol" aria-roledescription="area mark" d="M0,300L25,300L50,300L75,300L100,300L125,300L150,300L175,297.273L200,298.636L225,298.636L250,297.273L275,293.182L300,298.636L325,298.636L350,295.909L375,295.909L400,297.273L425,298.636L450,298.636L475,294.545L500,298.636L525,297.273L550,297.273L575,298.636L600,294.545L625,297.273L650,297.273L675,295.909L700,289.091L725,298.636L750,298.636L775,297.273L800,297.273L800,298.636L775,300L750,300L725,300L700,293.182L675,300L650,298.636L625,298.636L600,297.273L575,300L550,298.636L525,300L500,300L475,297.273L450,300L425,300L400,298.636L375,297.273L350,298.636L325,300L300,300L275,295.909L250,300L225,300L200,300L175,300L150,300L125,300L100,300L75,300L50,300L25,300L0,300Z" fill="#4c78a8"/></g></g><path class="foreground" aria-hidden="true" d="" display="none"/></g><g transform="translate(0,0)"><path class="background" aria-hidden="true" d="M0,0h800v300h-800Z"/><g><g class="mark-area role-mark marks" role="graphics-object" aria-roledescription="area mark container"><path aria-label="Date: Mar 16, 2026; Unique Clones/day: 0; Repository: karlmdavis/workstation-base-ansible-role" role="graphics-symbol" aria-roledescription="area mark" d="M0,300L25,300L50,300L75,300L100,300L125,300L150,300L175,300L200,300L225,300L250,300L275,295.909L300,300L325,300L350,298.636L375,297.273L400,298.636L425,300L450,300L475,297.273L500,300L525,300L550,298.636L575,300L600,297.273L625,298.636L650,298.636L675,300L700,293.182L725,300L750,300L775,300L800,298.636L800,298.636L775,300L750,300L725,300L700,297.273L675,300L650,300L625,298.636L600,298.636L575,300L550,298.636L525,300L500,300L475,298.636L450,300L425,300L400,300L375,298.636L350,300L325,300L300,300L275,298.636L250,300L225,300L200,300L175,300L150,300L125,300L100,300L75,300L50,300L25,300L0,300Z" fill="#f58518"/></g></g><path class="foreground" aria-hidden="true" d="" display="none"/></g><g transform="translate(0,0)"><path class="background" aria-hidden="true" d="M0,0h800v300h-800Z"/><g><g class="mark-area role-mark marks" role="graphics-object" aria-roledescription="area mark container"><path aria-label="Date: Mar 16, 2026; Unique Clones/day: 0; Repository: karlmdavis/xmlpull" role="graphics-symbol" aria-roledescription="area mark" d="M0,300L25,300L50,300L75,300L100,300L125,300L150,300L175,300L200,300L225,300L250,300L275,298.636L300,300L325,300L350,300L375,298.636L400,300L425,300L450,300L475,298.636L500,300L525,300L550,298.636L575,300L600,298.636L625,298.636L650,300L675,300L700,297.273L725,300L750,300L775,300L800,298.636L800,300L775,300L750,300L725,300L700,300L675,300L650,300L625,300L600,300L575,300L550,300L525,300L500,300L475,300L450,300L425,300L400,300L375,300L350,300L325,300L300,300L275,300L250,300L225,300L200,300L175,300L150,300L125,300L100,300L75,300L50,300L25,300L0,300Z" fill="#e45756"/></g></g><path class="foreground" aria-hidden="true" d="" display="none"/></g></g><g class="mark-group role-legend" role="graphics-symbol" aria-roledescription="legend" aria-label="Symbol legend titled 'Repository' for fill color with 43 values: justdavis-family/github-analytics-data, justdavis-family/justdavis, karlmdavis/FHIR-Server, karlmdavis/ansible, karlmdavis/ansible-jenkins, ending with karlmdavis/xmlpull"><g transform="translate(818,0)"><path class="background" aria-hidden="true" d="M0,0h176v404h-176Z" pointer-events="none"/><g><g class="mark-group role-legend-entry"><g transform="translate(0,16)"><path class="background" aria-hidden="true" d="M0,0h0v0h0Z" pointer-events="none"/><g><g class="mark-group role-scope" role="graphics-object" aria-roledescription="group mark container"><g transform="translate(0,0)"><path class="background" aria-hidden="true" d="M0,0h176v11h-176Z" pointer-events="none" opacity="1"/><g><g class="mark-symbol role-legend-symbol" pointer-events="none"><path transform="translate(6,6)" d="M5,0A5,5,0,1,1,-5,0A5,5,0,1,1,5,0" fill="#4c78a8" stroke-width="1.5" opacity="1"/></g><g class="mark-text role-legend-label" pointer-events="none"><text text-anchor="start" transform="translate(16,9)" font-family="sans-serif" font-size="10px" fill="#000" opacity="1">justdavis-family/github-analytics-d…</text></g></g><path class="foreground" aria-hidden="true" d="" pointer-events="none" display="none"/></g><g transform="translate(0,13)"><path class="background" aria-hidden="true" d="M0,0h176v11h-176Z" pointer-events="none" opacity="1"/><g><g class="mark-symbol role-legend-symbol" pointer-events="none"><path transform="translate(6,6)" d="M5,0A5,5,0,1,1,-5,0A5,5,0,1,1,5,0" fill="#f58518" stroke-width="1.5" opacity="1"/></g><g class="mark-text role-legend-label" pointer-events="none"><text text-anchor="start" transform="translate(16,9)" font-family="sans-serif" font-size="10px" fill="#000" opacity="1">justdavis-family/justdavis</text></g></g><path class="foreground" aria-hidden="true" d="" pointer-events="none" display="none"/></g><g transform="translate(0,26)"><path class="background" aria-hidden="true" d="M0,0h176v11h-176Z" pointer-events="none" opacity="1"/><g><g class="mark-symbol role-legend-symbol" pointer-events="none"><path transform="translate(6,6)" d="M5,0A5,5,0,1,1,-5,0A5,5,0,1,1,5,0" fill="#e45756" stroke-width="1.5" opacity="1"/></g><g class="mark-text role-legend-label" pointer-events="none"><text text-anchor="start" transform="translate(16,9)" font-family="sans-serif" font-size="10px" fill="#000" opacity="1">karlmdavis/FHIR-Server</text></g></g><path class="foreground" aria-hidden="true" d="" pointer-events="none" display="none"/></g><g transform="translate(0,39)"><path class="background" aria-hidden="true" d="M0,0h176v11h-176Z" pointer-events="none" opacity="1"/><g><g class="mark-symbol role-legend-symbol" pointer-events="none"><path transform="translate(6,6)" d="M5,0A5,5,0,1,1,-5,0A5,5,0,1,1,5,0" fill="#72b7b2" stroke-width="1.5" opacity="1"/></g><g class="mark-text role-legend-label" pointer-events="none"><text text-anchor="start" transform="translate(16,9)" font-family="sans-serif" font-size="10px" fill="#000" opacity="1">karlmdavis/ansible</text></g></g><path class="foreground" aria-hidden="true" d="" pointer-events="none" display="none"/></g><g transform="translate(0,52)"><path class="background" aria-hidden="true" d="M0,0h176v11h-176Z" pointer-events="none" opacity="1"/><g><g class="mark-symbol role-legend-symbol" pointer-events="none"><path transform="translate(6,6)" d="M5,0A5,5,0,1,1,-5,0A5,5,0,1,1,5,0" fill="#54a24b" stroke-width="1.5" opacity="1"/></g><g class="mark-text role-legend-label" pointer-events="none"><text text-anchor="start" transform="translate(16,9)" font-family="sans-serif" font-size="10px" fill="#000" opacity="1">karlmdavis/ansible-jenkins</text></g></g><path class="foreground" aria-hidden="true" d="" pointer-events="none" display="none"/></g><g transform="translate(0,65)"><path class="background" aria-hidden="true" d="M0,0h176v11h-176Z" pointer-events="none" opacity="1"/><g><g class="mark-symbol role-legend-symbol" pointer-events="none"><path transform="translate(6,6)" d="M5,0A5,5,0,1,1,-5,0A5,5,0,1,1,5,0" fill="#eeca3b" stroke-width="1.5" opacity="1"/></g><g class="mark-text role-legend-label" pointer-events="none"><text text-anchor="start" transform="translate(16,9)" font-family="sans-serif" font-size="10px" fill="#000" opacity="1">karlmdavis/ansible-role-acmetool</text></g></g><path class="foreground" aria-hidden="true" d="" pointer-events="none" display="none"/></g><g transform="translate(0,78)"><path class="background" aria-hidden="true" d="M0,0h176v11h-176Z" pointer-events="none" opacity="1"/><g><g class="mark-symbol role-legend-symbol" pointer-events="none"><path transform="translate(6,6)" d="M5,0A5,5,0,1,1,-5,0A5,5,0,1,1,5,0" fill="#b279a2" stroke-width="1.5" opacity="1"/></g><g class="mark-text role-legend-label" pointer-events="none"><text text-anchor="start" transform="translate(16,9)" font-family="sans-serif" font-size="10px" fill="#000" opacity="1">karlmdavis/ansible-role-bind-dns</text></g></g><path class="foreground" aria-hidden="true" d="" pointer-events="none" display="none"/></g><g transform="translate(0,91)"><path class="background" aria-hidden="true" d="M0,0h176v11h-176Z" pointer-events="none" opacity="1"/><g><g class="mark-symbol role-legend-symbol" pointer-events="none"><path transform="translate(6,6)" d="M5,0A5,5,0,1,1,-5,0A5,5,0,1,1,5,0" fill="#ff9da6" stroke-width="1.5" opacity="1"/></g><g class="mark-text role-legend-label" pointer-events="none"><text text-anchor="start" transform="translate(16,9)" font-family="sans-serif" font-size="10px" fill="#000" opacity="1">karlmdavis/ansible-role-jenkins2</text></g></g><path class="foreground" aria-hidden="true" d="" pointer-events="none" display="none"/></g><g transform="translate(0,104)"><path class="background" aria-hidden="true" d="M0,0h176v11h-176Z" pointer-events="none" opacity="1"/><g><g class="mark-symbol role-legend-symbol" pointer-events="none"><path transform="translate(6,6)" d="M5,0A5,5,0,1,1,-5,0A5,5,0,1,1,5,0" fill="#9d755d" stroke-width="1.5" opacity="1"/></g><g class="mark-text role-legend-label" pointer-events="none"><text text-anchor="start" transform="translate(16,9)" font-family="sans-serif" font-size="10px" fill="#000" opacity="1">karlmdavis/ansible-role-ldap</text></g></g><path class="foreground" aria-hidden="true" d="" pointer-events="none" display="none"/></g><g transform="translate(0,117)"><path class="background" aria-hidden="true" d="M0,0h176v11h-176Z" pointer-events="none" opacity="1"/><g><g class="mark-symbol role-legend-symbol" pointer-events="none"><path transform="translate(6,6)" d="M5,0A5,5,0,1,1,-5,0A5,5,0,1,1,5,0" fill="#bab0ac" stroke-width="1.5" opacity="1"/></g><g class="mark-text role-legend-label" pointer-events="none"><text text-anchor="start" transform="translate(16,9)" font-family="sans-serif" font-size="10px" fill="#000" opacity="1">karlmdavis/ansible-role-rcm-dotfiles</text></g></g><path class="foreground" aria-hidden="true" d="" pointer-events="none" display="none"/></g><g transform="translate(0,130)"><path class="background" aria-hidden="true" d="M0,0h176v11h-176Z" pointer-events="none" opacity="1"/><g><g class="mark-symbol role-legend-symbol" pointer-events="none"><path transform="translate(6,6)" d="M5,0A5,5,0,1,1,-5,0A5,5,0,1,1,5,0" fill="#4c78a8" stroke-width="1.5" opacity="1"/></g><g class="mark-text role-legend-label" pointer-events="none"><text text-anchor="start" transform="translate(16,9)" font-family="sans-serif" font-size="10px" fill="#000" opacity="1">karlmdavis/ansible-roles</text></g></g><path class="foreground" aria-hidden="true" d="" pointer-events="none" display="none"/></g><g transform="translate(0,143)"><path class="background" aria-hidden="true" d="M0,0h176v11h-176Z" pointer-events="none" opacity="1"/><g><g class="mark-symbol role-legend-symbol" pointer-events="none"><path transform="translate(6,6)" d="M5,0A5,5,0,1,1,-5,0A5,5,0,1,1,5,0" fill="#f58518" stroke-width="1.5" opacity="1"/></g><g class="mark-text role-legend-label" pointer-events="none"><text text-anchor="start" transform="translate(16,9)" font-family="sans-serif" font-size="10px" fill="#000" opacity="1">karlmdavis/bbonfhir-dev-infra-doc…</text></g></g><path class="foreground" aria-hidden="true" d="" pointer-events="none" display="none"/></g><g transform="translate(0,156)"><path class="background" aria-hidden="true" d="M0,0h176v11h-176Z" pointer-events="none" opacity="1"/><g><g class="mark-symbol role-legend-symbol" pointer-events="none"><path transform="translate(6,6)" d="M5,0A5,5,0,1,1,-5,0A5,5,0,1,1,5,0" fill="#e45756" stroke-width="1.5" opacity="1"/></g><g class="mark-text role-legend-label" pointer-events="none"><text text-anchor="start" transform="translate(16,9)" font-family="sans-serif" font-size="10px" fill="#000" opacity="1">karlmdavis/can-i-kayak-baltimore</text></g></g><path class="foreground" aria-hidden="true" d="" pointer-events="none" display="none"/></g><g transform="translate(0,169)"><path class="background" aria-hidden="true" d="M0,0h176v11h-176Z" pointer-events="none" opacity="1"/><g><g class="mark-symbol role-legend-symbol" pointer-events="none"><path transform="translate(6,6)" d="M5,0A5,5,0,1,1,-5,0A5,5,0,1,1,5,0" fill="#72b7b2" stroke-width="1.5" opacity="1"/></g><g class="mark-text role-legend-label" pointer-events="none"><text text-anchor="start" transform="translate(16,9)" font-family="sans-serif" font-size="10px" fill="#000" opacity="1">karlmdavis/datanucleus-test-jdo-1…</text></g></g><path class="foreground" aria-hidden="true" d="" pointer-events="none" display="none"/></g><g transform="translate(0,182)"><path class="background" aria-hidden="true" d="M0,0h176v11h-176Z" pointer-events="none" opacity="1"/><g><g class="mark-symbol role-legend-symbol" pointer-events="none"><path transform="translate(6,6)" d="M5,0A5,5,0,1,1,-5,0A5,5,0,1,1,5,0" fill="#54a24b" stroke-width="1.5" opacity="1"/></g><g class="mark-text role-legend-label" pointer-events="none"><text text-anchor="start" transform="translate(16,9)" font-family="sans-serif" font-size="10px" fill="#000" opacity="1">karlmdavis/dotfiles</text></g></g><path class="foreground" aria-hidden="true" d="" pointer-events="none" display="none"/></g><g transform="translate(0,195)"><path class="background" aria-hidden="true" d="M0,0h176v11h-176Z" pointer-events="none" opacity="1"/><g><g class="mark-symbol role-legend-symbol" pointer-events="none"><path transform="translate(6,6)" d="M5,0A5,5,0,1,1,-5,0A5,5,0,1,1,5,0" fill="#eeca3b" stroke-width="1.5" opacity="1"/></g><g class="mark-text role-legend-label" pointer-events="none"><text text-anchor="start" transform="translate(16,9)" font-family="sans-serif" font-size="10px" fill="#000" opacity="1">karlmdavis/fhir-benchmarks</text></g></g><path class="foreground" aria-hidden="true" d="" pointer-events="none" display="none"/></g><g transform="translate(0,208)"><path class="background" aria-hidden="true" d="M0,0h176v11h-176Z" pointer-events="none" opacity="1"/><g><g class="mark-symbol role-legend-symbol" pointer-events="none"><path transform="translate(6,6)" d="M5,0A5,5,0,1,1,-5,0A5,5,0,1,1,5,0" fill="#b279a2" stroke-width="1.5" opacity="1"/></g><g class="mark-text role-legend-label" pointer-events="none"><text text-anchor="start" transform="translate(16,9)" font-family="sans-serif" font-size="10px" fill="#000" opacity="1">karlmdavis/hapi-fhir-jpaserver-sta…</text></g></g><path class="foreground" aria-hidden="true" d="" pointer-events="none" display="none"/></g><g transform="translate(0,221)"><path class="background" aria-hidden="true" d="M0,0h176v11h-176Z" pointer-events="none" opacity="1"/><g><g class="mark-symbol role-legend-symbol" pointer-events="none"><path transform="translate(6,6)" d="M5,0A5,5,0,1,1,-5,0A5,5,0,1,1,5,0" fill="#ff9da6" stroke-width="1.5" opacity="1"/></g><g class="mark-text role-legend-label" pointer-events="none"><text text-anchor="start" transform="translate(16,9)" font-family="sans-serif" font-size="10px" fill="#000" opacity="1">karlmdavis/hello-rust-actix</text></g></g><path class="foreground" aria-hidden="true" d="" pointer-events="none" display="none"/></g><g transform="translate(0,234)"><path class="background" aria-hidden="true" d="M0,0h176v11h-176Z" pointer-events="none" opacity="1"/><g><g class="mark-symbol role-legend-symbol" pointer-events="none"><path transform="translate(6,6)" d="M5,0A5,5,0,1,1,-5,0A5,5,0,1,1,5,0" fill="#9d755d" stroke-width="1.5" opacity="1"/></g><g class="mark-text role-legend-label" pointer-events="none"><text text-anchor="start" transform="translate(16,9)" font-family="sans-serif" font-size="10px" fill="#000" opacity="1">karlmdavis/jessentials</text></g></g><path class="foreground" aria-hidden="true" d="" pointer-events="none" display="none"/></g><g transform="translate(0,247)"><path class="background" aria-hidden="true" d="M0,0h176v11h-176Z" pointer-events="none" opacity="1"/><g><g class="mark-symbol role-legend-symbol" pointer-events="none"><path transform="translate(6,6)" d="M5,0A5,5,0,1,1,-5,0A5,5,0,1,1,5,0" fill="#bab0ac" stroke-width="1.5" opacity="1"/></g><g class="mark-text role-legend-label" pointer-events="none"><text text-anchor="start" transform="translate(16,9)" font-family="sans-serif" font-size="10px" fill="#000" opacity="1">karlmdavis/justdavis-ansible</text></g></g><path class="foreground" aria-hidden="true" d="" pointer-events="none" display="none"/></g><g transform="translate(0,260)"><path class="background" aria-hidden="true" d="M0,0h176v11h-176Z" pointer-events="none" opacity="1"/><g><g class="mark-symbol role-legend-symbol" pointer-events="none"><path transform="translate(6,6)" d="M5,0A5,5,0,1,1,-5,0A5,5,0,1,1,5,0" fill="#4c78a8" stroke-width="1.5" opacity="1"/></g><g class="mark-text role-legend-label" pointer-events="none"><text text-anchor="start" transform="translate(16,9)" font-family="sans-serif" font-size="10px" fill="#000" opacity="1">karlmdavis/justdavis-finances</text></g></g><path class="foreground" aria-hidden="true" d="" pointer-events="none" display="none"/></g><g transform="translate(0,273)"><path class="background" aria-hidden="true" d="M0,0h176v11h-176Z" pointer-events="none" opacity="1"/><g><g class="mark-symbol role-legend-symbol" pointer-events="none"><path transform="translate(6,6)" d="M5,0A5,5,0,1,1,-5,0A5,5,0,1,1,5,0" fill="#f58518" stroke-width="1.5" opacity="1"/></g><g class="mark-text role-legend-label" pointer-events="none"><text text-anchor="start" transform="translate(16,9)" font-family="sans-serif" font-size="10px" fill="#000" opacity="1">karlmdavis/justdavis-karl</text></g></g><path class="foreground" aria-hidden="true" d="" pointer-events="none" display="none"/></g><g transform="translate(0,286)"><path class="background" aria-hidden="true" d="M0,0h176v11h-176Z" pointer-events="none" opacity="1"/><g><g class="mark-symbol role-legend-symbol" pointer-events="none"><path transform="translate(6,6)" d="M5,0A5,5,0,1,1,-5,0A5,5,0,1,1,5,0" fill="#e45756" stroke-width="1.5" opacity="1"/></g><g class="mark-text role-legend-label" pointer-events="none"><text text-anchor="start" transform="translate(16,9)" font-family="sans-serif" font-size="10px" fill="#000" opacity="1">karlmdavis/justdavis-puppet</text></g></g><path class="foreground" aria-hidden="true" d="" pointer-events="none" display="none"/></g><g transform="translate(0,299)"><path class="background" aria-hidden="true" d="M0,0h176v11h-176Z" pointer-events="none" opacity="1"/><g><g class="mark-symbol role-legend-symbol" pointer-events="none"><path transform="translate(6,6)" d="M5,0A5,5,0,1,1,-5,0A5,5,0,1,1,5,0" fill="#72b7b2" stroke-width="1.5" opacity="1"/></g><g class="mark-text role-legend-label" pointer-events="none"><text text-anchor="start" transform="translate(16,9)" font-family="sans-serif" font-size="10px" fill="#000" opacity="1">karlmdavis/kobjects</text></g></g><path class="foreground" aria-hidden="true" d="" pointer-events="none" display="none"/></g><g transform="translate(0,312)"><path class="background" aria-hidden="true" d="M0,0h176v11h-176Z" pointer-events="none" opacity="1"/><g><g class="mark-symbol role-legend-symbol" pointer-events="none"><path transform="translate(6,6)" d="M5,0A5,5,0,1,1,-5,0A5,5,0,1,1,5,0" fill="#54a24b" stroke-width="1.5" opacity="1"/></g><g class="mark-text role-legend-label" pointer-events="none"><text text-anchor="start" transform="translate(16,9)" font-family="sans-serif" font-size="10px" fill="#000" opacity="1">karlmdavis/ksoap2-android</text></g></g><path class="foreground" aria-hidden="true" d="" pointer-events="none" display="none"/></g><g transform="translate(0,325)"><path class="background" aria-hidden="true" d="M0,0h176v11h-176Z" pointer-events="none" opacity="1"/><g><g class="mark-symbol role-legend-symbol" pointer-events="none"><path transform="translate(6,6)" d="M5,0A5,5,0,1,1,-5,0A5,5,0,1,1,5,0" fill="#eeca3b" stroke-width="1.5" opacity="1"/></g><g class="mark-text role-legend-label" pointer-events="none"><text text-anchor="start" transform="translate(16,9)" font-family="sans-serif" font-size="10px" fill="#000" opacity="1">karlmdavis/kxml2</text></g></g><path class="foreground" aria-hidden="true" d="" pointer-events="none" display="none"/></g><g transform="translate(0,338)"><path class="background" aria-hidden="true" d="M0,0h176v11h-176Z" pointer-events="none" opacity="1"/><g><g class="mark-symbol role-legend-symbol" pointer-events="none"><path transform="translate(6,6)" d="M5,0A5,5,0,1,1,-5,0A5,5,0,1,1,5,0" fill="#b279a2" stroke-width="1.5" opacity="1"/></g><g class="mark-text role-legend-label" pointer-events="none"><text text-anchor="start" transform="translate(16,9)" font-family="sans-serif" font-size="10px" fill="#000" opacity="1">karlmdavis/ldap-plugin</text></g></g><path class="foreground" aria-hidden="true" d="" pointer-events="none" display="none"/></g><g transform="translate(0,351)"><path class="background" aria-hidden="true" d="M0,0h176v11h-176Z" pointer-events="none" opacity="1"/><g><g class="mark-symbol role-legend-symbol" pointer-events="none"><path transform="translate(6,6)" d="M5,0A5,5,0,1,1,-5,0A5,5,0,1,1,5,0" fill="#ff9da6" stroke-width="1.5" opacity="1"/></g><g class="mark-text role-legend-label" pointer-events="none"><text text-anchor="start" transform="translate(16,9)" font-family="sans-serif" font-size="10px" fill="#000" opacity="1">karlmdavis/lego-ev3dev-rs</text></g></g><path class="foreground" aria-hidden="true" d="" pointer-events="none" display="none"/></g><g transform="translate(0,364)"><path class="background" aria-hidden="true" d="M0,0h176v11h-176Z" pointer-events="none" opacity="1"/><g><g class="mark-symbol role-legend-symbol" pointer-events="none"><path transform="translate(6,6)" d="M5,0A5,5,0,1,1,-5,0A5,5,0,1,1,5,0" fill="#9d755d" stroke-width="1.5" opacity="1"/></g><g class="mark-text role-legend-label" pointer-events="none"><text text-anchor="start" transform="translate(16,9)" font-family="sans-serif" font-size="10px" fill="#000" opacity="1">karlmdavis/liquibase</text></g></g><path class="foreground" aria-hidden="true" d="" pointer-events="none" display="none"/></g><g transform="translate(0,377)"><path class="background" aria-hidden="true" d="M0,0h176v11h-176Z" pointer-events="none" opacity="1"/><g><g class="mark-symbol role-legend-symbol" pointer-events="none"><path transform="translate(6,6)" d="M5,0A5,5,0,1,1,-5,0A5,5,0,1,1,5,0" fill="#bab0ac" stroke-width="1.5" opacity="1"/></g><g class="mark-text role-legend-label" pointer-events="none"><text text-anchor="start" transform="translate(16,9)" font-family="sans-serif" font-size="10px" fill="#000" opacity="1">…14 entries</text></g></g><path class="foreground" aria-hidden="true" d="" pointer-events="none" display="none"/></g></g></g><path class="foreground" aria-hidden="true" d="" pointer-events="none" display="none"/></g></g><g class="mark-text role-legend-title" pointer-events="none"><text text-anchor="start" transform="translate(0,9)" font-family="sans-serif" font-size="11px" font-weight="bold" fill="#000" opacity="1">Repository</text></g></g><path class="foreground" aria-hidden="true" d="" pointer-events="none" display="none"/></g></g><g class="mark-group role-title"><g transform="translate(400,-22)"><path class="background" aria-hidden="true" d="M0,0h0v0h0Z" pointer-events="none"/><g><g class="mark-text role-title-text" role="graphics-symbol" aria-roledescription="title" aria-label="Title text 'Unique Clones per Day'" pointer-events="none"><text text-anchor="middle" transform="translate(0,10)" font-family="sans-serif" font-size="13px" font-weight="bold" fill="#000" opacity="1">Unique Clones per Day</text></g></g><path class="foreground" aria-hidden="true" d="" pointer-events="none" display="none"/></g></g></g><path class="foreground" aria-hidden="true" d="" display="none"/></g></g></g></svg>