<svg xmlns="http://www.w3.org/2000/svg" xmlns:xlink="http://www.w3.org/1999/xlink" version="1.1" class="marks" width="1032" height="436" viewBox="0 0 1032 436"><rect width="1032" height="436" fill="white"/><g fill="none" stroke-miterlimit="10" transform="translate(33,27)"><g class="mark-group role-frame root" role="graphics-object" aria-roledescription="group mark container"><g transform="translate(0,0)"><path class="background" aria-hidden="true" d="M0.5,0.5h800v300h-800Z" stroke="#ddd"/><g><g class="mark-group role-axis" aria-hidden="true"><g transform="translate(0.5,300.5)"><path class="background" aria-hidden="true" d="M0,0h0v0h0Z" pointer-events="none"/><g><g class="mark-rule role-axis-grid" pointer-events="none"><line transform="translate(22,-300)" x2="0" y2="300" stroke="#ddd" stroke-width="1" opacity="1"/><line transform="translate(65,-300)" x2="0" y2="300" stroke="#ddd" stroke-width="1" opacity="1"/><line transform="translate(108,-300)" x2="0" y2="300" stroke="#ddd" stroke-width="1" opacity="1"/><line transform="translate(151,-300)" x2="0" y2="300" stroke="#ddd" stroke-width="1" opacity="1"/><line transform="translate(195,-300)" x2="0" y2="300" stroke="#ddd" stroke-width="1" opacity="1"/><line transform="translate(238,-300)" x2="0" y2="300" stroke="#ddd" stroke-width="1" opacity="1"/><line transform="translate(281,-300)" x2="0" y2="300" stroke="#ddd" stroke-width="1" opacity="1"/><line transform="translate(324,-300)" x2="0" y2="300" stroke="#ddd" stroke-width="1" opacity="1"/><line transform="translate(346,-300)" x2="0" y2="300" stroke="#ddd" stroke-width="1" opacity="1"/><line transform="translate(389,-300)" x2="0" y2="300" stroke="#ddd" stroke-width="1" opacity="1"/><line transform="translate(432,-300)" x2="0" y2="300" stroke="#ddd" stroke-width="1" opacity="1"/><line transform="translate(476,-300)" x2="0" y2="300" stroke="#ddd" stroke-width="1" opacity="1"/><line transform="translate(519,-300)" x2="0" y2="300" stroke="#ddd" stroke-width="1" opacity="1"/><line transform="translate(562,-300)" x2="0" y2="300" stroke="#ddd" stroke-width="1" opacity="1"/><line transform="translate(605,-300)" x2="0" y2="300" stroke="#ddd" stroke-width="1" opacity="1"/><line transform="translate(649,-300)" x2="0" y2="300" stroke="#ddd" stroke-width="1" opacity="1"/><line transform="translate(692,-300)" x2="0" y2="300" stroke="#ddd" stroke-width="1" opacity="1"/><line transform="translate(735,-300)" x2="0" y2="300" stroke="#ddd" stroke-width="1" opacity="1"/><line transform="translate(778,-300)" x2="0" y2="300" stroke="#ddd" stroke-width="1" opacity="1"/></g></g><path class="foreground" aria-hidden="true" d="" pointer-events="none" display="none"/></g></g><g class="mark-group role-axis" aria-hidden="true"><g transform="translate(0.5,0.5)"><path class="background" aria-hidden="true" d="M0,0h0v0h0Z" pointer-events="none"/><g><g class="mark-rule role-axis-grid" pointer-events="none"><line transform="translate(0,300)" x2="800" y2="0" stroke="#ddd" stroke-width="1" opacity="1"/><line transform="translate(0,263)" x2="800" y2="0" stroke="#ddd" stroke-width="1" opacity="1"/><line transform="translate(0,225)" x2="800" y2="0" stroke="#ddd" stroke-width="1" opacity="1"/><line transform="translate(0,188)" x2="800" y2="0" stroke="#ddd" stroke-width="1" opacity="1"/><line transform="translate(0,150)" x2="800" y2="0" stroke="#ddd" stroke-width="1" opacity="1"/><line transform="translate(0,113)" x2="800" y2="0" stroke="#ddd" stroke-width="1" opacity="1"/><line transform="translate(0,75)" x2="800" y2="0" stroke="#ddd" stroke-width="1" opacity="1"/><line transform="translate(0,38)" x2="800" y2="0" stroke="#ddd" stroke-width="1" opacity="1"/><line transform="translate(0,0)" x2="800" y2="0" stroke="#ddd" stroke-width="1" opacity="1"/></g></g><path class="foreground" aria-hidden="true" d="" pointer-events="none" display="none"/></g></g><g class="mark-group role-axis" role="graphics-symbol" aria-roledescription="axis" aria-label="X-axis titled 'Date' for a time scale with values from Monday, 16 March 2026, 12:00:00 AM to Wednesday, 22 April 2026, 12:00:00 AM"><g transform="translate(0.5,300.5)"><path class="background" aria-hidden="true" d="M0,0h0v0h0Z" pointer-events="none"/><g><g class="mark-rule role-axis-tick" pointer-events="none"><line transform="translate(22,0)" x2="0" y2="5" stroke="#888" stroke-width="1" opacity="1"/><line transform="translate(65,0)" x2="0" y2="5" stroke="#888" stroke-width="1" opacity="1"/><line transform="translate(108,0)" x2="0" y2="5" stroke="#888" stroke-width="1" opacity="1"/><line transform="translate(151,0)" x2="0" y2="5" stroke="#888" stroke-width="1" opacity="1"/><line transform="translate(195,0)" x2="0" y2="5" stroke="#888" stroke-width="1" opacity="1"/><line transform="translate(238,0)" x2="0" y2="5" stroke="#888" stroke-width="1" opacity="1"/><line transform="translate(281,0)" x2="0" y2="5" stroke="#888" stroke-width="1" opacity="1"/><line transform="translate(324,0)" x2="0" y2="5" stroke="#888" stroke-width="1" opacity="1"/><line transform="translate(346,0)" x2="0" y2="5" stroke="#888" stroke-width="1" opacity="1"/><line transform="translate(389,0)" x2="0" y2="5" stroke="#888" stroke-width="1" opacity="1"/><line transform="translate(432,0)" x2="0" y2="5" stroke="#888" stroke-width="1" opacity="1"/><line transform="translate(476,0)" x2="0" y2="5" stroke="#888" stroke-width="1" opacity="1"/><line transform="translate(519,0)" x2="0" y2="5" stroke="#888" stroke-width="1" opacity="1"/><line transform="translate(562,0)" x2="0" y2="5" stroke="#888" stroke-width="1" opacity="1"/><line transform="translate(605,0)" x2="0" y2="5" stroke="#888" stroke-width="1" opacity="1"/><line transform="translate(649,0)" x2="0" y2="5" stroke="#888" stroke-width="1" opacity="1"/><line transform="translate(692,0)" x2="0" y2="5" stroke="#888" stroke-width="1" opacity="1"/><line transform="translate(735,0)" x2="0" y2="5" stroke="#888" stroke-width="1" opacity="1"/><line transform="translate(778,0)" x2="0" y2="5" stroke="#888" stroke-width="1" opacity="1"/></g><g class="mark-text role-axis-label" pointer-events="none"><text text-anchor="middle" transform="translate(21.62162162162162,15)" font-family="sans-serif" font-size="10px" fill="#000" opacity="1">Tue 17</text><text text-anchor="middle" transform="translate(64.86486486486487,15)" font-family="sans-serif" font-size="10px" fill="#000" opacity="0">Thu 19</text><text text-anchor="middle" transform="translate(108.10810810810811,15)" font-family="sans-serif" font-size="10px" fill="#000" opacity="1">Sat 21</text><text text-anchor="middle" transform="translate(151.35135135135135,15)" font-family="sans-serif" font-size="10px" fill="#000" opacity="0">Mon 23</text><text text-anchor="middle" transform="translate(194.5945945945946,15)" font-family="sans-serif" font-size="10px" fill="#000" opacity="1">Wed 25</text><text text-anchor="middle" transform="translate(237.83783783783784,15)" font-family="sans-serif" font-size="10px" fill="#000" opacity="0">Fri 27</text><text text-anchor="middle" transform="translate(281.0810810810811,15)" font-family="sans-serif" font-size="10px" fill="#000" opacity="1">Mar 29</text><text text-anchor="middle" transform="translate(324.3243243243243,15)" font-family="sans-serif" font-size="10px" fill="#000" opacity="0">Tue 31</text><text text-anchor="middle" transform="translate(345.94594594594594,15)" font-family="sans-serif" font-size="10px" fill="#000" opacity="1">April</text><text text-anchor="middle" transform="translate(389.1891891891892,15)" font-family="sans-serif" font-size="10px" fill="#000" opacity="0">Fri 03</text><text text-anchor="middle" transform="translate(432.43243243243245,15)" font-family="sans-serif" font-size="10px" fill="#000" opacity="1">Apr 05</text><text text-anchor="middle" transform="translate(475.6756756756757,15)" font-family="sans-serif" font-size="10px" fill="#000" opacity="0">Tue 07</text><text text-anchor="middle" transform="translate(518.918918918919,15)" font-family="sans-serif" font-size="10px" fill="#000" opacity="1">Thu 09</text><text text-anchor="middle" transform="translate(562.1621621621622,15)" font-family="sans-serif" font-size="10px" fill="#000" opacity="0">Sat 11</text><text text-anchor="middle" transform="translate(605.4054054054054,15)" font-family="sans-serif" font-size="10px" fill="#000" opacity="1">Mon 13</text><text text-anchor="middle" transform="translate(648.6486486486486,15)" font-family="sans-serif" font-size="10px" fill="#000" opacity="0">Wed 15</text><text text-anchor="middle" transform="translate(691.8918918918919,15)" font-family="sans-serif" font-size="10px" fill="#000" opacity="1">Fri 17</text><text text-anchor="middle" transform="translate(735.1351351351352,15)" font-family="sans-serif" font-size="10px" fill="#000" opacity="0">Apr 19</text><text text-anchor="middle" transform="translate(778.3783783783784,15)" font-family="sans-serif" font-size="10px" fill="#000" opacity="1">Tue 21</text></g><g class="mark-rule role-axis-domain" pointer-events="none"><line transform="translate(0,0)" x2="800" y2="0" stroke="#888" stroke-width="1" opacity="1"/></g><g class="mark-text role-axis-title" pointer-events="none"><text text-anchor="middle" transform="translate(400,30)" font-family="sans-serif" font-size="11px" font-weight="bold" fill="#000" opacity="1">Date</text></g></g><path class="foreground" aria-hidden="true" d="" pointer-events="none" display="none"/></g></g><g class="mark-group role-axis" role="graphics-symbol" aria-roledescription="axis" aria-label="Y-axis titled 'Unique Visitors/day' for a linear scale with values from 0 to 8"><g transform="translate(0.5,0.5)"><path class="background" aria-hidden="true" d="M0,0h0v0h0Z" pointer-events="none"/><g><g class="mark-rule role-axis-tick" pointer-events="none"><line transform="translate(0,300)" x2="-5" y2="0" stroke="#888" stroke-width="1" opacity="1"/><line transform="translate(0,263)" x2="-5" y2="0" stroke="#888" stroke-width="1" opacity="1"/><line transform="translate(0,225)" x2="-5" y2="0" stroke="#888" stroke-width="1" opacity="1"/><line transform="translate(0,188)" x2="-5" y2="0" stroke="#888" stroke-width="1" opacity="1"/><line transform="translate(0,150)" x2="-5" y2="0" stroke="#888" stroke-width="1" opacity="1"/><line transform="translate(0,113)" x2="-5" y2="0" stroke="#888" stroke-width="1" opacity="1"/><line transform="translate(0,75)" x2="-5" y2="0" stroke="#888" stroke-width="1" opacity="1"/><line transform="translate(0,38)" x2="-5" y2="0" stroke="#888" stroke-width="1" opacity="1"/><line transform="translate(0,0)" x2="-5" y2="0" stroke="#888" stroke-width="1" opacity="1"/></g><g class="mark-text role-axis-label" pointer-events="none"><text text-anchor="end" transform="translate(-7,303)" font-family="sans-serif" font-size="10px" fill="#000" opacity="1">0</text><text text-anchor="end" transform="translate(-7,265.5)" font-family="sans-serif" font-size="10px" fill="#000" opacity="1">1</text><text text-anchor="end" transform="translate(-7,228)" font-family="sans-serif" font-size="10px" fill="#000" opacity="1">2</text><text text-anchor="end" transform="translate(-7,190.5)" font-family="sans-serif" font-size="10px" fill="#000" opacity="1">3</text><text text-anchor="end" transform="translate(-7,153)" font-family="sans-serif" font-size="10px" fill="#000" opacity="1">4</text><text text-anchor="end" transform="translate(-7,115.5)" font-family="sans-serif" font-size="10px" fill="#000" opacity="1">5</text><text text-anchor="end" transform="translate(-7,78)" font-family="sans-serif" font-size="10px" fill="#000" opacity="1">6</text><text text-anchor="end" transform="translate(-7,40.5)" font-family="sans-serif" font-size="10px" fill="#000" opacity="1">7</text><text text-anchor="end" transform="translate(-7,3)" font-family="sans-serif" font-size="10px" fill="#000" opacity="1">8</text></g><g class="mark-rule role-axis-domain" pointer-events="none"><line transform="translate(0,300)" x2="0" y2="-300" stroke="#888" stroke-width="1" opacity="1"/></g><g class="mark-text role-axis-title" pointer-events="none"><text text-anchor="middle" transform="translate(-16.5615234375,150) rotate(-90) translate(0,-2)" font-family="sans-serif" font-size="11px" font-weight="bold" fill="#000" opacity="1">Unique Visitors/day</text></g></g><path class="foreground" aria-hidden="true" d="" pointer-events="none" display="none"/></g></g><g class="mark-group role-scope pathgroup" role="graphics-object" aria-roledescription="group mark container"><g transform="translate(0,0)"><path class="background" aria-hidden="true" d="M0,0h800v300h-800Z"/><g><g class="mark-area role-mark marks" role="graphics-object" aria-roledescription="area mark container"><path aria-label="Date: Mar 16, 2026; Unique Visitors/day: 0; Repository: justdavis-family/github-analytics-data" role="graphics-symbol" aria-roledescription="area mark" d="M0,300L21.622,300L43.243,300L64.865,300L86.486,300L108.108,300L129.73,300L151.351,187.5L172.973,187.5L194.595,150L216.216,187.5L237.838,187.5L259.459,187.5L281.081,262.5L302.703,0L324.324,262.5L345.946,150L367.568,262.5L389.189,300L410.811,225L432.432,262.5L454.054,300L475.676,187.5L497.297,262.5L518.919,262.5L540.541,225L562.162,300L583.784,75L605.405,300L627.027,262.5L648.649,187.5L670.27,262.5L691.892,225L713.514,300L735.135,262.5L756.757,187.5L778.378,187.5L800,150L800,150L778.378,187.5L756.757,187.5L735.135,262.5L713.514,300L691.892,225L670.27,300L648.649,187.5L627.027,262.5L605.405,300L583.784,75L562.162,300L540.541,225L518.919,262.5L497.297,262.5L475.676,187.5L454.054,300L432.432,262.5L410.811,225L389.189,300L367.568,262.5L345.946,150L324.324,262.5L302.703,0L281.081,262.5L259.459,187.5L237.838,187.5L216.216,187.5L194.595,150L172.973,187.5L151.351,187.5L129.73,300L108.108,300L86.486,300L64.865,300L43.243,300L21.622,300L0,300Z" fill="#4c78a8"/></g></g><path class="foreground" aria-hidden="true" d="" display="none"/></g><g transform="translate(0,0)"><path class="background" aria-hidden="true" d="M0,0h800v300h-800Z"/><g><g class="mark-area role-mark marks" role="graphics-object" aria-roledescription="area mark container"><path aria-label="Date: Mar 16, 2026; Unique Visitors/day: 0; Repository: justdavis-family/justdavis" role="graphics-symbol" aria-roledescription="area mark" d="M0,300L21.622,300L43.243,300L64.865,300L86.486,300L108.108,300L129.73,300L151.351,187.5L172.973,187.5L194.595,150L216.216,187.5L237.838,187.5L259.459,187.5L281.081,262.5L302.703,0L324.324,262.5L345.946,150L367.568,262.5L389.189,300L410.811,225L432.432,262.5L454.054,300L475.676,187.5L497.297,262.5L518.919,262.5L540.541,225L562.162,300L583.784,75L605.405,300L627.027,262.5L648.649,187.5L670.27,300L691.892,225L713.514,300L735.135,262.5L756.757,187.5L778.378,187.5L800,150L800,187.5L778.378,187.5L756.757,187.5L735.135,262.5L713.514,300L691.892,225L670.27,300L648.649,187.5L627.027,262.5L605.405,300L583.784,75L562.162,300L540.541,225L518.919,262.5L497.297,262.5L475.676,262.5L454.054,300L432.432,262.5L410.811,225L389.189,300L367.568,262.5L345.946,150L324.324,262.5L302.703,37.5L281.081,262.5L259.459,187.5L237.838,187.5L216.216,187.5L194.595,150L172.973,187.5L151.351,187.5L129.73,300L108.108,300L86.486,300L64.865,300L43.243,300L21.622,300L0,300Z" fill="#f58518"/></g></g><path class="foreground" aria-hidden="true" d="" display="none"/></g><g transform="translate(0,0)"><path class="background" aria-hidden="true" d="M0,0h800v300h-800Z"/><g><g class="mark-area role-mark marks" role="graphics-object" aria-roledescription="area mark container"><path aria-label="Date: Mar 16, 2026; Unique Visitors/day: 0; Repository: karlmdavis/FHIR-Server" role="graphics-symbol" aria-roledescription="area mark" d="M0,300L21.622,300L43.243,300L64.865,300L86.486,300L108.108,300L129.73,300L151.351,187.5L172.973,187.5L194.595,150L216.216,187.5L237.838,187.5L259.459,187.5L281.081,262.5L302.703,37.5L324.324,262.5L345.946,150L367.568,262.5L389.189,300L410.811,225L432.432,262.5L454.054,300L475.676,262.5L497.297,262.5L518.919,262.5L540.541,225L562.162,300L583.784,75L605.405,300L627.027,262.5L648.649,187.5L670.27,300L691.892,225L713.514,300L735.135,262.5L756.757,187.5L778.378,187.5L800,187.5L800,187.5L778.378,187.5L756.757,187.5L735.135,262.5L713.514,300L691.892,225L670.27,300L648.649,187.5L627.027,262.5L605.405,300L583.784,75L562.162,300L540.541,225L518.919,262.5L497.297,262.5L475.676,262.5L454.054,300L432.432,262.5L410.811,225L389.189,300L367.568,262.5L345.946,150L324.324,262.5L302.703,37.5L281.081,262.5L259.459,187.5L237.838,187.5L216.216,187.5L194.595,150L172.973,187.5L151.351,187.5L129.73,300L108.108,300L86.486,300L64.865,300L43.243,300L21.622,300L0,300Z" fill="#e45756"/></g></g><path class="foreground" aria-hidden="true" d="" display="none"/></g><g transform="translate(0,0)"><path class="background" aria-hidden="true" d="M0,0h800v300h-800Z"/><g><g class="mark-area role-mark marks" role="graphics-object" aria-roledescription="area mark container"><path aria-label="Date: Mar 16, 2026; Unique Visitors/day: 0; Repository: karlmdavis/ansible" role="graphics-symbol" aria-roledescription="area mark" d="M0,300L21.622,300L43.243,300L64.865,300L86.486,300L108.108,300L129.73,300L151.351,187.5L172.973,187.5L194.595,150L216.216,187.5L237.838,187.5L259.459,187.5L281.081,262.5L302.703,37.5L324.324,262.5L345.946,150L367.568,262.5L389.189,300L410.811,225L432.432,262.5L454.054,300L475.676,262.5L497.297,262.5L518.919,262.5L540.541,225L562.162,300L583.784,75L605.405,300L627.027,262.5L648.649,187.5L670.27,300L691.892,225L713.514,300L735.135,262.5L756.757,187.5L778.378,187.5L800,187.5L800,187.5L778.378,187.5L756.757,187.5L735.135,262.5L713.514,300L691.892,225L670.27,300L648.649,187.5L627.027,262.5L605.405,300L583.784,75L562.162,300L540.541,225L518.919,262.5L497.297,262.5L475.676,262.5L454.054,300L432.432,262.5L410.811,225L389.189,300L367.568,262.5L345.946,150L324.324,262.5L302.703,37.5L281.081,262.5L259.459,187.5L237.838,187.5L216.216,187.5L194.595,150L172.973,187.5L151.351,187.5L129.73,300L108.108,300L86.486,300L64.865,300L43.243,300L21.622,300L0,300Z" fill="#72b7b2"/></g></g><path class="foreground" aria-hidden="true" d="" display="none"/></g><g transform="translate(0,0)"><path class="background" aria-hidden="true" d="M0,0h800v300h-800Z"/><g><g class="mark-area role-mark marks" role="graphics-object" aria-roledescription="area mark container"><path aria-label="Date: Mar 16, 2026; Unique Visitors/day: 0; Repository: karlmdavis/ansible-jenkins" role="graphics-symbol" aria-roledescription="area mark" d="M0,300L21.622,300L43.243,300L64.865,300L86.486,300L108.108,300L129.73,300L151.351,187.5L172.973,187.5L194.595,150L216.216,187.5L237.838,187.5L259.459,187.5L281.081,262.5L302.703,37.5L324.324,262.5L345.946,150L367.568,262.5L389.189,300L410.811,225L432.432,262.5L454.054,300L475.676,262.5L497.297,262.5L518.919,262.5L540.541,225L562.162,300L583.784,75L605.405,300L627.027,262.5L648.649,187.5L670.27,300L691.892,225L713.514,300L735.135,262.5L756.757,187.5L778.378,187.5L800,187.5L800,187.5L778.378,187.5L756.757,187.5L735.135,262.5L713.514,300L691.892,225L670.27,300L648.649,187.5L627.027,262.5L605.405,300L583.784,75L562.162,300L540.541,225L518.919,262.5L497.297,262.5L475.676,262.5L454.054,300L432.432,262.5L410.811,225L389.189,300L367.568,262.5L345.946,150L324.324,262.5L302.703,37.5L281.081,262.5L259.459,187.5L237.838,187.5L216.216,187.5L194.595,150L172.973,187.5L151.351,187.5L129.73,300L108.108,300L86.486,300L64.865,300L43.243,300L21.622,300L0,300Z" fill="#54a24b"/></g></g><path class="foreground" aria-hidden="true" d="" display="none"/></g><g transform="translate(0,0)"><path class="background" aria-hidden="true" d="M0,0h800v300h-800Z"/><g><g class="mark-area role-mark marks" role="graphics-object" aria-roledescription="area mark container"><path aria-label="Date: Mar 16, 2026; Unique Visitors/day: 0; Repository: karlmdavis/ansible-role-acmetool" role="graphics-symbol" aria-roledescription="area mark" d="M0,300L21.622,300L43.243,300L64.865,300L86.486,300L108.108,300L129.73,300L151.351,187.5L172.973,187.5L194.595,150L216.216,187.5L237.838,187.5L259.459,187.5L281.081,262.5L302.703,37.5L324.324,262.5L345.946,150L367.568,262.5L389.189,300L410.811,225L432.432,262.5L454.054,300L475.676,262.5L497.297,262.5L518.919,262.5L540.541,225L562.162,300L583.784,75L605.405,300L627.027,262.5L648.649,187.5L670.27,300L691.892,225L713.514,300L735.135,262.5L756.757,187.5L778.378,187.5L800,187.5L800,187.5L778.378,187.5L756.757,187.5L735.135,262.5L713.514,300L691.892,225L670.27,300L648.649,187.5L627.027,262.5L605.405,300L583.784,75L562.162,300L540.541,225L518.919,262.5L497.297,262.5L475.676,262.5L454.054,300L432.432,262.5L410.811,225L389.189,300L367.568,262.5L345.946,150L324.324,262.5L302.703,37.5L281.081,262.5L259.459,187.5L237.838,187.5L216.216,187.5L194.595,150L172.973,187.5L151.351,187.5L129.73,300L108.108,300L86.486,300L64.865,300L43.243,300L21.622,300L0,300Z" fill="#eeca3b"/></g></g><path class="foreground" aria-hidden="true" d="" display="none"/></g><g transform="translate(0,0)"><path class="background" aria-hidden="true" d="M0,0h800v300h-800Z"/><g><g class="mark-area role-mark marks" role="graphics-object" aria-roledescription="area mark container"><path aria-label="Date: Mar 16, 2026; Unique Visitors/day: 0; Repository: karlmdavis/ansible-role-bind-dns" role="graphics-symbol" aria-roledescription="area mark" d="M0,300L21.622,300L43.243,300L64.865,300L86.486,300L108.108,300L129.73,300L151.351,187.5L172.973,187.5L194.595,150L216.216,187.5L237.838,187.5L259.459,187.5L281.081,262.5L302.703,37.5L324.324,262.5L345.946,150L367.568,262.5L389.189,300L410.811,225L432.432,262.5L454.054,300L475.676,262.5L497.297,262.5L518.919,262.5L540.541,225L562.162,300L583.784,75L605.405,300L627.027,262.5L648.649,187.5L670.27,300L691.892,225L713.514,300L735.135,262.5L756.757,187.5L778.378,187.5L800,187.5L800,187.5L778.378,187.5L756.757,187.5L735.135,300L713.514,300L691.892,225L670.27,300L648.649,225L627.027,262.5L605.405,300L583.784,75L562.162,300L540.541,225L518.919,262.5L497.297,262.5L475.676,262.5L454.054,300L432.432,262.5L410.811,262.5L389.189,300L367.568,262.5L345.946,150L324.324,262.5L302.703,37.5L281.081,262.5L259.459,225L237.838,187.5L216.216,187.5L194.595,187.5L172.973,187.5L151.351,187.5L129.73,300L108.108,300L86.486,300L64.865,300L43.243,300L21.622,300L0,300Z" fill="#b279a2"/></g></g><path class="foreground" aria-hidden="true" d="" display="none"/></g><g transform="translate(0,0)"><path class="background" aria-hidden="true" d="M0,0h800v300h-800Z"/><g><g class="mark-area role-mark marks" role="graphics-object" aria-roledescription="area mark container"><path aria-label="Date: Mar 16, 2026; Unique Visitors/day: 0; Repository: karlmdavis/ansible-role-jenkins2" role="graphics-symbol" aria-roledescription="area mark" d="M0,300L21.622,300L43.243,300L64.865,300L86.486,300L108.108,300L129.73,300L151.351,187.5L172.973,187.5L194.595,187.5L216.216,187.5L237.838,187.5L259.459,225L281.081,262.5L302.703,37.5L324.324,262.5L345.946,150L367.568,262.5L389.189,300L410.811,262.5L432.432,262.5L454.054,300L475.676,262.5L497.297,262.5L518.919,262.5L540.541,225L562.162,300L583.784,75L605.405,300L627.027,262.5L648.649,225L670.27,300L691.892,225L713.514,300L735.135,300L756.757,187.5L778.378,187.5L800,187.5L800,187.5L778.378,187.5L756.757,225L735.135,300L713.514,300L691.892,225L670.27,300L648.649,225L627.027,262.5L605.405,300L583.784,112.5L562.162,300L540.541,225L518.919,262.5L497.297,262.5L475.676,262.5L454.054,300L432.432,262.5L410.811,262.5L389.189,300L367.568,262.5L345.946,150L324.324,262.5L302.703,75L281.081,300L259.459,225L237.838,187.5L216.216,187.5L194.595,187.5L172.973,187.5L151.351,187.5L129.73,300L108.108,300L86.486,300L64.865,300L43.243,300L21.622,300L0,300Z" fill="#ff9da6"/></g></g><path class="foreground" aria-hidden="true" d="" display="none"/></g><g transform="translate(0,0)"><path class="background" aria-hidden="true" d="M0,0h800v300h-800Z"/><g><g class="mark-area role-mark marks" role="graphics-object" aria-roledescription="area mark container"><path aria-label="Date: Mar 16, 2026; Unique Visitors/day: 0; Repository: karlmdavis/ansible-role-ldap" role="graphics-symbol" aria-roledescription="area mark" d="M0,300L21.622,300L43.243,300L64.865,300L86.486,300L108.108,300L129.73,300L151.351,187.5L172.973,187.5L194.595,187.5L216.216,187.5L237.838,187.5L259.459,225L281.081,300L302.703,75L324.324,262.5L345.946,150L367.568,262.5L389.189,300L410.811,262.5L432.432,262.5L454.054,300L475.676,262.5L497.297,262.5L518.919,262.5L540.541,225L562.162,300L583.784,112.5L605.405,300L627.027,262.5L648.649,225L670.27,300L691.892,225L713.514,300L735.135,300L756.757,225L778.378,187.5L800,187.5L800,187.5L778.378,187.5L756.757,225L735.135,300L713.514,300L691.892,225L670.27,300L648.649,225L627.027,262.5L605.405,300L583.784,112.5L562.162,300L540.541,225L518.919,262.5L497.297,262.5L475.676,262.5L454.054,300L432.432,262.5L410.811,262.5L389.189,300L367.568,262.5L345.946,150L324.324,262.5L302.703,75L281.081,300L259.459,225L237.838,187.5L216.216,187.5L194.595,187.5L172.973,187.5L151.351,187.5L129.73,300L108.108,300L86.486,300L64.865,300L43.243,300L21.622,300L0,300Z" fill="#9d755d"/></g></g><path class="foreground" aria-hidden="true" d="" display="none"/></g><g transform="translate(0,0)"><path class="background" aria-hidden="true" d="M0,0h800v300h-800Z"/><g><g class="mark-area role-mark marks" role="graphics-object" aria-roledescription="area mark container"><path aria-label="Date: Mar 16, 2026; Unique Visitors/day: 0; Repository: karlmdavis/ansible-role-rcm-dotfiles" role="graphics-symbol" aria-roledescription="area mark" d="M0,300L21.622,300L43.243,300L64.865,300L86.486,300L108.108,300L129.73,300L151.351,187.5L172.973,187.5L194.595,187.5L216.216,187.5L237.838,187.5L259.459,225L281.081,300L302.703,75L324.324,262.5L345.946,150L367.568,262.5L389.189,300L410.811,262.5L432.432,262.5L454.054,300L475.676,262.5L497.297,262.5L518.919,262.5L540.541,225L562.162,300L583.784,112.5L605.405,300L627.027,262.5L648.649,225L670.27,300L691.892,225L713.514,300L735.135,300L756.757,225L778.378,187.5L800,187.5L800,187.5L778.378,225L756.757,225L735.135,300L713.514,300L691.892,225L670.27,300L648.649,225L627.027,262.5L605.405,300L583.784,112.5L562.162,300L540.541,225L518.919,262.5L497.297,262.5L475.676,262.5L454.054,300L432.432,262.5L410.811,262.5L389.189,300L367.568,262.5L345.946,150L324.324,262.5L302.703,75L281.081,300L259.459,225L237.838,187.5L216.216,187.5L194.595,187.5L172.973,187.5L151.351,187.5L129.73,300L108.108,300L86.486,300L64.865,300L43.243,300L21.622,300L0,300Z" fill="#bab0ac"/></g></g><path class="foreground" aria-hidden="true" d="" display="none"/></g><g transform="translate(0,0)"><path class="background" aria-hidden="true" d="M0,0h800v300h-800Z"/><g><g class="mark-area role-mark marks" role="graphics-object" aria-roledescription="area mark container"><path aria-label="Date: Mar 16, 2026; Unique Visitors/day: 0; Repository: karlmdavis/ansible-roles" role="graphics-symbol" aria-roledescription="area mark" d="M0,300L21.622,300L43.243,300L64.865,300L86.486,300L108.108,300L129.73,300L151.351,187.5L172.973,187.5L194.595,187.5L216.216,187.5L237.838,187.5L259.459,225L281.081,300L302.703,75L324.324,262.5L345.946,150L367.568,262.5L389.189,300L410.811,262.5L432.432,262.5L454.054,300L475.676,262.5L497.297,262.5L518.919,262.5L540.541,225L562.162,300L583.784,112.5L605.405,300L627.027,262.5L648.649,225L670.27,300L691.892,225L713.514,300L735.135,300L756.757,225L778.378,225L800,187.5L800,187.5L778.378,225L756.757,225L735.135,300L713.514,300L691.892,225L670.27,300L648.649,225L627.027,262.5L605.405,300L583.784,112.5L562.162,300L540.541,225L518.919,262.5L497.297,262.5L475.676,262.5L454.054,300L432.432,262.5L410.811,262.5L389.189,300L367.568,262.5L345.946,150L324.324,262.5L302.703,75L281.081,300L259.459,225L237.838,187.5L216.216,187.5L194.595,187.5L172.973,187.5L151.351,187.5L129.73,300L108.108,300L86.486,300L64.865,300L43.243,300L21.622,300L0,300Z" fill="#4c78a8"/></g></g><path class="foreground" aria-hidden="true" d="" display="none"/></g><g transform="translate(0,0)"><path class="background" aria-hidden="true" d="M0,0h800v300h-800Z"/><g><g class="mark-area role-mark marks" role="graphics-object" aria-roledescription="area mark container"><path aria-label="Date: Mar 16, 2026; Unique Visitors/day: 0; Repository: karlmdavis/bbonfhir-dev-infra-docker" role="graphics-symbol" aria-roledescription="area mark" d="M0,300L21.622,300L43.243,300L64.865,300L86.486,300L108.108,300L129.73,300L151.351,187.5L172.973,187.5L194.595,187.5L216.216,187.5L237.838,187.5L259.459,225L281.081,300L302.703,75L324.324,262.5L345.946,150L367.568,262.5L389.189,300L410.811,262.5L432.432,262.5L454.054,300L475.676,262.5L497.297,262.5L518.919,262.5L540.541,225L562.162,300L583.784,112.5L605.405,300L627.027,262.5L648.649,225L670.27,300L691.892,225L713.514,300L735.135,300L756.757,225L778.378,225L800,187.5L800,187.5L778.378,225L756.757,225L735.135,300L713.514,300L691.892,225L670.27,300L648.649,225L627.027,262.5L605.405,300L583.784,112.5L562.162,300L540.541,225L518.919,262.5L497.297,262.5L475.676,262.5L454.054,300L432.432,262.5L410.811,262.5L389.189,300L367.568,262.5L345.946,150L324.324,262.5L302.703,75L281.081,300L259.459,225L237.838,187.5L216.216,187.5L194.595,187.5L172.973,187.5L151.351,187.5L129.73,300L108.108,300L86.486,300L64.865,300L43.243,300L21.622,300L0,300Z" fill="#f58518"/></g></g><path class="foreground" aria-hidden="true" d="" display="none"/></g><g transform="translate(0,0)"><path class="background" aria-hidden="true" d="M0,0h800v300h-800Z"/><g><g class="mark-area role-mark marks" role="graphics-object" aria-roledescription="area mark container"><path aria-label="Date: Mar 16, 2026; Unique Visitors/day: 0; Repository: karlmdavis/can-i-kayak-baltimore" role="graphics-symbol" aria-roledescription="area mark" d="M0,300L21.622,300L43.243,300L64.865,300L86.486,300L108.108,300L129.73,300L151.351,187.5L172.973,187.5L194.595,187.5L216.216,187.5L237.838,187.5L259.459,225L281.081,300L302.703,75L324.324,262.5L345.946,150L367.568,262.5L389.189,300L410.811,262.5L432.432,262.5L454.054,300L475.676,262.5L497.297,262.5L518.919,262.5L540.541,225L562.162,300L583.784,112.5L605.405,300L627.027,262.5L648.649,225L670.27,300L691.892,225L713.514,300L735.135,300L756.757,225L778.378,225L800,187.5L800,187.5L778.378,225L756.757,225L735.135,300L713.514,300L691.892,225L670.27,300L648.649,225L627.027,262.5L605.405,300L583.784,112.5L562.162,300L540.541,225L518.919,262.5L497.297,262.5L475.676,262.5L454.054,300L432.432,262.5L410.811,262.5L389.189,300L367.568,262.5L345.946,150L324.324,262.5L302.703,75L281.081,300L259.459,225L237.838,187.5L216.216,187.5L194.595,187.5L172.973,187.5L151.351,187.5L129.73,300L108.108,300L86.486,300L64.865,300L43.243,300L21.622,300L0,300Z" fill="#e45756"/></g></g><path class="foreground" aria-hidden="true" d="" display="none"/></g><g transform="translate(0,0)"><path class="background" aria-hidden="true" d="M0,0h800v300h-800Z"/><g><g class="mark-area role-mark marks" role="graphics-object" aria-roledescription="area mark container"><path aria-label="Date: Mar 16, 2026; Unique Visitors/day: 0; Repository: karlmdavis/datanucleus-test-jdo-1-to-n" role="graphics-symbol" aria-roledescription="area mark" d="M0,300L21.622,300L43.243,300L64.865,300L86.486,300L108.108,300L129.73,300L151.351,187.5L172.973,187.5L194.595,187.5L216.216,187.5L237.838,187.5L259.459,225L281.081,300L302.703,75L324.324,262.5L345.946,150L367.568,262.5L389.189,300L410.811,262.5L432.432,262.5L454.054,300L475.676,262.5L497.297,262.5L518.919,262.5L540.541,225L562.162,300L583.784,112.5L605.405,300L627.027,262.5L648.649,225L670.27,300L691.892,225L713.514,300L735.135,300L756.757,225L778.378,225L800,187.5L800,187.5L778.378,225L756.757,225L735.135,300L713.514,300L691.892,225L670.27,300L648.649,225L627.027,262.5L605.405,300L583.784,112.5L562.162,300L540.541,225L518.919,262.5L497.297,262.5L475.676,262.5L454.054,300L432.432,262.5L410.811,262.5L389.189,300L367.568,262.5L345.946,150L324.324,262.5L302.703,75L281.081,300L259.459,225L237.838,187.5L216.216,187.5L194.595,187.5L172.973,187.5L151.351,187.5L129.73,300L108.108,300L86.486,300L64.865,300L43.243,300L21.622,300L0,300Z" fill="#72b7b2"/></g></g><path class="foreground" aria-hidden="true" d="" display="none"/></g><g transform="translate(0,0)"><path class="background" aria-hidden="true" d="M0,0h800v300h-800Z"/><g><g class="mark-area role-mark marks" role="graphics-object" aria-roledescription="area mark container"><path aria-label="Date: Mar 16, 2026; Unique Visitors/day: 0; Repository: karlmdavis/dotfiles" role="graphics-symbol" aria-roledescription="area mark" d="M0,300L21.622,300L43.243,300L64.865,300L86.486,300L108.108,300L129.73,300L151.351,187.5L172.973,187.5L194.595,187.5L216.216,187.5L237.838,187.5L259.459,225L281.081,300L302.703,75L324.324,262.5L345.946,150L367.568,262.5L389.189,300L410.811,262.5L432.432,262.5L454.054,300L475.676,262.5L497.297,262.5L518.919,262.5L540.541,225L562.162,300L583.784,112.5L605.405,300L627.027,262.5L648.649,225L670.27,300L691.892,225L713.514,300L735.135,300L756.757,225L778.378,225L800,187.5L800,187.5L778.378,225L756.757,225L735.135,300L713.514,300L691.892,225L670.27,300L648.649,225L627.027,262.5L605.405,300L583.784,112.5L562.162,300L540.541,225L518.919,262.5L497.297,262.5L475.676,262.5L454.054,300L432.432,262.5L410.811,262.5L389.189,300L367.568,262.5L345.946,150L324.324,262.5L302.703,75L281.081,300L259.459,225L237.838,187.5L216.216,187.5L194.595,187.5L172.973,187.5L151.351,187.5L129.73,300L108.108,300L86.486,300L64.865,300L43.243,300L21.622,300L0,300Z" fill="#54a24b"/></g></g><path class="foreground" aria-hidden="true" d="" display="none"/></g><g transform="translate(0,0)"><path class="background" aria-hidden="true" d="M0,0h800v300h-800Z"/><g><g class="mark-area role-mark marks" role="graphics-object" aria-roledescription="area mark container"><path aria-label="Date: Mar 16, 2026; Unique Visitors/day: 0; Repository: karlmdavis/fhir-benchmarks" role="graphics-symbol" aria-roledescription="area mark" d="M0,300L21.622,300L43.243,300L64.865,300L86.486,300L108.108,300L129.73,300L151.351,187.5L172.973,187.5L194.595,187.5L216.216,187.5L237.838,187.5L259.459,225L281.081,300L302.703,75L324.324,262.5L345.946,150L367.568,262.5L389.189,300L410.811,262.5L432.432,262.5L454.054,300L475.676,262.5L497.297,262.5L518.919,262.5L540.541,225L562.162,300L583.784,112.5L605.405,300L627.027,262.5L648.649,225L670.27,300L691.892,225L713.514,300L735.135,300L756.757,225L778.378,225L800,187.5L800,225L778.378,225L756.757,225L735.135,300L713.514,300L691.892,225L670.27,300L648.649,262.5L627.027,262.5L605.405,300L583.784,112.5L562.162,300L540.541,262.5L518.919,262.5L497.297,262.5L475.676,300L454.054,300L432.432,262.5L410.811,262.5L389.189,300L367.568,262.5L345.946,187.5L324.324,262.5L302.703,112.5L281.081,300L259.459,225L237.838,187.5L216.216,225L194.595,187.5L172.973,187.5L151.351,187.5L129.73,300L108.108,300L86.486,300L64.865,300L43.243,300L21.622,300L0,300Z" fill="#eeca3b"/></g></g><path class="foreground" aria-hidden="true" d="" display="none"/></g><g transform="translate(0,0)"><path class="background" aria-hidden="true" d="M0,0h800v300h-800Z"/><g><g class="mark-area role-mark marks" role="graphics-object" aria-roledescription="area mark container"><path aria-label="Date: Mar 16, 2026; Unique Visitors/day: 0; Repository: karlmdavis/hapi-fhir-jpaserver-starter" role="graphics-symbol" aria-roledescription="area mark" d="M0,300L21.622,300L43.243,300L64.865,300L86.486,300L108.108,300L129.73,300L151.351,187.5L172.973,187.5L194.595,187.5L216.216,225L237.838,187.5L259.459,225L281.081,300L302.703,112.5L324.324,262.5L345.946,187.5L367.568,262.5L389.189,300L410.811,262.5L432.432,262.5L454.054,300L475.676,300L497.297,262.5L518.919,262.5L540.541,262.5L562.162,300L583.784,112.5L605.405,300L627.027,262.5L648.649,262.5L670.27,300L691.892,225L713.514,300L735.135,300L756.757,225L778.378,225L800,225L800,225L778.378,225L756.757,225L735.135,300L713.514,300L691.892,225L670.27,300L648.649,262.5L627.027,262.5L605.405,300L583.784,112.5L562.162,300L540.541,262.5L518.919,262.5L497.297,262.5L475.676,300L454.054,300L432.432,262.5L410.811,262.5L389.189,300L367.568,262.5L345.946,187.5L324.324,262.5L302.703,112.5L281.081,300L259.459,225L237.838,187.5L216.216,225L194.595,187.5L172.973,187.5L151.351,187.5L129.73,300L108.108,300L86.486,300L64.865,300L43.243,300L21.622,300L0,300Z" fill="#b279a2"/></g></g><path class="foreground" aria-hidden="true" d="" display="none"/></g><g transform="translate(0,0)"><path class="background" aria-hidden="true" d="M0,0h800v300h-800Z"/><g><g class="mark-area role-mark marks" role="graphics-object" aria-roledescription="area mark container"><path aria-label="Date: Mar 16, 2026; Unique Visitors/day: 0; Repository: karlmdavis/hello-rust-actix" role="graphics-symbol" aria-roledescription="area mark" d="M0,300L21.622,300L43.243,300L64.865,300L86.486,300L108.108,300L129.73,300L151.351,187.5L172.973,187.5L194.595,187.5L216.216,225L237.838,187.5L259.459,225L281.081,300L302.703,112.5L324.324,262.5L345.946,187.5L367.568,262.5L389.189,300L410.811,262.5L432.432,262.5L454.054,300L475.676,300L497.297,262.5L518.919,262.5L540.541,262.5L562.162,300L583.784,112.5L605.405,300L627.027,262.5L648.649,262.5L670.27,300L691.892,225L713.514,300L735.135,300L756.757,225L778.378,225L800,225L800,225L778.378,225L756.757,225L735.135,300L713.514,300L691.892,225L670.27,300L648.649,262.5L627.027,262.5L605.405,300L583.784,112.5L562.162,300L540.541,262.5L518.919,262.5L497.297,262.5L475.676,300L454.054,300L432.432,262.5L410.811,262.5L389.189,300L367.568,262.5L345.946,187.5L324.324,262.5L302.703,112.5L281.081,300L259.459,225L237.838,187.5L216.216,225L194.595,187.5L172.973,187.5L151.351,187.5L129.73,300L108.108,300L86.486,300L64.865,300L43.243,300L21.622,300L0,300Z" fill="#ff9da6"/></g></g><path class="foreground" aria-hidden="true" d="" display="none"/></g><g transform="translate(0,0)"><path class="background" aria-hidden="true" d="M0,0h800v300h-800Z"/><g><g class="mark-area role-mark marks" role="graphics-object" aria-roledescription="area mark container"><path aria-label="Date: Mar 16, 2026; Unique Visitors/day: 0; Repository: karlmdavis/jessentials" role="graphics-symbol" aria-roledescription="area mark" d="M0,300L21.622,300L43.243,300L64.865,300L86.486,300L108.108,300L129.73,300L151.351,187.5L172.973,187.5L194.595,187.5L216.216,225L237.838,187.5L259.459,225L281.081,300L302.703,112.5L324.324,262.5L345.946,187.5L367.568,262.5L389.189,300L410.811,262.5L432.432,262.5L454.054,300L475.676,300L497.297,262.5L518.919,262.5L540.541,262.5L562.162,300L583.784,112.5L605.405,300L627.027,262.5L648.649,262.5L670.27,300L691.892,225L713.514,300L735.135,300L756.757,225L778.378,225L800,225L800,225L778.378,225L756.757,225L735.135,300L713.514,300L691.892,225L670.27,300L648.649,262.5L627.027,262.5L605.405,300L583.784,112.5L562.162,300L540.541,262.5L518.919,262.5L497.297,262.5L475.676,300L454.054,300L432.432,262.5L410.811,262.5L389.189,300L367.568,262.5L345.946,187.5L324.324,262.5L302.703,112.5L281.081,300L259.459,225L237.838,187.5L216.216,225L194.595,187.5L172.973,187.5L151.351,187.5L129.73,300L108.108,300L86.486,300L64.865,300L43.243,300L21.622,300L0,300Z" fill="#9d755d"/></g></g><path class="foreground" aria-hidden="true" d="" display="none"/></g><g transform="translate(0,0)"><path class="background" aria-hidden="true" d="M0,0h800v300h-800Z"/><g><g class="mark-area role-mark marks" role="graphics-object" aria-roledescription="area mark container"><path aria-label="Date: Mar 16, 2026; Unique Visitors/day: 0; Repository: karlmdavis/justdavis-ansible" role="graphics-symbol" aria-roledescription="area mark" d="M0,300L21.622,300L43.243,300L64.865,300L86.486,300L108.108,300L129.73,300L151.351,187.5L172.973,187.5L194.595,187.5L216.216,225L237.838,187.5L259.459,225L281.081,300L302.703,112.5L324.324,262.5L345.946,187.5L367.568,262.5L389.189,300L410.811,262.5L432.432,262.5L454.054,300L475.676,300L497.297,262.5L518.919,262.5L540.541,262.5L562.162,300L583.784,112.5L605.405,300L627.027,262.5L648.649,262.5L670.27,300L691.892,225L713.514,300L735.135,300L756.757,225L778.378,225L800,225L800,225L778.378,225L756.757,225L735.135,300L713.514,300L691.892,225L670.27,300L648.649,262.5L627.027,262.5L605.405,300L583.784,150L562.162,300L540.541,262.5L518.919,262.5L497.297,262.5L475.676,300L454.054,300L432.432,262.5L410.811,262.5L389.189,300L367.568,262.5L345.946,225L324.324,262.5L302.703,150L281.081,300L259.459,225L237.838,187.5L216.216,225L194.595,187.5L172.973,187.5L151.351,187.5L129.73,300L108.108,300L86.486,300L64.865,300L43.243,300L21.622,300L0,300Z" fill="#bab0ac"/></g></g><path class="foreground" aria-hidden="true" d="" display="none"/></g><g transform="translate(0,0)"><path class="background" aria-hidden="true" d="M0,0h800v300h-800Z"/><g><g class="mark-area role-mark marks" role="graphics-object" aria-roledescription="area mark container"><path aria-label="Date: Mar 16, 2026; Unique Visitors/day: 0; Repository: karlmdavis/justdavis-finances" role="graphics-symbol" aria-roledescription="area mark" d="M0,300L21.622,300L43.243,300L64.865,300L86.486,300L108.108,300L129.73,300L151.351,187.5L172.973,187.5L194.595,187.5L216.216,225L237.838,187.5L259.459,225L281.081,300L302.703,150L324.324,262.5L345.946,225L367.568,262.5L389.189,300L410.811,262.5L432.432,262.5L454.054,300L475.676,300L497.297,262.5L518.919,262.5L540.541,262.5L562.162,300L583.784,150L605.405,300L627.027,262.5L648.649,262.5L670.27,300L691.892,225L713.514,300L735.135,300L756.757,225L778.378,225L800,225L800,225L778.378,225L756.757,262.5L735.135,300L713.514,300L691.892,225L670.27,300L648.649,262.5L627.027,262.5L605.405,300L583.784,187.5L562.162,300L540.541,262.5L518.919,262.5L497.297,262.5L475.676,300L454.054,300L432.432,262.5L410.811,262.5L389.189,300L367.568,262.5L345.946,225L324.324,262.5L302.703,150L281.081,300L259.459,225L237.838,225L216.216,225L194.595,187.5L172.973,187.5L151.351,187.5L129.73,300L108.108,300L86.486,300L64.865,300L43.243,300L21.622,300L0,300Z" fill="#4c78a8"/></g></g><path class="foreground" aria-hidden="true" d="" display="none"/></g><g transform="translate(0,0)"><path class="background" aria-hidden="true" d="M0,0h800v300h-800Z"/><g><g class="mark-area role-mark marks" role="graphics-object" aria-roledescription="area mark container"><path aria-label="Date: Mar 16, 2026; Unique Visitors/day: 0; Repository: karlmdavis/justdavis-karl" role="graphics-symbol" aria-roledescription="area mark" d="M0,300L21.622,300L43.243,300L64.865,300L86.486,300L108.108,300L129.73,300L151.351,187.5L172.973,187.5L194.595,187.5L216.216,225L237.838,225L259.459,225L281.081,300L302.703,150L324.324,262.5L345.946,225L367.568,262.5L389.189,300L410.811,262.5L432.432,262.5L454.054,300L475.676,300L497.297,262.5L518.919,262.5L540.541,262.5L562.162,300L583.784,187.5L605.405,300L627.027,262.5L648.649,262.5L670.27,300L691.892,225L713.514,300L735.135,300L756.757,262.5L778.378,225L800,225L800,225L778.378,225L756.757,262.5L735.135,300L713.514,300L691.892,225L670.27,300L648.649,262.5L627.027,262.5L605.405,300L583.784,187.5L562.162,300L540.541,262.5L518.919,262.5L497.297,262.5L475.676,300L454.054,300L432.432,262.5L410.811,262.5L389.189,300L367.568,262.5L345.946,225L324.324,262.5L302.703,150L281.081,300L259.459,225L237.838,225L216.216,225L194.595,187.5L172.973,187.5L151.351,187.5L129.73,300L108.108,300L86.486,300L64.865,300L43.243,300L21.622,300L0,300Z" fill="#f58518"/></g></g><path class="foreground" aria-hidden="true" d="" display="none"/></g><g transform="translate(0,0)"><path class="background" aria-hidden="true" d="M0,0h800v300h-800Z"/><g><g class="mark-area role-mark marks" role="graphics-object" aria-roledescription="area mark container"><path aria-label="Date: Mar 16, 2026; Unique Visitors/day: 0; Repository: karlmdavis/justdavis-puppet" role="graphics-symbol" aria-roledescription="area mark" d="M0,300L21.622,300L43.243,300L64.865,300L86.486,300L108.108,300L129.73,300L151.351,187.5L172.973,187.5L194.595,187.5L216.216,225L237.838,225L259.459,225L281.081,300L302.703,150L324.324,262.5L345.946,225L367.568,262.5L389.189,300L410.811,262.5L432.432,262.5L454.054,300L475.676,300L497.297,262.5L518.919,262.5L540.541,262.5L562.162,300L583.784,187.5L605.405,300L627.027,262.5L648.649,262.5L670.27,300L691.892,225L713.514,300L735.135,300L756.757,262.5L778.378,225L800,225L800,225L778.378,225L756.757,262.5L735.135,300L713.514,300L691.892,225L670.27,300L648.649,262.5L627.027,262.5L605.405,300L583.784,187.5L562.162,300L540.541,262.5L518.919,262.5L497.297,262.5L475.676,300L454.054,300L432.432,262.5L410.811,262.5L389.189,300L367.568,262.5L345.946,225L324.324,262.5L302.703,150L281.081,300L259.459,225L237.838,225L216.216,225L194.595,187.5L172.973,187.5L151.351,187.5L129.73,300L108.108,300L86.486,300L64.865,300L43.243,300L21.622,300L0,300Z" fill="#e45756"/></g></g><path class="foreground" aria-hidden="true" d="" display="none"/></g><g transform="translate(0,0)"><path class="background" aria-hidden="true" d="M0,0h800v300h-800Z"/><g><g class="mark-area role-mark marks" role="graphics-object" aria-roledescription="area mark container"><path aria-label="Date: Mar 16, 2026; Unique Visitors/day: 0; Repository: karlmdavis/kobjects" role="graphics-symbol" aria-roledescription="area mark" d="M0,300L21.622,300L43.243,300L64.865,300L86.486,300L108.108,300L129.73,300L151.351,187.5L172.973,187.5L194.595,187.5L216.216,225L237.838,225L259.459,225L281.081,300L302.703,150L324.324,262.5L345.946,225L367.568,262.5L389.189,300L410.811,262.5L432.432,262.5L454.054,300L475.676,300L497.297,262.5L518.919,262.5L540.541,262.5L562.162,300L583.784,187.5L605.405,300L627.027,262.5L648.649,262.5L670.27,300L691.892,225L713.514,300L735.135,300L756.757,262.5L778.378,225L800,225L800,225L778.378,225L756.757,262.5L735.135,300L713.514,300L691.892,225L670.27,300L648.649,262.5L627.027,262.5L605.405,300L583.784,187.5L562.162,300L540.541,262.5L518.919,262.5L497.297,262.5L475.676,300L454.054,300L432.432,262.5L410.811,262.5L389.189,300L367.568,262.5L345.946,225L324.324,262.5L302.703,150L281.081,300L259.459,225L237.838,225L216.216,225L194.595,187.5L172.973,187.5L151.351,187.5L129.73,300L108.108,300L86.486,300L64.865,300L43.243,300L21.622,300L0,300Z" fill="#72b7b2"/></g></g><path class="foreground" aria-hidden="true" d="" display="none"/></g><g transform="translate(0,0)"><path class="background" aria-hidden="true" d="M0,0h800v300h-800Z"/><g><g class="mark-area role-mark marks" role="graphics-object" aria-roledescription="area mark container"><path aria-label="Date: Mar 16, 2026; Unique Visitors/day: 0; Repository: karlmdavis/ksoap2-android" role="graphics-symbol" aria-roledescription="area mark" d="M0,300L21.622,300L43.243,300L64.865,300L86.486,300L108.108,300L129.73,300L151.351,187.5L172.973,187.5L194.595,187.5L216.216,225L237.838,225L259.459,225L281.081,300L302.703,150L324.324,262.5L345.946,225L367.568,262.5L389.189,300L410.811,262.5L432.432,262.5L454.054,300L475.676,300L497.297,262.5L518.919,262.5L540.541,262.5L562.162,300L583.784,187.5L605.405,300L627.027,262.5L648.649,262.5L670.27,300L691.892,225L713.514,300L735.135,300L756.757,262.5L778.378,225L800,225L800,300L778.378,262.5L756.757,262.5L735.135,300L713.514,300L691.892,300L670.27,300L648.649,300L627.027,300L605.405,300L583.784,225L562.162,300L540.541,300L518.919,262.5L497.297,300L475.676,300L454.054,300L432.432,300L410.811,300L389.189,300L367.568,300L345.946,262.5L324.324,262.5L302.703,225L281.081,300L259.459,225L237.838,262.5L216.216,225L194.595,225L172.973,262.5L151.351,262.5L129.73,300L108.108,300L86.486,300L64.865,300L43.243,300L21.622,300L0,300Z" fill="#54a24b"/></g></g><path class="foreground" aria-hidden="true" d="" display="none"/></g><g transform="translate(0,0)"><path class="background" aria-hidden="true" d="M0,0h800v300h-800Z"/><g><g class="mark-area role-mark marks" role="graphics-object" aria-roledescription="area mark container"><path aria-label="Date: Mar 16, 2026; Unique Visitors/day: 0; Repository: karlmdavis/kxml2" role="graphics-symbol" aria-roledescription="area mark" d="M0,300L21.622,300L43.243,300L64.865,300L86.486,300L108.108,300L129.73,300L151.351,262.5L172.973,262.5L194.595,225L216.216,225L237.838,262.5L259.459,225L281.081,300L302.703,225L324.324,262.5L345.946,262.5L367.568,300L389.189,300L410.811,300L432.432,300L454.054,300L475.676,300L497.297,300L518.919,262.5L540.541,300L562.162,300L583.784,225L605.405,300L627.027,300L648.649,300L670.27,300L691.892,300L713.514,300L735.135,300L756.757,262.5L778.378,262.5L800,300L800,300L778.378,262.5L756.757,262.5L735.135,300L713.514,300L691.892,300L670.27,300L648.649,300L627.027,300L605.405,300L583.784,225L562.162,300L540.541,300L518.919,262.5L497.297,300L475.676,300L454.054,300L432.432,300L410.811,300L389.189,300L367.568,300L345.946,262.5L324.324,262.5L302.703,225L281.081,300L259.459,262.5L237.838,262.5L216.216,225L194.595,262.5L172.973,262.5L151.351,262.5L129.73,300L108.108,300L86.486,300L64.865,300L43.243,300L21.622,300L0,300Z" fill="#eeca3b"/></g></g><path class="foreground" aria-hidden="true" d="" display="none"/></g><g transform="translate(0,0)"><path class="background" aria-hidden="true" d="M0,0h800v300h-800Z"/><g><g class="mark-area role-mark marks" role="graphics-object" aria-roledescription="area mark container"><path aria-label="Date: Mar 16, 2026; Unique Visitors/day: 0; Repository: karlmdavis/ldap-plugin" role="graphics-symbol" aria-roledescription="area mark" d="M0,300L21.622,300L43.243,300L64.865,300L86.486,300L108.108,300L129.73,300L151.351,262.5L172.973,262.5L194.595,262.5L216.216,225L237.838,262.5L259.459,262.5L281.081,300L302.703,225L324.324,262.5L345.946,262.5L367.568,300L389.189,300L410.811,300L432.432,300L454.054,300L475.676,300L497.297,300L518.919,262.5L540.541,300L562.162,300L583.784,225L605.405,300L627.027,300L648.649,300L670.27,300L691.892,300L713.514,300L735.135,300L756.757,262.5L778.378,262.5L800,300L800,300L778.378,262.5L756.757,262.5L735.135,300L713.514,300L691.892,300L670.27,300L648.649,300L627.027,300L605.405,300L583.784,225L562.162,300L540.541,300L518.919,262.5L497.297,300L475.676,300L454.054,300L432.432,300L410.811,300L389.189,300L367.568,300L345.946,262.5L324.324,262.5L302.703,225L281.081,300L259.459,262.5L237.838,262.5L216.216,225L194.595,262.5L172.973,262.5L151.351,262.5L129.73,300L108.108,300L86.486,300L64.865,300L43.243,300L21.622,300L0,300Z" fill="#b279a2"/></g></g><path class="foreground" aria-hidden="true" d="" display="none"/></g><g transform="translate(0,0)"><path class="background" aria-hidden="true" d="M0,0h800v300h-800Z"/><g><g class="mark-area role-mark marks" role="graphics-object" aria-roledescription="area mark container"><path aria-label="Date: Mar 16, 2026; Unique Visitors/day: 0; Repository: karlmdavis/lego-ev3dev-rs" role="graphics-symbol" aria-roledescription="area mark" d="M0,300L21.622,300L43.243,300L64.865,300L86.486,300L108.108,300L129.73,300L151.351,262.5L172.973,262.5L194.595,262.5L216.216,225L237.838,262.5L259.459,262.5L281.081,300L302.703,225L324.324,262.5L345.946,262.5L367.568,300L389.189,300L410.811,300L432.432,300L454.054,300L475.676,300L497.297,300L518.919,262.5L540.541,300L562.162,300L583.784,225L605.405,300L627.027,300L648.649,300L670.27,300L691.892,300L713.514,300L735.135,300L756.757,262.5L778.378,262.5L800,300L800,300L778.378,262.5L756.757,262.5L735.135,300L713.514,300L691.892,300L670.27,300L648.649,300L627.027,300L605.405,300L583.784,225L562.162,300L540.541,300L518.919,262.5L497.297,300L475.676,300L454.054,300L432.432,300L410.811,300L389.189,300L367.568,300L345.946,262.5L324.324,262.5L302.703,225L281.081,300L259.459,262.5L237.838,262.5L216.216,225L194.595,262.5L172.973,262.5L151.351,262.5L129.73,300L108.108,300L86.486,300L64.865,300L43.243,300L21.622,300L0,300Z" fill="#ff9da6"/></g></g><path class="foreground" aria-hidden="true" d="" display="none"/></g><g transform="translate(0,0)"><path class="background" aria-hidden="true" d="M0,0h800v300h-800Z"/><g><g class="mark-area role-mark marks" role="graphics-object" aria-roledescription="area mark container"><path aria-label="Date: Mar 16, 2026; Unique Visitors/day: 0; Repository: karlmdavis/liquibase" role="graphics-symbol" aria-roledescription="area mark" d="M0,300L21.622,300L43.243,300L64.865,300L86.486,300L108.108,300L129.73,300L151.351,262.5L172.973,262.5L194.595,262.5L216.216,225L237.838,262.5L259.459,262.5L281.081,300L302.703,225L324.324,262.5L345.946,262.5L367.568,300L389.189,300L410.811,300L432.432,300L454.054,300L475.676,300L497.297,300L518.919,262.5L540.541,300L562.162,300L583.784,225L605.405,300L627.027,300L648.649,300L670.27,300L691.892,300L713.514,300L735.135,300L756.757,262.5L778.378,262.5L800,300L800,300L778.378,262.5L756.757,262.5L735.135,300L713.514,300L691.892,300L670.27,300L648.649,300L627.027,300L605.405,300L583.784,225L562.162,300L540.541,300L518.919,262.5L497.297,300L475.676,300L454.054,300L432.432,300L410.811,300L389.189,300L367.568,300L345.946,262.5L324.324,262.5L302.703,225L281.081,300L259.459,262.5L237.838,262.5L216.216,225L194.595,262.5L172.973,262.5L151.351,262.5L129.73,300L108.108,300L86.486,300L64.865,300L43.243,300L21.622,300L0,300Z" fill="#9d755d"/></g></g><path class="foreground" aria-hidden="true" d="" display="none"/></g><g transform="translate(0,0)"><path class="background" aria-hidden="true" d="M0,0h800v300h-800Z"/><g><g class="mark-area role-mark marks" role="graphics-object" aria-roledescription="area mark container"><path aria-label="Date: Mar 16, 2026; Unique Visitors/day: 0; Repository: karlmdavis/m2e-core" role="graphics-symbol" aria-roledescription="area mark" d="M0,300L21.622,300L43.243,300L64.865,300L86.486,300L108.108,300L129.73,300L151.351,262.5L172.973,262.5L194.595,262.5L216.216,225L237.838,262.5L259.459,262.5L281.081,300L302.703,225L324.324,262.5L345.946,262.5L367.568,300L389.189,300L410.811,300L432.432,300L454.054,300L475.676,300L497.297,300L518.919,262.5L540.541,300L562.162,300L583.784,225L605.405,300L627.027,300L648.649,300L670.27,300L691.892,300L713.514,300L735.135,300L756.757,262.5L778.378,262.5L800,300L800,300L778.378,262.5L756.757,262.5L735.135,300L713.514,300L691.892,300L670.27,300L648.649,300L627.027,300L605.405,300L583.784,225L562.162,300L540.541,300L518.919,262.5L497.297,300L475.676,300L454.054,300L432.432,300L410.811,300L389.189,300L367.568,300L345.946,262.5L324.324,262.5L302.703,225L281.081,300L259.459,262.5L237.838,262.5L216.216,225L194.595,262.5L172.973,262.5L151.351,262.5L129.73,300L108.108,300L86.486,300L64.865,300L43.243,300L21.622,300L0,300Z" fill="#bab0ac"/></g></g><path class="foreground" aria-hidden="true" d="" display="none"/></g><g transform="translate(0,0)"><path class="background" aria-hidden="true" d="M0,0h800v300h-800Z"/><g><g class="mark-area role-mark marks" role="graphics-object" aria-roledescription="area mark container"><path aria-label="Date: Mar 16, 2026; Unique Visitors/day: 0; Repository: karlmdavis/m2e-core-tests" role="graphics-symbol" aria-roledescription="area mark" d="M0,300L21.622,300L43.243,300L64.865,300L86.486,300L108.108,300L129.73,300L151.351,262.5L172.973,262.5L194.595,262.5L216.216,225L237.838,262.5L259.459,262.5L281.081,300L302.703,225L324.324,262.5L345.946,262.5L367.568,300L389.189,300L410.811,300L432.432,300L454.054,300L475.676,300L497.297,300L518.919,262.5L540.541,300L562.162,300L583.784,225L605.405,300L627.027,300L648.649,300L670.27,300L691.892,300L713.514,300L735.135,300L756.757,262.5L778.378,262.5L800,300L800,300L778.378,262.5L756.757,262.5L735.135,300L713.514,300L691.892,300L670.27,300L648.649,300L627.027,300L605.405,300L583.784,225L562.162,300L540.541,300L518.919,262.5L497.297,300L475.676,300L454.054,300L432.432,300L410.811,300L389.189,300L367.568,300L345.946,262.5L324.324,262.5L302.703,225L281.081,300L259.459,262.5L237.838,262.5L216.216,225L194.595,262.5L172.973,262.5L151.351,262.5L129.73,300L108.108,300L86.486,300L64.865,300L43.243,300L21.622,300L0,300Z" fill="#4c78a8"/></g></g><path class="foreground" aria-hidden="true" d="" display="none"/></g><g transform="translate(0,0)"><path class="background" aria-hidden="true" d="M0,0h800v300h-800Z"/><g><g class="mark-area role-mark marks" role="graphics-object" aria-roledescription="area mark container"><path aria-label="Date: Mar 16, 2026; Unique Visitors/day: 0; Repository: karlmdavis/obsidian-operator" role="graphics-symbol" aria-roledescription="area mark" d="M0,300L21.622,300L43.243,300L64.865,300L86.486,300L108.108,300L129.73,300L151.351,262.5L172.973,262.5L194.595,262.5L216.216,225L237.838,262.5L259.459,262.5L281.081,300L302.703,225L324.324,262.5L345.946,262.5L367.568,300L389.189,300L410.811,300L432.432,300L454.054,300L475.676,300L497.297,300L518.919,262.5L540.541,300L562.162,300L583.784,225L605.405,300L627.027,300L648.649,300L670.27,300L691.892,300L713.514,300L735.135,300L756.757,262.5L778.378,262.5L800,300L800,300L778.378,262.5L756.757,262.5L735.135,300L713.514,300L691.892,300L670.27,300L648.649,300L627.027,300L605.405,300L583.784,262.5L562.162,300L540.541,300L518.919,262.5L497.297,300L475.676,300L454.054,300L432.432,300L410.811,300L389.189,300L367.568,300L345.946,262.5L324.324,262.5L302.703,225L281.081,300L259.459,262.5L237.838,262.5L216.216,225L194.595,262.5L172.973,262.5L151.351,262.5L129.73,300L108.108,300L86.486,300L64.865,300L43.243,300L21.622,300L0,300Z" fill="#f58518"/></g></g><path class="foreground" aria-hidden="true" d="" display="none"/></g><g transform="translate(0,0)"><path class="background" aria-hidden="true" d="M0,0h800v300h-800Z"/><g><g class="mark-area role-mark marks" role="graphics-object" aria-roledescription="area mark container"><path aria-label="Date: Mar 16, 2026; Unique Visitors/day: 0; Repository: karlmdavis/perfect-note" role="graphics-symbol" aria-roledescription="area mark" d="M0,300L21.622,300L43.243,300L64.865,300L86.486,300L108.108,300L129.73,300L151.351,262.5L172.973,262.5L194.595,262.5L216.216,225L237.838,262.5L259.459,262.5L281.081,300L302.703,225L324.324,262.5L345.946,262.5L367.568,300L389.189,300L410.811,300L432.432,300L454.054,300L475.676,300L497.297,300L518.919,262.5L540.541,300L562.162,300L583.784,262.5L605.405,300L627.027,300L648.649,300L670.27,300L691.892,300L713.514,300L735.135,300L756.757,262.5L778.378,262.5L800,300L800,300L778.378,262.5L756.757,262.5L735.135,300L713.514,300L691.892,300L670.27,300L648.649,300L627.027,300L605.405,300L583.784,262.5L562.162,300L540.541,300L518.919,262.5L497.297,300L475.676,300L454.054,300L432.432,300L410.811,300L389.189,300L367.568,300L345.946,262.5L324.324,262.5L302.703,225L281.081,300L259.459,262.5L237.838,262.5L216.216,225L194.595,262.5L172.973,262.5L151.351,262.5L129.73,300L108.108,300L86.486,300L64.865,300L43.243,300L21.622,300L0,300Z" fill="#e45756"/></g></g><path class="foreground" aria-hidden="true" d="" display="none"/></g><g transform="translate(0,0)"><path class="background" aria-hidden="true" d="M0,0h800v300h-800Z"/><g><g class="mark-area role-mark marks" role="graphics-object" aria-roledescription="area mark container"><path aria-label="Date: Mar 16, 2026; Unique Visitors/day: 0; Repository: karlmdavis/puppet-archive" role="graphics-symbol" aria-roledescription="area mark" d="M0,300L21.622,300L43.243,300L64.865,300L86.486,300L108.108,300L129.73,300L151.351,262.5L172.973,262.5L194.595,262.5L216.216,225L237.838,262.5L259.459,262.5L281.081,300L302.703,225L324.324,262.5L345.946,262.5L367.568,300L389.189,300L410.811,300L432.432,300L454.054,300L475.676,300L497.297,300L518.919,262.5L540.541,300L562.162,300L583.784,262.5L605.405,300L627.027,300L648.649,300L670.27,300L691.892,300L713.514,300L735.135,300L756.757,262.5L778.378,262.5L800,300L800,300L778.378,262.5L756.757,262.5L735.135,300L713.514,300L691.892,300L670.27,300L648.649,300L627.027,300L605.405,300L583.784,262.5L562.162,300L540.541,300L518.919,262.5L497.297,300L475.676,300L454.054,300L432.432,300L410.811,300L389.189,300L367.568,300L345.946,262.5L324.324,262.5L302.703,225L281.081,300L259.459,262.5L237.838,262.5L216.216,225L194.595,262.5L172.973,262.5L151.351,262.5L129.73,300L108.108,300L86.486,300L64.865,300L43.243,300L21.622,300L0,300Z" fill="#72b7b2"/></g></g><path class="foreground" aria-hidden="true" d="" display="none"/></g><g transform="translate(0,0)"><path class="background" aria-hidden="true" d="M0,0h800v300h-800Z"/><g><g class="mark-area role-mark marks" role="graphics-object" aria-roledescription="area mark container"><path aria-label="Date: Mar 16, 2026; Unique Visitors/day: 0; Repository: karlmdavis/puppet-sonar" role="graphics-symbol" aria-roledescription="area mark" d="M0,300L21.622,300L43.243,300L64.865,300L86.486,300L108.108,300L129.73,300L151.351,262.5L172.973,262.5L194.595,262.5L216.216,225L237.838,262.5L259.459,262.5L281.081,300L302.703,225L324.324,262.5L345.946,262.5L367.568,300L389.189,300L410.811,300L432.432,300L454.054,300L475.676,300L497.297,300L518.919,262.5L540.541,300L562.162,300L583.784,262.5L605.405,300L627.027,300L648.649,300L670.27,300L691.892,300L713.514,300L735.135,300L756.757,262.5L778.378,262.5L800,300L800,300L778.378,262.5L756.757,262.5L735.135,300L713.514,300L691.892,300L670.27,300L648.649,300L627.027,300L605.405,300L583.784,262.5L562.162,300L540.541,300L518.919,262.5L497.297,300L475.676,300L454.054,300L432.432,300L410.811,300L389.189,300L367.568,300L345.946,262.5L324.324,262.5L302.703,225L281.081,300L259.459,262.5L237.838,262.5L216.216,225L194.595,262.5L172.973,262.5L151.351,262.5L129.73,300L108.108,300L86.486,300L64.865,300L43.243,300L21.622,300L0,300Z" fill="#54a24b"/></g></g><path class="foreground" aria-hidden="true" d="" display="none"/></g><g transform="translate(0,0)"><path class="background" aria-hidden="true" d="M0,0h800v300h-800Z"/><g><g class="mark-area role-mark marks" role="graphics-object" aria-roledescription="area mark container"><path aria-label="Date: Mar 16, 2026; Unique Visitors/day: 0; Repository: karlmdavis/rps-tourney" role="graphics-symbol" aria-roledescription="area mark" d="M0,300L21.622,300L43.243,300L64.865,300L86.486,300L108.108,300L129.73,300L151.351,262.5L172.973,262.5L194.595,262.5L216.216,225L237.838,262.5L259.459,262.5L281.081,300L302.703,225L324.324,262.5L345.946,262.5L367.568,300L389.189,300L410.811,300L432.432,300L454.054,300L475.676,300L497.297,300L518.919,262.5L540.541,300L562.162,300L583.784,262.5L605.405,300L627.027,300L648.649,300L670.27,300L691.892,300L713.514,300L735.135,300L756.757,262.5L778.378,262.5L800,300L800,300L778.378,300L756.757,262.5L735.135,300L713.514,300L691.892,300L670.27,300L648.649,300L627.027,300L605.405,300L583.784,300L562.162,300L540.541,300L518.919,262.5L497.297,300L475.676,300L454.054,300L432.432,300L410.811,300L389.189,300L367.568,300L345.946,300L324.324,262.5L302.703,225L281.081,300L259.459,262.5L237.838,300L216.216,225L194.595,262.5L172.973,300L151.351,300L129.73,300L108.108,300L86.486,300L64.865,300L43.243,300L21.622,300L0,300Z" fill="#eeca3b"/></g></g><path class="foreground" aria-hidden="true" d="" display="none"/></g><g transform="translate(0,0)"><path class="background" aria-hidden="true" d="M0,0h800v300h-800Z"/><g><g class="mark-area role-mark marks" role="graphics-object" aria-roledescription="area mark container"><path aria-label="Date: Mar 16, 2026; Unique Visitors/day: 0; Repository: karlmdavis/sample-maven-and-rcp" role="graphics-symbol" aria-roledescription="area mark" d="M0,300L21.622,300L43.243,300L64.865,300L86.486,300L108.108,300L129.73,300L151.351,300L172.973,300L194.595,262.5L216.216,225L237.838,300L259.459,262.5L281.081,300L302.703,225L324.324,262.5L345.946,300L367.568,300L389.189,300L410.811,300L432.432,300L454.054,300L475.676,300L497.297,300L518.919,262.5L540.541,300L562.162,300L583.784,300L605.405,300L627.027,300L648.649,300L670.27,300L691.892,300L713.514,300L735.135,300L756.757,262.5L778.378,300L800,300L800,300L778.378,300L756.757,262.5L735.135,300L713.514,300L691.892,300L670.27,300L648.649,300L627.027,300L605.405,300L583.784,300L562.162,300L540.541,300L518.919,262.5L497.297,300L475.676,300L454.054,300L432.432,300L410.811,300L389.189,300L367.568,300L345.946,300L324.324,262.5L302.703,225L281.081,300L259.459,262.5L237.838,300L216.216,225L194.595,262.5L172.973,300L151.351,300L129.73,300L108.108,300L86.486,300L64.865,300L43.243,300L21.622,300L0,300Z" fill="#b279a2"/></g></g><path class="foreground" aria-hidden="true" d="" display="none"/></g><g transform="translate(0,0)"><path class="background" aria-hidden="true" d="M0,0h800v300h-800Z"/><g><g class="mark-area role-mark marks" role="graphics-object" aria-roledescription="area mark container"><path aria-label="Date: Mar 16, 2026; Unique Visitors/day: 0; Repository: karlmdavis/stockfighter-trades-solutions" role="graphics-symbol" aria-roledescription="area mark" d="M0,300L21.622,300L43.243,300L64.865,300L86.486,300L108.108,300L129.73,300L151.351,300L172.973,300L194.595,262.5L216.216,225L237.838,300L259.459,262.5L281.081,300L302.703,225L324.324,262.5L345.946,300L367.568,300L389.189,300L410.811,300L432.432,300L454.054,300L475.676,300L497.297,300L518.919,262.5L540.541,300L562.162,300L583.784,300L605.405,300L627.027,300L648.649,300L670.27,300L691.892,300L713.514,300L735.135,300L756.757,262.5L778.378,300L800,300L800,300L778.378,300L756.757,262.5L735.135,300L713.514,300L691.892,300L670.27,300L648.649,300L627.027,300L605.405,300L583.784,300L562.162,300L540.541,300L518.919,262.5L497.297,300L475.676,300L454.054,300L432.432,300L410.811,300L389.189,300L367.568,300L345.946,300L324.324,262.5L302.703,225L281.081,300L259.459,262.5L237.838,300L216.216,225L194.595,262.5L172.973,300L151.351,300L129.73,300L108.108,300L86.486,300L64.865,300L43.243,300L21.622,300L0,300Z" fill="#ff9da6"/></g></g><path class="foreground" aria-hidden="true" d="" display="none"/></g><g transform="translate(0,0)"><path class="background" aria-hidden="true" d="M0,0h800v300h-800Z"/><g><g class="mark-area role-mark marks" role="graphics-object" aria-roledescription="area mark container"><path aria-label="Date: Mar 16, 2026; Unique Visitors/day: 0; Repository: karlmdavis/test-repo-for-move" role="graphics-symbol" aria-roledescription="area mark" d="M0,300L21.622,300L43.243,300L64.865,300L86.486,300L108.108,300L129.73,300L151.351,300L172.973,300L194.595,262.5L216.216,225L237.838,300L259.459,262.5L281.081,300L302.703,225L324.324,262.5L345.946,300L367.568,300L389.189,300L410.811,300L432.432,300L454.054,300L475.676,300L497.297,300L518.919,262.5L540.541,300L562.162,300L583.784,300L605.405,300L627.027,300L648.649,300L670.27,300L691.892,300L713.514,300L735.135,300L756.757,262.5L778.378,300L800,300L800,300L778.378,300L756.757,262.5L735.135,300L713.514,300L691.892,300L670.27,300L648.649,300L627.027,300L605.405,300L583.784,300L562.162,300L540.541,300L518.919,262.5L497.297,300L475.676,300L454.054,300L432.432,300L410.811,300L389.189,300L367.568,300L345.946,300L324.324,262.5L302.703,225L281.081,300L259.459,262.5L237.838,300L216.216,225L194.595,262.5L172.973,300L151.351,300L129.73,300L108.108,300L86.486,300L64.865,300L43.243,300L21.622,300L0,300Z" fill="#9d755d"/></g></g><path class="foreground" aria-hidden="true" d="" display="none"/></g><g transform="translate(0,0)"><path class="background" aria-hidden="true" d="M0,0h800v300h-800Z"/><g><g class="mark-area role-mark marks" role="graphics-object" aria-roledescription="area mark container"><path aria-label="Date: Mar 16, 2026; Unique Visitors/day: 0; Repository: karlmdavis/todoist-ai" role="graphics-symbol" aria-roledescription="area mark" d="M0,300L21.622,300L43.243,300L64.865,300L86.486,300L108.108,300L129.73,300L151.351,300L172.973,300L194.595,262.5L216.216,225L237.838,300L259.459,262.5L281.081,300L302.703,225L324.324,262.5L345.946,300L367.568,300L389.189,300L410.811,300L432.432,300L454.054,300L475.676,300L497.297,300L518.919,262.5L540.541,300L562.162,300L583.784,300L605.405,300L627.027,300L648.649,300L670.27,300L691.892,300L713.514,300L735.135,300L756.757,262.5L778.378,300L800,300L800,300L778.378,300L756.757,300L735.135,300L713.514,300L691.892,300L670.27,300L648.649,300L627.027,300L605.405,300L583.784,300L562.162,300L540.541,300L518.919,262.5L497.297,300L475.676,300L454.054,300L432.432,300L410.811,300L389.189,300L367.568,300L345.946,300L324.324,262.5L302.703,262.5L281.081,300L259.459,262.5L237.838,300L216.216,225L194.595,262.5L172.973,300L151.351,300L129.73,300L108.108,300L86.486,300L64.865,300L43.243,300L21.622,300L0,300Z" fill="#bab0ac"/></g></g><path class="foreground" aria-hidden="true" d="" display="none"/></g><g transform="translate(0,0)"><path class="background" aria-hidden="true" d="M0,0h800v300h-800Z"/><g><g class="mark-area role-mark marks" role="graphics-object" aria-roledescription="area mark container"><path aria-label="Date: Mar 16, 2026; Unique Visitors/day: 0; Repository: karlmdavis/usgs-water-api-java" role="graphics-symbol" aria-roledescription="area mark" d="M0,300L21.622,300L43.243,300L64.865,300L86.486,300L108.108,300L129.73,300L151.351,300L172.973,300L194.595,262.5L216.216,225L237.838,300L259.459,262.5L281.081,300L302.703,262.5L324.324,262.5L345.946,300L367.568,300L389.189,300L410.811,300L432.432,300L454.054,300L475.676,300L497.297,300L518.919,262.5L540.541,300L562.162,300L583.784,300L605.405,300L627.027,300L648.649,300L670.27,300L691.892,300L713.514,300L735.135,300L756.757,300L778.378,300L800,300L800,300L778.378,300L756.757,300L735.135,300L713.514,300L691.892,300L670.27,300L648.649,300L627.027,300L605.405,300L583.784,300L562.162,300L540.541,300L518.919,262.5L497.297,300L475.676,300L454.054,300L432.432,300L410.811,300L389.189,300L367.568,300L345.946,300L324.324,262.5L302.703,262.5L281.081,300L259.459,262.5L237.838,300L216.216,225L194.595,262.5L172.973,300L151.351,300L129.73,300L108.108,300L86.486,300L64.865,300L43.243,300L21.622,300L0,300Z" fill="#4c78a8"/></g></g><path class="foreground" aria-hidden="true" d="" display="none"/></g><g transform="translate(0,0)"><path class="background" aria-hidden="true" d="M0,0h800v300h-800Z"/><g><g class="mark-area role-mark marks" role="graphics-object" aria-roledescription="area mark container"><path aria-label="Date: Mar 16, 2026; Unique Visitors/day: 0; Repository: karlmdavis/workstation-base-ansible-role" role="graphics-symbol" aria-roledescription="area mark" d="M0,300L21.622,300L43.243,300L64.865,300L86.486,300L108.108,300L129.73,300L151.351,300L172.973,300L194.595,262.5L216.216,225L237.838,300L259.459,262.5L281.081,300L302.703,262.5L324.324,262.5L345.946,300L367.568,300L389.189,300L410.811,300L432.432,300L454.054,300L475.676,300L497.297,300L518.919,262.5L540.541,300L562.162,300L583.784,300L605.405,300L627.027,300L648.649,300L670.27,300L691.892,300L713.514,300L735.135,300L756.757,300L778.378,300L800,300L800,300L778.378,300L756.757,300L735.135,300L713.514,300L691.892,300L670.27,300L648.649,300L627.027,300L605.405,300L583.784,300L562.162,300L540.541,300L518.919,262.5L497.297,300L475.676,300L454.054,300L432.432,300L410.811,300L389.189,300L367.568,300L345.946,300L324.324,262.5L302.703,262.5L281.081,300L259.459,262.5L237.838,300L216.216,225L194.595,262.5L172.973,300L151.351,300L129.73,300L108.108,300L86.486,300L64.865,300L43.243,300L21.622,300L0,300Z" fill="#f58518"/></g></g><path class="foreground" aria-hidden="true" d="" display="none"/></g><g transform="translate(0,0)"><path class="background" aria-hidden="true" d="M0,0h800v300h-800Z"/><g><g class="mark-area role-mark marks" role="graphics-object" aria-roledescription="area mark container"><path aria-label="Date: Mar 16, 2026; Unique Visitors/day: 0; Repository: karlmdavis/xmlpull" role="graphics-symbol" aria-roledescription="area mark" d="M0,300L21.622,300L43.243,300L64.865,300L86.486,300L108.108,300L129.73,300L151.351,300L172.973,300L194.595,262.5L216.216,225L237.838,300L259.459,262.5L281.081,300L302.703,262.5L324.324,262.5L345.946,300L367.568,300L389.189,300L410.811,300L432.432,300L454.054,300L475.676,300L497.297,300L518.919,262.5L540.541,300L562.162,300L583.784,300L605.405,300L627.027,300L648.649,300L670.27,300L691.892,300L713.514,300L735.135,300L756.757,300L778.378,300L800,300L800,300L778.378,300L756.757,300L735.135,300L713.514,300L691.892,300L670.27,300L648.649,300L627.027,300L605.405,300L583.784,300L562.162,300L540.541,300L518.919,300L497.297,300L475.676,300L454.054,300L432.432,300L410.811,300L389.189,300L367.568,300L345.946,300L324.324,300L302.703,300L281.081,300L259.459,300L237.838,300L216.216,300L194.595,300L172.973,300L151.351,300L129.73,300L108.108,300L86.486,300L64.865,300L43.243,300L21.622,300L0,300Z" fill="#e45756"/></g></g><path class="foreground" aria-hidden="true" d="" display="none"/></g></g><g class="mark-group role-legend" role="graphics-symbol" aria-roledescription="legend" aria-label="Symbol legend titled 'Repository' for fill color with 43 values: justdavis-family/github-analytics-data, justdavis-family/justdavis, karlmdavis/FHIR-Server, karlmdavis/ansible, karlmdavis/ansible-jenkins, ending with karlmdavis/xmlpull"><g transform="translate(818,0)"><path class="background" aria-hidden="true" d="M0,0h176v404h-176Z" pointer-events="none"/><g><g class="mark-group role-legend-entry"><g transform="translate(0,16)"><path class="background" aria-hidden="true" d="M0,0h0v0h0Z" pointer-events="none"/><g><g class="mark-group role-scope" role="graphics-object" aria-roledescription="group mark container"><g transform="translate(0,0)"><path class="background" aria-hidden="true" d="M0,0h176v11h-176Z" pointer-events="none" opacity="1"/><g><g class="mark-symbol role-legend-symbol" pointer-events="none"><path transform="translate(6,6)" d="M5,0A5,5,0,1,1,-5,0A5,5,0,1,1,5,0" fill="#4c78a8" stroke-width="1.5" opacity="1"/></g><g class="mark-text role-legend-label" pointer-events="none"><text text-anchor="start" transform="translate(16,9)" font-family="sans-serif" font-size="10px" fill="#000" opacity="1">justdavis-family/github-analytics-d…</text></g></g><path class="foreground" aria-hidden="true" d="" pointer-events="none" display="none"/></g><g transform="translate(0,13)"><path class="background" aria-hidden="true" d="M0,0h176v11h-176Z" pointer-events="none" opacity="1"/><g><g class="mark-symbol role-legend-symbol" pointer-events="none"><path transform="translate(6,6)" d="M5,0A5,5,0,1,1,-5,0A5,5,0,1,1,5,0" fill="#f58518" stroke-width="1.5" opacity="1"/></g><g class="mark-text role-legend-label" pointer-events="none"><text text-anchor="start" transform="translate(16,9)" font-family="sans-serif" font-size="10px" fill="#000" opacity="1">justdavis-family/justdavis</text></g></g><path class="foreground" aria-hidden="true" d="" pointer-events="none" display="none"/></g><g transform="translate(0,26)"><path class="background" aria-hidden="true" d="M0,0h176v11h-176Z" pointer-events="none" opacity="1"/><g><g class="mark-symbol role-legend-symbol" pointer-events="none"><path transform="translate(6,6)" d="M5,0A5,5,0,1,1,-5,0A5,5,0,1,1,5,0" fill="#e45756" stroke-width="1.5" opacity="1"/></g><g class="mark-text role-legend-label" pointer-events="none"><text text-anchor="start" transform="translate(16,9)" font-family="sans-serif" font-size="10px" fill="#000" opacity="1">karlmdavis/FHIR-Server</text></g></g><path class="foreground" aria-hidden="true" d="" pointer-events="none" display="none"/></g><g transform="translate(0,39)"><path class="background" aria-hidden="true" d="M0,0h176v11h-176Z" pointer-events="none" opacity="1"/><g><g class="mark-symbol role-legend-symbol" pointer-events="none"><path transform="translate(6,6)" d="M5,0A5,5,0,1,1,-5,0A5,5,0,1,1,5,0" fill="#72b7b2" stroke-width="1.5" opacity="1"/></g><g class="mark-text role-legend-label" pointer-events="none"><text text-anchor="start" transform="translate(16,9)" font-family="sans-serif" font-size="10px" fill="#000" opacity="1">karlmdavis/ansible</text></g></g><path class="foreground" aria-hidden="true" d="" pointer-events="none" display="none"/></g><g transform="translate(0,52)"><path class="background" aria-hidden="true" d="M0,0h176v11h-176Z" pointer-events="none" opacity="1"/><g><g class="mark-symbol role-legend-symbol" pointer-events="none"><path transform="translate(6,6)" d="M5,0A5,5,0,1,1,-5,0A5,5,0,1,1,5,0" fill="#54a24b" stroke-width="1.5" opacity="1"/></g><g class="mark-text role-legend-label" pointer-events="none"><text text-anchor="start" transform="translate(16,9)" font-family="sans-serif" font-size="10px" fill="#000" opacity="1">karlmdavis/ansible-jenkins</text></g></g><path class="foreground" aria-hidden="true" d="" pointer-events="none" display="none"/></g><g transform="translate(0,65)"><path class="background" aria-hidden="true" d="M0,0h176v11h-176Z" pointer-events="none" opacity="1"/><g><g class="mark-symbol role-legend-symbol" pointer-events="none"><path transform="translate(6,6)" d="M5,0A5,5,0,1,1,-5,0A5,5,0,1,1,5,0" fill="#eeca3b" stroke-width="1.5" opacity="1"/></g><g class="mark-text role-legend-label" pointer-events="none"><text text-anchor="start" transform="translate(16,9)" font-family="sans-serif" font-size="10px" fill="#000" opacity="1">karlmdavis/ansible-role-acmetool</text></g></g><path class="foreground" aria-hidden="true" d="" pointer-events="none" display="none"/></g><g transform="translate(0,78)"><path class="background" aria-hidden="true" d="M0,0h176v11h-176Z" pointer-events="none" opacity="1"/><g><g class="mark-symbol role-legend-symbol" pointer-events="none"><path transform="translate(6,6)" d="M5,0A5,5,0,1,1,-5,0A5,5,0,1,1,5,0" fill="#b279a2" stroke-width="1.5" opacity="1"/></g><g class="mark-text role-legend-label" pointer-events="none"><text text-anchor="start" transform="translate(16,9)" font-family="sans-serif" font-size="10px" fill="#000" opacity="1">karlmdavis/ansible-role-bind-dns</text></g></g><path class="foreground" aria-hidden="true" d="" pointer-events="none" display="none"/></g><g transform="translate(0,91)"><path class="background" aria-hidden="true" d="M0,0h176v11h-176Z" pointer-events="none" opacity="1"/><g><g class="mark-symbol role-legend-symbol" pointer-events="none"><path transform="translate(6,6)" d="M5,0A5,5,0,1,1,-5,0A5,5,0,1,1,5,0" fill="#ff9da6" stroke-width="1.5" opacity="1"/></g><g class="mark-text role-legend-label" pointer-events="none"><text text-anchor="start" transform="translate(16,9)" font-family="sans-serif" font-size="10px" fill="#000" opacity="1">karlmdavis/ansible-role-jenkins2</text></g></g><path class="foreground" aria-hidden="true" d="" pointer-events="none" display="none"/></g><g transform="translate(0,104)"><path class="background" aria-hidden="true" d="M0,0h176v11h-176Z" pointer-events="none" opacity="1"/><g><g class="mark-symbol role-legend-symbol" pointer-events="none"><path transform="translate(6,6)" d="M5,0A5,5,0,1,1,-5,0A5,5,0,1,1,5,0" fill="#9d755d" stroke-width="1.5" opacity="1"/></g><g class="mark-text role-legend-label" pointer-events="none"><text text-anchor="start" transform="translate(16,9)" font-family="sans-serif" font-size="10px" fill="#000" opacity="1">karlmdavis/ansible-role-ldap</text></g></g><path class="foreground" aria-hidden="true" d="" pointer-events="none" display="none"/></g><g transform="translate(0,117)"><path class="background" aria-hidden="true" d="M0,0h176v11h-176Z" pointer-events="none" opacity="1"/><g><g class="mark-symbol role-legend-symbol" pointer-events="none"><path transform="translate(6,6)" d="M5,0A5,5,0,1,1,-5,0A5,5,0,1,1,5,0" fill="#bab0ac" stroke-width="1.5" opacity="1"/></g><g class="mark-text role-legend-label" pointer-events="none"><text text-anchor="start" transform="translate(16,9)" font-family="sans-serif" font-size="10px" fill="#000" opacity="1">karlmdavis/ansible-role-rcm-dotfiles</text></g></g><path class="foreground" aria-hidden="true" d="" pointer-events="none" display="none"/></g><g transform="translate(0,130)"><path class="background" aria-hidden="true" d="M0,0h176v11h-176Z" pointer-events="none" opacity="1"/><g><g class="mark-symbol role-legend-symbol" pointer-events="none"><path transform="translate(6,6)" d="M5,0A5,5,0,1,1,-5,0A5,5,0,1,1,5,0" fill="#4c78a8" stroke-width="1.5" opacity="1"/></g><g class="mark-text role-legend-label" pointer-events="none"><text text-anchor="start" transform="translate(16,9)" font-family="sans-serif" font-size="10px" fill="#000" opacity="1">karlmdavis/ansible-roles</text></g></g><path class="foreground" aria-hidden="true" d="" pointer-events="none" display="none"/></g><g transform="translate(0,143)"><path class="background" aria-hidden="true" d="M0,0h176v11h-176Z" pointer-events="none" opacity="1"/><g><g class="mark-symbol role-legend-symbol" pointer-events="none"><path transform="translate(6,6)" d="M5,0A5,5,0,1,1,-5,0A5,5,0,1,1,5,0" fill="#f58518" stroke-width="1.5" opacity="1"/></g><g class="mark-text role-legend-label" pointer-events="none"><text text-anchor="start" transform="translate(16,9)" font-family="sans-serif" font-size="10px" fill="#000" opacity="1">karlmdavis/bbonfhir-dev-infra-doc…</text></g></g><path class="foreground" aria-hidden="true" d="" pointer-events="none" display="none"/></g><g transform="translate(0,156)"><path class="background" aria-hidden="true" d="M0,0h176v11h-176Z" pointer-events="none" opacity="1"/><g><g class="mark-symbol role-legend-symbol" pointer-events="none"><path transform="translate(6,6)" d="M5,0A5,5,0,1,1,-5,0A5,5,0,1,1,5,0" fill="#e45756" stroke-width="1.5" opacity="1"/></g><g class="mark-text role-legend-label" pointer-events="none"><text text-anchor="start" transform="translate(16,9)" font-family="sans-serif" font-size="10px" fill="#000" opacity="1">karlmdavis/can-i-kayak-baltimore</text></g></g><path class="foreground" aria-hidden="true" d="" pointer-events="none" display="none"/></g><g transform="translate(0,169)"><path class="background" aria-hidden="true" d="M0,0h176v11h-176Z" pointer-events="none" opacity="1"/><g><g class="mark-symbol role-legend-symbol" pointer-events="none"><path transform="translate(6,6)" d="M5,0A5,5,0,1,1,-5,0A5,5,0,1,1,5,0" fill="#72b7b2" stroke-width="1.5" opacity="1"/></g><g class="mark-text role-legend-label" pointer-events="none"><text text-anchor="start" transform="translate(16,9)" font-family="sans-serif" font-size="10px" fill="#000" opacity="1">karlmdavis/datanucleus-test-jdo-1…</text></g></g><path class="foreground" aria-hidden="true" d="" pointer-events="none" display="none"/></g><g transform="translate(0,182)"><path class="background" aria-hidden="true" d="M0,0h176v11h-176Z" pointer-events="none" opacity="1"/><g><g class="mark-symbol role-legend-symbol" pointer-events="none"><path transform="translate(6,6)" d="M5,0A5,5,0,1,1,-5,0A5,5,0,1,1,5,0" fill="#54a24b" stroke-width="1.5" opacity="1"/></g><g class="mark-text role-legend-label" pointer-events="none"><text text-anchor="start" transform="translate(16,9)" font-family="sans-serif" font-size="10px" fill="#000" opacity="1">karlmdavis/dotfiles</text></g></g><path class="foreground" aria-hidden="true" d="" pointer-events="none" display="none"/></g><g transform="translate(0,195)"><path class="background" aria-hidden="true" d="M0,0h176v11h-176Z" pointer-events="none" opacity="1"/><g><g class="mark-symbol role-legend-symbol" pointer-events="none"><path transform="translate(6,6)" d="M5,0A5,5,0,1,1,-5,0A5,5,0,1,1,5,0" fill="#eeca3b" stroke-width="1.5" opacity="1"/></g><g class="mark-text role-legend-label" pointer-events="none"><text text-anchor="start" transform="translate(16,9)" font-family="sans-serif" font-size="10px" fill="#000" opacity="1">karlmdavis/fhir-benchmarks</text></g></g><path class="foreground" aria-hidden="true" d="" pointer-events="none" display="none"/></g><g transform="translate(0,208)"><path class="background" aria-hidden="true" d="M0,0h176v11h-176Z" pointer-events="none" opacity="1"/><g><g class="mark-symbol role-legend-symbol" pointer-events="none"><path transform="translate(6,6)" d="M5,0A5,5,0,1,1,-5,0A5,5,0,1,1,5,0" fill="#b279a2" stroke-width="1.5" opacity="1"/></g><g class="mark-text role-legend-label" pointer-events="none"><text text-anchor="start" transform="translate(16,9)" font-family="sans-serif" font-size="10px" fill="#000" opacity="1">karlmdavis/hapi-fhir-jpaserver-sta…</text></g></g><path class="foreground" aria-hidden="true" d="" pointer-events="none" display="none"/></g><g transform="translate(0,221)"><path class="background" aria-hidden="true" d="M0,0h176v11h-176Z" pointer-events="none" opacity="1"/><g><g class="mark-symbol role-legend-symbol" pointer-events="none"><path transform="translate(6,6)" d="M5,0A5,5,0,1,1,-5,0A5,5,0,1,1,5,0" fill="#ff9da6" stroke-width="1.5" opacity="1"/></g><g class="mark-text role-legend-label" pointer-events="none"><text text-anchor="start" transform="translate(16,9)" font-family="sans-serif" font-size="10px" fill="#000" opacity="1">karlmdavis/hello-rust-actix</text></g></g><path class="foreground" aria-hidden="true" d="" pointer-events="none" display="none"/></g><g transform="translate(0,234)"><path class="background" aria-hidden="true" d="M0,0h176v11h-176Z" pointer-events="none" opacity="1"/><g><g class="mark-symbol role-legend-symbol" pointer-events="none"><path transform="translate(6,6)" d="M5,0A5,5,0,1,1,-5,0A5,5,0,1,1,5,0" fill="#9d755d" stroke-width="1.5" opacity="1"/></g><g class="mark-text role-legend-label" pointer-events="none"><text text-anchor="start" transform="translate(16,9)" font-family="sans-serif" font-size="10px" fill="#000" opacity="1">karlmdavis/jessentials</text></g></g><path class="foreground" aria-hidden="true" d="" pointer-events="none" display="none"/></g><g transform="translate(0,247)"><path class="background" aria-hidden="true" d="M0,0h176v11h-176Z" pointer-events="none" opacity="1"/><g><g class="mark-symbol role-legend-symbol" pointer-events="none"><path transform="translate(6,6)" d="M5,0A5,5,0,1,1,-5,0A5,5,0,1,1,5,0" fill="#bab0ac" stroke-width="1.5" opacity="1"/></g><g class="mark-text role-legend-label" pointer-events="none"><text text-anchor="start" transform="translate(16,9)" font-family="sans-serif" font-size="10px" fill="#000" opacity="1">karlmdavis/justdavis-ansible</text></g></g><path class="foreground" aria-hidden="true" d="" pointer-events="none" display="none"/></g><g transform="translate(0,260)"><path class="background" aria-hidden="true" d="M0,0h176v11h-176Z" pointer-events="none" opacity="1"/><g><g class="mark-symbol role-legend-symbol" pointer-events="none"><path transform="translate(6,6)" d="M5,0A5,5,0,1,1,-5,0A5,5,0,1,1,5,0" fill="#4c78a8" stroke-width="1.5" opacity="1"/></g><g class="mark-text role-legend-label" pointer-events="none"><text text-anchor="start" transform="translate(16,9)" font-family="sans-serif" font-size="10px" fill="#000" opacity="1">karlmdavis/justdavis-finances</text></g></g><path class="foreground" aria-hidden="true" d="" pointer-events="none" display="none"/></g><g transform="translate(0,273)"><path class="background" aria-hidden="true" d="M0,0h176v11h-176Z" pointer-events="none" opacity="1"/><g><g class="mark-symbol role-legend-symbol" pointer-events="none"><path transform="translate(6,6)" d="M5,0A5,5,0,1,1,-5,0A5,5,0,1,1,5,0" fill="#f58518" stroke-width="1.5" opacity="1"/></g><g class="mark-text role-legend-label" pointer-events="none"><text text-anchor="start" transform="translate(16,9)" font-family="sans-serif" font-size="10px" fill="#000" opacity="1">karlmdavis/justdavis-karl</text></g></g><path class="foreground" aria-hidden="true" d="" pointer-events="none" display="none"/></g><g transform="translate(0,286)"><path class="background" aria-hidden="true" d="M0,0h176v11h-176Z" pointer-events="none" opacity="1"/><g><g class="mark-symbol role-legend-symbol" pointer-events="none"><path transform="translate(6,6)" d="M5,0A5,5,0,1,1,-5,0A5,5,0,1,1,5,0" fill="#e45756" stroke-width="1.5" opacity="1"/></g><g class="mark-text role-legend-label" pointer-events="none"><text text-anchor="start" transform="translate(16,9)" font-family="sans-serif" font-size="10px" fill="#000" opacity="1">karlmdavis/justdavis-puppet</text></g></g><path class="foreground" aria-hidden="true" d="" pointer-events="none" display="none"/></g><g transform="translate(0,299)"><path class="background" aria-hidden="true" d="M0,0h176v11h-176Z" pointer-events="none" opacity="1"/><g><g class="mark-symbol role-legend-symbol" pointer-events="none"><path transform="translate(6,6)" d="M5,0A5,5,0,1,1,-5,0A5,5,0,1,1,5,0" fill="#72b7b2" stroke-width="1.5" opacity="1"/></g><g class="mark-text role-legend-label" pointer-events="none"><text text-anchor="start" transform="translate(16,9)" font-family="sans-serif" font-size="10px" fill="#000" opacity="1">karlmdavis/kobjects</text></g></g><path class="foreground" aria-hidden="true" d="" pointer-events="none" display="none"/></g><g transform="translate(0,312)"><path class="background" aria-hidden="true" d="M0,0h176v11h-176Z" pointer-events="none" opacity="1"/><g><g class="mark-symbol role-legend-symbol" pointer-events="none"><path transform="translate(6,6)" d="M5,0A5,5,0,1,1,-5,0A5,5,0,1,1,5,0" fill="#54a24b" stroke-width="1.5" opacity="1"/></g><g class="mark-text role-legend-label" pointer-events="none"><text text-anchor="start" transform="translate(16,9)" font-family="sans-serif" font-size="10px" fill="#000" opacity="1">karlmdavis/ksoap2-android</text></g></g><path class="foreground" aria-hidden="true" d="" pointer-events="none" display="none"/></g><g transform="translate(0,325)"><path class="background" aria-hidden="true" d="M0,0h176v11h-176Z" pointer-events="none" opacity="1"/><g><g class="mark-symbol role-legend-symbol" pointer-events="none"><path transform="translate(6,6)" d="M5,0A5,5,0,1,1,-5,0A5,5,0,1,1,5,0" fill="#eeca3b" stroke-width="1.5" opacity="1"/></g><g class="mark-text role-legend-label" pointer-events="none"><text text-anchor="start" transform="translate(16,9)" font-family="sans-serif" font-size="10px" fill="#000" opacity="1">karlmdavis/kxml2</text></g></g><path class="foreground" aria-hidden="true" d="" pointer-events="none" display="none"/></g><g transform="translate(0,338)"><path class="background" aria-hidden="true" d="M0,0h176v11h-176Z" pointer-events="none" opacity="1"/><g><g class="mark-symbol role-legend-symbol" pointer-events="none"><path transform="translate(6,6)" d="M5,0A5,5,0,1,1,-5,0A5,5,0,1,1,5,0" fill="#b279a2" stroke-width="1.5" opacity="1"/></g><g class="mark-text role-legend-label" pointer-events="none"><text text-anchor="start" transform="translate(16,9)" font-family="sans-serif" font-size="10px" fill="#000" opacity="1">karlmdavis/ldap-plugin</text></g></g><path class="foreground" aria-hidden="true" d="" pointer-events="none" display="none"/></g><g transform="translate(0,351)"><path class="background" aria-hidden="true" d="M0,0h176v11h-176Z" pointer-events="none" opacity="1"/><g><g class="mark-symbol role-legend-symbol" pointer-events="none"><path transform="translate(6,6)" d="M5,0A5,5,0,1,1,-5,0A5,5,0,1,1,5,0" fill="#ff9da6" stroke-width="1.5" opacity="1"/></g><g class="mark-text role-legend-label" pointer-events="none"><text text-anchor="start" transform="translate(16,9)" font-family="sans-serif" font-size="10px" fill="#000" opacity="1">karlmdavis/lego-ev3dev-rs</text></g></g><path class="foreground" aria-hidden="true" d="" pointer-events="none" display="none"/></g><g transform="translate(0,364)"><path class="background" aria-hidden="true" d="M0,0h176v11h-176Z" pointer-events="none" opacity="1"/><g><g class="mark-symbol role-legend-symbol" pointer-events="none"><path transform="translate(6,6)" d="M5,0A5,5,0,1,1,-5,0A5,5,0,1,1,5,0" fill="#9d755d" stroke-width="1.5" opacity="1"/></g><g class="mark-text role-legend-label" pointer-events="none"><text text-anchor="start" transform="translate(16,9)" font-family="sans-serif" font-size="10px" fill="#000" opacity="1">karlmdavis/liquibase</text></g></g><path class="foreground" aria-hidden="true" d="" pointer-events="none" display="none"/></g><g transform="translate(0,377)"><path class="background" aria-hidden="true" d="M0,0h176v11h-176Z" pointer-events="none" opacity="1"/><g><g class="mark-symbol role-legend-symbol" pointer-events="none"><path transform="translate(6,6)" d="M5,0A5,5,0,1,1,-5,0A5,5,0,1,1,5,0" fill="#bab0ac" stroke-width="1.5" opacity="1"/></g><g class="mark-text role-legend-label" pointer-events="none"><text text-anchor="start" transform="translate(16,9)" font-family="sans-serif" font-size="10px" fill="#000" opacity="1">…14 entries</text></g></g><path class="foreground" aria-hidden="true" d="" pointer-events="none" display="none"/></g></g></g><path class="foreground" aria-hidden="true" d="" pointer-events="none" display="none"/></g></g><g class="mark-text role-legend-title" pointer-events="none"><text text-anchor="start" transform="translate(0,9)" font-family="sans-serif" font-size="11px" font-weight="bold" fill="#000" opacity="1">Repository</text></g></g><path class="foreground" aria-hidden="true" d="" pointer-events="none" display="none"/></g></g><g class="mark-group role-title"><g transform="translate(400,-22)"><path class="background" aria-hidden="true" d="M0,0h0v0h0Z" pointer-events="none"/><g><g class="mark-text role-title-text" role="graphics-symbol" aria-roledescription="title" aria-label="Title text 'Unique Visitors per Day'" pointer-events="none"><text text-anchor="middle" transform="translate(0,10)" font-family="sans-serif" font-size="13px" font-weight="bold" fill="#000" opacity="1">Unique Visitors per Day</text></g></g><path class="foreground" aria-hidden="true" d="" pointer-events="none" display="none"/></g></g></g><path class="foreground" aria-hidden="true" d="" display="none"/></g></g></g></svg>