<svg xmlns="http://www.w3.org/2000/svg" xmlns:xlink="http://www.w3.org/1999/xlink" version="1.1" class="marks" width="1043" height="436" viewBox="0 0 1043 436"><rect width="1043" height="436" fill="white"/><g fill="none" stroke-miterlimit="10" transform="translate(44,27)"><g class="mark-group role-frame root" role="graphics-object" aria-roledescription="group mark container"><g transform="translate(0,0)"><path class="background" aria-hidden="true" d="M0.5,0.5h800v300h-800Z" stroke="#ddd"/><g><g class="mark-group role-axis" aria-hidden="true"><g transform="translate(0.5,300.5)"><path class="background" aria-hidden="true" d="M0,0h0v0h0Z" pointer-events="none"/><g><g class="mark-rule role-axis-grid" pointer-events="none"><line transform="translate(22,-300)" x2="0" y2="300" stroke="#ddd" stroke-width="1" opacity="1"/><line transform="translate(67,-300)" x2="0" y2="300" stroke="#ddd" stroke-width="1" opacity="1"/><line transform="translate(111,-300)" x2="0" y2="300" stroke="#ddd" stroke-width="1" opacity="1"/><line transform="translate(156,-300)" x2="0" y2="300" stroke="#ddd" stroke-width="1" opacity="1"/><line transform="translate(200,-300)" x2="0" y2="300" stroke="#ddd" stroke-width="1" opacity="1"/><line transform="translate(244,-300)" x2="0" y2="300" stroke="#ddd" stroke-width="1" opacity="1"/><line transform="translate(289,-300)" x2="0" y2="300" stroke="#ddd" stroke-width="1" opacity="1"/><line transform="translate(333,-300)" x2="0" y2="300" stroke="#ddd" stroke-width="1" opacity="1"/><line transform="translate(356,-300)" x2="0" y2="300" stroke="#ddd" stroke-width="1" opacity="1"/><line transform="translate(400,-300)" x2="0" y2="300" stroke="#ddd" stroke-width="1" opacity="1"/><line transform="translate(444,-300)" x2="0" y2="300" stroke="#ddd" stroke-width="1" opacity="1"/><line transform="translate(489,-300)" x2="0" y2="300" stroke="#ddd" stroke-width="1" opacity="1"/><line transform="translate(533,-300)" x2="0" y2="300" stroke="#ddd" stroke-width="1" opacity="1"/><line transform="translate(578,-300)" x2="0" y2="300" stroke="#ddd" stroke-width="1" opacity="1"/><line transform="translate(622,-300)" x2="0" y2="300" stroke="#ddd" stroke-width="1" opacity="1"/><line transform="translate(667,-300)" x2="0" y2="300" stroke="#ddd" stroke-width="1" opacity="1"/><line transform="translate(711,-300)" x2="0" y2="300" stroke="#ddd" stroke-width="1" opacity="1"/><line transform="translate(756,-300)" x2="0" y2="300" stroke="#ddd" stroke-width="1" opacity="1"/><line transform="translate(800,-300)" x2="0" y2="300" stroke="#ddd" stroke-width="1" opacity="1"/></g></g><path class="foreground" aria-hidden="true" d="" pointer-events="none" display="none"/></g></g><g class="mark-group role-axis" aria-hidden="true"><g transform="translate(0.5,0.5)"><path class="background" aria-hidden="true" d="M0,0h0v0h0Z" pointer-events="none"/><g><g class="mark-rule role-axis-grid" pointer-events="none"><line transform="translate(0,300)" x2="800" y2="0" stroke="#ddd" stroke-width="1" opacity="1"/><line transform="translate(0,273)" x2="800" y2="0" stroke="#ddd" stroke-width="1" opacity="1"/><line transform="translate(0,245)" x2="800" y2="0" stroke="#ddd" stroke-width="1" opacity="1"/><line transform="translate(0,218)" x2="800" y2="0" stroke="#ddd" stroke-width="1" opacity="1"/><line transform="translate(0,191)" x2="800" y2="0" stroke="#ddd" stroke-width="1" opacity="1"/><line transform="translate(0,164)" x2="800" y2="0" stroke="#ddd" stroke-width="1" opacity="1"/><line transform="translate(0,136)" x2="800" y2="0" stroke="#ddd" stroke-width="1" opacity="1"/><line transform="translate(0,109)" x2="800" y2="0" stroke="#ddd" stroke-width="1" opacity="1"/><line transform="translate(0,82)" x2="800" y2="0" stroke="#ddd" stroke-width="1" opacity="1"/><line transform="translate(0,55)" x2="800" y2="0" stroke="#ddd" stroke-width="1" opacity="1"/><line transform="translate(0,27)" x2="800" y2="0" stroke="#ddd" stroke-width="1" opacity="1"/><line transform="translate(0,0)" x2="800" y2="0" stroke="#ddd" stroke-width="1" opacity="1"/></g></g><path class="foreground" aria-hidden="true" d="" pointer-events="none" display="none"/></g></g><g class="mark-group role-axis" role="graphics-symbol" aria-roledescription="axis" aria-label="X-axis titled 'Date' for a time scale with values from Monday, 16 March 2026, 12:00:00 AM to Tuesday, 21 April 2026, 12:00:00 AM"><g transform="translate(0.5,300.5)"><path class="background" aria-hidden="true" d="M0,0h0v0h0Z" pointer-events="none"/><g><g class="mark-rule role-axis-tick" pointer-events="none"><line transform="translate(22,0)" x2="0" y2="5" stroke="#888" stroke-width="1" opacity="1"/><line transform="translate(67,0)" x2="0" y2="5" stroke="#888" stroke-width="1" opacity="1"/><line transform="translate(111,0)" x2="0" y2="5" stroke="#888" stroke-width="1" opacity="1"/><line transform="translate(156,0)" x2="0" y2="5" stroke="#888" stroke-width="1" opacity="1"/><line transform="translate(200,0)" x2="0" y2="5" stroke="#888" stroke-width="1" opacity="1"/><line transform="translate(244,0)" x2="0" y2="5" stroke="#888" stroke-width="1" opacity="1"/><line transform="translate(289,0)" x2="0" y2="5" stroke="#888" stroke-width="1" opacity="1"/><line transform="translate(333,0)" x2="0" y2="5" stroke="#888" stroke-width="1" opacity="1"/><line transform="translate(356,0)" x2="0" y2="5" stroke="#888" stroke-width="1" opacity="1"/><line transform="translate(400,0)" x2="0" y2="5" stroke="#888" stroke-width="1" opacity="1"/><line transform="translate(444,0)" x2="0" y2="5" stroke="#888" stroke-width="1" opacity="1"/><line transform="translate(489,0)" x2="0" y2="5" stroke="#888" stroke-width="1" opacity="1"/><line transform="translate(533,0)" x2="0" y2="5" stroke="#888" stroke-width="1" opacity="1"/><line transform="translate(578,0)" x2="0" y2="5" stroke="#888" stroke-width="1" opacity="1"/><line transform="translate(622,0)" x2="0" y2="5" stroke="#888" stroke-width="1" opacity="1"/><line transform="translate(667,0)" x2="0" y2="5" stroke="#888" stroke-width="1" opacity="1"/><line transform="translate(711,0)" x2="0" y2="5" stroke="#888" stroke-width="1" opacity="1"/><line transform="translate(756,0)" x2="0" y2="5" stroke="#888" stroke-width="1" opacity="1"/><line transform="translate(800,0)" x2="0" y2="5" stroke="#888" stroke-width="1" opacity="1"/></g><g class="mark-text role-axis-label" pointer-events="none"><text text-anchor="middle" transform="translate(22.22222222222222,15)" font-family="sans-serif" font-size="10px" fill="#000" opacity="1">Tue 17</text><text text-anchor="middle" transform="translate(66.66666666666666,15)" font-family="sans-serif" font-size="10px" fill="#000" opacity="0">Thu 19</text><text text-anchor="middle" transform="translate(111.11111111111111,15)" font-family="sans-serif" font-size="10px" fill="#000" opacity="1">Sat 21</text><text text-anchor="middle" transform="translate(155.55555555555557,15)" font-family="sans-serif" font-size="10px" fill="#000" opacity="0">Mon 23</text><text text-anchor="middle" transform="translate(200,15)" font-family="sans-serif" font-size="10px" fill="#000" opacity="1">Wed 25</text><text text-anchor="middle" transform="translate(244.44444444444446,15)" font-family="sans-serif" font-size="10px" fill="#000" opacity="0">Fri 27</text><text text-anchor="middle" transform="translate(288.88888888888886,15)" font-family="sans-serif" font-size="10px" fill="#000" opacity="1">Mar 29</text><text text-anchor="middle" transform="translate(333.33333333333337,15)" font-family="sans-serif" font-size="10px" fill="#000" opacity="0">Tue 31</text><text text-anchor="middle" transform="translate(355.55555555555554,15)" font-family="sans-serif" font-size="10px" fill="#000" opacity="1">April</text><text text-anchor="middle" transform="translate(400,15)" font-family="sans-serif" font-size="10px" fill="#000" opacity="0">Fri 03</text><text text-anchor="middle" transform="translate(444.44444444444446,15)" font-family="sans-serif" font-size="10px" fill="#000" opacity="1">Apr 05</text><text text-anchor="middle" transform="translate(488.8888888888889,15)" font-family="sans-serif" font-size="10px" fill="#000" opacity="0">Tue 07</text><text text-anchor="middle" transform="translate(533.3333333333333,15)" font-family="sans-serif" font-size="10px" fill="#000" opacity="1">Thu 09</text><text text-anchor="middle" transform="translate(577.7777777777777,15)" font-family="sans-serif" font-size="10px" fill="#000" opacity="0">Sat 11</text><text text-anchor="middle" transform="translate(622.2222222222223,15)" font-family="sans-serif" font-size="10px" fill="#000" opacity="1">Mon 13</text><text text-anchor="middle" transform="translate(666.6666666666667,15)" font-family="sans-serif" font-size="10px" fill="#000" opacity="0">Wed 15</text><text text-anchor="middle" transform="translate(711.1111111111111,15)" font-family="sans-serif" font-size="10px" fill="#000" opacity="1">Fri 17</text><text text-anchor="middle" transform="translate(755.5555555555555,15)" font-family="sans-serif" font-size="10px" fill="#000" opacity="0">Apr 19</text><text text-anchor="end" transform="translate(800,15)" font-family="sans-serif" font-size="10px" fill="#000" opacity="1">Tue 21</text></g><g class="mark-rule role-axis-domain" pointer-events="none"><line transform="translate(0,0)" x2="800" y2="0" stroke="#888" stroke-width="1" opacity="1"/></g><g class="mark-text role-axis-title" pointer-events="none"><text text-anchor="middle" transform="translate(400,30)" font-family="sans-serif" font-size="11px" font-weight="bold" fill="#000" opacity="1">Date</text></g></g><path class="foreground" aria-hidden="true" d="" pointer-events="none" display="none"/></g></g><g class="mark-group role-axis" role="graphics-symbol" aria-roledescription="axis" aria-label="Y-axis titled 'Unique Clones/day' for a linear scale with values from 0 to 220"><g transform="translate(0.5,0.5)"><path class="background" aria-hidden="true" d="M0,0h0v0h0Z" pointer-events="none"/><g><g class="mark-rule role-axis-tick" pointer-events="none"><line transform="translate(0,300)" x2="-5" y2="0" stroke="#888" stroke-width="1" opacity="1"/><line transform="translate(0,273)" x2="-5" y2="0" stroke="#888" stroke-width="1" opacity="1"/><line transform="translate(0,245)" x2="-5" y2="0" stroke="#888" stroke-width="1" opacity="1"/><line transform="translate(0,218)" x2="-5" y2="0" stroke="#888" stroke-width="1" opacity="1"/><line transform="translate(0,191)" x2="-5" y2="0" stroke="#888" stroke-width="1" opacity="1"/><line transform="translate(0,164)" x2="-5" y2="0" stroke="#888" stroke-width="1" opacity="1"/><line transform="translate(0,136)" x2="-5" y2="0" stroke="#888" stroke-width="1" opacity="1"/><line transform="translate(0,109)" x2="-5" y2="0" stroke="#888" stroke-width="1" opacity="1"/><line transform="translate(0,82)" x2="-5" y2="0" stroke="#888" stroke-width="1" opacity="1"/><line transform="translate(0,55)" x2="-5" y2="0" stroke="#888" stroke-width="1" opacity="1"/><line transform="translate(0,27)" x2="-5" y2="0" stroke="#888" stroke-width="1" opacity="1"/><line transform="translate(0,0)" x2="-5" y2="0" stroke="#888" stroke-width="1" opacity="1"/></g><g class="mark-text role-axis-label" pointer-events="none"><text text-anchor="end" transform="translate(-7,303)" font-family="sans-serif" font-size="10px" fill="#000" opacity="1">0</text><text text-anchor="end" transform="translate(-7,275.7272727272727)" font-family="sans-serif" font-size="10px" fill="#000" opacity="1">20</text><text text-anchor="end" transform="translate(-7,248.45454545454544)" font-family="sans-serif" font-size="10px" fill="#000" opacity="1">40</text><text text-anchor="end" transform="translate(-7,221.1818181818182)" font-family="sans-serif" font-size="10px" fill="#000" opacity="1">60</text><text text-anchor="end" transform="translate(-7,193.9090909090909)" font-family="sans-serif" font-size="10px" fill="#000" opacity="1">80</text><text text-anchor="end" transform="translate(-7,166.63636363636363)" font-family="sans-serif" font-size="10px" fill="#000" opacity="1">100</text><text text-anchor="end" transform="translate(-7,139.36363636363637)" font-family="sans-serif" font-size="10px" fill="#000" opacity="1">120</text><text text-anchor="end" transform="translate(-7,112.0909090909091)" font-family="sans-serif" font-size="10px" fill="#000" opacity="1">140</text><text text-anchor="end" transform="translate(-7,84.81818181818181)" font-family="sans-serif" font-size="10px" fill="#000" opacity="1">160</text><text text-anchor="end" transform="translate(-7,57.54545454545453)" font-family="sans-serif" font-size="10px" fill="#000" opacity="1">180</text><text text-anchor="end" transform="translate(-7,30.27272727272728)" font-family="sans-serif" font-size="10px" fill="#000" opacity="1">200</text><text text-anchor="end" transform="translate(-7,3)" font-family="sans-serif" font-size="10px" fill="#000" opacity="1">220</text></g><g class="mark-rule role-axis-domain" pointer-events="none"><line transform="translate(0,300)" x2="0" y2="-300" stroke="#888" stroke-width="1" opacity="1"/></g><g class="mark-text role-axis-title" pointer-events="none"><text text-anchor="middle" transform="translate(-27.6845703125,150) rotate(-90) translate(0,-2)" font-family="sans-serif" font-size="11px" font-weight="bold" fill="#000" opacity="1">Unique Clones/day</text></g></g><path class="foreground" aria-hidden="true" d="" pointer-events="none" display="none"/></g></g><g class="mark-group role-scope pathgroup" role="graphics-object" aria-roledescription="group mark container"><g transform="translate(0,0)"><path class="background" aria-hidden="true" d="M0,0h800v300h-800Z"/><g><g class="mark-area role-mark marks" role="graphics-object" aria-roledescription="area mark container"><path aria-label="Date: Mar 16, 2026; Unique Clones/day: 0; Repository: justdavis-family/github-analytics-data" role="graphics-symbol" aria-roledescription="area mark" d="M0,298.636L22.222,300L44.444,300L66.667,298.636L88.889,300L111.111,300L133.333,300L155.556,282.273L177.778,297.273L200,290.455L222.222,278.182L244.444,205.909L266.667,237.273L288.889,169.091L311.111,255L333.333,268.636L355.556,274.091L377.778,286.364L400,259.091L422.222,73.636L444.444,148.636L466.667,257.727L488.889,155.455L511.111,250.909L533.333,229.091L555.556,271.364L577.778,249.545L600,212.727L622.222,4.091L644.444,267.273L666.667,260.455L688.889,274.091L711.111,280.909L733.333,278.182L755.556,255L777.778,185.455L800,237.273L800,256.364L777.778,201.818L755.556,270L733.333,294.545L711.111,287.727L688.889,289.091L666.667,278.182L644.444,282.273L622.222,10.909L600,229.091L577.778,260.455L555.556,280.909L533.333,238.636L511.111,257.727L488.889,190.909L466.667,257.727L444.444,148.636L422.222,73.636L400,259.091L377.778,286.364L355.556,274.091L333.333,268.636L311.111,255L288.889,169.091L266.667,237.273L244.444,205.909L222.222,278.182L200,290.455L177.778,297.273L155.556,282.273L133.333,300L111.111,300L88.889,300L66.667,298.636L44.444,300L22.222,300L0,298.636Z" fill="#4c78a8"/></g></g><path class="foreground" aria-hidden="true" d="" display="none"/></g><g transform="translate(0,0)"><path class="background" aria-hidden="true" d="M0,0h800v300h-800Z"/><g><g class="mark-area role-mark marks" role="graphics-object" aria-roledescription="area mark container"><path aria-label="Date: Mar 16, 2026; Unique Clones/day: 0; Repository: justdavis-family/justdavis" role="graphics-symbol" aria-roledescription="area mark" d="M0,298.636L22.222,300L44.444,300L66.667,298.636L88.889,300L111.111,300L133.333,300L155.556,282.273L177.778,297.273L200,290.455L222.222,278.182L244.444,205.909L266.667,237.273L288.889,169.091L311.111,255L333.333,268.636L355.556,274.091L377.778,286.364L400,259.091L422.222,73.636L444.444,148.636L466.667,257.727L488.889,190.909L511.111,257.727L533.333,238.636L555.556,280.909L577.778,260.455L600,229.091L622.222,10.909L644.444,282.273L666.667,278.182L688.889,289.091L711.111,287.727L733.333,294.545L755.556,270L777.778,201.818L800,256.364L800,259.091L777.778,205.909L755.556,271.364L733.333,295.909L711.111,291.818L688.889,291.818L666.667,283.636L644.444,283.636L622.222,178.636L600,250.909L577.778,264.545L555.556,283.636L533.333,244.091L511.111,260.455L488.889,259.091L466.667,282.273L444.444,189.545L422.222,180L400,260.455L377.778,286.364L355.556,275.455L333.333,268.636L311.111,255L288.889,169.091L266.667,237.273L244.444,205.909L222.222,278.182L200,290.455L177.778,297.273L155.556,283.636L133.333,300L111.111,300L88.889,300L66.667,298.636L44.444,300L22.222,300L0,298.636Z" fill="#f58518"/></g></g><path class="foreground" aria-hidden="true" d="" display="none"/></g><g transform="translate(0,0)"><path class="background" aria-hidden="true" d="M0,0h800v300h-800Z"/><g><g class="mark-area role-mark marks" role="graphics-object" aria-roledescription="area mark container"><path aria-label="Date: Mar 16, 2026; Unique Clones/day: 0; Repository: karlmdavis/FHIR-Server" role="graphics-symbol" aria-roledescription="area mark" d="M0,298.636L22.222,300L44.444,300L66.667,298.636L88.889,300L111.111,300L133.333,300L155.556,283.636L177.778,297.273L200,290.455L222.222,278.182L244.444,205.909L266.667,237.273L288.889,169.091L311.111,255L333.333,268.636L355.556,275.455L377.778,286.364L400,260.455L422.222,180L444.444,189.545L466.667,282.273L488.889,259.091L511.111,260.455L533.333,244.091L555.556,283.636L577.778,264.545L600,250.909L622.222,178.636L644.444,283.636L666.667,283.636L688.889,291.818L711.111,291.818L733.333,295.909L755.556,271.364L777.778,205.909L800,259.091L800,259.091L777.778,207.273L755.556,271.364L733.333,295.909L711.111,291.818L688.889,291.818L666.667,283.636L644.444,283.636L622.222,178.636L600,252.273L577.778,267.273L555.556,283.636L533.333,244.091L511.111,260.455L488.889,259.091L466.667,282.273L444.444,189.545L422.222,180L400,260.455L377.778,286.364L355.556,275.455L333.333,270L311.111,255L288.889,169.091L266.667,237.273L244.444,205.909L222.222,278.182L200,290.455L177.778,297.273L155.556,283.636L133.333,300L111.111,300L88.889,300L66.667,298.636L44.444,300L22.222,300L0,298.636Z" fill="#e45756"/></g></g><path class="foreground" aria-hidden="true" d="" display="none"/></g><g transform="translate(0,0)"><path class="background" aria-hidden="true" d="M0,0h800v300h-800Z"/><g><g class="mark-area role-mark marks" role="graphics-object" aria-roledescription="area mark container"><path aria-label="Date: Mar 16, 2026; Unique Clones/day: 1; Repository: karlmdavis/ansible" role="graphics-symbol" aria-roledescription="area mark" d="M0,298.636L22.222,300L44.444,300L66.667,298.636L88.889,300L111.111,300L133.333,300L155.556,283.636L177.778,297.273L200,290.455L222.222,278.182L244.444,205.909L266.667,237.273L288.889,169.091L311.111,255L333.333,270L355.556,275.455L377.778,286.364L400,260.455L422.222,180L444.444,189.545L466.667,282.273L488.889,259.091L511.111,260.455L533.333,244.091L555.556,283.636L577.778,267.273L600,252.273L622.222,178.636L644.444,283.636L666.667,283.636L688.889,291.818L711.111,291.818L733.333,295.909L755.556,271.364L777.778,207.273L800,259.091L800,259.091L777.778,207.273L755.556,271.364L733.333,295.909L711.111,291.818L688.889,291.818L666.667,283.636L644.444,285L622.222,178.636L600,252.273L577.778,267.273L555.556,283.636L533.333,244.091L511.111,260.455L488.889,259.091L466.667,282.273L444.444,189.545L422.222,180L400,260.455L377.778,286.364L355.556,275.455L333.333,270L311.111,255L288.889,169.091L266.667,237.273L244.444,205.909L222.222,278.182L200,290.455L177.778,297.273L155.556,283.636L133.333,300L111.111,300L88.889,300L66.667,298.636L44.444,300L22.222,300L0,300Z" fill="#72b7b2"/></g></g><path class="foreground" aria-hidden="true" d="" display="none"/></g><g transform="translate(0,0)"><path class="background" aria-hidden="true" d="M0,0h800v300h-800Z"/><g><g class="mark-area role-mark marks" role="graphics-object" aria-roledescription="area mark container"><path aria-label="Date: Mar 16, 2026; Unique Clones/day: 0; Repository: karlmdavis/ansible-jenkins" role="graphics-symbol" aria-roledescription="area mark" d="M0,300L22.222,300L44.444,300L66.667,298.636L88.889,300L111.111,300L133.333,300L155.556,283.636L177.778,297.273L200,290.455L222.222,278.182L244.444,205.909L266.667,237.273L288.889,169.091L311.111,255L333.333,270L355.556,275.455L377.778,286.364L400,260.455L422.222,180L444.444,189.545L466.667,282.273L488.889,259.091L511.111,260.455L533.333,244.091L555.556,283.636L577.778,267.273L600,252.273L622.222,178.636L644.444,285L666.667,283.636L688.889,291.818L711.111,291.818L733.333,295.909L755.556,271.364L777.778,207.273L800,259.091L800,259.091L777.778,207.273L755.556,271.364L733.333,295.909L711.111,291.818L688.889,291.818L666.667,283.636L644.444,285L622.222,178.636L600,253.636L577.778,267.273L555.556,283.636L533.333,244.091L511.111,260.455L488.889,259.091L466.667,282.273L444.444,189.545L422.222,181.364L400,261.818L377.778,286.364L355.556,275.455L333.333,270L311.111,255L288.889,169.091L266.667,237.273L244.444,205.909L222.222,279.545L200,290.455L177.778,297.273L155.556,283.636L133.333,300L111.111,300L88.889,300L66.667,298.636L44.444,300L22.222,300L0,300Z" fill="#54a24b"/></g></g><path class="foreground" aria-hidden="true" d="" display="none"/></g><g transform="translate(0,0)"><path class="background" aria-hidden="true" d="M0,0h800v300h-800Z"/><g><g class="mark-area role-mark marks" role="graphics-object" aria-roledescription="area mark container"><path aria-label="Date: Mar 16, 2026; Unique Clones/day: 0; Repository: karlmdavis/ansible-role-acmetool" role="graphics-symbol" aria-roledescription="area mark" d="M0,300L22.222,300L44.444,300L66.667,298.636L88.889,300L111.111,300L133.333,300L155.556,283.636L177.778,297.273L200,290.455L222.222,279.545L244.444,205.909L266.667,237.273L288.889,169.091L311.111,255L333.333,270L355.556,275.455L377.778,286.364L400,261.818L422.222,181.364L444.444,189.545L466.667,282.273L488.889,259.091L511.111,260.455L533.333,244.091L555.556,283.636L577.778,267.273L600,253.636L622.222,178.636L644.444,285L666.667,283.636L688.889,291.818L711.111,291.818L733.333,295.909L755.556,271.364L777.778,207.273L800,259.091L800,259.091L777.778,207.273L755.556,271.364L733.333,295.909L711.111,291.818L688.889,291.818L666.667,283.636L644.444,285L622.222,178.636L600,255L577.778,267.273L555.556,283.636L533.333,244.091L511.111,260.455L488.889,259.091L466.667,282.273L444.444,189.545L422.222,181.364L400,261.818L377.778,286.364L355.556,275.455L333.333,270L311.111,255L288.889,169.091L266.667,237.273L244.444,205.909L222.222,280.909L200,290.455L177.778,297.273L155.556,283.636L133.333,300L111.111,300L88.889,300L66.667,298.636L44.444,300L22.222,300L0,300Z" fill="#eeca3b"/></g></g><path class="foreground" aria-hidden="true" d="" display="none"/></g><g transform="translate(0,0)"><path class="background" aria-hidden="true" d="M0,0h800v300h-800Z"/><g><g class="mark-area role-mark marks" role="graphics-object" aria-roledescription="area mark container"><path aria-label="Date: Mar 16, 2026; Unique Clones/day: 0; Repository: karlmdavis/ansible-role-bind-dns" role="graphics-symbol" aria-roledescription="area mark" d="M0,300L22.222,300L44.444,300L66.667,298.636L88.889,300L111.111,300L133.333,300L155.556,283.636L177.778,297.273L200,290.455L222.222,280.909L244.444,205.909L266.667,237.273L288.889,169.091L311.111,255L333.333,270L355.556,275.455L377.778,286.364L400,261.818L422.222,181.364L444.444,189.545L466.667,282.273L488.889,259.091L511.111,260.455L533.333,244.091L555.556,283.636L577.778,267.273L600,255L622.222,178.636L644.444,285L666.667,283.636L688.889,291.818L711.111,291.818L733.333,295.909L755.556,271.364L777.778,207.273L800,259.091L800,259.091L777.778,208.636L755.556,271.364L733.333,295.909L711.111,291.818L688.889,293.182L666.667,283.636L644.444,285L622.222,184.091L600,256.364L577.778,267.273L555.556,283.636L533.333,245.455L511.111,261.818L488.889,259.091L466.667,282.273L444.444,189.545L422.222,182.727L400,261.818L377.778,286.364L355.556,279.545L333.333,270L311.111,256.364L288.889,170.455L266.667,237.273L244.444,208.636L222.222,280.909L200,290.455L177.778,297.273L155.556,283.636L133.333,300L111.111,300L88.889,300L66.667,298.636L44.444,300L22.222,300L0,300Z" fill="#b279a2"/></g></g><path class="foreground" aria-hidden="true" d="" display="none"/></g><g transform="translate(0,0)"><path class="background" aria-hidden="true" d="M0,0h800v300h-800Z"/><g><g class="mark-area role-mark marks" role="graphics-object" aria-roledescription="area mark container"><path aria-label="Date: Mar 16, 2026; Unique Clones/day: 0; Repository: karlmdavis/ansible-role-jenkins2" role="graphics-symbol" aria-roledescription="area mark" d="M0,300L22.222,300L44.444,300L66.667,298.636L88.889,300L111.111,300L133.333,300L155.556,283.636L177.778,297.273L200,290.455L222.222,280.909L244.444,208.636L266.667,237.273L288.889,170.455L311.111,256.364L333.333,270L355.556,279.545L377.778,286.364L400,261.818L422.222,182.727L444.444,189.545L466.667,282.273L488.889,259.091L511.111,261.818L533.333,245.455L555.556,283.636L577.778,267.273L600,256.364L622.222,184.091L644.444,285L666.667,283.636L688.889,293.182L711.111,291.818L733.333,295.909L755.556,271.364L777.778,208.636L800,259.091L800,260.455L777.778,210L755.556,271.364L733.333,295.909L711.111,291.818L688.889,293.182L666.667,285L644.444,285L622.222,190.909L600,256.364L577.778,268.636L555.556,286.364L533.333,252.273L511.111,261.818L488.889,259.091L466.667,282.273L444.444,190.909L422.222,185.455L400,263.182L377.778,287.727L355.556,280.909L333.333,271.364L311.111,256.364L288.889,170.455L266.667,238.636L244.444,210L222.222,282.273L200,291.818L177.778,298.636L155.556,283.636L133.333,300L111.111,300L88.889,300L66.667,298.636L44.444,300L22.222,300L0,300Z" fill="#ff9da6"/></g></g><path class="foreground" aria-hidden="true" d="" display="none"/></g><g transform="translate(0,0)"><path class="background" aria-hidden="true" d="M0,0h800v300h-800Z"/><g><g class="mark-area role-mark marks" role="graphics-object" aria-roledescription="area mark container"><path aria-label="Date: Mar 16, 2026; Unique Clones/day: 0; Repository: karlmdavis/ansible-role-ldap" role="graphics-symbol" aria-roledescription="area mark" d="M0,300L22.222,300L44.444,300L66.667,298.636L88.889,300L111.111,300L133.333,300L155.556,283.636L177.778,298.636L200,291.818L222.222,282.273L244.444,210L266.667,238.636L288.889,170.455L311.111,256.364L333.333,271.364L355.556,280.909L377.778,287.727L400,263.182L422.222,185.455L444.444,190.909L466.667,282.273L488.889,259.091L511.111,261.818L533.333,252.273L555.556,286.364L577.778,268.636L600,256.364L622.222,190.909L644.444,285L666.667,285L688.889,293.182L711.111,291.818L733.333,295.909L755.556,271.364L777.778,210L800,260.455L800,260.455L777.778,210L755.556,271.364L733.333,295.909L711.111,291.818L688.889,293.182L666.667,285L644.444,285L622.222,192.273L600,256.364L577.778,268.636L555.556,286.364L533.333,252.273L511.111,261.818L488.889,259.091L466.667,282.273L444.444,190.909L422.222,185.455L400,263.182L377.778,287.727L355.556,280.909L333.333,272.727L311.111,256.364L288.889,170.455L266.667,238.636L244.444,210L222.222,282.273L200,291.818L177.778,298.636L155.556,283.636L133.333,300L111.111,300L88.889,300L66.667,298.636L44.444,300L22.222,300L0,300Z" fill="#9d755d"/></g></g><path class="foreground" aria-hidden="true" d="" display="none"/></g><g transform="translate(0,0)"><path class="background" aria-hidden="true" d="M0,0h800v300h-800Z"/><g><g class="mark-area role-mark marks" role="graphics-object" aria-roledescription="area mark container"><path aria-label="Date: Mar 16, 2026; Unique Clones/day: 0; Repository: karlmdavis/ansible-role-rcm-dotfiles" role="graphics-symbol" aria-roledescription="area mark" d="M0,300L22.222,300L44.444,300L66.667,298.636L88.889,300L111.111,300L133.333,300L155.556,283.636L177.778,298.636L200,291.818L222.222,282.273L244.444,210L266.667,238.636L288.889,170.455L311.111,256.364L333.333,272.727L355.556,280.909L377.778,287.727L400,263.182L422.222,185.455L444.444,190.909L466.667,282.273L488.889,259.091L511.111,261.818L533.333,252.273L555.556,286.364L577.778,268.636L600,256.364L622.222,192.273L644.444,285L666.667,285L688.889,293.182L711.111,291.818L733.333,295.909L755.556,271.364L777.778,210L800,260.455L800,260.455L777.778,211.364L755.556,271.364L733.333,295.909L711.111,291.818L688.889,293.182L666.667,286.364L644.444,285L622.222,196.364L600,257.727L577.778,268.636L555.556,286.364L533.333,253.636L511.111,261.818L488.889,259.091L466.667,282.273L444.444,190.909L422.222,186.818L400,263.182L377.778,287.727L355.556,280.909L333.333,272.727L311.111,257.727L288.889,171.818L266.667,238.636L244.444,212.727L222.222,282.273L200,291.818L177.778,298.636L155.556,283.636L133.333,300L111.111,300L88.889,300L66.667,298.636L44.444,300L22.222,300L0,300Z" fill="#bab0ac"/></g></g><path class="foreground" aria-hidden="true" d="" display="none"/></g><g transform="translate(0,0)"><path class="background" aria-hidden="true" d="M0,0h800v300h-800Z"/><g><g class="mark-area role-mark marks" role="graphics-object" aria-roledescription="area mark container"><path aria-label="Date: Mar 16, 2026; Unique Clones/day: 0; Repository: karlmdavis/ansible-roles" role="graphics-symbol" aria-roledescription="area mark" d="M0,300L22.222,300L44.444,300L66.667,298.636L88.889,300L111.111,300L133.333,300L155.556,283.636L177.778,298.636L200,291.818L222.222,282.273L244.444,212.727L266.667,238.636L288.889,171.818L311.111,257.727L333.333,272.727L355.556,280.909L377.778,287.727L400,263.182L422.222,186.818L444.444,190.909L466.667,282.273L488.889,259.091L511.111,261.818L533.333,253.636L555.556,286.364L577.778,268.636L600,257.727L622.222,196.364L644.444,285L666.667,286.364L688.889,293.182L711.111,291.818L733.333,295.909L755.556,271.364L777.778,211.364L800,260.455L800,260.455L777.778,211.364L755.556,271.364L733.333,295.909L711.111,291.818L688.889,293.182L666.667,286.364L644.444,285L622.222,196.364L600,257.727L577.778,270L555.556,286.364L533.333,253.636L511.111,261.818L488.889,259.091L466.667,282.273L444.444,190.909L422.222,186.818L400,263.182L377.778,287.727L355.556,280.909L333.333,272.727L311.111,259.091L288.889,171.818L266.667,238.636L244.444,212.727L222.222,283.636L200,291.818L177.778,298.636L155.556,283.636L133.333,300L111.111,300L88.889,300L66.667,298.636L44.444,300L22.222,300L0,300Z" fill="#4c78a8"/></g></g><path class="foreground" aria-hidden="true" d="" display="none"/></g><g transform="translate(0,0)"><path class="background" aria-hidden="true" d="M0,0h800v300h-800Z"/><g><g class="mark-area role-mark marks" role="graphics-object" aria-roledescription="area mark container"><path aria-label="Date: Mar 16, 2026; Unique Clones/day: 0; Repository: karlmdavis/bbonfhir-dev-infra-docker" role="graphics-symbol" aria-roledescription="area mark" d="M0,300L22.222,300L44.444,300L66.667,298.636L88.889,300L111.111,300L133.333,300L155.556,283.636L177.778,298.636L200,291.818L222.222,283.636L244.444,212.727L266.667,238.636L288.889,171.818L311.111,259.091L333.333,272.727L355.556,280.909L377.778,287.727L400,263.182L422.222,186.818L444.444,190.909L466.667,282.273L488.889,259.091L511.111,261.818L533.333,253.636L555.556,286.364L577.778,270L600,257.727L622.222,196.364L644.444,285L666.667,286.364L688.889,293.182L711.111,291.818L733.333,295.909L755.556,271.364L777.778,211.364L800,260.455L800,260.455L777.778,212.727L755.556,271.364L733.333,295.909L711.111,291.818L688.889,293.182L666.667,286.364L644.444,285L622.222,200.455L600,259.091L577.778,270L555.556,286.364L533.333,255L511.111,261.818L488.889,259.091L466.667,282.273L444.444,190.909L422.222,188.182L400,263.182L377.778,287.727L355.556,280.909L333.333,272.727L311.111,260.455L288.889,171.818L266.667,238.636L244.444,214.091L222.222,283.636L200,293.182L177.778,298.636L155.556,283.636L133.333,300L111.111,300L88.889,300L66.667,298.636L44.444,300L22.222,300L0,300Z" fill="#f58518"/></g></g><path class="foreground" aria-hidden="true" d="" display="none"/></g><g transform="translate(0,0)"><path class="background" aria-hidden="true" d="M0,0h800v300h-800Z"/><g><g class="mark-area role-mark marks" role="graphics-object" aria-roledescription="area mark container"><path aria-label="Date: Mar 16, 2026; Unique Clones/day: 0; Repository: karlmdavis/can-i-kayak-baltimore" role="graphics-symbol" aria-roledescription="area mark" d="M0,300L22.222,300L44.444,300L66.667,298.636L88.889,300L111.111,300L133.333,300L155.556,283.636L177.778,298.636L200,293.182L222.222,283.636L244.444,214.091L266.667,238.636L288.889,171.818L311.111,260.455L333.333,272.727L355.556,280.909L377.778,287.727L400,263.182L422.222,188.182L444.444,190.909L466.667,282.273L488.889,259.091L511.111,261.818L533.333,255L555.556,286.364L577.778,270L600,259.091L622.222,200.455L644.444,285L666.667,286.364L688.889,293.182L711.111,291.818L733.333,295.909L755.556,271.364L777.778,212.727L800,260.455L800,260.455L777.778,214.091L755.556,271.364L733.333,295.909L711.111,291.818L688.889,293.182L666.667,286.364L644.444,285L622.222,203.182L600,260.455L577.778,270L555.556,286.364L533.333,256.364L511.111,261.818L488.889,259.091L466.667,282.273L444.444,190.909L422.222,189.545L400,263.182L377.778,287.727L355.556,282.273L333.333,272.727L311.111,260.455L288.889,171.818L266.667,238.636L244.444,218.182L222.222,283.636L200,293.182L177.778,298.636L155.556,283.636L133.333,300L111.111,300L88.889,300L66.667,298.636L44.444,300L22.222,300L0,300Z" fill="#e45756"/></g></g><path class="foreground" aria-hidden="true" d="" display="none"/></g><g transform="translate(0,0)"><path class="background" aria-hidden="true" d="M0,0h800v300h-800Z"/><g><g class="mark-area role-mark marks" role="graphics-object" aria-roledescription="area mark container"><path aria-label="Date: Mar 16, 2026; Unique Clones/day: 0; Repository: karlmdavis/datanucleus-test-jdo-1-to-n" role="graphics-symbol" aria-roledescription="area mark" d="M0,300L22.222,300L44.444,300L66.667,298.636L88.889,300L111.111,300L133.333,300L155.556,283.636L177.778,298.636L200,293.182L222.222,283.636L244.444,218.182L266.667,238.636L288.889,171.818L311.111,260.455L333.333,272.727L355.556,282.273L377.778,287.727L400,263.182L422.222,189.545L444.444,190.909L466.667,282.273L488.889,259.091L511.111,261.818L533.333,256.364L555.556,286.364L577.778,270L600,260.455L622.222,203.182L644.444,285L666.667,286.364L688.889,293.182L711.111,291.818L733.333,295.909L755.556,271.364L777.778,214.091L800,260.455L800,260.455L777.778,214.091L755.556,271.364L733.333,295.909L711.111,293.182L688.889,293.182L666.667,286.364L644.444,286.364L622.222,203.182L600,260.455L577.778,270L555.556,286.364L533.333,256.364L511.111,261.818L488.889,259.091L466.667,282.273L444.444,190.909L422.222,189.545L400,263.182L377.778,287.727L355.556,282.273L333.333,272.727L311.111,260.455L288.889,171.818L266.667,240L244.444,218.182L222.222,283.636L200,293.182L177.778,298.636L155.556,283.636L133.333,300L111.111,300L88.889,300L66.667,298.636L44.444,300L22.222,300L0,300Z" fill="#72b7b2"/></g></g><path class="foreground" aria-hidden="true" d="" display="none"/></g><g transform="translate(0,0)"><path class="background" aria-hidden="true" d="M0,0h800v300h-800Z"/><g><g class="mark-area role-mark marks" role="graphics-object" aria-roledescription="area mark container"><path aria-label="Date: Mar 16, 2026; Unique Clones/day: 0; Repository: karlmdavis/dotfiles" role="graphics-symbol" aria-roledescription="area mark" d="M0,300L22.222,300L44.444,300L66.667,298.636L88.889,300L111.111,300L133.333,300L155.556,283.636L177.778,298.636L200,293.182L222.222,283.636L244.444,218.182L266.667,240L288.889,171.818L311.111,260.455L333.333,272.727L355.556,282.273L377.778,287.727L400,263.182L422.222,189.545L444.444,190.909L466.667,282.273L488.889,259.091L511.111,261.818L533.333,256.364L555.556,286.364L577.778,270L600,260.455L622.222,203.182L644.444,286.364L666.667,286.364L688.889,293.182L711.111,293.182L733.333,295.909L755.556,271.364L777.778,214.091L800,260.455L800,261.818L777.778,234.545L755.556,274.091L733.333,295.909L711.111,294.545L688.889,294.545L666.667,286.364L644.444,286.364L622.222,210L600,260.455L577.778,272.727L555.556,286.364L533.333,257.727L511.111,263.182L488.889,259.091L466.667,282.273L444.444,192.273L422.222,190.909L400,263.182L377.778,289.091L355.556,283.636L333.333,274.091L311.111,260.455L288.889,171.818L266.667,240L244.444,220.909L222.222,283.636L200,293.182L177.778,298.636L155.556,285L133.333,300L111.111,300L88.889,300L66.667,298.636L44.444,300L22.222,300L0,300Z" fill="#54a24b"/></g></g><path class="foreground" aria-hidden="true" d="" display="none"/></g><g transform="translate(0,0)"><path class="background" aria-hidden="true" d="M0,0h800v300h-800Z"/><g><g class="mark-area role-mark marks" role="graphics-object" aria-roledescription="area mark container"><path aria-label="Date: Mar 16, 2026; Unique Clones/day: 0; Repository: karlmdavis/fhir-benchmarks" role="graphics-symbol" aria-roledescription="area mark" d="M0,300L22.222,300L44.444,300L66.667,298.636L88.889,300L111.111,300L133.333,300L155.556,285L177.778,298.636L200,293.182L222.222,283.636L244.444,220.909L266.667,240L288.889,171.818L311.111,260.455L333.333,274.091L355.556,283.636L377.778,289.091L400,263.182L422.222,190.909L444.444,192.273L466.667,282.273L488.889,259.091L511.111,263.182L533.333,257.727L555.556,286.364L577.778,272.727L600,260.455L622.222,210L644.444,286.364L666.667,286.364L688.889,294.545L711.111,294.545L733.333,295.909L755.556,274.091L777.778,234.545L800,261.818L800,263.182L777.778,235.909L755.556,274.091L733.333,297.273L711.111,295.909L688.889,294.545L666.667,287.727L644.444,290.455L622.222,216.818L600,260.455L577.778,275.455L555.556,286.364L533.333,260.455L511.111,272.727L488.889,260.455L466.667,282.273L444.444,193.636L422.222,192.273L400,264.545L377.778,289.091L355.556,285L333.333,276.818L311.111,261.818L288.889,173.182L266.667,240L244.444,223.636L222.222,283.636L200,294.545L177.778,298.636L155.556,286.364L133.333,300L111.111,300L88.889,300L66.667,298.636L44.444,300L22.222,300L0,300Z" fill="#eeca3b"/></g></g><path class="foreground" aria-hidden="true" d="" display="none"/></g><g transform="translate(0,0)"><path class="background" aria-hidden="true" d="M0,0h800v300h-800Z"/><g><g class="mark-area role-mark marks" role="graphics-object" aria-roledescription="area mark container"><path aria-label="Date: Mar 16, 2026; Unique Clones/day: 0; Repository: karlmdavis/hapi-fhir-jpaserver-starter" role="graphics-symbol" aria-roledescription="area mark" d="M0,300L22.222,300L44.444,300L66.667,298.636L88.889,300L111.111,300L133.333,300L155.556,286.364L177.778,298.636L200,294.545L222.222,283.636L244.444,223.636L266.667,240L288.889,173.182L311.111,261.818L333.333,276.818L355.556,285L377.778,289.091L400,264.545L422.222,192.273L444.444,193.636L466.667,282.273L488.889,260.455L511.111,272.727L533.333,260.455L555.556,286.364L577.778,275.455L600,260.455L622.222,216.818L644.444,290.455L666.667,287.727L688.889,294.545L711.111,295.909L733.333,297.273L755.556,274.091L777.778,235.909L800,263.182L800,263.182L777.778,235.909L755.556,274.091L733.333,297.273L711.111,295.909L688.889,294.545L666.667,287.727L644.444,290.455L622.222,218.182L600,260.455L577.778,275.455L555.556,286.364L533.333,260.455L511.111,272.727L488.889,260.455L466.667,282.273L444.444,193.636L422.222,192.273L400,265.909L377.778,290.455L355.556,285L333.333,276.818L311.111,261.818L288.889,173.182L266.667,240L244.444,223.636L222.222,285L200,294.545L177.778,298.636L155.556,286.364L133.333,300L111.111,300L88.889,300L66.667,298.636L44.444,300L22.222,300L0,300Z" fill="#b279a2"/></g></g><path class="foreground" aria-hidden="true" d="" display="none"/></g><g transform="translate(0,0)"><path class="background" aria-hidden="true" d="M0,0h800v300h-800Z"/><g><g class="mark-area role-mark marks" role="graphics-object" aria-roledescription="area mark container"><path aria-label="Date: Mar 16, 2026; Unique Clones/day: 0; Repository: karlmdavis/hello-rust-actix" role="graphics-symbol" aria-roledescription="area mark" d="M0,300L22.222,300L44.444,300L66.667,298.636L88.889,300L111.111,300L133.333,300L155.556,286.364L177.778,298.636L200,294.545L222.222,285L244.444,223.636L266.667,240L288.889,173.182L311.111,261.818L333.333,276.818L355.556,285L377.778,290.455L400,265.909L422.222,192.273L444.444,193.636L466.667,282.273L488.889,260.455L511.111,272.727L533.333,260.455L555.556,286.364L577.778,275.455L600,260.455L622.222,218.182L644.444,290.455L666.667,287.727L688.889,294.545L711.111,295.909L733.333,297.273L755.556,274.091L777.778,235.909L800,263.182L800,263.182L777.778,237.273L755.556,274.091L733.333,297.273L711.111,295.909L688.889,294.545L666.667,287.727L644.444,290.455L622.222,220.909L600,261.818L577.778,275.455L555.556,286.364L533.333,261.818L511.111,272.727L488.889,260.455L466.667,282.273L444.444,193.636L422.222,193.636L400,265.909L377.778,290.455L355.556,285L333.333,278.182L311.111,261.818L288.889,173.182L266.667,240L244.444,225L222.222,285L200,294.545L177.778,298.636L155.556,286.364L133.333,300L111.111,300L88.889,300L66.667,298.636L44.444,300L22.222,300L0,300Z" fill="#ff9da6"/></g></g><path class="foreground" aria-hidden="true" d="" display="none"/></g><g transform="translate(0,0)"><path class="background" aria-hidden="true" d="M0,0h800v300h-800Z"/><g><g class="mark-area role-mark marks" role="graphics-object" aria-roledescription="area mark container"><path aria-label="Date: Mar 16, 2026; Unique Clones/day: 0; Repository: karlmdavis/jessentials" role="graphics-symbol" aria-roledescription="area mark" d="M0,300L22.222,300L44.444,300L66.667,298.636L88.889,300L111.111,300L133.333,300L155.556,286.364L177.778,298.636L200,294.545L222.222,285L244.444,225L266.667,240L288.889,173.182L311.111,261.818L333.333,278.182L355.556,285L377.778,290.455L400,265.909L422.222,193.636L444.444,193.636L466.667,282.273L488.889,260.455L511.111,272.727L533.333,261.818L555.556,286.364L577.778,275.455L600,261.818L622.222,220.909L644.444,290.455L666.667,287.727L688.889,294.545L711.111,295.909L733.333,297.273L755.556,274.091L777.778,237.273L800,263.182L800,263.182L777.778,238.636L755.556,275.455L733.333,297.273L711.111,295.909L688.889,294.545L666.667,287.727L644.444,290.455L622.222,223.636L600,261.818L577.778,276.818L555.556,286.364L533.333,264.545L511.111,283.636L488.889,260.455L466.667,282.273L444.444,193.636L422.222,195L400,265.909L377.778,290.455L355.556,285L333.333,278.182L311.111,263.182L288.889,173.182L266.667,240L244.444,226.364L222.222,285L200,294.545L177.778,298.636L155.556,287.727L133.333,300L111.111,300L88.889,300L66.667,298.636L44.444,300L22.222,300L0,300Z" fill="#9d755d"/></g></g><path class="foreground" aria-hidden="true" d="" display="none"/></g><g transform="translate(0,0)"><path class="background" aria-hidden="true" d="M0,0h800v300h-800Z"/><g><g class="mark-area role-mark marks" role="graphics-object" aria-roledescription="area mark container"><path aria-label="Date: Mar 16, 2026; Unique Clones/day: 0; Repository: karlmdavis/justdavis-ansible" role="graphics-symbol" aria-roledescription="area mark" d="M0,300L22.222,300L44.444,300L66.667,298.636L88.889,300L111.111,300L133.333,300L155.556,287.727L177.778,298.636L200,294.545L222.222,285L244.444,226.364L266.667,240L288.889,173.182L311.111,263.182L333.333,278.182L355.556,285L377.778,290.455L400,265.909L422.222,195L444.444,193.636L466.667,282.273L488.889,260.455L511.111,283.636L533.333,264.545L555.556,286.364L577.778,276.818L600,261.818L622.222,223.636L644.444,290.455L666.667,287.727L688.889,294.545L711.111,295.909L733.333,297.273L755.556,275.455L777.778,238.636L800,263.182L800,271.364L777.778,240L755.556,280.909L733.333,297.273L711.111,295.909L688.889,294.545L666.667,287.727L644.444,290.455L622.222,227.727L600,267.273L577.778,276.818L555.556,287.727L533.333,265.909L511.111,283.636L488.889,260.455L466.667,282.273L444.444,193.636L422.222,196.364L400,265.909L377.778,290.455L355.556,286.364L333.333,278.182L311.111,263.182L288.889,173.182L266.667,241.364L244.444,227.727L222.222,285L200,295.909L177.778,298.636L155.556,287.727L133.333,300L111.111,300L88.889,300L66.667,298.636L44.444,300L22.222,300L0,300Z" fill="#bab0ac"/></g></g><path class="foreground" aria-hidden="true" d="" display="none"/></g><g transform="translate(0,0)"><path class="background" aria-hidden="true" d="M0,0h800v300h-800Z"/><g><g class="mark-area role-mark marks" role="graphics-object" aria-roledescription="area mark container"><path aria-label="Date: Mar 16, 2026; Unique Clones/day: 0; Repository: karlmdavis/justdavis-finances" role="graphics-symbol" aria-roledescription="area mark" d="M0,300L22.222,300L44.444,300L66.667,298.636L88.889,300L111.111,300L133.333,300L155.556,287.727L177.778,298.636L200,295.909L222.222,285L244.444,227.727L266.667,241.364L288.889,173.182L311.111,263.182L333.333,278.182L355.556,286.364L377.778,290.455L400,265.909L422.222,196.364L444.444,193.636L466.667,282.273L488.889,260.455L511.111,283.636L533.333,265.909L555.556,287.727L577.778,276.818L600,267.273L622.222,227.727L644.444,290.455L666.667,287.727L688.889,294.545L711.111,295.909L733.333,297.273L755.556,280.909L777.778,240L800,271.364L800,293.182L777.778,274.091L755.556,294.545L733.333,297.273L711.111,295.909L688.889,294.545L666.667,289.091L644.444,293.182L622.222,248.182L600,290.455L577.778,279.545L555.556,287.727L533.333,267.273L511.111,285L488.889,283.636L466.667,293.182L444.444,295.909L422.222,274.091L400,293.182L377.778,291.818L355.556,287.727L333.333,279.545L311.111,283.636L288.889,289.091L266.667,291.818L244.444,270L222.222,286.364L200,297.273L177.778,298.636L155.556,287.727L133.333,300L111.111,300L88.889,300L66.667,298.636L44.444,300L22.222,300L0,300Z" fill="#4c78a8"/></g></g><path class="foreground" aria-hidden="true" d="" display="none"/></g><g transform="translate(0,0)"><path class="background" aria-hidden="true" d="M0,0h800v300h-800Z"/><g><g class="mark-area role-mark marks" role="graphics-object" aria-roledescription="area mark container"><path aria-label="Date: Mar 16, 2026; Unique Clones/day: 0; Repository: karlmdavis/justdavis-karl" role="graphics-symbol" aria-roledescription="area mark" d="M0,300L22.222,300L44.444,300L66.667,298.636L88.889,300L111.111,300L133.333,300L155.556,287.727L177.778,298.636L200,297.273L222.222,286.364L244.444,270L266.667,291.818L288.889,289.091L311.111,283.636L333.333,279.545L355.556,287.727L377.778,291.818L400,293.182L422.222,274.091L444.444,295.909L466.667,293.182L488.889,283.636L511.111,285L533.333,267.273L555.556,287.727L577.778,279.545L600,290.455L622.222,248.182L644.444,293.182L666.667,289.091L688.889,294.545L711.111,295.909L733.333,297.273L755.556,294.545L777.778,274.091L800,293.182L800,293.182L777.778,275.455L755.556,294.545L733.333,297.273L711.111,295.909L688.889,294.545L666.667,289.091L644.444,293.182L622.222,252.273L600,291.818L577.778,280.909L555.556,287.727L533.333,270L511.111,285L488.889,283.636L466.667,294.545L444.444,295.909L422.222,275.455L400,293.182L377.778,293.182L355.556,287.727L333.333,280.909L311.111,285L288.889,289.091L266.667,293.182L244.444,271.364L222.222,286.364L200,297.273L177.778,298.636L155.556,289.091L133.333,300L111.111,300L88.889,300L66.667,298.636L44.444,300L22.222,300L0,300Z" fill="#f58518"/></g></g><path class="foreground" aria-hidden="true" d="" display="none"/></g><g transform="translate(0,0)"><path class="background" aria-hidden="true" d="M0,0h800v300h-800Z"/><g><g class="mark-area role-mark marks" role="graphics-object" aria-roledescription="area mark container"><path aria-label="Date: Mar 16, 2026; Unique Clones/day: 0; Repository: karlmdavis/justdavis-puppet" role="graphics-symbol" aria-roledescription="area mark" d="M0,300L22.222,300L44.444,300L66.667,298.636L88.889,300L111.111,300L133.333,300L155.556,289.091L177.778,298.636L200,297.273L222.222,286.364L244.444,271.364L266.667,293.182L288.889,289.091L311.111,285L333.333,280.909L355.556,287.727L377.778,293.182L400,293.182L422.222,275.455L444.444,295.909L466.667,294.545L488.889,283.636L511.111,285L533.333,270L555.556,287.727L577.778,280.909L600,291.818L622.222,252.273L644.444,293.182L666.667,289.091L688.889,294.545L711.111,295.909L733.333,297.273L755.556,294.545L777.778,275.455L800,293.182L800,293.182L777.778,276.818L755.556,294.545L733.333,297.273L711.111,295.909L688.889,294.545L666.667,289.091L644.444,293.182L622.222,255L600,293.182L577.778,282.273L555.556,287.727L533.333,271.364L511.111,286.364L488.889,283.636L466.667,294.545L444.444,295.909L422.222,276.818L400,293.182L377.778,293.182L355.556,287.727L333.333,283.636L311.111,286.364L288.889,289.091L266.667,293.182L244.444,272.727L222.222,286.364L200,297.273L177.778,298.636L155.556,289.091L133.333,300L111.111,300L88.889,300L66.667,298.636L44.444,300L22.222,300L0,300Z" fill="#e45756"/></g></g><path class="foreground" aria-hidden="true" d="" display="none"/></g><g transform="translate(0,0)"><path class="background" aria-hidden="true" d="M0,0h800v300h-800Z"/><g><g class="mark-area role-mark marks" role="graphics-object" aria-roledescription="area mark container"><path aria-label="Date: Mar 16, 2026; Unique Clones/day: 0; Repository: karlmdavis/kobjects" role="graphics-symbol" aria-roledescription="area mark" d="M0,300L22.222,300L44.444,300L66.667,298.636L88.889,300L111.111,300L133.333,300L155.556,289.091L177.778,298.636L200,297.273L222.222,286.364L244.444,272.727L266.667,293.182L288.889,289.091L311.111,286.364L333.333,283.636L355.556,287.727L377.778,293.182L400,293.182L422.222,276.818L444.444,295.909L466.667,294.545L488.889,283.636L511.111,286.364L533.333,271.364L555.556,287.727L577.778,282.273L600,293.182L622.222,255L644.444,293.182L666.667,289.091L688.889,294.545L711.111,295.909L733.333,297.273L755.556,294.545L777.778,276.818L800,293.182L800,293.182L777.778,278.182L755.556,294.545L733.333,297.273L711.111,295.909L688.889,294.545L666.667,289.091L644.444,293.182L622.222,257.727L600,293.182L577.778,283.636L555.556,287.727L533.333,274.091L511.111,286.364L488.889,283.636L466.667,294.545L444.444,295.909L422.222,278.182L400,293.182L377.778,293.182L355.556,287.727L333.333,283.636L311.111,286.364L288.889,289.091L266.667,293.182L244.444,274.091L222.222,287.727L200,297.273L177.778,298.636L155.556,289.091L133.333,300L111.111,300L88.889,300L66.667,298.636L44.444,300L22.222,300L0,300Z" fill="#72b7b2"/></g></g><path class="foreground" aria-hidden="true" d="" display="none"/></g><g transform="translate(0,0)"><path class="background" aria-hidden="true" d="M0,0h800v300h-800Z"/><g><g class="mark-area role-mark marks" role="graphics-object" aria-roledescription="area mark container"><path aria-label="Date: Mar 16, 2026; Unique Clones/day: 0; Repository: karlmdavis/ksoap2-android" role="graphics-symbol" aria-roledescription="area mark" d="M0,300L22.222,300L44.444,300L66.667,298.636L88.889,300L111.111,300L133.333,300L155.556,289.091L177.778,298.636L200,297.273L222.222,287.727L244.444,274.091L266.667,293.182L288.889,289.091L311.111,286.364L333.333,283.636L355.556,287.727L377.778,293.182L400,293.182L422.222,278.182L444.444,295.909L466.667,294.545L488.889,283.636L511.111,286.364L533.333,274.091L555.556,287.727L577.778,283.636L600,293.182L622.222,257.727L644.444,293.182L666.667,289.091L688.889,294.545L711.111,295.909L733.333,297.273L755.556,294.545L777.778,278.182L800,293.182L800,294.545L777.778,280.909L755.556,294.545L733.333,297.273L711.111,295.909L688.889,294.545L666.667,291.818L644.444,293.182L622.222,260.455L600,293.182L577.778,285L555.556,291.818L533.333,275.455L511.111,294.545L488.889,290.455L466.667,295.909L444.444,295.909L422.222,282.273L400,293.182L377.778,294.545L355.556,289.091L333.333,285L311.111,291.818L288.889,291.818L266.667,293.182L244.444,275.455L222.222,291.818L200,297.273L177.778,298.636L155.556,290.455L133.333,300L111.111,300L88.889,300L66.667,298.636L44.444,300L22.222,300L0,300Z" fill="#54a24b"/></g></g><path class="foreground" aria-hidden="true" d="" display="none"/></g><g transform="translate(0,0)"><path class="background" aria-hidden="true" d="M0,0h800v300h-800Z"/><g><g class="mark-area role-mark marks" role="graphics-object" aria-roledescription="area mark container"><path aria-label="Date: Mar 16, 2026; Unique Clones/day: 0; Repository: karlmdavis/kxml2" role="graphics-symbol" aria-roledescription="area mark" d="M0,300L22.222,300L44.444,300L66.667,298.636L88.889,300L111.111,300L133.333,300L155.556,290.455L177.778,298.636L200,297.273L222.222,291.818L244.444,275.455L266.667,293.182L288.889,291.818L311.111,291.818L333.333,285L355.556,289.091L377.778,294.545L400,293.182L422.222,282.273L444.444,295.909L466.667,295.909L488.889,290.455L511.111,294.545L533.333,275.455L555.556,291.818L577.778,285L600,293.182L622.222,260.455L644.444,293.182L666.667,291.818L688.889,294.545L711.111,295.909L733.333,297.273L755.556,294.545L777.778,280.909L800,294.545L800,295.909L777.778,283.636L755.556,295.909L733.333,297.273L711.111,295.909L688.889,295.909L666.667,293.182L644.444,294.545L622.222,264.545L600,293.182L577.778,285L555.556,291.818L533.333,276.818L511.111,294.545L488.889,291.818L466.667,297.273L444.444,297.273L422.222,283.636L400,293.182L377.778,294.545L355.556,289.091L333.333,286.364L311.111,295.909L288.889,293.182L266.667,293.182L244.444,278.182L222.222,293.182L200,297.273L177.778,298.636L155.556,291.818L133.333,300L111.111,300L88.889,300L66.667,298.636L44.444,300L22.222,300L0,300Z" fill="#eeca3b"/></g></g><path class="foreground" aria-hidden="true" d="" display="none"/></g><g transform="translate(0,0)"><path class="background" aria-hidden="true" d="M0,0h800v300h-800Z"/><g><g class="mark-area role-mark marks" role="graphics-object" aria-roledescription="area mark container"><path aria-label="Date: Mar 16, 2026; Unique Clones/day: 0; Repository: karlmdavis/ldap-plugin" role="graphics-symbol" aria-roledescription="area mark" d="M0,300L22.222,300L44.444,300L66.667,298.636L88.889,300L111.111,300L133.333,300L155.556,291.818L177.778,298.636L200,297.273L222.222,293.182L244.444,278.182L266.667,293.182L288.889,293.182L311.111,295.909L333.333,286.364L355.556,289.091L377.778,294.545L400,293.182L422.222,283.636L444.444,297.273L466.667,297.273L488.889,291.818L511.111,294.545L533.333,276.818L555.556,291.818L577.778,285L600,293.182L622.222,264.545L644.444,294.545L666.667,293.182L688.889,295.909L711.111,295.909L733.333,297.273L755.556,295.909L777.778,283.636L800,295.909L800,295.909L777.778,283.636L755.556,295.909L733.333,297.273L711.111,295.909L688.889,295.909L666.667,293.182L644.444,294.545L622.222,264.545L600,293.182L577.778,285L555.556,291.818L533.333,276.818L511.111,294.545L488.889,291.818L466.667,297.273L444.444,297.273L422.222,283.636L400,294.545L377.778,295.909L355.556,289.091L333.333,286.364L311.111,295.909L288.889,293.182L266.667,293.182L244.444,278.182L222.222,293.182L200,297.273L177.778,298.636L155.556,291.818L133.333,300L111.111,300L88.889,300L66.667,298.636L44.444,300L22.222,300L0,300Z" fill="#b279a2"/></g></g><path class="foreground" aria-hidden="true" d="" display="none"/></g><g transform="translate(0,0)"><path class="background" aria-hidden="true" d="M0,0h800v300h-800Z"/><g><g class="mark-area role-mark marks" role="graphics-object" aria-roledescription="area mark container"><path aria-label="Date: Mar 16, 2026; Unique Clones/day: 0; Repository: karlmdavis/lego-ev3dev-rs" role="graphics-symbol" aria-roledescription="area mark" d="M0,300L22.222,300L44.444,300L66.667,298.636L88.889,300L111.111,300L133.333,300L155.556,291.818L177.778,298.636L200,297.273L222.222,293.182L244.444,278.182L266.667,293.182L288.889,293.182L311.111,295.909L333.333,286.364L355.556,289.091L377.778,295.909L400,294.545L422.222,283.636L444.444,297.273L466.667,297.273L488.889,291.818L511.111,294.545L533.333,276.818L555.556,291.818L577.778,285L600,293.182L622.222,264.545L644.444,294.545L666.667,293.182L688.889,295.909L711.111,295.909L733.333,297.273L755.556,295.909L777.778,283.636L800,295.909L800,297.273L777.778,285L755.556,295.909L733.333,298.636L711.111,297.273L688.889,295.909L666.667,294.545L644.444,294.545L622.222,268.636L600,293.182L577.778,287.727L555.556,291.818L533.333,279.545L511.111,294.545L488.889,293.182L466.667,297.273L444.444,298.636L422.222,285L400,295.909L377.778,295.909L355.556,290.455L333.333,289.091L311.111,295.909L288.889,294.545L266.667,294.545L244.444,282.273L222.222,293.182L200,298.636L177.778,298.636L155.556,293.182L133.333,300L111.111,300L88.889,300L66.667,298.636L44.444,300L22.222,300L0,300Z" fill="#ff9da6"/></g></g><path class="foreground" aria-hidden="true" d="" display="none"/></g><g transform="translate(0,0)"><path class="background" aria-hidden="true" d="M0,0h800v300h-800Z"/><g><g class="mark-area role-mark marks" role="graphics-object" aria-roledescription="area mark container"><path aria-label="Date: Mar 16, 2026; Unique Clones/day: 0; Repository: karlmdavis/liquibase" role="graphics-symbol" aria-roledescription="area mark" d="M0,300L22.222,300L44.444,300L66.667,298.636L88.889,300L111.111,300L133.333,300L155.556,293.182L177.778,298.636L200,298.636L222.222,293.182L244.444,282.273L266.667,294.545L288.889,294.545L311.111,295.909L333.333,289.091L355.556,290.455L377.778,295.909L400,295.909L422.222,285L444.444,298.636L466.667,297.273L488.889,293.182L511.111,294.545L533.333,279.545L555.556,291.818L577.778,287.727L600,293.182L622.222,268.636L644.444,294.545L666.667,294.545L688.889,295.909L711.111,297.273L733.333,298.636L755.556,295.909L777.778,285L800,297.273L800,297.273L777.778,285L755.556,295.909L733.333,298.636L711.111,297.273L688.889,295.909L666.667,294.545L644.444,294.545L622.222,268.636L600,293.182L577.778,287.727L555.556,293.182L533.333,280.909L511.111,294.545L488.889,293.182L466.667,297.273L444.444,298.636L422.222,285L400,295.909L377.778,295.909L355.556,290.455L333.333,289.091L311.111,295.909L288.889,294.545L266.667,294.545L244.444,282.273L222.222,293.182L200,298.636L177.778,298.636L155.556,293.182L133.333,300L111.111,300L88.889,300L66.667,300L44.444,300L22.222,300L0,300Z" fill="#9d755d"/></g></g><path class="foreground" aria-hidden="true" d="" display="none"/></g><g transform="translate(0,0)"><path class="background" aria-hidden="true" d="M0,0h800v300h-800Z"/><g><g class="mark-area role-mark marks" role="graphics-object" aria-roledescription="area mark container"><path aria-label="Date: Mar 16, 2026; Unique Clones/day: 0; Repository: karlmdavis/m2e-core" role="graphics-symbol" aria-roledescription="area mark" d="M0,300L22.222,300L44.444,300L66.667,300L88.889,300L111.111,300L133.333,300L155.556,293.182L177.778,298.636L200,298.636L222.222,293.182L244.444,282.273L266.667,294.545L288.889,294.545L311.111,295.909L333.333,289.091L355.556,290.455L377.778,295.909L400,295.909L422.222,285L444.444,298.636L466.667,297.273L488.889,293.182L511.111,294.545L533.333,280.909L555.556,293.182L577.778,287.727L600,293.182L622.222,268.636L644.444,294.545L666.667,294.545L688.889,295.909L711.111,297.273L733.333,298.636L755.556,295.909L777.778,285L800,297.273L800,297.273L777.778,286.364L755.556,295.909L733.333,298.636L711.111,297.273L688.889,295.909L666.667,294.545L644.444,294.545L622.222,271.364L600,293.182L577.778,289.091L555.556,294.545L533.333,283.636L511.111,295.909L488.889,294.545L466.667,297.273L444.444,298.636L422.222,286.364L400,295.909L377.778,295.909L355.556,290.455L333.333,289.091L311.111,295.909L288.889,295.909L266.667,294.545L244.444,283.636L222.222,293.182L200,298.636L177.778,298.636L155.556,293.182L133.333,300L111.111,300L88.889,300L66.667,300L44.444,300L22.222,300L0,300Z" fill="#bab0ac"/></g></g><path class="foreground" aria-hidden="true" d="" display="none"/></g><g transform="translate(0,0)"><path class="background" aria-hidden="true" d="M0,0h800v300h-800Z"/><g><g class="mark-area role-mark marks" role="graphics-object" aria-roledescription="area mark container"><path aria-label="Date: Mar 16, 2026; Unique Clones/day: 0; Repository: karlmdavis/m2e-core-tests" role="graphics-symbol" aria-roledescription="area mark" d="M0,300L22.222,300L44.444,300L66.667,300L88.889,300L111.111,300L133.333,300L155.556,293.182L177.778,298.636L200,298.636L222.222,293.182L244.444,283.636L266.667,294.545L288.889,295.909L311.111,295.909L333.333,289.091L355.556,290.455L377.778,295.909L400,295.909L422.222,286.364L444.444,298.636L466.667,297.273L488.889,294.545L511.111,295.909L533.333,283.636L555.556,294.545L577.778,289.091L600,293.182L622.222,271.364L644.444,294.545L666.667,294.545L688.889,295.909L711.111,297.273L733.333,298.636L755.556,295.909L777.778,286.364L800,297.273L800,297.273L777.778,286.364L755.556,295.909L733.333,298.636L711.111,297.273L688.889,295.909L666.667,294.545L644.444,294.545L622.222,271.364L600,294.545L577.778,289.091L555.556,297.273L533.333,285L511.111,297.273L488.889,295.909L466.667,297.273L444.444,298.636L422.222,286.364L400,295.909L377.778,295.909L355.556,293.182L333.333,289.091L311.111,295.909L288.889,295.909L266.667,295.909L244.444,283.636L222.222,294.545L200,298.636L177.778,298.636L155.556,293.182L133.333,300L111.111,300L88.889,300L66.667,300L44.444,300L22.222,300L0,300Z" fill="#4c78a8"/></g></g><path class="foreground" aria-hidden="true" d="" display="none"/></g><g transform="translate(0,0)"><path class="background" aria-hidden="true" d="M0,0h800v300h-800Z"/><g><g class="mark-area role-mark marks" role="graphics-object" aria-roledescription="area mark container"><path aria-label="Date: Mar 16, 2026; Unique Clones/day: 0; Repository: karlmdavis/obsidian-operator" role="graphics-symbol" aria-roledescription="area mark" d="M0,300L22.222,300L44.444,300L66.667,300L88.889,300L111.111,300L133.333,300L155.556,293.182L177.778,298.636L200,298.636L222.222,294.545L244.444,283.636L266.667,295.909L288.889,295.909L311.111,295.909L333.333,289.091L355.556,293.182L377.778,295.909L400,295.909L422.222,286.364L444.444,298.636L466.667,297.273L488.889,295.909L511.111,297.273L533.333,285L555.556,297.273L577.778,289.091L600,294.545L622.222,271.364L644.444,294.545L666.667,294.545L688.889,295.909L711.111,297.273L733.333,298.636L755.556,295.909L777.778,286.364L800,297.273L800,297.273L777.778,287.727L755.556,298.636L733.333,298.636L711.111,297.273L688.889,295.909L666.667,297.273L644.444,295.909L622.222,274.091L600,295.909L577.778,291.818L555.556,297.273L533.333,286.364L511.111,297.273L488.889,295.909L466.667,297.273L444.444,298.636L422.222,287.727L400,298.636L377.778,295.909L355.556,293.182L333.333,293.182L311.111,295.909L288.889,295.909L266.667,295.909L244.444,285L222.222,294.545L200,298.636L177.778,298.636L155.556,294.545L133.333,300L111.111,300L88.889,300L66.667,300L44.444,300L22.222,300L0,300Z" fill="#f58518"/></g></g><path class="foreground" aria-hidden="true" d="" display="none"/></g><g transform="translate(0,0)"><path class="background" aria-hidden="true" d="M0,0h800v300h-800Z"/><g><g class="mark-area role-mark marks" role="graphics-object" aria-roledescription="area mark container"><path aria-label="Date: Mar 16, 2026; Unique Clones/day: 0; Repository: karlmdavis/perfect-note" role="graphics-symbol" aria-roledescription="area mark" d="M0,300L22.222,300L44.444,300L66.667,300L88.889,300L111.111,300L133.333,300L155.556,294.545L177.778,298.636L200,298.636L222.222,294.545L244.444,285L266.667,295.909L288.889,295.909L311.111,295.909L333.333,293.182L355.556,293.182L377.778,295.909L400,298.636L422.222,287.727L444.444,298.636L466.667,297.273L488.889,295.909L511.111,297.273L533.333,286.364L555.556,297.273L577.778,291.818L600,295.909L622.222,274.091L644.444,295.909L666.667,297.273L688.889,295.909L711.111,297.273L733.333,298.636L755.556,298.636L777.778,287.727L800,297.273L800,297.273L777.778,289.091L755.556,298.636L733.333,298.636L711.111,297.273L688.889,295.909L666.667,297.273L644.444,297.273L622.222,276.818L600,295.909L577.778,291.818L555.556,297.273L533.333,287.727L511.111,297.273L488.889,295.909L466.667,297.273L444.444,298.636L422.222,289.091L400,298.636L377.778,295.909L355.556,293.182L333.333,293.182L311.111,295.909L288.889,295.909L266.667,297.273L244.444,286.364L222.222,295.909L200,298.636L177.778,298.636L155.556,294.545L133.333,300L111.111,300L88.889,300L66.667,300L44.444,300L22.222,300L0,300Z" fill="#e45756"/></g></g><path class="foreground" aria-hidden="true" d="" display="none"/></g><g transform="translate(0,0)"><path class="background" aria-hidden="true" d="M0,0h800v300h-800Z"/><g><g class="mark-area role-mark marks" role="graphics-object" aria-roledescription="area mark container"><path aria-label="Date: Mar 16, 2026; Unique Clones/day: 0; Repository: karlmdavis/puppet-archive" role="graphics-symbol" aria-roledescription="area mark" d="M0,300L22.222,300L44.444,300L66.667,300L88.889,300L111.111,300L133.333,300L155.556,294.545L177.778,298.636L200,298.636L222.222,295.909L244.444,286.364L266.667,297.273L288.889,295.909L311.111,295.909L333.333,293.182L355.556,293.182L377.778,295.909L400,298.636L422.222,289.091L444.444,298.636L466.667,297.273L488.889,295.909L511.111,297.273L533.333,287.727L555.556,297.273L577.778,291.818L600,295.909L622.222,276.818L644.444,297.273L666.667,297.273L688.889,295.909L711.111,297.273L733.333,298.636L755.556,298.636L777.778,289.091L800,297.273L800,297.273L777.778,289.091L755.556,298.636L733.333,298.636L711.111,297.273L688.889,295.909L666.667,297.273L644.444,297.273L622.222,276.818L600,295.909L577.778,293.182L555.556,297.273L533.333,289.091L511.111,297.273L488.889,295.909L466.667,297.273L444.444,298.636L422.222,289.091L400,298.636L377.778,295.909L355.556,293.182L333.333,293.182L311.111,295.909L288.889,295.909L266.667,297.273L244.444,286.364L222.222,295.909L200,298.636L177.778,298.636L155.556,295.909L133.333,300L111.111,300L88.889,300L66.667,300L44.444,300L22.222,300L0,300Z" fill="#72b7b2"/></g></g><path class="foreground" aria-hidden="true" d="" display="none"/></g><g transform="translate(0,0)"><path class="background" aria-hidden="true" d="M0,0h800v300h-800Z"/><g><g class="mark-area role-mark marks" role="graphics-object" aria-roledescription="area mark container"><path aria-label="Date: Mar 16, 2026; Unique Clones/day: 0; Repository: karlmdavis/puppet-sonar" role="graphics-symbol" aria-roledescription="area mark" d="M0,300L22.222,300L44.444,300L66.667,300L88.889,300L111.111,300L133.333,300L155.556,295.909L177.778,298.636L200,298.636L222.222,295.909L244.444,286.364L266.667,297.273L288.889,295.909L311.111,295.909L333.333,293.182L355.556,293.182L377.778,295.909L400,298.636L422.222,289.091L444.444,298.636L466.667,297.273L488.889,295.909L511.111,297.273L533.333,289.091L555.556,297.273L577.778,293.182L600,295.909L622.222,276.818L644.444,297.273L666.667,297.273L688.889,295.909L711.111,297.273L733.333,298.636L755.556,298.636L777.778,289.091L800,297.273L800,298.636L777.778,289.091L755.556,298.636L733.333,298.636L711.111,297.273L688.889,295.909L666.667,297.273L644.444,298.636L622.222,276.818L600,295.909L577.778,294.545L555.556,297.273L533.333,289.091L511.111,298.636L488.889,297.273L466.667,297.273L444.444,298.636L422.222,289.091L400,298.636L377.778,297.273L355.556,293.182L333.333,295.909L311.111,295.909L288.889,295.909L266.667,298.636L244.444,286.364L222.222,295.909L200,298.636L177.778,298.636L155.556,295.909L133.333,300L111.111,300L88.889,300L66.667,300L44.444,300L22.222,300L0,300Z" fill="#54a24b"/></g></g><path class="foreground" aria-hidden="true" d="" display="none"/></g><g transform="translate(0,0)"><path class="background" aria-hidden="true" d="M0,0h800v300h-800Z"/><g><g class="mark-area role-mark marks" role="graphics-object" aria-roledescription="area mark container"><path aria-label="Date: Mar 16, 2026; Unique Clones/day: 0; Repository: karlmdavis/rps-tourney" role="graphics-symbol" aria-roledescription="area mark" d="M0,300L22.222,300L44.444,300L66.667,300L88.889,300L111.111,300L133.333,300L155.556,295.909L177.778,298.636L200,298.636L222.222,295.909L244.444,286.364L266.667,298.636L288.889,295.909L311.111,295.909L333.333,295.909L355.556,293.182L377.778,297.273L400,298.636L422.222,289.091L444.444,298.636L466.667,297.273L488.889,297.273L511.111,298.636L533.333,289.091L555.556,297.273L577.778,294.545L600,295.909L622.222,276.818L644.444,298.636L666.667,297.273L688.889,295.909L711.111,297.273L733.333,298.636L755.556,298.636L777.778,289.091L800,298.636L800,298.636L777.778,290.455L755.556,298.636L733.333,298.636L711.111,297.273L688.889,295.909L666.667,297.273L644.444,298.636L622.222,279.545L600,295.909L577.778,295.909L555.556,297.273L533.333,290.455L511.111,298.636L488.889,297.273L466.667,297.273L444.444,298.636L422.222,290.455L400,298.636L377.778,298.636L355.556,293.182L333.333,295.909L311.111,295.909L288.889,295.909L266.667,298.636L244.444,287.727L222.222,295.909L200,298.636L177.778,298.636L155.556,297.273L133.333,300L111.111,300L88.889,300L66.667,300L44.444,300L22.222,300L0,300Z" fill="#eeca3b"/></g></g><path class="foreground" aria-hidden="true" d="" display="none"/></g><g transform="translate(0,0)"><path class="background" aria-hidden="true" d="M0,0h800v300h-800Z"/><g><g class="mark-area role-mark marks" role="graphics-object" aria-roledescription="area mark container"><path aria-label="Date: Mar 16, 2026; Unique Clones/day: 0; Repository: karlmdavis/sample-maven-and-rcp" role="graphics-symbol" aria-roledescription="area mark" d="M0,300L22.222,300L44.444,300L66.667,300L88.889,300L111.111,300L133.333,300L155.556,297.273L177.778,298.636L200,298.636L222.222,295.909L244.444,287.727L266.667,298.636L288.889,295.909L311.111,295.909L333.333,295.909L355.556,293.182L377.778,298.636L400,298.636L422.222,290.455L444.444,298.636L466.667,297.273L488.889,297.273L511.111,298.636L533.333,290.455L555.556,297.273L577.778,295.909L600,295.909L622.222,279.545L644.444,298.636L666.667,297.273L688.889,295.909L711.111,297.273L733.333,298.636L755.556,298.636L777.778,290.455L800,298.636L800,298.636L777.778,291.818L755.556,298.636L733.333,298.636L711.111,297.273L688.889,295.909L666.667,297.273L644.444,298.636L622.222,282.273L600,295.909L577.778,295.909L555.556,297.273L533.333,291.818L511.111,298.636L488.889,297.273L466.667,297.273L444.444,298.636L422.222,291.818L400,298.636L377.778,298.636L355.556,294.545L333.333,295.909L311.111,295.909L288.889,295.909L266.667,298.636L244.444,289.091L222.222,295.909L200,298.636L177.778,298.636L155.556,297.273L133.333,300L111.111,300L88.889,300L66.667,300L44.444,300L22.222,300L0,300Z" fill="#b279a2"/></g></g><path class="foreground" aria-hidden="true" d="" display="none"/></g><g transform="translate(0,0)"><path class="background" aria-hidden="true" d="M0,0h800v300h-800Z"/><g><g class="mark-area role-mark marks" role="graphics-object" aria-roledescription="area mark container"><path aria-label="Date: Mar 16, 2026; Unique Clones/day: 0; Repository: karlmdavis/stockfighter-trades-solutions" role="graphics-symbol" aria-roledescription="area mark" d="M0,300L22.222,300L44.444,300L66.667,300L88.889,300L111.111,300L133.333,300L155.556,297.273L177.778,298.636L200,298.636L222.222,295.909L244.444,289.091L266.667,298.636L288.889,295.909L311.111,295.909L333.333,295.909L355.556,294.545L377.778,298.636L400,298.636L422.222,291.818L444.444,298.636L466.667,297.273L488.889,297.273L511.111,298.636L533.333,291.818L555.556,297.273L577.778,295.909L600,295.909L622.222,282.273L644.444,298.636L666.667,297.273L688.889,295.909L711.111,297.273L733.333,298.636L755.556,298.636L777.778,291.818L800,298.636L800,298.636L777.778,293.182L755.556,298.636L733.333,298.636L711.111,297.273L688.889,295.909L666.667,297.273L644.444,298.636L622.222,286.364L600,295.909L577.778,295.909L555.556,297.273L533.333,293.182L511.111,298.636L488.889,297.273L466.667,297.273L444.444,298.636L422.222,293.182L400,298.636L377.778,298.636L355.556,294.545L333.333,295.909L311.111,295.909L288.889,297.273L266.667,298.636L244.444,291.818L222.222,295.909L200,298.636L177.778,298.636L155.556,297.273L133.333,300L111.111,300L88.889,300L66.667,300L44.444,300L22.222,300L0,300Z" fill="#ff9da6"/></g></g><path class="foreground" aria-hidden="true" d="" display="none"/></g><g transform="translate(0,0)"><path class="background" aria-hidden="true" d="M0,0h800v300h-800Z"/><g><g class="mark-area role-mark marks" role="graphics-object" aria-roledescription="area mark container"><path aria-label="Date: Mar 16, 2026; Unique Clones/day: 0; Repository: karlmdavis/test-repo-for-move" role="graphics-symbol" aria-roledescription="area mark" d="M0,300L22.222,300L44.444,300L66.667,300L88.889,300L111.111,300L133.333,300L155.556,297.273L177.778,298.636L200,298.636L222.222,295.909L244.444,291.818L266.667,298.636L288.889,297.273L311.111,295.909L333.333,295.909L355.556,294.545L377.778,298.636L400,298.636L422.222,293.182L444.444,298.636L466.667,297.273L488.889,297.273L511.111,298.636L533.333,293.182L555.556,297.273L577.778,295.909L600,295.909L622.222,286.364L644.444,298.636L666.667,297.273L688.889,295.909L711.111,297.273L733.333,298.636L755.556,298.636L777.778,293.182L800,298.636L800,298.636L777.778,294.545L755.556,298.636L733.333,298.636L711.111,297.273L688.889,297.273L666.667,297.273L644.444,298.636L622.222,289.091L600,295.909L577.778,295.909L555.556,297.273L533.333,294.545L511.111,298.636L488.889,297.273L466.667,297.273L444.444,298.636L422.222,294.545L400,298.636L377.778,298.636L355.556,294.545L333.333,295.909L311.111,295.909L288.889,298.636L266.667,298.636L244.444,293.182L222.222,297.273L200,298.636L177.778,298.636L155.556,297.273L133.333,300L111.111,300L88.889,300L66.667,300L44.444,300L22.222,300L0,300Z" fill="#9d755d"/></g></g><path class="foreground" aria-hidden="true" d="" display="none"/></g><g transform="translate(0,0)"><path class="background" aria-hidden="true" d="M0,0h800v300h-800Z"/><g><g class="mark-area role-mark marks" role="graphics-object" aria-roledescription="area mark container"><path aria-label="Date: Mar 16, 2026; Unique Clones/day: 0; Repository: karlmdavis/todoist-ai" role="graphics-symbol" aria-roledescription="area mark" d="M0,300L22.222,300L44.444,300L66.667,300L88.889,300L111.111,300L133.333,300L155.556,297.273L177.778,298.636L200,298.636L222.222,297.273L244.444,293.182L266.667,298.636L288.889,298.636L311.111,295.909L333.333,295.909L355.556,294.545L377.778,298.636L400,298.636L422.222,294.545L444.444,298.636L466.667,297.273L488.889,297.273L511.111,298.636L533.333,294.545L555.556,297.273L577.778,295.909L600,295.909L622.222,289.091L644.444,298.636L666.667,297.273L688.889,297.273L711.111,297.273L733.333,298.636L755.556,298.636L777.778,294.545L800,298.636L800,298.636L777.778,294.545L755.556,298.636L733.333,298.636L711.111,297.273L688.889,297.273L666.667,298.636L644.444,298.636L622.222,289.091L600,295.909L577.778,297.273L555.556,297.273L533.333,294.545L511.111,298.636L488.889,297.273L466.667,297.273L444.444,298.636L422.222,294.545L400,298.636L377.778,298.636L355.556,297.273L333.333,295.909L311.111,295.909L288.889,298.636L266.667,298.636L244.444,293.182L222.222,297.273L200,298.636L177.778,298.636L155.556,297.273L133.333,300L111.111,300L88.889,300L66.667,300L44.444,300L22.222,300L0,300Z" fill="#bab0ac"/></g></g><path class="foreground" aria-hidden="true" d="" display="none"/></g><g transform="translate(0,0)"><path class="background" aria-hidden="true" d="M0,0h800v300h-800Z"/><g><g class="mark-area role-mark marks" role="graphics-object" aria-roledescription="area mark container"><path aria-label="Date: Mar 16, 2026; Unique Clones/day: 0; Repository: karlmdavis/usgs-water-api-java" role="graphics-symbol" aria-roledescription="area mark" d="M0,300L22.222,300L44.444,300L66.667,300L88.889,300L111.111,300L133.333,300L155.556,297.273L177.778,298.636L200,298.636L222.222,297.273L244.444,293.182L266.667,298.636L288.889,298.636L311.111,295.909L333.333,295.909L355.556,297.273L377.778,298.636L400,298.636L422.222,294.545L444.444,298.636L466.667,297.273L488.889,297.273L511.111,298.636L533.333,294.545L555.556,297.273L577.778,297.273L600,295.909L622.222,289.091L644.444,298.636L666.667,298.636L688.889,297.273L711.111,297.273L733.333,298.636L755.556,298.636L777.778,294.545L800,298.636L800,300L777.778,297.273L755.556,300L733.333,300L711.111,298.636L688.889,300L666.667,300L644.444,300L622.222,293.182L600,300L577.778,298.636L555.556,298.636L533.333,297.273L511.111,300L488.889,298.636L466.667,300L444.444,300L422.222,297.273L400,300L377.778,300L355.556,298.636L333.333,297.273L311.111,298.636L288.889,300L266.667,300L244.444,295.909L222.222,300L200,300L177.778,300L155.556,300L133.333,300L111.111,300L88.889,300L66.667,300L44.444,300L22.222,300L0,300Z" fill="#4c78a8"/></g></g><path class="foreground" aria-hidden="true" d="" display="none"/></g><g transform="translate(0,0)"><path class="background" aria-hidden="true" d="M0,0h800v300h-800Z"/><g><g class="mark-area role-mark marks" role="graphics-object" aria-roledescription="area mark container"><path aria-label="Date: Mar 16, 2026; Unique Clones/day: 0; Repository: karlmdavis/workstation-base-ansible-role" role="graphics-symbol" aria-roledescription="area mark" d="M0,300L22.222,300L44.444,300L66.667,300L88.889,300L111.111,300L133.333,300L155.556,300L177.778,300L200,300L222.222,300L244.444,295.909L266.667,300L288.889,300L311.111,298.636L333.333,297.273L355.556,298.636L377.778,300L400,300L422.222,297.273L444.444,300L466.667,300L488.889,298.636L511.111,300L533.333,297.273L555.556,298.636L577.778,298.636L600,300L622.222,293.182L644.444,300L666.667,300L688.889,300L711.111,298.636L733.333,300L755.556,300L777.778,297.273L800,300L800,300L777.778,298.636L755.556,300L733.333,300L711.111,298.636L688.889,300L666.667,300L644.444,300L622.222,297.273L600,300L577.778,300L555.556,298.636L533.333,298.636L511.111,300L488.889,298.636L466.667,300L444.444,300L422.222,298.636L400,300L377.778,300L355.556,300L333.333,298.636L311.111,300L288.889,300L266.667,300L244.444,298.636L222.222,300L200,300L177.778,300L155.556,300L133.333,300L111.111,300L88.889,300L66.667,300L44.444,300L22.222,300L0,300Z" fill="#f58518"/></g></g><path class="foreground" aria-hidden="true" d="" display="none"/></g><g transform="translate(0,0)"><path class="background" aria-hidden="true" d="M0,0h800v300h-800Z"/><g><g class="mark-area role-mark marks" role="graphics-object" aria-roledescription="area mark container"><path aria-label="Date: Mar 16, 2026; Unique Clones/day: 0; Repository: karlmdavis/xmlpull" role="graphics-symbol" aria-roledescription="area mark" d="M0,300L22.222,300L44.444,300L66.667,300L88.889,300L111.111,300L133.333,300L155.556,300L177.778,300L200,300L222.222,300L244.444,298.636L266.667,300L288.889,300L311.111,300L333.333,298.636L355.556,300L377.778,300L400,300L422.222,298.636L444.444,300L466.667,300L488.889,298.636L511.111,300L533.333,298.636L555.556,298.636L577.778,300L600,300L622.222,297.273L644.444,300L666.667,300L688.889,300L711.111,298.636L733.333,300L755.556,300L777.778,298.636L800,300L800,300L777.778,300L755.556,300L733.333,300L711.111,300L688.889,300L666.667,300L644.444,300L622.222,300L600,300L577.778,300L555.556,300L533.333,300L511.111,300L488.889,300L466.667,300L444.444,300L422.222,300L400,300L377.778,300L355.556,300L333.333,300L311.111,300L288.889,300L266.667,300L244.444,300L222.222,300L200,300L177.778,300L155.556,300L133.333,300L111.111,300L88.889,300L66.667,300L44.444,300L22.222,300L0,300Z" fill="#e45756"/></g></g><path class="foreground" aria-hidden="true" d="" display="none"/></g></g><g class="mark-group role-legend" role="graphics-symbol" aria-roledescription="legend" aria-label="Symbol legend titled 'Repository' for fill color with 43 values: justdavis-family/github-analytics-data, justdavis-family/justdavis, karlmdavis/FHIR-Server, karlmdavis/ansible, karlmdavis/ansible-jenkins, ending with karlmdavis/xmlpull"><g transform="translate(818,0)"><path class="background" aria-hidden="true" d="M0,0h176v404h-176Z" pointer-events="none"/><g><g class="mark-group role-legend-entry"><g transform="translate(0,16)"><path class="background" aria-hidden="true" d="M0,0h0v0h0Z" pointer-events="none"/><g><g class="mark-group role-scope" role="graphics-object" aria-roledescription="group mark container"><g transform="translate(0,0)"><path class="background" aria-hidden="true" d="M0,0h176v11h-176Z" pointer-events="none" opacity="1"/><g><g class="mark-symbol role-legend-symbol" pointer-events="none"><path transform="translate(6,6)" d="M5,0A5,5,0,1,1,-5,0A5,5,0,1,1,5,0" fill="#4c78a8" stroke-width="1.5" opacity="1"/></g><g class="mark-text role-legend-label" pointer-events="none"><text text-anchor="start" transform="translate(16,9)" font-family="sans-serif" font-size="10px" fill="#000" opacity="1">justdavis-family/github-analytics-d…</text></g></g><path class="foreground" aria-hidden="true" d="" pointer-events="none" display="none"/></g><g transform="translate(0,13)"><path class="background" aria-hidden="true" d="M0,0h176v11h-176Z" pointer-events="none" opacity="1"/><g><g class="mark-symbol role-legend-symbol" pointer-events="none"><path transform="translate(6,6)" d="M5,0A5,5,0,1,1,-5,0A5,5,0,1,1,5,0" fill="#f58518" stroke-width="1.5" opacity="1"/></g><g class="mark-text role-legend-label" pointer-events="none"><text text-anchor="start" transform="translate(16,9)" font-family="sans-serif" font-size="10px" fill="#000" opacity="1">justdavis-family/justdavis</text></g></g><path class="foreground" aria-hidden="true" d="" pointer-events="none" display="none"/></g><g transform="translate(0,26)"><path class="background" aria-hidden="true" d="M0,0h176v11h-176Z" pointer-events="none" opacity="1"/><g><g class="mark-symbol role-legend-symbol" pointer-events="none"><path transform="translate(6,6)" d="M5,0A5,5,0,1,1,-5,0A5,5,0,1,1,5,0" fill="#e45756" stroke-width="1.5" opacity="1"/></g><g class="mark-text role-legend-label" pointer-events="none"><text text-anchor="start" transform="translate(16,9)" font-family="sans-serif" font-size="10px" fill="#000" opacity="1">karlmdavis/FHIR-Server</text></g></g><path class="foreground" aria-hidden="true" d="" pointer-events="none" display="none"/></g><g transform="translate(0,39)"><path class="background" aria-hidden="true" d="M0,0h176v11h-176Z" pointer-events="none" opacity="1"/><g><g class="mark-symbol role-legend-symbol" pointer-events="none"><path transform="translate(6,6)" d="M5,0A5,5,0,1,1,-5,0A5,5,0,1,1,5,0" fill="#72b7b2" stroke-width="1.5" opacity="1"/></g><g class="mark-text role-legend-label" pointer-events="none"><text text-anchor="start" transform="translate(16,9)" font-family="sans-serif" font-size="10px" fill="#000" opacity="1">karlmdavis/ansible</text></g></g><path class="foreground" aria-hidden="true" d="" pointer-events="none" display="none"/></g><g transform="translate(0,52)"><path class="background" aria-hidden="true" d="M0,0h176v11h-176Z" pointer-events="none" opacity="1"/><g><g class="mark-symbol role-legend-symbol" pointer-events="none"><path transform="translate(6,6)" d="M5,0A5,5,0,1,1,-5,0A5,5,0,1,1,5,0" fill="#54a24b" stroke-width="1.5" opacity="1"/></g><g class="mark-text role-legend-label" pointer-events="none"><text text-anchor="start" transform="translate(16,9)" font-family="sans-serif" font-size="10px" fill="#000" opacity="1">karlmdavis/ansible-jenkins</text></g></g><path class="foreground" aria-hidden="true" d="" pointer-events="none" display="none"/></g><g transform="translate(0,65)"><path class="background" aria-hidden="true" d="M0,0h176v11h-176Z" pointer-events="none" opacity="1"/><g><g class="mark-symbol role-legend-symbol" pointer-events="none"><path transform="translate(6,6)" d="M5,0A5,5,0,1,1,-5,0A5,5,0,1,1,5,0" fill="#eeca3b" stroke-width="1.5" opacity="1"/></g><g class="mark-text role-legend-label" pointer-events="none"><text text-anchor="start" transform="translate(16,9)" font-family="sans-serif" font-size="10px" fill="#000" opacity="1">karlmdavis/ansible-role-acmetool</text></g></g><path class="foreground" aria-hidden="true" d="" pointer-events="none" display="none"/></g><g transform="translate(0,78)"><path class="background" aria-hidden="true" d="M0,0h176v11h-176Z" pointer-events="none" opacity="1"/><g><g class="mark-symbol role-legend-symbol" pointer-events="none"><path transform="translate(6,6)" d="M5,0A5,5,0,1,1,-5,0A5,5,0,1,1,5,0" fill="#b279a2" stroke-width="1.5" opacity="1"/></g><g class="mark-text role-legend-label" pointer-events="none"><text text-anchor="start" transform="translate(16,9)" font-family="sans-serif" font-size="10px" fill="#000" opacity="1">karlmdavis/ansible-role-bind-dns</text></g></g><path class="foreground" aria-hidden="true" d="" pointer-events="none" display="none"/></g><g transform="translate(0,91)"><path class="background" aria-hidden="true" d="M0,0h176v11h-176Z" pointer-events="none" opacity="1"/><g><g class="mark-symbol role-legend-symbol" pointer-events="none"><path transform="translate(6,6)" d="M5,0A5,5,0,1,1,-5,0A5,5,0,1,1,5,0" fill="#ff9da6" stroke-width="1.5" opacity="1"/></g><g class="mark-text role-legend-label" pointer-events="none"><text text-anchor="start" transform="translate(16,9)" font-family="sans-serif" font-size="10px" fill="#000" opacity="1">karlmdavis/ansible-role-jenkins2</text></g></g><path class="foreground" aria-hidden="true" d="" pointer-events="none" display="none"/></g><g transform="translate(0,104)"><path class="background" aria-hidden="true" d="M0,0h176v11h-176Z" pointer-events="none" opacity="1"/><g><g class="mark-symbol role-legend-symbol" pointer-events="none"><path transform="translate(6,6)" d="M5,0A5,5,0,1,1,-5,0A5,5,0,1,1,5,0" fill="#9d755d" stroke-width="1.5" opacity="1"/></g><g class="mark-text role-legend-label" pointer-events="none"><text text-anchor="start" transform="translate(16,9)" font-family="sans-serif" font-size="10px" fill="#000" opacity="1">karlmdavis/ansible-role-ldap</text></g></g><path class="foreground" aria-hidden="true" d="" pointer-events="none" display="none"/></g><g transform="translate(0,117)"><path class="background" aria-hidden="true" d="M0,0h176v11h-176Z" pointer-events="none" opacity="1"/><g><g class="mark-symbol role-legend-symbol" pointer-events="none"><path transform="translate(6,6)" d="M5,0A5,5,0,1,1,-5,0A5,5,0,1,1,5,0" fill="#bab0ac" stroke-width="1.5" opacity="1"/></g><g class="mark-text role-legend-label" pointer-events="none"><text text-anchor="start" transform="translate(16,9)" font-family="sans-serif" font-size="10px" fill="#000" opacity="1">karlmdavis/ansible-role-rcm-dotfiles</text></g></g><path class="foreground" aria-hidden="true" d="" pointer-events="none" display="none"/></g><g transform="translate(0,130)"><path class="background" aria-hidden="true" d="M0,0h176v11h-176Z" pointer-events="none" opacity="1"/><g><g class="mark-symbol role-legend-symbol" pointer-events="none"><path transform="translate(6,6)" d="M5,0A5,5,0,1,1,-5,0A5,5,0,1,1,5,0" fill="#4c78a8" stroke-width="1.5" opacity="1"/></g><g class="mark-text role-legend-label" pointer-events="none"><text text-anchor="start" transform="translate(16,9)" font-family="sans-serif" font-size="10px" fill="#000" opacity="1">karlmdavis/ansible-roles</text></g></g><path class="foreground" aria-hidden="true" d="" pointer-events="none" display="none"/></g><g transform="translate(0,143)"><path class="background" aria-hidden="true" d="M0,0h176v11h-176Z" pointer-events="none" opacity="1"/><g><g class="mark-symbol role-legend-symbol" pointer-events="none"><path transform="translate(6,6)" d="M5,0A5,5,0,1,1,-5,0A5,5,0,1,1,5,0" fill="#f58518" stroke-width="1.5" opacity="1"/></g><g class="mark-text role-legend-label" pointer-events="none"><text text-anchor="start" transform="translate(16,9)" font-family="sans-serif" font-size="10px" fill="#000" opacity="1">karlmdavis/bbonfhir-dev-infra-doc…</text></g></g><path class="foreground" aria-hidden="true" d="" pointer-events="none" display="none"/></g><g transform="translate(0,156)"><path class="background" aria-hidden="true" d="M0,0h176v11h-176Z" pointer-events="none" opacity="1"/><g><g class="mark-symbol role-legend-symbol" pointer-events="none"><path transform="translate(6,6)" d="M5,0A5,5,0,1,1,-5,0A5,5,0,1,1,5,0" fill="#e45756" stroke-width="1.5" opacity="1"/></g><g class="mark-text role-legend-label" pointer-events="none"><text text-anchor="start" transform="translate(16,9)" font-family="sans-serif" font-size="10px" fill="#000" opacity="1">karlmdavis/can-i-kayak-baltimore</text></g></g><path class="foreground" aria-hidden="true" d="" pointer-events="none" display="none"/></g><g transform="translate(0,169)"><path class="background" aria-hidden="true" d="M0,0h176v11h-176Z" pointer-events="none" opacity="1"/><g><g class="mark-symbol role-legend-symbol" pointer-events="none"><path transform="translate(6,6)" d="M5,0A5,5,0,1,1,-5,0A5,5,0,1,1,5,0" fill="#72b7b2" stroke-width="1.5" opacity="1"/></g><g class="mark-text role-legend-label" pointer-events="none"><text text-anchor="start" transform="translate(16,9)" font-family="sans-serif" font-size="10px" fill="#000" opacity="1">karlmdavis/datanucleus-test-jdo-1…</text></g></g><path class="foreground" aria-hidden="true" d="" pointer-events="none" display="none"/></g><g transform="translate(0,182)"><path class="background" aria-hidden="true" d="M0,0h176v11h-176Z" pointer-events="none" opacity="1"/><g><g class="mark-symbol role-legend-symbol" pointer-events="none"><path transform="translate(6,6)" d="M5,0A5,5,0,1,1,-5,0A5,5,0,1,1,5,0" fill="#54a24b" stroke-width="1.5" opacity="1"/></g><g class="mark-text role-legend-label" pointer-events="none"><text text-anchor="start" transform="translate(16,9)" font-family="sans-serif" font-size="10px" fill="#000" opacity="1">karlmdavis/dotfiles</text></g></g><path class="foreground" aria-hidden="true" d="" pointer-events="none" display="none"/></g><g transform="translate(0,195)"><path class="background" aria-hidden="true" d="M0,0h176v11h-176Z" pointer-events="none" opacity="1"/><g><g class="mark-symbol role-legend-symbol" pointer-events="none"><path transform="translate(6,6)" d="M5,0A5,5,0,1,1,-5,0A5,5,0,1,1,5,0" fill="#eeca3b" stroke-width="1.5" opacity="1"/></g><g class="mark-text role-legend-label" pointer-events="none"><text text-anchor="start" transform="translate(16,9)" font-family="sans-serif" font-size="10px" fill="#000" opacity="1">karlmdavis/fhir-benchmarks</text></g></g><path class="foreground" aria-hidden="true" d="" pointer-events="none" display="none"/></g><g transform="translate(0,208)"><path class="background" aria-hidden="true" d="M0,0h176v11h-176Z" pointer-events="none" opacity="1"/><g><g class="mark-symbol role-legend-symbol" pointer-events="none"><path transform="translate(6,6)" d="M5,0A5,5,0,1,1,-5,0A5,5,0,1,1,5,0" fill="#b279a2" stroke-width="1.5" opacity="1"/></g><g class="mark-text role-legend-label" pointer-events="none"><text text-anchor="start" transform="translate(16,9)" font-family="sans-serif" font-size="10px" fill="#000" opacity="1">karlmdavis/hapi-fhir-jpaserver-sta…</text></g></g><path class="foreground" aria-hidden="true" d="" pointer-events="none" display="none"/></g><g transform="translate(0,221)"><path class="background" aria-hidden="true" d="M0,0h176v11h-176Z" pointer-events="none" opacity="1"/><g><g class="mark-symbol role-legend-symbol" pointer-events="none"><path transform="translate(6,6)" d="M5,0A5,5,0,1,1,-5,0A5,5,0,1,1,5,0" fill="#ff9da6" stroke-width="1.5" opacity="1"/></g><g class="mark-text role-legend-label" pointer-events="none"><text text-anchor="start" transform="translate(16,9)" font-family="sans-serif" font-size="10px" fill="#000" opacity="1">karlmdavis/hello-rust-actix</text></g></g><path class="foreground" aria-hidden="true" d="" pointer-events="none" display="none"/></g><g transform="translate(0,234)"><path class="background" aria-hidden="true" d="M0,0h176v11h-176Z" pointer-events="none" opacity="1"/><g><g class="mark-symbol role-legend-symbol" pointer-events="none"><path transform="translate(6,6)" d="M5,0A5,5,0,1,1,-5,0A5,5,0,1,1,5,0" fill="#9d755d" stroke-width="1.5" opacity="1"/></g><g class="mark-text role-legend-label" pointer-events="none"><text text-anchor="start" transform="translate(16,9)" font-family="sans-serif" font-size="10px" fill="#000" opacity="1">karlmdavis/jessentials</text></g></g><path class="foreground" aria-hidden="true" d="" pointer-events="none" display="none"/></g><g transform="translate(0,247)"><path class="background" aria-hidden="true" d="M0,0h176v11h-176Z" pointer-events="none" opacity="1"/><g><g class="mark-symbol role-legend-symbol" pointer-events="none"><path transform="translate(6,6)" d="M5,0A5,5,0,1,1,-5,0A5,5,0,1,1,5,0" fill="#bab0ac" stroke-width="1.5" opacity="1"/></g><g class="mark-text role-legend-label" pointer-events="none"><text text-anchor="start" transform="translate(16,9)" font-family="sans-serif" font-size="10px" fill="#000" opacity="1">karlmdavis/justdavis-ansible</text></g></g><path class="foreground" aria-hidden="true" d="" pointer-events="none" display="none"/></g><g transform="translate(0,260)"><path class="background" aria-hidden="true" d="M0,0h176v11h-176Z" pointer-events="none" opacity="1"/><g><g class="mark-symbol role-legend-symbol" pointer-events="none"><path transform="translate(6,6)" d="M5,0A5,5,0,1,1,-5,0A5,5,0,1,1,5,0" fill="#4c78a8" stroke-width="1.5" opacity="1"/></g><g class="mark-text role-legend-label" pointer-events="none"><text text-anchor="start" transform="translate(16,9)" font-family="sans-serif" font-size="10px" fill="#000" opacity="1">karlmdavis/justdavis-finances</text></g></g><path class="foreground" aria-hidden="true" d="" pointer-events="none" display="none"/></g><g transform="translate(0,273)"><path class="background" aria-hidden="true" d="M0,0h176v11h-176Z" pointer-events="none" opacity="1"/><g><g class="mark-symbol role-legend-symbol" pointer-events="none"><path transform="translate(6,6)" d="M5,0A5,5,0,1,1,-5,0A5,5,0,1,1,5,0" fill="#f58518" stroke-width="1.5" opacity="1"/></g><g class="mark-text role-legend-label" pointer-events="none"><text text-anchor="start" transform="translate(16,9)" font-family="sans-serif" font-size="10px" fill="#000" opacity="1">karlmdavis/justdavis-karl</text></g></g><path class="foreground" aria-hidden="true" d="" pointer-events="none" display="none"/></g><g transform="translate(0,286)"><path class="background" aria-hidden="true" d="M0,0h176v11h-176Z" pointer-events="none" opacity="1"/><g><g class="mark-symbol role-legend-symbol" pointer-events="none"><path transform="translate(6,6)" d="M5,0A5,5,0,1,1,-5,0A5,5,0,1,1,5,0" fill="#e45756" stroke-width="1.5" opacity="1"/></g><g class="mark-text role-legend-label" pointer-events="none"><text text-anchor="start" transform="translate(16,9)" font-family="sans-serif" font-size="10px" fill="#000" opacity="1">karlmdavis/justdavis-puppet</text></g></g><path class="foreground" aria-hidden="true" d="" pointer-events="none" display="none"/></g><g transform="translate(0,299)"><path class="background" aria-hidden="true" d="M0,0h176v11h-176Z" pointer-events="none" opacity="1"/><g><g class="mark-symbol role-legend-symbol" pointer-events="none"><path transform="translate(6,6)" d="M5,0A5,5,0,1,1,-5,0A5,5,0,1,1,5,0" fill="#72b7b2" stroke-width="1.5" opacity="1"/></g><g class="mark-text role-legend-label" pointer-events="none"><text text-anchor="start" transform="translate(16,9)" font-family="sans-serif" font-size="10px" fill="#000" opacity="1">karlmdavis/kobjects</text></g></g><path class="foreground" aria-hidden="true" d="" pointer-events="none" display="none"/></g><g transform="translate(0,312)"><path class="background" aria-hidden="true" d="M0,0h176v11h-176Z" pointer-events="none" opacity="1"/><g><g class="mark-symbol role-legend-symbol" pointer-events="none"><path transform="translate(6,6)" d="M5,0A5,5,0,1,1,-5,0A5,5,0,1,1,5,0" fill="#54a24b" stroke-width="1.5" opacity="1"/></g><g class="mark-text role-legend-label" pointer-events="none"><text text-anchor="start" transform="translate(16,9)" font-family="sans-serif" font-size="10px" fill="#000" opacity="1">karlmdavis/ksoap2-android</text></g></g><path class="foreground" aria-hidden="true" d="" pointer-events="none" display="none"/></g><g transform="translate(0,325)"><path class="background" aria-hidden="true" d="M0,0h176v11h-176Z" pointer-events="none" opacity="1"/><g><g class="mark-symbol role-legend-symbol" pointer-events="none"><path transform="translate(6,6)" d="M5,0A5,5,0,1,1,-5,0A5,5,0,1,1,5,0" fill="#eeca3b" stroke-width="1.5" opacity="1"/></g><g class="mark-text role-legend-label" pointer-events="none"><text text-anchor="start" transform="translate(16,9)" font-family="sans-serif" font-size="10px" fill="#000" opacity="1">karlmdavis/kxml2</text></g></g><path class="foreground" aria-hidden="true" d="" pointer-events="none" display="none"/></g><g transform="translate(0,338)"><path class="background" aria-hidden="true" d="M0,0h176v11h-176Z" pointer-events="none" opacity="1"/><g><g class="mark-symbol role-legend-symbol" pointer-events="none"><path transform="translate(6,6)" d="M5,0A5,5,0,1,1,-5,0A5,5,0,1,1,5,0" fill="#b279a2" stroke-width="1.5" opacity="1"/></g><g class="mark-text role-legend-label" pointer-events="none"><text text-anchor="start" transform="translate(16,9)" font-family="sans-serif" font-size="10px" fill="#000" opacity="1">karlmdavis/ldap-plugin</text></g></g><path class="foreground" aria-hidden="true" d="" pointer-events="none" display="none"/></g><g transform="translate(0,351)"><path class="background" aria-hidden="true" d="M0,0h176v11h-176Z" pointer-events="none" opacity="1"/><g><g class="mark-symbol role-legend-symbol" pointer-events="none"><path transform="translate(6,6)" d="M5,0A5,5,0,1,1,-5,0A5,5,0,1,1,5,0" fill="#ff9da6" stroke-width="1.5" opacity="1"/></g><g class="mark-text role-legend-label" pointer-events="none"><text text-anchor="start" transform="translate(16,9)" font-family="sans-serif" font-size="10px" fill="#000" opacity="1">karlmdavis/lego-ev3dev-rs</text></g></g><path class="foreground" aria-hidden="true" d="" pointer-events="none" display="none"/></g><g transform="translate(0,364)"><path class="background" aria-hidden="true" d="M0,0h176v11h-176Z" pointer-events="none" opacity="1"/><g><g class="mark-symbol role-legend-symbol" pointer-events="none"><path transform="translate(6,6)" d="M5,0A5,5,0,1,1,-5,0A5,5,0,1,1,5,0" fill="#9d755d" stroke-width="1.5" opacity="1"/></g><g class="mark-text role-legend-label" pointer-events="none"><text text-anchor="start" transform="translate(16,9)" font-family="sans-serif" font-size="10px" fill="#000" opacity="1">karlmdavis/liquibase</text></g></g><path class="foreground" aria-hidden="true" d="" pointer-events="none" display="none"/></g><g transform="translate(0,377)"><path class="background" aria-hidden="true" d="M0,0h176v11h-176Z" pointer-events="none" opacity="1"/><g><g class="mark-symbol role-legend-symbol" pointer-events="none"><path transform="translate(6,6)" d="M5,0A5,5,0,1,1,-5,0A5,5,0,1,1,5,0" fill="#bab0ac" stroke-width="1.5" opacity="1"/></g><g class="mark-text role-legend-label" pointer-events="none"><text text-anchor="start" transform="translate(16,9)" font-family="sans-serif" font-size="10px" fill="#000" opacity="1">…14 entries</text></g></g><path class="foreground" aria-hidden="true" d="" pointer-events="none" display="none"/></g></g></g><path class="foreground" aria-hidden="true" d="" pointer-events="none" display="none"/></g></g><g class="mark-text role-legend-title" pointer-events="none"><text text-anchor="start" transform="translate(0,9)" font-family="sans-serif" font-size="11px" font-weight="bold" fill="#000" opacity="1">Repository</text></g></g><path class="foreground" aria-hidden="true" d="" pointer-events="none" display="none"/></g></g><g class="mark-group role-title"><g transform="translate(400,-22)"><path class="background" aria-hidden="true" d="M0,0h0v0h0Z" pointer-events="none"/><g><g class="mark-text role-title-text" role="graphics-symbol" aria-roledescription="title" aria-label="Title text 'Unique Clones per Day'" pointer-events="none"><text text-anchor="middle" transform="translate(0,10)" font-family="sans-serif" font-size="13px" font-weight="bold" fill="#000" opacity="1">Unique Clones per Day</text></g></g><path class="foreground" aria-hidden="true" d="" pointer-events="none" display="none"/></g></g></g><path class="foreground" aria-hidden="true" d="" display="none"/></g></g></g></svg>