<svg xmlns="http://www.w3.org/2000/svg" xmlns:xlink="http://www.w3.org/1999/xlink" version="1.1" class="marks" width="1032" height="436" viewBox="0 0 1032 436"><rect width="1032" height="436" fill="white"/><g fill="none" stroke-miterlimit="10" transform="translate(33,27)"><g class="mark-group role-frame root" role="graphics-object" aria-roledescription="group mark container"><g transform="translate(0,0)"><path class="background" aria-hidden="true" d="M0.5,0.5h800v300h-800Z" stroke="#ddd"/><g><g class="mark-group role-axis" aria-hidden="true"><g transform="translate(0.5,300.5)"><path class="background" aria-hidden="true" d="M0,0h0v0h0Z" pointer-events="none"/><g><g class="mark-rule role-axis-grid" pointer-events="none"><line transform="translate(24,-300)" x2="0" y2="300" stroke="#ddd" stroke-width="1" opacity="1"/><line transform="translate(73,-300)" x2="0" y2="300" stroke="#ddd" stroke-width="1" opacity="1"/><line transform="translate(121,-300)" x2="0" y2="300" stroke="#ddd" stroke-width="1" opacity="1"/><line transform="translate(170,-300)" x2="0" y2="300" stroke="#ddd" stroke-width="1" opacity="1"/><line transform="translate(218,-300)" x2="0" y2="300" stroke="#ddd" stroke-width="1" opacity="1"/><line transform="translate(267,-300)" x2="0" y2="300" stroke="#ddd" stroke-width="1" opacity="1"/><line transform="translate(315,-300)" x2="0" y2="300" stroke="#ddd" stroke-width="1" opacity="1"/><line transform="translate(364,-300)" x2="0" y2="300" stroke="#ddd" stroke-width="1" opacity="1"/><line transform="translate(388,-300)" x2="0" y2="300" stroke="#ddd" stroke-width="1" opacity="1"/><line transform="translate(436,-300)" x2="0" y2="300" stroke="#ddd" stroke-width="1" opacity="1"/><line transform="translate(485,-300)" x2="0" y2="300" stroke="#ddd" stroke-width="1" opacity="1"/><line transform="translate(533,-300)" x2="0" y2="300" stroke="#ddd" stroke-width="1" opacity="1"/><line transform="translate(582,-300)" x2="0" y2="300" stroke="#ddd" stroke-width="1" opacity="1"/><line transform="translate(630,-300)" x2="0" y2="300" stroke="#ddd" stroke-width="1" opacity="1"/><line transform="translate(679,-300)" x2="0" y2="300" stroke="#ddd" stroke-width="1" opacity="1"/><line transform="translate(727,-300)" x2="0" y2="300" stroke="#ddd" stroke-width="1" opacity="1"/><line transform="translate(776,-300)" x2="0" y2="300" stroke="#ddd" stroke-width="1" opacity="1"/></g></g><path class="foreground" aria-hidden="true" d="" pointer-events="none" display="none"/></g></g><g class="mark-group role-axis" aria-hidden="true"><g transform="translate(0.5,0.5)"><path class="background" aria-hidden="true" d="M0,0h0v0h0Z" pointer-events="none"/><g><g class="mark-rule role-axis-grid" pointer-events="none"><line transform="translate(0,300)" x2="800" y2="0" stroke="#ddd" stroke-width="1" opacity="1"/><line transform="translate(0,263)" x2="800" y2="0" stroke="#ddd" stroke-width="1" opacity="1"/><line transform="translate(0,225)" x2="800" y2="0" stroke="#ddd" stroke-width="1" opacity="1"/><line transform="translate(0,188)" x2="800" y2="0" stroke="#ddd" stroke-width="1" opacity="1"/><line transform="translate(0,150)" x2="800" y2="0" stroke="#ddd" stroke-width="1" opacity="1"/><line transform="translate(0,113)" x2="800" y2="0" stroke="#ddd" stroke-width="1" opacity="1"/><line transform="translate(0,75)" x2="800" y2="0" stroke="#ddd" stroke-width="1" opacity="1"/><line transform="translate(0,38)" x2="800" y2="0" stroke="#ddd" stroke-width="1" opacity="1"/><line transform="translate(0,0)" x2="800" y2="0" stroke="#ddd" stroke-width="1" opacity="1"/></g></g><path class="foreground" aria-hidden="true" d="" pointer-events="none" display="none"/></g></g><g class="mark-group role-axis" role="graphics-symbol" aria-roledescription="axis" aria-label="X-axis titled 'Date' for a time scale with values from Monday, 16 March 2026, 12:00:00 AM to Saturday, 18 April 2026, 12:00:00 AM"><g transform="translate(0.5,300.5)"><path class="background" aria-hidden="true" d="M0,0h0v0h0Z" pointer-events="none"/><g><g class="mark-rule role-axis-tick" pointer-events="none"><line transform="translate(24,0)" x2="0" y2="5" stroke="#888" stroke-width="1" opacity="1"/><line transform="translate(73,0)" x2="0" y2="5" stroke="#888" stroke-width="1" opacity="1"/><line transform="translate(121,0)" x2="0" y2="5" stroke="#888" stroke-width="1" opacity="1"/><line transform="translate(170,0)" x2="0" y2="5" stroke="#888" stroke-width="1" opacity="1"/><line transform="translate(218,0)" x2="0" y2="5" stroke="#888" stroke-width="1" opacity="1"/><line transform="translate(267,0)" x2="0" y2="5" stroke="#888" stroke-width="1" opacity="1"/><line transform="translate(315,0)" x2="0" y2="5" stroke="#888" stroke-width="1" opacity="1"/><line transform="translate(364,0)" x2="0" y2="5" stroke="#888" stroke-width="1" opacity="1"/><line transform="translate(388,0)" x2="0" y2="5" stroke="#888" stroke-width="1" opacity="1"/><line transform="translate(436,0)" x2="0" y2="5" stroke="#888" stroke-width="1" opacity="1"/><line transform="translate(485,0)" x2="0" y2="5" stroke="#888" stroke-width="1" opacity="1"/><line transform="translate(533,0)" x2="0" y2="5" stroke="#888" stroke-width="1" opacity="1"/><line transform="translate(582,0)" x2="0" y2="5" stroke="#888" stroke-width="1" opacity="1"/><line transform="translate(630,0)" x2="0" y2="5" stroke="#888" stroke-width="1" opacity="1"/><line transform="translate(679,0)" x2="0" y2="5" stroke="#888" stroke-width="1" opacity="1"/><line transform="translate(727,0)" x2="0" y2="5" stroke="#888" stroke-width="1" opacity="1"/><line transform="translate(776,0)" x2="0" y2="5" stroke="#888" stroke-width="1" opacity="1"/></g><g class="mark-text role-axis-label" pointer-events="none"><text text-anchor="middle" transform="translate(24.242424242424242,15)" font-family="sans-serif" font-size="10px" fill="#000" opacity="1">Tue 17</text><text text-anchor="middle" transform="translate(72.72727272727273,15)" font-family="sans-serif" font-size="10px" fill="#000" opacity="0">Thu 19</text><text text-anchor="middle" transform="translate(121.21212121212122,15)" font-family="sans-serif" font-size="10px" fill="#000" opacity="1">Sat 21</text><text text-anchor="middle" transform="translate(169.6969696969697,15)" font-family="sans-serif" font-size="10px" fill="#000" opacity="0">Mon 23</text><text text-anchor="middle" transform="translate(218.18181818181816,15)" font-family="sans-serif" font-size="10px" fill="#000" opacity="1">Wed 25</text><text text-anchor="middle" transform="translate(266.66666666666663,15)" font-family="sans-serif" font-size="10px" fill="#000" opacity="0">Fri 27</text><text text-anchor="middle" transform="translate(315.1515151515151,15)" font-family="sans-serif" font-size="10px" fill="#000" opacity="1">Mar 29</text><text text-anchor="middle" transform="translate(363.6363636363636,15)" font-family="sans-serif" font-size="10px" fill="#000" opacity="0">Tue 31</text><text text-anchor="middle" transform="translate(387.8787878787879,15)" font-family="sans-serif" font-size="10px" fill="#000" opacity="1">April</text><text text-anchor="middle" transform="translate(436.3636363636363,15)" font-family="sans-serif" font-size="10px" fill="#000" opacity="0">Fri 03</text><text text-anchor="middle" transform="translate(484.8484848484849,15)" font-family="sans-serif" font-size="10px" fill="#000" opacity="1">Apr 05</text><text text-anchor="middle" transform="translate(533.3333333333333,15)" font-family="sans-serif" font-size="10px" fill="#000" opacity="0">Tue 07</text><text text-anchor="middle" transform="translate(581.8181818181819,15)" font-family="sans-serif" font-size="10px" fill="#000" opacity="1">Thu 09</text><text text-anchor="middle" transform="translate(630.3030303030303,15)" font-family="sans-serif" font-size="10px" fill="#000" opacity="0">Sat 11</text><text text-anchor="middle" transform="translate(678.7878787878788,15)" font-family="sans-serif" font-size="10px" fill="#000" opacity="1">Mon 13</text><text text-anchor="middle" transform="translate(727.2727272727273,15)" font-family="sans-serif" font-size="10px" fill="#000" opacity="0">Wed 15</text><text text-anchor="middle" transform="translate(775.7575757575758,15)" font-family="sans-serif" font-size="10px" fill="#000" opacity="1">Fri 17</text></g><g class="mark-rule role-axis-domain" pointer-events="none"><line transform="translate(0,0)" x2="800" y2="0" stroke="#888" stroke-width="1" opacity="1"/></g><g class="mark-text role-axis-title" pointer-events="none"><text text-anchor="middle" transform="translate(400,30)" font-family="sans-serif" font-size="11px" font-weight="bold" fill="#000" opacity="1">Date</text></g></g><path class="foreground" aria-hidden="true" d="" pointer-events="none" display="none"/></g></g><g class="mark-group role-axis" role="graphics-symbol" aria-roledescription="axis" aria-label="Y-axis titled 'Unique Visitors/day' for a linear scale with values from 0 to 8"><g transform="translate(0.5,0.5)"><path class="background" aria-hidden="true" d="M0,0h0v0h0Z" pointer-events="none"/><g><g class="mark-rule role-axis-tick" pointer-events="none"><line transform="translate(0,300)" x2="-5" y2="0" stroke="#888" stroke-width="1" opacity="1"/><line transform="translate(0,263)" x2="-5" y2="0" stroke="#888" stroke-width="1" opacity="1"/><line transform="translate(0,225)" x2="-5" y2="0" stroke="#888" stroke-width="1" opacity="1"/><line transform="translate(0,188)" x2="-5" y2="0" stroke="#888" stroke-width="1" opacity="1"/><line transform="translate(0,150)" x2="-5" y2="0" stroke="#888" stroke-width="1" opacity="1"/><line transform="translate(0,113)" x2="-5" y2="0" stroke="#888" stroke-width="1" opacity="1"/><line transform="translate(0,75)" x2="-5" y2="0" stroke="#888" stroke-width="1" opacity="1"/><line transform="translate(0,38)" x2="-5" y2="0" stroke="#888" stroke-width="1" opacity="1"/><line transform="translate(0,0)" x2="-5" y2="0" stroke="#888" stroke-width="1" opacity="1"/></g><g class="mark-text role-axis-label" pointer-events="none"><text text-anchor="end" transform="translate(-7,303)" font-family="sans-serif" font-size="10px" fill="#000" opacity="1">0</text><text text-anchor="end" transform="translate(-7,265.5)" font-family="sans-serif" font-size="10px" fill="#000" opacity="1">1</text><text text-anchor="end" transform="translate(-7,228)" font-family="sans-serif" font-size="10px" fill="#000" opacity="1">2</text><text text-anchor="end" transform="translate(-7,190.5)" font-family="sans-serif" font-size="10px" fill="#000" opacity="1">3</text><text text-anchor="end" transform="translate(-7,153)" font-family="sans-serif" font-size="10px" fill="#000" opacity="1">4</text><text text-anchor="end" transform="translate(-7,115.5)" font-family="sans-serif" font-size="10px" fill="#000" opacity="1">5</text><text text-anchor="end" transform="translate(-7,78)" font-family="sans-serif" font-size="10px" fill="#000" opacity="1">6</text><text text-anchor="end" transform="translate(-7,40.5)" font-family="sans-serif" font-size="10px" fill="#000" opacity="1">7</text><text text-anchor="end" transform="translate(-7,3)" font-family="sans-serif" font-size="10px" fill="#000" opacity="1">8</text></g><g class="mark-rule role-axis-domain" pointer-events="none"><line transform="translate(0,300)" x2="0" y2="-300" stroke="#888" stroke-width="1" opacity="1"/></g><g class="mark-text role-axis-title" pointer-events="none"><text text-anchor="middle" transform="translate(-16.5615234375,150) rotate(-90) translate(0,-2)" font-family="sans-serif" font-size="11px" font-weight="bold" fill="#000" opacity="1">Unique Visitors/day</text></g></g><path class="foreground" aria-hidden="true" d="" pointer-events="none" display="none"/></g></g><g class="mark-group role-scope pathgroup" role="graphics-object" aria-roledescription="group mark container"><g transform="translate(0,0)"><path class="background" aria-hidden="true" d="M0,0h800v300h-800Z"/><g><g class="mark-area role-mark marks" role="graphics-object" aria-roledescription="area mark container"><path aria-label="Date: Mar 16, 2026; Unique Visitors/day: 0; Repository: justdavis-family/github-analytics-data" role="graphics-symbol" aria-roledescription="area mark" d="M0,300L24.242,300L48.485,300L72.727,300L96.97,300L121.212,300L145.455,300L169.697,187.5L193.939,187.5L218.182,150L242.424,187.5L266.667,187.5L290.909,187.5L315.152,262.5L339.394,0L363.636,262.5L387.879,150L412.121,262.5L436.364,300L460.606,225L484.848,262.5L509.091,300L533.333,187.5L557.576,262.5L581.818,262.5L606.061,225L630.303,300L654.545,75L678.788,300L703.03,262.5L727.273,187.5L751.515,262.5L775.758,225L800,300L800,300L775.758,225L751.515,300L727.273,187.5L703.03,262.5L678.788,300L654.545,75L630.303,300L606.061,225L581.818,262.5L557.576,262.5L533.333,187.5L509.091,300L484.848,262.5L460.606,225L436.364,300L412.121,262.5L387.879,150L363.636,262.5L339.394,0L315.152,262.5L290.909,187.5L266.667,187.5L242.424,187.5L218.182,150L193.939,187.5L169.697,187.5L145.455,300L121.212,300L96.97,300L72.727,300L48.485,300L24.242,300L0,300Z" fill="#4c78a8"/></g></g><path class="foreground" aria-hidden="true" d="" display="none"/></g><g transform="translate(0,0)"><path class="background" aria-hidden="true" d="M0,0h800v300h-800Z"/><g><g class="mark-area role-mark marks" role="graphics-object" aria-roledescription="area mark container"><path aria-label="Date: Mar 16, 2026; Unique Visitors/day: 0; Repository: justdavis-family/justdavis" role="graphics-symbol" aria-roledescription="area mark" d="M0,300L24.242,300L48.485,300L72.727,300L96.97,300L121.212,300L145.455,300L169.697,187.5L193.939,187.5L218.182,150L242.424,187.5L266.667,187.5L290.909,187.5L315.152,262.5L339.394,0L363.636,262.5L387.879,150L412.121,262.5L436.364,300L460.606,225L484.848,262.5L509.091,300L533.333,187.5L557.576,262.5L581.818,262.5L606.061,225L630.303,300L654.545,75L678.788,300L703.03,262.5L727.273,187.5L751.515,300L775.758,225L800,300L800,300L775.758,225L751.515,300L727.273,187.5L703.03,262.5L678.788,300L654.545,75L630.303,300L606.061,225L581.818,262.5L557.576,262.5L533.333,262.5L509.091,300L484.848,262.5L460.606,225L436.364,300L412.121,262.5L387.879,150L363.636,262.5L339.394,37.5L315.152,262.5L290.909,187.5L266.667,187.5L242.424,187.5L218.182,150L193.939,187.5L169.697,187.5L145.455,300L121.212,300L96.97,300L72.727,300L48.485,300L24.242,300L0,300Z" fill="#f58518"/></g></g><path class="foreground" aria-hidden="true" d="" display="none"/></g><g transform="translate(0,0)"><path class="background" aria-hidden="true" d="M0,0h800v300h-800Z"/><g><g class="mark-area role-mark marks" role="graphics-object" aria-roledescription="area mark container"><path aria-label="Date: Mar 16, 2026; Unique Visitors/day: 0; Repository: karlmdavis/FHIR-Server" role="graphics-symbol" aria-roledescription="area mark" d="M0,300L24.242,300L48.485,300L72.727,300L96.97,300L121.212,300L145.455,300L169.697,187.5L193.939,187.5L218.182,150L242.424,187.5L266.667,187.5L290.909,187.5L315.152,262.5L339.394,37.5L363.636,262.5L387.879,150L412.121,262.5L436.364,300L460.606,225L484.848,262.5L509.091,300L533.333,262.5L557.576,262.5L581.818,262.5L606.061,225L630.303,300L654.545,75L678.788,300L703.03,262.5L727.273,187.5L751.515,300L775.758,225L800,300L800,300L775.758,225L751.515,300L727.273,187.5L703.03,262.5L678.788,300L654.545,75L630.303,300L606.061,225L581.818,262.5L557.576,262.5L533.333,262.5L509.091,300L484.848,262.5L460.606,225L436.364,300L412.121,262.5L387.879,150L363.636,262.5L339.394,37.5L315.152,262.5L290.909,187.5L266.667,187.5L242.424,187.5L218.182,150L193.939,187.5L169.697,187.5L145.455,300L121.212,300L96.97,300L72.727,300L48.485,300L24.242,300L0,300Z" fill="#e45756"/></g></g><path class="foreground" aria-hidden="true" d="" display="none"/></g><g transform="translate(0,0)"><path class="background" aria-hidden="true" d="M0,0h800v300h-800Z"/><g><g class="mark-area role-mark marks" role="graphics-object" aria-roledescription="area mark container"><path aria-label="Date: Mar 16, 2026; Unique Visitors/day: 0; Repository: karlmdavis/ansible" role="graphics-symbol" aria-roledescription="area mark" d="M0,300L24.242,300L48.485,300L72.727,300L96.97,300L121.212,300L145.455,300L169.697,187.5L193.939,187.5L218.182,150L242.424,187.5L266.667,187.5L290.909,187.5L315.152,262.5L339.394,37.5L363.636,262.5L387.879,150L412.121,262.5L436.364,300L460.606,225L484.848,262.5L509.091,300L533.333,262.5L557.576,262.5L581.818,262.5L606.061,225L630.303,300L654.545,75L678.788,300L703.03,262.5L727.273,187.5L751.515,300L775.758,225L800,300L800,300L775.758,225L751.515,300L727.273,187.5L703.03,262.5L678.788,300L654.545,75L630.303,300L606.061,225L581.818,262.5L557.576,262.5L533.333,262.5L509.091,300L484.848,262.5L460.606,225L436.364,300L412.121,262.5L387.879,150L363.636,262.5L339.394,37.5L315.152,262.5L290.909,187.5L266.667,187.5L242.424,187.5L218.182,150L193.939,187.5L169.697,187.5L145.455,300L121.212,300L96.97,300L72.727,300L48.485,300L24.242,300L0,300Z" fill="#72b7b2"/></g></g><path class="foreground" aria-hidden="true" d="" display="none"/></g><g transform="translate(0,0)"><path class="background" aria-hidden="true" d="M0,0h800v300h-800Z"/><g><g class="mark-area role-mark marks" role="graphics-object" aria-roledescription="area mark container"><path aria-label="Date: Mar 16, 2026; Unique Visitors/day: 0; Repository: karlmdavis/ansible-jenkins" role="graphics-symbol" aria-roledescription="area mark" d="M0,300L24.242,300L48.485,300L72.727,300L96.97,300L121.212,300L145.455,300L169.697,187.5L193.939,187.5L218.182,150L242.424,187.5L266.667,187.5L290.909,187.5L315.152,262.5L339.394,37.5L363.636,262.5L387.879,150L412.121,262.5L436.364,300L460.606,225L484.848,262.5L509.091,300L533.333,262.5L557.576,262.5L581.818,262.5L606.061,225L630.303,300L654.545,75L678.788,300L703.03,262.5L727.273,187.5L751.515,300L775.758,225L800,300L800,300L775.758,225L751.515,300L727.273,187.5L703.03,262.5L678.788,300L654.545,75L630.303,300L606.061,225L581.818,262.5L557.576,262.5L533.333,262.5L509.091,300L484.848,262.5L460.606,225L436.364,300L412.121,262.5L387.879,150L363.636,262.5L339.394,37.5L315.152,262.5L290.909,187.5L266.667,187.5L242.424,187.5L218.182,150L193.939,187.5L169.697,187.5L145.455,300L121.212,300L96.97,300L72.727,300L48.485,300L24.242,300L0,300Z" fill="#54a24b"/></g></g><path class="foreground" aria-hidden="true" d="" display="none"/></g><g transform="translate(0,0)"><path class="background" aria-hidden="true" d="M0,0h800v300h-800Z"/><g><g class="mark-area role-mark marks" role="graphics-object" aria-roledescription="area mark container"><path aria-label="Date: Mar 16, 2026; Unique Visitors/day: 0; Repository: karlmdavis/ansible-role-acmetool" role="graphics-symbol" aria-roledescription="area mark" d="M0,300L24.242,300L48.485,300L72.727,300L96.97,300L121.212,300L145.455,300L169.697,187.5L193.939,187.5L218.182,150L242.424,187.5L266.667,187.5L290.909,187.5L315.152,262.5L339.394,37.5L363.636,262.5L387.879,150L412.121,262.5L436.364,300L460.606,225L484.848,262.5L509.091,300L533.333,262.5L557.576,262.5L581.818,262.5L606.061,225L630.303,300L654.545,75L678.788,300L703.03,262.5L727.273,187.5L751.515,300L775.758,225L800,300L800,300L775.758,225L751.515,300L727.273,187.5L703.03,262.5L678.788,300L654.545,75L630.303,300L606.061,225L581.818,262.5L557.576,262.5L533.333,262.5L509.091,300L484.848,262.5L460.606,225L436.364,300L412.121,262.5L387.879,150L363.636,262.5L339.394,37.5L315.152,262.5L290.909,187.5L266.667,187.5L242.424,187.5L218.182,150L193.939,187.5L169.697,187.5L145.455,300L121.212,300L96.97,300L72.727,300L48.485,300L24.242,300L0,300Z" fill="#eeca3b"/></g></g><path class="foreground" aria-hidden="true" d="" display="none"/></g><g transform="translate(0,0)"><path class="background" aria-hidden="true" d="M0,0h800v300h-800Z"/><g><g class="mark-area role-mark marks" role="graphics-object" aria-roledescription="area mark container"><path aria-label="Date: Mar 16, 2026; Unique Visitors/day: 0; Repository: karlmdavis/ansible-role-bind-dns" role="graphics-symbol" aria-roledescription="area mark" d="M0,300L24.242,300L48.485,300L72.727,300L96.97,300L121.212,300L145.455,300L169.697,187.5L193.939,187.5L218.182,150L242.424,187.5L266.667,187.5L290.909,187.5L315.152,262.5L339.394,37.5L363.636,262.5L387.879,150L412.121,262.5L436.364,300L460.606,225L484.848,262.5L509.091,300L533.333,262.5L557.576,262.5L581.818,262.5L606.061,225L630.303,300L654.545,75L678.788,300L703.03,262.5L727.273,187.5L751.515,300L775.758,225L800,300L800,300L775.758,225L751.515,300L727.273,225L703.03,262.5L678.788,300L654.545,75L630.303,300L606.061,225L581.818,262.5L557.576,262.5L533.333,262.5L509.091,300L484.848,262.5L460.606,262.5L436.364,300L412.121,262.5L387.879,150L363.636,262.5L339.394,37.5L315.152,262.5L290.909,225L266.667,187.5L242.424,187.5L218.182,187.5L193.939,187.5L169.697,187.5L145.455,300L121.212,300L96.97,300L72.727,300L48.485,300L24.242,300L0,300Z" fill="#b279a2"/></g></g><path class="foreground" aria-hidden="true" d="" display="none"/></g><g transform="translate(0,0)"><path class="background" aria-hidden="true" d="M0,0h800v300h-800Z"/><g><g class="mark-area role-mark marks" role="graphics-object" aria-roledescription="area mark container"><path aria-label="Date: Mar 16, 2026; Unique Visitors/day: 0; Repository: karlmdavis/ansible-role-jenkins2" role="graphics-symbol" aria-roledescription="area mark" d="M0,300L24.242,300L48.485,300L72.727,300L96.97,300L121.212,300L145.455,300L169.697,187.5L193.939,187.5L218.182,187.5L242.424,187.5L266.667,187.5L290.909,225L315.152,262.5L339.394,37.5L363.636,262.5L387.879,150L412.121,262.5L436.364,300L460.606,262.5L484.848,262.5L509.091,300L533.333,262.5L557.576,262.5L581.818,262.5L606.061,225L630.303,300L654.545,75L678.788,300L703.03,262.5L727.273,225L751.515,300L775.758,225L800,300L800,300L775.758,225L751.515,300L727.273,225L703.03,262.5L678.788,300L654.545,112.5L630.303,300L606.061,225L581.818,262.5L557.576,262.5L533.333,262.5L509.091,300L484.848,262.5L460.606,262.5L436.364,300L412.121,262.5L387.879,150L363.636,262.5L339.394,75L315.152,300L290.909,225L266.667,187.5L242.424,187.5L218.182,187.5L193.939,187.5L169.697,187.5L145.455,300L121.212,300L96.97,300L72.727,300L48.485,300L24.242,300L0,300Z" fill="#ff9da6"/></g></g><path class="foreground" aria-hidden="true" d="" display="none"/></g><g transform="translate(0,0)"><path class="background" aria-hidden="true" d="M0,0h800v300h-800Z"/><g><g class="mark-area role-mark marks" role="graphics-object" aria-roledescription="area mark container"><path aria-label="Date: Mar 16, 2026; Unique Visitors/day: 0; Repository: karlmdavis/ansible-role-ldap" role="graphics-symbol" aria-roledescription="area mark" d="M0,300L24.242,300L48.485,300L72.727,300L96.97,300L121.212,300L145.455,300L169.697,187.5L193.939,187.5L218.182,187.5L242.424,187.5L266.667,187.5L290.909,225L315.152,300L339.394,75L363.636,262.5L387.879,150L412.121,262.5L436.364,300L460.606,262.5L484.848,262.5L509.091,300L533.333,262.5L557.576,262.5L581.818,262.5L606.061,225L630.303,300L654.545,112.5L678.788,300L703.03,262.5L727.273,225L751.515,300L775.758,225L800,300L800,300L775.758,225L751.515,300L727.273,225L703.03,262.5L678.788,300L654.545,112.5L630.303,300L606.061,225L581.818,262.5L557.576,262.5L533.333,262.5L509.091,300L484.848,262.5L460.606,262.5L436.364,300L412.121,262.5L387.879,150L363.636,262.5L339.394,75L315.152,300L290.909,225L266.667,187.5L242.424,187.5L218.182,187.5L193.939,187.5L169.697,187.5L145.455,300L121.212,300L96.97,300L72.727,300L48.485,300L24.242,300L0,300Z" fill="#9d755d"/></g></g><path class="foreground" aria-hidden="true" d="" display="none"/></g><g transform="translate(0,0)"><path class="background" aria-hidden="true" d="M0,0h800v300h-800Z"/><g><g class="mark-area role-mark marks" role="graphics-object" aria-roledescription="area mark container"><path aria-label="Date: Mar 16, 2026; Unique Visitors/day: 0; Repository: karlmdavis/ansible-role-rcm-dotfiles" role="graphics-symbol" aria-roledescription="area mark" d="M0,300L24.242,300L48.485,300L72.727,300L96.97,300L121.212,300L145.455,300L169.697,187.5L193.939,187.5L218.182,187.5L242.424,187.5L266.667,187.5L290.909,225L315.152,300L339.394,75L363.636,262.5L387.879,150L412.121,262.5L436.364,300L460.606,262.5L484.848,262.5L509.091,300L533.333,262.5L557.576,262.5L581.818,262.5L606.061,225L630.303,300L654.545,112.5L678.788,300L703.03,262.5L727.273,225L751.515,300L775.758,225L800,300L800,300L775.758,225L751.515,300L727.273,225L703.03,262.5L678.788,300L654.545,112.5L630.303,300L606.061,225L581.818,262.5L557.576,262.5L533.333,262.5L509.091,300L484.848,262.5L460.606,262.5L436.364,300L412.121,262.5L387.879,150L363.636,262.5L339.394,75L315.152,300L290.909,225L266.667,187.5L242.424,187.5L218.182,187.5L193.939,187.5L169.697,187.5L145.455,300L121.212,300L96.97,300L72.727,300L48.485,300L24.242,300L0,300Z" fill="#bab0ac"/></g></g><path class="foreground" aria-hidden="true" d="" display="none"/></g><g transform="translate(0,0)"><path class="background" aria-hidden="true" d="M0,0h800v300h-800Z"/><g><g class="mark-area role-mark marks" role="graphics-object" aria-roledescription="area mark container"><path aria-label="Date: Mar 16, 2026; Unique Visitors/day: 0; Repository: karlmdavis/ansible-roles" role="graphics-symbol" aria-roledescription="area mark" d="M0,300L24.242,300L48.485,300L72.727,300L96.97,300L121.212,300L145.455,300L169.697,187.5L193.939,187.5L218.182,187.5L242.424,187.5L266.667,187.5L290.909,225L315.152,300L339.394,75L363.636,262.5L387.879,150L412.121,262.5L436.364,300L460.606,262.5L484.848,262.5L509.091,300L533.333,262.5L557.576,262.5L581.818,262.5L606.061,225L630.303,300L654.545,112.5L678.788,300L703.03,262.5L727.273,225L751.515,300L775.758,225L800,300L800,300L775.758,225L751.515,300L727.273,225L703.03,262.5L678.788,300L654.545,112.5L630.303,300L606.061,225L581.818,262.5L557.576,262.5L533.333,262.5L509.091,300L484.848,262.5L460.606,262.5L436.364,300L412.121,262.5L387.879,150L363.636,262.5L339.394,75L315.152,300L290.909,225L266.667,187.5L242.424,187.5L218.182,187.5L193.939,187.5L169.697,187.5L145.455,300L121.212,300L96.97,300L72.727,300L48.485,300L24.242,300L0,300Z" fill="#4c78a8"/></g></g><path class="foreground" aria-hidden="true" d="" display="none"/></g><g transform="translate(0,0)"><path class="background" aria-hidden="true" d="M0,0h800v300h-800Z"/><g><g class="mark-area role-mark marks" role="graphics-object" aria-roledescription="area mark container"><path aria-label="Date: Mar 16, 2026; Unique Visitors/day: 0; Repository: karlmdavis/bbonfhir-dev-infra-docker" role="graphics-symbol" aria-roledescription="area mark" d="M0,300L24.242,300L48.485,300L72.727,300L96.97,300L121.212,300L145.455,300L169.697,187.5L193.939,187.5L218.182,187.5L242.424,187.5L266.667,187.5L290.909,225L315.152,300L339.394,75L363.636,262.5L387.879,150L412.121,262.5L436.364,300L460.606,262.5L484.848,262.5L509.091,300L533.333,262.5L557.576,262.5L581.818,262.5L606.061,225L630.303,300L654.545,112.5L678.788,300L703.03,262.5L727.273,225L751.515,300L775.758,225L800,300L800,300L775.758,225L751.515,300L727.273,225L703.03,262.5L678.788,300L654.545,112.5L630.303,300L606.061,225L581.818,262.5L557.576,262.5L533.333,262.5L509.091,300L484.848,262.5L460.606,262.5L436.364,300L412.121,262.5L387.879,150L363.636,262.5L339.394,75L315.152,300L290.909,225L266.667,187.5L242.424,187.5L218.182,187.5L193.939,187.5L169.697,187.5L145.455,300L121.212,300L96.97,300L72.727,300L48.485,300L24.242,300L0,300Z" fill="#f58518"/></g></g><path class="foreground" aria-hidden="true" d="" display="none"/></g><g transform="translate(0,0)"><path class="background" aria-hidden="true" d="M0,0h800v300h-800Z"/><g><g class="mark-area role-mark marks" role="graphics-object" aria-roledescription="area mark container"><path aria-label="Date: Mar 16, 2026; Unique Visitors/day: 0; Repository: karlmdavis/can-i-kayak-baltimore" role="graphics-symbol" aria-roledescription="area mark" d="M0,300L24.242,300L48.485,300L72.727,300L96.97,300L121.212,300L145.455,300L169.697,187.5L193.939,187.5L218.182,187.5L242.424,187.5L266.667,187.5L290.909,225L315.152,300L339.394,75L363.636,262.5L387.879,150L412.121,262.5L436.364,300L460.606,262.5L484.848,262.5L509.091,300L533.333,262.5L557.576,262.5L581.818,262.5L606.061,225L630.303,300L654.545,112.5L678.788,300L703.03,262.5L727.273,225L751.515,300L775.758,225L800,300L800,300L775.758,225L751.515,300L727.273,225L703.03,262.5L678.788,300L654.545,112.5L630.303,300L606.061,225L581.818,262.5L557.576,262.5L533.333,262.5L509.091,300L484.848,262.5L460.606,262.5L436.364,300L412.121,262.5L387.879,150L363.636,262.5L339.394,75L315.152,300L290.909,225L266.667,187.5L242.424,187.5L218.182,187.5L193.939,187.5L169.697,187.5L145.455,300L121.212,300L96.97,300L72.727,300L48.485,300L24.242,300L0,300Z" fill="#e45756"/></g></g><path class="foreground" aria-hidden="true" d="" display="none"/></g><g transform="translate(0,0)"><path class="background" aria-hidden="true" d="M0,0h800v300h-800Z"/><g><g class="mark-area role-mark marks" role="graphics-object" aria-roledescription="area mark container"><path aria-label="Date: Mar 16, 2026; Unique Visitors/day: 0; Repository: karlmdavis/datanucleus-test-jdo-1-to-n" role="graphics-symbol" aria-roledescription="area mark" d="M0,300L24.242,300L48.485,300L72.727,300L96.97,300L121.212,300L145.455,300L169.697,187.5L193.939,187.5L218.182,187.5L242.424,187.5L266.667,187.5L290.909,225L315.152,300L339.394,75L363.636,262.5L387.879,150L412.121,262.5L436.364,300L460.606,262.5L484.848,262.5L509.091,300L533.333,262.5L557.576,262.5L581.818,262.5L606.061,225L630.303,300L654.545,112.5L678.788,300L703.03,262.5L727.273,225L751.515,300L775.758,225L800,300L800,300L775.758,225L751.515,300L727.273,225L703.03,262.5L678.788,300L654.545,112.5L630.303,300L606.061,225L581.818,262.5L557.576,262.5L533.333,262.5L509.091,300L484.848,262.5L460.606,262.5L436.364,300L412.121,262.5L387.879,150L363.636,262.5L339.394,75L315.152,300L290.909,225L266.667,187.5L242.424,187.5L218.182,187.5L193.939,187.5L169.697,187.5L145.455,300L121.212,300L96.97,300L72.727,300L48.485,300L24.242,300L0,300Z" fill="#72b7b2"/></g></g><path class="foreground" aria-hidden="true" d="" display="none"/></g><g transform="translate(0,0)"><path class="background" aria-hidden="true" d="M0,0h800v300h-800Z"/><g><g class="mark-area role-mark marks" role="graphics-object" aria-roledescription="area mark container"><path aria-label="Date: Mar 16, 2026; Unique Visitors/day: 0; Repository: karlmdavis/dotfiles" role="graphics-symbol" aria-roledescription="area mark" d="M0,300L24.242,300L48.485,300L72.727,300L96.97,300L121.212,300L145.455,300L169.697,187.5L193.939,187.5L218.182,187.5L242.424,187.5L266.667,187.5L290.909,225L315.152,300L339.394,75L363.636,262.5L387.879,150L412.121,262.5L436.364,300L460.606,262.5L484.848,262.5L509.091,300L533.333,262.5L557.576,262.5L581.818,262.5L606.061,225L630.303,300L654.545,112.5L678.788,300L703.03,262.5L727.273,225L751.515,300L775.758,225L800,300L800,300L775.758,225L751.515,300L727.273,225L703.03,262.5L678.788,300L654.545,112.5L630.303,300L606.061,225L581.818,262.5L557.576,262.5L533.333,262.5L509.091,300L484.848,262.5L460.606,262.5L436.364,300L412.121,262.5L387.879,150L363.636,262.5L339.394,75L315.152,300L290.909,225L266.667,187.5L242.424,187.5L218.182,187.5L193.939,187.5L169.697,187.5L145.455,300L121.212,300L96.97,300L72.727,300L48.485,300L24.242,300L0,300Z" fill="#54a24b"/></g></g><path class="foreground" aria-hidden="true" d="" display="none"/></g><g transform="translate(0,0)"><path class="background" aria-hidden="true" d="M0,0h800v300h-800Z"/><g><g class="mark-area role-mark marks" role="graphics-object" aria-roledescription="area mark container"><path aria-label="Date: Mar 16, 2026; Unique Visitors/day: 0; Repository: karlmdavis/fhir-benchmarks" role="graphics-symbol" aria-roledescription="area mark" d="M0,300L24.242,300L48.485,300L72.727,300L96.97,300L121.212,300L145.455,300L169.697,187.5L193.939,187.5L218.182,187.5L242.424,187.5L266.667,187.5L290.909,225L315.152,300L339.394,75L363.636,262.5L387.879,150L412.121,262.5L436.364,300L460.606,262.5L484.848,262.5L509.091,300L533.333,262.5L557.576,262.5L581.818,262.5L606.061,225L630.303,300L654.545,112.5L678.788,300L703.03,262.5L727.273,225L751.515,300L775.758,225L800,300L800,300L775.758,225L751.515,300L727.273,262.5L703.03,262.5L678.788,300L654.545,112.5L630.303,300L606.061,262.5L581.818,262.5L557.576,262.5L533.333,300L509.091,300L484.848,262.5L460.606,262.5L436.364,300L412.121,262.5L387.879,187.5L363.636,262.5L339.394,112.5L315.152,300L290.909,225L266.667,187.5L242.424,225L218.182,187.5L193.939,187.5L169.697,187.5L145.455,300L121.212,300L96.97,300L72.727,300L48.485,300L24.242,300L0,300Z" fill="#eeca3b"/></g></g><path class="foreground" aria-hidden="true" d="" display="none"/></g><g transform="translate(0,0)"><path class="background" aria-hidden="true" d="M0,0h800v300h-800Z"/><g><g class="mark-area role-mark marks" role="graphics-object" aria-roledescription="area mark container"><path aria-label="Date: Mar 16, 2026; Unique Visitors/day: 0; Repository: karlmdavis/hapi-fhir-jpaserver-starter" role="graphics-symbol" aria-roledescription="area mark" d="M0,300L24.242,300L48.485,300L72.727,300L96.97,300L121.212,300L145.455,300L169.697,187.5L193.939,187.5L218.182,187.5L242.424,225L266.667,187.5L290.909,225L315.152,300L339.394,112.5L363.636,262.5L387.879,187.5L412.121,262.5L436.364,300L460.606,262.5L484.848,262.5L509.091,300L533.333,300L557.576,262.5L581.818,262.5L606.061,262.5L630.303,300L654.545,112.5L678.788,300L703.03,262.5L727.273,262.5L751.515,300L775.758,225L800,300L800,300L775.758,225L751.515,300L727.273,262.5L703.03,262.5L678.788,300L654.545,112.5L630.303,300L606.061,262.5L581.818,262.5L557.576,262.5L533.333,300L509.091,300L484.848,262.5L460.606,262.5L436.364,300L412.121,262.5L387.879,187.5L363.636,262.5L339.394,112.5L315.152,300L290.909,225L266.667,187.5L242.424,225L218.182,187.5L193.939,187.5L169.697,187.5L145.455,300L121.212,300L96.97,300L72.727,300L48.485,300L24.242,300L0,300Z" fill="#b279a2"/></g></g><path class="foreground" aria-hidden="true" d="" display="none"/></g><g transform="translate(0,0)"><path class="background" aria-hidden="true" d="M0,0h800v300h-800Z"/><g><g class="mark-area role-mark marks" role="graphics-object" aria-roledescription="area mark container"><path aria-label="Date: Mar 16, 2026; Unique Visitors/day: 0; Repository: karlmdavis/hello-rust-actix" role="graphics-symbol" aria-roledescription="area mark" d="M0,300L24.242,300L48.485,300L72.727,300L96.97,300L121.212,300L145.455,300L169.697,187.5L193.939,187.5L218.182,187.5L242.424,225L266.667,187.5L290.909,225L315.152,300L339.394,112.5L363.636,262.5L387.879,187.5L412.121,262.5L436.364,300L460.606,262.5L484.848,262.5L509.091,300L533.333,300L557.576,262.5L581.818,262.5L606.061,262.5L630.303,300L654.545,112.5L678.788,300L703.03,262.5L727.273,262.5L751.515,300L775.758,225L800,300L800,300L775.758,225L751.515,300L727.273,262.5L703.03,262.5L678.788,300L654.545,112.5L630.303,300L606.061,262.5L581.818,262.5L557.576,262.5L533.333,300L509.091,300L484.848,262.5L460.606,262.5L436.364,300L412.121,262.5L387.879,187.5L363.636,262.5L339.394,112.5L315.152,300L290.909,225L266.667,187.5L242.424,225L218.182,187.5L193.939,187.5L169.697,187.5L145.455,300L121.212,300L96.97,300L72.727,300L48.485,300L24.242,300L0,300Z" fill="#ff9da6"/></g></g><path class="foreground" aria-hidden="true" d="" display="none"/></g><g transform="translate(0,0)"><path class="background" aria-hidden="true" d="M0,0h800v300h-800Z"/><g><g class="mark-area role-mark marks" role="graphics-object" aria-roledescription="area mark container"><path aria-label="Date: Mar 16, 2026; Unique Visitors/day: 0; Repository: karlmdavis/jessentials" role="graphics-symbol" aria-roledescription="area mark" d="M0,300L24.242,300L48.485,300L72.727,300L96.97,300L121.212,300L145.455,300L169.697,187.5L193.939,187.5L218.182,187.5L242.424,225L266.667,187.5L290.909,225L315.152,300L339.394,112.5L363.636,262.5L387.879,187.5L412.121,262.5L436.364,300L460.606,262.5L484.848,262.5L509.091,300L533.333,300L557.576,262.5L581.818,262.5L606.061,262.5L630.303,300L654.545,112.5L678.788,300L703.03,262.5L727.273,262.5L751.515,300L775.758,225L800,300L800,300L775.758,225L751.515,300L727.273,262.5L703.03,262.5L678.788,300L654.545,112.5L630.303,300L606.061,262.5L581.818,262.5L557.576,262.5L533.333,300L509.091,300L484.848,262.5L460.606,262.5L436.364,300L412.121,262.5L387.879,187.5L363.636,262.5L339.394,112.5L315.152,300L290.909,225L266.667,187.5L242.424,225L218.182,187.5L193.939,187.5L169.697,187.5L145.455,300L121.212,300L96.97,300L72.727,300L48.485,300L24.242,300L0,300Z" fill="#9d755d"/></g></g><path class="foreground" aria-hidden="true" d="" display="none"/></g><g transform="translate(0,0)"><path class="background" aria-hidden="true" d="M0,0h800v300h-800Z"/><g><g class="mark-area role-mark marks" role="graphics-object" aria-roledescription="area mark container"><path aria-label="Date: Mar 16, 2026; Unique Visitors/day: 0; Repository: karlmdavis/justdavis-ansible" role="graphics-symbol" aria-roledescription="area mark" d="M0,300L24.242,300L48.485,300L72.727,300L96.97,300L121.212,300L145.455,300L169.697,187.5L193.939,187.5L218.182,187.5L242.424,225L266.667,187.5L290.909,225L315.152,300L339.394,112.5L363.636,262.5L387.879,187.5L412.121,262.5L436.364,300L460.606,262.5L484.848,262.5L509.091,300L533.333,300L557.576,262.5L581.818,262.5L606.061,262.5L630.303,300L654.545,112.5L678.788,300L703.03,262.5L727.273,262.5L751.515,300L775.758,225L800,300L800,300L775.758,225L751.515,300L727.273,262.5L703.03,262.5L678.788,300L654.545,150L630.303,300L606.061,262.5L581.818,262.5L557.576,262.5L533.333,300L509.091,300L484.848,262.5L460.606,262.5L436.364,300L412.121,262.5L387.879,225L363.636,262.5L339.394,150L315.152,300L290.909,225L266.667,187.5L242.424,225L218.182,187.5L193.939,187.5L169.697,187.5L145.455,300L121.212,300L96.97,300L72.727,300L48.485,300L24.242,300L0,300Z" fill="#bab0ac"/></g></g><path class="foreground" aria-hidden="true" d="" display="none"/></g><g transform="translate(0,0)"><path class="background" aria-hidden="true" d="M0,0h800v300h-800Z"/><g><g class="mark-area role-mark marks" role="graphics-object" aria-roledescription="area mark container"><path aria-label="Date: Mar 16, 2026; Unique Visitors/day: 0; Repository: karlmdavis/justdavis-finances" role="graphics-symbol" aria-roledescription="area mark" d="M0,300L24.242,300L48.485,300L72.727,300L96.97,300L121.212,300L145.455,300L169.697,187.5L193.939,187.5L218.182,187.5L242.424,225L266.667,187.5L290.909,225L315.152,300L339.394,150L363.636,262.5L387.879,225L412.121,262.5L436.364,300L460.606,262.5L484.848,262.5L509.091,300L533.333,300L557.576,262.5L581.818,262.5L606.061,262.5L630.303,300L654.545,150L678.788,300L703.03,262.5L727.273,262.5L751.515,300L775.758,225L800,300L800,300L775.758,225L751.515,300L727.273,262.5L703.03,262.5L678.788,300L654.545,187.5L630.303,300L606.061,262.5L581.818,262.5L557.576,262.5L533.333,300L509.091,300L484.848,262.5L460.606,262.5L436.364,300L412.121,262.5L387.879,225L363.636,262.5L339.394,150L315.152,300L290.909,225L266.667,225L242.424,225L218.182,187.5L193.939,187.5L169.697,187.5L145.455,300L121.212,300L96.97,300L72.727,300L48.485,300L24.242,300L0,300Z" fill="#4c78a8"/></g></g><path class="foreground" aria-hidden="true" d="" display="none"/></g><g transform="translate(0,0)"><path class="background" aria-hidden="true" d="M0,0h800v300h-800Z"/><g><g class="mark-area role-mark marks" role="graphics-object" aria-roledescription="area mark container"><path aria-label="Date: Mar 16, 2026; Unique Visitors/day: 0; Repository: karlmdavis/justdavis-karl" role="graphics-symbol" aria-roledescription="area mark" d="M0,300L24.242,300L48.485,300L72.727,300L96.97,300L121.212,300L145.455,300L169.697,187.5L193.939,187.5L218.182,187.5L242.424,225L266.667,225L290.909,225L315.152,300L339.394,150L363.636,262.5L387.879,225L412.121,262.5L436.364,300L460.606,262.5L484.848,262.5L509.091,300L533.333,300L557.576,262.5L581.818,262.5L606.061,262.5L630.303,300L654.545,187.5L678.788,300L703.03,262.5L727.273,262.5L751.515,300L775.758,225L800,300L800,300L775.758,225L751.515,300L727.273,262.5L703.03,262.5L678.788,300L654.545,187.5L630.303,300L606.061,262.5L581.818,262.5L557.576,262.5L533.333,300L509.091,300L484.848,262.5L460.606,262.5L436.364,300L412.121,262.5L387.879,225L363.636,262.5L339.394,150L315.152,300L290.909,225L266.667,225L242.424,225L218.182,187.5L193.939,187.5L169.697,187.5L145.455,300L121.212,300L96.97,300L72.727,300L48.485,300L24.242,300L0,300Z" fill="#f58518"/></g></g><path class="foreground" aria-hidden="true" d="" display="none"/></g><g transform="translate(0,0)"><path class="background" aria-hidden="true" d="M0,0h800v300h-800Z"/><g><g class="mark-area role-mark marks" role="graphics-object" aria-roledescription="area mark container"><path aria-label="Date: Mar 16, 2026; Unique Visitors/day: 0; Repository: karlmdavis/justdavis-puppet" role="graphics-symbol" aria-roledescription="area mark" d="M0,300L24.242,300L48.485,300L72.727,300L96.97,300L121.212,300L145.455,300L169.697,187.5L193.939,187.5L218.182,187.5L242.424,225L266.667,225L290.909,225L315.152,300L339.394,150L363.636,262.5L387.879,225L412.121,262.5L436.364,300L460.606,262.5L484.848,262.5L509.091,300L533.333,300L557.576,262.5L581.818,262.5L606.061,262.5L630.303,300L654.545,187.5L678.788,300L703.03,262.5L727.273,262.5L751.515,300L775.758,225L800,300L800,300L775.758,225L751.515,300L727.273,262.5L703.03,262.5L678.788,300L654.545,187.5L630.303,300L606.061,262.5L581.818,262.5L557.576,262.5L533.333,300L509.091,300L484.848,262.5L460.606,262.5L436.364,300L412.121,262.5L387.879,225L363.636,262.5L339.394,150L315.152,300L290.909,225L266.667,225L242.424,225L218.182,187.5L193.939,187.5L169.697,187.5L145.455,300L121.212,300L96.97,300L72.727,300L48.485,300L24.242,300L0,300Z" fill="#e45756"/></g></g><path class="foreground" aria-hidden="true" d="" display="none"/></g><g transform="translate(0,0)"><path class="background" aria-hidden="true" d="M0,0h800v300h-800Z"/><g><g class="mark-area role-mark marks" role="graphics-object" aria-roledescription="area mark container"><path aria-label="Date: Mar 16, 2026; Unique Visitors/day: 0; Repository: karlmdavis/kobjects" role="graphics-symbol" aria-roledescription="area mark" d="M0,300L24.242,300L48.485,300L72.727,300L96.97,300L121.212,300L145.455,300L169.697,187.5L193.939,187.5L218.182,187.5L242.424,225L266.667,225L290.909,225L315.152,300L339.394,150L363.636,262.5L387.879,225L412.121,262.5L436.364,300L460.606,262.5L484.848,262.5L509.091,300L533.333,300L557.576,262.5L581.818,262.5L606.061,262.5L630.303,300L654.545,187.5L678.788,300L703.03,262.5L727.273,262.5L751.515,300L775.758,225L800,300L800,300L775.758,225L751.515,300L727.273,262.5L703.03,262.5L678.788,300L654.545,187.5L630.303,300L606.061,262.5L581.818,262.5L557.576,262.5L533.333,300L509.091,300L484.848,262.5L460.606,262.5L436.364,300L412.121,262.5L387.879,225L363.636,262.5L339.394,150L315.152,300L290.909,225L266.667,225L242.424,225L218.182,187.5L193.939,187.5L169.697,187.5L145.455,300L121.212,300L96.97,300L72.727,300L48.485,300L24.242,300L0,300Z" fill="#72b7b2"/></g></g><path class="foreground" aria-hidden="true" d="" display="none"/></g><g transform="translate(0,0)"><path class="background" aria-hidden="true" d="M0,0h800v300h-800Z"/><g><g class="mark-area role-mark marks" role="graphics-object" aria-roledescription="area mark container"><path aria-label="Date: Mar 16, 2026; Unique Visitors/day: 0; Repository: karlmdavis/ksoap2-android" role="graphics-symbol" aria-roledescription="area mark" d="M0,300L24.242,300L48.485,300L72.727,300L96.97,300L121.212,300L145.455,300L169.697,187.5L193.939,187.5L218.182,187.5L242.424,225L266.667,225L290.909,225L315.152,300L339.394,150L363.636,262.5L387.879,225L412.121,262.5L436.364,300L460.606,262.5L484.848,262.5L509.091,300L533.333,300L557.576,262.5L581.818,262.5L606.061,262.5L630.303,300L654.545,187.5L678.788,300L703.03,262.5L727.273,262.5L751.515,300L775.758,225L800,300L800,300L775.758,300L751.515,300L727.273,300L703.03,300L678.788,300L654.545,225L630.303,300L606.061,300L581.818,262.5L557.576,300L533.333,300L509.091,300L484.848,300L460.606,300L436.364,300L412.121,300L387.879,262.5L363.636,262.5L339.394,225L315.152,300L290.909,225L266.667,262.5L242.424,225L218.182,225L193.939,262.5L169.697,262.5L145.455,300L121.212,300L96.97,300L72.727,300L48.485,300L24.242,300L0,300Z" fill="#54a24b"/></g></g><path class="foreground" aria-hidden="true" d="" display="none"/></g><g transform="translate(0,0)"><path class="background" aria-hidden="true" d="M0,0h800v300h-800Z"/><g><g class="mark-area role-mark marks" role="graphics-object" aria-roledescription="area mark container"><path aria-label="Date: Mar 16, 2026; Unique Visitors/day: 0; Repository: karlmdavis/kxml2" role="graphics-symbol" aria-roledescription="area mark" d="M0,300L24.242,300L48.485,300L72.727,300L96.97,300L121.212,300L145.455,300L169.697,262.5L193.939,262.5L218.182,225L242.424,225L266.667,262.5L290.909,225L315.152,300L339.394,225L363.636,262.5L387.879,262.5L412.121,300L436.364,300L460.606,300L484.848,300L509.091,300L533.333,300L557.576,300L581.818,262.5L606.061,300L630.303,300L654.545,225L678.788,300L703.03,300L727.273,300L751.515,300L775.758,300L800,300L800,300L775.758,300L751.515,300L727.273,300L703.03,300L678.788,300L654.545,225L630.303,300L606.061,300L581.818,262.5L557.576,300L533.333,300L509.091,300L484.848,300L460.606,300L436.364,300L412.121,300L387.879,262.5L363.636,262.5L339.394,225L315.152,300L290.909,262.5L266.667,262.5L242.424,225L218.182,262.5L193.939,262.5L169.697,262.5L145.455,300L121.212,300L96.97,300L72.727,300L48.485,300L24.242,300L0,300Z" fill="#eeca3b"/></g></g><path class="foreground" aria-hidden="true" d="" display="none"/></g><g transform="translate(0,0)"><path class="background" aria-hidden="true" d="M0,0h800v300h-800Z"/><g><g class="mark-area role-mark marks" role="graphics-object" aria-roledescription="area mark container"><path aria-label="Date: Mar 16, 2026; Unique Visitors/day: 0; Repository: karlmdavis/ldap-plugin" role="graphics-symbol" aria-roledescription="area mark" d="M0,300L24.242,300L48.485,300L72.727,300L96.97,300L121.212,300L145.455,300L169.697,262.5L193.939,262.5L218.182,262.5L242.424,225L266.667,262.5L290.909,262.5L315.152,300L339.394,225L363.636,262.5L387.879,262.5L412.121,300L436.364,300L460.606,300L484.848,300L509.091,300L533.333,300L557.576,300L581.818,262.5L606.061,300L630.303,300L654.545,225L678.788,300L703.03,300L727.273,300L751.515,300L775.758,300L800,300L800,300L775.758,300L751.515,300L727.273,300L703.03,300L678.788,300L654.545,225L630.303,300L606.061,300L581.818,262.5L557.576,300L533.333,300L509.091,300L484.848,300L460.606,300L436.364,300L412.121,300L387.879,262.5L363.636,262.5L339.394,225L315.152,300L290.909,262.5L266.667,262.5L242.424,225L218.182,262.5L193.939,262.5L169.697,262.5L145.455,300L121.212,300L96.97,300L72.727,300L48.485,300L24.242,300L0,300Z" fill="#b279a2"/></g></g><path class="foreground" aria-hidden="true" d="" display="none"/></g><g transform="translate(0,0)"><path class="background" aria-hidden="true" d="M0,0h800v300h-800Z"/><g><g class="mark-area role-mark marks" role="graphics-object" aria-roledescription="area mark container"><path aria-label="Date: Mar 16, 2026; Unique Visitors/day: 0; Repository: karlmdavis/lego-ev3dev-rs" role="graphics-symbol" aria-roledescription="area mark" d="M0,300L24.242,300L48.485,300L72.727,300L96.97,300L121.212,300L145.455,300L169.697,262.5L193.939,262.5L218.182,262.5L242.424,225L266.667,262.5L290.909,262.5L315.152,300L339.394,225L363.636,262.5L387.879,262.5L412.121,300L436.364,300L460.606,300L484.848,300L509.091,300L533.333,300L557.576,300L581.818,262.5L606.061,300L630.303,300L654.545,225L678.788,300L703.03,300L727.273,300L751.515,300L775.758,300L800,300L800,300L775.758,300L751.515,300L727.273,300L703.03,300L678.788,300L654.545,225L630.303,300L606.061,300L581.818,262.5L557.576,300L533.333,300L509.091,300L484.848,300L460.606,300L436.364,300L412.121,300L387.879,262.5L363.636,262.5L339.394,225L315.152,300L290.909,262.5L266.667,262.5L242.424,225L218.182,262.5L193.939,262.5L169.697,262.5L145.455,300L121.212,300L96.97,300L72.727,300L48.485,300L24.242,300L0,300Z" fill="#ff9da6"/></g></g><path class="foreground" aria-hidden="true" d="" display="none"/></g><g transform="translate(0,0)"><path class="background" aria-hidden="true" d="M0,0h800v300h-800Z"/><g><g class="mark-area role-mark marks" role="graphics-object" aria-roledescription="area mark container"><path aria-label="Date: Mar 16, 2026; Unique Visitors/day: 0; Repository: karlmdavis/liquibase" role="graphics-symbol" aria-roledescription="area mark" d="M0,300L24.242,300L48.485,300L72.727,300L96.97,300L121.212,300L145.455,300L169.697,262.5L193.939,262.5L218.182,262.5L242.424,225L266.667,262.5L290.909,262.5L315.152,300L339.394,225L363.636,262.5L387.879,262.5L412.121,300L436.364,300L460.606,300L484.848,300L509.091,300L533.333,300L557.576,300L581.818,262.5L606.061,300L630.303,300L654.545,225L678.788,300L703.03,300L727.273,300L751.515,300L775.758,300L800,300L800,300L775.758,300L751.515,300L727.273,300L703.03,300L678.788,300L654.545,225L630.303,300L606.061,300L581.818,262.5L557.576,300L533.333,300L509.091,300L484.848,300L460.606,300L436.364,300L412.121,300L387.879,262.5L363.636,262.5L339.394,225L315.152,300L290.909,262.5L266.667,262.5L242.424,225L218.182,262.5L193.939,262.5L169.697,262.5L145.455,300L121.212,300L96.97,300L72.727,300L48.485,300L24.242,300L0,300Z" fill="#9d755d"/></g></g><path class="foreground" aria-hidden="true" d="" display="none"/></g><g transform="translate(0,0)"><path class="background" aria-hidden="true" d="M0,0h800v300h-800Z"/><g><g class="mark-area role-mark marks" role="graphics-object" aria-roledescription="area mark container"><path aria-label="Date: Mar 16, 2026; Unique Visitors/day: 0; Repository: karlmdavis/m2e-core" role="graphics-symbol" aria-roledescription="area mark" d="M0,300L24.242,300L48.485,300L72.727,300L96.97,300L121.212,300L145.455,300L169.697,262.5L193.939,262.5L218.182,262.5L242.424,225L266.667,262.5L290.909,262.5L315.152,300L339.394,225L363.636,262.5L387.879,262.5L412.121,300L436.364,300L460.606,300L484.848,300L509.091,300L533.333,300L557.576,300L581.818,262.5L606.061,300L630.303,300L654.545,225L678.788,300L703.03,300L727.273,300L751.515,300L775.758,300L800,300L800,300L775.758,300L751.515,300L727.273,300L703.03,300L678.788,300L654.545,225L630.303,300L606.061,300L581.818,262.5L557.576,300L533.333,300L509.091,300L484.848,300L460.606,300L436.364,300L412.121,300L387.879,262.5L363.636,262.5L339.394,225L315.152,300L290.909,262.5L266.667,262.5L242.424,225L218.182,262.5L193.939,262.5L169.697,262.5L145.455,300L121.212,300L96.97,300L72.727,300L48.485,300L24.242,300L0,300Z" fill="#bab0ac"/></g></g><path class="foreground" aria-hidden="true" d="" display="none"/></g><g transform="translate(0,0)"><path class="background" aria-hidden="true" d="M0,0h800v300h-800Z"/><g><g class="mark-area role-mark marks" role="graphics-object" aria-roledescription="area mark container"><path aria-label="Date: Mar 16, 2026; Unique Visitors/day: 0; Repository: karlmdavis/m2e-core-tests" role="graphics-symbol" aria-roledescription="area mark" d="M0,300L24.242,300L48.485,300L72.727,300L96.97,300L121.212,300L145.455,300L169.697,262.5L193.939,262.5L218.182,262.5L242.424,225L266.667,262.5L290.909,262.5L315.152,300L339.394,225L363.636,262.5L387.879,262.5L412.121,300L436.364,300L460.606,300L484.848,300L509.091,300L533.333,300L557.576,300L581.818,262.5L606.061,300L630.303,300L654.545,225L678.788,300L703.03,300L727.273,300L751.515,300L775.758,300L800,300L800,300L775.758,300L751.515,300L727.273,300L703.03,300L678.788,300L654.545,225L630.303,300L606.061,300L581.818,262.5L557.576,300L533.333,300L509.091,300L484.848,300L460.606,300L436.364,300L412.121,300L387.879,262.5L363.636,262.5L339.394,225L315.152,300L290.909,262.5L266.667,262.5L242.424,225L218.182,262.5L193.939,262.5L169.697,262.5L145.455,300L121.212,300L96.97,300L72.727,300L48.485,300L24.242,300L0,300Z" fill="#4c78a8"/></g></g><path class="foreground" aria-hidden="true" d="" display="none"/></g><g transform="translate(0,0)"><path class="background" aria-hidden="true" d="M0,0h800v300h-800Z"/><g><g class="mark-area role-mark marks" role="graphics-object" aria-roledescription="area mark container"><path aria-label="Date: Mar 16, 2026; Unique Visitors/day: 0; Repository: karlmdavis/obsidian-operator" role="graphics-symbol" aria-roledescription="area mark" d="M0,300L24.242,300L48.485,300L72.727,300L96.97,300L121.212,300L145.455,300L169.697,262.5L193.939,262.5L218.182,262.5L242.424,225L266.667,262.5L290.909,262.5L315.152,300L339.394,225L363.636,262.5L387.879,262.5L412.121,300L436.364,300L460.606,300L484.848,300L509.091,300L533.333,300L557.576,300L581.818,262.5L606.061,300L630.303,300L654.545,225L678.788,300L703.03,300L727.273,300L751.515,300L775.758,300L800,300L800,300L775.758,300L751.515,300L727.273,300L703.03,300L678.788,300L654.545,262.5L630.303,300L606.061,300L581.818,262.5L557.576,300L533.333,300L509.091,300L484.848,300L460.606,300L436.364,300L412.121,300L387.879,262.5L363.636,262.5L339.394,225L315.152,300L290.909,262.5L266.667,262.5L242.424,225L218.182,262.5L193.939,262.5L169.697,262.5L145.455,300L121.212,300L96.97,300L72.727,300L48.485,300L24.242,300L0,300Z" fill="#f58518"/></g></g><path class="foreground" aria-hidden="true" d="" display="none"/></g><g transform="translate(0,0)"><path class="background" aria-hidden="true" d="M0,0h800v300h-800Z"/><g><g class="mark-area role-mark marks" role="graphics-object" aria-roledescription="area mark container"><path aria-label="Date: Mar 16, 2026; Unique Visitors/day: 0; Repository: karlmdavis/perfect-note" role="graphics-symbol" aria-roledescription="area mark" d="M0,300L24.242,300L48.485,300L72.727,300L96.97,300L121.212,300L145.455,300L169.697,262.5L193.939,262.5L218.182,262.5L242.424,225L266.667,262.5L290.909,262.5L315.152,300L339.394,225L363.636,262.5L387.879,262.5L412.121,300L436.364,300L460.606,300L484.848,300L509.091,300L533.333,300L557.576,300L581.818,262.5L606.061,300L630.303,300L654.545,262.5L678.788,300L703.03,300L727.273,300L751.515,300L775.758,300L800,300L800,300L775.758,300L751.515,300L727.273,300L703.03,300L678.788,300L654.545,262.5L630.303,300L606.061,300L581.818,262.5L557.576,300L533.333,300L509.091,300L484.848,300L460.606,300L436.364,300L412.121,300L387.879,262.5L363.636,262.5L339.394,225L315.152,300L290.909,262.5L266.667,262.5L242.424,225L218.182,262.5L193.939,262.5L169.697,262.5L145.455,300L121.212,300L96.97,300L72.727,300L48.485,300L24.242,300L0,300Z" fill="#e45756"/></g></g><path class="foreground" aria-hidden="true" d="" display="none"/></g><g transform="translate(0,0)"><path class="background" aria-hidden="true" d="M0,0h800v300h-800Z"/><g><g class="mark-area role-mark marks" role="graphics-object" aria-roledescription="area mark container"><path aria-label="Date: Mar 16, 2026; Unique Visitors/day: 0; Repository: karlmdavis/puppet-archive" role="graphics-symbol" aria-roledescription="area mark" d="M0,300L24.242,300L48.485,300L72.727,300L96.97,300L121.212,300L145.455,300L169.697,262.5L193.939,262.5L218.182,262.5L242.424,225L266.667,262.5L290.909,262.5L315.152,300L339.394,225L363.636,262.5L387.879,262.5L412.121,300L436.364,300L460.606,300L484.848,300L509.091,300L533.333,300L557.576,300L581.818,262.5L606.061,300L630.303,300L654.545,262.5L678.788,300L703.03,300L727.273,300L751.515,300L775.758,300L800,300L800,300L775.758,300L751.515,300L727.273,300L703.03,300L678.788,300L654.545,262.5L630.303,300L606.061,300L581.818,262.5L557.576,300L533.333,300L509.091,300L484.848,300L460.606,300L436.364,300L412.121,300L387.879,262.5L363.636,262.5L339.394,225L315.152,300L290.909,262.5L266.667,262.5L242.424,225L218.182,262.5L193.939,262.5L169.697,262.5L145.455,300L121.212,300L96.97,300L72.727,300L48.485,300L24.242,300L0,300Z" fill="#72b7b2"/></g></g><path class="foreground" aria-hidden="true" d="" display="none"/></g><g transform="translate(0,0)"><path class="background" aria-hidden="true" d="M0,0h800v300h-800Z"/><g><g class="mark-area role-mark marks" role="graphics-object" aria-roledescription="area mark container"><path aria-label="Date: Mar 16, 2026; Unique Visitors/day: 0; Repository: karlmdavis/puppet-sonar" role="graphics-symbol" aria-roledescription="area mark" d="M0,300L24.242,300L48.485,300L72.727,300L96.97,300L121.212,300L145.455,300L169.697,262.5L193.939,262.5L218.182,262.5L242.424,225L266.667,262.5L290.909,262.5L315.152,300L339.394,225L363.636,262.5L387.879,262.5L412.121,300L436.364,300L460.606,300L484.848,300L509.091,300L533.333,300L557.576,300L581.818,262.5L606.061,300L630.303,300L654.545,262.5L678.788,300L703.03,300L727.273,300L751.515,300L775.758,300L800,300L800,300L775.758,300L751.515,300L727.273,300L703.03,300L678.788,300L654.545,262.5L630.303,300L606.061,300L581.818,262.5L557.576,300L533.333,300L509.091,300L484.848,300L460.606,300L436.364,300L412.121,300L387.879,262.5L363.636,262.5L339.394,225L315.152,300L290.909,262.5L266.667,262.5L242.424,225L218.182,262.5L193.939,262.5L169.697,262.5L145.455,300L121.212,300L96.97,300L72.727,300L48.485,300L24.242,300L0,300Z" fill="#54a24b"/></g></g><path class="foreground" aria-hidden="true" d="" display="none"/></g><g transform="translate(0,0)"><path class="background" aria-hidden="true" d="M0,0h800v300h-800Z"/><g><g class="mark-area role-mark marks" role="graphics-object" aria-roledescription="area mark container"><path aria-label="Date: Mar 16, 2026; Unique Visitors/day: 0; Repository: karlmdavis/rps-tourney" role="graphics-symbol" aria-roledescription="area mark" d="M0,300L24.242,300L48.485,300L72.727,300L96.97,300L121.212,300L145.455,300L169.697,262.5L193.939,262.5L218.182,262.5L242.424,225L266.667,262.5L290.909,262.5L315.152,300L339.394,225L363.636,262.5L387.879,262.5L412.121,300L436.364,300L460.606,300L484.848,300L509.091,300L533.333,300L557.576,300L581.818,262.5L606.061,300L630.303,300L654.545,262.5L678.788,300L703.03,300L727.273,300L751.515,300L775.758,300L800,300L800,300L775.758,300L751.515,300L727.273,300L703.03,300L678.788,300L654.545,300L630.303,300L606.061,300L581.818,262.5L557.576,300L533.333,300L509.091,300L484.848,300L460.606,300L436.364,300L412.121,300L387.879,300L363.636,262.5L339.394,225L315.152,300L290.909,262.5L266.667,300L242.424,225L218.182,262.5L193.939,300L169.697,300L145.455,300L121.212,300L96.97,300L72.727,300L48.485,300L24.242,300L0,300Z" fill="#eeca3b"/></g></g><path class="foreground" aria-hidden="true" d="" display="none"/></g><g transform="translate(0,0)"><path class="background" aria-hidden="true" d="M0,0h800v300h-800Z"/><g><g class="mark-area role-mark marks" role="graphics-object" aria-roledescription="area mark container"><path aria-label="Date: Mar 16, 2026; Unique Visitors/day: 0; Repository: karlmdavis/sample-maven-and-rcp" role="graphics-symbol" aria-roledescription="area mark" d="M0,300L24.242,300L48.485,300L72.727,300L96.97,300L121.212,300L145.455,300L169.697,300L193.939,300L218.182,262.5L242.424,225L266.667,300L290.909,262.5L315.152,300L339.394,225L363.636,262.5L387.879,300L412.121,300L436.364,300L460.606,300L484.848,300L509.091,300L533.333,300L557.576,300L581.818,262.5L606.061,300L630.303,300L654.545,300L678.788,300L703.03,300L727.273,300L751.515,300L775.758,300L800,300L800,300L775.758,300L751.515,300L727.273,300L703.03,300L678.788,300L654.545,300L630.303,300L606.061,300L581.818,262.5L557.576,300L533.333,300L509.091,300L484.848,300L460.606,300L436.364,300L412.121,300L387.879,300L363.636,262.5L339.394,225L315.152,300L290.909,262.5L266.667,300L242.424,225L218.182,262.5L193.939,300L169.697,300L145.455,300L121.212,300L96.97,300L72.727,300L48.485,300L24.242,300L0,300Z" fill="#b279a2"/></g></g><path class="foreground" aria-hidden="true" d="" display="none"/></g><g transform="translate(0,0)"><path class="background" aria-hidden="true" d="M0,0h800v300h-800Z"/><g><g class="mark-area role-mark marks" role="graphics-object" aria-roledescription="area mark container"><path aria-label="Date: Mar 16, 2026; Unique Visitors/day: 0; Repository: karlmdavis/stockfighter-trades-solutions" role="graphics-symbol" aria-roledescription="area mark" d="M0,300L24.242,300L48.485,300L72.727,300L96.97,300L121.212,300L145.455,300L169.697,300L193.939,300L218.182,262.5L242.424,225L266.667,300L290.909,262.5L315.152,300L339.394,225L363.636,262.5L387.879,300L412.121,300L436.364,300L460.606,300L484.848,300L509.091,300L533.333,300L557.576,300L581.818,262.5L606.061,300L630.303,300L654.545,300L678.788,300L703.03,300L727.273,300L751.515,300L775.758,300L800,300L800,300L775.758,300L751.515,300L727.273,300L703.03,300L678.788,300L654.545,300L630.303,300L606.061,300L581.818,262.5L557.576,300L533.333,300L509.091,300L484.848,300L460.606,300L436.364,300L412.121,300L387.879,300L363.636,262.5L339.394,225L315.152,300L290.909,262.5L266.667,300L242.424,225L218.182,262.5L193.939,300L169.697,300L145.455,300L121.212,300L96.97,300L72.727,300L48.485,300L24.242,300L0,300Z" fill="#ff9da6"/></g></g><path class="foreground" aria-hidden="true" d="" display="none"/></g><g transform="translate(0,0)"><path class="background" aria-hidden="true" d="M0,0h800v300h-800Z"/><g><g class="mark-area role-mark marks" role="graphics-object" aria-roledescription="area mark container"><path aria-label="Date: Mar 16, 2026; Unique Visitors/day: 0; Repository: karlmdavis/test-repo-for-move" role="graphics-symbol" aria-roledescription="area mark" d="M0,300L24.242,300L48.485,300L72.727,300L96.97,300L121.212,300L145.455,300L169.697,300L193.939,300L218.182,262.5L242.424,225L266.667,300L290.909,262.5L315.152,300L339.394,225L363.636,262.5L387.879,300L412.121,300L436.364,300L460.606,300L484.848,300L509.091,300L533.333,300L557.576,300L581.818,262.5L606.061,300L630.303,300L654.545,300L678.788,300L703.03,300L727.273,300L751.515,300L775.758,300L800,300L800,300L775.758,300L751.515,300L727.273,300L703.03,300L678.788,300L654.545,300L630.303,300L606.061,300L581.818,262.5L557.576,300L533.333,300L509.091,300L484.848,300L460.606,300L436.364,300L412.121,300L387.879,300L363.636,262.5L339.394,225L315.152,300L290.909,262.5L266.667,300L242.424,225L218.182,262.5L193.939,300L169.697,300L145.455,300L121.212,300L96.97,300L72.727,300L48.485,300L24.242,300L0,300Z" fill="#9d755d"/></g></g><path class="foreground" aria-hidden="true" d="" display="none"/></g><g transform="translate(0,0)"><path class="background" aria-hidden="true" d="M0,0h800v300h-800Z"/><g><g class="mark-area role-mark marks" role="graphics-object" aria-roledescription="area mark container"><path aria-label="Date: Mar 16, 2026; Unique Visitors/day: 0; Repository: karlmdavis/todoist-ai" role="graphics-symbol" aria-roledescription="area mark" d="M0,300L24.242,300L48.485,300L72.727,300L96.97,300L121.212,300L145.455,300L169.697,300L193.939,300L218.182,262.5L242.424,225L266.667,300L290.909,262.5L315.152,300L339.394,225L363.636,262.5L387.879,300L412.121,300L436.364,300L460.606,300L484.848,300L509.091,300L533.333,300L557.576,300L581.818,262.5L606.061,300L630.303,300L654.545,300L678.788,300L703.03,300L727.273,300L751.515,300L775.758,300L800,300L800,300L775.758,300L751.515,300L727.273,300L703.03,300L678.788,300L654.545,300L630.303,300L606.061,300L581.818,262.5L557.576,300L533.333,300L509.091,300L484.848,300L460.606,300L436.364,300L412.121,300L387.879,300L363.636,262.5L339.394,262.5L315.152,300L290.909,262.5L266.667,300L242.424,225L218.182,262.5L193.939,300L169.697,300L145.455,300L121.212,300L96.97,300L72.727,300L48.485,300L24.242,300L0,300Z" fill="#bab0ac"/></g></g><path class="foreground" aria-hidden="true" d="" display="none"/></g><g transform="translate(0,0)"><path class="background" aria-hidden="true" d="M0,0h800v300h-800Z"/><g><g class="mark-area role-mark marks" role="graphics-object" aria-roledescription="area mark container"><path aria-label="Date: Mar 16, 2026; Unique Visitors/day: 0; Repository: karlmdavis/usgs-water-api-java" role="graphics-symbol" aria-roledescription="area mark" d="M0,300L24.242,300L48.485,300L72.727,300L96.97,300L121.212,300L145.455,300L169.697,300L193.939,300L218.182,262.5L242.424,225L266.667,300L290.909,262.5L315.152,300L339.394,262.5L363.636,262.5L387.879,300L412.121,300L436.364,300L460.606,300L484.848,300L509.091,300L533.333,300L557.576,300L581.818,262.5L606.061,300L630.303,300L654.545,300L678.788,300L703.03,300L727.273,300L751.515,300L775.758,300L800,300L800,300L775.758,300L751.515,300L727.273,300L703.03,300L678.788,300L654.545,300L630.303,300L606.061,300L581.818,262.5L557.576,300L533.333,300L509.091,300L484.848,300L460.606,300L436.364,300L412.121,300L387.879,300L363.636,262.5L339.394,262.5L315.152,300L290.909,262.5L266.667,300L242.424,225L218.182,262.5L193.939,300L169.697,300L145.455,300L121.212,300L96.97,300L72.727,300L48.485,300L24.242,300L0,300Z" fill="#4c78a8"/></g></g><path class="foreground" aria-hidden="true" d="" display="none"/></g><g transform="translate(0,0)"><path class="background" aria-hidden="true" d="M0,0h800v300h-800Z"/><g><g class="mark-area role-mark marks" role="graphics-object" aria-roledescription="area mark container"><path aria-label="Date: Mar 16, 2026; Unique Visitors/day: 0; Repository: karlmdavis/workstation-base-ansible-role" role="graphics-symbol" aria-roledescription="area mark" d="M0,300L24.242,300L48.485,300L72.727,300L96.97,300L121.212,300L145.455,300L169.697,300L193.939,300L218.182,262.5L242.424,225L266.667,300L290.909,262.5L315.152,300L339.394,262.5L363.636,262.5L387.879,300L412.121,300L436.364,300L460.606,300L484.848,300L509.091,300L533.333,300L557.576,300L581.818,262.5L606.061,300L630.303,300L654.545,300L678.788,300L703.03,300L727.273,300L751.515,300L775.758,300L800,300L800,300L775.758,300L751.515,300L727.273,300L703.03,300L678.788,300L654.545,300L630.303,300L606.061,300L581.818,262.5L557.576,300L533.333,300L509.091,300L484.848,300L460.606,300L436.364,300L412.121,300L387.879,300L363.636,262.5L339.394,262.5L315.152,300L290.909,262.5L266.667,300L242.424,225L218.182,262.5L193.939,300L169.697,300L145.455,300L121.212,300L96.97,300L72.727,300L48.485,300L24.242,300L0,300Z" fill="#f58518"/></g></g><path class="foreground" aria-hidden="true" d="" display="none"/></g><g transform="translate(0,0)"><path class="background" aria-hidden="true" d="M0,0h800v300h-800Z"/><g><g class="mark-area role-mark marks" role="graphics-object" aria-roledescription="area mark container"><path aria-label="Date: Mar 16, 2026; Unique Visitors/day: 0; Repository: karlmdavis/xmlpull" role="graphics-symbol" aria-roledescription="area mark" d="M0,300L24.242,300L48.485,300L72.727,300L96.97,300L121.212,300L145.455,300L169.697,300L193.939,300L218.182,262.5L242.424,225L266.667,300L290.909,262.5L315.152,300L339.394,262.5L363.636,262.5L387.879,300L412.121,300L436.364,300L460.606,300L484.848,300L509.091,300L533.333,300L557.576,300L581.818,262.5L606.061,300L630.303,300L654.545,300L678.788,300L703.03,300L727.273,300L751.515,300L775.758,300L800,300L800,300L775.758,300L751.515,300L727.273,300L703.03,300L678.788,300L654.545,300L630.303,300L606.061,300L581.818,300L557.576,300L533.333,300L509.091,300L484.848,300L460.606,300L436.364,300L412.121,300L387.879,300L363.636,300L339.394,300L315.152,300L290.909,300L266.667,300L242.424,300L218.182,300L193.939,300L169.697,300L145.455,300L121.212,300L96.97,300L72.727,300L48.485,300L24.242,300L0,300Z" fill="#e45756"/></g></g><path class="foreground" aria-hidden="true" d="" display="none"/></g></g><g class="mark-group role-legend" role="graphics-symbol" aria-roledescription="legend" aria-label="Symbol legend titled 'Repository' for fill color with 43 values: justdavis-family/github-analytics-data, justdavis-family/justdavis, karlmdavis/FHIR-Server, karlmdavis/ansible, karlmdavis/ansible-jenkins, ending with karlmdavis/xmlpull"><g transform="translate(818,0)"><path class="background" aria-hidden="true" d="M0,0h176v404h-176Z" pointer-events="none"/><g><g class="mark-group role-legend-entry"><g transform="translate(0,16)"><path class="background" aria-hidden="true" d="M0,0h0v0h0Z" pointer-events="none"/><g><g class="mark-group role-scope" role="graphics-object" aria-roledescription="group mark container"><g transform="translate(0,0)"><path class="background" aria-hidden="true" d="M0,0h176v11h-176Z" pointer-events="none" opacity="1"/><g><g class="mark-symbol role-legend-symbol" pointer-events="none"><path transform="translate(6,6)" d="M5,0A5,5,0,1,1,-5,0A5,5,0,1,1,5,0" fill="#4c78a8" stroke-width="1.5" opacity="1"/></g><g class="mark-text role-legend-label" pointer-events="none"><text text-anchor="start" transform="translate(16,9)" font-family="sans-serif" font-size="10px" fill="#000" opacity="1">justdavis-family/github-analytics-d…</text></g></g><path class="foreground" aria-hidden="true" d="" pointer-events="none" display="none"/></g><g transform="translate(0,13)"><path class="background" aria-hidden="true" d="M0,0h176v11h-176Z" pointer-events="none" opacity="1"/><g><g class="mark-symbol role-legend-symbol" pointer-events="none"><path transform="translate(6,6)" d="M5,0A5,5,0,1,1,-5,0A5,5,0,1,1,5,0" fill="#f58518" stroke-width="1.5" opacity="1"/></g><g class="mark-text role-legend-label" pointer-events="none"><text text-anchor="start" transform="translate(16,9)" font-family="sans-serif" font-size="10px" fill="#000" opacity="1">justdavis-family/justdavis</text></g></g><path class="foreground" aria-hidden="true" d="" pointer-events="none" display="none"/></g><g transform="translate(0,26)"><path class="background" aria-hidden="true" d="M0,0h176v11h-176Z" pointer-events="none" opacity="1"/><g><g class="mark-symbol role-legend-symbol" pointer-events="none"><path transform="translate(6,6)" d="M5,0A5,5,0,1,1,-5,0A5,5,0,1,1,5,0" fill="#e45756" stroke-width="1.5" opacity="1"/></g><g class="mark-text role-legend-label" pointer-events="none"><text text-anchor="start" transform="translate(16,9)" font-family="sans-serif" font-size="10px" fill="#000" opacity="1">karlmdavis/FHIR-Server</text></g></g><path class="foreground" aria-hidden="true" d="" pointer-events="none" display="none"/></g><g transform="translate(0,39)"><path class="background" aria-hidden="true" d="M0,0h176v11h-176Z" pointer-events="none" opacity="1"/><g><g class="mark-symbol role-legend-symbol" pointer-events="none"><path transform="translate(6,6)" d="M5,0A5,5,0,1,1,-5,0A5,5,0,1,1,5,0" fill="#72b7b2" stroke-width="1.5" opacity="1"/></g><g class="mark-text role-legend-label" pointer-events="none"><text text-anchor="start" transform="translate(16,9)" font-family="sans-serif" font-size="10px" fill="#000" opacity="1">karlmdavis/ansible</text></g></g><path class="foreground" aria-hidden="true" d="" pointer-events="none" display="none"/></g><g transform="translate(0,52)"><path class="background" aria-hidden="true" d="M0,0h176v11h-176Z" pointer-events="none" opacity="1"/><g><g class="mark-symbol role-legend-symbol" pointer-events="none"><path transform="translate(6,6)" d="M5,0A5,5,0,1,1,-5,0A5,5,0,1,1,5,0" fill="#54a24b" stroke-width="1.5" opacity="1"/></g><g class="mark-text role-legend-label" pointer-events="none"><text text-anchor="start" transform="translate(16,9)" font-family="sans-serif" font-size="10px" fill="#000" opacity="1">karlmdavis/ansible-jenkins</text></g></g><path class="foreground" aria-hidden="true" d="" pointer-events="none" display="none"/></g><g transform="translate(0,65)"><path class="background" aria-hidden="true" d="M0,0h176v11h-176Z" pointer-events="none" opacity="1"/><g><g class="mark-symbol role-legend-symbol" pointer-events="none"><path transform="translate(6,6)" d="M5,0A5,5,0,1,1,-5,0A5,5,0,1,1,5,0" fill="#eeca3b" stroke-width="1.5" opacity="1"/></g><g class="mark-text role-legend-label" pointer-events="none"><text text-anchor="start" transform="translate(16,9)" font-family="sans-serif" font-size="10px" fill="#000" opacity="1">karlmdavis/ansible-role-acmetool</text></g></g><path class="foreground" aria-hidden="true" d="" pointer-events="none" display="none"/></g><g transform="translate(0,78)"><path class="background" aria-hidden="true" d="M0,0h176v11h-176Z" pointer-events="none" opacity="1"/><g><g class="mark-symbol role-legend-symbol" pointer-events="none"><path transform="translate(6,6)" d="M5,0A5,5,0,1,1,-5,0A5,5,0,1,1,5,0" fill="#b279a2" stroke-width="1.5" opacity="1"/></g><g class="mark-text role-legend-label" pointer-events="none"><text text-anchor="start" transform="translate(16,9)" font-family="sans-serif" font-size="10px" fill="#000" opacity="1">karlmdavis/ansible-role-bind-dns</text></g></g><path class="foreground" aria-hidden="true" d="" pointer-events="none" display="none"/></g><g transform="translate(0,91)"><path class="background" aria-hidden="true" d="M0,0h176v11h-176Z" pointer-events="none" opacity="1"/><g><g class="mark-symbol role-legend-symbol" pointer-events="none"><path transform="translate(6,6)" d="M5,0A5,5,0,1,1,-5,0A5,5,0,1,1,5,0" fill="#ff9da6" stroke-width="1.5" opacity="1"/></g><g class="mark-text role-legend-label" pointer-events="none"><text text-anchor="start" transform="translate(16,9)" font-family="sans-serif" font-size="10px" fill="#000" opacity="1">karlmdavis/ansible-role-jenkins2</text></g></g><path class="foreground" aria-hidden="true" d="" pointer-events="none" display="none"/></g><g transform="translate(0,104)"><path class="background" aria-hidden="true" d="M0,0h176v11h-176Z" pointer-events="none" opacity="1"/><g><g class="mark-symbol role-legend-symbol" pointer-events="none"><path transform="translate(6,6)" d="M5,0A5,5,0,1,1,-5,0A5,5,0,1,1,5,0" fill="#9d755d" stroke-width="1.5" opacity="1"/></g><g class="mark-text role-legend-label" pointer-events="none"><text text-anchor="start" transform="translate(16,9)" font-family="sans-serif" font-size="10px" fill="#000" opacity="1">karlmdavis/ansible-role-ldap</text></g></g><path class="foreground" aria-hidden="true" d="" pointer-events="none" display="none"/></g><g transform="translate(0,117)"><path class="background" aria-hidden="true" d="M0,0h176v11h-176Z" pointer-events="none" opacity="1"/><g><g class="mark-symbol role-legend-symbol" pointer-events="none"><path transform="translate(6,6)" d="M5,0A5,5,0,1,1,-5,0A5,5,0,1,1,5,0" fill="#bab0ac" stroke-width="1.5" opacity="1"/></g><g class="mark-text role-legend-label" pointer-events="none"><text text-anchor="start" transform="translate(16,9)" font-family="sans-serif" font-size="10px" fill="#000" opacity="1">karlmdavis/ansible-role-rcm-dotfiles</text></g></g><path class="foreground" aria-hidden="true" d="" pointer-events="none" display="none"/></g><g transform="translate(0,130)"><path class="background" aria-hidden="true" d="M0,0h176v11h-176Z" pointer-events="none" opacity="1"/><g><g class="mark-symbol role-legend-symbol" pointer-events="none"><path transform="translate(6,6)" d="M5,0A5,5,0,1,1,-5,0A5,5,0,1,1,5,0" fill="#4c78a8" stroke-width="1.5" opacity="1"/></g><g class="mark-text role-legend-label" pointer-events="none"><text text-anchor="start" transform="translate(16,9)" font-family="sans-serif" font-size="10px" fill="#000" opacity="1">karlmdavis/ansible-roles</text></g></g><path class="foreground" aria-hidden="true" d="" pointer-events="none" display="none"/></g><g transform="translate(0,143)"><path class="background" aria-hidden="true" d="M0,0h176v11h-176Z" pointer-events="none" opacity="1"/><g><g class="mark-symbol role-legend-symbol" pointer-events="none"><path transform="translate(6,6)" d="M5,0A5,5,0,1,1,-5,0A5,5,0,1,1,5,0" fill="#f58518" stroke-width="1.5" opacity="1"/></g><g class="mark-text role-legend-label" pointer-events="none"><text text-anchor="start" transform="translate(16,9)" font-family="sans-serif" font-size="10px" fill="#000" opacity="1">karlmdavis/bbonfhir-dev-infra-doc…</text></g></g><path class="foreground" aria-hidden="true" d="" pointer-events="none" display="none"/></g><g transform="translate(0,156)"><path class="background" aria-hidden="true" d="M0,0h176v11h-176Z" pointer-events="none" opacity="1"/><g><g class="mark-symbol role-legend-symbol" pointer-events="none"><path transform="translate(6,6)" d="M5,0A5,5,0,1,1,-5,0A5,5,0,1,1,5,0" fill="#e45756" stroke-width="1.5" opacity="1"/></g><g class="mark-text role-legend-label" pointer-events="none"><text text-anchor="start" transform="translate(16,9)" font-family="sans-serif" font-size="10px" fill="#000" opacity="1">karlmdavis/can-i-kayak-baltimore</text></g></g><path class="foreground" aria-hidden="true" d="" pointer-events="none" display="none"/></g><g transform="translate(0,169)"><path class="background" aria-hidden="true" d="M0,0h176v11h-176Z" pointer-events="none" opacity="1"/><g><g class="mark-symbol role-legend-symbol" pointer-events="none"><path transform="translate(6,6)" d="M5,0A5,5,0,1,1,-5,0A5,5,0,1,1,5,0" fill="#72b7b2" stroke-width="1.5" opacity="1"/></g><g class="mark-text role-legend-label" pointer-events="none"><text text-anchor="start" transform="translate(16,9)" font-family="sans-serif" font-size="10px" fill="#000" opacity="1">karlmdavis/datanucleus-test-jdo-1…</text></g></g><path class="foreground" aria-hidden="true" d="" pointer-events="none" display="none"/></g><g transform="translate(0,182)"><path class="background" aria-hidden="true" d="M0,0h176v11h-176Z" pointer-events="none" opacity="1"/><g><g class="mark-symbol role-legend-symbol" pointer-events="none"><path transform="translate(6,6)" d="M5,0A5,5,0,1,1,-5,0A5,5,0,1,1,5,0" fill="#54a24b" stroke-width="1.5" opacity="1"/></g><g class="mark-text role-legend-label" pointer-events="none"><text text-anchor="start" transform="translate(16,9)" font-family="sans-serif" font-size="10px" fill="#000" opacity="1">karlmdavis/dotfiles</text></g></g><path class="foreground" aria-hidden="true" d="" pointer-events="none" display="none"/></g><g transform="translate(0,195)"><path class="background" aria-hidden="true" d="M0,0h176v11h-176Z" pointer-events="none" opacity="1"/><g><g class="mark-symbol role-legend-symbol" pointer-events="none"><path transform="translate(6,6)" d="M5,0A5,5,0,1,1,-5,0A5,5,0,1,1,5,0" fill="#eeca3b" stroke-width="1.5" opacity="1"/></g><g class="mark-text role-legend-label" pointer-events="none"><text text-anchor="start" transform="translate(16,9)" font-family="sans-serif" font-size="10px" fill="#000" opacity="1">karlmdavis/fhir-benchmarks</text></g></g><path class="foreground" aria-hidden="true" d="" pointer-events="none" display="none"/></g><g transform="translate(0,208)"><path class="background" aria-hidden="true" d="M0,0h176v11h-176Z" pointer-events="none" opacity="1"/><g><g class="mark-symbol role-legend-symbol" pointer-events="none"><path transform="translate(6,6)" d="M5,0A5,5,0,1,1,-5,0A5,5,0,1,1,5,0" fill="#b279a2" stroke-width="1.5" opacity="1"/></g><g class="mark-text role-legend-label" pointer-events="none"><text text-anchor="start" transform="translate(16,9)" font-family="sans-serif" font-size="10px" fill="#000" opacity="1">karlmdavis/hapi-fhir-jpaserver-sta…</text></g></g><path class="foreground" aria-hidden="true" d="" pointer-events="none" display="none"/></g><g transform="translate(0,221)"><path class="background" aria-hidden="true" d="M0,0h176v11h-176Z" pointer-events="none" opacity="1"/><g><g class="mark-symbol role-legend-symbol" pointer-events="none"><path transform="translate(6,6)" d="M5,0A5,5,0,1,1,-5,0A5,5,0,1,1,5,0" fill="#ff9da6" stroke-width="1.5" opacity="1"/></g><g class="mark-text role-legend-label" pointer-events="none"><text text-anchor="start" transform="translate(16,9)" font-family="sans-serif" font-size="10px" fill="#000" opacity="1">karlmdavis/hello-rust-actix</text></g></g><path class="foreground" aria-hidden="true" d="" pointer-events="none" display="none"/></g><g transform="translate(0,234)"><path class="background" aria-hidden="true" d="M0,0h176v11h-176Z" pointer-events="none" opacity="1"/><g><g class="mark-symbol role-legend-symbol" pointer-events="none"><path transform="translate(6,6)" d="M5,0A5,5,0,1,1,-5,0A5,5,0,1,1,5,0" fill="#9d755d" stroke-width="1.5" opacity="1"/></g><g class="mark-text role-legend-label" pointer-events="none"><text text-anchor="start" transform="translate(16,9)" font-family="sans-serif" font-size="10px" fill="#000" opacity="1">karlmdavis/jessentials</text></g></g><path class="foreground" aria-hidden="true" d="" pointer-events="none" display="none"/></g><g transform="translate(0,247)"><path class="background" aria-hidden="true" d="M0,0h176v11h-176Z" pointer-events="none" opacity="1"/><g><g class="mark-symbol role-legend-symbol" pointer-events="none"><path transform="translate(6,6)" d="M5,0A5,5,0,1,1,-5,0A5,5,0,1,1,5,0" fill="#bab0ac" stroke-width="1.5" opacity="1"/></g><g class="mark-text role-legend-label" pointer-events="none"><text text-anchor="start" transform="translate(16,9)" font-family="sans-serif" font-size="10px" fill="#000" opacity="1">karlmdavis/justdavis-ansible</text></g></g><path class="foreground" aria-hidden="true" d="" pointer-events="none" display="none"/></g><g transform="translate(0,260)"><path class="background" aria-hidden="true" d="M0,0h176v11h-176Z" pointer-events="none" opacity="1"/><g><g class="mark-symbol role-legend-symbol" pointer-events="none"><path transform="translate(6,6)" d="M5,0A5,5,0,1,1,-5,0A5,5,0,1,1,5,0" fill="#4c78a8" stroke-width="1.5" opacity="1"/></g><g class="mark-text role-legend-label" pointer-events="none"><text text-anchor="start" transform="translate(16,9)" font-family="sans-serif" font-size="10px" fill="#000" opacity="1">karlmdavis/justdavis-finances</text></g></g><path class="foreground" aria-hidden="true" d="" pointer-events="none" display="none"/></g><g transform="translate(0,273)"><path class="background" aria-hidden="true" d="M0,0h176v11h-176Z" pointer-events="none" opacity="1"/><g><g class="mark-symbol role-legend-symbol" pointer-events="none"><path transform="translate(6,6)" d="M5,0A5,5,0,1,1,-5,0A5,5,0,1,1,5,0" fill="#f58518" stroke-width="1.5" opacity="1"/></g><g class="mark-text role-legend-label" pointer-events="none"><text text-anchor="start" transform="translate(16,9)" font-family="sans-serif" font-size="10px" fill="#000" opacity="1">karlmdavis/justdavis-karl</text></g></g><path class="foreground" aria-hidden="true" d="" pointer-events="none" display="none"/></g><g transform="translate(0,286)"><path class="background" aria-hidden="true" d="M0,0h176v11h-176Z" pointer-events="none" opacity="1"/><g><g class="mark-symbol role-legend-symbol" pointer-events="none"><path transform="translate(6,6)" d="M5,0A5,5,0,1,1,-5,0A5,5,0,1,1,5,0" fill="#e45756" stroke-width="1.5" opacity="1"/></g><g class="mark-text role-legend-label" pointer-events="none"><text text-anchor="start" transform="translate(16,9)" font-family="sans-serif" font-size="10px" fill="#000" opacity="1">karlmdavis/justdavis-puppet</text></g></g><path class="foreground" aria-hidden="true" d="" pointer-events="none" display="none"/></g><g transform="translate(0,299)"><path class="background" aria-hidden="true" d="M0,0h176v11h-176Z" pointer-events="none" opacity="1"/><g><g class="mark-symbol role-legend-symbol" pointer-events="none"><path transform="translate(6,6)" d="M5,0A5,5,0,1,1,-5,0A5,5,0,1,1,5,0" fill="#72b7b2" stroke-width="1.5" opacity="1"/></g><g class="mark-text role-legend-label" pointer-events="none"><text text-anchor="start" transform="translate(16,9)" font-family="sans-serif" font-size="10px" fill="#000" opacity="1">karlmdavis/kobjects</text></g></g><path class="foreground" aria-hidden="true" d="" pointer-events="none" display="none"/></g><g transform="translate(0,312)"><path class="background" aria-hidden="true" d="M0,0h176v11h-176Z" pointer-events="none" opacity="1"/><g><g class="mark-symbol role-legend-symbol" pointer-events="none"><path transform="translate(6,6)" d="M5,0A5,5,0,1,1,-5,0A5,5,0,1,1,5,0" fill="#54a24b" stroke-width="1.5" opacity="1"/></g><g class="mark-text role-legend-label" pointer-events="none"><text text-anchor="start" transform="translate(16,9)" font-family="sans-serif" font-size="10px" fill="#000" opacity="1">karlmdavis/ksoap2-android</text></g></g><path class="foreground" aria-hidden="true" d="" pointer-events="none" display="none"/></g><g transform="translate(0,325)"><path class="background" aria-hidden="true" d="M0,0h176v11h-176Z" pointer-events="none" opacity="1"/><g><g class="mark-symbol role-legend-symbol" pointer-events="none"><path transform="translate(6,6)" d="M5,0A5,5,0,1,1,-5,0A5,5,0,1,1,5,0" fill="#eeca3b" stroke-width="1.5" opacity="1"/></g><g class="mark-text role-legend-label" pointer-events="none"><text text-anchor="start" transform="translate(16,9)" font-family="sans-serif" font-size="10px" fill="#000" opacity="1">karlmdavis/kxml2</text></g></g><path class="foreground" aria-hidden="true" d="" pointer-events="none" display="none"/></g><g transform="translate(0,338)"><path class="background" aria-hidden="true" d="M0,0h176v11h-176Z" pointer-events="none" opacity="1"/><g><g class="mark-symbol role-legend-symbol" pointer-events="none"><path transform="translate(6,6)" d="M5,0A5,5,0,1,1,-5,0A5,5,0,1,1,5,0" fill="#b279a2" stroke-width="1.5" opacity="1"/></g><g class="mark-text role-legend-label" pointer-events="none"><text text-anchor="start" transform="translate(16,9)" font-family="sans-serif" font-size="10px" fill="#000" opacity="1">karlmdavis/ldap-plugin</text></g></g><path class="foreground" aria-hidden="true" d="" pointer-events="none" display="none"/></g><g transform="translate(0,351)"><path class="background" aria-hidden="true" d="M0,0h176v11h-176Z" pointer-events="none" opacity="1"/><g><g class="mark-symbol role-legend-symbol" pointer-events="none"><path transform="translate(6,6)" d="M5,0A5,5,0,1,1,-5,0A5,5,0,1,1,5,0" fill="#ff9da6" stroke-width="1.5" opacity="1"/></g><g class="mark-text role-legend-label" pointer-events="none"><text text-anchor="start" transform="translate(16,9)" font-family="sans-serif" font-size="10px" fill="#000" opacity="1">karlmdavis/lego-ev3dev-rs</text></g></g><path class="foreground" aria-hidden="true" d="" pointer-events="none" display="none"/></g><g transform="translate(0,364)"><path class="background" aria-hidden="true" d="M0,0h176v11h-176Z" pointer-events="none" opacity="1"/><g><g class="mark-symbol role-legend-symbol" pointer-events="none"><path transform="translate(6,6)" d="M5,0A5,5,0,1,1,-5,0A5,5,0,1,1,5,0" fill="#9d755d" stroke-width="1.5" opacity="1"/></g><g class="mark-text role-legend-label" pointer-events="none"><text text-anchor="start" transform="translate(16,9)" font-family="sans-serif" font-size="10px" fill="#000" opacity="1">karlmdavis/liquibase</text></g></g><path class="foreground" aria-hidden="true" d="" pointer-events="none" display="none"/></g><g transform="translate(0,377)"><path class="background" aria-hidden="true" d="M0,0h176v11h-176Z" pointer-events="none" opacity="1"/><g><g class="mark-symbol role-legend-symbol" pointer-events="none"><path transform="translate(6,6)" d="M5,0A5,5,0,1,1,-5,0A5,5,0,1,1,5,0" fill="#bab0ac" stroke-width="1.5" opacity="1"/></g><g class="mark-text role-legend-label" pointer-events="none"><text text-anchor="start" transform="translate(16,9)" font-family="sans-serif" font-size="10px" fill="#000" opacity="1">…14 entries</text></g></g><path class="foreground" aria-hidden="true" d="" pointer-events="none" display="none"/></g></g></g><path class="foreground" aria-hidden="true" d="" pointer-events="none" display="none"/></g></g><g class="mark-text role-legend-title" pointer-events="none"><text text-anchor="start" transform="translate(0,9)" font-family="sans-serif" font-size="11px" font-weight="bold" fill="#000" opacity="1">Repository</text></g></g><path class="foreground" aria-hidden="true" d="" pointer-events="none" display="none"/></g></g><g class="mark-group role-title"><g transform="translate(400,-22)"><path class="background" aria-hidden="true" d="M0,0h0v0h0Z" pointer-events="none"/><g><g class="mark-text role-title-text" role="graphics-symbol" aria-roledescription="title" aria-label="Title text 'Unique Visitors per Day'" pointer-events="none"><text text-anchor="middle" transform="translate(0,10)" font-family="sans-serif" font-size="13px" font-weight="bold" fill="#000" opacity="1">Unique Visitors per Day</text></g></g><path class="foreground" aria-hidden="true" d="" pointer-events="none" display="none"/></g></g></g><path class="foreground" aria-hidden="true" d="" display="none"/></g></g></g></svg>