<svg xmlns="http://www.w3.org/2000/svg" xmlns:xlink="http://www.w3.org/1999/xlink" version="1.1" class="marks" width="1032" height="436" viewBox="0 0 1032 436"><rect width="1032" height="436" fill="white"/><g fill="none" stroke-miterlimit="10" transform="translate(33,27)"><g class="mark-group role-frame root" role="graphics-object" aria-roledescription="group mark container"><g transform="translate(0,0)"><path class="background" aria-hidden="true" d="M0.5,0.5h800v300h-800Z" stroke="#ddd"/><g><g class="mark-group role-axis" aria-hidden="true"><g transform="translate(0.5,300.5)"><path class="background" aria-hidden="true" d="M0,0h0v0h0Z" pointer-events="none"/><g><g class="mark-rule role-axis-grid" pointer-events="none"><line transform="translate(26,-300)" x2="0" y2="300" stroke="#ddd" stroke-width="1" opacity="1"/><line transform="translate(77,-300)" x2="0" y2="300" stroke="#ddd" stroke-width="1" opacity="1"/><line transform="translate(129,-300)" x2="0" y2="300" stroke="#ddd" stroke-width="1" opacity="1"/><line transform="translate(181,-300)" x2="0" y2="300" stroke="#ddd" stroke-width="1" opacity="1"/><line transform="translate(232,-300)" x2="0" y2="300" stroke="#ddd" stroke-width="1" opacity="1"/><line transform="translate(284,-300)" x2="0" y2="300" stroke="#ddd" stroke-width="1" opacity="1"/><line transform="translate(335,-300)" x2="0" y2="300" stroke="#ddd" stroke-width="1" opacity="1"/><line transform="translate(387,-300)" x2="0" y2="300" stroke="#ddd" stroke-width="1" opacity="1"/><line transform="translate(413,-300)" x2="0" y2="300" stroke="#ddd" stroke-width="1" opacity="1"/><line transform="translate(465,-300)" x2="0" y2="300" stroke="#ddd" stroke-width="1" opacity="1"/><line transform="translate(516,-300)" x2="0" y2="300" stroke="#ddd" stroke-width="1" opacity="1"/><line transform="translate(568,-300)" x2="0" y2="300" stroke="#ddd" stroke-width="1" opacity="1"/><line transform="translate(619,-300)" x2="0" y2="300" stroke="#ddd" stroke-width="1" opacity="1"/><line transform="translate(671,-300)" x2="0" y2="300" stroke="#ddd" stroke-width="1" opacity="1"/><line transform="translate(723,-300)" x2="0" y2="300" stroke="#ddd" stroke-width="1" opacity="1"/><line transform="translate(774,-300)" x2="0" y2="300" stroke="#ddd" stroke-width="1" opacity="1"/></g></g><path class="foreground" aria-hidden="true" d="" pointer-events="none" display="none"/></g></g><g class="mark-group role-axis" aria-hidden="true"><g transform="translate(0.5,0.5)"><path class="background" aria-hidden="true" d="M0,0h0v0h0Z" pointer-events="none"/><g><g class="mark-rule role-axis-grid" pointer-events="none"><line transform="translate(0,300)" x2="800" y2="0" stroke="#ddd" stroke-width="1" opacity="1"/><line transform="translate(0,263)" x2="800" y2="0" stroke="#ddd" stroke-width="1" opacity="1"/><line transform="translate(0,225)" x2="800" y2="0" stroke="#ddd" stroke-width="1" opacity="1"/><line transform="translate(0,188)" x2="800" y2="0" stroke="#ddd" stroke-width="1" opacity="1"/><line transform="translate(0,150)" x2="800" y2="0" stroke="#ddd" stroke-width="1" opacity="1"/><line transform="translate(0,113)" x2="800" y2="0" stroke="#ddd" stroke-width="1" opacity="1"/><line transform="translate(0,75)" x2="800" y2="0" stroke="#ddd" stroke-width="1" opacity="1"/><line transform="translate(0,38)" x2="800" y2="0" stroke="#ddd" stroke-width="1" opacity="1"/><line transform="translate(0,0)" x2="800" y2="0" stroke="#ddd" stroke-width="1" opacity="1"/></g></g><path class="foreground" aria-hidden="true" d="" pointer-events="none" display="none"/></g></g><g class="mark-group role-axis" role="graphics-symbol" aria-roledescription="axis" aria-label="X-axis titled 'Date' for a time scale with values from Monday, 16 March 2026, 12:00:00 AM to Thursday, 16 April 2026, 12:00:00 AM"><g transform="translate(0.5,300.5)"><path class="background" aria-hidden="true" d="M0,0h0v0h0Z" pointer-events="none"/><g><g class="mark-rule role-axis-tick" pointer-events="none"><line transform="translate(26,0)" x2="0" y2="5" stroke="#888" stroke-width="1" opacity="1"/><line transform="translate(77,0)" x2="0" y2="5" stroke="#888" stroke-width="1" opacity="1"/><line transform="translate(129,0)" x2="0" y2="5" stroke="#888" stroke-width="1" opacity="1"/><line transform="translate(181,0)" x2="0" y2="5" stroke="#888" stroke-width="1" opacity="1"/><line transform="translate(232,0)" x2="0" y2="5" stroke="#888" stroke-width="1" opacity="1"/><line transform="translate(284,0)" x2="0" y2="5" stroke="#888" stroke-width="1" opacity="1"/><line transform="translate(335,0)" x2="0" y2="5" stroke="#888" stroke-width="1" opacity="1"/><line transform="translate(387,0)" x2="0" y2="5" stroke="#888" stroke-width="1" opacity="1"/><line transform="translate(413,0)" x2="0" y2="5" stroke="#888" stroke-width="1" opacity="1"/><line transform="translate(465,0)" x2="0" y2="5" stroke="#888" stroke-width="1" opacity="1"/><line transform="translate(516,0)" x2="0" y2="5" stroke="#888" stroke-width="1" opacity="1"/><line transform="translate(568,0)" x2="0" y2="5" stroke="#888" stroke-width="1" opacity="1"/><line transform="translate(619,0)" x2="0" y2="5" stroke="#888" stroke-width="1" opacity="1"/><line transform="translate(671,0)" x2="0" y2="5" stroke="#888" stroke-width="1" opacity="1"/><line transform="translate(723,0)" x2="0" y2="5" stroke="#888" stroke-width="1" opacity="1"/><line transform="translate(774,0)" x2="0" y2="5" stroke="#888" stroke-width="1" opacity="1"/></g><g class="mark-text role-axis-label" pointer-events="none"><text text-anchor="middle" transform="translate(25.806451612903224,15)" font-family="sans-serif" font-size="10px" fill="#000" opacity="1">Tue 17</text><text text-anchor="middle" transform="translate(77.41935483870968,15)" font-family="sans-serif" font-size="10px" fill="#000" opacity="1">Thu 19</text><text text-anchor="middle" transform="translate(129.03225806451613,15)" font-family="sans-serif" font-size="10px" fill="#000" opacity="1">Sat 21</text><text text-anchor="middle" transform="translate(180.64516129032256,15)" font-family="sans-serif" font-size="10px" fill="#000" opacity="1">Mon 23</text><text text-anchor="middle" transform="translate(232.25806451612905,15)" font-family="sans-serif" font-size="10px" fill="#000" opacity="1">Wed 25</text><text text-anchor="middle" transform="translate(283.8709677419355,15)" font-family="sans-serif" font-size="10px" fill="#000" opacity="1">Fri 27</text><text text-anchor="middle" transform="translate(335.48387096774195,15)" font-family="sans-serif" font-size="10px" fill="#000" opacity="1">Mar 29</text><text text-anchor="middle" transform="translate(387.0967741935484,15)" font-family="sans-serif" font-size="10px" fill="#000" opacity="1">Tue 31</text><text text-anchor="middle" transform="translate(412.9032258064516,15)" font-family="sans-serif" font-size="10px" fill="#000" opacity="1">April</text><text text-anchor="middle" transform="translate(464.5161290322581,15)" font-family="sans-serif" font-size="10px" fill="#000" opacity="1">Fri 03</text><text text-anchor="middle" transform="translate(516.1290322580645,15)" font-family="sans-serif" font-size="10px" fill="#000" opacity="1">Apr 05</text><text text-anchor="middle" transform="translate(567.741935483871,15)" font-family="sans-serif" font-size="10px" fill="#000" opacity="1">Tue 07</text><text text-anchor="middle" transform="translate(619.3548387096774,15)" font-family="sans-serif" font-size="10px" fill="#000" opacity="1">Thu 09</text><text text-anchor="middle" transform="translate(670.9677419354839,15)" font-family="sans-serif" font-size="10px" fill="#000" opacity="1">Sat 11</text><text text-anchor="middle" transform="translate(722.5806451612902,15)" font-family="sans-serif" font-size="10px" fill="#000" opacity="1">Mon 13</text><text text-anchor="middle" transform="translate(774.1935483870968,15)" font-family="sans-serif" font-size="10px" fill="#000" opacity="1">Wed 15</text></g><g class="mark-rule role-axis-domain" pointer-events="none"><line transform="translate(0,0)" x2="800" y2="0" stroke="#888" stroke-width="1" opacity="1"/></g><g class="mark-text role-axis-title" pointer-events="none"><text text-anchor="middle" transform="translate(400,30)" font-family="sans-serif" font-size="11px" font-weight="bold" fill="#000" opacity="1">Date</text></g></g><path class="foreground" aria-hidden="true" d="" pointer-events="none" display="none"/></g></g><g class="mark-group role-axis" role="graphics-symbol" aria-roledescription="axis" aria-label="Y-axis titled 'Unique Visitors/day' for a linear scale with values from 0 to 8"><g transform="translate(0.5,0.5)"><path class="background" aria-hidden="true" d="M0,0h0v0h0Z" pointer-events="none"/><g><g class="mark-rule role-axis-tick" pointer-events="none"><line transform="translate(0,300)" x2="-5" y2="0" stroke="#888" stroke-width="1" opacity="1"/><line transform="translate(0,263)" x2="-5" y2="0" stroke="#888" stroke-width="1" opacity="1"/><line transform="translate(0,225)" x2="-5" y2="0" stroke="#888" stroke-width="1" opacity="1"/><line transform="translate(0,188)" x2="-5" y2="0" stroke="#888" stroke-width="1" opacity="1"/><line transform="translate(0,150)" x2="-5" y2="0" stroke="#888" stroke-width="1" opacity="1"/><line transform="translate(0,113)" x2="-5" y2="0" stroke="#888" stroke-width="1" opacity="1"/><line transform="translate(0,75)" x2="-5" y2="0" stroke="#888" stroke-width="1" opacity="1"/><line transform="translate(0,38)" x2="-5" y2="0" stroke="#888" stroke-width="1" opacity="1"/><line transform="translate(0,0)" x2="-5" y2="0" stroke="#888" stroke-width="1" opacity="1"/></g><g class="mark-text role-axis-label" pointer-events="none"><text text-anchor="end" transform="translate(-7,303)" font-family="sans-serif" font-size="10px" fill="#000" opacity="1">0</text><text text-anchor="end" transform="translate(-7,265.5)" font-family="sans-serif" font-size="10px" fill="#000" opacity="1">1</text><text text-anchor="end" transform="translate(-7,228)" font-family="sans-serif" font-size="10px" fill="#000" opacity="1">2</text><text text-anchor="end" transform="translate(-7,190.5)" font-family="sans-serif" font-size="10px" fill="#000" opacity="1">3</text><text text-anchor="end" transform="translate(-7,153)" font-family="sans-serif" font-size="10px" fill="#000" opacity="1">4</text><text text-anchor="end" transform="translate(-7,115.5)" font-family="sans-serif" font-size="10px" fill="#000" opacity="1">5</text><text text-anchor="end" transform="translate(-7,78)" font-family="sans-serif" font-size="10px" fill="#000" opacity="1">6</text><text text-anchor="end" transform="translate(-7,40.5)" font-family="sans-serif" font-size="10px" fill="#000" opacity="1">7</text><text text-anchor="end" transform="translate(-7,3)" font-family="sans-serif" font-size="10px" fill="#000" opacity="1">8</text></g><g class="mark-rule role-axis-domain" pointer-events="none"><line transform="translate(0,300)" x2="0" y2="-300" stroke="#888" stroke-width="1" opacity="1"/></g><g class="mark-text role-axis-title" pointer-events="none"><text text-anchor="middle" transform="translate(-16.5615234375,150) rotate(-90) translate(0,-2)" font-family="sans-serif" font-size="11px" font-weight="bold" fill="#000" opacity="1">Unique Visitors/day</text></g></g><path class="foreground" aria-hidden="true" d="" pointer-events="none" display="none"/></g></g><g class="mark-group role-scope pathgroup" role="graphics-object" aria-roledescription="group mark container"><g transform="translate(0,0)"><path class="background" aria-hidden="true" d="M0,0h800v300h-800Z"/><g><g class="mark-area role-mark marks" role="graphics-object" aria-roledescription="area mark container"><path aria-label="Date: Mar 16, 2026; Unique Visitors/day: 0; Repository: justdavis-family/github-analytics-data" role="graphics-symbol" aria-roledescription="area mark" d="M0,300L25.806,300L51.613,300L77.419,300L103.226,300L129.032,300L154.839,300L180.645,187.5L206.452,187.5L232.258,150L258.065,187.5L283.871,187.5L309.677,187.5L335.484,262.5L361.29,0L387.097,262.5L412.903,150L438.71,262.5L464.516,300L490.323,225L516.129,262.5L541.935,300L567.742,187.5L593.548,262.5L619.355,262.5L645.161,225L670.968,300L696.774,75L722.581,300L748.387,262.5L774.194,187.5L800,262.5L800,300L774.194,187.5L748.387,262.5L722.581,300L696.774,75L670.968,300L645.161,225L619.355,262.5L593.548,262.5L567.742,187.5L541.935,300L516.129,262.5L490.323,225L464.516,300L438.71,262.5L412.903,150L387.097,262.5L361.29,0L335.484,262.5L309.677,187.5L283.871,187.5L258.065,187.5L232.258,150L206.452,187.5L180.645,187.5L154.839,300L129.032,300L103.226,300L77.419,300L51.613,300L25.806,300L0,300Z" fill="#4c78a8"/></g></g><path class="foreground" aria-hidden="true" d="" display="none"/></g><g transform="translate(0,0)"><path class="background" aria-hidden="true" d="M0,0h800v300h-800Z"/><g><g class="mark-area role-mark marks" role="graphics-object" aria-roledescription="area mark container"><path aria-label="Date: Mar 16, 2026; Unique Visitors/day: 0; Repository: justdavis-family/justdavis" role="graphics-symbol" aria-roledescription="area mark" d="M0,300L25.806,300L51.613,300L77.419,300L103.226,300L129.032,300L154.839,300L180.645,187.5L206.452,187.5L232.258,150L258.065,187.5L283.871,187.5L309.677,187.5L335.484,262.5L361.29,0L387.097,262.5L412.903,150L438.71,262.5L464.516,300L490.323,225L516.129,262.5L541.935,300L567.742,187.5L593.548,262.5L619.355,262.5L645.161,225L670.968,300L696.774,75L722.581,300L748.387,262.5L774.194,187.5L800,300L800,300L774.194,187.5L748.387,262.5L722.581,300L696.774,75L670.968,300L645.161,225L619.355,262.5L593.548,262.5L567.742,262.5L541.935,300L516.129,262.5L490.323,225L464.516,300L438.71,262.5L412.903,150L387.097,262.5L361.29,37.5L335.484,262.5L309.677,187.5L283.871,187.5L258.065,187.5L232.258,150L206.452,187.5L180.645,187.5L154.839,300L129.032,300L103.226,300L77.419,300L51.613,300L25.806,300L0,300Z" fill="#f58518"/></g></g><path class="foreground" aria-hidden="true" d="" display="none"/></g><g transform="translate(0,0)"><path class="background" aria-hidden="true" d="M0,0h800v300h-800Z"/><g><g class="mark-area role-mark marks" role="graphics-object" aria-roledescription="area mark container"><path aria-label="Date: Mar 16, 2026; Unique Visitors/day: 0; Repository: karlmdavis/FHIR-Server" role="graphics-symbol" aria-roledescription="area mark" d="M0,300L25.806,300L51.613,300L77.419,300L103.226,300L129.032,300L154.839,300L180.645,187.5L206.452,187.5L232.258,150L258.065,187.5L283.871,187.5L309.677,187.5L335.484,262.5L361.29,37.5L387.097,262.5L412.903,150L438.71,262.5L464.516,300L490.323,225L516.129,262.5L541.935,300L567.742,262.5L593.548,262.5L619.355,262.5L645.161,225L670.968,300L696.774,75L722.581,300L748.387,262.5L774.194,187.5L800,300L800,300L774.194,187.5L748.387,262.5L722.581,300L696.774,75L670.968,300L645.161,225L619.355,262.5L593.548,262.5L567.742,262.5L541.935,300L516.129,262.5L490.323,225L464.516,300L438.71,262.5L412.903,150L387.097,262.5L361.29,37.5L335.484,262.5L309.677,187.5L283.871,187.5L258.065,187.5L232.258,150L206.452,187.5L180.645,187.5L154.839,300L129.032,300L103.226,300L77.419,300L51.613,300L25.806,300L0,300Z" fill="#e45756"/></g></g><path class="foreground" aria-hidden="true" d="" display="none"/></g><g transform="translate(0,0)"><path class="background" aria-hidden="true" d="M0,0h800v300h-800Z"/><g><g class="mark-area role-mark marks" role="graphics-object" aria-roledescription="area mark container"><path aria-label="Date: Mar 16, 2026; Unique Visitors/day: 0; Repository: karlmdavis/ansible" role="graphics-symbol" aria-roledescription="area mark" d="M0,300L25.806,300L51.613,300L77.419,300L103.226,300L129.032,300L154.839,300L180.645,187.5L206.452,187.5L232.258,150L258.065,187.5L283.871,187.5L309.677,187.5L335.484,262.5L361.29,37.5L387.097,262.5L412.903,150L438.71,262.5L464.516,300L490.323,225L516.129,262.5L541.935,300L567.742,262.5L593.548,262.5L619.355,262.5L645.161,225L670.968,300L696.774,75L722.581,300L748.387,262.5L774.194,187.5L800,300L800,300L774.194,187.5L748.387,262.5L722.581,300L696.774,75L670.968,300L645.161,225L619.355,262.5L593.548,262.5L567.742,262.5L541.935,300L516.129,262.5L490.323,225L464.516,300L438.71,262.5L412.903,150L387.097,262.5L361.29,37.5L335.484,262.5L309.677,187.5L283.871,187.5L258.065,187.5L232.258,150L206.452,187.5L180.645,187.5L154.839,300L129.032,300L103.226,300L77.419,300L51.613,300L25.806,300L0,300Z" fill="#72b7b2"/></g></g><path class="foreground" aria-hidden="true" d="" display="none"/></g><g transform="translate(0,0)"><path class="background" aria-hidden="true" d="M0,0h800v300h-800Z"/><g><g class="mark-area role-mark marks" role="graphics-object" aria-roledescription="area mark container"><path aria-label="Date: Mar 16, 2026; Unique Visitors/day: 0; Repository: karlmdavis/ansible-jenkins" role="graphics-symbol" aria-roledescription="area mark" d="M0,300L25.806,300L51.613,300L77.419,300L103.226,300L129.032,300L154.839,300L180.645,187.5L206.452,187.5L232.258,150L258.065,187.5L283.871,187.5L309.677,187.5L335.484,262.5L361.29,37.5L387.097,262.5L412.903,150L438.71,262.5L464.516,300L490.323,225L516.129,262.5L541.935,300L567.742,262.5L593.548,262.5L619.355,262.5L645.161,225L670.968,300L696.774,75L722.581,300L748.387,262.5L774.194,187.5L800,300L800,300L774.194,187.5L748.387,262.5L722.581,300L696.774,75L670.968,300L645.161,225L619.355,262.5L593.548,262.5L567.742,262.5L541.935,300L516.129,262.5L490.323,225L464.516,300L438.71,262.5L412.903,150L387.097,262.5L361.29,37.5L335.484,262.5L309.677,187.5L283.871,187.5L258.065,187.5L232.258,150L206.452,187.5L180.645,187.5L154.839,300L129.032,300L103.226,300L77.419,300L51.613,300L25.806,300L0,300Z" fill="#54a24b"/></g></g><path class="foreground" aria-hidden="true" d="" display="none"/></g><g transform="translate(0,0)"><path class="background" aria-hidden="true" d="M0,0h800v300h-800Z"/><g><g class="mark-area role-mark marks" role="graphics-object" aria-roledescription="area mark container"><path aria-label="Date: Mar 16, 2026; Unique Visitors/day: 0; Repository: karlmdavis/ansible-role-acmetool" role="graphics-symbol" aria-roledescription="area mark" d="M0,300L25.806,300L51.613,300L77.419,300L103.226,300L129.032,300L154.839,300L180.645,187.5L206.452,187.5L232.258,150L258.065,187.5L283.871,187.5L309.677,187.5L335.484,262.5L361.29,37.5L387.097,262.5L412.903,150L438.71,262.5L464.516,300L490.323,225L516.129,262.5L541.935,300L567.742,262.5L593.548,262.5L619.355,262.5L645.161,225L670.968,300L696.774,75L722.581,300L748.387,262.5L774.194,187.5L800,300L800,300L774.194,187.5L748.387,262.5L722.581,300L696.774,75L670.968,300L645.161,225L619.355,262.5L593.548,262.5L567.742,262.5L541.935,300L516.129,262.5L490.323,225L464.516,300L438.71,262.5L412.903,150L387.097,262.5L361.29,37.5L335.484,262.5L309.677,187.5L283.871,187.5L258.065,187.5L232.258,150L206.452,187.5L180.645,187.5L154.839,300L129.032,300L103.226,300L77.419,300L51.613,300L25.806,300L0,300Z" fill="#eeca3b"/></g></g><path class="foreground" aria-hidden="true" d="" display="none"/></g><g transform="translate(0,0)"><path class="background" aria-hidden="true" d="M0,0h800v300h-800Z"/><g><g class="mark-area role-mark marks" role="graphics-object" aria-roledescription="area mark container"><path aria-label="Date: Mar 16, 2026; Unique Visitors/day: 0; Repository: karlmdavis/ansible-role-bind-dns" role="graphics-symbol" aria-roledescription="area mark" d="M0,300L25.806,300L51.613,300L77.419,300L103.226,300L129.032,300L154.839,300L180.645,187.5L206.452,187.5L232.258,150L258.065,187.5L283.871,187.5L309.677,187.5L335.484,262.5L361.29,37.5L387.097,262.5L412.903,150L438.71,262.5L464.516,300L490.323,225L516.129,262.5L541.935,300L567.742,262.5L593.548,262.5L619.355,262.5L645.161,225L670.968,300L696.774,75L722.581,300L748.387,262.5L774.194,187.5L800,300L800,300L774.194,225L748.387,262.5L722.581,300L696.774,75L670.968,300L645.161,225L619.355,262.5L593.548,262.5L567.742,262.5L541.935,300L516.129,262.5L490.323,262.5L464.516,300L438.71,262.5L412.903,150L387.097,262.5L361.29,37.5L335.484,262.5L309.677,225L283.871,187.5L258.065,187.5L232.258,187.5L206.452,187.5L180.645,187.5L154.839,300L129.032,300L103.226,300L77.419,300L51.613,300L25.806,300L0,300Z" fill="#b279a2"/></g></g><path class="foreground" aria-hidden="true" d="" display="none"/></g><g transform="translate(0,0)"><path class="background" aria-hidden="true" d="M0,0h800v300h-800Z"/><g><g class="mark-area role-mark marks" role="graphics-object" aria-roledescription="area mark container"><path aria-label="Date: Mar 16, 2026; Unique Visitors/day: 0; Repository: karlmdavis/ansible-role-jenkins2" role="graphics-symbol" aria-roledescription="area mark" d="M0,300L25.806,300L51.613,300L77.419,300L103.226,300L129.032,300L154.839,300L180.645,187.5L206.452,187.5L232.258,187.5L258.065,187.5L283.871,187.5L309.677,225L335.484,262.5L361.29,37.5L387.097,262.5L412.903,150L438.71,262.5L464.516,300L490.323,262.5L516.129,262.5L541.935,300L567.742,262.5L593.548,262.5L619.355,262.5L645.161,225L670.968,300L696.774,75L722.581,300L748.387,262.5L774.194,225L800,300L800,300L774.194,225L748.387,262.5L722.581,300L696.774,112.5L670.968,300L645.161,225L619.355,262.5L593.548,262.5L567.742,262.5L541.935,300L516.129,262.5L490.323,262.5L464.516,300L438.71,262.5L412.903,150L387.097,262.5L361.29,75L335.484,300L309.677,225L283.871,187.5L258.065,187.5L232.258,187.5L206.452,187.5L180.645,187.5L154.839,300L129.032,300L103.226,300L77.419,300L51.613,300L25.806,300L0,300Z" fill="#ff9da6"/></g></g><path class="foreground" aria-hidden="true" d="" display="none"/></g><g transform="translate(0,0)"><path class="background" aria-hidden="true" d="M0,0h800v300h-800Z"/><g><g class="mark-area role-mark marks" role="graphics-object" aria-roledescription="area mark container"><path aria-label="Date: Mar 16, 2026; Unique Visitors/day: 0; Repository: karlmdavis/ansible-role-ldap" role="graphics-symbol" aria-roledescription="area mark" d="M0,300L25.806,300L51.613,300L77.419,300L103.226,300L129.032,300L154.839,300L180.645,187.5L206.452,187.5L232.258,187.5L258.065,187.5L283.871,187.5L309.677,225L335.484,300L361.29,75L387.097,262.5L412.903,150L438.71,262.5L464.516,300L490.323,262.5L516.129,262.5L541.935,300L567.742,262.5L593.548,262.5L619.355,262.5L645.161,225L670.968,300L696.774,112.5L722.581,300L748.387,262.5L774.194,225L800,300L800,300L774.194,225L748.387,262.5L722.581,300L696.774,112.5L670.968,300L645.161,225L619.355,262.5L593.548,262.5L567.742,262.5L541.935,300L516.129,262.5L490.323,262.5L464.516,300L438.71,262.5L412.903,150L387.097,262.5L361.29,75L335.484,300L309.677,225L283.871,187.5L258.065,187.5L232.258,187.5L206.452,187.5L180.645,187.5L154.839,300L129.032,300L103.226,300L77.419,300L51.613,300L25.806,300L0,300Z" fill="#9d755d"/></g></g><path class="foreground" aria-hidden="true" d="" display="none"/></g><g transform="translate(0,0)"><path class="background" aria-hidden="true" d="M0,0h800v300h-800Z"/><g><g class="mark-area role-mark marks" role="graphics-object" aria-roledescription="area mark container"><path aria-label="Date: Mar 16, 2026; Unique Visitors/day: 0; Repository: karlmdavis/ansible-role-rcm-dotfiles" role="graphics-symbol" aria-roledescription="area mark" d="M0,300L25.806,300L51.613,300L77.419,300L103.226,300L129.032,300L154.839,300L180.645,187.5L206.452,187.5L232.258,187.5L258.065,187.5L283.871,187.5L309.677,225L335.484,300L361.29,75L387.097,262.5L412.903,150L438.71,262.5L464.516,300L490.323,262.5L516.129,262.5L541.935,300L567.742,262.5L593.548,262.5L619.355,262.5L645.161,225L670.968,300L696.774,112.5L722.581,300L748.387,262.5L774.194,225L800,300L800,300L774.194,225L748.387,262.5L722.581,300L696.774,112.5L670.968,300L645.161,225L619.355,262.5L593.548,262.5L567.742,262.5L541.935,300L516.129,262.5L490.323,262.5L464.516,300L438.71,262.5L412.903,150L387.097,262.5L361.29,75L335.484,300L309.677,225L283.871,187.5L258.065,187.5L232.258,187.5L206.452,187.5L180.645,187.5L154.839,300L129.032,300L103.226,300L77.419,300L51.613,300L25.806,300L0,300Z" fill="#bab0ac"/></g></g><path class="foreground" aria-hidden="true" d="" display="none"/></g><g transform="translate(0,0)"><path class="background" aria-hidden="true" d="M0,0h800v300h-800Z"/><g><g class="mark-area role-mark marks" role="graphics-object" aria-roledescription="area mark container"><path aria-label="Date: Mar 16, 2026; Unique Visitors/day: 0; Repository: karlmdavis/ansible-roles" role="graphics-symbol" aria-roledescription="area mark" d="M0,300L25.806,300L51.613,300L77.419,300L103.226,300L129.032,300L154.839,300L180.645,187.5L206.452,187.5L232.258,187.5L258.065,187.5L283.871,187.5L309.677,225L335.484,300L361.29,75L387.097,262.5L412.903,150L438.71,262.5L464.516,300L490.323,262.5L516.129,262.5L541.935,300L567.742,262.5L593.548,262.5L619.355,262.5L645.161,225L670.968,300L696.774,112.5L722.581,300L748.387,262.5L774.194,225L800,300L800,300L774.194,225L748.387,262.5L722.581,300L696.774,112.5L670.968,300L645.161,225L619.355,262.5L593.548,262.5L567.742,262.5L541.935,300L516.129,262.5L490.323,262.5L464.516,300L438.71,262.5L412.903,150L387.097,262.5L361.29,75L335.484,300L309.677,225L283.871,187.5L258.065,187.5L232.258,187.5L206.452,187.5L180.645,187.5L154.839,300L129.032,300L103.226,300L77.419,300L51.613,300L25.806,300L0,300Z" fill="#4c78a8"/></g></g><path class="foreground" aria-hidden="true" d="" display="none"/></g><g transform="translate(0,0)"><path class="background" aria-hidden="true" d="M0,0h800v300h-800Z"/><g><g class="mark-area role-mark marks" role="graphics-object" aria-roledescription="area mark container"><path aria-label="Date: Mar 16, 2026; Unique Visitors/day: 0; Repository: karlmdavis/bbonfhir-dev-infra-docker" role="graphics-symbol" aria-roledescription="area mark" d="M0,300L25.806,300L51.613,300L77.419,300L103.226,300L129.032,300L154.839,300L180.645,187.5L206.452,187.5L232.258,187.5L258.065,187.5L283.871,187.5L309.677,225L335.484,300L361.29,75L387.097,262.5L412.903,150L438.71,262.5L464.516,300L490.323,262.5L516.129,262.5L541.935,300L567.742,262.5L593.548,262.5L619.355,262.5L645.161,225L670.968,300L696.774,112.5L722.581,300L748.387,262.5L774.194,225L800,300L800,300L774.194,225L748.387,262.5L722.581,300L696.774,112.5L670.968,300L645.161,225L619.355,262.5L593.548,262.5L567.742,262.5L541.935,300L516.129,262.5L490.323,262.5L464.516,300L438.71,262.5L412.903,150L387.097,262.5L361.29,75L335.484,300L309.677,225L283.871,187.5L258.065,187.5L232.258,187.5L206.452,187.5L180.645,187.5L154.839,300L129.032,300L103.226,300L77.419,300L51.613,300L25.806,300L0,300Z" fill="#f58518"/></g></g><path class="foreground" aria-hidden="true" d="" display="none"/></g><g transform="translate(0,0)"><path class="background" aria-hidden="true" d="M0,0h800v300h-800Z"/><g><g class="mark-area role-mark marks" role="graphics-object" aria-roledescription="area mark container"><path aria-label="Date: Mar 16, 2026; Unique Visitors/day: 0; Repository: karlmdavis/can-i-kayak-baltimore" role="graphics-symbol" aria-roledescription="area mark" d="M0,300L25.806,300L51.613,300L77.419,300L103.226,300L129.032,300L154.839,300L180.645,187.5L206.452,187.5L232.258,187.5L258.065,187.5L283.871,187.5L309.677,225L335.484,300L361.29,75L387.097,262.5L412.903,150L438.71,262.5L464.516,300L490.323,262.5L516.129,262.5L541.935,300L567.742,262.5L593.548,262.5L619.355,262.5L645.161,225L670.968,300L696.774,112.5L722.581,300L748.387,262.5L774.194,225L800,300L800,300L774.194,225L748.387,262.5L722.581,300L696.774,112.5L670.968,300L645.161,225L619.355,262.5L593.548,262.5L567.742,262.5L541.935,300L516.129,262.5L490.323,262.5L464.516,300L438.71,262.5L412.903,150L387.097,262.5L361.29,75L335.484,300L309.677,225L283.871,187.5L258.065,187.5L232.258,187.5L206.452,187.5L180.645,187.5L154.839,300L129.032,300L103.226,300L77.419,300L51.613,300L25.806,300L0,300Z" fill="#e45756"/></g></g><path class="foreground" aria-hidden="true" d="" display="none"/></g><g transform="translate(0,0)"><path class="background" aria-hidden="true" d="M0,0h800v300h-800Z"/><g><g class="mark-area role-mark marks" role="graphics-object" aria-roledescription="area mark container"><path aria-label="Date: Mar 16, 2026; Unique Visitors/day: 0; Repository: karlmdavis/datanucleus-test-jdo-1-to-n" role="graphics-symbol" aria-roledescription="area mark" d="M0,300L25.806,300L51.613,300L77.419,300L103.226,300L129.032,300L154.839,300L180.645,187.5L206.452,187.5L232.258,187.5L258.065,187.5L283.871,187.5L309.677,225L335.484,300L361.29,75L387.097,262.5L412.903,150L438.71,262.5L464.516,300L490.323,262.5L516.129,262.5L541.935,300L567.742,262.5L593.548,262.5L619.355,262.5L645.161,225L670.968,300L696.774,112.5L722.581,300L748.387,262.5L774.194,225L800,300L800,300L774.194,225L748.387,262.5L722.581,300L696.774,112.5L670.968,300L645.161,225L619.355,262.5L593.548,262.5L567.742,262.5L541.935,300L516.129,262.5L490.323,262.5L464.516,300L438.71,262.5L412.903,150L387.097,262.5L361.29,75L335.484,300L309.677,225L283.871,187.5L258.065,187.5L232.258,187.5L206.452,187.5L180.645,187.5L154.839,300L129.032,300L103.226,300L77.419,300L51.613,300L25.806,300L0,300Z" fill="#72b7b2"/></g></g><path class="foreground" aria-hidden="true" d="" display="none"/></g><g transform="translate(0,0)"><path class="background" aria-hidden="true" d="M0,0h800v300h-800Z"/><g><g class="mark-area role-mark marks" role="graphics-object" aria-roledescription="area mark container"><path aria-label="Date: Mar 16, 2026; Unique Visitors/day: 0; Repository: karlmdavis/dotfiles" role="graphics-symbol" aria-roledescription="area mark" d="M0,300L25.806,300L51.613,300L77.419,300L103.226,300L129.032,300L154.839,300L180.645,187.5L206.452,187.5L232.258,187.5L258.065,187.5L283.871,187.5L309.677,225L335.484,300L361.29,75L387.097,262.5L412.903,150L438.71,262.5L464.516,300L490.323,262.5L516.129,262.5L541.935,300L567.742,262.5L593.548,262.5L619.355,262.5L645.161,225L670.968,300L696.774,112.5L722.581,300L748.387,262.5L774.194,225L800,300L800,300L774.194,225L748.387,262.5L722.581,300L696.774,112.5L670.968,300L645.161,225L619.355,262.5L593.548,262.5L567.742,262.5L541.935,300L516.129,262.5L490.323,262.5L464.516,300L438.71,262.5L412.903,150L387.097,262.5L361.29,75L335.484,300L309.677,225L283.871,187.5L258.065,187.5L232.258,187.5L206.452,187.5L180.645,187.5L154.839,300L129.032,300L103.226,300L77.419,300L51.613,300L25.806,300L0,300Z" fill="#54a24b"/></g></g><path class="foreground" aria-hidden="true" d="" display="none"/></g><g transform="translate(0,0)"><path class="background" aria-hidden="true" d="M0,0h800v300h-800Z"/><g><g class="mark-area role-mark marks" role="graphics-object" aria-roledescription="area mark container"><path aria-label="Date: Mar 16, 2026; Unique Visitors/day: 0; Repository: karlmdavis/fhir-benchmarks" role="graphics-symbol" aria-roledescription="area mark" d="M0,300L25.806,300L51.613,300L77.419,300L103.226,300L129.032,300L154.839,300L180.645,187.5L206.452,187.5L232.258,187.5L258.065,187.5L283.871,187.5L309.677,225L335.484,300L361.29,75L387.097,262.5L412.903,150L438.71,262.5L464.516,300L490.323,262.5L516.129,262.5L541.935,300L567.742,262.5L593.548,262.5L619.355,262.5L645.161,225L670.968,300L696.774,112.5L722.581,300L748.387,262.5L774.194,225L800,300L800,300L774.194,262.5L748.387,262.5L722.581,300L696.774,112.5L670.968,300L645.161,262.5L619.355,262.5L593.548,262.5L567.742,300L541.935,300L516.129,262.5L490.323,262.5L464.516,300L438.71,262.5L412.903,187.5L387.097,262.5L361.29,112.5L335.484,300L309.677,225L283.871,187.5L258.065,225L232.258,187.5L206.452,187.5L180.645,187.5L154.839,300L129.032,300L103.226,300L77.419,300L51.613,300L25.806,300L0,300Z" fill="#eeca3b"/></g></g><path class="foreground" aria-hidden="true" d="" display="none"/></g><g transform="translate(0,0)"><path class="background" aria-hidden="true" d="M0,0h800v300h-800Z"/><g><g class="mark-area role-mark marks" role="graphics-object" aria-roledescription="area mark container"><path aria-label="Date: Mar 16, 2026; Unique Visitors/day: 0; Repository: karlmdavis/hapi-fhir-jpaserver-starter" role="graphics-symbol" aria-roledescription="area mark" d="M0,300L25.806,300L51.613,300L77.419,300L103.226,300L129.032,300L154.839,300L180.645,187.5L206.452,187.5L232.258,187.5L258.065,225L283.871,187.5L309.677,225L335.484,300L361.29,112.5L387.097,262.5L412.903,187.5L438.71,262.5L464.516,300L490.323,262.5L516.129,262.5L541.935,300L567.742,300L593.548,262.5L619.355,262.5L645.161,262.5L670.968,300L696.774,112.5L722.581,300L748.387,262.5L774.194,262.5L800,300L800,300L774.194,262.5L748.387,262.5L722.581,300L696.774,112.5L670.968,300L645.161,262.5L619.355,262.5L593.548,262.5L567.742,300L541.935,300L516.129,262.5L490.323,262.5L464.516,300L438.71,262.5L412.903,187.5L387.097,262.5L361.29,112.5L335.484,300L309.677,225L283.871,187.5L258.065,225L232.258,187.5L206.452,187.5L180.645,187.5L154.839,300L129.032,300L103.226,300L77.419,300L51.613,300L25.806,300L0,300Z" fill="#b279a2"/></g></g><path class="foreground" aria-hidden="true" d="" display="none"/></g><g transform="translate(0,0)"><path class="background" aria-hidden="true" d="M0,0h800v300h-800Z"/><g><g class="mark-area role-mark marks" role="graphics-object" aria-roledescription="area mark container"><path aria-label="Date: Mar 16, 2026; Unique Visitors/day: 0; Repository: karlmdavis/hello-rust-actix" role="graphics-symbol" aria-roledescription="area mark" d="M0,300L25.806,300L51.613,300L77.419,300L103.226,300L129.032,300L154.839,300L180.645,187.5L206.452,187.5L232.258,187.5L258.065,225L283.871,187.5L309.677,225L335.484,300L361.29,112.5L387.097,262.5L412.903,187.5L438.71,262.5L464.516,300L490.323,262.5L516.129,262.5L541.935,300L567.742,300L593.548,262.5L619.355,262.5L645.161,262.5L670.968,300L696.774,112.5L722.581,300L748.387,262.5L774.194,262.5L800,300L800,300L774.194,262.5L748.387,262.5L722.581,300L696.774,112.5L670.968,300L645.161,262.5L619.355,262.5L593.548,262.5L567.742,300L541.935,300L516.129,262.5L490.323,262.5L464.516,300L438.71,262.5L412.903,187.5L387.097,262.5L361.29,112.5L335.484,300L309.677,225L283.871,187.5L258.065,225L232.258,187.5L206.452,187.5L180.645,187.5L154.839,300L129.032,300L103.226,300L77.419,300L51.613,300L25.806,300L0,300Z" fill="#ff9da6"/></g></g><path class="foreground" aria-hidden="true" d="" display="none"/></g><g transform="translate(0,0)"><path class="background" aria-hidden="true" d="M0,0h800v300h-800Z"/><g><g class="mark-area role-mark marks" role="graphics-object" aria-roledescription="area mark container"><path aria-label="Date: Mar 16, 2026; Unique Visitors/day: 0; Repository: karlmdavis/jessentials" role="graphics-symbol" aria-roledescription="area mark" d="M0,300L25.806,300L51.613,300L77.419,300L103.226,300L129.032,300L154.839,300L180.645,187.5L206.452,187.5L232.258,187.5L258.065,225L283.871,187.5L309.677,225L335.484,300L361.29,112.5L387.097,262.5L412.903,187.5L438.71,262.5L464.516,300L490.323,262.5L516.129,262.5L541.935,300L567.742,300L593.548,262.5L619.355,262.5L645.161,262.5L670.968,300L696.774,112.5L722.581,300L748.387,262.5L774.194,262.5L800,300L800,300L774.194,262.5L748.387,262.5L722.581,300L696.774,112.5L670.968,300L645.161,262.5L619.355,262.5L593.548,262.5L567.742,300L541.935,300L516.129,262.5L490.323,262.5L464.516,300L438.71,262.5L412.903,187.5L387.097,262.5L361.29,112.5L335.484,300L309.677,225L283.871,187.5L258.065,225L232.258,187.5L206.452,187.5L180.645,187.5L154.839,300L129.032,300L103.226,300L77.419,300L51.613,300L25.806,300L0,300Z" fill="#9d755d"/></g></g><path class="foreground" aria-hidden="true" d="" display="none"/></g><g transform="translate(0,0)"><path class="background" aria-hidden="true" d="M0,0h800v300h-800Z"/><g><g class="mark-area role-mark marks" role="graphics-object" aria-roledescription="area mark container"><path aria-label="Date: Mar 16, 2026; Unique Visitors/day: 0; Repository: karlmdavis/justdavis-ansible" role="graphics-symbol" aria-roledescription="area mark" d="M0,300L25.806,300L51.613,300L77.419,300L103.226,300L129.032,300L154.839,300L180.645,187.5L206.452,187.5L232.258,187.5L258.065,225L283.871,187.5L309.677,225L335.484,300L361.29,112.5L387.097,262.5L412.903,187.5L438.71,262.5L464.516,300L490.323,262.5L516.129,262.5L541.935,300L567.742,300L593.548,262.5L619.355,262.5L645.161,262.5L670.968,300L696.774,112.5L722.581,300L748.387,262.5L774.194,262.5L800,300L800,300L774.194,262.5L748.387,262.5L722.581,300L696.774,150L670.968,300L645.161,262.5L619.355,262.5L593.548,262.5L567.742,300L541.935,300L516.129,262.5L490.323,262.5L464.516,300L438.71,262.5L412.903,225L387.097,262.5L361.29,150L335.484,300L309.677,225L283.871,187.5L258.065,225L232.258,187.5L206.452,187.5L180.645,187.5L154.839,300L129.032,300L103.226,300L77.419,300L51.613,300L25.806,300L0,300Z" fill="#bab0ac"/></g></g><path class="foreground" aria-hidden="true" d="" display="none"/></g><g transform="translate(0,0)"><path class="background" aria-hidden="true" d="M0,0h800v300h-800Z"/><g><g class="mark-area role-mark marks" role="graphics-object" aria-roledescription="area mark container"><path aria-label="Date: Mar 16, 2026; Unique Visitors/day: 0; Repository: karlmdavis/justdavis-finances" role="graphics-symbol" aria-roledescription="area mark" d="M0,300L25.806,300L51.613,300L77.419,300L103.226,300L129.032,300L154.839,300L180.645,187.5L206.452,187.5L232.258,187.5L258.065,225L283.871,187.5L309.677,225L335.484,300L361.29,150L387.097,262.5L412.903,225L438.71,262.5L464.516,300L490.323,262.5L516.129,262.5L541.935,300L567.742,300L593.548,262.5L619.355,262.5L645.161,262.5L670.968,300L696.774,150L722.581,300L748.387,262.5L774.194,262.5L800,300L800,300L774.194,262.5L748.387,262.5L722.581,300L696.774,187.5L670.968,300L645.161,262.5L619.355,262.5L593.548,262.5L567.742,300L541.935,300L516.129,262.5L490.323,262.5L464.516,300L438.71,262.5L412.903,225L387.097,262.5L361.29,150L335.484,300L309.677,225L283.871,225L258.065,225L232.258,187.5L206.452,187.5L180.645,187.5L154.839,300L129.032,300L103.226,300L77.419,300L51.613,300L25.806,300L0,300Z" fill="#4c78a8"/></g></g><path class="foreground" aria-hidden="true" d="" display="none"/></g><g transform="translate(0,0)"><path class="background" aria-hidden="true" d="M0,0h800v300h-800Z"/><g><g class="mark-area role-mark marks" role="graphics-object" aria-roledescription="area mark container"><path aria-label="Date: Mar 16, 2026; Unique Visitors/day: 0; Repository: karlmdavis/justdavis-karl" role="graphics-symbol" aria-roledescription="area mark" d="M0,300L25.806,300L51.613,300L77.419,300L103.226,300L129.032,300L154.839,300L180.645,187.5L206.452,187.5L232.258,187.5L258.065,225L283.871,225L309.677,225L335.484,300L361.29,150L387.097,262.5L412.903,225L438.71,262.5L464.516,300L490.323,262.5L516.129,262.5L541.935,300L567.742,300L593.548,262.5L619.355,262.5L645.161,262.5L670.968,300L696.774,187.5L722.581,300L748.387,262.5L774.194,262.5L800,300L800,300L774.194,262.5L748.387,262.5L722.581,300L696.774,187.5L670.968,300L645.161,262.5L619.355,262.5L593.548,262.5L567.742,300L541.935,300L516.129,262.5L490.323,262.5L464.516,300L438.71,262.5L412.903,225L387.097,262.5L361.29,150L335.484,300L309.677,225L283.871,225L258.065,225L232.258,187.5L206.452,187.5L180.645,187.5L154.839,300L129.032,300L103.226,300L77.419,300L51.613,300L25.806,300L0,300Z" fill="#f58518"/></g></g><path class="foreground" aria-hidden="true" d="" display="none"/></g><g transform="translate(0,0)"><path class="background" aria-hidden="true" d="M0,0h800v300h-800Z"/><g><g class="mark-area role-mark marks" role="graphics-object" aria-roledescription="area mark container"><path aria-label="Date: Mar 16, 2026; Unique Visitors/day: 0; Repository: karlmdavis/justdavis-puppet" role="graphics-symbol" aria-roledescription="area mark" d="M0,300L25.806,300L51.613,300L77.419,300L103.226,300L129.032,300L154.839,300L180.645,187.5L206.452,187.5L232.258,187.5L258.065,225L283.871,225L309.677,225L335.484,300L361.29,150L387.097,262.5L412.903,225L438.71,262.5L464.516,300L490.323,262.5L516.129,262.5L541.935,300L567.742,300L593.548,262.5L619.355,262.5L645.161,262.5L670.968,300L696.774,187.5L722.581,300L748.387,262.5L774.194,262.5L800,300L800,300L774.194,262.5L748.387,262.5L722.581,300L696.774,187.5L670.968,300L645.161,262.5L619.355,262.5L593.548,262.5L567.742,300L541.935,300L516.129,262.5L490.323,262.5L464.516,300L438.71,262.5L412.903,225L387.097,262.5L361.29,150L335.484,300L309.677,225L283.871,225L258.065,225L232.258,187.5L206.452,187.5L180.645,187.5L154.839,300L129.032,300L103.226,300L77.419,300L51.613,300L25.806,300L0,300Z" fill="#e45756"/></g></g><path class="foreground" aria-hidden="true" d="" display="none"/></g><g transform="translate(0,0)"><path class="background" aria-hidden="true" d="M0,0h800v300h-800Z"/><g><g class="mark-area role-mark marks" role="graphics-object" aria-roledescription="area mark container"><path aria-label="Date: Mar 16, 2026; Unique Visitors/day: 0; Repository: karlmdavis/kobjects" role="graphics-symbol" aria-roledescription="area mark" d="M0,300L25.806,300L51.613,300L77.419,300L103.226,300L129.032,300L154.839,300L180.645,187.5L206.452,187.5L232.258,187.5L258.065,225L283.871,225L309.677,225L335.484,300L361.29,150L387.097,262.5L412.903,225L438.71,262.5L464.516,300L490.323,262.5L516.129,262.5L541.935,300L567.742,300L593.548,262.5L619.355,262.5L645.161,262.5L670.968,300L696.774,187.5L722.581,300L748.387,262.5L774.194,262.5L800,300L800,300L774.194,262.5L748.387,262.5L722.581,300L696.774,187.5L670.968,300L645.161,262.5L619.355,262.5L593.548,262.5L567.742,300L541.935,300L516.129,262.5L490.323,262.5L464.516,300L438.71,262.5L412.903,225L387.097,262.5L361.29,150L335.484,300L309.677,225L283.871,225L258.065,225L232.258,187.5L206.452,187.5L180.645,187.5L154.839,300L129.032,300L103.226,300L77.419,300L51.613,300L25.806,300L0,300Z" fill="#72b7b2"/></g></g><path class="foreground" aria-hidden="true" d="" display="none"/></g><g transform="translate(0,0)"><path class="background" aria-hidden="true" d="M0,0h800v300h-800Z"/><g><g class="mark-area role-mark marks" role="graphics-object" aria-roledescription="area mark container"><path aria-label="Date: Mar 16, 2026; Unique Visitors/day: 0; Repository: karlmdavis/ksoap2-android" role="graphics-symbol" aria-roledescription="area mark" d="M0,300L25.806,300L51.613,300L77.419,300L103.226,300L129.032,300L154.839,300L180.645,187.5L206.452,187.5L232.258,187.5L258.065,225L283.871,225L309.677,225L335.484,300L361.29,150L387.097,262.5L412.903,225L438.71,262.5L464.516,300L490.323,262.5L516.129,262.5L541.935,300L567.742,300L593.548,262.5L619.355,262.5L645.161,262.5L670.968,300L696.774,187.5L722.581,300L748.387,262.5L774.194,262.5L800,300L800,300L774.194,300L748.387,300L722.581,300L696.774,225L670.968,300L645.161,300L619.355,262.5L593.548,300L567.742,300L541.935,300L516.129,300L490.323,300L464.516,300L438.71,300L412.903,262.5L387.097,262.5L361.29,225L335.484,300L309.677,225L283.871,262.5L258.065,225L232.258,225L206.452,262.5L180.645,262.5L154.839,300L129.032,300L103.226,300L77.419,300L51.613,300L25.806,300L0,300Z" fill="#54a24b"/></g></g><path class="foreground" aria-hidden="true" d="" display="none"/></g><g transform="translate(0,0)"><path class="background" aria-hidden="true" d="M0,0h800v300h-800Z"/><g><g class="mark-area role-mark marks" role="graphics-object" aria-roledescription="area mark container"><path aria-label="Date: Mar 16, 2026; Unique Visitors/day: 0; Repository: karlmdavis/kxml2" role="graphics-symbol" aria-roledescription="area mark" d="M0,300L25.806,300L51.613,300L77.419,300L103.226,300L129.032,300L154.839,300L180.645,262.5L206.452,262.5L232.258,225L258.065,225L283.871,262.5L309.677,225L335.484,300L361.29,225L387.097,262.5L412.903,262.5L438.71,300L464.516,300L490.323,300L516.129,300L541.935,300L567.742,300L593.548,300L619.355,262.5L645.161,300L670.968,300L696.774,225L722.581,300L748.387,300L774.194,300L800,300L800,300L774.194,300L748.387,300L722.581,300L696.774,225L670.968,300L645.161,300L619.355,262.5L593.548,300L567.742,300L541.935,300L516.129,300L490.323,300L464.516,300L438.71,300L412.903,262.5L387.097,262.5L361.29,225L335.484,300L309.677,262.5L283.871,262.5L258.065,225L232.258,262.5L206.452,262.5L180.645,262.5L154.839,300L129.032,300L103.226,300L77.419,300L51.613,300L25.806,300L0,300Z" fill="#eeca3b"/></g></g><path class="foreground" aria-hidden="true" d="" display="none"/></g><g transform="translate(0,0)"><path class="background" aria-hidden="true" d="M0,0h800v300h-800Z"/><g><g class="mark-area role-mark marks" role="graphics-object" aria-roledescription="area mark container"><path aria-label="Date: Mar 16, 2026; Unique Visitors/day: 0; Repository: karlmdavis/ldap-plugin" role="graphics-symbol" aria-roledescription="area mark" d="M0,300L25.806,300L51.613,300L77.419,300L103.226,300L129.032,300L154.839,300L180.645,262.5L206.452,262.5L232.258,262.5L258.065,225L283.871,262.5L309.677,262.5L335.484,300L361.29,225L387.097,262.5L412.903,262.5L438.71,300L464.516,300L490.323,300L516.129,300L541.935,300L567.742,300L593.548,300L619.355,262.5L645.161,300L670.968,300L696.774,225L722.581,300L748.387,300L774.194,300L800,300L800,300L774.194,300L748.387,300L722.581,300L696.774,225L670.968,300L645.161,300L619.355,262.5L593.548,300L567.742,300L541.935,300L516.129,300L490.323,300L464.516,300L438.71,300L412.903,262.5L387.097,262.5L361.29,225L335.484,300L309.677,262.5L283.871,262.5L258.065,225L232.258,262.5L206.452,262.5L180.645,262.5L154.839,300L129.032,300L103.226,300L77.419,300L51.613,300L25.806,300L0,300Z" fill="#b279a2"/></g></g><path class="foreground" aria-hidden="true" d="" display="none"/></g><g transform="translate(0,0)"><path class="background" aria-hidden="true" d="M0,0h800v300h-800Z"/><g><g class="mark-area role-mark marks" role="graphics-object" aria-roledescription="area mark container"><path aria-label="Date: Mar 16, 2026; Unique Visitors/day: 0; Repository: karlmdavis/lego-ev3dev-rs" role="graphics-symbol" aria-roledescription="area mark" d="M0,300L25.806,300L51.613,300L77.419,300L103.226,300L129.032,300L154.839,300L180.645,262.5L206.452,262.5L232.258,262.5L258.065,225L283.871,262.5L309.677,262.5L335.484,300L361.29,225L387.097,262.5L412.903,262.5L438.71,300L464.516,300L490.323,300L516.129,300L541.935,300L567.742,300L593.548,300L619.355,262.5L645.161,300L670.968,300L696.774,225L722.581,300L748.387,300L774.194,300L800,300L800,300L774.194,300L748.387,300L722.581,300L696.774,225L670.968,300L645.161,300L619.355,262.5L593.548,300L567.742,300L541.935,300L516.129,300L490.323,300L464.516,300L438.71,300L412.903,262.5L387.097,262.5L361.29,225L335.484,300L309.677,262.5L283.871,262.5L258.065,225L232.258,262.5L206.452,262.5L180.645,262.5L154.839,300L129.032,300L103.226,300L77.419,300L51.613,300L25.806,300L0,300Z" fill="#ff9da6"/></g></g><path class="foreground" aria-hidden="true" d="" display="none"/></g><g transform="translate(0,0)"><path class="background" aria-hidden="true" d="M0,0h800v300h-800Z"/><g><g class="mark-area role-mark marks" role="graphics-object" aria-roledescription="area mark container"><path aria-label="Date: Mar 16, 2026; Unique Visitors/day: 0; Repository: karlmdavis/liquibase" role="graphics-symbol" aria-roledescription="area mark" d="M0,300L25.806,300L51.613,300L77.419,300L103.226,300L129.032,300L154.839,300L180.645,262.5L206.452,262.5L232.258,262.5L258.065,225L283.871,262.5L309.677,262.5L335.484,300L361.29,225L387.097,262.5L412.903,262.5L438.71,300L464.516,300L490.323,300L516.129,300L541.935,300L567.742,300L593.548,300L619.355,262.5L645.161,300L670.968,300L696.774,225L722.581,300L748.387,300L774.194,300L800,300L800,300L774.194,300L748.387,300L722.581,300L696.774,225L670.968,300L645.161,300L619.355,262.5L593.548,300L567.742,300L541.935,300L516.129,300L490.323,300L464.516,300L438.71,300L412.903,262.5L387.097,262.5L361.29,225L335.484,300L309.677,262.5L283.871,262.5L258.065,225L232.258,262.5L206.452,262.5L180.645,262.5L154.839,300L129.032,300L103.226,300L77.419,300L51.613,300L25.806,300L0,300Z" fill="#9d755d"/></g></g><path class="foreground" aria-hidden="true" d="" display="none"/></g><g transform="translate(0,0)"><path class="background" aria-hidden="true" d="M0,0h800v300h-800Z"/><g><g class="mark-area role-mark marks" role="graphics-object" aria-roledescription="area mark container"><path aria-label="Date: Mar 16, 2026; Unique Visitors/day: 0; Repository: karlmdavis/m2e-core" role="graphics-symbol" aria-roledescription="area mark" d="M0,300L25.806,300L51.613,300L77.419,300L103.226,300L129.032,300L154.839,300L180.645,262.5L206.452,262.5L232.258,262.5L258.065,225L283.871,262.5L309.677,262.5L335.484,300L361.29,225L387.097,262.5L412.903,262.5L438.71,300L464.516,300L490.323,300L516.129,300L541.935,300L567.742,300L593.548,300L619.355,262.5L645.161,300L670.968,300L696.774,225L722.581,300L748.387,300L774.194,300L800,300L800,300L774.194,300L748.387,300L722.581,300L696.774,225L670.968,300L645.161,300L619.355,262.5L593.548,300L567.742,300L541.935,300L516.129,300L490.323,300L464.516,300L438.71,300L412.903,262.5L387.097,262.5L361.29,225L335.484,300L309.677,262.5L283.871,262.5L258.065,225L232.258,262.5L206.452,262.5L180.645,262.5L154.839,300L129.032,300L103.226,300L77.419,300L51.613,300L25.806,300L0,300Z" fill="#bab0ac"/></g></g><path class="foreground" aria-hidden="true" d="" display="none"/></g><g transform="translate(0,0)"><path class="background" aria-hidden="true" d="M0,0h800v300h-800Z"/><g><g class="mark-area role-mark marks" role="graphics-object" aria-roledescription="area mark container"><path aria-label="Date: Mar 16, 2026; Unique Visitors/day: 0; Repository: karlmdavis/m2e-core-tests" role="graphics-symbol" aria-roledescription="area mark" d="M0,300L25.806,300L51.613,300L77.419,300L103.226,300L129.032,300L154.839,300L180.645,262.5L206.452,262.5L232.258,262.5L258.065,225L283.871,262.5L309.677,262.5L335.484,300L361.29,225L387.097,262.5L412.903,262.5L438.71,300L464.516,300L490.323,300L516.129,300L541.935,300L567.742,300L593.548,300L619.355,262.5L645.161,300L670.968,300L696.774,225L722.581,300L748.387,300L774.194,300L800,300L800,300L774.194,300L748.387,300L722.581,300L696.774,225L670.968,300L645.161,300L619.355,262.5L593.548,300L567.742,300L541.935,300L516.129,300L490.323,300L464.516,300L438.71,300L412.903,262.5L387.097,262.5L361.29,225L335.484,300L309.677,262.5L283.871,262.5L258.065,225L232.258,262.5L206.452,262.5L180.645,262.5L154.839,300L129.032,300L103.226,300L77.419,300L51.613,300L25.806,300L0,300Z" fill="#4c78a8"/></g></g><path class="foreground" aria-hidden="true" d="" display="none"/></g><g transform="translate(0,0)"><path class="background" aria-hidden="true" d="M0,0h800v300h-800Z"/><g><g class="mark-area role-mark marks" role="graphics-object" aria-roledescription="area mark container"><path aria-label="Date: Mar 16, 2026; Unique Visitors/day: 0; Repository: karlmdavis/obsidian-operator" role="graphics-symbol" aria-roledescription="area mark" d="M0,300L25.806,300L51.613,300L77.419,300L103.226,300L129.032,300L154.839,300L180.645,262.5L206.452,262.5L232.258,262.5L258.065,225L283.871,262.5L309.677,262.5L335.484,300L361.29,225L387.097,262.5L412.903,262.5L438.71,300L464.516,300L490.323,300L516.129,300L541.935,300L567.742,300L593.548,300L619.355,262.5L645.161,300L670.968,300L696.774,225L722.581,300L748.387,300L774.194,300L800,300L800,300L774.194,300L748.387,300L722.581,300L696.774,262.5L670.968,300L645.161,300L619.355,262.5L593.548,300L567.742,300L541.935,300L516.129,300L490.323,300L464.516,300L438.71,300L412.903,262.5L387.097,262.5L361.29,225L335.484,300L309.677,262.5L283.871,262.5L258.065,225L232.258,262.5L206.452,262.5L180.645,262.5L154.839,300L129.032,300L103.226,300L77.419,300L51.613,300L25.806,300L0,300Z" fill="#f58518"/></g></g><path class="foreground" aria-hidden="true" d="" display="none"/></g><g transform="translate(0,0)"><path class="background" aria-hidden="true" d="M0,0h800v300h-800Z"/><g><g class="mark-area role-mark marks" role="graphics-object" aria-roledescription="area mark container"><path aria-label="Date: Mar 16, 2026; Unique Visitors/day: 0; Repository: karlmdavis/perfect-note" role="graphics-symbol" aria-roledescription="area mark" d="M0,300L25.806,300L51.613,300L77.419,300L103.226,300L129.032,300L154.839,300L180.645,262.5L206.452,262.5L232.258,262.5L258.065,225L283.871,262.5L309.677,262.5L335.484,300L361.29,225L387.097,262.5L412.903,262.5L438.71,300L464.516,300L490.323,300L516.129,300L541.935,300L567.742,300L593.548,300L619.355,262.5L645.161,300L670.968,300L696.774,262.5L722.581,300L748.387,300L774.194,300L800,300L800,300L774.194,300L748.387,300L722.581,300L696.774,262.5L670.968,300L645.161,300L619.355,262.5L593.548,300L567.742,300L541.935,300L516.129,300L490.323,300L464.516,300L438.71,300L412.903,262.5L387.097,262.5L361.29,225L335.484,300L309.677,262.5L283.871,262.5L258.065,225L232.258,262.5L206.452,262.5L180.645,262.5L154.839,300L129.032,300L103.226,300L77.419,300L51.613,300L25.806,300L0,300Z" fill="#e45756"/></g></g><path class="foreground" aria-hidden="true" d="" display="none"/></g><g transform="translate(0,0)"><path class="background" aria-hidden="true" d="M0,0h800v300h-800Z"/><g><g class="mark-area role-mark marks" role="graphics-object" aria-roledescription="area mark container"><path aria-label="Date: Mar 16, 2026; Unique Visitors/day: 0; Repository: karlmdavis/puppet-archive" role="graphics-symbol" aria-roledescription="area mark" d="M0,300L25.806,300L51.613,300L77.419,300L103.226,300L129.032,300L154.839,300L180.645,262.5L206.452,262.5L232.258,262.5L258.065,225L283.871,262.5L309.677,262.5L335.484,300L361.29,225L387.097,262.5L412.903,262.5L438.71,300L464.516,300L490.323,300L516.129,300L541.935,300L567.742,300L593.548,300L619.355,262.5L645.161,300L670.968,300L696.774,262.5L722.581,300L748.387,300L774.194,300L800,300L800,300L774.194,300L748.387,300L722.581,300L696.774,262.5L670.968,300L645.161,300L619.355,262.5L593.548,300L567.742,300L541.935,300L516.129,300L490.323,300L464.516,300L438.71,300L412.903,262.5L387.097,262.5L361.29,225L335.484,300L309.677,262.5L283.871,262.5L258.065,225L232.258,262.5L206.452,262.5L180.645,262.5L154.839,300L129.032,300L103.226,300L77.419,300L51.613,300L25.806,300L0,300Z" fill="#72b7b2"/></g></g><path class="foreground" aria-hidden="true" d="" display="none"/></g><g transform="translate(0,0)"><path class="background" aria-hidden="true" d="M0,0h800v300h-800Z"/><g><g class="mark-area role-mark marks" role="graphics-object" aria-roledescription="area mark container"><path aria-label="Date: Mar 16, 2026; Unique Visitors/day: 0; Repository: karlmdavis/puppet-sonar" role="graphics-symbol" aria-roledescription="area mark" d="M0,300L25.806,300L51.613,300L77.419,300L103.226,300L129.032,300L154.839,300L180.645,262.5L206.452,262.5L232.258,262.5L258.065,225L283.871,262.5L309.677,262.5L335.484,300L361.29,225L387.097,262.5L412.903,262.5L438.71,300L464.516,300L490.323,300L516.129,300L541.935,300L567.742,300L593.548,300L619.355,262.5L645.161,300L670.968,300L696.774,262.5L722.581,300L748.387,300L774.194,300L800,300L800,300L774.194,300L748.387,300L722.581,300L696.774,262.5L670.968,300L645.161,300L619.355,262.5L593.548,300L567.742,300L541.935,300L516.129,300L490.323,300L464.516,300L438.71,300L412.903,262.5L387.097,262.5L361.29,225L335.484,300L309.677,262.5L283.871,262.5L258.065,225L232.258,262.5L206.452,262.5L180.645,262.5L154.839,300L129.032,300L103.226,300L77.419,300L51.613,300L25.806,300L0,300Z" fill="#54a24b"/></g></g><path class="foreground" aria-hidden="true" d="" display="none"/></g><g transform="translate(0,0)"><path class="background" aria-hidden="true" d="M0,0h800v300h-800Z"/><g><g class="mark-area role-mark marks" role="graphics-object" aria-roledescription="area mark container"><path aria-label="Date: Mar 16, 2026; Unique Visitors/day: 0; Repository: karlmdavis/rps-tourney" role="graphics-symbol" aria-roledescription="area mark" d="M0,300L25.806,300L51.613,300L77.419,300L103.226,300L129.032,300L154.839,300L180.645,262.5L206.452,262.5L232.258,262.5L258.065,225L283.871,262.5L309.677,262.5L335.484,300L361.29,225L387.097,262.5L412.903,262.5L438.71,300L464.516,300L490.323,300L516.129,300L541.935,300L567.742,300L593.548,300L619.355,262.5L645.161,300L670.968,300L696.774,262.5L722.581,300L748.387,300L774.194,300L800,300L800,300L774.194,300L748.387,300L722.581,300L696.774,300L670.968,300L645.161,300L619.355,262.5L593.548,300L567.742,300L541.935,300L516.129,300L490.323,300L464.516,300L438.71,300L412.903,300L387.097,262.5L361.29,225L335.484,300L309.677,262.5L283.871,300L258.065,225L232.258,262.5L206.452,300L180.645,300L154.839,300L129.032,300L103.226,300L77.419,300L51.613,300L25.806,300L0,300Z" fill="#eeca3b"/></g></g><path class="foreground" aria-hidden="true" d="" display="none"/></g><g transform="translate(0,0)"><path class="background" aria-hidden="true" d="M0,0h800v300h-800Z"/><g><g class="mark-area role-mark marks" role="graphics-object" aria-roledescription="area mark container"><path aria-label="Date: Mar 16, 2026; Unique Visitors/day: 0; Repository: karlmdavis/sample-maven-and-rcp" role="graphics-symbol" aria-roledescription="area mark" d="M0,300L25.806,300L51.613,300L77.419,300L103.226,300L129.032,300L154.839,300L180.645,300L206.452,300L232.258,262.5L258.065,225L283.871,300L309.677,262.5L335.484,300L361.29,225L387.097,262.5L412.903,300L438.71,300L464.516,300L490.323,300L516.129,300L541.935,300L567.742,300L593.548,300L619.355,262.5L645.161,300L670.968,300L696.774,300L722.581,300L748.387,300L774.194,300L800,300L800,300L774.194,300L748.387,300L722.581,300L696.774,300L670.968,300L645.161,300L619.355,262.5L593.548,300L567.742,300L541.935,300L516.129,300L490.323,300L464.516,300L438.71,300L412.903,300L387.097,262.5L361.29,225L335.484,300L309.677,262.5L283.871,300L258.065,225L232.258,262.5L206.452,300L180.645,300L154.839,300L129.032,300L103.226,300L77.419,300L51.613,300L25.806,300L0,300Z" fill="#b279a2"/></g></g><path class="foreground" aria-hidden="true" d="" display="none"/></g><g transform="translate(0,0)"><path class="background" aria-hidden="true" d="M0,0h800v300h-800Z"/><g><g class="mark-area role-mark marks" role="graphics-object" aria-roledescription="area mark container"><path aria-label="Date: Mar 16, 2026; Unique Visitors/day: 0; Repository: karlmdavis/stockfighter-trades-solutions" role="graphics-symbol" aria-roledescription="area mark" d="M0,300L25.806,300L51.613,300L77.419,300L103.226,300L129.032,300L154.839,300L180.645,300L206.452,300L232.258,262.5L258.065,225L283.871,300L309.677,262.5L335.484,300L361.29,225L387.097,262.5L412.903,300L438.71,300L464.516,300L490.323,300L516.129,300L541.935,300L567.742,300L593.548,300L619.355,262.5L645.161,300L670.968,300L696.774,300L722.581,300L748.387,300L774.194,300L800,300L800,300L774.194,300L748.387,300L722.581,300L696.774,300L670.968,300L645.161,300L619.355,262.5L593.548,300L567.742,300L541.935,300L516.129,300L490.323,300L464.516,300L438.71,300L412.903,300L387.097,262.5L361.29,225L335.484,300L309.677,262.5L283.871,300L258.065,225L232.258,262.5L206.452,300L180.645,300L154.839,300L129.032,300L103.226,300L77.419,300L51.613,300L25.806,300L0,300Z" fill="#ff9da6"/></g></g><path class="foreground" aria-hidden="true" d="" display="none"/></g><g transform="translate(0,0)"><path class="background" aria-hidden="true" d="M0,0h800v300h-800Z"/><g><g class="mark-area role-mark marks" role="graphics-object" aria-roledescription="area mark container"><path aria-label="Date: Mar 16, 2026; Unique Visitors/day: 0; Repository: karlmdavis/test-repo-for-move" role="graphics-symbol" aria-roledescription="area mark" d="M0,300L25.806,300L51.613,300L77.419,300L103.226,300L129.032,300L154.839,300L180.645,300L206.452,300L232.258,262.5L258.065,225L283.871,300L309.677,262.5L335.484,300L361.29,225L387.097,262.5L412.903,300L438.71,300L464.516,300L490.323,300L516.129,300L541.935,300L567.742,300L593.548,300L619.355,262.5L645.161,300L670.968,300L696.774,300L722.581,300L748.387,300L774.194,300L800,300L800,300L774.194,300L748.387,300L722.581,300L696.774,300L670.968,300L645.161,300L619.355,262.5L593.548,300L567.742,300L541.935,300L516.129,300L490.323,300L464.516,300L438.71,300L412.903,300L387.097,262.5L361.29,225L335.484,300L309.677,262.5L283.871,300L258.065,225L232.258,262.5L206.452,300L180.645,300L154.839,300L129.032,300L103.226,300L77.419,300L51.613,300L25.806,300L0,300Z" fill="#9d755d"/></g></g><path class="foreground" aria-hidden="true" d="" display="none"/></g><g transform="translate(0,0)"><path class="background" aria-hidden="true" d="M0,0h800v300h-800Z"/><g><g class="mark-area role-mark marks" role="graphics-object" aria-roledescription="area mark container"><path aria-label="Date: Mar 16, 2026; Unique Visitors/day: 0; Repository: karlmdavis/todoist-ai" role="graphics-symbol" aria-roledescription="area mark" d="M0,300L25.806,300L51.613,300L77.419,300L103.226,300L129.032,300L154.839,300L180.645,300L206.452,300L232.258,262.5L258.065,225L283.871,300L309.677,262.5L335.484,300L361.29,225L387.097,262.5L412.903,300L438.71,300L464.516,300L490.323,300L516.129,300L541.935,300L567.742,300L593.548,300L619.355,262.5L645.161,300L670.968,300L696.774,300L722.581,300L748.387,300L774.194,300L800,300L800,300L774.194,300L748.387,300L722.581,300L696.774,300L670.968,300L645.161,300L619.355,262.5L593.548,300L567.742,300L541.935,300L516.129,300L490.323,300L464.516,300L438.71,300L412.903,300L387.097,262.5L361.29,262.5L335.484,300L309.677,262.5L283.871,300L258.065,225L232.258,262.5L206.452,300L180.645,300L154.839,300L129.032,300L103.226,300L77.419,300L51.613,300L25.806,300L0,300Z" fill="#bab0ac"/></g></g><path class="foreground" aria-hidden="true" d="" display="none"/></g><g transform="translate(0,0)"><path class="background" aria-hidden="true" d="M0,0h800v300h-800Z"/><g><g class="mark-area role-mark marks" role="graphics-object" aria-roledescription="area mark container"><path aria-label="Date: Mar 16, 2026; Unique Visitors/day: 0; Repository: karlmdavis/usgs-water-api-java" role="graphics-symbol" aria-roledescription="area mark" d="M0,300L25.806,300L51.613,300L77.419,300L103.226,300L129.032,300L154.839,300L180.645,300L206.452,300L232.258,262.5L258.065,225L283.871,300L309.677,262.5L335.484,300L361.29,262.5L387.097,262.5L412.903,300L438.71,300L464.516,300L490.323,300L516.129,300L541.935,300L567.742,300L593.548,300L619.355,262.5L645.161,300L670.968,300L696.774,300L722.581,300L748.387,300L774.194,300L800,300L800,300L774.194,300L748.387,300L722.581,300L696.774,300L670.968,300L645.161,300L619.355,262.5L593.548,300L567.742,300L541.935,300L516.129,300L490.323,300L464.516,300L438.71,300L412.903,300L387.097,262.5L361.29,262.5L335.484,300L309.677,262.5L283.871,300L258.065,225L232.258,262.5L206.452,300L180.645,300L154.839,300L129.032,300L103.226,300L77.419,300L51.613,300L25.806,300L0,300Z" fill="#4c78a8"/></g></g><path class="foreground" aria-hidden="true" d="" display="none"/></g><g transform="translate(0,0)"><path class="background" aria-hidden="true" d="M0,0h800v300h-800Z"/><g><g class="mark-area role-mark marks" role="graphics-object" aria-roledescription="area mark container"><path aria-label="Date: Mar 16, 2026; Unique Visitors/day: 0; Repository: karlmdavis/workstation-base-ansible-role" role="graphics-symbol" aria-roledescription="area mark" d="M0,300L25.806,300L51.613,300L77.419,300L103.226,300L129.032,300L154.839,300L180.645,300L206.452,300L232.258,262.5L258.065,225L283.871,300L309.677,262.5L335.484,300L361.29,262.5L387.097,262.5L412.903,300L438.71,300L464.516,300L490.323,300L516.129,300L541.935,300L567.742,300L593.548,300L619.355,262.5L645.161,300L670.968,300L696.774,300L722.581,300L748.387,300L774.194,300L800,300L800,300L774.194,300L748.387,300L722.581,300L696.774,300L670.968,300L645.161,300L619.355,262.5L593.548,300L567.742,300L541.935,300L516.129,300L490.323,300L464.516,300L438.71,300L412.903,300L387.097,262.5L361.29,262.5L335.484,300L309.677,262.5L283.871,300L258.065,225L232.258,262.5L206.452,300L180.645,300L154.839,300L129.032,300L103.226,300L77.419,300L51.613,300L25.806,300L0,300Z" fill="#f58518"/></g></g><path class="foreground" aria-hidden="true" d="" display="none"/></g><g transform="translate(0,0)"><path class="background" aria-hidden="true" d="M0,0h800v300h-800Z"/><g><g class="mark-area role-mark marks" role="graphics-object" aria-roledescription="area mark container"><path aria-label="Date: Mar 16, 2026; Unique Visitors/day: 0; Repository: karlmdavis/xmlpull" role="graphics-symbol" aria-roledescription="area mark" d="M0,300L25.806,300L51.613,300L77.419,300L103.226,300L129.032,300L154.839,300L180.645,300L206.452,300L232.258,262.5L258.065,225L283.871,300L309.677,262.5L335.484,300L361.29,262.5L387.097,262.5L412.903,300L438.71,300L464.516,300L490.323,300L516.129,300L541.935,300L567.742,300L593.548,300L619.355,262.5L645.161,300L670.968,300L696.774,300L722.581,300L748.387,300L774.194,300L800,300L800,300L774.194,300L748.387,300L722.581,300L696.774,300L670.968,300L645.161,300L619.355,300L593.548,300L567.742,300L541.935,300L516.129,300L490.323,300L464.516,300L438.71,300L412.903,300L387.097,300L361.29,300L335.484,300L309.677,300L283.871,300L258.065,300L232.258,300L206.452,300L180.645,300L154.839,300L129.032,300L103.226,300L77.419,300L51.613,300L25.806,300L0,300Z" fill="#e45756"/></g></g><path class="foreground" aria-hidden="true" d="" display="none"/></g></g><g class="mark-group role-legend" role="graphics-symbol" aria-roledescription="legend" aria-label="Symbol legend titled 'Repository' for fill color with 43 values: justdavis-family/github-analytics-data, justdavis-family/justdavis, karlmdavis/FHIR-Server, karlmdavis/ansible, karlmdavis/ansible-jenkins, ending with karlmdavis/xmlpull"><g transform="translate(818,0)"><path class="background" aria-hidden="true" d="M0,0h176v404h-176Z" pointer-events="none"/><g><g class="mark-group role-legend-entry"><g transform="translate(0,16)"><path class="background" aria-hidden="true" d="M0,0h0v0h0Z" pointer-events="none"/><g><g class="mark-group role-scope" role="graphics-object" aria-roledescription="group mark container"><g transform="translate(0,0)"><path class="background" aria-hidden="true" d="M0,0h176v11h-176Z" pointer-events="none" opacity="1"/><g><g class="mark-symbol role-legend-symbol" pointer-events="none"><path transform="translate(6,6)" d="M5,0A5,5,0,1,1,-5,0A5,5,0,1,1,5,0" fill="#4c78a8" stroke-width="1.5" opacity="1"/></g><g class="mark-text role-legend-label" pointer-events="none"><text text-anchor="start" transform="translate(16,9)" font-family="sans-serif" font-size="10px" fill="#000" opacity="1">justdavis-family/github-analytics-d…</text></g></g><path class="foreground" aria-hidden="true" d="" pointer-events="none" display="none"/></g><g transform="translate(0,13)"><path class="background" aria-hidden="true" d="M0,0h176v11h-176Z" pointer-events="none" opacity="1"/><g><g class="mark-symbol role-legend-symbol" pointer-events="none"><path transform="translate(6,6)" d="M5,0A5,5,0,1,1,-5,0A5,5,0,1,1,5,0" fill="#f58518" stroke-width="1.5" opacity="1"/></g><g class="mark-text role-legend-label" pointer-events="none"><text text-anchor="start" transform="translate(16,9)" font-family="sans-serif" font-size="10px" fill="#000" opacity="1">justdavis-family/justdavis</text></g></g><path class="foreground" aria-hidden="true" d="" pointer-events="none" display="none"/></g><g transform="translate(0,26)"><path class="background" aria-hidden="true" d="M0,0h176v11h-176Z" pointer-events="none" opacity="1"/><g><g class="mark-symbol role-legend-symbol" pointer-events="none"><path transform="translate(6,6)" d="M5,0A5,5,0,1,1,-5,0A5,5,0,1,1,5,0" fill="#e45756" stroke-width="1.5" opacity="1"/></g><g class="mark-text role-legend-label" pointer-events="none"><text text-anchor="start" transform="translate(16,9)" font-family="sans-serif" font-size="10px" fill="#000" opacity="1">karlmdavis/FHIR-Server</text></g></g><path class="foreground" aria-hidden="true" d="" pointer-events="none" display="none"/></g><g transform="translate(0,39)"><path class="background" aria-hidden="true" d="M0,0h176v11h-176Z" pointer-events="none" opacity="1"/><g><g class="mark-symbol role-legend-symbol" pointer-events="none"><path transform="translate(6,6)" d="M5,0A5,5,0,1,1,-5,0A5,5,0,1,1,5,0" fill="#72b7b2" stroke-width="1.5" opacity="1"/></g><g class="mark-text role-legend-label" pointer-events="none"><text text-anchor="start" transform="translate(16,9)" font-family="sans-serif" font-size="10px" fill="#000" opacity="1">karlmdavis/ansible</text></g></g><path class="foreground" aria-hidden="true" d="" pointer-events="none" display="none"/></g><g transform="translate(0,52)"><path class="background" aria-hidden="true" d="M0,0h176v11h-176Z" pointer-events="none" opacity="1"/><g><g class="mark-symbol role-legend-symbol" pointer-events="none"><path transform="translate(6,6)" d="M5,0A5,5,0,1,1,-5,0A5,5,0,1,1,5,0" fill="#54a24b" stroke-width="1.5" opacity="1"/></g><g class="mark-text role-legend-label" pointer-events="none"><text text-anchor="start" transform="translate(16,9)" font-family="sans-serif" font-size="10px" fill="#000" opacity="1">karlmdavis/ansible-jenkins</text></g></g><path class="foreground" aria-hidden="true" d="" pointer-events="none" display="none"/></g><g transform="translate(0,65)"><path class="background" aria-hidden="true" d="M0,0h176v11h-176Z" pointer-events="none" opacity="1"/><g><g class="mark-symbol role-legend-symbol" pointer-events="none"><path transform="translate(6,6)" d="M5,0A5,5,0,1,1,-5,0A5,5,0,1,1,5,0" fill="#eeca3b" stroke-width="1.5" opacity="1"/></g><g class="mark-text role-legend-label" pointer-events="none"><text text-anchor="start" transform="translate(16,9)" font-family="sans-serif" font-size="10px" fill="#000" opacity="1">karlmdavis/ansible-role-acmetool</text></g></g><path class="foreground" aria-hidden="true" d="" pointer-events="none" display="none"/></g><g transform="translate(0,78)"><path class="background" aria-hidden="true" d="M0,0h176v11h-176Z" pointer-events="none" opacity="1"/><g><g class="mark-symbol role-legend-symbol" pointer-events="none"><path transform="translate(6,6)" d="M5,0A5,5,0,1,1,-5,0A5,5,0,1,1,5,0" fill="#b279a2" stroke-width="1.5" opacity="1"/></g><g class="mark-text role-legend-label" pointer-events="none"><text text-anchor="start" transform="translate(16,9)" font-family="sans-serif" font-size="10px" fill="#000" opacity="1">karlmdavis/ansible-role-bind-dns</text></g></g><path class="foreground" aria-hidden="true" d="" pointer-events="none" display="none"/></g><g transform="translate(0,91)"><path class="background" aria-hidden="true" d="M0,0h176v11h-176Z" pointer-events="none" opacity="1"/><g><g class="mark-symbol role-legend-symbol" pointer-events="none"><path transform="translate(6,6)" d="M5,0A5,5,0,1,1,-5,0A5,5,0,1,1,5,0" fill="#ff9da6" stroke-width="1.5" opacity="1"/></g><g class="mark-text role-legend-label" pointer-events="none"><text text-anchor="start" transform="translate(16,9)" font-family="sans-serif" font-size="10px" fill="#000" opacity="1">karlmdavis/ansible-role-jenkins2</text></g></g><path class="foreground" aria-hidden="true" d="" pointer-events="none" display="none"/></g><g transform="translate(0,104)"><path class="background" aria-hidden="true" d="M0,0h176v11h-176Z" pointer-events="none" opacity="1"/><g><g class="mark-symbol role-legend-symbol" pointer-events="none"><path transform="translate(6,6)" d="M5,0A5,5,0,1,1,-5,0A5,5,0,1,1,5,0" fill="#9d755d" stroke-width="1.5" opacity="1"/></g><g class="mark-text role-legend-label" pointer-events="none"><text text-anchor="start" transform="translate(16,9)" font-family="sans-serif" font-size="10px" fill="#000" opacity="1">karlmdavis/ansible-role-ldap</text></g></g><path class="foreground" aria-hidden="true" d="" pointer-events="none" display="none"/></g><g transform="translate(0,117)"><path class="background" aria-hidden="true" d="M0,0h176v11h-176Z" pointer-events="none" opacity="1"/><g><g class="mark-symbol role-legend-symbol" pointer-events="none"><path transform="translate(6,6)" d="M5,0A5,5,0,1,1,-5,0A5,5,0,1,1,5,0" fill="#bab0ac" stroke-width="1.5" opacity="1"/></g><g class="mark-text role-legend-label" pointer-events="none"><text text-anchor="start" transform="translate(16,9)" font-family="sans-serif" font-size="10px" fill="#000" opacity="1">karlmdavis/ansible-role-rcm-dotfiles</text></g></g><path class="foreground" aria-hidden="true" d="" pointer-events="none" display="none"/></g><g transform="translate(0,130)"><path class="background" aria-hidden="true" d="M0,0h176v11h-176Z" pointer-events="none" opacity="1"/><g><g class="mark-symbol role-legend-symbol" pointer-events="none"><path transform="translate(6,6)" d="M5,0A5,5,0,1,1,-5,0A5,5,0,1,1,5,0" fill="#4c78a8" stroke-width="1.5" opacity="1"/></g><g class="mark-text role-legend-label" pointer-events="none"><text text-anchor="start" transform="translate(16,9)" font-family="sans-serif" font-size="10px" fill="#000" opacity="1">karlmdavis/ansible-roles</text></g></g><path class="foreground" aria-hidden="true" d="" pointer-events="none" display="none"/></g><g transform="translate(0,143)"><path class="background" aria-hidden="true" d="M0,0h176v11h-176Z" pointer-events="none" opacity="1"/><g><g class="mark-symbol role-legend-symbol" pointer-events="none"><path transform="translate(6,6)" d="M5,0A5,5,0,1,1,-5,0A5,5,0,1,1,5,0" fill="#f58518" stroke-width="1.5" opacity="1"/></g><g class="mark-text role-legend-label" pointer-events="none"><text text-anchor="start" transform="translate(16,9)" font-family="sans-serif" font-size="10px" fill="#000" opacity="1">karlmdavis/bbonfhir-dev-infra-doc…</text></g></g><path class="foreground" aria-hidden="true" d="" pointer-events="none" display="none"/></g><g transform="translate(0,156)"><path class="background" aria-hidden="true" d="M0,0h176v11h-176Z" pointer-events="none" opacity="1"/><g><g class="mark-symbol role-legend-symbol" pointer-events="none"><path transform="translate(6,6)" d="M5,0A5,5,0,1,1,-5,0A5,5,0,1,1,5,0" fill="#e45756" stroke-width="1.5" opacity="1"/></g><g class="mark-text role-legend-label" pointer-events="none"><text text-anchor="start" transform="translate(16,9)" font-family="sans-serif" font-size="10px" fill="#000" opacity="1">karlmdavis/can-i-kayak-baltimore</text></g></g><path class="foreground" aria-hidden="true" d="" pointer-events="none" display="none"/></g><g transform="translate(0,169)"><path class="background" aria-hidden="true" d="M0,0h176v11h-176Z" pointer-events="none" opacity="1"/><g><g class="mark-symbol role-legend-symbol" pointer-events="none"><path transform="translate(6,6)" d="M5,0A5,5,0,1,1,-5,0A5,5,0,1,1,5,0" fill="#72b7b2" stroke-width="1.5" opacity="1"/></g><g class="mark-text role-legend-label" pointer-events="none"><text text-anchor="start" transform="translate(16,9)" font-family="sans-serif" font-size="10px" fill="#000" opacity="1">karlmdavis/datanucleus-test-jdo-1…</text></g></g><path class="foreground" aria-hidden="true" d="" pointer-events="none" display="none"/></g><g transform="translate(0,182)"><path class="background" aria-hidden="true" d="M0,0h176v11h-176Z" pointer-events="none" opacity="1"/><g><g class="mark-symbol role-legend-symbol" pointer-events="none"><path transform="translate(6,6)" d="M5,0A5,5,0,1,1,-5,0A5,5,0,1,1,5,0" fill="#54a24b" stroke-width="1.5" opacity="1"/></g><g class="mark-text role-legend-label" pointer-events="none"><text text-anchor="start" transform="translate(16,9)" font-family="sans-serif" font-size="10px" fill="#000" opacity="1">karlmdavis/dotfiles</text></g></g><path class="foreground" aria-hidden="true" d="" pointer-events="none" display="none"/></g><g transform="translate(0,195)"><path class="background" aria-hidden="true" d="M0,0h176v11h-176Z" pointer-events="none" opacity="1"/><g><g class="mark-symbol role-legend-symbol" pointer-events="none"><path transform="translate(6,6)" d="M5,0A5,5,0,1,1,-5,0A5,5,0,1,1,5,0" fill="#eeca3b" stroke-width="1.5" opacity="1"/></g><g class="mark-text role-legend-label" pointer-events="none"><text text-anchor="start" transform="translate(16,9)" font-family="sans-serif" font-size="10px" fill="#000" opacity="1">karlmdavis/fhir-benchmarks</text></g></g><path class="foreground" aria-hidden="true" d="" pointer-events="none" display="none"/></g><g transform="translate(0,208)"><path class="background" aria-hidden="true" d="M0,0h176v11h-176Z" pointer-events="none" opacity="1"/><g><g class="mark-symbol role-legend-symbol" pointer-events="none"><path transform="translate(6,6)" d="M5,0A5,5,0,1,1,-5,0A5,5,0,1,1,5,0" fill="#b279a2" stroke-width="1.5" opacity="1"/></g><g class="mark-text role-legend-label" pointer-events="none"><text text-anchor="start" transform="translate(16,9)" font-family="sans-serif" font-size="10px" fill="#000" opacity="1">karlmdavis/hapi-fhir-jpaserver-sta…</text></g></g><path class="foreground" aria-hidden="true" d="" pointer-events="none" display="none"/></g><g transform="translate(0,221)"><path class="background" aria-hidden="true" d="M0,0h176v11h-176Z" pointer-events="none" opacity="1"/><g><g class="mark-symbol role-legend-symbol" pointer-events="none"><path transform="translate(6,6)" d="M5,0A5,5,0,1,1,-5,0A5,5,0,1,1,5,0" fill="#ff9da6" stroke-width="1.5" opacity="1"/></g><g class="mark-text role-legend-label" pointer-events="none"><text text-anchor="start" transform="translate(16,9)" font-family="sans-serif" font-size="10px" fill="#000" opacity="1">karlmdavis/hello-rust-actix</text></g></g><path class="foreground" aria-hidden="true" d="" pointer-events="none" display="none"/></g><g transform="translate(0,234)"><path class="background" aria-hidden="true" d="M0,0h176v11h-176Z" pointer-events="none" opacity="1"/><g><g class="mark-symbol role-legend-symbol" pointer-events="none"><path transform="translate(6,6)" d="M5,0A5,5,0,1,1,-5,0A5,5,0,1,1,5,0" fill="#9d755d" stroke-width="1.5" opacity="1"/></g><g class="mark-text role-legend-label" pointer-events="none"><text text-anchor="start" transform="translate(16,9)" font-family="sans-serif" font-size="10px" fill="#000" opacity="1">karlmdavis/jessentials</text></g></g><path class="foreground" aria-hidden="true" d="" pointer-events="none" display="none"/></g><g transform="translate(0,247)"><path class="background" aria-hidden="true" d="M0,0h176v11h-176Z" pointer-events="none" opacity="1"/><g><g class="mark-symbol role-legend-symbol" pointer-events="none"><path transform="translate(6,6)" d="M5,0A5,5,0,1,1,-5,0A5,5,0,1,1,5,0" fill="#bab0ac" stroke-width="1.5" opacity="1"/></g><g class="mark-text role-legend-label" pointer-events="none"><text text-anchor="start" transform="translate(16,9)" font-family="sans-serif" font-size="10px" fill="#000" opacity="1">karlmdavis/justdavis-ansible</text></g></g><path class="foreground" aria-hidden="true" d="" pointer-events="none" display="none"/></g><g transform="translate(0,260)"><path class="background" aria-hidden="true" d="M0,0h176v11h-176Z" pointer-events="none" opacity="1"/><g><g class="mark-symbol role-legend-symbol" pointer-events="none"><path transform="translate(6,6)" d="M5,0A5,5,0,1,1,-5,0A5,5,0,1,1,5,0" fill="#4c78a8" stroke-width="1.5" opacity="1"/></g><g class="mark-text role-legend-label" pointer-events="none"><text text-anchor="start" transform="translate(16,9)" font-family="sans-serif" font-size="10px" fill="#000" opacity="1">karlmdavis/justdavis-finances</text></g></g><path class="foreground" aria-hidden="true" d="" pointer-events="none" display="none"/></g><g transform="translate(0,273)"><path class="background" aria-hidden="true" d="M0,0h176v11h-176Z" pointer-events="none" opacity="1"/><g><g class="mark-symbol role-legend-symbol" pointer-events="none"><path transform="translate(6,6)" d="M5,0A5,5,0,1,1,-5,0A5,5,0,1,1,5,0" fill="#f58518" stroke-width="1.5" opacity="1"/></g><g class="mark-text role-legend-label" pointer-events="none"><text text-anchor="start" transform="translate(16,9)" font-family="sans-serif" font-size="10px" fill="#000" opacity="1">karlmdavis/justdavis-karl</text></g></g><path class="foreground" aria-hidden="true" d="" pointer-events="none" display="none"/></g><g transform="translate(0,286)"><path class="background" aria-hidden="true" d="M0,0h176v11h-176Z" pointer-events="none" opacity="1"/><g><g class="mark-symbol role-legend-symbol" pointer-events="none"><path transform="translate(6,6)" d="M5,0A5,5,0,1,1,-5,0A5,5,0,1,1,5,0" fill="#e45756" stroke-width="1.5" opacity="1"/></g><g class="mark-text role-legend-label" pointer-events="none"><text text-anchor="start" transform="translate(16,9)" font-family="sans-serif" font-size="10px" fill="#000" opacity="1">karlmdavis/justdavis-puppet</text></g></g><path class="foreground" aria-hidden="true" d="" pointer-events="none" display="none"/></g><g transform="translate(0,299)"><path class="background" aria-hidden="true" d="M0,0h176v11h-176Z" pointer-events="none" opacity="1"/><g><g class="mark-symbol role-legend-symbol" pointer-events="none"><path transform="translate(6,6)" d="M5,0A5,5,0,1,1,-5,0A5,5,0,1,1,5,0" fill="#72b7b2" stroke-width="1.5" opacity="1"/></g><g class="mark-text role-legend-label" pointer-events="none"><text text-anchor="start" transform="translate(16,9)" font-family="sans-serif" font-size="10px" fill="#000" opacity="1">karlmdavis/kobjects</text></g></g><path class="foreground" aria-hidden="true" d="" pointer-events="none" display="none"/></g><g transform="translate(0,312)"><path class="background" aria-hidden="true" d="M0,0h176v11h-176Z" pointer-events="none" opacity="1"/><g><g class="mark-symbol role-legend-symbol" pointer-events="none"><path transform="translate(6,6)" d="M5,0A5,5,0,1,1,-5,0A5,5,0,1,1,5,0" fill="#54a24b" stroke-width="1.5" opacity="1"/></g><g class="mark-text role-legend-label" pointer-events="none"><text text-anchor="start" transform="translate(16,9)" font-family="sans-serif" font-size="10px" fill="#000" opacity="1">karlmdavis/ksoap2-android</text></g></g><path class="foreground" aria-hidden="true" d="" pointer-events="none" display="none"/></g><g transform="translate(0,325)"><path class="background" aria-hidden="true" d="M0,0h176v11h-176Z" pointer-events="none" opacity="1"/><g><g class="mark-symbol role-legend-symbol" pointer-events="none"><path transform="translate(6,6)" d="M5,0A5,5,0,1,1,-5,0A5,5,0,1,1,5,0" fill="#eeca3b" stroke-width="1.5" opacity="1"/></g><g class="mark-text role-legend-label" pointer-events="none"><text text-anchor="start" transform="translate(16,9)" font-family="sans-serif" font-size="10px" fill="#000" opacity="1">karlmdavis/kxml2</text></g></g><path class="foreground" aria-hidden="true" d="" pointer-events="none" display="none"/></g><g transform="translate(0,338)"><path class="background" aria-hidden="true" d="M0,0h176v11h-176Z" pointer-events="none" opacity="1"/><g><g class="mark-symbol role-legend-symbol" pointer-events="none"><path transform="translate(6,6)" d="M5,0A5,5,0,1,1,-5,0A5,5,0,1,1,5,0" fill="#b279a2" stroke-width="1.5" opacity="1"/></g><g class="mark-text role-legend-label" pointer-events="none"><text text-anchor="start" transform="translate(16,9)" font-family="sans-serif" font-size="10px" fill="#000" opacity="1">karlmdavis/ldap-plugin</text></g></g><path class="foreground" aria-hidden="true" d="" pointer-events="none" display="none"/></g><g transform="translate(0,351)"><path class="background" aria-hidden="true" d="M0,0h176v11h-176Z" pointer-events="none" opacity="1"/><g><g class="mark-symbol role-legend-symbol" pointer-events="none"><path transform="translate(6,6)" d="M5,0A5,5,0,1,1,-5,0A5,5,0,1,1,5,0" fill="#ff9da6" stroke-width="1.5" opacity="1"/></g><g class="mark-text role-legend-label" pointer-events="none"><text text-anchor="start" transform="translate(16,9)" font-family="sans-serif" font-size="10px" fill="#000" opacity="1">karlmdavis/lego-ev3dev-rs</text></g></g><path class="foreground" aria-hidden="true" d="" pointer-events="none" display="none"/></g><g transform="translate(0,364)"><path class="background" aria-hidden="true" d="M0,0h176v11h-176Z" pointer-events="none" opacity="1"/><g><g class="mark-symbol role-legend-symbol" pointer-events="none"><path transform="translate(6,6)" d="M5,0A5,5,0,1,1,-5,0A5,5,0,1,1,5,0" fill="#9d755d" stroke-width="1.5" opacity="1"/></g><g class="mark-text role-legend-label" pointer-events="none"><text text-anchor="start" transform="translate(16,9)" font-family="sans-serif" font-size="10px" fill="#000" opacity="1">karlmdavis/liquibase</text></g></g><path class="foreground" aria-hidden="true" d="" pointer-events="none" display="none"/></g><g transform="translate(0,377)"><path class="background" aria-hidden="true" d="M0,0h176v11h-176Z" pointer-events="none" opacity="1"/><g><g class="mark-symbol role-legend-symbol" pointer-events="none"><path transform="translate(6,6)" d="M5,0A5,5,0,1,1,-5,0A5,5,0,1,1,5,0" fill="#bab0ac" stroke-width="1.5" opacity="1"/></g><g class="mark-text role-legend-label" pointer-events="none"><text text-anchor="start" transform="translate(16,9)" font-family="sans-serif" font-size="10px" fill="#000" opacity="1">…14 entries</text></g></g><path class="foreground" aria-hidden="true" d="" pointer-events="none" display="none"/></g></g></g><path class="foreground" aria-hidden="true" d="" pointer-events="none" display="none"/></g></g><g class="mark-text role-legend-title" pointer-events="none"><text text-anchor="start" transform="translate(0,9)" font-family="sans-serif" font-size="11px" font-weight="bold" fill="#000" opacity="1">Repository</text></g></g><path class="foreground" aria-hidden="true" d="" pointer-events="none" display="none"/></g></g><g class="mark-group role-title"><g transform="translate(400,-22)"><path class="background" aria-hidden="true" d="M0,0h0v0h0Z" pointer-events="none"/><g><g class="mark-text role-title-text" role="graphics-symbol" aria-roledescription="title" aria-label="Title text 'Unique Visitors per Day'" pointer-events="none"><text text-anchor="middle" transform="translate(0,10)" font-family="sans-serif" font-size="13px" font-weight="bold" fill="#000" opacity="1">Unique Visitors per Day</text></g></g><path class="foreground" aria-hidden="true" d="" pointer-events="none" display="none"/></g></g></g><path class="foreground" aria-hidden="true" d="" display="none"/></g></g></g></svg>