<svg xmlns="http://www.w3.org/2000/svg" xmlns:xlink="http://www.w3.org/1999/xlink" version="1.1" class="marks" width="1032" height="436" viewBox="0 0 1032 436"><rect width="1032" height="436" fill="white"/><g fill="none" stroke-miterlimit="10" transform="translate(33,27)"><g class="mark-group role-frame root" role="graphics-object" aria-roledescription="group mark container"><g transform="translate(0,0)"><path class="background" aria-hidden="true" d="M0.5,0.5h800v300h-800Z" stroke="#ddd"/><g><g class="mark-group role-axis" aria-hidden="true"><g transform="translate(0.5,300.5)"><path class="background" aria-hidden="true" d="M0,0h0v0h0Z" pointer-events="none"/><g><g class="mark-rule role-axis-grid" pointer-events="none"><line transform="translate(21,-300)" x2="0" y2="300" stroke="#ddd" stroke-width="1" opacity="1"/><line transform="translate(63,-300)" x2="0" y2="300" stroke="#ddd" stroke-width="1" opacity="1"/><line transform="translate(105,-300)" x2="0" y2="300" stroke="#ddd" stroke-width="1" opacity="1"/><line transform="translate(147,-300)" x2="0" y2="300" stroke="#ddd" stroke-width="1" opacity="1"/><line transform="translate(189,-300)" x2="0" y2="300" stroke="#ddd" stroke-width="1" opacity="1"/><line transform="translate(232,-300)" x2="0" y2="300" stroke="#ddd" stroke-width="1" opacity="1"/><line transform="translate(274,-300)" x2="0" y2="300" stroke="#ddd" stroke-width="1" opacity="1"/><line transform="translate(316,-300)" x2="0" y2="300" stroke="#ddd" stroke-width="1" opacity="1"/><line transform="translate(337,-300)" x2="0" y2="300" stroke="#ddd" stroke-width="1" opacity="1"/><line transform="translate(379,-300)" x2="0" y2="300" stroke="#ddd" stroke-width="1" opacity="1"/><line transform="translate(421,-300)" x2="0" y2="300" stroke="#ddd" stroke-width="1" opacity="1"/><line transform="translate(463,-300)" x2="0" y2="300" stroke="#ddd" stroke-width="1" opacity="1"/><line transform="translate(505,-300)" x2="0" y2="300" stroke="#ddd" stroke-width="1" opacity="1"/><line transform="translate(547,-300)" x2="0" y2="300" stroke="#ddd" stroke-width="1" opacity="1"/><line transform="translate(589,-300)" x2="0" y2="300" stroke="#ddd" stroke-width="1" opacity="1"/><line transform="translate(632,-300)" x2="0" y2="300" stroke="#ddd" stroke-width="1" opacity="1"/><line transform="translate(674,-300)" x2="0" y2="300" stroke="#ddd" stroke-width="1" opacity="1"/><line transform="translate(716,-300)" x2="0" y2="300" stroke="#ddd" stroke-width="1" opacity="1"/><line transform="translate(758,-300)" x2="0" y2="300" stroke="#ddd" stroke-width="1" opacity="1"/><line transform="translate(800,-300)" x2="0" y2="300" stroke="#ddd" stroke-width="1" opacity="1"/></g></g><path class="foreground" aria-hidden="true" d="" pointer-events="none" display="none"/></g></g><g class="mark-group role-axis" aria-hidden="true"><g transform="translate(0.5,0.5)"><path class="background" aria-hidden="true" d="M0,0h0v0h0Z" pointer-events="none"/><g><g class="mark-rule role-axis-grid" pointer-events="none"><line transform="translate(0,300)" x2="800" y2="0" stroke="#ddd" stroke-width="1" opacity="1"/><line transform="translate(0,263)" x2="800" y2="0" stroke="#ddd" stroke-width="1" opacity="1"/><line transform="translate(0,225)" x2="800" y2="0" stroke="#ddd" stroke-width="1" opacity="1"/><line transform="translate(0,188)" x2="800" y2="0" stroke="#ddd" stroke-width="1" opacity="1"/><line transform="translate(0,150)" x2="800" y2="0" stroke="#ddd" stroke-width="1" opacity="1"/><line transform="translate(0,113)" x2="800" y2="0" stroke="#ddd" stroke-width="1" opacity="1"/><line transform="translate(0,75)" x2="800" y2="0" stroke="#ddd" stroke-width="1" opacity="1"/><line transform="translate(0,38)" x2="800" y2="0" stroke="#ddd" stroke-width="1" opacity="1"/><line transform="translate(0,0)" x2="800" y2="0" stroke="#ddd" stroke-width="1" opacity="1"/></g></g><path class="foreground" aria-hidden="true" d="" pointer-events="none" display="none"/></g></g><g class="mark-group role-axis" role="graphics-symbol" aria-roledescription="axis" aria-label="X-axis titled 'Date' for a time scale with values from Monday, 16 March 2026, 12:00:00 AM to Thursday, 23 April 2026, 12:00:00 AM"><g transform="translate(0.5,300.5)"><path class="background" aria-hidden="true" d="M0,0h0v0h0Z" pointer-events="none"/><g><g class="mark-rule role-axis-tick" pointer-events="none"><line transform="translate(21,0)" x2="0" y2="5" stroke="#888" stroke-width="1" opacity="1"/><line transform="translate(63,0)" x2="0" y2="5" stroke="#888" stroke-width="1" opacity="1"/><line transform="translate(105,0)" x2="0" y2="5" stroke="#888" stroke-width="1" opacity="1"/><line transform="translate(147,0)" x2="0" y2="5" stroke="#888" stroke-width="1" opacity="1"/><line transform="translate(189,0)" x2="0" y2="5" stroke="#888" stroke-width="1" opacity="1"/><line transform="translate(232,0)" x2="0" y2="5" stroke="#888" stroke-width="1" opacity="1"/><line transform="translate(274,0)" x2="0" y2="5" stroke="#888" stroke-width="1" opacity="1"/><line transform="translate(316,0)" x2="0" y2="5" stroke="#888" stroke-width="1" opacity="1"/><line transform="translate(337,0)" x2="0" y2="5" stroke="#888" stroke-width="1" opacity="1"/><line transform="translate(379,0)" x2="0" y2="5" stroke="#888" stroke-width="1" opacity="1"/><line transform="translate(421,0)" x2="0" y2="5" stroke="#888" stroke-width="1" opacity="1"/><line transform="translate(463,0)" x2="0" y2="5" stroke="#888" stroke-width="1" opacity="1"/><line transform="translate(505,0)" x2="0" y2="5" stroke="#888" stroke-width="1" opacity="1"/><line transform="translate(547,0)" x2="0" y2="5" stroke="#888" stroke-width="1" opacity="1"/><line transform="translate(589,0)" x2="0" y2="5" stroke="#888" stroke-width="1" opacity="1"/><line transform="translate(632,0)" x2="0" y2="5" stroke="#888" stroke-width="1" opacity="1"/><line transform="translate(674,0)" x2="0" y2="5" stroke="#888" stroke-width="1" opacity="1"/><line transform="translate(716,0)" x2="0" y2="5" stroke="#888" stroke-width="1" opacity="1"/><line transform="translate(758,0)" x2="0" y2="5" stroke="#888" stroke-width="1" opacity="1"/><line transform="translate(800,0)" x2="0" y2="5" stroke="#888" stroke-width="1" opacity="1"/></g><g class="mark-text role-axis-label" pointer-events="none"><text text-anchor="middle" transform="translate(21.052631578947366,15)" font-family="sans-serif" font-size="10px" fill="#000" opacity="1">Tue 17</text><text text-anchor="middle" transform="translate(63.1578947368421,15)" font-family="sans-serif" font-size="10px" fill="#000" opacity="0">Thu 19</text><text text-anchor="middle" transform="translate(105.26315789473684,15)" font-family="sans-serif" font-size="10px" fill="#000" opacity="1">Sat 21</text><text text-anchor="middle" transform="translate(147.36842105263156,15)" font-family="sans-serif" font-size="10px" fill="#000" opacity="0">Mon 23</text><text text-anchor="middle" transform="translate(189.4736842105263,15)" font-family="sans-serif" font-size="10px" fill="#000" opacity="1">Wed 25</text><text text-anchor="middle" transform="translate(231.57894736842107,15)" font-family="sans-serif" font-size="10px" fill="#000" opacity="0">Fri 27</text><text text-anchor="middle" transform="translate(273.6842105263158,15)" font-family="sans-serif" font-size="10px" fill="#000" opacity="1">Mar 29</text><text text-anchor="middle" transform="translate(315.7894736842105,15)" font-family="sans-serif" font-size="10px" fill="#000" opacity="0">Tue 31</text><text text-anchor="middle" transform="translate(336.84210526315786,15)" font-family="sans-serif" font-size="10px" fill="#000" opacity="1">April</text><text text-anchor="middle" transform="translate(378.9473684210526,15)" font-family="sans-serif" font-size="10px" fill="#000" opacity="0">Fri 03</text><text text-anchor="middle" transform="translate(421.05263157894734,15)" font-family="sans-serif" font-size="10px" fill="#000" opacity="1">Apr 05</text><text text-anchor="middle" transform="translate(463.15789473684214,15)" font-family="sans-serif" font-size="10px" fill="#000" opacity="0">Tue 07</text><text text-anchor="middle" transform="translate(505.2631578947368,15)" font-family="sans-serif" font-size="10px" fill="#000" opacity="1">Thu 09</text><text text-anchor="middle" transform="translate(547.3684210526316,15)" font-family="sans-serif" font-size="10px" fill="#000" opacity="0">Sat 11</text><text text-anchor="middle" transform="translate(589.4736842105262,15)" font-family="sans-serif" font-size="10px" fill="#000" opacity="1">Mon 13</text><text text-anchor="middle" transform="translate(631.578947368421,15)" font-family="sans-serif" font-size="10px" fill="#000" opacity="0">Wed 15</text><text text-anchor="middle" transform="translate(673.6842105263157,15)" font-family="sans-serif" font-size="10px" fill="#000" opacity="1">Fri 17</text><text text-anchor="middle" transform="translate(715.7894736842105,15)" font-family="sans-serif" font-size="10px" fill="#000" opacity="0">Apr 19</text><text text-anchor="middle" transform="translate(757.8947368421052,15)" font-family="sans-serif" font-size="10px" fill="#000" opacity="1">Tue 21</text><text text-anchor="end" transform="translate(800,15)" font-family="sans-serif" font-size="10px" fill="#000" opacity="0">Thu 23</text></g><g class="mark-rule role-axis-domain" pointer-events="none"><line transform="translate(0,0)" x2="800" y2="0" stroke="#888" stroke-width="1" opacity="1"/></g><g class="mark-text role-axis-title" pointer-events="none"><text text-anchor="middle" transform="translate(400,30)" font-family="sans-serif" font-size="11px" font-weight="bold" fill="#000" opacity="1">Date</text></g></g><path class="foreground" aria-hidden="true" d="" pointer-events="none" display="none"/></g></g><g class="mark-group role-axis" role="graphics-symbol" aria-roledescription="axis" aria-label="Y-axis titled 'Unique Visitors/day' for a linear scale with values from 0 to 8"><g transform="translate(0.5,0.5)"><path class="background" aria-hidden="true" d="M0,0h0v0h0Z" pointer-events="none"/><g><g class="mark-rule role-axis-tick" pointer-events="none"><line transform="translate(0,300)" x2="-5" y2="0" stroke="#888" stroke-width="1" opacity="1"/><line transform="translate(0,263)" x2="-5" y2="0" stroke="#888" stroke-width="1" opacity="1"/><line transform="translate(0,225)" x2="-5" y2="0" stroke="#888" stroke-width="1" opacity="1"/><line transform="translate(0,188)" x2="-5" y2="0" stroke="#888" stroke-width="1" opacity="1"/><line transform="translate(0,150)" x2="-5" y2="0" stroke="#888" stroke-width="1" opacity="1"/><line transform="translate(0,113)" x2="-5" y2="0" stroke="#888" stroke-width="1" opacity="1"/><line transform="translate(0,75)" x2="-5" y2="0" stroke="#888" stroke-width="1" opacity="1"/><line transform="translate(0,38)" x2="-5" y2="0" stroke="#888" stroke-width="1" opacity="1"/><line transform="translate(0,0)" x2="-5" y2="0" stroke="#888" stroke-width="1" opacity="1"/></g><g class="mark-text role-axis-label" pointer-events="none"><text text-anchor="end" transform="translate(-7,303)" font-family="sans-serif" font-size="10px" fill="#000" opacity="1">0</text><text text-anchor="end" transform="translate(-7,265.5)" font-family="sans-serif" font-size="10px" fill="#000" opacity="1">1</text><text text-anchor="end" transform="translate(-7,228)" font-family="sans-serif" font-size="10px" fill="#000" opacity="1">2</text><text text-anchor="end" transform="translate(-7,190.5)" font-family="sans-serif" font-size="10px" fill="#000" opacity="1">3</text><text text-anchor="end" transform="translate(-7,153)" font-family="sans-serif" font-size="10px" fill="#000" opacity="1">4</text><text text-anchor="end" transform="translate(-7,115.5)" font-family="sans-serif" font-size="10px" fill="#000" opacity="1">5</text><text text-anchor="end" transform="translate(-7,78)" font-family="sans-serif" font-size="10px" fill="#000" opacity="1">6</text><text text-anchor="end" transform="translate(-7,40.5)" font-family="sans-serif" font-size="10px" fill="#000" opacity="1">7</text><text text-anchor="end" transform="translate(-7,3)" font-family="sans-serif" font-size="10px" fill="#000" opacity="1">8</text></g><g class="mark-rule role-axis-domain" pointer-events="none"><line transform="translate(0,300)" x2="0" y2="-300" stroke="#888" stroke-width="1" opacity="1"/></g><g class="mark-text role-axis-title" pointer-events="none"><text text-anchor="middle" transform="translate(-16.5615234375,150) rotate(-90) translate(0,-2)" font-family="sans-serif" font-size="11px" font-weight="bold" fill="#000" opacity="1">Unique Visitors/day</text></g></g><path class="foreground" aria-hidden="true" d="" pointer-events="none" display="none"/></g></g><g class="mark-group role-scope pathgroup" role="graphics-object" aria-roledescription="group mark container"><g transform="translate(0,0)"><path class="background" aria-hidden="true" d="M0,0h800v300h-800Z"/><g><g class="mark-area role-mark marks" role="graphics-object" aria-roledescription="area mark container"><path aria-label="Date: Mar 16, 2026; Unique Visitors/day: 0; Repository: justdavis-family/github-analytics-data" role="graphics-symbol" aria-roledescription="area mark" d="M0,300L21.053,300L42.105,300L63.158,300L84.211,300L105.263,300L126.316,300L147.368,187.5L168.421,187.5L189.474,150L210.526,187.5L231.579,187.5L252.632,187.5L273.684,262.5L294.737,0L315.789,262.5L336.842,150L357.895,262.5L378.947,300L400,225L421.053,262.5L442.105,300L463.158,187.5L484.211,262.5L505.263,262.5L526.316,225L547.368,300L568.421,75L589.474,300L610.526,262.5L631.579,187.5L652.632,262.5L673.684,225L694.737,300L715.789,262.5L736.842,187.5L757.895,187.5L778.947,150L800,225L800,225L778.947,150L757.895,187.5L736.842,187.5L715.789,262.5L694.737,300L673.684,225L652.632,300L631.579,187.5L610.526,262.5L589.474,300L568.421,75L547.368,300L526.316,225L505.263,262.5L484.211,262.5L463.158,187.5L442.105,300L421.053,262.5L400,225L378.947,300L357.895,262.5L336.842,150L315.789,262.5L294.737,0L273.684,262.5L252.632,187.5L231.579,187.5L210.526,187.5L189.474,150L168.421,187.5L147.368,187.5L126.316,300L105.263,300L84.211,300L63.158,300L42.105,300L21.053,300L0,300Z" fill="#4c78a8"/></g></g><path class="foreground" aria-hidden="true" d="" display="none"/></g><g transform="translate(0,0)"><path class="background" aria-hidden="true" d="M0,0h800v300h-800Z"/><g><g class="mark-area role-mark marks" role="graphics-object" aria-roledescription="area mark container"><path aria-label="Date: Mar 16, 2026; Unique Visitors/day: 0; Repository: justdavis-family/justdavis" role="graphics-symbol" aria-roledescription="area mark" d="M0,300L21.053,300L42.105,300L63.158,300L84.211,300L105.263,300L126.316,300L147.368,187.5L168.421,187.5L189.474,150L210.526,187.5L231.579,187.5L252.632,187.5L273.684,262.5L294.737,0L315.789,262.5L336.842,150L357.895,262.5L378.947,300L400,225L421.053,262.5L442.105,300L463.158,187.5L484.211,262.5L505.263,262.5L526.316,225L547.368,300L568.421,75L589.474,300L610.526,262.5L631.579,187.5L652.632,300L673.684,225L694.737,300L715.789,262.5L736.842,187.5L757.895,187.5L778.947,150L800,225L800,225L778.947,187.5L757.895,187.5L736.842,187.5L715.789,262.5L694.737,300L673.684,225L652.632,300L631.579,187.5L610.526,262.5L589.474,300L568.421,75L547.368,300L526.316,225L505.263,262.5L484.211,262.5L463.158,262.5L442.105,300L421.053,262.5L400,225L378.947,300L357.895,262.5L336.842,150L315.789,262.5L294.737,37.5L273.684,262.5L252.632,187.5L231.579,187.5L210.526,187.5L189.474,150L168.421,187.5L147.368,187.5L126.316,300L105.263,300L84.211,300L63.158,300L42.105,300L21.053,300L0,300Z" fill="#f58518"/></g></g><path class="foreground" aria-hidden="true" d="" display="none"/></g><g transform="translate(0,0)"><path class="background" aria-hidden="true" d="M0,0h800v300h-800Z"/><g><g class="mark-area role-mark marks" role="graphics-object" aria-roledescription="area mark container"><path aria-label="Date: Mar 16, 2026; Unique Visitors/day: 0; Repository: karlmdavis/FHIR-Server" role="graphics-symbol" aria-roledescription="area mark" d="M0,300L21.053,300L42.105,300L63.158,300L84.211,300L105.263,300L126.316,300L147.368,187.5L168.421,187.5L189.474,150L210.526,187.5L231.579,187.5L252.632,187.5L273.684,262.5L294.737,37.5L315.789,262.5L336.842,150L357.895,262.5L378.947,300L400,225L421.053,262.5L442.105,300L463.158,262.5L484.211,262.5L505.263,262.5L526.316,225L547.368,300L568.421,75L589.474,300L610.526,262.5L631.579,187.5L652.632,300L673.684,225L694.737,300L715.789,262.5L736.842,187.5L757.895,187.5L778.947,187.5L800,225L800,225L778.947,187.5L757.895,187.5L736.842,187.5L715.789,262.5L694.737,300L673.684,225L652.632,300L631.579,187.5L610.526,262.5L589.474,300L568.421,75L547.368,300L526.316,225L505.263,262.5L484.211,262.5L463.158,262.5L442.105,300L421.053,262.5L400,225L378.947,300L357.895,262.5L336.842,150L315.789,262.5L294.737,37.5L273.684,262.5L252.632,187.5L231.579,187.5L210.526,187.5L189.474,150L168.421,187.5L147.368,187.5L126.316,300L105.263,300L84.211,300L63.158,300L42.105,300L21.053,300L0,300Z" fill="#e45756"/></g></g><path class="foreground" aria-hidden="true" d="" display="none"/></g><g transform="translate(0,0)"><path class="background" aria-hidden="true" d="M0,0h800v300h-800Z"/><g><g class="mark-area role-mark marks" role="graphics-object" aria-roledescription="area mark container"><path aria-label="Date: Mar 16, 2026; Unique Visitors/day: 0; Repository: karlmdavis/ansible" role="graphics-symbol" aria-roledescription="area mark" d="M0,300L21.053,300L42.105,300L63.158,300L84.211,300L105.263,300L126.316,300L147.368,187.5L168.421,187.5L189.474,150L210.526,187.5L231.579,187.5L252.632,187.5L273.684,262.5L294.737,37.5L315.789,262.5L336.842,150L357.895,262.5L378.947,300L400,225L421.053,262.5L442.105,300L463.158,262.5L484.211,262.5L505.263,262.5L526.316,225L547.368,300L568.421,75L589.474,300L610.526,262.5L631.579,187.5L652.632,300L673.684,225L694.737,300L715.789,262.5L736.842,187.5L757.895,187.5L778.947,187.5L800,225L800,225L778.947,187.5L757.895,187.5L736.842,187.5L715.789,262.5L694.737,300L673.684,225L652.632,300L631.579,187.5L610.526,262.5L589.474,300L568.421,75L547.368,300L526.316,225L505.263,262.5L484.211,262.5L463.158,262.5L442.105,300L421.053,262.5L400,225L378.947,300L357.895,262.5L336.842,150L315.789,262.5L294.737,37.5L273.684,262.5L252.632,187.5L231.579,187.5L210.526,187.5L189.474,150L168.421,187.5L147.368,187.5L126.316,300L105.263,300L84.211,300L63.158,300L42.105,300L21.053,300L0,300Z" fill="#72b7b2"/></g></g><path class="foreground" aria-hidden="true" d="" display="none"/></g><g transform="translate(0,0)"><path class="background" aria-hidden="true" d="M0,0h800v300h-800Z"/><g><g class="mark-area role-mark marks" role="graphics-object" aria-roledescription="area mark container"><path aria-label="Date: Mar 16, 2026; Unique Visitors/day: 0; Repository: karlmdavis/ansible-jenkins" role="graphics-symbol" aria-roledescription="area mark" d="M0,300L21.053,300L42.105,300L63.158,300L84.211,300L105.263,300L126.316,300L147.368,187.5L168.421,187.5L189.474,150L210.526,187.5L231.579,187.5L252.632,187.5L273.684,262.5L294.737,37.5L315.789,262.5L336.842,150L357.895,262.5L378.947,300L400,225L421.053,262.5L442.105,300L463.158,262.5L484.211,262.5L505.263,262.5L526.316,225L547.368,300L568.421,75L589.474,300L610.526,262.5L631.579,187.5L652.632,300L673.684,225L694.737,300L715.789,262.5L736.842,187.5L757.895,187.5L778.947,187.5L800,225L800,225L778.947,187.5L757.895,187.5L736.842,187.5L715.789,262.5L694.737,300L673.684,225L652.632,300L631.579,187.5L610.526,262.5L589.474,300L568.421,75L547.368,300L526.316,225L505.263,262.5L484.211,262.5L463.158,262.5L442.105,300L421.053,262.5L400,225L378.947,300L357.895,262.5L336.842,150L315.789,262.5L294.737,37.5L273.684,262.5L252.632,187.5L231.579,187.5L210.526,187.5L189.474,150L168.421,187.5L147.368,187.5L126.316,300L105.263,300L84.211,300L63.158,300L42.105,300L21.053,300L0,300Z" fill="#54a24b"/></g></g><path class="foreground" aria-hidden="true" d="" display="none"/></g><g transform="translate(0,0)"><path class="background" aria-hidden="true" d="M0,0h800v300h-800Z"/><g><g class="mark-area role-mark marks" role="graphics-object" aria-roledescription="area mark container"><path aria-label="Date: Mar 16, 2026; Unique Visitors/day: 0; Repository: karlmdavis/ansible-role-acmetool" role="graphics-symbol" aria-roledescription="area mark" d="M0,300L21.053,300L42.105,300L63.158,300L84.211,300L105.263,300L126.316,300L147.368,187.5L168.421,187.5L189.474,150L210.526,187.5L231.579,187.5L252.632,187.5L273.684,262.5L294.737,37.5L315.789,262.5L336.842,150L357.895,262.5L378.947,300L400,225L421.053,262.5L442.105,300L463.158,262.5L484.211,262.5L505.263,262.5L526.316,225L547.368,300L568.421,75L589.474,300L610.526,262.5L631.579,187.5L652.632,300L673.684,225L694.737,300L715.789,262.5L736.842,187.5L757.895,187.5L778.947,187.5L800,225L800,225L778.947,187.5L757.895,187.5L736.842,187.5L715.789,262.5L694.737,300L673.684,225L652.632,300L631.579,187.5L610.526,262.5L589.474,300L568.421,75L547.368,300L526.316,225L505.263,262.5L484.211,262.5L463.158,262.5L442.105,300L421.053,262.5L400,225L378.947,300L357.895,262.5L336.842,150L315.789,262.5L294.737,37.5L273.684,262.5L252.632,187.5L231.579,187.5L210.526,187.5L189.474,150L168.421,187.5L147.368,187.5L126.316,300L105.263,300L84.211,300L63.158,300L42.105,300L21.053,300L0,300Z" fill="#eeca3b"/></g></g><path class="foreground" aria-hidden="true" d="" display="none"/></g><g transform="translate(0,0)"><path class="background" aria-hidden="true" d="M0,0h800v300h-800Z"/><g><g class="mark-area role-mark marks" role="graphics-object" aria-roledescription="area mark container"><path aria-label="Date: Mar 16, 2026; Unique Visitors/day: 0; Repository: karlmdavis/ansible-role-bind-dns" role="graphics-symbol" aria-roledescription="area mark" d="M0,300L21.053,300L42.105,300L63.158,300L84.211,300L105.263,300L126.316,300L147.368,187.5L168.421,187.5L189.474,150L210.526,187.5L231.579,187.5L252.632,187.5L273.684,262.5L294.737,37.5L315.789,262.5L336.842,150L357.895,262.5L378.947,300L400,225L421.053,262.5L442.105,300L463.158,262.5L484.211,262.5L505.263,262.5L526.316,225L547.368,300L568.421,75L589.474,300L610.526,262.5L631.579,187.5L652.632,300L673.684,225L694.737,300L715.789,262.5L736.842,187.5L757.895,187.5L778.947,187.5L800,225L800,225L778.947,187.5L757.895,187.5L736.842,187.5L715.789,300L694.737,300L673.684,225L652.632,300L631.579,225L610.526,262.5L589.474,300L568.421,75L547.368,300L526.316,225L505.263,262.5L484.211,262.5L463.158,262.5L442.105,300L421.053,262.5L400,262.5L378.947,300L357.895,262.5L336.842,150L315.789,262.5L294.737,37.5L273.684,262.5L252.632,225L231.579,187.5L210.526,187.5L189.474,187.5L168.421,187.5L147.368,187.5L126.316,300L105.263,300L84.211,300L63.158,300L42.105,300L21.053,300L0,300Z" fill="#b279a2"/></g></g><path class="foreground" aria-hidden="true" d="" display="none"/></g><g transform="translate(0,0)"><path class="background" aria-hidden="true" d="M0,0h800v300h-800Z"/><g><g class="mark-area role-mark marks" role="graphics-object" aria-roledescription="area mark container"><path aria-label="Date: Mar 16, 2026; Unique Visitors/day: 0; Repository: karlmdavis/ansible-role-jenkins2" role="graphics-symbol" aria-roledescription="area mark" d="M0,300L21.053,300L42.105,300L63.158,300L84.211,300L105.263,300L126.316,300L147.368,187.5L168.421,187.5L189.474,187.5L210.526,187.5L231.579,187.5L252.632,225L273.684,262.5L294.737,37.5L315.789,262.5L336.842,150L357.895,262.5L378.947,300L400,262.5L421.053,262.5L442.105,300L463.158,262.5L484.211,262.5L505.263,262.5L526.316,225L547.368,300L568.421,75L589.474,300L610.526,262.5L631.579,225L652.632,300L673.684,225L694.737,300L715.789,300L736.842,187.5L757.895,187.5L778.947,187.5L800,225L800,225L778.947,187.5L757.895,187.5L736.842,225L715.789,300L694.737,300L673.684,225L652.632,300L631.579,225L610.526,262.5L589.474,300L568.421,112.5L547.368,300L526.316,225L505.263,262.5L484.211,262.5L463.158,262.5L442.105,300L421.053,262.5L400,262.5L378.947,300L357.895,262.5L336.842,150L315.789,262.5L294.737,75L273.684,300L252.632,225L231.579,187.5L210.526,187.5L189.474,187.5L168.421,187.5L147.368,187.5L126.316,300L105.263,300L84.211,300L63.158,300L42.105,300L21.053,300L0,300Z" fill="#ff9da6"/></g></g><path class="foreground" aria-hidden="true" d="" display="none"/></g><g transform="translate(0,0)"><path class="background" aria-hidden="true" d="M0,0h800v300h-800Z"/><g><g class="mark-area role-mark marks" role="graphics-object" aria-roledescription="area mark container"><path aria-label="Date: Mar 16, 2026; Unique Visitors/day: 0; Repository: karlmdavis/ansible-role-ldap" role="graphics-symbol" aria-roledescription="area mark" d="M0,300L21.053,300L42.105,300L63.158,300L84.211,300L105.263,300L126.316,300L147.368,187.5L168.421,187.5L189.474,187.5L210.526,187.5L231.579,187.5L252.632,225L273.684,300L294.737,75L315.789,262.5L336.842,150L357.895,262.5L378.947,300L400,262.5L421.053,262.5L442.105,300L463.158,262.5L484.211,262.5L505.263,262.5L526.316,225L547.368,300L568.421,112.5L589.474,300L610.526,262.5L631.579,225L652.632,300L673.684,225L694.737,300L715.789,300L736.842,225L757.895,187.5L778.947,187.5L800,225L800,225L778.947,187.5L757.895,187.5L736.842,225L715.789,300L694.737,300L673.684,225L652.632,300L631.579,225L610.526,262.5L589.474,300L568.421,112.5L547.368,300L526.316,225L505.263,262.5L484.211,262.5L463.158,262.5L442.105,300L421.053,262.5L400,262.5L378.947,300L357.895,262.5L336.842,150L315.789,262.5L294.737,75L273.684,300L252.632,225L231.579,187.5L210.526,187.5L189.474,187.5L168.421,187.5L147.368,187.5L126.316,300L105.263,300L84.211,300L63.158,300L42.105,300L21.053,300L0,300Z" fill="#9d755d"/></g></g><path class="foreground" aria-hidden="true" d="" display="none"/></g><g transform="translate(0,0)"><path class="background" aria-hidden="true" d="M0,0h800v300h-800Z"/><g><g class="mark-area role-mark marks" role="graphics-object" aria-roledescription="area mark container"><path aria-label="Date: Mar 16, 2026; Unique Visitors/day: 0; Repository: karlmdavis/ansible-role-rcm-dotfiles" role="graphics-symbol" aria-roledescription="area mark" d="M0,300L21.053,300L42.105,300L63.158,300L84.211,300L105.263,300L126.316,300L147.368,187.5L168.421,187.5L189.474,187.5L210.526,187.5L231.579,187.5L252.632,225L273.684,300L294.737,75L315.789,262.5L336.842,150L357.895,262.5L378.947,300L400,262.5L421.053,262.5L442.105,300L463.158,262.5L484.211,262.5L505.263,262.5L526.316,225L547.368,300L568.421,112.5L589.474,300L610.526,262.5L631.579,225L652.632,300L673.684,225L694.737,300L715.789,300L736.842,225L757.895,187.5L778.947,187.5L800,225L800,225L778.947,187.5L757.895,225L736.842,225L715.789,300L694.737,300L673.684,225L652.632,300L631.579,225L610.526,262.5L589.474,300L568.421,112.5L547.368,300L526.316,225L505.263,262.5L484.211,262.5L463.158,262.5L442.105,300L421.053,262.5L400,262.5L378.947,300L357.895,262.5L336.842,150L315.789,262.5L294.737,75L273.684,300L252.632,225L231.579,187.5L210.526,187.5L189.474,187.5L168.421,187.5L147.368,187.5L126.316,300L105.263,300L84.211,300L63.158,300L42.105,300L21.053,300L0,300Z" fill="#bab0ac"/></g></g><path class="foreground" aria-hidden="true" d="" display="none"/></g><g transform="translate(0,0)"><path class="background" aria-hidden="true" d="M0,0h800v300h-800Z"/><g><g class="mark-area role-mark marks" role="graphics-object" aria-roledescription="area mark container"><path aria-label="Date: Mar 16, 2026; Unique Visitors/day: 0; Repository: karlmdavis/ansible-roles" role="graphics-symbol" aria-roledescription="area mark" d="M0,300L21.053,300L42.105,300L63.158,300L84.211,300L105.263,300L126.316,300L147.368,187.5L168.421,187.5L189.474,187.5L210.526,187.5L231.579,187.5L252.632,225L273.684,300L294.737,75L315.789,262.5L336.842,150L357.895,262.5L378.947,300L400,262.5L421.053,262.5L442.105,300L463.158,262.5L484.211,262.5L505.263,262.5L526.316,225L547.368,300L568.421,112.5L589.474,300L610.526,262.5L631.579,225L652.632,300L673.684,225L694.737,300L715.789,300L736.842,225L757.895,225L778.947,187.5L800,225L800,225L778.947,187.5L757.895,225L736.842,225L715.789,300L694.737,300L673.684,225L652.632,300L631.579,225L610.526,262.5L589.474,300L568.421,112.5L547.368,300L526.316,225L505.263,262.5L484.211,262.5L463.158,262.5L442.105,300L421.053,262.5L400,262.5L378.947,300L357.895,262.5L336.842,150L315.789,262.5L294.737,75L273.684,300L252.632,225L231.579,187.5L210.526,187.5L189.474,187.5L168.421,187.5L147.368,187.5L126.316,300L105.263,300L84.211,300L63.158,300L42.105,300L21.053,300L0,300Z" fill="#4c78a8"/></g></g><path class="foreground" aria-hidden="true" d="" display="none"/></g><g transform="translate(0,0)"><path class="background" aria-hidden="true" d="M0,0h800v300h-800Z"/><g><g class="mark-area role-mark marks" role="graphics-object" aria-roledescription="area mark container"><path aria-label="Date: Mar 16, 2026; Unique Visitors/day: 0; Repository: karlmdavis/bbonfhir-dev-infra-docker" role="graphics-symbol" aria-roledescription="area mark" d="M0,300L21.053,300L42.105,300L63.158,300L84.211,300L105.263,300L126.316,300L147.368,187.5L168.421,187.5L189.474,187.5L210.526,187.5L231.579,187.5L252.632,225L273.684,300L294.737,75L315.789,262.5L336.842,150L357.895,262.5L378.947,300L400,262.5L421.053,262.5L442.105,300L463.158,262.5L484.211,262.5L505.263,262.5L526.316,225L547.368,300L568.421,112.5L589.474,300L610.526,262.5L631.579,225L652.632,300L673.684,225L694.737,300L715.789,300L736.842,225L757.895,225L778.947,187.5L800,225L800,225L778.947,187.5L757.895,225L736.842,225L715.789,300L694.737,300L673.684,225L652.632,300L631.579,225L610.526,262.5L589.474,300L568.421,112.5L547.368,300L526.316,225L505.263,262.5L484.211,262.5L463.158,262.5L442.105,300L421.053,262.5L400,262.5L378.947,300L357.895,262.5L336.842,150L315.789,262.5L294.737,75L273.684,300L252.632,225L231.579,187.5L210.526,187.5L189.474,187.5L168.421,187.5L147.368,187.5L126.316,300L105.263,300L84.211,300L63.158,300L42.105,300L21.053,300L0,300Z" fill="#f58518"/></g></g><path class="foreground" aria-hidden="true" d="" display="none"/></g><g transform="translate(0,0)"><path class="background" aria-hidden="true" d="M0,0h800v300h-800Z"/><g><g class="mark-area role-mark marks" role="graphics-object" aria-roledescription="area mark container"><path aria-label="Date: Mar 16, 2026; Unique Visitors/day: 0; Repository: karlmdavis/can-i-kayak-baltimore" role="graphics-symbol" aria-roledescription="area mark" d="M0,300L21.053,300L42.105,300L63.158,300L84.211,300L105.263,300L126.316,300L147.368,187.5L168.421,187.5L189.474,187.5L210.526,187.5L231.579,187.5L252.632,225L273.684,300L294.737,75L315.789,262.5L336.842,150L357.895,262.5L378.947,300L400,262.5L421.053,262.5L442.105,300L463.158,262.5L484.211,262.5L505.263,262.5L526.316,225L547.368,300L568.421,112.5L589.474,300L610.526,262.5L631.579,225L652.632,300L673.684,225L694.737,300L715.789,300L736.842,225L757.895,225L778.947,187.5L800,225L800,225L778.947,187.5L757.895,225L736.842,225L715.789,300L694.737,300L673.684,225L652.632,300L631.579,225L610.526,262.5L589.474,300L568.421,112.5L547.368,300L526.316,225L505.263,262.5L484.211,262.5L463.158,262.5L442.105,300L421.053,262.5L400,262.5L378.947,300L357.895,262.5L336.842,150L315.789,262.5L294.737,75L273.684,300L252.632,225L231.579,187.5L210.526,187.5L189.474,187.5L168.421,187.5L147.368,187.5L126.316,300L105.263,300L84.211,300L63.158,300L42.105,300L21.053,300L0,300Z" fill="#e45756"/></g></g><path class="foreground" aria-hidden="true" d="" display="none"/></g><g transform="translate(0,0)"><path class="background" aria-hidden="true" d="M0,0h800v300h-800Z"/><g><g class="mark-area role-mark marks" role="graphics-object" aria-roledescription="area mark container"><path aria-label="Date: Mar 16, 2026; Unique Visitors/day: 0; Repository: karlmdavis/datanucleus-test-jdo-1-to-n" role="graphics-symbol" aria-roledescription="area mark" d="M0,300L21.053,300L42.105,300L63.158,300L84.211,300L105.263,300L126.316,300L147.368,187.5L168.421,187.5L189.474,187.5L210.526,187.5L231.579,187.5L252.632,225L273.684,300L294.737,75L315.789,262.5L336.842,150L357.895,262.5L378.947,300L400,262.5L421.053,262.5L442.105,300L463.158,262.5L484.211,262.5L505.263,262.5L526.316,225L547.368,300L568.421,112.5L589.474,300L610.526,262.5L631.579,225L652.632,300L673.684,225L694.737,300L715.789,300L736.842,225L757.895,225L778.947,187.5L800,225L800,225L778.947,187.5L757.895,225L736.842,225L715.789,300L694.737,300L673.684,225L652.632,300L631.579,225L610.526,262.5L589.474,300L568.421,112.5L547.368,300L526.316,225L505.263,262.5L484.211,262.5L463.158,262.5L442.105,300L421.053,262.5L400,262.5L378.947,300L357.895,262.5L336.842,150L315.789,262.5L294.737,75L273.684,300L252.632,225L231.579,187.5L210.526,187.5L189.474,187.5L168.421,187.5L147.368,187.5L126.316,300L105.263,300L84.211,300L63.158,300L42.105,300L21.053,300L0,300Z" fill="#72b7b2"/></g></g><path class="foreground" aria-hidden="true" d="" display="none"/></g><g transform="translate(0,0)"><path class="background" aria-hidden="true" d="M0,0h800v300h-800Z"/><g><g class="mark-area role-mark marks" role="graphics-object" aria-roledescription="area mark container"><path aria-label="Date: Mar 16, 2026; Unique Visitors/day: 0; Repository: karlmdavis/dotfiles" role="graphics-symbol" aria-roledescription="area mark" d="M0,300L21.053,300L42.105,300L63.158,300L84.211,300L105.263,300L126.316,300L147.368,187.5L168.421,187.5L189.474,187.5L210.526,187.5L231.579,187.5L252.632,225L273.684,300L294.737,75L315.789,262.5L336.842,150L357.895,262.5L378.947,300L400,262.5L421.053,262.5L442.105,300L463.158,262.5L484.211,262.5L505.263,262.5L526.316,225L547.368,300L568.421,112.5L589.474,300L610.526,262.5L631.579,225L652.632,300L673.684,225L694.737,300L715.789,300L736.842,225L757.895,225L778.947,187.5L800,225L800,225L778.947,187.5L757.895,225L736.842,225L715.789,300L694.737,300L673.684,225L652.632,300L631.579,225L610.526,262.5L589.474,300L568.421,112.5L547.368,300L526.316,225L505.263,262.5L484.211,262.5L463.158,262.5L442.105,300L421.053,262.5L400,262.5L378.947,300L357.895,262.5L336.842,150L315.789,262.5L294.737,75L273.684,300L252.632,225L231.579,187.5L210.526,187.5L189.474,187.5L168.421,187.5L147.368,187.5L126.316,300L105.263,300L84.211,300L63.158,300L42.105,300L21.053,300L0,300Z" fill="#54a24b"/></g></g><path class="foreground" aria-hidden="true" d="" display="none"/></g><g transform="translate(0,0)"><path class="background" aria-hidden="true" d="M0,0h800v300h-800Z"/><g><g class="mark-area role-mark marks" role="graphics-object" aria-roledescription="area mark container"><path aria-label="Date: Mar 16, 2026; Unique Visitors/day: 0; Repository: karlmdavis/fhir-benchmarks" role="graphics-symbol" aria-roledescription="area mark" d="M0,300L21.053,300L42.105,300L63.158,300L84.211,300L105.263,300L126.316,300L147.368,187.5L168.421,187.5L189.474,187.5L210.526,187.5L231.579,187.5L252.632,225L273.684,300L294.737,75L315.789,262.5L336.842,150L357.895,262.5L378.947,300L400,262.5L421.053,262.5L442.105,300L463.158,262.5L484.211,262.5L505.263,262.5L526.316,225L547.368,300L568.421,112.5L589.474,300L610.526,262.5L631.579,225L652.632,300L673.684,225L694.737,300L715.789,300L736.842,225L757.895,225L778.947,187.5L800,225L800,262.5L778.947,225L757.895,225L736.842,225L715.789,300L694.737,300L673.684,225L652.632,300L631.579,262.5L610.526,262.5L589.474,300L568.421,112.5L547.368,300L526.316,262.5L505.263,262.5L484.211,262.5L463.158,300L442.105,300L421.053,262.5L400,262.5L378.947,300L357.895,262.5L336.842,187.5L315.789,262.5L294.737,112.5L273.684,300L252.632,225L231.579,187.5L210.526,225L189.474,187.5L168.421,187.5L147.368,187.5L126.316,300L105.263,300L84.211,300L63.158,300L42.105,300L21.053,300L0,300Z" fill="#eeca3b"/></g></g><path class="foreground" aria-hidden="true" d="" display="none"/></g><g transform="translate(0,0)"><path class="background" aria-hidden="true" d="M0,0h800v300h-800Z"/><g><g class="mark-area role-mark marks" role="graphics-object" aria-roledescription="area mark container"><path aria-label="Date: Mar 16, 2026; Unique Visitors/day: 0; Repository: karlmdavis/hapi-fhir-jpaserver-starter" role="graphics-symbol" aria-roledescription="area mark" d="M0,300L21.053,300L42.105,300L63.158,300L84.211,300L105.263,300L126.316,300L147.368,187.5L168.421,187.5L189.474,187.5L210.526,225L231.579,187.5L252.632,225L273.684,300L294.737,112.5L315.789,262.5L336.842,187.5L357.895,262.5L378.947,300L400,262.5L421.053,262.5L442.105,300L463.158,300L484.211,262.5L505.263,262.5L526.316,262.5L547.368,300L568.421,112.5L589.474,300L610.526,262.5L631.579,262.5L652.632,300L673.684,225L694.737,300L715.789,300L736.842,225L757.895,225L778.947,225L800,262.5L800,262.5L778.947,225L757.895,225L736.842,225L715.789,300L694.737,300L673.684,225L652.632,300L631.579,262.5L610.526,262.5L589.474,300L568.421,112.5L547.368,300L526.316,262.5L505.263,262.5L484.211,262.5L463.158,300L442.105,300L421.053,262.5L400,262.5L378.947,300L357.895,262.5L336.842,187.5L315.789,262.5L294.737,112.5L273.684,300L252.632,225L231.579,187.5L210.526,225L189.474,187.5L168.421,187.5L147.368,187.5L126.316,300L105.263,300L84.211,300L63.158,300L42.105,300L21.053,300L0,300Z" fill="#b279a2"/></g></g><path class="foreground" aria-hidden="true" d="" display="none"/></g><g transform="translate(0,0)"><path class="background" aria-hidden="true" d="M0,0h800v300h-800Z"/><g><g class="mark-area role-mark marks" role="graphics-object" aria-roledescription="area mark container"><path aria-label="Date: Mar 16, 2026; Unique Visitors/day: 0; Repository: karlmdavis/hello-rust-actix" role="graphics-symbol" aria-roledescription="area mark" d="M0,300L21.053,300L42.105,300L63.158,300L84.211,300L105.263,300L126.316,300L147.368,187.5L168.421,187.5L189.474,187.5L210.526,225L231.579,187.5L252.632,225L273.684,300L294.737,112.5L315.789,262.5L336.842,187.5L357.895,262.5L378.947,300L400,262.5L421.053,262.5L442.105,300L463.158,300L484.211,262.5L505.263,262.5L526.316,262.5L547.368,300L568.421,112.5L589.474,300L610.526,262.5L631.579,262.5L652.632,300L673.684,225L694.737,300L715.789,300L736.842,225L757.895,225L778.947,225L800,262.5L800,262.5L778.947,225L757.895,225L736.842,225L715.789,300L694.737,300L673.684,225L652.632,300L631.579,262.5L610.526,262.5L589.474,300L568.421,112.5L547.368,300L526.316,262.5L505.263,262.5L484.211,262.5L463.158,300L442.105,300L421.053,262.5L400,262.5L378.947,300L357.895,262.5L336.842,187.5L315.789,262.5L294.737,112.5L273.684,300L252.632,225L231.579,187.5L210.526,225L189.474,187.5L168.421,187.5L147.368,187.5L126.316,300L105.263,300L84.211,300L63.158,300L42.105,300L21.053,300L0,300Z" fill="#ff9da6"/></g></g><path class="foreground" aria-hidden="true" d="" display="none"/></g><g transform="translate(0,0)"><path class="background" aria-hidden="true" d="M0,0h800v300h-800Z"/><g><g class="mark-area role-mark marks" role="graphics-object" aria-roledescription="area mark container"><path aria-label="Date: Mar 16, 2026; Unique Visitors/day: 0; Repository: karlmdavis/jessentials" role="graphics-symbol" aria-roledescription="area mark" d="M0,300L21.053,300L42.105,300L63.158,300L84.211,300L105.263,300L126.316,300L147.368,187.5L168.421,187.5L189.474,187.5L210.526,225L231.579,187.5L252.632,225L273.684,300L294.737,112.5L315.789,262.5L336.842,187.5L357.895,262.5L378.947,300L400,262.5L421.053,262.5L442.105,300L463.158,300L484.211,262.5L505.263,262.5L526.316,262.5L547.368,300L568.421,112.5L589.474,300L610.526,262.5L631.579,262.5L652.632,300L673.684,225L694.737,300L715.789,300L736.842,225L757.895,225L778.947,225L800,262.5L800,262.5L778.947,225L757.895,225L736.842,225L715.789,300L694.737,300L673.684,225L652.632,300L631.579,262.5L610.526,262.5L589.474,300L568.421,112.5L547.368,300L526.316,262.5L505.263,262.5L484.211,262.5L463.158,300L442.105,300L421.053,262.5L400,262.5L378.947,300L357.895,262.5L336.842,187.5L315.789,262.5L294.737,112.5L273.684,300L252.632,225L231.579,187.5L210.526,225L189.474,187.5L168.421,187.5L147.368,187.5L126.316,300L105.263,300L84.211,300L63.158,300L42.105,300L21.053,300L0,300Z" fill="#9d755d"/></g></g><path class="foreground" aria-hidden="true" d="" display="none"/></g><g transform="translate(0,0)"><path class="background" aria-hidden="true" d="M0,0h800v300h-800Z"/><g><g class="mark-area role-mark marks" role="graphics-object" aria-roledescription="area mark container"><path aria-label="Date: Mar 16, 2026; Unique Visitors/day: 0; Repository: karlmdavis/justdavis-ansible" role="graphics-symbol" aria-roledescription="area mark" d="M0,300L21.053,300L42.105,300L63.158,300L84.211,300L105.263,300L126.316,300L147.368,187.5L168.421,187.5L189.474,187.5L210.526,225L231.579,187.5L252.632,225L273.684,300L294.737,112.5L315.789,262.5L336.842,187.5L357.895,262.5L378.947,300L400,262.5L421.053,262.5L442.105,300L463.158,300L484.211,262.5L505.263,262.5L526.316,262.5L547.368,300L568.421,112.5L589.474,300L610.526,262.5L631.579,262.5L652.632,300L673.684,225L694.737,300L715.789,300L736.842,225L757.895,225L778.947,225L800,262.5L800,262.5L778.947,225L757.895,225L736.842,225L715.789,300L694.737,300L673.684,225L652.632,300L631.579,262.5L610.526,262.5L589.474,300L568.421,150L547.368,300L526.316,262.5L505.263,262.5L484.211,262.5L463.158,300L442.105,300L421.053,262.5L400,262.5L378.947,300L357.895,262.5L336.842,225L315.789,262.5L294.737,150L273.684,300L252.632,225L231.579,187.5L210.526,225L189.474,187.5L168.421,187.5L147.368,187.5L126.316,300L105.263,300L84.211,300L63.158,300L42.105,300L21.053,300L0,300Z" fill="#bab0ac"/></g></g><path class="foreground" aria-hidden="true" d="" display="none"/></g><g transform="translate(0,0)"><path class="background" aria-hidden="true" d="M0,0h800v300h-800Z"/><g><g class="mark-area role-mark marks" role="graphics-object" aria-roledescription="area mark container"><path aria-label="Date: Mar 16, 2026; Unique Visitors/day: 0; Repository: karlmdavis/justdavis-finances" role="graphics-symbol" aria-roledescription="area mark" d="M0,300L21.053,300L42.105,300L63.158,300L84.211,300L105.263,300L126.316,300L147.368,187.5L168.421,187.5L189.474,187.5L210.526,225L231.579,187.5L252.632,225L273.684,300L294.737,150L315.789,262.5L336.842,225L357.895,262.5L378.947,300L400,262.5L421.053,262.5L442.105,300L463.158,300L484.211,262.5L505.263,262.5L526.316,262.5L547.368,300L568.421,150L589.474,300L610.526,262.5L631.579,262.5L652.632,300L673.684,225L694.737,300L715.789,300L736.842,225L757.895,225L778.947,225L800,262.5L800,262.5L778.947,225L757.895,225L736.842,262.5L715.789,300L694.737,300L673.684,225L652.632,300L631.579,262.5L610.526,262.5L589.474,300L568.421,187.5L547.368,300L526.316,262.5L505.263,262.5L484.211,262.5L463.158,300L442.105,300L421.053,262.5L400,262.5L378.947,300L357.895,262.5L336.842,225L315.789,262.5L294.737,150L273.684,300L252.632,225L231.579,225L210.526,225L189.474,187.5L168.421,187.5L147.368,187.5L126.316,300L105.263,300L84.211,300L63.158,300L42.105,300L21.053,300L0,300Z" fill="#4c78a8"/></g></g><path class="foreground" aria-hidden="true" d="" display="none"/></g><g transform="translate(0,0)"><path class="background" aria-hidden="true" d="M0,0h800v300h-800Z"/><g><g class="mark-area role-mark marks" role="graphics-object" aria-roledescription="area mark container"><path aria-label="Date: Mar 16, 2026; Unique Visitors/day: 0; Repository: karlmdavis/justdavis-karl" role="graphics-symbol" aria-roledescription="area mark" d="M0,300L21.053,300L42.105,300L63.158,300L84.211,300L105.263,300L126.316,300L147.368,187.5L168.421,187.5L189.474,187.5L210.526,225L231.579,225L252.632,225L273.684,300L294.737,150L315.789,262.5L336.842,225L357.895,262.5L378.947,300L400,262.5L421.053,262.5L442.105,300L463.158,300L484.211,262.5L505.263,262.5L526.316,262.5L547.368,300L568.421,187.5L589.474,300L610.526,262.5L631.579,262.5L652.632,300L673.684,225L694.737,300L715.789,300L736.842,262.5L757.895,225L778.947,225L800,262.5L800,262.5L778.947,225L757.895,225L736.842,262.5L715.789,300L694.737,300L673.684,225L652.632,300L631.579,262.5L610.526,262.5L589.474,300L568.421,187.5L547.368,300L526.316,262.5L505.263,262.5L484.211,262.5L463.158,300L442.105,300L421.053,262.5L400,262.5L378.947,300L357.895,262.5L336.842,225L315.789,262.5L294.737,150L273.684,300L252.632,225L231.579,225L210.526,225L189.474,187.5L168.421,187.5L147.368,187.5L126.316,300L105.263,300L84.211,300L63.158,300L42.105,300L21.053,300L0,300Z" fill="#f58518"/></g></g><path class="foreground" aria-hidden="true" d="" display="none"/></g><g transform="translate(0,0)"><path class="background" aria-hidden="true" d="M0,0h800v300h-800Z"/><g><g class="mark-area role-mark marks" role="graphics-object" aria-roledescription="area mark container"><path aria-label="Date: Mar 16, 2026; Unique Visitors/day: 0; Repository: karlmdavis/justdavis-puppet" role="graphics-symbol" aria-roledescription="area mark" d="M0,300L21.053,300L42.105,300L63.158,300L84.211,300L105.263,300L126.316,300L147.368,187.5L168.421,187.5L189.474,187.5L210.526,225L231.579,225L252.632,225L273.684,300L294.737,150L315.789,262.5L336.842,225L357.895,262.5L378.947,300L400,262.5L421.053,262.5L442.105,300L463.158,300L484.211,262.5L505.263,262.5L526.316,262.5L547.368,300L568.421,187.5L589.474,300L610.526,262.5L631.579,262.5L652.632,300L673.684,225L694.737,300L715.789,300L736.842,262.5L757.895,225L778.947,225L800,262.5L800,262.5L778.947,225L757.895,225L736.842,262.5L715.789,300L694.737,300L673.684,225L652.632,300L631.579,262.5L610.526,262.5L589.474,300L568.421,187.5L547.368,300L526.316,262.5L505.263,262.5L484.211,262.5L463.158,300L442.105,300L421.053,262.5L400,262.5L378.947,300L357.895,262.5L336.842,225L315.789,262.5L294.737,150L273.684,300L252.632,225L231.579,225L210.526,225L189.474,187.5L168.421,187.5L147.368,187.5L126.316,300L105.263,300L84.211,300L63.158,300L42.105,300L21.053,300L0,300Z" fill="#e45756"/></g></g><path class="foreground" aria-hidden="true" d="" display="none"/></g><g transform="translate(0,0)"><path class="background" aria-hidden="true" d="M0,0h800v300h-800Z"/><g><g class="mark-area role-mark marks" role="graphics-object" aria-roledescription="area mark container"><path aria-label="Date: Mar 16, 2026; Unique Visitors/day: 0; Repository: karlmdavis/kobjects" role="graphics-symbol" aria-roledescription="area mark" d="M0,300L21.053,300L42.105,300L63.158,300L84.211,300L105.263,300L126.316,300L147.368,187.5L168.421,187.5L189.474,187.5L210.526,225L231.579,225L252.632,225L273.684,300L294.737,150L315.789,262.5L336.842,225L357.895,262.5L378.947,300L400,262.5L421.053,262.5L442.105,300L463.158,300L484.211,262.5L505.263,262.5L526.316,262.5L547.368,300L568.421,187.5L589.474,300L610.526,262.5L631.579,262.5L652.632,300L673.684,225L694.737,300L715.789,300L736.842,262.5L757.895,225L778.947,225L800,262.5L800,262.5L778.947,225L757.895,225L736.842,262.5L715.789,300L694.737,300L673.684,225L652.632,300L631.579,262.5L610.526,262.5L589.474,300L568.421,187.5L547.368,300L526.316,262.5L505.263,262.5L484.211,262.5L463.158,300L442.105,300L421.053,262.5L400,262.5L378.947,300L357.895,262.5L336.842,225L315.789,262.5L294.737,150L273.684,300L252.632,225L231.579,225L210.526,225L189.474,187.5L168.421,187.5L147.368,187.5L126.316,300L105.263,300L84.211,300L63.158,300L42.105,300L21.053,300L0,300Z" fill="#72b7b2"/></g></g><path class="foreground" aria-hidden="true" d="" display="none"/></g><g transform="translate(0,0)"><path class="background" aria-hidden="true" d="M0,0h800v300h-800Z"/><g><g class="mark-area role-mark marks" role="graphics-object" aria-roledescription="area mark container"><path aria-label="Date: Mar 16, 2026; Unique Visitors/day: 0; Repository: karlmdavis/ksoap2-android" role="graphics-symbol" aria-roledescription="area mark" d="M0,300L21.053,300L42.105,300L63.158,300L84.211,300L105.263,300L126.316,300L147.368,187.5L168.421,187.5L189.474,187.5L210.526,225L231.579,225L252.632,225L273.684,300L294.737,150L315.789,262.5L336.842,225L357.895,262.5L378.947,300L400,262.5L421.053,262.5L442.105,300L463.158,300L484.211,262.5L505.263,262.5L526.316,262.5L547.368,300L568.421,187.5L589.474,300L610.526,262.5L631.579,262.5L652.632,300L673.684,225L694.737,300L715.789,300L736.842,262.5L757.895,225L778.947,225L800,262.5L800,300L778.947,300L757.895,262.5L736.842,262.5L715.789,300L694.737,300L673.684,300L652.632,300L631.579,300L610.526,300L589.474,300L568.421,225L547.368,300L526.316,300L505.263,262.5L484.211,300L463.158,300L442.105,300L421.053,300L400,300L378.947,300L357.895,300L336.842,262.5L315.789,262.5L294.737,225L273.684,300L252.632,225L231.579,262.5L210.526,225L189.474,225L168.421,262.5L147.368,262.5L126.316,300L105.263,300L84.211,300L63.158,300L42.105,300L21.053,300L0,300Z" fill="#54a24b"/></g></g><path class="foreground" aria-hidden="true" d="" display="none"/></g><g transform="translate(0,0)"><path class="background" aria-hidden="true" d="M0,0h800v300h-800Z"/><g><g class="mark-area role-mark marks" role="graphics-object" aria-roledescription="area mark container"><path aria-label="Date: Mar 16, 2026; Unique Visitors/day: 0; Repository: karlmdavis/kxml2" role="graphics-symbol" aria-roledescription="area mark" d="M0,300L21.053,300L42.105,300L63.158,300L84.211,300L105.263,300L126.316,300L147.368,262.5L168.421,262.5L189.474,225L210.526,225L231.579,262.5L252.632,225L273.684,300L294.737,225L315.789,262.5L336.842,262.5L357.895,300L378.947,300L400,300L421.053,300L442.105,300L463.158,300L484.211,300L505.263,262.5L526.316,300L547.368,300L568.421,225L589.474,300L610.526,300L631.579,300L652.632,300L673.684,300L694.737,300L715.789,300L736.842,262.5L757.895,262.5L778.947,300L800,300L800,300L778.947,300L757.895,262.5L736.842,262.5L715.789,300L694.737,300L673.684,300L652.632,300L631.579,300L610.526,300L589.474,300L568.421,225L547.368,300L526.316,300L505.263,262.5L484.211,300L463.158,300L442.105,300L421.053,300L400,300L378.947,300L357.895,300L336.842,262.5L315.789,262.5L294.737,225L273.684,300L252.632,262.5L231.579,262.5L210.526,225L189.474,262.5L168.421,262.5L147.368,262.5L126.316,300L105.263,300L84.211,300L63.158,300L42.105,300L21.053,300L0,300Z" fill="#eeca3b"/></g></g><path class="foreground" aria-hidden="true" d="" display="none"/></g><g transform="translate(0,0)"><path class="background" aria-hidden="true" d="M0,0h800v300h-800Z"/><g><g class="mark-area role-mark marks" role="graphics-object" aria-roledescription="area mark container"><path aria-label="Date: Mar 16, 2026; Unique Visitors/day: 0; Repository: karlmdavis/ldap-plugin" role="graphics-symbol" aria-roledescription="area mark" d="M0,300L21.053,300L42.105,300L63.158,300L84.211,300L105.263,300L126.316,300L147.368,262.5L168.421,262.5L189.474,262.5L210.526,225L231.579,262.5L252.632,262.5L273.684,300L294.737,225L315.789,262.5L336.842,262.5L357.895,300L378.947,300L400,300L421.053,300L442.105,300L463.158,300L484.211,300L505.263,262.5L526.316,300L547.368,300L568.421,225L589.474,300L610.526,300L631.579,300L652.632,300L673.684,300L694.737,300L715.789,300L736.842,262.5L757.895,262.5L778.947,300L800,300L800,300L778.947,300L757.895,262.5L736.842,262.5L715.789,300L694.737,300L673.684,300L652.632,300L631.579,300L610.526,300L589.474,300L568.421,225L547.368,300L526.316,300L505.263,262.5L484.211,300L463.158,300L442.105,300L421.053,300L400,300L378.947,300L357.895,300L336.842,262.5L315.789,262.5L294.737,225L273.684,300L252.632,262.5L231.579,262.5L210.526,225L189.474,262.5L168.421,262.5L147.368,262.5L126.316,300L105.263,300L84.211,300L63.158,300L42.105,300L21.053,300L0,300Z" fill="#b279a2"/></g></g><path class="foreground" aria-hidden="true" d="" display="none"/></g><g transform="translate(0,0)"><path class="background" aria-hidden="true" d="M0,0h800v300h-800Z"/><g><g class="mark-area role-mark marks" role="graphics-object" aria-roledescription="area mark container"><path aria-label="Date: Mar 16, 2026; Unique Visitors/day: 0; Repository: karlmdavis/lego-ev3dev-rs" role="graphics-symbol" aria-roledescription="area mark" d="M0,300L21.053,300L42.105,300L63.158,300L84.211,300L105.263,300L126.316,300L147.368,262.5L168.421,262.5L189.474,262.5L210.526,225L231.579,262.5L252.632,262.5L273.684,300L294.737,225L315.789,262.5L336.842,262.5L357.895,300L378.947,300L400,300L421.053,300L442.105,300L463.158,300L484.211,300L505.263,262.5L526.316,300L547.368,300L568.421,225L589.474,300L610.526,300L631.579,300L652.632,300L673.684,300L694.737,300L715.789,300L736.842,262.5L757.895,262.5L778.947,300L800,300L800,300L778.947,300L757.895,262.5L736.842,262.5L715.789,300L694.737,300L673.684,300L652.632,300L631.579,300L610.526,300L589.474,300L568.421,225L547.368,300L526.316,300L505.263,262.5L484.211,300L463.158,300L442.105,300L421.053,300L400,300L378.947,300L357.895,300L336.842,262.5L315.789,262.5L294.737,225L273.684,300L252.632,262.5L231.579,262.5L210.526,225L189.474,262.5L168.421,262.5L147.368,262.5L126.316,300L105.263,300L84.211,300L63.158,300L42.105,300L21.053,300L0,300Z" fill="#ff9da6"/></g></g><path class="foreground" aria-hidden="true" d="" display="none"/></g><g transform="translate(0,0)"><path class="background" aria-hidden="true" d="M0,0h800v300h-800Z"/><g><g class="mark-area role-mark marks" role="graphics-object" aria-roledescription="area mark container"><path aria-label="Date: Mar 16, 2026; Unique Visitors/day: 0; Repository: karlmdavis/liquibase" role="graphics-symbol" aria-roledescription="area mark" d="M0,300L21.053,300L42.105,300L63.158,300L84.211,300L105.263,300L126.316,300L147.368,262.5L168.421,262.5L189.474,262.5L210.526,225L231.579,262.5L252.632,262.5L273.684,300L294.737,225L315.789,262.5L336.842,262.5L357.895,300L378.947,300L400,300L421.053,300L442.105,300L463.158,300L484.211,300L505.263,262.5L526.316,300L547.368,300L568.421,225L589.474,300L610.526,300L631.579,300L652.632,300L673.684,300L694.737,300L715.789,300L736.842,262.5L757.895,262.5L778.947,300L800,300L800,300L778.947,300L757.895,262.5L736.842,262.5L715.789,300L694.737,300L673.684,300L652.632,300L631.579,300L610.526,300L589.474,300L568.421,225L547.368,300L526.316,300L505.263,262.5L484.211,300L463.158,300L442.105,300L421.053,300L400,300L378.947,300L357.895,300L336.842,262.5L315.789,262.5L294.737,225L273.684,300L252.632,262.5L231.579,262.5L210.526,225L189.474,262.5L168.421,262.5L147.368,262.5L126.316,300L105.263,300L84.211,300L63.158,300L42.105,300L21.053,300L0,300Z" fill="#9d755d"/></g></g><path class="foreground" aria-hidden="true" d="" display="none"/></g><g transform="translate(0,0)"><path class="background" aria-hidden="true" d="M0,0h800v300h-800Z"/><g><g class="mark-area role-mark marks" role="graphics-object" aria-roledescription="area mark container"><path aria-label="Date: Mar 16, 2026; Unique Visitors/day: 0; Repository: karlmdavis/m2e-core" role="graphics-symbol" aria-roledescription="area mark" d="M0,300L21.053,300L42.105,300L63.158,300L84.211,300L105.263,300L126.316,300L147.368,262.5L168.421,262.5L189.474,262.5L210.526,225L231.579,262.5L252.632,262.5L273.684,300L294.737,225L315.789,262.5L336.842,262.5L357.895,300L378.947,300L400,300L421.053,300L442.105,300L463.158,300L484.211,300L505.263,262.5L526.316,300L547.368,300L568.421,225L589.474,300L610.526,300L631.579,300L652.632,300L673.684,300L694.737,300L715.789,300L736.842,262.5L757.895,262.5L778.947,300L800,300L800,300L778.947,300L757.895,262.5L736.842,262.5L715.789,300L694.737,300L673.684,300L652.632,300L631.579,300L610.526,300L589.474,300L568.421,225L547.368,300L526.316,300L505.263,262.5L484.211,300L463.158,300L442.105,300L421.053,300L400,300L378.947,300L357.895,300L336.842,262.5L315.789,262.5L294.737,225L273.684,300L252.632,262.5L231.579,262.5L210.526,225L189.474,262.5L168.421,262.5L147.368,262.5L126.316,300L105.263,300L84.211,300L63.158,300L42.105,300L21.053,300L0,300Z" fill="#bab0ac"/></g></g><path class="foreground" aria-hidden="true" d="" display="none"/></g><g transform="translate(0,0)"><path class="background" aria-hidden="true" d="M0,0h800v300h-800Z"/><g><g class="mark-area role-mark marks" role="graphics-object" aria-roledescription="area mark container"><path aria-label="Date: Mar 16, 2026; Unique Visitors/day: 0; Repository: karlmdavis/m2e-core-tests" role="graphics-symbol" aria-roledescription="area mark" d="M0,300L21.053,300L42.105,300L63.158,300L84.211,300L105.263,300L126.316,300L147.368,262.5L168.421,262.5L189.474,262.5L210.526,225L231.579,262.5L252.632,262.5L273.684,300L294.737,225L315.789,262.5L336.842,262.5L357.895,300L378.947,300L400,300L421.053,300L442.105,300L463.158,300L484.211,300L505.263,262.5L526.316,300L547.368,300L568.421,225L589.474,300L610.526,300L631.579,300L652.632,300L673.684,300L694.737,300L715.789,300L736.842,262.5L757.895,262.5L778.947,300L800,300L800,300L778.947,300L757.895,262.5L736.842,262.5L715.789,300L694.737,300L673.684,300L652.632,300L631.579,300L610.526,300L589.474,300L568.421,225L547.368,300L526.316,300L505.263,262.5L484.211,300L463.158,300L442.105,300L421.053,300L400,300L378.947,300L357.895,300L336.842,262.5L315.789,262.5L294.737,225L273.684,300L252.632,262.5L231.579,262.5L210.526,225L189.474,262.5L168.421,262.5L147.368,262.5L126.316,300L105.263,300L84.211,300L63.158,300L42.105,300L21.053,300L0,300Z" fill="#4c78a8"/></g></g><path class="foreground" aria-hidden="true" d="" display="none"/></g><g transform="translate(0,0)"><path class="background" aria-hidden="true" d="M0,0h800v300h-800Z"/><g><g class="mark-area role-mark marks" role="graphics-object" aria-roledescription="area mark container"><path aria-label="Date: Mar 16, 2026; Unique Visitors/day: 0; Repository: karlmdavis/obsidian-operator" role="graphics-symbol" aria-roledescription="area mark" d="M0,300L21.053,300L42.105,300L63.158,300L84.211,300L105.263,300L126.316,300L147.368,262.5L168.421,262.5L189.474,262.5L210.526,225L231.579,262.5L252.632,262.5L273.684,300L294.737,225L315.789,262.5L336.842,262.5L357.895,300L378.947,300L400,300L421.053,300L442.105,300L463.158,300L484.211,300L505.263,262.5L526.316,300L547.368,300L568.421,225L589.474,300L610.526,300L631.579,300L652.632,300L673.684,300L694.737,300L715.789,300L736.842,262.5L757.895,262.5L778.947,300L800,300L800,300L778.947,300L757.895,262.5L736.842,262.5L715.789,300L694.737,300L673.684,300L652.632,300L631.579,300L610.526,300L589.474,300L568.421,262.5L547.368,300L526.316,300L505.263,262.5L484.211,300L463.158,300L442.105,300L421.053,300L400,300L378.947,300L357.895,300L336.842,262.5L315.789,262.5L294.737,225L273.684,300L252.632,262.5L231.579,262.5L210.526,225L189.474,262.5L168.421,262.5L147.368,262.5L126.316,300L105.263,300L84.211,300L63.158,300L42.105,300L21.053,300L0,300Z" fill="#f58518"/></g></g><path class="foreground" aria-hidden="true" d="" display="none"/></g><g transform="translate(0,0)"><path class="background" aria-hidden="true" d="M0,0h800v300h-800Z"/><g><g class="mark-area role-mark marks" role="graphics-object" aria-roledescription="area mark container"><path aria-label="Date: Mar 16, 2026; Unique Visitors/day: 0; Repository: karlmdavis/perfect-note" role="graphics-symbol" aria-roledescription="area mark" d="M0,300L21.053,300L42.105,300L63.158,300L84.211,300L105.263,300L126.316,300L147.368,262.5L168.421,262.5L189.474,262.5L210.526,225L231.579,262.5L252.632,262.5L273.684,300L294.737,225L315.789,262.5L336.842,262.5L357.895,300L378.947,300L400,300L421.053,300L442.105,300L463.158,300L484.211,300L505.263,262.5L526.316,300L547.368,300L568.421,262.5L589.474,300L610.526,300L631.579,300L652.632,300L673.684,300L694.737,300L715.789,300L736.842,262.5L757.895,262.5L778.947,300L800,300L800,300L778.947,300L757.895,262.5L736.842,262.5L715.789,300L694.737,300L673.684,300L652.632,300L631.579,300L610.526,300L589.474,300L568.421,262.5L547.368,300L526.316,300L505.263,262.5L484.211,300L463.158,300L442.105,300L421.053,300L400,300L378.947,300L357.895,300L336.842,262.5L315.789,262.5L294.737,225L273.684,300L252.632,262.5L231.579,262.5L210.526,225L189.474,262.5L168.421,262.5L147.368,262.5L126.316,300L105.263,300L84.211,300L63.158,300L42.105,300L21.053,300L0,300Z" fill="#e45756"/></g></g><path class="foreground" aria-hidden="true" d="" display="none"/></g><g transform="translate(0,0)"><path class="background" aria-hidden="true" d="M0,0h800v300h-800Z"/><g><g class="mark-area role-mark marks" role="graphics-object" aria-roledescription="area mark container"><path aria-label="Date: Mar 16, 2026; Unique Visitors/day: 0; Repository: karlmdavis/puppet-archive" role="graphics-symbol" aria-roledescription="area mark" d="M0,300L21.053,300L42.105,300L63.158,300L84.211,300L105.263,300L126.316,300L147.368,262.5L168.421,262.5L189.474,262.5L210.526,225L231.579,262.5L252.632,262.5L273.684,300L294.737,225L315.789,262.5L336.842,262.5L357.895,300L378.947,300L400,300L421.053,300L442.105,300L463.158,300L484.211,300L505.263,262.5L526.316,300L547.368,300L568.421,262.5L589.474,300L610.526,300L631.579,300L652.632,300L673.684,300L694.737,300L715.789,300L736.842,262.5L757.895,262.5L778.947,300L800,300L800,300L778.947,300L757.895,262.5L736.842,262.5L715.789,300L694.737,300L673.684,300L652.632,300L631.579,300L610.526,300L589.474,300L568.421,262.5L547.368,300L526.316,300L505.263,262.5L484.211,300L463.158,300L442.105,300L421.053,300L400,300L378.947,300L357.895,300L336.842,262.5L315.789,262.5L294.737,225L273.684,300L252.632,262.5L231.579,262.5L210.526,225L189.474,262.5L168.421,262.5L147.368,262.5L126.316,300L105.263,300L84.211,300L63.158,300L42.105,300L21.053,300L0,300Z" fill="#72b7b2"/></g></g><path class="foreground" aria-hidden="true" d="" display="none"/></g><g transform="translate(0,0)"><path class="background" aria-hidden="true" d="M0,0h800v300h-800Z"/><g><g class="mark-area role-mark marks" role="graphics-object" aria-roledescription="area mark container"><path aria-label="Date: Mar 16, 2026; Unique Visitors/day: 0; Repository: karlmdavis/puppet-sonar" role="graphics-symbol" aria-roledescription="area mark" d="M0,300L21.053,300L42.105,300L63.158,300L84.211,300L105.263,300L126.316,300L147.368,262.5L168.421,262.5L189.474,262.5L210.526,225L231.579,262.5L252.632,262.5L273.684,300L294.737,225L315.789,262.5L336.842,262.5L357.895,300L378.947,300L400,300L421.053,300L442.105,300L463.158,300L484.211,300L505.263,262.5L526.316,300L547.368,300L568.421,262.5L589.474,300L610.526,300L631.579,300L652.632,300L673.684,300L694.737,300L715.789,300L736.842,262.5L757.895,262.5L778.947,300L800,300L800,300L778.947,300L757.895,262.5L736.842,262.5L715.789,300L694.737,300L673.684,300L652.632,300L631.579,300L610.526,300L589.474,300L568.421,262.5L547.368,300L526.316,300L505.263,262.5L484.211,300L463.158,300L442.105,300L421.053,300L400,300L378.947,300L357.895,300L336.842,262.5L315.789,262.5L294.737,225L273.684,300L252.632,262.5L231.579,262.5L210.526,225L189.474,262.5L168.421,262.5L147.368,262.5L126.316,300L105.263,300L84.211,300L63.158,300L42.105,300L21.053,300L0,300Z" fill="#54a24b"/></g></g><path class="foreground" aria-hidden="true" d="" display="none"/></g><g transform="translate(0,0)"><path class="background" aria-hidden="true" d="M0,0h800v300h-800Z"/><g><g class="mark-area role-mark marks" role="graphics-object" aria-roledescription="area mark container"><path aria-label="Date: Mar 16, 2026; Unique Visitors/day: 0; Repository: karlmdavis/rps-tourney" role="graphics-symbol" aria-roledescription="area mark" d="M0,300L21.053,300L42.105,300L63.158,300L84.211,300L105.263,300L126.316,300L147.368,262.5L168.421,262.5L189.474,262.5L210.526,225L231.579,262.5L252.632,262.5L273.684,300L294.737,225L315.789,262.5L336.842,262.5L357.895,300L378.947,300L400,300L421.053,300L442.105,300L463.158,300L484.211,300L505.263,262.5L526.316,300L547.368,300L568.421,262.5L589.474,300L610.526,300L631.579,300L652.632,300L673.684,300L694.737,300L715.789,300L736.842,262.5L757.895,262.5L778.947,300L800,300L800,300L778.947,300L757.895,300L736.842,262.5L715.789,300L694.737,300L673.684,300L652.632,300L631.579,300L610.526,300L589.474,300L568.421,300L547.368,300L526.316,300L505.263,262.5L484.211,300L463.158,300L442.105,300L421.053,300L400,300L378.947,300L357.895,300L336.842,300L315.789,262.5L294.737,225L273.684,300L252.632,262.5L231.579,300L210.526,225L189.474,262.5L168.421,300L147.368,300L126.316,300L105.263,300L84.211,300L63.158,300L42.105,300L21.053,300L0,300Z" fill="#eeca3b"/></g></g><path class="foreground" aria-hidden="true" d="" display="none"/></g><g transform="translate(0,0)"><path class="background" aria-hidden="true" d="M0,0h800v300h-800Z"/><g><g class="mark-area role-mark marks" role="graphics-object" aria-roledescription="area mark container"><path aria-label="Date: Mar 16, 2026; Unique Visitors/day: 0; Repository: karlmdavis/sample-maven-and-rcp" role="graphics-symbol" aria-roledescription="area mark" d="M0,300L21.053,300L42.105,300L63.158,300L84.211,300L105.263,300L126.316,300L147.368,300L168.421,300L189.474,262.5L210.526,225L231.579,300L252.632,262.5L273.684,300L294.737,225L315.789,262.5L336.842,300L357.895,300L378.947,300L400,300L421.053,300L442.105,300L463.158,300L484.211,300L505.263,262.5L526.316,300L547.368,300L568.421,300L589.474,300L610.526,300L631.579,300L652.632,300L673.684,300L694.737,300L715.789,300L736.842,262.5L757.895,300L778.947,300L800,300L800,300L778.947,300L757.895,300L736.842,262.5L715.789,300L694.737,300L673.684,300L652.632,300L631.579,300L610.526,300L589.474,300L568.421,300L547.368,300L526.316,300L505.263,262.5L484.211,300L463.158,300L442.105,300L421.053,300L400,300L378.947,300L357.895,300L336.842,300L315.789,262.5L294.737,225L273.684,300L252.632,262.5L231.579,300L210.526,225L189.474,262.5L168.421,300L147.368,300L126.316,300L105.263,300L84.211,300L63.158,300L42.105,300L21.053,300L0,300Z" fill="#b279a2"/></g></g><path class="foreground" aria-hidden="true" d="" display="none"/></g><g transform="translate(0,0)"><path class="background" aria-hidden="true" d="M0,0h800v300h-800Z"/><g><g class="mark-area role-mark marks" role="graphics-object" aria-roledescription="area mark container"><path aria-label="Date: Mar 16, 2026; Unique Visitors/day: 0; Repository: karlmdavis/stockfighter-trades-solutions" role="graphics-symbol" aria-roledescription="area mark" d="M0,300L21.053,300L42.105,300L63.158,300L84.211,300L105.263,300L126.316,300L147.368,300L168.421,300L189.474,262.5L210.526,225L231.579,300L252.632,262.5L273.684,300L294.737,225L315.789,262.5L336.842,300L357.895,300L378.947,300L400,300L421.053,300L442.105,300L463.158,300L484.211,300L505.263,262.5L526.316,300L547.368,300L568.421,300L589.474,300L610.526,300L631.579,300L652.632,300L673.684,300L694.737,300L715.789,300L736.842,262.5L757.895,300L778.947,300L800,300L800,300L778.947,300L757.895,300L736.842,262.5L715.789,300L694.737,300L673.684,300L652.632,300L631.579,300L610.526,300L589.474,300L568.421,300L547.368,300L526.316,300L505.263,262.5L484.211,300L463.158,300L442.105,300L421.053,300L400,300L378.947,300L357.895,300L336.842,300L315.789,262.5L294.737,225L273.684,300L252.632,262.5L231.579,300L210.526,225L189.474,262.5L168.421,300L147.368,300L126.316,300L105.263,300L84.211,300L63.158,300L42.105,300L21.053,300L0,300Z" fill="#ff9da6"/></g></g><path class="foreground" aria-hidden="true" d="" display="none"/></g><g transform="translate(0,0)"><path class="background" aria-hidden="true" d="M0,0h800v300h-800Z"/><g><g class="mark-area role-mark marks" role="graphics-object" aria-roledescription="area mark container"><path aria-label="Date: Mar 16, 2026; Unique Visitors/day: 0; Repository: karlmdavis/test-repo-for-move" role="graphics-symbol" aria-roledescription="area mark" d="M0,300L21.053,300L42.105,300L63.158,300L84.211,300L105.263,300L126.316,300L147.368,300L168.421,300L189.474,262.5L210.526,225L231.579,300L252.632,262.5L273.684,300L294.737,225L315.789,262.5L336.842,300L357.895,300L378.947,300L400,300L421.053,300L442.105,300L463.158,300L484.211,300L505.263,262.5L526.316,300L547.368,300L568.421,300L589.474,300L610.526,300L631.579,300L652.632,300L673.684,300L694.737,300L715.789,300L736.842,262.5L757.895,300L778.947,300L800,300L800,300L778.947,300L757.895,300L736.842,262.5L715.789,300L694.737,300L673.684,300L652.632,300L631.579,300L610.526,300L589.474,300L568.421,300L547.368,300L526.316,300L505.263,262.5L484.211,300L463.158,300L442.105,300L421.053,300L400,300L378.947,300L357.895,300L336.842,300L315.789,262.5L294.737,225L273.684,300L252.632,262.5L231.579,300L210.526,225L189.474,262.5L168.421,300L147.368,300L126.316,300L105.263,300L84.211,300L63.158,300L42.105,300L21.053,300L0,300Z" fill="#9d755d"/></g></g><path class="foreground" aria-hidden="true" d="" display="none"/></g><g transform="translate(0,0)"><path class="background" aria-hidden="true" d="M0,0h800v300h-800Z"/><g><g class="mark-area role-mark marks" role="graphics-object" aria-roledescription="area mark container"><path aria-label="Date: Mar 16, 2026; Unique Visitors/day: 0; Repository: karlmdavis/todoist-ai" role="graphics-symbol" aria-roledescription="area mark" d="M0,300L21.053,300L42.105,300L63.158,300L84.211,300L105.263,300L126.316,300L147.368,300L168.421,300L189.474,262.5L210.526,225L231.579,300L252.632,262.5L273.684,300L294.737,225L315.789,262.5L336.842,300L357.895,300L378.947,300L400,300L421.053,300L442.105,300L463.158,300L484.211,300L505.263,262.5L526.316,300L547.368,300L568.421,300L589.474,300L610.526,300L631.579,300L652.632,300L673.684,300L694.737,300L715.789,300L736.842,262.5L757.895,300L778.947,300L800,300L800,300L778.947,300L757.895,300L736.842,300L715.789,300L694.737,300L673.684,300L652.632,300L631.579,300L610.526,300L589.474,300L568.421,300L547.368,300L526.316,300L505.263,262.5L484.211,300L463.158,300L442.105,300L421.053,300L400,300L378.947,300L357.895,300L336.842,300L315.789,262.5L294.737,262.5L273.684,300L252.632,262.5L231.579,300L210.526,225L189.474,262.5L168.421,300L147.368,300L126.316,300L105.263,300L84.211,300L63.158,300L42.105,300L21.053,300L0,300Z" fill="#bab0ac"/></g></g><path class="foreground" aria-hidden="true" d="" display="none"/></g><g transform="translate(0,0)"><path class="background" aria-hidden="true" d="M0,0h800v300h-800Z"/><g><g class="mark-area role-mark marks" role="graphics-object" aria-roledescription="area mark container"><path aria-label="Date: Mar 16, 2026; Unique Visitors/day: 0; Repository: karlmdavis/usgs-water-api-java" role="graphics-symbol" aria-roledescription="area mark" d="M0,300L21.053,300L42.105,300L63.158,300L84.211,300L105.263,300L126.316,300L147.368,300L168.421,300L189.474,262.5L210.526,225L231.579,300L252.632,262.5L273.684,300L294.737,262.5L315.789,262.5L336.842,300L357.895,300L378.947,300L400,300L421.053,300L442.105,300L463.158,300L484.211,300L505.263,262.5L526.316,300L547.368,300L568.421,300L589.474,300L610.526,300L631.579,300L652.632,300L673.684,300L694.737,300L715.789,300L736.842,300L757.895,300L778.947,300L800,300L800,300L778.947,300L757.895,300L736.842,300L715.789,300L694.737,300L673.684,300L652.632,300L631.579,300L610.526,300L589.474,300L568.421,300L547.368,300L526.316,300L505.263,262.5L484.211,300L463.158,300L442.105,300L421.053,300L400,300L378.947,300L357.895,300L336.842,300L315.789,262.5L294.737,262.5L273.684,300L252.632,262.5L231.579,300L210.526,225L189.474,262.5L168.421,300L147.368,300L126.316,300L105.263,300L84.211,300L63.158,300L42.105,300L21.053,300L0,300Z" fill="#4c78a8"/></g></g><path class="foreground" aria-hidden="true" d="" display="none"/></g><g transform="translate(0,0)"><path class="background" aria-hidden="true" d="M0,0h800v300h-800Z"/><g><g class="mark-area role-mark marks" role="graphics-object" aria-roledescription="area mark container"><path aria-label="Date: Mar 16, 2026; Unique Visitors/day: 0; Repository: karlmdavis/workstation-base-ansible-role" role="graphics-symbol" aria-roledescription="area mark" d="M0,300L21.053,300L42.105,300L63.158,300L84.211,300L105.263,300L126.316,300L147.368,300L168.421,300L189.474,262.5L210.526,225L231.579,300L252.632,262.5L273.684,300L294.737,262.5L315.789,262.5L336.842,300L357.895,300L378.947,300L400,300L421.053,300L442.105,300L463.158,300L484.211,300L505.263,262.5L526.316,300L547.368,300L568.421,300L589.474,300L610.526,300L631.579,300L652.632,300L673.684,300L694.737,300L715.789,300L736.842,300L757.895,300L778.947,300L800,300L800,300L778.947,300L757.895,300L736.842,300L715.789,300L694.737,300L673.684,300L652.632,300L631.579,300L610.526,300L589.474,300L568.421,300L547.368,300L526.316,300L505.263,262.5L484.211,300L463.158,300L442.105,300L421.053,300L400,300L378.947,300L357.895,300L336.842,300L315.789,262.5L294.737,262.5L273.684,300L252.632,262.5L231.579,300L210.526,225L189.474,262.5L168.421,300L147.368,300L126.316,300L105.263,300L84.211,300L63.158,300L42.105,300L21.053,300L0,300Z" fill="#f58518"/></g></g><path class="foreground" aria-hidden="true" d="" display="none"/></g><g transform="translate(0,0)"><path class="background" aria-hidden="true" d="M0,0h800v300h-800Z"/><g><g class="mark-area role-mark marks" role="graphics-object" aria-roledescription="area mark container"><path aria-label="Date: Mar 16, 2026; Unique Visitors/day: 0; Repository: karlmdavis/xmlpull" role="graphics-symbol" aria-roledescription="area mark" d="M0,300L21.053,300L42.105,300L63.158,300L84.211,300L105.263,300L126.316,300L147.368,300L168.421,300L189.474,262.5L210.526,225L231.579,300L252.632,262.5L273.684,300L294.737,262.5L315.789,262.5L336.842,300L357.895,300L378.947,300L400,300L421.053,300L442.105,300L463.158,300L484.211,300L505.263,262.5L526.316,300L547.368,300L568.421,300L589.474,300L610.526,300L631.579,300L652.632,300L673.684,300L694.737,300L715.789,300L736.842,300L757.895,300L778.947,300L800,300L800,300L778.947,300L757.895,300L736.842,300L715.789,300L694.737,300L673.684,300L652.632,300L631.579,300L610.526,300L589.474,300L568.421,300L547.368,300L526.316,300L505.263,300L484.211,300L463.158,300L442.105,300L421.053,300L400,300L378.947,300L357.895,300L336.842,300L315.789,300L294.737,300L273.684,300L252.632,300L231.579,300L210.526,300L189.474,300L168.421,300L147.368,300L126.316,300L105.263,300L84.211,300L63.158,300L42.105,300L21.053,300L0,300Z" fill="#e45756"/></g></g><path class="foreground" aria-hidden="true" d="" display="none"/></g></g><g class="mark-group role-legend" role="graphics-symbol" aria-roledescription="legend" aria-label="Symbol legend titled 'Repository' for fill color with 43 values: justdavis-family/github-analytics-data, justdavis-family/justdavis, karlmdavis/FHIR-Server, karlmdavis/ansible, karlmdavis/ansible-jenkins, ending with karlmdavis/xmlpull"><g transform="translate(818,0)"><path class="background" aria-hidden="true" d="M0,0h176v404h-176Z" pointer-events="none"/><g><g class="mark-group role-legend-entry"><g transform="translate(0,16)"><path class="background" aria-hidden="true" d="M0,0h0v0h0Z" pointer-events="none"/><g><g class="mark-group role-scope" role="graphics-object" aria-roledescription="group mark container"><g transform="translate(0,0)"><path class="background" aria-hidden="true" d="M0,0h176v11h-176Z" pointer-events="none" opacity="1"/><g><g class="mark-symbol role-legend-symbol" pointer-events="none"><path transform="translate(6,6)" d="M5,0A5,5,0,1,1,-5,0A5,5,0,1,1,5,0" fill="#4c78a8" stroke-width="1.5" opacity="1"/></g><g class="mark-text role-legend-label" pointer-events="none"><text text-anchor="start" transform="translate(16,9)" font-family="sans-serif" font-size="10px" fill="#000" opacity="1">justdavis-family/github-analytics-d…</text></g></g><path class="foreground" aria-hidden="true" d="" pointer-events="none" display="none"/></g><g transform="translate(0,13)"><path class="background" aria-hidden="true" d="M0,0h176v11h-176Z" pointer-events="none" opacity="1"/><g><g class="mark-symbol role-legend-symbol" pointer-events="none"><path transform="translate(6,6)" d="M5,0A5,5,0,1,1,-5,0A5,5,0,1,1,5,0" fill="#f58518" stroke-width="1.5" opacity="1"/></g><g class="mark-text role-legend-label" pointer-events="none"><text text-anchor="start" transform="translate(16,9)" font-family="sans-serif" font-size="10px" fill="#000" opacity="1">justdavis-family/justdavis</text></g></g><path class="foreground" aria-hidden="true" d="" pointer-events="none" display="none"/></g><g transform="translate(0,26)"><path class="background" aria-hidden="true" d="M0,0h176v11h-176Z" pointer-events="none" opacity="1"/><g><g class="mark-symbol role-legend-symbol" pointer-events="none"><path transform="translate(6,6)" d="M5,0A5,5,0,1,1,-5,0A5,5,0,1,1,5,0" fill="#e45756" stroke-width="1.5" opacity="1"/></g><g class="mark-text role-legend-label" pointer-events="none"><text text-anchor="start" transform="translate(16,9)" font-family="sans-serif" font-size="10px" fill="#000" opacity="1">karlmdavis/FHIR-Server</text></g></g><path class="foreground" aria-hidden="true" d="" pointer-events="none" display="none"/></g><g transform="translate(0,39)"><path class="background" aria-hidden="true" d="M0,0h176v11h-176Z" pointer-events="none" opacity="1"/><g><g class="mark-symbol role-legend-symbol" pointer-events="none"><path transform="translate(6,6)" d="M5,0A5,5,0,1,1,-5,0A5,5,0,1,1,5,0" fill="#72b7b2" stroke-width="1.5" opacity="1"/></g><g class="mark-text role-legend-label" pointer-events="none"><text text-anchor="start" transform="translate(16,9)" font-family="sans-serif" font-size="10px" fill="#000" opacity="1">karlmdavis/ansible</text></g></g><path class="foreground" aria-hidden="true" d="" pointer-events="none" display="none"/></g><g transform="translate(0,52)"><path class="background" aria-hidden="true" d="M0,0h176v11h-176Z" pointer-events="none" opacity="1"/><g><g class="mark-symbol role-legend-symbol" pointer-events="none"><path transform="translate(6,6)" d="M5,0A5,5,0,1,1,-5,0A5,5,0,1,1,5,0" fill="#54a24b" stroke-width="1.5" opacity="1"/></g><g class="mark-text role-legend-label" pointer-events="none"><text text-anchor="start" transform="translate(16,9)" font-family="sans-serif" font-size="10px" fill="#000" opacity="1">karlmdavis/ansible-jenkins</text></g></g><path class="foreground" aria-hidden="true" d="" pointer-events="none" display="none"/></g><g transform="translate(0,65)"><path class="background" aria-hidden="true" d="M0,0h176v11h-176Z" pointer-events="none" opacity="1"/><g><g class="mark-symbol role-legend-symbol" pointer-events="none"><path transform="translate(6,6)" d="M5,0A5,5,0,1,1,-5,0A5,5,0,1,1,5,0" fill="#eeca3b" stroke-width="1.5" opacity="1"/></g><g class="mark-text role-legend-label" pointer-events="none"><text text-anchor="start" transform="translate(16,9)" font-family="sans-serif" font-size="10px" fill="#000" opacity="1">karlmdavis/ansible-role-acmetool</text></g></g><path class="foreground" aria-hidden="true" d="" pointer-events="none" display="none"/></g><g transform="translate(0,78)"><path class="background" aria-hidden="true" d="M0,0h176v11h-176Z" pointer-events="none" opacity="1"/><g><g class="mark-symbol role-legend-symbol" pointer-events="none"><path transform="translate(6,6)" d="M5,0A5,5,0,1,1,-5,0A5,5,0,1,1,5,0" fill="#b279a2" stroke-width="1.5" opacity="1"/></g><g class="mark-text role-legend-label" pointer-events="none"><text text-anchor="start" transform="translate(16,9)" font-family="sans-serif" font-size="10px" fill="#000" opacity="1">karlmdavis/ansible-role-bind-dns</text></g></g><path class="foreground" aria-hidden="true" d="" pointer-events="none" display="none"/></g><g transform="translate(0,91)"><path class="background" aria-hidden="true" d="M0,0h176v11h-176Z" pointer-events="none" opacity="1"/><g><g class="mark-symbol role-legend-symbol" pointer-events="none"><path transform="translate(6,6)" d="M5,0A5,5,0,1,1,-5,0A5,5,0,1,1,5,0" fill="#ff9da6" stroke-width="1.5" opacity="1"/></g><g class="mark-text role-legend-label" pointer-events="none"><text text-anchor="start" transform="translate(16,9)" font-family="sans-serif" font-size="10px" fill="#000" opacity="1">karlmdavis/ansible-role-jenkins2</text></g></g><path class="foreground" aria-hidden="true" d="" pointer-events="none" display="none"/></g><g transform="translate(0,104)"><path class="background" aria-hidden="true" d="M0,0h176v11h-176Z" pointer-events="none" opacity="1"/><g><g class="mark-symbol role-legend-symbol" pointer-events="none"><path transform="translate(6,6)" d="M5,0A5,5,0,1,1,-5,0A5,5,0,1,1,5,0" fill="#9d755d" stroke-width="1.5" opacity="1"/></g><g class="mark-text role-legend-label" pointer-events="none"><text text-anchor="start" transform="translate(16,9)" font-family="sans-serif" font-size="10px" fill="#000" opacity="1">karlmdavis/ansible-role-ldap</text></g></g><path class="foreground" aria-hidden="true" d="" pointer-events="none" display="none"/></g><g transform="translate(0,117)"><path class="background" aria-hidden="true" d="M0,0h176v11h-176Z" pointer-events="none" opacity="1"/><g><g class="mark-symbol role-legend-symbol" pointer-events="none"><path transform="translate(6,6)" d="M5,0A5,5,0,1,1,-5,0A5,5,0,1,1,5,0" fill="#bab0ac" stroke-width="1.5" opacity="1"/></g><g class="mark-text role-legend-label" pointer-events="none"><text text-anchor="start" transform="translate(16,9)" font-family="sans-serif" font-size="10px" fill="#000" opacity="1">karlmdavis/ansible-role-rcm-dotfiles</text></g></g><path class="foreground" aria-hidden="true" d="" pointer-events="none" display="none"/></g><g transform="translate(0,130)"><path class="background" aria-hidden="true" d="M0,0h176v11h-176Z" pointer-events="none" opacity="1"/><g><g class="mark-symbol role-legend-symbol" pointer-events="none"><path transform="translate(6,6)" d="M5,0A5,5,0,1,1,-5,0A5,5,0,1,1,5,0" fill="#4c78a8" stroke-width="1.5" opacity="1"/></g><g class="mark-text role-legend-label" pointer-events="none"><text text-anchor="start" transform="translate(16,9)" font-family="sans-serif" font-size="10px" fill="#000" opacity="1">karlmdavis/ansible-roles</text></g></g><path class="foreground" aria-hidden="true" d="" pointer-events="none" display="none"/></g><g transform="translate(0,143)"><path class="background" aria-hidden="true" d="M0,0h176v11h-176Z" pointer-events="none" opacity="1"/><g><g class="mark-symbol role-legend-symbol" pointer-events="none"><path transform="translate(6,6)" d="M5,0A5,5,0,1,1,-5,0A5,5,0,1,1,5,0" fill="#f58518" stroke-width="1.5" opacity="1"/></g><g class="mark-text role-legend-label" pointer-events="none"><text text-anchor="start" transform="translate(16,9)" font-family="sans-serif" font-size="10px" fill="#000" opacity="1">karlmdavis/bbonfhir-dev-infra-doc…</text></g></g><path class="foreground" aria-hidden="true" d="" pointer-events="none" display="none"/></g><g transform="translate(0,156)"><path class="background" aria-hidden="true" d="M0,0h176v11h-176Z" pointer-events="none" opacity="1"/><g><g class="mark-symbol role-legend-symbol" pointer-events="none"><path transform="translate(6,6)" d="M5,0A5,5,0,1,1,-5,0A5,5,0,1,1,5,0" fill="#e45756" stroke-width="1.5" opacity="1"/></g><g class="mark-text role-legend-label" pointer-events="none"><text text-anchor="start" transform="translate(16,9)" font-family="sans-serif" font-size="10px" fill="#000" opacity="1">karlmdavis/can-i-kayak-baltimore</text></g></g><path class="foreground" aria-hidden="true" d="" pointer-events="none" display="none"/></g><g transform="translate(0,169)"><path class="background" aria-hidden="true" d="M0,0h176v11h-176Z" pointer-events="none" opacity="1"/><g><g class="mark-symbol role-legend-symbol" pointer-events="none"><path transform="translate(6,6)" d="M5,0A5,5,0,1,1,-5,0A5,5,0,1,1,5,0" fill="#72b7b2" stroke-width="1.5" opacity="1"/></g><g class="mark-text role-legend-label" pointer-events="none"><text text-anchor="start" transform="translate(16,9)" font-family="sans-serif" font-size="10px" fill="#000" opacity="1">karlmdavis/datanucleus-test-jdo-1…</text></g></g><path class="foreground" aria-hidden="true" d="" pointer-events="none" display="none"/></g><g transform="translate(0,182)"><path class="background" aria-hidden="true" d="M0,0h176v11h-176Z" pointer-events="none" opacity="1"/><g><g class="mark-symbol role-legend-symbol" pointer-events="none"><path transform="translate(6,6)" d="M5,0A5,5,0,1,1,-5,0A5,5,0,1,1,5,0" fill="#54a24b" stroke-width="1.5" opacity="1"/></g><g class="mark-text role-legend-label" pointer-events="none"><text text-anchor="start" transform="translate(16,9)" font-family="sans-serif" font-size="10px" fill="#000" opacity="1">karlmdavis/dotfiles</text></g></g><path class="foreground" aria-hidden="true" d="" pointer-events="none" display="none"/></g><g transform="translate(0,195)"><path class="background" aria-hidden="true" d="M0,0h176v11h-176Z" pointer-events="none" opacity="1"/><g><g class="mark-symbol role-legend-symbol" pointer-events="none"><path transform="translate(6,6)" d="M5,0A5,5,0,1,1,-5,0A5,5,0,1,1,5,0" fill="#eeca3b" stroke-width="1.5" opacity="1"/></g><g class="mark-text role-legend-label" pointer-events="none"><text text-anchor="start" transform="translate(16,9)" font-family="sans-serif" font-size="10px" fill="#000" opacity="1">karlmdavis/fhir-benchmarks</text></g></g><path class="foreground" aria-hidden="true" d="" pointer-events="none" display="none"/></g><g transform="translate(0,208)"><path class="background" aria-hidden="true" d="M0,0h176v11h-176Z" pointer-events="none" opacity="1"/><g><g class="mark-symbol role-legend-symbol" pointer-events="none"><path transform="translate(6,6)" d="M5,0A5,5,0,1,1,-5,0A5,5,0,1,1,5,0" fill="#b279a2" stroke-width="1.5" opacity="1"/></g><g class="mark-text role-legend-label" pointer-events="none"><text text-anchor="start" transform="translate(16,9)" font-family="sans-serif" font-size="10px" fill="#000" opacity="1">karlmdavis/hapi-fhir-jpaserver-sta…</text></g></g><path class="foreground" aria-hidden="true" d="" pointer-events="none" display="none"/></g><g transform="translate(0,221)"><path class="background" aria-hidden="true" d="M0,0h176v11h-176Z" pointer-events="none" opacity="1"/><g><g class="mark-symbol role-legend-symbol" pointer-events="none"><path transform="translate(6,6)" d="M5,0A5,5,0,1,1,-5,0A5,5,0,1,1,5,0" fill="#ff9da6" stroke-width="1.5" opacity="1"/></g><g class="mark-text role-legend-label" pointer-events="none"><text text-anchor="start" transform="translate(16,9)" font-family="sans-serif" font-size="10px" fill="#000" opacity="1">karlmdavis/hello-rust-actix</text></g></g><path class="foreground" aria-hidden="true" d="" pointer-events="none" display="none"/></g><g transform="translate(0,234)"><path class="background" aria-hidden="true" d="M0,0h176v11h-176Z" pointer-events="none" opacity="1"/><g><g class="mark-symbol role-legend-symbol" pointer-events="none"><path transform="translate(6,6)" d="M5,0A5,5,0,1,1,-5,0A5,5,0,1,1,5,0" fill="#9d755d" stroke-width="1.5" opacity="1"/></g><g class="mark-text role-legend-label" pointer-events="none"><text text-anchor="start" transform="translate(16,9)" font-family="sans-serif" font-size="10px" fill="#000" opacity="1">karlmdavis/jessentials</text></g></g><path class="foreground" aria-hidden="true" d="" pointer-events="none" display="none"/></g><g transform="translate(0,247)"><path class="background" aria-hidden="true" d="M0,0h176v11h-176Z" pointer-events="none" opacity="1"/><g><g class="mark-symbol role-legend-symbol" pointer-events="none"><path transform="translate(6,6)" d="M5,0A5,5,0,1,1,-5,0A5,5,0,1,1,5,0" fill="#bab0ac" stroke-width="1.5" opacity="1"/></g><g class="mark-text role-legend-label" pointer-events="none"><text text-anchor="start" transform="translate(16,9)" font-family="sans-serif" font-size="10px" fill="#000" opacity="1">karlmdavis/justdavis-ansible</text></g></g><path class="foreground" aria-hidden="true" d="" pointer-events="none" display="none"/></g><g transform="translate(0,260)"><path class="background" aria-hidden="true" d="M0,0h176v11h-176Z" pointer-events="none" opacity="1"/><g><g class="mark-symbol role-legend-symbol" pointer-events="none"><path transform="translate(6,6)" d="M5,0A5,5,0,1,1,-5,0A5,5,0,1,1,5,0" fill="#4c78a8" stroke-width="1.5" opacity="1"/></g><g class="mark-text role-legend-label" pointer-events="none"><text text-anchor="start" transform="translate(16,9)" font-family="sans-serif" font-size="10px" fill="#000" opacity="1">karlmdavis/justdavis-finances</text></g></g><path class="foreground" aria-hidden="true" d="" pointer-events="none" display="none"/></g><g transform="translate(0,273)"><path class="background" aria-hidden="true" d="M0,0h176v11h-176Z" pointer-events="none" opacity="1"/><g><g class="mark-symbol role-legend-symbol" pointer-events="none"><path transform="translate(6,6)" d="M5,0A5,5,0,1,1,-5,0A5,5,0,1,1,5,0" fill="#f58518" stroke-width="1.5" opacity="1"/></g><g class="mark-text role-legend-label" pointer-events="none"><text text-anchor="start" transform="translate(16,9)" font-family="sans-serif" font-size="10px" fill="#000" opacity="1">karlmdavis/justdavis-karl</text></g></g><path class="foreground" aria-hidden="true" d="" pointer-events="none" display="none"/></g><g transform="translate(0,286)"><path class="background" aria-hidden="true" d="M0,0h176v11h-176Z" pointer-events="none" opacity="1"/><g><g class="mark-symbol role-legend-symbol" pointer-events="none"><path transform="translate(6,6)" d="M5,0A5,5,0,1,1,-5,0A5,5,0,1,1,5,0" fill="#e45756" stroke-width="1.5" opacity="1"/></g><g class="mark-text role-legend-label" pointer-events="none"><text text-anchor="start" transform="translate(16,9)" font-family="sans-serif" font-size="10px" fill="#000" opacity="1">karlmdavis/justdavis-puppet</text></g></g><path class="foreground" aria-hidden="true" d="" pointer-events="none" display="none"/></g><g transform="translate(0,299)"><path class="background" aria-hidden="true" d="M0,0h176v11h-176Z" pointer-events="none" opacity="1"/><g><g class="mark-symbol role-legend-symbol" pointer-events="none"><path transform="translate(6,6)" d="M5,0A5,5,0,1,1,-5,0A5,5,0,1,1,5,0" fill="#72b7b2" stroke-width="1.5" opacity="1"/></g><g class="mark-text role-legend-label" pointer-events="none"><text text-anchor="start" transform="translate(16,9)" font-family="sans-serif" font-size="10px" fill="#000" opacity="1">karlmdavis/kobjects</text></g></g><path class="foreground" aria-hidden="true" d="" pointer-events="none" display="none"/></g><g transform="translate(0,312)"><path class="background" aria-hidden="true" d="M0,0h176v11h-176Z" pointer-events="none" opacity="1"/><g><g class="mark-symbol role-legend-symbol" pointer-events="none"><path transform="translate(6,6)" d="M5,0A5,5,0,1,1,-5,0A5,5,0,1,1,5,0" fill="#54a24b" stroke-width="1.5" opacity="1"/></g><g class="mark-text role-legend-label" pointer-events="none"><text text-anchor="start" transform="translate(16,9)" font-family="sans-serif" font-size="10px" fill="#000" opacity="1">karlmdavis/ksoap2-android</text></g></g><path class="foreground" aria-hidden="true" d="" pointer-events="none" display="none"/></g><g transform="translate(0,325)"><path class="background" aria-hidden="true" d="M0,0h176v11h-176Z" pointer-events="none" opacity="1"/><g><g class="mark-symbol role-legend-symbol" pointer-events="none"><path transform="translate(6,6)" d="M5,0A5,5,0,1,1,-5,0A5,5,0,1,1,5,0" fill="#eeca3b" stroke-width="1.5" opacity="1"/></g><g class="mark-text role-legend-label" pointer-events="none"><text text-anchor="start" transform="translate(16,9)" font-family="sans-serif" font-size="10px" fill="#000" opacity="1">karlmdavis/kxml2</text></g></g><path class="foreground" aria-hidden="true" d="" pointer-events="none" display="none"/></g><g transform="translate(0,338)"><path class="background" aria-hidden="true" d="M0,0h176v11h-176Z" pointer-events="none" opacity="1"/><g><g class="mark-symbol role-legend-symbol" pointer-events="none"><path transform="translate(6,6)" d="M5,0A5,5,0,1,1,-5,0A5,5,0,1,1,5,0" fill="#b279a2" stroke-width="1.5" opacity="1"/></g><g class="mark-text role-legend-label" pointer-events="none"><text text-anchor="start" transform="translate(16,9)" font-family="sans-serif" font-size="10px" fill="#000" opacity="1">karlmdavis/ldap-plugin</text></g></g><path class="foreground" aria-hidden="true" d="" pointer-events="none" display="none"/></g><g transform="translate(0,351)"><path class="background" aria-hidden="true" d="M0,0h176v11h-176Z" pointer-events="none" opacity="1"/><g><g class="mark-symbol role-legend-symbol" pointer-events="none"><path transform="translate(6,6)" d="M5,0A5,5,0,1,1,-5,0A5,5,0,1,1,5,0" fill="#ff9da6" stroke-width="1.5" opacity="1"/></g><g class="mark-text role-legend-label" pointer-events="none"><text text-anchor="start" transform="translate(16,9)" font-family="sans-serif" font-size="10px" fill="#000" opacity="1">karlmdavis/lego-ev3dev-rs</text></g></g><path class="foreground" aria-hidden="true" d="" pointer-events="none" display="none"/></g><g transform="translate(0,364)"><path class="background" aria-hidden="true" d="M0,0h176v11h-176Z" pointer-events="none" opacity="1"/><g><g class="mark-symbol role-legend-symbol" pointer-events="none"><path transform="translate(6,6)" d="M5,0A5,5,0,1,1,-5,0A5,5,0,1,1,5,0" fill="#9d755d" stroke-width="1.5" opacity="1"/></g><g class="mark-text role-legend-label" pointer-events="none"><text text-anchor="start" transform="translate(16,9)" font-family="sans-serif" font-size="10px" fill="#000" opacity="1">karlmdavis/liquibase</text></g></g><path class="foreground" aria-hidden="true" d="" pointer-events="none" display="none"/></g><g transform="translate(0,377)"><path class="background" aria-hidden="true" d="M0,0h176v11h-176Z" pointer-events="none" opacity="1"/><g><g class="mark-symbol role-legend-symbol" pointer-events="none"><path transform="translate(6,6)" d="M5,0A5,5,0,1,1,-5,0A5,5,0,1,1,5,0" fill="#bab0ac" stroke-width="1.5" opacity="1"/></g><g class="mark-text role-legend-label" pointer-events="none"><text text-anchor="start" transform="translate(16,9)" font-family="sans-serif" font-size="10px" fill="#000" opacity="1">…14 entries</text></g></g><path class="foreground" aria-hidden="true" d="" pointer-events="none" display="none"/></g></g></g><path class="foreground" aria-hidden="true" d="" pointer-events="none" display="none"/></g></g><g class="mark-text role-legend-title" pointer-events="none"><text text-anchor="start" transform="translate(0,9)" font-family="sans-serif" font-size="11px" font-weight="bold" fill="#000" opacity="1">Repository</text></g></g><path class="foreground" aria-hidden="true" d="" pointer-events="none" display="none"/></g></g><g class="mark-group role-title"><g transform="translate(400,-22)"><path class="background" aria-hidden="true" d="M0,0h0v0h0Z" pointer-events="none"/><g><g class="mark-text role-title-text" role="graphics-symbol" aria-roledescription="title" aria-label="Title text 'Unique Visitors per Day'" pointer-events="none"><text text-anchor="middle" transform="translate(0,10)" font-family="sans-serif" font-size="13px" font-weight="bold" fill="#000" opacity="1">Unique Visitors per Day</text></g></g><path class="foreground" aria-hidden="true" d="" pointer-events="none" display="none"/></g></g></g><path class="foreground" aria-hidden="true" d="" display="none"/></g></g></g></svg>