<svg xmlns="http://www.w3.org/2000/svg" xmlns:xlink="http://www.w3.org/1999/xlink" version="1.1" class="marks" width="1043" height="436" viewBox="0 0 1043 436"><rect width="1043" height="436" fill="white"/><g fill="none" stroke-miterlimit="10" transform="translate(44,27)"><g class="mark-group role-frame root" role="graphics-object" aria-roledescription="group mark container"><g transform="translate(0,0)"><path class="background" aria-hidden="true" d="M0.5,0.5h800v300h-800Z" stroke="#ddd"/><g><g class="mark-group role-axis" aria-hidden="true"><g transform="translate(0.5,300.5)"><path class="background" aria-hidden="true" d="M0,0h0v0h0Z" pointer-events="none"/><g><g class="mark-rule role-axis-grid" pointer-events="none"><line transform="translate(27,-300)" x2="0" y2="300" stroke="#ddd" stroke-width="1" opacity="1"/><line transform="translate(80,-300)" x2="0" y2="300" stroke="#ddd" stroke-width="1" opacity="1"/><line transform="translate(133,-300)" x2="0" y2="300" stroke="#ddd" stroke-width="1" opacity="1"/><line transform="translate(187,-300)" x2="0" y2="300" stroke="#ddd" stroke-width="1" opacity="1"/><line transform="translate(240,-300)" x2="0" y2="300" stroke="#ddd" stroke-width="1" opacity="1"/><line transform="translate(293,-300)" x2="0" y2="300" stroke="#ddd" stroke-width="1" opacity="1"/><line transform="translate(347,-300)" x2="0" y2="300" stroke="#ddd" stroke-width="1" opacity="1"/><line transform="translate(400,-300)" x2="0" y2="300" stroke="#ddd" stroke-width="1" opacity="1"/><line transform="translate(427,-300)" x2="0" y2="300" stroke="#ddd" stroke-width="1" opacity="1"/><line transform="translate(480,-300)" x2="0" y2="300" stroke="#ddd" stroke-width="1" opacity="1"/><line transform="translate(533,-300)" x2="0" y2="300" stroke="#ddd" stroke-width="1" opacity="1"/><line transform="translate(587,-300)" x2="0" y2="300" stroke="#ddd" stroke-width="1" opacity="1"/><line transform="translate(640,-300)" x2="0" y2="300" stroke="#ddd" stroke-width="1" opacity="1"/><line transform="translate(693,-300)" x2="0" y2="300" stroke="#ddd" stroke-width="1" opacity="1"/><line transform="translate(747,-300)" x2="0" y2="300" stroke="#ddd" stroke-width="1" opacity="1"/><line transform="translate(800,-300)" x2="0" y2="300" stroke="#ddd" stroke-width="1" opacity="1"/></g></g><path class="foreground" aria-hidden="true" d="" pointer-events="none" display="none"/></g></g><g class="mark-group role-axis" aria-hidden="true"><g transform="translate(0.5,0.5)"><path class="background" aria-hidden="true" d="M0,0h0v0h0Z" pointer-events="none"/><g><g class="mark-rule role-axis-grid" pointer-events="none"><line transform="translate(0,300)" x2="800" y2="0" stroke="#ddd" stroke-width="1" opacity="1"/><line transform="translate(0,273)" x2="800" y2="0" stroke="#ddd" stroke-width="1" opacity="1"/><line transform="translate(0,245)" x2="800" y2="0" stroke="#ddd" stroke-width="1" opacity="1"/><line transform="translate(0,218)" x2="800" y2="0" stroke="#ddd" stroke-width="1" opacity="1"/><line transform="translate(0,191)" x2="800" y2="0" stroke="#ddd" stroke-width="1" opacity="1"/><line transform="translate(0,164)" x2="800" y2="0" stroke="#ddd" stroke-width="1" opacity="1"/><line transform="translate(0,136)" x2="800" y2="0" stroke="#ddd" stroke-width="1" opacity="1"/><line transform="translate(0,109)" x2="800" y2="0" stroke="#ddd" stroke-width="1" opacity="1"/><line transform="translate(0,82)" x2="800" y2="0" stroke="#ddd" stroke-width="1" opacity="1"/><line transform="translate(0,55)" x2="800" y2="0" stroke="#ddd" stroke-width="1" opacity="1"/><line transform="translate(0,27)" x2="800" y2="0" stroke="#ddd" stroke-width="1" opacity="1"/><line transform="translate(0,0)" x2="800" y2="0" stroke="#ddd" stroke-width="1" opacity="1"/></g></g><path class="foreground" aria-hidden="true" d="" pointer-events="none" display="none"/></g></g><g class="mark-group role-axis" role="graphics-symbol" aria-roledescription="axis" aria-label="X-axis titled 'Date' for a time scale with values from Monday, 16 March 2026, 12:00:00 AM to Wednesday, 15 April 2026, 12:00:00 AM"><g transform="translate(0.5,300.5)"><path class="background" aria-hidden="true" d="M0,0h0v0h0Z" pointer-events="none"/><g><g class="mark-rule role-axis-tick" pointer-events="none"><line transform="translate(27,0)" x2="0" y2="5" stroke="#888" stroke-width="1" opacity="1"/><line transform="translate(80,0)" x2="0" y2="5" stroke="#888" stroke-width="1" opacity="1"/><line transform="translate(133,0)" x2="0" y2="5" stroke="#888" stroke-width="1" opacity="1"/><line transform="translate(187,0)" x2="0" y2="5" stroke="#888" stroke-width="1" opacity="1"/><line transform="translate(240,0)" x2="0" y2="5" stroke="#888" stroke-width="1" opacity="1"/><line transform="translate(293,0)" x2="0" y2="5" stroke="#888" stroke-width="1" opacity="1"/><line transform="translate(347,0)" x2="0" y2="5" stroke="#888" stroke-width="1" opacity="1"/><line transform="translate(400,0)" x2="0" y2="5" stroke="#888" stroke-width="1" opacity="1"/><line transform="translate(427,0)" x2="0" y2="5" stroke="#888" stroke-width="1" opacity="1"/><line transform="translate(480,0)" x2="0" y2="5" stroke="#888" stroke-width="1" opacity="1"/><line transform="translate(533,0)" x2="0" y2="5" stroke="#888" stroke-width="1" opacity="1"/><line transform="translate(587,0)" x2="0" y2="5" stroke="#888" stroke-width="1" opacity="1"/><line transform="translate(640,0)" x2="0" y2="5" stroke="#888" stroke-width="1" opacity="1"/><line transform="translate(693,0)" x2="0" y2="5" stroke="#888" stroke-width="1" opacity="1"/><line transform="translate(747,0)" x2="0" y2="5" stroke="#888" stroke-width="1" opacity="1"/><line transform="translate(800,0)" x2="0" y2="5" stroke="#888" stroke-width="1" opacity="1"/></g><g class="mark-text role-axis-label" pointer-events="none"><text text-anchor="middle" transform="translate(26.666666666666668,15)" font-family="sans-serif" font-size="10px" fill="#000" opacity="1">Tue 17</text><text text-anchor="middle" transform="translate(80,15)" font-family="sans-serif" font-size="10px" fill="#000" opacity="1">Thu 19</text><text text-anchor="middle" transform="translate(133.33333333333331,15)" font-family="sans-serif" font-size="10px" fill="#000" opacity="1">Sat 21</text><text text-anchor="middle" transform="translate(186.66666666666666,15)" font-family="sans-serif" font-size="10px" fill="#000" opacity="1">Mon 23</text><text text-anchor="middle" transform="translate(240,15)" font-family="sans-serif" font-size="10px" fill="#000" opacity="1">Wed 25</text><text text-anchor="middle" transform="translate(293.3333333333333,15)" font-family="sans-serif" font-size="10px" fill="#000" opacity="1">Fri 27</text><text text-anchor="middle" transform="translate(346.6666666666667,15)" font-family="sans-serif" font-size="10px" fill="#000" opacity="1">Mar 29</text><text text-anchor="middle" transform="translate(400,15)" font-family="sans-serif" font-size="10px" fill="#000" opacity="1">Tue 31</text><text text-anchor="middle" transform="translate(426.6666666666667,15)" font-family="sans-serif" font-size="10px" fill="#000" opacity="1">April</text><text text-anchor="middle" transform="translate(480,15)" font-family="sans-serif" font-size="10px" fill="#000" opacity="1">Fri 03</text><text text-anchor="middle" transform="translate(533.3333333333333,15)" font-family="sans-serif" font-size="10px" fill="#000" opacity="1">Apr 05</text><text text-anchor="middle" transform="translate(586.6666666666666,15)" font-family="sans-serif" font-size="10px" fill="#000" opacity="1">Tue 07</text><text text-anchor="middle" transform="translate(640,15)" font-family="sans-serif" font-size="10px" fill="#000" opacity="1">Thu 09</text><text text-anchor="middle" transform="translate(693.3333333333334,15)" font-family="sans-serif" font-size="10px" fill="#000" opacity="1">Sat 11</text><text text-anchor="middle" transform="translate(746.6666666666666,15)" font-family="sans-serif" font-size="10px" fill="#000" opacity="1">Mon 13</text><text text-anchor="end" transform="translate(800,15)" font-family="sans-serif" font-size="10px" fill="#000" opacity="1">Wed 15</text></g><g class="mark-rule role-axis-domain" pointer-events="none"><line transform="translate(0,0)" x2="800" y2="0" stroke="#888" stroke-width="1" opacity="1"/></g><g class="mark-text role-axis-title" pointer-events="none"><text text-anchor="middle" transform="translate(400,30)" font-family="sans-serif" font-size="11px" font-weight="bold" fill="#000" opacity="1">Date</text></g></g><path class="foreground" aria-hidden="true" d="" pointer-events="none" display="none"/></g></g><g class="mark-group role-axis" role="graphics-symbol" aria-roledescription="axis" aria-label="Y-axis titled 'Unique Clones/day' for a linear scale with values from 0 to 220"><g transform="translate(0.5,0.5)"><path class="background" aria-hidden="true" d="M0,0h0v0h0Z" pointer-events="none"/><g><g class="mark-rule role-axis-tick" pointer-events="none"><line transform="translate(0,300)" x2="-5" y2="0" stroke="#888" stroke-width="1" opacity="1"/><line transform="translate(0,273)" x2="-5" y2="0" stroke="#888" stroke-width="1" opacity="1"/><line transform="translate(0,245)" x2="-5" y2="0" stroke="#888" stroke-width="1" opacity="1"/><line transform="translate(0,218)" x2="-5" y2="0" stroke="#888" stroke-width="1" opacity="1"/><line transform="translate(0,191)" x2="-5" y2="0" stroke="#888" stroke-width="1" opacity="1"/><line transform="translate(0,164)" x2="-5" y2="0" stroke="#888" stroke-width="1" opacity="1"/><line transform="translate(0,136)" x2="-5" y2="0" stroke="#888" stroke-width="1" opacity="1"/><line transform="translate(0,109)" x2="-5" y2="0" stroke="#888" stroke-width="1" opacity="1"/><line transform="translate(0,82)" x2="-5" y2="0" stroke="#888" stroke-width="1" opacity="1"/><line transform="translate(0,55)" x2="-5" y2="0" stroke="#888" stroke-width="1" opacity="1"/><line transform="translate(0,27)" x2="-5" y2="0" stroke="#888" stroke-width="1" opacity="1"/><line transform="translate(0,0)" x2="-5" y2="0" stroke="#888" stroke-width="1" opacity="1"/></g><g class="mark-text role-axis-label" pointer-events="none"><text text-anchor="end" transform="translate(-7,303)" font-family="sans-serif" font-size="10px" fill="#000" opacity="1">0</text><text text-anchor="end" transform="translate(-7,275.7272727272727)" font-family="sans-serif" font-size="10px" fill="#000" opacity="1">20</text><text text-anchor="end" transform="translate(-7,248.45454545454544)" font-family="sans-serif" font-size="10px" fill="#000" opacity="1">40</text><text text-anchor="end" transform="translate(-7,221.1818181818182)" font-family="sans-serif" font-size="10px" fill="#000" opacity="1">60</text><text text-anchor="end" transform="translate(-7,193.9090909090909)" font-family="sans-serif" font-size="10px" fill="#000" opacity="1">80</text><text text-anchor="end" transform="translate(-7,166.63636363636363)" font-family="sans-serif" font-size="10px" fill="#000" opacity="1">100</text><text text-anchor="end" transform="translate(-7,139.36363636363637)" font-family="sans-serif" font-size="10px" fill="#000" opacity="1">120</text><text text-anchor="end" transform="translate(-7,112.0909090909091)" font-family="sans-serif" font-size="10px" fill="#000" opacity="1">140</text><text text-anchor="end" transform="translate(-7,84.81818181818181)" font-family="sans-serif" font-size="10px" fill="#000" opacity="1">160</text><text text-anchor="end" transform="translate(-7,57.54545454545453)" font-family="sans-serif" font-size="10px" fill="#000" opacity="1">180</text><text text-anchor="end" transform="translate(-7,30.27272727272728)" font-family="sans-serif" font-size="10px" fill="#000" opacity="1">200</text><text text-anchor="end" transform="translate(-7,3)" font-family="sans-serif" font-size="10px" fill="#000" opacity="1">220</text></g><g class="mark-rule role-axis-domain" pointer-events="none"><line transform="translate(0,300)" x2="0" y2="-300" stroke="#888" stroke-width="1" opacity="1"/></g><g class="mark-text role-axis-title" pointer-events="none"><text text-anchor="middle" transform="translate(-27.6845703125,150) rotate(-90) translate(0,-2)" font-family="sans-serif" font-size="11px" font-weight="bold" fill="#000" opacity="1">Unique Clones/day</text></g></g><path class="foreground" aria-hidden="true" d="" pointer-events="none" display="none"/></g></g><g class="mark-group role-scope pathgroup" role="graphics-object" aria-roledescription="group mark container"><g transform="translate(0,0)"><path class="background" aria-hidden="true" d="M0,0h800v300h-800Z"/><g><g class="mark-area role-mark marks" role="graphics-object" aria-roledescription="area mark container"><path aria-label="Date: Mar 16, 2026; Unique Clones/day: 0; Repository: justdavis-family/github-analytics-data" role="graphics-symbol" aria-roledescription="area mark" d="M0,298.636L26.667,300L53.333,300L80,298.636L106.667,300L133.333,300L160,300L186.667,282.273L213.333,297.273L240,290.455L266.667,278.182L293.333,205.909L320,237.273L346.667,169.091L373.333,255L400,268.636L426.667,274.091L453.333,286.364L480,259.091L506.667,73.636L533.333,148.636L560,257.727L586.667,155.455L613.333,250.909L640,229.091L666.667,271.364L693.333,249.545L720,212.727L746.667,4.091L773.333,267.273L800,264.545L800,282.273L773.333,282.273L746.667,10.909L720,229.091L693.333,260.455L666.667,280.909L640,238.636L613.333,257.727L586.667,190.909L560,257.727L533.333,148.636L506.667,73.636L480,259.091L453.333,286.364L426.667,274.091L400,268.636L373.333,255L346.667,169.091L320,237.273L293.333,205.909L266.667,278.182L240,290.455L213.333,297.273L186.667,282.273L160,300L133.333,300L106.667,300L80,298.636L53.333,300L26.667,300L0,298.636Z" fill="#4c78a8"/></g></g><path class="foreground" aria-hidden="true" d="" display="none"/></g><g transform="translate(0,0)"><path class="background" aria-hidden="true" d="M0,0h800v300h-800Z"/><g><g class="mark-area role-mark marks" role="graphics-object" aria-roledescription="area mark container"><path aria-label="Date: Mar 16, 2026; Unique Clones/day: 0; Repository: justdavis-family/justdavis" role="graphics-symbol" aria-roledescription="area mark" d="M0,298.636L26.667,300L53.333,300L80,298.636L106.667,300L133.333,300L160,300L186.667,282.273L213.333,297.273L240,290.455L266.667,278.182L293.333,205.909L320,237.273L346.667,169.091L373.333,255L400,268.636L426.667,274.091L453.333,286.364L480,259.091L506.667,73.636L533.333,148.636L560,257.727L586.667,190.909L613.333,257.727L640,238.636L666.667,280.909L693.333,260.455L720,229.091L746.667,10.909L773.333,282.273L800,282.273L800,287.727L773.333,283.636L746.667,178.636L720,250.909L693.333,264.545L666.667,283.636L640,244.091L613.333,260.455L586.667,259.091L560,282.273L533.333,189.545L506.667,180L480,260.455L453.333,286.364L426.667,275.455L400,268.636L373.333,255L346.667,169.091L320,237.273L293.333,205.909L266.667,278.182L240,290.455L213.333,297.273L186.667,283.636L160,300L133.333,300L106.667,300L80,298.636L53.333,300L26.667,300L0,298.636Z" fill="#f58518"/></g></g><path class="foreground" aria-hidden="true" d="" display="none"/></g><g transform="translate(0,0)"><path class="background" aria-hidden="true" d="M0,0h800v300h-800Z"/><g><g class="mark-area role-mark marks" role="graphics-object" aria-roledescription="area mark container"><path aria-label="Date: Mar 16, 2026; Unique Clones/day: 0; Repository: karlmdavis/FHIR-Server" role="graphics-symbol" aria-roledescription="area mark" d="M0,298.636L26.667,300L53.333,300L80,298.636L106.667,300L133.333,300L160,300L186.667,283.636L213.333,297.273L240,290.455L266.667,278.182L293.333,205.909L320,237.273L346.667,169.091L373.333,255L400,268.636L426.667,275.455L453.333,286.364L480,260.455L506.667,180L533.333,189.545L560,282.273L586.667,259.091L613.333,260.455L640,244.091L666.667,283.636L693.333,264.545L720,250.909L746.667,178.636L773.333,283.636L800,287.727L800,287.727L773.333,283.636L746.667,178.636L720,252.273L693.333,267.273L666.667,283.636L640,244.091L613.333,260.455L586.667,259.091L560,282.273L533.333,189.545L506.667,180L480,260.455L453.333,286.364L426.667,275.455L400,270L373.333,255L346.667,169.091L320,237.273L293.333,205.909L266.667,278.182L240,290.455L213.333,297.273L186.667,283.636L160,300L133.333,300L106.667,300L80,298.636L53.333,300L26.667,300L0,298.636Z" fill="#e45756"/></g></g><path class="foreground" aria-hidden="true" d="" display="none"/></g><g transform="translate(0,0)"><path class="background" aria-hidden="true" d="M0,0h800v300h-800Z"/><g><g class="mark-area role-mark marks" role="graphics-object" aria-roledescription="area mark container"><path aria-label="Date: Mar 16, 2026; Unique Clones/day: 1; Repository: karlmdavis/ansible" role="graphics-symbol" aria-roledescription="area mark" d="M0,298.636L26.667,300L53.333,300L80,298.636L106.667,300L133.333,300L160,300L186.667,283.636L213.333,297.273L240,290.455L266.667,278.182L293.333,205.909L320,237.273L346.667,169.091L373.333,255L400,270L426.667,275.455L453.333,286.364L480,260.455L506.667,180L533.333,189.545L560,282.273L586.667,259.091L613.333,260.455L640,244.091L666.667,283.636L693.333,267.273L720,252.273L746.667,178.636L773.333,283.636L800,287.727L800,287.727L773.333,285L746.667,178.636L720,252.273L693.333,267.273L666.667,283.636L640,244.091L613.333,260.455L586.667,259.091L560,282.273L533.333,189.545L506.667,180L480,260.455L453.333,286.364L426.667,275.455L400,270L373.333,255L346.667,169.091L320,237.273L293.333,205.909L266.667,278.182L240,290.455L213.333,297.273L186.667,283.636L160,300L133.333,300L106.667,300L80,298.636L53.333,300L26.667,300L0,300Z" fill="#72b7b2"/></g></g><path class="foreground" aria-hidden="true" d="" display="none"/></g><g transform="translate(0,0)"><path class="background" aria-hidden="true" d="M0,0h800v300h-800Z"/><g><g class="mark-area role-mark marks" role="graphics-object" aria-roledescription="area mark container"><path aria-label="Date: Mar 16, 2026; Unique Clones/day: 0; Repository: karlmdavis/ansible-jenkins" role="graphics-symbol" aria-roledescription="area mark" d="M0,300L26.667,300L53.333,300L80,298.636L106.667,300L133.333,300L160,300L186.667,283.636L213.333,297.273L240,290.455L266.667,278.182L293.333,205.909L320,237.273L346.667,169.091L373.333,255L400,270L426.667,275.455L453.333,286.364L480,260.455L506.667,180L533.333,189.545L560,282.273L586.667,259.091L613.333,260.455L640,244.091L666.667,283.636L693.333,267.273L720,252.273L746.667,178.636L773.333,285L800,287.727L800,287.727L773.333,285L746.667,178.636L720,253.636L693.333,267.273L666.667,283.636L640,244.091L613.333,260.455L586.667,259.091L560,282.273L533.333,189.545L506.667,181.364L480,261.818L453.333,286.364L426.667,275.455L400,270L373.333,255L346.667,169.091L320,237.273L293.333,205.909L266.667,279.545L240,290.455L213.333,297.273L186.667,283.636L160,300L133.333,300L106.667,300L80,298.636L53.333,300L26.667,300L0,300Z" fill="#54a24b"/></g></g><path class="foreground" aria-hidden="true" d="" display="none"/></g><g transform="translate(0,0)"><path class="background" aria-hidden="true" d="M0,0h800v300h-800Z"/><g><g class="mark-area role-mark marks" role="graphics-object" aria-roledescription="area mark container"><path aria-label="Date: Mar 16, 2026; Unique Clones/day: 0; Repository: karlmdavis/ansible-role-acmetool" role="graphics-symbol" aria-roledescription="area mark" d="M0,300L26.667,300L53.333,300L80,298.636L106.667,300L133.333,300L160,300L186.667,283.636L213.333,297.273L240,290.455L266.667,279.545L293.333,205.909L320,237.273L346.667,169.091L373.333,255L400,270L426.667,275.455L453.333,286.364L480,261.818L506.667,181.364L533.333,189.545L560,282.273L586.667,259.091L613.333,260.455L640,244.091L666.667,283.636L693.333,267.273L720,253.636L746.667,178.636L773.333,285L800,287.727L800,287.727L773.333,285L746.667,178.636L720,255L693.333,267.273L666.667,283.636L640,244.091L613.333,260.455L586.667,259.091L560,282.273L533.333,189.545L506.667,181.364L480,261.818L453.333,286.364L426.667,275.455L400,270L373.333,255L346.667,169.091L320,237.273L293.333,205.909L266.667,280.909L240,290.455L213.333,297.273L186.667,283.636L160,300L133.333,300L106.667,300L80,298.636L53.333,300L26.667,300L0,300Z" fill="#eeca3b"/></g></g><path class="foreground" aria-hidden="true" d="" display="none"/></g><g transform="translate(0,0)"><path class="background" aria-hidden="true" d="M0,0h800v300h-800Z"/><g><g class="mark-area role-mark marks" role="graphics-object" aria-roledescription="area mark container"><path aria-label="Date: Mar 16, 2026; Unique Clones/day: 0; Repository: karlmdavis/ansible-role-bind-dns" role="graphics-symbol" aria-roledescription="area mark" d="M0,300L26.667,300L53.333,300L80,298.636L106.667,300L133.333,300L160,300L186.667,283.636L213.333,297.273L240,290.455L266.667,280.909L293.333,205.909L320,237.273L346.667,169.091L373.333,255L400,270L426.667,275.455L453.333,286.364L480,261.818L506.667,181.364L533.333,189.545L560,282.273L586.667,259.091L613.333,260.455L640,244.091L666.667,283.636L693.333,267.273L720,255L746.667,178.636L773.333,285L800,287.727L800,287.727L773.333,285L746.667,184.091L720,256.364L693.333,267.273L666.667,283.636L640,245.455L613.333,261.818L586.667,259.091L560,282.273L533.333,189.545L506.667,182.727L480,261.818L453.333,286.364L426.667,279.545L400,270L373.333,256.364L346.667,170.455L320,237.273L293.333,208.636L266.667,280.909L240,290.455L213.333,297.273L186.667,283.636L160,300L133.333,300L106.667,300L80,298.636L53.333,300L26.667,300L0,300Z" fill="#b279a2"/></g></g><path class="foreground" aria-hidden="true" d="" display="none"/></g><g transform="translate(0,0)"><path class="background" aria-hidden="true" d="M0,0h800v300h-800Z"/><g><g class="mark-area role-mark marks" role="graphics-object" aria-roledescription="area mark container"><path aria-label="Date: Mar 16, 2026; Unique Clones/day: 0; Repository: karlmdavis/ansible-role-jenkins2" role="graphics-symbol" aria-roledescription="area mark" d="M0,300L26.667,300L53.333,300L80,298.636L106.667,300L133.333,300L160,300L186.667,283.636L213.333,297.273L240,290.455L266.667,280.909L293.333,208.636L320,237.273L346.667,170.455L373.333,256.364L400,270L426.667,279.545L453.333,286.364L480,261.818L506.667,182.727L533.333,189.545L560,282.273L586.667,259.091L613.333,261.818L640,245.455L666.667,283.636L693.333,267.273L720,256.364L746.667,184.091L773.333,285L800,287.727L800,287.727L773.333,285L746.667,190.909L720,256.364L693.333,268.636L666.667,286.364L640,252.273L613.333,261.818L586.667,259.091L560,282.273L533.333,190.909L506.667,185.455L480,263.182L453.333,287.727L426.667,280.909L400,271.364L373.333,256.364L346.667,170.455L320,238.636L293.333,210L266.667,282.273L240,291.818L213.333,298.636L186.667,283.636L160,300L133.333,300L106.667,300L80,298.636L53.333,300L26.667,300L0,300Z" fill="#ff9da6"/></g></g><path class="foreground" aria-hidden="true" d="" display="none"/></g><g transform="translate(0,0)"><path class="background" aria-hidden="true" d="M0,0h800v300h-800Z"/><g><g class="mark-area role-mark marks" role="graphics-object" aria-roledescription="area mark container"><path aria-label="Date: Mar 16, 2026; Unique Clones/day: 0; Repository: karlmdavis/ansible-role-ldap" role="graphics-symbol" aria-roledescription="area mark" d="M0,300L26.667,300L53.333,300L80,298.636L106.667,300L133.333,300L160,300L186.667,283.636L213.333,298.636L240,291.818L266.667,282.273L293.333,210L320,238.636L346.667,170.455L373.333,256.364L400,271.364L426.667,280.909L453.333,287.727L480,263.182L506.667,185.455L533.333,190.909L560,282.273L586.667,259.091L613.333,261.818L640,252.273L666.667,286.364L693.333,268.636L720,256.364L746.667,190.909L773.333,285L800,287.727L800,287.727L773.333,285L746.667,192.273L720,256.364L693.333,268.636L666.667,286.364L640,252.273L613.333,261.818L586.667,259.091L560,282.273L533.333,190.909L506.667,185.455L480,263.182L453.333,287.727L426.667,280.909L400,272.727L373.333,256.364L346.667,170.455L320,238.636L293.333,210L266.667,282.273L240,291.818L213.333,298.636L186.667,283.636L160,300L133.333,300L106.667,300L80,298.636L53.333,300L26.667,300L0,300Z" fill="#9d755d"/></g></g><path class="foreground" aria-hidden="true" d="" display="none"/></g><g transform="translate(0,0)"><path class="background" aria-hidden="true" d="M0,0h800v300h-800Z"/><g><g class="mark-area role-mark marks" role="graphics-object" aria-roledescription="area mark container"><path aria-label="Date: Mar 16, 2026; Unique Clones/day: 0; Repository: karlmdavis/ansible-role-rcm-dotfiles" role="graphics-symbol" aria-roledescription="area mark" d="M0,300L26.667,300L53.333,300L80,298.636L106.667,300L133.333,300L160,300L186.667,283.636L213.333,298.636L240,291.818L266.667,282.273L293.333,210L320,238.636L346.667,170.455L373.333,256.364L400,272.727L426.667,280.909L453.333,287.727L480,263.182L506.667,185.455L533.333,190.909L560,282.273L586.667,259.091L613.333,261.818L640,252.273L666.667,286.364L693.333,268.636L720,256.364L746.667,192.273L773.333,285L800,287.727L800,289.091L773.333,285L746.667,196.364L720,257.727L693.333,268.636L666.667,286.364L640,253.636L613.333,261.818L586.667,259.091L560,282.273L533.333,190.909L506.667,186.818L480,263.182L453.333,287.727L426.667,280.909L400,272.727L373.333,257.727L346.667,171.818L320,238.636L293.333,212.727L266.667,282.273L240,291.818L213.333,298.636L186.667,283.636L160,300L133.333,300L106.667,300L80,298.636L53.333,300L26.667,300L0,300Z" fill="#bab0ac"/></g></g><path class="foreground" aria-hidden="true" d="" display="none"/></g><g transform="translate(0,0)"><path class="background" aria-hidden="true" d="M0,0h800v300h-800Z"/><g><g class="mark-area role-mark marks" role="graphics-object" aria-roledescription="area mark container"><path aria-label="Date: Mar 16, 2026; Unique Clones/day: 0; Repository: karlmdavis/ansible-roles" role="graphics-symbol" aria-roledescription="area mark" d="M0,300L26.667,300L53.333,300L80,298.636L106.667,300L133.333,300L160,300L186.667,283.636L213.333,298.636L240,291.818L266.667,282.273L293.333,212.727L320,238.636L346.667,171.818L373.333,257.727L400,272.727L426.667,280.909L453.333,287.727L480,263.182L506.667,186.818L533.333,190.909L560,282.273L586.667,259.091L613.333,261.818L640,253.636L666.667,286.364L693.333,268.636L720,257.727L746.667,196.364L773.333,285L800,289.091L800,289.091L773.333,285L746.667,196.364L720,257.727L693.333,270L666.667,286.364L640,253.636L613.333,261.818L586.667,259.091L560,282.273L533.333,190.909L506.667,186.818L480,263.182L453.333,287.727L426.667,280.909L400,272.727L373.333,259.091L346.667,171.818L320,238.636L293.333,212.727L266.667,283.636L240,291.818L213.333,298.636L186.667,283.636L160,300L133.333,300L106.667,300L80,298.636L53.333,300L26.667,300L0,300Z" fill="#4c78a8"/></g></g><path class="foreground" aria-hidden="true" d="" display="none"/></g><g transform="translate(0,0)"><path class="background" aria-hidden="true" d="M0,0h800v300h-800Z"/><g><g class="mark-area role-mark marks" role="graphics-object" aria-roledescription="area mark container"><path aria-label="Date: Mar 16, 2026; Unique Clones/day: 0; Repository: karlmdavis/bbonfhir-dev-infra-docker" role="graphics-symbol" aria-roledescription="area mark" d="M0,300L26.667,300L53.333,300L80,298.636L106.667,300L133.333,300L160,300L186.667,283.636L213.333,298.636L240,291.818L266.667,283.636L293.333,212.727L320,238.636L346.667,171.818L373.333,259.091L400,272.727L426.667,280.909L453.333,287.727L480,263.182L506.667,186.818L533.333,190.909L560,282.273L586.667,259.091L613.333,261.818L640,253.636L666.667,286.364L693.333,270L720,257.727L746.667,196.364L773.333,285L800,289.091L800,289.091L773.333,285L746.667,200.455L720,259.091L693.333,270L666.667,286.364L640,255L613.333,261.818L586.667,259.091L560,282.273L533.333,190.909L506.667,188.182L480,263.182L453.333,287.727L426.667,280.909L400,272.727L373.333,260.455L346.667,171.818L320,238.636L293.333,214.091L266.667,283.636L240,293.182L213.333,298.636L186.667,283.636L160,300L133.333,300L106.667,300L80,298.636L53.333,300L26.667,300L0,300Z" fill="#f58518"/></g></g><path class="foreground" aria-hidden="true" d="" display="none"/></g><g transform="translate(0,0)"><path class="background" aria-hidden="true" d="M0,0h800v300h-800Z"/><g><g class="mark-area role-mark marks" role="graphics-object" aria-roledescription="area mark container"><path aria-label="Date: Mar 16, 2026; Unique Clones/day: 0; Repository: karlmdavis/can-i-kayak-baltimore" role="graphics-symbol" aria-roledescription="area mark" d="M0,300L26.667,300L53.333,300L80,298.636L106.667,300L133.333,300L160,300L186.667,283.636L213.333,298.636L240,293.182L266.667,283.636L293.333,214.091L320,238.636L346.667,171.818L373.333,260.455L400,272.727L426.667,280.909L453.333,287.727L480,263.182L506.667,188.182L533.333,190.909L560,282.273L586.667,259.091L613.333,261.818L640,255L666.667,286.364L693.333,270L720,259.091L746.667,200.455L773.333,285L800,289.091L800,289.091L773.333,285L746.667,203.182L720,260.455L693.333,270L666.667,286.364L640,256.364L613.333,261.818L586.667,259.091L560,282.273L533.333,190.909L506.667,189.545L480,263.182L453.333,287.727L426.667,282.273L400,272.727L373.333,260.455L346.667,171.818L320,238.636L293.333,218.182L266.667,283.636L240,293.182L213.333,298.636L186.667,283.636L160,300L133.333,300L106.667,300L80,298.636L53.333,300L26.667,300L0,300Z" fill="#e45756"/></g></g><path class="foreground" aria-hidden="true" d="" display="none"/></g><g transform="translate(0,0)"><path class="background" aria-hidden="true" d="M0,0h800v300h-800Z"/><g><g class="mark-area role-mark marks" role="graphics-object" aria-roledescription="area mark container"><path aria-label="Date: Mar 16, 2026; Unique Clones/day: 0; Repository: karlmdavis/datanucleus-test-jdo-1-to-n" role="graphics-symbol" aria-roledescription="area mark" d="M0,300L26.667,300L53.333,300L80,298.636L106.667,300L133.333,300L160,300L186.667,283.636L213.333,298.636L240,293.182L266.667,283.636L293.333,218.182L320,238.636L346.667,171.818L373.333,260.455L400,272.727L426.667,282.273L453.333,287.727L480,263.182L506.667,189.545L533.333,190.909L560,282.273L586.667,259.091L613.333,261.818L640,256.364L666.667,286.364L693.333,270L720,260.455L746.667,203.182L773.333,285L800,289.091L800,289.091L773.333,286.364L746.667,203.182L720,260.455L693.333,270L666.667,286.364L640,256.364L613.333,261.818L586.667,259.091L560,282.273L533.333,190.909L506.667,189.545L480,263.182L453.333,287.727L426.667,282.273L400,272.727L373.333,260.455L346.667,171.818L320,240L293.333,218.182L266.667,283.636L240,293.182L213.333,298.636L186.667,283.636L160,300L133.333,300L106.667,300L80,298.636L53.333,300L26.667,300L0,300Z" fill="#72b7b2"/></g></g><path class="foreground" aria-hidden="true" d="" display="none"/></g><g transform="translate(0,0)"><path class="background" aria-hidden="true" d="M0,0h800v300h-800Z"/><g><g class="mark-area role-mark marks" role="graphics-object" aria-roledescription="area mark container"><path aria-label="Date: Mar 16, 2026; Unique Clones/day: 0; Repository: karlmdavis/dotfiles" role="graphics-symbol" aria-roledescription="area mark" d="M0,300L26.667,300L53.333,300L80,298.636L106.667,300L133.333,300L160,300L186.667,283.636L213.333,298.636L240,293.182L266.667,283.636L293.333,218.182L320,240L346.667,171.818L373.333,260.455L400,272.727L426.667,282.273L453.333,287.727L480,263.182L506.667,189.545L533.333,190.909L560,282.273L586.667,259.091L613.333,261.818L640,256.364L666.667,286.364L693.333,270L720,260.455L746.667,203.182L773.333,286.364L800,289.091L800,289.091L773.333,286.364L746.667,210L720,260.455L693.333,272.727L666.667,286.364L640,257.727L613.333,263.182L586.667,259.091L560,282.273L533.333,192.273L506.667,190.909L480,263.182L453.333,289.091L426.667,283.636L400,274.091L373.333,260.455L346.667,171.818L320,240L293.333,220.909L266.667,283.636L240,293.182L213.333,298.636L186.667,285L160,300L133.333,300L106.667,300L80,298.636L53.333,300L26.667,300L0,300Z" fill="#54a24b"/></g></g><path class="foreground" aria-hidden="true" d="" display="none"/></g><g transform="translate(0,0)"><path class="background" aria-hidden="true" d="M0,0h800v300h-800Z"/><g><g class="mark-area role-mark marks" role="graphics-object" aria-roledescription="area mark container"><path aria-label="Date: Mar 16, 2026; Unique Clones/day: 0; Repository: karlmdavis/fhir-benchmarks" role="graphics-symbol" aria-roledescription="area mark" d="M0,300L26.667,300L53.333,300L80,298.636L106.667,300L133.333,300L160,300L186.667,285L213.333,298.636L240,293.182L266.667,283.636L293.333,220.909L320,240L346.667,171.818L373.333,260.455L400,274.091L426.667,283.636L453.333,289.091L480,263.182L506.667,190.909L533.333,192.273L560,282.273L586.667,259.091L613.333,263.182L640,257.727L666.667,286.364L693.333,272.727L720,260.455L746.667,210L773.333,286.364L800,289.091L800,289.091L773.333,290.455L746.667,216.818L720,260.455L693.333,275.455L666.667,286.364L640,260.455L613.333,272.727L586.667,260.455L560,282.273L533.333,193.636L506.667,192.273L480,264.545L453.333,289.091L426.667,285L400,276.818L373.333,261.818L346.667,173.182L320,240L293.333,223.636L266.667,283.636L240,294.545L213.333,298.636L186.667,286.364L160,300L133.333,300L106.667,300L80,298.636L53.333,300L26.667,300L0,300Z" fill="#eeca3b"/></g></g><path class="foreground" aria-hidden="true" d="" display="none"/></g><g transform="translate(0,0)"><path class="background" aria-hidden="true" d="M0,0h800v300h-800Z"/><g><g class="mark-area role-mark marks" role="graphics-object" aria-roledescription="area mark container"><path aria-label="Date: Mar 16, 2026; Unique Clones/day: 0; Repository: karlmdavis/hapi-fhir-jpaserver-starter" role="graphics-symbol" aria-roledescription="area mark" d="M0,300L26.667,300L53.333,300L80,298.636L106.667,300L133.333,300L160,300L186.667,286.364L213.333,298.636L240,294.545L266.667,283.636L293.333,223.636L320,240L346.667,173.182L373.333,261.818L400,276.818L426.667,285L453.333,289.091L480,264.545L506.667,192.273L533.333,193.636L560,282.273L586.667,260.455L613.333,272.727L640,260.455L666.667,286.364L693.333,275.455L720,260.455L746.667,216.818L773.333,290.455L800,289.091L800,289.091L773.333,290.455L746.667,218.182L720,260.455L693.333,275.455L666.667,286.364L640,260.455L613.333,272.727L586.667,260.455L560,282.273L533.333,193.636L506.667,192.273L480,265.909L453.333,290.455L426.667,285L400,276.818L373.333,261.818L346.667,173.182L320,240L293.333,223.636L266.667,285L240,294.545L213.333,298.636L186.667,286.364L160,300L133.333,300L106.667,300L80,298.636L53.333,300L26.667,300L0,300Z" fill="#b279a2"/></g></g><path class="foreground" aria-hidden="true" d="" display="none"/></g><g transform="translate(0,0)"><path class="background" aria-hidden="true" d="M0,0h800v300h-800Z"/><g><g class="mark-area role-mark marks" role="graphics-object" aria-roledescription="area mark container"><path aria-label="Date: Mar 16, 2026; Unique Clones/day: 0; Repository: karlmdavis/hello-rust-actix" role="graphics-symbol" aria-roledescription="area mark" d="M0,300L26.667,300L53.333,300L80,298.636L106.667,300L133.333,300L160,300L186.667,286.364L213.333,298.636L240,294.545L266.667,285L293.333,223.636L320,240L346.667,173.182L373.333,261.818L400,276.818L426.667,285L453.333,290.455L480,265.909L506.667,192.273L533.333,193.636L560,282.273L586.667,260.455L613.333,272.727L640,260.455L666.667,286.364L693.333,275.455L720,260.455L746.667,218.182L773.333,290.455L800,289.091L800,289.091L773.333,290.455L746.667,220.909L720,261.818L693.333,275.455L666.667,286.364L640,261.818L613.333,272.727L586.667,260.455L560,282.273L533.333,193.636L506.667,193.636L480,265.909L453.333,290.455L426.667,285L400,278.182L373.333,261.818L346.667,173.182L320,240L293.333,225L266.667,285L240,294.545L213.333,298.636L186.667,286.364L160,300L133.333,300L106.667,300L80,298.636L53.333,300L26.667,300L0,300Z" fill="#ff9da6"/></g></g><path class="foreground" aria-hidden="true" d="" display="none"/></g><g transform="translate(0,0)"><path class="background" aria-hidden="true" d="M0,0h800v300h-800Z"/><g><g class="mark-area role-mark marks" role="graphics-object" aria-roledescription="area mark container"><path aria-label="Date: Mar 16, 2026; Unique Clones/day: 0; Repository: karlmdavis/jessentials" role="graphics-symbol" aria-roledescription="area mark" d="M0,300L26.667,300L53.333,300L80,298.636L106.667,300L133.333,300L160,300L186.667,286.364L213.333,298.636L240,294.545L266.667,285L293.333,225L320,240L346.667,173.182L373.333,261.818L400,278.182L426.667,285L453.333,290.455L480,265.909L506.667,193.636L533.333,193.636L560,282.273L586.667,260.455L613.333,272.727L640,261.818L666.667,286.364L693.333,275.455L720,261.818L746.667,220.909L773.333,290.455L800,289.091L800,289.091L773.333,290.455L746.667,223.636L720,261.818L693.333,276.818L666.667,286.364L640,264.545L613.333,283.636L586.667,260.455L560,282.273L533.333,193.636L506.667,195L480,265.909L453.333,290.455L426.667,285L400,278.182L373.333,263.182L346.667,173.182L320,240L293.333,226.364L266.667,285L240,294.545L213.333,298.636L186.667,287.727L160,300L133.333,300L106.667,300L80,298.636L53.333,300L26.667,300L0,300Z" fill="#9d755d"/></g></g><path class="foreground" aria-hidden="true" d="" display="none"/></g><g transform="translate(0,0)"><path class="background" aria-hidden="true" d="M0,0h800v300h-800Z"/><g><g class="mark-area role-mark marks" role="graphics-object" aria-roledescription="area mark container"><path aria-label="Date: Mar 16, 2026; Unique Clones/day: 0; Repository: karlmdavis/justdavis-ansible" role="graphics-symbol" aria-roledescription="area mark" d="M0,300L26.667,300L53.333,300L80,298.636L106.667,300L133.333,300L160,300L186.667,287.727L213.333,298.636L240,294.545L266.667,285L293.333,226.364L320,240L346.667,173.182L373.333,263.182L400,278.182L426.667,285L453.333,290.455L480,265.909L506.667,195L533.333,193.636L560,282.273L586.667,260.455L613.333,283.636L640,264.545L666.667,286.364L693.333,276.818L720,261.818L746.667,223.636L773.333,290.455L800,289.091L800,289.091L773.333,290.455L746.667,227.727L720,267.273L693.333,276.818L666.667,287.727L640,265.909L613.333,283.636L586.667,260.455L560,282.273L533.333,193.636L506.667,196.364L480,265.909L453.333,290.455L426.667,286.364L400,278.182L373.333,263.182L346.667,173.182L320,241.364L293.333,227.727L266.667,285L240,295.909L213.333,298.636L186.667,287.727L160,300L133.333,300L106.667,300L80,298.636L53.333,300L26.667,300L0,300Z" fill="#bab0ac"/></g></g><path class="foreground" aria-hidden="true" d="" display="none"/></g><g transform="translate(0,0)"><path class="background" aria-hidden="true" d="M0,0h800v300h-800Z"/><g><g class="mark-area role-mark marks" role="graphics-object" aria-roledescription="area mark container"><path aria-label="Date: Mar 16, 2026; Unique Clones/day: 0; Repository: karlmdavis/justdavis-finances" role="graphics-symbol" aria-roledescription="area mark" d="M0,300L26.667,300L53.333,300L80,298.636L106.667,300L133.333,300L160,300L186.667,287.727L213.333,298.636L240,295.909L266.667,285L293.333,227.727L320,241.364L346.667,173.182L373.333,263.182L400,278.182L426.667,286.364L453.333,290.455L480,265.909L506.667,196.364L533.333,193.636L560,282.273L586.667,260.455L613.333,283.636L640,265.909L666.667,287.727L693.333,276.818L720,267.273L746.667,227.727L773.333,290.455L800,289.091L800,290.455L773.333,293.182L746.667,248.182L720,290.455L693.333,279.545L666.667,287.727L640,267.273L613.333,285L586.667,283.636L560,293.182L533.333,295.909L506.667,274.091L480,293.182L453.333,291.818L426.667,287.727L400,279.545L373.333,283.636L346.667,289.091L320,291.818L293.333,270L266.667,286.364L240,297.273L213.333,298.636L186.667,287.727L160,300L133.333,300L106.667,300L80,298.636L53.333,300L26.667,300L0,300Z" fill="#4c78a8"/></g></g><path class="foreground" aria-hidden="true" d="" display="none"/></g><g transform="translate(0,0)"><path class="background" aria-hidden="true" d="M0,0h800v300h-800Z"/><g><g class="mark-area role-mark marks" role="graphics-object" aria-roledescription="area mark container"><path aria-label="Date: Mar 16, 2026; Unique Clones/day: 0; Repository: karlmdavis/justdavis-karl" role="graphics-symbol" aria-roledescription="area mark" d="M0,300L26.667,300L53.333,300L80,298.636L106.667,300L133.333,300L160,300L186.667,287.727L213.333,298.636L240,297.273L266.667,286.364L293.333,270L320,291.818L346.667,289.091L373.333,283.636L400,279.545L426.667,287.727L453.333,291.818L480,293.182L506.667,274.091L533.333,295.909L560,293.182L586.667,283.636L613.333,285L640,267.273L666.667,287.727L693.333,279.545L720,290.455L746.667,248.182L773.333,293.182L800,290.455L800,290.455L773.333,293.182L746.667,252.273L720,291.818L693.333,280.909L666.667,287.727L640,270L613.333,285L586.667,283.636L560,294.545L533.333,295.909L506.667,275.455L480,293.182L453.333,293.182L426.667,287.727L400,280.909L373.333,285L346.667,289.091L320,293.182L293.333,271.364L266.667,286.364L240,297.273L213.333,298.636L186.667,289.091L160,300L133.333,300L106.667,300L80,298.636L53.333,300L26.667,300L0,300Z" fill="#f58518"/></g></g><path class="foreground" aria-hidden="true" d="" display="none"/></g><g transform="translate(0,0)"><path class="background" aria-hidden="true" d="M0,0h800v300h-800Z"/><g><g class="mark-area role-mark marks" role="graphics-object" aria-roledescription="area mark container"><path aria-label="Date: Mar 16, 2026; Unique Clones/day: 0; Repository: karlmdavis/justdavis-puppet" role="graphics-symbol" aria-roledescription="area mark" d="M0,300L26.667,300L53.333,300L80,298.636L106.667,300L133.333,300L160,300L186.667,289.091L213.333,298.636L240,297.273L266.667,286.364L293.333,271.364L320,293.182L346.667,289.091L373.333,285L400,280.909L426.667,287.727L453.333,293.182L480,293.182L506.667,275.455L533.333,295.909L560,294.545L586.667,283.636L613.333,285L640,270L666.667,287.727L693.333,280.909L720,291.818L746.667,252.273L773.333,293.182L800,290.455L800,290.455L773.333,293.182L746.667,255L720,293.182L693.333,282.273L666.667,287.727L640,271.364L613.333,286.364L586.667,283.636L560,294.545L533.333,295.909L506.667,276.818L480,293.182L453.333,293.182L426.667,287.727L400,283.636L373.333,286.364L346.667,289.091L320,293.182L293.333,272.727L266.667,286.364L240,297.273L213.333,298.636L186.667,289.091L160,300L133.333,300L106.667,300L80,298.636L53.333,300L26.667,300L0,300Z" fill="#e45756"/></g></g><path class="foreground" aria-hidden="true" d="" display="none"/></g><g transform="translate(0,0)"><path class="background" aria-hidden="true" d="M0,0h800v300h-800Z"/><g><g class="mark-area role-mark marks" role="graphics-object" aria-roledescription="area mark container"><path aria-label="Date: Mar 16, 2026; Unique Clones/day: 0; Repository: karlmdavis/kobjects" role="graphics-symbol" aria-roledescription="area mark" d="M0,300L26.667,300L53.333,300L80,298.636L106.667,300L133.333,300L160,300L186.667,289.091L213.333,298.636L240,297.273L266.667,286.364L293.333,272.727L320,293.182L346.667,289.091L373.333,286.364L400,283.636L426.667,287.727L453.333,293.182L480,293.182L506.667,276.818L533.333,295.909L560,294.545L586.667,283.636L613.333,286.364L640,271.364L666.667,287.727L693.333,282.273L720,293.182L746.667,255L773.333,293.182L800,290.455L800,290.455L773.333,293.182L746.667,257.727L720,293.182L693.333,283.636L666.667,287.727L640,274.091L613.333,286.364L586.667,283.636L560,294.545L533.333,295.909L506.667,278.182L480,293.182L453.333,293.182L426.667,287.727L400,283.636L373.333,286.364L346.667,289.091L320,293.182L293.333,274.091L266.667,287.727L240,297.273L213.333,298.636L186.667,289.091L160,300L133.333,300L106.667,300L80,298.636L53.333,300L26.667,300L0,300Z" fill="#72b7b2"/></g></g><path class="foreground" aria-hidden="true" d="" display="none"/></g><g transform="translate(0,0)"><path class="background" aria-hidden="true" d="M0,0h800v300h-800Z"/><g><g class="mark-area role-mark marks" role="graphics-object" aria-roledescription="area mark container"><path aria-label="Date: Mar 16, 2026; Unique Clones/day: 0; Repository: karlmdavis/ksoap2-android" role="graphics-symbol" aria-roledescription="area mark" d="M0,300L26.667,300L53.333,300L80,298.636L106.667,300L133.333,300L160,300L186.667,289.091L213.333,298.636L240,297.273L266.667,287.727L293.333,274.091L320,293.182L346.667,289.091L373.333,286.364L400,283.636L426.667,287.727L453.333,293.182L480,293.182L506.667,278.182L533.333,295.909L560,294.545L586.667,283.636L613.333,286.364L640,274.091L666.667,287.727L693.333,283.636L720,293.182L746.667,257.727L773.333,293.182L800,290.455L800,293.182L773.333,293.182L746.667,260.455L720,293.182L693.333,285L666.667,291.818L640,275.455L613.333,294.545L586.667,290.455L560,295.909L533.333,295.909L506.667,282.273L480,293.182L453.333,294.545L426.667,289.091L400,285L373.333,291.818L346.667,291.818L320,293.182L293.333,275.455L266.667,291.818L240,297.273L213.333,298.636L186.667,290.455L160,300L133.333,300L106.667,300L80,298.636L53.333,300L26.667,300L0,300Z" fill="#54a24b"/></g></g><path class="foreground" aria-hidden="true" d="" display="none"/></g><g transform="translate(0,0)"><path class="background" aria-hidden="true" d="M0,0h800v300h-800Z"/><g><g class="mark-area role-mark marks" role="graphics-object" aria-roledescription="area mark container"><path aria-label="Date: Mar 16, 2026; Unique Clones/day: 0; Repository: karlmdavis/kxml2" role="graphics-symbol" aria-roledescription="area mark" d="M0,300L26.667,300L53.333,300L80,298.636L106.667,300L133.333,300L160,300L186.667,290.455L213.333,298.636L240,297.273L266.667,291.818L293.333,275.455L320,293.182L346.667,291.818L373.333,291.818L400,285L426.667,289.091L453.333,294.545L480,293.182L506.667,282.273L533.333,295.909L560,295.909L586.667,290.455L613.333,294.545L640,275.455L666.667,291.818L693.333,285L720,293.182L746.667,260.455L773.333,293.182L800,293.182L800,293.182L773.333,294.545L746.667,264.545L720,293.182L693.333,285L666.667,291.818L640,276.818L613.333,294.545L586.667,291.818L560,297.273L533.333,297.273L506.667,283.636L480,293.182L453.333,294.545L426.667,289.091L400,286.364L373.333,295.909L346.667,293.182L320,293.182L293.333,278.182L266.667,293.182L240,297.273L213.333,298.636L186.667,291.818L160,300L133.333,300L106.667,300L80,298.636L53.333,300L26.667,300L0,300Z" fill="#eeca3b"/></g></g><path class="foreground" aria-hidden="true" d="" display="none"/></g><g transform="translate(0,0)"><path class="background" aria-hidden="true" d="M0,0h800v300h-800Z"/><g><g class="mark-area role-mark marks" role="graphics-object" aria-roledescription="area mark container"><path aria-label="Date: Mar 16, 2026; Unique Clones/day: 0; Repository: karlmdavis/ldap-plugin" role="graphics-symbol" aria-roledescription="area mark" d="M0,300L26.667,300L53.333,300L80,298.636L106.667,300L133.333,300L160,300L186.667,291.818L213.333,298.636L240,297.273L266.667,293.182L293.333,278.182L320,293.182L346.667,293.182L373.333,295.909L400,286.364L426.667,289.091L453.333,294.545L480,293.182L506.667,283.636L533.333,297.273L560,297.273L586.667,291.818L613.333,294.545L640,276.818L666.667,291.818L693.333,285L720,293.182L746.667,264.545L773.333,294.545L800,293.182L800,293.182L773.333,294.545L746.667,264.545L720,293.182L693.333,285L666.667,291.818L640,276.818L613.333,294.545L586.667,291.818L560,297.273L533.333,297.273L506.667,283.636L480,294.545L453.333,295.909L426.667,289.091L400,286.364L373.333,295.909L346.667,293.182L320,293.182L293.333,278.182L266.667,293.182L240,297.273L213.333,298.636L186.667,291.818L160,300L133.333,300L106.667,300L80,298.636L53.333,300L26.667,300L0,300Z" fill="#b279a2"/></g></g><path class="foreground" aria-hidden="true" d="" display="none"/></g><g transform="translate(0,0)"><path class="background" aria-hidden="true" d="M0,0h800v300h-800Z"/><g><g class="mark-area role-mark marks" role="graphics-object" aria-roledescription="area mark container"><path aria-label="Date: Mar 16, 2026; Unique Clones/day: 0; Repository: karlmdavis/lego-ev3dev-rs" role="graphics-symbol" aria-roledescription="area mark" d="M0,300L26.667,300L53.333,300L80,298.636L106.667,300L133.333,300L160,300L186.667,291.818L213.333,298.636L240,297.273L266.667,293.182L293.333,278.182L320,293.182L346.667,293.182L373.333,295.909L400,286.364L426.667,289.091L453.333,295.909L480,294.545L506.667,283.636L533.333,297.273L560,297.273L586.667,291.818L613.333,294.545L640,276.818L666.667,291.818L693.333,285L720,293.182L746.667,264.545L773.333,294.545L800,293.182L800,294.545L773.333,294.545L746.667,268.636L720,293.182L693.333,287.727L666.667,291.818L640,279.545L613.333,294.545L586.667,293.182L560,297.273L533.333,298.636L506.667,285L480,295.909L453.333,295.909L426.667,290.455L400,289.091L373.333,295.909L346.667,294.545L320,294.545L293.333,282.273L266.667,293.182L240,298.636L213.333,298.636L186.667,293.182L160,300L133.333,300L106.667,300L80,298.636L53.333,300L26.667,300L0,300Z" fill="#ff9da6"/></g></g><path class="foreground" aria-hidden="true" d="" display="none"/></g><g transform="translate(0,0)"><path class="background" aria-hidden="true" d="M0,0h800v300h-800Z"/><g><g class="mark-area role-mark marks" role="graphics-object" aria-roledescription="area mark container"><path aria-label="Date: Mar 16, 2026; Unique Clones/day: 0; Repository: karlmdavis/liquibase" role="graphics-symbol" aria-roledescription="area mark" d="M0,300L26.667,300L53.333,300L80,298.636L106.667,300L133.333,300L160,300L186.667,293.182L213.333,298.636L240,298.636L266.667,293.182L293.333,282.273L320,294.545L346.667,294.545L373.333,295.909L400,289.091L426.667,290.455L453.333,295.909L480,295.909L506.667,285L533.333,298.636L560,297.273L586.667,293.182L613.333,294.545L640,279.545L666.667,291.818L693.333,287.727L720,293.182L746.667,268.636L773.333,294.545L800,294.545L800,294.545L773.333,294.545L746.667,268.636L720,293.182L693.333,287.727L666.667,293.182L640,280.909L613.333,294.545L586.667,293.182L560,297.273L533.333,298.636L506.667,285L480,295.909L453.333,295.909L426.667,290.455L400,289.091L373.333,295.909L346.667,294.545L320,294.545L293.333,282.273L266.667,293.182L240,298.636L213.333,298.636L186.667,293.182L160,300L133.333,300L106.667,300L80,300L53.333,300L26.667,300L0,300Z" fill="#9d755d"/></g></g><path class="foreground" aria-hidden="true" d="" display="none"/></g><g transform="translate(0,0)"><path class="background" aria-hidden="true" d="M0,0h800v300h-800Z"/><g><g class="mark-area role-mark marks" role="graphics-object" aria-roledescription="area mark container"><path aria-label="Date: Mar 16, 2026; Unique Clones/day: 0; Repository: karlmdavis/m2e-core" role="graphics-symbol" aria-roledescription="area mark" d="M0,300L26.667,300L53.333,300L80,300L106.667,300L133.333,300L160,300L186.667,293.182L213.333,298.636L240,298.636L266.667,293.182L293.333,282.273L320,294.545L346.667,294.545L373.333,295.909L400,289.091L426.667,290.455L453.333,295.909L480,295.909L506.667,285L533.333,298.636L560,297.273L586.667,293.182L613.333,294.545L640,280.909L666.667,293.182L693.333,287.727L720,293.182L746.667,268.636L773.333,294.545L800,294.545L800,294.545L773.333,294.545L746.667,271.364L720,293.182L693.333,289.091L666.667,294.545L640,283.636L613.333,295.909L586.667,294.545L560,297.273L533.333,298.636L506.667,286.364L480,295.909L453.333,295.909L426.667,290.455L400,289.091L373.333,295.909L346.667,295.909L320,294.545L293.333,283.636L266.667,293.182L240,298.636L213.333,298.636L186.667,293.182L160,300L133.333,300L106.667,300L80,300L53.333,300L26.667,300L0,300Z" fill="#bab0ac"/></g></g><path class="foreground" aria-hidden="true" d="" display="none"/></g><g transform="translate(0,0)"><path class="background" aria-hidden="true" d="M0,0h800v300h-800Z"/><g><g class="mark-area role-mark marks" role="graphics-object" aria-roledescription="area mark container"><path aria-label="Date: Mar 16, 2026; Unique Clones/day: 0; Repository: karlmdavis/m2e-core-tests" role="graphics-symbol" aria-roledescription="area mark" d="M0,300L26.667,300L53.333,300L80,300L106.667,300L133.333,300L160,300L186.667,293.182L213.333,298.636L240,298.636L266.667,293.182L293.333,283.636L320,294.545L346.667,295.909L373.333,295.909L400,289.091L426.667,290.455L453.333,295.909L480,295.909L506.667,286.364L533.333,298.636L560,297.273L586.667,294.545L613.333,295.909L640,283.636L666.667,294.545L693.333,289.091L720,293.182L746.667,271.364L773.333,294.545L800,294.545L800,294.545L773.333,294.545L746.667,271.364L720,294.545L693.333,289.091L666.667,297.273L640,285L613.333,297.273L586.667,295.909L560,297.273L533.333,298.636L506.667,286.364L480,295.909L453.333,295.909L426.667,293.182L400,289.091L373.333,295.909L346.667,295.909L320,295.909L293.333,283.636L266.667,294.545L240,298.636L213.333,298.636L186.667,293.182L160,300L133.333,300L106.667,300L80,300L53.333,300L26.667,300L0,300Z" fill="#4c78a8"/></g></g><path class="foreground" aria-hidden="true" d="" display="none"/></g><g transform="translate(0,0)"><path class="background" aria-hidden="true" d="M0,0h800v300h-800Z"/><g><g class="mark-area role-mark marks" role="graphics-object" aria-roledescription="area mark container"><path aria-label="Date: Mar 16, 2026; Unique Clones/day: 0; Repository: karlmdavis/obsidian-operator" role="graphics-symbol" aria-roledescription="area mark" d="M0,300L26.667,300L53.333,300L80,300L106.667,300L133.333,300L160,300L186.667,293.182L213.333,298.636L240,298.636L266.667,294.545L293.333,283.636L320,295.909L346.667,295.909L373.333,295.909L400,289.091L426.667,293.182L453.333,295.909L480,295.909L506.667,286.364L533.333,298.636L560,297.273L586.667,295.909L613.333,297.273L640,285L666.667,297.273L693.333,289.091L720,294.545L746.667,271.364L773.333,294.545L800,294.545L800,297.273L773.333,295.909L746.667,274.091L720,295.909L693.333,291.818L666.667,297.273L640,286.364L613.333,297.273L586.667,295.909L560,297.273L533.333,298.636L506.667,287.727L480,298.636L453.333,295.909L426.667,293.182L400,293.182L373.333,295.909L346.667,295.909L320,295.909L293.333,285L266.667,294.545L240,298.636L213.333,298.636L186.667,294.545L160,300L133.333,300L106.667,300L80,300L53.333,300L26.667,300L0,300Z" fill="#f58518"/></g></g><path class="foreground" aria-hidden="true" d="" display="none"/></g><g transform="translate(0,0)"><path class="background" aria-hidden="true" d="M0,0h800v300h-800Z"/><g><g class="mark-area role-mark marks" role="graphics-object" aria-roledescription="area mark container"><path aria-label="Date: Mar 16, 2026; Unique Clones/day: 0; Repository: karlmdavis/perfect-note" role="graphics-symbol" aria-roledescription="area mark" d="M0,300L26.667,300L53.333,300L80,300L106.667,300L133.333,300L160,300L186.667,294.545L213.333,298.636L240,298.636L266.667,294.545L293.333,285L320,295.909L346.667,295.909L373.333,295.909L400,293.182L426.667,293.182L453.333,295.909L480,298.636L506.667,287.727L533.333,298.636L560,297.273L586.667,295.909L613.333,297.273L640,286.364L666.667,297.273L693.333,291.818L720,295.909L746.667,274.091L773.333,295.909L800,297.273L800,297.273L773.333,297.273L746.667,276.818L720,295.909L693.333,291.818L666.667,297.273L640,287.727L613.333,297.273L586.667,295.909L560,297.273L533.333,298.636L506.667,289.091L480,298.636L453.333,295.909L426.667,293.182L400,293.182L373.333,295.909L346.667,295.909L320,297.273L293.333,286.364L266.667,295.909L240,298.636L213.333,298.636L186.667,294.545L160,300L133.333,300L106.667,300L80,300L53.333,300L26.667,300L0,300Z" fill="#e45756"/></g></g><path class="foreground" aria-hidden="true" d="" display="none"/></g><g transform="translate(0,0)"><path class="background" aria-hidden="true" d="M0,0h800v300h-800Z"/><g><g class="mark-area role-mark marks" role="graphics-object" aria-roledescription="area mark container"><path aria-label="Date: Mar 16, 2026; Unique Clones/day: 0; Repository: karlmdavis/puppet-archive" role="graphics-symbol" aria-roledescription="area mark" d="M0,300L26.667,300L53.333,300L80,300L106.667,300L133.333,300L160,300L186.667,294.545L213.333,298.636L240,298.636L266.667,295.909L293.333,286.364L320,297.273L346.667,295.909L373.333,295.909L400,293.182L426.667,293.182L453.333,295.909L480,298.636L506.667,289.091L533.333,298.636L560,297.273L586.667,295.909L613.333,297.273L640,287.727L666.667,297.273L693.333,291.818L720,295.909L746.667,276.818L773.333,297.273L800,297.273L800,297.273L773.333,297.273L746.667,276.818L720,295.909L693.333,293.182L666.667,297.273L640,289.091L613.333,297.273L586.667,295.909L560,297.273L533.333,298.636L506.667,289.091L480,298.636L453.333,295.909L426.667,293.182L400,293.182L373.333,295.909L346.667,295.909L320,297.273L293.333,286.364L266.667,295.909L240,298.636L213.333,298.636L186.667,295.909L160,300L133.333,300L106.667,300L80,300L53.333,300L26.667,300L0,300Z" fill="#72b7b2"/></g></g><path class="foreground" aria-hidden="true" d="" display="none"/></g><g transform="translate(0,0)"><path class="background" aria-hidden="true" d="M0,0h800v300h-800Z"/><g><g class="mark-area role-mark marks" role="graphics-object" aria-roledescription="area mark container"><path aria-label="Date: Mar 16, 2026; Unique Clones/day: 0; Repository: karlmdavis/puppet-sonar" role="graphics-symbol" aria-roledescription="area mark" d="M0,300L26.667,300L53.333,300L80,300L106.667,300L133.333,300L160,300L186.667,295.909L213.333,298.636L240,298.636L266.667,295.909L293.333,286.364L320,297.273L346.667,295.909L373.333,295.909L400,293.182L426.667,293.182L453.333,295.909L480,298.636L506.667,289.091L533.333,298.636L560,297.273L586.667,295.909L613.333,297.273L640,289.091L666.667,297.273L693.333,293.182L720,295.909L746.667,276.818L773.333,297.273L800,297.273L800,297.273L773.333,298.636L746.667,276.818L720,295.909L693.333,294.545L666.667,297.273L640,289.091L613.333,298.636L586.667,297.273L560,297.273L533.333,298.636L506.667,289.091L480,298.636L453.333,297.273L426.667,293.182L400,295.909L373.333,295.909L346.667,295.909L320,298.636L293.333,286.364L266.667,295.909L240,298.636L213.333,298.636L186.667,295.909L160,300L133.333,300L106.667,300L80,300L53.333,300L26.667,300L0,300Z" fill="#54a24b"/></g></g><path class="foreground" aria-hidden="true" d="" display="none"/></g><g transform="translate(0,0)"><path class="background" aria-hidden="true" d="M0,0h800v300h-800Z"/><g><g class="mark-area role-mark marks" role="graphics-object" aria-roledescription="area mark container"><path aria-label="Date: Mar 16, 2026; Unique Clones/day: 0; Repository: karlmdavis/rps-tourney" role="graphics-symbol" aria-roledescription="area mark" d="M0,300L26.667,300L53.333,300L80,300L106.667,300L133.333,300L160,300L186.667,295.909L213.333,298.636L240,298.636L266.667,295.909L293.333,286.364L320,298.636L346.667,295.909L373.333,295.909L400,295.909L426.667,293.182L453.333,297.273L480,298.636L506.667,289.091L533.333,298.636L560,297.273L586.667,297.273L613.333,298.636L640,289.091L666.667,297.273L693.333,294.545L720,295.909L746.667,276.818L773.333,298.636L800,297.273L800,297.273L773.333,298.636L746.667,279.545L720,295.909L693.333,295.909L666.667,297.273L640,290.455L613.333,298.636L586.667,297.273L560,297.273L533.333,298.636L506.667,290.455L480,298.636L453.333,298.636L426.667,293.182L400,295.909L373.333,295.909L346.667,295.909L320,298.636L293.333,287.727L266.667,295.909L240,298.636L213.333,298.636L186.667,297.273L160,300L133.333,300L106.667,300L80,300L53.333,300L26.667,300L0,300Z" fill="#eeca3b"/></g></g><path class="foreground" aria-hidden="true" d="" display="none"/></g><g transform="translate(0,0)"><path class="background" aria-hidden="true" d="M0,0h800v300h-800Z"/><g><g class="mark-area role-mark marks" role="graphics-object" aria-roledescription="area mark container"><path aria-label="Date: Mar 16, 2026; Unique Clones/day: 0; Repository: karlmdavis/sample-maven-and-rcp" role="graphics-symbol" aria-roledescription="area mark" d="M0,300L26.667,300L53.333,300L80,300L106.667,300L133.333,300L160,300L186.667,297.273L213.333,298.636L240,298.636L266.667,295.909L293.333,287.727L320,298.636L346.667,295.909L373.333,295.909L400,295.909L426.667,293.182L453.333,298.636L480,298.636L506.667,290.455L533.333,298.636L560,297.273L586.667,297.273L613.333,298.636L640,290.455L666.667,297.273L693.333,295.909L720,295.909L746.667,279.545L773.333,298.636L800,297.273L800,297.273L773.333,298.636L746.667,282.273L720,295.909L693.333,295.909L666.667,297.273L640,291.818L613.333,298.636L586.667,297.273L560,297.273L533.333,298.636L506.667,291.818L480,298.636L453.333,298.636L426.667,294.545L400,295.909L373.333,295.909L346.667,295.909L320,298.636L293.333,289.091L266.667,295.909L240,298.636L213.333,298.636L186.667,297.273L160,300L133.333,300L106.667,300L80,300L53.333,300L26.667,300L0,300Z" fill="#b279a2"/></g></g><path class="foreground" aria-hidden="true" d="" display="none"/></g><g transform="translate(0,0)"><path class="background" aria-hidden="true" d="M0,0h800v300h-800Z"/><g><g class="mark-area role-mark marks" role="graphics-object" aria-roledescription="area mark container"><path aria-label="Date: Mar 16, 2026; Unique Clones/day: 0; Repository: karlmdavis/stockfighter-trades-solutions" role="graphics-symbol" aria-roledescription="area mark" d="M0,300L26.667,300L53.333,300L80,300L106.667,300L133.333,300L160,300L186.667,297.273L213.333,298.636L240,298.636L266.667,295.909L293.333,289.091L320,298.636L346.667,295.909L373.333,295.909L400,295.909L426.667,294.545L453.333,298.636L480,298.636L506.667,291.818L533.333,298.636L560,297.273L586.667,297.273L613.333,298.636L640,291.818L666.667,297.273L693.333,295.909L720,295.909L746.667,282.273L773.333,298.636L800,297.273L800,297.273L773.333,298.636L746.667,286.364L720,295.909L693.333,295.909L666.667,297.273L640,293.182L613.333,298.636L586.667,297.273L560,297.273L533.333,298.636L506.667,293.182L480,298.636L453.333,298.636L426.667,294.545L400,295.909L373.333,295.909L346.667,297.273L320,298.636L293.333,291.818L266.667,295.909L240,298.636L213.333,298.636L186.667,297.273L160,300L133.333,300L106.667,300L80,300L53.333,300L26.667,300L0,300Z" fill="#ff9da6"/></g></g><path class="foreground" aria-hidden="true" d="" display="none"/></g><g transform="translate(0,0)"><path class="background" aria-hidden="true" d="M0,0h800v300h-800Z"/><g><g class="mark-area role-mark marks" role="graphics-object" aria-roledescription="area mark container"><path aria-label="Date: Mar 16, 2026; Unique Clones/day: 0; Repository: karlmdavis/test-repo-for-move" role="graphics-symbol" aria-roledescription="area mark" d="M0,300L26.667,300L53.333,300L80,300L106.667,300L133.333,300L160,300L186.667,297.273L213.333,298.636L240,298.636L266.667,295.909L293.333,291.818L320,298.636L346.667,297.273L373.333,295.909L400,295.909L426.667,294.545L453.333,298.636L480,298.636L506.667,293.182L533.333,298.636L560,297.273L586.667,297.273L613.333,298.636L640,293.182L666.667,297.273L693.333,295.909L720,295.909L746.667,286.364L773.333,298.636L800,297.273L800,297.273L773.333,298.636L746.667,289.091L720,295.909L693.333,295.909L666.667,297.273L640,294.545L613.333,298.636L586.667,297.273L560,297.273L533.333,298.636L506.667,294.545L480,298.636L453.333,298.636L426.667,294.545L400,295.909L373.333,295.909L346.667,298.636L320,298.636L293.333,293.182L266.667,297.273L240,298.636L213.333,298.636L186.667,297.273L160,300L133.333,300L106.667,300L80,300L53.333,300L26.667,300L0,300Z" fill="#9d755d"/></g></g><path class="foreground" aria-hidden="true" d="" display="none"/></g><g transform="translate(0,0)"><path class="background" aria-hidden="true" d="M0,0h800v300h-800Z"/><g><g class="mark-area role-mark marks" role="graphics-object" aria-roledescription="area mark container"><path aria-label="Date: Mar 16, 2026; Unique Clones/day: 0; Repository: karlmdavis/todoist-ai" role="graphics-symbol" aria-roledescription="area mark" d="M0,300L26.667,300L53.333,300L80,300L106.667,300L133.333,300L160,300L186.667,297.273L213.333,298.636L240,298.636L266.667,297.273L293.333,293.182L320,298.636L346.667,298.636L373.333,295.909L400,295.909L426.667,294.545L453.333,298.636L480,298.636L506.667,294.545L533.333,298.636L560,297.273L586.667,297.273L613.333,298.636L640,294.545L666.667,297.273L693.333,295.909L720,295.909L746.667,289.091L773.333,298.636L800,297.273L800,298.636L773.333,298.636L746.667,289.091L720,295.909L693.333,297.273L666.667,297.273L640,294.545L613.333,298.636L586.667,297.273L560,297.273L533.333,298.636L506.667,294.545L480,298.636L453.333,298.636L426.667,297.273L400,295.909L373.333,295.909L346.667,298.636L320,298.636L293.333,293.182L266.667,297.273L240,298.636L213.333,298.636L186.667,297.273L160,300L133.333,300L106.667,300L80,300L53.333,300L26.667,300L0,300Z" fill="#bab0ac"/></g></g><path class="foreground" aria-hidden="true" d="" display="none"/></g><g transform="translate(0,0)"><path class="background" aria-hidden="true" d="M0,0h800v300h-800Z"/><g><g class="mark-area role-mark marks" role="graphics-object" aria-roledescription="area mark container"><path aria-label="Date: Mar 16, 2026; Unique Clones/day: 0; Repository: karlmdavis/usgs-water-api-java" role="graphics-symbol" aria-roledescription="area mark" d="M0,300L26.667,300L53.333,300L80,300L106.667,300L133.333,300L160,300L186.667,297.273L213.333,298.636L240,298.636L266.667,297.273L293.333,293.182L320,298.636L346.667,298.636L373.333,295.909L400,295.909L426.667,297.273L453.333,298.636L480,298.636L506.667,294.545L533.333,298.636L560,297.273L586.667,297.273L613.333,298.636L640,294.545L666.667,297.273L693.333,297.273L720,295.909L746.667,289.091L773.333,298.636L800,298.636L800,300L773.333,300L746.667,293.182L720,300L693.333,298.636L666.667,298.636L640,297.273L613.333,300L586.667,298.636L560,300L533.333,300L506.667,297.273L480,300L453.333,300L426.667,298.636L400,297.273L373.333,298.636L346.667,300L320,300L293.333,295.909L266.667,300L240,300L213.333,300L186.667,300L160,300L133.333,300L106.667,300L80,300L53.333,300L26.667,300L0,300Z" fill="#4c78a8"/></g></g><path class="foreground" aria-hidden="true" d="" display="none"/></g><g transform="translate(0,0)"><path class="background" aria-hidden="true" d="M0,0h800v300h-800Z"/><g><g class="mark-area role-mark marks" role="graphics-object" aria-roledescription="area mark container"><path aria-label="Date: Mar 16, 2026; Unique Clones/day: 0; Repository: karlmdavis/workstation-base-ansible-role" role="graphics-symbol" aria-roledescription="area mark" d="M0,300L26.667,300L53.333,300L80,300L106.667,300L133.333,300L160,300L186.667,300L213.333,300L240,300L266.667,300L293.333,295.909L320,300L346.667,300L373.333,298.636L400,297.273L426.667,298.636L453.333,300L480,300L506.667,297.273L533.333,300L560,300L586.667,298.636L613.333,300L640,297.273L666.667,298.636L693.333,298.636L720,300L746.667,293.182L773.333,300L800,300L800,300L773.333,300L746.667,297.273L720,300L693.333,300L666.667,298.636L640,298.636L613.333,300L586.667,298.636L560,300L533.333,300L506.667,298.636L480,300L453.333,300L426.667,300L400,298.636L373.333,300L346.667,300L320,300L293.333,298.636L266.667,300L240,300L213.333,300L186.667,300L160,300L133.333,300L106.667,300L80,300L53.333,300L26.667,300L0,300Z" fill="#f58518"/></g></g><path class="foreground" aria-hidden="true" d="" display="none"/></g><g transform="translate(0,0)"><path class="background" aria-hidden="true" d="M0,0h800v300h-800Z"/><g><g class="mark-area role-mark marks" role="graphics-object" aria-roledescription="area mark container"><path aria-label="Date: Mar 16, 2026; Unique Clones/day: 0; Repository: karlmdavis/xmlpull" role="graphics-symbol" aria-roledescription="area mark" d="M0,300L26.667,300L53.333,300L80,300L106.667,300L133.333,300L160,300L186.667,300L213.333,300L240,300L266.667,300L293.333,298.636L320,300L346.667,300L373.333,300L400,298.636L426.667,300L453.333,300L480,300L506.667,298.636L533.333,300L560,300L586.667,298.636L613.333,300L640,298.636L666.667,298.636L693.333,300L720,300L746.667,297.273L773.333,300L800,300L800,300L773.333,300L746.667,300L720,300L693.333,300L666.667,300L640,300L613.333,300L586.667,300L560,300L533.333,300L506.667,300L480,300L453.333,300L426.667,300L400,300L373.333,300L346.667,300L320,300L293.333,300L266.667,300L240,300L213.333,300L186.667,300L160,300L133.333,300L106.667,300L80,300L53.333,300L26.667,300L0,300Z" fill="#e45756"/></g></g><path class="foreground" aria-hidden="true" d="" display="none"/></g></g><g class="mark-group role-legend" role="graphics-symbol" aria-roledescription="legend" aria-label="Symbol legend titled 'Repository' for fill color with 43 values: justdavis-family/github-analytics-data, justdavis-family/justdavis, karlmdavis/FHIR-Server, karlmdavis/ansible, karlmdavis/ansible-jenkins, ending with karlmdavis/xmlpull"><g transform="translate(818,0)"><path class="background" aria-hidden="true" d="M0,0h176v404h-176Z" pointer-events="none"/><g><g class="mark-group role-legend-entry"><g transform="translate(0,16)"><path class="background" aria-hidden="true" d="M0,0h0v0h0Z" pointer-events="none"/><g><g class="mark-group role-scope" role="graphics-object" aria-roledescription="group mark container"><g transform="translate(0,0)"><path class="background" aria-hidden="true" d="M0,0h176v11h-176Z" pointer-events="none" opacity="1"/><g><g class="mark-symbol role-legend-symbol" pointer-events="none"><path transform="translate(6,6)" d="M5,0A5,5,0,1,1,-5,0A5,5,0,1,1,5,0" fill="#4c78a8" stroke-width="1.5" opacity="1"/></g><g class="mark-text role-legend-label" pointer-events="none"><text text-anchor="start" transform="translate(16,9)" font-family="sans-serif" font-size="10px" fill="#000" opacity="1">justdavis-family/github-analytics-d…</text></g></g><path class="foreground" aria-hidden="true" d="" pointer-events="none" display="none"/></g><g transform="translate(0,13)"><path class="background" aria-hidden="true" d="M0,0h176v11h-176Z" pointer-events="none" opacity="1"/><g><g class="mark-symbol role-legend-symbol" pointer-events="none"><path transform="translate(6,6)" d="M5,0A5,5,0,1,1,-5,0A5,5,0,1,1,5,0" fill="#f58518" stroke-width="1.5" opacity="1"/></g><g class="mark-text role-legend-label" pointer-events="none"><text text-anchor="start" transform="translate(16,9)" font-family="sans-serif" font-size="10px" fill="#000" opacity="1">justdavis-family/justdavis</text></g></g><path class="foreground" aria-hidden="true" d="" pointer-events="none" display="none"/></g><g transform="translate(0,26)"><path class="background" aria-hidden="true" d="M0,0h176v11h-176Z" pointer-events="none" opacity="1"/><g><g class="mark-symbol role-legend-symbol" pointer-events="none"><path transform="translate(6,6)" d="M5,0A5,5,0,1,1,-5,0A5,5,0,1,1,5,0" fill="#e45756" stroke-width="1.5" opacity="1"/></g><g class="mark-text role-legend-label" pointer-events="none"><text text-anchor="start" transform="translate(16,9)" font-family="sans-serif" font-size="10px" fill="#000" opacity="1">karlmdavis/FHIR-Server</text></g></g><path class="foreground" aria-hidden="true" d="" pointer-events="none" display="none"/></g><g transform="translate(0,39)"><path class="background" aria-hidden="true" d="M0,0h176v11h-176Z" pointer-events="none" opacity="1"/><g><g class="mark-symbol role-legend-symbol" pointer-events="none"><path transform="translate(6,6)" d="M5,0A5,5,0,1,1,-5,0A5,5,0,1,1,5,0" fill="#72b7b2" stroke-width="1.5" opacity="1"/></g><g class="mark-text role-legend-label" pointer-events="none"><text text-anchor="start" transform="translate(16,9)" font-family="sans-serif" font-size="10px" fill="#000" opacity="1">karlmdavis/ansible</text></g></g><path class="foreground" aria-hidden="true" d="" pointer-events="none" display="none"/></g><g transform="translate(0,52)"><path class="background" aria-hidden="true" d="M0,0h176v11h-176Z" pointer-events="none" opacity="1"/><g><g class="mark-symbol role-legend-symbol" pointer-events="none"><path transform="translate(6,6)" d="M5,0A5,5,0,1,1,-5,0A5,5,0,1,1,5,0" fill="#54a24b" stroke-width="1.5" opacity="1"/></g><g class="mark-text role-legend-label" pointer-events="none"><text text-anchor="start" transform="translate(16,9)" font-family="sans-serif" font-size="10px" fill="#000" opacity="1">karlmdavis/ansible-jenkins</text></g></g><path class="foreground" aria-hidden="true" d="" pointer-events="none" display="none"/></g><g transform="translate(0,65)"><path class="background" aria-hidden="true" d="M0,0h176v11h-176Z" pointer-events="none" opacity="1"/><g><g class="mark-symbol role-legend-symbol" pointer-events="none"><path transform="translate(6,6)" d="M5,0A5,5,0,1,1,-5,0A5,5,0,1,1,5,0" fill="#eeca3b" stroke-width="1.5" opacity="1"/></g><g class="mark-text role-legend-label" pointer-events="none"><text text-anchor="start" transform="translate(16,9)" font-family="sans-serif" font-size="10px" fill="#000" opacity="1">karlmdavis/ansible-role-acmetool</text></g></g><path class="foreground" aria-hidden="true" d="" pointer-events="none" display="none"/></g><g transform="translate(0,78)"><path class="background" aria-hidden="true" d="M0,0h176v11h-176Z" pointer-events="none" opacity="1"/><g><g class="mark-symbol role-legend-symbol" pointer-events="none"><path transform="translate(6,6)" d="M5,0A5,5,0,1,1,-5,0A5,5,0,1,1,5,0" fill="#b279a2" stroke-width="1.5" opacity="1"/></g><g class="mark-text role-legend-label" pointer-events="none"><text text-anchor="start" transform="translate(16,9)" font-family="sans-serif" font-size="10px" fill="#000" opacity="1">karlmdavis/ansible-role-bind-dns</text></g></g><path class="foreground" aria-hidden="true" d="" pointer-events="none" display="none"/></g><g transform="translate(0,91)"><path class="background" aria-hidden="true" d="M0,0h176v11h-176Z" pointer-events="none" opacity="1"/><g><g class="mark-symbol role-legend-symbol" pointer-events="none"><path transform="translate(6,6)" d="M5,0A5,5,0,1,1,-5,0A5,5,0,1,1,5,0" fill="#ff9da6" stroke-width="1.5" opacity="1"/></g><g class="mark-text role-legend-label" pointer-events="none"><text text-anchor="start" transform="translate(16,9)" font-family="sans-serif" font-size="10px" fill="#000" opacity="1">karlmdavis/ansible-role-jenkins2</text></g></g><path class="foreground" aria-hidden="true" d="" pointer-events="none" display="none"/></g><g transform="translate(0,104)"><path class="background" aria-hidden="true" d="M0,0h176v11h-176Z" pointer-events="none" opacity="1"/><g><g class="mark-symbol role-legend-symbol" pointer-events="none"><path transform="translate(6,6)" d="M5,0A5,5,0,1,1,-5,0A5,5,0,1,1,5,0" fill="#9d755d" stroke-width="1.5" opacity="1"/></g><g class="mark-text role-legend-label" pointer-events="none"><text text-anchor="start" transform="translate(16,9)" font-family="sans-serif" font-size="10px" fill="#000" opacity="1">karlmdavis/ansible-role-ldap</text></g></g><path class="foreground" aria-hidden="true" d="" pointer-events="none" display="none"/></g><g transform="translate(0,117)"><path class="background" aria-hidden="true" d="M0,0h176v11h-176Z" pointer-events="none" opacity="1"/><g><g class="mark-symbol role-legend-symbol" pointer-events="none"><path transform="translate(6,6)" d="M5,0A5,5,0,1,1,-5,0A5,5,0,1,1,5,0" fill="#bab0ac" stroke-width="1.5" opacity="1"/></g><g class="mark-text role-legend-label" pointer-events="none"><text text-anchor="start" transform="translate(16,9)" font-family="sans-serif" font-size="10px" fill="#000" opacity="1">karlmdavis/ansible-role-rcm-dotfiles</text></g></g><path class="foreground" aria-hidden="true" d="" pointer-events="none" display="none"/></g><g transform="translate(0,130)"><path class="background" aria-hidden="true" d="M0,0h176v11h-176Z" pointer-events="none" opacity="1"/><g><g class="mark-symbol role-legend-symbol" pointer-events="none"><path transform="translate(6,6)" d="M5,0A5,5,0,1,1,-5,0A5,5,0,1,1,5,0" fill="#4c78a8" stroke-width="1.5" opacity="1"/></g><g class="mark-text role-legend-label" pointer-events="none"><text text-anchor="start" transform="translate(16,9)" font-family="sans-serif" font-size="10px" fill="#000" opacity="1">karlmdavis/ansible-roles</text></g></g><path class="foreground" aria-hidden="true" d="" pointer-events="none" display="none"/></g><g transform="translate(0,143)"><path class="background" aria-hidden="true" d="M0,0h176v11h-176Z" pointer-events="none" opacity="1"/><g><g class="mark-symbol role-legend-symbol" pointer-events="none"><path transform="translate(6,6)" d="M5,0A5,5,0,1,1,-5,0A5,5,0,1,1,5,0" fill="#f58518" stroke-width="1.5" opacity="1"/></g><g class="mark-text role-legend-label" pointer-events="none"><text text-anchor="start" transform="translate(16,9)" font-family="sans-serif" font-size="10px" fill="#000" opacity="1">karlmdavis/bbonfhir-dev-infra-doc…</text></g></g><path class="foreground" aria-hidden="true" d="" pointer-events="none" display="none"/></g><g transform="translate(0,156)"><path class="background" aria-hidden="true" d="M0,0h176v11h-176Z" pointer-events="none" opacity="1"/><g><g class="mark-symbol role-legend-symbol" pointer-events="none"><path transform="translate(6,6)" d="M5,0A5,5,0,1,1,-5,0A5,5,0,1,1,5,0" fill="#e45756" stroke-width="1.5" opacity="1"/></g><g class="mark-text role-legend-label" pointer-events="none"><text text-anchor="start" transform="translate(16,9)" font-family="sans-serif" font-size="10px" fill="#000" opacity="1">karlmdavis/can-i-kayak-baltimore</text></g></g><path class="foreground" aria-hidden="true" d="" pointer-events="none" display="none"/></g><g transform="translate(0,169)"><path class="background" aria-hidden="true" d="M0,0h176v11h-176Z" pointer-events="none" opacity="1"/><g><g class="mark-symbol role-legend-symbol" pointer-events="none"><path transform="translate(6,6)" d="M5,0A5,5,0,1,1,-5,0A5,5,0,1,1,5,0" fill="#72b7b2" stroke-width="1.5" opacity="1"/></g><g class="mark-text role-legend-label" pointer-events="none"><text text-anchor="start" transform="translate(16,9)" font-family="sans-serif" font-size="10px" fill="#000" opacity="1">karlmdavis/datanucleus-test-jdo-1…</text></g></g><path class="foreground" aria-hidden="true" d="" pointer-events="none" display="none"/></g><g transform="translate(0,182)"><path class="background" aria-hidden="true" d="M0,0h176v11h-176Z" pointer-events="none" opacity="1"/><g><g class="mark-symbol role-legend-symbol" pointer-events="none"><path transform="translate(6,6)" d="M5,0A5,5,0,1,1,-5,0A5,5,0,1,1,5,0" fill="#54a24b" stroke-width="1.5" opacity="1"/></g><g class="mark-text role-legend-label" pointer-events="none"><text text-anchor="start" transform="translate(16,9)" font-family="sans-serif" font-size="10px" fill="#000" opacity="1">karlmdavis/dotfiles</text></g></g><path class="foreground" aria-hidden="true" d="" pointer-events="none" display="none"/></g><g transform="translate(0,195)"><path class="background" aria-hidden="true" d="M0,0h176v11h-176Z" pointer-events="none" opacity="1"/><g><g class="mark-symbol role-legend-symbol" pointer-events="none"><path transform="translate(6,6)" d="M5,0A5,5,0,1,1,-5,0A5,5,0,1,1,5,0" fill="#eeca3b" stroke-width="1.5" opacity="1"/></g><g class="mark-text role-legend-label" pointer-events="none"><text text-anchor="start" transform="translate(16,9)" font-family="sans-serif" font-size="10px" fill="#000" opacity="1">karlmdavis/fhir-benchmarks</text></g></g><path class="foreground" aria-hidden="true" d="" pointer-events="none" display="none"/></g><g transform="translate(0,208)"><path class="background" aria-hidden="true" d="M0,0h176v11h-176Z" pointer-events="none" opacity="1"/><g><g class="mark-symbol role-legend-symbol" pointer-events="none"><path transform="translate(6,6)" d="M5,0A5,5,0,1,1,-5,0A5,5,0,1,1,5,0" fill="#b279a2" stroke-width="1.5" opacity="1"/></g><g class="mark-text role-legend-label" pointer-events="none"><text text-anchor="start" transform="translate(16,9)" font-family="sans-serif" font-size="10px" fill="#000" opacity="1">karlmdavis/hapi-fhir-jpaserver-sta…</text></g></g><path class="foreground" aria-hidden="true" d="" pointer-events="none" display="none"/></g><g transform="translate(0,221)"><path class="background" aria-hidden="true" d="M0,0h176v11h-176Z" pointer-events="none" opacity="1"/><g><g class="mark-symbol role-legend-symbol" pointer-events="none"><path transform="translate(6,6)" d="M5,0A5,5,0,1,1,-5,0A5,5,0,1,1,5,0" fill="#ff9da6" stroke-width="1.5" opacity="1"/></g><g class="mark-text role-legend-label" pointer-events="none"><text text-anchor="start" transform="translate(16,9)" font-family="sans-serif" font-size="10px" fill="#000" opacity="1">karlmdavis/hello-rust-actix</text></g></g><path class="foreground" aria-hidden="true" d="" pointer-events="none" display="none"/></g><g transform="translate(0,234)"><path class="background" aria-hidden="true" d="M0,0h176v11h-176Z" pointer-events="none" opacity="1"/><g><g class="mark-symbol role-legend-symbol" pointer-events="none"><path transform="translate(6,6)" d="M5,0A5,5,0,1,1,-5,0A5,5,0,1,1,5,0" fill="#9d755d" stroke-width="1.5" opacity="1"/></g><g class="mark-text role-legend-label" pointer-events="none"><text text-anchor="start" transform="translate(16,9)" font-family="sans-serif" font-size="10px" fill="#000" opacity="1">karlmdavis/jessentials</text></g></g><path class="foreground" aria-hidden="true" d="" pointer-events="none" display="none"/></g><g transform="translate(0,247)"><path class="background" aria-hidden="true" d="M0,0h176v11h-176Z" pointer-events="none" opacity="1"/><g><g class="mark-symbol role-legend-symbol" pointer-events="none"><path transform="translate(6,6)" d="M5,0A5,5,0,1,1,-5,0A5,5,0,1,1,5,0" fill="#bab0ac" stroke-width="1.5" opacity="1"/></g><g class="mark-text role-legend-label" pointer-events="none"><text text-anchor="start" transform="translate(16,9)" font-family="sans-serif" font-size="10px" fill="#000" opacity="1">karlmdavis/justdavis-ansible</text></g></g><path class="foreground" aria-hidden="true" d="" pointer-events="none" display="none"/></g><g transform="translate(0,260)"><path class="background" aria-hidden="true" d="M0,0h176v11h-176Z" pointer-events="none" opacity="1"/><g><g class="mark-symbol role-legend-symbol" pointer-events="none"><path transform="translate(6,6)" d="M5,0A5,5,0,1,1,-5,0A5,5,0,1,1,5,0" fill="#4c78a8" stroke-width="1.5" opacity="1"/></g><g class="mark-text role-legend-label" pointer-events="none"><text text-anchor="start" transform="translate(16,9)" font-family="sans-serif" font-size="10px" fill="#000" opacity="1">karlmdavis/justdavis-finances</text></g></g><path class="foreground" aria-hidden="true" d="" pointer-events="none" display="none"/></g><g transform="translate(0,273)"><path class="background" aria-hidden="true" d="M0,0h176v11h-176Z" pointer-events="none" opacity="1"/><g><g class="mark-symbol role-legend-symbol" pointer-events="none"><path transform="translate(6,6)" d="M5,0A5,5,0,1,1,-5,0A5,5,0,1,1,5,0" fill="#f58518" stroke-width="1.5" opacity="1"/></g><g class="mark-text role-legend-label" pointer-events="none"><text text-anchor="start" transform="translate(16,9)" font-family="sans-serif" font-size="10px" fill="#000" opacity="1">karlmdavis/justdavis-karl</text></g></g><path class="foreground" aria-hidden="true" d="" pointer-events="none" display="none"/></g><g transform="translate(0,286)"><path class="background" aria-hidden="true" d="M0,0h176v11h-176Z" pointer-events="none" opacity="1"/><g><g class="mark-symbol role-legend-symbol" pointer-events="none"><path transform="translate(6,6)" d="M5,0A5,5,0,1,1,-5,0A5,5,0,1,1,5,0" fill="#e45756" stroke-width="1.5" opacity="1"/></g><g class="mark-text role-legend-label" pointer-events="none"><text text-anchor="start" transform="translate(16,9)" font-family="sans-serif" font-size="10px" fill="#000" opacity="1">karlmdavis/justdavis-puppet</text></g></g><path class="foreground" aria-hidden="true" d="" pointer-events="none" display="none"/></g><g transform="translate(0,299)"><path class="background" aria-hidden="true" d="M0,0h176v11h-176Z" pointer-events="none" opacity="1"/><g><g class="mark-symbol role-legend-symbol" pointer-events="none"><path transform="translate(6,6)" d="M5,0A5,5,0,1,1,-5,0A5,5,0,1,1,5,0" fill="#72b7b2" stroke-width="1.5" opacity="1"/></g><g class="mark-text role-legend-label" pointer-events="none"><text text-anchor="start" transform="translate(16,9)" font-family="sans-serif" font-size="10px" fill="#000" opacity="1">karlmdavis/kobjects</text></g></g><path class="foreground" aria-hidden="true" d="" pointer-events="none" display="none"/></g><g transform="translate(0,312)"><path class="background" aria-hidden="true" d="M0,0h176v11h-176Z" pointer-events="none" opacity="1"/><g><g class="mark-symbol role-legend-symbol" pointer-events="none"><path transform="translate(6,6)" d="M5,0A5,5,0,1,1,-5,0A5,5,0,1,1,5,0" fill="#54a24b" stroke-width="1.5" opacity="1"/></g><g class="mark-text role-legend-label" pointer-events="none"><text text-anchor="start" transform="translate(16,9)" font-family="sans-serif" font-size="10px" fill="#000" opacity="1">karlmdavis/ksoap2-android</text></g></g><path class="foreground" aria-hidden="true" d="" pointer-events="none" display="none"/></g><g transform="translate(0,325)"><path class="background" aria-hidden="true" d="M0,0h176v11h-176Z" pointer-events="none" opacity="1"/><g><g class="mark-symbol role-legend-symbol" pointer-events="none"><path transform="translate(6,6)" d="M5,0A5,5,0,1,1,-5,0A5,5,0,1,1,5,0" fill="#eeca3b" stroke-width="1.5" opacity="1"/></g><g class="mark-text role-legend-label" pointer-events="none"><text text-anchor="start" transform="translate(16,9)" font-family="sans-serif" font-size="10px" fill="#000" opacity="1">karlmdavis/kxml2</text></g></g><path class="foreground" aria-hidden="true" d="" pointer-events="none" display="none"/></g><g transform="translate(0,338)"><path class="background" aria-hidden="true" d="M0,0h176v11h-176Z" pointer-events="none" opacity="1"/><g><g class="mark-symbol role-legend-symbol" pointer-events="none"><path transform="translate(6,6)" d="M5,0A5,5,0,1,1,-5,0A5,5,0,1,1,5,0" fill="#b279a2" stroke-width="1.5" opacity="1"/></g><g class="mark-text role-legend-label" pointer-events="none"><text text-anchor="start" transform="translate(16,9)" font-family="sans-serif" font-size="10px" fill="#000" opacity="1">karlmdavis/ldap-plugin</text></g></g><path class="foreground" aria-hidden="true" d="" pointer-events="none" display="none"/></g><g transform="translate(0,351)"><path class="background" aria-hidden="true" d="M0,0h176v11h-176Z" pointer-events="none" opacity="1"/><g><g class="mark-symbol role-legend-symbol" pointer-events="none"><path transform="translate(6,6)" d="M5,0A5,5,0,1,1,-5,0A5,5,0,1,1,5,0" fill="#ff9da6" stroke-width="1.5" opacity="1"/></g><g class="mark-text role-legend-label" pointer-events="none"><text text-anchor="start" transform="translate(16,9)" font-family="sans-serif" font-size="10px" fill="#000" opacity="1">karlmdavis/lego-ev3dev-rs</text></g></g><path class="foreground" aria-hidden="true" d="" pointer-events="none" display="none"/></g><g transform="translate(0,364)"><path class="background" aria-hidden="true" d="M0,0h176v11h-176Z" pointer-events="none" opacity="1"/><g><g class="mark-symbol role-legend-symbol" pointer-events="none"><path transform="translate(6,6)" d="M5,0A5,5,0,1,1,-5,0A5,5,0,1,1,5,0" fill="#9d755d" stroke-width="1.5" opacity="1"/></g><g class="mark-text role-legend-label" pointer-events="none"><text text-anchor="start" transform="translate(16,9)" font-family="sans-serif" font-size="10px" fill="#000" opacity="1">karlmdavis/liquibase</text></g></g><path class="foreground" aria-hidden="true" d="" pointer-events="none" display="none"/></g><g transform="translate(0,377)"><path class="background" aria-hidden="true" d="M0,0h176v11h-176Z" pointer-events="none" opacity="1"/><g><g class="mark-symbol role-legend-symbol" pointer-events="none"><path transform="translate(6,6)" d="M5,0A5,5,0,1,1,-5,0A5,5,0,1,1,5,0" fill="#bab0ac" stroke-width="1.5" opacity="1"/></g><g class="mark-text role-legend-label" pointer-events="none"><text text-anchor="start" transform="translate(16,9)" font-family="sans-serif" font-size="10px" fill="#000" opacity="1">…14 entries</text></g></g><path class="foreground" aria-hidden="true" d="" pointer-events="none" display="none"/></g></g></g><path class="foreground" aria-hidden="true" d="" pointer-events="none" display="none"/></g></g><g class="mark-text role-legend-title" pointer-events="none"><text text-anchor="start" transform="translate(0,9)" font-family="sans-serif" font-size="11px" font-weight="bold" fill="#000" opacity="1">Repository</text></g></g><path class="foreground" aria-hidden="true" d="" pointer-events="none" display="none"/></g></g><g class="mark-group role-title"><g transform="translate(400,-22)"><path class="background" aria-hidden="true" d="M0,0h0v0h0Z" pointer-events="none"/><g><g class="mark-text role-title-text" role="graphics-symbol" aria-roledescription="title" aria-label="Title text 'Unique Clones per Day'" pointer-events="none"><text text-anchor="middle" transform="translate(0,10)" font-family="sans-serif" font-size="13px" font-weight="bold" fill="#000" opacity="1">Unique Clones per Day</text></g></g><path class="foreground" aria-hidden="true" d="" pointer-events="none" display="none"/></g></g></g><path class="foreground" aria-hidden="true" d="" display="none"/></g></g></g></svg>