<svg xmlns="http://www.w3.org/2000/svg" xmlns:xlink="http://www.w3.org/1999/xlink" version="1.1" class="marks" width="1032" height="436" viewBox="0 0 1032 436"><rect width="1032" height="436" fill="white"/><g fill="none" stroke-miterlimit="10" transform="translate(33,27)"><g class="mark-group role-frame root" role="graphics-object" aria-roledescription="group mark container"><g transform="translate(0,0)"><path class="background" aria-hidden="true" d="M0.5,0.5h800v300h-800Z" stroke="#ddd"/><g><g class="mark-group role-axis" aria-hidden="true"><g transform="translate(0.5,300.5)"><path class="background" aria-hidden="true" d="M0,0h0v0h0Z" pointer-events="none"/><g><g class="mark-rule role-axis-grid" pointer-events="none"><line transform="translate(0,-300)" x2="0" y2="300" stroke="#ddd" stroke-width="1" opacity="1"/><line transform="translate(30,-300)" x2="0" y2="300" stroke="#ddd" stroke-width="1" opacity="1"/><line transform="translate(59,-300)" x2="0" y2="300" stroke="#ddd" stroke-width="1" opacity="1"/><line transform="translate(89,-300)" x2="0" y2="300" stroke="#ddd" stroke-width="1" opacity="1"/><line transform="translate(119,-300)" x2="0" y2="300" stroke="#ddd" stroke-width="1" opacity="1"/><line transform="translate(148,-300)" x2="0" y2="300" stroke="#ddd" stroke-width="1" opacity="1"/><line transform="translate(178,-300)" x2="0" y2="300" stroke="#ddd" stroke-width="1" opacity="1"/><line transform="translate(207,-300)" x2="0" y2="300" stroke="#ddd" stroke-width="1" opacity="1"/><line transform="translate(237,-300)" x2="0" y2="300" stroke="#ddd" stroke-width="1" opacity="1"/><line transform="translate(267,-300)" x2="0" y2="300" stroke="#ddd" stroke-width="1" opacity="1"/><line transform="translate(296,-300)" x2="0" y2="300" stroke="#ddd" stroke-width="1" opacity="1"/><line transform="translate(326,-300)" x2="0" y2="300" stroke="#ddd" stroke-width="1" opacity="1"/><line transform="translate(356,-300)" x2="0" y2="300" stroke="#ddd" stroke-width="1" opacity="1"/><line transform="translate(385,-300)" x2="0" y2="300" stroke="#ddd" stroke-width="1" opacity="1"/><line transform="translate(415,-300)" x2="0" y2="300" stroke="#ddd" stroke-width="1" opacity="1"/><line transform="translate(444,-300)" x2="0" y2="300" stroke="#ddd" stroke-width="1" opacity="1"/><line transform="translate(474,-300)" x2="0" y2="300" stroke="#ddd" stroke-width="1" opacity="1"/><line transform="translate(504,-300)" x2="0" y2="300" stroke="#ddd" stroke-width="1" opacity="1"/><line transform="translate(533,-300)" x2="0" y2="300" stroke="#ddd" stroke-width="1" opacity="1"/><line transform="translate(563,-300)" x2="0" y2="300" stroke="#ddd" stroke-width="1" opacity="1"/><line transform="translate(593,-300)" x2="0" y2="300" stroke="#ddd" stroke-width="1" opacity="1"/><line transform="translate(622,-300)" x2="0" y2="300" stroke="#ddd" stroke-width="1" opacity="1"/><line transform="translate(652,-300)" x2="0" y2="300" stroke="#ddd" stroke-width="1" opacity="1"/><line transform="translate(681,-300)" x2="0" y2="300" stroke="#ddd" stroke-width="1" opacity="1"/><line transform="translate(711,-300)" x2="0" y2="300" stroke="#ddd" stroke-width="1" opacity="1"/><line transform="translate(741,-300)" x2="0" y2="300" stroke="#ddd" stroke-width="1" opacity="1"/><line transform="translate(770,-300)" x2="0" y2="300" stroke="#ddd" stroke-width="1" opacity="1"/><line transform="translate(800,-300)" x2="0" y2="300" stroke="#ddd" stroke-width="1" opacity="1"/></g></g><path class="foreground" aria-hidden="true" d="" pointer-events="none" display="none"/></g></g><g class="mark-group role-axis" aria-hidden="true"><g transform="translate(0.5,0.5)"><path class="background" aria-hidden="true" d="M0,0h0v0h0Z" pointer-events="none"/><g><g class="mark-rule role-axis-grid" pointer-events="none"><line transform="translate(0,300)" x2="800" y2="0" stroke="#ddd" stroke-width="1" opacity="1"/><line transform="translate(0,263)" x2="800" y2="0" stroke="#ddd" stroke-width="1" opacity="1"/><line transform="translate(0,225)" x2="800" y2="0" stroke="#ddd" stroke-width="1" opacity="1"/><line transform="translate(0,188)" x2="800" y2="0" stroke="#ddd" stroke-width="1" opacity="1"/><line transform="translate(0,150)" x2="800" y2="0" stroke="#ddd" stroke-width="1" opacity="1"/><line transform="translate(0,113)" x2="800" y2="0" stroke="#ddd" stroke-width="1" opacity="1"/><line transform="translate(0,75)" x2="800" y2="0" stroke="#ddd" stroke-width="1" opacity="1"/><line transform="translate(0,38)" x2="800" y2="0" stroke="#ddd" stroke-width="1" opacity="1"/><line transform="translate(0,0)" x2="800" y2="0" stroke="#ddd" stroke-width="1" opacity="1"/></g></g><path class="foreground" aria-hidden="true" d="" pointer-events="none" display="none"/></g></g><g class="mark-group role-axis" role="graphics-symbol" aria-roledescription="axis" aria-label="X-axis titled 'Date' for a time scale with values from Monday, 16 March 2026, 12:00:00 AM to Sunday, 12 April 2026, 12:00:00 AM"><g transform="translate(0.5,300.5)"><path class="background" aria-hidden="true" d="M0,0h0v0h0Z" pointer-events="none"/><g><g class="mark-rule role-axis-tick" pointer-events="none"><line transform="translate(0,0)" x2="0" y2="5" stroke="#888" stroke-width="1" opacity="1"/><line transform="translate(30,0)" x2="0" y2="5" stroke="#888" stroke-width="1" opacity="1"/><line transform="translate(59,0)" x2="0" y2="5" stroke="#888" stroke-width="1" opacity="1"/><line transform="translate(89,0)" x2="0" y2="5" stroke="#888" stroke-width="1" opacity="1"/><line transform="translate(119,0)" x2="0" y2="5" stroke="#888" stroke-width="1" opacity="1"/><line transform="translate(148,0)" x2="0" y2="5" stroke="#888" stroke-width="1" opacity="1"/><line transform="translate(178,0)" x2="0" y2="5" stroke="#888" stroke-width="1" opacity="1"/><line transform="translate(207,0)" x2="0" y2="5" stroke="#888" stroke-width="1" opacity="1"/><line transform="translate(237,0)" x2="0" y2="5" stroke="#888" stroke-width="1" opacity="1"/><line transform="translate(267,0)" x2="0" y2="5" stroke="#888" stroke-width="1" opacity="1"/><line transform="translate(296,0)" x2="0" y2="5" stroke="#888" stroke-width="1" opacity="1"/><line transform="translate(326,0)" x2="0" y2="5" stroke="#888" stroke-width="1" opacity="1"/><line transform="translate(356,0)" x2="0" y2="5" stroke="#888" stroke-width="1" opacity="1"/><line transform="translate(385,0)" x2="0" y2="5" stroke="#888" stroke-width="1" opacity="1"/><line transform="translate(415,0)" x2="0" y2="5" stroke="#888" stroke-width="1" opacity="1"/><line transform="translate(444,0)" x2="0" y2="5" stroke="#888" stroke-width="1" opacity="1"/><line transform="translate(474,0)" x2="0" y2="5" stroke="#888" stroke-width="1" opacity="1"/><line transform="translate(504,0)" x2="0" y2="5" stroke="#888" stroke-width="1" opacity="1"/><line transform="translate(533,0)" x2="0" y2="5" stroke="#888" stroke-width="1" opacity="1"/><line transform="translate(563,0)" x2="0" y2="5" stroke="#888" stroke-width="1" opacity="1"/><line transform="translate(593,0)" x2="0" y2="5" stroke="#888" stroke-width="1" opacity="1"/><line transform="translate(622,0)" x2="0" y2="5" stroke="#888" stroke-width="1" opacity="1"/><line transform="translate(652,0)" x2="0" y2="5" stroke="#888" stroke-width="1" opacity="1"/><line transform="translate(681,0)" x2="0" y2="5" stroke="#888" stroke-width="1" opacity="1"/><line transform="translate(711,0)" x2="0" y2="5" stroke="#888" stroke-width="1" opacity="1"/><line transform="translate(741,0)" x2="0" y2="5" stroke="#888" stroke-width="1" opacity="1"/><line transform="translate(770,0)" x2="0" y2="5" stroke="#888" stroke-width="1" opacity="1"/><line transform="translate(800,0)" x2="0" y2="5" stroke="#888" stroke-width="1" opacity="1"/></g><g class="mark-text role-axis-label" pointer-events="none"><text text-anchor="start" transform="translate(0,15)" font-family="sans-serif" font-size="10px" fill="#000" opacity="1">Mon 16</text><text text-anchor="middle" transform="translate(29.629629629629626,15)" font-family="sans-serif" font-size="10px" fill="#000" opacity="0">Tue 17</text><text text-anchor="middle" transform="translate(59.25925925925925,15)" font-family="sans-serif" font-size="10px" fill="#000" opacity="1">Wed 18</text><text text-anchor="middle" transform="translate(88.88888888888889,15)" font-family="sans-serif" font-size="10px" fill="#000" opacity="0">Thu 19</text><text text-anchor="middle" transform="translate(118.5185185185185,15)" font-family="sans-serif" font-size="10px" fill="#000" opacity="1">Fri 20</text><text text-anchor="middle" transform="translate(148.14814814814815,15)" font-family="sans-serif" font-size="10px" fill="#000" opacity="0">Sat 21</text><text text-anchor="middle" transform="translate(177.77777777777777,15)" font-family="sans-serif" font-size="10px" fill="#000" opacity="1">Mar 22</text><text text-anchor="middle" transform="translate(207.4074074074074,15)" font-family="sans-serif" font-size="10px" fill="#000" opacity="0">Mon 23</text><text text-anchor="middle" transform="translate(237.037037037037,15)" font-family="sans-serif" font-size="10px" fill="#000" opacity="1">Tue 24</text><text text-anchor="middle" transform="translate(266.66666666666663,15)" font-family="sans-serif" font-size="10px" fill="#000" opacity="0">Wed 25</text><text text-anchor="middle" transform="translate(296.2962962962963,15)" font-family="sans-serif" font-size="10px" fill="#000" opacity="1">Thu 26</text><text text-anchor="middle" transform="translate(325.9259259259259,15)" font-family="sans-serif" font-size="10px" fill="#000" opacity="0">Fri 27</text><text text-anchor="middle" transform="translate(355.55555555555554,15)" font-family="sans-serif" font-size="10px" fill="#000" opacity="1">Sat 28</text><text text-anchor="middle" transform="translate(385.18518518518516,15)" font-family="sans-serif" font-size="10px" fill="#000" opacity="0">Mar 29</text><text text-anchor="middle" transform="translate(414.8148148148148,15)" font-family="sans-serif" font-size="10px" fill="#000" opacity="1">Mon 30</text><text text-anchor="middle" transform="translate(444.44444444444446,15)" font-family="sans-serif" font-size="10px" fill="#000" opacity="0">Tue 31</text><text text-anchor="middle" transform="translate(474.074074074074,15)" font-family="sans-serif" font-size="10px" fill="#000" opacity="1">April</text><text text-anchor="middle" transform="translate(503.7037037037037,15)" font-family="sans-serif" font-size="10px" fill="#000" opacity="0">Thu 02</text><text text-anchor="middle" transform="translate(533.3333333333333,15)" font-family="sans-serif" font-size="10px" fill="#000" opacity="1">Fri 03</text><text text-anchor="middle" transform="translate(562.9629629629629,15)" font-family="sans-serif" font-size="10px" fill="#000" opacity="0">Sat 04</text><text text-anchor="middle" transform="translate(592.5925925925926,15)" font-family="sans-serif" font-size="10px" fill="#000" opacity="1">Apr 05</text><text text-anchor="middle" transform="translate(622.2222222222223,15)" font-family="sans-serif" font-size="10px" fill="#000" opacity="0">Mon 06</text><text text-anchor="middle" transform="translate(651.8518518518518,15)" font-family="sans-serif" font-size="10px" fill="#000" opacity="1">Tue 07</text><text text-anchor="middle" transform="translate(681.4814814814815,15)" font-family="sans-serif" font-size="10px" fill="#000" opacity="0">Wed 08</text><text text-anchor="middle" transform="translate(711.1111111111111,15)" font-family="sans-serif" font-size="10px" fill="#000" opacity="1">Thu 09</text><text text-anchor="middle" transform="translate(740.7407407407408,15)" font-family="sans-serif" font-size="10px" fill="#000" opacity="0">Fri 10</text><text text-anchor="middle" transform="translate(770.3703703703703,15)" font-family="sans-serif" font-size="10px" fill="#000" opacity="1">Sat 11</text><text text-anchor="end" transform="translate(800,15)" font-family="sans-serif" font-size="10px" fill="#000" opacity="0">Apr 12</text></g><g class="mark-rule role-axis-domain" pointer-events="none"><line transform="translate(0,0)" x2="800" y2="0" stroke="#888" stroke-width="1" opacity="1"/></g><g class="mark-text role-axis-title" pointer-events="none"><text text-anchor="middle" transform="translate(400,30)" font-family="sans-serif" font-size="11px" font-weight="bold" fill="#000" opacity="1">Date</text></g></g><path class="foreground" aria-hidden="true" d="" pointer-events="none" display="none"/></g></g><g class="mark-group role-axis" role="graphics-symbol" aria-roledescription="axis" aria-label="Y-axis titled 'Unique Visitors/day' for a linear scale with values from 0 to 8"><g transform="translate(0.5,0.5)"><path class="background" aria-hidden="true" d="M0,0h0v0h0Z" pointer-events="none"/><g><g class="mark-rule role-axis-tick" pointer-events="none"><line transform="translate(0,300)" x2="-5" y2="0" stroke="#888" stroke-width="1" opacity="1"/><line transform="translate(0,263)" x2="-5" y2="0" stroke="#888" stroke-width="1" opacity="1"/><line transform="translate(0,225)" x2="-5" y2="0" stroke="#888" stroke-width="1" opacity="1"/><line transform="translate(0,188)" x2="-5" y2="0" stroke="#888" stroke-width="1" opacity="1"/><line transform="translate(0,150)" x2="-5" y2="0" stroke="#888" stroke-width="1" opacity="1"/><line transform="translate(0,113)" x2="-5" y2="0" stroke="#888" stroke-width="1" opacity="1"/><line transform="translate(0,75)" x2="-5" y2="0" stroke="#888" stroke-width="1" opacity="1"/><line transform="translate(0,38)" x2="-5" y2="0" stroke="#888" stroke-width="1" opacity="1"/><line transform="translate(0,0)" x2="-5" y2="0" stroke="#888" stroke-width="1" opacity="1"/></g><g class="mark-text role-axis-label" pointer-events="none"><text text-anchor="end" transform="translate(-7,303)" font-family="sans-serif" font-size="10px" fill="#000" opacity="1">0</text><text text-anchor="end" transform="translate(-7,265.5)" font-family="sans-serif" font-size="10px" fill="#000" opacity="1">1</text><text text-anchor="end" transform="translate(-7,228)" font-family="sans-serif" font-size="10px" fill="#000" opacity="1">2</text><text text-anchor="end" transform="translate(-7,190.5)" font-family="sans-serif" font-size="10px" fill="#000" opacity="1">3</text><text text-anchor="end" transform="translate(-7,153)" font-family="sans-serif" font-size="10px" fill="#000" opacity="1">4</text><text text-anchor="end" transform="translate(-7,115.5)" font-family="sans-serif" font-size="10px" fill="#000" opacity="1">5</text><text text-anchor="end" transform="translate(-7,78)" font-family="sans-serif" font-size="10px" fill="#000" opacity="1">6</text><text text-anchor="end" transform="translate(-7,40.5)" font-family="sans-serif" font-size="10px" fill="#000" opacity="1">7</text><text text-anchor="end" transform="translate(-7,3)" font-family="sans-serif" font-size="10px" fill="#000" opacity="1">8</text></g><g class="mark-rule role-axis-domain" pointer-events="none"><line transform="translate(0,300)" x2="0" y2="-300" stroke="#888" stroke-width="1" opacity="1"/></g><g class="mark-text role-axis-title" pointer-events="none"><text text-anchor="middle" transform="translate(-16.5615234375,150) rotate(-90) translate(0,-2)" font-family="sans-serif" font-size="11px" font-weight="bold" fill="#000" opacity="1">Unique Visitors/day</text></g></g><path class="foreground" aria-hidden="true" d="" pointer-events="none" display="none"/></g></g><g class="mark-group role-scope pathgroup" role="graphics-object" aria-roledescription="group mark container"><g transform="translate(0,0)"><path class="background" aria-hidden="true" d="M0,0h800v300h-800Z"/><g><g class="mark-area role-mark marks" role="graphics-object" aria-roledescription="area mark container"><path aria-label="Date: Mar 16, 2026; Unique Visitors/day: 0; Repository: justdavis-family/github-analytics-data" role="graphics-symbol" aria-roledescription="area mark" d="M0,300L29.63,300L59.259,300L88.889,300L118.519,300L148.148,300L177.778,300L207.407,187.5L237.037,187.5L266.667,150L296.296,187.5L325.926,187.5L355.556,187.5L385.185,262.5L414.815,0L444.444,262.5L474.074,150L503.704,262.5L533.333,300L562.963,225L592.593,262.5L622.222,300L651.852,187.5L681.481,262.5L711.111,262.5L740.741,225L770.37,300L800,75L800,75L770.37,300L740.741,225L711.111,262.5L681.481,262.5L651.852,187.5L622.222,300L592.593,262.5L562.963,225L533.333,300L503.704,262.5L474.074,150L444.444,262.5L414.815,0L385.185,262.5L355.556,187.5L325.926,187.5L296.296,187.5L266.667,150L237.037,187.5L207.407,187.5L177.778,300L148.148,300L118.519,300L88.889,300L59.259,300L29.63,300L0,300Z" fill="#4c78a8"/></g></g><path class="foreground" aria-hidden="true" d="" display="none"/></g><g transform="translate(0,0)"><path class="background" aria-hidden="true" d="M0,0h800v300h-800Z"/><g><g class="mark-area role-mark marks" role="graphics-object" aria-roledescription="area mark container"><path aria-label="Date: Mar 16, 2026; Unique Visitors/day: 0; Repository: justdavis-family/justdavis" role="graphics-symbol" aria-roledescription="area mark" d="M0,300L29.63,300L59.259,300L88.889,300L118.519,300L148.148,300L177.778,300L207.407,187.5L237.037,187.5L266.667,150L296.296,187.5L325.926,187.5L355.556,187.5L385.185,262.5L414.815,0L444.444,262.5L474.074,150L503.704,262.5L533.333,300L562.963,225L592.593,262.5L622.222,300L651.852,187.5L681.481,262.5L711.111,262.5L740.741,225L770.37,300L800,75L800,75L770.37,300L740.741,225L711.111,262.5L681.481,262.5L651.852,262.5L622.222,300L592.593,262.5L562.963,225L533.333,300L503.704,262.5L474.074,150L444.444,262.5L414.815,37.5L385.185,262.5L355.556,187.5L325.926,187.5L296.296,187.5L266.667,150L237.037,187.5L207.407,187.5L177.778,300L148.148,300L118.519,300L88.889,300L59.259,300L29.63,300L0,300Z" fill="#f58518"/></g></g><path class="foreground" aria-hidden="true" d="" display="none"/></g><g transform="translate(0,0)"><path class="background" aria-hidden="true" d="M0,0h800v300h-800Z"/><g><g class="mark-area role-mark marks" role="graphics-object" aria-roledescription="area mark container"><path aria-label="Date: Mar 16, 2026; Unique Visitors/day: 0; Repository: karlmdavis/FHIR-Server" role="graphics-symbol" aria-roledescription="area mark" d="M0,300L29.63,300L59.259,300L88.889,300L118.519,300L148.148,300L177.778,300L207.407,187.5L237.037,187.5L266.667,150L296.296,187.5L325.926,187.5L355.556,187.5L385.185,262.5L414.815,37.5L444.444,262.5L474.074,150L503.704,262.5L533.333,300L562.963,225L592.593,262.5L622.222,300L651.852,262.5L681.481,262.5L711.111,262.5L740.741,225L770.37,300L800,75L800,75L770.37,300L740.741,225L711.111,262.5L681.481,262.5L651.852,262.5L622.222,300L592.593,262.5L562.963,225L533.333,300L503.704,262.5L474.074,150L444.444,262.5L414.815,37.5L385.185,262.5L355.556,187.5L325.926,187.5L296.296,187.5L266.667,150L237.037,187.5L207.407,187.5L177.778,300L148.148,300L118.519,300L88.889,300L59.259,300L29.63,300L0,300Z" fill="#e45756"/></g></g><path class="foreground" aria-hidden="true" d="" display="none"/></g><g transform="translate(0,0)"><path class="background" aria-hidden="true" d="M0,0h800v300h-800Z"/><g><g class="mark-area role-mark marks" role="graphics-object" aria-roledescription="area mark container"><path aria-label="Date: Mar 16, 2026; Unique Visitors/day: 0; Repository: karlmdavis/ansible" role="graphics-symbol" aria-roledescription="area mark" d="M0,300L29.63,300L59.259,300L88.889,300L118.519,300L148.148,300L177.778,300L207.407,187.5L237.037,187.5L266.667,150L296.296,187.5L325.926,187.5L355.556,187.5L385.185,262.5L414.815,37.5L444.444,262.5L474.074,150L503.704,262.5L533.333,300L562.963,225L592.593,262.5L622.222,300L651.852,262.5L681.481,262.5L711.111,262.5L740.741,225L770.37,300L800,75L800,75L770.37,300L740.741,225L711.111,262.5L681.481,262.5L651.852,262.5L622.222,300L592.593,262.5L562.963,225L533.333,300L503.704,262.5L474.074,150L444.444,262.5L414.815,37.5L385.185,262.5L355.556,187.5L325.926,187.5L296.296,187.5L266.667,150L237.037,187.5L207.407,187.5L177.778,300L148.148,300L118.519,300L88.889,300L59.259,300L29.63,300L0,300Z" fill="#72b7b2"/></g></g><path class="foreground" aria-hidden="true" d="" display="none"/></g><g transform="translate(0,0)"><path class="background" aria-hidden="true" d="M0,0h800v300h-800Z"/><g><g class="mark-area role-mark marks" role="graphics-object" aria-roledescription="area mark container"><path aria-label="Date: Mar 16, 2026; Unique Visitors/day: 0; Repository: karlmdavis/ansible-jenkins" role="graphics-symbol" aria-roledescription="area mark" d="M0,300L29.63,300L59.259,300L88.889,300L118.519,300L148.148,300L177.778,300L207.407,187.5L237.037,187.5L266.667,150L296.296,187.5L325.926,187.5L355.556,187.5L385.185,262.5L414.815,37.5L444.444,262.5L474.074,150L503.704,262.5L533.333,300L562.963,225L592.593,262.5L622.222,300L651.852,262.5L681.481,262.5L711.111,262.5L740.741,225L770.37,300L800,75L800,75L770.37,300L740.741,225L711.111,262.5L681.481,262.5L651.852,262.5L622.222,300L592.593,262.5L562.963,225L533.333,300L503.704,262.5L474.074,150L444.444,262.5L414.815,37.5L385.185,262.5L355.556,187.5L325.926,187.5L296.296,187.5L266.667,150L237.037,187.5L207.407,187.5L177.778,300L148.148,300L118.519,300L88.889,300L59.259,300L29.63,300L0,300Z" fill="#54a24b"/></g></g><path class="foreground" aria-hidden="true" d="" display="none"/></g><g transform="translate(0,0)"><path class="background" aria-hidden="true" d="M0,0h800v300h-800Z"/><g><g class="mark-area role-mark marks" role="graphics-object" aria-roledescription="area mark container"><path aria-label="Date: Mar 16, 2026; Unique Visitors/day: 0; Repository: karlmdavis/ansible-role-acmetool" role="graphics-symbol" aria-roledescription="area mark" d="M0,300L29.63,300L59.259,300L88.889,300L118.519,300L148.148,300L177.778,300L207.407,187.5L237.037,187.5L266.667,150L296.296,187.5L325.926,187.5L355.556,187.5L385.185,262.5L414.815,37.5L444.444,262.5L474.074,150L503.704,262.5L533.333,300L562.963,225L592.593,262.5L622.222,300L651.852,262.5L681.481,262.5L711.111,262.5L740.741,225L770.37,300L800,75L800,75L770.37,300L740.741,225L711.111,262.5L681.481,262.5L651.852,262.5L622.222,300L592.593,262.5L562.963,225L533.333,300L503.704,262.5L474.074,150L444.444,262.5L414.815,37.5L385.185,262.5L355.556,187.5L325.926,187.5L296.296,187.5L266.667,150L237.037,187.5L207.407,187.5L177.778,300L148.148,300L118.519,300L88.889,300L59.259,300L29.63,300L0,300Z" fill="#eeca3b"/></g></g><path class="foreground" aria-hidden="true" d="" display="none"/></g><g transform="translate(0,0)"><path class="background" aria-hidden="true" d="M0,0h800v300h-800Z"/><g><g class="mark-area role-mark marks" role="graphics-object" aria-roledescription="area mark container"><path aria-label="Date: Mar 16, 2026; Unique Visitors/day: 0; Repository: karlmdavis/ansible-role-bind-dns" role="graphics-symbol" aria-roledescription="area mark" d="M0,300L29.63,300L59.259,300L88.889,300L118.519,300L148.148,300L177.778,300L207.407,187.5L237.037,187.5L266.667,150L296.296,187.5L325.926,187.5L355.556,187.5L385.185,262.5L414.815,37.5L444.444,262.5L474.074,150L503.704,262.5L533.333,300L562.963,225L592.593,262.5L622.222,300L651.852,262.5L681.481,262.5L711.111,262.5L740.741,225L770.37,300L800,75L800,75L770.37,300L740.741,225L711.111,262.5L681.481,262.5L651.852,262.5L622.222,300L592.593,262.5L562.963,262.5L533.333,300L503.704,262.5L474.074,150L444.444,262.5L414.815,37.5L385.185,262.5L355.556,225L325.926,187.5L296.296,187.5L266.667,187.5L237.037,187.5L207.407,187.5L177.778,300L148.148,300L118.519,300L88.889,300L59.259,300L29.63,300L0,300Z" fill="#b279a2"/></g></g><path class="foreground" aria-hidden="true" d="" display="none"/></g><g transform="translate(0,0)"><path class="background" aria-hidden="true" d="M0,0h800v300h-800Z"/><g><g class="mark-area role-mark marks" role="graphics-object" aria-roledescription="area mark container"><path aria-label="Date: Mar 16, 2026; Unique Visitors/day: 0; Repository: karlmdavis/ansible-role-jenkins2" role="graphics-symbol" aria-roledescription="area mark" d="M0,300L29.63,300L59.259,300L88.889,300L118.519,300L148.148,300L177.778,300L207.407,187.5L237.037,187.5L266.667,187.5L296.296,187.5L325.926,187.5L355.556,225L385.185,262.5L414.815,37.5L444.444,262.5L474.074,150L503.704,262.5L533.333,300L562.963,262.5L592.593,262.5L622.222,300L651.852,262.5L681.481,262.5L711.111,262.5L740.741,225L770.37,300L800,75L800,112.5L770.37,300L740.741,225L711.111,262.5L681.481,262.5L651.852,262.5L622.222,300L592.593,262.5L562.963,262.5L533.333,300L503.704,262.5L474.074,150L444.444,262.5L414.815,75L385.185,300L355.556,225L325.926,187.5L296.296,187.5L266.667,187.5L237.037,187.5L207.407,187.5L177.778,300L148.148,300L118.519,300L88.889,300L59.259,300L29.63,300L0,300Z" fill="#ff9da6"/></g></g><path class="foreground" aria-hidden="true" d="" display="none"/></g><g transform="translate(0,0)"><path class="background" aria-hidden="true" d="M0,0h800v300h-800Z"/><g><g class="mark-area role-mark marks" role="graphics-object" aria-roledescription="area mark container"><path aria-label="Date: Mar 16, 2026; Unique Visitors/day: 0; Repository: karlmdavis/ansible-role-ldap" role="graphics-symbol" aria-roledescription="area mark" d="M0,300L29.63,300L59.259,300L88.889,300L118.519,300L148.148,300L177.778,300L207.407,187.5L237.037,187.5L266.667,187.5L296.296,187.5L325.926,187.5L355.556,225L385.185,300L414.815,75L444.444,262.5L474.074,150L503.704,262.5L533.333,300L562.963,262.5L592.593,262.5L622.222,300L651.852,262.5L681.481,262.5L711.111,262.5L740.741,225L770.37,300L800,112.5L800,112.5L770.37,300L740.741,225L711.111,262.5L681.481,262.5L651.852,262.5L622.222,300L592.593,262.5L562.963,262.5L533.333,300L503.704,262.5L474.074,150L444.444,262.5L414.815,75L385.185,300L355.556,225L325.926,187.5L296.296,187.5L266.667,187.5L237.037,187.5L207.407,187.5L177.778,300L148.148,300L118.519,300L88.889,300L59.259,300L29.63,300L0,300Z" fill="#9d755d"/></g></g><path class="foreground" aria-hidden="true" d="" display="none"/></g><g transform="translate(0,0)"><path class="background" aria-hidden="true" d="M0,0h800v300h-800Z"/><g><g class="mark-area role-mark marks" role="graphics-object" aria-roledescription="area mark container"><path aria-label="Date: Mar 16, 2026; Unique Visitors/day: 0; Repository: karlmdavis/ansible-role-rcm-dotfiles" role="graphics-symbol" aria-roledescription="area mark" d="M0,300L29.63,300L59.259,300L88.889,300L118.519,300L148.148,300L177.778,300L207.407,187.5L237.037,187.5L266.667,187.5L296.296,187.5L325.926,187.5L355.556,225L385.185,300L414.815,75L444.444,262.5L474.074,150L503.704,262.5L533.333,300L562.963,262.5L592.593,262.5L622.222,300L651.852,262.5L681.481,262.5L711.111,262.5L740.741,225L770.37,300L800,112.5L800,112.5L770.37,300L740.741,225L711.111,262.5L681.481,262.5L651.852,262.5L622.222,300L592.593,262.5L562.963,262.5L533.333,300L503.704,262.5L474.074,150L444.444,262.5L414.815,75L385.185,300L355.556,225L325.926,187.5L296.296,187.5L266.667,187.5L237.037,187.5L207.407,187.5L177.778,300L148.148,300L118.519,300L88.889,300L59.259,300L29.63,300L0,300Z" fill="#bab0ac"/></g></g><path class="foreground" aria-hidden="true" d="" display="none"/></g><g transform="translate(0,0)"><path class="background" aria-hidden="true" d="M0,0h800v300h-800Z"/><g><g class="mark-area role-mark marks" role="graphics-object" aria-roledescription="area mark container"><path aria-label="Date: Mar 16, 2026; Unique Visitors/day: 0; Repository: karlmdavis/ansible-roles" role="graphics-symbol" aria-roledescription="area mark" d="M0,300L29.63,300L59.259,300L88.889,300L118.519,300L148.148,300L177.778,300L207.407,187.5L237.037,187.5L266.667,187.5L296.296,187.5L325.926,187.5L355.556,225L385.185,300L414.815,75L444.444,262.5L474.074,150L503.704,262.5L533.333,300L562.963,262.5L592.593,262.5L622.222,300L651.852,262.5L681.481,262.5L711.111,262.5L740.741,225L770.37,300L800,112.5L800,112.5L770.37,300L740.741,225L711.111,262.5L681.481,262.5L651.852,262.5L622.222,300L592.593,262.5L562.963,262.5L533.333,300L503.704,262.5L474.074,150L444.444,262.5L414.815,75L385.185,300L355.556,225L325.926,187.5L296.296,187.5L266.667,187.5L237.037,187.5L207.407,187.5L177.778,300L148.148,300L118.519,300L88.889,300L59.259,300L29.63,300L0,300Z" fill="#4c78a8"/></g></g><path class="foreground" aria-hidden="true" d="" display="none"/></g><g transform="translate(0,0)"><path class="background" aria-hidden="true" d="M0,0h800v300h-800Z"/><g><g class="mark-area role-mark marks" role="graphics-object" aria-roledescription="area mark container"><path aria-label="Date: Mar 16, 2026; Unique Visitors/day: 0; Repository: karlmdavis/bbonfhir-dev-infra-docker" role="graphics-symbol" aria-roledescription="area mark" d="M0,300L29.63,300L59.259,300L88.889,300L118.519,300L148.148,300L177.778,300L207.407,187.5L237.037,187.5L266.667,187.5L296.296,187.5L325.926,187.5L355.556,225L385.185,300L414.815,75L444.444,262.5L474.074,150L503.704,262.5L533.333,300L562.963,262.5L592.593,262.5L622.222,300L651.852,262.5L681.481,262.5L711.111,262.5L740.741,225L770.37,300L800,112.5L800,112.5L770.37,300L740.741,225L711.111,262.5L681.481,262.5L651.852,262.5L622.222,300L592.593,262.5L562.963,262.5L533.333,300L503.704,262.5L474.074,150L444.444,262.5L414.815,75L385.185,300L355.556,225L325.926,187.5L296.296,187.5L266.667,187.5L237.037,187.5L207.407,187.5L177.778,300L148.148,300L118.519,300L88.889,300L59.259,300L29.63,300L0,300Z" fill="#f58518"/></g></g><path class="foreground" aria-hidden="true" d="" display="none"/></g><g transform="translate(0,0)"><path class="background" aria-hidden="true" d="M0,0h800v300h-800Z"/><g><g class="mark-area role-mark marks" role="graphics-object" aria-roledescription="area mark container"><path aria-label="Date: Mar 16, 2026; Unique Visitors/day: 0; Repository: karlmdavis/can-i-kayak-baltimore" role="graphics-symbol" aria-roledescription="area mark" d="M0,300L29.63,300L59.259,300L88.889,300L118.519,300L148.148,300L177.778,300L207.407,187.5L237.037,187.5L266.667,187.5L296.296,187.5L325.926,187.5L355.556,225L385.185,300L414.815,75L444.444,262.5L474.074,150L503.704,262.5L533.333,300L562.963,262.5L592.593,262.5L622.222,300L651.852,262.5L681.481,262.5L711.111,262.5L740.741,225L770.37,300L800,112.5L800,112.5L770.37,300L740.741,225L711.111,262.5L681.481,262.5L651.852,262.5L622.222,300L592.593,262.5L562.963,262.5L533.333,300L503.704,262.5L474.074,150L444.444,262.5L414.815,75L385.185,300L355.556,225L325.926,187.5L296.296,187.5L266.667,187.5L237.037,187.5L207.407,187.5L177.778,300L148.148,300L118.519,300L88.889,300L59.259,300L29.63,300L0,300Z" fill="#e45756"/></g></g><path class="foreground" aria-hidden="true" d="" display="none"/></g><g transform="translate(0,0)"><path class="background" aria-hidden="true" d="M0,0h800v300h-800Z"/><g><g class="mark-area role-mark marks" role="graphics-object" aria-roledescription="area mark container"><path aria-label="Date: Mar 16, 2026; Unique Visitors/day: 0; Repository: karlmdavis/datanucleus-test-jdo-1-to-n" role="graphics-symbol" aria-roledescription="area mark" d="M0,300L29.63,300L59.259,300L88.889,300L118.519,300L148.148,300L177.778,300L207.407,187.5L237.037,187.5L266.667,187.5L296.296,187.5L325.926,187.5L355.556,225L385.185,300L414.815,75L444.444,262.5L474.074,150L503.704,262.5L533.333,300L562.963,262.5L592.593,262.5L622.222,300L651.852,262.5L681.481,262.5L711.111,262.5L740.741,225L770.37,300L800,112.5L800,112.5L770.37,300L740.741,225L711.111,262.5L681.481,262.5L651.852,262.5L622.222,300L592.593,262.5L562.963,262.5L533.333,300L503.704,262.5L474.074,150L444.444,262.5L414.815,75L385.185,300L355.556,225L325.926,187.5L296.296,187.5L266.667,187.5L237.037,187.5L207.407,187.5L177.778,300L148.148,300L118.519,300L88.889,300L59.259,300L29.63,300L0,300Z" fill="#72b7b2"/></g></g><path class="foreground" aria-hidden="true" d="" display="none"/></g><g transform="translate(0,0)"><path class="background" aria-hidden="true" d="M0,0h800v300h-800Z"/><g><g class="mark-area role-mark marks" role="graphics-object" aria-roledescription="area mark container"><path aria-label="Date: Mar 16, 2026; Unique Visitors/day: 0; Repository: karlmdavis/dotfiles" role="graphics-symbol" aria-roledescription="area mark" d="M0,300L29.63,300L59.259,300L88.889,300L118.519,300L148.148,300L177.778,300L207.407,187.5L237.037,187.5L266.667,187.5L296.296,187.5L325.926,187.5L355.556,225L385.185,300L414.815,75L444.444,262.5L474.074,150L503.704,262.5L533.333,300L562.963,262.5L592.593,262.5L622.222,300L651.852,262.5L681.481,262.5L711.111,262.5L740.741,225L770.37,300L800,112.5L800,112.5L770.37,300L740.741,225L711.111,262.5L681.481,262.5L651.852,262.5L622.222,300L592.593,262.5L562.963,262.5L533.333,300L503.704,262.5L474.074,150L444.444,262.5L414.815,75L385.185,300L355.556,225L325.926,187.5L296.296,187.5L266.667,187.5L237.037,187.5L207.407,187.5L177.778,300L148.148,300L118.519,300L88.889,300L59.259,300L29.63,300L0,300Z" fill="#54a24b"/></g></g><path class="foreground" aria-hidden="true" d="" display="none"/></g><g transform="translate(0,0)"><path class="background" aria-hidden="true" d="M0,0h800v300h-800Z"/><g><g class="mark-area role-mark marks" role="graphics-object" aria-roledescription="area mark container"><path aria-label="Date: Mar 16, 2026; Unique Visitors/day: 0; Repository: karlmdavis/fhir-benchmarks" role="graphics-symbol" aria-roledescription="area mark" d="M0,300L29.63,300L59.259,300L88.889,300L118.519,300L148.148,300L177.778,300L207.407,187.5L237.037,187.5L266.667,187.5L296.296,187.5L325.926,187.5L355.556,225L385.185,300L414.815,75L444.444,262.5L474.074,150L503.704,262.5L533.333,300L562.963,262.5L592.593,262.5L622.222,300L651.852,262.5L681.481,262.5L711.111,262.5L740.741,225L770.37,300L800,112.5L800,112.5L770.37,300L740.741,262.5L711.111,262.5L681.481,262.5L651.852,300L622.222,300L592.593,262.5L562.963,262.5L533.333,300L503.704,262.5L474.074,187.5L444.444,262.5L414.815,112.5L385.185,300L355.556,225L325.926,187.5L296.296,225L266.667,187.5L237.037,187.5L207.407,187.5L177.778,300L148.148,300L118.519,300L88.889,300L59.259,300L29.63,300L0,300Z" fill="#eeca3b"/></g></g><path class="foreground" aria-hidden="true" d="" display="none"/></g><g transform="translate(0,0)"><path class="background" aria-hidden="true" d="M0,0h800v300h-800Z"/><g><g class="mark-area role-mark marks" role="graphics-object" aria-roledescription="area mark container"><path aria-label="Date: Mar 16, 2026; Unique Visitors/day: 0; Repository: karlmdavis/hapi-fhir-jpaserver-starter" role="graphics-symbol" aria-roledescription="area mark" d="M0,300L29.63,300L59.259,300L88.889,300L118.519,300L148.148,300L177.778,300L207.407,187.5L237.037,187.5L266.667,187.5L296.296,225L325.926,187.5L355.556,225L385.185,300L414.815,112.5L444.444,262.5L474.074,187.5L503.704,262.5L533.333,300L562.963,262.5L592.593,262.5L622.222,300L651.852,300L681.481,262.5L711.111,262.5L740.741,262.5L770.37,300L800,112.5L800,112.5L770.37,300L740.741,262.5L711.111,262.5L681.481,262.5L651.852,300L622.222,300L592.593,262.5L562.963,262.5L533.333,300L503.704,262.5L474.074,187.5L444.444,262.5L414.815,112.5L385.185,300L355.556,225L325.926,187.5L296.296,225L266.667,187.5L237.037,187.5L207.407,187.5L177.778,300L148.148,300L118.519,300L88.889,300L59.259,300L29.63,300L0,300Z" fill="#b279a2"/></g></g><path class="foreground" aria-hidden="true" d="" display="none"/></g><g transform="translate(0,0)"><path class="background" aria-hidden="true" d="M0,0h800v300h-800Z"/><g><g class="mark-area role-mark marks" role="graphics-object" aria-roledescription="area mark container"><path aria-label="Date: Mar 16, 2026; Unique Visitors/day: 0; Repository: karlmdavis/hello-rust-actix" role="graphics-symbol" aria-roledescription="area mark" d="M0,300L29.63,300L59.259,300L88.889,300L118.519,300L148.148,300L177.778,300L207.407,187.5L237.037,187.5L266.667,187.5L296.296,225L325.926,187.5L355.556,225L385.185,300L414.815,112.5L444.444,262.5L474.074,187.5L503.704,262.5L533.333,300L562.963,262.5L592.593,262.5L622.222,300L651.852,300L681.481,262.5L711.111,262.5L740.741,262.5L770.37,300L800,112.5L800,112.5L770.37,300L740.741,262.5L711.111,262.5L681.481,262.5L651.852,300L622.222,300L592.593,262.5L562.963,262.5L533.333,300L503.704,262.5L474.074,187.5L444.444,262.5L414.815,112.5L385.185,300L355.556,225L325.926,187.5L296.296,225L266.667,187.5L237.037,187.5L207.407,187.5L177.778,300L148.148,300L118.519,300L88.889,300L59.259,300L29.63,300L0,300Z" fill="#ff9da6"/></g></g><path class="foreground" aria-hidden="true" d="" display="none"/></g><g transform="translate(0,0)"><path class="background" aria-hidden="true" d="M0,0h800v300h-800Z"/><g><g class="mark-area role-mark marks" role="graphics-object" aria-roledescription="area mark container"><path aria-label="Date: Mar 16, 2026; Unique Visitors/day: 0; Repository: karlmdavis/jessentials" role="graphics-symbol" aria-roledescription="area mark" d="M0,300L29.63,300L59.259,300L88.889,300L118.519,300L148.148,300L177.778,300L207.407,187.5L237.037,187.5L266.667,187.5L296.296,225L325.926,187.5L355.556,225L385.185,300L414.815,112.5L444.444,262.5L474.074,187.5L503.704,262.5L533.333,300L562.963,262.5L592.593,262.5L622.222,300L651.852,300L681.481,262.5L711.111,262.5L740.741,262.5L770.37,300L800,112.5L800,112.5L770.37,300L740.741,262.5L711.111,262.5L681.481,262.5L651.852,300L622.222,300L592.593,262.5L562.963,262.5L533.333,300L503.704,262.5L474.074,187.5L444.444,262.5L414.815,112.5L385.185,300L355.556,225L325.926,187.5L296.296,225L266.667,187.5L237.037,187.5L207.407,187.5L177.778,300L148.148,300L118.519,300L88.889,300L59.259,300L29.63,300L0,300Z" fill="#9d755d"/></g></g><path class="foreground" aria-hidden="true" d="" display="none"/></g><g transform="translate(0,0)"><path class="background" aria-hidden="true" d="M0,0h800v300h-800Z"/><g><g class="mark-area role-mark marks" role="graphics-object" aria-roledescription="area mark container"><path aria-label="Date: Mar 16, 2026; Unique Visitors/day: 0; Repository: karlmdavis/justdavis-ansible" role="graphics-symbol" aria-roledescription="area mark" d="M0,300L29.63,300L59.259,300L88.889,300L118.519,300L148.148,300L177.778,300L207.407,187.5L237.037,187.5L266.667,187.5L296.296,225L325.926,187.5L355.556,225L385.185,300L414.815,112.5L444.444,262.5L474.074,187.5L503.704,262.5L533.333,300L562.963,262.5L592.593,262.5L622.222,300L651.852,300L681.481,262.5L711.111,262.5L740.741,262.5L770.37,300L800,112.5L800,150L770.37,300L740.741,262.5L711.111,262.5L681.481,262.5L651.852,300L622.222,300L592.593,262.5L562.963,262.5L533.333,300L503.704,262.5L474.074,225L444.444,262.5L414.815,150L385.185,300L355.556,225L325.926,187.5L296.296,225L266.667,187.5L237.037,187.5L207.407,187.5L177.778,300L148.148,300L118.519,300L88.889,300L59.259,300L29.63,300L0,300Z" fill="#bab0ac"/></g></g><path class="foreground" aria-hidden="true" d="" display="none"/></g><g transform="translate(0,0)"><path class="background" aria-hidden="true" d="M0,0h800v300h-800Z"/><g><g class="mark-area role-mark marks" role="graphics-object" aria-roledescription="area mark container"><path aria-label="Date: Mar 16, 2026; Unique Visitors/day: 0; Repository: karlmdavis/justdavis-finances" role="graphics-symbol" aria-roledescription="area mark" d="M0,300L29.63,300L59.259,300L88.889,300L118.519,300L148.148,300L177.778,300L207.407,187.5L237.037,187.5L266.667,187.5L296.296,225L325.926,187.5L355.556,225L385.185,300L414.815,150L444.444,262.5L474.074,225L503.704,262.5L533.333,300L562.963,262.5L592.593,262.5L622.222,300L651.852,300L681.481,262.5L711.111,262.5L740.741,262.5L770.37,300L800,150L800,187.5L770.37,300L740.741,262.5L711.111,262.5L681.481,262.5L651.852,300L622.222,300L592.593,262.5L562.963,262.5L533.333,300L503.704,262.5L474.074,225L444.444,262.5L414.815,150L385.185,300L355.556,225L325.926,225L296.296,225L266.667,187.5L237.037,187.5L207.407,187.5L177.778,300L148.148,300L118.519,300L88.889,300L59.259,300L29.63,300L0,300Z" fill="#4c78a8"/></g></g><path class="foreground" aria-hidden="true" d="" display="none"/></g><g transform="translate(0,0)"><path class="background" aria-hidden="true" d="M0,0h800v300h-800Z"/><g><g class="mark-area role-mark marks" role="graphics-object" aria-roledescription="area mark container"><path aria-label="Date: Mar 16, 2026; Unique Visitors/day: 0; Repository: karlmdavis/justdavis-karl" role="graphics-symbol" aria-roledescription="area mark" d="M0,300L29.63,300L59.259,300L88.889,300L118.519,300L148.148,300L177.778,300L207.407,187.5L237.037,187.5L266.667,187.5L296.296,225L325.926,225L355.556,225L385.185,300L414.815,150L444.444,262.5L474.074,225L503.704,262.5L533.333,300L562.963,262.5L592.593,262.5L622.222,300L651.852,300L681.481,262.5L711.111,262.5L740.741,262.5L770.37,300L800,187.5L800,187.5L770.37,300L740.741,262.5L711.111,262.5L681.481,262.5L651.852,300L622.222,300L592.593,262.5L562.963,262.5L533.333,300L503.704,262.5L474.074,225L444.444,262.5L414.815,150L385.185,300L355.556,225L325.926,225L296.296,225L266.667,187.5L237.037,187.5L207.407,187.5L177.778,300L148.148,300L118.519,300L88.889,300L59.259,300L29.63,300L0,300Z" fill="#f58518"/></g></g><path class="foreground" aria-hidden="true" d="" display="none"/></g><g transform="translate(0,0)"><path class="background" aria-hidden="true" d="M0,0h800v300h-800Z"/><g><g class="mark-area role-mark marks" role="graphics-object" aria-roledescription="area mark container"><path aria-label="Date: Mar 16, 2026; Unique Visitors/day: 0; Repository: karlmdavis/justdavis-puppet" role="graphics-symbol" aria-roledescription="area mark" d="M0,300L29.63,300L59.259,300L88.889,300L118.519,300L148.148,300L177.778,300L207.407,187.5L237.037,187.5L266.667,187.5L296.296,225L325.926,225L355.556,225L385.185,300L414.815,150L444.444,262.5L474.074,225L503.704,262.5L533.333,300L562.963,262.5L592.593,262.5L622.222,300L651.852,300L681.481,262.5L711.111,262.5L740.741,262.5L770.37,300L800,187.5L800,187.5L770.37,300L740.741,262.5L711.111,262.5L681.481,262.5L651.852,300L622.222,300L592.593,262.5L562.963,262.5L533.333,300L503.704,262.5L474.074,225L444.444,262.5L414.815,150L385.185,300L355.556,225L325.926,225L296.296,225L266.667,187.5L237.037,187.5L207.407,187.5L177.778,300L148.148,300L118.519,300L88.889,300L59.259,300L29.63,300L0,300Z" fill="#e45756"/></g></g><path class="foreground" aria-hidden="true" d="" display="none"/></g><g transform="translate(0,0)"><path class="background" aria-hidden="true" d="M0,0h800v300h-800Z"/><g><g class="mark-area role-mark marks" role="graphics-object" aria-roledescription="area mark container"><path aria-label="Date: Mar 16, 2026; Unique Visitors/day: 0; Repository: karlmdavis/kobjects" role="graphics-symbol" aria-roledescription="area mark" d="M0,300L29.63,300L59.259,300L88.889,300L118.519,300L148.148,300L177.778,300L207.407,187.5L237.037,187.5L266.667,187.5L296.296,225L325.926,225L355.556,225L385.185,300L414.815,150L444.444,262.5L474.074,225L503.704,262.5L533.333,300L562.963,262.5L592.593,262.5L622.222,300L651.852,300L681.481,262.5L711.111,262.5L740.741,262.5L770.37,300L800,187.5L800,187.5L770.37,300L740.741,262.5L711.111,262.5L681.481,262.5L651.852,300L622.222,300L592.593,262.5L562.963,262.5L533.333,300L503.704,262.5L474.074,225L444.444,262.5L414.815,150L385.185,300L355.556,225L325.926,225L296.296,225L266.667,187.5L237.037,187.5L207.407,187.5L177.778,300L148.148,300L118.519,300L88.889,300L59.259,300L29.63,300L0,300Z" fill="#72b7b2"/></g></g><path class="foreground" aria-hidden="true" d="" display="none"/></g><g transform="translate(0,0)"><path class="background" aria-hidden="true" d="M0,0h800v300h-800Z"/><g><g class="mark-area role-mark marks" role="graphics-object" aria-roledescription="area mark container"><path aria-label="Date: Mar 16, 2026; Unique Visitors/day: 0; Repository: karlmdavis/ksoap2-android" role="graphics-symbol" aria-roledescription="area mark" d="M0,300L29.63,300L59.259,300L88.889,300L118.519,300L148.148,300L177.778,300L207.407,187.5L237.037,187.5L266.667,187.5L296.296,225L325.926,225L355.556,225L385.185,300L414.815,150L444.444,262.5L474.074,225L503.704,262.5L533.333,300L562.963,262.5L592.593,262.5L622.222,300L651.852,300L681.481,262.5L711.111,262.5L740.741,262.5L770.37,300L800,187.5L800,225L770.37,300L740.741,300L711.111,262.5L681.481,300L651.852,300L622.222,300L592.593,300L562.963,300L533.333,300L503.704,300L474.074,262.5L444.444,262.5L414.815,225L385.185,300L355.556,225L325.926,262.5L296.296,225L266.667,225L237.037,262.5L207.407,262.5L177.778,300L148.148,300L118.519,300L88.889,300L59.259,300L29.63,300L0,300Z" fill="#54a24b"/></g></g><path class="foreground" aria-hidden="true" d="" display="none"/></g><g transform="translate(0,0)"><path class="background" aria-hidden="true" d="M0,0h800v300h-800Z"/><g><g class="mark-area role-mark marks" role="graphics-object" aria-roledescription="area mark container"><path aria-label="Date: Mar 16, 2026; Unique Visitors/day: 0; Repository: karlmdavis/kxml2" role="graphics-symbol" aria-roledescription="area mark" d="M0,300L29.63,300L59.259,300L88.889,300L118.519,300L148.148,300L177.778,300L207.407,262.5L237.037,262.5L266.667,225L296.296,225L325.926,262.5L355.556,225L385.185,300L414.815,225L444.444,262.5L474.074,262.5L503.704,300L533.333,300L562.963,300L592.593,300L622.222,300L651.852,300L681.481,300L711.111,262.5L740.741,300L770.37,300L800,225L800,225L770.37,300L740.741,300L711.111,262.5L681.481,300L651.852,300L622.222,300L592.593,300L562.963,300L533.333,300L503.704,300L474.074,262.5L444.444,262.5L414.815,225L385.185,300L355.556,262.5L325.926,262.5L296.296,225L266.667,262.5L237.037,262.5L207.407,262.5L177.778,300L148.148,300L118.519,300L88.889,300L59.259,300L29.63,300L0,300Z" fill="#eeca3b"/></g></g><path class="foreground" aria-hidden="true" d="" display="none"/></g><g transform="translate(0,0)"><path class="background" aria-hidden="true" d="M0,0h800v300h-800Z"/><g><g class="mark-area role-mark marks" role="graphics-object" aria-roledescription="area mark container"><path aria-label="Date: Mar 16, 2026; Unique Visitors/day: 0; Repository: karlmdavis/ldap-plugin" role="graphics-symbol" aria-roledescription="area mark" d="M0,300L29.63,300L59.259,300L88.889,300L118.519,300L148.148,300L177.778,300L207.407,262.5L237.037,262.5L266.667,262.5L296.296,225L325.926,262.5L355.556,262.5L385.185,300L414.815,225L444.444,262.5L474.074,262.5L503.704,300L533.333,300L562.963,300L592.593,300L622.222,300L651.852,300L681.481,300L711.111,262.5L740.741,300L770.37,300L800,225L800,225L770.37,300L740.741,300L711.111,262.5L681.481,300L651.852,300L622.222,300L592.593,300L562.963,300L533.333,300L503.704,300L474.074,262.5L444.444,262.5L414.815,225L385.185,300L355.556,262.5L325.926,262.5L296.296,225L266.667,262.5L237.037,262.5L207.407,262.5L177.778,300L148.148,300L118.519,300L88.889,300L59.259,300L29.63,300L0,300Z" fill="#b279a2"/></g></g><path class="foreground" aria-hidden="true" d="" display="none"/></g><g transform="translate(0,0)"><path class="background" aria-hidden="true" d="M0,0h800v300h-800Z"/><g><g class="mark-area role-mark marks" role="graphics-object" aria-roledescription="area mark container"><path aria-label="Date: Mar 16, 2026; Unique Visitors/day: 0; Repository: karlmdavis/lego-ev3dev-rs" role="graphics-symbol" aria-roledescription="area mark" d="M0,300L29.63,300L59.259,300L88.889,300L118.519,300L148.148,300L177.778,300L207.407,262.5L237.037,262.5L266.667,262.5L296.296,225L325.926,262.5L355.556,262.5L385.185,300L414.815,225L444.444,262.5L474.074,262.5L503.704,300L533.333,300L562.963,300L592.593,300L622.222,300L651.852,300L681.481,300L711.111,262.5L740.741,300L770.37,300L800,225L800,225L770.37,300L740.741,300L711.111,262.5L681.481,300L651.852,300L622.222,300L592.593,300L562.963,300L533.333,300L503.704,300L474.074,262.5L444.444,262.5L414.815,225L385.185,300L355.556,262.5L325.926,262.5L296.296,225L266.667,262.5L237.037,262.5L207.407,262.5L177.778,300L148.148,300L118.519,300L88.889,300L59.259,300L29.63,300L0,300Z" fill="#ff9da6"/></g></g><path class="foreground" aria-hidden="true" d="" display="none"/></g><g transform="translate(0,0)"><path class="background" aria-hidden="true" d="M0,0h800v300h-800Z"/><g><g class="mark-area role-mark marks" role="graphics-object" aria-roledescription="area mark container"><path aria-label="Date: Mar 16, 2026; Unique Visitors/day: 0; Repository: karlmdavis/liquibase" role="graphics-symbol" aria-roledescription="area mark" d="M0,300L29.63,300L59.259,300L88.889,300L118.519,300L148.148,300L177.778,300L207.407,262.5L237.037,262.5L266.667,262.5L296.296,225L325.926,262.5L355.556,262.5L385.185,300L414.815,225L444.444,262.5L474.074,262.5L503.704,300L533.333,300L562.963,300L592.593,300L622.222,300L651.852,300L681.481,300L711.111,262.5L740.741,300L770.37,300L800,225L800,225L770.37,300L740.741,300L711.111,262.5L681.481,300L651.852,300L622.222,300L592.593,300L562.963,300L533.333,300L503.704,300L474.074,262.5L444.444,262.5L414.815,225L385.185,300L355.556,262.5L325.926,262.5L296.296,225L266.667,262.5L237.037,262.5L207.407,262.5L177.778,300L148.148,300L118.519,300L88.889,300L59.259,300L29.63,300L0,300Z" fill="#9d755d"/></g></g><path class="foreground" aria-hidden="true" d="" display="none"/></g><g transform="translate(0,0)"><path class="background" aria-hidden="true" d="M0,0h800v300h-800Z"/><g><g class="mark-area role-mark marks" role="graphics-object" aria-roledescription="area mark container"><path aria-label="Date: Mar 16, 2026; Unique Visitors/day: 0; Repository: karlmdavis/m2e-core" role="graphics-symbol" aria-roledescription="area mark" d="M0,300L29.63,300L59.259,300L88.889,300L118.519,300L148.148,300L177.778,300L207.407,262.5L237.037,262.5L266.667,262.5L296.296,225L325.926,262.5L355.556,262.5L385.185,300L414.815,225L444.444,262.5L474.074,262.5L503.704,300L533.333,300L562.963,300L592.593,300L622.222,300L651.852,300L681.481,300L711.111,262.5L740.741,300L770.37,300L800,225L800,225L770.37,300L740.741,300L711.111,262.5L681.481,300L651.852,300L622.222,300L592.593,300L562.963,300L533.333,300L503.704,300L474.074,262.5L444.444,262.5L414.815,225L385.185,300L355.556,262.5L325.926,262.5L296.296,225L266.667,262.5L237.037,262.5L207.407,262.5L177.778,300L148.148,300L118.519,300L88.889,300L59.259,300L29.63,300L0,300Z" fill="#bab0ac"/></g></g><path class="foreground" aria-hidden="true" d="" display="none"/></g><g transform="translate(0,0)"><path class="background" aria-hidden="true" d="M0,0h800v300h-800Z"/><g><g class="mark-area role-mark marks" role="graphics-object" aria-roledescription="area mark container"><path aria-label="Date: Mar 16, 2026; Unique Visitors/day: 0; Repository: karlmdavis/m2e-core-tests" role="graphics-symbol" aria-roledescription="area mark" d="M0,300L29.63,300L59.259,300L88.889,300L118.519,300L148.148,300L177.778,300L207.407,262.5L237.037,262.5L266.667,262.5L296.296,225L325.926,262.5L355.556,262.5L385.185,300L414.815,225L444.444,262.5L474.074,262.5L503.704,300L533.333,300L562.963,300L592.593,300L622.222,300L651.852,300L681.481,300L711.111,262.5L740.741,300L770.37,300L800,225L800,225L770.37,300L740.741,300L711.111,262.5L681.481,300L651.852,300L622.222,300L592.593,300L562.963,300L533.333,300L503.704,300L474.074,262.5L444.444,262.5L414.815,225L385.185,300L355.556,262.5L325.926,262.5L296.296,225L266.667,262.5L237.037,262.5L207.407,262.5L177.778,300L148.148,300L118.519,300L88.889,300L59.259,300L29.63,300L0,300Z" fill="#4c78a8"/></g></g><path class="foreground" aria-hidden="true" d="" display="none"/></g><g transform="translate(0,0)"><path class="background" aria-hidden="true" d="M0,0h800v300h-800Z"/><g><g class="mark-area role-mark marks" role="graphics-object" aria-roledescription="area mark container"><path aria-label="Date: Mar 16, 2026; Unique Visitors/day: 0; Repository: karlmdavis/obsidian-operator" role="graphics-symbol" aria-roledescription="area mark" d="M0,300L29.63,300L59.259,300L88.889,300L118.519,300L148.148,300L177.778,300L207.407,262.5L237.037,262.5L266.667,262.5L296.296,225L325.926,262.5L355.556,262.5L385.185,300L414.815,225L444.444,262.5L474.074,262.5L503.704,300L533.333,300L562.963,300L592.593,300L622.222,300L651.852,300L681.481,300L711.111,262.5L740.741,300L770.37,300L800,225L800,262.5L770.37,300L740.741,300L711.111,262.5L681.481,300L651.852,300L622.222,300L592.593,300L562.963,300L533.333,300L503.704,300L474.074,262.5L444.444,262.5L414.815,225L385.185,300L355.556,262.5L325.926,262.5L296.296,225L266.667,262.5L237.037,262.5L207.407,262.5L177.778,300L148.148,300L118.519,300L88.889,300L59.259,300L29.63,300L0,300Z" fill="#f58518"/></g></g><path class="foreground" aria-hidden="true" d="" display="none"/></g><g transform="translate(0,0)"><path class="background" aria-hidden="true" d="M0,0h800v300h-800Z"/><g><g class="mark-area role-mark marks" role="graphics-object" aria-roledescription="area mark container"><path aria-label="Date: Mar 16, 2026; Unique Visitors/day: 0; Repository: karlmdavis/perfect-note" role="graphics-symbol" aria-roledescription="area mark" d="M0,300L29.63,300L59.259,300L88.889,300L118.519,300L148.148,300L177.778,300L207.407,262.5L237.037,262.5L266.667,262.5L296.296,225L325.926,262.5L355.556,262.5L385.185,300L414.815,225L444.444,262.5L474.074,262.5L503.704,300L533.333,300L562.963,300L592.593,300L622.222,300L651.852,300L681.481,300L711.111,262.5L740.741,300L770.37,300L800,262.5L800,262.5L770.37,300L740.741,300L711.111,262.5L681.481,300L651.852,300L622.222,300L592.593,300L562.963,300L533.333,300L503.704,300L474.074,262.5L444.444,262.5L414.815,225L385.185,300L355.556,262.5L325.926,262.5L296.296,225L266.667,262.5L237.037,262.5L207.407,262.5L177.778,300L148.148,300L118.519,300L88.889,300L59.259,300L29.63,300L0,300Z" fill="#e45756"/></g></g><path class="foreground" aria-hidden="true" d="" display="none"/></g><g transform="translate(0,0)"><path class="background" aria-hidden="true" d="M0,0h800v300h-800Z"/><g><g class="mark-area role-mark marks" role="graphics-object" aria-roledescription="area mark container"><path aria-label="Date: Mar 16, 2026; Unique Visitors/day: 0; Repository: karlmdavis/puppet-archive" role="graphics-symbol" aria-roledescription="area mark" d="M0,300L29.63,300L59.259,300L88.889,300L118.519,300L148.148,300L177.778,300L207.407,262.5L237.037,262.5L266.667,262.5L296.296,225L325.926,262.5L355.556,262.5L385.185,300L414.815,225L444.444,262.5L474.074,262.5L503.704,300L533.333,300L562.963,300L592.593,300L622.222,300L651.852,300L681.481,300L711.111,262.5L740.741,300L770.37,300L800,262.5L800,262.5L770.37,300L740.741,300L711.111,262.5L681.481,300L651.852,300L622.222,300L592.593,300L562.963,300L533.333,300L503.704,300L474.074,262.5L444.444,262.5L414.815,225L385.185,300L355.556,262.5L325.926,262.5L296.296,225L266.667,262.5L237.037,262.5L207.407,262.5L177.778,300L148.148,300L118.519,300L88.889,300L59.259,300L29.63,300L0,300Z" fill="#72b7b2"/></g></g><path class="foreground" aria-hidden="true" d="" display="none"/></g><g transform="translate(0,0)"><path class="background" aria-hidden="true" d="M0,0h800v300h-800Z"/><g><g class="mark-area role-mark marks" role="graphics-object" aria-roledescription="area mark container"><path aria-label="Date: Mar 16, 2026; Unique Visitors/day: 0; Repository: karlmdavis/puppet-sonar" role="graphics-symbol" aria-roledescription="area mark" d="M0,300L29.63,300L59.259,300L88.889,300L118.519,300L148.148,300L177.778,300L207.407,262.5L237.037,262.5L266.667,262.5L296.296,225L325.926,262.5L355.556,262.5L385.185,300L414.815,225L444.444,262.5L474.074,262.5L503.704,300L533.333,300L562.963,300L592.593,300L622.222,300L651.852,300L681.481,300L711.111,262.5L740.741,300L770.37,300L800,262.5L800,262.5L770.37,300L740.741,300L711.111,262.5L681.481,300L651.852,300L622.222,300L592.593,300L562.963,300L533.333,300L503.704,300L474.074,262.5L444.444,262.5L414.815,225L385.185,300L355.556,262.5L325.926,262.5L296.296,225L266.667,262.5L237.037,262.5L207.407,262.5L177.778,300L148.148,300L118.519,300L88.889,300L59.259,300L29.63,300L0,300Z" fill="#54a24b"/></g></g><path class="foreground" aria-hidden="true" d="" display="none"/></g><g transform="translate(0,0)"><path class="background" aria-hidden="true" d="M0,0h800v300h-800Z"/><g><g class="mark-area role-mark marks" role="graphics-object" aria-roledescription="area mark container"><path aria-label="Date: Mar 16, 2026; Unique Visitors/day: 0; Repository: karlmdavis/rps-tourney" role="graphics-symbol" aria-roledescription="area mark" d="M0,300L29.63,300L59.259,300L88.889,300L118.519,300L148.148,300L177.778,300L207.407,262.5L237.037,262.5L266.667,262.5L296.296,225L325.926,262.5L355.556,262.5L385.185,300L414.815,225L444.444,262.5L474.074,262.5L503.704,300L533.333,300L562.963,300L592.593,300L622.222,300L651.852,300L681.481,300L711.111,262.5L740.741,300L770.37,300L800,262.5L800,300L770.37,300L740.741,300L711.111,262.5L681.481,300L651.852,300L622.222,300L592.593,300L562.963,300L533.333,300L503.704,300L474.074,300L444.444,262.5L414.815,225L385.185,300L355.556,262.5L325.926,300L296.296,225L266.667,262.5L237.037,300L207.407,300L177.778,300L148.148,300L118.519,300L88.889,300L59.259,300L29.63,300L0,300Z" fill="#eeca3b"/></g></g><path class="foreground" aria-hidden="true" d="" display="none"/></g><g transform="translate(0,0)"><path class="background" aria-hidden="true" d="M0,0h800v300h-800Z"/><g><g class="mark-area role-mark marks" role="graphics-object" aria-roledescription="area mark container"><path aria-label="Date: Mar 16, 2026; Unique Visitors/day: 0; Repository: karlmdavis/sample-maven-and-rcp" role="graphics-symbol" aria-roledescription="area mark" d="M0,300L29.63,300L59.259,300L88.889,300L118.519,300L148.148,300L177.778,300L207.407,300L237.037,300L266.667,262.5L296.296,225L325.926,300L355.556,262.5L385.185,300L414.815,225L444.444,262.5L474.074,300L503.704,300L533.333,300L562.963,300L592.593,300L622.222,300L651.852,300L681.481,300L711.111,262.5L740.741,300L770.37,300L800,300L800,300L770.37,300L740.741,300L711.111,262.5L681.481,300L651.852,300L622.222,300L592.593,300L562.963,300L533.333,300L503.704,300L474.074,300L444.444,262.5L414.815,225L385.185,300L355.556,262.5L325.926,300L296.296,225L266.667,262.5L237.037,300L207.407,300L177.778,300L148.148,300L118.519,300L88.889,300L59.259,300L29.63,300L0,300Z" fill="#b279a2"/></g></g><path class="foreground" aria-hidden="true" d="" display="none"/></g><g transform="translate(0,0)"><path class="background" aria-hidden="true" d="M0,0h800v300h-800Z"/><g><g class="mark-area role-mark marks" role="graphics-object" aria-roledescription="area mark container"><path aria-label="Date: Mar 16, 2026; Unique Visitors/day: 0; Repository: karlmdavis/stockfighter-trades-solutions" role="graphics-symbol" aria-roledescription="area mark" d="M0,300L29.63,300L59.259,300L88.889,300L118.519,300L148.148,300L177.778,300L207.407,300L237.037,300L266.667,262.5L296.296,225L325.926,300L355.556,262.5L385.185,300L414.815,225L444.444,262.5L474.074,300L503.704,300L533.333,300L562.963,300L592.593,300L622.222,300L651.852,300L681.481,300L711.111,262.5L740.741,300L770.37,300L800,300L800,300L770.37,300L740.741,300L711.111,262.5L681.481,300L651.852,300L622.222,300L592.593,300L562.963,300L533.333,300L503.704,300L474.074,300L444.444,262.5L414.815,225L385.185,300L355.556,262.5L325.926,300L296.296,225L266.667,262.5L237.037,300L207.407,300L177.778,300L148.148,300L118.519,300L88.889,300L59.259,300L29.63,300L0,300Z" fill="#ff9da6"/></g></g><path class="foreground" aria-hidden="true" d="" display="none"/></g><g transform="translate(0,0)"><path class="background" aria-hidden="true" d="M0,0h800v300h-800Z"/><g><g class="mark-area role-mark marks" role="graphics-object" aria-roledescription="area mark container"><path aria-label="Date: Mar 16, 2026; Unique Visitors/day: 0; Repository: karlmdavis/test-repo-for-move" role="graphics-symbol" aria-roledescription="area mark" d="M0,300L29.63,300L59.259,300L88.889,300L118.519,300L148.148,300L177.778,300L207.407,300L237.037,300L266.667,262.5L296.296,225L325.926,300L355.556,262.5L385.185,300L414.815,225L444.444,262.5L474.074,300L503.704,300L533.333,300L562.963,300L592.593,300L622.222,300L651.852,300L681.481,300L711.111,262.5L740.741,300L770.37,300L800,300L800,300L770.37,300L740.741,300L711.111,262.5L681.481,300L651.852,300L622.222,300L592.593,300L562.963,300L533.333,300L503.704,300L474.074,300L444.444,262.5L414.815,225L385.185,300L355.556,262.5L325.926,300L296.296,225L266.667,262.5L237.037,300L207.407,300L177.778,300L148.148,300L118.519,300L88.889,300L59.259,300L29.63,300L0,300Z" fill="#9d755d"/></g></g><path class="foreground" aria-hidden="true" d="" display="none"/></g><g transform="translate(0,0)"><path class="background" aria-hidden="true" d="M0,0h800v300h-800Z"/><g><g class="mark-area role-mark marks" role="graphics-object" aria-roledescription="area mark container"><path aria-label="Date: Mar 16, 2026; Unique Visitors/day: 0; Repository: karlmdavis/todoist-ai" role="graphics-symbol" aria-roledescription="area mark" d="M0,300L29.63,300L59.259,300L88.889,300L118.519,300L148.148,300L177.778,300L207.407,300L237.037,300L266.667,262.5L296.296,225L325.926,300L355.556,262.5L385.185,300L414.815,225L444.444,262.5L474.074,300L503.704,300L533.333,300L562.963,300L592.593,300L622.222,300L651.852,300L681.481,300L711.111,262.5L740.741,300L770.37,300L800,300L800,300L770.37,300L740.741,300L711.111,262.5L681.481,300L651.852,300L622.222,300L592.593,300L562.963,300L533.333,300L503.704,300L474.074,300L444.444,262.5L414.815,262.5L385.185,300L355.556,262.5L325.926,300L296.296,225L266.667,262.5L237.037,300L207.407,300L177.778,300L148.148,300L118.519,300L88.889,300L59.259,300L29.63,300L0,300Z" fill="#bab0ac"/></g></g><path class="foreground" aria-hidden="true" d="" display="none"/></g><g transform="translate(0,0)"><path class="background" aria-hidden="true" d="M0,0h800v300h-800Z"/><g><g class="mark-area role-mark marks" role="graphics-object" aria-roledescription="area mark container"><path aria-label="Date: Mar 16, 2026; Unique Visitors/day: 0; Repository: karlmdavis/usgs-water-api-java" role="graphics-symbol" aria-roledescription="area mark" d="M0,300L29.63,300L59.259,300L88.889,300L118.519,300L148.148,300L177.778,300L207.407,300L237.037,300L266.667,262.5L296.296,225L325.926,300L355.556,262.5L385.185,300L414.815,262.5L444.444,262.5L474.074,300L503.704,300L533.333,300L562.963,300L592.593,300L622.222,300L651.852,300L681.481,300L711.111,262.5L740.741,300L770.37,300L800,300L800,300L770.37,300L740.741,300L711.111,262.5L681.481,300L651.852,300L622.222,300L592.593,300L562.963,300L533.333,300L503.704,300L474.074,300L444.444,262.5L414.815,262.5L385.185,300L355.556,262.5L325.926,300L296.296,225L266.667,262.5L237.037,300L207.407,300L177.778,300L148.148,300L118.519,300L88.889,300L59.259,300L29.63,300L0,300Z" fill="#4c78a8"/></g></g><path class="foreground" aria-hidden="true" d="" display="none"/></g><g transform="translate(0,0)"><path class="background" aria-hidden="true" d="M0,0h800v300h-800Z"/><g><g class="mark-area role-mark marks" role="graphics-object" aria-roledescription="area mark container"><path aria-label="Date: Mar 16, 2026; Unique Visitors/day: 0; Repository: karlmdavis/workstation-base-ansible-role" role="graphics-symbol" aria-roledescription="area mark" d="M0,300L29.63,300L59.259,300L88.889,300L118.519,300L148.148,300L177.778,300L207.407,300L237.037,300L266.667,262.5L296.296,225L325.926,300L355.556,262.5L385.185,300L414.815,262.5L444.444,262.5L474.074,300L503.704,300L533.333,300L562.963,300L592.593,300L622.222,300L651.852,300L681.481,300L711.111,262.5L740.741,300L770.37,300L800,300L800,300L770.37,300L740.741,300L711.111,262.5L681.481,300L651.852,300L622.222,300L592.593,300L562.963,300L533.333,300L503.704,300L474.074,300L444.444,262.5L414.815,262.5L385.185,300L355.556,262.5L325.926,300L296.296,225L266.667,262.5L237.037,300L207.407,300L177.778,300L148.148,300L118.519,300L88.889,300L59.259,300L29.63,300L0,300Z" fill="#f58518"/></g></g><path class="foreground" aria-hidden="true" d="" display="none"/></g><g transform="translate(0,0)"><path class="background" aria-hidden="true" d="M0,0h800v300h-800Z"/><g><g class="mark-area role-mark marks" role="graphics-object" aria-roledescription="area mark container"><path aria-label="Date: Mar 16, 2026; Unique Visitors/day: 0; Repository: karlmdavis/xmlpull" role="graphics-symbol" aria-roledescription="area mark" d="M0,300L29.63,300L59.259,300L88.889,300L118.519,300L148.148,300L177.778,300L207.407,300L237.037,300L266.667,262.5L296.296,225L325.926,300L355.556,262.5L385.185,300L414.815,262.5L444.444,262.5L474.074,300L503.704,300L533.333,300L562.963,300L592.593,300L622.222,300L651.852,300L681.481,300L711.111,262.5L740.741,300L770.37,300L800,300L800,300L770.37,300L740.741,300L711.111,300L681.481,300L651.852,300L622.222,300L592.593,300L562.963,300L533.333,300L503.704,300L474.074,300L444.444,300L414.815,300L385.185,300L355.556,300L325.926,300L296.296,300L266.667,300L237.037,300L207.407,300L177.778,300L148.148,300L118.519,300L88.889,300L59.259,300L29.63,300L0,300Z" fill="#e45756"/></g></g><path class="foreground" aria-hidden="true" d="" display="none"/></g></g><g class="mark-group role-legend" role="graphics-symbol" aria-roledescription="legend" aria-label="Symbol legend titled 'Repository' for fill color with 43 values: justdavis-family/github-analytics-data, justdavis-family/justdavis, karlmdavis/FHIR-Server, karlmdavis/ansible, karlmdavis/ansible-jenkins, ending with karlmdavis/xmlpull"><g transform="translate(818,0)"><path class="background" aria-hidden="true" d="M0,0h176v404h-176Z" pointer-events="none"/><g><g class="mark-group role-legend-entry"><g transform="translate(0,16)"><path class="background" aria-hidden="true" d="M0,0h0v0h0Z" pointer-events="none"/><g><g class="mark-group role-scope" role="graphics-object" aria-roledescription="group mark container"><g transform="translate(0,0)"><path class="background" aria-hidden="true" d="M0,0h176v11h-176Z" pointer-events="none" opacity="1"/><g><g class="mark-symbol role-legend-symbol" pointer-events="none"><path transform="translate(6,6)" d="M5,0A5,5,0,1,1,-5,0A5,5,0,1,1,5,0" fill="#4c78a8" stroke-width="1.5" opacity="1"/></g><g class="mark-text role-legend-label" pointer-events="none"><text text-anchor="start" transform="translate(16,9)" font-family="sans-serif" font-size="10px" fill="#000" opacity="1">justdavis-family/github-analytics-d…</text></g></g><path class="foreground" aria-hidden="true" d="" pointer-events="none" display="none"/></g><g transform="translate(0,13)"><path class="background" aria-hidden="true" d="M0,0h176v11h-176Z" pointer-events="none" opacity="1"/><g><g class="mark-symbol role-legend-symbol" pointer-events="none"><path transform="translate(6,6)" d="M5,0A5,5,0,1,1,-5,0A5,5,0,1,1,5,0" fill="#f58518" stroke-width="1.5" opacity="1"/></g><g class="mark-text role-legend-label" pointer-events="none"><text text-anchor="start" transform="translate(16,9)" font-family="sans-serif" font-size="10px" fill="#000" opacity="1">justdavis-family/justdavis</text></g></g><path class="foreground" aria-hidden="true" d="" pointer-events="none" display="none"/></g><g transform="translate(0,26)"><path class="background" aria-hidden="true" d="M0,0h176v11h-176Z" pointer-events="none" opacity="1"/><g><g class="mark-symbol role-legend-symbol" pointer-events="none"><path transform="translate(6,6)" d="M5,0A5,5,0,1,1,-5,0A5,5,0,1,1,5,0" fill="#e45756" stroke-width="1.5" opacity="1"/></g><g class="mark-text role-legend-label" pointer-events="none"><text text-anchor="start" transform="translate(16,9)" font-family="sans-serif" font-size="10px" fill="#000" opacity="1">karlmdavis/FHIR-Server</text></g></g><path class="foreground" aria-hidden="true" d="" pointer-events="none" display="none"/></g><g transform="translate(0,39)"><path class="background" aria-hidden="true" d="M0,0h176v11h-176Z" pointer-events="none" opacity="1"/><g><g class="mark-symbol role-legend-symbol" pointer-events="none"><path transform="translate(6,6)" d="M5,0A5,5,0,1,1,-5,0A5,5,0,1,1,5,0" fill="#72b7b2" stroke-width="1.5" opacity="1"/></g><g class="mark-text role-legend-label" pointer-events="none"><text text-anchor="start" transform="translate(16,9)" font-family="sans-serif" font-size="10px" fill="#000" opacity="1">karlmdavis/ansible</text></g></g><path class="foreground" aria-hidden="true" d="" pointer-events="none" display="none"/></g><g transform="translate(0,52)"><path class="background" aria-hidden="true" d="M0,0h176v11h-176Z" pointer-events="none" opacity="1"/><g><g class="mark-symbol role-legend-symbol" pointer-events="none"><path transform="translate(6,6)" d="M5,0A5,5,0,1,1,-5,0A5,5,0,1,1,5,0" fill="#54a24b" stroke-width="1.5" opacity="1"/></g><g class="mark-text role-legend-label" pointer-events="none"><text text-anchor="start" transform="translate(16,9)" font-family="sans-serif" font-size="10px" fill="#000" opacity="1">karlmdavis/ansible-jenkins</text></g></g><path class="foreground" aria-hidden="true" d="" pointer-events="none" display="none"/></g><g transform="translate(0,65)"><path class="background" aria-hidden="true" d="M0,0h176v11h-176Z" pointer-events="none" opacity="1"/><g><g class="mark-symbol role-legend-symbol" pointer-events="none"><path transform="translate(6,6)" d="M5,0A5,5,0,1,1,-5,0A5,5,0,1,1,5,0" fill="#eeca3b" stroke-width="1.5" opacity="1"/></g><g class="mark-text role-legend-label" pointer-events="none"><text text-anchor="start" transform="translate(16,9)" font-family="sans-serif" font-size="10px" fill="#000" opacity="1">karlmdavis/ansible-role-acmetool</text></g></g><path class="foreground" aria-hidden="true" d="" pointer-events="none" display="none"/></g><g transform="translate(0,78)"><path class="background" aria-hidden="true" d="M0,0h176v11h-176Z" pointer-events="none" opacity="1"/><g><g class="mark-symbol role-legend-symbol" pointer-events="none"><path transform="translate(6,6)" d="M5,0A5,5,0,1,1,-5,0A5,5,0,1,1,5,0" fill="#b279a2" stroke-width="1.5" opacity="1"/></g><g class="mark-text role-legend-label" pointer-events="none"><text text-anchor="start" transform="translate(16,9)" font-family="sans-serif" font-size="10px" fill="#000" opacity="1">karlmdavis/ansible-role-bind-dns</text></g></g><path class="foreground" aria-hidden="true" d="" pointer-events="none" display="none"/></g><g transform="translate(0,91)"><path class="background" aria-hidden="true" d="M0,0h176v11h-176Z" pointer-events="none" opacity="1"/><g><g class="mark-symbol role-legend-symbol" pointer-events="none"><path transform="translate(6,6)" d="M5,0A5,5,0,1,1,-5,0A5,5,0,1,1,5,0" fill="#ff9da6" stroke-width="1.5" opacity="1"/></g><g class="mark-text role-legend-label" pointer-events="none"><text text-anchor="start" transform="translate(16,9)" font-family="sans-serif" font-size="10px" fill="#000" opacity="1">karlmdavis/ansible-role-jenkins2</text></g></g><path class="foreground" aria-hidden="true" d="" pointer-events="none" display="none"/></g><g transform="translate(0,104)"><path class="background" aria-hidden="true" d="M0,0h176v11h-176Z" pointer-events="none" opacity="1"/><g><g class="mark-symbol role-legend-symbol" pointer-events="none"><path transform="translate(6,6)" d="M5,0A5,5,0,1,1,-5,0A5,5,0,1,1,5,0" fill="#9d755d" stroke-width="1.5" opacity="1"/></g><g class="mark-text role-legend-label" pointer-events="none"><text text-anchor="start" transform="translate(16,9)" font-family="sans-serif" font-size="10px" fill="#000" opacity="1">karlmdavis/ansible-role-ldap</text></g></g><path class="foreground" aria-hidden="true" d="" pointer-events="none" display="none"/></g><g transform="translate(0,117)"><path class="background" aria-hidden="true" d="M0,0h176v11h-176Z" pointer-events="none" opacity="1"/><g><g class="mark-symbol role-legend-symbol" pointer-events="none"><path transform="translate(6,6)" d="M5,0A5,5,0,1,1,-5,0A5,5,0,1,1,5,0" fill="#bab0ac" stroke-width="1.5" opacity="1"/></g><g class="mark-text role-legend-label" pointer-events="none"><text text-anchor="start" transform="translate(16,9)" font-family="sans-serif" font-size="10px" fill="#000" opacity="1">karlmdavis/ansible-role-rcm-dotfiles</text></g></g><path class="foreground" aria-hidden="true" d="" pointer-events="none" display="none"/></g><g transform="translate(0,130)"><path class="background" aria-hidden="true" d="M0,0h176v11h-176Z" pointer-events="none" opacity="1"/><g><g class="mark-symbol role-legend-symbol" pointer-events="none"><path transform="translate(6,6)" d="M5,0A5,5,0,1,1,-5,0A5,5,0,1,1,5,0" fill="#4c78a8" stroke-width="1.5" opacity="1"/></g><g class="mark-text role-legend-label" pointer-events="none"><text text-anchor="start" transform="translate(16,9)" font-family="sans-serif" font-size="10px" fill="#000" opacity="1">karlmdavis/ansible-roles</text></g></g><path class="foreground" aria-hidden="true" d="" pointer-events="none" display="none"/></g><g transform="translate(0,143)"><path class="background" aria-hidden="true" d="M0,0h176v11h-176Z" pointer-events="none" opacity="1"/><g><g class="mark-symbol role-legend-symbol" pointer-events="none"><path transform="translate(6,6)" d="M5,0A5,5,0,1,1,-5,0A5,5,0,1,1,5,0" fill="#f58518" stroke-width="1.5" opacity="1"/></g><g class="mark-text role-legend-label" pointer-events="none"><text text-anchor="start" transform="translate(16,9)" font-family="sans-serif" font-size="10px" fill="#000" opacity="1">karlmdavis/bbonfhir-dev-infra-doc…</text></g></g><path class="foreground" aria-hidden="true" d="" pointer-events="none" display="none"/></g><g transform="translate(0,156)"><path class="background" aria-hidden="true" d="M0,0h176v11h-176Z" pointer-events="none" opacity="1"/><g><g class="mark-symbol role-legend-symbol" pointer-events="none"><path transform="translate(6,6)" d="M5,0A5,5,0,1,1,-5,0A5,5,0,1,1,5,0" fill="#e45756" stroke-width="1.5" opacity="1"/></g><g class="mark-text role-legend-label" pointer-events="none"><text text-anchor="start" transform="translate(16,9)" font-family="sans-serif" font-size="10px" fill="#000" opacity="1">karlmdavis/can-i-kayak-baltimore</text></g></g><path class="foreground" aria-hidden="true" d="" pointer-events="none" display="none"/></g><g transform="translate(0,169)"><path class="background" aria-hidden="true" d="M0,0h176v11h-176Z" pointer-events="none" opacity="1"/><g><g class="mark-symbol role-legend-symbol" pointer-events="none"><path transform="translate(6,6)" d="M5,0A5,5,0,1,1,-5,0A5,5,0,1,1,5,0" fill="#72b7b2" stroke-width="1.5" opacity="1"/></g><g class="mark-text role-legend-label" pointer-events="none"><text text-anchor="start" transform="translate(16,9)" font-family="sans-serif" font-size="10px" fill="#000" opacity="1">karlmdavis/datanucleus-test-jdo-1…</text></g></g><path class="foreground" aria-hidden="true" d="" pointer-events="none" display="none"/></g><g transform="translate(0,182)"><path class="background" aria-hidden="true" d="M0,0h176v11h-176Z" pointer-events="none" opacity="1"/><g><g class="mark-symbol role-legend-symbol" pointer-events="none"><path transform="translate(6,6)" d="M5,0A5,5,0,1,1,-5,0A5,5,0,1,1,5,0" fill="#54a24b" stroke-width="1.5" opacity="1"/></g><g class="mark-text role-legend-label" pointer-events="none"><text text-anchor="start" transform="translate(16,9)" font-family="sans-serif" font-size="10px" fill="#000" opacity="1">karlmdavis/dotfiles</text></g></g><path class="foreground" aria-hidden="true" d="" pointer-events="none" display="none"/></g><g transform="translate(0,195)"><path class="background" aria-hidden="true" d="M0,0h176v11h-176Z" pointer-events="none" opacity="1"/><g><g class="mark-symbol role-legend-symbol" pointer-events="none"><path transform="translate(6,6)" d="M5,0A5,5,0,1,1,-5,0A5,5,0,1,1,5,0" fill="#eeca3b" stroke-width="1.5" opacity="1"/></g><g class="mark-text role-legend-label" pointer-events="none"><text text-anchor="start" transform="translate(16,9)" font-family="sans-serif" font-size="10px" fill="#000" opacity="1">karlmdavis/fhir-benchmarks</text></g></g><path class="foreground" aria-hidden="true" d="" pointer-events="none" display="none"/></g><g transform="translate(0,208)"><path class="background" aria-hidden="true" d="M0,0h176v11h-176Z" pointer-events="none" opacity="1"/><g><g class="mark-symbol role-legend-symbol" pointer-events="none"><path transform="translate(6,6)" d="M5,0A5,5,0,1,1,-5,0A5,5,0,1,1,5,0" fill="#b279a2" stroke-width="1.5" opacity="1"/></g><g class="mark-text role-legend-label" pointer-events="none"><text text-anchor="start" transform="translate(16,9)" font-family="sans-serif" font-size="10px" fill="#000" opacity="1">karlmdavis/hapi-fhir-jpaserver-sta…</text></g></g><path class="foreground" aria-hidden="true" d="" pointer-events="none" display="none"/></g><g transform="translate(0,221)"><path class="background" aria-hidden="true" d="M0,0h176v11h-176Z" pointer-events="none" opacity="1"/><g><g class="mark-symbol role-legend-symbol" pointer-events="none"><path transform="translate(6,6)" d="M5,0A5,5,0,1,1,-5,0A5,5,0,1,1,5,0" fill="#ff9da6" stroke-width="1.5" opacity="1"/></g><g class="mark-text role-legend-label" pointer-events="none"><text text-anchor="start" transform="translate(16,9)" font-family="sans-serif" font-size="10px" fill="#000" opacity="1">karlmdavis/hello-rust-actix</text></g></g><path class="foreground" aria-hidden="true" d="" pointer-events="none" display="none"/></g><g transform="translate(0,234)"><path class="background" aria-hidden="true" d="M0,0h176v11h-176Z" pointer-events="none" opacity="1"/><g><g class="mark-symbol role-legend-symbol" pointer-events="none"><path transform="translate(6,6)" d="M5,0A5,5,0,1,1,-5,0A5,5,0,1,1,5,0" fill="#9d755d" stroke-width="1.5" opacity="1"/></g><g class="mark-text role-legend-label" pointer-events="none"><text text-anchor="start" transform="translate(16,9)" font-family="sans-serif" font-size="10px" fill="#000" opacity="1">karlmdavis/jessentials</text></g></g><path class="foreground" aria-hidden="true" d="" pointer-events="none" display="none"/></g><g transform="translate(0,247)"><path class="background" aria-hidden="true" d="M0,0h176v11h-176Z" pointer-events="none" opacity="1"/><g><g class="mark-symbol role-legend-symbol" pointer-events="none"><path transform="translate(6,6)" d="M5,0A5,5,0,1,1,-5,0A5,5,0,1,1,5,0" fill="#bab0ac" stroke-width="1.5" opacity="1"/></g><g class="mark-text role-legend-label" pointer-events="none"><text text-anchor="start" transform="translate(16,9)" font-family="sans-serif" font-size="10px" fill="#000" opacity="1">karlmdavis/justdavis-ansible</text></g></g><path class="foreground" aria-hidden="true" d="" pointer-events="none" display="none"/></g><g transform="translate(0,260)"><path class="background" aria-hidden="true" d="M0,0h176v11h-176Z" pointer-events="none" opacity="1"/><g><g class="mark-symbol role-legend-symbol" pointer-events="none"><path transform="translate(6,6)" d="M5,0A5,5,0,1,1,-5,0A5,5,0,1,1,5,0" fill="#4c78a8" stroke-width="1.5" opacity="1"/></g><g class="mark-text role-legend-label" pointer-events="none"><text text-anchor="start" transform="translate(16,9)" font-family="sans-serif" font-size="10px" fill="#000" opacity="1">karlmdavis/justdavis-finances</text></g></g><path class="foreground" aria-hidden="true" d="" pointer-events="none" display="none"/></g><g transform="translate(0,273)"><path class="background" aria-hidden="true" d="M0,0h176v11h-176Z" pointer-events="none" opacity="1"/><g><g class="mark-symbol role-legend-symbol" pointer-events="none"><path transform="translate(6,6)" d="M5,0A5,5,0,1,1,-5,0A5,5,0,1,1,5,0" fill="#f58518" stroke-width="1.5" opacity="1"/></g><g class="mark-text role-legend-label" pointer-events="none"><text text-anchor="start" transform="translate(16,9)" font-family="sans-serif" font-size="10px" fill="#000" opacity="1">karlmdavis/justdavis-karl</text></g></g><path class="foreground" aria-hidden="true" d="" pointer-events="none" display="none"/></g><g transform="translate(0,286)"><path class="background" aria-hidden="true" d="M0,0h176v11h-176Z" pointer-events="none" opacity="1"/><g><g class="mark-symbol role-legend-symbol" pointer-events="none"><path transform="translate(6,6)" d="M5,0A5,5,0,1,1,-5,0A5,5,0,1,1,5,0" fill="#e45756" stroke-width="1.5" opacity="1"/></g><g class="mark-text role-legend-label" pointer-events="none"><text text-anchor="start" transform="translate(16,9)" font-family="sans-serif" font-size="10px" fill="#000" opacity="1">karlmdavis/justdavis-puppet</text></g></g><path class="foreground" aria-hidden="true" d="" pointer-events="none" display="none"/></g><g transform="translate(0,299)"><path class="background" aria-hidden="true" d="M0,0h176v11h-176Z" pointer-events="none" opacity="1"/><g><g class="mark-symbol role-legend-symbol" pointer-events="none"><path transform="translate(6,6)" d="M5,0A5,5,0,1,1,-5,0A5,5,0,1,1,5,0" fill="#72b7b2" stroke-width="1.5" opacity="1"/></g><g class="mark-text role-legend-label" pointer-events="none"><text text-anchor="start" transform="translate(16,9)" font-family="sans-serif" font-size="10px" fill="#000" opacity="1">karlmdavis/kobjects</text></g></g><path class="foreground" aria-hidden="true" d="" pointer-events="none" display="none"/></g><g transform="translate(0,312)"><path class="background" aria-hidden="true" d="M0,0h176v11h-176Z" pointer-events="none" opacity="1"/><g><g class="mark-symbol role-legend-symbol" pointer-events="none"><path transform="translate(6,6)" d="M5,0A5,5,0,1,1,-5,0A5,5,0,1,1,5,0" fill="#54a24b" stroke-width="1.5" opacity="1"/></g><g class="mark-text role-legend-label" pointer-events="none"><text text-anchor="start" transform="translate(16,9)" font-family="sans-serif" font-size="10px" fill="#000" opacity="1">karlmdavis/ksoap2-android</text></g></g><path class="foreground" aria-hidden="true" d="" pointer-events="none" display="none"/></g><g transform="translate(0,325)"><path class="background" aria-hidden="true" d="M0,0h176v11h-176Z" pointer-events="none" opacity="1"/><g><g class="mark-symbol role-legend-symbol" pointer-events="none"><path transform="translate(6,6)" d="M5,0A5,5,0,1,1,-5,0A5,5,0,1,1,5,0" fill="#eeca3b" stroke-width="1.5" opacity="1"/></g><g class="mark-text role-legend-label" pointer-events="none"><text text-anchor="start" transform="translate(16,9)" font-family="sans-serif" font-size="10px" fill="#000" opacity="1">karlmdavis/kxml2</text></g></g><path class="foreground" aria-hidden="true" d="" pointer-events="none" display="none"/></g><g transform="translate(0,338)"><path class="background" aria-hidden="true" d="M0,0h176v11h-176Z" pointer-events="none" opacity="1"/><g><g class="mark-symbol role-legend-symbol" pointer-events="none"><path transform="translate(6,6)" d="M5,0A5,5,0,1,1,-5,0A5,5,0,1,1,5,0" fill="#b279a2" stroke-width="1.5" opacity="1"/></g><g class="mark-text role-legend-label" pointer-events="none"><text text-anchor="start" transform="translate(16,9)" font-family="sans-serif" font-size="10px" fill="#000" opacity="1">karlmdavis/ldap-plugin</text></g></g><path class="foreground" aria-hidden="true" d="" pointer-events="none" display="none"/></g><g transform="translate(0,351)"><path class="background" aria-hidden="true" d="M0,0h176v11h-176Z" pointer-events="none" opacity="1"/><g><g class="mark-symbol role-legend-symbol" pointer-events="none"><path transform="translate(6,6)" d="M5,0A5,5,0,1,1,-5,0A5,5,0,1,1,5,0" fill="#ff9da6" stroke-width="1.5" opacity="1"/></g><g class="mark-text role-legend-label" pointer-events="none"><text text-anchor="start" transform="translate(16,9)" font-family="sans-serif" font-size="10px" fill="#000" opacity="1">karlmdavis/lego-ev3dev-rs</text></g></g><path class="foreground" aria-hidden="true" d="" pointer-events="none" display="none"/></g><g transform="translate(0,364)"><path class="background" aria-hidden="true" d="M0,0h176v11h-176Z" pointer-events="none" opacity="1"/><g><g class="mark-symbol role-legend-symbol" pointer-events="none"><path transform="translate(6,6)" d="M5,0A5,5,0,1,1,-5,0A5,5,0,1,1,5,0" fill="#9d755d" stroke-width="1.5" opacity="1"/></g><g class="mark-text role-legend-label" pointer-events="none"><text text-anchor="start" transform="translate(16,9)" font-family="sans-serif" font-size="10px" fill="#000" opacity="1">karlmdavis/liquibase</text></g></g><path class="foreground" aria-hidden="true" d="" pointer-events="none" display="none"/></g><g transform="translate(0,377)"><path class="background" aria-hidden="true" d="M0,0h176v11h-176Z" pointer-events="none" opacity="1"/><g><g class="mark-symbol role-legend-symbol" pointer-events="none"><path transform="translate(6,6)" d="M5,0A5,5,0,1,1,-5,0A5,5,0,1,1,5,0" fill="#bab0ac" stroke-width="1.5" opacity="1"/></g><g class="mark-text role-legend-label" pointer-events="none"><text text-anchor="start" transform="translate(16,9)" font-family="sans-serif" font-size="10px" fill="#000" opacity="1">…14 entries</text></g></g><path class="foreground" aria-hidden="true" d="" pointer-events="none" display="none"/></g></g></g><path class="foreground" aria-hidden="true" d="" pointer-events="none" display="none"/></g></g><g class="mark-text role-legend-title" pointer-events="none"><text text-anchor="start" transform="translate(0,9)" font-family="sans-serif" font-size="11px" font-weight="bold" fill="#000" opacity="1">Repository</text></g></g><path class="foreground" aria-hidden="true" d="" pointer-events="none" display="none"/></g></g><g class="mark-group role-title"><g transform="translate(400,-22)"><path class="background" aria-hidden="true" d="M0,0h0v0h0Z" pointer-events="none"/><g><g class="mark-text role-title-text" role="graphics-symbol" aria-roledescription="title" aria-label="Title text 'Unique Visitors per Day'" pointer-events="none"><text text-anchor="middle" transform="translate(0,10)" font-family="sans-serif" font-size="13px" font-weight="bold" fill="#000" opacity="1">Unique Visitors per Day</text></g></g><path class="foreground" aria-hidden="true" d="" pointer-events="none" display="none"/></g></g></g><path class="foreground" aria-hidden="true" d="" display="none"/></g></g></g></svg>