<svg xmlns="http://www.w3.org/2000/svg" xmlns:xlink="http://www.w3.org/1999/xlink" version="1.1" class="marks" width="1043" height="436" viewBox="0 0 1043 436"><rect width="1043" height="436" fill="white"/><g fill="none" stroke-miterlimit="10" transform="translate(44,27)"><g class="mark-group role-frame root" role="graphics-object" aria-roledescription="group mark container"><g transform="translate(0,0)"><path class="background" aria-hidden="true" d="M0.5,0.5h800v300h-800Z" stroke="#ddd"/><g><g class="mark-group role-axis" aria-hidden="true"><g transform="translate(0.5,300.5)"><path class="background" aria-hidden="true" d="M0,0h0v0h0Z" pointer-events="none"/><g><g class="mark-rule role-axis-grid" pointer-events="none"><line transform="translate(0,-300)" x2="0" y2="300" stroke="#ddd" stroke-width="1" opacity="1"/><line transform="translate(36,-300)" x2="0" y2="300" stroke="#ddd" stroke-width="1" opacity="1"/><line transform="translate(73,-300)" x2="0" y2="300" stroke="#ddd" stroke-width="1" opacity="1"/><line transform="translate(109,-300)" x2="0" y2="300" stroke="#ddd" stroke-width="1" opacity="1"/><line transform="translate(145,-300)" x2="0" y2="300" stroke="#ddd" stroke-width="1" opacity="1"/><line transform="translate(182,-300)" x2="0" y2="300" stroke="#ddd" stroke-width="1" opacity="1"/><line transform="translate(218,-300)" x2="0" y2="300" stroke="#ddd" stroke-width="1" opacity="1"/><line transform="translate(255,-300)" x2="0" y2="300" stroke="#ddd" stroke-width="1" opacity="1"/><line transform="translate(291,-300)" x2="0" y2="300" stroke="#ddd" stroke-width="1" opacity="1"/><line transform="translate(327,-300)" x2="0" y2="300" stroke="#ddd" stroke-width="1" opacity="1"/><line transform="translate(364,-300)" x2="0" y2="300" stroke="#ddd" stroke-width="1" opacity="1"/><line transform="translate(400,-300)" x2="0" y2="300" stroke="#ddd" stroke-width="1" opacity="1"/><line transform="translate(436,-300)" x2="0" y2="300" stroke="#ddd" stroke-width="1" opacity="1"/><line transform="translate(473,-300)" x2="0" y2="300" stroke="#ddd" stroke-width="1" opacity="1"/><line transform="translate(509,-300)" x2="0" y2="300" stroke="#ddd" stroke-width="1" opacity="1"/><line transform="translate(545,-300)" x2="0" y2="300" stroke="#ddd" stroke-width="1" opacity="1"/><line transform="translate(582,-300)" x2="0" y2="300" stroke="#ddd" stroke-width="1" opacity="1"/><line transform="translate(618,-300)" x2="0" y2="300" stroke="#ddd" stroke-width="1" opacity="1"/><line transform="translate(655,-300)" x2="0" y2="300" stroke="#ddd" stroke-width="1" opacity="1"/><line transform="translate(691,-300)" x2="0" y2="300" stroke="#ddd" stroke-width="1" opacity="1"/><line transform="translate(727,-300)" x2="0" y2="300" stroke="#ddd" stroke-width="1" opacity="1"/><line transform="translate(764,-300)" x2="0" y2="300" stroke="#ddd" stroke-width="1" opacity="1"/><line transform="translate(800,-300)" x2="0" y2="300" stroke="#ddd" stroke-width="1" opacity="1"/></g></g><path class="foreground" aria-hidden="true" d="" pointer-events="none" display="none"/></g></g><g class="mark-group role-axis" aria-hidden="true"><g transform="translate(0.5,0.5)"><path class="background" aria-hidden="true" d="M0,0h0v0h0Z" pointer-events="none"/><g><g class="mark-rule role-axis-grid" pointer-events="none"><line transform="translate(0,300)" x2="800" y2="0" stroke="#ddd" stroke-width="1" opacity="1"/><line transform="translate(0,267)" x2="800" y2="0" stroke="#ddd" stroke-width="1" opacity="1"/><line transform="translate(0,233)" x2="800" y2="0" stroke="#ddd" stroke-width="1" opacity="1"/><line transform="translate(0,200)" x2="800" y2="0" stroke="#ddd" stroke-width="1" opacity="1"/><line transform="translate(0,167)" x2="800" y2="0" stroke="#ddd" stroke-width="1" opacity="1"/><line transform="translate(0,133)" x2="800" y2="0" stroke="#ddd" stroke-width="1" opacity="1"/><line transform="translate(0,100)" x2="800" y2="0" stroke="#ddd" stroke-width="1" opacity="1"/><line transform="translate(0,67)" x2="800" y2="0" stroke="#ddd" stroke-width="1" opacity="1"/><line transform="translate(0,33)" x2="800" y2="0" stroke="#ddd" stroke-width="1" opacity="1"/><line transform="translate(0,0)" x2="800" y2="0" stroke="#ddd" stroke-width="1" opacity="1"/></g></g><path class="foreground" aria-hidden="true" d="" pointer-events="none" display="none"/></g></g><g class="mark-group role-axis" role="graphics-symbol" aria-roledescription="axis" aria-label="X-axis titled 'Date' for a time scale with values from Monday, 16 March 2026, 12:00:00 AM to Tuesday, 07 April 2026, 12:00:00 AM"><g transform="translate(0.5,300.5)"><path class="background" aria-hidden="true" d="M0,0h0v0h0Z" pointer-events="none"/><g><g class="mark-rule role-axis-tick" pointer-events="none"><line transform="translate(0,0)" x2="0" y2="5" stroke="#888" stroke-width="1" opacity="1"/><line transform="translate(36,0)" x2="0" y2="5" stroke="#888" stroke-width="1" opacity="1"/><line transform="translate(73,0)" x2="0" y2="5" stroke="#888" stroke-width="1" opacity="1"/><line transform="translate(109,0)" x2="0" y2="5" stroke="#888" stroke-width="1" opacity="1"/><line transform="translate(145,0)" x2="0" y2="5" stroke="#888" stroke-width="1" opacity="1"/><line transform="translate(182,0)" x2="0" y2="5" stroke="#888" stroke-width="1" opacity="1"/><line transform="translate(218,0)" x2="0" y2="5" stroke="#888" stroke-width="1" opacity="1"/><line transform="translate(255,0)" x2="0" y2="5" stroke="#888" stroke-width="1" opacity="1"/><line transform="translate(291,0)" x2="0" y2="5" stroke="#888" stroke-width="1" opacity="1"/><line transform="translate(327,0)" x2="0" y2="5" stroke="#888" stroke-width="1" opacity="1"/><line transform="translate(364,0)" x2="0" y2="5" stroke="#888" stroke-width="1" opacity="1"/><line transform="translate(400,0)" x2="0" y2="5" stroke="#888" stroke-width="1" opacity="1"/><line transform="translate(436,0)" x2="0" y2="5" stroke="#888" stroke-width="1" opacity="1"/><line transform="translate(473,0)" x2="0" y2="5" stroke="#888" stroke-width="1" opacity="1"/><line transform="translate(509,0)" x2="0" y2="5" stroke="#888" stroke-width="1" opacity="1"/><line transform="translate(545,0)" x2="0" y2="5" stroke="#888" stroke-width="1" opacity="1"/><line transform="translate(582,0)" x2="0" y2="5" stroke="#888" stroke-width="1" opacity="1"/><line transform="translate(618,0)" x2="0" y2="5" stroke="#888" stroke-width="1" opacity="1"/><line transform="translate(655,0)" x2="0" y2="5" stroke="#888" stroke-width="1" opacity="1"/><line transform="translate(691,0)" x2="0" y2="5" stroke="#888" stroke-width="1" opacity="1"/><line transform="translate(727,0)" x2="0" y2="5" stroke="#888" stroke-width="1" opacity="1"/><line transform="translate(764,0)" x2="0" y2="5" stroke="#888" stroke-width="1" opacity="1"/><line transform="translate(800,0)" x2="0" y2="5" stroke="#888" stroke-width="1" opacity="1"/></g><g class="mark-text role-axis-label" pointer-events="none"><text text-anchor="start" transform="translate(0,15)" font-family="sans-serif" font-size="10px" fill="#000" opacity="1">Mon 16</text><text text-anchor="middle" transform="translate(36.36363636363637,15)" font-family="sans-serif" font-size="10px" fill="#000" opacity="0">Tue 17</text><text text-anchor="middle" transform="translate(72.72727272727273,15)" font-family="sans-serif" font-size="10px" fill="#000" opacity="1">Wed 18</text><text text-anchor="middle" transform="translate(109.09090909090908,15)" font-family="sans-serif" font-size="10px" fill="#000" opacity="0">Thu 19</text><text text-anchor="middle" transform="translate(145.45454545454547,15)" font-family="sans-serif" font-size="10px" fill="#000" opacity="1">Fri 20</text><text text-anchor="middle" transform="translate(181.8181818181818,15)" font-family="sans-serif" font-size="10px" fill="#000" opacity="0">Sat 21</text><text text-anchor="middle" transform="translate(218.18181818181816,15)" font-family="sans-serif" font-size="10px" fill="#000" opacity="1">Mar 22</text><text text-anchor="middle" transform="translate(254.54545454545453,15)" font-family="sans-serif" font-size="10px" fill="#000" opacity="0">Mon 23</text><text text-anchor="middle" transform="translate(290.90909090909093,15)" font-family="sans-serif" font-size="10px" fill="#000" opacity="1">Tue 24</text><text text-anchor="middle" transform="translate(327.2727272727273,15)" font-family="sans-serif" font-size="10px" fill="#000" opacity="0">Wed 25</text><text text-anchor="middle" transform="translate(363.6363636363636,15)" font-family="sans-serif" font-size="10px" fill="#000" opacity="1">Thu 26</text><text text-anchor="middle" transform="translate(400,15)" font-family="sans-serif" font-size="10px" fill="#000" opacity="0">Fri 27</text><text text-anchor="middle" transform="translate(436.3636363636363,15)" font-family="sans-serif" font-size="10px" fill="#000" opacity="1">Sat 28</text><text text-anchor="middle" transform="translate(472.72727272727275,15)" font-family="sans-serif" font-size="10px" fill="#000" opacity="0">Mar 29</text><text text-anchor="middle" transform="translate(509.09090909090907,15)" font-family="sans-serif" font-size="10px" fill="#000" opacity="1">Mon 30</text><text text-anchor="middle" transform="translate(545.4545454545454,15)" font-family="sans-serif" font-size="10px" fill="#000" opacity="0">Tue 31</text><text text-anchor="middle" transform="translate(581.8181818181819,15)" font-family="sans-serif" font-size="10px" fill="#000" opacity="1">April</text><text text-anchor="middle" transform="translate(618.1818181818181,15)" font-family="sans-serif" font-size="10px" fill="#000" opacity="0">Thu 02</text><text text-anchor="middle" transform="translate(654.5454545454546,15)" font-family="sans-serif" font-size="10px" fill="#000" opacity="1">Fri 03</text><text text-anchor="middle" transform="translate(690.9090909090909,15)" font-family="sans-serif" font-size="10px" fill="#000" opacity="0">Sat 04</text><text text-anchor="middle" transform="translate(727.2727272727273,15)" font-family="sans-serif" font-size="10px" fill="#000" opacity="1">Apr 05</text><text text-anchor="middle" transform="translate(763.6363636363636,15)" font-family="sans-serif" font-size="10px" fill="#000" opacity="0">Mon 06</text><text text-anchor="end" transform="translate(800,15)" font-family="sans-serif" font-size="10px" fill="#000" opacity="1">Tue 07</text></g><g class="mark-rule role-axis-domain" pointer-events="none"><line transform="translate(0,0)" x2="800" y2="0" stroke="#888" stroke-width="1" opacity="1"/></g><g class="mark-text role-axis-title" pointer-events="none"><text text-anchor="middle" transform="translate(400,30)" font-family="sans-serif" font-size="11px" font-weight="bold" fill="#000" opacity="1">Date</text></g></g><path class="foreground" aria-hidden="true" d="" pointer-events="none" display="none"/></g></g><g class="mark-group role-axis" role="graphics-symbol" aria-roledescription="axis" aria-label="Y-axis titled 'Unique Clones/day' for a linear scale with values from 0 to 180"><g transform="translate(0.5,0.5)"><path class="background" aria-hidden="true" d="M0,0h0v0h0Z" pointer-events="none"/><g><g class="mark-rule role-axis-tick" pointer-events="none"><line transform="translate(0,300)" x2="-5" y2="0" stroke="#888" stroke-width="1" opacity="1"/><line transform="translate(0,267)" x2="-5" y2="0" stroke="#888" stroke-width="1" opacity="1"/><line transform="translate(0,233)" x2="-5" y2="0" stroke="#888" stroke-width="1" opacity="1"/><line transform="translate(0,200)" x2="-5" y2="0" stroke="#888" stroke-width="1" opacity="1"/><line transform="translate(0,167)" x2="-5" y2="0" stroke="#888" stroke-width="1" opacity="1"/><line transform="translate(0,133)" x2="-5" y2="0" stroke="#888" stroke-width="1" opacity="1"/><line transform="translate(0,100)" x2="-5" y2="0" stroke="#888" stroke-width="1" opacity="1"/><line transform="translate(0,67)" x2="-5" y2="0" stroke="#888" stroke-width="1" opacity="1"/><line transform="translate(0,33)" x2="-5" y2="0" stroke="#888" stroke-width="1" opacity="1"/><line transform="translate(0,0)" x2="-5" y2="0" stroke="#888" stroke-width="1" opacity="1"/></g><g class="mark-text role-axis-label" pointer-events="none"><text text-anchor="end" transform="translate(-7,303)" font-family="sans-serif" font-size="10px" fill="#000" opacity="1">0</text><text text-anchor="end" transform="translate(-7,269.66666666666663)" font-family="sans-serif" font-size="10px" fill="#000" opacity="1">20</text><text text-anchor="end" transform="translate(-7,236.33333333333334)" font-family="sans-serif" font-size="10px" fill="#000" opacity="1">40</text><text text-anchor="end" transform="translate(-7,203.00000000000003)" font-family="sans-serif" font-size="10px" fill="#000" opacity="1">60</text><text text-anchor="end" transform="translate(-7,169.66666666666669)" font-family="sans-serif" font-size="10px" fill="#000" opacity="1">80</text><text text-anchor="end" transform="translate(-7,136.33333333333331)" font-family="sans-serif" font-size="10px" fill="#000" opacity="1">100</text><text text-anchor="end" transform="translate(-7,103.00000000000001)" font-family="sans-serif" font-size="10px" fill="#000" opacity="1">120</text><text text-anchor="end" transform="translate(-7,69.66666666666666)" font-family="sans-serif" font-size="10px" fill="#000" opacity="1">140</text><text text-anchor="end" transform="translate(-7,36.33333333333335)" font-family="sans-serif" font-size="10px" fill="#000" opacity="1">160</text><text text-anchor="end" transform="translate(-7,3)" font-family="sans-serif" font-size="10px" fill="#000" opacity="1">180</text></g><g class="mark-rule role-axis-domain" pointer-events="none"><line transform="translate(0,300)" x2="0" y2="-300" stroke="#888" stroke-width="1" opacity="1"/></g><g class="mark-text role-axis-title" pointer-events="none"><text text-anchor="middle" transform="translate(-27.6845703125,150) rotate(-90) translate(0,-2)" font-family="sans-serif" font-size="11px" font-weight="bold" fill="#000" opacity="1">Unique Clones/day</text></g></g><path class="foreground" aria-hidden="true" d="" pointer-events="none" display="none"/></g></g><g class="mark-group role-scope pathgroup" role="graphics-object" aria-roledescription="group mark container"><g transform="translate(0,0)"><path class="background" aria-hidden="true" d="M0,0h800v300h-800Z"/><g><g class="mark-area role-mark marks" role="graphics-object" aria-roledescription="area mark container"><path aria-label="Date: Mar 16, 2026; Unique Clones/day: 0; Repository: justdavis-family/github-analytics-data" role="graphics-symbol" aria-roledescription="area mark" d="M0,298.333L36.364,300L72.727,300L109.091,298.333L145.455,300L181.818,300L218.182,300L254.545,278.333L290.909,296.667L327.273,288.333L363.636,273.333L400,185L436.364,223.333L472.727,140L509.091,245L545.455,261.667L581.818,268.333L618.182,283.333L654.545,250L690.909,23.333L727.273,115L763.636,268.333L800,300L800,300L763.636,268.333L727.273,115L690.909,23.333L654.545,250L618.182,283.333L581.818,268.333L545.455,261.667L509.091,245L472.727,140L436.364,223.333L400,185L363.636,273.333L327.273,288.333L290.909,296.667L254.545,278.333L218.182,300L181.818,300L145.455,300L109.091,298.333L72.727,300L36.364,300L0,298.333Z" fill="#4c78a8"/></g></g><path class="foreground" aria-hidden="true" d="" display="none"/></g><g transform="translate(0,0)"><path class="background" aria-hidden="true" d="M0,0h800v300h-800Z"/><g><g class="mark-area role-mark marks" role="graphics-object" aria-roledescription="area mark container"><path aria-label="Date: Mar 16, 2026; Unique Clones/day: 0; Repository: justdavis-family/justdavis" role="graphics-symbol" aria-roledescription="area mark" d="M0,298.333L36.364,300L72.727,300L109.091,298.333L145.455,300L181.818,300L218.182,300L254.545,278.333L290.909,296.667L327.273,288.333L363.636,273.333L400,185L436.364,223.333L472.727,140L509.091,245L545.455,261.667L581.818,268.333L618.182,283.333L654.545,250L690.909,23.333L727.273,115L763.636,268.333L800,300L800,300L763.636,298.333L727.273,165L690.909,153.333L654.545,251.667L618.182,283.333L581.818,270L545.455,261.667L509.091,245L472.727,140L436.364,223.333L400,185L363.636,273.333L327.273,288.333L290.909,296.667L254.545,280L218.182,300L181.818,300L145.455,300L109.091,298.333L72.727,300L36.364,300L0,298.333Z" fill="#f58518"/></g></g><path class="foreground" aria-hidden="true" d="" display="none"/></g><g transform="translate(0,0)"><path class="background" aria-hidden="true" d="M0,0h800v300h-800Z"/><g><g class="mark-area role-mark marks" role="graphics-object" aria-roledescription="area mark container"><path aria-label="Date: Mar 16, 2026; Unique Clones/day: 0; Repository: karlmdavis/FHIR-Server" role="graphics-symbol" aria-roledescription="area mark" d="M0,298.333L36.364,300L72.727,300L109.091,298.333L145.455,300L181.818,300L218.182,300L254.545,280L290.909,296.667L327.273,288.333L363.636,273.333L400,185L436.364,223.333L472.727,140L509.091,245L545.455,261.667L581.818,270L618.182,283.333L654.545,251.667L690.909,153.333L727.273,165L763.636,298.333L800,300L800,300L763.636,298.333L727.273,165L690.909,153.333L654.545,251.667L618.182,283.333L581.818,270L545.455,263.333L509.091,245L472.727,140L436.364,223.333L400,185L363.636,273.333L327.273,288.333L290.909,296.667L254.545,280L218.182,300L181.818,300L145.455,300L109.091,298.333L72.727,300L36.364,300L0,298.333Z" fill="#e45756"/></g></g><path class="foreground" aria-hidden="true" d="" display="none"/></g><g transform="translate(0,0)"><path class="background" aria-hidden="true" d="M0,0h800v300h-800Z"/><g><g class="mark-area role-mark marks" role="graphics-object" aria-roledescription="area mark container"><path aria-label="Date: Mar 16, 2026; Unique Clones/day: 1; Repository: karlmdavis/ansible" role="graphics-symbol" aria-roledescription="area mark" d="M0,298.333L36.364,300L72.727,300L109.091,298.333L145.455,300L181.818,300L218.182,300L254.545,280L290.909,296.667L327.273,288.333L363.636,273.333L400,185L436.364,223.333L472.727,140L509.091,245L545.455,263.333L581.818,270L618.182,283.333L654.545,251.667L690.909,153.333L727.273,165L763.636,298.333L800,300L800,300L763.636,298.333L727.273,165L690.909,153.333L654.545,251.667L618.182,283.333L581.818,270L545.455,263.333L509.091,245L472.727,140L436.364,223.333L400,185L363.636,273.333L327.273,288.333L290.909,296.667L254.545,280L218.182,300L181.818,300L145.455,300L109.091,298.333L72.727,300L36.364,300L0,300Z" fill="#72b7b2"/></g></g><path class="foreground" aria-hidden="true" d="" display="none"/></g><g transform="translate(0,0)"><path class="background" aria-hidden="true" d="M0,0h800v300h-800Z"/><g><g class="mark-area role-mark marks" role="graphics-object" aria-roledescription="area mark container"><path aria-label="Date: Mar 16, 2026; Unique Clones/day: 0; Repository: karlmdavis/ansible-jenkins" role="graphics-symbol" aria-roledescription="area mark" d="M0,300L36.364,300L72.727,300L109.091,298.333L145.455,300L181.818,300L218.182,300L254.545,280L290.909,296.667L327.273,288.333L363.636,273.333L400,185L436.364,223.333L472.727,140L509.091,245L545.455,263.333L581.818,270L618.182,283.333L654.545,251.667L690.909,153.333L727.273,165L763.636,298.333L800,300L800,300L763.636,298.333L727.273,165L690.909,155L654.545,253.333L618.182,283.333L581.818,270L545.455,263.333L509.091,245L472.727,140L436.364,223.333L400,185L363.636,275L327.273,288.333L290.909,296.667L254.545,280L218.182,300L181.818,300L145.455,300L109.091,298.333L72.727,300L36.364,300L0,300Z" fill="#54a24b"/></g></g><path class="foreground" aria-hidden="true" d="" display="none"/></g><g transform="translate(0,0)"><path class="background" aria-hidden="true" d="M0,0h800v300h-800Z"/><g><g class="mark-area role-mark marks" role="graphics-object" aria-roledescription="area mark container"><path aria-label="Date: Mar 16, 2026; Unique Clones/day: 0; Repository: karlmdavis/ansible-role-acmetool" role="graphics-symbol" aria-roledescription="area mark" d="M0,300L36.364,300L72.727,300L109.091,298.333L145.455,300L181.818,300L218.182,300L254.545,280L290.909,296.667L327.273,288.333L363.636,275L400,185L436.364,223.333L472.727,140L509.091,245L545.455,263.333L581.818,270L618.182,283.333L654.545,253.333L690.909,155L727.273,165L763.636,298.333L800,300L800,300L763.636,298.333L727.273,165L690.909,155L654.545,253.333L618.182,283.333L581.818,270L545.455,263.333L509.091,245L472.727,140L436.364,223.333L400,185L363.636,276.667L327.273,288.333L290.909,296.667L254.545,280L218.182,300L181.818,300L145.455,300L109.091,298.333L72.727,300L36.364,300L0,300Z" fill="#eeca3b"/></g></g><path class="foreground" aria-hidden="true" d="" display="none"/></g><g transform="translate(0,0)"><path class="background" aria-hidden="true" d="M0,0h800v300h-800Z"/><g><g class="mark-area role-mark marks" role="graphics-object" aria-roledescription="area mark container"><path aria-label="Date: Mar 16, 2026; Unique Clones/day: 0; Repository: karlmdavis/ansible-role-bind-dns" role="graphics-symbol" aria-roledescription="area mark" d="M0,300L36.364,300L72.727,300L109.091,298.333L145.455,300L181.818,300L218.182,300L254.545,280L290.909,296.667L327.273,288.333L363.636,276.667L400,185L436.364,223.333L472.727,140L509.091,245L545.455,263.333L581.818,270L618.182,283.333L654.545,253.333L690.909,155L727.273,165L763.636,298.333L800,300L800,300L763.636,298.333L727.273,165L690.909,156.667L654.545,253.333L618.182,283.333L581.818,275L545.455,263.333L509.091,246.667L472.727,141.667L436.364,223.333L400,188.333L363.636,276.667L327.273,288.333L290.909,296.667L254.545,280L218.182,300L181.818,300L145.455,300L109.091,298.333L72.727,300L36.364,300L0,300Z" fill="#b279a2"/></g></g><path class="foreground" aria-hidden="true" d="" display="none"/></g><g transform="translate(0,0)"><path class="background" aria-hidden="true" d="M0,0h800v300h-800Z"/><g><g class="mark-area role-mark marks" role="graphics-object" aria-roledescription="area mark container"><path aria-label="Date: Mar 16, 2026; Unique Clones/day: 0; Repository: karlmdavis/ansible-role-jenkins2" role="graphics-symbol" aria-roledescription="area mark" d="M0,300L36.364,300L72.727,300L109.091,298.333L145.455,300L181.818,300L218.182,300L254.545,280L290.909,296.667L327.273,288.333L363.636,276.667L400,188.333L436.364,223.333L472.727,141.667L509.091,246.667L545.455,263.333L581.818,275L618.182,283.333L654.545,253.333L690.909,156.667L727.273,165L763.636,298.333L800,300L800,300L763.636,298.333L727.273,166.667L690.909,160L654.545,255L618.182,285L581.818,276.667L545.455,265L509.091,246.667L472.727,141.667L436.364,225L400,190L363.636,278.333L327.273,290L290.909,298.333L254.545,280L218.182,300L181.818,300L145.455,300L109.091,298.333L72.727,300L36.364,300L0,300Z" fill="#ff9da6"/></g></g><path class="foreground" aria-hidden="true" d="" display="none"/></g><g transform="translate(0,0)"><path class="background" aria-hidden="true" d="M0,0h800v300h-800Z"/><g><g class="mark-area role-mark marks" role="graphics-object" aria-roledescription="area mark container"><path aria-label="Date: Mar 16, 2026; Unique Clones/day: 0; Repository: karlmdavis/ansible-role-ldap" role="graphics-symbol" aria-roledescription="area mark" d="M0,300L36.364,300L72.727,300L109.091,298.333L145.455,300L181.818,300L218.182,300L254.545,280L290.909,298.333L327.273,290L363.636,278.333L400,190L436.364,225L472.727,141.667L509.091,246.667L545.455,265L581.818,276.667L618.182,285L654.545,255L690.909,160L727.273,166.667L763.636,298.333L800,300L800,300L763.636,298.333L727.273,166.667L690.909,160L654.545,255L618.182,285L581.818,276.667L545.455,266.667L509.091,246.667L472.727,141.667L436.364,225L400,190L363.636,278.333L327.273,290L290.909,298.333L254.545,280L218.182,300L181.818,300L145.455,300L109.091,298.333L72.727,300L36.364,300L0,300Z" fill="#9d755d"/></g></g><path class="foreground" aria-hidden="true" d="" display="none"/></g><g transform="translate(0,0)"><path class="background" aria-hidden="true" d="M0,0h800v300h-800Z"/><g><g class="mark-area role-mark marks" role="graphics-object" aria-roledescription="area mark container"><path aria-label="Date: Mar 16, 2026; Unique Clones/day: 0; Repository: karlmdavis/ansible-role-rcm-dotfiles" role="graphics-symbol" aria-roledescription="area mark" d="M0,300L36.364,300L72.727,300L109.091,298.333L145.455,300L181.818,300L218.182,300L254.545,280L290.909,298.333L327.273,290L363.636,278.333L400,190L436.364,225L472.727,141.667L509.091,246.667L545.455,266.667L581.818,276.667L618.182,285L654.545,255L690.909,160L727.273,166.667L763.636,298.333L800,300L800,300L763.636,298.333L727.273,166.667L690.909,161.667L654.545,255L618.182,285L581.818,276.667L545.455,266.667L509.091,248.333L472.727,143.333L436.364,225L400,193.333L363.636,278.333L327.273,290L290.909,298.333L254.545,280L218.182,300L181.818,300L145.455,300L109.091,298.333L72.727,300L36.364,300L0,300Z" fill="#bab0ac"/></g></g><path class="foreground" aria-hidden="true" d="" display="none"/></g><g transform="translate(0,0)"><path class="background" aria-hidden="true" d="M0,0h800v300h-800Z"/><g><g class="mark-area role-mark marks" role="graphics-object" aria-roledescription="area mark container"><path aria-label="Date: Mar 16, 2026; Unique Clones/day: 0; Repository: karlmdavis/ansible-roles" role="graphics-symbol" aria-roledescription="area mark" d="M0,300L36.364,300L72.727,300L109.091,298.333L145.455,300L181.818,300L218.182,300L254.545,280L290.909,298.333L327.273,290L363.636,278.333L400,193.333L436.364,225L472.727,143.333L509.091,248.333L545.455,266.667L581.818,276.667L618.182,285L654.545,255L690.909,161.667L727.273,166.667L763.636,298.333L800,300L800,300L763.636,298.333L727.273,166.667L690.909,161.667L654.545,255L618.182,285L581.818,276.667L545.455,266.667L509.091,250L472.727,143.333L436.364,225L400,193.333L363.636,280L327.273,290L290.909,298.333L254.545,280L218.182,300L181.818,300L145.455,300L109.091,298.333L72.727,300L36.364,300L0,300Z" fill="#4c78a8"/></g></g><path class="foreground" aria-hidden="true" d="" display="none"/></g><g transform="translate(0,0)"><path class="background" aria-hidden="true" d="M0,0h800v300h-800Z"/><g><g class="mark-area role-mark marks" role="graphics-object" aria-roledescription="area mark container"><path aria-label="Date: Mar 16, 2026; Unique Clones/day: 0; Repository: karlmdavis/bbonfhir-dev-infra-docker" role="graphics-symbol" aria-roledescription="area mark" d="M0,300L36.364,300L72.727,300L109.091,298.333L145.455,300L181.818,300L218.182,300L254.545,280L290.909,298.333L327.273,290L363.636,280L400,193.333L436.364,225L472.727,143.333L509.091,250L545.455,266.667L581.818,276.667L618.182,285L654.545,255L690.909,161.667L727.273,166.667L763.636,298.333L800,300L800,300L763.636,298.333L727.273,166.667L690.909,163.333L654.545,255L618.182,285L581.818,276.667L545.455,266.667L509.091,251.667L472.727,143.333L436.364,225L400,195L363.636,280L327.273,291.667L290.909,298.333L254.545,280L218.182,300L181.818,300L145.455,300L109.091,298.333L72.727,300L36.364,300L0,300Z" fill="#f58518"/></g></g><path class="foreground" aria-hidden="true" d="" display="none"/></g><g transform="translate(0,0)"><path class="background" aria-hidden="true" d="M0,0h800v300h-800Z"/><g><g class="mark-area role-mark marks" role="graphics-object" aria-roledescription="area mark container"><path aria-label="Date: Mar 16, 2026; Unique Clones/day: 0; Repository: karlmdavis/can-i-kayak-baltimore" role="graphics-symbol" aria-roledescription="area mark" d="M0,300L36.364,300L72.727,300L109.091,298.333L145.455,300L181.818,300L218.182,300L254.545,280L290.909,298.333L327.273,291.667L363.636,280L400,195L436.364,225L472.727,143.333L509.091,251.667L545.455,266.667L581.818,276.667L618.182,285L654.545,255L690.909,163.333L727.273,166.667L763.636,298.333L800,300L800,300L763.636,298.333L727.273,166.667L690.909,165L654.545,255L618.182,285L581.818,278.333L545.455,266.667L509.091,251.667L472.727,143.333L436.364,225L400,200L363.636,280L327.273,291.667L290.909,298.333L254.545,280L218.182,300L181.818,300L145.455,300L109.091,298.333L72.727,300L36.364,300L0,300Z" fill="#e45756"/></g></g><path class="foreground" aria-hidden="true" d="" display="none"/></g><g transform="translate(0,0)"><path class="background" aria-hidden="true" d="M0,0h800v300h-800Z"/><g><g class="mark-area role-mark marks" role="graphics-object" aria-roledescription="area mark container"><path aria-label="Date: Mar 16, 2026; Unique Clones/day: 0; Repository: karlmdavis/datanucleus-test-jdo-1-to-n" role="graphics-symbol" aria-roledescription="area mark" d="M0,300L36.364,300L72.727,300L109.091,298.333L145.455,300L181.818,300L218.182,300L254.545,280L290.909,298.333L327.273,291.667L363.636,280L400,200L436.364,225L472.727,143.333L509.091,251.667L545.455,266.667L581.818,278.333L618.182,285L654.545,255L690.909,165L727.273,166.667L763.636,298.333L800,300L800,300L763.636,298.333L727.273,166.667L690.909,165L654.545,255L618.182,285L581.818,278.333L545.455,266.667L509.091,251.667L472.727,143.333L436.364,226.667L400,200L363.636,280L327.273,291.667L290.909,298.333L254.545,280L218.182,300L181.818,300L145.455,300L109.091,298.333L72.727,300L36.364,300L0,300Z" fill="#72b7b2"/></g></g><path class="foreground" aria-hidden="true" d="" display="none"/></g><g transform="translate(0,0)"><path class="background" aria-hidden="true" d="M0,0h800v300h-800Z"/><g><g class="mark-area role-mark marks" role="graphics-object" aria-roledescription="area mark container"><path aria-label="Date: Mar 16, 2026; Unique Clones/day: 0; Repository: karlmdavis/dotfiles" role="graphics-symbol" aria-roledescription="area mark" d="M0,300L36.364,300L72.727,300L109.091,298.333L145.455,300L181.818,300L218.182,300L254.545,280L290.909,298.333L327.273,291.667L363.636,280L400,200L436.364,226.667L472.727,143.333L509.091,251.667L545.455,266.667L581.818,278.333L618.182,285L654.545,255L690.909,165L727.273,166.667L763.636,298.333L800,300L800,300L763.636,298.333L727.273,168.333L690.909,166.667L654.545,255L618.182,286.667L581.818,280L545.455,268.333L509.091,251.667L472.727,143.333L436.364,226.667L400,203.333L363.636,280L327.273,291.667L290.909,298.333L254.545,281.667L218.182,300L181.818,300L145.455,300L109.091,298.333L72.727,300L36.364,300L0,300Z" fill="#54a24b"/></g></g><path class="foreground" aria-hidden="true" d="" display="none"/></g><g transform="translate(0,0)"><path class="background" aria-hidden="true" d="M0,0h800v300h-800Z"/><g><g class="mark-area role-mark marks" role="graphics-object" aria-roledescription="area mark container"><path aria-label="Date: Mar 16, 2026; Unique Clones/day: 0; Repository: karlmdavis/fhir-benchmarks" role="graphics-symbol" aria-roledescription="area mark" d="M0,300L36.364,300L72.727,300L109.091,298.333L145.455,300L181.818,300L218.182,300L254.545,281.667L290.909,298.333L327.273,291.667L363.636,280L400,203.333L436.364,226.667L472.727,143.333L509.091,251.667L545.455,268.333L581.818,280L618.182,286.667L654.545,255L690.909,166.667L727.273,168.333L763.636,298.333L800,300L800,300L763.636,298.333L727.273,170L690.909,168.333L654.545,256.667L618.182,286.667L581.818,281.667L545.455,271.667L509.091,253.333L472.727,145L436.364,226.667L400,206.667L363.636,280L327.273,293.333L290.909,298.333L254.545,283.333L218.182,300L181.818,300L145.455,300L109.091,298.333L72.727,300L36.364,300L0,300Z" fill="#eeca3b"/></g></g><path class="foreground" aria-hidden="true" d="" display="none"/></g><g transform="translate(0,0)"><path class="background" aria-hidden="true" d="M0,0h800v300h-800Z"/><g><g class="mark-area role-mark marks" role="graphics-object" aria-roledescription="area mark container"><path aria-label="Date: Mar 16, 2026; Unique Clones/day: 0; Repository: karlmdavis/hapi-fhir-jpaserver-starter" role="graphics-symbol" aria-roledescription="area mark" d="M0,300L36.364,300L72.727,300L109.091,298.333L145.455,300L181.818,300L218.182,300L254.545,283.333L290.909,298.333L327.273,293.333L363.636,280L400,206.667L436.364,226.667L472.727,145L509.091,253.333L545.455,271.667L581.818,281.667L618.182,286.667L654.545,256.667L690.909,168.333L727.273,170L763.636,298.333L800,300L800,300L763.636,298.333L727.273,170L690.909,168.333L654.545,258.333L618.182,288.333L581.818,281.667L545.455,271.667L509.091,253.333L472.727,145L436.364,226.667L400,206.667L363.636,281.667L327.273,293.333L290.909,298.333L254.545,283.333L218.182,300L181.818,300L145.455,300L109.091,298.333L72.727,300L36.364,300L0,300Z" fill="#b279a2"/></g></g><path class="foreground" aria-hidden="true" d="" display="none"/></g><g transform="translate(0,0)"><path class="background" aria-hidden="true" d="M0,0h800v300h-800Z"/><g><g class="mark-area role-mark marks" role="graphics-object" aria-roledescription="area mark container"><path aria-label="Date: Mar 16, 2026; Unique Clones/day: 0; Repository: karlmdavis/hello-rust-actix" role="graphics-symbol" aria-roledescription="area mark" d="M0,300L36.364,300L72.727,300L109.091,298.333L145.455,300L181.818,300L218.182,300L254.545,283.333L290.909,298.333L327.273,293.333L363.636,281.667L400,206.667L436.364,226.667L472.727,145L509.091,253.333L545.455,271.667L581.818,281.667L618.182,288.333L654.545,258.333L690.909,168.333L727.273,170L763.636,298.333L800,300L800,300L763.636,298.333L727.273,170L690.909,170L654.545,258.333L618.182,288.333L581.818,281.667L545.455,273.333L509.091,253.333L472.727,145L436.364,226.667L400,208.333L363.636,281.667L327.273,293.333L290.909,298.333L254.545,283.333L218.182,300L181.818,300L145.455,300L109.091,298.333L72.727,300L36.364,300L0,300Z" fill="#ff9da6"/></g></g><path class="foreground" aria-hidden="true" d="" display="none"/></g><g transform="translate(0,0)"><path class="background" aria-hidden="true" d="M0,0h800v300h-800Z"/><g><g class="mark-area role-mark marks" role="graphics-object" aria-roledescription="area mark container"><path aria-label="Date: Mar 16, 2026; Unique Clones/day: 0; Repository: karlmdavis/jessentials" role="graphics-symbol" aria-roledescription="area mark" d="M0,300L36.364,300L72.727,300L109.091,298.333L145.455,300L181.818,300L218.182,300L254.545,283.333L290.909,298.333L327.273,293.333L363.636,281.667L400,208.333L436.364,226.667L472.727,145L509.091,253.333L545.455,273.333L581.818,281.667L618.182,288.333L654.545,258.333L690.909,170L727.273,170L763.636,298.333L800,300L800,300L763.636,298.333L727.273,170L690.909,171.667L654.545,258.333L618.182,288.333L581.818,281.667L545.455,273.333L509.091,255L472.727,145L436.364,226.667L400,210L363.636,281.667L327.273,293.333L290.909,298.333L254.545,285L218.182,300L181.818,300L145.455,300L109.091,298.333L72.727,300L36.364,300L0,300Z" fill="#9d755d"/></g></g><path class="foreground" aria-hidden="true" d="" display="none"/></g><g transform="translate(0,0)"><path class="background" aria-hidden="true" d="M0,0h800v300h-800Z"/><g><g class="mark-area role-mark marks" role="graphics-object" aria-roledescription="area mark container"><path aria-label="Date: Mar 16, 2026; Unique Clones/day: 0; Repository: karlmdavis/justdavis-ansible" role="graphics-symbol" aria-roledescription="area mark" d="M0,300L36.364,300L72.727,300L109.091,298.333L145.455,300L181.818,300L218.182,300L254.545,285L290.909,298.333L327.273,293.333L363.636,281.667L400,210L436.364,226.667L472.727,145L509.091,255L545.455,273.333L581.818,281.667L618.182,288.333L654.545,258.333L690.909,171.667L727.273,170L763.636,298.333L800,300L800,300L763.636,298.333L727.273,170L690.909,173.333L654.545,258.333L618.182,288.333L581.818,283.333L545.455,273.333L509.091,255L472.727,145L436.364,228.333L400,211.667L363.636,281.667L327.273,295L290.909,298.333L254.545,285L218.182,300L181.818,300L145.455,300L109.091,298.333L72.727,300L36.364,300L0,300Z" fill="#bab0ac"/></g></g><path class="foreground" aria-hidden="true" d="" display="none"/></g><g transform="translate(0,0)"><path class="background" aria-hidden="true" d="M0,0h800v300h-800Z"/><g><g class="mark-area role-mark marks" role="graphics-object" aria-roledescription="area mark container"><path aria-label="Date: Mar 16, 2026; Unique Clones/day: 0; Repository: karlmdavis/justdavis-finances" role="graphics-symbol" aria-roledescription="area mark" d="M0,300L36.364,300L72.727,300L109.091,298.333L145.455,300L181.818,300L218.182,300L254.545,285L290.909,298.333L327.273,295L363.636,281.667L400,211.667L436.364,228.333L472.727,145L509.091,255L545.455,273.333L581.818,283.333L618.182,288.333L654.545,258.333L690.909,173.333L727.273,170L763.636,298.333L800,300L800,300L763.636,298.333L727.273,295L690.909,268.333L654.545,291.667L618.182,290L581.818,285L545.455,275L509.091,280L472.727,286.667L436.364,290L400,263.333L363.636,283.333L327.273,296.667L290.909,298.333L254.545,285L218.182,300L181.818,300L145.455,300L109.091,298.333L72.727,300L36.364,300L0,300Z" fill="#4c78a8"/></g></g><path class="foreground" aria-hidden="true" d="" display="none"/></g><g transform="translate(0,0)"><path class="background" aria-hidden="true" d="M0,0h800v300h-800Z"/><g><g class="mark-area role-mark marks" role="graphics-object" aria-roledescription="area mark container"><path aria-label="Date: Mar 16, 2026; Unique Clones/day: 0; Repository: karlmdavis/justdavis-karl" role="graphics-symbol" aria-roledescription="area mark" d="M0,300L36.364,300L72.727,300L109.091,298.333L145.455,300L181.818,300L218.182,300L254.545,285L290.909,298.333L327.273,296.667L363.636,283.333L400,263.333L436.364,290L472.727,286.667L509.091,280L545.455,275L581.818,285L618.182,290L654.545,291.667L690.909,268.333L727.273,295L763.636,298.333L800,300L800,300L763.636,298.333L727.273,295L690.909,270L654.545,291.667L618.182,291.667L581.818,285L545.455,276.667L509.091,281.667L472.727,286.667L436.364,291.667L400,265L363.636,283.333L327.273,296.667L290.909,298.333L254.545,286.667L218.182,300L181.818,300L145.455,300L109.091,298.333L72.727,300L36.364,300L0,300Z" fill="#f58518"/></g></g><path class="foreground" aria-hidden="true" d="" display="none"/></g><g transform="translate(0,0)"><path class="background" aria-hidden="true" d="M0,0h800v300h-800Z"/><g><g class="mark-area role-mark marks" role="graphics-object" aria-roledescription="area mark container"><path aria-label="Date: Mar 16, 2026; Unique Clones/day: 0; Repository: karlmdavis/justdavis-puppet" role="graphics-symbol" aria-roledescription="area mark" d="M0,300L36.364,300L72.727,300L109.091,298.333L145.455,300L181.818,300L218.182,300L254.545,286.667L290.909,298.333L327.273,296.667L363.636,283.333L400,265L436.364,291.667L472.727,286.667L509.091,281.667L545.455,276.667L581.818,285L618.182,291.667L654.545,291.667L690.909,270L727.273,295L763.636,298.333L800,300L800,300L763.636,298.333L727.273,295L690.909,271.667L654.545,291.667L618.182,291.667L581.818,285L545.455,280L509.091,283.333L472.727,286.667L436.364,291.667L400,266.667L363.636,283.333L327.273,296.667L290.909,298.333L254.545,286.667L218.182,300L181.818,300L145.455,300L109.091,298.333L72.727,300L36.364,300L0,300Z" fill="#e45756"/></g></g><path class="foreground" aria-hidden="true" d="" display="none"/></g><g transform="translate(0,0)"><path class="background" aria-hidden="true" d="M0,0h800v300h-800Z"/><g><g class="mark-area role-mark marks" role="graphics-object" aria-roledescription="area mark container"><path aria-label="Date: Mar 16, 2026; Unique Clones/day: 0; Repository: karlmdavis/kobjects" role="graphics-symbol" aria-roledescription="area mark" d="M0,300L36.364,300L72.727,300L109.091,298.333L145.455,300L181.818,300L218.182,300L254.545,286.667L290.909,298.333L327.273,296.667L363.636,283.333L400,266.667L436.364,291.667L472.727,286.667L509.091,283.333L545.455,280L581.818,285L618.182,291.667L654.545,291.667L690.909,271.667L727.273,295L763.636,298.333L800,300L800,300L763.636,298.333L727.273,295L690.909,273.333L654.545,291.667L618.182,291.667L581.818,285L545.455,280L509.091,283.333L472.727,286.667L436.364,291.667L400,268.333L363.636,285L327.273,296.667L290.909,298.333L254.545,286.667L218.182,300L181.818,300L145.455,300L109.091,298.333L72.727,300L36.364,300L0,300Z" fill="#72b7b2"/></g></g><path class="foreground" aria-hidden="true" d="" display="none"/></g><g transform="translate(0,0)"><path class="background" aria-hidden="true" d="M0,0h800v300h-800Z"/><g><g class="mark-area role-mark marks" role="graphics-object" aria-roledescription="area mark container"><path aria-label="Date: Mar 16, 2026; Unique Clones/day: 0; Repository: karlmdavis/ksoap2-android" role="graphics-symbol" aria-roledescription="area mark" d="M0,300L36.364,300L72.727,300L109.091,298.333L145.455,300L181.818,300L218.182,300L254.545,286.667L290.909,298.333L327.273,296.667L363.636,285L400,268.333L436.364,291.667L472.727,286.667L509.091,283.333L545.455,280L581.818,285L618.182,291.667L654.545,291.667L690.909,273.333L727.273,295L763.636,298.333L800,300L800,300L763.636,300L727.273,295L690.909,278.333L654.545,291.667L618.182,293.333L581.818,286.667L545.455,281.667L509.091,290L472.727,290L436.364,291.667L400,270L363.636,290L327.273,296.667L290.909,298.333L254.545,288.333L218.182,300L181.818,300L145.455,300L109.091,298.333L72.727,300L36.364,300L0,300Z" fill="#54a24b"/></g></g><path class="foreground" aria-hidden="true" d="" display="none"/></g><g transform="translate(0,0)"><path class="background" aria-hidden="true" d="M0,0h800v300h-800Z"/><g><g class="mark-area role-mark marks" role="graphics-object" aria-roledescription="area mark container"><path aria-label="Date: Mar 16, 2026; Unique Clones/day: 0; Repository: karlmdavis/kxml2" role="graphics-symbol" aria-roledescription="area mark" d="M0,300L36.364,300L72.727,300L109.091,298.333L145.455,300L181.818,300L218.182,300L254.545,288.333L290.909,298.333L327.273,296.667L363.636,290L400,270L436.364,291.667L472.727,290L509.091,290L545.455,281.667L581.818,286.667L618.182,293.333L654.545,291.667L690.909,278.333L727.273,295L763.636,300L800,300L800,300L763.636,300L727.273,296.667L690.909,280L654.545,291.667L618.182,293.333L581.818,286.667L545.455,283.333L509.091,295L472.727,291.667L436.364,291.667L400,273.333L363.636,291.667L327.273,296.667L290.909,298.333L254.545,290L218.182,300L181.818,300L145.455,300L109.091,298.333L72.727,300L36.364,300L0,300Z" fill="#eeca3b"/></g></g><path class="foreground" aria-hidden="true" d="" display="none"/></g><g transform="translate(0,0)"><path class="background" aria-hidden="true" d="M0,0h800v300h-800Z"/><g><g class="mark-area role-mark marks" role="graphics-object" aria-roledescription="area mark container"><path aria-label="Date: Mar 16, 2026; Unique Clones/day: 0; Repository: karlmdavis/ldap-plugin" role="graphics-symbol" aria-roledescription="area mark" d="M0,300L36.364,300L72.727,300L109.091,298.333L145.455,300L181.818,300L218.182,300L254.545,290L290.909,298.333L327.273,296.667L363.636,291.667L400,273.333L436.364,291.667L472.727,291.667L509.091,295L545.455,283.333L581.818,286.667L618.182,293.333L654.545,291.667L690.909,280L727.273,296.667L763.636,300L800,300L800,300L763.636,300L727.273,296.667L690.909,280L654.545,293.333L618.182,295L581.818,286.667L545.455,283.333L509.091,295L472.727,291.667L436.364,291.667L400,273.333L363.636,291.667L327.273,296.667L290.909,298.333L254.545,290L218.182,300L181.818,300L145.455,300L109.091,298.333L72.727,300L36.364,300L0,300Z" fill="#b279a2"/></g></g><path class="foreground" aria-hidden="true" d="" display="none"/></g><g transform="translate(0,0)"><path class="background" aria-hidden="true" d="M0,0h800v300h-800Z"/><g><g class="mark-area role-mark marks" role="graphics-object" aria-roledescription="area mark container"><path aria-label="Date: Mar 16, 2026; Unique Clones/day: 0; Repository: karlmdavis/lego-ev3dev-rs" role="graphics-symbol" aria-roledescription="area mark" d="M0,300L36.364,300L72.727,300L109.091,298.333L145.455,300L181.818,300L218.182,300L254.545,290L290.909,298.333L327.273,296.667L363.636,291.667L400,273.333L436.364,291.667L472.727,291.667L509.091,295L545.455,283.333L581.818,286.667L618.182,295L654.545,293.333L690.909,280L727.273,296.667L763.636,300L800,300L800,300L763.636,300L727.273,298.333L690.909,281.667L654.545,295L618.182,295L581.818,288.333L545.455,286.667L509.091,295L472.727,293.333L436.364,293.333L400,278.333L363.636,291.667L327.273,298.333L290.909,298.333L254.545,291.667L218.182,300L181.818,300L145.455,300L109.091,298.333L72.727,300L36.364,300L0,300Z" fill="#ff9da6"/></g></g><path class="foreground" aria-hidden="true" d="" display="none"/></g><g transform="translate(0,0)"><path class="background" aria-hidden="true" d="M0,0h800v300h-800Z"/><g><g class="mark-area role-mark marks" role="graphics-object" aria-roledescription="area mark container"><path aria-label="Date: Mar 16, 2026; Unique Clones/day: 0; Repository: karlmdavis/liquibase" role="graphics-symbol" aria-roledescription="area mark" d="M0,300L36.364,300L72.727,300L109.091,298.333L145.455,300L181.818,300L218.182,300L254.545,291.667L290.909,298.333L327.273,298.333L363.636,291.667L400,278.333L436.364,293.333L472.727,293.333L509.091,295L545.455,286.667L581.818,288.333L618.182,295L654.545,295L690.909,281.667L727.273,298.333L763.636,300L800,300L800,300L763.636,300L727.273,298.333L690.909,281.667L654.545,295L618.182,295L581.818,288.333L545.455,286.667L509.091,295L472.727,293.333L436.364,293.333L400,278.333L363.636,291.667L327.273,298.333L290.909,298.333L254.545,291.667L218.182,300L181.818,300L145.455,300L109.091,300L72.727,300L36.364,300L0,300Z" fill="#9d755d"/></g></g><path class="foreground" aria-hidden="true" d="" display="none"/></g><g transform="translate(0,0)"><path class="background" aria-hidden="true" d="M0,0h800v300h-800Z"/><g><g class="mark-area role-mark marks" role="graphics-object" aria-roledescription="area mark container"><path aria-label="Date: Mar 16, 2026; Unique Clones/day: 0; Repository: karlmdavis/m2e-core" role="graphics-symbol" aria-roledescription="area mark" d="M0,300L36.364,300L72.727,300L109.091,300L145.455,300L181.818,300L218.182,300L254.545,291.667L290.909,298.333L327.273,298.333L363.636,291.667L400,278.333L436.364,293.333L472.727,293.333L509.091,295L545.455,286.667L581.818,288.333L618.182,295L654.545,295L690.909,281.667L727.273,298.333L763.636,300L800,300L800,300L763.636,300L727.273,298.333L690.909,283.333L654.545,295L618.182,295L581.818,288.333L545.455,286.667L509.091,295L472.727,295L436.364,293.333L400,280L363.636,291.667L327.273,298.333L290.909,298.333L254.545,291.667L218.182,300L181.818,300L145.455,300L109.091,300L72.727,300L36.364,300L0,300Z" fill="#bab0ac"/></g></g><path class="foreground" aria-hidden="true" d="" display="none"/></g><g transform="translate(0,0)"><path class="background" aria-hidden="true" d="M0,0h800v300h-800Z"/><g><g class="mark-area role-mark marks" role="graphics-object" aria-roledescription="area mark container"><path aria-label="Date: Mar 16, 2026; Unique Clones/day: 0; Repository: karlmdavis/m2e-core-tests" role="graphics-symbol" aria-roledescription="area mark" d="M0,300L36.364,300L72.727,300L109.091,300L145.455,300L181.818,300L218.182,300L254.545,291.667L290.909,298.333L327.273,298.333L363.636,291.667L400,280L436.364,293.333L472.727,295L509.091,295L545.455,286.667L581.818,288.333L618.182,295L654.545,295L690.909,283.333L727.273,298.333L763.636,300L800,300L800,300L763.636,300L727.273,298.333L690.909,283.333L654.545,295L618.182,295L581.818,291.667L545.455,286.667L509.091,295L472.727,295L436.364,295L400,280L363.636,293.333L327.273,298.333L290.909,298.333L254.545,291.667L218.182,300L181.818,300L145.455,300L109.091,300L72.727,300L36.364,300L0,300Z" fill="#4c78a8"/></g></g><path class="foreground" aria-hidden="true" d="" display="none"/></g><g transform="translate(0,0)"><path class="background" aria-hidden="true" d="M0,0h800v300h-800Z"/><g><g class="mark-area role-mark marks" role="graphics-object" aria-roledescription="area mark container"><path aria-label="Date: Mar 16, 2026; Unique Clones/day: 0; Repository: karlmdavis/obsidian-operator" role="graphics-symbol" aria-roledescription="area mark" d="M0,300L36.364,300L72.727,300L109.091,300L145.455,300L181.818,300L218.182,300L254.545,291.667L290.909,298.333L327.273,298.333L363.636,293.333L400,280L436.364,295L472.727,295L509.091,295L545.455,286.667L581.818,291.667L618.182,295L654.545,295L690.909,283.333L727.273,298.333L763.636,300L800,300L800,300L763.636,300L727.273,298.333L690.909,285L654.545,298.333L618.182,295L581.818,291.667L545.455,291.667L509.091,295L472.727,295L436.364,295L400,281.667L363.636,293.333L327.273,298.333L290.909,298.333L254.545,293.333L218.182,300L181.818,300L145.455,300L109.091,300L72.727,300L36.364,300L0,300Z" fill="#f58518"/></g></g><path class="foreground" aria-hidden="true" d="" display="none"/></g><g transform="translate(0,0)"><path class="background" aria-hidden="true" d="M0,0h800v300h-800Z"/><g><g class="mark-area role-mark marks" role="graphics-object" aria-roledescription="area mark container"><path aria-label="Date: Mar 16, 2026; Unique Clones/day: 0; Repository: karlmdavis/perfect-note" role="graphics-symbol" aria-roledescription="area mark" d="M0,300L36.364,300L72.727,300L109.091,300L145.455,300L181.818,300L218.182,300L254.545,293.333L290.909,298.333L327.273,298.333L363.636,293.333L400,281.667L436.364,295L472.727,295L509.091,295L545.455,291.667L581.818,291.667L618.182,295L654.545,298.333L690.909,285L727.273,298.333L763.636,300L800,300L800,300L763.636,300L727.273,298.333L690.909,286.667L654.545,298.333L618.182,295L581.818,291.667L545.455,291.667L509.091,295L472.727,295L436.364,296.667L400,283.333L363.636,295L327.273,298.333L290.909,298.333L254.545,293.333L218.182,300L181.818,300L145.455,300L109.091,300L72.727,300L36.364,300L0,300Z" fill="#e45756"/></g></g><path class="foreground" aria-hidden="true" d="" display="none"/></g><g transform="translate(0,0)"><path class="background" aria-hidden="true" d="M0,0h800v300h-800Z"/><g><g class="mark-area role-mark marks" role="graphics-object" aria-roledescription="area mark container"><path aria-label="Date: Mar 16, 2026; Unique Clones/day: 0; Repository: karlmdavis/puppet-archive" role="graphics-symbol" aria-roledescription="area mark" d="M0,300L36.364,300L72.727,300L109.091,300L145.455,300L181.818,300L218.182,300L254.545,293.333L290.909,298.333L327.273,298.333L363.636,295L400,283.333L436.364,296.667L472.727,295L509.091,295L545.455,291.667L581.818,291.667L618.182,295L654.545,298.333L690.909,286.667L727.273,298.333L763.636,300L800,300L800,300L763.636,300L727.273,298.333L690.909,286.667L654.545,298.333L618.182,295L581.818,291.667L545.455,291.667L509.091,295L472.727,295L436.364,296.667L400,283.333L363.636,295L327.273,298.333L290.909,298.333L254.545,295L218.182,300L181.818,300L145.455,300L109.091,300L72.727,300L36.364,300L0,300Z" fill="#72b7b2"/></g></g><path class="foreground" aria-hidden="true" d="" display="none"/></g><g transform="translate(0,0)"><path class="background" aria-hidden="true" d="M0,0h800v300h-800Z"/><g><g class="mark-area role-mark marks" role="graphics-object" aria-roledescription="area mark container"><path aria-label="Date: Mar 16, 2026; Unique Clones/day: 0; Repository: karlmdavis/puppet-sonar" role="graphics-symbol" aria-roledescription="area mark" d="M0,300L36.364,300L72.727,300L109.091,300L145.455,300L181.818,300L218.182,300L254.545,295L290.909,298.333L327.273,298.333L363.636,295L400,283.333L436.364,296.667L472.727,295L509.091,295L545.455,291.667L581.818,291.667L618.182,295L654.545,298.333L690.909,286.667L727.273,298.333L763.636,300L800,300L800,300L763.636,300L727.273,298.333L690.909,286.667L654.545,298.333L618.182,296.667L581.818,291.667L545.455,295L509.091,295L472.727,295L436.364,298.333L400,283.333L363.636,295L327.273,298.333L290.909,298.333L254.545,295L218.182,300L181.818,300L145.455,300L109.091,300L72.727,300L36.364,300L0,300Z" fill="#54a24b"/></g></g><path class="foreground" aria-hidden="true" d="" display="none"/></g><g transform="translate(0,0)"><path class="background" aria-hidden="true" d="M0,0h800v300h-800Z"/><g><g class="mark-area role-mark marks" role="graphics-object" aria-roledescription="area mark container"><path aria-label="Date: Mar 16, 2026; Unique Clones/day: 0; Repository: karlmdavis/rps-tourney" role="graphics-symbol" aria-roledescription="area mark" d="M0,300L36.364,300L72.727,300L109.091,300L145.455,300L181.818,300L218.182,300L254.545,295L290.909,298.333L327.273,298.333L363.636,295L400,283.333L436.364,298.333L472.727,295L509.091,295L545.455,295L581.818,291.667L618.182,296.667L654.545,298.333L690.909,286.667L727.273,298.333L763.636,300L800,300L800,300L763.636,300L727.273,298.333L690.909,288.333L654.545,298.333L618.182,298.333L581.818,291.667L545.455,295L509.091,295L472.727,295L436.364,298.333L400,285L363.636,295L327.273,298.333L290.909,298.333L254.545,296.667L218.182,300L181.818,300L145.455,300L109.091,300L72.727,300L36.364,300L0,300Z" fill="#eeca3b"/></g></g><path class="foreground" aria-hidden="true" d="" display="none"/></g><g transform="translate(0,0)"><path class="background" aria-hidden="true" d="M0,0h800v300h-800Z"/><g><g class="mark-area role-mark marks" role="graphics-object" aria-roledescription="area mark container"><path aria-label="Date: Mar 16, 2026; Unique Clones/day: 0; Repository: karlmdavis/sample-maven-and-rcp" role="graphics-symbol" aria-roledescription="area mark" d="M0,300L36.364,300L72.727,300L109.091,300L145.455,300L181.818,300L218.182,300L254.545,296.667L290.909,298.333L327.273,298.333L363.636,295L400,285L436.364,298.333L472.727,295L509.091,295L545.455,295L581.818,291.667L618.182,298.333L654.545,298.333L690.909,288.333L727.273,298.333L763.636,300L800,300L800,300L763.636,300L727.273,298.333L690.909,290L654.545,298.333L618.182,298.333L581.818,293.333L545.455,295L509.091,295L472.727,295L436.364,298.333L400,286.667L363.636,295L327.273,298.333L290.909,298.333L254.545,296.667L218.182,300L181.818,300L145.455,300L109.091,300L72.727,300L36.364,300L0,300Z" fill="#b279a2"/></g></g><path class="foreground" aria-hidden="true" d="" display="none"/></g><g transform="translate(0,0)"><path class="background" aria-hidden="true" d="M0,0h800v300h-800Z"/><g><g class="mark-area role-mark marks" role="graphics-object" aria-roledescription="area mark container"><path aria-label="Date: Mar 16, 2026; Unique Clones/day: 0; Repository: karlmdavis/stockfighter-trades-solutions" role="graphics-symbol" aria-roledescription="area mark" d="M0,300L36.364,300L72.727,300L109.091,300L145.455,300L181.818,300L218.182,300L254.545,296.667L290.909,298.333L327.273,298.333L363.636,295L400,286.667L436.364,298.333L472.727,295L509.091,295L545.455,295L581.818,293.333L618.182,298.333L654.545,298.333L690.909,290L727.273,298.333L763.636,300L800,300L800,300L763.636,300L727.273,298.333L690.909,291.667L654.545,298.333L618.182,298.333L581.818,293.333L545.455,295L509.091,295L472.727,296.667L436.364,298.333L400,290L363.636,295L327.273,298.333L290.909,298.333L254.545,296.667L218.182,300L181.818,300L145.455,300L109.091,300L72.727,300L36.364,300L0,300Z" fill="#ff9da6"/></g></g><path class="foreground" aria-hidden="true" d="" display="none"/></g><g transform="translate(0,0)"><path class="background" aria-hidden="true" d="M0,0h800v300h-800Z"/><g><g class="mark-area role-mark marks" role="graphics-object" aria-roledescription="area mark container"><path aria-label="Date: Mar 16, 2026; Unique Clones/day: 0; Repository: karlmdavis/test-repo-for-move" role="graphics-symbol" aria-roledescription="area mark" d="M0,300L36.364,300L72.727,300L109.091,300L145.455,300L181.818,300L218.182,300L254.545,296.667L290.909,298.333L327.273,298.333L363.636,295L400,290L436.364,298.333L472.727,296.667L509.091,295L545.455,295L581.818,293.333L618.182,298.333L654.545,298.333L690.909,291.667L727.273,298.333L763.636,300L800,300L800,300L763.636,300L727.273,298.333L690.909,293.333L654.545,298.333L618.182,298.333L581.818,293.333L545.455,295L509.091,295L472.727,298.333L436.364,298.333L400,291.667L363.636,296.667L327.273,298.333L290.909,298.333L254.545,296.667L218.182,300L181.818,300L145.455,300L109.091,300L72.727,300L36.364,300L0,300Z" fill="#9d755d"/></g></g><path class="foreground" aria-hidden="true" d="" display="none"/></g><g transform="translate(0,0)"><path class="background" aria-hidden="true" d="M0,0h800v300h-800Z"/><g><g class="mark-area role-mark marks" role="graphics-object" aria-roledescription="area mark container"><path aria-label="Date: Mar 16, 2026; Unique Clones/day: 0; Repository: karlmdavis/todoist-ai" role="graphics-symbol" aria-roledescription="area mark" d="M0,300L36.364,300L72.727,300L109.091,300L145.455,300L181.818,300L218.182,300L254.545,296.667L290.909,298.333L327.273,298.333L363.636,296.667L400,291.667L436.364,298.333L472.727,298.333L509.091,295L545.455,295L581.818,293.333L618.182,298.333L654.545,298.333L690.909,293.333L727.273,298.333L763.636,300L800,300L800,300L763.636,300L727.273,298.333L690.909,293.333L654.545,298.333L618.182,298.333L581.818,296.667L545.455,295L509.091,295L472.727,298.333L436.364,298.333L400,291.667L363.636,296.667L327.273,298.333L290.909,298.333L254.545,296.667L218.182,300L181.818,300L145.455,300L109.091,300L72.727,300L36.364,300L0,300Z" fill="#bab0ac"/></g></g><path class="foreground" aria-hidden="true" d="" display="none"/></g><g transform="translate(0,0)"><path class="background" aria-hidden="true" d="M0,0h800v300h-800Z"/><g><g class="mark-area role-mark marks" role="graphics-object" aria-roledescription="area mark container"><path aria-label="Date: Mar 16, 2026; Unique Clones/day: 0; Repository: karlmdavis/usgs-water-api-java" role="graphics-symbol" aria-roledescription="area mark" d="M0,300L36.364,300L72.727,300L109.091,300L145.455,300L181.818,300L218.182,300L254.545,296.667L290.909,298.333L327.273,298.333L363.636,296.667L400,291.667L436.364,298.333L472.727,298.333L509.091,295L545.455,295L581.818,296.667L618.182,298.333L654.545,298.333L690.909,293.333L727.273,298.333L763.636,300L800,300L800,300L763.636,300L727.273,300L690.909,296.667L654.545,300L618.182,300L581.818,298.333L545.455,296.667L509.091,298.333L472.727,300L436.364,300L400,295L363.636,300L327.273,300L290.909,300L254.545,300L218.182,300L181.818,300L145.455,300L109.091,300L72.727,300L36.364,300L0,300Z" fill="#4c78a8"/></g></g><path class="foreground" aria-hidden="true" d="" display="none"/></g><g transform="translate(0,0)"><path class="background" aria-hidden="true" d="M0,0h800v300h-800Z"/><g><g class="mark-area role-mark marks" role="graphics-object" aria-roledescription="area mark container"><path aria-label="Date: Mar 16, 2026; Unique Clones/day: 0; Repository: karlmdavis/workstation-base-ansible-role" role="graphics-symbol" aria-roledescription="area mark" d="M0,300L36.364,300L72.727,300L109.091,300L145.455,300L181.818,300L218.182,300L254.545,300L290.909,300L327.273,300L363.636,300L400,295L436.364,300L472.727,300L509.091,298.333L545.455,296.667L581.818,298.333L618.182,300L654.545,300L690.909,296.667L727.273,300L763.636,300L800,300L800,300L763.636,300L727.273,300L690.909,298.333L654.545,300L618.182,300L581.818,300L545.455,298.333L509.091,300L472.727,300L436.364,300L400,298.333L363.636,300L327.273,300L290.909,300L254.545,300L218.182,300L181.818,300L145.455,300L109.091,300L72.727,300L36.364,300L0,300Z" fill="#f58518"/></g></g><path class="foreground" aria-hidden="true" d="" display="none"/></g><g transform="translate(0,0)"><path class="background" aria-hidden="true" d="M0,0h800v300h-800Z"/><g><g class="mark-area role-mark marks" role="graphics-object" aria-roledescription="area mark container"><path aria-label="Date: Mar 16, 2026; Unique Clones/day: 0; Repository: karlmdavis/xmlpull" role="graphics-symbol" aria-roledescription="area mark" d="M0,300L36.364,300L72.727,300L109.091,300L145.455,300L181.818,300L218.182,300L254.545,300L290.909,300L327.273,300L363.636,300L400,298.333L436.364,300L472.727,300L509.091,300L545.455,298.333L581.818,300L618.182,300L654.545,300L690.909,298.333L727.273,300L763.636,300L800,300L800,300L763.636,300L727.273,300L690.909,300L654.545,300L618.182,300L581.818,300L545.455,300L509.091,300L472.727,300L436.364,300L400,300L363.636,300L327.273,300L290.909,300L254.545,300L218.182,300L181.818,300L145.455,300L109.091,300L72.727,300L36.364,300L0,300Z" fill="#e45756"/></g></g><path class="foreground" aria-hidden="true" d="" display="none"/></g></g><g class="mark-group role-legend" role="graphics-symbol" aria-roledescription="legend" aria-label="Symbol legend titled 'Repository' for fill color with 43 values: justdavis-family/github-analytics-data, justdavis-family/justdavis, karlmdavis/FHIR-Server, karlmdavis/ansible, karlmdavis/ansible-jenkins, ending with karlmdavis/xmlpull"><g transform="translate(818,0)"><path class="background" aria-hidden="true" d="M0,0h176v404h-176Z" pointer-events="none"/><g><g class="mark-group role-legend-entry"><g transform="translate(0,16)"><path class="background" aria-hidden="true" d="M0,0h0v0h0Z" pointer-events="none"/><g><g class="mark-group role-scope" role="graphics-object" aria-roledescription="group mark container"><g transform="translate(0,0)"><path class="background" aria-hidden="true" d="M0,0h176v11h-176Z" pointer-events="none" opacity="1"/><g><g class="mark-symbol role-legend-symbol" pointer-events="none"><path transform="translate(6,6)" d="M5,0A5,5,0,1,1,-5,0A5,5,0,1,1,5,0" fill="#4c78a8" stroke-width="1.5" opacity="1"/></g><g class="mark-text role-legend-label" pointer-events="none"><text text-anchor="start" transform="translate(16,9)" font-family="sans-serif" font-size="10px" fill="#000" opacity="1">justdavis-family/github-analytics-d…</text></g></g><path class="foreground" aria-hidden="true" d="" pointer-events="none" display="none"/></g><g transform="translate(0,13)"><path class="background" aria-hidden="true" d="M0,0h176v11h-176Z" pointer-events="none" opacity="1"/><g><g class="mark-symbol role-legend-symbol" pointer-events="none"><path transform="translate(6,6)" d="M5,0A5,5,0,1,1,-5,0A5,5,0,1,1,5,0" fill="#f58518" stroke-width="1.5" opacity="1"/></g><g class="mark-text role-legend-label" pointer-events="none"><text text-anchor="start" transform="translate(16,9)" font-family="sans-serif" font-size="10px" fill="#000" opacity="1">justdavis-family/justdavis</text></g></g><path class="foreground" aria-hidden="true" d="" pointer-events="none" display="none"/></g><g transform="translate(0,26)"><path class="background" aria-hidden="true" d="M0,0h176v11h-176Z" pointer-events="none" opacity="1"/><g><g class="mark-symbol role-legend-symbol" pointer-events="none"><path transform="translate(6,6)" d="M5,0A5,5,0,1,1,-5,0A5,5,0,1,1,5,0" fill="#e45756" stroke-width="1.5" opacity="1"/></g><g class="mark-text role-legend-label" pointer-events="none"><text text-anchor="start" transform="translate(16,9)" font-family="sans-serif" font-size="10px" fill="#000" opacity="1">karlmdavis/FHIR-Server</text></g></g><path class="foreground" aria-hidden="true" d="" pointer-events="none" display="none"/></g><g transform="translate(0,39)"><path class="background" aria-hidden="true" d="M0,0h176v11h-176Z" pointer-events="none" opacity="1"/><g><g class="mark-symbol role-legend-symbol" pointer-events="none"><path transform="translate(6,6)" d="M5,0A5,5,0,1,1,-5,0A5,5,0,1,1,5,0" fill="#72b7b2" stroke-width="1.5" opacity="1"/></g><g class="mark-text role-legend-label" pointer-events="none"><text text-anchor="start" transform="translate(16,9)" font-family="sans-serif" font-size="10px" fill="#000" opacity="1">karlmdavis/ansible</text></g></g><path class="foreground" aria-hidden="true" d="" pointer-events="none" display="none"/></g><g transform="translate(0,52)"><path class="background" aria-hidden="true" d="M0,0h176v11h-176Z" pointer-events="none" opacity="1"/><g><g class="mark-symbol role-legend-symbol" pointer-events="none"><path transform="translate(6,6)" d="M5,0A5,5,0,1,1,-5,0A5,5,0,1,1,5,0" fill="#54a24b" stroke-width="1.5" opacity="1"/></g><g class="mark-text role-legend-label" pointer-events="none"><text text-anchor="start" transform="translate(16,9)" font-family="sans-serif" font-size="10px" fill="#000" opacity="1">karlmdavis/ansible-jenkins</text></g></g><path class="foreground" aria-hidden="true" d="" pointer-events="none" display="none"/></g><g transform="translate(0,65)"><path class="background" aria-hidden="true" d="M0,0h176v11h-176Z" pointer-events="none" opacity="1"/><g><g class="mark-symbol role-legend-symbol" pointer-events="none"><path transform="translate(6,6)" d="M5,0A5,5,0,1,1,-5,0A5,5,0,1,1,5,0" fill="#eeca3b" stroke-width="1.5" opacity="1"/></g><g class="mark-text role-legend-label" pointer-events="none"><text text-anchor="start" transform="translate(16,9)" font-family="sans-serif" font-size="10px" fill="#000" opacity="1">karlmdavis/ansible-role-acmetool</text></g></g><path class="foreground" aria-hidden="true" d="" pointer-events="none" display="none"/></g><g transform="translate(0,78)"><path class="background" aria-hidden="true" d="M0,0h176v11h-176Z" pointer-events="none" opacity="1"/><g><g class="mark-symbol role-legend-symbol" pointer-events="none"><path transform="translate(6,6)" d="M5,0A5,5,0,1,1,-5,0A5,5,0,1,1,5,0" fill="#b279a2" stroke-width="1.5" opacity="1"/></g><g class="mark-text role-legend-label" pointer-events="none"><text text-anchor="start" transform="translate(16,9)" font-family="sans-serif" font-size="10px" fill="#000" opacity="1">karlmdavis/ansible-role-bind-dns</text></g></g><path class="foreground" aria-hidden="true" d="" pointer-events="none" display="none"/></g><g transform="translate(0,91)"><path class="background" aria-hidden="true" d="M0,0h176v11h-176Z" pointer-events="none" opacity="1"/><g><g class="mark-symbol role-legend-symbol" pointer-events="none"><path transform="translate(6,6)" d="M5,0A5,5,0,1,1,-5,0A5,5,0,1,1,5,0" fill="#ff9da6" stroke-width="1.5" opacity="1"/></g><g class="mark-text role-legend-label" pointer-events="none"><text text-anchor="start" transform="translate(16,9)" font-family="sans-serif" font-size="10px" fill="#000" opacity="1">karlmdavis/ansible-role-jenkins2</text></g></g><path class="foreground" aria-hidden="true" d="" pointer-events="none" display="none"/></g><g transform="translate(0,104)"><path class="background" aria-hidden="true" d="M0,0h176v11h-176Z" pointer-events="none" opacity="1"/><g><g class="mark-symbol role-legend-symbol" pointer-events="none"><path transform="translate(6,6)" d="M5,0A5,5,0,1,1,-5,0A5,5,0,1,1,5,0" fill="#9d755d" stroke-width="1.5" opacity="1"/></g><g class="mark-text role-legend-label" pointer-events="none"><text text-anchor="start" transform="translate(16,9)" font-family="sans-serif" font-size="10px" fill="#000" opacity="1">karlmdavis/ansible-role-ldap</text></g></g><path class="foreground" aria-hidden="true" d="" pointer-events="none" display="none"/></g><g transform="translate(0,117)"><path class="background" aria-hidden="true" d="M0,0h176v11h-176Z" pointer-events="none" opacity="1"/><g><g class="mark-symbol role-legend-symbol" pointer-events="none"><path transform="translate(6,6)" d="M5,0A5,5,0,1,1,-5,0A5,5,0,1,1,5,0" fill="#bab0ac" stroke-width="1.5" opacity="1"/></g><g class="mark-text role-legend-label" pointer-events="none"><text text-anchor="start" transform="translate(16,9)" font-family="sans-serif" font-size="10px" fill="#000" opacity="1">karlmdavis/ansible-role-rcm-dotfiles</text></g></g><path class="foreground" aria-hidden="true" d="" pointer-events="none" display="none"/></g><g transform="translate(0,130)"><path class="background" aria-hidden="true" d="M0,0h176v11h-176Z" pointer-events="none" opacity="1"/><g><g class="mark-symbol role-legend-symbol" pointer-events="none"><path transform="translate(6,6)" d="M5,0A5,5,0,1,1,-5,0A5,5,0,1,1,5,0" fill="#4c78a8" stroke-width="1.5" opacity="1"/></g><g class="mark-text role-legend-label" pointer-events="none"><text text-anchor="start" transform="translate(16,9)" font-family="sans-serif" font-size="10px" fill="#000" opacity="1">karlmdavis/ansible-roles</text></g></g><path class="foreground" aria-hidden="true" d="" pointer-events="none" display="none"/></g><g transform="translate(0,143)"><path class="background" aria-hidden="true" d="M0,0h176v11h-176Z" pointer-events="none" opacity="1"/><g><g class="mark-symbol role-legend-symbol" pointer-events="none"><path transform="translate(6,6)" d="M5,0A5,5,0,1,1,-5,0A5,5,0,1,1,5,0" fill="#f58518" stroke-width="1.5" opacity="1"/></g><g class="mark-text role-legend-label" pointer-events="none"><text text-anchor="start" transform="translate(16,9)" font-family="sans-serif" font-size="10px" fill="#000" opacity="1">karlmdavis/bbonfhir-dev-infra-doc…</text></g></g><path class="foreground" aria-hidden="true" d="" pointer-events="none" display="none"/></g><g transform="translate(0,156)"><path class="background" aria-hidden="true" d="M0,0h176v11h-176Z" pointer-events="none" opacity="1"/><g><g class="mark-symbol role-legend-symbol" pointer-events="none"><path transform="translate(6,6)" d="M5,0A5,5,0,1,1,-5,0A5,5,0,1,1,5,0" fill="#e45756" stroke-width="1.5" opacity="1"/></g><g class="mark-text role-legend-label" pointer-events="none"><text text-anchor="start" transform="translate(16,9)" font-family="sans-serif" font-size="10px" fill="#000" opacity="1">karlmdavis/can-i-kayak-baltimore</text></g></g><path class="foreground" aria-hidden="true" d="" pointer-events="none" display="none"/></g><g transform="translate(0,169)"><path class="background" aria-hidden="true" d="M0,0h176v11h-176Z" pointer-events="none" opacity="1"/><g><g class="mark-symbol role-legend-symbol" pointer-events="none"><path transform="translate(6,6)" d="M5,0A5,5,0,1,1,-5,0A5,5,0,1,1,5,0" fill="#72b7b2" stroke-width="1.5" opacity="1"/></g><g class="mark-text role-legend-label" pointer-events="none"><text text-anchor="start" transform="translate(16,9)" font-family="sans-serif" font-size="10px" fill="#000" opacity="1">karlmdavis/datanucleus-test-jdo-1…</text></g></g><path class="foreground" aria-hidden="true" d="" pointer-events="none" display="none"/></g><g transform="translate(0,182)"><path class="background" aria-hidden="true" d="M0,0h176v11h-176Z" pointer-events="none" opacity="1"/><g><g class="mark-symbol role-legend-symbol" pointer-events="none"><path transform="translate(6,6)" d="M5,0A5,5,0,1,1,-5,0A5,5,0,1,1,5,0" fill="#54a24b" stroke-width="1.5" opacity="1"/></g><g class="mark-text role-legend-label" pointer-events="none"><text text-anchor="start" transform="translate(16,9)" font-family="sans-serif" font-size="10px" fill="#000" opacity="1">karlmdavis/dotfiles</text></g></g><path class="foreground" aria-hidden="true" d="" pointer-events="none" display="none"/></g><g transform="translate(0,195)"><path class="background" aria-hidden="true" d="M0,0h176v11h-176Z" pointer-events="none" opacity="1"/><g><g class="mark-symbol role-legend-symbol" pointer-events="none"><path transform="translate(6,6)" d="M5,0A5,5,0,1,1,-5,0A5,5,0,1,1,5,0" fill="#eeca3b" stroke-width="1.5" opacity="1"/></g><g class="mark-text role-legend-label" pointer-events="none"><text text-anchor="start" transform="translate(16,9)" font-family="sans-serif" font-size="10px" fill="#000" opacity="1">karlmdavis/fhir-benchmarks</text></g></g><path class="foreground" aria-hidden="true" d="" pointer-events="none" display="none"/></g><g transform="translate(0,208)"><path class="background" aria-hidden="true" d="M0,0h176v11h-176Z" pointer-events="none" opacity="1"/><g><g class="mark-symbol role-legend-symbol" pointer-events="none"><path transform="translate(6,6)" d="M5,0A5,5,0,1,1,-5,0A5,5,0,1,1,5,0" fill="#b279a2" stroke-width="1.5" opacity="1"/></g><g class="mark-text role-legend-label" pointer-events="none"><text text-anchor="start" transform="translate(16,9)" font-family="sans-serif" font-size="10px" fill="#000" opacity="1">karlmdavis/hapi-fhir-jpaserver-sta…</text></g></g><path class="foreground" aria-hidden="true" d="" pointer-events="none" display="none"/></g><g transform="translate(0,221)"><path class="background" aria-hidden="true" d="M0,0h176v11h-176Z" pointer-events="none" opacity="1"/><g><g class="mark-symbol role-legend-symbol" pointer-events="none"><path transform="translate(6,6)" d="M5,0A5,5,0,1,1,-5,0A5,5,0,1,1,5,0" fill="#ff9da6" stroke-width="1.5" opacity="1"/></g><g class="mark-text role-legend-label" pointer-events="none"><text text-anchor="start" transform="translate(16,9)" font-family="sans-serif" font-size="10px" fill="#000" opacity="1">karlmdavis/hello-rust-actix</text></g></g><path class="foreground" aria-hidden="true" d="" pointer-events="none" display="none"/></g><g transform="translate(0,234)"><path class="background" aria-hidden="true" d="M0,0h176v11h-176Z" pointer-events="none" opacity="1"/><g><g class="mark-symbol role-legend-symbol" pointer-events="none"><path transform="translate(6,6)" d="M5,0A5,5,0,1,1,-5,0A5,5,0,1,1,5,0" fill="#9d755d" stroke-width="1.5" opacity="1"/></g><g class="mark-text role-legend-label" pointer-events="none"><text text-anchor="start" transform="translate(16,9)" font-family="sans-serif" font-size="10px" fill="#000" opacity="1">karlmdavis/jessentials</text></g></g><path class="foreground" aria-hidden="true" d="" pointer-events="none" display="none"/></g><g transform="translate(0,247)"><path class="background" aria-hidden="true" d="M0,0h176v11h-176Z" pointer-events="none" opacity="1"/><g><g class="mark-symbol role-legend-symbol" pointer-events="none"><path transform="translate(6,6)" d="M5,0A5,5,0,1,1,-5,0A5,5,0,1,1,5,0" fill="#bab0ac" stroke-width="1.5" opacity="1"/></g><g class="mark-text role-legend-label" pointer-events="none"><text text-anchor="start" transform="translate(16,9)" font-family="sans-serif" font-size="10px" fill="#000" opacity="1">karlmdavis/justdavis-ansible</text></g></g><path class="foreground" aria-hidden="true" d="" pointer-events="none" display="none"/></g><g transform="translate(0,260)"><path class="background" aria-hidden="true" d="M0,0h176v11h-176Z" pointer-events="none" opacity="1"/><g><g class="mark-symbol role-legend-symbol" pointer-events="none"><path transform="translate(6,6)" d="M5,0A5,5,0,1,1,-5,0A5,5,0,1,1,5,0" fill="#4c78a8" stroke-width="1.5" opacity="1"/></g><g class="mark-text role-legend-label" pointer-events="none"><text text-anchor="start" transform="translate(16,9)" font-family="sans-serif" font-size="10px" fill="#000" opacity="1">karlmdavis/justdavis-finances</text></g></g><path class="foreground" aria-hidden="true" d="" pointer-events="none" display="none"/></g><g transform="translate(0,273)"><path class="background" aria-hidden="true" d="M0,0h176v11h-176Z" pointer-events="none" opacity="1"/><g><g class="mark-symbol role-legend-symbol" pointer-events="none"><path transform="translate(6,6)" d="M5,0A5,5,0,1,1,-5,0A5,5,0,1,1,5,0" fill="#f58518" stroke-width="1.5" opacity="1"/></g><g class="mark-text role-legend-label" pointer-events="none"><text text-anchor="start" transform="translate(16,9)" font-family="sans-serif" font-size="10px" fill="#000" opacity="1">karlmdavis/justdavis-karl</text></g></g><path class="foreground" aria-hidden="true" d="" pointer-events="none" display="none"/></g><g transform="translate(0,286)"><path class="background" aria-hidden="true" d="M0,0h176v11h-176Z" pointer-events="none" opacity="1"/><g><g class="mark-symbol role-legend-symbol" pointer-events="none"><path transform="translate(6,6)" d="M5,0A5,5,0,1,1,-5,0A5,5,0,1,1,5,0" fill="#e45756" stroke-width="1.5" opacity="1"/></g><g class="mark-text role-legend-label" pointer-events="none"><text text-anchor="start" transform="translate(16,9)" font-family="sans-serif" font-size="10px" fill="#000" opacity="1">karlmdavis/justdavis-puppet</text></g></g><path class="foreground" aria-hidden="true" d="" pointer-events="none" display="none"/></g><g transform="translate(0,299)"><path class="background" aria-hidden="true" d="M0,0h176v11h-176Z" pointer-events="none" opacity="1"/><g><g class="mark-symbol role-legend-symbol" pointer-events="none"><path transform="translate(6,6)" d="M5,0A5,5,0,1,1,-5,0A5,5,0,1,1,5,0" fill="#72b7b2" stroke-width="1.5" opacity="1"/></g><g class="mark-text role-legend-label" pointer-events="none"><text text-anchor="start" transform="translate(16,9)" font-family="sans-serif" font-size="10px" fill="#000" opacity="1">karlmdavis/kobjects</text></g></g><path class="foreground" aria-hidden="true" d="" pointer-events="none" display="none"/></g><g transform="translate(0,312)"><path class="background" aria-hidden="true" d="M0,0h176v11h-176Z" pointer-events="none" opacity="1"/><g><g class="mark-symbol role-legend-symbol" pointer-events="none"><path transform="translate(6,6)" d="M5,0A5,5,0,1,1,-5,0A5,5,0,1,1,5,0" fill="#54a24b" stroke-width="1.5" opacity="1"/></g><g class="mark-text role-legend-label" pointer-events="none"><text text-anchor="start" transform="translate(16,9)" font-family="sans-serif" font-size="10px" fill="#000" opacity="1">karlmdavis/ksoap2-android</text></g></g><path class="foreground" aria-hidden="true" d="" pointer-events="none" display="none"/></g><g transform="translate(0,325)"><path class="background" aria-hidden="true" d="M0,0h176v11h-176Z" pointer-events="none" opacity="1"/><g><g class="mark-symbol role-legend-symbol" pointer-events="none"><path transform="translate(6,6)" d="M5,0A5,5,0,1,1,-5,0A5,5,0,1,1,5,0" fill="#eeca3b" stroke-width="1.5" opacity="1"/></g><g class="mark-text role-legend-label" pointer-events="none"><text text-anchor="start" transform="translate(16,9)" font-family="sans-serif" font-size="10px" fill="#000" opacity="1">karlmdavis/kxml2</text></g></g><path class="foreground" aria-hidden="true" d="" pointer-events="none" display="none"/></g><g transform="translate(0,338)"><path class="background" aria-hidden="true" d="M0,0h176v11h-176Z" pointer-events="none" opacity="1"/><g><g class="mark-symbol role-legend-symbol" pointer-events="none"><path transform="translate(6,6)" d="M5,0A5,5,0,1,1,-5,0A5,5,0,1,1,5,0" fill="#b279a2" stroke-width="1.5" opacity="1"/></g><g class="mark-text role-legend-label" pointer-events="none"><text text-anchor="start" transform="translate(16,9)" font-family="sans-serif" font-size="10px" fill="#000" opacity="1">karlmdavis/ldap-plugin</text></g></g><path class="foreground" aria-hidden="true" d="" pointer-events="none" display="none"/></g><g transform="translate(0,351)"><path class="background" aria-hidden="true" d="M0,0h176v11h-176Z" pointer-events="none" opacity="1"/><g><g class="mark-symbol role-legend-symbol" pointer-events="none"><path transform="translate(6,6)" d="M5,0A5,5,0,1,1,-5,0A5,5,0,1,1,5,0" fill="#ff9da6" stroke-width="1.5" opacity="1"/></g><g class="mark-text role-legend-label" pointer-events="none"><text text-anchor="start" transform="translate(16,9)" font-family="sans-serif" font-size="10px" fill="#000" opacity="1">karlmdavis/lego-ev3dev-rs</text></g></g><path class="foreground" aria-hidden="true" d="" pointer-events="none" display="none"/></g><g transform="translate(0,364)"><path class="background" aria-hidden="true" d="M0,0h176v11h-176Z" pointer-events="none" opacity="1"/><g><g class="mark-symbol role-legend-symbol" pointer-events="none"><path transform="translate(6,6)" d="M5,0A5,5,0,1,1,-5,0A5,5,0,1,1,5,0" fill="#9d755d" stroke-width="1.5" opacity="1"/></g><g class="mark-text role-legend-label" pointer-events="none"><text text-anchor="start" transform="translate(16,9)" font-family="sans-serif" font-size="10px" fill="#000" opacity="1">karlmdavis/liquibase</text></g></g><path class="foreground" aria-hidden="true" d="" pointer-events="none" display="none"/></g><g transform="translate(0,377)"><path class="background" aria-hidden="true" d="M0,0h176v11h-176Z" pointer-events="none" opacity="1"/><g><g class="mark-symbol role-legend-symbol" pointer-events="none"><path transform="translate(6,6)" d="M5,0A5,5,0,1,1,-5,0A5,5,0,1,1,5,0" fill="#bab0ac" stroke-width="1.5" opacity="1"/></g><g class="mark-text role-legend-label" pointer-events="none"><text text-anchor="start" transform="translate(16,9)" font-family="sans-serif" font-size="10px" fill="#000" opacity="1">…14 entries</text></g></g><path class="foreground" aria-hidden="true" d="" pointer-events="none" display="none"/></g></g></g><path class="foreground" aria-hidden="true" d="" pointer-events="none" display="none"/></g></g><g class="mark-text role-legend-title" pointer-events="none"><text text-anchor="start" transform="translate(0,9)" font-family="sans-serif" font-size="11px" font-weight="bold" fill="#000" opacity="1">Repository</text></g></g><path class="foreground" aria-hidden="true" d="" pointer-events="none" display="none"/></g></g><g class="mark-group role-title"><g transform="translate(400,-22)"><path class="background" aria-hidden="true" d="M0,0h0v0h0Z" pointer-events="none"/><g><g class="mark-text role-title-text" role="graphics-symbol" aria-roledescription="title" aria-label="Title text 'Unique Clones per Day'" pointer-events="none"><text text-anchor="middle" transform="translate(0,10)" font-family="sans-serif" font-size="13px" font-weight="bold" fill="#000" opacity="1">Unique Clones per Day</text></g></g><path class="foreground" aria-hidden="true" d="" pointer-events="none" display="none"/></g></g></g><path class="foreground" aria-hidden="true" d="" display="none"/></g></g></g></svg>