<svg xmlns="http://www.w3.org/2000/svg" xmlns:xlink="http://www.w3.org/1999/xlink" version="1.1" class="marks" width="1043" height="436" viewBox="0 0 1043 436"><rect width="1043" height="436" fill="white"/><g fill="none" stroke-miterlimit="10" transform="translate(44,27)"><g class="mark-group role-frame root" role="graphics-object" aria-roledescription="group mark container"><g transform="translate(0,0)"><path class="background" aria-hidden="true" d="M0.5,0.5h800v300h-800Z" stroke="#ddd"/><g><g class="mark-group role-axis" aria-hidden="true"><g transform="translate(0.5,300.5)"><path class="background" aria-hidden="true" d="M0,0h0v0h0Z" pointer-events="none"/><g><g class="mark-rule role-axis-grid" pointer-events="none"><line transform="translate(23,-300)" x2="0" y2="300" stroke="#ddd" stroke-width="1" opacity="1"/><line transform="translate(69,-300)" x2="0" y2="300" stroke="#ddd" stroke-width="1" opacity="1"/><line transform="translate(114,-300)" x2="0" y2="300" stroke="#ddd" stroke-width="1" opacity="1"/><line transform="translate(160,-300)" x2="0" y2="300" stroke="#ddd" stroke-width="1" opacity="1"/><line transform="translate(206,-300)" x2="0" y2="300" stroke="#ddd" stroke-width="1" opacity="1"/><line transform="translate(251,-300)" x2="0" y2="300" stroke="#ddd" stroke-width="1" opacity="1"/><line transform="translate(297,-300)" x2="0" y2="300" stroke="#ddd" stroke-width="1" opacity="1"/><line transform="translate(343,-300)" x2="0" y2="300" stroke="#ddd" stroke-width="1" opacity="1"/><line transform="translate(366,-300)" x2="0" y2="300" stroke="#ddd" stroke-width="1" opacity="1"/><line transform="translate(411,-300)" x2="0" y2="300" stroke="#ddd" stroke-width="1" opacity="1"/><line transform="translate(457,-300)" x2="0" y2="300" stroke="#ddd" stroke-width="1" opacity="1"/><line transform="translate(503,-300)" x2="0" y2="300" stroke="#ddd" stroke-width="1" opacity="1"/><line transform="translate(549,-300)" x2="0" y2="300" stroke="#ddd" stroke-width="1" opacity="1"/><line transform="translate(594,-300)" x2="0" y2="300" stroke="#ddd" stroke-width="1" opacity="1"/><line transform="translate(640,-300)" x2="0" y2="300" stroke="#ddd" stroke-width="1" opacity="1"/><line transform="translate(686,-300)" x2="0" y2="300" stroke="#ddd" stroke-width="1" opacity="1"/><line transform="translate(731,-300)" x2="0" y2="300" stroke="#ddd" stroke-width="1" opacity="1"/><line transform="translate(777,-300)" x2="0" y2="300" stroke="#ddd" stroke-width="1" opacity="1"/></g></g><path class="foreground" aria-hidden="true" d="" pointer-events="none" display="none"/></g></g><g class="mark-group role-axis" aria-hidden="true"><g transform="translate(0.5,0.5)"><path class="background" aria-hidden="true" d="M0,0h0v0h0Z" pointer-events="none"/><g><g class="mark-rule role-axis-grid" pointer-events="none"><line transform="translate(0,300)" x2="800" y2="0" stroke="#ddd" stroke-width="1" opacity="1"/><line transform="translate(0,273)" x2="800" y2="0" stroke="#ddd" stroke-width="1" opacity="1"/><line transform="translate(0,245)" x2="800" y2="0" stroke="#ddd" stroke-width="1" opacity="1"/><line transform="translate(0,218)" x2="800" y2="0" stroke="#ddd" stroke-width="1" opacity="1"/><line transform="translate(0,191)" x2="800" y2="0" stroke="#ddd" stroke-width="1" opacity="1"/><line transform="translate(0,164)" x2="800" y2="0" stroke="#ddd" stroke-width="1" opacity="1"/><line transform="translate(0,136)" x2="800" y2="0" stroke="#ddd" stroke-width="1" opacity="1"/><line transform="translate(0,109)" x2="800" y2="0" stroke="#ddd" stroke-width="1" opacity="1"/><line transform="translate(0,82)" x2="800" y2="0" stroke="#ddd" stroke-width="1" opacity="1"/><line transform="translate(0,55)" x2="800" y2="0" stroke="#ddd" stroke-width="1" opacity="1"/><line transform="translate(0,27)" x2="800" y2="0" stroke="#ddd" stroke-width="1" opacity="1"/><line transform="translate(0,0)" x2="800" y2="0" stroke="#ddd" stroke-width="1" opacity="1"/></g></g><path class="foreground" aria-hidden="true" d="" pointer-events="none" display="none"/></g></g><g class="mark-group role-axis" role="graphics-symbol" aria-roledescription="axis" aria-label="X-axis titled 'Date' for a time scale with values from Monday, 16 March 2026, 12:00:00 AM to Monday, 20 April 2026, 12:00:00 AM"><g transform="translate(0.5,300.5)"><path class="background" aria-hidden="true" d="M0,0h0v0h0Z" pointer-events="none"/><g><g class="mark-rule role-axis-tick" pointer-events="none"><line transform="translate(23,0)" x2="0" y2="5" stroke="#888" stroke-width="1" opacity="1"/><line transform="translate(69,0)" x2="0" y2="5" stroke="#888" stroke-width="1" opacity="1"/><line transform="translate(114,0)" x2="0" y2="5" stroke="#888" stroke-width="1" opacity="1"/><line transform="translate(160,0)" x2="0" y2="5" stroke="#888" stroke-width="1" opacity="1"/><line transform="translate(206,0)" x2="0" y2="5" stroke="#888" stroke-width="1" opacity="1"/><line transform="translate(251,0)" x2="0" y2="5" stroke="#888" stroke-width="1" opacity="1"/><line transform="translate(297,0)" x2="0" y2="5" stroke="#888" stroke-width="1" opacity="1"/><line transform="translate(343,0)" x2="0" y2="5" stroke="#888" stroke-width="1" opacity="1"/><line transform="translate(366,0)" x2="0" y2="5" stroke="#888" stroke-width="1" opacity="1"/><line transform="translate(411,0)" x2="0" y2="5" stroke="#888" stroke-width="1" opacity="1"/><line transform="translate(457,0)" x2="0" y2="5" stroke="#888" stroke-width="1" opacity="1"/><line transform="translate(503,0)" x2="0" y2="5" stroke="#888" stroke-width="1" opacity="1"/><line transform="translate(549,0)" x2="0" y2="5" stroke="#888" stroke-width="1" opacity="1"/><line transform="translate(594,0)" x2="0" y2="5" stroke="#888" stroke-width="1" opacity="1"/><line transform="translate(640,0)" x2="0" y2="5" stroke="#888" stroke-width="1" opacity="1"/><line transform="translate(686,0)" x2="0" y2="5" stroke="#888" stroke-width="1" opacity="1"/><line transform="translate(731,0)" x2="0" y2="5" stroke="#888" stroke-width="1" opacity="1"/><line transform="translate(777,0)" x2="0" y2="5" stroke="#888" stroke-width="1" opacity="1"/></g><g class="mark-text role-axis-label" pointer-events="none"><text text-anchor="middle" transform="translate(22.857142857142858,15)" font-family="sans-serif" font-size="10px" fill="#000" opacity="1">Tue 17</text><text text-anchor="middle" transform="translate(68.57142857142857,15)" font-family="sans-serif" font-size="10px" fill="#000" opacity="0">Thu 19</text><text text-anchor="middle" transform="translate(114.28571428571428,15)" font-family="sans-serif" font-size="10px" fill="#000" opacity="1">Sat 21</text><text text-anchor="middle" transform="translate(160,15)" font-family="sans-serif" font-size="10px" fill="#000" opacity="0">Mon 23</text><text text-anchor="middle" transform="translate(205.7142857142857,15)" font-family="sans-serif" font-size="10px" fill="#000" opacity="1">Wed 25</text><text text-anchor="middle" transform="translate(251.42857142857142,15)" font-family="sans-serif" font-size="10px" fill="#000" opacity="0">Fri 27</text><text text-anchor="middle" transform="translate(297.14285714285717,15)" font-family="sans-serif" font-size="10px" fill="#000" opacity="1">Mar 29</text><text text-anchor="middle" transform="translate(342.85714285714283,15)" font-family="sans-serif" font-size="10px" fill="#000" opacity="0">Tue 31</text><text text-anchor="middle" transform="translate(365.7142857142857,15)" font-family="sans-serif" font-size="10px" fill="#000" opacity="1">April</text><text text-anchor="middle" transform="translate(411.4285714285714,15)" font-family="sans-serif" font-size="10px" fill="#000" opacity="0">Fri 03</text><text text-anchor="middle" transform="translate(457.1428571428571,15)" font-family="sans-serif" font-size="10px" fill="#000" opacity="1">Apr 05</text><text text-anchor="middle" transform="translate(502.85714285714283,15)" font-family="sans-serif" font-size="10px" fill="#000" opacity="0">Tue 07</text><text text-anchor="middle" transform="translate(548.5714285714286,15)" font-family="sans-serif" font-size="10px" fill="#000" opacity="1">Thu 09</text><text text-anchor="middle" transform="translate(594.2857142857143,15)" font-family="sans-serif" font-size="10px" fill="#000" opacity="0">Sat 11</text><text text-anchor="middle" transform="translate(640,15)" font-family="sans-serif" font-size="10px" fill="#000" opacity="1">Mon 13</text><text text-anchor="middle" transform="translate(685.7142857142857,15)" font-family="sans-serif" font-size="10px" fill="#000" opacity="0">Wed 15</text><text text-anchor="middle" transform="translate(731.4285714285714,15)" font-family="sans-serif" font-size="10px" fill="#000" opacity="1">Fri 17</text><text text-anchor="middle" transform="translate(777.1428571428571,15)" font-family="sans-serif" font-size="10px" fill="#000" opacity="0">Apr 19</text></g><g class="mark-rule role-axis-domain" pointer-events="none"><line transform="translate(0,0)" x2="800" y2="0" stroke="#888" stroke-width="1" opacity="1"/></g><g class="mark-text role-axis-title" pointer-events="none"><text text-anchor="middle" transform="translate(400,30)" font-family="sans-serif" font-size="11px" font-weight="bold" fill="#000" opacity="1">Date</text></g></g><path class="foreground" aria-hidden="true" d="" pointer-events="none" display="none"/></g></g><g class="mark-group role-axis" role="graphics-symbol" aria-roledescription="axis" aria-label="Y-axis titled 'Unique Clones/day' for a linear scale with values from 0 to 220"><g transform="translate(0.5,0.5)"><path class="background" aria-hidden="true" d="M0,0h0v0h0Z" pointer-events="none"/><g><g class="mark-rule role-axis-tick" pointer-events="none"><line transform="translate(0,300)" x2="-5" y2="0" stroke="#888" stroke-width="1" opacity="1"/><line transform="translate(0,273)" x2="-5" y2="0" stroke="#888" stroke-width="1" opacity="1"/><line transform="translate(0,245)" x2="-5" y2="0" stroke="#888" stroke-width="1" opacity="1"/><line transform="translate(0,218)" x2="-5" y2="0" stroke="#888" stroke-width="1" opacity="1"/><line transform="translate(0,191)" x2="-5" y2="0" stroke="#888" stroke-width="1" opacity="1"/><line transform="translate(0,164)" x2="-5" y2="0" stroke="#888" stroke-width="1" opacity="1"/><line transform="translate(0,136)" x2="-5" y2="0" stroke="#888" stroke-width="1" opacity="1"/><line transform="translate(0,109)" x2="-5" y2="0" stroke="#888" stroke-width="1" opacity="1"/><line transform="translate(0,82)" x2="-5" y2="0" stroke="#888" stroke-width="1" opacity="1"/><line transform="translate(0,55)" x2="-5" y2="0" stroke="#888" stroke-width="1" opacity="1"/><line transform="translate(0,27)" x2="-5" y2="0" stroke="#888" stroke-width="1" opacity="1"/><line transform="translate(0,0)" x2="-5" y2="0" stroke="#888" stroke-width="1" opacity="1"/></g><g class="mark-text role-axis-label" pointer-events="none"><text text-anchor="end" transform="translate(-7,303)" font-family="sans-serif" font-size="10px" fill="#000" opacity="1">0</text><text text-anchor="end" transform="translate(-7,275.7272727272727)" font-family="sans-serif" font-size="10px" fill="#000" opacity="1">20</text><text text-anchor="end" transform="translate(-7,248.45454545454544)" font-family="sans-serif" font-size="10px" fill="#000" opacity="1">40</text><text text-anchor="end" transform="translate(-7,221.1818181818182)" font-family="sans-serif" font-size="10px" fill="#000" opacity="1">60</text><text text-anchor="end" transform="translate(-7,193.9090909090909)" font-family="sans-serif" font-size="10px" fill="#000" opacity="1">80</text><text text-anchor="end" transform="translate(-7,166.63636363636363)" font-family="sans-serif" font-size="10px" fill="#000" opacity="1">100</text><text text-anchor="end" transform="translate(-7,139.36363636363637)" font-family="sans-serif" font-size="10px" fill="#000" opacity="1">120</text><text text-anchor="end" transform="translate(-7,112.0909090909091)" font-family="sans-serif" font-size="10px" fill="#000" opacity="1">140</text><text text-anchor="end" transform="translate(-7,84.81818181818181)" font-family="sans-serif" font-size="10px" fill="#000" opacity="1">160</text><text text-anchor="end" transform="translate(-7,57.54545454545453)" font-family="sans-serif" font-size="10px" fill="#000" opacity="1">180</text><text text-anchor="end" transform="translate(-7,30.27272727272728)" font-family="sans-serif" font-size="10px" fill="#000" opacity="1">200</text><text text-anchor="end" transform="translate(-7,3)" font-family="sans-serif" font-size="10px" fill="#000" opacity="1">220</text></g><g class="mark-rule role-axis-domain" pointer-events="none"><line transform="translate(0,300)" x2="0" y2="-300" stroke="#888" stroke-width="1" opacity="1"/></g><g class="mark-text role-axis-title" pointer-events="none"><text text-anchor="middle" transform="translate(-27.6845703125,150) rotate(-90) translate(0,-2)" font-family="sans-serif" font-size="11px" font-weight="bold" fill="#000" opacity="1">Unique Clones/day</text></g></g><path class="foreground" aria-hidden="true" d="" pointer-events="none" display="none"/></g></g><g class="mark-group role-scope pathgroup" role="graphics-object" aria-roledescription="group mark container"><g transform="translate(0,0)"><path class="background" aria-hidden="true" d="M0,0h800v300h-800Z"/><g><g class="mark-area role-mark marks" role="graphics-object" aria-roledescription="area mark container"><path aria-label="Date: Mar 16, 2026; Unique Clones/day: 0; Repository: justdavis-family/github-analytics-data" role="graphics-symbol" aria-roledescription="area mark" d="M0,298.636L22.857,300L45.714,300L68.571,298.636L91.429,300L114.286,300L137.143,300L160,282.273L182.857,297.273L205.714,290.455L228.571,278.182L251.429,205.909L274.286,237.273L297.143,169.091L320,255L342.857,268.636L365.714,274.091L388.571,286.364L411.429,259.091L434.286,73.636L457.143,148.636L480,257.727L502.857,155.455L525.714,250.909L548.571,229.091L571.429,271.364L594.286,249.545L617.143,212.727L640,4.091L662.857,267.273L685.714,260.455L708.571,274.091L731.429,280.909L754.286,278.182L777.143,255L800,226.364L800,242.727L777.143,270L754.286,294.545L731.429,287.727L708.571,289.091L685.714,278.182L662.857,282.273L640,10.909L617.143,229.091L594.286,260.455L571.429,280.909L548.571,238.636L525.714,257.727L502.857,190.909L480,257.727L457.143,148.636L434.286,73.636L411.429,259.091L388.571,286.364L365.714,274.091L342.857,268.636L320,255L297.143,169.091L274.286,237.273L251.429,205.909L228.571,278.182L205.714,290.455L182.857,297.273L160,282.273L137.143,300L114.286,300L91.429,300L68.571,298.636L45.714,300L22.857,300L0,298.636Z" fill="#4c78a8"/></g></g><path class="foreground" aria-hidden="true" d="" display="none"/></g><g transform="translate(0,0)"><path class="background" aria-hidden="true" d="M0,0h800v300h-800Z"/><g><g class="mark-area role-mark marks" role="graphics-object" aria-roledescription="area mark container"><path aria-label="Date: Mar 16, 2026; Unique Clones/day: 0; Repository: justdavis-family/justdavis" role="graphics-symbol" aria-roledescription="area mark" d="M0,298.636L22.857,300L45.714,300L68.571,298.636L91.429,300L114.286,300L137.143,300L160,282.273L182.857,297.273L205.714,290.455L228.571,278.182L251.429,205.909L274.286,237.273L297.143,169.091L320,255L342.857,268.636L365.714,274.091L388.571,286.364L411.429,259.091L434.286,73.636L457.143,148.636L480,257.727L502.857,190.909L525.714,257.727L548.571,238.636L571.429,280.909L594.286,260.455L617.143,229.091L640,10.909L662.857,282.273L685.714,278.182L708.571,289.091L731.429,287.727L754.286,294.545L777.143,270L800,242.727L800,246.818L777.143,271.364L754.286,295.909L731.429,291.818L708.571,291.818L685.714,283.636L662.857,283.636L640,178.636L617.143,250.909L594.286,264.545L571.429,283.636L548.571,244.091L525.714,260.455L502.857,259.091L480,282.273L457.143,189.545L434.286,180L411.429,260.455L388.571,286.364L365.714,275.455L342.857,268.636L320,255L297.143,169.091L274.286,237.273L251.429,205.909L228.571,278.182L205.714,290.455L182.857,297.273L160,283.636L137.143,300L114.286,300L91.429,300L68.571,298.636L45.714,300L22.857,300L0,298.636Z" fill="#f58518"/></g></g><path class="foreground" aria-hidden="true" d="" display="none"/></g><g transform="translate(0,0)"><path class="background" aria-hidden="true" d="M0,0h800v300h-800Z"/><g><g class="mark-area role-mark marks" role="graphics-object" aria-roledescription="area mark container"><path aria-label="Date: Mar 16, 2026; Unique Clones/day: 0; Repository: karlmdavis/FHIR-Server" role="graphics-symbol" aria-roledescription="area mark" d="M0,298.636L22.857,300L45.714,300L68.571,298.636L91.429,300L114.286,300L137.143,300L160,283.636L182.857,297.273L205.714,290.455L228.571,278.182L251.429,205.909L274.286,237.273L297.143,169.091L320,255L342.857,268.636L365.714,275.455L388.571,286.364L411.429,260.455L434.286,180L457.143,189.545L480,282.273L502.857,259.091L525.714,260.455L548.571,244.091L571.429,283.636L594.286,264.545L617.143,250.909L640,178.636L662.857,283.636L685.714,283.636L708.571,291.818L731.429,291.818L754.286,295.909L777.143,271.364L800,246.818L800,248.182L777.143,271.364L754.286,295.909L731.429,291.818L708.571,291.818L685.714,283.636L662.857,283.636L640,178.636L617.143,252.273L594.286,267.273L571.429,283.636L548.571,244.091L525.714,260.455L502.857,259.091L480,282.273L457.143,189.545L434.286,180L411.429,260.455L388.571,286.364L365.714,275.455L342.857,270L320,255L297.143,169.091L274.286,237.273L251.429,205.909L228.571,278.182L205.714,290.455L182.857,297.273L160,283.636L137.143,300L114.286,300L91.429,300L68.571,298.636L45.714,300L22.857,300L0,298.636Z" fill="#e45756"/></g></g><path class="foreground" aria-hidden="true" d="" display="none"/></g><g transform="translate(0,0)"><path class="background" aria-hidden="true" d="M0,0h800v300h-800Z"/><g><g class="mark-area role-mark marks" role="graphics-object" aria-roledescription="area mark container"><path aria-label="Date: Mar 16, 2026; Unique Clones/day: 1; Repository: karlmdavis/ansible" role="graphics-symbol" aria-roledescription="area mark" d="M0,298.636L22.857,300L45.714,300L68.571,298.636L91.429,300L114.286,300L137.143,300L160,283.636L182.857,297.273L205.714,290.455L228.571,278.182L251.429,205.909L274.286,237.273L297.143,169.091L320,255L342.857,270L365.714,275.455L388.571,286.364L411.429,260.455L434.286,180L457.143,189.545L480,282.273L502.857,259.091L525.714,260.455L548.571,244.091L571.429,283.636L594.286,267.273L617.143,252.273L640,178.636L662.857,283.636L685.714,283.636L708.571,291.818L731.429,291.818L754.286,295.909L777.143,271.364L800,248.182L800,248.182L777.143,271.364L754.286,295.909L731.429,291.818L708.571,291.818L685.714,283.636L662.857,285L640,178.636L617.143,252.273L594.286,267.273L571.429,283.636L548.571,244.091L525.714,260.455L502.857,259.091L480,282.273L457.143,189.545L434.286,180L411.429,260.455L388.571,286.364L365.714,275.455L342.857,270L320,255L297.143,169.091L274.286,237.273L251.429,205.909L228.571,278.182L205.714,290.455L182.857,297.273L160,283.636L137.143,300L114.286,300L91.429,300L68.571,298.636L45.714,300L22.857,300L0,300Z" fill="#72b7b2"/></g></g><path class="foreground" aria-hidden="true" d="" display="none"/></g><g transform="translate(0,0)"><path class="background" aria-hidden="true" d="M0,0h800v300h-800Z"/><g><g class="mark-area role-mark marks" role="graphics-object" aria-roledescription="area mark container"><path aria-label="Date: Mar 16, 2026; Unique Clones/day: 0; Repository: karlmdavis/ansible-jenkins" role="graphics-symbol" aria-roledescription="area mark" d="M0,300L22.857,300L45.714,300L68.571,298.636L91.429,300L114.286,300L137.143,300L160,283.636L182.857,297.273L205.714,290.455L228.571,278.182L251.429,205.909L274.286,237.273L297.143,169.091L320,255L342.857,270L365.714,275.455L388.571,286.364L411.429,260.455L434.286,180L457.143,189.545L480,282.273L502.857,259.091L525.714,260.455L548.571,244.091L571.429,283.636L594.286,267.273L617.143,252.273L640,178.636L662.857,285L685.714,283.636L708.571,291.818L731.429,291.818L754.286,295.909L777.143,271.364L800,248.182L800,248.182L777.143,271.364L754.286,295.909L731.429,291.818L708.571,291.818L685.714,283.636L662.857,285L640,178.636L617.143,253.636L594.286,267.273L571.429,283.636L548.571,244.091L525.714,260.455L502.857,259.091L480,282.273L457.143,189.545L434.286,181.364L411.429,261.818L388.571,286.364L365.714,275.455L342.857,270L320,255L297.143,169.091L274.286,237.273L251.429,205.909L228.571,279.545L205.714,290.455L182.857,297.273L160,283.636L137.143,300L114.286,300L91.429,300L68.571,298.636L45.714,300L22.857,300L0,300Z" fill="#54a24b"/></g></g><path class="foreground" aria-hidden="true" d="" display="none"/></g><g transform="translate(0,0)"><path class="background" aria-hidden="true" d="M0,0h800v300h-800Z"/><g><g class="mark-area role-mark marks" role="graphics-object" aria-roledescription="area mark container"><path aria-label="Date: Mar 16, 2026; Unique Clones/day: 0; Repository: karlmdavis/ansible-role-acmetool" role="graphics-symbol" aria-roledescription="area mark" d="M0,300L22.857,300L45.714,300L68.571,298.636L91.429,300L114.286,300L137.143,300L160,283.636L182.857,297.273L205.714,290.455L228.571,279.545L251.429,205.909L274.286,237.273L297.143,169.091L320,255L342.857,270L365.714,275.455L388.571,286.364L411.429,261.818L434.286,181.364L457.143,189.545L480,282.273L502.857,259.091L525.714,260.455L548.571,244.091L571.429,283.636L594.286,267.273L617.143,253.636L640,178.636L662.857,285L685.714,283.636L708.571,291.818L731.429,291.818L754.286,295.909L777.143,271.364L800,248.182L800,248.182L777.143,271.364L754.286,295.909L731.429,291.818L708.571,291.818L685.714,283.636L662.857,285L640,178.636L617.143,255L594.286,267.273L571.429,283.636L548.571,244.091L525.714,260.455L502.857,259.091L480,282.273L457.143,189.545L434.286,181.364L411.429,261.818L388.571,286.364L365.714,275.455L342.857,270L320,255L297.143,169.091L274.286,237.273L251.429,205.909L228.571,280.909L205.714,290.455L182.857,297.273L160,283.636L137.143,300L114.286,300L91.429,300L68.571,298.636L45.714,300L22.857,300L0,300Z" fill="#eeca3b"/></g></g><path class="foreground" aria-hidden="true" d="" display="none"/></g><g transform="translate(0,0)"><path class="background" aria-hidden="true" d="M0,0h800v300h-800Z"/><g><g class="mark-area role-mark marks" role="graphics-object" aria-roledescription="area mark container"><path aria-label="Date: Mar 16, 2026; Unique Clones/day: 0; Repository: karlmdavis/ansible-role-bind-dns" role="graphics-symbol" aria-roledescription="area mark" d="M0,300L22.857,300L45.714,300L68.571,298.636L91.429,300L114.286,300L137.143,300L160,283.636L182.857,297.273L205.714,290.455L228.571,280.909L251.429,205.909L274.286,237.273L297.143,169.091L320,255L342.857,270L365.714,275.455L388.571,286.364L411.429,261.818L434.286,181.364L457.143,189.545L480,282.273L502.857,259.091L525.714,260.455L548.571,244.091L571.429,283.636L594.286,267.273L617.143,255L640,178.636L662.857,285L685.714,283.636L708.571,291.818L731.429,291.818L754.286,295.909L777.143,271.364L800,248.182L800,249.545L777.143,271.364L754.286,295.909L731.429,291.818L708.571,293.182L685.714,283.636L662.857,285L640,184.091L617.143,256.364L594.286,267.273L571.429,283.636L548.571,245.455L525.714,261.818L502.857,259.091L480,282.273L457.143,189.545L434.286,182.727L411.429,261.818L388.571,286.364L365.714,279.545L342.857,270L320,256.364L297.143,170.455L274.286,237.273L251.429,208.636L228.571,280.909L205.714,290.455L182.857,297.273L160,283.636L137.143,300L114.286,300L91.429,300L68.571,298.636L45.714,300L22.857,300L0,300Z" fill="#b279a2"/></g></g><path class="foreground" aria-hidden="true" d="" display="none"/></g><g transform="translate(0,0)"><path class="background" aria-hidden="true" d="M0,0h800v300h-800Z"/><g><g class="mark-area role-mark marks" role="graphics-object" aria-roledescription="area mark container"><path aria-label="Date: Mar 16, 2026; Unique Clones/day: 0; Repository: karlmdavis/ansible-role-jenkins2" role="graphics-symbol" aria-roledescription="area mark" d="M0,300L22.857,300L45.714,300L68.571,298.636L91.429,300L114.286,300L137.143,300L160,283.636L182.857,297.273L205.714,290.455L228.571,280.909L251.429,208.636L274.286,237.273L297.143,170.455L320,256.364L342.857,270L365.714,279.545L388.571,286.364L411.429,261.818L434.286,182.727L457.143,189.545L480,282.273L502.857,259.091L525.714,261.818L548.571,245.455L571.429,283.636L594.286,267.273L617.143,256.364L640,184.091L662.857,285L685.714,283.636L708.571,293.182L731.429,291.818L754.286,295.909L777.143,271.364L800,249.545L800,250.909L777.143,271.364L754.286,295.909L731.429,291.818L708.571,293.182L685.714,285L662.857,285L640,190.909L617.143,256.364L594.286,268.636L571.429,286.364L548.571,252.273L525.714,261.818L502.857,259.091L480,282.273L457.143,190.909L434.286,185.455L411.429,263.182L388.571,287.727L365.714,280.909L342.857,271.364L320,256.364L297.143,170.455L274.286,238.636L251.429,210L228.571,282.273L205.714,291.818L182.857,298.636L160,283.636L137.143,300L114.286,300L91.429,300L68.571,298.636L45.714,300L22.857,300L0,300Z" fill="#ff9da6"/></g></g><path class="foreground" aria-hidden="true" d="" display="none"/></g><g transform="translate(0,0)"><path class="background" aria-hidden="true" d="M0,0h800v300h-800Z"/><g><g class="mark-area role-mark marks" role="graphics-object" aria-roledescription="area mark container"><path aria-label="Date: Mar 16, 2026; Unique Clones/day: 0; Repository: karlmdavis/ansible-role-ldap" role="graphics-symbol" aria-roledescription="area mark" d="M0,300L22.857,300L45.714,300L68.571,298.636L91.429,300L114.286,300L137.143,300L160,283.636L182.857,298.636L205.714,291.818L228.571,282.273L251.429,210L274.286,238.636L297.143,170.455L320,256.364L342.857,271.364L365.714,280.909L388.571,287.727L411.429,263.182L434.286,185.455L457.143,190.909L480,282.273L502.857,259.091L525.714,261.818L548.571,252.273L571.429,286.364L594.286,268.636L617.143,256.364L640,190.909L662.857,285L685.714,285L708.571,293.182L731.429,291.818L754.286,295.909L777.143,271.364L800,250.909L800,250.909L777.143,271.364L754.286,295.909L731.429,291.818L708.571,293.182L685.714,285L662.857,285L640,192.273L617.143,256.364L594.286,268.636L571.429,286.364L548.571,252.273L525.714,261.818L502.857,259.091L480,282.273L457.143,190.909L434.286,185.455L411.429,263.182L388.571,287.727L365.714,280.909L342.857,272.727L320,256.364L297.143,170.455L274.286,238.636L251.429,210L228.571,282.273L205.714,291.818L182.857,298.636L160,283.636L137.143,300L114.286,300L91.429,300L68.571,298.636L45.714,300L22.857,300L0,300Z" fill="#9d755d"/></g></g><path class="foreground" aria-hidden="true" d="" display="none"/></g><g transform="translate(0,0)"><path class="background" aria-hidden="true" d="M0,0h800v300h-800Z"/><g><g class="mark-area role-mark marks" role="graphics-object" aria-roledescription="area mark container"><path aria-label="Date: Mar 16, 2026; Unique Clones/day: 0; Repository: karlmdavis/ansible-role-rcm-dotfiles" role="graphics-symbol" aria-roledescription="area mark" d="M0,300L22.857,300L45.714,300L68.571,298.636L91.429,300L114.286,300L137.143,300L160,283.636L182.857,298.636L205.714,291.818L228.571,282.273L251.429,210L274.286,238.636L297.143,170.455L320,256.364L342.857,272.727L365.714,280.909L388.571,287.727L411.429,263.182L434.286,185.455L457.143,190.909L480,282.273L502.857,259.091L525.714,261.818L548.571,252.273L571.429,286.364L594.286,268.636L617.143,256.364L640,192.273L662.857,285L685.714,285L708.571,293.182L731.429,291.818L754.286,295.909L777.143,271.364L800,250.909L800,252.273L777.143,271.364L754.286,295.909L731.429,291.818L708.571,293.182L685.714,286.364L662.857,285L640,196.364L617.143,257.727L594.286,268.636L571.429,286.364L548.571,253.636L525.714,261.818L502.857,259.091L480,282.273L457.143,190.909L434.286,186.818L411.429,263.182L388.571,287.727L365.714,280.909L342.857,272.727L320,257.727L297.143,171.818L274.286,238.636L251.429,212.727L228.571,282.273L205.714,291.818L182.857,298.636L160,283.636L137.143,300L114.286,300L91.429,300L68.571,298.636L45.714,300L22.857,300L0,300Z" fill="#bab0ac"/></g></g><path class="foreground" aria-hidden="true" d="" display="none"/></g><g transform="translate(0,0)"><path class="background" aria-hidden="true" d="M0,0h800v300h-800Z"/><g><g class="mark-area role-mark marks" role="graphics-object" aria-roledescription="area mark container"><path aria-label="Date: Mar 16, 2026; Unique Clones/day: 0; Repository: karlmdavis/ansible-roles" role="graphics-symbol" aria-roledescription="area mark" d="M0,300L22.857,300L45.714,300L68.571,298.636L91.429,300L114.286,300L137.143,300L160,283.636L182.857,298.636L205.714,291.818L228.571,282.273L251.429,212.727L274.286,238.636L297.143,171.818L320,257.727L342.857,272.727L365.714,280.909L388.571,287.727L411.429,263.182L434.286,186.818L457.143,190.909L480,282.273L502.857,259.091L525.714,261.818L548.571,253.636L571.429,286.364L594.286,268.636L617.143,257.727L640,196.364L662.857,285L685.714,286.364L708.571,293.182L731.429,291.818L754.286,295.909L777.143,271.364L800,252.273L800,252.273L777.143,271.364L754.286,295.909L731.429,291.818L708.571,293.182L685.714,286.364L662.857,285L640,196.364L617.143,257.727L594.286,270L571.429,286.364L548.571,253.636L525.714,261.818L502.857,259.091L480,282.273L457.143,190.909L434.286,186.818L411.429,263.182L388.571,287.727L365.714,280.909L342.857,272.727L320,259.091L297.143,171.818L274.286,238.636L251.429,212.727L228.571,283.636L205.714,291.818L182.857,298.636L160,283.636L137.143,300L114.286,300L91.429,300L68.571,298.636L45.714,300L22.857,300L0,300Z" fill="#4c78a8"/></g></g><path class="foreground" aria-hidden="true" d="" display="none"/></g><g transform="translate(0,0)"><path class="background" aria-hidden="true" d="M0,0h800v300h-800Z"/><g><g class="mark-area role-mark marks" role="graphics-object" aria-roledescription="area mark container"><path aria-label="Date: Mar 16, 2026; Unique Clones/day: 0; Repository: karlmdavis/bbonfhir-dev-infra-docker" role="graphics-symbol" aria-roledescription="area mark" d="M0,300L22.857,300L45.714,300L68.571,298.636L91.429,300L114.286,300L137.143,300L160,283.636L182.857,298.636L205.714,291.818L228.571,283.636L251.429,212.727L274.286,238.636L297.143,171.818L320,259.091L342.857,272.727L365.714,280.909L388.571,287.727L411.429,263.182L434.286,186.818L457.143,190.909L480,282.273L502.857,259.091L525.714,261.818L548.571,253.636L571.429,286.364L594.286,270L617.143,257.727L640,196.364L662.857,285L685.714,286.364L708.571,293.182L731.429,291.818L754.286,295.909L777.143,271.364L800,252.273L800,253.636L777.143,271.364L754.286,295.909L731.429,291.818L708.571,293.182L685.714,286.364L662.857,285L640,200.455L617.143,259.091L594.286,270L571.429,286.364L548.571,255L525.714,261.818L502.857,259.091L480,282.273L457.143,190.909L434.286,188.182L411.429,263.182L388.571,287.727L365.714,280.909L342.857,272.727L320,260.455L297.143,171.818L274.286,238.636L251.429,214.091L228.571,283.636L205.714,293.182L182.857,298.636L160,283.636L137.143,300L114.286,300L91.429,300L68.571,298.636L45.714,300L22.857,300L0,300Z" fill="#f58518"/></g></g><path class="foreground" aria-hidden="true" d="" display="none"/></g><g transform="translate(0,0)"><path class="background" aria-hidden="true" d="M0,0h800v300h-800Z"/><g><g class="mark-area role-mark marks" role="graphics-object" aria-roledescription="area mark container"><path aria-label="Date: Mar 16, 2026; Unique Clones/day: 0; Repository: karlmdavis/can-i-kayak-baltimore" role="graphics-symbol" aria-roledescription="area mark" d="M0,300L22.857,300L45.714,300L68.571,298.636L91.429,300L114.286,300L137.143,300L160,283.636L182.857,298.636L205.714,293.182L228.571,283.636L251.429,214.091L274.286,238.636L297.143,171.818L320,260.455L342.857,272.727L365.714,280.909L388.571,287.727L411.429,263.182L434.286,188.182L457.143,190.909L480,282.273L502.857,259.091L525.714,261.818L548.571,255L571.429,286.364L594.286,270L617.143,259.091L640,200.455L662.857,285L685.714,286.364L708.571,293.182L731.429,291.818L754.286,295.909L777.143,271.364L800,253.636L800,255L777.143,271.364L754.286,295.909L731.429,291.818L708.571,293.182L685.714,286.364L662.857,285L640,203.182L617.143,260.455L594.286,270L571.429,286.364L548.571,256.364L525.714,261.818L502.857,259.091L480,282.273L457.143,190.909L434.286,189.545L411.429,263.182L388.571,287.727L365.714,282.273L342.857,272.727L320,260.455L297.143,171.818L274.286,238.636L251.429,218.182L228.571,283.636L205.714,293.182L182.857,298.636L160,283.636L137.143,300L114.286,300L91.429,300L68.571,298.636L45.714,300L22.857,300L0,300Z" fill="#e45756"/></g></g><path class="foreground" aria-hidden="true" d="" display="none"/></g><g transform="translate(0,0)"><path class="background" aria-hidden="true" d="M0,0h800v300h-800Z"/><g><g class="mark-area role-mark marks" role="graphics-object" aria-roledescription="area mark container"><path aria-label="Date: Mar 16, 2026; Unique Clones/day: 0; Repository: karlmdavis/datanucleus-test-jdo-1-to-n" role="graphics-symbol" aria-roledescription="area mark" d="M0,300L22.857,300L45.714,300L68.571,298.636L91.429,300L114.286,300L137.143,300L160,283.636L182.857,298.636L205.714,293.182L228.571,283.636L251.429,218.182L274.286,238.636L297.143,171.818L320,260.455L342.857,272.727L365.714,282.273L388.571,287.727L411.429,263.182L434.286,189.545L457.143,190.909L480,282.273L502.857,259.091L525.714,261.818L548.571,256.364L571.429,286.364L594.286,270L617.143,260.455L640,203.182L662.857,285L685.714,286.364L708.571,293.182L731.429,291.818L754.286,295.909L777.143,271.364L800,255L800,255L777.143,271.364L754.286,295.909L731.429,293.182L708.571,293.182L685.714,286.364L662.857,286.364L640,203.182L617.143,260.455L594.286,270L571.429,286.364L548.571,256.364L525.714,261.818L502.857,259.091L480,282.273L457.143,190.909L434.286,189.545L411.429,263.182L388.571,287.727L365.714,282.273L342.857,272.727L320,260.455L297.143,171.818L274.286,240L251.429,218.182L228.571,283.636L205.714,293.182L182.857,298.636L160,283.636L137.143,300L114.286,300L91.429,300L68.571,298.636L45.714,300L22.857,300L0,300Z" fill="#72b7b2"/></g></g><path class="foreground" aria-hidden="true" d="" display="none"/></g><g transform="translate(0,0)"><path class="background" aria-hidden="true" d="M0,0h800v300h-800Z"/><g><g class="mark-area role-mark marks" role="graphics-object" aria-roledescription="area mark container"><path aria-label="Date: Mar 16, 2026; Unique Clones/day: 0; Repository: karlmdavis/dotfiles" role="graphics-symbol" aria-roledescription="area mark" d="M0,300L22.857,300L45.714,300L68.571,298.636L91.429,300L114.286,300L137.143,300L160,283.636L182.857,298.636L205.714,293.182L228.571,283.636L251.429,218.182L274.286,240L297.143,171.818L320,260.455L342.857,272.727L365.714,282.273L388.571,287.727L411.429,263.182L434.286,189.545L457.143,190.909L480,282.273L502.857,259.091L525.714,261.818L548.571,256.364L571.429,286.364L594.286,270L617.143,260.455L640,203.182L662.857,286.364L685.714,286.364L708.571,293.182L731.429,293.182L754.286,295.909L777.143,271.364L800,255L800,275.455L777.143,274.091L754.286,295.909L731.429,294.545L708.571,294.545L685.714,286.364L662.857,286.364L640,210L617.143,260.455L594.286,272.727L571.429,286.364L548.571,257.727L525.714,263.182L502.857,259.091L480,282.273L457.143,192.273L434.286,190.909L411.429,263.182L388.571,289.091L365.714,283.636L342.857,274.091L320,260.455L297.143,171.818L274.286,240L251.429,220.909L228.571,283.636L205.714,293.182L182.857,298.636L160,285L137.143,300L114.286,300L91.429,300L68.571,298.636L45.714,300L22.857,300L0,300Z" fill="#54a24b"/></g></g><path class="foreground" aria-hidden="true" d="" display="none"/></g><g transform="translate(0,0)"><path class="background" aria-hidden="true" d="M0,0h800v300h-800Z"/><g><g class="mark-area role-mark marks" role="graphics-object" aria-roledescription="area mark container"><path aria-label="Date: Mar 16, 2026; Unique Clones/day: 0; Repository: karlmdavis/fhir-benchmarks" role="graphics-symbol" aria-roledescription="area mark" d="M0,300L22.857,300L45.714,300L68.571,298.636L91.429,300L114.286,300L137.143,300L160,285L182.857,298.636L205.714,293.182L228.571,283.636L251.429,220.909L274.286,240L297.143,171.818L320,260.455L342.857,274.091L365.714,283.636L388.571,289.091L411.429,263.182L434.286,190.909L457.143,192.273L480,282.273L502.857,259.091L525.714,263.182L548.571,257.727L571.429,286.364L594.286,272.727L617.143,260.455L640,210L662.857,286.364L685.714,286.364L708.571,294.545L731.429,294.545L754.286,295.909L777.143,274.091L800,275.455L800,276.818L777.143,274.091L754.286,297.273L731.429,295.909L708.571,294.545L685.714,287.727L662.857,290.455L640,216.818L617.143,260.455L594.286,275.455L571.429,286.364L548.571,260.455L525.714,272.727L502.857,260.455L480,282.273L457.143,193.636L434.286,192.273L411.429,264.545L388.571,289.091L365.714,285L342.857,276.818L320,261.818L297.143,173.182L274.286,240L251.429,223.636L228.571,283.636L205.714,294.545L182.857,298.636L160,286.364L137.143,300L114.286,300L91.429,300L68.571,298.636L45.714,300L22.857,300L0,300Z" fill="#eeca3b"/></g></g><path class="foreground" aria-hidden="true" d="" display="none"/></g><g transform="translate(0,0)"><path class="background" aria-hidden="true" d="M0,0h800v300h-800Z"/><g><g class="mark-area role-mark marks" role="graphics-object" aria-roledescription="area mark container"><path aria-label="Date: Mar 16, 2026; Unique Clones/day: 0; Repository: karlmdavis/hapi-fhir-jpaserver-starter" role="graphics-symbol" aria-roledescription="area mark" d="M0,300L22.857,300L45.714,300L68.571,298.636L91.429,300L114.286,300L137.143,300L160,286.364L182.857,298.636L205.714,294.545L228.571,283.636L251.429,223.636L274.286,240L297.143,173.182L320,261.818L342.857,276.818L365.714,285L388.571,289.091L411.429,264.545L434.286,192.273L457.143,193.636L480,282.273L502.857,260.455L525.714,272.727L548.571,260.455L571.429,286.364L594.286,275.455L617.143,260.455L640,216.818L662.857,290.455L685.714,287.727L708.571,294.545L731.429,295.909L754.286,297.273L777.143,274.091L800,276.818L800,276.818L777.143,274.091L754.286,297.273L731.429,295.909L708.571,294.545L685.714,287.727L662.857,290.455L640,218.182L617.143,260.455L594.286,275.455L571.429,286.364L548.571,260.455L525.714,272.727L502.857,260.455L480,282.273L457.143,193.636L434.286,192.273L411.429,265.909L388.571,290.455L365.714,285L342.857,276.818L320,261.818L297.143,173.182L274.286,240L251.429,223.636L228.571,285L205.714,294.545L182.857,298.636L160,286.364L137.143,300L114.286,300L91.429,300L68.571,298.636L45.714,300L22.857,300L0,300Z" fill="#b279a2"/></g></g><path class="foreground" aria-hidden="true" d="" display="none"/></g><g transform="translate(0,0)"><path class="background" aria-hidden="true" d="M0,0h800v300h-800Z"/><g><g class="mark-area role-mark marks" role="graphics-object" aria-roledescription="area mark container"><path aria-label="Date: Mar 16, 2026; Unique Clones/day: 0; Repository: karlmdavis/hello-rust-actix" role="graphics-symbol" aria-roledescription="area mark" d="M0,300L22.857,300L45.714,300L68.571,298.636L91.429,300L114.286,300L137.143,300L160,286.364L182.857,298.636L205.714,294.545L228.571,285L251.429,223.636L274.286,240L297.143,173.182L320,261.818L342.857,276.818L365.714,285L388.571,290.455L411.429,265.909L434.286,192.273L457.143,193.636L480,282.273L502.857,260.455L525.714,272.727L548.571,260.455L571.429,286.364L594.286,275.455L617.143,260.455L640,218.182L662.857,290.455L685.714,287.727L708.571,294.545L731.429,295.909L754.286,297.273L777.143,274.091L800,276.818L800,278.182L777.143,274.091L754.286,297.273L731.429,295.909L708.571,294.545L685.714,287.727L662.857,290.455L640,220.909L617.143,261.818L594.286,275.455L571.429,286.364L548.571,261.818L525.714,272.727L502.857,260.455L480,282.273L457.143,193.636L434.286,193.636L411.429,265.909L388.571,290.455L365.714,285L342.857,278.182L320,261.818L297.143,173.182L274.286,240L251.429,225L228.571,285L205.714,294.545L182.857,298.636L160,286.364L137.143,300L114.286,300L91.429,300L68.571,298.636L45.714,300L22.857,300L0,300Z" fill="#ff9da6"/></g></g><path class="foreground" aria-hidden="true" d="" display="none"/></g><g transform="translate(0,0)"><path class="background" aria-hidden="true" d="M0,0h800v300h-800Z"/><g><g class="mark-area role-mark marks" role="graphics-object" aria-roledescription="area mark container"><path aria-label="Date: Mar 16, 2026; Unique Clones/day: 0; Repository: karlmdavis/jessentials" role="graphics-symbol" aria-roledescription="area mark" d="M0,300L22.857,300L45.714,300L68.571,298.636L91.429,300L114.286,300L137.143,300L160,286.364L182.857,298.636L205.714,294.545L228.571,285L251.429,225L274.286,240L297.143,173.182L320,261.818L342.857,278.182L365.714,285L388.571,290.455L411.429,265.909L434.286,193.636L457.143,193.636L480,282.273L502.857,260.455L525.714,272.727L548.571,261.818L571.429,286.364L594.286,275.455L617.143,261.818L640,220.909L662.857,290.455L685.714,287.727L708.571,294.545L731.429,295.909L754.286,297.273L777.143,274.091L800,278.182L800,279.545L777.143,275.455L754.286,297.273L731.429,295.909L708.571,294.545L685.714,287.727L662.857,290.455L640,223.636L617.143,261.818L594.286,276.818L571.429,286.364L548.571,264.545L525.714,283.636L502.857,260.455L480,282.273L457.143,193.636L434.286,195L411.429,265.909L388.571,290.455L365.714,285L342.857,278.182L320,263.182L297.143,173.182L274.286,240L251.429,226.364L228.571,285L205.714,294.545L182.857,298.636L160,287.727L137.143,300L114.286,300L91.429,300L68.571,298.636L45.714,300L22.857,300L0,300Z" fill="#9d755d"/></g></g><path class="foreground" aria-hidden="true" d="" display="none"/></g><g transform="translate(0,0)"><path class="background" aria-hidden="true" d="M0,0h800v300h-800Z"/><g><g class="mark-area role-mark marks" role="graphics-object" aria-roledescription="area mark container"><path aria-label="Date: Mar 16, 2026; Unique Clones/day: 0; Repository: karlmdavis/justdavis-ansible" role="graphics-symbol" aria-roledescription="area mark" d="M0,300L22.857,300L45.714,300L68.571,298.636L91.429,300L114.286,300L137.143,300L160,287.727L182.857,298.636L205.714,294.545L228.571,285L251.429,226.364L274.286,240L297.143,173.182L320,263.182L342.857,278.182L365.714,285L388.571,290.455L411.429,265.909L434.286,195L457.143,193.636L480,282.273L502.857,260.455L525.714,283.636L548.571,264.545L571.429,286.364L594.286,276.818L617.143,261.818L640,223.636L662.857,290.455L685.714,287.727L708.571,294.545L731.429,295.909L754.286,297.273L777.143,275.455L800,279.545L800,280.909L777.143,280.909L754.286,297.273L731.429,295.909L708.571,294.545L685.714,287.727L662.857,290.455L640,227.727L617.143,267.273L594.286,276.818L571.429,287.727L548.571,265.909L525.714,283.636L502.857,260.455L480,282.273L457.143,193.636L434.286,196.364L411.429,265.909L388.571,290.455L365.714,286.364L342.857,278.182L320,263.182L297.143,173.182L274.286,241.364L251.429,227.727L228.571,285L205.714,295.909L182.857,298.636L160,287.727L137.143,300L114.286,300L91.429,300L68.571,298.636L45.714,300L22.857,300L0,300Z" fill="#bab0ac"/></g></g><path class="foreground" aria-hidden="true" d="" display="none"/></g><g transform="translate(0,0)"><path class="background" aria-hidden="true" d="M0,0h800v300h-800Z"/><g><g class="mark-area role-mark marks" role="graphics-object" aria-roledescription="area mark container"><path aria-label="Date: Mar 16, 2026; Unique Clones/day: 0; Repository: karlmdavis/justdavis-finances" role="graphics-symbol" aria-roledescription="area mark" d="M0,300L22.857,300L45.714,300L68.571,298.636L91.429,300L114.286,300L137.143,300L160,287.727L182.857,298.636L205.714,295.909L228.571,285L251.429,227.727L274.286,241.364L297.143,173.182L320,263.182L342.857,278.182L365.714,286.364L388.571,290.455L411.429,265.909L434.286,196.364L457.143,193.636L480,282.273L502.857,260.455L525.714,283.636L548.571,265.909L571.429,287.727L594.286,276.818L617.143,267.273L640,227.727L662.857,290.455L685.714,287.727L708.571,294.545L731.429,295.909L754.286,297.273L777.143,280.909L800,280.909L800,280.909L777.143,294.545L754.286,297.273L731.429,295.909L708.571,294.545L685.714,289.091L662.857,293.182L640,248.182L617.143,290.455L594.286,279.545L571.429,287.727L548.571,267.273L525.714,285L502.857,283.636L480,293.182L457.143,295.909L434.286,274.091L411.429,293.182L388.571,291.818L365.714,287.727L342.857,279.545L320,283.636L297.143,289.091L274.286,291.818L251.429,270L228.571,286.364L205.714,297.273L182.857,298.636L160,287.727L137.143,300L114.286,300L91.429,300L68.571,298.636L45.714,300L22.857,300L0,300Z" fill="#4c78a8"/></g></g><path class="foreground" aria-hidden="true" d="" display="none"/></g><g transform="translate(0,0)"><path class="background" aria-hidden="true" d="M0,0h800v300h-800Z"/><g><g class="mark-area role-mark marks" role="graphics-object" aria-roledescription="area mark container"><path aria-label="Date: Mar 16, 2026; Unique Clones/day: 0; Repository: karlmdavis/justdavis-karl" role="graphics-symbol" aria-roledescription="area mark" d="M0,300L22.857,300L45.714,300L68.571,298.636L91.429,300L114.286,300L137.143,300L160,287.727L182.857,298.636L205.714,297.273L228.571,286.364L251.429,270L274.286,291.818L297.143,289.091L320,283.636L342.857,279.545L365.714,287.727L388.571,291.818L411.429,293.182L434.286,274.091L457.143,295.909L480,293.182L502.857,283.636L525.714,285L548.571,267.273L571.429,287.727L594.286,279.545L617.143,290.455L640,248.182L662.857,293.182L685.714,289.091L708.571,294.545L731.429,295.909L754.286,297.273L777.143,294.545L800,280.909L800,282.273L777.143,294.545L754.286,297.273L731.429,295.909L708.571,294.545L685.714,289.091L662.857,293.182L640,252.273L617.143,291.818L594.286,280.909L571.429,287.727L548.571,270L525.714,285L502.857,283.636L480,294.545L457.143,295.909L434.286,275.455L411.429,293.182L388.571,293.182L365.714,287.727L342.857,280.909L320,285L297.143,289.091L274.286,293.182L251.429,271.364L228.571,286.364L205.714,297.273L182.857,298.636L160,289.091L137.143,300L114.286,300L91.429,300L68.571,298.636L45.714,300L22.857,300L0,300Z" fill="#f58518"/></g></g><path class="foreground" aria-hidden="true" d="" display="none"/></g><g transform="translate(0,0)"><path class="background" aria-hidden="true" d="M0,0h800v300h-800Z"/><g><g class="mark-area role-mark marks" role="graphics-object" aria-roledescription="area mark container"><path aria-label="Date: Mar 16, 2026; Unique Clones/day: 0; Repository: karlmdavis/justdavis-puppet" role="graphics-symbol" aria-roledescription="area mark" d="M0,300L22.857,300L45.714,300L68.571,298.636L91.429,300L114.286,300L137.143,300L160,289.091L182.857,298.636L205.714,297.273L228.571,286.364L251.429,271.364L274.286,293.182L297.143,289.091L320,285L342.857,280.909L365.714,287.727L388.571,293.182L411.429,293.182L434.286,275.455L457.143,295.909L480,294.545L502.857,283.636L525.714,285L548.571,270L571.429,287.727L594.286,280.909L617.143,291.818L640,252.273L662.857,293.182L685.714,289.091L708.571,294.545L731.429,295.909L754.286,297.273L777.143,294.545L800,282.273L800,282.273L777.143,294.545L754.286,297.273L731.429,295.909L708.571,294.545L685.714,289.091L662.857,293.182L640,255L617.143,293.182L594.286,282.273L571.429,287.727L548.571,271.364L525.714,286.364L502.857,283.636L480,294.545L457.143,295.909L434.286,276.818L411.429,293.182L388.571,293.182L365.714,287.727L342.857,283.636L320,286.364L297.143,289.091L274.286,293.182L251.429,272.727L228.571,286.364L205.714,297.273L182.857,298.636L160,289.091L137.143,300L114.286,300L91.429,300L68.571,298.636L45.714,300L22.857,300L0,300Z" fill="#e45756"/></g></g><path class="foreground" aria-hidden="true" d="" display="none"/></g><g transform="translate(0,0)"><path class="background" aria-hidden="true" d="M0,0h800v300h-800Z"/><g><g class="mark-area role-mark marks" role="graphics-object" aria-roledescription="area mark container"><path aria-label="Date: Mar 16, 2026; Unique Clones/day: 0; Repository: karlmdavis/kobjects" role="graphics-symbol" aria-roledescription="area mark" d="M0,300L22.857,300L45.714,300L68.571,298.636L91.429,300L114.286,300L137.143,300L160,289.091L182.857,298.636L205.714,297.273L228.571,286.364L251.429,272.727L274.286,293.182L297.143,289.091L320,286.364L342.857,283.636L365.714,287.727L388.571,293.182L411.429,293.182L434.286,276.818L457.143,295.909L480,294.545L502.857,283.636L525.714,286.364L548.571,271.364L571.429,287.727L594.286,282.273L617.143,293.182L640,255L662.857,293.182L685.714,289.091L708.571,294.545L731.429,295.909L754.286,297.273L777.143,294.545L800,282.273L800,283.636L777.143,294.545L754.286,297.273L731.429,295.909L708.571,294.545L685.714,289.091L662.857,293.182L640,257.727L617.143,293.182L594.286,283.636L571.429,287.727L548.571,274.091L525.714,286.364L502.857,283.636L480,294.545L457.143,295.909L434.286,278.182L411.429,293.182L388.571,293.182L365.714,287.727L342.857,283.636L320,286.364L297.143,289.091L274.286,293.182L251.429,274.091L228.571,287.727L205.714,297.273L182.857,298.636L160,289.091L137.143,300L114.286,300L91.429,300L68.571,298.636L45.714,300L22.857,300L0,300Z" fill="#72b7b2"/></g></g><path class="foreground" aria-hidden="true" d="" display="none"/></g><g transform="translate(0,0)"><path class="background" aria-hidden="true" d="M0,0h800v300h-800Z"/><g><g class="mark-area role-mark marks" role="graphics-object" aria-roledescription="area mark container"><path aria-label="Date: Mar 16, 2026; Unique Clones/day: 0; Repository: karlmdavis/ksoap2-android" role="graphics-symbol" aria-roledescription="area mark" d="M0,300L22.857,300L45.714,300L68.571,298.636L91.429,300L114.286,300L137.143,300L160,289.091L182.857,298.636L205.714,297.273L228.571,287.727L251.429,274.091L274.286,293.182L297.143,289.091L320,286.364L342.857,283.636L365.714,287.727L388.571,293.182L411.429,293.182L434.286,278.182L457.143,295.909L480,294.545L502.857,283.636L525.714,286.364L548.571,274.091L571.429,287.727L594.286,283.636L617.143,293.182L640,257.727L662.857,293.182L685.714,289.091L708.571,294.545L731.429,295.909L754.286,297.273L777.143,294.545L800,283.636L800,286.364L777.143,294.545L754.286,297.273L731.429,295.909L708.571,294.545L685.714,291.818L662.857,293.182L640,260.455L617.143,293.182L594.286,285L571.429,291.818L548.571,275.455L525.714,294.545L502.857,290.455L480,295.909L457.143,295.909L434.286,282.273L411.429,293.182L388.571,294.545L365.714,289.091L342.857,285L320,291.818L297.143,291.818L274.286,293.182L251.429,275.455L228.571,291.818L205.714,297.273L182.857,298.636L160,290.455L137.143,300L114.286,300L91.429,300L68.571,298.636L45.714,300L22.857,300L0,300Z" fill="#54a24b"/></g></g><path class="foreground" aria-hidden="true" d="" display="none"/></g><g transform="translate(0,0)"><path class="background" aria-hidden="true" d="M0,0h800v300h-800Z"/><g><g class="mark-area role-mark marks" role="graphics-object" aria-roledescription="area mark container"><path aria-label="Date: Mar 16, 2026; Unique Clones/day: 0; Repository: karlmdavis/kxml2" role="graphics-symbol" aria-roledescription="area mark" d="M0,300L22.857,300L45.714,300L68.571,298.636L91.429,300L114.286,300L137.143,300L160,290.455L182.857,298.636L205.714,297.273L228.571,291.818L251.429,275.455L274.286,293.182L297.143,291.818L320,291.818L342.857,285L365.714,289.091L388.571,294.545L411.429,293.182L434.286,282.273L457.143,295.909L480,295.909L502.857,290.455L525.714,294.545L548.571,275.455L571.429,291.818L594.286,285L617.143,293.182L640,260.455L662.857,293.182L685.714,291.818L708.571,294.545L731.429,295.909L754.286,297.273L777.143,294.545L800,286.364L800,289.091L777.143,295.909L754.286,297.273L731.429,295.909L708.571,295.909L685.714,293.182L662.857,294.545L640,264.545L617.143,293.182L594.286,285L571.429,291.818L548.571,276.818L525.714,294.545L502.857,291.818L480,297.273L457.143,297.273L434.286,283.636L411.429,293.182L388.571,294.545L365.714,289.091L342.857,286.364L320,295.909L297.143,293.182L274.286,293.182L251.429,278.182L228.571,293.182L205.714,297.273L182.857,298.636L160,291.818L137.143,300L114.286,300L91.429,300L68.571,298.636L45.714,300L22.857,300L0,300Z" fill="#eeca3b"/></g></g><path class="foreground" aria-hidden="true" d="" display="none"/></g><g transform="translate(0,0)"><path class="background" aria-hidden="true" d="M0,0h800v300h-800Z"/><g><g class="mark-area role-mark marks" role="graphics-object" aria-roledescription="area mark container"><path aria-label="Date: Mar 16, 2026; Unique Clones/day: 0; Repository: karlmdavis/ldap-plugin" role="graphics-symbol" aria-roledescription="area mark" d="M0,300L22.857,300L45.714,300L68.571,298.636L91.429,300L114.286,300L137.143,300L160,291.818L182.857,298.636L205.714,297.273L228.571,293.182L251.429,278.182L274.286,293.182L297.143,293.182L320,295.909L342.857,286.364L365.714,289.091L388.571,294.545L411.429,293.182L434.286,283.636L457.143,297.273L480,297.273L502.857,291.818L525.714,294.545L548.571,276.818L571.429,291.818L594.286,285L617.143,293.182L640,264.545L662.857,294.545L685.714,293.182L708.571,295.909L731.429,295.909L754.286,297.273L777.143,295.909L800,289.091L800,289.091L777.143,295.909L754.286,297.273L731.429,295.909L708.571,295.909L685.714,293.182L662.857,294.545L640,264.545L617.143,293.182L594.286,285L571.429,291.818L548.571,276.818L525.714,294.545L502.857,291.818L480,297.273L457.143,297.273L434.286,283.636L411.429,294.545L388.571,295.909L365.714,289.091L342.857,286.364L320,295.909L297.143,293.182L274.286,293.182L251.429,278.182L228.571,293.182L205.714,297.273L182.857,298.636L160,291.818L137.143,300L114.286,300L91.429,300L68.571,298.636L45.714,300L22.857,300L0,300Z" fill="#b279a2"/></g></g><path class="foreground" aria-hidden="true" d="" display="none"/></g><g transform="translate(0,0)"><path class="background" aria-hidden="true" d="M0,0h800v300h-800Z"/><g><g class="mark-area role-mark marks" role="graphics-object" aria-roledescription="area mark container"><path aria-label="Date: Mar 16, 2026; Unique Clones/day: 0; Repository: karlmdavis/lego-ev3dev-rs" role="graphics-symbol" aria-roledescription="area mark" d="M0,300L22.857,300L45.714,300L68.571,298.636L91.429,300L114.286,300L137.143,300L160,291.818L182.857,298.636L205.714,297.273L228.571,293.182L251.429,278.182L274.286,293.182L297.143,293.182L320,295.909L342.857,286.364L365.714,289.091L388.571,295.909L411.429,294.545L434.286,283.636L457.143,297.273L480,297.273L502.857,291.818L525.714,294.545L548.571,276.818L571.429,291.818L594.286,285L617.143,293.182L640,264.545L662.857,294.545L685.714,293.182L708.571,295.909L731.429,295.909L754.286,297.273L777.143,295.909L800,289.091L800,290.455L777.143,295.909L754.286,298.636L731.429,297.273L708.571,295.909L685.714,294.545L662.857,294.545L640,268.636L617.143,293.182L594.286,287.727L571.429,291.818L548.571,279.545L525.714,294.545L502.857,293.182L480,297.273L457.143,298.636L434.286,285L411.429,295.909L388.571,295.909L365.714,290.455L342.857,289.091L320,295.909L297.143,294.545L274.286,294.545L251.429,282.273L228.571,293.182L205.714,298.636L182.857,298.636L160,293.182L137.143,300L114.286,300L91.429,300L68.571,298.636L45.714,300L22.857,300L0,300Z" fill="#ff9da6"/></g></g><path class="foreground" aria-hidden="true" d="" display="none"/></g><g transform="translate(0,0)"><path class="background" aria-hidden="true" d="M0,0h800v300h-800Z"/><g><g class="mark-area role-mark marks" role="graphics-object" aria-roledescription="area mark container"><path aria-label="Date: Mar 16, 2026; Unique Clones/day: 0; Repository: karlmdavis/liquibase" role="graphics-symbol" aria-roledescription="area mark" d="M0,300L22.857,300L45.714,300L68.571,298.636L91.429,300L114.286,300L137.143,300L160,293.182L182.857,298.636L205.714,298.636L228.571,293.182L251.429,282.273L274.286,294.545L297.143,294.545L320,295.909L342.857,289.091L365.714,290.455L388.571,295.909L411.429,295.909L434.286,285L457.143,298.636L480,297.273L502.857,293.182L525.714,294.545L548.571,279.545L571.429,291.818L594.286,287.727L617.143,293.182L640,268.636L662.857,294.545L685.714,294.545L708.571,295.909L731.429,297.273L754.286,298.636L777.143,295.909L800,290.455L800,290.455L777.143,295.909L754.286,298.636L731.429,297.273L708.571,295.909L685.714,294.545L662.857,294.545L640,268.636L617.143,293.182L594.286,287.727L571.429,293.182L548.571,280.909L525.714,294.545L502.857,293.182L480,297.273L457.143,298.636L434.286,285L411.429,295.909L388.571,295.909L365.714,290.455L342.857,289.091L320,295.909L297.143,294.545L274.286,294.545L251.429,282.273L228.571,293.182L205.714,298.636L182.857,298.636L160,293.182L137.143,300L114.286,300L91.429,300L68.571,300L45.714,300L22.857,300L0,300Z" fill="#9d755d"/></g></g><path class="foreground" aria-hidden="true" d="" display="none"/></g><g transform="translate(0,0)"><path class="background" aria-hidden="true" d="M0,0h800v300h-800Z"/><g><g class="mark-area role-mark marks" role="graphics-object" aria-roledescription="area mark container"><path aria-label="Date: Mar 16, 2026; Unique Clones/day: 0; Repository: karlmdavis/m2e-core" role="graphics-symbol" aria-roledescription="area mark" d="M0,300L22.857,300L45.714,300L68.571,300L91.429,300L114.286,300L137.143,300L160,293.182L182.857,298.636L205.714,298.636L228.571,293.182L251.429,282.273L274.286,294.545L297.143,294.545L320,295.909L342.857,289.091L365.714,290.455L388.571,295.909L411.429,295.909L434.286,285L457.143,298.636L480,297.273L502.857,293.182L525.714,294.545L548.571,280.909L571.429,293.182L594.286,287.727L617.143,293.182L640,268.636L662.857,294.545L685.714,294.545L708.571,295.909L731.429,297.273L754.286,298.636L777.143,295.909L800,290.455L800,290.455L777.143,295.909L754.286,298.636L731.429,297.273L708.571,295.909L685.714,294.545L662.857,294.545L640,271.364L617.143,293.182L594.286,289.091L571.429,294.545L548.571,283.636L525.714,295.909L502.857,294.545L480,297.273L457.143,298.636L434.286,286.364L411.429,295.909L388.571,295.909L365.714,290.455L342.857,289.091L320,295.909L297.143,295.909L274.286,294.545L251.429,283.636L228.571,293.182L205.714,298.636L182.857,298.636L160,293.182L137.143,300L114.286,300L91.429,300L68.571,300L45.714,300L22.857,300L0,300Z" fill="#bab0ac"/></g></g><path class="foreground" aria-hidden="true" d="" display="none"/></g><g transform="translate(0,0)"><path class="background" aria-hidden="true" d="M0,0h800v300h-800Z"/><g><g class="mark-area role-mark marks" role="graphics-object" aria-roledescription="area mark container"><path aria-label="Date: Mar 16, 2026; Unique Clones/day: 0; Repository: karlmdavis/m2e-core-tests" role="graphics-symbol" aria-roledescription="area mark" d="M0,300L22.857,300L45.714,300L68.571,300L91.429,300L114.286,300L137.143,300L160,293.182L182.857,298.636L205.714,298.636L228.571,293.182L251.429,283.636L274.286,294.545L297.143,295.909L320,295.909L342.857,289.091L365.714,290.455L388.571,295.909L411.429,295.909L434.286,286.364L457.143,298.636L480,297.273L502.857,294.545L525.714,295.909L548.571,283.636L571.429,294.545L594.286,289.091L617.143,293.182L640,271.364L662.857,294.545L685.714,294.545L708.571,295.909L731.429,297.273L754.286,298.636L777.143,295.909L800,290.455L800,290.455L777.143,295.909L754.286,298.636L731.429,297.273L708.571,295.909L685.714,294.545L662.857,294.545L640,271.364L617.143,294.545L594.286,289.091L571.429,297.273L548.571,285L525.714,297.273L502.857,295.909L480,297.273L457.143,298.636L434.286,286.364L411.429,295.909L388.571,295.909L365.714,293.182L342.857,289.091L320,295.909L297.143,295.909L274.286,295.909L251.429,283.636L228.571,294.545L205.714,298.636L182.857,298.636L160,293.182L137.143,300L114.286,300L91.429,300L68.571,300L45.714,300L22.857,300L0,300Z" fill="#4c78a8"/></g></g><path class="foreground" aria-hidden="true" d="" display="none"/></g><g transform="translate(0,0)"><path class="background" aria-hidden="true" d="M0,0h800v300h-800Z"/><g><g class="mark-area role-mark marks" role="graphics-object" aria-roledescription="area mark container"><path aria-label="Date: Mar 16, 2026; Unique Clones/day: 0; Repository: karlmdavis/obsidian-operator" role="graphics-symbol" aria-roledescription="area mark" d="M0,300L22.857,300L45.714,300L68.571,300L91.429,300L114.286,300L137.143,300L160,293.182L182.857,298.636L205.714,298.636L228.571,294.545L251.429,283.636L274.286,295.909L297.143,295.909L320,295.909L342.857,289.091L365.714,293.182L388.571,295.909L411.429,295.909L434.286,286.364L457.143,298.636L480,297.273L502.857,295.909L525.714,297.273L548.571,285L571.429,297.273L594.286,289.091L617.143,294.545L640,271.364L662.857,294.545L685.714,294.545L708.571,295.909L731.429,297.273L754.286,298.636L777.143,295.909L800,290.455L800,290.455L777.143,298.636L754.286,298.636L731.429,297.273L708.571,295.909L685.714,297.273L662.857,295.909L640,274.091L617.143,295.909L594.286,291.818L571.429,297.273L548.571,286.364L525.714,297.273L502.857,295.909L480,297.273L457.143,298.636L434.286,287.727L411.429,298.636L388.571,295.909L365.714,293.182L342.857,293.182L320,295.909L297.143,295.909L274.286,295.909L251.429,285L228.571,294.545L205.714,298.636L182.857,298.636L160,294.545L137.143,300L114.286,300L91.429,300L68.571,300L45.714,300L22.857,300L0,300Z" fill="#f58518"/></g></g><path class="foreground" aria-hidden="true" d="" display="none"/></g><g transform="translate(0,0)"><path class="background" aria-hidden="true" d="M0,0h800v300h-800Z"/><g><g class="mark-area role-mark marks" role="graphics-object" aria-roledescription="area mark container"><path aria-label="Date: Mar 16, 2026; Unique Clones/day: 0; Repository: karlmdavis/perfect-note" role="graphics-symbol" aria-roledescription="area mark" d="M0,300L22.857,300L45.714,300L68.571,300L91.429,300L114.286,300L137.143,300L160,294.545L182.857,298.636L205.714,298.636L228.571,294.545L251.429,285L274.286,295.909L297.143,295.909L320,295.909L342.857,293.182L365.714,293.182L388.571,295.909L411.429,298.636L434.286,287.727L457.143,298.636L480,297.273L502.857,295.909L525.714,297.273L548.571,286.364L571.429,297.273L594.286,291.818L617.143,295.909L640,274.091L662.857,295.909L685.714,297.273L708.571,295.909L731.429,297.273L754.286,298.636L777.143,298.636L800,290.455L800,291.818L777.143,298.636L754.286,298.636L731.429,297.273L708.571,295.909L685.714,297.273L662.857,297.273L640,276.818L617.143,295.909L594.286,291.818L571.429,297.273L548.571,287.727L525.714,297.273L502.857,295.909L480,297.273L457.143,298.636L434.286,289.091L411.429,298.636L388.571,295.909L365.714,293.182L342.857,293.182L320,295.909L297.143,295.909L274.286,297.273L251.429,286.364L228.571,295.909L205.714,298.636L182.857,298.636L160,294.545L137.143,300L114.286,300L91.429,300L68.571,300L45.714,300L22.857,300L0,300Z" fill="#e45756"/></g></g><path class="foreground" aria-hidden="true" d="" display="none"/></g><g transform="translate(0,0)"><path class="background" aria-hidden="true" d="M0,0h800v300h-800Z"/><g><g class="mark-area role-mark marks" role="graphics-object" aria-roledescription="area mark container"><path aria-label="Date: Mar 16, 2026; Unique Clones/day: 0; Repository: karlmdavis/puppet-archive" role="graphics-symbol" aria-roledescription="area mark" d="M0,300L22.857,300L45.714,300L68.571,300L91.429,300L114.286,300L137.143,300L160,294.545L182.857,298.636L205.714,298.636L228.571,295.909L251.429,286.364L274.286,297.273L297.143,295.909L320,295.909L342.857,293.182L365.714,293.182L388.571,295.909L411.429,298.636L434.286,289.091L457.143,298.636L480,297.273L502.857,295.909L525.714,297.273L548.571,287.727L571.429,297.273L594.286,291.818L617.143,295.909L640,276.818L662.857,297.273L685.714,297.273L708.571,295.909L731.429,297.273L754.286,298.636L777.143,298.636L800,291.818L800,291.818L777.143,298.636L754.286,298.636L731.429,297.273L708.571,295.909L685.714,297.273L662.857,297.273L640,276.818L617.143,295.909L594.286,293.182L571.429,297.273L548.571,289.091L525.714,297.273L502.857,295.909L480,297.273L457.143,298.636L434.286,289.091L411.429,298.636L388.571,295.909L365.714,293.182L342.857,293.182L320,295.909L297.143,295.909L274.286,297.273L251.429,286.364L228.571,295.909L205.714,298.636L182.857,298.636L160,295.909L137.143,300L114.286,300L91.429,300L68.571,300L45.714,300L22.857,300L0,300Z" fill="#72b7b2"/></g></g><path class="foreground" aria-hidden="true" d="" display="none"/></g><g transform="translate(0,0)"><path class="background" aria-hidden="true" d="M0,0h800v300h-800Z"/><g><g class="mark-area role-mark marks" role="graphics-object" aria-roledescription="area mark container"><path aria-label="Date: Mar 16, 2026; Unique Clones/day: 0; Repository: karlmdavis/puppet-sonar" role="graphics-symbol" aria-roledescription="area mark" d="M0,300L22.857,300L45.714,300L68.571,300L91.429,300L114.286,300L137.143,300L160,295.909L182.857,298.636L205.714,298.636L228.571,295.909L251.429,286.364L274.286,297.273L297.143,295.909L320,295.909L342.857,293.182L365.714,293.182L388.571,295.909L411.429,298.636L434.286,289.091L457.143,298.636L480,297.273L502.857,295.909L525.714,297.273L548.571,289.091L571.429,297.273L594.286,293.182L617.143,295.909L640,276.818L662.857,297.273L685.714,297.273L708.571,295.909L731.429,297.273L754.286,298.636L777.143,298.636L800,291.818L800,291.818L777.143,298.636L754.286,298.636L731.429,297.273L708.571,295.909L685.714,297.273L662.857,298.636L640,276.818L617.143,295.909L594.286,294.545L571.429,297.273L548.571,289.091L525.714,298.636L502.857,297.273L480,297.273L457.143,298.636L434.286,289.091L411.429,298.636L388.571,297.273L365.714,293.182L342.857,295.909L320,295.909L297.143,295.909L274.286,298.636L251.429,286.364L228.571,295.909L205.714,298.636L182.857,298.636L160,295.909L137.143,300L114.286,300L91.429,300L68.571,300L45.714,300L22.857,300L0,300Z" fill="#54a24b"/></g></g><path class="foreground" aria-hidden="true" d="" display="none"/></g><g transform="translate(0,0)"><path class="background" aria-hidden="true" d="M0,0h800v300h-800Z"/><g><g class="mark-area role-mark marks" role="graphics-object" aria-roledescription="area mark container"><path aria-label="Date: Mar 16, 2026; Unique Clones/day: 0; Repository: karlmdavis/rps-tourney" role="graphics-symbol" aria-roledescription="area mark" d="M0,300L22.857,300L45.714,300L68.571,300L91.429,300L114.286,300L137.143,300L160,295.909L182.857,298.636L205.714,298.636L228.571,295.909L251.429,286.364L274.286,298.636L297.143,295.909L320,295.909L342.857,295.909L365.714,293.182L388.571,297.273L411.429,298.636L434.286,289.091L457.143,298.636L480,297.273L502.857,297.273L525.714,298.636L548.571,289.091L571.429,297.273L594.286,294.545L617.143,295.909L640,276.818L662.857,298.636L685.714,297.273L708.571,295.909L731.429,297.273L754.286,298.636L777.143,298.636L800,291.818L800,293.182L777.143,298.636L754.286,298.636L731.429,297.273L708.571,295.909L685.714,297.273L662.857,298.636L640,279.545L617.143,295.909L594.286,295.909L571.429,297.273L548.571,290.455L525.714,298.636L502.857,297.273L480,297.273L457.143,298.636L434.286,290.455L411.429,298.636L388.571,298.636L365.714,293.182L342.857,295.909L320,295.909L297.143,295.909L274.286,298.636L251.429,287.727L228.571,295.909L205.714,298.636L182.857,298.636L160,297.273L137.143,300L114.286,300L91.429,300L68.571,300L45.714,300L22.857,300L0,300Z" fill="#eeca3b"/></g></g><path class="foreground" aria-hidden="true" d="" display="none"/></g><g transform="translate(0,0)"><path class="background" aria-hidden="true" d="M0,0h800v300h-800Z"/><g><g class="mark-area role-mark marks" role="graphics-object" aria-roledescription="area mark container"><path aria-label="Date: Mar 16, 2026; Unique Clones/day: 0; Repository: karlmdavis/sample-maven-and-rcp" role="graphics-symbol" aria-roledescription="area mark" d="M0,300L22.857,300L45.714,300L68.571,300L91.429,300L114.286,300L137.143,300L160,297.273L182.857,298.636L205.714,298.636L228.571,295.909L251.429,287.727L274.286,298.636L297.143,295.909L320,295.909L342.857,295.909L365.714,293.182L388.571,298.636L411.429,298.636L434.286,290.455L457.143,298.636L480,297.273L502.857,297.273L525.714,298.636L548.571,290.455L571.429,297.273L594.286,295.909L617.143,295.909L640,279.545L662.857,298.636L685.714,297.273L708.571,295.909L731.429,297.273L754.286,298.636L777.143,298.636L800,293.182L800,294.545L777.143,298.636L754.286,298.636L731.429,297.273L708.571,295.909L685.714,297.273L662.857,298.636L640,282.273L617.143,295.909L594.286,295.909L571.429,297.273L548.571,291.818L525.714,298.636L502.857,297.273L480,297.273L457.143,298.636L434.286,291.818L411.429,298.636L388.571,298.636L365.714,294.545L342.857,295.909L320,295.909L297.143,295.909L274.286,298.636L251.429,289.091L228.571,295.909L205.714,298.636L182.857,298.636L160,297.273L137.143,300L114.286,300L91.429,300L68.571,300L45.714,300L22.857,300L0,300Z" fill="#b279a2"/></g></g><path class="foreground" aria-hidden="true" d="" display="none"/></g><g transform="translate(0,0)"><path class="background" aria-hidden="true" d="M0,0h800v300h-800Z"/><g><g class="mark-area role-mark marks" role="graphics-object" aria-roledescription="area mark container"><path aria-label="Date: Mar 16, 2026; Unique Clones/day: 0; Repository: karlmdavis/stockfighter-trades-solutions" role="graphics-symbol" aria-roledescription="area mark" d="M0,300L22.857,300L45.714,300L68.571,300L91.429,300L114.286,300L137.143,300L160,297.273L182.857,298.636L205.714,298.636L228.571,295.909L251.429,289.091L274.286,298.636L297.143,295.909L320,295.909L342.857,295.909L365.714,294.545L388.571,298.636L411.429,298.636L434.286,291.818L457.143,298.636L480,297.273L502.857,297.273L525.714,298.636L548.571,291.818L571.429,297.273L594.286,295.909L617.143,295.909L640,282.273L662.857,298.636L685.714,297.273L708.571,295.909L731.429,297.273L754.286,298.636L777.143,298.636L800,294.545L800,295.909L777.143,298.636L754.286,298.636L731.429,297.273L708.571,295.909L685.714,297.273L662.857,298.636L640,286.364L617.143,295.909L594.286,295.909L571.429,297.273L548.571,293.182L525.714,298.636L502.857,297.273L480,297.273L457.143,298.636L434.286,293.182L411.429,298.636L388.571,298.636L365.714,294.545L342.857,295.909L320,295.909L297.143,297.273L274.286,298.636L251.429,291.818L228.571,295.909L205.714,298.636L182.857,298.636L160,297.273L137.143,300L114.286,300L91.429,300L68.571,300L45.714,300L22.857,300L0,300Z" fill="#ff9da6"/></g></g><path class="foreground" aria-hidden="true" d="" display="none"/></g><g transform="translate(0,0)"><path class="background" aria-hidden="true" d="M0,0h800v300h-800Z"/><g><g class="mark-area role-mark marks" role="graphics-object" aria-roledescription="area mark container"><path aria-label="Date: Mar 16, 2026; Unique Clones/day: 0; Repository: karlmdavis/test-repo-for-move" role="graphics-symbol" aria-roledescription="area mark" d="M0,300L22.857,300L45.714,300L68.571,300L91.429,300L114.286,300L137.143,300L160,297.273L182.857,298.636L205.714,298.636L228.571,295.909L251.429,291.818L274.286,298.636L297.143,297.273L320,295.909L342.857,295.909L365.714,294.545L388.571,298.636L411.429,298.636L434.286,293.182L457.143,298.636L480,297.273L502.857,297.273L525.714,298.636L548.571,293.182L571.429,297.273L594.286,295.909L617.143,295.909L640,286.364L662.857,298.636L685.714,297.273L708.571,295.909L731.429,297.273L754.286,298.636L777.143,298.636L800,295.909L800,295.909L777.143,298.636L754.286,298.636L731.429,297.273L708.571,297.273L685.714,297.273L662.857,298.636L640,289.091L617.143,295.909L594.286,295.909L571.429,297.273L548.571,294.545L525.714,298.636L502.857,297.273L480,297.273L457.143,298.636L434.286,294.545L411.429,298.636L388.571,298.636L365.714,294.545L342.857,295.909L320,295.909L297.143,298.636L274.286,298.636L251.429,293.182L228.571,297.273L205.714,298.636L182.857,298.636L160,297.273L137.143,300L114.286,300L91.429,300L68.571,300L45.714,300L22.857,300L0,300Z" fill="#9d755d"/></g></g><path class="foreground" aria-hidden="true" d="" display="none"/></g><g transform="translate(0,0)"><path class="background" aria-hidden="true" d="M0,0h800v300h-800Z"/><g><g class="mark-area role-mark marks" role="graphics-object" aria-roledescription="area mark container"><path aria-label="Date: Mar 16, 2026; Unique Clones/day: 0; Repository: karlmdavis/todoist-ai" role="graphics-symbol" aria-roledescription="area mark" d="M0,300L22.857,300L45.714,300L68.571,300L91.429,300L114.286,300L137.143,300L160,297.273L182.857,298.636L205.714,298.636L228.571,297.273L251.429,293.182L274.286,298.636L297.143,298.636L320,295.909L342.857,295.909L365.714,294.545L388.571,298.636L411.429,298.636L434.286,294.545L457.143,298.636L480,297.273L502.857,297.273L525.714,298.636L548.571,294.545L571.429,297.273L594.286,295.909L617.143,295.909L640,289.091L662.857,298.636L685.714,297.273L708.571,297.273L731.429,297.273L754.286,298.636L777.143,298.636L800,295.909L800,295.909L777.143,298.636L754.286,298.636L731.429,297.273L708.571,297.273L685.714,298.636L662.857,298.636L640,289.091L617.143,295.909L594.286,297.273L571.429,297.273L548.571,294.545L525.714,298.636L502.857,297.273L480,297.273L457.143,298.636L434.286,294.545L411.429,298.636L388.571,298.636L365.714,297.273L342.857,295.909L320,295.909L297.143,298.636L274.286,298.636L251.429,293.182L228.571,297.273L205.714,298.636L182.857,298.636L160,297.273L137.143,300L114.286,300L91.429,300L68.571,300L45.714,300L22.857,300L0,300Z" fill="#bab0ac"/></g></g><path class="foreground" aria-hidden="true" d="" display="none"/></g><g transform="translate(0,0)"><path class="background" aria-hidden="true" d="M0,0h800v300h-800Z"/><g><g class="mark-area role-mark marks" role="graphics-object" aria-roledescription="area mark container"><path aria-label="Date: Mar 16, 2026; Unique Clones/day: 0; Repository: karlmdavis/usgs-water-api-java" role="graphics-symbol" aria-roledescription="area mark" d="M0,300L22.857,300L45.714,300L68.571,300L91.429,300L114.286,300L137.143,300L160,297.273L182.857,298.636L205.714,298.636L228.571,297.273L251.429,293.182L274.286,298.636L297.143,298.636L320,295.909L342.857,295.909L365.714,297.273L388.571,298.636L411.429,298.636L434.286,294.545L457.143,298.636L480,297.273L502.857,297.273L525.714,298.636L548.571,294.545L571.429,297.273L594.286,297.273L617.143,295.909L640,289.091L662.857,298.636L685.714,298.636L708.571,297.273L731.429,297.273L754.286,298.636L777.143,298.636L800,295.909L800,298.636L777.143,300L754.286,300L731.429,298.636L708.571,300L685.714,300L662.857,300L640,293.182L617.143,300L594.286,298.636L571.429,298.636L548.571,297.273L525.714,300L502.857,298.636L480,300L457.143,300L434.286,297.273L411.429,300L388.571,300L365.714,298.636L342.857,297.273L320,298.636L297.143,300L274.286,300L251.429,295.909L228.571,300L205.714,300L182.857,300L160,300L137.143,300L114.286,300L91.429,300L68.571,300L45.714,300L22.857,300L0,300Z" fill="#4c78a8"/></g></g><path class="foreground" aria-hidden="true" d="" display="none"/></g><g transform="translate(0,0)"><path class="background" aria-hidden="true" d="M0,0h800v300h-800Z"/><g><g class="mark-area role-mark marks" role="graphics-object" aria-roledescription="area mark container"><path aria-label="Date: Mar 16, 2026; Unique Clones/day: 0; Repository: karlmdavis/workstation-base-ansible-role" role="graphics-symbol" aria-roledescription="area mark" d="M0,300L22.857,300L45.714,300L68.571,300L91.429,300L114.286,300L137.143,300L160,300L182.857,300L205.714,300L228.571,300L251.429,295.909L274.286,300L297.143,300L320,298.636L342.857,297.273L365.714,298.636L388.571,300L411.429,300L434.286,297.273L457.143,300L480,300L502.857,298.636L525.714,300L548.571,297.273L571.429,298.636L594.286,298.636L617.143,300L640,293.182L662.857,300L685.714,300L708.571,300L731.429,298.636L754.286,300L777.143,300L800,298.636L800,298.636L777.143,300L754.286,300L731.429,298.636L708.571,300L685.714,300L662.857,300L640,297.273L617.143,300L594.286,300L571.429,298.636L548.571,298.636L525.714,300L502.857,298.636L480,300L457.143,300L434.286,298.636L411.429,300L388.571,300L365.714,300L342.857,298.636L320,300L297.143,300L274.286,300L251.429,298.636L228.571,300L205.714,300L182.857,300L160,300L137.143,300L114.286,300L91.429,300L68.571,300L45.714,300L22.857,300L0,300Z" fill="#f58518"/></g></g><path class="foreground" aria-hidden="true" d="" display="none"/></g><g transform="translate(0,0)"><path class="background" aria-hidden="true" d="M0,0h800v300h-800Z"/><g><g class="mark-area role-mark marks" role="graphics-object" aria-roledescription="area mark container"><path aria-label="Date: Mar 16, 2026; Unique Clones/day: 0; Repository: karlmdavis/xmlpull" role="graphics-symbol" aria-roledescription="area mark" d="M0,300L22.857,300L45.714,300L68.571,300L91.429,300L114.286,300L137.143,300L160,300L182.857,300L205.714,300L228.571,300L251.429,298.636L274.286,300L297.143,300L320,300L342.857,298.636L365.714,300L388.571,300L411.429,300L434.286,298.636L457.143,300L480,300L502.857,298.636L525.714,300L548.571,298.636L571.429,298.636L594.286,300L617.143,300L640,297.273L662.857,300L685.714,300L708.571,300L731.429,298.636L754.286,300L777.143,300L800,298.636L800,300L777.143,300L754.286,300L731.429,300L708.571,300L685.714,300L662.857,300L640,300L617.143,300L594.286,300L571.429,300L548.571,300L525.714,300L502.857,300L480,300L457.143,300L434.286,300L411.429,300L388.571,300L365.714,300L342.857,300L320,300L297.143,300L274.286,300L251.429,300L228.571,300L205.714,300L182.857,300L160,300L137.143,300L114.286,300L91.429,300L68.571,300L45.714,300L22.857,300L0,300Z" fill="#e45756"/></g></g><path class="foreground" aria-hidden="true" d="" display="none"/></g></g><g class="mark-group role-legend" role="graphics-symbol" aria-roledescription="legend" aria-label="Symbol legend titled 'Repository' for fill color with 43 values: justdavis-family/github-analytics-data, justdavis-family/justdavis, karlmdavis/FHIR-Server, karlmdavis/ansible, karlmdavis/ansible-jenkins, ending with karlmdavis/xmlpull"><g transform="translate(818,0)"><path class="background" aria-hidden="true" d="M0,0h176v404h-176Z" pointer-events="none"/><g><g class="mark-group role-legend-entry"><g transform="translate(0,16)"><path class="background" aria-hidden="true" d="M0,0h0v0h0Z" pointer-events="none"/><g><g class="mark-group role-scope" role="graphics-object" aria-roledescription="group mark container"><g transform="translate(0,0)"><path class="background" aria-hidden="true" d="M0,0h176v11h-176Z" pointer-events="none" opacity="1"/><g><g class="mark-symbol role-legend-symbol" pointer-events="none"><path transform="translate(6,6)" d="M5,0A5,5,0,1,1,-5,0A5,5,0,1,1,5,0" fill="#4c78a8" stroke-width="1.5" opacity="1"/></g><g class="mark-text role-legend-label" pointer-events="none"><text text-anchor="start" transform="translate(16,9)" font-family="sans-serif" font-size="10px" fill="#000" opacity="1">justdavis-family/github-analytics-d…</text></g></g><path class="foreground" aria-hidden="true" d="" pointer-events="none" display="none"/></g><g transform="translate(0,13)"><path class="background" aria-hidden="true" d="M0,0h176v11h-176Z" pointer-events="none" opacity="1"/><g><g class="mark-symbol role-legend-symbol" pointer-events="none"><path transform="translate(6,6)" d="M5,0A5,5,0,1,1,-5,0A5,5,0,1,1,5,0" fill="#f58518" stroke-width="1.5" opacity="1"/></g><g class="mark-text role-legend-label" pointer-events="none"><text text-anchor="start" transform="translate(16,9)" font-family="sans-serif" font-size="10px" fill="#000" opacity="1">justdavis-family/justdavis</text></g></g><path class="foreground" aria-hidden="true" d="" pointer-events="none" display="none"/></g><g transform="translate(0,26)"><path class="background" aria-hidden="true" d="M0,0h176v11h-176Z" pointer-events="none" opacity="1"/><g><g class="mark-symbol role-legend-symbol" pointer-events="none"><path transform="translate(6,6)" d="M5,0A5,5,0,1,1,-5,0A5,5,0,1,1,5,0" fill="#e45756" stroke-width="1.5" opacity="1"/></g><g class="mark-text role-legend-label" pointer-events="none"><text text-anchor="start" transform="translate(16,9)" font-family="sans-serif" font-size="10px" fill="#000" opacity="1">karlmdavis/FHIR-Server</text></g></g><path class="foreground" aria-hidden="true" d="" pointer-events="none" display="none"/></g><g transform="translate(0,39)"><path class="background" aria-hidden="true" d="M0,0h176v11h-176Z" pointer-events="none" opacity="1"/><g><g class="mark-symbol role-legend-symbol" pointer-events="none"><path transform="translate(6,6)" d="M5,0A5,5,0,1,1,-5,0A5,5,0,1,1,5,0" fill="#72b7b2" stroke-width="1.5" opacity="1"/></g><g class="mark-text role-legend-label" pointer-events="none"><text text-anchor="start" transform="translate(16,9)" font-family="sans-serif" font-size="10px" fill="#000" opacity="1">karlmdavis/ansible</text></g></g><path class="foreground" aria-hidden="true" d="" pointer-events="none" display="none"/></g><g transform="translate(0,52)"><path class="background" aria-hidden="true" d="M0,0h176v11h-176Z" pointer-events="none" opacity="1"/><g><g class="mark-symbol role-legend-symbol" pointer-events="none"><path transform="translate(6,6)" d="M5,0A5,5,0,1,1,-5,0A5,5,0,1,1,5,0" fill="#54a24b" stroke-width="1.5" opacity="1"/></g><g class="mark-text role-legend-label" pointer-events="none"><text text-anchor="start" transform="translate(16,9)" font-family="sans-serif" font-size="10px" fill="#000" opacity="1">karlmdavis/ansible-jenkins</text></g></g><path class="foreground" aria-hidden="true" d="" pointer-events="none" display="none"/></g><g transform="translate(0,65)"><path class="background" aria-hidden="true" d="M0,0h176v11h-176Z" pointer-events="none" opacity="1"/><g><g class="mark-symbol role-legend-symbol" pointer-events="none"><path transform="translate(6,6)" d="M5,0A5,5,0,1,1,-5,0A5,5,0,1,1,5,0" fill="#eeca3b" stroke-width="1.5" opacity="1"/></g><g class="mark-text role-legend-label" pointer-events="none"><text text-anchor="start" transform="translate(16,9)" font-family="sans-serif" font-size="10px" fill="#000" opacity="1">karlmdavis/ansible-role-acmetool</text></g></g><path class="foreground" aria-hidden="true" d="" pointer-events="none" display="none"/></g><g transform="translate(0,78)"><path class="background" aria-hidden="true" d="M0,0h176v11h-176Z" pointer-events="none" opacity="1"/><g><g class="mark-symbol role-legend-symbol" pointer-events="none"><path transform="translate(6,6)" d="M5,0A5,5,0,1,1,-5,0A5,5,0,1,1,5,0" fill="#b279a2" stroke-width="1.5" opacity="1"/></g><g class="mark-text role-legend-label" pointer-events="none"><text text-anchor="start" transform="translate(16,9)" font-family="sans-serif" font-size="10px" fill="#000" opacity="1">karlmdavis/ansible-role-bind-dns</text></g></g><path class="foreground" aria-hidden="true" d="" pointer-events="none" display="none"/></g><g transform="translate(0,91)"><path class="background" aria-hidden="true" d="M0,0h176v11h-176Z" pointer-events="none" opacity="1"/><g><g class="mark-symbol role-legend-symbol" pointer-events="none"><path transform="translate(6,6)" d="M5,0A5,5,0,1,1,-5,0A5,5,0,1,1,5,0" fill="#ff9da6" stroke-width="1.5" opacity="1"/></g><g class="mark-text role-legend-label" pointer-events="none"><text text-anchor="start" transform="translate(16,9)" font-family="sans-serif" font-size="10px" fill="#000" opacity="1">karlmdavis/ansible-role-jenkins2</text></g></g><path class="foreground" aria-hidden="true" d="" pointer-events="none" display="none"/></g><g transform="translate(0,104)"><path class="background" aria-hidden="true" d="M0,0h176v11h-176Z" pointer-events="none" opacity="1"/><g><g class="mark-symbol role-legend-symbol" pointer-events="none"><path transform="translate(6,6)" d="M5,0A5,5,0,1,1,-5,0A5,5,0,1,1,5,0" fill="#9d755d" stroke-width="1.5" opacity="1"/></g><g class="mark-text role-legend-label" pointer-events="none"><text text-anchor="start" transform="translate(16,9)" font-family="sans-serif" font-size="10px" fill="#000" opacity="1">karlmdavis/ansible-role-ldap</text></g></g><path class="foreground" aria-hidden="true" d="" pointer-events="none" display="none"/></g><g transform="translate(0,117)"><path class="background" aria-hidden="true" d="M0,0h176v11h-176Z" pointer-events="none" opacity="1"/><g><g class="mark-symbol role-legend-symbol" pointer-events="none"><path transform="translate(6,6)" d="M5,0A5,5,0,1,1,-5,0A5,5,0,1,1,5,0" fill="#bab0ac" stroke-width="1.5" opacity="1"/></g><g class="mark-text role-legend-label" pointer-events="none"><text text-anchor="start" transform="translate(16,9)" font-family="sans-serif" font-size="10px" fill="#000" opacity="1">karlmdavis/ansible-role-rcm-dotfiles</text></g></g><path class="foreground" aria-hidden="true" d="" pointer-events="none" display="none"/></g><g transform="translate(0,130)"><path class="background" aria-hidden="true" d="M0,0h176v11h-176Z" pointer-events="none" opacity="1"/><g><g class="mark-symbol role-legend-symbol" pointer-events="none"><path transform="translate(6,6)" d="M5,0A5,5,0,1,1,-5,0A5,5,0,1,1,5,0" fill="#4c78a8" stroke-width="1.5" opacity="1"/></g><g class="mark-text role-legend-label" pointer-events="none"><text text-anchor="start" transform="translate(16,9)" font-family="sans-serif" font-size="10px" fill="#000" opacity="1">karlmdavis/ansible-roles</text></g></g><path class="foreground" aria-hidden="true" d="" pointer-events="none" display="none"/></g><g transform="translate(0,143)"><path class="background" aria-hidden="true" d="M0,0h176v11h-176Z" pointer-events="none" opacity="1"/><g><g class="mark-symbol role-legend-symbol" pointer-events="none"><path transform="translate(6,6)" d="M5,0A5,5,0,1,1,-5,0A5,5,0,1,1,5,0" fill="#f58518" stroke-width="1.5" opacity="1"/></g><g class="mark-text role-legend-label" pointer-events="none"><text text-anchor="start" transform="translate(16,9)" font-family="sans-serif" font-size="10px" fill="#000" opacity="1">karlmdavis/bbonfhir-dev-infra-doc…</text></g></g><path class="foreground" aria-hidden="true" d="" pointer-events="none" display="none"/></g><g transform="translate(0,156)"><path class="background" aria-hidden="true" d="M0,0h176v11h-176Z" pointer-events="none" opacity="1"/><g><g class="mark-symbol role-legend-symbol" pointer-events="none"><path transform="translate(6,6)" d="M5,0A5,5,0,1,1,-5,0A5,5,0,1,1,5,0" fill="#e45756" stroke-width="1.5" opacity="1"/></g><g class="mark-text role-legend-label" pointer-events="none"><text text-anchor="start" transform="translate(16,9)" font-family="sans-serif" font-size="10px" fill="#000" opacity="1">karlmdavis/can-i-kayak-baltimore</text></g></g><path class="foreground" aria-hidden="true" d="" pointer-events="none" display="none"/></g><g transform="translate(0,169)"><path class="background" aria-hidden="true" d="M0,0h176v11h-176Z" pointer-events="none" opacity="1"/><g><g class="mark-symbol role-legend-symbol" pointer-events="none"><path transform="translate(6,6)" d="M5,0A5,5,0,1,1,-5,0A5,5,0,1,1,5,0" fill="#72b7b2" stroke-width="1.5" opacity="1"/></g><g class="mark-text role-legend-label" pointer-events="none"><text text-anchor="start" transform="translate(16,9)" font-family="sans-serif" font-size="10px" fill="#000" opacity="1">karlmdavis/datanucleus-test-jdo-1…</text></g></g><path class="foreground" aria-hidden="true" d="" pointer-events="none" display="none"/></g><g transform="translate(0,182)"><path class="background" aria-hidden="true" d="M0,0h176v11h-176Z" pointer-events="none" opacity="1"/><g><g class="mark-symbol role-legend-symbol" pointer-events="none"><path transform="translate(6,6)" d="M5,0A5,5,0,1,1,-5,0A5,5,0,1,1,5,0" fill="#54a24b" stroke-width="1.5" opacity="1"/></g><g class="mark-text role-legend-label" pointer-events="none"><text text-anchor="start" transform="translate(16,9)" font-family="sans-serif" font-size="10px" fill="#000" opacity="1">karlmdavis/dotfiles</text></g></g><path class="foreground" aria-hidden="true" d="" pointer-events="none" display="none"/></g><g transform="translate(0,195)"><path class="background" aria-hidden="true" d="M0,0h176v11h-176Z" pointer-events="none" opacity="1"/><g><g class="mark-symbol role-legend-symbol" pointer-events="none"><path transform="translate(6,6)" d="M5,0A5,5,0,1,1,-5,0A5,5,0,1,1,5,0" fill="#eeca3b" stroke-width="1.5" opacity="1"/></g><g class="mark-text role-legend-label" pointer-events="none"><text text-anchor="start" transform="translate(16,9)" font-family="sans-serif" font-size="10px" fill="#000" opacity="1">karlmdavis/fhir-benchmarks</text></g></g><path class="foreground" aria-hidden="true" d="" pointer-events="none" display="none"/></g><g transform="translate(0,208)"><path class="background" aria-hidden="true" d="M0,0h176v11h-176Z" pointer-events="none" opacity="1"/><g><g class="mark-symbol role-legend-symbol" pointer-events="none"><path transform="translate(6,6)" d="M5,0A5,5,0,1,1,-5,0A5,5,0,1,1,5,0" fill="#b279a2" stroke-width="1.5" opacity="1"/></g><g class="mark-text role-legend-label" pointer-events="none"><text text-anchor="start" transform="translate(16,9)" font-family="sans-serif" font-size="10px" fill="#000" opacity="1">karlmdavis/hapi-fhir-jpaserver-sta…</text></g></g><path class="foreground" aria-hidden="true" d="" pointer-events="none" display="none"/></g><g transform="translate(0,221)"><path class="background" aria-hidden="true" d="M0,0h176v11h-176Z" pointer-events="none" opacity="1"/><g><g class="mark-symbol role-legend-symbol" pointer-events="none"><path transform="translate(6,6)" d="M5,0A5,5,0,1,1,-5,0A5,5,0,1,1,5,0" fill="#ff9da6" stroke-width="1.5" opacity="1"/></g><g class="mark-text role-legend-label" pointer-events="none"><text text-anchor="start" transform="translate(16,9)" font-family="sans-serif" font-size="10px" fill="#000" opacity="1">karlmdavis/hello-rust-actix</text></g></g><path class="foreground" aria-hidden="true" d="" pointer-events="none" display="none"/></g><g transform="translate(0,234)"><path class="background" aria-hidden="true" d="M0,0h176v11h-176Z" pointer-events="none" opacity="1"/><g><g class="mark-symbol role-legend-symbol" pointer-events="none"><path transform="translate(6,6)" d="M5,0A5,5,0,1,1,-5,0A5,5,0,1,1,5,0" fill="#9d755d" stroke-width="1.5" opacity="1"/></g><g class="mark-text role-legend-label" pointer-events="none"><text text-anchor="start" transform="translate(16,9)" font-family="sans-serif" font-size="10px" fill="#000" opacity="1">karlmdavis/jessentials</text></g></g><path class="foreground" aria-hidden="true" d="" pointer-events="none" display="none"/></g><g transform="translate(0,247)"><path class="background" aria-hidden="true" d="M0,0h176v11h-176Z" pointer-events="none" opacity="1"/><g><g class="mark-symbol role-legend-symbol" pointer-events="none"><path transform="translate(6,6)" d="M5,0A5,5,0,1,1,-5,0A5,5,0,1,1,5,0" fill="#bab0ac" stroke-width="1.5" opacity="1"/></g><g class="mark-text role-legend-label" pointer-events="none"><text text-anchor="start" transform="translate(16,9)" font-family="sans-serif" font-size="10px" fill="#000" opacity="1">karlmdavis/justdavis-ansible</text></g></g><path class="foreground" aria-hidden="true" d="" pointer-events="none" display="none"/></g><g transform="translate(0,260)"><path class="background" aria-hidden="true" d="M0,0h176v11h-176Z" pointer-events="none" opacity="1"/><g><g class="mark-symbol role-legend-symbol" pointer-events="none"><path transform="translate(6,6)" d="M5,0A5,5,0,1,1,-5,0A5,5,0,1,1,5,0" fill="#4c78a8" stroke-width="1.5" opacity="1"/></g><g class="mark-text role-legend-label" pointer-events="none"><text text-anchor="start" transform="translate(16,9)" font-family="sans-serif" font-size="10px" fill="#000" opacity="1">karlmdavis/justdavis-finances</text></g></g><path class="foreground" aria-hidden="true" d="" pointer-events="none" display="none"/></g><g transform="translate(0,273)"><path class="background" aria-hidden="true" d="M0,0h176v11h-176Z" pointer-events="none" opacity="1"/><g><g class="mark-symbol role-legend-symbol" pointer-events="none"><path transform="translate(6,6)" d="M5,0A5,5,0,1,1,-5,0A5,5,0,1,1,5,0" fill="#f58518" stroke-width="1.5" opacity="1"/></g><g class="mark-text role-legend-label" pointer-events="none"><text text-anchor="start" transform="translate(16,9)" font-family="sans-serif" font-size="10px" fill="#000" opacity="1">karlmdavis/justdavis-karl</text></g></g><path class="foreground" aria-hidden="true" d="" pointer-events="none" display="none"/></g><g transform="translate(0,286)"><path class="background" aria-hidden="true" d="M0,0h176v11h-176Z" pointer-events="none" opacity="1"/><g><g class="mark-symbol role-legend-symbol" pointer-events="none"><path transform="translate(6,6)" d="M5,0A5,5,0,1,1,-5,0A5,5,0,1,1,5,0" fill="#e45756" stroke-width="1.5" opacity="1"/></g><g class="mark-text role-legend-label" pointer-events="none"><text text-anchor="start" transform="translate(16,9)" font-family="sans-serif" font-size="10px" fill="#000" opacity="1">karlmdavis/justdavis-puppet</text></g></g><path class="foreground" aria-hidden="true" d="" pointer-events="none" display="none"/></g><g transform="translate(0,299)"><path class="background" aria-hidden="true" d="M0,0h176v11h-176Z" pointer-events="none" opacity="1"/><g><g class="mark-symbol role-legend-symbol" pointer-events="none"><path transform="translate(6,6)" d="M5,0A5,5,0,1,1,-5,0A5,5,0,1,1,5,0" fill="#72b7b2" stroke-width="1.5" opacity="1"/></g><g class="mark-text role-legend-label" pointer-events="none"><text text-anchor="start" transform="translate(16,9)" font-family="sans-serif" font-size="10px" fill="#000" opacity="1">karlmdavis/kobjects</text></g></g><path class="foreground" aria-hidden="true" d="" pointer-events="none" display="none"/></g><g transform="translate(0,312)"><path class="background" aria-hidden="true" d="M0,0h176v11h-176Z" pointer-events="none" opacity="1"/><g><g class="mark-symbol role-legend-symbol" pointer-events="none"><path transform="translate(6,6)" d="M5,0A5,5,0,1,1,-5,0A5,5,0,1,1,5,0" fill="#54a24b" stroke-width="1.5" opacity="1"/></g><g class="mark-text role-legend-label" pointer-events="none"><text text-anchor="start" transform="translate(16,9)" font-family="sans-serif" font-size="10px" fill="#000" opacity="1">karlmdavis/ksoap2-android</text></g></g><path class="foreground" aria-hidden="true" d="" pointer-events="none" display="none"/></g><g transform="translate(0,325)"><path class="background" aria-hidden="true" d="M0,0h176v11h-176Z" pointer-events="none" opacity="1"/><g><g class="mark-symbol role-legend-symbol" pointer-events="none"><path transform="translate(6,6)" d="M5,0A5,5,0,1,1,-5,0A5,5,0,1,1,5,0" fill="#eeca3b" stroke-width="1.5" opacity="1"/></g><g class="mark-text role-legend-label" pointer-events="none"><text text-anchor="start" transform="translate(16,9)" font-family="sans-serif" font-size="10px" fill="#000" opacity="1">karlmdavis/kxml2</text></g></g><path class="foreground" aria-hidden="true" d="" pointer-events="none" display="none"/></g><g transform="translate(0,338)"><path class="background" aria-hidden="true" d="M0,0h176v11h-176Z" pointer-events="none" opacity="1"/><g><g class="mark-symbol role-legend-symbol" pointer-events="none"><path transform="translate(6,6)" d="M5,0A5,5,0,1,1,-5,0A5,5,0,1,1,5,0" fill="#b279a2" stroke-width="1.5" opacity="1"/></g><g class="mark-text role-legend-label" pointer-events="none"><text text-anchor="start" transform="translate(16,9)" font-family="sans-serif" font-size="10px" fill="#000" opacity="1">karlmdavis/ldap-plugin</text></g></g><path class="foreground" aria-hidden="true" d="" pointer-events="none" display="none"/></g><g transform="translate(0,351)"><path class="background" aria-hidden="true" d="M0,0h176v11h-176Z" pointer-events="none" opacity="1"/><g><g class="mark-symbol role-legend-symbol" pointer-events="none"><path transform="translate(6,6)" d="M5,0A5,5,0,1,1,-5,0A5,5,0,1,1,5,0" fill="#ff9da6" stroke-width="1.5" opacity="1"/></g><g class="mark-text role-legend-label" pointer-events="none"><text text-anchor="start" transform="translate(16,9)" font-family="sans-serif" font-size="10px" fill="#000" opacity="1">karlmdavis/lego-ev3dev-rs</text></g></g><path class="foreground" aria-hidden="true" d="" pointer-events="none" display="none"/></g><g transform="translate(0,364)"><path class="background" aria-hidden="true" d="M0,0h176v11h-176Z" pointer-events="none" opacity="1"/><g><g class="mark-symbol role-legend-symbol" pointer-events="none"><path transform="translate(6,6)" d="M5,0A5,5,0,1,1,-5,0A5,5,0,1,1,5,0" fill="#9d755d" stroke-width="1.5" opacity="1"/></g><g class="mark-text role-legend-label" pointer-events="none"><text text-anchor="start" transform="translate(16,9)" font-family="sans-serif" font-size="10px" fill="#000" opacity="1">karlmdavis/liquibase</text></g></g><path class="foreground" aria-hidden="true" d="" pointer-events="none" display="none"/></g><g transform="translate(0,377)"><path class="background" aria-hidden="true" d="M0,0h176v11h-176Z" pointer-events="none" opacity="1"/><g><g class="mark-symbol role-legend-symbol" pointer-events="none"><path transform="translate(6,6)" d="M5,0A5,5,0,1,1,-5,0A5,5,0,1,1,5,0" fill="#bab0ac" stroke-width="1.5" opacity="1"/></g><g class="mark-text role-legend-label" pointer-events="none"><text text-anchor="start" transform="translate(16,9)" font-family="sans-serif" font-size="10px" fill="#000" opacity="1">…14 entries</text></g></g><path class="foreground" aria-hidden="true" d="" pointer-events="none" display="none"/></g></g></g><path class="foreground" aria-hidden="true" d="" pointer-events="none" display="none"/></g></g><g class="mark-text role-legend-title" pointer-events="none"><text text-anchor="start" transform="translate(0,9)" font-family="sans-serif" font-size="11px" font-weight="bold" fill="#000" opacity="1">Repository</text></g></g><path class="foreground" aria-hidden="true" d="" pointer-events="none" display="none"/></g></g><g class="mark-group role-title"><g transform="translate(400,-22)"><path class="background" aria-hidden="true" d="M0,0h0v0h0Z" pointer-events="none"/><g><g class="mark-text role-title-text" role="graphics-symbol" aria-roledescription="title" aria-label="Title text 'Unique Clones per Day'" pointer-events="none"><text text-anchor="middle" transform="translate(0,10)" font-family="sans-serif" font-size="13px" font-weight="bold" fill="#000" opacity="1">Unique Clones per Day</text></g></g><path class="foreground" aria-hidden="true" d="" pointer-events="none" display="none"/></g></g></g><path class="foreground" aria-hidden="true" d="" display="none"/></g></g></g></svg>