<svg xmlns="http://www.w3.org/2000/svg" xmlns:xlink="http://www.w3.org/1999/xlink" version="1.1" class="marks" width="1032" height="436" viewBox="0 0 1032 436"><rect width="1032" height="436" fill="white"/><g fill="none" stroke-miterlimit="10" transform="translate(33,27)"><g class="mark-group role-frame root" role="graphics-object" aria-roledescription="group mark container"><g transform="translate(0,0)"><path class="background" aria-hidden="true" d="M0.5,0.5h800v300h-800Z" stroke="#ddd"/><g><g class="mark-group role-axis" aria-hidden="true"><g transform="translate(0.5,300.5)"><path class="background" aria-hidden="true" d="M0,0h0v0h0Z" pointer-events="none"/><g><g class="mark-rule role-axis-grid" pointer-events="none"><line transform="translate(0,-300)" x2="0" y2="300" stroke="#ddd" stroke-width="1" opacity="1"/><line transform="translate(31,-300)" x2="0" y2="300" stroke="#ddd" stroke-width="1" opacity="1"/><line transform="translate(62,-300)" x2="0" y2="300" stroke="#ddd" stroke-width="1" opacity="1"/><line transform="translate(92,-300)" x2="0" y2="300" stroke="#ddd" stroke-width="1" opacity="1"/><line transform="translate(123,-300)" x2="0" y2="300" stroke="#ddd" stroke-width="1" opacity="1"/><line transform="translate(154,-300)" x2="0" y2="300" stroke="#ddd" stroke-width="1" opacity="1"/><line transform="translate(185,-300)" x2="0" y2="300" stroke="#ddd" stroke-width="1" opacity="1"/><line transform="translate(215,-300)" x2="0" y2="300" stroke="#ddd" stroke-width="1" opacity="1"/><line transform="translate(246,-300)" x2="0" y2="300" stroke="#ddd" stroke-width="1" opacity="1"/><line transform="translate(277,-300)" x2="0" y2="300" stroke="#ddd" stroke-width="1" opacity="1"/><line transform="translate(308,-300)" x2="0" y2="300" stroke="#ddd" stroke-width="1" opacity="1"/><line transform="translate(338,-300)" x2="0" y2="300" stroke="#ddd" stroke-width="1" opacity="1"/><line transform="translate(369,-300)" x2="0" y2="300" stroke="#ddd" stroke-width="1" opacity="1"/><line transform="translate(400,-300)" x2="0" y2="300" stroke="#ddd" stroke-width="1" opacity="1"/><line transform="translate(431,-300)" x2="0" y2="300" stroke="#ddd" stroke-width="1" opacity="1"/><line transform="translate(462,-300)" x2="0" y2="300" stroke="#ddd" stroke-width="1" opacity="1"/><line transform="translate(492,-300)" x2="0" y2="300" stroke="#ddd" stroke-width="1" opacity="1"/><line transform="translate(523,-300)" x2="0" y2="300" stroke="#ddd" stroke-width="1" opacity="1"/><line transform="translate(554,-300)" x2="0" y2="300" stroke="#ddd" stroke-width="1" opacity="1"/><line transform="translate(585,-300)" x2="0" y2="300" stroke="#ddd" stroke-width="1" opacity="1"/><line transform="translate(615,-300)" x2="0" y2="300" stroke="#ddd" stroke-width="1" opacity="1"/><line transform="translate(646,-300)" x2="0" y2="300" stroke="#ddd" stroke-width="1" opacity="1"/><line transform="translate(677,-300)" x2="0" y2="300" stroke="#ddd" stroke-width="1" opacity="1"/><line transform="translate(708,-300)" x2="0" y2="300" stroke="#ddd" stroke-width="1" opacity="1"/><line transform="translate(738,-300)" x2="0" y2="300" stroke="#ddd" stroke-width="1" opacity="1"/><line transform="translate(769,-300)" x2="0" y2="300" stroke="#ddd" stroke-width="1" opacity="1"/><line transform="translate(800,-300)" x2="0" y2="300" stroke="#ddd" stroke-width="1" opacity="1"/></g></g><path class="foreground" aria-hidden="true" d="" pointer-events="none" display="none"/></g></g><g class="mark-group role-axis" aria-hidden="true"><g transform="translate(0.5,0.5)"><path class="background" aria-hidden="true" d="M0,0h0v0h0Z" pointer-events="none"/><g><g class="mark-rule role-axis-grid" pointer-events="none"><line transform="translate(0,300)" x2="800" y2="0" stroke="#ddd" stroke-width="1" opacity="1"/><line transform="translate(0,263)" x2="800" y2="0" stroke="#ddd" stroke-width="1" opacity="1"/><line transform="translate(0,225)" x2="800" y2="0" stroke="#ddd" stroke-width="1" opacity="1"/><line transform="translate(0,188)" x2="800" y2="0" stroke="#ddd" stroke-width="1" opacity="1"/><line transform="translate(0,150)" x2="800" y2="0" stroke="#ddd" stroke-width="1" opacity="1"/><line transform="translate(0,113)" x2="800" y2="0" stroke="#ddd" stroke-width="1" opacity="1"/><line transform="translate(0,75)" x2="800" y2="0" stroke="#ddd" stroke-width="1" opacity="1"/><line transform="translate(0,38)" x2="800" y2="0" stroke="#ddd" stroke-width="1" opacity="1"/><line transform="translate(0,0)" x2="800" y2="0" stroke="#ddd" stroke-width="1" opacity="1"/></g></g><path class="foreground" aria-hidden="true" d="" pointer-events="none" display="none"/></g></g><g class="mark-group role-axis" role="graphics-symbol" aria-roledescription="axis" aria-label="X-axis titled 'Date' for a time scale with values from Monday, 16 March 2026, 12:00:00 AM to Saturday, 11 April 2026, 12:00:00 AM"><g transform="translate(0.5,300.5)"><path class="background" aria-hidden="true" d="M0,0h0v0h0Z" pointer-events="none"/><g><g class="mark-rule role-axis-tick" pointer-events="none"><line transform="translate(0,0)" x2="0" y2="5" stroke="#888" stroke-width="1" opacity="1"/><line transform="translate(31,0)" x2="0" y2="5" stroke="#888" stroke-width="1" opacity="1"/><line transform="translate(62,0)" x2="0" y2="5" stroke="#888" stroke-width="1" opacity="1"/><line transform="translate(92,0)" x2="0" y2="5" stroke="#888" stroke-width="1" opacity="1"/><line transform="translate(123,0)" x2="0" y2="5" stroke="#888" stroke-width="1" opacity="1"/><line transform="translate(154,0)" x2="0" y2="5" stroke="#888" stroke-width="1" opacity="1"/><line transform="translate(185,0)" x2="0" y2="5" stroke="#888" stroke-width="1" opacity="1"/><line transform="translate(215,0)" x2="0" y2="5" stroke="#888" stroke-width="1" opacity="1"/><line transform="translate(246,0)" x2="0" y2="5" stroke="#888" stroke-width="1" opacity="1"/><line transform="translate(277,0)" x2="0" y2="5" stroke="#888" stroke-width="1" opacity="1"/><line transform="translate(308,0)" x2="0" y2="5" stroke="#888" stroke-width="1" opacity="1"/><line transform="translate(338,0)" x2="0" y2="5" stroke="#888" stroke-width="1" opacity="1"/><line transform="translate(369,0)" x2="0" y2="5" stroke="#888" stroke-width="1" opacity="1"/><line transform="translate(400,0)" x2="0" y2="5" stroke="#888" stroke-width="1" opacity="1"/><line transform="translate(431,0)" x2="0" y2="5" stroke="#888" stroke-width="1" opacity="1"/><line transform="translate(462,0)" x2="0" y2="5" stroke="#888" stroke-width="1" opacity="1"/><line transform="translate(492,0)" x2="0" y2="5" stroke="#888" stroke-width="1" opacity="1"/><line transform="translate(523,0)" x2="0" y2="5" stroke="#888" stroke-width="1" opacity="1"/><line transform="translate(554,0)" x2="0" y2="5" stroke="#888" stroke-width="1" opacity="1"/><line transform="translate(585,0)" x2="0" y2="5" stroke="#888" stroke-width="1" opacity="1"/><line transform="translate(615,0)" x2="0" y2="5" stroke="#888" stroke-width="1" opacity="1"/><line transform="translate(646,0)" x2="0" y2="5" stroke="#888" stroke-width="1" opacity="1"/><line transform="translate(677,0)" x2="0" y2="5" stroke="#888" stroke-width="1" opacity="1"/><line transform="translate(708,0)" x2="0" y2="5" stroke="#888" stroke-width="1" opacity="1"/><line transform="translate(738,0)" x2="0" y2="5" stroke="#888" stroke-width="1" opacity="1"/><line transform="translate(769,0)" x2="0" y2="5" stroke="#888" stroke-width="1" opacity="1"/><line transform="translate(800,0)" x2="0" y2="5" stroke="#888" stroke-width="1" opacity="1"/></g><g class="mark-text role-axis-label" pointer-events="none"><text text-anchor="start" transform="translate(0,15)" font-family="sans-serif" font-size="10px" fill="#000" opacity="1">Mon 16</text><text text-anchor="middle" transform="translate(30.76923076923077,15)" font-family="sans-serif" font-size="10px" fill="#000" opacity="0">Tue 17</text><text text-anchor="middle" transform="translate(61.53846153846154,15)" font-family="sans-serif" font-size="10px" fill="#000" opacity="1">Wed 18</text><text text-anchor="middle" transform="translate(92.3076923076923,15)" font-family="sans-serif" font-size="10px" fill="#000" opacity="0">Thu 19</text><text text-anchor="middle" transform="translate(123.07692307692308,15)" font-family="sans-serif" font-size="10px" fill="#000" opacity="1">Fri 20</text><text text-anchor="middle" transform="translate(153.84615384615387,15)" font-family="sans-serif" font-size="10px" fill="#000" opacity="0">Sat 21</text><text text-anchor="middle" transform="translate(184.6153846153846,15)" font-family="sans-serif" font-size="10px" fill="#000" opacity="1">Mar 22</text><text text-anchor="middle" transform="translate(215.3846153846154,15)" font-family="sans-serif" font-size="10px" fill="#000" opacity="0">Mon 23</text><text text-anchor="middle" transform="translate(246.15384615384616,15)" font-family="sans-serif" font-size="10px" fill="#000" opacity="1">Tue 24</text><text text-anchor="middle" transform="translate(276.9230769230769,15)" font-family="sans-serif" font-size="10px" fill="#000" opacity="0">Wed 25</text><text text-anchor="middle" transform="translate(307.69230769230774,15)" font-family="sans-serif" font-size="10px" fill="#000" opacity="1">Thu 26</text><text text-anchor="middle" transform="translate(338.46153846153845,15)" font-family="sans-serif" font-size="10px" fill="#000" opacity="0">Fri 27</text><text text-anchor="middle" transform="translate(369.2307692307692,15)" font-family="sans-serif" font-size="10px" fill="#000" opacity="1">Sat 28</text><text text-anchor="middle" transform="translate(400,15)" font-family="sans-serif" font-size="10px" fill="#000" opacity="0">Mar 29</text><text text-anchor="middle" transform="translate(430.7692307692308,15)" font-family="sans-serif" font-size="10px" fill="#000" opacity="1">Mon 30</text><text text-anchor="middle" transform="translate(461.5384615384615,15)" font-family="sans-serif" font-size="10px" fill="#000" opacity="0">Tue 31</text><text text-anchor="middle" transform="translate(492.3076923076923,15)" font-family="sans-serif" font-size="10px" fill="#000" opacity="1">April</text><text text-anchor="middle" transform="translate(523.0769230769231,15)" font-family="sans-serif" font-size="10px" fill="#000" opacity="0">Thu 02</text><text text-anchor="middle" transform="translate(553.8461538461538,15)" font-family="sans-serif" font-size="10px" fill="#000" opacity="1">Fri 03</text><text text-anchor="middle" transform="translate(584.6153846153845,15)" font-family="sans-serif" font-size="10px" fill="#000" opacity="0">Sat 04</text><text text-anchor="middle" transform="translate(615.3846153846155,15)" font-family="sans-serif" font-size="10px" fill="#000" opacity="1">Apr 05</text><text text-anchor="middle" transform="translate(646.1538461538462,15)" font-family="sans-serif" font-size="10px" fill="#000" opacity="0">Mon 06</text><text text-anchor="middle" transform="translate(676.9230769230769,15)" font-family="sans-serif" font-size="10px" fill="#000" opacity="1">Tue 07</text><text text-anchor="middle" transform="translate(707.6923076923076,15)" font-family="sans-serif" font-size="10px" fill="#000" opacity="0">Wed 08</text><text text-anchor="middle" transform="translate(738.4615384615385,15)" font-family="sans-serif" font-size="10px" fill="#000" opacity="1">Thu 09</text><text text-anchor="middle" transform="translate(769.2307692307693,15)" font-family="sans-serif" font-size="10px" fill="#000" opacity="0">Fri 10</text><text text-anchor="end" transform="translate(800,15)" font-family="sans-serif" font-size="10px" fill="#000" opacity="1">Sat 11</text></g><g class="mark-rule role-axis-domain" pointer-events="none"><line transform="translate(0,0)" x2="800" y2="0" stroke="#888" stroke-width="1" opacity="1"/></g><g class="mark-text role-axis-title" pointer-events="none"><text text-anchor="middle" transform="translate(400,30)" font-family="sans-serif" font-size="11px" font-weight="bold" fill="#000" opacity="1">Date</text></g></g><path class="foreground" aria-hidden="true" d="" pointer-events="none" display="none"/></g></g><g class="mark-group role-axis" role="graphics-symbol" aria-roledescription="axis" aria-label="Y-axis titled 'Unique Visitors/day' for a linear scale with values from 0 to 8"><g transform="translate(0.5,0.5)"><path class="background" aria-hidden="true" d="M0,0h0v0h0Z" pointer-events="none"/><g><g class="mark-rule role-axis-tick" pointer-events="none"><line transform="translate(0,300)" x2="-5" y2="0" stroke="#888" stroke-width="1" opacity="1"/><line transform="translate(0,263)" x2="-5" y2="0" stroke="#888" stroke-width="1" opacity="1"/><line transform="translate(0,225)" x2="-5" y2="0" stroke="#888" stroke-width="1" opacity="1"/><line transform="translate(0,188)" x2="-5" y2="0" stroke="#888" stroke-width="1" opacity="1"/><line transform="translate(0,150)" x2="-5" y2="0" stroke="#888" stroke-width="1" opacity="1"/><line transform="translate(0,113)" x2="-5" y2="0" stroke="#888" stroke-width="1" opacity="1"/><line transform="translate(0,75)" x2="-5" y2="0" stroke="#888" stroke-width="1" opacity="1"/><line transform="translate(0,38)" x2="-5" y2="0" stroke="#888" stroke-width="1" opacity="1"/><line transform="translate(0,0)" x2="-5" y2="0" stroke="#888" stroke-width="1" opacity="1"/></g><g class="mark-text role-axis-label" pointer-events="none"><text text-anchor="end" transform="translate(-7,303)" font-family="sans-serif" font-size="10px" fill="#000" opacity="1">0</text><text text-anchor="end" transform="translate(-7,265.5)" font-family="sans-serif" font-size="10px" fill="#000" opacity="1">1</text><text text-anchor="end" transform="translate(-7,228)" font-family="sans-serif" font-size="10px" fill="#000" opacity="1">2</text><text text-anchor="end" transform="translate(-7,190.5)" font-family="sans-serif" font-size="10px" fill="#000" opacity="1">3</text><text text-anchor="end" transform="translate(-7,153)" font-family="sans-serif" font-size="10px" fill="#000" opacity="1">4</text><text text-anchor="end" transform="translate(-7,115.5)" font-family="sans-serif" font-size="10px" fill="#000" opacity="1">5</text><text text-anchor="end" transform="translate(-7,78)" font-family="sans-serif" font-size="10px" fill="#000" opacity="1">6</text><text text-anchor="end" transform="translate(-7,40.5)" font-family="sans-serif" font-size="10px" fill="#000" opacity="1">7</text><text text-anchor="end" transform="translate(-7,3)" font-family="sans-serif" font-size="10px" fill="#000" opacity="1">8</text></g><g class="mark-rule role-axis-domain" pointer-events="none"><line transform="translate(0,300)" x2="0" y2="-300" stroke="#888" stroke-width="1" opacity="1"/></g><g class="mark-text role-axis-title" pointer-events="none"><text text-anchor="middle" transform="translate(-16.5615234375,150) rotate(-90) translate(0,-2)" font-family="sans-serif" font-size="11px" font-weight="bold" fill="#000" opacity="1">Unique Visitors/day</text></g></g><path class="foreground" aria-hidden="true" d="" pointer-events="none" display="none"/></g></g><g class="mark-group role-scope pathgroup" role="graphics-object" aria-roledescription="group mark container"><g transform="translate(0,0)"><path class="background" aria-hidden="true" d="M0,0h800v300h-800Z"/><g><g class="mark-area role-mark marks" role="graphics-object" aria-roledescription="area mark container"><path aria-label="Date: Mar 16, 2026; Unique Visitors/day: 0; Repository: justdavis-family/github-analytics-data" role="graphics-symbol" aria-roledescription="area mark" d="M0,300L30.769,300L61.538,300L92.308,300L123.077,300L153.846,300L184.615,300L215.385,187.5L246.154,187.5L276.923,150L307.692,187.5L338.462,187.5L369.231,187.5L400,262.5L430.769,0L461.538,262.5L492.308,150L523.077,262.5L553.846,300L584.615,225L615.385,262.5L646.154,300L676.923,187.5L707.692,262.5L738.462,262.5L769.231,225L800,300L800,300L769.231,225L738.462,262.5L707.692,262.5L676.923,187.5L646.154,300L615.385,262.5L584.615,225L553.846,300L523.077,262.5L492.308,150L461.538,262.5L430.769,0L400,262.5L369.231,187.5L338.462,187.5L307.692,187.5L276.923,150L246.154,187.5L215.385,187.5L184.615,300L153.846,300L123.077,300L92.308,300L61.538,300L30.769,300L0,300Z" fill="#4c78a8"/></g></g><path class="foreground" aria-hidden="true" d="" display="none"/></g><g transform="translate(0,0)"><path class="background" aria-hidden="true" d="M0,0h800v300h-800Z"/><g><g class="mark-area role-mark marks" role="graphics-object" aria-roledescription="area mark container"><path aria-label="Date: Mar 16, 2026; Unique Visitors/day: 0; Repository: justdavis-family/justdavis" role="graphics-symbol" aria-roledescription="area mark" d="M0,300L30.769,300L61.538,300L92.308,300L123.077,300L153.846,300L184.615,300L215.385,187.5L246.154,187.5L276.923,150L307.692,187.5L338.462,187.5L369.231,187.5L400,262.5L430.769,0L461.538,262.5L492.308,150L523.077,262.5L553.846,300L584.615,225L615.385,262.5L646.154,300L676.923,187.5L707.692,262.5L738.462,262.5L769.231,225L800,300L800,300L769.231,225L738.462,262.5L707.692,262.5L676.923,262.5L646.154,300L615.385,262.5L584.615,225L553.846,300L523.077,262.5L492.308,150L461.538,262.5L430.769,37.5L400,262.5L369.231,187.5L338.462,187.5L307.692,187.5L276.923,150L246.154,187.5L215.385,187.5L184.615,300L153.846,300L123.077,300L92.308,300L61.538,300L30.769,300L0,300Z" fill="#f58518"/></g></g><path class="foreground" aria-hidden="true" d="" display="none"/></g><g transform="translate(0,0)"><path class="background" aria-hidden="true" d="M0,0h800v300h-800Z"/><g><g class="mark-area role-mark marks" role="graphics-object" aria-roledescription="area mark container"><path aria-label="Date: Mar 16, 2026; Unique Visitors/day: 0; Repository: karlmdavis/FHIR-Server" role="graphics-symbol" aria-roledescription="area mark" d="M0,300L30.769,300L61.538,300L92.308,300L123.077,300L153.846,300L184.615,300L215.385,187.5L246.154,187.5L276.923,150L307.692,187.5L338.462,187.5L369.231,187.5L400,262.5L430.769,37.5L461.538,262.5L492.308,150L523.077,262.5L553.846,300L584.615,225L615.385,262.5L646.154,300L676.923,262.5L707.692,262.5L738.462,262.5L769.231,225L800,300L800,300L769.231,225L738.462,262.5L707.692,262.5L676.923,262.5L646.154,300L615.385,262.5L584.615,225L553.846,300L523.077,262.5L492.308,150L461.538,262.5L430.769,37.5L400,262.5L369.231,187.5L338.462,187.5L307.692,187.5L276.923,150L246.154,187.5L215.385,187.5L184.615,300L153.846,300L123.077,300L92.308,300L61.538,300L30.769,300L0,300Z" fill="#e45756"/></g></g><path class="foreground" aria-hidden="true" d="" display="none"/></g><g transform="translate(0,0)"><path class="background" aria-hidden="true" d="M0,0h800v300h-800Z"/><g><g class="mark-area role-mark marks" role="graphics-object" aria-roledescription="area mark container"><path aria-label="Date: Mar 16, 2026; Unique Visitors/day: 0; Repository: karlmdavis/ansible" role="graphics-symbol" aria-roledescription="area mark" d="M0,300L30.769,300L61.538,300L92.308,300L123.077,300L153.846,300L184.615,300L215.385,187.5L246.154,187.5L276.923,150L307.692,187.5L338.462,187.5L369.231,187.5L400,262.5L430.769,37.5L461.538,262.5L492.308,150L523.077,262.5L553.846,300L584.615,225L615.385,262.5L646.154,300L676.923,262.5L707.692,262.5L738.462,262.5L769.231,225L800,300L800,300L769.231,225L738.462,262.5L707.692,262.5L676.923,262.5L646.154,300L615.385,262.5L584.615,225L553.846,300L523.077,262.5L492.308,150L461.538,262.5L430.769,37.5L400,262.5L369.231,187.5L338.462,187.5L307.692,187.5L276.923,150L246.154,187.5L215.385,187.5L184.615,300L153.846,300L123.077,300L92.308,300L61.538,300L30.769,300L0,300Z" fill="#72b7b2"/></g></g><path class="foreground" aria-hidden="true" d="" display="none"/></g><g transform="translate(0,0)"><path class="background" aria-hidden="true" d="M0,0h800v300h-800Z"/><g><g class="mark-area role-mark marks" role="graphics-object" aria-roledescription="area mark container"><path aria-label="Date: Mar 16, 2026; Unique Visitors/day: 0; Repository: karlmdavis/ansible-jenkins" role="graphics-symbol" aria-roledescription="area mark" d="M0,300L30.769,300L61.538,300L92.308,300L123.077,300L153.846,300L184.615,300L215.385,187.5L246.154,187.5L276.923,150L307.692,187.5L338.462,187.5L369.231,187.5L400,262.5L430.769,37.5L461.538,262.5L492.308,150L523.077,262.5L553.846,300L584.615,225L615.385,262.5L646.154,300L676.923,262.5L707.692,262.5L738.462,262.5L769.231,225L800,300L800,300L769.231,225L738.462,262.5L707.692,262.5L676.923,262.5L646.154,300L615.385,262.5L584.615,225L553.846,300L523.077,262.5L492.308,150L461.538,262.5L430.769,37.5L400,262.5L369.231,187.5L338.462,187.5L307.692,187.5L276.923,150L246.154,187.5L215.385,187.5L184.615,300L153.846,300L123.077,300L92.308,300L61.538,300L30.769,300L0,300Z" fill="#54a24b"/></g></g><path class="foreground" aria-hidden="true" d="" display="none"/></g><g transform="translate(0,0)"><path class="background" aria-hidden="true" d="M0,0h800v300h-800Z"/><g><g class="mark-area role-mark marks" role="graphics-object" aria-roledescription="area mark container"><path aria-label="Date: Mar 16, 2026; Unique Visitors/day: 0; Repository: karlmdavis/ansible-role-acmetool" role="graphics-symbol" aria-roledescription="area mark" d="M0,300L30.769,300L61.538,300L92.308,300L123.077,300L153.846,300L184.615,300L215.385,187.5L246.154,187.5L276.923,150L307.692,187.5L338.462,187.5L369.231,187.5L400,262.5L430.769,37.5L461.538,262.5L492.308,150L523.077,262.5L553.846,300L584.615,225L615.385,262.5L646.154,300L676.923,262.5L707.692,262.5L738.462,262.5L769.231,225L800,300L800,300L769.231,225L738.462,262.5L707.692,262.5L676.923,262.5L646.154,300L615.385,262.5L584.615,225L553.846,300L523.077,262.5L492.308,150L461.538,262.5L430.769,37.5L400,262.5L369.231,187.5L338.462,187.5L307.692,187.5L276.923,150L246.154,187.5L215.385,187.5L184.615,300L153.846,300L123.077,300L92.308,300L61.538,300L30.769,300L0,300Z" fill="#eeca3b"/></g></g><path class="foreground" aria-hidden="true" d="" display="none"/></g><g transform="translate(0,0)"><path class="background" aria-hidden="true" d="M0,0h800v300h-800Z"/><g><g class="mark-area role-mark marks" role="graphics-object" aria-roledescription="area mark container"><path aria-label="Date: Mar 16, 2026; Unique Visitors/day: 0; Repository: karlmdavis/ansible-role-bind-dns" role="graphics-symbol" aria-roledescription="area mark" d="M0,300L30.769,300L61.538,300L92.308,300L123.077,300L153.846,300L184.615,300L215.385,187.5L246.154,187.5L276.923,150L307.692,187.5L338.462,187.5L369.231,187.5L400,262.5L430.769,37.5L461.538,262.5L492.308,150L523.077,262.5L553.846,300L584.615,225L615.385,262.5L646.154,300L676.923,262.5L707.692,262.5L738.462,262.5L769.231,225L800,300L800,300L769.231,225L738.462,262.5L707.692,262.5L676.923,262.5L646.154,300L615.385,262.5L584.615,262.5L553.846,300L523.077,262.5L492.308,150L461.538,262.5L430.769,37.5L400,262.5L369.231,225L338.462,187.5L307.692,187.5L276.923,187.5L246.154,187.5L215.385,187.5L184.615,300L153.846,300L123.077,300L92.308,300L61.538,300L30.769,300L0,300Z" fill="#b279a2"/></g></g><path class="foreground" aria-hidden="true" d="" display="none"/></g><g transform="translate(0,0)"><path class="background" aria-hidden="true" d="M0,0h800v300h-800Z"/><g><g class="mark-area role-mark marks" role="graphics-object" aria-roledescription="area mark container"><path aria-label="Date: Mar 16, 2026; Unique Visitors/day: 0; Repository: karlmdavis/ansible-role-jenkins2" role="graphics-symbol" aria-roledescription="area mark" d="M0,300L30.769,300L61.538,300L92.308,300L123.077,300L153.846,300L184.615,300L215.385,187.5L246.154,187.5L276.923,187.5L307.692,187.5L338.462,187.5L369.231,225L400,262.5L430.769,37.5L461.538,262.5L492.308,150L523.077,262.5L553.846,300L584.615,262.5L615.385,262.5L646.154,300L676.923,262.5L707.692,262.5L738.462,262.5L769.231,225L800,300L800,300L769.231,225L738.462,262.5L707.692,262.5L676.923,262.5L646.154,300L615.385,262.5L584.615,262.5L553.846,300L523.077,262.5L492.308,150L461.538,262.5L430.769,75L400,300L369.231,225L338.462,187.5L307.692,187.5L276.923,187.5L246.154,187.5L215.385,187.5L184.615,300L153.846,300L123.077,300L92.308,300L61.538,300L30.769,300L0,300Z" fill="#ff9da6"/></g></g><path class="foreground" aria-hidden="true" d="" display="none"/></g><g transform="translate(0,0)"><path class="background" aria-hidden="true" d="M0,0h800v300h-800Z"/><g><g class="mark-area role-mark marks" role="graphics-object" aria-roledescription="area mark container"><path aria-label="Date: Mar 16, 2026; Unique Visitors/day: 0; Repository: karlmdavis/ansible-role-ldap" role="graphics-symbol" aria-roledescription="area mark" d="M0,300L30.769,300L61.538,300L92.308,300L123.077,300L153.846,300L184.615,300L215.385,187.5L246.154,187.5L276.923,187.5L307.692,187.5L338.462,187.5L369.231,225L400,300L430.769,75L461.538,262.5L492.308,150L523.077,262.5L553.846,300L584.615,262.5L615.385,262.5L646.154,300L676.923,262.5L707.692,262.5L738.462,262.5L769.231,225L800,300L800,300L769.231,225L738.462,262.5L707.692,262.5L676.923,262.5L646.154,300L615.385,262.5L584.615,262.5L553.846,300L523.077,262.5L492.308,150L461.538,262.5L430.769,75L400,300L369.231,225L338.462,187.5L307.692,187.5L276.923,187.5L246.154,187.5L215.385,187.5L184.615,300L153.846,300L123.077,300L92.308,300L61.538,300L30.769,300L0,300Z" fill="#9d755d"/></g></g><path class="foreground" aria-hidden="true" d="" display="none"/></g><g transform="translate(0,0)"><path class="background" aria-hidden="true" d="M0,0h800v300h-800Z"/><g><g class="mark-area role-mark marks" role="graphics-object" aria-roledescription="area mark container"><path aria-label="Date: Mar 16, 2026; Unique Visitors/day: 0; Repository: karlmdavis/ansible-role-rcm-dotfiles" role="graphics-symbol" aria-roledescription="area mark" d="M0,300L30.769,300L61.538,300L92.308,300L123.077,300L153.846,300L184.615,300L215.385,187.5L246.154,187.5L276.923,187.5L307.692,187.5L338.462,187.5L369.231,225L400,300L430.769,75L461.538,262.5L492.308,150L523.077,262.5L553.846,300L584.615,262.5L615.385,262.5L646.154,300L676.923,262.5L707.692,262.5L738.462,262.5L769.231,225L800,300L800,300L769.231,225L738.462,262.5L707.692,262.5L676.923,262.5L646.154,300L615.385,262.5L584.615,262.5L553.846,300L523.077,262.5L492.308,150L461.538,262.5L430.769,75L400,300L369.231,225L338.462,187.5L307.692,187.5L276.923,187.5L246.154,187.5L215.385,187.5L184.615,300L153.846,300L123.077,300L92.308,300L61.538,300L30.769,300L0,300Z" fill="#bab0ac"/></g></g><path class="foreground" aria-hidden="true" d="" display="none"/></g><g transform="translate(0,0)"><path class="background" aria-hidden="true" d="M0,0h800v300h-800Z"/><g><g class="mark-area role-mark marks" role="graphics-object" aria-roledescription="area mark container"><path aria-label="Date: Mar 16, 2026; Unique Visitors/day: 0; Repository: karlmdavis/ansible-roles" role="graphics-symbol" aria-roledescription="area mark" d="M0,300L30.769,300L61.538,300L92.308,300L123.077,300L153.846,300L184.615,300L215.385,187.5L246.154,187.5L276.923,187.5L307.692,187.5L338.462,187.5L369.231,225L400,300L430.769,75L461.538,262.5L492.308,150L523.077,262.5L553.846,300L584.615,262.5L615.385,262.5L646.154,300L676.923,262.5L707.692,262.5L738.462,262.5L769.231,225L800,300L800,300L769.231,225L738.462,262.5L707.692,262.5L676.923,262.5L646.154,300L615.385,262.5L584.615,262.5L553.846,300L523.077,262.5L492.308,150L461.538,262.5L430.769,75L400,300L369.231,225L338.462,187.5L307.692,187.5L276.923,187.5L246.154,187.5L215.385,187.5L184.615,300L153.846,300L123.077,300L92.308,300L61.538,300L30.769,300L0,300Z" fill="#4c78a8"/></g></g><path class="foreground" aria-hidden="true" d="" display="none"/></g><g transform="translate(0,0)"><path class="background" aria-hidden="true" d="M0,0h800v300h-800Z"/><g><g class="mark-area role-mark marks" role="graphics-object" aria-roledescription="area mark container"><path aria-label="Date: Mar 16, 2026; Unique Visitors/day: 0; Repository: karlmdavis/bbonfhir-dev-infra-docker" role="graphics-symbol" aria-roledescription="area mark" d="M0,300L30.769,300L61.538,300L92.308,300L123.077,300L153.846,300L184.615,300L215.385,187.5L246.154,187.5L276.923,187.5L307.692,187.5L338.462,187.5L369.231,225L400,300L430.769,75L461.538,262.5L492.308,150L523.077,262.5L553.846,300L584.615,262.5L615.385,262.5L646.154,300L676.923,262.5L707.692,262.5L738.462,262.5L769.231,225L800,300L800,300L769.231,225L738.462,262.5L707.692,262.5L676.923,262.5L646.154,300L615.385,262.5L584.615,262.5L553.846,300L523.077,262.5L492.308,150L461.538,262.5L430.769,75L400,300L369.231,225L338.462,187.5L307.692,187.5L276.923,187.5L246.154,187.5L215.385,187.5L184.615,300L153.846,300L123.077,300L92.308,300L61.538,300L30.769,300L0,300Z" fill="#f58518"/></g></g><path class="foreground" aria-hidden="true" d="" display="none"/></g><g transform="translate(0,0)"><path class="background" aria-hidden="true" d="M0,0h800v300h-800Z"/><g><g class="mark-area role-mark marks" role="graphics-object" aria-roledescription="area mark container"><path aria-label="Date: Mar 16, 2026; Unique Visitors/day: 0; Repository: karlmdavis/can-i-kayak-baltimore" role="graphics-symbol" aria-roledescription="area mark" d="M0,300L30.769,300L61.538,300L92.308,300L123.077,300L153.846,300L184.615,300L215.385,187.5L246.154,187.5L276.923,187.5L307.692,187.5L338.462,187.5L369.231,225L400,300L430.769,75L461.538,262.5L492.308,150L523.077,262.5L553.846,300L584.615,262.5L615.385,262.5L646.154,300L676.923,262.5L707.692,262.5L738.462,262.5L769.231,225L800,300L800,300L769.231,225L738.462,262.5L707.692,262.5L676.923,262.5L646.154,300L615.385,262.5L584.615,262.5L553.846,300L523.077,262.5L492.308,150L461.538,262.5L430.769,75L400,300L369.231,225L338.462,187.5L307.692,187.5L276.923,187.5L246.154,187.5L215.385,187.5L184.615,300L153.846,300L123.077,300L92.308,300L61.538,300L30.769,300L0,300Z" fill="#e45756"/></g></g><path class="foreground" aria-hidden="true" d="" display="none"/></g><g transform="translate(0,0)"><path class="background" aria-hidden="true" d="M0,0h800v300h-800Z"/><g><g class="mark-area role-mark marks" role="graphics-object" aria-roledescription="area mark container"><path aria-label="Date: Mar 16, 2026; Unique Visitors/day: 0; Repository: karlmdavis/datanucleus-test-jdo-1-to-n" role="graphics-symbol" aria-roledescription="area mark" d="M0,300L30.769,300L61.538,300L92.308,300L123.077,300L153.846,300L184.615,300L215.385,187.5L246.154,187.5L276.923,187.5L307.692,187.5L338.462,187.5L369.231,225L400,300L430.769,75L461.538,262.5L492.308,150L523.077,262.5L553.846,300L584.615,262.5L615.385,262.5L646.154,300L676.923,262.5L707.692,262.5L738.462,262.5L769.231,225L800,300L800,300L769.231,225L738.462,262.5L707.692,262.5L676.923,262.5L646.154,300L615.385,262.5L584.615,262.5L553.846,300L523.077,262.5L492.308,150L461.538,262.5L430.769,75L400,300L369.231,225L338.462,187.5L307.692,187.5L276.923,187.5L246.154,187.5L215.385,187.5L184.615,300L153.846,300L123.077,300L92.308,300L61.538,300L30.769,300L0,300Z" fill="#72b7b2"/></g></g><path class="foreground" aria-hidden="true" d="" display="none"/></g><g transform="translate(0,0)"><path class="background" aria-hidden="true" d="M0,0h800v300h-800Z"/><g><g class="mark-area role-mark marks" role="graphics-object" aria-roledescription="area mark container"><path aria-label="Date: Mar 16, 2026; Unique Visitors/day: 0; Repository: karlmdavis/dotfiles" role="graphics-symbol" aria-roledescription="area mark" d="M0,300L30.769,300L61.538,300L92.308,300L123.077,300L153.846,300L184.615,300L215.385,187.5L246.154,187.5L276.923,187.5L307.692,187.5L338.462,187.5L369.231,225L400,300L430.769,75L461.538,262.5L492.308,150L523.077,262.5L553.846,300L584.615,262.5L615.385,262.5L646.154,300L676.923,262.5L707.692,262.5L738.462,262.5L769.231,225L800,300L800,300L769.231,225L738.462,262.5L707.692,262.5L676.923,262.5L646.154,300L615.385,262.5L584.615,262.5L553.846,300L523.077,262.5L492.308,150L461.538,262.5L430.769,75L400,300L369.231,225L338.462,187.5L307.692,187.5L276.923,187.5L246.154,187.5L215.385,187.5L184.615,300L153.846,300L123.077,300L92.308,300L61.538,300L30.769,300L0,300Z" fill="#54a24b"/></g></g><path class="foreground" aria-hidden="true" d="" display="none"/></g><g transform="translate(0,0)"><path class="background" aria-hidden="true" d="M0,0h800v300h-800Z"/><g><g class="mark-area role-mark marks" role="graphics-object" aria-roledescription="area mark container"><path aria-label="Date: Mar 16, 2026; Unique Visitors/day: 0; Repository: karlmdavis/fhir-benchmarks" role="graphics-symbol" aria-roledescription="area mark" d="M0,300L30.769,300L61.538,300L92.308,300L123.077,300L153.846,300L184.615,300L215.385,187.5L246.154,187.5L276.923,187.5L307.692,187.5L338.462,187.5L369.231,225L400,300L430.769,75L461.538,262.5L492.308,150L523.077,262.5L553.846,300L584.615,262.5L615.385,262.5L646.154,300L676.923,262.5L707.692,262.5L738.462,262.5L769.231,225L800,300L800,300L769.231,262.5L738.462,262.5L707.692,262.5L676.923,300L646.154,300L615.385,262.5L584.615,262.5L553.846,300L523.077,262.5L492.308,187.5L461.538,262.5L430.769,112.5L400,300L369.231,225L338.462,187.5L307.692,225L276.923,187.5L246.154,187.5L215.385,187.5L184.615,300L153.846,300L123.077,300L92.308,300L61.538,300L30.769,300L0,300Z" fill="#eeca3b"/></g></g><path class="foreground" aria-hidden="true" d="" display="none"/></g><g transform="translate(0,0)"><path class="background" aria-hidden="true" d="M0,0h800v300h-800Z"/><g><g class="mark-area role-mark marks" role="graphics-object" aria-roledescription="area mark container"><path aria-label="Date: Mar 16, 2026; Unique Visitors/day: 0; Repository: karlmdavis/hapi-fhir-jpaserver-starter" role="graphics-symbol" aria-roledescription="area mark" d="M0,300L30.769,300L61.538,300L92.308,300L123.077,300L153.846,300L184.615,300L215.385,187.5L246.154,187.5L276.923,187.5L307.692,225L338.462,187.5L369.231,225L400,300L430.769,112.5L461.538,262.5L492.308,187.5L523.077,262.5L553.846,300L584.615,262.5L615.385,262.5L646.154,300L676.923,300L707.692,262.5L738.462,262.5L769.231,262.5L800,300L800,300L769.231,262.5L738.462,262.5L707.692,262.5L676.923,300L646.154,300L615.385,262.5L584.615,262.5L553.846,300L523.077,262.5L492.308,187.5L461.538,262.5L430.769,112.5L400,300L369.231,225L338.462,187.5L307.692,225L276.923,187.5L246.154,187.5L215.385,187.5L184.615,300L153.846,300L123.077,300L92.308,300L61.538,300L30.769,300L0,300Z" fill="#b279a2"/></g></g><path class="foreground" aria-hidden="true" d="" display="none"/></g><g transform="translate(0,0)"><path class="background" aria-hidden="true" d="M0,0h800v300h-800Z"/><g><g class="mark-area role-mark marks" role="graphics-object" aria-roledescription="area mark container"><path aria-label="Date: Mar 16, 2026; Unique Visitors/day: 0; Repository: karlmdavis/hello-rust-actix" role="graphics-symbol" aria-roledescription="area mark" d="M0,300L30.769,300L61.538,300L92.308,300L123.077,300L153.846,300L184.615,300L215.385,187.5L246.154,187.5L276.923,187.5L307.692,225L338.462,187.5L369.231,225L400,300L430.769,112.5L461.538,262.5L492.308,187.5L523.077,262.5L553.846,300L584.615,262.5L615.385,262.5L646.154,300L676.923,300L707.692,262.5L738.462,262.5L769.231,262.5L800,300L800,300L769.231,262.5L738.462,262.5L707.692,262.5L676.923,300L646.154,300L615.385,262.5L584.615,262.5L553.846,300L523.077,262.5L492.308,187.5L461.538,262.5L430.769,112.5L400,300L369.231,225L338.462,187.5L307.692,225L276.923,187.5L246.154,187.5L215.385,187.5L184.615,300L153.846,300L123.077,300L92.308,300L61.538,300L30.769,300L0,300Z" fill="#ff9da6"/></g></g><path class="foreground" aria-hidden="true" d="" display="none"/></g><g transform="translate(0,0)"><path class="background" aria-hidden="true" d="M0,0h800v300h-800Z"/><g><g class="mark-area role-mark marks" role="graphics-object" aria-roledescription="area mark container"><path aria-label="Date: Mar 16, 2026; Unique Visitors/day: 0; Repository: karlmdavis/jessentials" role="graphics-symbol" aria-roledescription="area mark" d="M0,300L30.769,300L61.538,300L92.308,300L123.077,300L153.846,300L184.615,300L215.385,187.5L246.154,187.5L276.923,187.5L307.692,225L338.462,187.5L369.231,225L400,300L430.769,112.5L461.538,262.5L492.308,187.5L523.077,262.5L553.846,300L584.615,262.5L615.385,262.5L646.154,300L676.923,300L707.692,262.5L738.462,262.5L769.231,262.5L800,300L800,300L769.231,262.5L738.462,262.5L707.692,262.5L676.923,300L646.154,300L615.385,262.5L584.615,262.5L553.846,300L523.077,262.5L492.308,187.5L461.538,262.5L430.769,112.5L400,300L369.231,225L338.462,187.5L307.692,225L276.923,187.5L246.154,187.5L215.385,187.5L184.615,300L153.846,300L123.077,300L92.308,300L61.538,300L30.769,300L0,300Z" fill="#9d755d"/></g></g><path class="foreground" aria-hidden="true" d="" display="none"/></g><g transform="translate(0,0)"><path class="background" aria-hidden="true" d="M0,0h800v300h-800Z"/><g><g class="mark-area role-mark marks" role="graphics-object" aria-roledescription="area mark container"><path aria-label="Date: Mar 16, 2026; Unique Visitors/day: 0; Repository: karlmdavis/justdavis-ansible" role="graphics-symbol" aria-roledescription="area mark" d="M0,300L30.769,300L61.538,300L92.308,300L123.077,300L153.846,300L184.615,300L215.385,187.5L246.154,187.5L276.923,187.5L307.692,225L338.462,187.5L369.231,225L400,300L430.769,112.5L461.538,262.5L492.308,187.5L523.077,262.5L553.846,300L584.615,262.5L615.385,262.5L646.154,300L676.923,300L707.692,262.5L738.462,262.5L769.231,262.5L800,300L800,300L769.231,262.5L738.462,262.5L707.692,262.5L676.923,300L646.154,300L615.385,262.5L584.615,262.5L553.846,300L523.077,262.5L492.308,225L461.538,262.5L430.769,150L400,300L369.231,225L338.462,187.5L307.692,225L276.923,187.5L246.154,187.5L215.385,187.5L184.615,300L153.846,300L123.077,300L92.308,300L61.538,300L30.769,300L0,300Z" fill="#bab0ac"/></g></g><path class="foreground" aria-hidden="true" d="" display="none"/></g><g transform="translate(0,0)"><path class="background" aria-hidden="true" d="M0,0h800v300h-800Z"/><g><g class="mark-area role-mark marks" role="graphics-object" aria-roledescription="area mark container"><path aria-label="Date: Mar 16, 2026; Unique Visitors/day: 0; Repository: karlmdavis/justdavis-finances" role="graphics-symbol" aria-roledescription="area mark" d="M0,300L30.769,300L61.538,300L92.308,300L123.077,300L153.846,300L184.615,300L215.385,187.5L246.154,187.5L276.923,187.5L307.692,225L338.462,187.5L369.231,225L400,300L430.769,150L461.538,262.5L492.308,225L523.077,262.5L553.846,300L584.615,262.5L615.385,262.5L646.154,300L676.923,300L707.692,262.5L738.462,262.5L769.231,262.5L800,300L800,300L769.231,262.5L738.462,262.5L707.692,262.5L676.923,300L646.154,300L615.385,262.5L584.615,262.5L553.846,300L523.077,262.5L492.308,225L461.538,262.5L430.769,150L400,300L369.231,225L338.462,225L307.692,225L276.923,187.5L246.154,187.5L215.385,187.5L184.615,300L153.846,300L123.077,300L92.308,300L61.538,300L30.769,300L0,300Z" fill="#4c78a8"/></g></g><path class="foreground" aria-hidden="true" d="" display="none"/></g><g transform="translate(0,0)"><path class="background" aria-hidden="true" d="M0,0h800v300h-800Z"/><g><g class="mark-area role-mark marks" role="graphics-object" aria-roledescription="area mark container"><path aria-label="Date: Mar 16, 2026; Unique Visitors/day: 0; Repository: karlmdavis/justdavis-karl" role="graphics-symbol" aria-roledescription="area mark" d="M0,300L30.769,300L61.538,300L92.308,300L123.077,300L153.846,300L184.615,300L215.385,187.5L246.154,187.5L276.923,187.5L307.692,225L338.462,225L369.231,225L400,300L430.769,150L461.538,262.5L492.308,225L523.077,262.5L553.846,300L584.615,262.5L615.385,262.5L646.154,300L676.923,300L707.692,262.5L738.462,262.5L769.231,262.5L800,300L800,300L769.231,262.5L738.462,262.5L707.692,262.5L676.923,300L646.154,300L615.385,262.5L584.615,262.5L553.846,300L523.077,262.5L492.308,225L461.538,262.5L430.769,150L400,300L369.231,225L338.462,225L307.692,225L276.923,187.5L246.154,187.5L215.385,187.5L184.615,300L153.846,300L123.077,300L92.308,300L61.538,300L30.769,300L0,300Z" fill="#f58518"/></g></g><path class="foreground" aria-hidden="true" d="" display="none"/></g><g transform="translate(0,0)"><path class="background" aria-hidden="true" d="M0,0h800v300h-800Z"/><g><g class="mark-area role-mark marks" role="graphics-object" aria-roledescription="area mark container"><path aria-label="Date: Mar 16, 2026; Unique Visitors/day: 0; Repository: karlmdavis/justdavis-puppet" role="graphics-symbol" aria-roledescription="area mark" d="M0,300L30.769,300L61.538,300L92.308,300L123.077,300L153.846,300L184.615,300L215.385,187.5L246.154,187.5L276.923,187.5L307.692,225L338.462,225L369.231,225L400,300L430.769,150L461.538,262.5L492.308,225L523.077,262.5L553.846,300L584.615,262.5L615.385,262.5L646.154,300L676.923,300L707.692,262.5L738.462,262.5L769.231,262.5L800,300L800,300L769.231,262.5L738.462,262.5L707.692,262.5L676.923,300L646.154,300L615.385,262.5L584.615,262.5L553.846,300L523.077,262.5L492.308,225L461.538,262.5L430.769,150L400,300L369.231,225L338.462,225L307.692,225L276.923,187.5L246.154,187.5L215.385,187.5L184.615,300L153.846,300L123.077,300L92.308,300L61.538,300L30.769,300L0,300Z" fill="#e45756"/></g></g><path class="foreground" aria-hidden="true" d="" display="none"/></g><g transform="translate(0,0)"><path class="background" aria-hidden="true" d="M0,0h800v300h-800Z"/><g><g class="mark-area role-mark marks" role="graphics-object" aria-roledescription="area mark container"><path aria-label="Date: Mar 16, 2026; Unique Visitors/day: 0; Repository: karlmdavis/kobjects" role="graphics-symbol" aria-roledescription="area mark" d="M0,300L30.769,300L61.538,300L92.308,300L123.077,300L153.846,300L184.615,300L215.385,187.5L246.154,187.5L276.923,187.5L307.692,225L338.462,225L369.231,225L400,300L430.769,150L461.538,262.5L492.308,225L523.077,262.5L553.846,300L584.615,262.5L615.385,262.5L646.154,300L676.923,300L707.692,262.5L738.462,262.5L769.231,262.5L800,300L800,300L769.231,262.5L738.462,262.5L707.692,262.5L676.923,300L646.154,300L615.385,262.5L584.615,262.5L553.846,300L523.077,262.5L492.308,225L461.538,262.5L430.769,150L400,300L369.231,225L338.462,225L307.692,225L276.923,187.5L246.154,187.5L215.385,187.5L184.615,300L153.846,300L123.077,300L92.308,300L61.538,300L30.769,300L0,300Z" fill="#72b7b2"/></g></g><path class="foreground" aria-hidden="true" d="" display="none"/></g><g transform="translate(0,0)"><path class="background" aria-hidden="true" d="M0,0h800v300h-800Z"/><g><g class="mark-area role-mark marks" role="graphics-object" aria-roledescription="area mark container"><path aria-label="Date: Mar 16, 2026; Unique Visitors/day: 0; Repository: karlmdavis/ksoap2-android" role="graphics-symbol" aria-roledescription="area mark" d="M0,300L30.769,300L61.538,300L92.308,300L123.077,300L153.846,300L184.615,300L215.385,187.5L246.154,187.5L276.923,187.5L307.692,225L338.462,225L369.231,225L400,300L430.769,150L461.538,262.5L492.308,225L523.077,262.5L553.846,300L584.615,262.5L615.385,262.5L646.154,300L676.923,300L707.692,262.5L738.462,262.5L769.231,262.5L800,300L800,300L769.231,300L738.462,262.5L707.692,300L676.923,300L646.154,300L615.385,300L584.615,300L553.846,300L523.077,300L492.308,262.5L461.538,262.5L430.769,225L400,300L369.231,225L338.462,262.5L307.692,225L276.923,225L246.154,262.5L215.385,262.5L184.615,300L153.846,300L123.077,300L92.308,300L61.538,300L30.769,300L0,300Z" fill="#54a24b"/></g></g><path class="foreground" aria-hidden="true" d="" display="none"/></g><g transform="translate(0,0)"><path class="background" aria-hidden="true" d="M0,0h800v300h-800Z"/><g><g class="mark-area role-mark marks" role="graphics-object" aria-roledescription="area mark container"><path aria-label="Date: Mar 16, 2026; Unique Visitors/day: 0; Repository: karlmdavis/kxml2" role="graphics-symbol" aria-roledescription="area mark" d="M0,300L30.769,300L61.538,300L92.308,300L123.077,300L153.846,300L184.615,300L215.385,262.5L246.154,262.5L276.923,225L307.692,225L338.462,262.5L369.231,225L400,300L430.769,225L461.538,262.5L492.308,262.5L523.077,300L553.846,300L584.615,300L615.385,300L646.154,300L676.923,300L707.692,300L738.462,262.5L769.231,300L800,300L800,300L769.231,300L738.462,262.5L707.692,300L676.923,300L646.154,300L615.385,300L584.615,300L553.846,300L523.077,300L492.308,262.5L461.538,262.5L430.769,225L400,300L369.231,262.5L338.462,262.5L307.692,225L276.923,262.5L246.154,262.5L215.385,262.5L184.615,300L153.846,300L123.077,300L92.308,300L61.538,300L30.769,300L0,300Z" fill="#eeca3b"/></g></g><path class="foreground" aria-hidden="true" d="" display="none"/></g><g transform="translate(0,0)"><path class="background" aria-hidden="true" d="M0,0h800v300h-800Z"/><g><g class="mark-area role-mark marks" role="graphics-object" aria-roledescription="area mark container"><path aria-label="Date: Mar 16, 2026; Unique Visitors/day: 0; Repository: karlmdavis/ldap-plugin" role="graphics-symbol" aria-roledescription="area mark" d="M0,300L30.769,300L61.538,300L92.308,300L123.077,300L153.846,300L184.615,300L215.385,262.5L246.154,262.5L276.923,262.5L307.692,225L338.462,262.5L369.231,262.5L400,300L430.769,225L461.538,262.5L492.308,262.5L523.077,300L553.846,300L584.615,300L615.385,300L646.154,300L676.923,300L707.692,300L738.462,262.5L769.231,300L800,300L800,300L769.231,300L738.462,262.5L707.692,300L676.923,300L646.154,300L615.385,300L584.615,300L553.846,300L523.077,300L492.308,262.5L461.538,262.5L430.769,225L400,300L369.231,262.5L338.462,262.5L307.692,225L276.923,262.5L246.154,262.5L215.385,262.5L184.615,300L153.846,300L123.077,300L92.308,300L61.538,300L30.769,300L0,300Z" fill="#b279a2"/></g></g><path class="foreground" aria-hidden="true" d="" display="none"/></g><g transform="translate(0,0)"><path class="background" aria-hidden="true" d="M0,0h800v300h-800Z"/><g><g class="mark-area role-mark marks" role="graphics-object" aria-roledescription="area mark container"><path aria-label="Date: Mar 16, 2026; Unique Visitors/day: 0; Repository: karlmdavis/lego-ev3dev-rs" role="graphics-symbol" aria-roledescription="area mark" d="M0,300L30.769,300L61.538,300L92.308,300L123.077,300L153.846,300L184.615,300L215.385,262.5L246.154,262.5L276.923,262.5L307.692,225L338.462,262.5L369.231,262.5L400,300L430.769,225L461.538,262.5L492.308,262.5L523.077,300L553.846,300L584.615,300L615.385,300L646.154,300L676.923,300L707.692,300L738.462,262.5L769.231,300L800,300L800,300L769.231,300L738.462,262.5L707.692,300L676.923,300L646.154,300L615.385,300L584.615,300L553.846,300L523.077,300L492.308,262.5L461.538,262.5L430.769,225L400,300L369.231,262.5L338.462,262.5L307.692,225L276.923,262.5L246.154,262.5L215.385,262.5L184.615,300L153.846,300L123.077,300L92.308,300L61.538,300L30.769,300L0,300Z" fill="#ff9da6"/></g></g><path class="foreground" aria-hidden="true" d="" display="none"/></g><g transform="translate(0,0)"><path class="background" aria-hidden="true" d="M0,0h800v300h-800Z"/><g><g class="mark-area role-mark marks" role="graphics-object" aria-roledescription="area mark container"><path aria-label="Date: Mar 16, 2026; Unique Visitors/day: 0; Repository: karlmdavis/liquibase" role="graphics-symbol" aria-roledescription="area mark" d="M0,300L30.769,300L61.538,300L92.308,300L123.077,300L153.846,300L184.615,300L215.385,262.5L246.154,262.5L276.923,262.5L307.692,225L338.462,262.5L369.231,262.5L400,300L430.769,225L461.538,262.5L492.308,262.5L523.077,300L553.846,300L584.615,300L615.385,300L646.154,300L676.923,300L707.692,300L738.462,262.5L769.231,300L800,300L800,300L769.231,300L738.462,262.5L707.692,300L676.923,300L646.154,300L615.385,300L584.615,300L553.846,300L523.077,300L492.308,262.5L461.538,262.5L430.769,225L400,300L369.231,262.5L338.462,262.5L307.692,225L276.923,262.5L246.154,262.5L215.385,262.5L184.615,300L153.846,300L123.077,300L92.308,300L61.538,300L30.769,300L0,300Z" fill="#9d755d"/></g></g><path class="foreground" aria-hidden="true" d="" display="none"/></g><g transform="translate(0,0)"><path class="background" aria-hidden="true" d="M0,0h800v300h-800Z"/><g><g class="mark-area role-mark marks" role="graphics-object" aria-roledescription="area mark container"><path aria-label="Date: Mar 16, 2026; Unique Visitors/day: 0; Repository: karlmdavis/m2e-core" role="graphics-symbol" aria-roledescription="area mark" d="M0,300L30.769,300L61.538,300L92.308,300L123.077,300L153.846,300L184.615,300L215.385,262.5L246.154,262.5L276.923,262.5L307.692,225L338.462,262.5L369.231,262.5L400,300L430.769,225L461.538,262.5L492.308,262.5L523.077,300L553.846,300L584.615,300L615.385,300L646.154,300L676.923,300L707.692,300L738.462,262.5L769.231,300L800,300L800,300L769.231,300L738.462,262.5L707.692,300L676.923,300L646.154,300L615.385,300L584.615,300L553.846,300L523.077,300L492.308,262.5L461.538,262.5L430.769,225L400,300L369.231,262.5L338.462,262.5L307.692,225L276.923,262.5L246.154,262.5L215.385,262.5L184.615,300L153.846,300L123.077,300L92.308,300L61.538,300L30.769,300L0,300Z" fill="#bab0ac"/></g></g><path class="foreground" aria-hidden="true" d="" display="none"/></g><g transform="translate(0,0)"><path class="background" aria-hidden="true" d="M0,0h800v300h-800Z"/><g><g class="mark-area role-mark marks" role="graphics-object" aria-roledescription="area mark container"><path aria-label="Date: Mar 16, 2026; Unique Visitors/day: 0; Repository: karlmdavis/m2e-core-tests" role="graphics-symbol" aria-roledescription="area mark" d="M0,300L30.769,300L61.538,300L92.308,300L123.077,300L153.846,300L184.615,300L215.385,262.5L246.154,262.5L276.923,262.5L307.692,225L338.462,262.5L369.231,262.5L400,300L430.769,225L461.538,262.5L492.308,262.5L523.077,300L553.846,300L584.615,300L615.385,300L646.154,300L676.923,300L707.692,300L738.462,262.5L769.231,300L800,300L800,300L769.231,300L738.462,262.5L707.692,300L676.923,300L646.154,300L615.385,300L584.615,300L553.846,300L523.077,300L492.308,262.5L461.538,262.5L430.769,225L400,300L369.231,262.5L338.462,262.5L307.692,225L276.923,262.5L246.154,262.5L215.385,262.5L184.615,300L153.846,300L123.077,300L92.308,300L61.538,300L30.769,300L0,300Z" fill="#4c78a8"/></g></g><path class="foreground" aria-hidden="true" d="" display="none"/></g><g transform="translate(0,0)"><path class="background" aria-hidden="true" d="M0,0h800v300h-800Z"/><g><g class="mark-area role-mark marks" role="graphics-object" aria-roledescription="area mark container"><path aria-label="Date: Mar 16, 2026; Unique Visitors/day: 0; Repository: karlmdavis/obsidian-operator" role="graphics-symbol" aria-roledescription="area mark" d="M0,300L30.769,300L61.538,300L92.308,300L123.077,300L153.846,300L184.615,300L215.385,262.5L246.154,262.5L276.923,262.5L307.692,225L338.462,262.5L369.231,262.5L400,300L430.769,225L461.538,262.5L492.308,262.5L523.077,300L553.846,300L584.615,300L615.385,300L646.154,300L676.923,300L707.692,300L738.462,262.5L769.231,300L800,300L800,300L769.231,300L738.462,262.5L707.692,300L676.923,300L646.154,300L615.385,300L584.615,300L553.846,300L523.077,300L492.308,262.5L461.538,262.5L430.769,225L400,300L369.231,262.5L338.462,262.5L307.692,225L276.923,262.5L246.154,262.5L215.385,262.5L184.615,300L153.846,300L123.077,300L92.308,300L61.538,300L30.769,300L0,300Z" fill="#f58518"/></g></g><path class="foreground" aria-hidden="true" d="" display="none"/></g><g transform="translate(0,0)"><path class="background" aria-hidden="true" d="M0,0h800v300h-800Z"/><g><g class="mark-area role-mark marks" role="graphics-object" aria-roledescription="area mark container"><path aria-label="Date: Mar 16, 2026; Unique Visitors/day: 0; Repository: karlmdavis/perfect-note" role="graphics-symbol" aria-roledescription="area mark" d="M0,300L30.769,300L61.538,300L92.308,300L123.077,300L153.846,300L184.615,300L215.385,262.5L246.154,262.5L276.923,262.5L307.692,225L338.462,262.5L369.231,262.5L400,300L430.769,225L461.538,262.5L492.308,262.5L523.077,300L553.846,300L584.615,300L615.385,300L646.154,300L676.923,300L707.692,300L738.462,262.5L769.231,300L800,300L800,300L769.231,300L738.462,262.5L707.692,300L676.923,300L646.154,300L615.385,300L584.615,300L553.846,300L523.077,300L492.308,262.5L461.538,262.5L430.769,225L400,300L369.231,262.5L338.462,262.5L307.692,225L276.923,262.5L246.154,262.5L215.385,262.5L184.615,300L153.846,300L123.077,300L92.308,300L61.538,300L30.769,300L0,300Z" fill="#e45756"/></g></g><path class="foreground" aria-hidden="true" d="" display="none"/></g><g transform="translate(0,0)"><path class="background" aria-hidden="true" d="M0,0h800v300h-800Z"/><g><g class="mark-area role-mark marks" role="graphics-object" aria-roledescription="area mark container"><path aria-label="Date: Mar 16, 2026; Unique Visitors/day: 0; Repository: karlmdavis/puppet-archive" role="graphics-symbol" aria-roledescription="area mark" d="M0,300L30.769,300L61.538,300L92.308,300L123.077,300L153.846,300L184.615,300L215.385,262.5L246.154,262.5L276.923,262.5L307.692,225L338.462,262.5L369.231,262.5L400,300L430.769,225L461.538,262.5L492.308,262.5L523.077,300L553.846,300L584.615,300L615.385,300L646.154,300L676.923,300L707.692,300L738.462,262.5L769.231,300L800,300L800,300L769.231,300L738.462,262.5L707.692,300L676.923,300L646.154,300L615.385,300L584.615,300L553.846,300L523.077,300L492.308,262.5L461.538,262.5L430.769,225L400,300L369.231,262.5L338.462,262.5L307.692,225L276.923,262.5L246.154,262.5L215.385,262.5L184.615,300L153.846,300L123.077,300L92.308,300L61.538,300L30.769,300L0,300Z" fill="#72b7b2"/></g></g><path class="foreground" aria-hidden="true" d="" display="none"/></g><g transform="translate(0,0)"><path class="background" aria-hidden="true" d="M0,0h800v300h-800Z"/><g><g class="mark-area role-mark marks" role="graphics-object" aria-roledescription="area mark container"><path aria-label="Date: Mar 16, 2026; Unique Visitors/day: 0; Repository: karlmdavis/puppet-sonar" role="graphics-symbol" aria-roledescription="area mark" d="M0,300L30.769,300L61.538,300L92.308,300L123.077,300L153.846,300L184.615,300L215.385,262.5L246.154,262.5L276.923,262.5L307.692,225L338.462,262.5L369.231,262.5L400,300L430.769,225L461.538,262.5L492.308,262.5L523.077,300L553.846,300L584.615,300L615.385,300L646.154,300L676.923,300L707.692,300L738.462,262.5L769.231,300L800,300L800,300L769.231,300L738.462,262.5L707.692,300L676.923,300L646.154,300L615.385,300L584.615,300L553.846,300L523.077,300L492.308,262.5L461.538,262.5L430.769,225L400,300L369.231,262.5L338.462,262.5L307.692,225L276.923,262.5L246.154,262.5L215.385,262.5L184.615,300L153.846,300L123.077,300L92.308,300L61.538,300L30.769,300L0,300Z" fill="#54a24b"/></g></g><path class="foreground" aria-hidden="true" d="" display="none"/></g><g transform="translate(0,0)"><path class="background" aria-hidden="true" d="M0,0h800v300h-800Z"/><g><g class="mark-area role-mark marks" role="graphics-object" aria-roledescription="area mark container"><path aria-label="Date: Mar 16, 2026; Unique Visitors/day: 0; Repository: karlmdavis/rps-tourney" role="graphics-symbol" aria-roledescription="area mark" d="M0,300L30.769,300L61.538,300L92.308,300L123.077,300L153.846,300L184.615,300L215.385,262.5L246.154,262.5L276.923,262.5L307.692,225L338.462,262.5L369.231,262.5L400,300L430.769,225L461.538,262.5L492.308,262.5L523.077,300L553.846,300L584.615,300L615.385,300L646.154,300L676.923,300L707.692,300L738.462,262.5L769.231,300L800,300L800,300L769.231,300L738.462,262.5L707.692,300L676.923,300L646.154,300L615.385,300L584.615,300L553.846,300L523.077,300L492.308,300L461.538,262.5L430.769,225L400,300L369.231,262.5L338.462,300L307.692,225L276.923,262.5L246.154,300L215.385,300L184.615,300L153.846,300L123.077,300L92.308,300L61.538,300L30.769,300L0,300Z" fill="#eeca3b"/></g></g><path class="foreground" aria-hidden="true" d="" display="none"/></g><g transform="translate(0,0)"><path class="background" aria-hidden="true" d="M0,0h800v300h-800Z"/><g><g class="mark-area role-mark marks" role="graphics-object" aria-roledescription="area mark container"><path aria-label="Date: Mar 16, 2026; Unique Visitors/day: 0; Repository: karlmdavis/sample-maven-and-rcp" role="graphics-symbol" aria-roledescription="area mark" d="M0,300L30.769,300L61.538,300L92.308,300L123.077,300L153.846,300L184.615,300L215.385,300L246.154,300L276.923,262.5L307.692,225L338.462,300L369.231,262.5L400,300L430.769,225L461.538,262.5L492.308,300L523.077,300L553.846,300L584.615,300L615.385,300L646.154,300L676.923,300L707.692,300L738.462,262.5L769.231,300L800,300L800,300L769.231,300L738.462,262.5L707.692,300L676.923,300L646.154,300L615.385,300L584.615,300L553.846,300L523.077,300L492.308,300L461.538,262.5L430.769,225L400,300L369.231,262.5L338.462,300L307.692,225L276.923,262.5L246.154,300L215.385,300L184.615,300L153.846,300L123.077,300L92.308,300L61.538,300L30.769,300L0,300Z" fill="#b279a2"/></g></g><path class="foreground" aria-hidden="true" d="" display="none"/></g><g transform="translate(0,0)"><path class="background" aria-hidden="true" d="M0,0h800v300h-800Z"/><g><g class="mark-area role-mark marks" role="graphics-object" aria-roledescription="area mark container"><path aria-label="Date: Mar 16, 2026; Unique Visitors/day: 0; Repository: karlmdavis/stockfighter-trades-solutions" role="graphics-symbol" aria-roledescription="area mark" d="M0,300L30.769,300L61.538,300L92.308,300L123.077,300L153.846,300L184.615,300L215.385,300L246.154,300L276.923,262.5L307.692,225L338.462,300L369.231,262.5L400,300L430.769,225L461.538,262.5L492.308,300L523.077,300L553.846,300L584.615,300L615.385,300L646.154,300L676.923,300L707.692,300L738.462,262.5L769.231,300L800,300L800,300L769.231,300L738.462,262.5L707.692,300L676.923,300L646.154,300L615.385,300L584.615,300L553.846,300L523.077,300L492.308,300L461.538,262.5L430.769,225L400,300L369.231,262.5L338.462,300L307.692,225L276.923,262.5L246.154,300L215.385,300L184.615,300L153.846,300L123.077,300L92.308,300L61.538,300L30.769,300L0,300Z" fill="#ff9da6"/></g></g><path class="foreground" aria-hidden="true" d="" display="none"/></g><g transform="translate(0,0)"><path class="background" aria-hidden="true" d="M0,0h800v300h-800Z"/><g><g class="mark-area role-mark marks" role="graphics-object" aria-roledescription="area mark container"><path aria-label="Date: Mar 16, 2026; Unique Visitors/day: 0; Repository: karlmdavis/test-repo-for-move" role="graphics-symbol" aria-roledescription="area mark" d="M0,300L30.769,300L61.538,300L92.308,300L123.077,300L153.846,300L184.615,300L215.385,300L246.154,300L276.923,262.5L307.692,225L338.462,300L369.231,262.5L400,300L430.769,225L461.538,262.5L492.308,300L523.077,300L553.846,300L584.615,300L615.385,300L646.154,300L676.923,300L707.692,300L738.462,262.5L769.231,300L800,300L800,300L769.231,300L738.462,262.5L707.692,300L676.923,300L646.154,300L615.385,300L584.615,300L553.846,300L523.077,300L492.308,300L461.538,262.5L430.769,225L400,300L369.231,262.5L338.462,300L307.692,225L276.923,262.5L246.154,300L215.385,300L184.615,300L153.846,300L123.077,300L92.308,300L61.538,300L30.769,300L0,300Z" fill="#9d755d"/></g></g><path class="foreground" aria-hidden="true" d="" display="none"/></g><g transform="translate(0,0)"><path class="background" aria-hidden="true" d="M0,0h800v300h-800Z"/><g><g class="mark-area role-mark marks" role="graphics-object" aria-roledescription="area mark container"><path aria-label="Date: Mar 16, 2026; Unique Visitors/day: 0; Repository: karlmdavis/todoist-ai" role="graphics-symbol" aria-roledescription="area mark" d="M0,300L30.769,300L61.538,300L92.308,300L123.077,300L153.846,300L184.615,300L215.385,300L246.154,300L276.923,262.5L307.692,225L338.462,300L369.231,262.5L400,300L430.769,225L461.538,262.5L492.308,300L523.077,300L553.846,300L584.615,300L615.385,300L646.154,300L676.923,300L707.692,300L738.462,262.5L769.231,300L800,300L800,300L769.231,300L738.462,262.5L707.692,300L676.923,300L646.154,300L615.385,300L584.615,300L553.846,300L523.077,300L492.308,300L461.538,262.5L430.769,262.5L400,300L369.231,262.5L338.462,300L307.692,225L276.923,262.5L246.154,300L215.385,300L184.615,300L153.846,300L123.077,300L92.308,300L61.538,300L30.769,300L0,300Z" fill="#bab0ac"/></g></g><path class="foreground" aria-hidden="true" d="" display="none"/></g><g transform="translate(0,0)"><path class="background" aria-hidden="true" d="M0,0h800v300h-800Z"/><g><g class="mark-area role-mark marks" role="graphics-object" aria-roledescription="area mark container"><path aria-label="Date: Mar 16, 2026; Unique Visitors/day: 0; Repository: karlmdavis/usgs-water-api-java" role="graphics-symbol" aria-roledescription="area mark" d="M0,300L30.769,300L61.538,300L92.308,300L123.077,300L153.846,300L184.615,300L215.385,300L246.154,300L276.923,262.5L307.692,225L338.462,300L369.231,262.5L400,300L430.769,262.5L461.538,262.5L492.308,300L523.077,300L553.846,300L584.615,300L615.385,300L646.154,300L676.923,300L707.692,300L738.462,262.5L769.231,300L800,300L800,300L769.231,300L738.462,262.5L707.692,300L676.923,300L646.154,300L615.385,300L584.615,300L553.846,300L523.077,300L492.308,300L461.538,262.5L430.769,262.5L400,300L369.231,262.5L338.462,300L307.692,225L276.923,262.5L246.154,300L215.385,300L184.615,300L153.846,300L123.077,300L92.308,300L61.538,300L30.769,300L0,300Z" fill="#4c78a8"/></g></g><path class="foreground" aria-hidden="true" d="" display="none"/></g><g transform="translate(0,0)"><path class="background" aria-hidden="true" d="M0,0h800v300h-800Z"/><g><g class="mark-area role-mark marks" role="graphics-object" aria-roledescription="area mark container"><path aria-label="Date: Mar 16, 2026; Unique Visitors/day: 0; Repository: karlmdavis/workstation-base-ansible-role" role="graphics-symbol" aria-roledescription="area mark" d="M0,300L30.769,300L61.538,300L92.308,300L123.077,300L153.846,300L184.615,300L215.385,300L246.154,300L276.923,262.5L307.692,225L338.462,300L369.231,262.5L400,300L430.769,262.5L461.538,262.5L492.308,300L523.077,300L553.846,300L584.615,300L615.385,300L646.154,300L676.923,300L707.692,300L738.462,262.5L769.231,300L800,300L800,300L769.231,300L738.462,262.5L707.692,300L676.923,300L646.154,300L615.385,300L584.615,300L553.846,300L523.077,300L492.308,300L461.538,262.5L430.769,262.5L400,300L369.231,262.5L338.462,300L307.692,225L276.923,262.5L246.154,300L215.385,300L184.615,300L153.846,300L123.077,300L92.308,300L61.538,300L30.769,300L0,300Z" fill="#f58518"/></g></g><path class="foreground" aria-hidden="true" d="" display="none"/></g><g transform="translate(0,0)"><path class="background" aria-hidden="true" d="M0,0h800v300h-800Z"/><g><g class="mark-area role-mark marks" role="graphics-object" aria-roledescription="area mark container"><path aria-label="Date: Mar 16, 2026; Unique Visitors/day: 0; Repository: karlmdavis/xmlpull" role="graphics-symbol" aria-roledescription="area mark" d="M0,300L30.769,300L61.538,300L92.308,300L123.077,300L153.846,300L184.615,300L215.385,300L246.154,300L276.923,262.5L307.692,225L338.462,300L369.231,262.5L400,300L430.769,262.5L461.538,262.5L492.308,300L523.077,300L553.846,300L584.615,300L615.385,300L646.154,300L676.923,300L707.692,300L738.462,262.5L769.231,300L800,300L800,300L769.231,300L738.462,300L707.692,300L676.923,300L646.154,300L615.385,300L584.615,300L553.846,300L523.077,300L492.308,300L461.538,300L430.769,300L400,300L369.231,300L338.462,300L307.692,300L276.923,300L246.154,300L215.385,300L184.615,300L153.846,300L123.077,300L92.308,300L61.538,300L30.769,300L0,300Z" fill="#e45756"/></g></g><path class="foreground" aria-hidden="true" d="" display="none"/></g></g><g class="mark-group role-legend" role="graphics-symbol" aria-roledescription="legend" aria-label="Symbol legend titled 'Repository' for fill color with 43 values: justdavis-family/github-analytics-data, justdavis-family/justdavis, karlmdavis/FHIR-Server, karlmdavis/ansible, karlmdavis/ansible-jenkins, ending with karlmdavis/xmlpull"><g transform="translate(818,0)"><path class="background" aria-hidden="true" d="M0,0h176v404h-176Z" pointer-events="none"/><g><g class="mark-group role-legend-entry"><g transform="translate(0,16)"><path class="background" aria-hidden="true" d="M0,0h0v0h0Z" pointer-events="none"/><g><g class="mark-group role-scope" role="graphics-object" aria-roledescription="group mark container"><g transform="translate(0,0)"><path class="background" aria-hidden="true" d="M0,0h176v11h-176Z" pointer-events="none" opacity="1"/><g><g class="mark-symbol role-legend-symbol" pointer-events="none"><path transform="translate(6,6)" d="M5,0A5,5,0,1,1,-5,0A5,5,0,1,1,5,0" fill="#4c78a8" stroke-width="1.5" opacity="1"/></g><g class="mark-text role-legend-label" pointer-events="none"><text text-anchor="start" transform="translate(16,9)" font-family="sans-serif" font-size="10px" fill="#000" opacity="1">justdavis-family/github-analytics-d…</text></g></g><path class="foreground" aria-hidden="true" d="" pointer-events="none" display="none"/></g><g transform="translate(0,13)"><path class="background" aria-hidden="true" d="M0,0h176v11h-176Z" pointer-events="none" opacity="1"/><g><g class="mark-symbol role-legend-symbol" pointer-events="none"><path transform="translate(6,6)" d="M5,0A5,5,0,1,1,-5,0A5,5,0,1,1,5,0" fill="#f58518" stroke-width="1.5" opacity="1"/></g><g class="mark-text role-legend-label" pointer-events="none"><text text-anchor="start" transform="translate(16,9)" font-family="sans-serif" font-size="10px" fill="#000" opacity="1">justdavis-family/justdavis</text></g></g><path class="foreground" aria-hidden="true" d="" pointer-events="none" display="none"/></g><g transform="translate(0,26)"><path class="background" aria-hidden="true" d="M0,0h176v11h-176Z" pointer-events="none" opacity="1"/><g><g class="mark-symbol role-legend-symbol" pointer-events="none"><path transform="translate(6,6)" d="M5,0A5,5,0,1,1,-5,0A5,5,0,1,1,5,0" fill="#e45756" stroke-width="1.5" opacity="1"/></g><g class="mark-text role-legend-label" pointer-events="none"><text text-anchor="start" transform="translate(16,9)" font-family="sans-serif" font-size="10px" fill="#000" opacity="1">karlmdavis/FHIR-Server</text></g></g><path class="foreground" aria-hidden="true" d="" pointer-events="none" display="none"/></g><g transform="translate(0,39)"><path class="background" aria-hidden="true" d="M0,0h176v11h-176Z" pointer-events="none" opacity="1"/><g><g class="mark-symbol role-legend-symbol" pointer-events="none"><path transform="translate(6,6)" d="M5,0A5,5,0,1,1,-5,0A5,5,0,1,1,5,0" fill="#72b7b2" stroke-width="1.5" opacity="1"/></g><g class="mark-text role-legend-label" pointer-events="none"><text text-anchor="start" transform="translate(16,9)" font-family="sans-serif" font-size="10px" fill="#000" opacity="1">karlmdavis/ansible</text></g></g><path class="foreground" aria-hidden="true" d="" pointer-events="none" display="none"/></g><g transform="translate(0,52)"><path class="background" aria-hidden="true" d="M0,0h176v11h-176Z" pointer-events="none" opacity="1"/><g><g class="mark-symbol role-legend-symbol" pointer-events="none"><path transform="translate(6,6)" d="M5,0A5,5,0,1,1,-5,0A5,5,0,1,1,5,0" fill="#54a24b" stroke-width="1.5" opacity="1"/></g><g class="mark-text role-legend-label" pointer-events="none"><text text-anchor="start" transform="translate(16,9)" font-family="sans-serif" font-size="10px" fill="#000" opacity="1">karlmdavis/ansible-jenkins</text></g></g><path class="foreground" aria-hidden="true" d="" pointer-events="none" display="none"/></g><g transform="translate(0,65)"><path class="background" aria-hidden="true" d="M0,0h176v11h-176Z" pointer-events="none" opacity="1"/><g><g class="mark-symbol role-legend-symbol" pointer-events="none"><path transform="translate(6,6)" d="M5,0A5,5,0,1,1,-5,0A5,5,0,1,1,5,0" fill="#eeca3b" stroke-width="1.5" opacity="1"/></g><g class="mark-text role-legend-label" pointer-events="none"><text text-anchor="start" transform="translate(16,9)" font-family="sans-serif" font-size="10px" fill="#000" opacity="1">karlmdavis/ansible-role-acmetool</text></g></g><path class="foreground" aria-hidden="true" d="" pointer-events="none" display="none"/></g><g transform="translate(0,78)"><path class="background" aria-hidden="true" d="M0,0h176v11h-176Z" pointer-events="none" opacity="1"/><g><g class="mark-symbol role-legend-symbol" pointer-events="none"><path transform="translate(6,6)" d="M5,0A5,5,0,1,1,-5,0A5,5,0,1,1,5,0" fill="#b279a2" stroke-width="1.5" opacity="1"/></g><g class="mark-text role-legend-label" pointer-events="none"><text text-anchor="start" transform="translate(16,9)" font-family="sans-serif" font-size="10px" fill="#000" opacity="1">karlmdavis/ansible-role-bind-dns</text></g></g><path class="foreground" aria-hidden="true" d="" pointer-events="none" display="none"/></g><g transform="translate(0,91)"><path class="background" aria-hidden="true" d="M0,0h176v11h-176Z" pointer-events="none" opacity="1"/><g><g class="mark-symbol role-legend-symbol" pointer-events="none"><path transform="translate(6,6)" d="M5,0A5,5,0,1,1,-5,0A5,5,0,1,1,5,0" fill="#ff9da6" stroke-width="1.5" opacity="1"/></g><g class="mark-text role-legend-label" pointer-events="none"><text text-anchor="start" transform="translate(16,9)" font-family="sans-serif" font-size="10px" fill="#000" opacity="1">karlmdavis/ansible-role-jenkins2</text></g></g><path class="foreground" aria-hidden="true" d="" pointer-events="none" display="none"/></g><g transform="translate(0,104)"><path class="background" aria-hidden="true" d="M0,0h176v11h-176Z" pointer-events="none" opacity="1"/><g><g class="mark-symbol role-legend-symbol" pointer-events="none"><path transform="translate(6,6)" d="M5,0A5,5,0,1,1,-5,0A5,5,0,1,1,5,0" fill="#9d755d" stroke-width="1.5" opacity="1"/></g><g class="mark-text role-legend-label" pointer-events="none"><text text-anchor="start" transform="translate(16,9)" font-family="sans-serif" font-size="10px" fill="#000" opacity="1">karlmdavis/ansible-role-ldap</text></g></g><path class="foreground" aria-hidden="true" d="" pointer-events="none" display="none"/></g><g transform="translate(0,117)"><path class="background" aria-hidden="true" d="M0,0h176v11h-176Z" pointer-events="none" opacity="1"/><g><g class="mark-symbol role-legend-symbol" pointer-events="none"><path transform="translate(6,6)" d="M5,0A5,5,0,1,1,-5,0A5,5,0,1,1,5,0" fill="#bab0ac" stroke-width="1.5" opacity="1"/></g><g class="mark-text role-legend-label" pointer-events="none"><text text-anchor="start" transform="translate(16,9)" font-family="sans-serif" font-size="10px" fill="#000" opacity="1">karlmdavis/ansible-role-rcm-dotfiles</text></g></g><path class="foreground" aria-hidden="true" d="" pointer-events="none" display="none"/></g><g transform="translate(0,130)"><path class="background" aria-hidden="true" d="M0,0h176v11h-176Z" pointer-events="none" opacity="1"/><g><g class="mark-symbol role-legend-symbol" pointer-events="none"><path transform="translate(6,6)" d="M5,0A5,5,0,1,1,-5,0A5,5,0,1,1,5,0" fill="#4c78a8" stroke-width="1.5" opacity="1"/></g><g class="mark-text role-legend-label" pointer-events="none"><text text-anchor="start" transform="translate(16,9)" font-family="sans-serif" font-size="10px" fill="#000" opacity="1">karlmdavis/ansible-roles</text></g></g><path class="foreground" aria-hidden="true" d="" pointer-events="none" display="none"/></g><g transform="translate(0,143)"><path class="background" aria-hidden="true" d="M0,0h176v11h-176Z" pointer-events="none" opacity="1"/><g><g class="mark-symbol role-legend-symbol" pointer-events="none"><path transform="translate(6,6)" d="M5,0A5,5,0,1,1,-5,0A5,5,0,1,1,5,0" fill="#f58518" stroke-width="1.5" opacity="1"/></g><g class="mark-text role-legend-label" pointer-events="none"><text text-anchor="start" transform="translate(16,9)" font-family="sans-serif" font-size="10px" fill="#000" opacity="1">karlmdavis/bbonfhir-dev-infra-doc…</text></g></g><path class="foreground" aria-hidden="true" d="" pointer-events="none" display="none"/></g><g transform="translate(0,156)"><path class="background" aria-hidden="true" d="M0,0h176v11h-176Z" pointer-events="none" opacity="1"/><g><g class="mark-symbol role-legend-symbol" pointer-events="none"><path transform="translate(6,6)" d="M5,0A5,5,0,1,1,-5,0A5,5,0,1,1,5,0" fill="#e45756" stroke-width="1.5" opacity="1"/></g><g class="mark-text role-legend-label" pointer-events="none"><text text-anchor="start" transform="translate(16,9)" font-family="sans-serif" font-size="10px" fill="#000" opacity="1">karlmdavis/can-i-kayak-baltimore</text></g></g><path class="foreground" aria-hidden="true" d="" pointer-events="none" display="none"/></g><g transform="translate(0,169)"><path class="background" aria-hidden="true" d="M0,0h176v11h-176Z" pointer-events="none" opacity="1"/><g><g class="mark-symbol role-legend-symbol" pointer-events="none"><path transform="translate(6,6)" d="M5,0A5,5,0,1,1,-5,0A5,5,0,1,1,5,0" fill="#72b7b2" stroke-width="1.5" opacity="1"/></g><g class="mark-text role-legend-label" pointer-events="none"><text text-anchor="start" transform="translate(16,9)" font-family="sans-serif" font-size="10px" fill="#000" opacity="1">karlmdavis/datanucleus-test-jdo-1…</text></g></g><path class="foreground" aria-hidden="true" d="" pointer-events="none" display="none"/></g><g transform="translate(0,182)"><path class="background" aria-hidden="true" d="M0,0h176v11h-176Z" pointer-events="none" opacity="1"/><g><g class="mark-symbol role-legend-symbol" pointer-events="none"><path transform="translate(6,6)" d="M5,0A5,5,0,1,1,-5,0A5,5,0,1,1,5,0" fill="#54a24b" stroke-width="1.5" opacity="1"/></g><g class="mark-text role-legend-label" pointer-events="none"><text text-anchor="start" transform="translate(16,9)" font-family="sans-serif" font-size="10px" fill="#000" opacity="1">karlmdavis/dotfiles</text></g></g><path class="foreground" aria-hidden="true" d="" pointer-events="none" display="none"/></g><g transform="translate(0,195)"><path class="background" aria-hidden="true" d="M0,0h176v11h-176Z" pointer-events="none" opacity="1"/><g><g class="mark-symbol role-legend-symbol" pointer-events="none"><path transform="translate(6,6)" d="M5,0A5,5,0,1,1,-5,0A5,5,0,1,1,5,0" fill="#eeca3b" stroke-width="1.5" opacity="1"/></g><g class="mark-text role-legend-label" pointer-events="none"><text text-anchor="start" transform="translate(16,9)" font-family="sans-serif" font-size="10px" fill="#000" opacity="1">karlmdavis/fhir-benchmarks</text></g></g><path class="foreground" aria-hidden="true" d="" pointer-events="none" display="none"/></g><g transform="translate(0,208)"><path class="background" aria-hidden="true" d="M0,0h176v11h-176Z" pointer-events="none" opacity="1"/><g><g class="mark-symbol role-legend-symbol" pointer-events="none"><path transform="translate(6,6)" d="M5,0A5,5,0,1,1,-5,0A5,5,0,1,1,5,0" fill="#b279a2" stroke-width="1.5" opacity="1"/></g><g class="mark-text role-legend-label" pointer-events="none"><text text-anchor="start" transform="translate(16,9)" font-family="sans-serif" font-size="10px" fill="#000" opacity="1">karlmdavis/hapi-fhir-jpaserver-sta…</text></g></g><path class="foreground" aria-hidden="true" d="" pointer-events="none" display="none"/></g><g transform="translate(0,221)"><path class="background" aria-hidden="true" d="M0,0h176v11h-176Z" pointer-events="none" opacity="1"/><g><g class="mark-symbol role-legend-symbol" pointer-events="none"><path transform="translate(6,6)" d="M5,0A5,5,0,1,1,-5,0A5,5,0,1,1,5,0" fill="#ff9da6" stroke-width="1.5" opacity="1"/></g><g class="mark-text role-legend-label" pointer-events="none"><text text-anchor="start" transform="translate(16,9)" font-family="sans-serif" font-size="10px" fill="#000" opacity="1">karlmdavis/hello-rust-actix</text></g></g><path class="foreground" aria-hidden="true" d="" pointer-events="none" display="none"/></g><g transform="translate(0,234)"><path class="background" aria-hidden="true" d="M0,0h176v11h-176Z" pointer-events="none" opacity="1"/><g><g class="mark-symbol role-legend-symbol" pointer-events="none"><path transform="translate(6,6)" d="M5,0A5,5,0,1,1,-5,0A5,5,0,1,1,5,0" fill="#9d755d" stroke-width="1.5" opacity="1"/></g><g class="mark-text role-legend-label" pointer-events="none"><text text-anchor="start" transform="translate(16,9)" font-family="sans-serif" font-size="10px" fill="#000" opacity="1">karlmdavis/jessentials</text></g></g><path class="foreground" aria-hidden="true" d="" pointer-events="none" display="none"/></g><g transform="translate(0,247)"><path class="background" aria-hidden="true" d="M0,0h176v11h-176Z" pointer-events="none" opacity="1"/><g><g class="mark-symbol role-legend-symbol" pointer-events="none"><path transform="translate(6,6)" d="M5,0A5,5,0,1,1,-5,0A5,5,0,1,1,5,0" fill="#bab0ac" stroke-width="1.5" opacity="1"/></g><g class="mark-text role-legend-label" pointer-events="none"><text text-anchor="start" transform="translate(16,9)" font-family="sans-serif" font-size="10px" fill="#000" opacity="1">karlmdavis/justdavis-ansible</text></g></g><path class="foreground" aria-hidden="true" d="" pointer-events="none" display="none"/></g><g transform="translate(0,260)"><path class="background" aria-hidden="true" d="M0,0h176v11h-176Z" pointer-events="none" opacity="1"/><g><g class="mark-symbol role-legend-symbol" pointer-events="none"><path transform="translate(6,6)" d="M5,0A5,5,0,1,1,-5,0A5,5,0,1,1,5,0" fill="#4c78a8" stroke-width="1.5" opacity="1"/></g><g class="mark-text role-legend-label" pointer-events="none"><text text-anchor="start" transform="translate(16,9)" font-family="sans-serif" font-size="10px" fill="#000" opacity="1">karlmdavis/justdavis-finances</text></g></g><path class="foreground" aria-hidden="true" d="" pointer-events="none" display="none"/></g><g transform="translate(0,273)"><path class="background" aria-hidden="true" d="M0,0h176v11h-176Z" pointer-events="none" opacity="1"/><g><g class="mark-symbol role-legend-symbol" pointer-events="none"><path transform="translate(6,6)" d="M5,0A5,5,0,1,1,-5,0A5,5,0,1,1,5,0" fill="#f58518" stroke-width="1.5" opacity="1"/></g><g class="mark-text role-legend-label" pointer-events="none"><text text-anchor="start" transform="translate(16,9)" font-family="sans-serif" font-size="10px" fill="#000" opacity="1">karlmdavis/justdavis-karl</text></g></g><path class="foreground" aria-hidden="true" d="" pointer-events="none" display="none"/></g><g transform="translate(0,286)"><path class="background" aria-hidden="true" d="M0,0h176v11h-176Z" pointer-events="none" opacity="1"/><g><g class="mark-symbol role-legend-symbol" pointer-events="none"><path transform="translate(6,6)" d="M5,0A5,5,0,1,1,-5,0A5,5,0,1,1,5,0" fill="#e45756" stroke-width="1.5" opacity="1"/></g><g class="mark-text role-legend-label" pointer-events="none"><text text-anchor="start" transform="translate(16,9)" font-family="sans-serif" font-size="10px" fill="#000" opacity="1">karlmdavis/justdavis-puppet</text></g></g><path class="foreground" aria-hidden="true" d="" pointer-events="none" display="none"/></g><g transform="translate(0,299)"><path class="background" aria-hidden="true" d="M0,0h176v11h-176Z" pointer-events="none" opacity="1"/><g><g class="mark-symbol role-legend-symbol" pointer-events="none"><path transform="translate(6,6)" d="M5,0A5,5,0,1,1,-5,0A5,5,0,1,1,5,0" fill="#72b7b2" stroke-width="1.5" opacity="1"/></g><g class="mark-text role-legend-label" pointer-events="none"><text text-anchor="start" transform="translate(16,9)" font-family="sans-serif" font-size="10px" fill="#000" opacity="1">karlmdavis/kobjects</text></g></g><path class="foreground" aria-hidden="true" d="" pointer-events="none" display="none"/></g><g transform="translate(0,312)"><path class="background" aria-hidden="true" d="M0,0h176v11h-176Z" pointer-events="none" opacity="1"/><g><g class="mark-symbol role-legend-symbol" pointer-events="none"><path transform="translate(6,6)" d="M5,0A5,5,0,1,1,-5,0A5,5,0,1,1,5,0" fill="#54a24b" stroke-width="1.5" opacity="1"/></g><g class="mark-text role-legend-label" pointer-events="none"><text text-anchor="start" transform="translate(16,9)" font-family="sans-serif" font-size="10px" fill="#000" opacity="1">karlmdavis/ksoap2-android</text></g></g><path class="foreground" aria-hidden="true" d="" pointer-events="none" display="none"/></g><g transform="translate(0,325)"><path class="background" aria-hidden="true" d="M0,0h176v11h-176Z" pointer-events="none" opacity="1"/><g><g class="mark-symbol role-legend-symbol" pointer-events="none"><path transform="translate(6,6)" d="M5,0A5,5,0,1,1,-5,0A5,5,0,1,1,5,0" fill="#eeca3b" stroke-width="1.5" opacity="1"/></g><g class="mark-text role-legend-label" pointer-events="none"><text text-anchor="start" transform="translate(16,9)" font-family="sans-serif" font-size="10px" fill="#000" opacity="1">karlmdavis/kxml2</text></g></g><path class="foreground" aria-hidden="true" d="" pointer-events="none" display="none"/></g><g transform="translate(0,338)"><path class="background" aria-hidden="true" d="M0,0h176v11h-176Z" pointer-events="none" opacity="1"/><g><g class="mark-symbol role-legend-symbol" pointer-events="none"><path transform="translate(6,6)" d="M5,0A5,5,0,1,1,-5,0A5,5,0,1,1,5,0" fill="#b279a2" stroke-width="1.5" opacity="1"/></g><g class="mark-text role-legend-label" pointer-events="none"><text text-anchor="start" transform="translate(16,9)" font-family="sans-serif" font-size="10px" fill="#000" opacity="1">karlmdavis/ldap-plugin</text></g></g><path class="foreground" aria-hidden="true" d="" pointer-events="none" display="none"/></g><g transform="translate(0,351)"><path class="background" aria-hidden="true" d="M0,0h176v11h-176Z" pointer-events="none" opacity="1"/><g><g class="mark-symbol role-legend-symbol" pointer-events="none"><path transform="translate(6,6)" d="M5,0A5,5,0,1,1,-5,0A5,5,0,1,1,5,0" fill="#ff9da6" stroke-width="1.5" opacity="1"/></g><g class="mark-text role-legend-label" pointer-events="none"><text text-anchor="start" transform="translate(16,9)" font-family="sans-serif" font-size="10px" fill="#000" opacity="1">karlmdavis/lego-ev3dev-rs</text></g></g><path class="foreground" aria-hidden="true" d="" pointer-events="none" display="none"/></g><g transform="translate(0,364)"><path class="background" aria-hidden="true" d="M0,0h176v11h-176Z" pointer-events="none" opacity="1"/><g><g class="mark-symbol role-legend-symbol" pointer-events="none"><path transform="translate(6,6)" d="M5,0A5,5,0,1,1,-5,0A5,5,0,1,1,5,0" fill="#9d755d" stroke-width="1.5" opacity="1"/></g><g class="mark-text role-legend-label" pointer-events="none"><text text-anchor="start" transform="translate(16,9)" font-family="sans-serif" font-size="10px" fill="#000" opacity="1">karlmdavis/liquibase</text></g></g><path class="foreground" aria-hidden="true" d="" pointer-events="none" display="none"/></g><g transform="translate(0,377)"><path class="background" aria-hidden="true" d="M0,0h176v11h-176Z" pointer-events="none" opacity="1"/><g><g class="mark-symbol role-legend-symbol" pointer-events="none"><path transform="translate(6,6)" d="M5,0A5,5,0,1,1,-5,0A5,5,0,1,1,5,0" fill="#bab0ac" stroke-width="1.5" opacity="1"/></g><g class="mark-text role-legend-label" pointer-events="none"><text text-anchor="start" transform="translate(16,9)" font-family="sans-serif" font-size="10px" fill="#000" opacity="1">…14 entries</text></g></g><path class="foreground" aria-hidden="true" d="" pointer-events="none" display="none"/></g></g></g><path class="foreground" aria-hidden="true" d="" pointer-events="none" display="none"/></g></g><g class="mark-text role-legend-title" pointer-events="none"><text text-anchor="start" transform="translate(0,9)" font-family="sans-serif" font-size="11px" font-weight="bold" fill="#000" opacity="1">Repository</text></g></g><path class="foreground" aria-hidden="true" d="" pointer-events="none" display="none"/></g></g><g class="mark-group role-title"><g transform="translate(400,-22)"><path class="background" aria-hidden="true" d="M0,0h0v0h0Z" pointer-events="none"/><g><g class="mark-text role-title-text" role="graphics-symbol" aria-roledescription="title" aria-label="Title text 'Unique Visitors per Day'" pointer-events="none"><text text-anchor="middle" transform="translate(0,10)" font-family="sans-serif" font-size="13px" font-weight="bold" fill="#000" opacity="1">Unique Visitors per Day</text></g></g><path class="foreground" aria-hidden="true" d="" pointer-events="none" display="none"/></g></g></g><path class="foreground" aria-hidden="true" d="" display="none"/></g></g></g></svg>