<svg xmlns="http://www.w3.org/2000/svg" xmlns:xlink="http://www.w3.org/1999/xlink" version="1.1" class="marks" width="1043" height="436" viewBox="0 0 1043 436"><rect width="1043" height="436" fill="white"/><g fill="none" stroke-miterlimit="10" transform="translate(44,27)"><g class="mark-group role-frame root" role="graphics-object" aria-roledescription="group mark container"><g transform="translate(0,0)"><path class="background" aria-hidden="true" d="M0.5,0.5h800v300h-800Z" stroke="#ddd"/><g><g class="mark-group role-axis" aria-hidden="true"><g transform="translate(0.5,300.5)"><path class="background" aria-hidden="true" d="M0,0h0v0h0Z" pointer-events="none"/><g><g class="mark-rule role-axis-grid" pointer-events="none"><line transform="translate(0,-300)" x2="0" y2="300" stroke="#ddd" stroke-width="1" opacity="1"/><line transform="translate(30,-300)" x2="0" y2="300" stroke="#ddd" stroke-width="1" opacity="1"/><line transform="translate(59,-300)" x2="0" y2="300" stroke="#ddd" stroke-width="1" opacity="1"/><line transform="translate(89,-300)" x2="0" y2="300" stroke="#ddd" stroke-width="1" opacity="1"/><line transform="translate(119,-300)" x2="0" y2="300" stroke="#ddd" stroke-width="1" opacity="1"/><line transform="translate(148,-300)" x2="0" y2="300" stroke="#ddd" stroke-width="1" opacity="1"/><line transform="translate(178,-300)" x2="0" y2="300" stroke="#ddd" stroke-width="1" opacity="1"/><line transform="translate(207,-300)" x2="0" y2="300" stroke="#ddd" stroke-width="1" opacity="1"/><line transform="translate(237,-300)" x2="0" y2="300" stroke="#ddd" stroke-width="1" opacity="1"/><line transform="translate(267,-300)" x2="0" y2="300" stroke="#ddd" stroke-width="1" opacity="1"/><line transform="translate(296,-300)" x2="0" y2="300" stroke="#ddd" stroke-width="1" opacity="1"/><line transform="translate(326,-300)" x2="0" y2="300" stroke="#ddd" stroke-width="1" opacity="1"/><line transform="translate(356,-300)" x2="0" y2="300" stroke="#ddd" stroke-width="1" opacity="1"/><line transform="translate(385,-300)" x2="0" y2="300" stroke="#ddd" stroke-width="1" opacity="1"/><line transform="translate(415,-300)" x2="0" y2="300" stroke="#ddd" stroke-width="1" opacity="1"/><line transform="translate(444,-300)" x2="0" y2="300" stroke="#ddd" stroke-width="1" opacity="1"/><line transform="translate(474,-300)" x2="0" y2="300" stroke="#ddd" stroke-width="1" opacity="1"/><line transform="translate(504,-300)" x2="0" y2="300" stroke="#ddd" stroke-width="1" opacity="1"/><line transform="translate(533,-300)" x2="0" y2="300" stroke="#ddd" stroke-width="1" opacity="1"/><line transform="translate(563,-300)" x2="0" y2="300" stroke="#ddd" stroke-width="1" opacity="1"/><line transform="translate(593,-300)" x2="0" y2="300" stroke="#ddd" stroke-width="1" opacity="1"/><line transform="translate(622,-300)" x2="0" y2="300" stroke="#ddd" stroke-width="1" opacity="1"/><line transform="translate(652,-300)" x2="0" y2="300" stroke="#ddd" stroke-width="1" opacity="1"/><line transform="translate(681,-300)" x2="0" y2="300" stroke="#ddd" stroke-width="1" opacity="1"/><line transform="translate(711,-300)" x2="0" y2="300" stroke="#ddd" stroke-width="1" opacity="1"/><line transform="translate(741,-300)" x2="0" y2="300" stroke="#ddd" stroke-width="1" opacity="1"/><line transform="translate(770,-300)" x2="0" y2="300" stroke="#ddd" stroke-width="1" opacity="1"/><line transform="translate(800,-300)" x2="0" y2="300" stroke="#ddd" stroke-width="1" opacity="1"/></g></g><path class="foreground" aria-hidden="true" d="" pointer-events="none" display="none"/></g></g><g class="mark-group role-axis" aria-hidden="true"><g transform="translate(0.5,0.5)"><path class="background" aria-hidden="true" d="M0,0h0v0h0Z" pointer-events="none"/><g><g class="mark-rule role-axis-grid" pointer-events="none"><line transform="translate(0,300)" x2="800" y2="0" stroke="#ddd" stroke-width="1" opacity="1"/><line transform="translate(0,267)" x2="800" y2="0" stroke="#ddd" stroke-width="1" opacity="1"/><line transform="translate(0,233)" x2="800" y2="0" stroke="#ddd" stroke-width="1" opacity="1"/><line transform="translate(0,200)" x2="800" y2="0" stroke="#ddd" stroke-width="1" opacity="1"/><line transform="translate(0,167)" x2="800" y2="0" stroke="#ddd" stroke-width="1" opacity="1"/><line transform="translate(0,133)" x2="800" y2="0" stroke="#ddd" stroke-width="1" opacity="1"/><line transform="translate(0,100)" x2="800" y2="0" stroke="#ddd" stroke-width="1" opacity="1"/><line transform="translate(0,67)" x2="800" y2="0" stroke="#ddd" stroke-width="1" opacity="1"/><line transform="translate(0,33)" x2="800" y2="0" stroke="#ddd" stroke-width="1" opacity="1"/><line transform="translate(0,0)" x2="800" y2="0" stroke="#ddd" stroke-width="1" opacity="1"/></g></g><path class="foreground" aria-hidden="true" d="" pointer-events="none" display="none"/></g></g><g class="mark-group role-axis" role="graphics-symbol" aria-roledescription="axis" aria-label="X-axis titled 'Date' for a time scale with values from Monday, 16 March 2026, 12:00:00 AM to Sunday, 12 April 2026, 12:00:00 AM"><g transform="translate(0.5,300.5)"><path class="background" aria-hidden="true" d="M0,0h0v0h0Z" pointer-events="none"/><g><g class="mark-rule role-axis-tick" pointer-events="none"><line transform="translate(0,0)" x2="0" y2="5" stroke="#888" stroke-width="1" opacity="1"/><line transform="translate(30,0)" x2="0" y2="5" stroke="#888" stroke-width="1" opacity="1"/><line transform="translate(59,0)" x2="0" y2="5" stroke="#888" stroke-width="1" opacity="1"/><line transform="translate(89,0)" x2="0" y2="5" stroke="#888" stroke-width="1" opacity="1"/><line transform="translate(119,0)" x2="0" y2="5" stroke="#888" stroke-width="1" opacity="1"/><line transform="translate(148,0)" x2="0" y2="5" stroke="#888" stroke-width="1" opacity="1"/><line transform="translate(178,0)" x2="0" y2="5" stroke="#888" stroke-width="1" opacity="1"/><line transform="translate(207,0)" x2="0" y2="5" stroke="#888" stroke-width="1" opacity="1"/><line transform="translate(237,0)" x2="0" y2="5" stroke="#888" stroke-width="1" opacity="1"/><line transform="translate(267,0)" x2="0" y2="5" stroke="#888" stroke-width="1" opacity="1"/><line transform="translate(296,0)" x2="0" y2="5" stroke="#888" stroke-width="1" opacity="1"/><line transform="translate(326,0)" x2="0" y2="5" stroke="#888" stroke-width="1" opacity="1"/><line transform="translate(356,0)" x2="0" y2="5" stroke="#888" stroke-width="1" opacity="1"/><line transform="translate(385,0)" x2="0" y2="5" stroke="#888" stroke-width="1" opacity="1"/><line transform="translate(415,0)" x2="0" y2="5" stroke="#888" stroke-width="1" opacity="1"/><line transform="translate(444,0)" x2="0" y2="5" stroke="#888" stroke-width="1" opacity="1"/><line transform="translate(474,0)" x2="0" y2="5" stroke="#888" stroke-width="1" opacity="1"/><line transform="translate(504,0)" x2="0" y2="5" stroke="#888" stroke-width="1" opacity="1"/><line transform="translate(533,0)" x2="0" y2="5" stroke="#888" stroke-width="1" opacity="1"/><line transform="translate(563,0)" x2="0" y2="5" stroke="#888" stroke-width="1" opacity="1"/><line transform="translate(593,0)" x2="0" y2="5" stroke="#888" stroke-width="1" opacity="1"/><line transform="translate(622,0)" x2="0" y2="5" stroke="#888" stroke-width="1" opacity="1"/><line transform="translate(652,0)" x2="0" y2="5" stroke="#888" stroke-width="1" opacity="1"/><line transform="translate(681,0)" x2="0" y2="5" stroke="#888" stroke-width="1" opacity="1"/><line transform="translate(711,0)" x2="0" y2="5" stroke="#888" stroke-width="1" opacity="1"/><line transform="translate(741,0)" x2="0" y2="5" stroke="#888" stroke-width="1" opacity="1"/><line transform="translate(770,0)" x2="0" y2="5" stroke="#888" stroke-width="1" opacity="1"/><line transform="translate(800,0)" x2="0" y2="5" stroke="#888" stroke-width="1" opacity="1"/></g><g class="mark-text role-axis-label" pointer-events="none"><text text-anchor="start" transform="translate(0,15)" font-family="sans-serif" font-size="10px" fill="#000" opacity="1">Mon 16</text><text text-anchor="middle" transform="translate(29.629629629629626,15)" font-family="sans-serif" font-size="10px" fill="#000" opacity="0">Tue 17</text><text text-anchor="middle" transform="translate(59.25925925925925,15)" font-family="sans-serif" font-size="10px" fill="#000" opacity="1">Wed 18</text><text text-anchor="middle" transform="translate(88.88888888888889,15)" font-family="sans-serif" font-size="10px" fill="#000" opacity="0">Thu 19</text><text text-anchor="middle" transform="translate(118.5185185185185,15)" font-family="sans-serif" font-size="10px" fill="#000" opacity="1">Fri 20</text><text text-anchor="middle" transform="translate(148.14814814814815,15)" font-family="sans-serif" font-size="10px" fill="#000" opacity="0">Sat 21</text><text text-anchor="middle" transform="translate(177.77777777777777,15)" font-family="sans-serif" font-size="10px" fill="#000" opacity="1">Mar 22</text><text text-anchor="middle" transform="translate(207.4074074074074,15)" font-family="sans-serif" font-size="10px" fill="#000" opacity="0">Mon 23</text><text text-anchor="middle" transform="translate(237.037037037037,15)" font-family="sans-serif" font-size="10px" fill="#000" opacity="1">Tue 24</text><text text-anchor="middle" transform="translate(266.66666666666663,15)" font-family="sans-serif" font-size="10px" fill="#000" opacity="0">Wed 25</text><text text-anchor="middle" transform="translate(296.2962962962963,15)" font-family="sans-serif" font-size="10px" fill="#000" opacity="1">Thu 26</text><text text-anchor="middle" transform="translate(325.9259259259259,15)" font-family="sans-serif" font-size="10px" fill="#000" opacity="0">Fri 27</text><text text-anchor="middle" transform="translate(355.55555555555554,15)" font-family="sans-serif" font-size="10px" fill="#000" opacity="1">Sat 28</text><text text-anchor="middle" transform="translate(385.18518518518516,15)" font-family="sans-serif" font-size="10px" fill="#000" opacity="0">Mar 29</text><text text-anchor="middle" transform="translate(414.8148148148148,15)" font-family="sans-serif" font-size="10px" fill="#000" opacity="1">Mon 30</text><text text-anchor="middle" transform="translate(444.44444444444446,15)" font-family="sans-serif" font-size="10px" fill="#000" opacity="0">Tue 31</text><text text-anchor="middle" transform="translate(474.074074074074,15)" font-family="sans-serif" font-size="10px" fill="#000" opacity="1">April</text><text text-anchor="middle" transform="translate(503.7037037037037,15)" font-family="sans-serif" font-size="10px" fill="#000" opacity="0">Thu 02</text><text text-anchor="middle" transform="translate(533.3333333333333,15)" font-family="sans-serif" font-size="10px" fill="#000" opacity="1">Fri 03</text><text text-anchor="middle" transform="translate(562.9629629629629,15)" font-family="sans-serif" font-size="10px" fill="#000" opacity="0">Sat 04</text><text text-anchor="middle" transform="translate(592.5925925925926,15)" font-family="sans-serif" font-size="10px" fill="#000" opacity="1">Apr 05</text><text text-anchor="middle" transform="translate(622.2222222222223,15)" font-family="sans-serif" font-size="10px" fill="#000" opacity="0">Mon 06</text><text text-anchor="middle" transform="translate(651.8518518518518,15)" font-family="sans-serif" font-size="10px" fill="#000" opacity="1">Tue 07</text><text text-anchor="middle" transform="translate(681.4814814814815,15)" font-family="sans-serif" font-size="10px" fill="#000" opacity="0">Wed 08</text><text text-anchor="middle" transform="translate(711.1111111111111,15)" font-family="sans-serif" font-size="10px" fill="#000" opacity="1">Thu 09</text><text text-anchor="middle" transform="translate(740.7407407407408,15)" font-family="sans-serif" font-size="10px" fill="#000" opacity="0">Fri 10</text><text text-anchor="middle" transform="translate(770.3703703703703,15)" font-family="sans-serif" font-size="10px" fill="#000" opacity="1">Sat 11</text><text text-anchor="end" transform="translate(800,15)" font-family="sans-serif" font-size="10px" fill="#000" opacity="0">Apr 12</text></g><g class="mark-rule role-axis-domain" pointer-events="none"><line transform="translate(0,0)" x2="800" y2="0" stroke="#888" stroke-width="1" opacity="1"/></g><g class="mark-text role-axis-title" pointer-events="none"><text text-anchor="middle" transform="translate(400,30)" font-family="sans-serif" font-size="11px" font-weight="bold" fill="#000" opacity="1">Date</text></g></g><path class="foreground" aria-hidden="true" d="" pointer-events="none" display="none"/></g></g><g class="mark-group role-axis" role="graphics-symbol" aria-roledescription="axis" aria-label="Y-axis titled 'Unique Clones/day' for a linear scale with values from 0 to 180"><g transform="translate(0.5,0.5)"><path class="background" aria-hidden="true" d="M0,0h0v0h0Z" pointer-events="none"/><g><g class="mark-rule role-axis-tick" pointer-events="none"><line transform="translate(0,300)" x2="-5" y2="0" stroke="#888" stroke-width="1" opacity="1"/><line transform="translate(0,267)" x2="-5" y2="0" stroke="#888" stroke-width="1" opacity="1"/><line transform="translate(0,233)" x2="-5" y2="0" stroke="#888" stroke-width="1" opacity="1"/><line transform="translate(0,200)" x2="-5" y2="0" stroke="#888" stroke-width="1" opacity="1"/><line transform="translate(0,167)" x2="-5" y2="0" stroke="#888" stroke-width="1" opacity="1"/><line transform="translate(0,133)" x2="-5" y2="0" stroke="#888" stroke-width="1" opacity="1"/><line transform="translate(0,100)" x2="-5" y2="0" stroke="#888" stroke-width="1" opacity="1"/><line transform="translate(0,67)" x2="-5" y2="0" stroke="#888" stroke-width="1" opacity="1"/><line transform="translate(0,33)" x2="-5" y2="0" stroke="#888" stroke-width="1" opacity="1"/><line transform="translate(0,0)" x2="-5" y2="0" stroke="#888" stroke-width="1" opacity="1"/></g><g class="mark-text role-axis-label" pointer-events="none"><text text-anchor="end" transform="translate(-7,303)" font-family="sans-serif" font-size="10px" fill="#000" opacity="1">0</text><text text-anchor="end" transform="translate(-7,269.66666666666663)" font-family="sans-serif" font-size="10px" fill="#000" opacity="1">20</text><text text-anchor="end" transform="translate(-7,236.33333333333334)" font-family="sans-serif" font-size="10px" fill="#000" opacity="1">40</text><text text-anchor="end" transform="translate(-7,203.00000000000003)" font-family="sans-serif" font-size="10px" fill="#000" opacity="1">60</text><text text-anchor="end" transform="translate(-7,169.66666666666669)" font-family="sans-serif" font-size="10px" fill="#000" opacity="1">80</text><text text-anchor="end" transform="translate(-7,136.33333333333331)" font-family="sans-serif" font-size="10px" fill="#000" opacity="1">100</text><text text-anchor="end" transform="translate(-7,103.00000000000001)" font-family="sans-serif" font-size="10px" fill="#000" opacity="1">120</text><text text-anchor="end" transform="translate(-7,69.66666666666666)" font-family="sans-serif" font-size="10px" fill="#000" opacity="1">140</text><text text-anchor="end" transform="translate(-7,36.33333333333335)" font-family="sans-serif" font-size="10px" fill="#000" opacity="1">160</text><text text-anchor="end" transform="translate(-7,3)" font-family="sans-serif" font-size="10px" fill="#000" opacity="1">180</text></g><g class="mark-rule role-axis-domain" pointer-events="none"><line transform="translate(0,300)" x2="0" y2="-300" stroke="#888" stroke-width="1" opacity="1"/></g><g class="mark-text role-axis-title" pointer-events="none"><text text-anchor="middle" transform="translate(-27.6845703125,150) rotate(-90) translate(0,-2)" font-family="sans-serif" font-size="11px" font-weight="bold" fill="#000" opacity="1">Unique Clones/day</text></g></g><path class="foreground" aria-hidden="true" d="" pointer-events="none" display="none"/></g></g><g class="mark-group role-scope pathgroup" role="graphics-object" aria-roledescription="group mark container"><g transform="translate(0,0)"><path class="background" aria-hidden="true" d="M0,0h800v300h-800Z"/><g><g class="mark-area role-mark marks" role="graphics-object" aria-roledescription="area mark container"><path aria-label="Date: Mar 16, 2026; Unique Clones/day: 0; Repository: justdavis-family/github-analytics-data" role="graphics-symbol" aria-roledescription="area mark" d="M0,298.333L29.63,300L59.259,300L88.889,298.333L118.519,300L148.148,300L177.778,300L207.407,278.333L237.037,296.667L266.667,288.333L296.296,273.333L325.926,185L355.556,223.333L385.185,140L414.815,245L444.444,261.667L474.074,268.333L503.704,283.333L533.333,250L562.963,23.333L592.593,115L622.222,248.333L651.852,123.333L681.481,240L711.111,213.333L740.741,265L770.37,238.333L800,196.667L800,216.667L770.37,251.667L740.741,276.667L711.111,225L681.481,248.333L651.852,166.667L622.222,248.333L592.593,115L562.963,23.333L533.333,250L503.704,283.333L474.074,268.333L444.444,261.667L414.815,245L385.185,140L355.556,223.333L325.926,185L296.296,273.333L266.667,288.333L237.037,296.667L207.407,278.333L177.778,300L148.148,300L118.519,300L88.889,298.333L59.259,300L29.63,300L0,298.333Z" fill="#4c78a8"/></g></g><path class="foreground" aria-hidden="true" d="" display="none"/></g><g transform="translate(0,0)"><path class="background" aria-hidden="true" d="M0,0h800v300h-800Z"/><g><g class="mark-area role-mark marks" role="graphics-object" aria-roledescription="area mark container"><path aria-label="Date: Mar 16, 2026; Unique Clones/day: 0; Repository: justdavis-family/justdavis" role="graphics-symbol" aria-roledescription="area mark" d="M0,298.333L29.63,300L59.259,300L88.889,298.333L118.519,300L148.148,300L177.778,300L207.407,278.333L237.037,296.667L266.667,288.333L296.296,273.333L325.926,185L355.556,223.333L385.185,140L414.815,245L444.444,261.667L474.074,268.333L503.704,283.333L533.333,250L562.963,23.333L592.593,115L622.222,248.333L651.852,166.667L681.481,248.333L711.111,225L740.741,276.667L770.37,251.667L800,216.667L800,243.333L770.37,256.667L740.741,280L711.111,231.667L681.481,251.667L651.852,250L622.222,278.333L592.593,165L562.963,153.333L533.333,251.667L503.704,283.333L474.074,270L444.444,261.667L414.815,245L385.185,140L355.556,223.333L325.926,185L296.296,273.333L266.667,288.333L237.037,296.667L207.407,280L177.778,300L148.148,300L118.519,300L88.889,298.333L59.259,300L29.63,300L0,298.333Z" fill="#f58518"/></g></g><path class="foreground" aria-hidden="true" d="" display="none"/></g><g transform="translate(0,0)"><path class="background" aria-hidden="true" d="M0,0h800v300h-800Z"/><g><g class="mark-area role-mark marks" role="graphics-object" aria-roledescription="area mark container"><path aria-label="Date: Mar 16, 2026; Unique Clones/day: 0; Repository: karlmdavis/FHIR-Server" role="graphics-symbol" aria-roledescription="area mark" d="M0,298.333L29.63,300L59.259,300L88.889,298.333L118.519,300L148.148,300L177.778,300L207.407,280L237.037,296.667L266.667,288.333L296.296,273.333L325.926,185L355.556,223.333L385.185,140L414.815,245L444.444,261.667L474.074,270L503.704,283.333L533.333,251.667L562.963,153.333L592.593,165L622.222,278.333L651.852,250L681.481,251.667L711.111,231.667L740.741,280L770.37,256.667L800,243.333L800,245L770.37,260L740.741,280L711.111,231.667L681.481,251.667L651.852,250L622.222,278.333L592.593,165L562.963,153.333L533.333,251.667L503.704,283.333L474.074,270L444.444,263.333L414.815,245L385.185,140L355.556,223.333L325.926,185L296.296,273.333L266.667,288.333L237.037,296.667L207.407,280L177.778,300L148.148,300L118.519,300L88.889,298.333L59.259,300L29.63,300L0,298.333Z" fill="#e45756"/></g></g><path class="foreground" aria-hidden="true" d="" display="none"/></g><g transform="translate(0,0)"><path class="background" aria-hidden="true" d="M0,0h800v300h-800Z"/><g><g class="mark-area role-mark marks" role="graphics-object" aria-roledescription="area mark container"><path aria-label="Date: Mar 16, 2026; Unique Clones/day: 1; Repository: karlmdavis/ansible" role="graphics-symbol" aria-roledescription="area mark" d="M0,298.333L29.63,300L59.259,300L88.889,298.333L118.519,300L148.148,300L177.778,300L207.407,280L237.037,296.667L266.667,288.333L296.296,273.333L325.926,185L355.556,223.333L385.185,140L414.815,245L444.444,263.333L474.074,270L503.704,283.333L533.333,251.667L562.963,153.333L592.593,165L622.222,278.333L651.852,250L681.481,251.667L711.111,231.667L740.741,280L770.37,260L800,245L800,245L770.37,260L740.741,280L711.111,231.667L681.481,251.667L651.852,250L622.222,278.333L592.593,165L562.963,153.333L533.333,251.667L503.704,283.333L474.074,270L444.444,263.333L414.815,245L385.185,140L355.556,223.333L325.926,185L296.296,273.333L266.667,288.333L237.037,296.667L207.407,280L177.778,300L148.148,300L118.519,300L88.889,298.333L59.259,300L29.63,300L0,300Z" fill="#72b7b2"/></g></g><path class="foreground" aria-hidden="true" d="" display="none"/></g><g transform="translate(0,0)"><path class="background" aria-hidden="true" d="M0,0h800v300h-800Z"/><g><g class="mark-area role-mark marks" role="graphics-object" aria-roledescription="area mark container"><path aria-label="Date: Mar 16, 2026; Unique Clones/day: 0; Repository: karlmdavis/ansible-jenkins" role="graphics-symbol" aria-roledescription="area mark" d="M0,300L29.63,300L59.259,300L88.889,298.333L118.519,300L148.148,300L177.778,300L207.407,280L237.037,296.667L266.667,288.333L296.296,273.333L325.926,185L355.556,223.333L385.185,140L414.815,245L444.444,263.333L474.074,270L503.704,283.333L533.333,251.667L562.963,153.333L592.593,165L622.222,278.333L651.852,250L681.481,251.667L711.111,231.667L740.741,280L770.37,260L800,245L800,246.667L770.37,260L740.741,280L711.111,231.667L681.481,251.667L651.852,250L622.222,278.333L592.593,165L562.963,155L533.333,253.333L503.704,283.333L474.074,270L444.444,263.333L414.815,245L385.185,140L355.556,223.333L325.926,185L296.296,275L266.667,288.333L237.037,296.667L207.407,280L177.778,300L148.148,300L118.519,300L88.889,298.333L59.259,300L29.63,300L0,300Z" fill="#54a24b"/></g></g><path class="foreground" aria-hidden="true" d="" display="none"/></g><g transform="translate(0,0)"><path class="background" aria-hidden="true" d="M0,0h800v300h-800Z"/><g><g class="mark-area role-mark marks" role="graphics-object" aria-roledescription="area mark container"><path aria-label="Date: Mar 16, 2026; Unique Clones/day: 0; Repository: karlmdavis/ansible-role-acmetool" role="graphics-symbol" aria-roledescription="area mark" d="M0,300L29.63,300L59.259,300L88.889,298.333L118.519,300L148.148,300L177.778,300L207.407,280L237.037,296.667L266.667,288.333L296.296,275L325.926,185L355.556,223.333L385.185,140L414.815,245L444.444,263.333L474.074,270L503.704,283.333L533.333,253.333L562.963,155L592.593,165L622.222,278.333L651.852,250L681.481,251.667L711.111,231.667L740.741,280L770.37,260L800,246.667L800,248.333L770.37,260L740.741,280L711.111,231.667L681.481,251.667L651.852,250L622.222,278.333L592.593,165L562.963,155L533.333,253.333L503.704,283.333L474.074,270L444.444,263.333L414.815,245L385.185,140L355.556,223.333L325.926,185L296.296,276.667L266.667,288.333L237.037,296.667L207.407,280L177.778,300L148.148,300L118.519,300L88.889,298.333L59.259,300L29.63,300L0,300Z" fill="#eeca3b"/></g></g><path class="foreground" aria-hidden="true" d="" display="none"/></g><g transform="translate(0,0)"><path class="background" aria-hidden="true" d="M0,0h800v300h-800Z"/><g><g class="mark-area role-mark marks" role="graphics-object" aria-roledescription="area mark container"><path aria-label="Date: Mar 16, 2026; Unique Clones/day: 0; Repository: karlmdavis/ansible-role-bind-dns" role="graphics-symbol" aria-roledescription="area mark" d="M0,300L29.63,300L59.259,300L88.889,298.333L118.519,300L148.148,300L177.778,300L207.407,280L237.037,296.667L266.667,288.333L296.296,276.667L325.926,185L355.556,223.333L385.185,140L414.815,245L444.444,263.333L474.074,270L503.704,283.333L533.333,253.333L562.963,155L592.593,165L622.222,278.333L651.852,250L681.481,251.667L711.111,231.667L740.741,280L770.37,260L800,248.333L800,250L770.37,260L740.741,280L711.111,233.333L681.481,253.333L651.852,250L622.222,278.333L592.593,165L562.963,156.667L533.333,253.333L503.704,283.333L474.074,275L444.444,263.333L414.815,246.667L385.185,141.667L355.556,223.333L325.926,188.333L296.296,276.667L266.667,288.333L237.037,296.667L207.407,280L177.778,300L148.148,300L118.519,300L88.889,298.333L59.259,300L29.63,300L0,300Z" fill="#b279a2"/></g></g><path class="foreground" aria-hidden="true" d="" display="none"/></g><g transform="translate(0,0)"><path class="background" aria-hidden="true" d="M0,0h800v300h-800Z"/><g><g class="mark-area role-mark marks" role="graphics-object" aria-roledescription="area mark container"><path aria-label="Date: Mar 16, 2026; Unique Clones/day: 0; Repository: karlmdavis/ansible-role-jenkins2" role="graphics-symbol" aria-roledescription="area mark" d="M0,300L29.63,300L59.259,300L88.889,298.333L118.519,300L148.148,300L177.778,300L207.407,280L237.037,296.667L266.667,288.333L296.296,276.667L325.926,188.333L355.556,223.333L385.185,141.667L414.815,246.667L444.444,263.333L474.074,275L503.704,283.333L533.333,253.333L562.963,156.667L592.593,165L622.222,278.333L651.852,250L681.481,253.333L711.111,233.333L740.741,280L770.37,260L800,250L800,250L770.37,261.667L740.741,283.333L711.111,241.667L681.481,253.333L651.852,250L622.222,278.333L592.593,166.667L562.963,160L533.333,255L503.704,285L474.074,276.667L444.444,265L414.815,246.667L385.185,141.667L355.556,225L325.926,190L296.296,278.333L266.667,290L237.037,298.333L207.407,280L177.778,300L148.148,300L118.519,300L88.889,298.333L59.259,300L29.63,300L0,300Z" fill="#ff9da6"/></g></g><path class="foreground" aria-hidden="true" d="" display="none"/></g><g transform="translate(0,0)"><path class="background" aria-hidden="true" d="M0,0h800v300h-800Z"/><g><g class="mark-area role-mark marks" role="graphics-object" aria-roledescription="area mark container"><path aria-label="Date: Mar 16, 2026; Unique Clones/day: 0; Repository: karlmdavis/ansible-role-ldap" role="graphics-symbol" aria-roledescription="area mark" d="M0,300L29.63,300L59.259,300L88.889,298.333L118.519,300L148.148,300L177.778,300L207.407,280L237.037,298.333L266.667,290L296.296,278.333L325.926,190L355.556,225L385.185,141.667L414.815,246.667L444.444,265L474.074,276.667L503.704,285L533.333,255L562.963,160L592.593,166.667L622.222,278.333L651.852,250L681.481,253.333L711.111,241.667L740.741,283.333L770.37,261.667L800,250L800,250L770.37,261.667L740.741,283.333L711.111,241.667L681.481,253.333L651.852,250L622.222,278.333L592.593,166.667L562.963,160L533.333,255L503.704,285L474.074,276.667L444.444,266.667L414.815,246.667L385.185,141.667L355.556,225L325.926,190L296.296,278.333L266.667,290L237.037,298.333L207.407,280L177.778,300L148.148,300L118.519,300L88.889,298.333L59.259,300L29.63,300L0,300Z" fill="#9d755d"/></g></g><path class="foreground" aria-hidden="true" d="" display="none"/></g><g transform="translate(0,0)"><path class="background" aria-hidden="true" d="M0,0h800v300h-800Z"/><g><g class="mark-area role-mark marks" role="graphics-object" aria-roledescription="area mark container"><path aria-label="Date: Mar 16, 2026; Unique Clones/day: 0; Repository: karlmdavis/ansible-role-rcm-dotfiles" role="graphics-symbol" aria-roledescription="area mark" d="M0,300L29.63,300L59.259,300L88.889,298.333L118.519,300L148.148,300L177.778,300L207.407,280L237.037,298.333L266.667,290L296.296,278.333L325.926,190L355.556,225L385.185,141.667L414.815,246.667L444.444,266.667L474.074,276.667L503.704,285L533.333,255L562.963,160L592.593,166.667L622.222,278.333L651.852,250L681.481,253.333L711.111,241.667L740.741,283.333L770.37,261.667L800,250L800,250L770.37,261.667L740.741,283.333L711.111,243.333L681.481,253.333L651.852,250L622.222,278.333L592.593,166.667L562.963,161.667L533.333,255L503.704,285L474.074,276.667L444.444,266.667L414.815,248.333L385.185,143.333L355.556,225L325.926,193.333L296.296,278.333L266.667,290L237.037,298.333L207.407,280L177.778,300L148.148,300L118.519,300L88.889,298.333L59.259,300L29.63,300L0,300Z" fill="#bab0ac"/></g></g><path class="foreground" aria-hidden="true" d="" display="none"/></g><g transform="translate(0,0)"><path class="background" aria-hidden="true" d="M0,0h800v300h-800Z"/><g><g class="mark-area role-mark marks" role="graphics-object" aria-roledescription="area mark container"><path aria-label="Date: Mar 16, 2026; Unique Clones/day: 0; Repository: karlmdavis/ansible-roles" role="graphics-symbol" aria-roledescription="area mark" d="M0,300L29.63,300L59.259,300L88.889,298.333L118.519,300L148.148,300L177.778,300L207.407,280L237.037,298.333L266.667,290L296.296,278.333L325.926,193.333L355.556,225L385.185,143.333L414.815,248.333L444.444,266.667L474.074,276.667L503.704,285L533.333,255L562.963,161.667L592.593,166.667L622.222,278.333L651.852,250L681.481,253.333L711.111,243.333L740.741,283.333L770.37,261.667L800,250L800,250L770.37,263.333L740.741,283.333L711.111,243.333L681.481,253.333L651.852,250L622.222,278.333L592.593,166.667L562.963,161.667L533.333,255L503.704,285L474.074,276.667L444.444,266.667L414.815,250L385.185,143.333L355.556,225L325.926,193.333L296.296,280L266.667,290L237.037,298.333L207.407,280L177.778,300L148.148,300L118.519,300L88.889,298.333L59.259,300L29.63,300L0,300Z" fill="#4c78a8"/></g></g><path class="foreground" aria-hidden="true" d="" display="none"/></g><g transform="translate(0,0)"><path class="background" aria-hidden="true" d="M0,0h800v300h-800Z"/><g><g class="mark-area role-mark marks" role="graphics-object" aria-roledescription="area mark container"><path aria-label="Date: Mar 16, 2026; Unique Clones/day: 0; Repository: karlmdavis/bbonfhir-dev-infra-docker" role="graphics-symbol" aria-roledescription="area mark" d="M0,300L29.63,300L59.259,300L88.889,298.333L118.519,300L148.148,300L177.778,300L207.407,280L237.037,298.333L266.667,290L296.296,280L325.926,193.333L355.556,225L385.185,143.333L414.815,250L444.444,266.667L474.074,276.667L503.704,285L533.333,255L562.963,161.667L592.593,166.667L622.222,278.333L651.852,250L681.481,253.333L711.111,243.333L740.741,283.333L770.37,263.333L800,250L800,250L770.37,263.333L740.741,283.333L711.111,245L681.481,253.333L651.852,250L622.222,278.333L592.593,166.667L562.963,163.333L533.333,255L503.704,285L474.074,276.667L444.444,266.667L414.815,251.667L385.185,143.333L355.556,225L325.926,195L296.296,280L266.667,291.667L237.037,298.333L207.407,280L177.778,300L148.148,300L118.519,300L88.889,298.333L59.259,300L29.63,300L0,300Z" fill="#f58518"/></g></g><path class="foreground" aria-hidden="true" d="" display="none"/></g><g transform="translate(0,0)"><path class="background" aria-hidden="true" d="M0,0h800v300h-800Z"/><g><g class="mark-area role-mark marks" role="graphics-object" aria-roledescription="area mark container"><path aria-label="Date: Mar 16, 2026; Unique Clones/day: 0; Repository: karlmdavis/can-i-kayak-baltimore" role="graphics-symbol" aria-roledescription="area mark" d="M0,300L29.63,300L59.259,300L88.889,298.333L118.519,300L148.148,300L177.778,300L207.407,280L237.037,298.333L266.667,291.667L296.296,280L325.926,195L355.556,225L385.185,143.333L414.815,251.667L444.444,266.667L474.074,276.667L503.704,285L533.333,255L562.963,163.333L592.593,166.667L622.222,278.333L651.852,250L681.481,253.333L711.111,245L740.741,283.333L770.37,263.333L800,250L800,251.667L770.37,263.333L740.741,283.333L711.111,246.667L681.481,253.333L651.852,250L622.222,278.333L592.593,166.667L562.963,165L533.333,255L503.704,285L474.074,278.333L444.444,266.667L414.815,251.667L385.185,143.333L355.556,225L325.926,200L296.296,280L266.667,291.667L237.037,298.333L207.407,280L177.778,300L148.148,300L118.519,300L88.889,298.333L59.259,300L29.63,300L0,300Z" fill="#e45756"/></g></g><path class="foreground" aria-hidden="true" d="" display="none"/></g><g transform="translate(0,0)"><path class="background" aria-hidden="true" d="M0,0h800v300h-800Z"/><g><g class="mark-area role-mark marks" role="graphics-object" aria-roledescription="area mark container"><path aria-label="Date: Mar 16, 2026; Unique Clones/day: 0; Repository: karlmdavis/datanucleus-test-jdo-1-to-n" role="graphics-symbol" aria-roledescription="area mark" d="M0,300L29.63,300L59.259,300L88.889,298.333L118.519,300L148.148,300L177.778,300L207.407,280L237.037,298.333L266.667,291.667L296.296,280L325.926,200L355.556,225L385.185,143.333L414.815,251.667L444.444,266.667L474.074,278.333L503.704,285L533.333,255L562.963,165L592.593,166.667L622.222,278.333L651.852,250L681.481,253.333L711.111,246.667L740.741,283.333L770.37,263.333L800,251.667L800,251.667L770.37,263.333L740.741,283.333L711.111,246.667L681.481,253.333L651.852,250L622.222,278.333L592.593,166.667L562.963,165L533.333,255L503.704,285L474.074,278.333L444.444,266.667L414.815,251.667L385.185,143.333L355.556,226.667L325.926,200L296.296,280L266.667,291.667L237.037,298.333L207.407,280L177.778,300L148.148,300L118.519,300L88.889,298.333L59.259,300L29.63,300L0,300Z" fill="#72b7b2"/></g></g><path class="foreground" aria-hidden="true" d="" display="none"/></g><g transform="translate(0,0)"><path class="background" aria-hidden="true" d="M0,0h800v300h-800Z"/><g><g class="mark-area role-mark marks" role="graphics-object" aria-roledescription="area mark container"><path aria-label="Date: Mar 16, 2026; Unique Clones/day: 0; Repository: karlmdavis/dotfiles" role="graphics-symbol" aria-roledescription="area mark" d="M0,300L29.63,300L59.259,300L88.889,298.333L118.519,300L148.148,300L177.778,300L207.407,280L237.037,298.333L266.667,291.667L296.296,280L325.926,200L355.556,226.667L385.185,143.333L414.815,251.667L444.444,266.667L474.074,278.333L503.704,285L533.333,255L562.963,165L592.593,166.667L622.222,278.333L651.852,250L681.481,253.333L711.111,246.667L740.741,283.333L770.37,263.333L800,251.667L800,251.667L770.37,266.667L740.741,283.333L711.111,248.333L681.481,255L651.852,250L622.222,278.333L592.593,168.333L562.963,166.667L533.333,255L503.704,286.667L474.074,280L444.444,268.333L414.815,251.667L385.185,143.333L355.556,226.667L325.926,203.333L296.296,280L266.667,291.667L237.037,298.333L207.407,281.667L177.778,300L148.148,300L118.519,300L88.889,298.333L59.259,300L29.63,300L0,300Z" fill="#54a24b"/></g></g><path class="foreground" aria-hidden="true" d="" display="none"/></g><g transform="translate(0,0)"><path class="background" aria-hidden="true" d="M0,0h800v300h-800Z"/><g><g class="mark-area role-mark marks" role="graphics-object" aria-roledescription="area mark container"><path aria-label="Date: Mar 16, 2026; Unique Clones/day: 0; Repository: karlmdavis/fhir-benchmarks" role="graphics-symbol" aria-roledescription="area mark" d="M0,300L29.63,300L59.259,300L88.889,298.333L118.519,300L148.148,300L177.778,300L207.407,281.667L237.037,298.333L266.667,291.667L296.296,280L325.926,203.333L355.556,226.667L385.185,143.333L414.815,251.667L444.444,268.333L474.074,280L503.704,286.667L533.333,255L562.963,166.667L592.593,168.333L622.222,278.333L651.852,250L681.481,255L711.111,248.333L740.741,283.333L770.37,266.667L800,251.667L800,251.667L770.37,270L740.741,283.333L711.111,251.667L681.481,266.667L651.852,251.667L622.222,278.333L592.593,170L562.963,168.333L533.333,256.667L503.704,286.667L474.074,281.667L444.444,271.667L414.815,253.333L385.185,145L355.556,226.667L325.926,206.667L296.296,280L266.667,293.333L237.037,298.333L207.407,283.333L177.778,300L148.148,300L118.519,300L88.889,298.333L59.259,300L29.63,300L0,300Z" fill="#eeca3b"/></g></g><path class="foreground" aria-hidden="true" d="" display="none"/></g><g transform="translate(0,0)"><path class="background" aria-hidden="true" d="M0,0h800v300h-800Z"/><g><g class="mark-area role-mark marks" role="graphics-object" aria-roledescription="area mark container"><path aria-label="Date: Mar 16, 2026; Unique Clones/day: 0; Repository: karlmdavis/hapi-fhir-jpaserver-starter" role="graphics-symbol" aria-roledescription="area mark" d="M0,300L29.63,300L59.259,300L88.889,298.333L118.519,300L148.148,300L177.778,300L207.407,283.333L237.037,298.333L266.667,293.333L296.296,280L325.926,206.667L355.556,226.667L385.185,145L414.815,253.333L444.444,271.667L474.074,281.667L503.704,286.667L533.333,256.667L562.963,168.333L592.593,170L622.222,278.333L651.852,251.667L681.481,266.667L711.111,251.667L740.741,283.333L770.37,270L800,251.667L800,251.667L770.37,270L740.741,283.333L711.111,251.667L681.481,266.667L651.852,251.667L622.222,278.333L592.593,170L562.963,168.333L533.333,258.333L503.704,288.333L474.074,281.667L444.444,271.667L414.815,253.333L385.185,145L355.556,226.667L325.926,206.667L296.296,281.667L266.667,293.333L237.037,298.333L207.407,283.333L177.778,300L148.148,300L118.519,300L88.889,298.333L59.259,300L29.63,300L0,300Z" fill="#b279a2"/></g></g><path class="foreground" aria-hidden="true" d="" display="none"/></g><g transform="translate(0,0)"><path class="background" aria-hidden="true" d="M0,0h800v300h-800Z"/><g><g class="mark-area role-mark marks" role="graphics-object" aria-roledescription="area mark container"><path aria-label="Date: Mar 16, 2026; Unique Clones/day: 0; Repository: karlmdavis/hello-rust-actix" role="graphics-symbol" aria-roledescription="area mark" d="M0,300L29.63,300L59.259,300L88.889,298.333L118.519,300L148.148,300L177.778,300L207.407,283.333L237.037,298.333L266.667,293.333L296.296,281.667L325.926,206.667L355.556,226.667L385.185,145L414.815,253.333L444.444,271.667L474.074,281.667L503.704,288.333L533.333,258.333L562.963,168.333L592.593,170L622.222,278.333L651.852,251.667L681.481,266.667L711.111,251.667L740.741,283.333L770.37,270L800,251.667L800,253.333L770.37,270L740.741,283.333L711.111,253.333L681.481,266.667L651.852,251.667L622.222,278.333L592.593,170L562.963,170L533.333,258.333L503.704,288.333L474.074,281.667L444.444,273.333L414.815,253.333L385.185,145L355.556,226.667L325.926,208.333L296.296,281.667L266.667,293.333L237.037,298.333L207.407,283.333L177.778,300L148.148,300L118.519,300L88.889,298.333L59.259,300L29.63,300L0,300Z" fill="#ff9da6"/></g></g><path class="foreground" aria-hidden="true" d="" display="none"/></g><g transform="translate(0,0)"><path class="background" aria-hidden="true" d="M0,0h800v300h-800Z"/><g><g class="mark-area role-mark marks" role="graphics-object" aria-roledescription="area mark container"><path aria-label="Date: Mar 16, 2026; Unique Clones/day: 0; Repository: karlmdavis/jessentials" role="graphics-symbol" aria-roledescription="area mark" d="M0,300L29.63,300L59.259,300L88.889,298.333L118.519,300L148.148,300L177.778,300L207.407,283.333L237.037,298.333L266.667,293.333L296.296,281.667L325.926,208.333L355.556,226.667L385.185,145L414.815,253.333L444.444,273.333L474.074,281.667L503.704,288.333L533.333,258.333L562.963,170L592.593,170L622.222,278.333L651.852,251.667L681.481,266.667L711.111,253.333L740.741,283.333L770.37,270L800,253.333L800,253.333L770.37,271.667L740.741,283.333L711.111,256.667L681.481,280L651.852,251.667L622.222,278.333L592.593,170L562.963,171.667L533.333,258.333L503.704,288.333L474.074,281.667L444.444,273.333L414.815,255L385.185,145L355.556,226.667L325.926,210L296.296,281.667L266.667,293.333L237.037,298.333L207.407,285L177.778,300L148.148,300L118.519,300L88.889,298.333L59.259,300L29.63,300L0,300Z" fill="#9d755d"/></g></g><path class="foreground" aria-hidden="true" d="" display="none"/></g><g transform="translate(0,0)"><path class="background" aria-hidden="true" d="M0,0h800v300h-800Z"/><g><g class="mark-area role-mark marks" role="graphics-object" aria-roledescription="area mark container"><path aria-label="Date: Mar 16, 2026; Unique Clones/day: 0; Repository: karlmdavis/justdavis-ansible" role="graphics-symbol" aria-roledescription="area mark" d="M0,300L29.63,300L59.259,300L88.889,298.333L118.519,300L148.148,300L177.778,300L207.407,285L237.037,298.333L266.667,293.333L296.296,281.667L325.926,210L355.556,226.667L385.185,145L414.815,255L444.444,273.333L474.074,281.667L503.704,288.333L533.333,258.333L562.963,171.667L592.593,170L622.222,278.333L651.852,251.667L681.481,280L711.111,256.667L740.741,283.333L770.37,271.667L800,253.333L800,260L770.37,271.667L740.741,285L711.111,258.333L681.481,280L651.852,251.667L622.222,278.333L592.593,170L562.963,173.333L533.333,258.333L503.704,288.333L474.074,283.333L444.444,273.333L414.815,255L385.185,145L355.556,228.333L325.926,211.667L296.296,281.667L266.667,295L237.037,298.333L207.407,285L177.778,300L148.148,300L118.519,300L88.889,298.333L59.259,300L29.63,300L0,300Z" fill="#bab0ac"/></g></g><path class="foreground" aria-hidden="true" d="" display="none"/></g><g transform="translate(0,0)"><path class="background" aria-hidden="true" d="M0,0h800v300h-800Z"/><g><g class="mark-area role-mark marks" role="graphics-object" aria-roledescription="area mark container"><path aria-label="Date: Mar 16, 2026; Unique Clones/day: 0; Repository: karlmdavis/justdavis-finances" role="graphics-symbol" aria-roledescription="area mark" d="M0,300L29.63,300L59.259,300L88.889,298.333L118.519,300L148.148,300L177.778,300L207.407,285L237.037,298.333L266.667,295L296.296,281.667L325.926,211.667L355.556,228.333L385.185,145L414.815,255L444.444,273.333L474.074,283.333L503.704,288.333L533.333,258.333L562.963,173.333L592.593,170L622.222,278.333L651.852,251.667L681.481,280L711.111,258.333L740.741,285L770.37,271.667L800,260L800,288.333L770.37,275L740.741,285L711.111,260L681.481,281.667L651.852,280L622.222,291.667L592.593,295L562.963,268.333L533.333,291.667L503.704,290L474.074,285L444.444,275L414.815,280L385.185,286.667L355.556,290L325.926,263.333L296.296,283.333L266.667,296.667L237.037,298.333L207.407,285L177.778,300L148.148,300L118.519,300L88.889,298.333L59.259,300L29.63,300L0,300Z" fill="#4c78a8"/></g></g><path class="foreground" aria-hidden="true" d="" display="none"/></g><g transform="translate(0,0)"><path class="background" aria-hidden="true" d="M0,0h800v300h-800Z"/><g><g class="mark-area role-mark marks" role="graphics-object" aria-roledescription="area mark container"><path aria-label="Date: Mar 16, 2026; Unique Clones/day: 0; Repository: karlmdavis/justdavis-karl" role="graphics-symbol" aria-roledescription="area mark" d="M0,300L29.63,300L59.259,300L88.889,298.333L118.519,300L148.148,300L177.778,300L207.407,285L237.037,298.333L266.667,296.667L296.296,283.333L325.926,263.333L355.556,290L385.185,286.667L414.815,280L444.444,275L474.074,285L503.704,290L533.333,291.667L562.963,268.333L592.593,295L622.222,291.667L651.852,280L681.481,281.667L711.111,260L740.741,285L770.37,275L800,288.333L800,290L770.37,276.667L740.741,285L711.111,263.333L681.481,281.667L651.852,280L622.222,293.333L592.593,295L562.963,270L533.333,291.667L503.704,291.667L474.074,285L444.444,276.667L414.815,281.667L385.185,286.667L355.556,291.667L325.926,265L296.296,283.333L266.667,296.667L237.037,298.333L207.407,286.667L177.778,300L148.148,300L118.519,300L88.889,298.333L59.259,300L29.63,300L0,300Z" fill="#f58518"/></g></g><path class="foreground" aria-hidden="true" d="" display="none"/></g><g transform="translate(0,0)"><path class="background" aria-hidden="true" d="M0,0h800v300h-800Z"/><g><g class="mark-area role-mark marks" role="graphics-object" aria-roledescription="area mark container"><path aria-label="Date: Mar 16, 2026; Unique Clones/day: 0; Repository: karlmdavis/justdavis-puppet" role="graphics-symbol" aria-roledescription="area mark" d="M0,300L29.63,300L59.259,300L88.889,298.333L118.519,300L148.148,300L177.778,300L207.407,286.667L237.037,298.333L266.667,296.667L296.296,283.333L325.926,265L355.556,291.667L385.185,286.667L414.815,281.667L444.444,276.667L474.074,285L503.704,291.667L533.333,291.667L562.963,270L592.593,295L622.222,293.333L651.852,280L681.481,281.667L711.111,263.333L740.741,285L770.37,276.667L800,290L800,291.667L770.37,278.333L740.741,285L711.111,265L681.481,283.333L651.852,280L622.222,293.333L592.593,295L562.963,271.667L533.333,291.667L503.704,291.667L474.074,285L444.444,280L414.815,283.333L385.185,286.667L355.556,291.667L325.926,266.667L296.296,283.333L266.667,296.667L237.037,298.333L207.407,286.667L177.778,300L148.148,300L118.519,300L88.889,298.333L59.259,300L29.63,300L0,300Z" fill="#e45756"/></g></g><path class="foreground" aria-hidden="true" d="" display="none"/></g><g transform="translate(0,0)"><path class="background" aria-hidden="true" d="M0,0h800v300h-800Z"/><g><g class="mark-area role-mark marks" role="graphics-object" aria-roledescription="area mark container"><path aria-label="Date: Mar 16, 2026; Unique Clones/day: 0; Repository: karlmdavis/kobjects" role="graphics-symbol" aria-roledescription="area mark" d="M0,300L29.63,300L59.259,300L88.889,298.333L118.519,300L148.148,300L177.778,300L207.407,286.667L237.037,298.333L266.667,296.667L296.296,283.333L325.926,266.667L355.556,291.667L385.185,286.667L414.815,283.333L444.444,280L474.074,285L503.704,291.667L533.333,291.667L562.963,271.667L592.593,295L622.222,293.333L651.852,280L681.481,283.333L711.111,265L740.741,285L770.37,278.333L800,291.667L800,291.667L770.37,280L740.741,285L711.111,268.333L681.481,283.333L651.852,280L622.222,293.333L592.593,295L562.963,273.333L533.333,291.667L503.704,291.667L474.074,285L444.444,280L414.815,283.333L385.185,286.667L355.556,291.667L325.926,268.333L296.296,285L266.667,296.667L237.037,298.333L207.407,286.667L177.778,300L148.148,300L118.519,300L88.889,298.333L59.259,300L29.63,300L0,300Z" fill="#72b7b2"/></g></g><path class="foreground" aria-hidden="true" d="" display="none"/></g><g transform="translate(0,0)"><path class="background" aria-hidden="true" d="M0,0h800v300h-800Z"/><g><g class="mark-area role-mark marks" role="graphics-object" aria-roledescription="area mark container"><path aria-label="Date: Mar 16, 2026; Unique Clones/day: 0; Repository: karlmdavis/ksoap2-android" role="graphics-symbol" aria-roledescription="area mark" d="M0,300L29.63,300L59.259,300L88.889,298.333L118.519,300L148.148,300L177.778,300L207.407,286.667L237.037,298.333L266.667,296.667L296.296,285L325.926,268.333L355.556,291.667L385.185,286.667L414.815,283.333L444.444,280L474.074,285L503.704,291.667L533.333,291.667L562.963,273.333L592.593,295L622.222,293.333L651.852,280L681.481,283.333L711.111,268.333L740.741,285L770.37,280L800,291.667L800,291.667L770.37,281.667L740.741,290L711.111,270L681.481,293.333L651.852,288.333L622.222,295L592.593,295L562.963,278.333L533.333,291.667L503.704,293.333L474.074,286.667L444.444,281.667L414.815,290L385.185,290L355.556,291.667L325.926,270L296.296,290L266.667,296.667L237.037,298.333L207.407,288.333L177.778,300L148.148,300L118.519,300L88.889,298.333L59.259,300L29.63,300L0,300Z" fill="#54a24b"/></g></g><path class="foreground" aria-hidden="true" d="" display="none"/></g><g transform="translate(0,0)"><path class="background" aria-hidden="true" d="M0,0h800v300h-800Z"/><g><g class="mark-area role-mark marks" role="graphics-object" aria-roledescription="area mark container"><path aria-label="Date: Mar 16, 2026; Unique Clones/day: 0; Repository: karlmdavis/kxml2" role="graphics-symbol" aria-roledescription="area mark" d="M0,300L29.63,300L59.259,300L88.889,298.333L118.519,300L148.148,300L177.778,300L207.407,288.333L237.037,298.333L266.667,296.667L296.296,290L325.926,270L355.556,291.667L385.185,290L414.815,290L444.444,281.667L474.074,286.667L503.704,293.333L533.333,291.667L562.963,278.333L592.593,295L622.222,295L651.852,288.333L681.481,293.333L711.111,270L740.741,290L770.37,281.667L800,291.667L800,291.667L770.37,281.667L740.741,290L711.111,271.667L681.481,293.333L651.852,290L622.222,296.667L592.593,296.667L562.963,280L533.333,291.667L503.704,293.333L474.074,286.667L444.444,283.333L414.815,295L385.185,291.667L355.556,291.667L325.926,273.333L296.296,291.667L266.667,296.667L237.037,298.333L207.407,290L177.778,300L148.148,300L118.519,300L88.889,298.333L59.259,300L29.63,300L0,300Z" fill="#eeca3b"/></g></g><path class="foreground" aria-hidden="true" d="" display="none"/></g><g transform="translate(0,0)"><path class="background" aria-hidden="true" d="M0,0h800v300h-800Z"/><g><g class="mark-area role-mark marks" role="graphics-object" aria-roledescription="area mark container"><path aria-label="Date: Mar 16, 2026; Unique Clones/day: 0; Repository: karlmdavis/ldap-plugin" role="graphics-symbol" aria-roledescription="area mark" d="M0,300L29.63,300L59.259,300L88.889,298.333L118.519,300L148.148,300L177.778,300L207.407,290L237.037,298.333L266.667,296.667L296.296,291.667L325.926,273.333L355.556,291.667L385.185,291.667L414.815,295L444.444,283.333L474.074,286.667L503.704,293.333L533.333,291.667L562.963,280L592.593,296.667L622.222,296.667L651.852,290L681.481,293.333L711.111,271.667L740.741,290L770.37,281.667L800,291.667L800,291.667L770.37,281.667L740.741,290L711.111,271.667L681.481,293.333L651.852,290L622.222,296.667L592.593,296.667L562.963,280L533.333,293.333L503.704,295L474.074,286.667L444.444,283.333L414.815,295L385.185,291.667L355.556,291.667L325.926,273.333L296.296,291.667L266.667,296.667L237.037,298.333L207.407,290L177.778,300L148.148,300L118.519,300L88.889,298.333L59.259,300L29.63,300L0,300Z" fill="#b279a2"/></g></g><path class="foreground" aria-hidden="true" d="" display="none"/></g><g transform="translate(0,0)"><path class="background" aria-hidden="true" d="M0,0h800v300h-800Z"/><g><g class="mark-area role-mark marks" role="graphics-object" aria-roledescription="area mark container"><path aria-label="Date: Mar 16, 2026; Unique Clones/day: 0; Repository: karlmdavis/lego-ev3dev-rs" role="graphics-symbol" aria-roledescription="area mark" d="M0,300L29.63,300L59.259,300L88.889,298.333L118.519,300L148.148,300L177.778,300L207.407,290L237.037,298.333L266.667,296.667L296.296,291.667L325.926,273.333L355.556,291.667L385.185,291.667L414.815,295L444.444,283.333L474.074,286.667L503.704,295L533.333,293.333L562.963,280L592.593,296.667L622.222,296.667L651.852,290L681.481,293.333L711.111,271.667L740.741,290L770.37,281.667L800,291.667L800,291.667L770.37,285L740.741,290L711.111,275L681.481,293.333L651.852,291.667L622.222,296.667L592.593,298.333L562.963,281.667L533.333,295L503.704,295L474.074,288.333L444.444,286.667L414.815,295L385.185,293.333L355.556,293.333L325.926,278.333L296.296,291.667L266.667,298.333L237.037,298.333L207.407,291.667L177.778,300L148.148,300L118.519,300L88.889,298.333L59.259,300L29.63,300L0,300Z" fill="#ff9da6"/></g></g><path class="foreground" aria-hidden="true" d="" display="none"/></g><g transform="translate(0,0)"><path class="background" aria-hidden="true" d="M0,0h800v300h-800Z"/><g><g class="mark-area role-mark marks" role="graphics-object" aria-roledescription="area mark container"><path aria-label="Date: Mar 16, 2026; Unique Clones/day: 0; Repository: karlmdavis/liquibase" role="graphics-symbol" aria-roledescription="area mark" d="M0,300L29.63,300L59.259,300L88.889,298.333L118.519,300L148.148,300L177.778,300L207.407,291.667L237.037,298.333L266.667,298.333L296.296,291.667L325.926,278.333L355.556,293.333L385.185,293.333L414.815,295L444.444,286.667L474.074,288.333L503.704,295L533.333,295L562.963,281.667L592.593,298.333L622.222,296.667L651.852,291.667L681.481,293.333L711.111,275L740.741,290L770.37,285L800,291.667L800,291.667L770.37,285L740.741,291.667L711.111,276.667L681.481,293.333L651.852,291.667L622.222,296.667L592.593,298.333L562.963,281.667L533.333,295L503.704,295L474.074,288.333L444.444,286.667L414.815,295L385.185,293.333L355.556,293.333L325.926,278.333L296.296,291.667L266.667,298.333L237.037,298.333L207.407,291.667L177.778,300L148.148,300L118.519,300L88.889,300L59.259,300L29.63,300L0,300Z" fill="#9d755d"/></g></g><path class="foreground" aria-hidden="true" d="" display="none"/></g><g transform="translate(0,0)"><path class="background" aria-hidden="true" d="M0,0h800v300h-800Z"/><g><g class="mark-area role-mark marks" role="graphics-object" aria-roledescription="area mark container"><path aria-label="Date: Mar 16, 2026; Unique Clones/day: 0; Repository: karlmdavis/m2e-core" role="graphics-symbol" aria-roledescription="area mark" d="M0,300L29.63,300L59.259,300L88.889,300L118.519,300L148.148,300L177.778,300L207.407,291.667L237.037,298.333L266.667,298.333L296.296,291.667L325.926,278.333L355.556,293.333L385.185,293.333L414.815,295L444.444,286.667L474.074,288.333L503.704,295L533.333,295L562.963,281.667L592.593,298.333L622.222,296.667L651.852,291.667L681.481,293.333L711.111,276.667L740.741,291.667L770.37,285L800,291.667L800,291.667L770.37,286.667L740.741,293.333L711.111,280L681.481,295L651.852,293.333L622.222,296.667L592.593,298.333L562.963,283.333L533.333,295L503.704,295L474.074,288.333L444.444,286.667L414.815,295L385.185,295L355.556,293.333L325.926,280L296.296,291.667L266.667,298.333L237.037,298.333L207.407,291.667L177.778,300L148.148,300L118.519,300L88.889,300L59.259,300L29.63,300L0,300Z" fill="#bab0ac"/></g></g><path class="foreground" aria-hidden="true" d="" display="none"/></g><g transform="translate(0,0)"><path class="background" aria-hidden="true" d="M0,0h800v300h-800Z"/><g><g class="mark-area role-mark marks" role="graphics-object" aria-roledescription="area mark container"><path aria-label="Date: Mar 16, 2026; Unique Clones/day: 0; Repository: karlmdavis/m2e-core-tests" role="graphics-symbol" aria-roledescription="area mark" d="M0,300L29.63,300L59.259,300L88.889,300L118.519,300L148.148,300L177.778,300L207.407,291.667L237.037,298.333L266.667,298.333L296.296,291.667L325.926,280L355.556,293.333L385.185,295L414.815,295L444.444,286.667L474.074,288.333L503.704,295L533.333,295L562.963,283.333L592.593,298.333L622.222,296.667L651.852,293.333L681.481,295L711.111,280L740.741,293.333L770.37,286.667L800,291.667L800,293.333L770.37,286.667L740.741,296.667L711.111,281.667L681.481,296.667L651.852,295L622.222,296.667L592.593,298.333L562.963,283.333L533.333,295L503.704,295L474.074,291.667L444.444,286.667L414.815,295L385.185,295L355.556,295L325.926,280L296.296,293.333L266.667,298.333L237.037,298.333L207.407,291.667L177.778,300L148.148,300L118.519,300L88.889,300L59.259,300L29.63,300L0,300Z" fill="#4c78a8"/></g></g><path class="foreground" aria-hidden="true" d="" display="none"/></g><g transform="translate(0,0)"><path class="background" aria-hidden="true" d="M0,0h800v300h-800Z"/><g><g class="mark-area role-mark marks" role="graphics-object" aria-roledescription="area mark container"><path aria-label="Date: Mar 16, 2026; Unique Clones/day: 0; Repository: karlmdavis/obsidian-operator" role="graphics-symbol" aria-roledescription="area mark" d="M0,300L29.63,300L59.259,300L88.889,300L118.519,300L148.148,300L177.778,300L207.407,291.667L237.037,298.333L266.667,298.333L296.296,293.333L325.926,280L355.556,295L385.185,295L414.815,295L444.444,286.667L474.074,291.667L503.704,295L533.333,295L562.963,283.333L592.593,298.333L622.222,296.667L651.852,295L681.481,296.667L711.111,281.667L740.741,296.667L770.37,286.667L800,293.333L800,295L770.37,290L740.741,296.667L711.111,283.333L681.481,296.667L651.852,295L622.222,296.667L592.593,298.333L562.963,285L533.333,298.333L503.704,295L474.074,291.667L444.444,291.667L414.815,295L385.185,295L355.556,295L325.926,281.667L296.296,293.333L266.667,298.333L237.037,298.333L207.407,293.333L177.778,300L148.148,300L118.519,300L88.889,300L59.259,300L29.63,300L0,300Z" fill="#f58518"/></g></g><path class="foreground" aria-hidden="true" d="" display="none"/></g><g transform="translate(0,0)"><path class="background" aria-hidden="true" d="M0,0h800v300h-800Z"/><g><g class="mark-area role-mark marks" role="graphics-object" aria-roledescription="area mark container"><path aria-label="Date: Mar 16, 2026; Unique Clones/day: 0; Repository: karlmdavis/perfect-note" role="graphics-symbol" aria-roledescription="area mark" d="M0,300L29.63,300L59.259,300L88.889,300L118.519,300L148.148,300L177.778,300L207.407,293.333L237.037,298.333L266.667,298.333L296.296,293.333L325.926,281.667L355.556,295L385.185,295L414.815,295L444.444,291.667L474.074,291.667L503.704,295L533.333,298.333L562.963,285L592.593,298.333L622.222,296.667L651.852,295L681.481,296.667L711.111,283.333L740.741,296.667L770.37,290L800,295L800,295L770.37,290L740.741,296.667L711.111,285L681.481,296.667L651.852,295L622.222,296.667L592.593,298.333L562.963,286.667L533.333,298.333L503.704,295L474.074,291.667L444.444,291.667L414.815,295L385.185,295L355.556,296.667L325.926,283.333L296.296,295L266.667,298.333L237.037,298.333L207.407,293.333L177.778,300L148.148,300L118.519,300L88.889,300L59.259,300L29.63,300L0,300Z" fill="#e45756"/></g></g><path class="foreground" aria-hidden="true" d="" display="none"/></g><g transform="translate(0,0)"><path class="background" aria-hidden="true" d="M0,0h800v300h-800Z"/><g><g class="mark-area role-mark marks" role="graphics-object" aria-roledescription="area mark container"><path aria-label="Date: Mar 16, 2026; Unique Clones/day: 0; Repository: karlmdavis/puppet-archive" role="graphics-symbol" aria-roledescription="area mark" d="M0,300L29.63,300L59.259,300L88.889,300L118.519,300L148.148,300L177.778,300L207.407,293.333L237.037,298.333L266.667,298.333L296.296,295L325.926,283.333L355.556,296.667L385.185,295L414.815,295L444.444,291.667L474.074,291.667L503.704,295L533.333,298.333L562.963,286.667L592.593,298.333L622.222,296.667L651.852,295L681.481,296.667L711.111,285L740.741,296.667L770.37,290L800,295L800,295L770.37,291.667L740.741,296.667L711.111,286.667L681.481,296.667L651.852,295L622.222,296.667L592.593,298.333L562.963,286.667L533.333,298.333L503.704,295L474.074,291.667L444.444,291.667L414.815,295L385.185,295L355.556,296.667L325.926,283.333L296.296,295L266.667,298.333L237.037,298.333L207.407,295L177.778,300L148.148,300L118.519,300L88.889,300L59.259,300L29.63,300L0,300Z" fill="#72b7b2"/></g></g><path class="foreground" aria-hidden="true" d="" display="none"/></g><g transform="translate(0,0)"><path class="background" aria-hidden="true" d="M0,0h800v300h-800Z"/><g><g class="mark-area role-mark marks" role="graphics-object" aria-roledescription="area mark container"><path aria-label="Date: Mar 16, 2026; Unique Clones/day: 0; Repository: karlmdavis/puppet-sonar" role="graphics-symbol" aria-roledescription="area mark" d="M0,300L29.63,300L59.259,300L88.889,300L118.519,300L148.148,300L177.778,300L207.407,295L237.037,298.333L266.667,298.333L296.296,295L325.926,283.333L355.556,296.667L385.185,295L414.815,295L444.444,291.667L474.074,291.667L503.704,295L533.333,298.333L562.963,286.667L592.593,298.333L622.222,296.667L651.852,295L681.481,296.667L711.111,286.667L740.741,296.667L770.37,291.667L800,295L800,295L770.37,293.333L740.741,296.667L711.111,286.667L681.481,298.333L651.852,296.667L622.222,296.667L592.593,298.333L562.963,286.667L533.333,298.333L503.704,296.667L474.074,291.667L444.444,295L414.815,295L385.185,295L355.556,298.333L325.926,283.333L296.296,295L266.667,298.333L237.037,298.333L207.407,295L177.778,300L148.148,300L118.519,300L88.889,300L59.259,300L29.63,300L0,300Z" fill="#54a24b"/></g></g><path class="foreground" aria-hidden="true" d="" display="none"/></g><g transform="translate(0,0)"><path class="background" aria-hidden="true" d="M0,0h800v300h-800Z"/><g><g class="mark-area role-mark marks" role="graphics-object" aria-roledescription="area mark container"><path aria-label="Date: Mar 16, 2026; Unique Clones/day: 0; Repository: karlmdavis/rps-tourney" role="graphics-symbol" aria-roledescription="area mark" d="M0,300L29.63,300L59.259,300L88.889,300L118.519,300L148.148,300L177.778,300L207.407,295L237.037,298.333L266.667,298.333L296.296,295L325.926,283.333L355.556,298.333L385.185,295L414.815,295L444.444,295L474.074,291.667L503.704,296.667L533.333,298.333L562.963,286.667L592.593,298.333L622.222,296.667L651.852,296.667L681.481,298.333L711.111,286.667L740.741,296.667L770.37,293.333L800,295L800,295L770.37,295L740.741,296.667L711.111,288.333L681.481,298.333L651.852,296.667L622.222,296.667L592.593,298.333L562.963,288.333L533.333,298.333L503.704,298.333L474.074,291.667L444.444,295L414.815,295L385.185,295L355.556,298.333L325.926,285L296.296,295L266.667,298.333L237.037,298.333L207.407,296.667L177.778,300L148.148,300L118.519,300L88.889,300L59.259,300L29.63,300L0,300Z" fill="#eeca3b"/></g></g><path class="foreground" aria-hidden="true" d="" display="none"/></g><g transform="translate(0,0)"><path class="background" aria-hidden="true" d="M0,0h800v300h-800Z"/><g><g class="mark-area role-mark marks" role="graphics-object" aria-roledescription="area mark container"><path aria-label="Date: Mar 16, 2026; Unique Clones/day: 0; Repository: karlmdavis/sample-maven-and-rcp" role="graphics-symbol" aria-roledescription="area mark" d="M0,300L29.63,300L59.259,300L88.889,300L118.519,300L148.148,300L177.778,300L207.407,296.667L237.037,298.333L266.667,298.333L296.296,295L325.926,285L355.556,298.333L385.185,295L414.815,295L444.444,295L474.074,291.667L503.704,298.333L533.333,298.333L562.963,288.333L592.593,298.333L622.222,296.667L651.852,296.667L681.481,298.333L711.111,288.333L740.741,296.667L770.37,295L800,295L800,295L770.37,295L740.741,296.667L711.111,290L681.481,298.333L651.852,296.667L622.222,296.667L592.593,298.333L562.963,290L533.333,298.333L503.704,298.333L474.074,293.333L444.444,295L414.815,295L385.185,295L355.556,298.333L325.926,286.667L296.296,295L266.667,298.333L237.037,298.333L207.407,296.667L177.778,300L148.148,300L118.519,300L88.889,300L59.259,300L29.63,300L0,300Z" fill="#b279a2"/></g></g><path class="foreground" aria-hidden="true" d="" display="none"/></g><g transform="translate(0,0)"><path class="background" aria-hidden="true" d="M0,0h800v300h-800Z"/><g><g class="mark-area role-mark marks" role="graphics-object" aria-roledescription="area mark container"><path aria-label="Date: Mar 16, 2026; Unique Clones/day: 0; Repository: karlmdavis/stockfighter-trades-solutions" role="graphics-symbol" aria-roledescription="area mark" d="M0,300L29.63,300L59.259,300L88.889,300L118.519,300L148.148,300L177.778,300L207.407,296.667L237.037,298.333L266.667,298.333L296.296,295L325.926,286.667L355.556,298.333L385.185,295L414.815,295L444.444,295L474.074,293.333L503.704,298.333L533.333,298.333L562.963,290L592.593,298.333L622.222,296.667L651.852,296.667L681.481,298.333L711.111,290L740.741,296.667L770.37,295L800,295L800,295L770.37,295L740.741,296.667L711.111,291.667L681.481,298.333L651.852,296.667L622.222,296.667L592.593,298.333L562.963,291.667L533.333,298.333L503.704,298.333L474.074,293.333L444.444,295L414.815,295L385.185,296.667L355.556,298.333L325.926,290L296.296,295L266.667,298.333L237.037,298.333L207.407,296.667L177.778,300L148.148,300L118.519,300L88.889,300L59.259,300L29.63,300L0,300Z" fill="#ff9da6"/></g></g><path class="foreground" aria-hidden="true" d="" display="none"/></g><g transform="translate(0,0)"><path class="background" aria-hidden="true" d="M0,0h800v300h-800Z"/><g><g class="mark-area role-mark marks" role="graphics-object" aria-roledescription="area mark container"><path aria-label="Date: Mar 16, 2026; Unique Clones/day: 0; Repository: karlmdavis/test-repo-for-move" role="graphics-symbol" aria-roledescription="area mark" d="M0,300L29.63,300L59.259,300L88.889,300L118.519,300L148.148,300L177.778,300L207.407,296.667L237.037,298.333L266.667,298.333L296.296,295L325.926,290L355.556,298.333L385.185,296.667L414.815,295L444.444,295L474.074,293.333L503.704,298.333L533.333,298.333L562.963,291.667L592.593,298.333L622.222,296.667L651.852,296.667L681.481,298.333L711.111,291.667L740.741,296.667L770.37,295L800,295L800,295L770.37,295L740.741,296.667L711.111,293.333L681.481,298.333L651.852,296.667L622.222,296.667L592.593,298.333L562.963,293.333L533.333,298.333L503.704,298.333L474.074,293.333L444.444,295L414.815,295L385.185,298.333L355.556,298.333L325.926,291.667L296.296,296.667L266.667,298.333L237.037,298.333L207.407,296.667L177.778,300L148.148,300L118.519,300L88.889,300L59.259,300L29.63,300L0,300Z" fill="#9d755d"/></g></g><path class="foreground" aria-hidden="true" d="" display="none"/></g><g transform="translate(0,0)"><path class="background" aria-hidden="true" d="M0,0h800v300h-800Z"/><g><g class="mark-area role-mark marks" role="graphics-object" aria-roledescription="area mark container"><path aria-label="Date: Mar 16, 2026; Unique Clones/day: 0; Repository: karlmdavis/todoist-ai" role="graphics-symbol" aria-roledescription="area mark" d="M0,300L29.63,300L59.259,300L88.889,300L118.519,300L148.148,300L177.778,300L207.407,296.667L237.037,298.333L266.667,298.333L296.296,296.667L325.926,291.667L355.556,298.333L385.185,298.333L414.815,295L444.444,295L474.074,293.333L503.704,298.333L533.333,298.333L562.963,293.333L592.593,298.333L622.222,296.667L651.852,296.667L681.481,298.333L711.111,293.333L740.741,296.667L770.37,295L800,295L800,295L770.37,296.667L740.741,296.667L711.111,293.333L681.481,298.333L651.852,296.667L622.222,296.667L592.593,298.333L562.963,293.333L533.333,298.333L503.704,298.333L474.074,296.667L444.444,295L414.815,295L385.185,298.333L355.556,298.333L325.926,291.667L296.296,296.667L266.667,298.333L237.037,298.333L207.407,296.667L177.778,300L148.148,300L118.519,300L88.889,300L59.259,300L29.63,300L0,300Z" fill="#bab0ac"/></g></g><path class="foreground" aria-hidden="true" d="" display="none"/></g><g transform="translate(0,0)"><path class="background" aria-hidden="true" d="M0,0h800v300h-800Z"/><g><g class="mark-area role-mark marks" role="graphics-object" aria-roledescription="area mark container"><path aria-label="Date: Mar 16, 2026; Unique Clones/day: 0; Repository: karlmdavis/usgs-water-api-java" role="graphics-symbol" aria-roledescription="area mark" d="M0,300L29.63,300L59.259,300L88.889,300L118.519,300L148.148,300L177.778,300L207.407,296.667L237.037,298.333L266.667,298.333L296.296,296.667L325.926,291.667L355.556,298.333L385.185,298.333L414.815,295L444.444,295L474.074,296.667L503.704,298.333L533.333,298.333L562.963,293.333L592.593,298.333L622.222,296.667L651.852,296.667L681.481,298.333L711.111,293.333L740.741,296.667L770.37,296.667L800,295L800,300L770.37,298.333L740.741,298.333L711.111,296.667L681.481,300L651.852,298.333L622.222,300L592.593,300L562.963,296.667L533.333,300L503.704,300L474.074,298.333L444.444,296.667L414.815,298.333L385.185,300L355.556,300L325.926,295L296.296,300L266.667,300L237.037,300L207.407,300L177.778,300L148.148,300L118.519,300L88.889,300L59.259,300L29.63,300L0,300Z" fill="#4c78a8"/></g></g><path class="foreground" aria-hidden="true" d="" display="none"/></g><g transform="translate(0,0)"><path class="background" aria-hidden="true" d="M0,0h800v300h-800Z"/><g><g class="mark-area role-mark marks" role="graphics-object" aria-roledescription="area mark container"><path aria-label="Date: Mar 16, 2026; Unique Clones/day: 0; Repository: karlmdavis/workstation-base-ansible-role" role="graphics-symbol" aria-roledescription="area mark" d="M0,300L29.63,300L59.259,300L88.889,300L118.519,300L148.148,300L177.778,300L207.407,300L237.037,300L266.667,300L296.296,300L325.926,295L355.556,300L385.185,300L414.815,298.333L444.444,296.667L474.074,298.333L503.704,300L533.333,300L562.963,296.667L592.593,300L622.222,300L651.852,298.333L681.481,300L711.111,296.667L740.741,298.333L770.37,298.333L800,300L800,300L770.37,300L740.741,298.333L711.111,298.333L681.481,300L651.852,298.333L622.222,300L592.593,300L562.963,298.333L533.333,300L503.704,300L474.074,300L444.444,298.333L414.815,300L385.185,300L355.556,300L325.926,298.333L296.296,300L266.667,300L237.037,300L207.407,300L177.778,300L148.148,300L118.519,300L88.889,300L59.259,300L29.63,300L0,300Z" fill="#f58518"/></g></g><path class="foreground" aria-hidden="true" d="" display="none"/></g><g transform="translate(0,0)"><path class="background" aria-hidden="true" d="M0,0h800v300h-800Z"/><g><g class="mark-area role-mark marks" role="graphics-object" aria-roledescription="area mark container"><path aria-label="Date: Mar 16, 2026; Unique Clones/day: 0; Repository: karlmdavis/xmlpull" role="graphics-symbol" aria-roledescription="area mark" d="M0,300L29.63,300L59.259,300L88.889,300L118.519,300L148.148,300L177.778,300L207.407,300L237.037,300L266.667,300L296.296,300L325.926,298.333L355.556,300L385.185,300L414.815,300L444.444,298.333L474.074,300L503.704,300L533.333,300L562.963,298.333L592.593,300L622.222,300L651.852,298.333L681.481,300L711.111,298.333L740.741,298.333L770.37,300L800,300L800,300L770.37,300L740.741,300L711.111,300L681.481,300L651.852,300L622.222,300L592.593,300L562.963,300L533.333,300L503.704,300L474.074,300L444.444,300L414.815,300L385.185,300L355.556,300L325.926,300L296.296,300L266.667,300L237.037,300L207.407,300L177.778,300L148.148,300L118.519,300L88.889,300L59.259,300L29.63,300L0,300Z" fill="#e45756"/></g></g><path class="foreground" aria-hidden="true" d="" display="none"/></g></g><g class="mark-group role-legend" role="graphics-symbol" aria-roledescription="legend" aria-label="Symbol legend titled 'Repository' for fill color with 43 values: justdavis-family/github-analytics-data, justdavis-family/justdavis, karlmdavis/FHIR-Server, karlmdavis/ansible, karlmdavis/ansible-jenkins, ending with karlmdavis/xmlpull"><g transform="translate(818,0)"><path class="background" aria-hidden="true" d="M0,0h176v404h-176Z" pointer-events="none"/><g><g class="mark-group role-legend-entry"><g transform="translate(0,16)"><path class="background" aria-hidden="true" d="M0,0h0v0h0Z" pointer-events="none"/><g><g class="mark-group role-scope" role="graphics-object" aria-roledescription="group mark container"><g transform="translate(0,0)"><path class="background" aria-hidden="true" d="M0,0h176v11h-176Z" pointer-events="none" opacity="1"/><g><g class="mark-symbol role-legend-symbol" pointer-events="none"><path transform="translate(6,6)" d="M5,0A5,5,0,1,1,-5,0A5,5,0,1,1,5,0" fill="#4c78a8" stroke-width="1.5" opacity="1"/></g><g class="mark-text role-legend-label" pointer-events="none"><text text-anchor="start" transform="translate(16,9)" font-family="sans-serif" font-size="10px" fill="#000" opacity="1">justdavis-family/github-analytics-d…</text></g></g><path class="foreground" aria-hidden="true" d="" pointer-events="none" display="none"/></g><g transform="translate(0,13)"><path class="background" aria-hidden="true" d="M0,0h176v11h-176Z" pointer-events="none" opacity="1"/><g><g class="mark-symbol role-legend-symbol" pointer-events="none"><path transform="translate(6,6)" d="M5,0A5,5,0,1,1,-5,0A5,5,0,1,1,5,0" fill="#f58518" stroke-width="1.5" opacity="1"/></g><g class="mark-text role-legend-label" pointer-events="none"><text text-anchor="start" transform="translate(16,9)" font-family="sans-serif" font-size="10px" fill="#000" opacity="1">justdavis-family/justdavis</text></g></g><path class="foreground" aria-hidden="true" d="" pointer-events="none" display="none"/></g><g transform="translate(0,26)"><path class="background" aria-hidden="true" d="M0,0h176v11h-176Z" pointer-events="none" opacity="1"/><g><g class="mark-symbol role-legend-symbol" pointer-events="none"><path transform="translate(6,6)" d="M5,0A5,5,0,1,1,-5,0A5,5,0,1,1,5,0" fill="#e45756" stroke-width="1.5" opacity="1"/></g><g class="mark-text role-legend-label" pointer-events="none"><text text-anchor="start" transform="translate(16,9)" font-family="sans-serif" font-size="10px" fill="#000" opacity="1">karlmdavis/FHIR-Server</text></g></g><path class="foreground" aria-hidden="true" d="" pointer-events="none" display="none"/></g><g transform="translate(0,39)"><path class="background" aria-hidden="true" d="M0,0h176v11h-176Z" pointer-events="none" opacity="1"/><g><g class="mark-symbol role-legend-symbol" pointer-events="none"><path transform="translate(6,6)" d="M5,0A5,5,0,1,1,-5,0A5,5,0,1,1,5,0" fill="#72b7b2" stroke-width="1.5" opacity="1"/></g><g class="mark-text role-legend-label" pointer-events="none"><text text-anchor="start" transform="translate(16,9)" font-family="sans-serif" font-size="10px" fill="#000" opacity="1">karlmdavis/ansible</text></g></g><path class="foreground" aria-hidden="true" d="" pointer-events="none" display="none"/></g><g transform="translate(0,52)"><path class="background" aria-hidden="true" d="M0,0h176v11h-176Z" pointer-events="none" opacity="1"/><g><g class="mark-symbol role-legend-symbol" pointer-events="none"><path transform="translate(6,6)" d="M5,0A5,5,0,1,1,-5,0A5,5,0,1,1,5,0" fill="#54a24b" stroke-width="1.5" opacity="1"/></g><g class="mark-text role-legend-label" pointer-events="none"><text text-anchor="start" transform="translate(16,9)" font-family="sans-serif" font-size="10px" fill="#000" opacity="1">karlmdavis/ansible-jenkins</text></g></g><path class="foreground" aria-hidden="true" d="" pointer-events="none" display="none"/></g><g transform="translate(0,65)"><path class="background" aria-hidden="true" d="M0,0h176v11h-176Z" pointer-events="none" opacity="1"/><g><g class="mark-symbol role-legend-symbol" pointer-events="none"><path transform="translate(6,6)" d="M5,0A5,5,0,1,1,-5,0A5,5,0,1,1,5,0" fill="#eeca3b" stroke-width="1.5" opacity="1"/></g><g class="mark-text role-legend-label" pointer-events="none"><text text-anchor="start" transform="translate(16,9)" font-family="sans-serif" font-size="10px" fill="#000" opacity="1">karlmdavis/ansible-role-acmetool</text></g></g><path class="foreground" aria-hidden="true" d="" pointer-events="none" display="none"/></g><g transform="translate(0,78)"><path class="background" aria-hidden="true" d="M0,0h176v11h-176Z" pointer-events="none" opacity="1"/><g><g class="mark-symbol role-legend-symbol" pointer-events="none"><path transform="translate(6,6)" d="M5,0A5,5,0,1,1,-5,0A5,5,0,1,1,5,0" fill="#b279a2" stroke-width="1.5" opacity="1"/></g><g class="mark-text role-legend-label" pointer-events="none"><text text-anchor="start" transform="translate(16,9)" font-family="sans-serif" font-size="10px" fill="#000" opacity="1">karlmdavis/ansible-role-bind-dns</text></g></g><path class="foreground" aria-hidden="true" d="" pointer-events="none" display="none"/></g><g transform="translate(0,91)"><path class="background" aria-hidden="true" d="M0,0h176v11h-176Z" pointer-events="none" opacity="1"/><g><g class="mark-symbol role-legend-symbol" pointer-events="none"><path transform="translate(6,6)" d="M5,0A5,5,0,1,1,-5,0A5,5,0,1,1,5,0" fill="#ff9da6" stroke-width="1.5" opacity="1"/></g><g class="mark-text role-legend-label" pointer-events="none"><text text-anchor="start" transform="translate(16,9)" font-family="sans-serif" font-size="10px" fill="#000" opacity="1">karlmdavis/ansible-role-jenkins2</text></g></g><path class="foreground" aria-hidden="true" d="" pointer-events="none" display="none"/></g><g transform="translate(0,104)"><path class="background" aria-hidden="true" d="M0,0h176v11h-176Z" pointer-events="none" opacity="1"/><g><g class="mark-symbol role-legend-symbol" pointer-events="none"><path transform="translate(6,6)" d="M5,0A5,5,0,1,1,-5,0A5,5,0,1,1,5,0" fill="#9d755d" stroke-width="1.5" opacity="1"/></g><g class="mark-text role-legend-label" pointer-events="none"><text text-anchor="start" transform="translate(16,9)" font-family="sans-serif" font-size="10px" fill="#000" opacity="1">karlmdavis/ansible-role-ldap</text></g></g><path class="foreground" aria-hidden="true" d="" pointer-events="none" display="none"/></g><g transform="translate(0,117)"><path class="background" aria-hidden="true" d="M0,0h176v11h-176Z" pointer-events="none" opacity="1"/><g><g class="mark-symbol role-legend-symbol" pointer-events="none"><path transform="translate(6,6)" d="M5,0A5,5,0,1,1,-5,0A5,5,0,1,1,5,0" fill="#bab0ac" stroke-width="1.5" opacity="1"/></g><g class="mark-text role-legend-label" pointer-events="none"><text text-anchor="start" transform="translate(16,9)" font-family="sans-serif" font-size="10px" fill="#000" opacity="1">karlmdavis/ansible-role-rcm-dotfiles</text></g></g><path class="foreground" aria-hidden="true" d="" pointer-events="none" display="none"/></g><g transform="translate(0,130)"><path class="background" aria-hidden="true" d="M0,0h176v11h-176Z" pointer-events="none" opacity="1"/><g><g class="mark-symbol role-legend-symbol" pointer-events="none"><path transform="translate(6,6)" d="M5,0A5,5,0,1,1,-5,0A5,5,0,1,1,5,0" fill="#4c78a8" stroke-width="1.5" opacity="1"/></g><g class="mark-text role-legend-label" pointer-events="none"><text text-anchor="start" transform="translate(16,9)" font-family="sans-serif" font-size="10px" fill="#000" opacity="1">karlmdavis/ansible-roles</text></g></g><path class="foreground" aria-hidden="true" d="" pointer-events="none" display="none"/></g><g transform="translate(0,143)"><path class="background" aria-hidden="true" d="M0,0h176v11h-176Z" pointer-events="none" opacity="1"/><g><g class="mark-symbol role-legend-symbol" pointer-events="none"><path transform="translate(6,6)" d="M5,0A5,5,0,1,1,-5,0A5,5,0,1,1,5,0" fill="#f58518" stroke-width="1.5" opacity="1"/></g><g class="mark-text role-legend-label" pointer-events="none"><text text-anchor="start" transform="translate(16,9)" font-family="sans-serif" font-size="10px" fill="#000" opacity="1">karlmdavis/bbonfhir-dev-infra-doc…</text></g></g><path class="foreground" aria-hidden="true" d="" pointer-events="none" display="none"/></g><g transform="translate(0,156)"><path class="background" aria-hidden="true" d="M0,0h176v11h-176Z" pointer-events="none" opacity="1"/><g><g class="mark-symbol role-legend-symbol" pointer-events="none"><path transform="translate(6,6)" d="M5,0A5,5,0,1,1,-5,0A5,5,0,1,1,5,0" fill="#e45756" stroke-width="1.5" opacity="1"/></g><g class="mark-text role-legend-label" pointer-events="none"><text text-anchor="start" transform="translate(16,9)" font-family="sans-serif" font-size="10px" fill="#000" opacity="1">karlmdavis/can-i-kayak-baltimore</text></g></g><path class="foreground" aria-hidden="true" d="" pointer-events="none" display="none"/></g><g transform="translate(0,169)"><path class="background" aria-hidden="true" d="M0,0h176v11h-176Z" pointer-events="none" opacity="1"/><g><g class="mark-symbol role-legend-symbol" pointer-events="none"><path transform="translate(6,6)" d="M5,0A5,5,0,1,1,-5,0A5,5,0,1,1,5,0" fill="#72b7b2" stroke-width="1.5" opacity="1"/></g><g class="mark-text role-legend-label" pointer-events="none"><text text-anchor="start" transform="translate(16,9)" font-family="sans-serif" font-size="10px" fill="#000" opacity="1">karlmdavis/datanucleus-test-jdo-1…</text></g></g><path class="foreground" aria-hidden="true" d="" pointer-events="none" display="none"/></g><g transform="translate(0,182)"><path class="background" aria-hidden="true" d="M0,0h176v11h-176Z" pointer-events="none" opacity="1"/><g><g class="mark-symbol role-legend-symbol" pointer-events="none"><path transform="translate(6,6)" d="M5,0A5,5,0,1,1,-5,0A5,5,0,1,1,5,0" fill="#54a24b" stroke-width="1.5" opacity="1"/></g><g class="mark-text role-legend-label" pointer-events="none"><text text-anchor="start" transform="translate(16,9)" font-family="sans-serif" font-size="10px" fill="#000" opacity="1">karlmdavis/dotfiles</text></g></g><path class="foreground" aria-hidden="true" d="" pointer-events="none" display="none"/></g><g transform="translate(0,195)"><path class="background" aria-hidden="true" d="M0,0h176v11h-176Z" pointer-events="none" opacity="1"/><g><g class="mark-symbol role-legend-symbol" pointer-events="none"><path transform="translate(6,6)" d="M5,0A5,5,0,1,1,-5,0A5,5,0,1,1,5,0" fill="#eeca3b" stroke-width="1.5" opacity="1"/></g><g class="mark-text role-legend-label" pointer-events="none"><text text-anchor="start" transform="translate(16,9)" font-family="sans-serif" font-size="10px" fill="#000" opacity="1">karlmdavis/fhir-benchmarks</text></g></g><path class="foreground" aria-hidden="true" d="" pointer-events="none" display="none"/></g><g transform="translate(0,208)"><path class="background" aria-hidden="true" d="M0,0h176v11h-176Z" pointer-events="none" opacity="1"/><g><g class="mark-symbol role-legend-symbol" pointer-events="none"><path transform="translate(6,6)" d="M5,0A5,5,0,1,1,-5,0A5,5,0,1,1,5,0" fill="#b279a2" stroke-width="1.5" opacity="1"/></g><g class="mark-text role-legend-label" pointer-events="none"><text text-anchor="start" transform="translate(16,9)" font-family="sans-serif" font-size="10px" fill="#000" opacity="1">karlmdavis/hapi-fhir-jpaserver-sta…</text></g></g><path class="foreground" aria-hidden="true" d="" pointer-events="none" display="none"/></g><g transform="translate(0,221)"><path class="background" aria-hidden="true" d="M0,0h176v11h-176Z" pointer-events="none" opacity="1"/><g><g class="mark-symbol role-legend-symbol" pointer-events="none"><path transform="translate(6,6)" d="M5,0A5,5,0,1,1,-5,0A5,5,0,1,1,5,0" fill="#ff9da6" stroke-width="1.5" opacity="1"/></g><g class="mark-text role-legend-label" pointer-events="none"><text text-anchor="start" transform="translate(16,9)" font-family="sans-serif" font-size="10px" fill="#000" opacity="1">karlmdavis/hello-rust-actix</text></g></g><path class="foreground" aria-hidden="true" d="" pointer-events="none" display="none"/></g><g transform="translate(0,234)"><path class="background" aria-hidden="true" d="M0,0h176v11h-176Z" pointer-events="none" opacity="1"/><g><g class="mark-symbol role-legend-symbol" pointer-events="none"><path transform="translate(6,6)" d="M5,0A5,5,0,1,1,-5,0A5,5,0,1,1,5,0" fill="#9d755d" stroke-width="1.5" opacity="1"/></g><g class="mark-text role-legend-label" pointer-events="none"><text text-anchor="start" transform="translate(16,9)" font-family="sans-serif" font-size="10px" fill="#000" opacity="1">karlmdavis/jessentials</text></g></g><path class="foreground" aria-hidden="true" d="" pointer-events="none" display="none"/></g><g transform="translate(0,247)"><path class="background" aria-hidden="true" d="M0,0h176v11h-176Z" pointer-events="none" opacity="1"/><g><g class="mark-symbol role-legend-symbol" pointer-events="none"><path transform="translate(6,6)" d="M5,0A5,5,0,1,1,-5,0A5,5,0,1,1,5,0" fill="#bab0ac" stroke-width="1.5" opacity="1"/></g><g class="mark-text role-legend-label" pointer-events="none"><text text-anchor="start" transform="translate(16,9)" font-family="sans-serif" font-size="10px" fill="#000" opacity="1">karlmdavis/justdavis-ansible</text></g></g><path class="foreground" aria-hidden="true" d="" pointer-events="none" display="none"/></g><g transform="translate(0,260)"><path class="background" aria-hidden="true" d="M0,0h176v11h-176Z" pointer-events="none" opacity="1"/><g><g class="mark-symbol role-legend-symbol" pointer-events="none"><path transform="translate(6,6)" d="M5,0A5,5,0,1,1,-5,0A5,5,0,1,1,5,0" fill="#4c78a8" stroke-width="1.5" opacity="1"/></g><g class="mark-text role-legend-label" pointer-events="none"><text text-anchor="start" transform="translate(16,9)" font-family="sans-serif" font-size="10px" fill="#000" opacity="1">karlmdavis/justdavis-finances</text></g></g><path class="foreground" aria-hidden="true" d="" pointer-events="none" display="none"/></g><g transform="translate(0,273)"><path class="background" aria-hidden="true" d="M0,0h176v11h-176Z" pointer-events="none" opacity="1"/><g><g class="mark-symbol role-legend-symbol" pointer-events="none"><path transform="translate(6,6)" d="M5,0A5,5,0,1,1,-5,0A5,5,0,1,1,5,0" fill="#f58518" stroke-width="1.5" opacity="1"/></g><g class="mark-text role-legend-label" pointer-events="none"><text text-anchor="start" transform="translate(16,9)" font-family="sans-serif" font-size="10px" fill="#000" opacity="1">karlmdavis/justdavis-karl</text></g></g><path class="foreground" aria-hidden="true" d="" pointer-events="none" display="none"/></g><g transform="translate(0,286)"><path class="background" aria-hidden="true" d="M0,0h176v11h-176Z" pointer-events="none" opacity="1"/><g><g class="mark-symbol role-legend-symbol" pointer-events="none"><path transform="translate(6,6)" d="M5,0A5,5,0,1,1,-5,0A5,5,0,1,1,5,0" fill="#e45756" stroke-width="1.5" opacity="1"/></g><g class="mark-text role-legend-label" pointer-events="none"><text text-anchor="start" transform="translate(16,9)" font-family="sans-serif" font-size="10px" fill="#000" opacity="1">karlmdavis/justdavis-puppet</text></g></g><path class="foreground" aria-hidden="true" d="" pointer-events="none" display="none"/></g><g transform="translate(0,299)"><path class="background" aria-hidden="true" d="M0,0h176v11h-176Z" pointer-events="none" opacity="1"/><g><g class="mark-symbol role-legend-symbol" pointer-events="none"><path transform="translate(6,6)" d="M5,0A5,5,0,1,1,-5,0A5,5,0,1,1,5,0" fill="#72b7b2" stroke-width="1.5" opacity="1"/></g><g class="mark-text role-legend-label" pointer-events="none"><text text-anchor="start" transform="translate(16,9)" font-family="sans-serif" font-size="10px" fill="#000" opacity="1">karlmdavis/kobjects</text></g></g><path class="foreground" aria-hidden="true" d="" pointer-events="none" display="none"/></g><g transform="translate(0,312)"><path class="background" aria-hidden="true" d="M0,0h176v11h-176Z" pointer-events="none" opacity="1"/><g><g class="mark-symbol role-legend-symbol" pointer-events="none"><path transform="translate(6,6)" d="M5,0A5,5,0,1,1,-5,0A5,5,0,1,1,5,0" fill="#54a24b" stroke-width="1.5" opacity="1"/></g><g class="mark-text role-legend-label" pointer-events="none"><text text-anchor="start" transform="translate(16,9)" font-family="sans-serif" font-size="10px" fill="#000" opacity="1">karlmdavis/ksoap2-android</text></g></g><path class="foreground" aria-hidden="true" d="" pointer-events="none" display="none"/></g><g transform="translate(0,325)"><path class="background" aria-hidden="true" d="M0,0h176v11h-176Z" pointer-events="none" opacity="1"/><g><g class="mark-symbol role-legend-symbol" pointer-events="none"><path transform="translate(6,6)" d="M5,0A5,5,0,1,1,-5,0A5,5,0,1,1,5,0" fill="#eeca3b" stroke-width="1.5" opacity="1"/></g><g class="mark-text role-legend-label" pointer-events="none"><text text-anchor="start" transform="translate(16,9)" font-family="sans-serif" font-size="10px" fill="#000" opacity="1">karlmdavis/kxml2</text></g></g><path class="foreground" aria-hidden="true" d="" pointer-events="none" display="none"/></g><g transform="translate(0,338)"><path class="background" aria-hidden="true" d="M0,0h176v11h-176Z" pointer-events="none" opacity="1"/><g><g class="mark-symbol role-legend-symbol" pointer-events="none"><path transform="translate(6,6)" d="M5,0A5,5,0,1,1,-5,0A5,5,0,1,1,5,0" fill="#b279a2" stroke-width="1.5" opacity="1"/></g><g class="mark-text role-legend-label" pointer-events="none"><text text-anchor="start" transform="translate(16,9)" font-family="sans-serif" font-size="10px" fill="#000" opacity="1">karlmdavis/ldap-plugin</text></g></g><path class="foreground" aria-hidden="true" d="" pointer-events="none" display="none"/></g><g transform="translate(0,351)"><path class="background" aria-hidden="true" d="M0,0h176v11h-176Z" pointer-events="none" opacity="1"/><g><g class="mark-symbol role-legend-symbol" pointer-events="none"><path transform="translate(6,6)" d="M5,0A5,5,0,1,1,-5,0A5,5,0,1,1,5,0" fill="#ff9da6" stroke-width="1.5" opacity="1"/></g><g class="mark-text role-legend-label" pointer-events="none"><text text-anchor="start" transform="translate(16,9)" font-family="sans-serif" font-size="10px" fill="#000" opacity="1">karlmdavis/lego-ev3dev-rs</text></g></g><path class="foreground" aria-hidden="true" d="" pointer-events="none" display="none"/></g><g transform="translate(0,364)"><path class="background" aria-hidden="true" d="M0,0h176v11h-176Z" pointer-events="none" opacity="1"/><g><g class="mark-symbol role-legend-symbol" pointer-events="none"><path transform="translate(6,6)" d="M5,0A5,5,0,1,1,-5,0A5,5,0,1,1,5,0" fill="#9d755d" stroke-width="1.5" opacity="1"/></g><g class="mark-text role-legend-label" pointer-events="none"><text text-anchor="start" transform="translate(16,9)" font-family="sans-serif" font-size="10px" fill="#000" opacity="1">karlmdavis/liquibase</text></g></g><path class="foreground" aria-hidden="true" d="" pointer-events="none" display="none"/></g><g transform="translate(0,377)"><path class="background" aria-hidden="true" d="M0,0h176v11h-176Z" pointer-events="none" opacity="1"/><g><g class="mark-symbol role-legend-symbol" pointer-events="none"><path transform="translate(6,6)" d="M5,0A5,5,0,1,1,-5,0A5,5,0,1,1,5,0" fill="#bab0ac" stroke-width="1.5" opacity="1"/></g><g class="mark-text role-legend-label" pointer-events="none"><text text-anchor="start" transform="translate(16,9)" font-family="sans-serif" font-size="10px" fill="#000" opacity="1">…14 entries</text></g></g><path class="foreground" aria-hidden="true" d="" pointer-events="none" display="none"/></g></g></g><path class="foreground" aria-hidden="true" d="" pointer-events="none" display="none"/></g></g><g class="mark-text role-legend-title" pointer-events="none"><text text-anchor="start" transform="translate(0,9)" font-family="sans-serif" font-size="11px" font-weight="bold" fill="#000" opacity="1">Repository</text></g></g><path class="foreground" aria-hidden="true" d="" pointer-events="none" display="none"/></g></g><g class="mark-group role-title"><g transform="translate(400,-22)"><path class="background" aria-hidden="true" d="M0,0h0v0h0Z" pointer-events="none"/><g><g class="mark-text role-title-text" role="graphics-symbol" aria-roledescription="title" aria-label="Title text 'Unique Clones per Day'" pointer-events="none"><text text-anchor="middle" transform="translate(0,10)" font-family="sans-serif" font-size="13px" font-weight="bold" fill="#000" opacity="1">Unique Clones per Day</text></g></g><path class="foreground" aria-hidden="true" d="" pointer-events="none" display="none"/></g></g></g><path class="foreground" aria-hidden="true" d="" display="none"/></g></g></g></svg>