<svg xmlns="http://www.w3.org/2000/svg" xmlns:xlink="http://www.w3.org/1999/xlink" version="1.1" class="marks" width="1043" height="436" viewBox="0 0 1043 436"><rect width="1043" height="436" fill="white"/><g fill="none" stroke-miterlimit="10" transform="translate(44,27)"><g class="mark-group role-frame root" role="graphics-object" aria-roledescription="group mark container"><g transform="translate(0,0)"><path class="background" aria-hidden="true" d="M0.5,0.5h800v300h-800Z" stroke="#ddd"/><g><g class="mark-group role-axis" aria-hidden="true"><g transform="translate(0.5,300.5)"><path class="background" aria-hidden="true" d="M0,0h0v0h0Z" pointer-events="none"/><g><g class="mark-rule role-axis-grid" pointer-events="none"><line transform="translate(24,-300)" x2="0" y2="300" stroke="#ddd" stroke-width="1" opacity="1"/><line transform="translate(73,-300)" x2="0" y2="300" stroke="#ddd" stroke-width="1" opacity="1"/><line transform="translate(121,-300)" x2="0" y2="300" stroke="#ddd" stroke-width="1" opacity="1"/><line transform="translate(170,-300)" x2="0" y2="300" stroke="#ddd" stroke-width="1" opacity="1"/><line transform="translate(218,-300)" x2="0" y2="300" stroke="#ddd" stroke-width="1" opacity="1"/><line transform="translate(267,-300)" x2="0" y2="300" stroke="#ddd" stroke-width="1" opacity="1"/><line transform="translate(315,-300)" x2="0" y2="300" stroke="#ddd" stroke-width="1" opacity="1"/><line transform="translate(364,-300)" x2="0" y2="300" stroke="#ddd" stroke-width="1" opacity="1"/><line transform="translate(388,-300)" x2="0" y2="300" stroke="#ddd" stroke-width="1" opacity="1"/><line transform="translate(436,-300)" x2="0" y2="300" stroke="#ddd" stroke-width="1" opacity="1"/><line transform="translate(485,-300)" x2="0" y2="300" stroke="#ddd" stroke-width="1" opacity="1"/><line transform="translate(533,-300)" x2="0" y2="300" stroke="#ddd" stroke-width="1" opacity="1"/><line transform="translate(582,-300)" x2="0" y2="300" stroke="#ddd" stroke-width="1" opacity="1"/><line transform="translate(630,-300)" x2="0" y2="300" stroke="#ddd" stroke-width="1" opacity="1"/><line transform="translate(679,-300)" x2="0" y2="300" stroke="#ddd" stroke-width="1" opacity="1"/><line transform="translate(727,-300)" x2="0" y2="300" stroke="#ddd" stroke-width="1" opacity="1"/><line transform="translate(776,-300)" x2="0" y2="300" stroke="#ddd" stroke-width="1" opacity="1"/></g></g><path class="foreground" aria-hidden="true" d="" pointer-events="none" display="none"/></g></g><g class="mark-group role-axis" aria-hidden="true"><g transform="translate(0.5,0.5)"><path class="background" aria-hidden="true" d="M0,0h0v0h0Z" pointer-events="none"/><g><g class="mark-rule role-axis-grid" pointer-events="none"><line transform="translate(0,300)" x2="800" y2="0" stroke="#ddd" stroke-width="1" opacity="1"/><line transform="translate(0,273)" x2="800" y2="0" stroke="#ddd" stroke-width="1" opacity="1"/><line transform="translate(0,245)" x2="800" y2="0" stroke="#ddd" stroke-width="1" opacity="1"/><line transform="translate(0,218)" x2="800" y2="0" stroke="#ddd" stroke-width="1" opacity="1"/><line transform="translate(0,191)" x2="800" y2="0" stroke="#ddd" stroke-width="1" opacity="1"/><line transform="translate(0,164)" x2="800" y2="0" stroke="#ddd" stroke-width="1" opacity="1"/><line transform="translate(0,136)" x2="800" y2="0" stroke="#ddd" stroke-width="1" opacity="1"/><line transform="translate(0,109)" x2="800" y2="0" stroke="#ddd" stroke-width="1" opacity="1"/><line transform="translate(0,82)" x2="800" y2="0" stroke="#ddd" stroke-width="1" opacity="1"/><line transform="translate(0,55)" x2="800" y2="0" stroke="#ddd" stroke-width="1" opacity="1"/><line transform="translate(0,27)" x2="800" y2="0" stroke="#ddd" stroke-width="1" opacity="1"/><line transform="translate(0,0)" x2="800" y2="0" stroke="#ddd" stroke-width="1" opacity="1"/></g></g><path class="foreground" aria-hidden="true" d="" pointer-events="none" display="none"/></g></g><g class="mark-group role-axis" role="graphics-symbol" aria-roledescription="axis" aria-label="X-axis titled 'Date' for a time scale with values from Monday, 16 March 2026, 12:00:00 AM to Saturday, 18 April 2026, 12:00:00 AM"><g transform="translate(0.5,300.5)"><path class="background" aria-hidden="true" d="M0,0h0v0h0Z" pointer-events="none"/><g><g class="mark-rule role-axis-tick" pointer-events="none"><line transform="translate(24,0)" x2="0" y2="5" stroke="#888" stroke-width="1" opacity="1"/><line transform="translate(73,0)" x2="0" y2="5" stroke="#888" stroke-width="1" opacity="1"/><line transform="translate(121,0)" x2="0" y2="5" stroke="#888" stroke-width="1" opacity="1"/><line transform="translate(170,0)" x2="0" y2="5" stroke="#888" stroke-width="1" opacity="1"/><line transform="translate(218,0)" x2="0" y2="5" stroke="#888" stroke-width="1" opacity="1"/><line transform="translate(267,0)" x2="0" y2="5" stroke="#888" stroke-width="1" opacity="1"/><line transform="translate(315,0)" x2="0" y2="5" stroke="#888" stroke-width="1" opacity="1"/><line transform="translate(364,0)" x2="0" y2="5" stroke="#888" stroke-width="1" opacity="1"/><line transform="translate(388,0)" x2="0" y2="5" stroke="#888" stroke-width="1" opacity="1"/><line transform="translate(436,0)" x2="0" y2="5" stroke="#888" stroke-width="1" opacity="1"/><line transform="translate(485,0)" x2="0" y2="5" stroke="#888" stroke-width="1" opacity="1"/><line transform="translate(533,0)" x2="0" y2="5" stroke="#888" stroke-width="1" opacity="1"/><line transform="translate(582,0)" x2="0" y2="5" stroke="#888" stroke-width="1" opacity="1"/><line transform="translate(630,0)" x2="0" y2="5" stroke="#888" stroke-width="1" opacity="1"/><line transform="translate(679,0)" x2="0" y2="5" stroke="#888" stroke-width="1" opacity="1"/><line transform="translate(727,0)" x2="0" y2="5" stroke="#888" stroke-width="1" opacity="1"/><line transform="translate(776,0)" x2="0" y2="5" stroke="#888" stroke-width="1" opacity="1"/></g><g class="mark-text role-axis-label" pointer-events="none"><text text-anchor="middle" transform="translate(24.242424242424242,15)" font-family="sans-serif" font-size="10px" fill="#000" opacity="1">Tue 17</text><text text-anchor="middle" transform="translate(72.72727272727273,15)" font-family="sans-serif" font-size="10px" fill="#000" opacity="0">Thu 19</text><text text-anchor="middle" transform="translate(121.21212121212122,15)" font-family="sans-serif" font-size="10px" fill="#000" opacity="1">Sat 21</text><text text-anchor="middle" transform="translate(169.6969696969697,15)" font-family="sans-serif" font-size="10px" fill="#000" opacity="0">Mon 23</text><text text-anchor="middle" transform="translate(218.18181818181816,15)" font-family="sans-serif" font-size="10px" fill="#000" opacity="1">Wed 25</text><text text-anchor="middle" transform="translate(266.66666666666663,15)" font-family="sans-serif" font-size="10px" fill="#000" opacity="0">Fri 27</text><text text-anchor="middle" transform="translate(315.1515151515151,15)" font-family="sans-serif" font-size="10px" fill="#000" opacity="1">Mar 29</text><text text-anchor="middle" transform="translate(363.6363636363636,15)" font-family="sans-serif" font-size="10px" fill="#000" opacity="0">Tue 31</text><text text-anchor="middle" transform="translate(387.8787878787879,15)" font-family="sans-serif" font-size="10px" fill="#000" opacity="1">April</text><text text-anchor="middle" transform="translate(436.3636363636363,15)" font-family="sans-serif" font-size="10px" fill="#000" opacity="0">Fri 03</text><text text-anchor="middle" transform="translate(484.8484848484849,15)" font-family="sans-serif" font-size="10px" fill="#000" opacity="1">Apr 05</text><text text-anchor="middle" transform="translate(533.3333333333333,15)" font-family="sans-serif" font-size="10px" fill="#000" opacity="0">Tue 07</text><text text-anchor="middle" transform="translate(581.8181818181819,15)" font-family="sans-serif" font-size="10px" fill="#000" opacity="1">Thu 09</text><text text-anchor="middle" transform="translate(630.3030303030303,15)" font-family="sans-serif" font-size="10px" fill="#000" opacity="0">Sat 11</text><text text-anchor="middle" transform="translate(678.7878787878788,15)" font-family="sans-serif" font-size="10px" fill="#000" opacity="1">Mon 13</text><text text-anchor="middle" transform="translate(727.2727272727273,15)" font-family="sans-serif" font-size="10px" fill="#000" opacity="0">Wed 15</text><text text-anchor="middle" transform="translate(775.7575757575758,15)" font-family="sans-serif" font-size="10px" fill="#000" opacity="1">Fri 17</text></g><g class="mark-rule role-axis-domain" pointer-events="none"><line transform="translate(0,0)" x2="800" y2="0" stroke="#888" stroke-width="1" opacity="1"/></g><g class="mark-text role-axis-title" pointer-events="none"><text text-anchor="middle" transform="translate(400,30)" font-family="sans-serif" font-size="11px" font-weight="bold" fill="#000" opacity="1">Date</text></g></g><path class="foreground" aria-hidden="true" d="" pointer-events="none" display="none"/></g></g><g class="mark-group role-axis" role="graphics-symbol" aria-roledescription="axis" aria-label="Y-axis titled 'Unique Clones/day' for a linear scale with values from 0 to 220"><g transform="translate(0.5,0.5)"><path class="background" aria-hidden="true" d="M0,0h0v0h0Z" pointer-events="none"/><g><g class="mark-rule role-axis-tick" pointer-events="none"><line transform="translate(0,300)" x2="-5" y2="0" stroke="#888" stroke-width="1" opacity="1"/><line transform="translate(0,273)" x2="-5" y2="0" stroke="#888" stroke-width="1" opacity="1"/><line transform="translate(0,245)" x2="-5" y2="0" stroke="#888" stroke-width="1" opacity="1"/><line transform="translate(0,218)" x2="-5" y2="0" stroke="#888" stroke-width="1" opacity="1"/><line transform="translate(0,191)" x2="-5" y2="0" stroke="#888" stroke-width="1" opacity="1"/><line transform="translate(0,164)" x2="-5" y2="0" stroke="#888" stroke-width="1" opacity="1"/><line transform="translate(0,136)" x2="-5" y2="0" stroke="#888" stroke-width="1" opacity="1"/><line transform="translate(0,109)" x2="-5" y2="0" stroke="#888" stroke-width="1" opacity="1"/><line transform="translate(0,82)" x2="-5" y2="0" stroke="#888" stroke-width="1" opacity="1"/><line transform="translate(0,55)" x2="-5" y2="0" stroke="#888" stroke-width="1" opacity="1"/><line transform="translate(0,27)" x2="-5" y2="0" stroke="#888" stroke-width="1" opacity="1"/><line transform="translate(0,0)" x2="-5" y2="0" stroke="#888" stroke-width="1" opacity="1"/></g><g class="mark-text role-axis-label" pointer-events="none"><text text-anchor="end" transform="translate(-7,303)" font-family="sans-serif" font-size="10px" fill="#000" opacity="1">0</text><text text-anchor="end" transform="translate(-7,275.7272727272727)" font-family="sans-serif" font-size="10px" fill="#000" opacity="1">20</text><text text-anchor="end" transform="translate(-7,248.45454545454544)" font-family="sans-serif" font-size="10px" fill="#000" opacity="1">40</text><text text-anchor="end" transform="translate(-7,221.1818181818182)" font-family="sans-serif" font-size="10px" fill="#000" opacity="1">60</text><text text-anchor="end" transform="translate(-7,193.9090909090909)" font-family="sans-serif" font-size="10px" fill="#000" opacity="1">80</text><text text-anchor="end" transform="translate(-7,166.63636363636363)" font-family="sans-serif" font-size="10px" fill="#000" opacity="1">100</text><text text-anchor="end" transform="translate(-7,139.36363636363637)" font-family="sans-serif" font-size="10px" fill="#000" opacity="1">120</text><text text-anchor="end" transform="translate(-7,112.0909090909091)" font-family="sans-serif" font-size="10px" fill="#000" opacity="1">140</text><text text-anchor="end" transform="translate(-7,84.81818181818181)" font-family="sans-serif" font-size="10px" fill="#000" opacity="1">160</text><text text-anchor="end" transform="translate(-7,57.54545454545453)" font-family="sans-serif" font-size="10px" fill="#000" opacity="1">180</text><text text-anchor="end" transform="translate(-7,30.27272727272728)" font-family="sans-serif" font-size="10px" fill="#000" opacity="1">200</text><text text-anchor="end" transform="translate(-7,3)" font-family="sans-serif" font-size="10px" fill="#000" opacity="1">220</text></g><g class="mark-rule role-axis-domain" pointer-events="none"><line transform="translate(0,300)" x2="0" y2="-300" stroke="#888" stroke-width="1" opacity="1"/></g><g class="mark-text role-axis-title" pointer-events="none"><text text-anchor="middle" transform="translate(-27.6845703125,150) rotate(-90) translate(0,-2)" font-family="sans-serif" font-size="11px" font-weight="bold" fill="#000" opacity="1">Unique Clones/day</text></g></g><path class="foreground" aria-hidden="true" d="" pointer-events="none" display="none"/></g></g><g class="mark-group role-scope pathgroup" role="graphics-object" aria-roledescription="group mark container"><g transform="translate(0,0)"><path class="background" aria-hidden="true" d="M0,0h800v300h-800Z"/><g><g class="mark-area role-mark marks" role="graphics-object" aria-roledescription="area mark container"><path aria-label="Date: Mar 16, 2026; Unique Clones/day: 0; Repository: justdavis-family/github-analytics-data" role="graphics-symbol" aria-roledescription="area mark" d="M0,298.636L24.242,300L48.485,300L72.727,298.636L96.97,300L121.212,300L145.455,300L169.697,282.273L193.939,297.273L218.182,290.455L242.424,278.182L266.667,205.909L290.909,237.273L315.152,169.091L339.394,255L363.636,268.636L387.879,274.091L412.121,286.364L436.364,259.091L460.606,73.636L484.848,148.636L509.091,257.727L533.333,155.455L557.576,250.909L581.818,229.091L606.061,271.364L630.303,249.545L654.545,212.727L678.788,4.091L703.03,267.273L727.273,260.455L751.515,274.091L775.758,280.909L800,279.545L800,295.909L775.758,287.727L751.515,289.091L727.273,278.182L703.03,282.273L678.788,10.909L654.545,229.091L630.303,260.455L606.061,280.909L581.818,238.636L557.576,257.727L533.333,190.909L509.091,257.727L484.848,148.636L460.606,73.636L436.364,259.091L412.121,286.364L387.879,274.091L363.636,268.636L339.394,255L315.152,169.091L290.909,237.273L266.667,205.909L242.424,278.182L218.182,290.455L193.939,297.273L169.697,282.273L145.455,300L121.212,300L96.97,300L72.727,298.636L48.485,300L24.242,300L0,298.636Z" fill="#4c78a8"/></g></g><path class="foreground" aria-hidden="true" d="" display="none"/></g><g transform="translate(0,0)"><path class="background" aria-hidden="true" d="M0,0h800v300h-800Z"/><g><g class="mark-area role-mark marks" role="graphics-object" aria-roledescription="area mark container"><path aria-label="Date: Mar 16, 2026; Unique Clones/day: 0; Repository: justdavis-family/justdavis" role="graphics-symbol" aria-roledescription="area mark" d="M0,298.636L24.242,300L48.485,300L72.727,298.636L96.97,300L121.212,300L145.455,300L169.697,282.273L193.939,297.273L218.182,290.455L242.424,278.182L266.667,205.909L290.909,237.273L315.152,169.091L339.394,255L363.636,268.636L387.879,274.091L412.121,286.364L436.364,259.091L460.606,73.636L484.848,148.636L509.091,257.727L533.333,190.909L557.576,257.727L581.818,238.636L606.061,280.909L630.303,260.455L654.545,229.091L678.788,10.909L703.03,282.273L727.273,278.182L751.515,289.091L775.758,287.727L800,295.909L800,297.273L775.758,291.818L751.515,291.818L727.273,283.636L703.03,283.636L678.788,178.636L654.545,250.909L630.303,264.545L606.061,283.636L581.818,244.091L557.576,260.455L533.333,259.091L509.091,282.273L484.848,189.545L460.606,180L436.364,260.455L412.121,286.364L387.879,275.455L363.636,268.636L339.394,255L315.152,169.091L290.909,237.273L266.667,205.909L242.424,278.182L218.182,290.455L193.939,297.273L169.697,283.636L145.455,300L121.212,300L96.97,300L72.727,298.636L48.485,300L24.242,300L0,298.636Z" fill="#f58518"/></g></g><path class="foreground" aria-hidden="true" d="" display="none"/></g><g transform="translate(0,0)"><path class="background" aria-hidden="true" d="M0,0h800v300h-800Z"/><g><g class="mark-area role-mark marks" role="graphics-object" aria-roledescription="area mark container"><path aria-label="Date: Mar 16, 2026; Unique Clones/day: 0; Repository: karlmdavis/FHIR-Server" role="graphics-symbol" aria-roledescription="area mark" d="M0,298.636L24.242,300L48.485,300L72.727,298.636L96.97,300L121.212,300L145.455,300L169.697,283.636L193.939,297.273L218.182,290.455L242.424,278.182L266.667,205.909L290.909,237.273L315.152,169.091L339.394,255L363.636,268.636L387.879,275.455L412.121,286.364L436.364,260.455L460.606,180L484.848,189.545L509.091,282.273L533.333,259.091L557.576,260.455L581.818,244.091L606.061,283.636L630.303,264.545L654.545,250.909L678.788,178.636L703.03,283.636L727.273,283.636L751.515,291.818L775.758,291.818L800,297.273L800,297.273L775.758,291.818L751.515,291.818L727.273,283.636L703.03,283.636L678.788,178.636L654.545,252.273L630.303,267.273L606.061,283.636L581.818,244.091L557.576,260.455L533.333,259.091L509.091,282.273L484.848,189.545L460.606,180L436.364,260.455L412.121,286.364L387.879,275.455L363.636,270L339.394,255L315.152,169.091L290.909,237.273L266.667,205.909L242.424,278.182L218.182,290.455L193.939,297.273L169.697,283.636L145.455,300L121.212,300L96.97,300L72.727,298.636L48.485,300L24.242,300L0,298.636Z" fill="#e45756"/></g></g><path class="foreground" aria-hidden="true" d="" display="none"/></g><g transform="translate(0,0)"><path class="background" aria-hidden="true" d="M0,0h800v300h-800Z"/><g><g class="mark-area role-mark marks" role="graphics-object" aria-roledescription="area mark container"><path aria-label="Date: Mar 16, 2026; Unique Clones/day: 1; Repository: karlmdavis/ansible" role="graphics-symbol" aria-roledescription="area mark" d="M0,298.636L24.242,300L48.485,300L72.727,298.636L96.97,300L121.212,300L145.455,300L169.697,283.636L193.939,297.273L218.182,290.455L242.424,278.182L266.667,205.909L290.909,237.273L315.152,169.091L339.394,255L363.636,270L387.879,275.455L412.121,286.364L436.364,260.455L460.606,180L484.848,189.545L509.091,282.273L533.333,259.091L557.576,260.455L581.818,244.091L606.061,283.636L630.303,267.273L654.545,252.273L678.788,178.636L703.03,283.636L727.273,283.636L751.515,291.818L775.758,291.818L800,297.273L800,297.273L775.758,291.818L751.515,291.818L727.273,283.636L703.03,285L678.788,178.636L654.545,252.273L630.303,267.273L606.061,283.636L581.818,244.091L557.576,260.455L533.333,259.091L509.091,282.273L484.848,189.545L460.606,180L436.364,260.455L412.121,286.364L387.879,275.455L363.636,270L339.394,255L315.152,169.091L290.909,237.273L266.667,205.909L242.424,278.182L218.182,290.455L193.939,297.273L169.697,283.636L145.455,300L121.212,300L96.97,300L72.727,298.636L48.485,300L24.242,300L0,300Z" fill="#72b7b2"/></g></g><path class="foreground" aria-hidden="true" d="" display="none"/></g><g transform="translate(0,0)"><path class="background" aria-hidden="true" d="M0,0h800v300h-800Z"/><g><g class="mark-area role-mark marks" role="graphics-object" aria-roledescription="area mark container"><path aria-label="Date: Mar 16, 2026; Unique Clones/day: 0; Repository: karlmdavis/ansible-jenkins" role="graphics-symbol" aria-roledescription="area mark" d="M0,300L24.242,300L48.485,300L72.727,298.636L96.97,300L121.212,300L145.455,300L169.697,283.636L193.939,297.273L218.182,290.455L242.424,278.182L266.667,205.909L290.909,237.273L315.152,169.091L339.394,255L363.636,270L387.879,275.455L412.121,286.364L436.364,260.455L460.606,180L484.848,189.545L509.091,282.273L533.333,259.091L557.576,260.455L581.818,244.091L606.061,283.636L630.303,267.273L654.545,252.273L678.788,178.636L703.03,285L727.273,283.636L751.515,291.818L775.758,291.818L800,297.273L800,297.273L775.758,291.818L751.515,291.818L727.273,283.636L703.03,285L678.788,178.636L654.545,253.636L630.303,267.273L606.061,283.636L581.818,244.091L557.576,260.455L533.333,259.091L509.091,282.273L484.848,189.545L460.606,181.364L436.364,261.818L412.121,286.364L387.879,275.455L363.636,270L339.394,255L315.152,169.091L290.909,237.273L266.667,205.909L242.424,279.545L218.182,290.455L193.939,297.273L169.697,283.636L145.455,300L121.212,300L96.97,300L72.727,298.636L48.485,300L24.242,300L0,300Z" fill="#54a24b"/></g></g><path class="foreground" aria-hidden="true" d="" display="none"/></g><g transform="translate(0,0)"><path class="background" aria-hidden="true" d="M0,0h800v300h-800Z"/><g><g class="mark-area role-mark marks" role="graphics-object" aria-roledescription="area mark container"><path aria-label="Date: Mar 16, 2026; Unique Clones/day: 0; Repository: karlmdavis/ansible-role-acmetool" role="graphics-symbol" aria-roledescription="area mark" d="M0,300L24.242,300L48.485,300L72.727,298.636L96.97,300L121.212,300L145.455,300L169.697,283.636L193.939,297.273L218.182,290.455L242.424,279.545L266.667,205.909L290.909,237.273L315.152,169.091L339.394,255L363.636,270L387.879,275.455L412.121,286.364L436.364,261.818L460.606,181.364L484.848,189.545L509.091,282.273L533.333,259.091L557.576,260.455L581.818,244.091L606.061,283.636L630.303,267.273L654.545,253.636L678.788,178.636L703.03,285L727.273,283.636L751.515,291.818L775.758,291.818L800,297.273L800,297.273L775.758,291.818L751.515,291.818L727.273,283.636L703.03,285L678.788,178.636L654.545,255L630.303,267.273L606.061,283.636L581.818,244.091L557.576,260.455L533.333,259.091L509.091,282.273L484.848,189.545L460.606,181.364L436.364,261.818L412.121,286.364L387.879,275.455L363.636,270L339.394,255L315.152,169.091L290.909,237.273L266.667,205.909L242.424,280.909L218.182,290.455L193.939,297.273L169.697,283.636L145.455,300L121.212,300L96.97,300L72.727,298.636L48.485,300L24.242,300L0,300Z" fill="#eeca3b"/></g></g><path class="foreground" aria-hidden="true" d="" display="none"/></g><g transform="translate(0,0)"><path class="background" aria-hidden="true" d="M0,0h800v300h-800Z"/><g><g class="mark-area role-mark marks" role="graphics-object" aria-roledescription="area mark container"><path aria-label="Date: Mar 16, 2026; Unique Clones/day: 0; Repository: karlmdavis/ansible-role-bind-dns" role="graphics-symbol" aria-roledescription="area mark" d="M0,300L24.242,300L48.485,300L72.727,298.636L96.97,300L121.212,300L145.455,300L169.697,283.636L193.939,297.273L218.182,290.455L242.424,280.909L266.667,205.909L290.909,237.273L315.152,169.091L339.394,255L363.636,270L387.879,275.455L412.121,286.364L436.364,261.818L460.606,181.364L484.848,189.545L509.091,282.273L533.333,259.091L557.576,260.455L581.818,244.091L606.061,283.636L630.303,267.273L654.545,255L678.788,178.636L703.03,285L727.273,283.636L751.515,291.818L775.758,291.818L800,297.273L800,297.273L775.758,291.818L751.515,293.182L727.273,283.636L703.03,285L678.788,184.091L654.545,256.364L630.303,267.273L606.061,283.636L581.818,245.455L557.576,261.818L533.333,259.091L509.091,282.273L484.848,189.545L460.606,182.727L436.364,261.818L412.121,286.364L387.879,279.545L363.636,270L339.394,256.364L315.152,170.455L290.909,237.273L266.667,208.636L242.424,280.909L218.182,290.455L193.939,297.273L169.697,283.636L145.455,300L121.212,300L96.97,300L72.727,298.636L48.485,300L24.242,300L0,300Z" fill="#b279a2"/></g></g><path class="foreground" aria-hidden="true" d="" display="none"/></g><g transform="translate(0,0)"><path class="background" aria-hidden="true" d="M0,0h800v300h-800Z"/><g><g class="mark-area role-mark marks" role="graphics-object" aria-roledescription="area mark container"><path aria-label="Date: Mar 16, 2026; Unique Clones/day: 0; Repository: karlmdavis/ansible-role-jenkins2" role="graphics-symbol" aria-roledescription="area mark" d="M0,300L24.242,300L48.485,300L72.727,298.636L96.97,300L121.212,300L145.455,300L169.697,283.636L193.939,297.273L218.182,290.455L242.424,280.909L266.667,208.636L290.909,237.273L315.152,170.455L339.394,256.364L363.636,270L387.879,279.545L412.121,286.364L436.364,261.818L460.606,182.727L484.848,189.545L509.091,282.273L533.333,259.091L557.576,261.818L581.818,245.455L606.061,283.636L630.303,267.273L654.545,256.364L678.788,184.091L703.03,285L727.273,283.636L751.515,293.182L775.758,291.818L800,297.273L800,297.273L775.758,291.818L751.515,293.182L727.273,285L703.03,285L678.788,190.909L654.545,256.364L630.303,268.636L606.061,286.364L581.818,252.273L557.576,261.818L533.333,259.091L509.091,282.273L484.848,190.909L460.606,185.455L436.364,263.182L412.121,287.727L387.879,280.909L363.636,271.364L339.394,256.364L315.152,170.455L290.909,238.636L266.667,210L242.424,282.273L218.182,291.818L193.939,298.636L169.697,283.636L145.455,300L121.212,300L96.97,300L72.727,298.636L48.485,300L24.242,300L0,300Z" fill="#ff9da6"/></g></g><path class="foreground" aria-hidden="true" d="" display="none"/></g><g transform="translate(0,0)"><path class="background" aria-hidden="true" d="M0,0h800v300h-800Z"/><g><g class="mark-area role-mark marks" role="graphics-object" aria-roledescription="area mark container"><path aria-label="Date: Mar 16, 2026; Unique Clones/day: 0; Repository: karlmdavis/ansible-role-ldap" role="graphics-symbol" aria-roledescription="area mark" d="M0,300L24.242,300L48.485,300L72.727,298.636L96.97,300L121.212,300L145.455,300L169.697,283.636L193.939,298.636L218.182,291.818L242.424,282.273L266.667,210L290.909,238.636L315.152,170.455L339.394,256.364L363.636,271.364L387.879,280.909L412.121,287.727L436.364,263.182L460.606,185.455L484.848,190.909L509.091,282.273L533.333,259.091L557.576,261.818L581.818,252.273L606.061,286.364L630.303,268.636L654.545,256.364L678.788,190.909L703.03,285L727.273,285L751.515,293.182L775.758,291.818L800,297.273L800,297.273L775.758,291.818L751.515,293.182L727.273,285L703.03,285L678.788,192.273L654.545,256.364L630.303,268.636L606.061,286.364L581.818,252.273L557.576,261.818L533.333,259.091L509.091,282.273L484.848,190.909L460.606,185.455L436.364,263.182L412.121,287.727L387.879,280.909L363.636,272.727L339.394,256.364L315.152,170.455L290.909,238.636L266.667,210L242.424,282.273L218.182,291.818L193.939,298.636L169.697,283.636L145.455,300L121.212,300L96.97,300L72.727,298.636L48.485,300L24.242,300L0,300Z" fill="#9d755d"/></g></g><path class="foreground" aria-hidden="true" d="" display="none"/></g><g transform="translate(0,0)"><path class="background" aria-hidden="true" d="M0,0h800v300h-800Z"/><g><g class="mark-area role-mark marks" role="graphics-object" aria-roledescription="area mark container"><path aria-label="Date: Mar 16, 2026; Unique Clones/day: 0; Repository: karlmdavis/ansible-role-rcm-dotfiles" role="graphics-symbol" aria-roledescription="area mark" d="M0,300L24.242,300L48.485,300L72.727,298.636L96.97,300L121.212,300L145.455,300L169.697,283.636L193.939,298.636L218.182,291.818L242.424,282.273L266.667,210L290.909,238.636L315.152,170.455L339.394,256.364L363.636,272.727L387.879,280.909L412.121,287.727L436.364,263.182L460.606,185.455L484.848,190.909L509.091,282.273L533.333,259.091L557.576,261.818L581.818,252.273L606.061,286.364L630.303,268.636L654.545,256.364L678.788,192.273L703.03,285L727.273,285L751.515,293.182L775.758,291.818L800,297.273L800,297.273L775.758,291.818L751.515,293.182L727.273,286.364L703.03,285L678.788,196.364L654.545,257.727L630.303,268.636L606.061,286.364L581.818,253.636L557.576,261.818L533.333,259.091L509.091,282.273L484.848,190.909L460.606,186.818L436.364,263.182L412.121,287.727L387.879,280.909L363.636,272.727L339.394,257.727L315.152,171.818L290.909,238.636L266.667,212.727L242.424,282.273L218.182,291.818L193.939,298.636L169.697,283.636L145.455,300L121.212,300L96.97,300L72.727,298.636L48.485,300L24.242,300L0,300Z" fill="#bab0ac"/></g></g><path class="foreground" aria-hidden="true" d="" display="none"/></g><g transform="translate(0,0)"><path class="background" aria-hidden="true" d="M0,0h800v300h-800Z"/><g><g class="mark-area role-mark marks" role="graphics-object" aria-roledescription="area mark container"><path aria-label="Date: Mar 16, 2026; Unique Clones/day: 0; Repository: karlmdavis/ansible-roles" role="graphics-symbol" aria-roledescription="area mark" d="M0,300L24.242,300L48.485,300L72.727,298.636L96.97,300L121.212,300L145.455,300L169.697,283.636L193.939,298.636L218.182,291.818L242.424,282.273L266.667,212.727L290.909,238.636L315.152,171.818L339.394,257.727L363.636,272.727L387.879,280.909L412.121,287.727L436.364,263.182L460.606,186.818L484.848,190.909L509.091,282.273L533.333,259.091L557.576,261.818L581.818,253.636L606.061,286.364L630.303,268.636L654.545,257.727L678.788,196.364L703.03,285L727.273,286.364L751.515,293.182L775.758,291.818L800,297.273L800,297.273L775.758,291.818L751.515,293.182L727.273,286.364L703.03,285L678.788,196.364L654.545,257.727L630.303,270L606.061,286.364L581.818,253.636L557.576,261.818L533.333,259.091L509.091,282.273L484.848,190.909L460.606,186.818L436.364,263.182L412.121,287.727L387.879,280.909L363.636,272.727L339.394,259.091L315.152,171.818L290.909,238.636L266.667,212.727L242.424,283.636L218.182,291.818L193.939,298.636L169.697,283.636L145.455,300L121.212,300L96.97,300L72.727,298.636L48.485,300L24.242,300L0,300Z" fill="#4c78a8"/></g></g><path class="foreground" aria-hidden="true" d="" display="none"/></g><g transform="translate(0,0)"><path class="background" aria-hidden="true" d="M0,0h800v300h-800Z"/><g><g class="mark-area role-mark marks" role="graphics-object" aria-roledescription="area mark container"><path aria-label="Date: Mar 16, 2026; Unique Clones/day: 0; Repository: karlmdavis/bbonfhir-dev-infra-docker" role="graphics-symbol" aria-roledescription="area mark" d="M0,300L24.242,300L48.485,300L72.727,298.636L96.97,300L121.212,300L145.455,300L169.697,283.636L193.939,298.636L218.182,291.818L242.424,283.636L266.667,212.727L290.909,238.636L315.152,171.818L339.394,259.091L363.636,272.727L387.879,280.909L412.121,287.727L436.364,263.182L460.606,186.818L484.848,190.909L509.091,282.273L533.333,259.091L557.576,261.818L581.818,253.636L606.061,286.364L630.303,270L654.545,257.727L678.788,196.364L703.03,285L727.273,286.364L751.515,293.182L775.758,291.818L800,297.273L800,297.273L775.758,291.818L751.515,293.182L727.273,286.364L703.03,285L678.788,200.455L654.545,259.091L630.303,270L606.061,286.364L581.818,255L557.576,261.818L533.333,259.091L509.091,282.273L484.848,190.909L460.606,188.182L436.364,263.182L412.121,287.727L387.879,280.909L363.636,272.727L339.394,260.455L315.152,171.818L290.909,238.636L266.667,214.091L242.424,283.636L218.182,293.182L193.939,298.636L169.697,283.636L145.455,300L121.212,300L96.97,300L72.727,298.636L48.485,300L24.242,300L0,300Z" fill="#f58518"/></g></g><path class="foreground" aria-hidden="true" d="" display="none"/></g><g transform="translate(0,0)"><path class="background" aria-hidden="true" d="M0,0h800v300h-800Z"/><g><g class="mark-area role-mark marks" role="graphics-object" aria-roledescription="area mark container"><path aria-label="Date: Mar 16, 2026; Unique Clones/day: 0; Repository: karlmdavis/can-i-kayak-baltimore" role="graphics-symbol" aria-roledescription="area mark" d="M0,300L24.242,300L48.485,300L72.727,298.636L96.97,300L121.212,300L145.455,300L169.697,283.636L193.939,298.636L218.182,293.182L242.424,283.636L266.667,214.091L290.909,238.636L315.152,171.818L339.394,260.455L363.636,272.727L387.879,280.909L412.121,287.727L436.364,263.182L460.606,188.182L484.848,190.909L509.091,282.273L533.333,259.091L557.576,261.818L581.818,255L606.061,286.364L630.303,270L654.545,259.091L678.788,200.455L703.03,285L727.273,286.364L751.515,293.182L775.758,291.818L800,297.273L800,297.273L775.758,291.818L751.515,293.182L727.273,286.364L703.03,285L678.788,203.182L654.545,260.455L630.303,270L606.061,286.364L581.818,256.364L557.576,261.818L533.333,259.091L509.091,282.273L484.848,190.909L460.606,189.545L436.364,263.182L412.121,287.727L387.879,282.273L363.636,272.727L339.394,260.455L315.152,171.818L290.909,238.636L266.667,218.182L242.424,283.636L218.182,293.182L193.939,298.636L169.697,283.636L145.455,300L121.212,300L96.97,300L72.727,298.636L48.485,300L24.242,300L0,300Z" fill="#e45756"/></g></g><path class="foreground" aria-hidden="true" d="" display="none"/></g><g transform="translate(0,0)"><path class="background" aria-hidden="true" d="M0,0h800v300h-800Z"/><g><g class="mark-area role-mark marks" role="graphics-object" aria-roledescription="area mark container"><path aria-label="Date: Mar 16, 2026; Unique Clones/day: 0; Repository: karlmdavis/datanucleus-test-jdo-1-to-n" role="graphics-symbol" aria-roledescription="area mark" d="M0,300L24.242,300L48.485,300L72.727,298.636L96.97,300L121.212,300L145.455,300L169.697,283.636L193.939,298.636L218.182,293.182L242.424,283.636L266.667,218.182L290.909,238.636L315.152,171.818L339.394,260.455L363.636,272.727L387.879,282.273L412.121,287.727L436.364,263.182L460.606,189.545L484.848,190.909L509.091,282.273L533.333,259.091L557.576,261.818L581.818,256.364L606.061,286.364L630.303,270L654.545,260.455L678.788,203.182L703.03,285L727.273,286.364L751.515,293.182L775.758,291.818L800,297.273L800,297.273L775.758,293.182L751.515,293.182L727.273,286.364L703.03,286.364L678.788,203.182L654.545,260.455L630.303,270L606.061,286.364L581.818,256.364L557.576,261.818L533.333,259.091L509.091,282.273L484.848,190.909L460.606,189.545L436.364,263.182L412.121,287.727L387.879,282.273L363.636,272.727L339.394,260.455L315.152,171.818L290.909,240L266.667,218.182L242.424,283.636L218.182,293.182L193.939,298.636L169.697,283.636L145.455,300L121.212,300L96.97,300L72.727,298.636L48.485,300L24.242,300L0,300Z" fill="#72b7b2"/></g></g><path class="foreground" aria-hidden="true" d="" display="none"/></g><g transform="translate(0,0)"><path class="background" aria-hidden="true" d="M0,0h800v300h-800Z"/><g><g class="mark-area role-mark marks" role="graphics-object" aria-roledescription="area mark container"><path aria-label="Date: Mar 16, 2026; Unique Clones/day: 0; Repository: karlmdavis/dotfiles" role="graphics-symbol" aria-roledescription="area mark" d="M0,300L24.242,300L48.485,300L72.727,298.636L96.97,300L121.212,300L145.455,300L169.697,283.636L193.939,298.636L218.182,293.182L242.424,283.636L266.667,218.182L290.909,240L315.152,171.818L339.394,260.455L363.636,272.727L387.879,282.273L412.121,287.727L436.364,263.182L460.606,189.545L484.848,190.909L509.091,282.273L533.333,259.091L557.576,261.818L581.818,256.364L606.061,286.364L630.303,270L654.545,260.455L678.788,203.182L703.03,286.364L727.273,286.364L751.515,293.182L775.758,293.182L800,297.273L800,297.273L775.758,294.545L751.515,294.545L727.273,286.364L703.03,286.364L678.788,210L654.545,260.455L630.303,272.727L606.061,286.364L581.818,257.727L557.576,263.182L533.333,259.091L509.091,282.273L484.848,192.273L460.606,190.909L436.364,263.182L412.121,289.091L387.879,283.636L363.636,274.091L339.394,260.455L315.152,171.818L290.909,240L266.667,220.909L242.424,283.636L218.182,293.182L193.939,298.636L169.697,285L145.455,300L121.212,300L96.97,300L72.727,298.636L48.485,300L24.242,300L0,300Z" fill="#54a24b"/></g></g><path class="foreground" aria-hidden="true" d="" display="none"/></g><g transform="translate(0,0)"><path class="background" aria-hidden="true" d="M0,0h800v300h-800Z"/><g><g class="mark-area role-mark marks" role="graphics-object" aria-roledescription="area mark container"><path aria-label="Date: Mar 16, 2026; Unique Clones/day: 0; Repository: karlmdavis/fhir-benchmarks" role="graphics-symbol" aria-roledescription="area mark" d="M0,300L24.242,300L48.485,300L72.727,298.636L96.97,300L121.212,300L145.455,300L169.697,285L193.939,298.636L218.182,293.182L242.424,283.636L266.667,220.909L290.909,240L315.152,171.818L339.394,260.455L363.636,274.091L387.879,283.636L412.121,289.091L436.364,263.182L460.606,190.909L484.848,192.273L509.091,282.273L533.333,259.091L557.576,263.182L581.818,257.727L606.061,286.364L630.303,272.727L654.545,260.455L678.788,210L703.03,286.364L727.273,286.364L751.515,294.545L775.758,294.545L800,297.273L800,297.273L775.758,295.909L751.515,294.545L727.273,287.727L703.03,290.455L678.788,216.818L654.545,260.455L630.303,275.455L606.061,286.364L581.818,260.455L557.576,272.727L533.333,260.455L509.091,282.273L484.848,193.636L460.606,192.273L436.364,264.545L412.121,289.091L387.879,285L363.636,276.818L339.394,261.818L315.152,173.182L290.909,240L266.667,223.636L242.424,283.636L218.182,294.545L193.939,298.636L169.697,286.364L145.455,300L121.212,300L96.97,300L72.727,298.636L48.485,300L24.242,300L0,300Z" fill="#eeca3b"/></g></g><path class="foreground" aria-hidden="true" d="" display="none"/></g><g transform="translate(0,0)"><path class="background" aria-hidden="true" d="M0,0h800v300h-800Z"/><g><g class="mark-area role-mark marks" role="graphics-object" aria-roledescription="area mark container"><path aria-label="Date: Mar 16, 2026; Unique Clones/day: 0; Repository: karlmdavis/hapi-fhir-jpaserver-starter" role="graphics-symbol" aria-roledescription="area mark" d="M0,300L24.242,300L48.485,300L72.727,298.636L96.97,300L121.212,300L145.455,300L169.697,286.364L193.939,298.636L218.182,294.545L242.424,283.636L266.667,223.636L290.909,240L315.152,173.182L339.394,261.818L363.636,276.818L387.879,285L412.121,289.091L436.364,264.545L460.606,192.273L484.848,193.636L509.091,282.273L533.333,260.455L557.576,272.727L581.818,260.455L606.061,286.364L630.303,275.455L654.545,260.455L678.788,216.818L703.03,290.455L727.273,287.727L751.515,294.545L775.758,295.909L800,297.273L800,297.273L775.758,295.909L751.515,294.545L727.273,287.727L703.03,290.455L678.788,218.182L654.545,260.455L630.303,275.455L606.061,286.364L581.818,260.455L557.576,272.727L533.333,260.455L509.091,282.273L484.848,193.636L460.606,192.273L436.364,265.909L412.121,290.455L387.879,285L363.636,276.818L339.394,261.818L315.152,173.182L290.909,240L266.667,223.636L242.424,285L218.182,294.545L193.939,298.636L169.697,286.364L145.455,300L121.212,300L96.97,300L72.727,298.636L48.485,300L24.242,300L0,300Z" fill="#b279a2"/></g></g><path class="foreground" aria-hidden="true" d="" display="none"/></g><g transform="translate(0,0)"><path class="background" aria-hidden="true" d="M0,0h800v300h-800Z"/><g><g class="mark-area role-mark marks" role="graphics-object" aria-roledescription="area mark container"><path aria-label="Date: Mar 16, 2026; Unique Clones/day: 0; Repository: karlmdavis/hello-rust-actix" role="graphics-symbol" aria-roledescription="area mark" d="M0,300L24.242,300L48.485,300L72.727,298.636L96.97,300L121.212,300L145.455,300L169.697,286.364L193.939,298.636L218.182,294.545L242.424,285L266.667,223.636L290.909,240L315.152,173.182L339.394,261.818L363.636,276.818L387.879,285L412.121,290.455L436.364,265.909L460.606,192.273L484.848,193.636L509.091,282.273L533.333,260.455L557.576,272.727L581.818,260.455L606.061,286.364L630.303,275.455L654.545,260.455L678.788,218.182L703.03,290.455L727.273,287.727L751.515,294.545L775.758,295.909L800,297.273L800,297.273L775.758,295.909L751.515,294.545L727.273,287.727L703.03,290.455L678.788,220.909L654.545,261.818L630.303,275.455L606.061,286.364L581.818,261.818L557.576,272.727L533.333,260.455L509.091,282.273L484.848,193.636L460.606,193.636L436.364,265.909L412.121,290.455L387.879,285L363.636,278.182L339.394,261.818L315.152,173.182L290.909,240L266.667,225L242.424,285L218.182,294.545L193.939,298.636L169.697,286.364L145.455,300L121.212,300L96.97,300L72.727,298.636L48.485,300L24.242,300L0,300Z" fill="#ff9da6"/></g></g><path class="foreground" aria-hidden="true" d="" display="none"/></g><g transform="translate(0,0)"><path class="background" aria-hidden="true" d="M0,0h800v300h-800Z"/><g><g class="mark-area role-mark marks" role="graphics-object" aria-roledescription="area mark container"><path aria-label="Date: Mar 16, 2026; Unique Clones/day: 0; Repository: karlmdavis/jessentials" role="graphics-symbol" aria-roledescription="area mark" d="M0,300L24.242,300L48.485,300L72.727,298.636L96.97,300L121.212,300L145.455,300L169.697,286.364L193.939,298.636L218.182,294.545L242.424,285L266.667,225L290.909,240L315.152,173.182L339.394,261.818L363.636,278.182L387.879,285L412.121,290.455L436.364,265.909L460.606,193.636L484.848,193.636L509.091,282.273L533.333,260.455L557.576,272.727L581.818,261.818L606.061,286.364L630.303,275.455L654.545,261.818L678.788,220.909L703.03,290.455L727.273,287.727L751.515,294.545L775.758,295.909L800,297.273L800,297.273L775.758,295.909L751.515,294.545L727.273,287.727L703.03,290.455L678.788,223.636L654.545,261.818L630.303,276.818L606.061,286.364L581.818,264.545L557.576,283.636L533.333,260.455L509.091,282.273L484.848,193.636L460.606,195L436.364,265.909L412.121,290.455L387.879,285L363.636,278.182L339.394,263.182L315.152,173.182L290.909,240L266.667,226.364L242.424,285L218.182,294.545L193.939,298.636L169.697,287.727L145.455,300L121.212,300L96.97,300L72.727,298.636L48.485,300L24.242,300L0,300Z" fill="#9d755d"/></g></g><path class="foreground" aria-hidden="true" d="" display="none"/></g><g transform="translate(0,0)"><path class="background" aria-hidden="true" d="M0,0h800v300h-800Z"/><g><g class="mark-area role-mark marks" role="graphics-object" aria-roledescription="area mark container"><path aria-label="Date: Mar 16, 2026; Unique Clones/day: 0; Repository: karlmdavis/justdavis-ansible" role="graphics-symbol" aria-roledescription="area mark" d="M0,300L24.242,300L48.485,300L72.727,298.636L96.97,300L121.212,300L145.455,300L169.697,287.727L193.939,298.636L218.182,294.545L242.424,285L266.667,226.364L290.909,240L315.152,173.182L339.394,263.182L363.636,278.182L387.879,285L412.121,290.455L436.364,265.909L460.606,195L484.848,193.636L509.091,282.273L533.333,260.455L557.576,283.636L581.818,264.545L606.061,286.364L630.303,276.818L654.545,261.818L678.788,223.636L703.03,290.455L727.273,287.727L751.515,294.545L775.758,295.909L800,297.273L800,297.273L775.758,295.909L751.515,294.545L727.273,287.727L703.03,290.455L678.788,227.727L654.545,267.273L630.303,276.818L606.061,287.727L581.818,265.909L557.576,283.636L533.333,260.455L509.091,282.273L484.848,193.636L460.606,196.364L436.364,265.909L412.121,290.455L387.879,286.364L363.636,278.182L339.394,263.182L315.152,173.182L290.909,241.364L266.667,227.727L242.424,285L218.182,295.909L193.939,298.636L169.697,287.727L145.455,300L121.212,300L96.97,300L72.727,298.636L48.485,300L24.242,300L0,300Z" fill="#bab0ac"/></g></g><path class="foreground" aria-hidden="true" d="" display="none"/></g><g transform="translate(0,0)"><path class="background" aria-hidden="true" d="M0,0h800v300h-800Z"/><g><g class="mark-area role-mark marks" role="graphics-object" aria-roledescription="area mark container"><path aria-label="Date: Mar 16, 2026; Unique Clones/day: 0; Repository: karlmdavis/justdavis-finances" role="graphics-symbol" aria-roledescription="area mark" d="M0,300L24.242,300L48.485,300L72.727,298.636L96.97,300L121.212,300L145.455,300L169.697,287.727L193.939,298.636L218.182,295.909L242.424,285L266.667,227.727L290.909,241.364L315.152,173.182L339.394,263.182L363.636,278.182L387.879,286.364L412.121,290.455L436.364,265.909L460.606,196.364L484.848,193.636L509.091,282.273L533.333,260.455L557.576,283.636L581.818,265.909L606.061,287.727L630.303,276.818L654.545,267.273L678.788,227.727L703.03,290.455L727.273,287.727L751.515,294.545L775.758,295.909L800,297.273L800,297.273L775.758,295.909L751.515,294.545L727.273,289.091L703.03,293.182L678.788,248.182L654.545,290.455L630.303,279.545L606.061,287.727L581.818,267.273L557.576,285L533.333,283.636L509.091,293.182L484.848,295.909L460.606,274.091L436.364,293.182L412.121,291.818L387.879,287.727L363.636,279.545L339.394,283.636L315.152,289.091L290.909,291.818L266.667,270L242.424,286.364L218.182,297.273L193.939,298.636L169.697,287.727L145.455,300L121.212,300L96.97,300L72.727,298.636L48.485,300L24.242,300L0,300Z" fill="#4c78a8"/></g></g><path class="foreground" aria-hidden="true" d="" display="none"/></g><g transform="translate(0,0)"><path class="background" aria-hidden="true" d="M0,0h800v300h-800Z"/><g><g class="mark-area role-mark marks" role="graphics-object" aria-roledescription="area mark container"><path aria-label="Date: Mar 16, 2026; Unique Clones/day: 0; Repository: karlmdavis/justdavis-karl" role="graphics-symbol" aria-roledescription="area mark" d="M0,300L24.242,300L48.485,300L72.727,298.636L96.97,300L121.212,300L145.455,300L169.697,287.727L193.939,298.636L218.182,297.273L242.424,286.364L266.667,270L290.909,291.818L315.152,289.091L339.394,283.636L363.636,279.545L387.879,287.727L412.121,291.818L436.364,293.182L460.606,274.091L484.848,295.909L509.091,293.182L533.333,283.636L557.576,285L581.818,267.273L606.061,287.727L630.303,279.545L654.545,290.455L678.788,248.182L703.03,293.182L727.273,289.091L751.515,294.545L775.758,295.909L800,297.273L800,297.273L775.758,295.909L751.515,294.545L727.273,289.091L703.03,293.182L678.788,252.273L654.545,291.818L630.303,280.909L606.061,287.727L581.818,270L557.576,285L533.333,283.636L509.091,294.545L484.848,295.909L460.606,275.455L436.364,293.182L412.121,293.182L387.879,287.727L363.636,280.909L339.394,285L315.152,289.091L290.909,293.182L266.667,271.364L242.424,286.364L218.182,297.273L193.939,298.636L169.697,289.091L145.455,300L121.212,300L96.97,300L72.727,298.636L48.485,300L24.242,300L0,300Z" fill="#f58518"/></g></g><path class="foreground" aria-hidden="true" d="" display="none"/></g><g transform="translate(0,0)"><path class="background" aria-hidden="true" d="M0,0h800v300h-800Z"/><g><g class="mark-area role-mark marks" role="graphics-object" aria-roledescription="area mark container"><path aria-label="Date: Mar 16, 2026; Unique Clones/day: 0; Repository: karlmdavis/justdavis-puppet" role="graphics-symbol" aria-roledescription="area mark" d="M0,300L24.242,300L48.485,300L72.727,298.636L96.97,300L121.212,300L145.455,300L169.697,289.091L193.939,298.636L218.182,297.273L242.424,286.364L266.667,271.364L290.909,293.182L315.152,289.091L339.394,285L363.636,280.909L387.879,287.727L412.121,293.182L436.364,293.182L460.606,275.455L484.848,295.909L509.091,294.545L533.333,283.636L557.576,285L581.818,270L606.061,287.727L630.303,280.909L654.545,291.818L678.788,252.273L703.03,293.182L727.273,289.091L751.515,294.545L775.758,295.909L800,297.273L800,297.273L775.758,295.909L751.515,294.545L727.273,289.091L703.03,293.182L678.788,255L654.545,293.182L630.303,282.273L606.061,287.727L581.818,271.364L557.576,286.364L533.333,283.636L509.091,294.545L484.848,295.909L460.606,276.818L436.364,293.182L412.121,293.182L387.879,287.727L363.636,283.636L339.394,286.364L315.152,289.091L290.909,293.182L266.667,272.727L242.424,286.364L218.182,297.273L193.939,298.636L169.697,289.091L145.455,300L121.212,300L96.97,300L72.727,298.636L48.485,300L24.242,300L0,300Z" fill="#e45756"/></g></g><path class="foreground" aria-hidden="true" d="" display="none"/></g><g transform="translate(0,0)"><path class="background" aria-hidden="true" d="M0,0h800v300h-800Z"/><g><g class="mark-area role-mark marks" role="graphics-object" aria-roledescription="area mark container"><path aria-label="Date: Mar 16, 2026; Unique Clones/day: 0; Repository: karlmdavis/kobjects" role="graphics-symbol" aria-roledescription="area mark" d="M0,300L24.242,300L48.485,300L72.727,298.636L96.97,300L121.212,300L145.455,300L169.697,289.091L193.939,298.636L218.182,297.273L242.424,286.364L266.667,272.727L290.909,293.182L315.152,289.091L339.394,286.364L363.636,283.636L387.879,287.727L412.121,293.182L436.364,293.182L460.606,276.818L484.848,295.909L509.091,294.545L533.333,283.636L557.576,286.364L581.818,271.364L606.061,287.727L630.303,282.273L654.545,293.182L678.788,255L703.03,293.182L727.273,289.091L751.515,294.545L775.758,295.909L800,297.273L800,297.273L775.758,295.909L751.515,294.545L727.273,289.091L703.03,293.182L678.788,257.727L654.545,293.182L630.303,283.636L606.061,287.727L581.818,274.091L557.576,286.364L533.333,283.636L509.091,294.545L484.848,295.909L460.606,278.182L436.364,293.182L412.121,293.182L387.879,287.727L363.636,283.636L339.394,286.364L315.152,289.091L290.909,293.182L266.667,274.091L242.424,287.727L218.182,297.273L193.939,298.636L169.697,289.091L145.455,300L121.212,300L96.97,300L72.727,298.636L48.485,300L24.242,300L0,300Z" fill="#72b7b2"/></g></g><path class="foreground" aria-hidden="true" d="" display="none"/></g><g transform="translate(0,0)"><path class="background" aria-hidden="true" d="M0,0h800v300h-800Z"/><g><g class="mark-area role-mark marks" role="graphics-object" aria-roledescription="area mark container"><path aria-label="Date: Mar 16, 2026; Unique Clones/day: 0; Repository: karlmdavis/ksoap2-android" role="graphics-symbol" aria-roledescription="area mark" d="M0,300L24.242,300L48.485,300L72.727,298.636L96.97,300L121.212,300L145.455,300L169.697,289.091L193.939,298.636L218.182,297.273L242.424,287.727L266.667,274.091L290.909,293.182L315.152,289.091L339.394,286.364L363.636,283.636L387.879,287.727L412.121,293.182L436.364,293.182L460.606,278.182L484.848,295.909L509.091,294.545L533.333,283.636L557.576,286.364L581.818,274.091L606.061,287.727L630.303,283.636L654.545,293.182L678.788,257.727L703.03,293.182L727.273,289.091L751.515,294.545L775.758,295.909L800,297.273L800,297.273L775.758,295.909L751.515,294.545L727.273,291.818L703.03,293.182L678.788,260.455L654.545,293.182L630.303,285L606.061,291.818L581.818,275.455L557.576,294.545L533.333,290.455L509.091,295.909L484.848,295.909L460.606,282.273L436.364,293.182L412.121,294.545L387.879,289.091L363.636,285L339.394,291.818L315.152,291.818L290.909,293.182L266.667,275.455L242.424,291.818L218.182,297.273L193.939,298.636L169.697,290.455L145.455,300L121.212,300L96.97,300L72.727,298.636L48.485,300L24.242,300L0,300Z" fill="#54a24b"/></g></g><path class="foreground" aria-hidden="true" d="" display="none"/></g><g transform="translate(0,0)"><path class="background" aria-hidden="true" d="M0,0h800v300h-800Z"/><g><g class="mark-area role-mark marks" role="graphics-object" aria-roledescription="area mark container"><path aria-label="Date: Mar 16, 2026; Unique Clones/day: 0; Repository: karlmdavis/kxml2" role="graphics-symbol" aria-roledescription="area mark" d="M0,300L24.242,300L48.485,300L72.727,298.636L96.97,300L121.212,300L145.455,300L169.697,290.455L193.939,298.636L218.182,297.273L242.424,291.818L266.667,275.455L290.909,293.182L315.152,291.818L339.394,291.818L363.636,285L387.879,289.091L412.121,294.545L436.364,293.182L460.606,282.273L484.848,295.909L509.091,295.909L533.333,290.455L557.576,294.545L581.818,275.455L606.061,291.818L630.303,285L654.545,293.182L678.788,260.455L703.03,293.182L727.273,291.818L751.515,294.545L775.758,295.909L800,297.273L800,297.273L775.758,295.909L751.515,295.909L727.273,293.182L703.03,294.545L678.788,264.545L654.545,293.182L630.303,285L606.061,291.818L581.818,276.818L557.576,294.545L533.333,291.818L509.091,297.273L484.848,297.273L460.606,283.636L436.364,293.182L412.121,294.545L387.879,289.091L363.636,286.364L339.394,295.909L315.152,293.182L290.909,293.182L266.667,278.182L242.424,293.182L218.182,297.273L193.939,298.636L169.697,291.818L145.455,300L121.212,300L96.97,300L72.727,298.636L48.485,300L24.242,300L0,300Z" fill="#eeca3b"/></g></g><path class="foreground" aria-hidden="true" d="" display="none"/></g><g transform="translate(0,0)"><path class="background" aria-hidden="true" d="M0,0h800v300h-800Z"/><g><g class="mark-area role-mark marks" role="graphics-object" aria-roledescription="area mark container"><path aria-label="Date: Mar 16, 2026; Unique Clones/day: 0; Repository: karlmdavis/ldap-plugin" role="graphics-symbol" aria-roledescription="area mark" d="M0,300L24.242,300L48.485,300L72.727,298.636L96.97,300L121.212,300L145.455,300L169.697,291.818L193.939,298.636L218.182,297.273L242.424,293.182L266.667,278.182L290.909,293.182L315.152,293.182L339.394,295.909L363.636,286.364L387.879,289.091L412.121,294.545L436.364,293.182L460.606,283.636L484.848,297.273L509.091,297.273L533.333,291.818L557.576,294.545L581.818,276.818L606.061,291.818L630.303,285L654.545,293.182L678.788,264.545L703.03,294.545L727.273,293.182L751.515,295.909L775.758,295.909L800,297.273L800,297.273L775.758,295.909L751.515,295.909L727.273,293.182L703.03,294.545L678.788,264.545L654.545,293.182L630.303,285L606.061,291.818L581.818,276.818L557.576,294.545L533.333,291.818L509.091,297.273L484.848,297.273L460.606,283.636L436.364,294.545L412.121,295.909L387.879,289.091L363.636,286.364L339.394,295.909L315.152,293.182L290.909,293.182L266.667,278.182L242.424,293.182L218.182,297.273L193.939,298.636L169.697,291.818L145.455,300L121.212,300L96.97,300L72.727,298.636L48.485,300L24.242,300L0,300Z" fill="#b279a2"/></g></g><path class="foreground" aria-hidden="true" d="" display="none"/></g><g transform="translate(0,0)"><path class="background" aria-hidden="true" d="M0,0h800v300h-800Z"/><g><g class="mark-area role-mark marks" role="graphics-object" aria-roledescription="area mark container"><path aria-label="Date: Mar 16, 2026; Unique Clones/day: 0; Repository: karlmdavis/lego-ev3dev-rs" role="graphics-symbol" aria-roledescription="area mark" d="M0,300L24.242,300L48.485,300L72.727,298.636L96.97,300L121.212,300L145.455,300L169.697,291.818L193.939,298.636L218.182,297.273L242.424,293.182L266.667,278.182L290.909,293.182L315.152,293.182L339.394,295.909L363.636,286.364L387.879,289.091L412.121,295.909L436.364,294.545L460.606,283.636L484.848,297.273L509.091,297.273L533.333,291.818L557.576,294.545L581.818,276.818L606.061,291.818L630.303,285L654.545,293.182L678.788,264.545L703.03,294.545L727.273,293.182L751.515,295.909L775.758,295.909L800,297.273L800,298.636L775.758,297.273L751.515,295.909L727.273,294.545L703.03,294.545L678.788,268.636L654.545,293.182L630.303,287.727L606.061,291.818L581.818,279.545L557.576,294.545L533.333,293.182L509.091,297.273L484.848,298.636L460.606,285L436.364,295.909L412.121,295.909L387.879,290.455L363.636,289.091L339.394,295.909L315.152,294.545L290.909,294.545L266.667,282.273L242.424,293.182L218.182,298.636L193.939,298.636L169.697,293.182L145.455,300L121.212,300L96.97,300L72.727,298.636L48.485,300L24.242,300L0,300Z" fill="#ff9da6"/></g></g><path class="foreground" aria-hidden="true" d="" display="none"/></g><g transform="translate(0,0)"><path class="background" aria-hidden="true" d="M0,0h800v300h-800Z"/><g><g class="mark-area role-mark marks" role="graphics-object" aria-roledescription="area mark container"><path aria-label="Date: Mar 16, 2026; Unique Clones/day: 0; Repository: karlmdavis/liquibase" role="graphics-symbol" aria-roledescription="area mark" d="M0,300L24.242,300L48.485,300L72.727,298.636L96.97,300L121.212,300L145.455,300L169.697,293.182L193.939,298.636L218.182,298.636L242.424,293.182L266.667,282.273L290.909,294.545L315.152,294.545L339.394,295.909L363.636,289.091L387.879,290.455L412.121,295.909L436.364,295.909L460.606,285L484.848,298.636L509.091,297.273L533.333,293.182L557.576,294.545L581.818,279.545L606.061,291.818L630.303,287.727L654.545,293.182L678.788,268.636L703.03,294.545L727.273,294.545L751.515,295.909L775.758,297.273L800,298.636L800,298.636L775.758,297.273L751.515,295.909L727.273,294.545L703.03,294.545L678.788,268.636L654.545,293.182L630.303,287.727L606.061,293.182L581.818,280.909L557.576,294.545L533.333,293.182L509.091,297.273L484.848,298.636L460.606,285L436.364,295.909L412.121,295.909L387.879,290.455L363.636,289.091L339.394,295.909L315.152,294.545L290.909,294.545L266.667,282.273L242.424,293.182L218.182,298.636L193.939,298.636L169.697,293.182L145.455,300L121.212,300L96.97,300L72.727,300L48.485,300L24.242,300L0,300Z" fill="#9d755d"/></g></g><path class="foreground" aria-hidden="true" d="" display="none"/></g><g transform="translate(0,0)"><path class="background" aria-hidden="true" d="M0,0h800v300h-800Z"/><g><g class="mark-area role-mark marks" role="graphics-object" aria-roledescription="area mark container"><path aria-label="Date: Mar 16, 2026; Unique Clones/day: 0; Repository: karlmdavis/m2e-core" role="graphics-symbol" aria-roledescription="area mark" d="M0,300L24.242,300L48.485,300L72.727,300L96.97,300L121.212,300L145.455,300L169.697,293.182L193.939,298.636L218.182,298.636L242.424,293.182L266.667,282.273L290.909,294.545L315.152,294.545L339.394,295.909L363.636,289.091L387.879,290.455L412.121,295.909L436.364,295.909L460.606,285L484.848,298.636L509.091,297.273L533.333,293.182L557.576,294.545L581.818,280.909L606.061,293.182L630.303,287.727L654.545,293.182L678.788,268.636L703.03,294.545L727.273,294.545L751.515,295.909L775.758,297.273L800,298.636L800,298.636L775.758,297.273L751.515,295.909L727.273,294.545L703.03,294.545L678.788,271.364L654.545,293.182L630.303,289.091L606.061,294.545L581.818,283.636L557.576,295.909L533.333,294.545L509.091,297.273L484.848,298.636L460.606,286.364L436.364,295.909L412.121,295.909L387.879,290.455L363.636,289.091L339.394,295.909L315.152,295.909L290.909,294.545L266.667,283.636L242.424,293.182L218.182,298.636L193.939,298.636L169.697,293.182L145.455,300L121.212,300L96.97,300L72.727,300L48.485,300L24.242,300L0,300Z" fill="#bab0ac"/></g></g><path class="foreground" aria-hidden="true" d="" display="none"/></g><g transform="translate(0,0)"><path class="background" aria-hidden="true" d="M0,0h800v300h-800Z"/><g><g class="mark-area role-mark marks" role="graphics-object" aria-roledescription="area mark container"><path aria-label="Date: Mar 16, 2026; Unique Clones/day: 0; Repository: karlmdavis/m2e-core-tests" role="graphics-symbol" aria-roledescription="area mark" d="M0,300L24.242,300L48.485,300L72.727,300L96.97,300L121.212,300L145.455,300L169.697,293.182L193.939,298.636L218.182,298.636L242.424,293.182L266.667,283.636L290.909,294.545L315.152,295.909L339.394,295.909L363.636,289.091L387.879,290.455L412.121,295.909L436.364,295.909L460.606,286.364L484.848,298.636L509.091,297.273L533.333,294.545L557.576,295.909L581.818,283.636L606.061,294.545L630.303,289.091L654.545,293.182L678.788,271.364L703.03,294.545L727.273,294.545L751.515,295.909L775.758,297.273L800,298.636L800,298.636L775.758,297.273L751.515,295.909L727.273,294.545L703.03,294.545L678.788,271.364L654.545,294.545L630.303,289.091L606.061,297.273L581.818,285L557.576,297.273L533.333,295.909L509.091,297.273L484.848,298.636L460.606,286.364L436.364,295.909L412.121,295.909L387.879,293.182L363.636,289.091L339.394,295.909L315.152,295.909L290.909,295.909L266.667,283.636L242.424,294.545L218.182,298.636L193.939,298.636L169.697,293.182L145.455,300L121.212,300L96.97,300L72.727,300L48.485,300L24.242,300L0,300Z" fill="#4c78a8"/></g></g><path class="foreground" aria-hidden="true" d="" display="none"/></g><g transform="translate(0,0)"><path class="background" aria-hidden="true" d="M0,0h800v300h-800Z"/><g><g class="mark-area role-mark marks" role="graphics-object" aria-roledescription="area mark container"><path aria-label="Date: Mar 16, 2026; Unique Clones/day: 0; Repository: karlmdavis/obsidian-operator" role="graphics-symbol" aria-roledescription="area mark" d="M0,300L24.242,300L48.485,300L72.727,300L96.97,300L121.212,300L145.455,300L169.697,293.182L193.939,298.636L218.182,298.636L242.424,294.545L266.667,283.636L290.909,295.909L315.152,295.909L339.394,295.909L363.636,289.091L387.879,293.182L412.121,295.909L436.364,295.909L460.606,286.364L484.848,298.636L509.091,297.273L533.333,295.909L557.576,297.273L581.818,285L606.061,297.273L630.303,289.091L654.545,294.545L678.788,271.364L703.03,294.545L727.273,294.545L751.515,295.909L775.758,297.273L800,298.636L800,298.636L775.758,297.273L751.515,295.909L727.273,297.273L703.03,295.909L678.788,274.091L654.545,295.909L630.303,291.818L606.061,297.273L581.818,286.364L557.576,297.273L533.333,295.909L509.091,297.273L484.848,298.636L460.606,287.727L436.364,298.636L412.121,295.909L387.879,293.182L363.636,293.182L339.394,295.909L315.152,295.909L290.909,295.909L266.667,285L242.424,294.545L218.182,298.636L193.939,298.636L169.697,294.545L145.455,300L121.212,300L96.97,300L72.727,300L48.485,300L24.242,300L0,300Z" fill="#f58518"/></g></g><path class="foreground" aria-hidden="true" d="" display="none"/></g><g transform="translate(0,0)"><path class="background" aria-hidden="true" d="M0,0h800v300h-800Z"/><g><g class="mark-area role-mark marks" role="graphics-object" aria-roledescription="area mark container"><path aria-label="Date: Mar 16, 2026; Unique Clones/day: 0; Repository: karlmdavis/perfect-note" role="graphics-symbol" aria-roledescription="area mark" d="M0,300L24.242,300L48.485,300L72.727,300L96.97,300L121.212,300L145.455,300L169.697,294.545L193.939,298.636L218.182,298.636L242.424,294.545L266.667,285L290.909,295.909L315.152,295.909L339.394,295.909L363.636,293.182L387.879,293.182L412.121,295.909L436.364,298.636L460.606,287.727L484.848,298.636L509.091,297.273L533.333,295.909L557.576,297.273L581.818,286.364L606.061,297.273L630.303,291.818L654.545,295.909L678.788,274.091L703.03,295.909L727.273,297.273L751.515,295.909L775.758,297.273L800,298.636L800,298.636L775.758,297.273L751.515,295.909L727.273,297.273L703.03,297.273L678.788,276.818L654.545,295.909L630.303,291.818L606.061,297.273L581.818,287.727L557.576,297.273L533.333,295.909L509.091,297.273L484.848,298.636L460.606,289.091L436.364,298.636L412.121,295.909L387.879,293.182L363.636,293.182L339.394,295.909L315.152,295.909L290.909,297.273L266.667,286.364L242.424,295.909L218.182,298.636L193.939,298.636L169.697,294.545L145.455,300L121.212,300L96.97,300L72.727,300L48.485,300L24.242,300L0,300Z" fill="#e45756"/></g></g><path class="foreground" aria-hidden="true" d="" display="none"/></g><g transform="translate(0,0)"><path class="background" aria-hidden="true" d="M0,0h800v300h-800Z"/><g><g class="mark-area role-mark marks" role="graphics-object" aria-roledescription="area mark container"><path aria-label="Date: Mar 16, 2026; Unique Clones/day: 0; Repository: karlmdavis/puppet-archive" role="graphics-symbol" aria-roledescription="area mark" d="M0,300L24.242,300L48.485,300L72.727,300L96.97,300L121.212,300L145.455,300L169.697,294.545L193.939,298.636L218.182,298.636L242.424,295.909L266.667,286.364L290.909,297.273L315.152,295.909L339.394,295.909L363.636,293.182L387.879,293.182L412.121,295.909L436.364,298.636L460.606,289.091L484.848,298.636L509.091,297.273L533.333,295.909L557.576,297.273L581.818,287.727L606.061,297.273L630.303,291.818L654.545,295.909L678.788,276.818L703.03,297.273L727.273,297.273L751.515,295.909L775.758,297.273L800,298.636L800,298.636L775.758,297.273L751.515,295.909L727.273,297.273L703.03,297.273L678.788,276.818L654.545,295.909L630.303,293.182L606.061,297.273L581.818,289.091L557.576,297.273L533.333,295.909L509.091,297.273L484.848,298.636L460.606,289.091L436.364,298.636L412.121,295.909L387.879,293.182L363.636,293.182L339.394,295.909L315.152,295.909L290.909,297.273L266.667,286.364L242.424,295.909L218.182,298.636L193.939,298.636L169.697,295.909L145.455,300L121.212,300L96.97,300L72.727,300L48.485,300L24.242,300L0,300Z" fill="#72b7b2"/></g></g><path class="foreground" aria-hidden="true" d="" display="none"/></g><g transform="translate(0,0)"><path class="background" aria-hidden="true" d="M0,0h800v300h-800Z"/><g><g class="mark-area role-mark marks" role="graphics-object" aria-roledescription="area mark container"><path aria-label="Date: Mar 16, 2026; Unique Clones/day: 0; Repository: karlmdavis/puppet-sonar" role="graphics-symbol" aria-roledescription="area mark" d="M0,300L24.242,300L48.485,300L72.727,300L96.97,300L121.212,300L145.455,300L169.697,295.909L193.939,298.636L218.182,298.636L242.424,295.909L266.667,286.364L290.909,297.273L315.152,295.909L339.394,295.909L363.636,293.182L387.879,293.182L412.121,295.909L436.364,298.636L460.606,289.091L484.848,298.636L509.091,297.273L533.333,295.909L557.576,297.273L581.818,289.091L606.061,297.273L630.303,293.182L654.545,295.909L678.788,276.818L703.03,297.273L727.273,297.273L751.515,295.909L775.758,297.273L800,298.636L800,298.636L775.758,297.273L751.515,295.909L727.273,297.273L703.03,298.636L678.788,276.818L654.545,295.909L630.303,294.545L606.061,297.273L581.818,289.091L557.576,298.636L533.333,297.273L509.091,297.273L484.848,298.636L460.606,289.091L436.364,298.636L412.121,297.273L387.879,293.182L363.636,295.909L339.394,295.909L315.152,295.909L290.909,298.636L266.667,286.364L242.424,295.909L218.182,298.636L193.939,298.636L169.697,295.909L145.455,300L121.212,300L96.97,300L72.727,300L48.485,300L24.242,300L0,300Z" fill="#54a24b"/></g></g><path class="foreground" aria-hidden="true" d="" display="none"/></g><g transform="translate(0,0)"><path class="background" aria-hidden="true" d="M0,0h800v300h-800Z"/><g><g class="mark-area role-mark marks" role="graphics-object" aria-roledescription="area mark container"><path aria-label="Date: Mar 16, 2026; Unique Clones/day: 0; Repository: karlmdavis/rps-tourney" role="graphics-symbol" aria-roledescription="area mark" d="M0,300L24.242,300L48.485,300L72.727,300L96.97,300L121.212,300L145.455,300L169.697,295.909L193.939,298.636L218.182,298.636L242.424,295.909L266.667,286.364L290.909,298.636L315.152,295.909L339.394,295.909L363.636,295.909L387.879,293.182L412.121,297.273L436.364,298.636L460.606,289.091L484.848,298.636L509.091,297.273L533.333,297.273L557.576,298.636L581.818,289.091L606.061,297.273L630.303,294.545L654.545,295.909L678.788,276.818L703.03,298.636L727.273,297.273L751.515,295.909L775.758,297.273L800,298.636L800,298.636L775.758,297.273L751.515,295.909L727.273,297.273L703.03,298.636L678.788,279.545L654.545,295.909L630.303,295.909L606.061,297.273L581.818,290.455L557.576,298.636L533.333,297.273L509.091,297.273L484.848,298.636L460.606,290.455L436.364,298.636L412.121,298.636L387.879,293.182L363.636,295.909L339.394,295.909L315.152,295.909L290.909,298.636L266.667,287.727L242.424,295.909L218.182,298.636L193.939,298.636L169.697,297.273L145.455,300L121.212,300L96.97,300L72.727,300L48.485,300L24.242,300L0,300Z" fill="#eeca3b"/></g></g><path class="foreground" aria-hidden="true" d="" display="none"/></g><g transform="translate(0,0)"><path class="background" aria-hidden="true" d="M0,0h800v300h-800Z"/><g><g class="mark-area role-mark marks" role="graphics-object" aria-roledescription="area mark container"><path aria-label="Date: Mar 16, 2026; Unique Clones/day: 0; Repository: karlmdavis/sample-maven-and-rcp" role="graphics-symbol" aria-roledescription="area mark" d="M0,300L24.242,300L48.485,300L72.727,300L96.97,300L121.212,300L145.455,300L169.697,297.273L193.939,298.636L218.182,298.636L242.424,295.909L266.667,287.727L290.909,298.636L315.152,295.909L339.394,295.909L363.636,295.909L387.879,293.182L412.121,298.636L436.364,298.636L460.606,290.455L484.848,298.636L509.091,297.273L533.333,297.273L557.576,298.636L581.818,290.455L606.061,297.273L630.303,295.909L654.545,295.909L678.788,279.545L703.03,298.636L727.273,297.273L751.515,295.909L775.758,297.273L800,298.636L800,298.636L775.758,297.273L751.515,295.909L727.273,297.273L703.03,298.636L678.788,282.273L654.545,295.909L630.303,295.909L606.061,297.273L581.818,291.818L557.576,298.636L533.333,297.273L509.091,297.273L484.848,298.636L460.606,291.818L436.364,298.636L412.121,298.636L387.879,294.545L363.636,295.909L339.394,295.909L315.152,295.909L290.909,298.636L266.667,289.091L242.424,295.909L218.182,298.636L193.939,298.636L169.697,297.273L145.455,300L121.212,300L96.97,300L72.727,300L48.485,300L24.242,300L0,300Z" fill="#b279a2"/></g></g><path class="foreground" aria-hidden="true" d="" display="none"/></g><g transform="translate(0,0)"><path class="background" aria-hidden="true" d="M0,0h800v300h-800Z"/><g><g class="mark-area role-mark marks" role="graphics-object" aria-roledescription="area mark container"><path aria-label="Date: Mar 16, 2026; Unique Clones/day: 0; Repository: karlmdavis/stockfighter-trades-solutions" role="graphics-symbol" aria-roledescription="area mark" d="M0,300L24.242,300L48.485,300L72.727,300L96.97,300L121.212,300L145.455,300L169.697,297.273L193.939,298.636L218.182,298.636L242.424,295.909L266.667,289.091L290.909,298.636L315.152,295.909L339.394,295.909L363.636,295.909L387.879,294.545L412.121,298.636L436.364,298.636L460.606,291.818L484.848,298.636L509.091,297.273L533.333,297.273L557.576,298.636L581.818,291.818L606.061,297.273L630.303,295.909L654.545,295.909L678.788,282.273L703.03,298.636L727.273,297.273L751.515,295.909L775.758,297.273L800,298.636L800,298.636L775.758,297.273L751.515,295.909L727.273,297.273L703.03,298.636L678.788,286.364L654.545,295.909L630.303,295.909L606.061,297.273L581.818,293.182L557.576,298.636L533.333,297.273L509.091,297.273L484.848,298.636L460.606,293.182L436.364,298.636L412.121,298.636L387.879,294.545L363.636,295.909L339.394,295.909L315.152,297.273L290.909,298.636L266.667,291.818L242.424,295.909L218.182,298.636L193.939,298.636L169.697,297.273L145.455,300L121.212,300L96.97,300L72.727,300L48.485,300L24.242,300L0,300Z" fill="#ff9da6"/></g></g><path class="foreground" aria-hidden="true" d="" display="none"/></g><g transform="translate(0,0)"><path class="background" aria-hidden="true" d="M0,0h800v300h-800Z"/><g><g class="mark-area role-mark marks" role="graphics-object" aria-roledescription="area mark container"><path aria-label="Date: Mar 16, 2026; Unique Clones/day: 0; Repository: karlmdavis/test-repo-for-move" role="graphics-symbol" aria-roledescription="area mark" d="M0,300L24.242,300L48.485,300L72.727,300L96.97,300L121.212,300L145.455,300L169.697,297.273L193.939,298.636L218.182,298.636L242.424,295.909L266.667,291.818L290.909,298.636L315.152,297.273L339.394,295.909L363.636,295.909L387.879,294.545L412.121,298.636L436.364,298.636L460.606,293.182L484.848,298.636L509.091,297.273L533.333,297.273L557.576,298.636L581.818,293.182L606.061,297.273L630.303,295.909L654.545,295.909L678.788,286.364L703.03,298.636L727.273,297.273L751.515,295.909L775.758,297.273L800,298.636L800,298.636L775.758,297.273L751.515,297.273L727.273,297.273L703.03,298.636L678.788,289.091L654.545,295.909L630.303,295.909L606.061,297.273L581.818,294.545L557.576,298.636L533.333,297.273L509.091,297.273L484.848,298.636L460.606,294.545L436.364,298.636L412.121,298.636L387.879,294.545L363.636,295.909L339.394,295.909L315.152,298.636L290.909,298.636L266.667,293.182L242.424,297.273L218.182,298.636L193.939,298.636L169.697,297.273L145.455,300L121.212,300L96.97,300L72.727,300L48.485,300L24.242,300L0,300Z" fill="#9d755d"/></g></g><path class="foreground" aria-hidden="true" d="" display="none"/></g><g transform="translate(0,0)"><path class="background" aria-hidden="true" d="M0,0h800v300h-800Z"/><g><g class="mark-area role-mark marks" role="graphics-object" aria-roledescription="area mark container"><path aria-label="Date: Mar 16, 2026; Unique Clones/day: 0; Repository: karlmdavis/todoist-ai" role="graphics-symbol" aria-roledescription="area mark" d="M0,300L24.242,300L48.485,300L72.727,300L96.97,300L121.212,300L145.455,300L169.697,297.273L193.939,298.636L218.182,298.636L242.424,297.273L266.667,293.182L290.909,298.636L315.152,298.636L339.394,295.909L363.636,295.909L387.879,294.545L412.121,298.636L436.364,298.636L460.606,294.545L484.848,298.636L509.091,297.273L533.333,297.273L557.576,298.636L581.818,294.545L606.061,297.273L630.303,295.909L654.545,295.909L678.788,289.091L703.03,298.636L727.273,297.273L751.515,297.273L775.758,297.273L800,298.636L800,298.636L775.758,297.273L751.515,297.273L727.273,298.636L703.03,298.636L678.788,289.091L654.545,295.909L630.303,297.273L606.061,297.273L581.818,294.545L557.576,298.636L533.333,297.273L509.091,297.273L484.848,298.636L460.606,294.545L436.364,298.636L412.121,298.636L387.879,297.273L363.636,295.909L339.394,295.909L315.152,298.636L290.909,298.636L266.667,293.182L242.424,297.273L218.182,298.636L193.939,298.636L169.697,297.273L145.455,300L121.212,300L96.97,300L72.727,300L48.485,300L24.242,300L0,300Z" fill="#bab0ac"/></g></g><path class="foreground" aria-hidden="true" d="" display="none"/></g><g transform="translate(0,0)"><path class="background" aria-hidden="true" d="M0,0h800v300h-800Z"/><g><g class="mark-area role-mark marks" role="graphics-object" aria-roledescription="area mark container"><path aria-label="Date: Mar 16, 2026; Unique Clones/day: 0; Repository: karlmdavis/usgs-water-api-java" role="graphics-symbol" aria-roledescription="area mark" d="M0,300L24.242,300L48.485,300L72.727,300L96.97,300L121.212,300L145.455,300L169.697,297.273L193.939,298.636L218.182,298.636L242.424,297.273L266.667,293.182L290.909,298.636L315.152,298.636L339.394,295.909L363.636,295.909L387.879,297.273L412.121,298.636L436.364,298.636L460.606,294.545L484.848,298.636L509.091,297.273L533.333,297.273L557.576,298.636L581.818,294.545L606.061,297.273L630.303,297.273L654.545,295.909L678.788,289.091L703.03,298.636L727.273,298.636L751.515,297.273L775.758,297.273L800,298.636L800,300L775.758,298.636L751.515,300L727.273,300L703.03,300L678.788,293.182L654.545,300L630.303,298.636L606.061,298.636L581.818,297.273L557.576,300L533.333,298.636L509.091,300L484.848,300L460.606,297.273L436.364,300L412.121,300L387.879,298.636L363.636,297.273L339.394,298.636L315.152,300L290.909,300L266.667,295.909L242.424,300L218.182,300L193.939,300L169.697,300L145.455,300L121.212,300L96.97,300L72.727,300L48.485,300L24.242,300L0,300Z" fill="#4c78a8"/></g></g><path class="foreground" aria-hidden="true" d="" display="none"/></g><g transform="translate(0,0)"><path class="background" aria-hidden="true" d="M0,0h800v300h-800Z"/><g><g class="mark-area role-mark marks" role="graphics-object" aria-roledescription="area mark container"><path aria-label="Date: Mar 16, 2026; Unique Clones/day: 0; Repository: karlmdavis/workstation-base-ansible-role" role="graphics-symbol" aria-roledescription="area mark" d="M0,300L24.242,300L48.485,300L72.727,300L96.97,300L121.212,300L145.455,300L169.697,300L193.939,300L218.182,300L242.424,300L266.667,295.909L290.909,300L315.152,300L339.394,298.636L363.636,297.273L387.879,298.636L412.121,300L436.364,300L460.606,297.273L484.848,300L509.091,300L533.333,298.636L557.576,300L581.818,297.273L606.061,298.636L630.303,298.636L654.545,300L678.788,293.182L703.03,300L727.273,300L751.515,300L775.758,298.636L800,300L800,300L775.758,298.636L751.515,300L727.273,300L703.03,300L678.788,297.273L654.545,300L630.303,300L606.061,298.636L581.818,298.636L557.576,300L533.333,298.636L509.091,300L484.848,300L460.606,298.636L436.364,300L412.121,300L387.879,300L363.636,298.636L339.394,300L315.152,300L290.909,300L266.667,298.636L242.424,300L218.182,300L193.939,300L169.697,300L145.455,300L121.212,300L96.97,300L72.727,300L48.485,300L24.242,300L0,300Z" fill="#f58518"/></g></g><path class="foreground" aria-hidden="true" d="" display="none"/></g><g transform="translate(0,0)"><path class="background" aria-hidden="true" d="M0,0h800v300h-800Z"/><g><g class="mark-area role-mark marks" role="graphics-object" aria-roledescription="area mark container"><path aria-label="Date: Mar 16, 2026; Unique Clones/day: 0; Repository: karlmdavis/xmlpull" role="graphics-symbol" aria-roledescription="area mark" d="M0,300L24.242,300L48.485,300L72.727,300L96.97,300L121.212,300L145.455,300L169.697,300L193.939,300L218.182,300L242.424,300L266.667,298.636L290.909,300L315.152,300L339.394,300L363.636,298.636L387.879,300L412.121,300L436.364,300L460.606,298.636L484.848,300L509.091,300L533.333,298.636L557.576,300L581.818,298.636L606.061,298.636L630.303,300L654.545,300L678.788,297.273L703.03,300L727.273,300L751.515,300L775.758,298.636L800,300L800,300L775.758,300L751.515,300L727.273,300L703.03,300L678.788,300L654.545,300L630.303,300L606.061,300L581.818,300L557.576,300L533.333,300L509.091,300L484.848,300L460.606,300L436.364,300L412.121,300L387.879,300L363.636,300L339.394,300L315.152,300L290.909,300L266.667,300L242.424,300L218.182,300L193.939,300L169.697,300L145.455,300L121.212,300L96.97,300L72.727,300L48.485,300L24.242,300L0,300Z" fill="#e45756"/></g></g><path class="foreground" aria-hidden="true" d="" display="none"/></g></g><g class="mark-group role-legend" role="graphics-symbol" aria-roledescription="legend" aria-label="Symbol legend titled 'Repository' for fill color with 43 values: justdavis-family/github-analytics-data, justdavis-family/justdavis, karlmdavis/FHIR-Server, karlmdavis/ansible, karlmdavis/ansible-jenkins, ending with karlmdavis/xmlpull"><g transform="translate(818,0)"><path class="background" aria-hidden="true" d="M0,0h176v404h-176Z" pointer-events="none"/><g><g class="mark-group role-legend-entry"><g transform="translate(0,16)"><path class="background" aria-hidden="true" d="M0,0h0v0h0Z" pointer-events="none"/><g><g class="mark-group role-scope" role="graphics-object" aria-roledescription="group mark container"><g transform="translate(0,0)"><path class="background" aria-hidden="true" d="M0,0h176v11h-176Z" pointer-events="none" opacity="1"/><g><g class="mark-symbol role-legend-symbol" pointer-events="none"><path transform="translate(6,6)" d="M5,0A5,5,0,1,1,-5,0A5,5,0,1,1,5,0" fill="#4c78a8" stroke-width="1.5" opacity="1"/></g><g class="mark-text role-legend-label" pointer-events="none"><text text-anchor="start" transform="translate(16,9)" font-family="sans-serif" font-size="10px" fill="#000" opacity="1">justdavis-family/github-analytics-d…</text></g></g><path class="foreground" aria-hidden="true" d="" pointer-events="none" display="none"/></g><g transform="translate(0,13)"><path class="background" aria-hidden="true" d="M0,0h176v11h-176Z" pointer-events="none" opacity="1"/><g><g class="mark-symbol role-legend-symbol" pointer-events="none"><path transform="translate(6,6)" d="M5,0A5,5,0,1,1,-5,0A5,5,0,1,1,5,0" fill="#f58518" stroke-width="1.5" opacity="1"/></g><g class="mark-text role-legend-label" pointer-events="none"><text text-anchor="start" transform="translate(16,9)" font-family="sans-serif" font-size="10px" fill="#000" opacity="1">justdavis-family/justdavis</text></g></g><path class="foreground" aria-hidden="true" d="" pointer-events="none" display="none"/></g><g transform="translate(0,26)"><path class="background" aria-hidden="true" d="M0,0h176v11h-176Z" pointer-events="none" opacity="1"/><g><g class="mark-symbol role-legend-symbol" pointer-events="none"><path transform="translate(6,6)" d="M5,0A5,5,0,1,1,-5,0A5,5,0,1,1,5,0" fill="#e45756" stroke-width="1.5" opacity="1"/></g><g class="mark-text role-legend-label" pointer-events="none"><text text-anchor="start" transform="translate(16,9)" font-family="sans-serif" font-size="10px" fill="#000" opacity="1">karlmdavis/FHIR-Server</text></g></g><path class="foreground" aria-hidden="true" d="" pointer-events="none" display="none"/></g><g transform="translate(0,39)"><path class="background" aria-hidden="true" d="M0,0h176v11h-176Z" pointer-events="none" opacity="1"/><g><g class="mark-symbol role-legend-symbol" pointer-events="none"><path transform="translate(6,6)" d="M5,0A5,5,0,1,1,-5,0A5,5,0,1,1,5,0" fill="#72b7b2" stroke-width="1.5" opacity="1"/></g><g class="mark-text role-legend-label" pointer-events="none"><text text-anchor="start" transform="translate(16,9)" font-family="sans-serif" font-size="10px" fill="#000" opacity="1">karlmdavis/ansible</text></g></g><path class="foreground" aria-hidden="true" d="" pointer-events="none" display="none"/></g><g transform="translate(0,52)"><path class="background" aria-hidden="true" d="M0,0h176v11h-176Z" pointer-events="none" opacity="1"/><g><g class="mark-symbol role-legend-symbol" pointer-events="none"><path transform="translate(6,6)" d="M5,0A5,5,0,1,1,-5,0A5,5,0,1,1,5,0" fill="#54a24b" stroke-width="1.5" opacity="1"/></g><g class="mark-text role-legend-label" pointer-events="none"><text text-anchor="start" transform="translate(16,9)" font-family="sans-serif" font-size="10px" fill="#000" opacity="1">karlmdavis/ansible-jenkins</text></g></g><path class="foreground" aria-hidden="true" d="" pointer-events="none" display="none"/></g><g transform="translate(0,65)"><path class="background" aria-hidden="true" d="M0,0h176v11h-176Z" pointer-events="none" opacity="1"/><g><g class="mark-symbol role-legend-symbol" pointer-events="none"><path transform="translate(6,6)" d="M5,0A5,5,0,1,1,-5,0A5,5,0,1,1,5,0" fill="#eeca3b" stroke-width="1.5" opacity="1"/></g><g class="mark-text role-legend-label" pointer-events="none"><text text-anchor="start" transform="translate(16,9)" font-family="sans-serif" font-size="10px" fill="#000" opacity="1">karlmdavis/ansible-role-acmetool</text></g></g><path class="foreground" aria-hidden="true" d="" pointer-events="none" display="none"/></g><g transform="translate(0,78)"><path class="background" aria-hidden="true" d="M0,0h176v11h-176Z" pointer-events="none" opacity="1"/><g><g class="mark-symbol role-legend-symbol" pointer-events="none"><path transform="translate(6,6)" d="M5,0A5,5,0,1,1,-5,0A5,5,0,1,1,5,0" fill="#b279a2" stroke-width="1.5" opacity="1"/></g><g class="mark-text role-legend-label" pointer-events="none"><text text-anchor="start" transform="translate(16,9)" font-family="sans-serif" font-size="10px" fill="#000" opacity="1">karlmdavis/ansible-role-bind-dns</text></g></g><path class="foreground" aria-hidden="true" d="" pointer-events="none" display="none"/></g><g transform="translate(0,91)"><path class="background" aria-hidden="true" d="M0,0h176v11h-176Z" pointer-events="none" opacity="1"/><g><g class="mark-symbol role-legend-symbol" pointer-events="none"><path transform="translate(6,6)" d="M5,0A5,5,0,1,1,-5,0A5,5,0,1,1,5,0" fill="#ff9da6" stroke-width="1.5" opacity="1"/></g><g class="mark-text role-legend-label" pointer-events="none"><text text-anchor="start" transform="translate(16,9)" font-family="sans-serif" font-size="10px" fill="#000" opacity="1">karlmdavis/ansible-role-jenkins2</text></g></g><path class="foreground" aria-hidden="true" d="" pointer-events="none" display="none"/></g><g transform="translate(0,104)"><path class="background" aria-hidden="true" d="M0,0h176v11h-176Z" pointer-events="none" opacity="1"/><g><g class="mark-symbol role-legend-symbol" pointer-events="none"><path transform="translate(6,6)" d="M5,0A5,5,0,1,1,-5,0A5,5,0,1,1,5,0" fill="#9d755d" stroke-width="1.5" opacity="1"/></g><g class="mark-text role-legend-label" pointer-events="none"><text text-anchor="start" transform="translate(16,9)" font-family="sans-serif" font-size="10px" fill="#000" opacity="1">karlmdavis/ansible-role-ldap</text></g></g><path class="foreground" aria-hidden="true" d="" pointer-events="none" display="none"/></g><g transform="translate(0,117)"><path class="background" aria-hidden="true" d="M0,0h176v11h-176Z" pointer-events="none" opacity="1"/><g><g class="mark-symbol role-legend-symbol" pointer-events="none"><path transform="translate(6,6)" d="M5,0A5,5,0,1,1,-5,0A5,5,0,1,1,5,0" fill="#bab0ac" stroke-width="1.5" opacity="1"/></g><g class="mark-text role-legend-label" pointer-events="none"><text text-anchor="start" transform="translate(16,9)" font-family="sans-serif" font-size="10px" fill="#000" opacity="1">karlmdavis/ansible-role-rcm-dotfiles</text></g></g><path class="foreground" aria-hidden="true" d="" pointer-events="none" display="none"/></g><g transform="translate(0,130)"><path class="background" aria-hidden="true" d="M0,0h176v11h-176Z" pointer-events="none" opacity="1"/><g><g class="mark-symbol role-legend-symbol" pointer-events="none"><path transform="translate(6,6)" d="M5,0A5,5,0,1,1,-5,0A5,5,0,1,1,5,0" fill="#4c78a8" stroke-width="1.5" opacity="1"/></g><g class="mark-text role-legend-label" pointer-events="none"><text text-anchor="start" transform="translate(16,9)" font-family="sans-serif" font-size="10px" fill="#000" opacity="1">karlmdavis/ansible-roles</text></g></g><path class="foreground" aria-hidden="true" d="" pointer-events="none" display="none"/></g><g transform="translate(0,143)"><path class="background" aria-hidden="true" d="M0,0h176v11h-176Z" pointer-events="none" opacity="1"/><g><g class="mark-symbol role-legend-symbol" pointer-events="none"><path transform="translate(6,6)" d="M5,0A5,5,0,1,1,-5,0A5,5,0,1,1,5,0" fill="#f58518" stroke-width="1.5" opacity="1"/></g><g class="mark-text role-legend-label" pointer-events="none"><text text-anchor="start" transform="translate(16,9)" font-family="sans-serif" font-size="10px" fill="#000" opacity="1">karlmdavis/bbonfhir-dev-infra-doc…</text></g></g><path class="foreground" aria-hidden="true" d="" pointer-events="none" display="none"/></g><g transform="translate(0,156)"><path class="background" aria-hidden="true" d="M0,0h176v11h-176Z" pointer-events="none" opacity="1"/><g><g class="mark-symbol role-legend-symbol" pointer-events="none"><path transform="translate(6,6)" d="M5,0A5,5,0,1,1,-5,0A5,5,0,1,1,5,0" fill="#e45756" stroke-width="1.5" opacity="1"/></g><g class="mark-text role-legend-label" pointer-events="none"><text text-anchor="start" transform="translate(16,9)" font-family="sans-serif" font-size="10px" fill="#000" opacity="1">karlmdavis/can-i-kayak-baltimore</text></g></g><path class="foreground" aria-hidden="true" d="" pointer-events="none" display="none"/></g><g transform="translate(0,169)"><path class="background" aria-hidden="true" d="M0,0h176v11h-176Z" pointer-events="none" opacity="1"/><g><g class="mark-symbol role-legend-symbol" pointer-events="none"><path transform="translate(6,6)" d="M5,0A5,5,0,1,1,-5,0A5,5,0,1,1,5,0" fill="#72b7b2" stroke-width="1.5" opacity="1"/></g><g class="mark-text role-legend-label" pointer-events="none"><text text-anchor="start" transform="translate(16,9)" font-family="sans-serif" font-size="10px" fill="#000" opacity="1">karlmdavis/datanucleus-test-jdo-1…</text></g></g><path class="foreground" aria-hidden="true" d="" pointer-events="none" display="none"/></g><g transform="translate(0,182)"><path class="background" aria-hidden="true" d="M0,0h176v11h-176Z" pointer-events="none" opacity="1"/><g><g class="mark-symbol role-legend-symbol" pointer-events="none"><path transform="translate(6,6)" d="M5,0A5,5,0,1,1,-5,0A5,5,0,1,1,5,0" fill="#54a24b" stroke-width="1.5" opacity="1"/></g><g class="mark-text role-legend-label" pointer-events="none"><text text-anchor="start" transform="translate(16,9)" font-family="sans-serif" font-size="10px" fill="#000" opacity="1">karlmdavis/dotfiles</text></g></g><path class="foreground" aria-hidden="true" d="" pointer-events="none" display="none"/></g><g transform="translate(0,195)"><path class="background" aria-hidden="true" d="M0,0h176v11h-176Z" pointer-events="none" opacity="1"/><g><g class="mark-symbol role-legend-symbol" pointer-events="none"><path transform="translate(6,6)" d="M5,0A5,5,0,1,1,-5,0A5,5,0,1,1,5,0" fill="#eeca3b" stroke-width="1.5" opacity="1"/></g><g class="mark-text role-legend-label" pointer-events="none"><text text-anchor="start" transform="translate(16,9)" font-family="sans-serif" font-size="10px" fill="#000" opacity="1">karlmdavis/fhir-benchmarks</text></g></g><path class="foreground" aria-hidden="true" d="" pointer-events="none" display="none"/></g><g transform="translate(0,208)"><path class="background" aria-hidden="true" d="M0,0h176v11h-176Z" pointer-events="none" opacity="1"/><g><g class="mark-symbol role-legend-symbol" pointer-events="none"><path transform="translate(6,6)" d="M5,0A5,5,0,1,1,-5,0A5,5,0,1,1,5,0" fill="#b279a2" stroke-width="1.5" opacity="1"/></g><g class="mark-text role-legend-label" pointer-events="none"><text text-anchor="start" transform="translate(16,9)" font-family="sans-serif" font-size="10px" fill="#000" opacity="1">karlmdavis/hapi-fhir-jpaserver-sta…</text></g></g><path class="foreground" aria-hidden="true" d="" pointer-events="none" display="none"/></g><g transform="translate(0,221)"><path class="background" aria-hidden="true" d="M0,0h176v11h-176Z" pointer-events="none" opacity="1"/><g><g class="mark-symbol role-legend-symbol" pointer-events="none"><path transform="translate(6,6)" d="M5,0A5,5,0,1,1,-5,0A5,5,0,1,1,5,0" fill="#ff9da6" stroke-width="1.5" opacity="1"/></g><g class="mark-text role-legend-label" pointer-events="none"><text text-anchor="start" transform="translate(16,9)" font-family="sans-serif" font-size="10px" fill="#000" opacity="1">karlmdavis/hello-rust-actix</text></g></g><path class="foreground" aria-hidden="true" d="" pointer-events="none" display="none"/></g><g transform="translate(0,234)"><path class="background" aria-hidden="true" d="M0,0h176v11h-176Z" pointer-events="none" opacity="1"/><g><g class="mark-symbol role-legend-symbol" pointer-events="none"><path transform="translate(6,6)" d="M5,0A5,5,0,1,1,-5,0A5,5,0,1,1,5,0" fill="#9d755d" stroke-width="1.5" opacity="1"/></g><g class="mark-text role-legend-label" pointer-events="none"><text text-anchor="start" transform="translate(16,9)" font-family="sans-serif" font-size="10px" fill="#000" opacity="1">karlmdavis/jessentials</text></g></g><path class="foreground" aria-hidden="true" d="" pointer-events="none" display="none"/></g><g transform="translate(0,247)"><path class="background" aria-hidden="true" d="M0,0h176v11h-176Z" pointer-events="none" opacity="1"/><g><g class="mark-symbol role-legend-symbol" pointer-events="none"><path transform="translate(6,6)" d="M5,0A5,5,0,1,1,-5,0A5,5,0,1,1,5,0" fill="#bab0ac" stroke-width="1.5" opacity="1"/></g><g class="mark-text role-legend-label" pointer-events="none"><text text-anchor="start" transform="translate(16,9)" font-family="sans-serif" font-size="10px" fill="#000" opacity="1">karlmdavis/justdavis-ansible</text></g></g><path class="foreground" aria-hidden="true" d="" pointer-events="none" display="none"/></g><g transform="translate(0,260)"><path class="background" aria-hidden="true" d="M0,0h176v11h-176Z" pointer-events="none" opacity="1"/><g><g class="mark-symbol role-legend-symbol" pointer-events="none"><path transform="translate(6,6)" d="M5,0A5,5,0,1,1,-5,0A5,5,0,1,1,5,0" fill="#4c78a8" stroke-width="1.5" opacity="1"/></g><g class="mark-text role-legend-label" pointer-events="none"><text text-anchor="start" transform="translate(16,9)" font-family="sans-serif" font-size="10px" fill="#000" opacity="1">karlmdavis/justdavis-finances</text></g></g><path class="foreground" aria-hidden="true" d="" pointer-events="none" display="none"/></g><g transform="translate(0,273)"><path class="background" aria-hidden="true" d="M0,0h176v11h-176Z" pointer-events="none" opacity="1"/><g><g class="mark-symbol role-legend-symbol" pointer-events="none"><path transform="translate(6,6)" d="M5,0A5,5,0,1,1,-5,0A5,5,0,1,1,5,0" fill="#f58518" stroke-width="1.5" opacity="1"/></g><g class="mark-text role-legend-label" pointer-events="none"><text text-anchor="start" transform="translate(16,9)" font-family="sans-serif" font-size="10px" fill="#000" opacity="1">karlmdavis/justdavis-karl</text></g></g><path class="foreground" aria-hidden="true" d="" pointer-events="none" display="none"/></g><g transform="translate(0,286)"><path class="background" aria-hidden="true" d="M0,0h176v11h-176Z" pointer-events="none" opacity="1"/><g><g class="mark-symbol role-legend-symbol" pointer-events="none"><path transform="translate(6,6)" d="M5,0A5,5,0,1,1,-5,0A5,5,0,1,1,5,0" fill="#e45756" stroke-width="1.5" opacity="1"/></g><g class="mark-text role-legend-label" pointer-events="none"><text text-anchor="start" transform="translate(16,9)" font-family="sans-serif" font-size="10px" fill="#000" opacity="1">karlmdavis/justdavis-puppet</text></g></g><path class="foreground" aria-hidden="true" d="" pointer-events="none" display="none"/></g><g transform="translate(0,299)"><path class="background" aria-hidden="true" d="M0,0h176v11h-176Z" pointer-events="none" opacity="1"/><g><g class="mark-symbol role-legend-symbol" pointer-events="none"><path transform="translate(6,6)" d="M5,0A5,5,0,1,1,-5,0A5,5,0,1,1,5,0" fill="#72b7b2" stroke-width="1.5" opacity="1"/></g><g class="mark-text role-legend-label" pointer-events="none"><text text-anchor="start" transform="translate(16,9)" font-family="sans-serif" font-size="10px" fill="#000" opacity="1">karlmdavis/kobjects</text></g></g><path class="foreground" aria-hidden="true" d="" pointer-events="none" display="none"/></g><g transform="translate(0,312)"><path class="background" aria-hidden="true" d="M0,0h176v11h-176Z" pointer-events="none" opacity="1"/><g><g class="mark-symbol role-legend-symbol" pointer-events="none"><path transform="translate(6,6)" d="M5,0A5,5,0,1,1,-5,0A5,5,0,1,1,5,0" fill="#54a24b" stroke-width="1.5" opacity="1"/></g><g class="mark-text role-legend-label" pointer-events="none"><text text-anchor="start" transform="translate(16,9)" font-family="sans-serif" font-size="10px" fill="#000" opacity="1">karlmdavis/ksoap2-android</text></g></g><path class="foreground" aria-hidden="true" d="" pointer-events="none" display="none"/></g><g transform="translate(0,325)"><path class="background" aria-hidden="true" d="M0,0h176v11h-176Z" pointer-events="none" opacity="1"/><g><g class="mark-symbol role-legend-symbol" pointer-events="none"><path transform="translate(6,6)" d="M5,0A5,5,0,1,1,-5,0A5,5,0,1,1,5,0" fill="#eeca3b" stroke-width="1.5" opacity="1"/></g><g class="mark-text role-legend-label" pointer-events="none"><text text-anchor="start" transform="translate(16,9)" font-family="sans-serif" font-size="10px" fill="#000" opacity="1">karlmdavis/kxml2</text></g></g><path class="foreground" aria-hidden="true" d="" pointer-events="none" display="none"/></g><g transform="translate(0,338)"><path class="background" aria-hidden="true" d="M0,0h176v11h-176Z" pointer-events="none" opacity="1"/><g><g class="mark-symbol role-legend-symbol" pointer-events="none"><path transform="translate(6,6)" d="M5,0A5,5,0,1,1,-5,0A5,5,0,1,1,5,0" fill="#b279a2" stroke-width="1.5" opacity="1"/></g><g class="mark-text role-legend-label" pointer-events="none"><text text-anchor="start" transform="translate(16,9)" font-family="sans-serif" font-size="10px" fill="#000" opacity="1">karlmdavis/ldap-plugin</text></g></g><path class="foreground" aria-hidden="true" d="" pointer-events="none" display="none"/></g><g transform="translate(0,351)"><path class="background" aria-hidden="true" d="M0,0h176v11h-176Z" pointer-events="none" opacity="1"/><g><g class="mark-symbol role-legend-symbol" pointer-events="none"><path transform="translate(6,6)" d="M5,0A5,5,0,1,1,-5,0A5,5,0,1,1,5,0" fill="#ff9da6" stroke-width="1.5" opacity="1"/></g><g class="mark-text role-legend-label" pointer-events="none"><text text-anchor="start" transform="translate(16,9)" font-family="sans-serif" font-size="10px" fill="#000" opacity="1">karlmdavis/lego-ev3dev-rs</text></g></g><path class="foreground" aria-hidden="true" d="" pointer-events="none" display="none"/></g><g transform="translate(0,364)"><path class="background" aria-hidden="true" d="M0,0h176v11h-176Z" pointer-events="none" opacity="1"/><g><g class="mark-symbol role-legend-symbol" pointer-events="none"><path transform="translate(6,6)" d="M5,0A5,5,0,1,1,-5,0A5,5,0,1,1,5,0" fill="#9d755d" stroke-width="1.5" opacity="1"/></g><g class="mark-text role-legend-label" pointer-events="none"><text text-anchor="start" transform="translate(16,9)" font-family="sans-serif" font-size="10px" fill="#000" opacity="1">karlmdavis/liquibase</text></g></g><path class="foreground" aria-hidden="true" d="" pointer-events="none" display="none"/></g><g transform="translate(0,377)"><path class="background" aria-hidden="true" d="M0,0h176v11h-176Z" pointer-events="none" opacity="1"/><g><g class="mark-symbol role-legend-symbol" pointer-events="none"><path transform="translate(6,6)" d="M5,0A5,5,0,1,1,-5,0A5,5,0,1,1,5,0" fill="#bab0ac" stroke-width="1.5" opacity="1"/></g><g class="mark-text role-legend-label" pointer-events="none"><text text-anchor="start" transform="translate(16,9)" font-family="sans-serif" font-size="10px" fill="#000" opacity="1">…14 entries</text></g></g><path class="foreground" aria-hidden="true" d="" pointer-events="none" display="none"/></g></g></g><path class="foreground" aria-hidden="true" d="" pointer-events="none" display="none"/></g></g><g class="mark-text role-legend-title" pointer-events="none"><text text-anchor="start" transform="translate(0,9)" font-family="sans-serif" font-size="11px" font-weight="bold" fill="#000" opacity="1">Repository</text></g></g><path class="foreground" aria-hidden="true" d="" pointer-events="none" display="none"/></g></g><g class="mark-group role-title"><g transform="translate(400,-22)"><path class="background" aria-hidden="true" d="M0,0h0v0h0Z" pointer-events="none"/><g><g class="mark-text role-title-text" role="graphics-symbol" aria-roledescription="title" aria-label="Title text 'Unique Clones per Day'" pointer-events="none"><text text-anchor="middle" transform="translate(0,10)" font-family="sans-serif" font-size="13px" font-weight="bold" fill="#000" opacity="1">Unique Clones per Day</text></g></g><path class="foreground" aria-hidden="true" d="" pointer-events="none" display="none"/></g></g></g><path class="foreground" aria-hidden="true" d="" display="none"/></g></g></g></svg>