<svg xmlns="http://www.w3.org/2000/svg" xmlns:xlink="http://www.w3.org/1999/xlink" version="1.1" class="marks" width="1043" height="436" viewBox="0 0 1043 436"><rect width="1043" height="436" fill="white"/><g fill="none" stroke-miterlimit="10" transform="translate(44,27)"><g class="mark-group role-frame root" role="graphics-object" aria-roledescription="group mark container"><g transform="translate(0,0)"><path class="background" aria-hidden="true" d="M0.5,0.5h800v300h-800Z" stroke="#ddd"/><g><g class="mark-group role-axis" aria-hidden="true"><g transform="translate(0.5,300.5)"><path class="background" aria-hidden="true" d="M0,0h0v0h0Z" pointer-events="none"/><g><g class="mark-rule role-axis-grid" pointer-events="none"><line transform="translate(24,-300)" x2="0" y2="300" stroke="#ddd" stroke-width="1" opacity="1"/><line transform="translate(71,-300)" x2="0" y2="300" stroke="#ddd" stroke-width="1" opacity="1"/><line transform="translate(118,-300)" x2="0" y2="300" stroke="#ddd" stroke-width="1" opacity="1"/><line transform="translate(165,-300)" x2="0" y2="300" stroke="#ddd" stroke-width="1" opacity="1"/><line transform="translate(212,-300)" x2="0" y2="300" stroke="#ddd" stroke-width="1" opacity="1"/><line transform="translate(259,-300)" x2="0" y2="300" stroke="#ddd" stroke-width="1" opacity="1"/><line transform="translate(306,-300)" x2="0" y2="300" stroke="#ddd" stroke-width="1" opacity="1"/><line transform="translate(353,-300)" x2="0" y2="300" stroke="#ddd" stroke-width="1" opacity="1"/><line transform="translate(376,-300)" x2="0" y2="300" stroke="#ddd" stroke-width="1" opacity="1"/><line transform="translate(424,-300)" x2="0" y2="300" stroke="#ddd" stroke-width="1" opacity="1"/><line transform="translate(471,-300)" x2="0" y2="300" stroke="#ddd" stroke-width="1" opacity="1"/><line transform="translate(518,-300)" x2="0" y2="300" stroke="#ddd" stroke-width="1" opacity="1"/><line transform="translate(565,-300)" x2="0" y2="300" stroke="#ddd" stroke-width="1" opacity="1"/><line transform="translate(612,-300)" x2="0" y2="300" stroke="#ddd" stroke-width="1" opacity="1"/><line transform="translate(659,-300)" x2="0" y2="300" stroke="#ddd" stroke-width="1" opacity="1"/><line transform="translate(706,-300)" x2="0" y2="300" stroke="#ddd" stroke-width="1" opacity="1"/><line transform="translate(753,-300)" x2="0" y2="300" stroke="#ddd" stroke-width="1" opacity="1"/><line transform="translate(800,-300)" x2="0" y2="300" stroke="#ddd" stroke-width="1" opacity="1"/></g></g><path class="foreground" aria-hidden="true" d="" pointer-events="none" display="none"/></g></g><g class="mark-group role-axis" aria-hidden="true"><g transform="translate(0.5,0.5)"><path class="background" aria-hidden="true" d="M0,0h0v0h0Z" pointer-events="none"/><g><g class="mark-rule role-axis-grid" pointer-events="none"><line transform="translate(0,300)" x2="800" y2="0" stroke="#ddd" stroke-width="1" opacity="1"/><line transform="translate(0,273)" x2="800" y2="0" stroke="#ddd" stroke-width="1" opacity="1"/><line transform="translate(0,245)" x2="800" y2="0" stroke="#ddd" stroke-width="1" opacity="1"/><line transform="translate(0,218)" x2="800" y2="0" stroke="#ddd" stroke-width="1" opacity="1"/><line transform="translate(0,191)" x2="800" y2="0" stroke="#ddd" stroke-width="1" opacity="1"/><line transform="translate(0,164)" x2="800" y2="0" stroke="#ddd" stroke-width="1" opacity="1"/><line transform="translate(0,136)" x2="800" y2="0" stroke="#ddd" stroke-width="1" opacity="1"/><line transform="translate(0,109)" x2="800" y2="0" stroke="#ddd" stroke-width="1" opacity="1"/><line transform="translate(0,82)" x2="800" y2="0" stroke="#ddd" stroke-width="1" opacity="1"/><line transform="translate(0,55)" x2="800" y2="0" stroke="#ddd" stroke-width="1" opacity="1"/><line transform="translate(0,27)" x2="800" y2="0" stroke="#ddd" stroke-width="1" opacity="1"/><line transform="translate(0,0)" x2="800" y2="0" stroke="#ddd" stroke-width="1" opacity="1"/></g></g><path class="foreground" aria-hidden="true" d="" pointer-events="none" display="none"/></g></g><g class="mark-group role-axis" role="graphics-symbol" aria-roledescription="axis" aria-label="X-axis titled 'Date' for a time scale with values from Monday, 16 March 2026, 12:00:00 AM to Sunday, 19 April 2026, 12:00:00 AM"><g transform="translate(0.5,300.5)"><path class="background" aria-hidden="true" d="M0,0h0v0h0Z" pointer-events="none"/><g><g class="mark-rule role-axis-tick" pointer-events="none"><line transform="translate(24,0)" x2="0" y2="5" stroke="#888" stroke-width="1" opacity="1"/><line transform="translate(71,0)" x2="0" y2="5" stroke="#888" stroke-width="1" opacity="1"/><line transform="translate(118,0)" x2="0" y2="5" stroke="#888" stroke-width="1" opacity="1"/><line transform="translate(165,0)" x2="0" y2="5" stroke="#888" stroke-width="1" opacity="1"/><line transform="translate(212,0)" x2="0" y2="5" stroke="#888" stroke-width="1" opacity="1"/><line transform="translate(259,0)" x2="0" y2="5" stroke="#888" stroke-width="1" opacity="1"/><line transform="translate(306,0)" x2="0" y2="5" stroke="#888" stroke-width="1" opacity="1"/><line transform="translate(353,0)" x2="0" y2="5" stroke="#888" stroke-width="1" opacity="1"/><line transform="translate(376,0)" x2="0" y2="5" stroke="#888" stroke-width="1" opacity="1"/><line transform="translate(424,0)" x2="0" y2="5" stroke="#888" stroke-width="1" opacity="1"/><line transform="translate(471,0)" x2="0" y2="5" stroke="#888" stroke-width="1" opacity="1"/><line transform="translate(518,0)" x2="0" y2="5" stroke="#888" stroke-width="1" opacity="1"/><line transform="translate(565,0)" x2="0" y2="5" stroke="#888" stroke-width="1" opacity="1"/><line transform="translate(612,0)" x2="0" y2="5" stroke="#888" stroke-width="1" opacity="1"/><line transform="translate(659,0)" x2="0" y2="5" stroke="#888" stroke-width="1" opacity="1"/><line transform="translate(706,0)" x2="0" y2="5" stroke="#888" stroke-width="1" opacity="1"/><line transform="translate(753,0)" x2="0" y2="5" stroke="#888" stroke-width="1" opacity="1"/><line transform="translate(800,0)" x2="0" y2="5" stroke="#888" stroke-width="1" opacity="1"/></g><g class="mark-text role-axis-label" pointer-events="none"><text text-anchor="middle" transform="translate(23.52941176470588,15)" font-family="sans-serif" font-size="10px" fill="#000" opacity="1">Tue 17</text><text text-anchor="middle" transform="translate(70.58823529411765,15)" font-family="sans-serif" font-size="10px" fill="#000" opacity="0">Thu 19</text><text text-anchor="middle" transform="translate(117.64705882352942,15)" font-family="sans-serif" font-size="10px" fill="#000" opacity="1">Sat 21</text><text text-anchor="middle" transform="translate(164.70588235294116,15)" font-family="sans-serif" font-size="10px" fill="#000" opacity="0">Mon 23</text><text text-anchor="middle" transform="translate(211.76470588235296,15)" font-family="sans-serif" font-size="10px" fill="#000" opacity="1">Wed 25</text><text text-anchor="middle" transform="translate(258.8235294117647,15)" font-family="sans-serif" font-size="10px" fill="#000" opacity="0">Fri 27</text><text text-anchor="middle" transform="translate(305.88235294117646,15)" font-family="sans-serif" font-size="10px" fill="#000" opacity="1">Mar 29</text><text text-anchor="middle" transform="translate(352.94117647058823,15)" font-family="sans-serif" font-size="10px" fill="#000" opacity="0">Tue 31</text><text text-anchor="middle" transform="translate(376.4705882352941,15)" font-family="sans-serif" font-size="10px" fill="#000" opacity="1">April</text><text text-anchor="middle" transform="translate(423.5294117647059,15)" font-family="sans-serif" font-size="10px" fill="#000" opacity="0">Fri 03</text><text text-anchor="middle" transform="translate(470.5882352941177,15)" font-family="sans-serif" font-size="10px" fill="#000" opacity="1">Apr 05</text><text text-anchor="middle" transform="translate(517.6470588235294,15)" font-family="sans-serif" font-size="10px" fill="#000" opacity="0">Tue 07</text><text text-anchor="middle" transform="translate(564.7058823529412,15)" font-family="sans-serif" font-size="10px" fill="#000" opacity="1">Thu 09</text><text text-anchor="middle" transform="translate(611.7647058823529,15)" font-family="sans-serif" font-size="10px" fill="#000" opacity="0">Sat 11</text><text text-anchor="middle" transform="translate(658.8235294117646,15)" font-family="sans-serif" font-size="10px" fill="#000" opacity="1">Mon 13</text><text text-anchor="middle" transform="translate(705.8823529411765,15)" font-family="sans-serif" font-size="10px" fill="#000" opacity="0">Wed 15</text><text text-anchor="middle" transform="translate(752.9411764705882,15)" font-family="sans-serif" font-size="10px" fill="#000" opacity="1">Fri 17</text><text text-anchor="end" transform="translate(800,15)" font-family="sans-serif" font-size="10px" fill="#000" opacity="0">Apr 19</text></g><g class="mark-rule role-axis-domain" pointer-events="none"><line transform="translate(0,0)" x2="800" y2="0" stroke="#888" stroke-width="1" opacity="1"/></g><g class="mark-text role-axis-title" pointer-events="none"><text text-anchor="middle" transform="translate(400,30)" font-family="sans-serif" font-size="11px" font-weight="bold" fill="#000" opacity="1">Date</text></g></g><path class="foreground" aria-hidden="true" d="" pointer-events="none" display="none"/></g></g><g class="mark-group role-axis" role="graphics-symbol" aria-roledescription="axis" aria-label="Y-axis titled 'Unique Clones/day' for a linear scale with values from 0 to 220"><g transform="translate(0.5,0.5)"><path class="background" aria-hidden="true" d="M0,0h0v0h0Z" pointer-events="none"/><g><g class="mark-rule role-axis-tick" pointer-events="none"><line transform="translate(0,300)" x2="-5" y2="0" stroke="#888" stroke-width="1" opacity="1"/><line transform="translate(0,273)" x2="-5" y2="0" stroke="#888" stroke-width="1" opacity="1"/><line transform="translate(0,245)" x2="-5" y2="0" stroke="#888" stroke-width="1" opacity="1"/><line transform="translate(0,218)" x2="-5" y2="0" stroke="#888" stroke-width="1" opacity="1"/><line transform="translate(0,191)" x2="-5" y2="0" stroke="#888" stroke-width="1" opacity="1"/><line transform="translate(0,164)" x2="-5" y2="0" stroke="#888" stroke-width="1" opacity="1"/><line transform="translate(0,136)" x2="-5" y2="0" stroke="#888" stroke-width="1" opacity="1"/><line transform="translate(0,109)" x2="-5" y2="0" stroke="#888" stroke-width="1" opacity="1"/><line transform="translate(0,82)" x2="-5" y2="0" stroke="#888" stroke-width="1" opacity="1"/><line transform="translate(0,55)" x2="-5" y2="0" stroke="#888" stroke-width="1" opacity="1"/><line transform="translate(0,27)" x2="-5" y2="0" stroke="#888" stroke-width="1" opacity="1"/><line transform="translate(0,0)" x2="-5" y2="0" stroke="#888" stroke-width="1" opacity="1"/></g><g class="mark-text role-axis-label" pointer-events="none"><text text-anchor="end" transform="translate(-7,303)" font-family="sans-serif" font-size="10px" fill="#000" opacity="1">0</text><text text-anchor="end" transform="translate(-7,275.7272727272727)" font-family="sans-serif" font-size="10px" fill="#000" opacity="1">20</text><text text-anchor="end" transform="translate(-7,248.45454545454544)" font-family="sans-serif" font-size="10px" fill="#000" opacity="1">40</text><text text-anchor="end" transform="translate(-7,221.1818181818182)" font-family="sans-serif" font-size="10px" fill="#000" opacity="1">60</text><text text-anchor="end" transform="translate(-7,193.9090909090909)" font-family="sans-serif" font-size="10px" fill="#000" opacity="1">80</text><text text-anchor="end" transform="translate(-7,166.63636363636363)" font-family="sans-serif" font-size="10px" fill="#000" opacity="1">100</text><text text-anchor="end" transform="translate(-7,139.36363636363637)" font-family="sans-serif" font-size="10px" fill="#000" opacity="1">120</text><text text-anchor="end" transform="translate(-7,112.0909090909091)" font-family="sans-serif" font-size="10px" fill="#000" opacity="1">140</text><text text-anchor="end" transform="translate(-7,84.81818181818181)" font-family="sans-serif" font-size="10px" fill="#000" opacity="1">160</text><text text-anchor="end" transform="translate(-7,57.54545454545453)" font-family="sans-serif" font-size="10px" fill="#000" opacity="1">180</text><text text-anchor="end" transform="translate(-7,30.27272727272728)" font-family="sans-serif" font-size="10px" fill="#000" opacity="1">200</text><text text-anchor="end" transform="translate(-7,3)" font-family="sans-serif" font-size="10px" fill="#000" opacity="1">220</text></g><g class="mark-rule role-axis-domain" pointer-events="none"><line transform="translate(0,300)" x2="0" y2="-300" stroke="#888" stroke-width="1" opacity="1"/></g><g class="mark-text role-axis-title" pointer-events="none"><text text-anchor="middle" transform="translate(-27.6845703125,150) rotate(-90) translate(0,-2)" font-family="sans-serif" font-size="11px" font-weight="bold" fill="#000" opacity="1">Unique Clones/day</text></g></g><path class="foreground" aria-hidden="true" d="" pointer-events="none" display="none"/></g></g><g class="mark-group role-scope pathgroup" role="graphics-object" aria-roledescription="group mark container"><g transform="translate(0,0)"><path class="background" aria-hidden="true" d="M0,0h800v300h-800Z"/><g><g class="mark-area role-mark marks" role="graphics-object" aria-roledescription="area mark container"><path aria-label="Date: Mar 16, 2026; Unique Clones/day: 0; Repository: justdavis-family/github-analytics-data" role="graphics-symbol" aria-roledescription="area mark" d="M0,298.636L23.529,300L47.059,300L70.588,298.636L94.118,300L117.647,300L141.176,300L164.706,282.273L188.235,297.273L211.765,290.455L235.294,278.182L258.824,205.909L282.353,237.273L305.882,169.091L329.412,255L352.941,268.636L376.471,274.091L400,286.364L423.529,259.091L447.059,73.636L470.588,148.636L494.118,257.727L517.647,155.455L541.176,250.909L564.706,229.091L588.235,271.364L611.765,249.545L635.294,212.727L658.824,4.091L682.353,267.273L705.882,260.455L729.412,274.091L752.941,280.909L776.471,278.182L800,270L800,270L776.471,294.545L752.941,287.727L729.412,289.091L705.882,278.182L682.353,282.273L658.824,10.909L635.294,229.091L611.765,260.455L588.235,280.909L564.706,238.636L541.176,257.727L517.647,190.909L494.118,257.727L470.588,148.636L447.059,73.636L423.529,259.091L400,286.364L376.471,274.091L352.941,268.636L329.412,255L305.882,169.091L282.353,237.273L258.824,205.909L235.294,278.182L211.765,290.455L188.235,297.273L164.706,282.273L141.176,300L117.647,300L94.118,300L70.588,298.636L47.059,300L23.529,300L0,298.636Z" fill="#4c78a8"/></g></g><path class="foreground" aria-hidden="true" d="" display="none"/></g><g transform="translate(0,0)"><path class="background" aria-hidden="true" d="M0,0h800v300h-800Z"/><g><g class="mark-area role-mark marks" role="graphics-object" aria-roledescription="area mark container"><path aria-label="Date: Mar 16, 2026; Unique Clones/day: 0; Repository: justdavis-family/justdavis" role="graphics-symbol" aria-roledescription="area mark" d="M0,298.636L23.529,300L47.059,300L70.588,298.636L94.118,300L117.647,300L141.176,300L164.706,282.273L188.235,297.273L211.765,290.455L235.294,278.182L258.824,205.909L282.353,237.273L305.882,169.091L329.412,255L352.941,268.636L376.471,274.091L400,286.364L423.529,259.091L447.059,73.636L470.588,148.636L494.118,257.727L517.647,190.909L541.176,257.727L564.706,238.636L588.235,280.909L611.765,260.455L635.294,229.091L658.824,10.909L682.353,282.273L705.882,278.182L729.412,289.091L752.941,287.727L776.471,294.545L800,270L800,271.364L776.471,295.909L752.941,291.818L729.412,291.818L705.882,283.636L682.353,283.636L658.824,178.636L635.294,250.909L611.765,264.545L588.235,283.636L564.706,244.091L541.176,260.455L517.647,259.091L494.118,282.273L470.588,189.545L447.059,180L423.529,260.455L400,286.364L376.471,275.455L352.941,268.636L329.412,255L305.882,169.091L282.353,237.273L258.824,205.909L235.294,278.182L211.765,290.455L188.235,297.273L164.706,283.636L141.176,300L117.647,300L94.118,300L70.588,298.636L47.059,300L23.529,300L0,298.636Z" fill="#f58518"/></g></g><path class="foreground" aria-hidden="true" d="" display="none"/></g><g transform="translate(0,0)"><path class="background" aria-hidden="true" d="M0,0h800v300h-800Z"/><g><g class="mark-area role-mark marks" role="graphics-object" aria-roledescription="area mark container"><path aria-label="Date: Mar 16, 2026; Unique Clones/day: 0; Repository: karlmdavis/FHIR-Server" role="graphics-symbol" aria-roledescription="area mark" d="M0,298.636L23.529,300L47.059,300L70.588,298.636L94.118,300L117.647,300L141.176,300L164.706,283.636L188.235,297.273L211.765,290.455L235.294,278.182L258.824,205.909L282.353,237.273L305.882,169.091L329.412,255L352.941,268.636L376.471,275.455L400,286.364L423.529,260.455L447.059,180L470.588,189.545L494.118,282.273L517.647,259.091L541.176,260.455L564.706,244.091L588.235,283.636L611.765,264.545L635.294,250.909L658.824,178.636L682.353,283.636L705.882,283.636L729.412,291.818L752.941,291.818L776.471,295.909L800,271.364L800,271.364L776.471,295.909L752.941,291.818L729.412,291.818L705.882,283.636L682.353,283.636L658.824,178.636L635.294,252.273L611.765,267.273L588.235,283.636L564.706,244.091L541.176,260.455L517.647,259.091L494.118,282.273L470.588,189.545L447.059,180L423.529,260.455L400,286.364L376.471,275.455L352.941,270L329.412,255L305.882,169.091L282.353,237.273L258.824,205.909L235.294,278.182L211.765,290.455L188.235,297.273L164.706,283.636L141.176,300L117.647,300L94.118,300L70.588,298.636L47.059,300L23.529,300L0,298.636Z" fill="#e45756"/></g></g><path class="foreground" aria-hidden="true" d="" display="none"/></g><g transform="translate(0,0)"><path class="background" aria-hidden="true" d="M0,0h800v300h-800Z"/><g><g class="mark-area role-mark marks" role="graphics-object" aria-roledescription="area mark container"><path aria-label="Date: Mar 16, 2026; Unique Clones/day: 1; Repository: karlmdavis/ansible" role="graphics-symbol" aria-roledescription="area mark" d="M0,298.636L23.529,300L47.059,300L70.588,298.636L94.118,300L117.647,300L141.176,300L164.706,283.636L188.235,297.273L211.765,290.455L235.294,278.182L258.824,205.909L282.353,237.273L305.882,169.091L329.412,255L352.941,270L376.471,275.455L400,286.364L423.529,260.455L447.059,180L470.588,189.545L494.118,282.273L517.647,259.091L541.176,260.455L564.706,244.091L588.235,283.636L611.765,267.273L635.294,252.273L658.824,178.636L682.353,283.636L705.882,283.636L729.412,291.818L752.941,291.818L776.471,295.909L800,271.364L800,271.364L776.471,295.909L752.941,291.818L729.412,291.818L705.882,283.636L682.353,285L658.824,178.636L635.294,252.273L611.765,267.273L588.235,283.636L564.706,244.091L541.176,260.455L517.647,259.091L494.118,282.273L470.588,189.545L447.059,180L423.529,260.455L400,286.364L376.471,275.455L352.941,270L329.412,255L305.882,169.091L282.353,237.273L258.824,205.909L235.294,278.182L211.765,290.455L188.235,297.273L164.706,283.636L141.176,300L117.647,300L94.118,300L70.588,298.636L47.059,300L23.529,300L0,300Z" fill="#72b7b2"/></g></g><path class="foreground" aria-hidden="true" d="" display="none"/></g><g transform="translate(0,0)"><path class="background" aria-hidden="true" d="M0,0h800v300h-800Z"/><g><g class="mark-area role-mark marks" role="graphics-object" aria-roledescription="area mark container"><path aria-label="Date: Mar 16, 2026; Unique Clones/day: 0; Repository: karlmdavis/ansible-jenkins" role="graphics-symbol" aria-roledescription="area mark" d="M0,300L23.529,300L47.059,300L70.588,298.636L94.118,300L117.647,300L141.176,300L164.706,283.636L188.235,297.273L211.765,290.455L235.294,278.182L258.824,205.909L282.353,237.273L305.882,169.091L329.412,255L352.941,270L376.471,275.455L400,286.364L423.529,260.455L447.059,180L470.588,189.545L494.118,282.273L517.647,259.091L541.176,260.455L564.706,244.091L588.235,283.636L611.765,267.273L635.294,252.273L658.824,178.636L682.353,285L705.882,283.636L729.412,291.818L752.941,291.818L776.471,295.909L800,271.364L800,271.364L776.471,295.909L752.941,291.818L729.412,291.818L705.882,283.636L682.353,285L658.824,178.636L635.294,253.636L611.765,267.273L588.235,283.636L564.706,244.091L541.176,260.455L517.647,259.091L494.118,282.273L470.588,189.545L447.059,181.364L423.529,261.818L400,286.364L376.471,275.455L352.941,270L329.412,255L305.882,169.091L282.353,237.273L258.824,205.909L235.294,279.545L211.765,290.455L188.235,297.273L164.706,283.636L141.176,300L117.647,300L94.118,300L70.588,298.636L47.059,300L23.529,300L0,300Z" fill="#54a24b"/></g></g><path class="foreground" aria-hidden="true" d="" display="none"/></g><g transform="translate(0,0)"><path class="background" aria-hidden="true" d="M0,0h800v300h-800Z"/><g><g class="mark-area role-mark marks" role="graphics-object" aria-roledescription="area mark container"><path aria-label="Date: Mar 16, 2026; Unique Clones/day: 0; Repository: karlmdavis/ansible-role-acmetool" role="graphics-symbol" aria-roledescription="area mark" d="M0,300L23.529,300L47.059,300L70.588,298.636L94.118,300L117.647,300L141.176,300L164.706,283.636L188.235,297.273L211.765,290.455L235.294,279.545L258.824,205.909L282.353,237.273L305.882,169.091L329.412,255L352.941,270L376.471,275.455L400,286.364L423.529,261.818L447.059,181.364L470.588,189.545L494.118,282.273L517.647,259.091L541.176,260.455L564.706,244.091L588.235,283.636L611.765,267.273L635.294,253.636L658.824,178.636L682.353,285L705.882,283.636L729.412,291.818L752.941,291.818L776.471,295.909L800,271.364L800,271.364L776.471,295.909L752.941,291.818L729.412,291.818L705.882,283.636L682.353,285L658.824,178.636L635.294,255L611.765,267.273L588.235,283.636L564.706,244.091L541.176,260.455L517.647,259.091L494.118,282.273L470.588,189.545L447.059,181.364L423.529,261.818L400,286.364L376.471,275.455L352.941,270L329.412,255L305.882,169.091L282.353,237.273L258.824,205.909L235.294,280.909L211.765,290.455L188.235,297.273L164.706,283.636L141.176,300L117.647,300L94.118,300L70.588,298.636L47.059,300L23.529,300L0,300Z" fill="#eeca3b"/></g></g><path class="foreground" aria-hidden="true" d="" display="none"/></g><g transform="translate(0,0)"><path class="background" aria-hidden="true" d="M0,0h800v300h-800Z"/><g><g class="mark-area role-mark marks" role="graphics-object" aria-roledescription="area mark container"><path aria-label="Date: Mar 16, 2026; Unique Clones/day: 0; Repository: karlmdavis/ansible-role-bind-dns" role="graphics-symbol" aria-roledescription="area mark" d="M0,300L23.529,300L47.059,300L70.588,298.636L94.118,300L117.647,300L141.176,300L164.706,283.636L188.235,297.273L211.765,290.455L235.294,280.909L258.824,205.909L282.353,237.273L305.882,169.091L329.412,255L352.941,270L376.471,275.455L400,286.364L423.529,261.818L447.059,181.364L470.588,189.545L494.118,282.273L517.647,259.091L541.176,260.455L564.706,244.091L588.235,283.636L611.765,267.273L635.294,255L658.824,178.636L682.353,285L705.882,283.636L729.412,291.818L752.941,291.818L776.471,295.909L800,271.364L800,271.364L776.471,295.909L752.941,291.818L729.412,293.182L705.882,283.636L682.353,285L658.824,184.091L635.294,256.364L611.765,267.273L588.235,283.636L564.706,245.455L541.176,261.818L517.647,259.091L494.118,282.273L470.588,189.545L447.059,182.727L423.529,261.818L400,286.364L376.471,279.545L352.941,270L329.412,256.364L305.882,170.455L282.353,237.273L258.824,208.636L235.294,280.909L211.765,290.455L188.235,297.273L164.706,283.636L141.176,300L117.647,300L94.118,300L70.588,298.636L47.059,300L23.529,300L0,300Z" fill="#b279a2"/></g></g><path class="foreground" aria-hidden="true" d="" display="none"/></g><g transform="translate(0,0)"><path class="background" aria-hidden="true" d="M0,0h800v300h-800Z"/><g><g class="mark-area role-mark marks" role="graphics-object" aria-roledescription="area mark container"><path aria-label="Date: Mar 16, 2026; Unique Clones/day: 0; Repository: karlmdavis/ansible-role-jenkins2" role="graphics-symbol" aria-roledescription="area mark" d="M0,300L23.529,300L47.059,300L70.588,298.636L94.118,300L117.647,300L141.176,300L164.706,283.636L188.235,297.273L211.765,290.455L235.294,280.909L258.824,208.636L282.353,237.273L305.882,170.455L329.412,256.364L352.941,270L376.471,279.545L400,286.364L423.529,261.818L447.059,182.727L470.588,189.545L494.118,282.273L517.647,259.091L541.176,261.818L564.706,245.455L588.235,283.636L611.765,267.273L635.294,256.364L658.824,184.091L682.353,285L705.882,283.636L729.412,293.182L752.941,291.818L776.471,295.909L800,271.364L800,271.364L776.471,295.909L752.941,291.818L729.412,293.182L705.882,285L682.353,285L658.824,190.909L635.294,256.364L611.765,268.636L588.235,286.364L564.706,252.273L541.176,261.818L517.647,259.091L494.118,282.273L470.588,190.909L447.059,185.455L423.529,263.182L400,287.727L376.471,280.909L352.941,271.364L329.412,256.364L305.882,170.455L282.353,238.636L258.824,210L235.294,282.273L211.765,291.818L188.235,298.636L164.706,283.636L141.176,300L117.647,300L94.118,300L70.588,298.636L47.059,300L23.529,300L0,300Z" fill="#ff9da6"/></g></g><path class="foreground" aria-hidden="true" d="" display="none"/></g><g transform="translate(0,0)"><path class="background" aria-hidden="true" d="M0,0h800v300h-800Z"/><g><g class="mark-area role-mark marks" role="graphics-object" aria-roledescription="area mark container"><path aria-label="Date: Mar 16, 2026; Unique Clones/day: 0; Repository: karlmdavis/ansible-role-ldap" role="graphics-symbol" aria-roledescription="area mark" d="M0,300L23.529,300L47.059,300L70.588,298.636L94.118,300L117.647,300L141.176,300L164.706,283.636L188.235,298.636L211.765,291.818L235.294,282.273L258.824,210L282.353,238.636L305.882,170.455L329.412,256.364L352.941,271.364L376.471,280.909L400,287.727L423.529,263.182L447.059,185.455L470.588,190.909L494.118,282.273L517.647,259.091L541.176,261.818L564.706,252.273L588.235,286.364L611.765,268.636L635.294,256.364L658.824,190.909L682.353,285L705.882,285L729.412,293.182L752.941,291.818L776.471,295.909L800,271.364L800,271.364L776.471,295.909L752.941,291.818L729.412,293.182L705.882,285L682.353,285L658.824,192.273L635.294,256.364L611.765,268.636L588.235,286.364L564.706,252.273L541.176,261.818L517.647,259.091L494.118,282.273L470.588,190.909L447.059,185.455L423.529,263.182L400,287.727L376.471,280.909L352.941,272.727L329.412,256.364L305.882,170.455L282.353,238.636L258.824,210L235.294,282.273L211.765,291.818L188.235,298.636L164.706,283.636L141.176,300L117.647,300L94.118,300L70.588,298.636L47.059,300L23.529,300L0,300Z" fill="#9d755d"/></g></g><path class="foreground" aria-hidden="true" d="" display="none"/></g><g transform="translate(0,0)"><path class="background" aria-hidden="true" d="M0,0h800v300h-800Z"/><g><g class="mark-area role-mark marks" role="graphics-object" aria-roledescription="area mark container"><path aria-label="Date: Mar 16, 2026; Unique Clones/day: 0; Repository: karlmdavis/ansible-role-rcm-dotfiles" role="graphics-symbol" aria-roledescription="area mark" d="M0,300L23.529,300L47.059,300L70.588,298.636L94.118,300L117.647,300L141.176,300L164.706,283.636L188.235,298.636L211.765,291.818L235.294,282.273L258.824,210L282.353,238.636L305.882,170.455L329.412,256.364L352.941,272.727L376.471,280.909L400,287.727L423.529,263.182L447.059,185.455L470.588,190.909L494.118,282.273L517.647,259.091L541.176,261.818L564.706,252.273L588.235,286.364L611.765,268.636L635.294,256.364L658.824,192.273L682.353,285L705.882,285L729.412,293.182L752.941,291.818L776.471,295.909L800,271.364L800,271.364L776.471,295.909L752.941,291.818L729.412,293.182L705.882,286.364L682.353,285L658.824,196.364L635.294,257.727L611.765,268.636L588.235,286.364L564.706,253.636L541.176,261.818L517.647,259.091L494.118,282.273L470.588,190.909L447.059,186.818L423.529,263.182L400,287.727L376.471,280.909L352.941,272.727L329.412,257.727L305.882,171.818L282.353,238.636L258.824,212.727L235.294,282.273L211.765,291.818L188.235,298.636L164.706,283.636L141.176,300L117.647,300L94.118,300L70.588,298.636L47.059,300L23.529,300L0,300Z" fill="#bab0ac"/></g></g><path class="foreground" aria-hidden="true" d="" display="none"/></g><g transform="translate(0,0)"><path class="background" aria-hidden="true" d="M0,0h800v300h-800Z"/><g><g class="mark-area role-mark marks" role="graphics-object" aria-roledescription="area mark container"><path aria-label="Date: Mar 16, 2026; Unique Clones/day: 0; Repository: karlmdavis/ansible-roles" role="graphics-symbol" aria-roledescription="area mark" d="M0,300L23.529,300L47.059,300L70.588,298.636L94.118,300L117.647,300L141.176,300L164.706,283.636L188.235,298.636L211.765,291.818L235.294,282.273L258.824,212.727L282.353,238.636L305.882,171.818L329.412,257.727L352.941,272.727L376.471,280.909L400,287.727L423.529,263.182L447.059,186.818L470.588,190.909L494.118,282.273L517.647,259.091L541.176,261.818L564.706,253.636L588.235,286.364L611.765,268.636L635.294,257.727L658.824,196.364L682.353,285L705.882,286.364L729.412,293.182L752.941,291.818L776.471,295.909L800,271.364L800,271.364L776.471,295.909L752.941,291.818L729.412,293.182L705.882,286.364L682.353,285L658.824,196.364L635.294,257.727L611.765,270L588.235,286.364L564.706,253.636L541.176,261.818L517.647,259.091L494.118,282.273L470.588,190.909L447.059,186.818L423.529,263.182L400,287.727L376.471,280.909L352.941,272.727L329.412,259.091L305.882,171.818L282.353,238.636L258.824,212.727L235.294,283.636L211.765,291.818L188.235,298.636L164.706,283.636L141.176,300L117.647,300L94.118,300L70.588,298.636L47.059,300L23.529,300L0,300Z" fill="#4c78a8"/></g></g><path class="foreground" aria-hidden="true" d="" display="none"/></g><g transform="translate(0,0)"><path class="background" aria-hidden="true" d="M0,0h800v300h-800Z"/><g><g class="mark-area role-mark marks" role="graphics-object" aria-roledescription="area mark container"><path aria-label="Date: Mar 16, 2026; Unique Clones/day: 0; Repository: karlmdavis/bbonfhir-dev-infra-docker" role="graphics-symbol" aria-roledescription="area mark" d="M0,300L23.529,300L47.059,300L70.588,298.636L94.118,300L117.647,300L141.176,300L164.706,283.636L188.235,298.636L211.765,291.818L235.294,283.636L258.824,212.727L282.353,238.636L305.882,171.818L329.412,259.091L352.941,272.727L376.471,280.909L400,287.727L423.529,263.182L447.059,186.818L470.588,190.909L494.118,282.273L517.647,259.091L541.176,261.818L564.706,253.636L588.235,286.364L611.765,270L635.294,257.727L658.824,196.364L682.353,285L705.882,286.364L729.412,293.182L752.941,291.818L776.471,295.909L800,271.364L800,271.364L776.471,295.909L752.941,291.818L729.412,293.182L705.882,286.364L682.353,285L658.824,200.455L635.294,259.091L611.765,270L588.235,286.364L564.706,255L541.176,261.818L517.647,259.091L494.118,282.273L470.588,190.909L447.059,188.182L423.529,263.182L400,287.727L376.471,280.909L352.941,272.727L329.412,260.455L305.882,171.818L282.353,238.636L258.824,214.091L235.294,283.636L211.765,293.182L188.235,298.636L164.706,283.636L141.176,300L117.647,300L94.118,300L70.588,298.636L47.059,300L23.529,300L0,300Z" fill="#f58518"/></g></g><path class="foreground" aria-hidden="true" d="" display="none"/></g><g transform="translate(0,0)"><path class="background" aria-hidden="true" d="M0,0h800v300h-800Z"/><g><g class="mark-area role-mark marks" role="graphics-object" aria-roledescription="area mark container"><path aria-label="Date: Mar 16, 2026; Unique Clones/day: 0; Repository: karlmdavis/can-i-kayak-baltimore" role="graphics-symbol" aria-roledescription="area mark" d="M0,300L23.529,300L47.059,300L70.588,298.636L94.118,300L117.647,300L141.176,300L164.706,283.636L188.235,298.636L211.765,293.182L235.294,283.636L258.824,214.091L282.353,238.636L305.882,171.818L329.412,260.455L352.941,272.727L376.471,280.909L400,287.727L423.529,263.182L447.059,188.182L470.588,190.909L494.118,282.273L517.647,259.091L541.176,261.818L564.706,255L588.235,286.364L611.765,270L635.294,259.091L658.824,200.455L682.353,285L705.882,286.364L729.412,293.182L752.941,291.818L776.471,295.909L800,271.364L800,271.364L776.471,295.909L752.941,291.818L729.412,293.182L705.882,286.364L682.353,285L658.824,203.182L635.294,260.455L611.765,270L588.235,286.364L564.706,256.364L541.176,261.818L517.647,259.091L494.118,282.273L470.588,190.909L447.059,189.545L423.529,263.182L400,287.727L376.471,282.273L352.941,272.727L329.412,260.455L305.882,171.818L282.353,238.636L258.824,218.182L235.294,283.636L211.765,293.182L188.235,298.636L164.706,283.636L141.176,300L117.647,300L94.118,300L70.588,298.636L47.059,300L23.529,300L0,300Z" fill="#e45756"/></g></g><path class="foreground" aria-hidden="true" d="" display="none"/></g><g transform="translate(0,0)"><path class="background" aria-hidden="true" d="M0,0h800v300h-800Z"/><g><g class="mark-area role-mark marks" role="graphics-object" aria-roledescription="area mark container"><path aria-label="Date: Mar 16, 2026; Unique Clones/day: 0; Repository: karlmdavis/datanucleus-test-jdo-1-to-n" role="graphics-symbol" aria-roledescription="area mark" d="M0,300L23.529,300L47.059,300L70.588,298.636L94.118,300L117.647,300L141.176,300L164.706,283.636L188.235,298.636L211.765,293.182L235.294,283.636L258.824,218.182L282.353,238.636L305.882,171.818L329.412,260.455L352.941,272.727L376.471,282.273L400,287.727L423.529,263.182L447.059,189.545L470.588,190.909L494.118,282.273L517.647,259.091L541.176,261.818L564.706,256.364L588.235,286.364L611.765,270L635.294,260.455L658.824,203.182L682.353,285L705.882,286.364L729.412,293.182L752.941,291.818L776.471,295.909L800,271.364L800,271.364L776.471,295.909L752.941,293.182L729.412,293.182L705.882,286.364L682.353,286.364L658.824,203.182L635.294,260.455L611.765,270L588.235,286.364L564.706,256.364L541.176,261.818L517.647,259.091L494.118,282.273L470.588,190.909L447.059,189.545L423.529,263.182L400,287.727L376.471,282.273L352.941,272.727L329.412,260.455L305.882,171.818L282.353,240L258.824,218.182L235.294,283.636L211.765,293.182L188.235,298.636L164.706,283.636L141.176,300L117.647,300L94.118,300L70.588,298.636L47.059,300L23.529,300L0,300Z" fill="#72b7b2"/></g></g><path class="foreground" aria-hidden="true" d="" display="none"/></g><g transform="translate(0,0)"><path class="background" aria-hidden="true" d="M0,0h800v300h-800Z"/><g><g class="mark-area role-mark marks" role="graphics-object" aria-roledescription="area mark container"><path aria-label="Date: Mar 16, 2026; Unique Clones/day: 0; Repository: karlmdavis/dotfiles" role="graphics-symbol" aria-roledescription="area mark" d="M0,300L23.529,300L47.059,300L70.588,298.636L94.118,300L117.647,300L141.176,300L164.706,283.636L188.235,298.636L211.765,293.182L235.294,283.636L258.824,218.182L282.353,240L305.882,171.818L329.412,260.455L352.941,272.727L376.471,282.273L400,287.727L423.529,263.182L447.059,189.545L470.588,190.909L494.118,282.273L517.647,259.091L541.176,261.818L564.706,256.364L588.235,286.364L611.765,270L635.294,260.455L658.824,203.182L682.353,286.364L705.882,286.364L729.412,293.182L752.941,293.182L776.471,295.909L800,271.364L800,274.091L776.471,295.909L752.941,294.545L729.412,294.545L705.882,286.364L682.353,286.364L658.824,210L635.294,260.455L611.765,272.727L588.235,286.364L564.706,257.727L541.176,263.182L517.647,259.091L494.118,282.273L470.588,192.273L447.059,190.909L423.529,263.182L400,289.091L376.471,283.636L352.941,274.091L329.412,260.455L305.882,171.818L282.353,240L258.824,220.909L235.294,283.636L211.765,293.182L188.235,298.636L164.706,285L141.176,300L117.647,300L94.118,300L70.588,298.636L47.059,300L23.529,300L0,300Z" fill="#54a24b"/></g></g><path class="foreground" aria-hidden="true" d="" display="none"/></g><g transform="translate(0,0)"><path class="background" aria-hidden="true" d="M0,0h800v300h-800Z"/><g><g class="mark-area role-mark marks" role="graphics-object" aria-roledescription="area mark container"><path aria-label="Date: Mar 16, 2026; Unique Clones/day: 0; Repository: karlmdavis/fhir-benchmarks" role="graphics-symbol" aria-roledescription="area mark" d="M0,300L23.529,300L47.059,300L70.588,298.636L94.118,300L117.647,300L141.176,300L164.706,285L188.235,298.636L211.765,293.182L235.294,283.636L258.824,220.909L282.353,240L305.882,171.818L329.412,260.455L352.941,274.091L376.471,283.636L400,289.091L423.529,263.182L447.059,190.909L470.588,192.273L494.118,282.273L517.647,259.091L541.176,263.182L564.706,257.727L588.235,286.364L611.765,272.727L635.294,260.455L658.824,210L682.353,286.364L705.882,286.364L729.412,294.545L752.941,294.545L776.471,295.909L800,274.091L800,274.091L776.471,297.273L752.941,295.909L729.412,294.545L705.882,287.727L682.353,290.455L658.824,216.818L635.294,260.455L611.765,275.455L588.235,286.364L564.706,260.455L541.176,272.727L517.647,260.455L494.118,282.273L470.588,193.636L447.059,192.273L423.529,264.545L400,289.091L376.471,285L352.941,276.818L329.412,261.818L305.882,173.182L282.353,240L258.824,223.636L235.294,283.636L211.765,294.545L188.235,298.636L164.706,286.364L141.176,300L117.647,300L94.118,300L70.588,298.636L47.059,300L23.529,300L0,300Z" fill="#eeca3b"/></g></g><path class="foreground" aria-hidden="true" d="" display="none"/></g><g transform="translate(0,0)"><path class="background" aria-hidden="true" d="M0,0h800v300h-800Z"/><g><g class="mark-area role-mark marks" role="graphics-object" aria-roledescription="area mark container"><path aria-label="Date: Mar 16, 2026; Unique Clones/day: 0; Repository: karlmdavis/hapi-fhir-jpaserver-starter" role="graphics-symbol" aria-roledescription="area mark" d="M0,300L23.529,300L47.059,300L70.588,298.636L94.118,300L117.647,300L141.176,300L164.706,286.364L188.235,298.636L211.765,294.545L235.294,283.636L258.824,223.636L282.353,240L305.882,173.182L329.412,261.818L352.941,276.818L376.471,285L400,289.091L423.529,264.545L447.059,192.273L470.588,193.636L494.118,282.273L517.647,260.455L541.176,272.727L564.706,260.455L588.235,286.364L611.765,275.455L635.294,260.455L658.824,216.818L682.353,290.455L705.882,287.727L729.412,294.545L752.941,295.909L776.471,297.273L800,274.091L800,274.091L776.471,297.273L752.941,295.909L729.412,294.545L705.882,287.727L682.353,290.455L658.824,218.182L635.294,260.455L611.765,275.455L588.235,286.364L564.706,260.455L541.176,272.727L517.647,260.455L494.118,282.273L470.588,193.636L447.059,192.273L423.529,265.909L400,290.455L376.471,285L352.941,276.818L329.412,261.818L305.882,173.182L282.353,240L258.824,223.636L235.294,285L211.765,294.545L188.235,298.636L164.706,286.364L141.176,300L117.647,300L94.118,300L70.588,298.636L47.059,300L23.529,300L0,300Z" fill="#b279a2"/></g></g><path class="foreground" aria-hidden="true" d="" display="none"/></g><g transform="translate(0,0)"><path class="background" aria-hidden="true" d="M0,0h800v300h-800Z"/><g><g class="mark-area role-mark marks" role="graphics-object" aria-roledescription="area mark container"><path aria-label="Date: Mar 16, 2026; Unique Clones/day: 0; Repository: karlmdavis/hello-rust-actix" role="graphics-symbol" aria-roledescription="area mark" d="M0,300L23.529,300L47.059,300L70.588,298.636L94.118,300L117.647,300L141.176,300L164.706,286.364L188.235,298.636L211.765,294.545L235.294,285L258.824,223.636L282.353,240L305.882,173.182L329.412,261.818L352.941,276.818L376.471,285L400,290.455L423.529,265.909L447.059,192.273L470.588,193.636L494.118,282.273L517.647,260.455L541.176,272.727L564.706,260.455L588.235,286.364L611.765,275.455L635.294,260.455L658.824,218.182L682.353,290.455L705.882,287.727L729.412,294.545L752.941,295.909L776.471,297.273L800,274.091L800,274.091L776.471,297.273L752.941,295.909L729.412,294.545L705.882,287.727L682.353,290.455L658.824,220.909L635.294,261.818L611.765,275.455L588.235,286.364L564.706,261.818L541.176,272.727L517.647,260.455L494.118,282.273L470.588,193.636L447.059,193.636L423.529,265.909L400,290.455L376.471,285L352.941,278.182L329.412,261.818L305.882,173.182L282.353,240L258.824,225L235.294,285L211.765,294.545L188.235,298.636L164.706,286.364L141.176,300L117.647,300L94.118,300L70.588,298.636L47.059,300L23.529,300L0,300Z" fill="#ff9da6"/></g></g><path class="foreground" aria-hidden="true" d="" display="none"/></g><g transform="translate(0,0)"><path class="background" aria-hidden="true" d="M0,0h800v300h-800Z"/><g><g class="mark-area role-mark marks" role="graphics-object" aria-roledescription="area mark container"><path aria-label="Date: Mar 16, 2026; Unique Clones/day: 0; Repository: karlmdavis/jessentials" role="graphics-symbol" aria-roledescription="area mark" d="M0,300L23.529,300L47.059,300L70.588,298.636L94.118,300L117.647,300L141.176,300L164.706,286.364L188.235,298.636L211.765,294.545L235.294,285L258.824,225L282.353,240L305.882,173.182L329.412,261.818L352.941,278.182L376.471,285L400,290.455L423.529,265.909L447.059,193.636L470.588,193.636L494.118,282.273L517.647,260.455L541.176,272.727L564.706,261.818L588.235,286.364L611.765,275.455L635.294,261.818L658.824,220.909L682.353,290.455L705.882,287.727L729.412,294.545L752.941,295.909L776.471,297.273L800,274.091L800,275.455L776.471,297.273L752.941,295.909L729.412,294.545L705.882,287.727L682.353,290.455L658.824,223.636L635.294,261.818L611.765,276.818L588.235,286.364L564.706,264.545L541.176,283.636L517.647,260.455L494.118,282.273L470.588,193.636L447.059,195L423.529,265.909L400,290.455L376.471,285L352.941,278.182L329.412,263.182L305.882,173.182L282.353,240L258.824,226.364L235.294,285L211.765,294.545L188.235,298.636L164.706,287.727L141.176,300L117.647,300L94.118,300L70.588,298.636L47.059,300L23.529,300L0,300Z" fill="#9d755d"/></g></g><path class="foreground" aria-hidden="true" d="" display="none"/></g><g transform="translate(0,0)"><path class="background" aria-hidden="true" d="M0,0h800v300h-800Z"/><g><g class="mark-area role-mark marks" role="graphics-object" aria-roledescription="area mark container"><path aria-label="Date: Mar 16, 2026; Unique Clones/day: 0; Repository: karlmdavis/justdavis-ansible" role="graphics-symbol" aria-roledescription="area mark" d="M0,300L23.529,300L47.059,300L70.588,298.636L94.118,300L117.647,300L141.176,300L164.706,287.727L188.235,298.636L211.765,294.545L235.294,285L258.824,226.364L282.353,240L305.882,173.182L329.412,263.182L352.941,278.182L376.471,285L400,290.455L423.529,265.909L447.059,195L470.588,193.636L494.118,282.273L517.647,260.455L541.176,283.636L564.706,264.545L588.235,286.364L611.765,276.818L635.294,261.818L658.824,223.636L682.353,290.455L705.882,287.727L729.412,294.545L752.941,295.909L776.471,297.273L800,275.455L800,280.909L776.471,297.273L752.941,295.909L729.412,294.545L705.882,287.727L682.353,290.455L658.824,227.727L635.294,267.273L611.765,276.818L588.235,287.727L564.706,265.909L541.176,283.636L517.647,260.455L494.118,282.273L470.588,193.636L447.059,196.364L423.529,265.909L400,290.455L376.471,286.364L352.941,278.182L329.412,263.182L305.882,173.182L282.353,241.364L258.824,227.727L235.294,285L211.765,295.909L188.235,298.636L164.706,287.727L141.176,300L117.647,300L94.118,300L70.588,298.636L47.059,300L23.529,300L0,300Z" fill="#bab0ac"/></g></g><path class="foreground" aria-hidden="true" d="" display="none"/></g><g transform="translate(0,0)"><path class="background" aria-hidden="true" d="M0,0h800v300h-800Z"/><g><g class="mark-area role-mark marks" role="graphics-object" aria-roledescription="area mark container"><path aria-label="Date: Mar 16, 2026; Unique Clones/day: 0; Repository: karlmdavis/justdavis-finances" role="graphics-symbol" aria-roledescription="area mark" d="M0,300L23.529,300L47.059,300L70.588,298.636L94.118,300L117.647,300L141.176,300L164.706,287.727L188.235,298.636L211.765,295.909L235.294,285L258.824,227.727L282.353,241.364L305.882,173.182L329.412,263.182L352.941,278.182L376.471,286.364L400,290.455L423.529,265.909L447.059,196.364L470.588,193.636L494.118,282.273L517.647,260.455L541.176,283.636L564.706,265.909L588.235,287.727L611.765,276.818L635.294,267.273L658.824,227.727L682.353,290.455L705.882,287.727L729.412,294.545L752.941,295.909L776.471,297.273L800,280.909L800,294.545L776.471,297.273L752.941,295.909L729.412,294.545L705.882,289.091L682.353,293.182L658.824,248.182L635.294,290.455L611.765,279.545L588.235,287.727L564.706,267.273L541.176,285L517.647,283.636L494.118,293.182L470.588,295.909L447.059,274.091L423.529,293.182L400,291.818L376.471,287.727L352.941,279.545L329.412,283.636L305.882,289.091L282.353,291.818L258.824,270L235.294,286.364L211.765,297.273L188.235,298.636L164.706,287.727L141.176,300L117.647,300L94.118,300L70.588,298.636L47.059,300L23.529,300L0,300Z" fill="#4c78a8"/></g></g><path class="foreground" aria-hidden="true" d="" display="none"/></g><g transform="translate(0,0)"><path class="background" aria-hidden="true" d="M0,0h800v300h-800Z"/><g><g class="mark-area role-mark marks" role="graphics-object" aria-roledescription="area mark container"><path aria-label="Date: Mar 16, 2026; Unique Clones/day: 0; Repository: karlmdavis/justdavis-karl" role="graphics-symbol" aria-roledescription="area mark" d="M0,300L23.529,300L47.059,300L70.588,298.636L94.118,300L117.647,300L141.176,300L164.706,287.727L188.235,298.636L211.765,297.273L235.294,286.364L258.824,270L282.353,291.818L305.882,289.091L329.412,283.636L352.941,279.545L376.471,287.727L400,291.818L423.529,293.182L447.059,274.091L470.588,295.909L494.118,293.182L517.647,283.636L541.176,285L564.706,267.273L588.235,287.727L611.765,279.545L635.294,290.455L658.824,248.182L682.353,293.182L705.882,289.091L729.412,294.545L752.941,295.909L776.471,297.273L800,294.545L800,294.545L776.471,297.273L752.941,295.909L729.412,294.545L705.882,289.091L682.353,293.182L658.824,252.273L635.294,291.818L611.765,280.909L588.235,287.727L564.706,270L541.176,285L517.647,283.636L494.118,294.545L470.588,295.909L447.059,275.455L423.529,293.182L400,293.182L376.471,287.727L352.941,280.909L329.412,285L305.882,289.091L282.353,293.182L258.824,271.364L235.294,286.364L211.765,297.273L188.235,298.636L164.706,289.091L141.176,300L117.647,300L94.118,300L70.588,298.636L47.059,300L23.529,300L0,300Z" fill="#f58518"/></g></g><path class="foreground" aria-hidden="true" d="" display="none"/></g><g transform="translate(0,0)"><path class="background" aria-hidden="true" d="M0,0h800v300h-800Z"/><g><g class="mark-area role-mark marks" role="graphics-object" aria-roledescription="area mark container"><path aria-label="Date: Mar 16, 2026; Unique Clones/day: 0; Repository: karlmdavis/justdavis-puppet" role="graphics-symbol" aria-roledescription="area mark" d="M0,300L23.529,300L47.059,300L70.588,298.636L94.118,300L117.647,300L141.176,300L164.706,289.091L188.235,298.636L211.765,297.273L235.294,286.364L258.824,271.364L282.353,293.182L305.882,289.091L329.412,285L352.941,280.909L376.471,287.727L400,293.182L423.529,293.182L447.059,275.455L470.588,295.909L494.118,294.545L517.647,283.636L541.176,285L564.706,270L588.235,287.727L611.765,280.909L635.294,291.818L658.824,252.273L682.353,293.182L705.882,289.091L729.412,294.545L752.941,295.909L776.471,297.273L800,294.545L800,294.545L776.471,297.273L752.941,295.909L729.412,294.545L705.882,289.091L682.353,293.182L658.824,255L635.294,293.182L611.765,282.273L588.235,287.727L564.706,271.364L541.176,286.364L517.647,283.636L494.118,294.545L470.588,295.909L447.059,276.818L423.529,293.182L400,293.182L376.471,287.727L352.941,283.636L329.412,286.364L305.882,289.091L282.353,293.182L258.824,272.727L235.294,286.364L211.765,297.273L188.235,298.636L164.706,289.091L141.176,300L117.647,300L94.118,300L70.588,298.636L47.059,300L23.529,300L0,300Z" fill="#e45756"/></g></g><path class="foreground" aria-hidden="true" d="" display="none"/></g><g transform="translate(0,0)"><path class="background" aria-hidden="true" d="M0,0h800v300h-800Z"/><g><g class="mark-area role-mark marks" role="graphics-object" aria-roledescription="area mark container"><path aria-label="Date: Mar 16, 2026; Unique Clones/day: 0; Repository: karlmdavis/kobjects" role="graphics-symbol" aria-roledescription="area mark" d="M0,300L23.529,300L47.059,300L70.588,298.636L94.118,300L117.647,300L141.176,300L164.706,289.091L188.235,298.636L211.765,297.273L235.294,286.364L258.824,272.727L282.353,293.182L305.882,289.091L329.412,286.364L352.941,283.636L376.471,287.727L400,293.182L423.529,293.182L447.059,276.818L470.588,295.909L494.118,294.545L517.647,283.636L541.176,286.364L564.706,271.364L588.235,287.727L611.765,282.273L635.294,293.182L658.824,255L682.353,293.182L705.882,289.091L729.412,294.545L752.941,295.909L776.471,297.273L800,294.545L800,294.545L776.471,297.273L752.941,295.909L729.412,294.545L705.882,289.091L682.353,293.182L658.824,257.727L635.294,293.182L611.765,283.636L588.235,287.727L564.706,274.091L541.176,286.364L517.647,283.636L494.118,294.545L470.588,295.909L447.059,278.182L423.529,293.182L400,293.182L376.471,287.727L352.941,283.636L329.412,286.364L305.882,289.091L282.353,293.182L258.824,274.091L235.294,287.727L211.765,297.273L188.235,298.636L164.706,289.091L141.176,300L117.647,300L94.118,300L70.588,298.636L47.059,300L23.529,300L0,300Z" fill="#72b7b2"/></g></g><path class="foreground" aria-hidden="true" d="" display="none"/></g><g transform="translate(0,0)"><path class="background" aria-hidden="true" d="M0,0h800v300h-800Z"/><g><g class="mark-area role-mark marks" role="graphics-object" aria-roledescription="area mark container"><path aria-label="Date: Mar 16, 2026; Unique Clones/day: 0; Repository: karlmdavis/ksoap2-android" role="graphics-symbol" aria-roledescription="area mark" d="M0,300L23.529,300L47.059,300L70.588,298.636L94.118,300L117.647,300L141.176,300L164.706,289.091L188.235,298.636L211.765,297.273L235.294,287.727L258.824,274.091L282.353,293.182L305.882,289.091L329.412,286.364L352.941,283.636L376.471,287.727L400,293.182L423.529,293.182L447.059,278.182L470.588,295.909L494.118,294.545L517.647,283.636L541.176,286.364L564.706,274.091L588.235,287.727L611.765,283.636L635.294,293.182L658.824,257.727L682.353,293.182L705.882,289.091L729.412,294.545L752.941,295.909L776.471,297.273L800,294.545L800,294.545L776.471,297.273L752.941,295.909L729.412,294.545L705.882,291.818L682.353,293.182L658.824,260.455L635.294,293.182L611.765,285L588.235,291.818L564.706,275.455L541.176,294.545L517.647,290.455L494.118,295.909L470.588,295.909L447.059,282.273L423.529,293.182L400,294.545L376.471,289.091L352.941,285L329.412,291.818L305.882,291.818L282.353,293.182L258.824,275.455L235.294,291.818L211.765,297.273L188.235,298.636L164.706,290.455L141.176,300L117.647,300L94.118,300L70.588,298.636L47.059,300L23.529,300L0,300Z" fill="#54a24b"/></g></g><path class="foreground" aria-hidden="true" d="" display="none"/></g><g transform="translate(0,0)"><path class="background" aria-hidden="true" d="M0,0h800v300h-800Z"/><g><g class="mark-area role-mark marks" role="graphics-object" aria-roledescription="area mark container"><path aria-label="Date: Mar 16, 2026; Unique Clones/day: 0; Repository: karlmdavis/kxml2" role="graphics-symbol" aria-roledescription="area mark" d="M0,300L23.529,300L47.059,300L70.588,298.636L94.118,300L117.647,300L141.176,300L164.706,290.455L188.235,298.636L211.765,297.273L235.294,291.818L258.824,275.455L282.353,293.182L305.882,291.818L329.412,291.818L352.941,285L376.471,289.091L400,294.545L423.529,293.182L447.059,282.273L470.588,295.909L494.118,295.909L517.647,290.455L541.176,294.545L564.706,275.455L588.235,291.818L611.765,285L635.294,293.182L658.824,260.455L682.353,293.182L705.882,291.818L729.412,294.545L752.941,295.909L776.471,297.273L800,294.545L800,295.909L776.471,297.273L752.941,295.909L729.412,295.909L705.882,293.182L682.353,294.545L658.824,264.545L635.294,293.182L611.765,285L588.235,291.818L564.706,276.818L541.176,294.545L517.647,291.818L494.118,297.273L470.588,297.273L447.059,283.636L423.529,293.182L400,294.545L376.471,289.091L352.941,286.364L329.412,295.909L305.882,293.182L282.353,293.182L258.824,278.182L235.294,293.182L211.765,297.273L188.235,298.636L164.706,291.818L141.176,300L117.647,300L94.118,300L70.588,298.636L47.059,300L23.529,300L0,300Z" fill="#eeca3b"/></g></g><path class="foreground" aria-hidden="true" d="" display="none"/></g><g transform="translate(0,0)"><path class="background" aria-hidden="true" d="M0,0h800v300h-800Z"/><g><g class="mark-area role-mark marks" role="graphics-object" aria-roledescription="area mark container"><path aria-label="Date: Mar 16, 2026; Unique Clones/day: 0; Repository: karlmdavis/ldap-plugin" role="graphics-symbol" aria-roledescription="area mark" d="M0,300L23.529,300L47.059,300L70.588,298.636L94.118,300L117.647,300L141.176,300L164.706,291.818L188.235,298.636L211.765,297.273L235.294,293.182L258.824,278.182L282.353,293.182L305.882,293.182L329.412,295.909L352.941,286.364L376.471,289.091L400,294.545L423.529,293.182L447.059,283.636L470.588,297.273L494.118,297.273L517.647,291.818L541.176,294.545L564.706,276.818L588.235,291.818L611.765,285L635.294,293.182L658.824,264.545L682.353,294.545L705.882,293.182L729.412,295.909L752.941,295.909L776.471,297.273L800,295.909L800,295.909L776.471,297.273L752.941,295.909L729.412,295.909L705.882,293.182L682.353,294.545L658.824,264.545L635.294,293.182L611.765,285L588.235,291.818L564.706,276.818L541.176,294.545L517.647,291.818L494.118,297.273L470.588,297.273L447.059,283.636L423.529,294.545L400,295.909L376.471,289.091L352.941,286.364L329.412,295.909L305.882,293.182L282.353,293.182L258.824,278.182L235.294,293.182L211.765,297.273L188.235,298.636L164.706,291.818L141.176,300L117.647,300L94.118,300L70.588,298.636L47.059,300L23.529,300L0,300Z" fill="#b279a2"/></g></g><path class="foreground" aria-hidden="true" d="" display="none"/></g><g transform="translate(0,0)"><path class="background" aria-hidden="true" d="M0,0h800v300h-800Z"/><g><g class="mark-area role-mark marks" role="graphics-object" aria-roledescription="area mark container"><path aria-label="Date: Mar 16, 2026; Unique Clones/day: 0; Repository: karlmdavis/lego-ev3dev-rs" role="graphics-symbol" aria-roledescription="area mark" d="M0,300L23.529,300L47.059,300L70.588,298.636L94.118,300L117.647,300L141.176,300L164.706,291.818L188.235,298.636L211.765,297.273L235.294,293.182L258.824,278.182L282.353,293.182L305.882,293.182L329.412,295.909L352.941,286.364L376.471,289.091L400,295.909L423.529,294.545L447.059,283.636L470.588,297.273L494.118,297.273L517.647,291.818L541.176,294.545L564.706,276.818L588.235,291.818L611.765,285L635.294,293.182L658.824,264.545L682.353,294.545L705.882,293.182L729.412,295.909L752.941,295.909L776.471,297.273L800,295.909L800,295.909L776.471,298.636L752.941,297.273L729.412,295.909L705.882,294.545L682.353,294.545L658.824,268.636L635.294,293.182L611.765,287.727L588.235,291.818L564.706,279.545L541.176,294.545L517.647,293.182L494.118,297.273L470.588,298.636L447.059,285L423.529,295.909L400,295.909L376.471,290.455L352.941,289.091L329.412,295.909L305.882,294.545L282.353,294.545L258.824,282.273L235.294,293.182L211.765,298.636L188.235,298.636L164.706,293.182L141.176,300L117.647,300L94.118,300L70.588,298.636L47.059,300L23.529,300L0,300Z" fill="#ff9da6"/></g></g><path class="foreground" aria-hidden="true" d="" display="none"/></g><g transform="translate(0,0)"><path class="background" aria-hidden="true" d="M0,0h800v300h-800Z"/><g><g class="mark-area role-mark marks" role="graphics-object" aria-roledescription="area mark container"><path aria-label="Date: Mar 16, 2026; Unique Clones/day: 0; Repository: karlmdavis/liquibase" role="graphics-symbol" aria-roledescription="area mark" d="M0,300L23.529,300L47.059,300L70.588,298.636L94.118,300L117.647,300L141.176,300L164.706,293.182L188.235,298.636L211.765,298.636L235.294,293.182L258.824,282.273L282.353,294.545L305.882,294.545L329.412,295.909L352.941,289.091L376.471,290.455L400,295.909L423.529,295.909L447.059,285L470.588,298.636L494.118,297.273L517.647,293.182L541.176,294.545L564.706,279.545L588.235,291.818L611.765,287.727L635.294,293.182L658.824,268.636L682.353,294.545L705.882,294.545L729.412,295.909L752.941,297.273L776.471,298.636L800,295.909L800,295.909L776.471,298.636L752.941,297.273L729.412,295.909L705.882,294.545L682.353,294.545L658.824,268.636L635.294,293.182L611.765,287.727L588.235,293.182L564.706,280.909L541.176,294.545L517.647,293.182L494.118,297.273L470.588,298.636L447.059,285L423.529,295.909L400,295.909L376.471,290.455L352.941,289.091L329.412,295.909L305.882,294.545L282.353,294.545L258.824,282.273L235.294,293.182L211.765,298.636L188.235,298.636L164.706,293.182L141.176,300L117.647,300L94.118,300L70.588,300L47.059,300L23.529,300L0,300Z" fill="#9d755d"/></g></g><path class="foreground" aria-hidden="true" d="" display="none"/></g><g transform="translate(0,0)"><path class="background" aria-hidden="true" d="M0,0h800v300h-800Z"/><g><g class="mark-area role-mark marks" role="graphics-object" aria-roledescription="area mark container"><path aria-label="Date: Mar 16, 2026; Unique Clones/day: 0; Repository: karlmdavis/m2e-core" role="graphics-symbol" aria-roledescription="area mark" d="M0,300L23.529,300L47.059,300L70.588,300L94.118,300L117.647,300L141.176,300L164.706,293.182L188.235,298.636L211.765,298.636L235.294,293.182L258.824,282.273L282.353,294.545L305.882,294.545L329.412,295.909L352.941,289.091L376.471,290.455L400,295.909L423.529,295.909L447.059,285L470.588,298.636L494.118,297.273L517.647,293.182L541.176,294.545L564.706,280.909L588.235,293.182L611.765,287.727L635.294,293.182L658.824,268.636L682.353,294.545L705.882,294.545L729.412,295.909L752.941,297.273L776.471,298.636L800,295.909L800,295.909L776.471,298.636L752.941,297.273L729.412,295.909L705.882,294.545L682.353,294.545L658.824,271.364L635.294,293.182L611.765,289.091L588.235,294.545L564.706,283.636L541.176,295.909L517.647,294.545L494.118,297.273L470.588,298.636L447.059,286.364L423.529,295.909L400,295.909L376.471,290.455L352.941,289.091L329.412,295.909L305.882,295.909L282.353,294.545L258.824,283.636L235.294,293.182L211.765,298.636L188.235,298.636L164.706,293.182L141.176,300L117.647,300L94.118,300L70.588,300L47.059,300L23.529,300L0,300Z" fill="#bab0ac"/></g></g><path class="foreground" aria-hidden="true" d="" display="none"/></g><g transform="translate(0,0)"><path class="background" aria-hidden="true" d="M0,0h800v300h-800Z"/><g><g class="mark-area role-mark marks" role="graphics-object" aria-roledescription="area mark container"><path aria-label="Date: Mar 16, 2026; Unique Clones/day: 0; Repository: karlmdavis/m2e-core-tests" role="graphics-symbol" aria-roledescription="area mark" d="M0,300L23.529,300L47.059,300L70.588,300L94.118,300L117.647,300L141.176,300L164.706,293.182L188.235,298.636L211.765,298.636L235.294,293.182L258.824,283.636L282.353,294.545L305.882,295.909L329.412,295.909L352.941,289.091L376.471,290.455L400,295.909L423.529,295.909L447.059,286.364L470.588,298.636L494.118,297.273L517.647,294.545L541.176,295.909L564.706,283.636L588.235,294.545L611.765,289.091L635.294,293.182L658.824,271.364L682.353,294.545L705.882,294.545L729.412,295.909L752.941,297.273L776.471,298.636L800,295.909L800,295.909L776.471,298.636L752.941,297.273L729.412,295.909L705.882,294.545L682.353,294.545L658.824,271.364L635.294,294.545L611.765,289.091L588.235,297.273L564.706,285L541.176,297.273L517.647,295.909L494.118,297.273L470.588,298.636L447.059,286.364L423.529,295.909L400,295.909L376.471,293.182L352.941,289.091L329.412,295.909L305.882,295.909L282.353,295.909L258.824,283.636L235.294,294.545L211.765,298.636L188.235,298.636L164.706,293.182L141.176,300L117.647,300L94.118,300L70.588,300L47.059,300L23.529,300L0,300Z" fill="#4c78a8"/></g></g><path class="foreground" aria-hidden="true" d="" display="none"/></g><g transform="translate(0,0)"><path class="background" aria-hidden="true" d="M0,0h800v300h-800Z"/><g><g class="mark-area role-mark marks" role="graphics-object" aria-roledescription="area mark container"><path aria-label="Date: Mar 16, 2026; Unique Clones/day: 0; Repository: karlmdavis/obsidian-operator" role="graphics-symbol" aria-roledescription="area mark" d="M0,300L23.529,300L47.059,300L70.588,300L94.118,300L117.647,300L141.176,300L164.706,293.182L188.235,298.636L211.765,298.636L235.294,294.545L258.824,283.636L282.353,295.909L305.882,295.909L329.412,295.909L352.941,289.091L376.471,293.182L400,295.909L423.529,295.909L447.059,286.364L470.588,298.636L494.118,297.273L517.647,295.909L541.176,297.273L564.706,285L588.235,297.273L611.765,289.091L635.294,294.545L658.824,271.364L682.353,294.545L705.882,294.545L729.412,295.909L752.941,297.273L776.471,298.636L800,295.909L800,298.636L776.471,298.636L752.941,297.273L729.412,295.909L705.882,297.273L682.353,295.909L658.824,274.091L635.294,295.909L611.765,291.818L588.235,297.273L564.706,286.364L541.176,297.273L517.647,295.909L494.118,297.273L470.588,298.636L447.059,287.727L423.529,298.636L400,295.909L376.471,293.182L352.941,293.182L329.412,295.909L305.882,295.909L282.353,295.909L258.824,285L235.294,294.545L211.765,298.636L188.235,298.636L164.706,294.545L141.176,300L117.647,300L94.118,300L70.588,300L47.059,300L23.529,300L0,300Z" fill="#f58518"/></g></g><path class="foreground" aria-hidden="true" d="" display="none"/></g><g transform="translate(0,0)"><path class="background" aria-hidden="true" d="M0,0h800v300h-800Z"/><g><g class="mark-area role-mark marks" role="graphics-object" aria-roledescription="area mark container"><path aria-label="Date: Mar 16, 2026; Unique Clones/day: 0; Repository: karlmdavis/perfect-note" role="graphics-symbol" aria-roledescription="area mark" d="M0,300L23.529,300L47.059,300L70.588,300L94.118,300L117.647,300L141.176,300L164.706,294.545L188.235,298.636L211.765,298.636L235.294,294.545L258.824,285L282.353,295.909L305.882,295.909L329.412,295.909L352.941,293.182L376.471,293.182L400,295.909L423.529,298.636L447.059,287.727L470.588,298.636L494.118,297.273L517.647,295.909L541.176,297.273L564.706,286.364L588.235,297.273L611.765,291.818L635.294,295.909L658.824,274.091L682.353,295.909L705.882,297.273L729.412,295.909L752.941,297.273L776.471,298.636L800,298.636L800,298.636L776.471,298.636L752.941,297.273L729.412,295.909L705.882,297.273L682.353,297.273L658.824,276.818L635.294,295.909L611.765,291.818L588.235,297.273L564.706,287.727L541.176,297.273L517.647,295.909L494.118,297.273L470.588,298.636L447.059,289.091L423.529,298.636L400,295.909L376.471,293.182L352.941,293.182L329.412,295.909L305.882,295.909L282.353,297.273L258.824,286.364L235.294,295.909L211.765,298.636L188.235,298.636L164.706,294.545L141.176,300L117.647,300L94.118,300L70.588,300L47.059,300L23.529,300L0,300Z" fill="#e45756"/></g></g><path class="foreground" aria-hidden="true" d="" display="none"/></g><g transform="translate(0,0)"><path class="background" aria-hidden="true" d="M0,0h800v300h-800Z"/><g><g class="mark-area role-mark marks" role="graphics-object" aria-roledescription="area mark container"><path aria-label="Date: Mar 16, 2026; Unique Clones/day: 0; Repository: karlmdavis/puppet-archive" role="graphics-symbol" aria-roledescription="area mark" d="M0,300L23.529,300L47.059,300L70.588,300L94.118,300L117.647,300L141.176,300L164.706,294.545L188.235,298.636L211.765,298.636L235.294,295.909L258.824,286.364L282.353,297.273L305.882,295.909L329.412,295.909L352.941,293.182L376.471,293.182L400,295.909L423.529,298.636L447.059,289.091L470.588,298.636L494.118,297.273L517.647,295.909L541.176,297.273L564.706,287.727L588.235,297.273L611.765,291.818L635.294,295.909L658.824,276.818L682.353,297.273L705.882,297.273L729.412,295.909L752.941,297.273L776.471,298.636L800,298.636L800,298.636L776.471,298.636L752.941,297.273L729.412,295.909L705.882,297.273L682.353,297.273L658.824,276.818L635.294,295.909L611.765,293.182L588.235,297.273L564.706,289.091L541.176,297.273L517.647,295.909L494.118,297.273L470.588,298.636L447.059,289.091L423.529,298.636L400,295.909L376.471,293.182L352.941,293.182L329.412,295.909L305.882,295.909L282.353,297.273L258.824,286.364L235.294,295.909L211.765,298.636L188.235,298.636L164.706,295.909L141.176,300L117.647,300L94.118,300L70.588,300L47.059,300L23.529,300L0,300Z" fill="#72b7b2"/></g></g><path class="foreground" aria-hidden="true" d="" display="none"/></g><g transform="translate(0,0)"><path class="background" aria-hidden="true" d="M0,0h800v300h-800Z"/><g><g class="mark-area role-mark marks" role="graphics-object" aria-roledescription="area mark container"><path aria-label="Date: Mar 16, 2026; Unique Clones/day: 0; Repository: karlmdavis/puppet-sonar" role="graphics-symbol" aria-roledescription="area mark" d="M0,300L23.529,300L47.059,300L70.588,300L94.118,300L117.647,300L141.176,300L164.706,295.909L188.235,298.636L211.765,298.636L235.294,295.909L258.824,286.364L282.353,297.273L305.882,295.909L329.412,295.909L352.941,293.182L376.471,293.182L400,295.909L423.529,298.636L447.059,289.091L470.588,298.636L494.118,297.273L517.647,295.909L541.176,297.273L564.706,289.091L588.235,297.273L611.765,293.182L635.294,295.909L658.824,276.818L682.353,297.273L705.882,297.273L729.412,295.909L752.941,297.273L776.471,298.636L800,298.636L800,298.636L776.471,298.636L752.941,297.273L729.412,295.909L705.882,297.273L682.353,298.636L658.824,276.818L635.294,295.909L611.765,294.545L588.235,297.273L564.706,289.091L541.176,298.636L517.647,297.273L494.118,297.273L470.588,298.636L447.059,289.091L423.529,298.636L400,297.273L376.471,293.182L352.941,295.909L329.412,295.909L305.882,295.909L282.353,298.636L258.824,286.364L235.294,295.909L211.765,298.636L188.235,298.636L164.706,295.909L141.176,300L117.647,300L94.118,300L70.588,300L47.059,300L23.529,300L0,300Z" fill="#54a24b"/></g></g><path class="foreground" aria-hidden="true" d="" display="none"/></g><g transform="translate(0,0)"><path class="background" aria-hidden="true" d="M0,0h800v300h-800Z"/><g><g class="mark-area role-mark marks" role="graphics-object" aria-roledescription="area mark container"><path aria-label="Date: Mar 16, 2026; Unique Clones/day: 0; Repository: karlmdavis/rps-tourney" role="graphics-symbol" aria-roledescription="area mark" d="M0,300L23.529,300L47.059,300L70.588,300L94.118,300L117.647,300L141.176,300L164.706,295.909L188.235,298.636L211.765,298.636L235.294,295.909L258.824,286.364L282.353,298.636L305.882,295.909L329.412,295.909L352.941,295.909L376.471,293.182L400,297.273L423.529,298.636L447.059,289.091L470.588,298.636L494.118,297.273L517.647,297.273L541.176,298.636L564.706,289.091L588.235,297.273L611.765,294.545L635.294,295.909L658.824,276.818L682.353,298.636L705.882,297.273L729.412,295.909L752.941,297.273L776.471,298.636L800,298.636L800,298.636L776.471,298.636L752.941,297.273L729.412,295.909L705.882,297.273L682.353,298.636L658.824,279.545L635.294,295.909L611.765,295.909L588.235,297.273L564.706,290.455L541.176,298.636L517.647,297.273L494.118,297.273L470.588,298.636L447.059,290.455L423.529,298.636L400,298.636L376.471,293.182L352.941,295.909L329.412,295.909L305.882,295.909L282.353,298.636L258.824,287.727L235.294,295.909L211.765,298.636L188.235,298.636L164.706,297.273L141.176,300L117.647,300L94.118,300L70.588,300L47.059,300L23.529,300L0,300Z" fill="#eeca3b"/></g></g><path class="foreground" aria-hidden="true" d="" display="none"/></g><g transform="translate(0,0)"><path class="background" aria-hidden="true" d="M0,0h800v300h-800Z"/><g><g class="mark-area role-mark marks" role="graphics-object" aria-roledescription="area mark container"><path aria-label="Date: Mar 16, 2026; Unique Clones/day: 0; Repository: karlmdavis/sample-maven-and-rcp" role="graphics-symbol" aria-roledescription="area mark" d="M0,300L23.529,300L47.059,300L70.588,300L94.118,300L117.647,300L141.176,300L164.706,297.273L188.235,298.636L211.765,298.636L235.294,295.909L258.824,287.727L282.353,298.636L305.882,295.909L329.412,295.909L352.941,295.909L376.471,293.182L400,298.636L423.529,298.636L447.059,290.455L470.588,298.636L494.118,297.273L517.647,297.273L541.176,298.636L564.706,290.455L588.235,297.273L611.765,295.909L635.294,295.909L658.824,279.545L682.353,298.636L705.882,297.273L729.412,295.909L752.941,297.273L776.471,298.636L800,298.636L800,298.636L776.471,298.636L752.941,297.273L729.412,295.909L705.882,297.273L682.353,298.636L658.824,282.273L635.294,295.909L611.765,295.909L588.235,297.273L564.706,291.818L541.176,298.636L517.647,297.273L494.118,297.273L470.588,298.636L447.059,291.818L423.529,298.636L400,298.636L376.471,294.545L352.941,295.909L329.412,295.909L305.882,295.909L282.353,298.636L258.824,289.091L235.294,295.909L211.765,298.636L188.235,298.636L164.706,297.273L141.176,300L117.647,300L94.118,300L70.588,300L47.059,300L23.529,300L0,300Z" fill="#b279a2"/></g></g><path class="foreground" aria-hidden="true" d="" display="none"/></g><g transform="translate(0,0)"><path class="background" aria-hidden="true" d="M0,0h800v300h-800Z"/><g><g class="mark-area role-mark marks" role="graphics-object" aria-roledescription="area mark container"><path aria-label="Date: Mar 16, 2026; Unique Clones/day: 0; Repository: karlmdavis/stockfighter-trades-solutions" role="graphics-symbol" aria-roledescription="area mark" d="M0,300L23.529,300L47.059,300L70.588,300L94.118,300L117.647,300L141.176,300L164.706,297.273L188.235,298.636L211.765,298.636L235.294,295.909L258.824,289.091L282.353,298.636L305.882,295.909L329.412,295.909L352.941,295.909L376.471,294.545L400,298.636L423.529,298.636L447.059,291.818L470.588,298.636L494.118,297.273L517.647,297.273L541.176,298.636L564.706,291.818L588.235,297.273L611.765,295.909L635.294,295.909L658.824,282.273L682.353,298.636L705.882,297.273L729.412,295.909L752.941,297.273L776.471,298.636L800,298.636L800,298.636L776.471,298.636L752.941,297.273L729.412,295.909L705.882,297.273L682.353,298.636L658.824,286.364L635.294,295.909L611.765,295.909L588.235,297.273L564.706,293.182L541.176,298.636L517.647,297.273L494.118,297.273L470.588,298.636L447.059,293.182L423.529,298.636L400,298.636L376.471,294.545L352.941,295.909L329.412,295.909L305.882,297.273L282.353,298.636L258.824,291.818L235.294,295.909L211.765,298.636L188.235,298.636L164.706,297.273L141.176,300L117.647,300L94.118,300L70.588,300L47.059,300L23.529,300L0,300Z" fill="#ff9da6"/></g></g><path class="foreground" aria-hidden="true" d="" display="none"/></g><g transform="translate(0,0)"><path class="background" aria-hidden="true" d="M0,0h800v300h-800Z"/><g><g class="mark-area role-mark marks" role="graphics-object" aria-roledescription="area mark container"><path aria-label="Date: Mar 16, 2026; Unique Clones/day: 0; Repository: karlmdavis/test-repo-for-move" role="graphics-symbol" aria-roledescription="area mark" d="M0,300L23.529,300L47.059,300L70.588,300L94.118,300L117.647,300L141.176,300L164.706,297.273L188.235,298.636L211.765,298.636L235.294,295.909L258.824,291.818L282.353,298.636L305.882,297.273L329.412,295.909L352.941,295.909L376.471,294.545L400,298.636L423.529,298.636L447.059,293.182L470.588,298.636L494.118,297.273L517.647,297.273L541.176,298.636L564.706,293.182L588.235,297.273L611.765,295.909L635.294,295.909L658.824,286.364L682.353,298.636L705.882,297.273L729.412,295.909L752.941,297.273L776.471,298.636L800,298.636L800,298.636L776.471,298.636L752.941,297.273L729.412,297.273L705.882,297.273L682.353,298.636L658.824,289.091L635.294,295.909L611.765,295.909L588.235,297.273L564.706,294.545L541.176,298.636L517.647,297.273L494.118,297.273L470.588,298.636L447.059,294.545L423.529,298.636L400,298.636L376.471,294.545L352.941,295.909L329.412,295.909L305.882,298.636L282.353,298.636L258.824,293.182L235.294,297.273L211.765,298.636L188.235,298.636L164.706,297.273L141.176,300L117.647,300L94.118,300L70.588,300L47.059,300L23.529,300L0,300Z" fill="#9d755d"/></g></g><path class="foreground" aria-hidden="true" d="" display="none"/></g><g transform="translate(0,0)"><path class="background" aria-hidden="true" d="M0,0h800v300h-800Z"/><g><g class="mark-area role-mark marks" role="graphics-object" aria-roledescription="area mark container"><path aria-label="Date: Mar 16, 2026; Unique Clones/day: 0; Repository: karlmdavis/todoist-ai" role="graphics-symbol" aria-roledescription="area mark" d="M0,300L23.529,300L47.059,300L70.588,300L94.118,300L117.647,300L141.176,300L164.706,297.273L188.235,298.636L211.765,298.636L235.294,297.273L258.824,293.182L282.353,298.636L305.882,298.636L329.412,295.909L352.941,295.909L376.471,294.545L400,298.636L423.529,298.636L447.059,294.545L470.588,298.636L494.118,297.273L517.647,297.273L541.176,298.636L564.706,294.545L588.235,297.273L611.765,295.909L635.294,295.909L658.824,289.091L682.353,298.636L705.882,297.273L729.412,297.273L752.941,297.273L776.471,298.636L800,298.636L800,298.636L776.471,298.636L752.941,297.273L729.412,297.273L705.882,298.636L682.353,298.636L658.824,289.091L635.294,295.909L611.765,297.273L588.235,297.273L564.706,294.545L541.176,298.636L517.647,297.273L494.118,297.273L470.588,298.636L447.059,294.545L423.529,298.636L400,298.636L376.471,297.273L352.941,295.909L329.412,295.909L305.882,298.636L282.353,298.636L258.824,293.182L235.294,297.273L211.765,298.636L188.235,298.636L164.706,297.273L141.176,300L117.647,300L94.118,300L70.588,300L47.059,300L23.529,300L0,300Z" fill="#bab0ac"/></g></g><path class="foreground" aria-hidden="true" d="" display="none"/></g><g transform="translate(0,0)"><path class="background" aria-hidden="true" d="M0,0h800v300h-800Z"/><g><g class="mark-area role-mark marks" role="graphics-object" aria-roledescription="area mark container"><path aria-label="Date: Mar 16, 2026; Unique Clones/day: 0; Repository: karlmdavis/usgs-water-api-java" role="graphics-symbol" aria-roledescription="area mark" d="M0,300L23.529,300L47.059,300L70.588,300L94.118,300L117.647,300L141.176,300L164.706,297.273L188.235,298.636L211.765,298.636L235.294,297.273L258.824,293.182L282.353,298.636L305.882,298.636L329.412,295.909L352.941,295.909L376.471,297.273L400,298.636L423.529,298.636L447.059,294.545L470.588,298.636L494.118,297.273L517.647,297.273L541.176,298.636L564.706,294.545L588.235,297.273L611.765,297.273L635.294,295.909L658.824,289.091L682.353,298.636L705.882,298.636L729.412,297.273L752.941,297.273L776.471,298.636L800,298.636L800,300L776.471,300L752.941,298.636L729.412,300L705.882,300L682.353,300L658.824,293.182L635.294,300L611.765,298.636L588.235,298.636L564.706,297.273L541.176,300L517.647,298.636L494.118,300L470.588,300L447.059,297.273L423.529,300L400,300L376.471,298.636L352.941,297.273L329.412,298.636L305.882,300L282.353,300L258.824,295.909L235.294,300L211.765,300L188.235,300L164.706,300L141.176,300L117.647,300L94.118,300L70.588,300L47.059,300L23.529,300L0,300Z" fill="#4c78a8"/></g></g><path class="foreground" aria-hidden="true" d="" display="none"/></g><g transform="translate(0,0)"><path class="background" aria-hidden="true" d="M0,0h800v300h-800Z"/><g><g class="mark-area role-mark marks" role="graphics-object" aria-roledescription="area mark container"><path aria-label="Date: Mar 16, 2026; Unique Clones/day: 0; Repository: karlmdavis/workstation-base-ansible-role" role="graphics-symbol" aria-roledescription="area mark" d="M0,300L23.529,300L47.059,300L70.588,300L94.118,300L117.647,300L141.176,300L164.706,300L188.235,300L211.765,300L235.294,300L258.824,295.909L282.353,300L305.882,300L329.412,298.636L352.941,297.273L376.471,298.636L400,300L423.529,300L447.059,297.273L470.588,300L494.118,300L517.647,298.636L541.176,300L564.706,297.273L588.235,298.636L611.765,298.636L635.294,300L658.824,293.182L682.353,300L705.882,300L729.412,300L752.941,298.636L776.471,300L800,300L800,300L776.471,300L752.941,298.636L729.412,300L705.882,300L682.353,300L658.824,297.273L635.294,300L611.765,300L588.235,298.636L564.706,298.636L541.176,300L517.647,298.636L494.118,300L470.588,300L447.059,298.636L423.529,300L400,300L376.471,300L352.941,298.636L329.412,300L305.882,300L282.353,300L258.824,298.636L235.294,300L211.765,300L188.235,300L164.706,300L141.176,300L117.647,300L94.118,300L70.588,300L47.059,300L23.529,300L0,300Z" fill="#f58518"/></g></g><path class="foreground" aria-hidden="true" d="" display="none"/></g><g transform="translate(0,0)"><path class="background" aria-hidden="true" d="M0,0h800v300h-800Z"/><g><g class="mark-area role-mark marks" role="graphics-object" aria-roledescription="area mark container"><path aria-label="Date: Mar 16, 2026; Unique Clones/day: 0; Repository: karlmdavis/xmlpull" role="graphics-symbol" aria-roledescription="area mark" d="M0,300L23.529,300L47.059,300L70.588,300L94.118,300L117.647,300L141.176,300L164.706,300L188.235,300L211.765,300L235.294,300L258.824,298.636L282.353,300L305.882,300L329.412,300L352.941,298.636L376.471,300L400,300L423.529,300L447.059,298.636L470.588,300L494.118,300L517.647,298.636L541.176,300L564.706,298.636L588.235,298.636L611.765,300L635.294,300L658.824,297.273L682.353,300L705.882,300L729.412,300L752.941,298.636L776.471,300L800,300L800,300L776.471,300L752.941,300L729.412,300L705.882,300L682.353,300L658.824,300L635.294,300L611.765,300L588.235,300L564.706,300L541.176,300L517.647,300L494.118,300L470.588,300L447.059,300L423.529,300L400,300L376.471,300L352.941,300L329.412,300L305.882,300L282.353,300L258.824,300L235.294,300L211.765,300L188.235,300L164.706,300L141.176,300L117.647,300L94.118,300L70.588,300L47.059,300L23.529,300L0,300Z" fill="#e45756"/></g></g><path class="foreground" aria-hidden="true" d="" display="none"/></g></g><g class="mark-group role-legend" role="graphics-symbol" aria-roledescription="legend" aria-label="Symbol legend titled 'Repository' for fill color with 43 values: justdavis-family/github-analytics-data, justdavis-family/justdavis, karlmdavis/FHIR-Server, karlmdavis/ansible, karlmdavis/ansible-jenkins, ending with karlmdavis/xmlpull"><g transform="translate(818,0)"><path class="background" aria-hidden="true" d="M0,0h176v404h-176Z" pointer-events="none"/><g><g class="mark-group role-legend-entry"><g transform="translate(0,16)"><path class="background" aria-hidden="true" d="M0,0h0v0h0Z" pointer-events="none"/><g><g class="mark-group role-scope" role="graphics-object" aria-roledescription="group mark container"><g transform="translate(0,0)"><path class="background" aria-hidden="true" d="M0,0h176v11h-176Z" pointer-events="none" opacity="1"/><g><g class="mark-symbol role-legend-symbol" pointer-events="none"><path transform="translate(6,6)" d="M5,0A5,5,0,1,1,-5,0A5,5,0,1,1,5,0" fill="#4c78a8" stroke-width="1.5" opacity="1"/></g><g class="mark-text role-legend-label" pointer-events="none"><text text-anchor="start" transform="translate(16,9)" font-family="sans-serif" font-size="10px" fill="#000" opacity="1">justdavis-family/github-analytics-d…</text></g></g><path class="foreground" aria-hidden="true" d="" pointer-events="none" display="none"/></g><g transform="translate(0,13)"><path class="background" aria-hidden="true" d="M0,0h176v11h-176Z" pointer-events="none" opacity="1"/><g><g class="mark-symbol role-legend-symbol" pointer-events="none"><path transform="translate(6,6)" d="M5,0A5,5,0,1,1,-5,0A5,5,0,1,1,5,0" fill="#f58518" stroke-width="1.5" opacity="1"/></g><g class="mark-text role-legend-label" pointer-events="none"><text text-anchor="start" transform="translate(16,9)" font-family="sans-serif" font-size="10px" fill="#000" opacity="1">justdavis-family/justdavis</text></g></g><path class="foreground" aria-hidden="true" d="" pointer-events="none" display="none"/></g><g transform="translate(0,26)"><path class="background" aria-hidden="true" d="M0,0h176v11h-176Z" pointer-events="none" opacity="1"/><g><g class="mark-symbol role-legend-symbol" pointer-events="none"><path transform="translate(6,6)" d="M5,0A5,5,0,1,1,-5,0A5,5,0,1,1,5,0" fill="#e45756" stroke-width="1.5" opacity="1"/></g><g class="mark-text role-legend-label" pointer-events="none"><text text-anchor="start" transform="translate(16,9)" font-family="sans-serif" font-size="10px" fill="#000" opacity="1">karlmdavis/FHIR-Server</text></g></g><path class="foreground" aria-hidden="true" d="" pointer-events="none" display="none"/></g><g transform="translate(0,39)"><path class="background" aria-hidden="true" d="M0,0h176v11h-176Z" pointer-events="none" opacity="1"/><g><g class="mark-symbol role-legend-symbol" pointer-events="none"><path transform="translate(6,6)" d="M5,0A5,5,0,1,1,-5,0A5,5,0,1,1,5,0" fill="#72b7b2" stroke-width="1.5" opacity="1"/></g><g class="mark-text role-legend-label" pointer-events="none"><text text-anchor="start" transform="translate(16,9)" font-family="sans-serif" font-size="10px" fill="#000" opacity="1">karlmdavis/ansible</text></g></g><path class="foreground" aria-hidden="true" d="" pointer-events="none" display="none"/></g><g transform="translate(0,52)"><path class="background" aria-hidden="true" d="M0,0h176v11h-176Z" pointer-events="none" opacity="1"/><g><g class="mark-symbol role-legend-symbol" pointer-events="none"><path transform="translate(6,6)" d="M5,0A5,5,0,1,1,-5,0A5,5,0,1,1,5,0" fill="#54a24b" stroke-width="1.5" opacity="1"/></g><g class="mark-text role-legend-label" pointer-events="none"><text text-anchor="start" transform="translate(16,9)" font-family="sans-serif" font-size="10px" fill="#000" opacity="1">karlmdavis/ansible-jenkins</text></g></g><path class="foreground" aria-hidden="true" d="" pointer-events="none" display="none"/></g><g transform="translate(0,65)"><path class="background" aria-hidden="true" d="M0,0h176v11h-176Z" pointer-events="none" opacity="1"/><g><g class="mark-symbol role-legend-symbol" pointer-events="none"><path transform="translate(6,6)" d="M5,0A5,5,0,1,1,-5,0A5,5,0,1,1,5,0" fill="#eeca3b" stroke-width="1.5" opacity="1"/></g><g class="mark-text role-legend-label" pointer-events="none"><text text-anchor="start" transform="translate(16,9)" font-family="sans-serif" font-size="10px" fill="#000" opacity="1">karlmdavis/ansible-role-acmetool</text></g></g><path class="foreground" aria-hidden="true" d="" pointer-events="none" display="none"/></g><g transform="translate(0,78)"><path class="background" aria-hidden="true" d="M0,0h176v11h-176Z" pointer-events="none" opacity="1"/><g><g class="mark-symbol role-legend-symbol" pointer-events="none"><path transform="translate(6,6)" d="M5,0A5,5,0,1,1,-5,0A5,5,0,1,1,5,0" fill="#b279a2" stroke-width="1.5" opacity="1"/></g><g class="mark-text role-legend-label" pointer-events="none"><text text-anchor="start" transform="translate(16,9)" font-family="sans-serif" font-size="10px" fill="#000" opacity="1">karlmdavis/ansible-role-bind-dns</text></g></g><path class="foreground" aria-hidden="true" d="" pointer-events="none" display="none"/></g><g transform="translate(0,91)"><path class="background" aria-hidden="true" d="M0,0h176v11h-176Z" pointer-events="none" opacity="1"/><g><g class="mark-symbol role-legend-symbol" pointer-events="none"><path transform="translate(6,6)" d="M5,0A5,5,0,1,1,-5,0A5,5,0,1,1,5,0" fill="#ff9da6" stroke-width="1.5" opacity="1"/></g><g class="mark-text role-legend-label" pointer-events="none"><text text-anchor="start" transform="translate(16,9)" font-family="sans-serif" font-size="10px" fill="#000" opacity="1">karlmdavis/ansible-role-jenkins2</text></g></g><path class="foreground" aria-hidden="true" d="" pointer-events="none" display="none"/></g><g transform="translate(0,104)"><path class="background" aria-hidden="true" d="M0,0h176v11h-176Z" pointer-events="none" opacity="1"/><g><g class="mark-symbol role-legend-symbol" pointer-events="none"><path transform="translate(6,6)" d="M5,0A5,5,0,1,1,-5,0A5,5,0,1,1,5,0" fill="#9d755d" stroke-width="1.5" opacity="1"/></g><g class="mark-text role-legend-label" pointer-events="none"><text text-anchor="start" transform="translate(16,9)" font-family="sans-serif" font-size="10px" fill="#000" opacity="1">karlmdavis/ansible-role-ldap</text></g></g><path class="foreground" aria-hidden="true" d="" pointer-events="none" display="none"/></g><g transform="translate(0,117)"><path class="background" aria-hidden="true" d="M0,0h176v11h-176Z" pointer-events="none" opacity="1"/><g><g class="mark-symbol role-legend-symbol" pointer-events="none"><path transform="translate(6,6)" d="M5,0A5,5,0,1,1,-5,0A5,5,0,1,1,5,0" fill="#bab0ac" stroke-width="1.5" opacity="1"/></g><g class="mark-text role-legend-label" pointer-events="none"><text text-anchor="start" transform="translate(16,9)" font-family="sans-serif" font-size="10px" fill="#000" opacity="1">karlmdavis/ansible-role-rcm-dotfiles</text></g></g><path class="foreground" aria-hidden="true" d="" pointer-events="none" display="none"/></g><g transform="translate(0,130)"><path class="background" aria-hidden="true" d="M0,0h176v11h-176Z" pointer-events="none" opacity="1"/><g><g class="mark-symbol role-legend-symbol" pointer-events="none"><path transform="translate(6,6)" d="M5,0A5,5,0,1,1,-5,0A5,5,0,1,1,5,0" fill="#4c78a8" stroke-width="1.5" opacity="1"/></g><g class="mark-text role-legend-label" pointer-events="none"><text text-anchor="start" transform="translate(16,9)" font-family="sans-serif" font-size="10px" fill="#000" opacity="1">karlmdavis/ansible-roles</text></g></g><path class="foreground" aria-hidden="true" d="" pointer-events="none" display="none"/></g><g transform="translate(0,143)"><path class="background" aria-hidden="true" d="M0,0h176v11h-176Z" pointer-events="none" opacity="1"/><g><g class="mark-symbol role-legend-symbol" pointer-events="none"><path transform="translate(6,6)" d="M5,0A5,5,0,1,1,-5,0A5,5,0,1,1,5,0" fill="#f58518" stroke-width="1.5" opacity="1"/></g><g class="mark-text role-legend-label" pointer-events="none"><text text-anchor="start" transform="translate(16,9)" font-family="sans-serif" font-size="10px" fill="#000" opacity="1">karlmdavis/bbonfhir-dev-infra-doc…</text></g></g><path class="foreground" aria-hidden="true" d="" pointer-events="none" display="none"/></g><g transform="translate(0,156)"><path class="background" aria-hidden="true" d="M0,0h176v11h-176Z" pointer-events="none" opacity="1"/><g><g class="mark-symbol role-legend-symbol" pointer-events="none"><path transform="translate(6,6)" d="M5,0A5,5,0,1,1,-5,0A5,5,0,1,1,5,0" fill="#e45756" stroke-width="1.5" opacity="1"/></g><g class="mark-text role-legend-label" pointer-events="none"><text text-anchor="start" transform="translate(16,9)" font-family="sans-serif" font-size="10px" fill="#000" opacity="1">karlmdavis/can-i-kayak-baltimore</text></g></g><path class="foreground" aria-hidden="true" d="" pointer-events="none" display="none"/></g><g transform="translate(0,169)"><path class="background" aria-hidden="true" d="M0,0h176v11h-176Z" pointer-events="none" opacity="1"/><g><g class="mark-symbol role-legend-symbol" pointer-events="none"><path transform="translate(6,6)" d="M5,0A5,5,0,1,1,-5,0A5,5,0,1,1,5,0" fill="#72b7b2" stroke-width="1.5" opacity="1"/></g><g class="mark-text role-legend-label" pointer-events="none"><text text-anchor="start" transform="translate(16,9)" font-family="sans-serif" font-size="10px" fill="#000" opacity="1">karlmdavis/datanucleus-test-jdo-1…</text></g></g><path class="foreground" aria-hidden="true" d="" pointer-events="none" display="none"/></g><g transform="translate(0,182)"><path class="background" aria-hidden="true" d="M0,0h176v11h-176Z" pointer-events="none" opacity="1"/><g><g class="mark-symbol role-legend-symbol" pointer-events="none"><path transform="translate(6,6)" d="M5,0A5,5,0,1,1,-5,0A5,5,0,1,1,5,0" fill="#54a24b" stroke-width="1.5" opacity="1"/></g><g class="mark-text role-legend-label" pointer-events="none"><text text-anchor="start" transform="translate(16,9)" font-family="sans-serif" font-size="10px" fill="#000" opacity="1">karlmdavis/dotfiles</text></g></g><path class="foreground" aria-hidden="true" d="" pointer-events="none" display="none"/></g><g transform="translate(0,195)"><path class="background" aria-hidden="true" d="M0,0h176v11h-176Z" pointer-events="none" opacity="1"/><g><g class="mark-symbol role-legend-symbol" pointer-events="none"><path transform="translate(6,6)" d="M5,0A5,5,0,1,1,-5,0A5,5,0,1,1,5,0" fill="#eeca3b" stroke-width="1.5" opacity="1"/></g><g class="mark-text role-legend-label" pointer-events="none"><text text-anchor="start" transform="translate(16,9)" font-family="sans-serif" font-size="10px" fill="#000" opacity="1">karlmdavis/fhir-benchmarks</text></g></g><path class="foreground" aria-hidden="true" d="" pointer-events="none" display="none"/></g><g transform="translate(0,208)"><path class="background" aria-hidden="true" d="M0,0h176v11h-176Z" pointer-events="none" opacity="1"/><g><g class="mark-symbol role-legend-symbol" pointer-events="none"><path transform="translate(6,6)" d="M5,0A5,5,0,1,1,-5,0A5,5,0,1,1,5,0" fill="#b279a2" stroke-width="1.5" opacity="1"/></g><g class="mark-text role-legend-label" pointer-events="none"><text text-anchor="start" transform="translate(16,9)" font-family="sans-serif" font-size="10px" fill="#000" opacity="1">karlmdavis/hapi-fhir-jpaserver-sta…</text></g></g><path class="foreground" aria-hidden="true" d="" pointer-events="none" display="none"/></g><g transform="translate(0,221)"><path class="background" aria-hidden="true" d="M0,0h176v11h-176Z" pointer-events="none" opacity="1"/><g><g class="mark-symbol role-legend-symbol" pointer-events="none"><path transform="translate(6,6)" d="M5,0A5,5,0,1,1,-5,0A5,5,0,1,1,5,0" fill="#ff9da6" stroke-width="1.5" opacity="1"/></g><g class="mark-text role-legend-label" pointer-events="none"><text text-anchor="start" transform="translate(16,9)" font-family="sans-serif" font-size="10px" fill="#000" opacity="1">karlmdavis/hello-rust-actix</text></g></g><path class="foreground" aria-hidden="true" d="" pointer-events="none" display="none"/></g><g transform="translate(0,234)"><path class="background" aria-hidden="true" d="M0,0h176v11h-176Z" pointer-events="none" opacity="1"/><g><g class="mark-symbol role-legend-symbol" pointer-events="none"><path transform="translate(6,6)" d="M5,0A5,5,0,1,1,-5,0A5,5,0,1,1,5,0" fill="#9d755d" stroke-width="1.5" opacity="1"/></g><g class="mark-text role-legend-label" pointer-events="none"><text text-anchor="start" transform="translate(16,9)" font-family="sans-serif" font-size="10px" fill="#000" opacity="1">karlmdavis/jessentials</text></g></g><path class="foreground" aria-hidden="true" d="" pointer-events="none" display="none"/></g><g transform="translate(0,247)"><path class="background" aria-hidden="true" d="M0,0h176v11h-176Z" pointer-events="none" opacity="1"/><g><g class="mark-symbol role-legend-symbol" pointer-events="none"><path transform="translate(6,6)" d="M5,0A5,5,0,1,1,-5,0A5,5,0,1,1,5,0" fill="#bab0ac" stroke-width="1.5" opacity="1"/></g><g class="mark-text role-legend-label" pointer-events="none"><text text-anchor="start" transform="translate(16,9)" font-family="sans-serif" font-size="10px" fill="#000" opacity="1">karlmdavis/justdavis-ansible</text></g></g><path class="foreground" aria-hidden="true" d="" pointer-events="none" display="none"/></g><g transform="translate(0,260)"><path class="background" aria-hidden="true" d="M0,0h176v11h-176Z" pointer-events="none" opacity="1"/><g><g class="mark-symbol role-legend-symbol" pointer-events="none"><path transform="translate(6,6)" d="M5,0A5,5,0,1,1,-5,0A5,5,0,1,1,5,0" fill="#4c78a8" stroke-width="1.5" opacity="1"/></g><g class="mark-text role-legend-label" pointer-events="none"><text text-anchor="start" transform="translate(16,9)" font-family="sans-serif" font-size="10px" fill="#000" opacity="1">karlmdavis/justdavis-finances</text></g></g><path class="foreground" aria-hidden="true" d="" pointer-events="none" display="none"/></g><g transform="translate(0,273)"><path class="background" aria-hidden="true" d="M0,0h176v11h-176Z" pointer-events="none" opacity="1"/><g><g class="mark-symbol role-legend-symbol" pointer-events="none"><path transform="translate(6,6)" d="M5,0A5,5,0,1,1,-5,0A5,5,0,1,1,5,0" fill="#f58518" stroke-width="1.5" opacity="1"/></g><g class="mark-text role-legend-label" pointer-events="none"><text text-anchor="start" transform="translate(16,9)" font-family="sans-serif" font-size="10px" fill="#000" opacity="1">karlmdavis/justdavis-karl</text></g></g><path class="foreground" aria-hidden="true" d="" pointer-events="none" display="none"/></g><g transform="translate(0,286)"><path class="background" aria-hidden="true" d="M0,0h176v11h-176Z" pointer-events="none" opacity="1"/><g><g class="mark-symbol role-legend-symbol" pointer-events="none"><path transform="translate(6,6)" d="M5,0A5,5,0,1,1,-5,0A5,5,0,1,1,5,0" fill="#e45756" stroke-width="1.5" opacity="1"/></g><g class="mark-text role-legend-label" pointer-events="none"><text text-anchor="start" transform="translate(16,9)" font-family="sans-serif" font-size="10px" fill="#000" opacity="1">karlmdavis/justdavis-puppet</text></g></g><path class="foreground" aria-hidden="true" d="" pointer-events="none" display="none"/></g><g transform="translate(0,299)"><path class="background" aria-hidden="true" d="M0,0h176v11h-176Z" pointer-events="none" opacity="1"/><g><g class="mark-symbol role-legend-symbol" pointer-events="none"><path transform="translate(6,6)" d="M5,0A5,5,0,1,1,-5,0A5,5,0,1,1,5,0" fill="#72b7b2" stroke-width="1.5" opacity="1"/></g><g class="mark-text role-legend-label" pointer-events="none"><text text-anchor="start" transform="translate(16,9)" font-family="sans-serif" font-size="10px" fill="#000" opacity="1">karlmdavis/kobjects</text></g></g><path class="foreground" aria-hidden="true" d="" pointer-events="none" display="none"/></g><g transform="translate(0,312)"><path class="background" aria-hidden="true" d="M0,0h176v11h-176Z" pointer-events="none" opacity="1"/><g><g class="mark-symbol role-legend-symbol" pointer-events="none"><path transform="translate(6,6)" d="M5,0A5,5,0,1,1,-5,0A5,5,0,1,1,5,0" fill="#54a24b" stroke-width="1.5" opacity="1"/></g><g class="mark-text role-legend-label" pointer-events="none"><text text-anchor="start" transform="translate(16,9)" font-family="sans-serif" font-size="10px" fill="#000" opacity="1">karlmdavis/ksoap2-android</text></g></g><path class="foreground" aria-hidden="true" d="" pointer-events="none" display="none"/></g><g transform="translate(0,325)"><path class="background" aria-hidden="true" d="M0,0h176v11h-176Z" pointer-events="none" opacity="1"/><g><g class="mark-symbol role-legend-symbol" pointer-events="none"><path transform="translate(6,6)" d="M5,0A5,5,0,1,1,-5,0A5,5,0,1,1,5,0" fill="#eeca3b" stroke-width="1.5" opacity="1"/></g><g class="mark-text role-legend-label" pointer-events="none"><text text-anchor="start" transform="translate(16,9)" font-family="sans-serif" font-size="10px" fill="#000" opacity="1">karlmdavis/kxml2</text></g></g><path class="foreground" aria-hidden="true" d="" pointer-events="none" display="none"/></g><g transform="translate(0,338)"><path class="background" aria-hidden="true" d="M0,0h176v11h-176Z" pointer-events="none" opacity="1"/><g><g class="mark-symbol role-legend-symbol" pointer-events="none"><path transform="translate(6,6)" d="M5,0A5,5,0,1,1,-5,0A5,5,0,1,1,5,0" fill="#b279a2" stroke-width="1.5" opacity="1"/></g><g class="mark-text role-legend-label" pointer-events="none"><text text-anchor="start" transform="translate(16,9)" font-family="sans-serif" font-size="10px" fill="#000" opacity="1">karlmdavis/ldap-plugin</text></g></g><path class="foreground" aria-hidden="true" d="" pointer-events="none" display="none"/></g><g transform="translate(0,351)"><path class="background" aria-hidden="true" d="M0,0h176v11h-176Z" pointer-events="none" opacity="1"/><g><g class="mark-symbol role-legend-symbol" pointer-events="none"><path transform="translate(6,6)" d="M5,0A5,5,0,1,1,-5,0A5,5,0,1,1,5,0" fill="#ff9da6" stroke-width="1.5" opacity="1"/></g><g class="mark-text role-legend-label" pointer-events="none"><text text-anchor="start" transform="translate(16,9)" font-family="sans-serif" font-size="10px" fill="#000" opacity="1">karlmdavis/lego-ev3dev-rs</text></g></g><path class="foreground" aria-hidden="true" d="" pointer-events="none" display="none"/></g><g transform="translate(0,364)"><path class="background" aria-hidden="true" d="M0,0h176v11h-176Z" pointer-events="none" opacity="1"/><g><g class="mark-symbol role-legend-symbol" pointer-events="none"><path transform="translate(6,6)" d="M5,0A5,5,0,1,1,-5,0A5,5,0,1,1,5,0" fill="#9d755d" stroke-width="1.5" opacity="1"/></g><g class="mark-text role-legend-label" pointer-events="none"><text text-anchor="start" transform="translate(16,9)" font-family="sans-serif" font-size="10px" fill="#000" opacity="1">karlmdavis/liquibase</text></g></g><path class="foreground" aria-hidden="true" d="" pointer-events="none" display="none"/></g><g transform="translate(0,377)"><path class="background" aria-hidden="true" d="M0,0h176v11h-176Z" pointer-events="none" opacity="1"/><g><g class="mark-symbol role-legend-symbol" pointer-events="none"><path transform="translate(6,6)" d="M5,0A5,5,0,1,1,-5,0A5,5,0,1,1,5,0" fill="#bab0ac" stroke-width="1.5" opacity="1"/></g><g class="mark-text role-legend-label" pointer-events="none"><text text-anchor="start" transform="translate(16,9)" font-family="sans-serif" font-size="10px" fill="#000" opacity="1">…14 entries</text></g></g><path class="foreground" aria-hidden="true" d="" pointer-events="none" display="none"/></g></g></g><path class="foreground" aria-hidden="true" d="" pointer-events="none" display="none"/></g></g><g class="mark-text role-legend-title" pointer-events="none"><text text-anchor="start" transform="translate(0,9)" font-family="sans-serif" font-size="11px" font-weight="bold" fill="#000" opacity="1">Repository</text></g></g><path class="foreground" aria-hidden="true" d="" pointer-events="none" display="none"/></g></g><g class="mark-group role-title"><g transform="translate(400,-22)"><path class="background" aria-hidden="true" d="M0,0h0v0h0Z" pointer-events="none"/><g><g class="mark-text role-title-text" role="graphics-symbol" aria-roledescription="title" aria-label="Title text 'Unique Clones per Day'" pointer-events="none"><text text-anchor="middle" transform="translate(0,10)" font-family="sans-serif" font-size="13px" font-weight="bold" fill="#000" opacity="1">Unique Clones per Day</text></g></g><path class="foreground" aria-hidden="true" d="" pointer-events="none" display="none"/></g></g></g><path class="foreground" aria-hidden="true" d="" display="none"/></g></g></g></svg>