<svg xmlns="http://www.w3.org/2000/svg" xmlns:xlink="http://www.w3.org/1999/xlink" version="1.1" class="marks" width="1032" height="436" viewBox="0 0 1032 436"><rect width="1032" height="436" fill="white"/><g fill="none" stroke-miterlimit="10" transform="translate(33,27)"><g class="mark-group role-frame root" role="graphics-object" aria-roledescription="group mark container"><g transform="translate(0,0)"><path class="background" aria-hidden="true" d="M0.5,0.5h800v300h-800Z" stroke="#ddd"/><g><g class="mark-group role-axis" aria-hidden="true"><g transform="translate(0.5,300.5)"><path class="background" aria-hidden="true" d="M0,0h0v0h0Z" pointer-events="none"/><g><g class="mark-rule role-axis-grid" pointer-events="none"><line transform="translate(20,-300)" x2="0" y2="300" stroke="#ddd" stroke-width="1" opacity="1"/><line transform="translate(59,-300)" x2="0" y2="300" stroke="#ddd" stroke-width="1" opacity="1"/><line transform="translate(98,-300)" x2="0" y2="300" stroke="#ddd" stroke-width="1" opacity="1"/><line transform="translate(137,-300)" x2="0" y2="300" stroke="#ddd" stroke-width="1" opacity="1"/><line transform="translate(176,-300)" x2="0" y2="300" stroke="#ddd" stroke-width="1" opacity="1"/><line transform="translate(215,-300)" x2="0" y2="300" stroke="#ddd" stroke-width="1" opacity="1"/><line transform="translate(254,-300)" x2="0" y2="300" stroke="#ddd" stroke-width="1" opacity="1"/><line transform="translate(293,-300)" x2="0" y2="300" stroke="#ddd" stroke-width="1" opacity="1"/><line transform="translate(312,-300)" x2="0" y2="300" stroke="#ddd" stroke-width="1" opacity="1"/><line transform="translate(351,-300)" x2="0" y2="300" stroke="#ddd" stroke-width="1" opacity="1"/><line transform="translate(390,-300)" x2="0" y2="300" stroke="#ddd" stroke-width="1" opacity="1"/><line transform="translate(429,-300)" x2="0" y2="300" stroke="#ddd" stroke-width="1" opacity="1"/><line transform="translate(468,-300)" x2="0" y2="300" stroke="#ddd" stroke-width="1" opacity="1"/><line transform="translate(507,-300)" x2="0" y2="300" stroke="#ddd" stroke-width="1" opacity="1"/><line transform="translate(546,-300)" x2="0" y2="300" stroke="#ddd" stroke-width="1" opacity="1"/><line transform="translate(585,-300)" x2="0" y2="300" stroke="#ddd" stroke-width="1" opacity="1"/><line transform="translate(624,-300)" x2="0" y2="300" stroke="#ddd" stroke-width="1" opacity="1"/><line transform="translate(663,-300)" x2="0" y2="300" stroke="#ddd" stroke-width="1" opacity="1"/><line transform="translate(702,-300)" x2="0" y2="300" stroke="#ddd" stroke-width="1" opacity="1"/><line transform="translate(741,-300)" x2="0" y2="300" stroke="#ddd" stroke-width="1" opacity="1"/><line transform="translate(780,-300)" x2="0" y2="300" stroke="#ddd" stroke-width="1" opacity="1"/></g></g><path class="foreground" aria-hidden="true" d="" pointer-events="none" display="none"/></g></g><g class="mark-group role-axis" aria-hidden="true"><g transform="translate(0.5,0.5)"><path class="background" aria-hidden="true" d="M0,0h0v0h0Z" pointer-events="none"/><g><g class="mark-rule role-axis-grid" pointer-events="none"><line transform="translate(0,300)" x2="800" y2="0" stroke="#ddd" stroke-width="1" opacity="1"/><line transform="translate(0,263)" x2="800" y2="0" stroke="#ddd" stroke-width="1" opacity="1"/><line transform="translate(0,225)" x2="800" y2="0" stroke="#ddd" stroke-width="1" opacity="1"/><line transform="translate(0,188)" x2="800" y2="0" stroke="#ddd" stroke-width="1" opacity="1"/><line transform="translate(0,150)" x2="800" y2="0" stroke="#ddd" stroke-width="1" opacity="1"/><line transform="translate(0,113)" x2="800" y2="0" stroke="#ddd" stroke-width="1" opacity="1"/><line transform="translate(0,75)" x2="800" y2="0" stroke="#ddd" stroke-width="1" opacity="1"/><line transform="translate(0,38)" x2="800" y2="0" stroke="#ddd" stroke-width="1" opacity="1"/><line transform="translate(0,0)" x2="800" y2="0" stroke="#ddd" stroke-width="1" opacity="1"/></g></g><path class="foreground" aria-hidden="true" d="" pointer-events="none" display="none"/></g></g><g class="mark-group role-axis" role="graphics-symbol" aria-roledescription="axis" aria-label="X-axis titled 'Date' for a time scale with values from Monday, 16 March 2026, 12:00:00 AM to Sunday, 26 April 2026, 12:00:00 AM"><g transform="translate(0.5,300.5)"><path class="background" aria-hidden="true" d="M0,0h0v0h0Z" pointer-events="none"/><g><g class="mark-rule role-axis-tick" pointer-events="none"><line transform="translate(20,0)" x2="0" y2="5" stroke="#888" stroke-width="1" opacity="1"/><line transform="translate(59,0)" x2="0" y2="5" stroke="#888" stroke-width="1" opacity="1"/><line transform="translate(98,0)" x2="0" y2="5" stroke="#888" stroke-width="1" opacity="1"/><line transform="translate(137,0)" x2="0" y2="5" stroke="#888" stroke-width="1" opacity="1"/><line transform="translate(176,0)" x2="0" y2="5" stroke="#888" stroke-width="1" opacity="1"/><line transform="translate(215,0)" x2="0" y2="5" stroke="#888" stroke-width="1" opacity="1"/><line transform="translate(254,0)" x2="0" y2="5" stroke="#888" stroke-width="1" opacity="1"/><line transform="translate(293,0)" x2="0" y2="5" stroke="#888" stroke-width="1" opacity="1"/><line transform="translate(312,0)" x2="0" y2="5" stroke="#888" stroke-width="1" opacity="1"/><line transform="translate(351,0)" x2="0" y2="5" stroke="#888" stroke-width="1" opacity="1"/><line transform="translate(390,0)" x2="0" y2="5" stroke="#888" stroke-width="1" opacity="1"/><line transform="translate(429,0)" x2="0" y2="5" stroke="#888" stroke-width="1" opacity="1"/><line transform="translate(468,0)" x2="0" y2="5" stroke="#888" stroke-width="1" opacity="1"/><line transform="translate(507,0)" x2="0" y2="5" stroke="#888" stroke-width="1" opacity="1"/><line transform="translate(546,0)" x2="0" y2="5" stroke="#888" stroke-width="1" opacity="1"/><line transform="translate(585,0)" x2="0" y2="5" stroke="#888" stroke-width="1" opacity="1"/><line transform="translate(624,0)" x2="0" y2="5" stroke="#888" stroke-width="1" opacity="1"/><line transform="translate(663,0)" x2="0" y2="5" stroke="#888" stroke-width="1" opacity="1"/><line transform="translate(702,0)" x2="0" y2="5" stroke="#888" stroke-width="1" opacity="1"/><line transform="translate(741,0)" x2="0" y2="5" stroke="#888" stroke-width="1" opacity="1"/><line transform="translate(780,0)" x2="0" y2="5" stroke="#888" stroke-width="1" opacity="1"/></g><g class="mark-text role-axis-label" pointer-events="none"><text text-anchor="middle" transform="translate(19.51219512195122,15)" font-family="sans-serif" font-size="10px" fill="#000" opacity="1">Tue 17</text><text text-anchor="middle" transform="translate(58.536585365853654,15)" font-family="sans-serif" font-size="10px" fill="#000" opacity="0">Thu 19</text><text text-anchor="middle" transform="translate(97.5609756097561,15)" font-family="sans-serif" font-size="10px" fill="#000" opacity="1">Sat 21</text><text text-anchor="middle" transform="translate(136.58536585365854,15)" font-family="sans-serif" font-size="10px" fill="#000" opacity="0">Mon 23</text><text text-anchor="middle" transform="translate(175.609756097561,15)" font-family="sans-serif" font-size="10px" fill="#000" opacity="1">Wed 25</text><text text-anchor="middle" transform="translate(214.63414634146343,15)" font-family="sans-serif" font-size="10px" fill="#000" opacity="0">Fri 27</text><text text-anchor="middle" transform="translate(253.65853658536585,15)" font-family="sans-serif" font-size="10px" fill="#000" opacity="1">Mar 29</text><text text-anchor="middle" transform="translate(292.6829268292683,15)" font-family="sans-serif" font-size="10px" fill="#000" opacity="0">Tue 31</text><text text-anchor="middle" transform="translate(312.1951219512195,15)" font-family="sans-serif" font-size="10px" fill="#000" opacity="1">April</text><text text-anchor="middle" transform="translate(351.219512195122,15)" font-family="sans-serif" font-size="10px" fill="#000" opacity="0">Fri 03</text><text text-anchor="middle" transform="translate(390.2439024390244,15)" font-family="sans-serif" font-size="10px" fill="#000" opacity="1">Apr 05</text><text text-anchor="middle" transform="translate(429.26829268292687,15)" font-family="sans-serif" font-size="10px" fill="#000" opacity="0">Tue 07</text><text text-anchor="middle" transform="translate(468.29268292682923,15)" font-family="sans-serif" font-size="10px" fill="#000" opacity="1">Thu 09</text><text text-anchor="middle" transform="translate(507.3170731707317,15)" font-family="sans-serif" font-size="10px" fill="#000" opacity="0">Sat 11</text><text text-anchor="middle" transform="translate(546.3414634146342,15)" font-family="sans-serif" font-size="10px" fill="#000" opacity="1">Mon 13</text><text text-anchor="middle" transform="translate(585.3658536585366,15)" font-family="sans-serif" font-size="10px" fill="#000" opacity="0">Wed 15</text><text text-anchor="middle" transform="translate(624.390243902439,15)" font-family="sans-serif" font-size="10px" fill="#000" opacity="1">Fri 17</text><text text-anchor="middle" transform="translate(663.4146341463414,15)" font-family="sans-serif" font-size="10px" fill="#000" opacity="0">Apr 19</text><text text-anchor="middle" transform="translate(702.439024390244,15)" font-family="sans-serif" font-size="10px" fill="#000" opacity="1">Tue 21</text><text text-anchor="middle" transform="translate(741.4634146341464,15)" font-family="sans-serif" font-size="10px" fill="#000" opacity="0">Thu 23</text><text text-anchor="middle" transform="translate(780.4878048780488,15)" font-family="sans-serif" font-size="10px" fill="#000" opacity="1">Sat 25</text></g><g class="mark-rule role-axis-domain" pointer-events="none"><line transform="translate(0,0)" x2="800" y2="0" stroke="#888" stroke-width="1" opacity="1"/></g><g class="mark-text role-axis-title" pointer-events="none"><text text-anchor="middle" transform="translate(400,30)" font-family="sans-serif" font-size="11px" font-weight="bold" fill="#000" opacity="1">Date</text></g></g><path class="foreground" aria-hidden="true" d="" pointer-events="none" display="none"/></g></g><g class="mark-group role-axis" role="graphics-symbol" aria-roledescription="axis" aria-label="Y-axis titled 'Unique Visitors/day' for a linear scale with values from 0 to 8"><g transform="translate(0.5,0.5)"><path class="background" aria-hidden="true" d="M0,0h0v0h0Z" pointer-events="none"/><g><g class="mark-rule role-axis-tick" pointer-events="none"><line transform="translate(0,300)" x2="-5" y2="0" stroke="#888" stroke-width="1" opacity="1"/><line transform="translate(0,263)" x2="-5" y2="0" stroke="#888" stroke-width="1" opacity="1"/><line transform="translate(0,225)" x2="-5" y2="0" stroke="#888" stroke-width="1" opacity="1"/><line transform="translate(0,188)" x2="-5" y2="0" stroke="#888" stroke-width="1" opacity="1"/><line transform="translate(0,150)" x2="-5" y2="0" stroke="#888" stroke-width="1" opacity="1"/><line transform="translate(0,113)" x2="-5" y2="0" stroke="#888" stroke-width="1" opacity="1"/><line transform="translate(0,75)" x2="-5" y2="0" stroke="#888" stroke-width="1" opacity="1"/><line transform="translate(0,38)" x2="-5" y2="0" stroke="#888" stroke-width="1" opacity="1"/><line transform="translate(0,0)" x2="-5" y2="0" stroke="#888" stroke-width="1" opacity="1"/></g><g class="mark-text role-axis-label" pointer-events="none"><text text-anchor="end" transform="translate(-7,303)" font-family="sans-serif" font-size="10px" fill="#000" opacity="1">0</text><text text-anchor="end" transform="translate(-7,265.5)" font-family="sans-serif" font-size="10px" fill="#000" opacity="1">1</text><text text-anchor="end" transform="translate(-7,228)" font-family="sans-serif" font-size="10px" fill="#000" opacity="1">2</text><text text-anchor="end" transform="translate(-7,190.5)" font-family="sans-serif" font-size="10px" fill="#000" opacity="1">3</text><text text-anchor="end" transform="translate(-7,153)" font-family="sans-serif" font-size="10px" fill="#000" opacity="1">4</text><text text-anchor="end" transform="translate(-7,115.5)" font-family="sans-serif" font-size="10px" fill="#000" opacity="1">5</text><text text-anchor="end" transform="translate(-7,78)" font-family="sans-serif" font-size="10px" fill="#000" opacity="1">6</text><text text-anchor="end" transform="translate(-7,40.5)" font-family="sans-serif" font-size="10px" fill="#000" opacity="1">7</text><text text-anchor="end" transform="translate(-7,3)" font-family="sans-serif" font-size="10px" fill="#000" opacity="1">8</text></g><g class="mark-rule role-axis-domain" pointer-events="none"><line transform="translate(0,300)" x2="0" y2="-300" stroke="#888" stroke-width="1" opacity="1"/></g><g class="mark-text role-axis-title" pointer-events="none"><text text-anchor="middle" transform="translate(-16.5615234375,150) rotate(-90) translate(0,-2)" font-family="sans-serif" font-size="11px" font-weight="bold" fill="#000" opacity="1">Unique Visitors/day</text></g></g><path class="foreground" aria-hidden="true" d="" pointer-events="none" display="none"/></g></g><g class="mark-group role-scope pathgroup" role="graphics-object" aria-roledescription="group mark container"><g transform="translate(0,0)"><path class="background" aria-hidden="true" d="M0,0h800v300h-800Z"/><g><g class="mark-area role-mark marks" role="graphics-object" aria-roledescription="area mark container"><path aria-label="Date: Mar 16, 2026; Unique Visitors/day: 0; Repository: justdavis-family/github-analytics-data" role="graphics-symbol" aria-roledescription="area mark" d="M0,300L19.512,300L39.024,300L58.537,300L78.049,300L97.561,300L117.073,300L136.585,187.5L156.098,187.5L175.61,150L195.122,187.5L214.634,187.5L234.146,187.5L253.659,262.5L273.171,0L292.683,262.5L312.195,150L331.707,262.5L351.22,300L370.732,225L390.244,262.5L409.756,300L429.268,187.5L448.78,262.5L468.293,262.5L487.805,225L507.317,300L526.829,75L546.341,300L565.854,262.5L585.366,187.5L604.878,262.5L624.39,225L643.902,300L663.415,262.5L682.927,187.5L702.439,187.5L721.951,150L741.463,225L760.976,225L780.488,262.5L800,300L800,300L780.488,262.5L760.976,225L741.463,225L721.951,150L702.439,187.5L682.927,187.5L663.415,262.5L643.902,300L624.39,225L604.878,300L585.366,187.5L565.854,262.5L546.341,300L526.829,75L507.317,300L487.805,225L468.293,262.5L448.78,262.5L429.268,187.5L409.756,300L390.244,262.5L370.732,225L351.22,300L331.707,262.5L312.195,150L292.683,262.5L273.171,0L253.659,262.5L234.146,187.5L214.634,187.5L195.122,187.5L175.61,150L156.098,187.5L136.585,187.5L117.073,300L97.561,300L78.049,300L58.537,300L39.024,300L19.512,300L0,300Z" fill="#4c78a8"/></g></g><path class="foreground" aria-hidden="true" d="" display="none"/></g><g transform="translate(0,0)"><path class="background" aria-hidden="true" d="M0,0h800v300h-800Z"/><g><g class="mark-area role-mark marks" role="graphics-object" aria-roledescription="area mark container"><path aria-label="Date: Mar 16, 2026; Unique Visitors/day: 0; Repository: justdavis-family/justdavis" role="graphics-symbol" aria-roledescription="area mark" d="M0,300L19.512,300L39.024,300L58.537,300L78.049,300L97.561,300L117.073,300L136.585,187.5L156.098,187.5L175.61,150L195.122,187.5L214.634,187.5L234.146,187.5L253.659,262.5L273.171,0L292.683,262.5L312.195,150L331.707,262.5L351.22,300L370.732,225L390.244,262.5L409.756,300L429.268,187.5L448.78,262.5L468.293,262.5L487.805,225L507.317,300L526.829,75L546.341,300L565.854,262.5L585.366,187.5L604.878,300L624.39,225L643.902,300L663.415,262.5L682.927,187.5L702.439,187.5L721.951,150L741.463,225L760.976,225L780.488,262.5L800,300L800,300L780.488,262.5L760.976,225L741.463,225L721.951,187.5L702.439,187.5L682.927,187.5L663.415,262.5L643.902,300L624.39,225L604.878,300L585.366,187.5L565.854,262.5L546.341,300L526.829,75L507.317,300L487.805,225L468.293,262.5L448.78,262.5L429.268,262.5L409.756,300L390.244,262.5L370.732,225L351.22,300L331.707,262.5L312.195,150L292.683,262.5L273.171,37.5L253.659,262.5L234.146,187.5L214.634,187.5L195.122,187.5L175.61,150L156.098,187.5L136.585,187.5L117.073,300L97.561,300L78.049,300L58.537,300L39.024,300L19.512,300L0,300Z" fill="#f58518"/></g></g><path class="foreground" aria-hidden="true" d="" display="none"/></g><g transform="translate(0,0)"><path class="background" aria-hidden="true" d="M0,0h800v300h-800Z"/><g><g class="mark-area role-mark marks" role="graphics-object" aria-roledescription="area mark container"><path aria-label="Date: Mar 16, 2026; Unique Visitors/day: 0; Repository: karlmdavis/FHIR-Server" role="graphics-symbol" aria-roledescription="area mark" d="M0,300L19.512,300L39.024,300L58.537,300L78.049,300L97.561,300L117.073,300L136.585,187.5L156.098,187.5L175.61,150L195.122,187.5L214.634,187.5L234.146,187.5L253.659,262.5L273.171,37.5L292.683,262.5L312.195,150L331.707,262.5L351.22,300L370.732,225L390.244,262.5L409.756,300L429.268,262.5L448.78,262.5L468.293,262.5L487.805,225L507.317,300L526.829,75L546.341,300L565.854,262.5L585.366,187.5L604.878,300L624.39,225L643.902,300L663.415,262.5L682.927,187.5L702.439,187.5L721.951,187.5L741.463,225L760.976,225L780.488,262.5L800,300L800,300L780.488,262.5L760.976,225L741.463,225L721.951,187.5L702.439,187.5L682.927,187.5L663.415,262.5L643.902,300L624.39,225L604.878,300L585.366,187.5L565.854,262.5L546.341,300L526.829,75L507.317,300L487.805,225L468.293,262.5L448.78,262.5L429.268,262.5L409.756,300L390.244,262.5L370.732,225L351.22,300L331.707,262.5L312.195,150L292.683,262.5L273.171,37.5L253.659,262.5L234.146,187.5L214.634,187.5L195.122,187.5L175.61,150L156.098,187.5L136.585,187.5L117.073,300L97.561,300L78.049,300L58.537,300L39.024,300L19.512,300L0,300Z" fill="#e45756"/></g></g><path class="foreground" aria-hidden="true" d="" display="none"/></g><g transform="translate(0,0)"><path class="background" aria-hidden="true" d="M0,0h800v300h-800Z"/><g><g class="mark-area role-mark marks" role="graphics-object" aria-roledescription="area mark container"><path aria-label="Date: Mar 16, 2026; Unique Visitors/day: 0; Repository: karlmdavis/ansible" role="graphics-symbol" aria-roledescription="area mark" d="M0,300L19.512,300L39.024,300L58.537,300L78.049,300L97.561,300L117.073,300L136.585,187.5L156.098,187.5L175.61,150L195.122,187.5L214.634,187.5L234.146,187.5L253.659,262.5L273.171,37.5L292.683,262.5L312.195,150L331.707,262.5L351.22,300L370.732,225L390.244,262.5L409.756,300L429.268,262.5L448.78,262.5L468.293,262.5L487.805,225L507.317,300L526.829,75L546.341,300L565.854,262.5L585.366,187.5L604.878,300L624.39,225L643.902,300L663.415,262.5L682.927,187.5L702.439,187.5L721.951,187.5L741.463,225L760.976,225L780.488,262.5L800,300L800,300L780.488,262.5L760.976,225L741.463,225L721.951,187.5L702.439,187.5L682.927,187.5L663.415,262.5L643.902,300L624.39,225L604.878,300L585.366,187.5L565.854,262.5L546.341,300L526.829,75L507.317,300L487.805,225L468.293,262.5L448.78,262.5L429.268,262.5L409.756,300L390.244,262.5L370.732,225L351.22,300L331.707,262.5L312.195,150L292.683,262.5L273.171,37.5L253.659,262.5L234.146,187.5L214.634,187.5L195.122,187.5L175.61,150L156.098,187.5L136.585,187.5L117.073,300L97.561,300L78.049,300L58.537,300L39.024,300L19.512,300L0,300Z" fill="#72b7b2"/></g></g><path class="foreground" aria-hidden="true" d="" display="none"/></g><g transform="translate(0,0)"><path class="background" aria-hidden="true" d="M0,0h800v300h-800Z"/><g><g class="mark-area role-mark marks" role="graphics-object" aria-roledescription="area mark container"><path aria-label="Date: Mar 16, 2026; Unique Visitors/day: 0; Repository: karlmdavis/ansible-jenkins" role="graphics-symbol" aria-roledescription="area mark" d="M0,300L19.512,300L39.024,300L58.537,300L78.049,300L97.561,300L117.073,300L136.585,187.5L156.098,187.5L175.61,150L195.122,187.5L214.634,187.5L234.146,187.5L253.659,262.5L273.171,37.5L292.683,262.5L312.195,150L331.707,262.5L351.22,300L370.732,225L390.244,262.5L409.756,300L429.268,262.5L448.78,262.5L468.293,262.5L487.805,225L507.317,300L526.829,75L546.341,300L565.854,262.5L585.366,187.5L604.878,300L624.39,225L643.902,300L663.415,262.5L682.927,187.5L702.439,187.5L721.951,187.5L741.463,225L760.976,225L780.488,262.5L800,300L800,300L780.488,262.5L760.976,225L741.463,225L721.951,187.5L702.439,187.5L682.927,187.5L663.415,262.5L643.902,300L624.39,225L604.878,300L585.366,187.5L565.854,262.5L546.341,300L526.829,75L507.317,300L487.805,225L468.293,262.5L448.78,262.5L429.268,262.5L409.756,300L390.244,262.5L370.732,225L351.22,300L331.707,262.5L312.195,150L292.683,262.5L273.171,37.5L253.659,262.5L234.146,187.5L214.634,187.5L195.122,187.5L175.61,150L156.098,187.5L136.585,187.5L117.073,300L97.561,300L78.049,300L58.537,300L39.024,300L19.512,300L0,300Z" fill="#54a24b"/></g></g><path class="foreground" aria-hidden="true" d="" display="none"/></g><g transform="translate(0,0)"><path class="background" aria-hidden="true" d="M0,0h800v300h-800Z"/><g><g class="mark-area role-mark marks" role="graphics-object" aria-roledescription="area mark container"><path aria-label="Date: Mar 16, 2026; Unique Visitors/day: 0; Repository: karlmdavis/ansible-role-acmetool" role="graphics-symbol" aria-roledescription="area mark" d="M0,300L19.512,300L39.024,300L58.537,300L78.049,300L97.561,300L117.073,300L136.585,187.5L156.098,187.5L175.61,150L195.122,187.5L214.634,187.5L234.146,187.5L253.659,262.5L273.171,37.5L292.683,262.5L312.195,150L331.707,262.5L351.22,300L370.732,225L390.244,262.5L409.756,300L429.268,262.5L448.78,262.5L468.293,262.5L487.805,225L507.317,300L526.829,75L546.341,300L565.854,262.5L585.366,187.5L604.878,300L624.39,225L643.902,300L663.415,262.5L682.927,187.5L702.439,187.5L721.951,187.5L741.463,225L760.976,225L780.488,262.5L800,300L800,300L780.488,262.5L760.976,225L741.463,225L721.951,187.5L702.439,187.5L682.927,187.5L663.415,262.5L643.902,300L624.39,225L604.878,300L585.366,187.5L565.854,262.5L546.341,300L526.829,75L507.317,300L487.805,225L468.293,262.5L448.78,262.5L429.268,262.5L409.756,300L390.244,262.5L370.732,225L351.22,300L331.707,262.5L312.195,150L292.683,262.5L273.171,37.5L253.659,262.5L234.146,187.5L214.634,187.5L195.122,187.5L175.61,150L156.098,187.5L136.585,187.5L117.073,300L97.561,300L78.049,300L58.537,300L39.024,300L19.512,300L0,300Z" fill="#eeca3b"/></g></g><path class="foreground" aria-hidden="true" d="" display="none"/></g><g transform="translate(0,0)"><path class="background" aria-hidden="true" d="M0,0h800v300h-800Z"/><g><g class="mark-area role-mark marks" role="graphics-object" aria-roledescription="area mark container"><path aria-label="Date: Mar 16, 2026; Unique Visitors/day: 0; Repository: karlmdavis/ansible-role-bind-dns" role="graphics-symbol" aria-roledescription="area mark" d="M0,300L19.512,300L39.024,300L58.537,300L78.049,300L97.561,300L117.073,300L136.585,187.5L156.098,187.5L175.61,150L195.122,187.5L214.634,187.5L234.146,187.5L253.659,262.5L273.171,37.5L292.683,262.5L312.195,150L331.707,262.5L351.22,300L370.732,225L390.244,262.5L409.756,300L429.268,262.5L448.78,262.5L468.293,262.5L487.805,225L507.317,300L526.829,75L546.341,300L565.854,262.5L585.366,187.5L604.878,300L624.39,225L643.902,300L663.415,262.5L682.927,187.5L702.439,187.5L721.951,187.5L741.463,225L760.976,225L780.488,262.5L800,300L800,300L780.488,262.5L760.976,225L741.463,225L721.951,187.5L702.439,187.5L682.927,187.5L663.415,300L643.902,300L624.39,225L604.878,300L585.366,225L565.854,262.5L546.341,300L526.829,75L507.317,300L487.805,225L468.293,262.5L448.78,262.5L429.268,262.5L409.756,300L390.244,262.5L370.732,262.5L351.22,300L331.707,262.5L312.195,150L292.683,262.5L273.171,37.5L253.659,262.5L234.146,225L214.634,187.5L195.122,187.5L175.61,187.5L156.098,187.5L136.585,187.5L117.073,300L97.561,300L78.049,300L58.537,300L39.024,300L19.512,300L0,300Z" fill="#b279a2"/></g></g><path class="foreground" aria-hidden="true" d="" display="none"/></g><g transform="translate(0,0)"><path class="background" aria-hidden="true" d="M0,0h800v300h-800Z"/><g><g class="mark-area role-mark marks" role="graphics-object" aria-roledescription="area mark container"><path aria-label="Date: Mar 16, 2026; Unique Visitors/day: 0; Repository: karlmdavis/ansible-role-jenkins2" role="graphics-symbol" aria-roledescription="area mark" d="M0,300L19.512,300L39.024,300L58.537,300L78.049,300L97.561,300L117.073,300L136.585,187.5L156.098,187.5L175.61,187.5L195.122,187.5L214.634,187.5L234.146,225L253.659,262.5L273.171,37.5L292.683,262.5L312.195,150L331.707,262.5L351.22,300L370.732,262.5L390.244,262.5L409.756,300L429.268,262.5L448.78,262.5L468.293,262.5L487.805,225L507.317,300L526.829,75L546.341,300L565.854,262.5L585.366,225L604.878,300L624.39,225L643.902,300L663.415,300L682.927,187.5L702.439,187.5L721.951,187.5L741.463,225L760.976,225L780.488,262.5L800,300L800,300L780.488,262.5L760.976,225L741.463,225L721.951,187.5L702.439,187.5L682.927,225L663.415,300L643.902,300L624.39,225L604.878,300L585.366,225L565.854,262.5L546.341,300L526.829,112.5L507.317,300L487.805,225L468.293,262.5L448.78,262.5L429.268,262.5L409.756,300L390.244,262.5L370.732,262.5L351.22,300L331.707,262.5L312.195,150L292.683,262.5L273.171,75L253.659,300L234.146,225L214.634,187.5L195.122,187.5L175.61,187.5L156.098,187.5L136.585,187.5L117.073,300L97.561,300L78.049,300L58.537,300L39.024,300L19.512,300L0,300Z" fill="#ff9da6"/></g></g><path class="foreground" aria-hidden="true" d="" display="none"/></g><g transform="translate(0,0)"><path class="background" aria-hidden="true" d="M0,0h800v300h-800Z"/><g><g class="mark-area role-mark marks" role="graphics-object" aria-roledescription="area mark container"><path aria-label="Date: Mar 16, 2026; Unique Visitors/day: 0; Repository: karlmdavis/ansible-role-ldap" role="graphics-symbol" aria-roledescription="area mark" d="M0,300L19.512,300L39.024,300L58.537,300L78.049,300L97.561,300L117.073,300L136.585,187.5L156.098,187.5L175.61,187.5L195.122,187.5L214.634,187.5L234.146,225L253.659,300L273.171,75L292.683,262.5L312.195,150L331.707,262.5L351.22,300L370.732,262.5L390.244,262.5L409.756,300L429.268,262.5L448.78,262.5L468.293,262.5L487.805,225L507.317,300L526.829,112.5L546.341,300L565.854,262.5L585.366,225L604.878,300L624.39,225L643.902,300L663.415,300L682.927,225L702.439,187.5L721.951,187.5L741.463,225L760.976,225L780.488,262.5L800,300L800,300L780.488,262.5L760.976,225L741.463,225L721.951,187.5L702.439,187.5L682.927,225L663.415,300L643.902,300L624.39,225L604.878,300L585.366,225L565.854,262.5L546.341,300L526.829,112.5L507.317,300L487.805,225L468.293,262.5L448.78,262.5L429.268,262.5L409.756,300L390.244,262.5L370.732,262.5L351.22,300L331.707,262.5L312.195,150L292.683,262.5L273.171,75L253.659,300L234.146,225L214.634,187.5L195.122,187.5L175.61,187.5L156.098,187.5L136.585,187.5L117.073,300L97.561,300L78.049,300L58.537,300L39.024,300L19.512,300L0,300Z" fill="#9d755d"/></g></g><path class="foreground" aria-hidden="true" d="" display="none"/></g><g transform="translate(0,0)"><path class="background" aria-hidden="true" d="M0,0h800v300h-800Z"/><g><g class="mark-area role-mark marks" role="graphics-object" aria-roledescription="area mark container"><path aria-label="Date: Mar 16, 2026; Unique Visitors/day: 0; Repository: karlmdavis/ansible-role-rcm-dotfiles" role="graphics-symbol" aria-roledescription="area mark" d="M0,300L19.512,300L39.024,300L58.537,300L78.049,300L97.561,300L117.073,300L136.585,187.5L156.098,187.5L175.61,187.5L195.122,187.5L214.634,187.5L234.146,225L253.659,300L273.171,75L292.683,262.5L312.195,150L331.707,262.5L351.22,300L370.732,262.5L390.244,262.5L409.756,300L429.268,262.5L448.78,262.5L468.293,262.5L487.805,225L507.317,300L526.829,112.5L546.341,300L565.854,262.5L585.366,225L604.878,300L624.39,225L643.902,300L663.415,300L682.927,225L702.439,187.5L721.951,187.5L741.463,225L760.976,225L780.488,262.5L800,300L800,300L780.488,262.5L760.976,225L741.463,225L721.951,187.5L702.439,225L682.927,225L663.415,300L643.902,300L624.39,225L604.878,300L585.366,225L565.854,262.5L546.341,300L526.829,112.5L507.317,300L487.805,225L468.293,262.5L448.78,262.5L429.268,262.5L409.756,300L390.244,262.5L370.732,262.5L351.22,300L331.707,262.5L312.195,150L292.683,262.5L273.171,75L253.659,300L234.146,225L214.634,187.5L195.122,187.5L175.61,187.5L156.098,187.5L136.585,187.5L117.073,300L97.561,300L78.049,300L58.537,300L39.024,300L19.512,300L0,300Z" fill="#bab0ac"/></g></g><path class="foreground" aria-hidden="true" d="" display="none"/></g><g transform="translate(0,0)"><path class="background" aria-hidden="true" d="M0,0h800v300h-800Z"/><g><g class="mark-area role-mark marks" role="graphics-object" aria-roledescription="area mark container"><path aria-label="Date: Mar 16, 2026; Unique Visitors/day: 0; Repository: karlmdavis/ansible-roles" role="graphics-symbol" aria-roledescription="area mark" d="M0,300L19.512,300L39.024,300L58.537,300L78.049,300L97.561,300L117.073,300L136.585,187.5L156.098,187.5L175.61,187.5L195.122,187.5L214.634,187.5L234.146,225L253.659,300L273.171,75L292.683,262.5L312.195,150L331.707,262.5L351.22,300L370.732,262.5L390.244,262.5L409.756,300L429.268,262.5L448.78,262.5L468.293,262.5L487.805,225L507.317,300L526.829,112.5L546.341,300L565.854,262.5L585.366,225L604.878,300L624.39,225L643.902,300L663.415,300L682.927,225L702.439,225L721.951,187.5L741.463,225L760.976,225L780.488,262.5L800,300L800,300L780.488,262.5L760.976,225L741.463,225L721.951,187.5L702.439,225L682.927,225L663.415,300L643.902,300L624.39,225L604.878,300L585.366,225L565.854,262.5L546.341,300L526.829,112.5L507.317,300L487.805,225L468.293,262.5L448.78,262.5L429.268,262.5L409.756,300L390.244,262.5L370.732,262.5L351.22,300L331.707,262.5L312.195,150L292.683,262.5L273.171,75L253.659,300L234.146,225L214.634,187.5L195.122,187.5L175.61,187.5L156.098,187.5L136.585,187.5L117.073,300L97.561,300L78.049,300L58.537,300L39.024,300L19.512,300L0,300Z" fill="#4c78a8"/></g></g><path class="foreground" aria-hidden="true" d="" display="none"/></g><g transform="translate(0,0)"><path class="background" aria-hidden="true" d="M0,0h800v300h-800Z"/><g><g class="mark-area role-mark marks" role="graphics-object" aria-roledescription="area mark container"><path aria-label="Date: Mar 16, 2026; Unique Visitors/day: 0; Repository: karlmdavis/bbonfhir-dev-infra-docker" role="graphics-symbol" aria-roledescription="area mark" d="M0,300L19.512,300L39.024,300L58.537,300L78.049,300L97.561,300L117.073,300L136.585,187.5L156.098,187.5L175.61,187.5L195.122,187.5L214.634,187.5L234.146,225L253.659,300L273.171,75L292.683,262.5L312.195,150L331.707,262.5L351.22,300L370.732,262.5L390.244,262.5L409.756,300L429.268,262.5L448.78,262.5L468.293,262.5L487.805,225L507.317,300L526.829,112.5L546.341,300L565.854,262.5L585.366,225L604.878,300L624.39,225L643.902,300L663.415,300L682.927,225L702.439,225L721.951,187.5L741.463,225L760.976,225L780.488,262.5L800,300L800,300L780.488,262.5L760.976,225L741.463,225L721.951,187.5L702.439,225L682.927,225L663.415,300L643.902,300L624.39,225L604.878,300L585.366,225L565.854,262.5L546.341,300L526.829,112.5L507.317,300L487.805,225L468.293,262.5L448.78,262.5L429.268,262.5L409.756,300L390.244,262.5L370.732,262.5L351.22,300L331.707,262.5L312.195,150L292.683,262.5L273.171,75L253.659,300L234.146,225L214.634,187.5L195.122,187.5L175.61,187.5L156.098,187.5L136.585,187.5L117.073,300L97.561,300L78.049,300L58.537,300L39.024,300L19.512,300L0,300Z" fill="#f58518"/></g></g><path class="foreground" aria-hidden="true" d="" display="none"/></g><g transform="translate(0,0)"><path class="background" aria-hidden="true" d="M0,0h800v300h-800Z"/><g><g class="mark-area role-mark marks" role="graphics-object" aria-roledescription="area mark container"><path aria-label="Date: Mar 16, 2026; Unique Visitors/day: 0; Repository: karlmdavis/can-i-kayak-baltimore" role="graphics-symbol" aria-roledescription="area mark" d="M0,300L19.512,300L39.024,300L58.537,300L78.049,300L97.561,300L117.073,300L136.585,187.5L156.098,187.5L175.61,187.5L195.122,187.5L214.634,187.5L234.146,225L253.659,300L273.171,75L292.683,262.5L312.195,150L331.707,262.5L351.22,300L370.732,262.5L390.244,262.5L409.756,300L429.268,262.5L448.78,262.5L468.293,262.5L487.805,225L507.317,300L526.829,112.5L546.341,300L565.854,262.5L585.366,225L604.878,300L624.39,225L643.902,300L663.415,300L682.927,225L702.439,225L721.951,187.5L741.463,225L760.976,225L780.488,262.5L800,300L800,300L780.488,262.5L760.976,225L741.463,225L721.951,187.5L702.439,225L682.927,225L663.415,300L643.902,300L624.39,225L604.878,300L585.366,225L565.854,262.5L546.341,300L526.829,112.5L507.317,300L487.805,225L468.293,262.5L448.78,262.5L429.268,262.5L409.756,300L390.244,262.5L370.732,262.5L351.22,300L331.707,262.5L312.195,150L292.683,262.5L273.171,75L253.659,300L234.146,225L214.634,187.5L195.122,187.5L175.61,187.5L156.098,187.5L136.585,187.5L117.073,300L97.561,300L78.049,300L58.537,300L39.024,300L19.512,300L0,300Z" fill="#e45756"/></g></g><path class="foreground" aria-hidden="true" d="" display="none"/></g><g transform="translate(0,0)"><path class="background" aria-hidden="true" d="M0,0h800v300h-800Z"/><g><g class="mark-area role-mark marks" role="graphics-object" aria-roledescription="area mark container"><path aria-label="Date: Mar 16, 2026; Unique Visitors/day: 0; Repository: karlmdavis/datanucleus-test-jdo-1-to-n" role="graphics-symbol" aria-roledescription="area mark" d="M0,300L19.512,300L39.024,300L58.537,300L78.049,300L97.561,300L117.073,300L136.585,187.5L156.098,187.5L175.61,187.5L195.122,187.5L214.634,187.5L234.146,225L253.659,300L273.171,75L292.683,262.5L312.195,150L331.707,262.5L351.22,300L370.732,262.5L390.244,262.5L409.756,300L429.268,262.5L448.78,262.5L468.293,262.5L487.805,225L507.317,300L526.829,112.5L546.341,300L565.854,262.5L585.366,225L604.878,300L624.39,225L643.902,300L663.415,300L682.927,225L702.439,225L721.951,187.5L741.463,225L760.976,225L780.488,262.5L800,300L800,300L780.488,262.5L760.976,225L741.463,225L721.951,187.5L702.439,225L682.927,225L663.415,300L643.902,300L624.39,225L604.878,300L585.366,225L565.854,262.5L546.341,300L526.829,112.5L507.317,300L487.805,225L468.293,262.5L448.78,262.5L429.268,262.5L409.756,300L390.244,262.5L370.732,262.5L351.22,300L331.707,262.5L312.195,150L292.683,262.5L273.171,75L253.659,300L234.146,225L214.634,187.5L195.122,187.5L175.61,187.5L156.098,187.5L136.585,187.5L117.073,300L97.561,300L78.049,300L58.537,300L39.024,300L19.512,300L0,300Z" fill="#72b7b2"/></g></g><path class="foreground" aria-hidden="true" d="" display="none"/></g><g transform="translate(0,0)"><path class="background" aria-hidden="true" d="M0,0h800v300h-800Z"/><g><g class="mark-area role-mark marks" role="graphics-object" aria-roledescription="area mark container"><path aria-label="Date: Mar 16, 2026; Unique Visitors/day: 0; Repository: karlmdavis/dotfiles" role="graphics-symbol" aria-roledescription="area mark" d="M0,300L19.512,300L39.024,300L58.537,300L78.049,300L97.561,300L117.073,300L136.585,187.5L156.098,187.5L175.61,187.5L195.122,187.5L214.634,187.5L234.146,225L253.659,300L273.171,75L292.683,262.5L312.195,150L331.707,262.5L351.22,300L370.732,262.5L390.244,262.5L409.756,300L429.268,262.5L448.78,262.5L468.293,262.5L487.805,225L507.317,300L526.829,112.5L546.341,300L565.854,262.5L585.366,225L604.878,300L624.39,225L643.902,300L663.415,300L682.927,225L702.439,225L721.951,187.5L741.463,225L760.976,225L780.488,262.5L800,300L800,300L780.488,262.5L760.976,225L741.463,225L721.951,187.5L702.439,225L682.927,225L663.415,300L643.902,300L624.39,225L604.878,300L585.366,225L565.854,262.5L546.341,300L526.829,112.5L507.317,300L487.805,225L468.293,262.5L448.78,262.5L429.268,262.5L409.756,300L390.244,262.5L370.732,262.5L351.22,300L331.707,262.5L312.195,150L292.683,262.5L273.171,75L253.659,300L234.146,225L214.634,187.5L195.122,187.5L175.61,187.5L156.098,187.5L136.585,187.5L117.073,300L97.561,300L78.049,300L58.537,300L39.024,300L19.512,300L0,300Z" fill="#54a24b"/></g></g><path class="foreground" aria-hidden="true" d="" display="none"/></g><g transform="translate(0,0)"><path class="background" aria-hidden="true" d="M0,0h800v300h-800Z"/><g><g class="mark-area role-mark marks" role="graphics-object" aria-roledescription="area mark container"><path aria-label="Date: Mar 16, 2026; Unique Visitors/day: 0; Repository: karlmdavis/fhir-benchmarks" role="graphics-symbol" aria-roledescription="area mark" d="M0,300L19.512,300L39.024,300L58.537,300L78.049,300L97.561,300L117.073,300L136.585,187.5L156.098,187.5L175.61,187.5L195.122,187.5L214.634,187.5L234.146,225L253.659,300L273.171,75L292.683,262.5L312.195,150L331.707,262.5L351.22,300L370.732,262.5L390.244,262.5L409.756,300L429.268,262.5L448.78,262.5L468.293,262.5L487.805,225L507.317,300L526.829,112.5L546.341,300L565.854,262.5L585.366,225L604.878,300L624.39,225L643.902,300L663.415,300L682.927,225L702.439,225L721.951,187.5L741.463,225L760.976,225L780.488,262.5L800,300L800,300L780.488,262.5L760.976,225L741.463,262.5L721.951,225L702.439,225L682.927,225L663.415,300L643.902,300L624.39,225L604.878,300L585.366,262.5L565.854,262.5L546.341,300L526.829,112.5L507.317,300L487.805,262.5L468.293,262.5L448.78,262.5L429.268,300L409.756,300L390.244,262.5L370.732,262.5L351.22,300L331.707,262.5L312.195,187.5L292.683,262.5L273.171,112.5L253.659,300L234.146,225L214.634,187.5L195.122,225L175.61,187.5L156.098,187.5L136.585,187.5L117.073,300L97.561,300L78.049,300L58.537,300L39.024,300L19.512,300L0,300Z" fill="#eeca3b"/></g></g><path class="foreground" aria-hidden="true" d="" display="none"/></g><g transform="translate(0,0)"><path class="background" aria-hidden="true" d="M0,0h800v300h-800Z"/><g><g class="mark-area role-mark marks" role="graphics-object" aria-roledescription="area mark container"><path aria-label="Date: Mar 16, 2026; Unique Visitors/day: 0; Repository: karlmdavis/hapi-fhir-jpaserver-starter" role="graphics-symbol" aria-roledescription="area mark" d="M0,300L19.512,300L39.024,300L58.537,300L78.049,300L97.561,300L117.073,300L136.585,187.5L156.098,187.5L175.61,187.5L195.122,225L214.634,187.5L234.146,225L253.659,300L273.171,112.5L292.683,262.5L312.195,187.5L331.707,262.5L351.22,300L370.732,262.5L390.244,262.5L409.756,300L429.268,300L448.78,262.5L468.293,262.5L487.805,262.5L507.317,300L526.829,112.5L546.341,300L565.854,262.5L585.366,262.5L604.878,300L624.39,225L643.902,300L663.415,300L682.927,225L702.439,225L721.951,225L741.463,262.5L760.976,225L780.488,262.5L800,300L800,300L780.488,262.5L760.976,225L741.463,262.5L721.951,225L702.439,225L682.927,225L663.415,300L643.902,300L624.39,225L604.878,300L585.366,262.5L565.854,262.5L546.341,300L526.829,112.5L507.317,300L487.805,262.5L468.293,262.5L448.78,262.5L429.268,300L409.756,300L390.244,262.5L370.732,262.5L351.22,300L331.707,262.5L312.195,187.5L292.683,262.5L273.171,112.5L253.659,300L234.146,225L214.634,187.5L195.122,225L175.61,187.5L156.098,187.5L136.585,187.5L117.073,300L97.561,300L78.049,300L58.537,300L39.024,300L19.512,300L0,300Z" fill="#b279a2"/></g></g><path class="foreground" aria-hidden="true" d="" display="none"/></g><g transform="translate(0,0)"><path class="background" aria-hidden="true" d="M0,0h800v300h-800Z"/><g><g class="mark-area role-mark marks" role="graphics-object" aria-roledescription="area mark container"><path aria-label="Date: Mar 16, 2026; Unique Visitors/day: 0; Repository: karlmdavis/hello-rust-actix" role="graphics-symbol" aria-roledescription="area mark" d="M0,300L19.512,300L39.024,300L58.537,300L78.049,300L97.561,300L117.073,300L136.585,187.5L156.098,187.5L175.61,187.5L195.122,225L214.634,187.5L234.146,225L253.659,300L273.171,112.5L292.683,262.5L312.195,187.5L331.707,262.5L351.22,300L370.732,262.5L390.244,262.5L409.756,300L429.268,300L448.78,262.5L468.293,262.5L487.805,262.5L507.317,300L526.829,112.5L546.341,300L565.854,262.5L585.366,262.5L604.878,300L624.39,225L643.902,300L663.415,300L682.927,225L702.439,225L721.951,225L741.463,262.5L760.976,225L780.488,262.5L800,300L800,300L780.488,262.5L760.976,225L741.463,262.5L721.951,225L702.439,225L682.927,225L663.415,300L643.902,300L624.39,225L604.878,300L585.366,262.5L565.854,262.5L546.341,300L526.829,112.5L507.317,300L487.805,262.5L468.293,262.5L448.78,262.5L429.268,300L409.756,300L390.244,262.5L370.732,262.5L351.22,300L331.707,262.5L312.195,187.5L292.683,262.5L273.171,112.5L253.659,300L234.146,225L214.634,187.5L195.122,225L175.61,187.5L156.098,187.5L136.585,187.5L117.073,300L97.561,300L78.049,300L58.537,300L39.024,300L19.512,300L0,300Z" fill="#ff9da6"/></g></g><path class="foreground" aria-hidden="true" d="" display="none"/></g><g transform="translate(0,0)"><path class="background" aria-hidden="true" d="M0,0h800v300h-800Z"/><g><g class="mark-area role-mark marks" role="graphics-object" aria-roledescription="area mark container"><path aria-label="Date: Mar 16, 2026; Unique Visitors/day: 0; Repository: karlmdavis/jessentials" role="graphics-symbol" aria-roledescription="area mark" d="M0,300L19.512,300L39.024,300L58.537,300L78.049,300L97.561,300L117.073,300L136.585,187.5L156.098,187.5L175.61,187.5L195.122,225L214.634,187.5L234.146,225L253.659,300L273.171,112.5L292.683,262.5L312.195,187.5L331.707,262.5L351.22,300L370.732,262.5L390.244,262.5L409.756,300L429.268,300L448.78,262.5L468.293,262.5L487.805,262.5L507.317,300L526.829,112.5L546.341,300L565.854,262.5L585.366,262.5L604.878,300L624.39,225L643.902,300L663.415,300L682.927,225L702.439,225L721.951,225L741.463,262.5L760.976,225L780.488,262.5L800,300L800,300L780.488,262.5L760.976,225L741.463,262.5L721.951,225L702.439,225L682.927,225L663.415,300L643.902,300L624.39,225L604.878,300L585.366,262.5L565.854,262.5L546.341,300L526.829,112.5L507.317,300L487.805,262.5L468.293,262.5L448.78,262.5L429.268,300L409.756,300L390.244,262.5L370.732,262.5L351.22,300L331.707,262.5L312.195,187.5L292.683,262.5L273.171,112.5L253.659,300L234.146,225L214.634,187.5L195.122,225L175.61,187.5L156.098,187.5L136.585,187.5L117.073,300L97.561,300L78.049,300L58.537,300L39.024,300L19.512,300L0,300Z" fill="#9d755d"/></g></g><path class="foreground" aria-hidden="true" d="" display="none"/></g><g transform="translate(0,0)"><path class="background" aria-hidden="true" d="M0,0h800v300h-800Z"/><g><g class="mark-area role-mark marks" role="graphics-object" aria-roledescription="area mark container"><path aria-label="Date: Mar 16, 2026; Unique Visitors/day: 0; Repository: karlmdavis/justdavis-ansible" role="graphics-symbol" aria-roledescription="area mark" d="M0,300L19.512,300L39.024,300L58.537,300L78.049,300L97.561,300L117.073,300L136.585,187.5L156.098,187.5L175.61,187.5L195.122,225L214.634,187.5L234.146,225L253.659,300L273.171,112.5L292.683,262.5L312.195,187.5L331.707,262.5L351.22,300L370.732,262.5L390.244,262.5L409.756,300L429.268,300L448.78,262.5L468.293,262.5L487.805,262.5L507.317,300L526.829,112.5L546.341,300L565.854,262.5L585.366,262.5L604.878,300L624.39,225L643.902,300L663.415,300L682.927,225L702.439,225L721.951,225L741.463,262.5L760.976,225L780.488,262.5L800,300L800,300L780.488,262.5L760.976,225L741.463,262.5L721.951,225L702.439,225L682.927,225L663.415,300L643.902,300L624.39,225L604.878,300L585.366,262.5L565.854,262.5L546.341,300L526.829,150L507.317,300L487.805,262.5L468.293,262.5L448.78,262.5L429.268,300L409.756,300L390.244,262.5L370.732,262.5L351.22,300L331.707,262.5L312.195,225L292.683,262.5L273.171,150L253.659,300L234.146,225L214.634,187.5L195.122,225L175.61,187.5L156.098,187.5L136.585,187.5L117.073,300L97.561,300L78.049,300L58.537,300L39.024,300L19.512,300L0,300Z" fill="#bab0ac"/></g></g><path class="foreground" aria-hidden="true" d="" display="none"/></g><g transform="translate(0,0)"><path class="background" aria-hidden="true" d="M0,0h800v300h-800Z"/><g><g class="mark-area role-mark marks" role="graphics-object" aria-roledescription="area mark container"><path aria-label="Date: Mar 16, 2026; Unique Visitors/day: 0; Repository: karlmdavis/justdavis-finances" role="graphics-symbol" aria-roledescription="area mark" d="M0,300L19.512,300L39.024,300L58.537,300L78.049,300L97.561,300L117.073,300L136.585,187.5L156.098,187.5L175.61,187.5L195.122,225L214.634,187.5L234.146,225L253.659,300L273.171,150L292.683,262.5L312.195,225L331.707,262.5L351.22,300L370.732,262.5L390.244,262.5L409.756,300L429.268,300L448.78,262.5L468.293,262.5L487.805,262.5L507.317,300L526.829,150L546.341,300L565.854,262.5L585.366,262.5L604.878,300L624.39,225L643.902,300L663.415,300L682.927,225L702.439,225L721.951,225L741.463,262.5L760.976,225L780.488,262.5L800,300L800,300L780.488,262.5L760.976,225L741.463,262.5L721.951,225L702.439,225L682.927,262.5L663.415,300L643.902,300L624.39,225L604.878,300L585.366,262.5L565.854,262.5L546.341,300L526.829,187.5L507.317,300L487.805,262.5L468.293,262.5L448.78,262.5L429.268,300L409.756,300L390.244,262.5L370.732,262.5L351.22,300L331.707,262.5L312.195,225L292.683,262.5L273.171,150L253.659,300L234.146,225L214.634,225L195.122,225L175.61,187.5L156.098,187.5L136.585,187.5L117.073,300L97.561,300L78.049,300L58.537,300L39.024,300L19.512,300L0,300Z" fill="#4c78a8"/></g></g><path class="foreground" aria-hidden="true" d="" display="none"/></g><g transform="translate(0,0)"><path class="background" aria-hidden="true" d="M0,0h800v300h-800Z"/><g><g class="mark-area role-mark marks" role="graphics-object" aria-roledescription="area mark container"><path aria-label="Date: Mar 16, 2026; Unique Visitors/day: 0; Repository: karlmdavis/justdavis-karl" role="graphics-symbol" aria-roledescription="area mark" d="M0,300L19.512,300L39.024,300L58.537,300L78.049,300L97.561,300L117.073,300L136.585,187.5L156.098,187.5L175.61,187.5L195.122,225L214.634,225L234.146,225L253.659,300L273.171,150L292.683,262.5L312.195,225L331.707,262.5L351.22,300L370.732,262.5L390.244,262.5L409.756,300L429.268,300L448.78,262.5L468.293,262.5L487.805,262.5L507.317,300L526.829,187.5L546.341,300L565.854,262.5L585.366,262.5L604.878,300L624.39,225L643.902,300L663.415,300L682.927,262.5L702.439,225L721.951,225L741.463,262.5L760.976,225L780.488,262.5L800,300L800,300L780.488,262.5L760.976,225L741.463,262.5L721.951,225L702.439,225L682.927,262.5L663.415,300L643.902,300L624.39,225L604.878,300L585.366,262.5L565.854,262.5L546.341,300L526.829,187.5L507.317,300L487.805,262.5L468.293,262.5L448.78,262.5L429.268,300L409.756,300L390.244,262.5L370.732,262.5L351.22,300L331.707,262.5L312.195,225L292.683,262.5L273.171,150L253.659,300L234.146,225L214.634,225L195.122,225L175.61,187.5L156.098,187.5L136.585,187.5L117.073,300L97.561,300L78.049,300L58.537,300L39.024,300L19.512,300L0,300Z" fill="#f58518"/></g></g><path class="foreground" aria-hidden="true" d="" display="none"/></g><g transform="translate(0,0)"><path class="background" aria-hidden="true" d="M0,0h800v300h-800Z"/><g><g class="mark-area role-mark marks" role="graphics-object" aria-roledescription="area mark container"><path aria-label="Date: Mar 16, 2026; Unique Visitors/day: 0; Repository: karlmdavis/justdavis-puppet" role="graphics-symbol" aria-roledescription="area mark" d="M0,300L19.512,300L39.024,300L58.537,300L78.049,300L97.561,300L117.073,300L136.585,187.5L156.098,187.5L175.61,187.5L195.122,225L214.634,225L234.146,225L253.659,300L273.171,150L292.683,262.5L312.195,225L331.707,262.5L351.22,300L370.732,262.5L390.244,262.5L409.756,300L429.268,300L448.78,262.5L468.293,262.5L487.805,262.5L507.317,300L526.829,187.5L546.341,300L565.854,262.5L585.366,262.5L604.878,300L624.39,225L643.902,300L663.415,300L682.927,262.5L702.439,225L721.951,225L741.463,262.5L760.976,225L780.488,262.5L800,300L800,300L780.488,262.5L760.976,225L741.463,262.5L721.951,225L702.439,225L682.927,262.5L663.415,300L643.902,300L624.39,225L604.878,300L585.366,262.5L565.854,262.5L546.341,300L526.829,187.5L507.317,300L487.805,262.5L468.293,262.5L448.78,262.5L429.268,300L409.756,300L390.244,262.5L370.732,262.5L351.22,300L331.707,262.5L312.195,225L292.683,262.5L273.171,150L253.659,300L234.146,225L214.634,225L195.122,225L175.61,187.5L156.098,187.5L136.585,187.5L117.073,300L97.561,300L78.049,300L58.537,300L39.024,300L19.512,300L0,300Z" fill="#e45756"/></g></g><path class="foreground" aria-hidden="true" d="" display="none"/></g><g transform="translate(0,0)"><path class="background" aria-hidden="true" d="M0,0h800v300h-800Z"/><g><g class="mark-area role-mark marks" role="graphics-object" aria-roledescription="area mark container"><path aria-label="Date: Mar 16, 2026; Unique Visitors/day: 0; Repository: karlmdavis/kobjects" role="graphics-symbol" aria-roledescription="area mark" d="M0,300L19.512,300L39.024,300L58.537,300L78.049,300L97.561,300L117.073,300L136.585,187.5L156.098,187.5L175.61,187.5L195.122,225L214.634,225L234.146,225L253.659,300L273.171,150L292.683,262.5L312.195,225L331.707,262.5L351.22,300L370.732,262.5L390.244,262.5L409.756,300L429.268,300L448.78,262.5L468.293,262.5L487.805,262.5L507.317,300L526.829,187.5L546.341,300L565.854,262.5L585.366,262.5L604.878,300L624.39,225L643.902,300L663.415,300L682.927,262.5L702.439,225L721.951,225L741.463,262.5L760.976,225L780.488,262.5L800,300L800,300L780.488,262.5L760.976,225L741.463,262.5L721.951,225L702.439,225L682.927,262.5L663.415,300L643.902,300L624.39,225L604.878,300L585.366,262.5L565.854,262.5L546.341,300L526.829,187.5L507.317,300L487.805,262.5L468.293,262.5L448.78,262.5L429.268,300L409.756,300L390.244,262.5L370.732,262.5L351.22,300L331.707,262.5L312.195,225L292.683,262.5L273.171,150L253.659,300L234.146,225L214.634,225L195.122,225L175.61,187.5L156.098,187.5L136.585,187.5L117.073,300L97.561,300L78.049,300L58.537,300L39.024,300L19.512,300L0,300Z" fill="#72b7b2"/></g></g><path class="foreground" aria-hidden="true" d="" display="none"/></g><g transform="translate(0,0)"><path class="background" aria-hidden="true" d="M0,0h800v300h-800Z"/><g><g class="mark-area role-mark marks" role="graphics-object" aria-roledescription="area mark container"><path aria-label="Date: Mar 16, 2026; Unique Visitors/day: 0; Repository: karlmdavis/ksoap2-android" role="graphics-symbol" aria-roledescription="area mark" d="M0,300L19.512,300L39.024,300L58.537,300L78.049,300L97.561,300L117.073,300L136.585,187.5L156.098,187.5L175.61,187.5L195.122,225L214.634,225L234.146,225L253.659,300L273.171,150L292.683,262.5L312.195,225L331.707,262.5L351.22,300L370.732,262.5L390.244,262.5L409.756,300L429.268,300L448.78,262.5L468.293,262.5L487.805,262.5L507.317,300L526.829,187.5L546.341,300L565.854,262.5L585.366,262.5L604.878,300L624.39,225L643.902,300L663.415,300L682.927,262.5L702.439,225L721.951,225L741.463,262.5L760.976,225L780.488,262.5L800,300L800,300L780.488,300L760.976,262.5L741.463,300L721.951,300L702.439,262.5L682.927,262.5L663.415,300L643.902,300L624.39,300L604.878,300L585.366,300L565.854,300L546.341,300L526.829,225L507.317,300L487.805,300L468.293,262.5L448.78,300L429.268,300L409.756,300L390.244,300L370.732,300L351.22,300L331.707,300L312.195,262.5L292.683,262.5L273.171,225L253.659,300L234.146,225L214.634,262.5L195.122,225L175.61,225L156.098,262.5L136.585,262.5L117.073,300L97.561,300L78.049,300L58.537,300L39.024,300L19.512,300L0,300Z" fill="#54a24b"/></g></g><path class="foreground" aria-hidden="true" d="" display="none"/></g><g transform="translate(0,0)"><path class="background" aria-hidden="true" d="M0,0h800v300h-800Z"/><g><g class="mark-area role-mark marks" role="graphics-object" aria-roledescription="area mark container"><path aria-label="Date: Mar 16, 2026; Unique Visitors/day: 0; Repository: karlmdavis/kxml2" role="graphics-symbol" aria-roledescription="area mark" d="M0,300L19.512,300L39.024,300L58.537,300L78.049,300L97.561,300L117.073,300L136.585,262.5L156.098,262.5L175.61,225L195.122,225L214.634,262.5L234.146,225L253.659,300L273.171,225L292.683,262.5L312.195,262.5L331.707,300L351.22,300L370.732,300L390.244,300L409.756,300L429.268,300L448.78,300L468.293,262.5L487.805,300L507.317,300L526.829,225L546.341,300L565.854,300L585.366,300L604.878,300L624.39,300L643.902,300L663.415,300L682.927,262.5L702.439,262.5L721.951,300L741.463,300L760.976,262.5L780.488,300L800,300L800,300L780.488,300L760.976,262.5L741.463,300L721.951,300L702.439,262.5L682.927,262.5L663.415,300L643.902,300L624.39,300L604.878,300L585.366,300L565.854,300L546.341,300L526.829,225L507.317,300L487.805,300L468.293,262.5L448.78,300L429.268,300L409.756,300L390.244,300L370.732,300L351.22,300L331.707,300L312.195,262.5L292.683,262.5L273.171,225L253.659,300L234.146,262.5L214.634,262.5L195.122,225L175.61,262.5L156.098,262.5L136.585,262.5L117.073,300L97.561,300L78.049,300L58.537,300L39.024,300L19.512,300L0,300Z" fill="#eeca3b"/></g></g><path class="foreground" aria-hidden="true" d="" display="none"/></g><g transform="translate(0,0)"><path class="background" aria-hidden="true" d="M0,0h800v300h-800Z"/><g><g class="mark-area role-mark marks" role="graphics-object" aria-roledescription="area mark container"><path aria-label="Date: Mar 16, 2026; Unique Visitors/day: 0; Repository: karlmdavis/ldap-plugin" role="graphics-symbol" aria-roledescription="area mark" d="M0,300L19.512,300L39.024,300L58.537,300L78.049,300L97.561,300L117.073,300L136.585,262.5L156.098,262.5L175.61,262.5L195.122,225L214.634,262.5L234.146,262.5L253.659,300L273.171,225L292.683,262.5L312.195,262.5L331.707,300L351.22,300L370.732,300L390.244,300L409.756,300L429.268,300L448.78,300L468.293,262.5L487.805,300L507.317,300L526.829,225L546.341,300L565.854,300L585.366,300L604.878,300L624.39,300L643.902,300L663.415,300L682.927,262.5L702.439,262.5L721.951,300L741.463,300L760.976,262.5L780.488,300L800,300L800,300L780.488,300L760.976,262.5L741.463,300L721.951,300L702.439,262.5L682.927,262.5L663.415,300L643.902,300L624.39,300L604.878,300L585.366,300L565.854,300L546.341,300L526.829,225L507.317,300L487.805,300L468.293,262.5L448.78,300L429.268,300L409.756,300L390.244,300L370.732,300L351.22,300L331.707,300L312.195,262.5L292.683,262.5L273.171,225L253.659,300L234.146,262.5L214.634,262.5L195.122,225L175.61,262.5L156.098,262.5L136.585,262.5L117.073,300L97.561,300L78.049,300L58.537,300L39.024,300L19.512,300L0,300Z" fill="#b279a2"/></g></g><path class="foreground" aria-hidden="true" d="" display="none"/></g><g transform="translate(0,0)"><path class="background" aria-hidden="true" d="M0,0h800v300h-800Z"/><g><g class="mark-area role-mark marks" role="graphics-object" aria-roledescription="area mark container"><path aria-label="Date: Mar 16, 2026; Unique Visitors/day: 0; Repository: karlmdavis/lego-ev3dev-rs" role="graphics-symbol" aria-roledescription="area mark" d="M0,300L19.512,300L39.024,300L58.537,300L78.049,300L97.561,300L117.073,300L136.585,262.5L156.098,262.5L175.61,262.5L195.122,225L214.634,262.5L234.146,262.5L253.659,300L273.171,225L292.683,262.5L312.195,262.5L331.707,300L351.22,300L370.732,300L390.244,300L409.756,300L429.268,300L448.78,300L468.293,262.5L487.805,300L507.317,300L526.829,225L546.341,300L565.854,300L585.366,300L604.878,300L624.39,300L643.902,300L663.415,300L682.927,262.5L702.439,262.5L721.951,300L741.463,300L760.976,262.5L780.488,300L800,300L800,300L780.488,300L760.976,262.5L741.463,300L721.951,300L702.439,262.5L682.927,262.5L663.415,300L643.902,300L624.39,300L604.878,300L585.366,300L565.854,300L546.341,300L526.829,225L507.317,300L487.805,300L468.293,262.5L448.78,300L429.268,300L409.756,300L390.244,300L370.732,300L351.22,300L331.707,300L312.195,262.5L292.683,262.5L273.171,225L253.659,300L234.146,262.5L214.634,262.5L195.122,225L175.61,262.5L156.098,262.5L136.585,262.5L117.073,300L97.561,300L78.049,300L58.537,300L39.024,300L19.512,300L0,300Z" fill="#ff9da6"/></g></g><path class="foreground" aria-hidden="true" d="" display="none"/></g><g transform="translate(0,0)"><path class="background" aria-hidden="true" d="M0,0h800v300h-800Z"/><g><g class="mark-area role-mark marks" role="graphics-object" aria-roledescription="area mark container"><path aria-label="Date: Mar 16, 2026; Unique Visitors/day: 0; Repository: karlmdavis/liquibase" role="graphics-symbol" aria-roledescription="area mark" d="M0,300L19.512,300L39.024,300L58.537,300L78.049,300L97.561,300L117.073,300L136.585,262.5L156.098,262.5L175.61,262.5L195.122,225L214.634,262.5L234.146,262.5L253.659,300L273.171,225L292.683,262.5L312.195,262.5L331.707,300L351.22,300L370.732,300L390.244,300L409.756,300L429.268,300L448.78,300L468.293,262.5L487.805,300L507.317,300L526.829,225L546.341,300L565.854,300L585.366,300L604.878,300L624.39,300L643.902,300L663.415,300L682.927,262.5L702.439,262.5L721.951,300L741.463,300L760.976,262.5L780.488,300L800,300L800,300L780.488,300L760.976,262.5L741.463,300L721.951,300L702.439,262.5L682.927,262.5L663.415,300L643.902,300L624.39,300L604.878,300L585.366,300L565.854,300L546.341,300L526.829,225L507.317,300L487.805,300L468.293,262.5L448.78,300L429.268,300L409.756,300L390.244,300L370.732,300L351.22,300L331.707,300L312.195,262.5L292.683,262.5L273.171,225L253.659,300L234.146,262.5L214.634,262.5L195.122,225L175.61,262.5L156.098,262.5L136.585,262.5L117.073,300L97.561,300L78.049,300L58.537,300L39.024,300L19.512,300L0,300Z" fill="#9d755d"/></g></g><path class="foreground" aria-hidden="true" d="" display="none"/></g><g transform="translate(0,0)"><path class="background" aria-hidden="true" d="M0,0h800v300h-800Z"/><g><g class="mark-area role-mark marks" role="graphics-object" aria-roledescription="area mark container"><path aria-label="Date: Mar 16, 2026; Unique Visitors/day: 0; Repository: karlmdavis/m2e-core" role="graphics-symbol" aria-roledescription="area mark" d="M0,300L19.512,300L39.024,300L58.537,300L78.049,300L97.561,300L117.073,300L136.585,262.5L156.098,262.5L175.61,262.5L195.122,225L214.634,262.5L234.146,262.5L253.659,300L273.171,225L292.683,262.5L312.195,262.5L331.707,300L351.22,300L370.732,300L390.244,300L409.756,300L429.268,300L448.78,300L468.293,262.5L487.805,300L507.317,300L526.829,225L546.341,300L565.854,300L585.366,300L604.878,300L624.39,300L643.902,300L663.415,300L682.927,262.5L702.439,262.5L721.951,300L741.463,300L760.976,262.5L780.488,300L800,300L800,300L780.488,300L760.976,262.5L741.463,300L721.951,300L702.439,262.5L682.927,262.5L663.415,300L643.902,300L624.39,300L604.878,300L585.366,300L565.854,300L546.341,300L526.829,225L507.317,300L487.805,300L468.293,262.5L448.78,300L429.268,300L409.756,300L390.244,300L370.732,300L351.22,300L331.707,300L312.195,262.5L292.683,262.5L273.171,225L253.659,300L234.146,262.5L214.634,262.5L195.122,225L175.61,262.5L156.098,262.5L136.585,262.5L117.073,300L97.561,300L78.049,300L58.537,300L39.024,300L19.512,300L0,300Z" fill="#bab0ac"/></g></g><path class="foreground" aria-hidden="true" d="" display="none"/></g><g transform="translate(0,0)"><path class="background" aria-hidden="true" d="M0,0h800v300h-800Z"/><g><g class="mark-area role-mark marks" role="graphics-object" aria-roledescription="area mark container"><path aria-label="Date: Mar 16, 2026; Unique Visitors/day: 0; Repository: karlmdavis/m2e-core-tests" role="graphics-symbol" aria-roledescription="area mark" d="M0,300L19.512,300L39.024,300L58.537,300L78.049,300L97.561,300L117.073,300L136.585,262.5L156.098,262.5L175.61,262.5L195.122,225L214.634,262.5L234.146,262.5L253.659,300L273.171,225L292.683,262.5L312.195,262.5L331.707,300L351.22,300L370.732,300L390.244,300L409.756,300L429.268,300L448.78,300L468.293,262.5L487.805,300L507.317,300L526.829,225L546.341,300L565.854,300L585.366,300L604.878,300L624.39,300L643.902,300L663.415,300L682.927,262.5L702.439,262.5L721.951,300L741.463,300L760.976,262.5L780.488,300L800,300L800,300L780.488,300L760.976,262.5L741.463,300L721.951,300L702.439,262.5L682.927,262.5L663.415,300L643.902,300L624.39,300L604.878,300L585.366,300L565.854,300L546.341,300L526.829,225L507.317,300L487.805,300L468.293,262.5L448.78,300L429.268,300L409.756,300L390.244,300L370.732,300L351.22,300L331.707,300L312.195,262.5L292.683,262.5L273.171,225L253.659,300L234.146,262.5L214.634,262.5L195.122,225L175.61,262.5L156.098,262.5L136.585,262.5L117.073,300L97.561,300L78.049,300L58.537,300L39.024,300L19.512,300L0,300Z" fill="#4c78a8"/></g></g><path class="foreground" aria-hidden="true" d="" display="none"/></g><g transform="translate(0,0)"><path class="background" aria-hidden="true" d="M0,0h800v300h-800Z"/><g><g class="mark-area role-mark marks" role="graphics-object" aria-roledescription="area mark container"><path aria-label="Date: Mar 16, 2026; Unique Visitors/day: 0; Repository: karlmdavis/obsidian-operator" role="graphics-symbol" aria-roledescription="area mark" d="M0,300L19.512,300L39.024,300L58.537,300L78.049,300L97.561,300L117.073,300L136.585,262.5L156.098,262.5L175.61,262.5L195.122,225L214.634,262.5L234.146,262.5L253.659,300L273.171,225L292.683,262.5L312.195,262.5L331.707,300L351.22,300L370.732,300L390.244,300L409.756,300L429.268,300L448.78,300L468.293,262.5L487.805,300L507.317,300L526.829,225L546.341,300L565.854,300L585.366,300L604.878,300L624.39,300L643.902,300L663.415,300L682.927,262.5L702.439,262.5L721.951,300L741.463,300L760.976,262.5L780.488,300L800,300L800,300L780.488,300L760.976,262.5L741.463,300L721.951,300L702.439,262.5L682.927,262.5L663.415,300L643.902,300L624.39,300L604.878,300L585.366,300L565.854,300L546.341,300L526.829,262.5L507.317,300L487.805,300L468.293,262.5L448.78,300L429.268,300L409.756,300L390.244,300L370.732,300L351.22,300L331.707,300L312.195,262.5L292.683,262.5L273.171,225L253.659,300L234.146,262.5L214.634,262.5L195.122,225L175.61,262.5L156.098,262.5L136.585,262.5L117.073,300L97.561,300L78.049,300L58.537,300L39.024,300L19.512,300L0,300Z" fill="#f58518"/></g></g><path class="foreground" aria-hidden="true" d="" display="none"/></g><g transform="translate(0,0)"><path class="background" aria-hidden="true" d="M0,0h800v300h-800Z"/><g><g class="mark-area role-mark marks" role="graphics-object" aria-roledescription="area mark container"><path aria-label="Date: Mar 16, 2026; Unique Visitors/day: 0; Repository: karlmdavis/perfect-note" role="graphics-symbol" aria-roledescription="area mark" d="M0,300L19.512,300L39.024,300L58.537,300L78.049,300L97.561,300L117.073,300L136.585,262.5L156.098,262.5L175.61,262.5L195.122,225L214.634,262.5L234.146,262.5L253.659,300L273.171,225L292.683,262.5L312.195,262.5L331.707,300L351.22,300L370.732,300L390.244,300L409.756,300L429.268,300L448.78,300L468.293,262.5L487.805,300L507.317,300L526.829,262.5L546.341,300L565.854,300L585.366,300L604.878,300L624.39,300L643.902,300L663.415,300L682.927,262.5L702.439,262.5L721.951,300L741.463,300L760.976,262.5L780.488,300L800,300L800,300L780.488,300L760.976,262.5L741.463,300L721.951,300L702.439,262.5L682.927,262.5L663.415,300L643.902,300L624.39,300L604.878,300L585.366,300L565.854,300L546.341,300L526.829,262.5L507.317,300L487.805,300L468.293,262.5L448.78,300L429.268,300L409.756,300L390.244,300L370.732,300L351.22,300L331.707,300L312.195,262.5L292.683,262.5L273.171,225L253.659,300L234.146,262.5L214.634,262.5L195.122,225L175.61,262.5L156.098,262.5L136.585,262.5L117.073,300L97.561,300L78.049,300L58.537,300L39.024,300L19.512,300L0,300Z" fill="#e45756"/></g></g><path class="foreground" aria-hidden="true" d="" display="none"/></g><g transform="translate(0,0)"><path class="background" aria-hidden="true" d="M0,0h800v300h-800Z"/><g><g class="mark-area role-mark marks" role="graphics-object" aria-roledescription="area mark container"><path aria-label="Date: Mar 16, 2026; Unique Visitors/day: 0; Repository: karlmdavis/puppet-archive" role="graphics-symbol" aria-roledescription="area mark" d="M0,300L19.512,300L39.024,300L58.537,300L78.049,300L97.561,300L117.073,300L136.585,262.5L156.098,262.5L175.61,262.5L195.122,225L214.634,262.5L234.146,262.5L253.659,300L273.171,225L292.683,262.5L312.195,262.5L331.707,300L351.22,300L370.732,300L390.244,300L409.756,300L429.268,300L448.78,300L468.293,262.5L487.805,300L507.317,300L526.829,262.5L546.341,300L565.854,300L585.366,300L604.878,300L624.39,300L643.902,300L663.415,300L682.927,262.5L702.439,262.5L721.951,300L741.463,300L760.976,262.5L780.488,300L800,300L800,300L780.488,300L760.976,262.5L741.463,300L721.951,300L702.439,262.5L682.927,262.5L663.415,300L643.902,300L624.39,300L604.878,300L585.366,300L565.854,300L546.341,300L526.829,262.5L507.317,300L487.805,300L468.293,262.5L448.78,300L429.268,300L409.756,300L390.244,300L370.732,300L351.22,300L331.707,300L312.195,262.5L292.683,262.5L273.171,225L253.659,300L234.146,262.5L214.634,262.5L195.122,225L175.61,262.5L156.098,262.5L136.585,262.5L117.073,300L97.561,300L78.049,300L58.537,300L39.024,300L19.512,300L0,300Z" fill="#72b7b2"/></g></g><path class="foreground" aria-hidden="true" d="" display="none"/></g><g transform="translate(0,0)"><path class="background" aria-hidden="true" d="M0,0h800v300h-800Z"/><g><g class="mark-area role-mark marks" role="graphics-object" aria-roledescription="area mark container"><path aria-label="Date: Mar 16, 2026; Unique Visitors/day: 0; Repository: karlmdavis/puppet-sonar" role="graphics-symbol" aria-roledescription="area mark" d="M0,300L19.512,300L39.024,300L58.537,300L78.049,300L97.561,300L117.073,300L136.585,262.5L156.098,262.5L175.61,262.5L195.122,225L214.634,262.5L234.146,262.5L253.659,300L273.171,225L292.683,262.5L312.195,262.5L331.707,300L351.22,300L370.732,300L390.244,300L409.756,300L429.268,300L448.78,300L468.293,262.5L487.805,300L507.317,300L526.829,262.5L546.341,300L565.854,300L585.366,300L604.878,300L624.39,300L643.902,300L663.415,300L682.927,262.5L702.439,262.5L721.951,300L741.463,300L760.976,262.5L780.488,300L800,300L800,300L780.488,300L760.976,262.5L741.463,300L721.951,300L702.439,262.5L682.927,262.5L663.415,300L643.902,300L624.39,300L604.878,300L585.366,300L565.854,300L546.341,300L526.829,262.5L507.317,300L487.805,300L468.293,262.5L448.78,300L429.268,300L409.756,300L390.244,300L370.732,300L351.22,300L331.707,300L312.195,262.5L292.683,262.5L273.171,225L253.659,300L234.146,262.5L214.634,262.5L195.122,225L175.61,262.5L156.098,262.5L136.585,262.5L117.073,300L97.561,300L78.049,300L58.537,300L39.024,300L19.512,300L0,300Z" fill="#54a24b"/></g></g><path class="foreground" aria-hidden="true" d="" display="none"/></g><g transform="translate(0,0)"><path class="background" aria-hidden="true" d="M0,0h800v300h-800Z"/><g><g class="mark-area role-mark marks" role="graphics-object" aria-roledescription="area mark container"><path aria-label="Date: Mar 16, 2026; Unique Visitors/day: 0; Repository: karlmdavis/rps-tourney" role="graphics-symbol" aria-roledescription="area mark" d="M0,300L19.512,300L39.024,300L58.537,300L78.049,300L97.561,300L117.073,300L136.585,262.5L156.098,262.5L175.61,262.5L195.122,225L214.634,262.5L234.146,262.5L253.659,300L273.171,225L292.683,262.5L312.195,262.5L331.707,300L351.22,300L370.732,300L390.244,300L409.756,300L429.268,300L448.78,300L468.293,262.5L487.805,300L507.317,300L526.829,262.5L546.341,300L565.854,300L585.366,300L604.878,300L624.39,300L643.902,300L663.415,300L682.927,262.5L702.439,262.5L721.951,300L741.463,300L760.976,262.5L780.488,300L800,300L800,300L780.488,300L760.976,262.5L741.463,300L721.951,300L702.439,300L682.927,262.5L663.415,300L643.902,300L624.39,300L604.878,300L585.366,300L565.854,300L546.341,300L526.829,300L507.317,300L487.805,300L468.293,262.5L448.78,300L429.268,300L409.756,300L390.244,300L370.732,300L351.22,300L331.707,300L312.195,300L292.683,262.5L273.171,225L253.659,300L234.146,262.5L214.634,300L195.122,225L175.61,262.5L156.098,300L136.585,300L117.073,300L97.561,300L78.049,300L58.537,300L39.024,300L19.512,300L0,300Z" fill="#eeca3b"/></g></g><path class="foreground" aria-hidden="true" d="" display="none"/></g><g transform="translate(0,0)"><path class="background" aria-hidden="true" d="M0,0h800v300h-800Z"/><g><g class="mark-area role-mark marks" role="graphics-object" aria-roledescription="area mark container"><path aria-label="Date: Mar 16, 2026; Unique Visitors/day: 0; Repository: karlmdavis/sample-maven-and-rcp" role="graphics-symbol" aria-roledescription="area mark" d="M0,300L19.512,300L39.024,300L58.537,300L78.049,300L97.561,300L117.073,300L136.585,300L156.098,300L175.61,262.5L195.122,225L214.634,300L234.146,262.5L253.659,300L273.171,225L292.683,262.5L312.195,300L331.707,300L351.22,300L370.732,300L390.244,300L409.756,300L429.268,300L448.78,300L468.293,262.5L487.805,300L507.317,300L526.829,300L546.341,300L565.854,300L585.366,300L604.878,300L624.39,300L643.902,300L663.415,300L682.927,262.5L702.439,300L721.951,300L741.463,300L760.976,262.5L780.488,300L800,300L800,300L780.488,300L760.976,262.5L741.463,300L721.951,300L702.439,300L682.927,262.5L663.415,300L643.902,300L624.39,300L604.878,300L585.366,300L565.854,300L546.341,300L526.829,300L507.317,300L487.805,300L468.293,262.5L448.78,300L429.268,300L409.756,300L390.244,300L370.732,300L351.22,300L331.707,300L312.195,300L292.683,262.5L273.171,225L253.659,300L234.146,262.5L214.634,300L195.122,225L175.61,262.5L156.098,300L136.585,300L117.073,300L97.561,300L78.049,300L58.537,300L39.024,300L19.512,300L0,300Z" fill="#b279a2"/></g></g><path class="foreground" aria-hidden="true" d="" display="none"/></g><g transform="translate(0,0)"><path class="background" aria-hidden="true" d="M0,0h800v300h-800Z"/><g><g class="mark-area role-mark marks" role="graphics-object" aria-roledescription="area mark container"><path aria-label="Date: Mar 16, 2026; Unique Visitors/day: 0; Repository: karlmdavis/stockfighter-trades-solutions" role="graphics-symbol" aria-roledescription="area mark" d="M0,300L19.512,300L39.024,300L58.537,300L78.049,300L97.561,300L117.073,300L136.585,300L156.098,300L175.61,262.5L195.122,225L214.634,300L234.146,262.5L253.659,300L273.171,225L292.683,262.5L312.195,300L331.707,300L351.22,300L370.732,300L390.244,300L409.756,300L429.268,300L448.78,300L468.293,262.5L487.805,300L507.317,300L526.829,300L546.341,300L565.854,300L585.366,300L604.878,300L624.39,300L643.902,300L663.415,300L682.927,262.5L702.439,300L721.951,300L741.463,300L760.976,262.5L780.488,300L800,300L800,300L780.488,300L760.976,262.5L741.463,300L721.951,300L702.439,300L682.927,262.5L663.415,300L643.902,300L624.39,300L604.878,300L585.366,300L565.854,300L546.341,300L526.829,300L507.317,300L487.805,300L468.293,262.5L448.78,300L429.268,300L409.756,300L390.244,300L370.732,300L351.22,300L331.707,300L312.195,300L292.683,262.5L273.171,225L253.659,300L234.146,262.5L214.634,300L195.122,225L175.61,262.5L156.098,300L136.585,300L117.073,300L97.561,300L78.049,300L58.537,300L39.024,300L19.512,300L0,300Z" fill="#ff9da6"/></g></g><path class="foreground" aria-hidden="true" d="" display="none"/></g><g transform="translate(0,0)"><path class="background" aria-hidden="true" d="M0,0h800v300h-800Z"/><g><g class="mark-area role-mark marks" role="graphics-object" aria-roledescription="area mark container"><path aria-label="Date: Mar 16, 2026; Unique Visitors/day: 0; Repository: karlmdavis/test-repo-for-move" role="graphics-symbol" aria-roledescription="area mark" d="M0,300L19.512,300L39.024,300L58.537,300L78.049,300L97.561,300L117.073,300L136.585,300L156.098,300L175.61,262.5L195.122,225L214.634,300L234.146,262.5L253.659,300L273.171,225L292.683,262.5L312.195,300L331.707,300L351.22,300L370.732,300L390.244,300L409.756,300L429.268,300L448.78,300L468.293,262.5L487.805,300L507.317,300L526.829,300L546.341,300L565.854,300L585.366,300L604.878,300L624.39,300L643.902,300L663.415,300L682.927,262.5L702.439,300L721.951,300L741.463,300L760.976,262.5L780.488,300L800,300L800,300L780.488,300L760.976,262.5L741.463,300L721.951,300L702.439,300L682.927,262.5L663.415,300L643.902,300L624.39,300L604.878,300L585.366,300L565.854,300L546.341,300L526.829,300L507.317,300L487.805,300L468.293,262.5L448.78,300L429.268,300L409.756,300L390.244,300L370.732,300L351.22,300L331.707,300L312.195,300L292.683,262.5L273.171,225L253.659,300L234.146,262.5L214.634,300L195.122,225L175.61,262.5L156.098,300L136.585,300L117.073,300L97.561,300L78.049,300L58.537,300L39.024,300L19.512,300L0,300Z" fill="#9d755d"/></g></g><path class="foreground" aria-hidden="true" d="" display="none"/></g><g transform="translate(0,0)"><path class="background" aria-hidden="true" d="M0,0h800v300h-800Z"/><g><g class="mark-area role-mark marks" role="graphics-object" aria-roledescription="area mark container"><path aria-label="Date: Mar 16, 2026; Unique Visitors/day: 0; Repository: karlmdavis/todoist-ai" role="graphics-symbol" aria-roledescription="area mark" d="M0,300L19.512,300L39.024,300L58.537,300L78.049,300L97.561,300L117.073,300L136.585,300L156.098,300L175.61,262.5L195.122,225L214.634,300L234.146,262.5L253.659,300L273.171,225L292.683,262.5L312.195,300L331.707,300L351.22,300L370.732,300L390.244,300L409.756,300L429.268,300L448.78,300L468.293,262.5L487.805,300L507.317,300L526.829,300L546.341,300L565.854,300L585.366,300L604.878,300L624.39,300L643.902,300L663.415,300L682.927,262.5L702.439,300L721.951,300L741.463,300L760.976,262.5L780.488,300L800,300L800,300L780.488,300L760.976,262.5L741.463,300L721.951,300L702.439,300L682.927,300L663.415,300L643.902,300L624.39,300L604.878,300L585.366,300L565.854,300L546.341,300L526.829,300L507.317,300L487.805,300L468.293,262.5L448.78,300L429.268,300L409.756,300L390.244,300L370.732,300L351.22,300L331.707,300L312.195,300L292.683,262.5L273.171,262.5L253.659,300L234.146,262.5L214.634,300L195.122,225L175.61,262.5L156.098,300L136.585,300L117.073,300L97.561,300L78.049,300L58.537,300L39.024,300L19.512,300L0,300Z" fill="#bab0ac"/></g></g><path class="foreground" aria-hidden="true" d="" display="none"/></g><g transform="translate(0,0)"><path class="background" aria-hidden="true" d="M0,0h800v300h-800Z"/><g><g class="mark-area role-mark marks" role="graphics-object" aria-roledescription="area mark container"><path aria-label="Date: Mar 16, 2026; Unique Visitors/day: 0; Repository: karlmdavis/usgs-water-api-java" role="graphics-symbol" aria-roledescription="area mark" d="M0,300L19.512,300L39.024,300L58.537,300L78.049,300L97.561,300L117.073,300L136.585,300L156.098,300L175.61,262.5L195.122,225L214.634,300L234.146,262.5L253.659,300L273.171,262.5L292.683,262.5L312.195,300L331.707,300L351.22,300L370.732,300L390.244,300L409.756,300L429.268,300L448.78,300L468.293,262.5L487.805,300L507.317,300L526.829,300L546.341,300L565.854,300L585.366,300L604.878,300L624.39,300L643.902,300L663.415,300L682.927,300L702.439,300L721.951,300L741.463,300L760.976,262.5L780.488,300L800,300L800,300L780.488,300L760.976,262.5L741.463,300L721.951,300L702.439,300L682.927,300L663.415,300L643.902,300L624.39,300L604.878,300L585.366,300L565.854,300L546.341,300L526.829,300L507.317,300L487.805,300L468.293,262.5L448.78,300L429.268,300L409.756,300L390.244,300L370.732,300L351.22,300L331.707,300L312.195,300L292.683,262.5L273.171,262.5L253.659,300L234.146,262.5L214.634,300L195.122,225L175.61,262.5L156.098,300L136.585,300L117.073,300L97.561,300L78.049,300L58.537,300L39.024,300L19.512,300L0,300Z" fill="#4c78a8"/></g></g><path class="foreground" aria-hidden="true" d="" display="none"/></g><g transform="translate(0,0)"><path class="background" aria-hidden="true" d="M0,0h800v300h-800Z"/><g><g class="mark-area role-mark marks" role="graphics-object" aria-roledescription="area mark container"><path aria-label="Date: Mar 16, 2026; Unique Visitors/day: 0; Repository: karlmdavis/workstation-base-ansible-role" role="graphics-symbol" aria-roledescription="area mark" d="M0,300L19.512,300L39.024,300L58.537,300L78.049,300L97.561,300L117.073,300L136.585,300L156.098,300L175.61,262.5L195.122,225L214.634,300L234.146,262.5L253.659,300L273.171,262.5L292.683,262.5L312.195,300L331.707,300L351.22,300L370.732,300L390.244,300L409.756,300L429.268,300L448.78,300L468.293,262.5L487.805,300L507.317,300L526.829,300L546.341,300L565.854,300L585.366,300L604.878,300L624.39,300L643.902,300L663.415,300L682.927,300L702.439,300L721.951,300L741.463,300L760.976,262.5L780.488,300L800,300L800,300L780.488,300L760.976,262.5L741.463,300L721.951,300L702.439,300L682.927,300L663.415,300L643.902,300L624.39,300L604.878,300L585.366,300L565.854,300L546.341,300L526.829,300L507.317,300L487.805,300L468.293,262.5L448.78,300L429.268,300L409.756,300L390.244,300L370.732,300L351.22,300L331.707,300L312.195,300L292.683,262.5L273.171,262.5L253.659,300L234.146,262.5L214.634,300L195.122,225L175.61,262.5L156.098,300L136.585,300L117.073,300L97.561,300L78.049,300L58.537,300L39.024,300L19.512,300L0,300Z" fill="#f58518"/></g></g><path class="foreground" aria-hidden="true" d="" display="none"/></g><g transform="translate(0,0)"><path class="background" aria-hidden="true" d="M0,0h800v300h-800Z"/><g><g class="mark-area role-mark marks" role="graphics-object" aria-roledescription="area mark container"><path aria-label="Date: Mar 16, 2026; Unique Visitors/day: 0; Repository: karlmdavis/xmlpull" role="graphics-symbol" aria-roledescription="area mark" d="M0,300L19.512,300L39.024,300L58.537,300L78.049,300L97.561,300L117.073,300L136.585,300L156.098,300L175.61,262.5L195.122,225L214.634,300L234.146,262.5L253.659,300L273.171,262.5L292.683,262.5L312.195,300L331.707,300L351.22,300L370.732,300L390.244,300L409.756,300L429.268,300L448.78,300L468.293,262.5L487.805,300L507.317,300L526.829,300L546.341,300L565.854,300L585.366,300L604.878,300L624.39,300L643.902,300L663.415,300L682.927,300L702.439,300L721.951,300L741.463,300L760.976,262.5L780.488,300L800,300L800,300L780.488,300L760.976,300L741.463,300L721.951,300L702.439,300L682.927,300L663.415,300L643.902,300L624.39,300L604.878,300L585.366,300L565.854,300L546.341,300L526.829,300L507.317,300L487.805,300L468.293,300L448.78,300L429.268,300L409.756,300L390.244,300L370.732,300L351.22,300L331.707,300L312.195,300L292.683,300L273.171,300L253.659,300L234.146,300L214.634,300L195.122,300L175.61,300L156.098,300L136.585,300L117.073,300L97.561,300L78.049,300L58.537,300L39.024,300L19.512,300L0,300Z" fill="#e45756"/></g></g><path class="foreground" aria-hidden="true" d="" display="none"/></g></g><g class="mark-group role-legend" role="graphics-symbol" aria-roledescription="legend" aria-label="Symbol legend titled 'Repository' for fill color with 43 values: justdavis-family/github-analytics-data, justdavis-family/justdavis, karlmdavis/FHIR-Server, karlmdavis/ansible, karlmdavis/ansible-jenkins, ending with karlmdavis/xmlpull"><g transform="translate(818,0)"><path class="background" aria-hidden="true" d="M0,0h176v404h-176Z" pointer-events="none"/><g><g class="mark-group role-legend-entry"><g transform="translate(0,16)"><path class="background" aria-hidden="true" d="M0,0h0v0h0Z" pointer-events="none"/><g><g class="mark-group role-scope" role="graphics-object" aria-roledescription="group mark container"><g transform="translate(0,0)"><path class="background" aria-hidden="true" d="M0,0h176v11h-176Z" pointer-events="none" opacity="1"/><g><g class="mark-symbol role-legend-symbol" pointer-events="none"><path transform="translate(6,6)" d="M5,0A5,5,0,1,1,-5,0A5,5,0,1,1,5,0" fill="#4c78a8" stroke-width="1.5" opacity="1"/></g><g class="mark-text role-legend-label" pointer-events="none"><text text-anchor="start" transform="translate(16,9)" font-family="sans-serif" font-size="10px" fill="#000" opacity="1">justdavis-family/github-analytics-d…</text></g></g><path class="foreground" aria-hidden="true" d="" pointer-events="none" display="none"/></g><g transform="translate(0,13)"><path class="background" aria-hidden="true" d="M0,0h176v11h-176Z" pointer-events="none" opacity="1"/><g><g class="mark-symbol role-legend-symbol" pointer-events="none"><path transform="translate(6,6)" d="M5,0A5,5,0,1,1,-5,0A5,5,0,1,1,5,0" fill="#f58518" stroke-width="1.5" opacity="1"/></g><g class="mark-text role-legend-label" pointer-events="none"><text text-anchor="start" transform="translate(16,9)" font-family="sans-serif" font-size="10px" fill="#000" opacity="1">justdavis-family/justdavis</text></g></g><path class="foreground" aria-hidden="true" d="" pointer-events="none" display="none"/></g><g transform="translate(0,26)"><path class="background" aria-hidden="true" d="M0,0h176v11h-176Z" pointer-events="none" opacity="1"/><g><g class="mark-symbol role-legend-symbol" pointer-events="none"><path transform="translate(6,6)" d="M5,0A5,5,0,1,1,-5,0A5,5,0,1,1,5,0" fill="#e45756" stroke-width="1.5" opacity="1"/></g><g class="mark-text role-legend-label" pointer-events="none"><text text-anchor="start" transform="translate(16,9)" font-family="sans-serif" font-size="10px" fill="#000" opacity="1">karlmdavis/FHIR-Server</text></g></g><path class="foreground" aria-hidden="true" d="" pointer-events="none" display="none"/></g><g transform="translate(0,39)"><path class="background" aria-hidden="true" d="M0,0h176v11h-176Z" pointer-events="none" opacity="1"/><g><g class="mark-symbol role-legend-symbol" pointer-events="none"><path transform="translate(6,6)" d="M5,0A5,5,0,1,1,-5,0A5,5,0,1,1,5,0" fill="#72b7b2" stroke-width="1.5" opacity="1"/></g><g class="mark-text role-legend-label" pointer-events="none"><text text-anchor="start" transform="translate(16,9)" font-family="sans-serif" font-size="10px" fill="#000" opacity="1">karlmdavis/ansible</text></g></g><path class="foreground" aria-hidden="true" d="" pointer-events="none" display="none"/></g><g transform="translate(0,52)"><path class="background" aria-hidden="true" d="M0,0h176v11h-176Z" pointer-events="none" opacity="1"/><g><g class="mark-symbol role-legend-symbol" pointer-events="none"><path transform="translate(6,6)" d="M5,0A5,5,0,1,1,-5,0A5,5,0,1,1,5,0" fill="#54a24b" stroke-width="1.5" opacity="1"/></g><g class="mark-text role-legend-label" pointer-events="none"><text text-anchor="start" transform="translate(16,9)" font-family="sans-serif" font-size="10px" fill="#000" opacity="1">karlmdavis/ansible-jenkins</text></g></g><path class="foreground" aria-hidden="true" d="" pointer-events="none" display="none"/></g><g transform="translate(0,65)"><path class="background" aria-hidden="true" d="M0,0h176v11h-176Z" pointer-events="none" opacity="1"/><g><g class="mark-symbol role-legend-symbol" pointer-events="none"><path transform="translate(6,6)" d="M5,0A5,5,0,1,1,-5,0A5,5,0,1,1,5,0" fill="#eeca3b" stroke-width="1.5" opacity="1"/></g><g class="mark-text role-legend-label" pointer-events="none"><text text-anchor="start" transform="translate(16,9)" font-family="sans-serif" font-size="10px" fill="#000" opacity="1">karlmdavis/ansible-role-acmetool</text></g></g><path class="foreground" aria-hidden="true" d="" pointer-events="none" display="none"/></g><g transform="translate(0,78)"><path class="background" aria-hidden="true" d="M0,0h176v11h-176Z" pointer-events="none" opacity="1"/><g><g class="mark-symbol role-legend-symbol" pointer-events="none"><path transform="translate(6,6)" d="M5,0A5,5,0,1,1,-5,0A5,5,0,1,1,5,0" fill="#b279a2" stroke-width="1.5" opacity="1"/></g><g class="mark-text role-legend-label" pointer-events="none"><text text-anchor="start" transform="translate(16,9)" font-family="sans-serif" font-size="10px" fill="#000" opacity="1">karlmdavis/ansible-role-bind-dns</text></g></g><path class="foreground" aria-hidden="true" d="" pointer-events="none" display="none"/></g><g transform="translate(0,91)"><path class="background" aria-hidden="true" d="M0,0h176v11h-176Z" pointer-events="none" opacity="1"/><g><g class="mark-symbol role-legend-symbol" pointer-events="none"><path transform="translate(6,6)" d="M5,0A5,5,0,1,1,-5,0A5,5,0,1,1,5,0" fill="#ff9da6" stroke-width="1.5" opacity="1"/></g><g class="mark-text role-legend-label" pointer-events="none"><text text-anchor="start" transform="translate(16,9)" font-family="sans-serif" font-size="10px" fill="#000" opacity="1">karlmdavis/ansible-role-jenkins2</text></g></g><path class="foreground" aria-hidden="true" d="" pointer-events="none" display="none"/></g><g transform="translate(0,104)"><path class="background" aria-hidden="true" d="M0,0h176v11h-176Z" pointer-events="none" opacity="1"/><g><g class="mark-symbol role-legend-symbol" pointer-events="none"><path transform="translate(6,6)" d="M5,0A5,5,0,1,1,-5,0A5,5,0,1,1,5,0" fill="#9d755d" stroke-width="1.5" opacity="1"/></g><g class="mark-text role-legend-label" pointer-events="none"><text text-anchor="start" transform="translate(16,9)" font-family="sans-serif" font-size="10px" fill="#000" opacity="1">karlmdavis/ansible-role-ldap</text></g></g><path class="foreground" aria-hidden="true" d="" pointer-events="none" display="none"/></g><g transform="translate(0,117)"><path class="background" aria-hidden="true" d="M0,0h176v11h-176Z" pointer-events="none" opacity="1"/><g><g class="mark-symbol role-legend-symbol" pointer-events="none"><path transform="translate(6,6)" d="M5,0A5,5,0,1,1,-5,0A5,5,0,1,1,5,0" fill="#bab0ac" stroke-width="1.5" opacity="1"/></g><g class="mark-text role-legend-label" pointer-events="none"><text text-anchor="start" transform="translate(16,9)" font-family="sans-serif" font-size="10px" fill="#000" opacity="1">karlmdavis/ansible-role-rcm-dotfiles</text></g></g><path class="foreground" aria-hidden="true" d="" pointer-events="none" display="none"/></g><g transform="translate(0,130)"><path class="background" aria-hidden="true" d="M0,0h176v11h-176Z" pointer-events="none" opacity="1"/><g><g class="mark-symbol role-legend-symbol" pointer-events="none"><path transform="translate(6,6)" d="M5,0A5,5,0,1,1,-5,0A5,5,0,1,1,5,0" fill="#4c78a8" stroke-width="1.5" opacity="1"/></g><g class="mark-text role-legend-label" pointer-events="none"><text text-anchor="start" transform="translate(16,9)" font-family="sans-serif" font-size="10px" fill="#000" opacity="1">karlmdavis/ansible-roles</text></g></g><path class="foreground" aria-hidden="true" d="" pointer-events="none" display="none"/></g><g transform="translate(0,143)"><path class="background" aria-hidden="true" d="M0,0h176v11h-176Z" pointer-events="none" opacity="1"/><g><g class="mark-symbol role-legend-symbol" pointer-events="none"><path transform="translate(6,6)" d="M5,0A5,5,0,1,1,-5,0A5,5,0,1,1,5,0" fill="#f58518" stroke-width="1.5" opacity="1"/></g><g class="mark-text role-legend-label" pointer-events="none"><text text-anchor="start" transform="translate(16,9)" font-family="sans-serif" font-size="10px" fill="#000" opacity="1">karlmdavis/bbonfhir-dev-infra-doc…</text></g></g><path class="foreground" aria-hidden="true" d="" pointer-events="none" display="none"/></g><g transform="translate(0,156)"><path class="background" aria-hidden="true" d="M0,0h176v11h-176Z" pointer-events="none" opacity="1"/><g><g class="mark-symbol role-legend-symbol" pointer-events="none"><path transform="translate(6,6)" d="M5,0A5,5,0,1,1,-5,0A5,5,0,1,1,5,0" fill="#e45756" stroke-width="1.5" opacity="1"/></g><g class="mark-text role-legend-label" pointer-events="none"><text text-anchor="start" transform="translate(16,9)" font-family="sans-serif" font-size="10px" fill="#000" opacity="1">karlmdavis/can-i-kayak-baltimore</text></g></g><path class="foreground" aria-hidden="true" d="" pointer-events="none" display="none"/></g><g transform="translate(0,169)"><path class="background" aria-hidden="true" d="M0,0h176v11h-176Z" pointer-events="none" opacity="1"/><g><g class="mark-symbol role-legend-symbol" pointer-events="none"><path transform="translate(6,6)" d="M5,0A5,5,0,1,1,-5,0A5,5,0,1,1,5,0" fill="#72b7b2" stroke-width="1.5" opacity="1"/></g><g class="mark-text role-legend-label" pointer-events="none"><text text-anchor="start" transform="translate(16,9)" font-family="sans-serif" font-size="10px" fill="#000" opacity="1">karlmdavis/datanucleus-test-jdo-1…</text></g></g><path class="foreground" aria-hidden="true" d="" pointer-events="none" display="none"/></g><g transform="translate(0,182)"><path class="background" aria-hidden="true" d="M0,0h176v11h-176Z" pointer-events="none" opacity="1"/><g><g class="mark-symbol role-legend-symbol" pointer-events="none"><path transform="translate(6,6)" d="M5,0A5,5,0,1,1,-5,0A5,5,0,1,1,5,0" fill="#54a24b" stroke-width="1.5" opacity="1"/></g><g class="mark-text role-legend-label" pointer-events="none"><text text-anchor="start" transform="translate(16,9)" font-family="sans-serif" font-size="10px" fill="#000" opacity="1">karlmdavis/dotfiles</text></g></g><path class="foreground" aria-hidden="true" d="" pointer-events="none" display="none"/></g><g transform="translate(0,195)"><path class="background" aria-hidden="true" d="M0,0h176v11h-176Z" pointer-events="none" opacity="1"/><g><g class="mark-symbol role-legend-symbol" pointer-events="none"><path transform="translate(6,6)" d="M5,0A5,5,0,1,1,-5,0A5,5,0,1,1,5,0" fill="#eeca3b" stroke-width="1.5" opacity="1"/></g><g class="mark-text role-legend-label" pointer-events="none"><text text-anchor="start" transform="translate(16,9)" font-family="sans-serif" font-size="10px" fill="#000" opacity="1">karlmdavis/fhir-benchmarks</text></g></g><path class="foreground" aria-hidden="true" d="" pointer-events="none" display="none"/></g><g transform="translate(0,208)"><path class="background" aria-hidden="true" d="M0,0h176v11h-176Z" pointer-events="none" opacity="1"/><g><g class="mark-symbol role-legend-symbol" pointer-events="none"><path transform="translate(6,6)" d="M5,0A5,5,0,1,1,-5,0A5,5,0,1,1,5,0" fill="#b279a2" stroke-width="1.5" opacity="1"/></g><g class="mark-text role-legend-label" pointer-events="none"><text text-anchor="start" transform="translate(16,9)" font-family="sans-serif" font-size="10px" fill="#000" opacity="1">karlmdavis/hapi-fhir-jpaserver-sta…</text></g></g><path class="foreground" aria-hidden="true" d="" pointer-events="none" display="none"/></g><g transform="translate(0,221)"><path class="background" aria-hidden="true" d="M0,0h176v11h-176Z" pointer-events="none" opacity="1"/><g><g class="mark-symbol role-legend-symbol" pointer-events="none"><path transform="translate(6,6)" d="M5,0A5,5,0,1,1,-5,0A5,5,0,1,1,5,0" fill="#ff9da6" stroke-width="1.5" opacity="1"/></g><g class="mark-text role-legend-label" pointer-events="none"><text text-anchor="start" transform="translate(16,9)" font-family="sans-serif" font-size="10px" fill="#000" opacity="1">karlmdavis/hello-rust-actix</text></g></g><path class="foreground" aria-hidden="true" d="" pointer-events="none" display="none"/></g><g transform="translate(0,234)"><path class="background" aria-hidden="true" d="M0,0h176v11h-176Z" pointer-events="none" opacity="1"/><g><g class="mark-symbol role-legend-symbol" pointer-events="none"><path transform="translate(6,6)" d="M5,0A5,5,0,1,1,-5,0A5,5,0,1,1,5,0" fill="#9d755d" stroke-width="1.5" opacity="1"/></g><g class="mark-text role-legend-label" pointer-events="none"><text text-anchor="start" transform="translate(16,9)" font-family="sans-serif" font-size="10px" fill="#000" opacity="1">karlmdavis/jessentials</text></g></g><path class="foreground" aria-hidden="true" d="" pointer-events="none" display="none"/></g><g transform="translate(0,247)"><path class="background" aria-hidden="true" d="M0,0h176v11h-176Z" pointer-events="none" opacity="1"/><g><g class="mark-symbol role-legend-symbol" pointer-events="none"><path transform="translate(6,6)" d="M5,0A5,5,0,1,1,-5,0A5,5,0,1,1,5,0" fill="#bab0ac" stroke-width="1.5" opacity="1"/></g><g class="mark-text role-legend-label" pointer-events="none"><text text-anchor="start" transform="translate(16,9)" font-family="sans-serif" font-size="10px" fill="#000" opacity="1">karlmdavis/justdavis-ansible</text></g></g><path class="foreground" aria-hidden="true" d="" pointer-events="none" display="none"/></g><g transform="translate(0,260)"><path class="background" aria-hidden="true" d="M0,0h176v11h-176Z" pointer-events="none" opacity="1"/><g><g class="mark-symbol role-legend-symbol" pointer-events="none"><path transform="translate(6,6)" d="M5,0A5,5,0,1,1,-5,0A5,5,0,1,1,5,0" fill="#4c78a8" stroke-width="1.5" opacity="1"/></g><g class="mark-text role-legend-label" pointer-events="none"><text text-anchor="start" transform="translate(16,9)" font-family="sans-serif" font-size="10px" fill="#000" opacity="1">karlmdavis/justdavis-finances</text></g></g><path class="foreground" aria-hidden="true" d="" pointer-events="none" display="none"/></g><g transform="translate(0,273)"><path class="background" aria-hidden="true" d="M0,0h176v11h-176Z" pointer-events="none" opacity="1"/><g><g class="mark-symbol role-legend-symbol" pointer-events="none"><path transform="translate(6,6)" d="M5,0A5,5,0,1,1,-5,0A5,5,0,1,1,5,0" fill="#f58518" stroke-width="1.5" opacity="1"/></g><g class="mark-text role-legend-label" pointer-events="none"><text text-anchor="start" transform="translate(16,9)" font-family="sans-serif" font-size="10px" fill="#000" opacity="1">karlmdavis/justdavis-karl</text></g></g><path class="foreground" aria-hidden="true" d="" pointer-events="none" display="none"/></g><g transform="translate(0,286)"><path class="background" aria-hidden="true" d="M0,0h176v11h-176Z" pointer-events="none" opacity="1"/><g><g class="mark-symbol role-legend-symbol" pointer-events="none"><path transform="translate(6,6)" d="M5,0A5,5,0,1,1,-5,0A5,5,0,1,1,5,0" fill="#e45756" stroke-width="1.5" opacity="1"/></g><g class="mark-text role-legend-label" pointer-events="none"><text text-anchor="start" transform="translate(16,9)" font-family="sans-serif" font-size="10px" fill="#000" opacity="1">karlmdavis/justdavis-puppet</text></g></g><path class="foreground" aria-hidden="true" d="" pointer-events="none" display="none"/></g><g transform="translate(0,299)"><path class="background" aria-hidden="true" d="M0,0h176v11h-176Z" pointer-events="none" opacity="1"/><g><g class="mark-symbol role-legend-symbol" pointer-events="none"><path transform="translate(6,6)" d="M5,0A5,5,0,1,1,-5,0A5,5,0,1,1,5,0" fill="#72b7b2" stroke-width="1.5" opacity="1"/></g><g class="mark-text role-legend-label" pointer-events="none"><text text-anchor="start" transform="translate(16,9)" font-family="sans-serif" font-size="10px" fill="#000" opacity="1">karlmdavis/kobjects</text></g></g><path class="foreground" aria-hidden="true" d="" pointer-events="none" display="none"/></g><g transform="translate(0,312)"><path class="background" aria-hidden="true" d="M0,0h176v11h-176Z" pointer-events="none" opacity="1"/><g><g class="mark-symbol role-legend-symbol" pointer-events="none"><path transform="translate(6,6)" d="M5,0A5,5,0,1,1,-5,0A5,5,0,1,1,5,0" fill="#54a24b" stroke-width="1.5" opacity="1"/></g><g class="mark-text role-legend-label" pointer-events="none"><text text-anchor="start" transform="translate(16,9)" font-family="sans-serif" font-size="10px" fill="#000" opacity="1">karlmdavis/ksoap2-android</text></g></g><path class="foreground" aria-hidden="true" d="" pointer-events="none" display="none"/></g><g transform="translate(0,325)"><path class="background" aria-hidden="true" d="M0,0h176v11h-176Z" pointer-events="none" opacity="1"/><g><g class="mark-symbol role-legend-symbol" pointer-events="none"><path transform="translate(6,6)" d="M5,0A5,5,0,1,1,-5,0A5,5,0,1,1,5,0" fill="#eeca3b" stroke-width="1.5" opacity="1"/></g><g class="mark-text role-legend-label" pointer-events="none"><text text-anchor="start" transform="translate(16,9)" font-family="sans-serif" font-size="10px" fill="#000" opacity="1">karlmdavis/kxml2</text></g></g><path class="foreground" aria-hidden="true" d="" pointer-events="none" display="none"/></g><g transform="translate(0,338)"><path class="background" aria-hidden="true" d="M0,0h176v11h-176Z" pointer-events="none" opacity="1"/><g><g class="mark-symbol role-legend-symbol" pointer-events="none"><path transform="translate(6,6)" d="M5,0A5,5,0,1,1,-5,0A5,5,0,1,1,5,0" fill="#b279a2" stroke-width="1.5" opacity="1"/></g><g class="mark-text role-legend-label" pointer-events="none"><text text-anchor="start" transform="translate(16,9)" font-family="sans-serif" font-size="10px" fill="#000" opacity="1">karlmdavis/ldap-plugin</text></g></g><path class="foreground" aria-hidden="true" d="" pointer-events="none" display="none"/></g><g transform="translate(0,351)"><path class="background" aria-hidden="true" d="M0,0h176v11h-176Z" pointer-events="none" opacity="1"/><g><g class="mark-symbol role-legend-symbol" pointer-events="none"><path transform="translate(6,6)" d="M5,0A5,5,0,1,1,-5,0A5,5,0,1,1,5,0" fill="#ff9da6" stroke-width="1.5" opacity="1"/></g><g class="mark-text role-legend-label" pointer-events="none"><text text-anchor="start" transform="translate(16,9)" font-family="sans-serif" font-size="10px" fill="#000" opacity="1">karlmdavis/lego-ev3dev-rs</text></g></g><path class="foreground" aria-hidden="true" d="" pointer-events="none" display="none"/></g><g transform="translate(0,364)"><path class="background" aria-hidden="true" d="M0,0h176v11h-176Z" pointer-events="none" opacity="1"/><g><g class="mark-symbol role-legend-symbol" pointer-events="none"><path transform="translate(6,6)" d="M5,0A5,5,0,1,1,-5,0A5,5,0,1,1,5,0" fill="#9d755d" stroke-width="1.5" opacity="1"/></g><g class="mark-text role-legend-label" pointer-events="none"><text text-anchor="start" transform="translate(16,9)" font-family="sans-serif" font-size="10px" fill="#000" opacity="1">karlmdavis/liquibase</text></g></g><path class="foreground" aria-hidden="true" d="" pointer-events="none" display="none"/></g><g transform="translate(0,377)"><path class="background" aria-hidden="true" d="M0,0h176v11h-176Z" pointer-events="none" opacity="1"/><g><g class="mark-symbol role-legend-symbol" pointer-events="none"><path transform="translate(6,6)" d="M5,0A5,5,0,1,1,-5,0A5,5,0,1,1,5,0" fill="#bab0ac" stroke-width="1.5" opacity="1"/></g><g class="mark-text role-legend-label" pointer-events="none"><text text-anchor="start" transform="translate(16,9)" font-family="sans-serif" font-size="10px" fill="#000" opacity="1">…14 entries</text></g></g><path class="foreground" aria-hidden="true" d="" pointer-events="none" display="none"/></g></g></g><path class="foreground" aria-hidden="true" d="" pointer-events="none" display="none"/></g></g><g class="mark-text role-legend-title" pointer-events="none"><text text-anchor="start" transform="translate(0,9)" font-family="sans-serif" font-size="11px" font-weight="bold" fill="#000" opacity="1">Repository</text></g></g><path class="foreground" aria-hidden="true" d="" pointer-events="none" display="none"/></g></g><g class="mark-group role-title"><g transform="translate(400,-22)"><path class="background" aria-hidden="true" d="M0,0h0v0h0Z" pointer-events="none"/><g><g class="mark-text role-title-text" role="graphics-symbol" aria-roledescription="title" aria-label="Title text 'Unique Visitors per Day'" pointer-events="none"><text text-anchor="middle" transform="translate(0,10)" font-family="sans-serif" font-size="13px" font-weight="bold" fill="#000" opacity="1">Unique Visitors per Day</text></g></g><path class="foreground" aria-hidden="true" d="" pointer-events="none" display="none"/></g></g></g><path class="foreground" aria-hidden="true" d="" display="none"/></g></g></g></svg>