<svg xmlns="http://www.w3.org/2000/svg" xmlns:xlink="http://www.w3.org/1999/xlink" version="1.1" class="marks" width="1043" height="436" viewBox="0 0 1043 436"><rect width="1043" height="436" fill="white"/><g fill="none" stroke-miterlimit="10" transform="translate(44,27)"><g class="mark-group role-frame root" role="graphics-object" aria-roledescription="group mark container"><g transform="translate(0,0)"><path class="background" aria-hidden="true" d="M0.5,0.5h800v300h-800Z" stroke="#ddd"/><g><g class="mark-group role-axis" aria-hidden="true"><g transform="translate(0.5,300.5)"><path class="background" aria-hidden="true" d="M0,0h0v0h0Z" pointer-events="none"/><g><g class="mark-rule role-axis-grid" pointer-events="none"><line transform="translate(0,-300)" x2="0" y2="300" stroke="#ddd" stroke-width="1" opacity="1"/><line transform="translate(35,-300)" x2="0" y2="300" stroke="#ddd" stroke-width="1" opacity="1"/><line transform="translate(70,-300)" x2="0" y2="300" stroke="#ddd" stroke-width="1" opacity="1"/><line transform="translate(104,-300)" x2="0" y2="300" stroke="#ddd" stroke-width="1" opacity="1"/><line transform="translate(139,-300)" x2="0" y2="300" stroke="#ddd" stroke-width="1" opacity="1"/><line transform="translate(174,-300)" x2="0" y2="300" stroke="#ddd" stroke-width="1" opacity="1"/><line transform="translate(209,-300)" x2="0" y2="300" stroke="#ddd" stroke-width="1" opacity="1"/><line transform="translate(243,-300)" x2="0" y2="300" stroke="#ddd" stroke-width="1" opacity="1"/><line transform="translate(278,-300)" x2="0" y2="300" stroke="#ddd" stroke-width="1" opacity="1"/><line transform="translate(313,-300)" x2="0" y2="300" stroke="#ddd" stroke-width="1" opacity="1"/><line transform="translate(348,-300)" x2="0" y2="300" stroke="#ddd" stroke-width="1" opacity="1"/><line transform="translate(383,-300)" x2="0" y2="300" stroke="#ddd" stroke-width="1" opacity="1"/><line transform="translate(417,-300)" x2="0" y2="300" stroke="#ddd" stroke-width="1" opacity="1"/><line transform="translate(452,-300)" x2="0" y2="300" stroke="#ddd" stroke-width="1" opacity="1"/><line transform="translate(487,-300)" x2="0" y2="300" stroke="#ddd" stroke-width="1" opacity="1"/><line transform="translate(522,-300)" x2="0" y2="300" stroke="#ddd" stroke-width="1" opacity="1"/><line transform="translate(557,-300)" x2="0" y2="300" stroke="#ddd" stroke-width="1" opacity="1"/><line transform="translate(591,-300)" x2="0" y2="300" stroke="#ddd" stroke-width="1" opacity="1"/><line transform="translate(626,-300)" x2="0" y2="300" stroke="#ddd" stroke-width="1" opacity="1"/><line transform="translate(661,-300)" x2="0" y2="300" stroke="#ddd" stroke-width="1" opacity="1"/><line transform="translate(696,-300)" x2="0" y2="300" stroke="#ddd" stroke-width="1" opacity="1"/><line transform="translate(730,-300)" x2="0" y2="300" stroke="#ddd" stroke-width="1" opacity="1"/><line transform="translate(765,-300)" x2="0" y2="300" stroke="#ddd" stroke-width="1" opacity="1"/><line transform="translate(800,-300)" x2="0" y2="300" stroke="#ddd" stroke-width="1" opacity="1"/></g></g><path class="foreground" aria-hidden="true" d="" pointer-events="none" display="none"/></g></g><g class="mark-group role-axis" aria-hidden="true"><g transform="translate(0.5,0.5)"><path class="background" aria-hidden="true" d="M0,0h0v0h0Z" pointer-events="none"/><g><g class="mark-rule role-axis-grid" pointer-events="none"><line transform="translate(0,300)" x2="800" y2="0" stroke="#ddd" stroke-width="1" opacity="1"/><line transform="translate(0,267)" x2="800" y2="0" stroke="#ddd" stroke-width="1" opacity="1"/><line transform="translate(0,233)" x2="800" y2="0" stroke="#ddd" stroke-width="1" opacity="1"/><line transform="translate(0,200)" x2="800" y2="0" stroke="#ddd" stroke-width="1" opacity="1"/><line transform="translate(0,167)" x2="800" y2="0" stroke="#ddd" stroke-width="1" opacity="1"/><line transform="translate(0,133)" x2="800" y2="0" stroke="#ddd" stroke-width="1" opacity="1"/><line transform="translate(0,100)" x2="800" y2="0" stroke="#ddd" stroke-width="1" opacity="1"/><line transform="translate(0,67)" x2="800" y2="0" stroke="#ddd" stroke-width="1" opacity="1"/><line transform="translate(0,33)" x2="800" y2="0" stroke="#ddd" stroke-width="1" opacity="1"/><line transform="translate(0,0)" x2="800" y2="0" stroke="#ddd" stroke-width="1" opacity="1"/></g></g><path class="foreground" aria-hidden="true" d="" pointer-events="none" display="none"/></g></g><g class="mark-group role-axis" role="graphics-symbol" aria-roledescription="axis" aria-label="X-axis titled 'Date' for a time scale with values from Monday, 16 March 2026, 12:00:00 AM to Wednesday, 08 April 2026, 12:00:00 AM"><g transform="translate(0.5,300.5)"><path class="background" aria-hidden="true" d="M0,0h0v0h0Z" pointer-events="none"/><g><g class="mark-rule role-axis-tick" pointer-events="none"><line transform="translate(0,0)" x2="0" y2="5" stroke="#888" stroke-width="1" opacity="1"/><line transform="translate(35,0)" x2="0" y2="5" stroke="#888" stroke-width="1" opacity="1"/><line transform="translate(70,0)" x2="0" y2="5" stroke="#888" stroke-width="1" opacity="1"/><line transform="translate(104,0)" x2="0" y2="5" stroke="#888" stroke-width="1" opacity="1"/><line transform="translate(139,0)" x2="0" y2="5" stroke="#888" stroke-width="1" opacity="1"/><line transform="translate(174,0)" x2="0" y2="5" stroke="#888" stroke-width="1" opacity="1"/><line transform="translate(209,0)" x2="0" y2="5" stroke="#888" stroke-width="1" opacity="1"/><line transform="translate(243,0)" x2="0" y2="5" stroke="#888" stroke-width="1" opacity="1"/><line transform="translate(278,0)" x2="0" y2="5" stroke="#888" stroke-width="1" opacity="1"/><line transform="translate(313,0)" x2="0" y2="5" stroke="#888" stroke-width="1" opacity="1"/><line transform="translate(348,0)" x2="0" y2="5" stroke="#888" stroke-width="1" opacity="1"/><line transform="translate(383,0)" x2="0" y2="5" stroke="#888" stroke-width="1" opacity="1"/><line transform="translate(417,0)" x2="0" y2="5" stroke="#888" stroke-width="1" opacity="1"/><line transform="translate(452,0)" x2="0" y2="5" stroke="#888" stroke-width="1" opacity="1"/><line transform="translate(487,0)" x2="0" y2="5" stroke="#888" stroke-width="1" opacity="1"/><line transform="translate(522,0)" x2="0" y2="5" stroke="#888" stroke-width="1" opacity="1"/><line transform="translate(557,0)" x2="0" y2="5" stroke="#888" stroke-width="1" opacity="1"/><line transform="translate(591,0)" x2="0" y2="5" stroke="#888" stroke-width="1" opacity="1"/><line transform="translate(626,0)" x2="0" y2="5" stroke="#888" stroke-width="1" opacity="1"/><line transform="translate(661,0)" x2="0" y2="5" stroke="#888" stroke-width="1" opacity="1"/><line transform="translate(696,0)" x2="0" y2="5" stroke="#888" stroke-width="1" opacity="1"/><line transform="translate(730,0)" x2="0" y2="5" stroke="#888" stroke-width="1" opacity="1"/><line transform="translate(765,0)" x2="0" y2="5" stroke="#888" stroke-width="1" opacity="1"/><line transform="translate(800,0)" x2="0" y2="5" stroke="#888" stroke-width="1" opacity="1"/></g><g class="mark-text role-axis-label" pointer-events="none"><text text-anchor="start" transform="translate(0,15)" font-family="sans-serif" font-size="10px" fill="#000" opacity="1">Mon 16</text><text text-anchor="middle" transform="translate(34.78260869565217,15)" font-family="sans-serif" font-size="10px" fill="#000" opacity="0">Tue 17</text><text text-anchor="middle" transform="translate(69.56521739130434,15)" font-family="sans-serif" font-size="10px" fill="#000" opacity="1">Wed 18</text><text text-anchor="middle" transform="translate(104.34782608695652,15)" font-family="sans-serif" font-size="10px" fill="#000" opacity="0">Thu 19</text><text text-anchor="middle" transform="translate(139.1304347826087,15)" font-family="sans-serif" font-size="10px" fill="#000" opacity="1">Fri 20</text><text text-anchor="middle" transform="translate(173.91304347826087,15)" font-family="sans-serif" font-size="10px" fill="#000" opacity="0">Sat 21</text><text text-anchor="middle" transform="translate(208.69565217391303,15)" font-family="sans-serif" font-size="10px" fill="#000" opacity="1">Mar 22</text><text text-anchor="middle" transform="translate(243.47826086956525,15)" font-family="sans-serif" font-size="10px" fill="#000" opacity="0">Mon 23</text><text text-anchor="middle" transform="translate(278.2608695652174,15)" font-family="sans-serif" font-size="10px" fill="#000" opacity="1">Tue 24</text><text text-anchor="middle" transform="translate(313.04347826086956,15)" font-family="sans-serif" font-size="10px" fill="#000" opacity="0">Wed 25</text><text text-anchor="middle" transform="translate(347.82608695652175,15)" font-family="sans-serif" font-size="10px" fill="#000" opacity="1">Thu 26</text><text text-anchor="middle" transform="translate(382.60869565217394,15)" font-family="sans-serif" font-size="10px" fill="#000" opacity="0">Fri 27</text><text text-anchor="middle" transform="translate(417.39130434782606,15)" font-family="sans-serif" font-size="10px" fill="#000" opacity="1">Sat 28</text><text text-anchor="middle" transform="translate(452.17391304347825,15)" font-family="sans-serif" font-size="10px" fill="#000" opacity="0">Mar 29</text><text text-anchor="middle" transform="translate(486.9565217391305,15)" font-family="sans-serif" font-size="10px" fill="#000" opacity="1">Mon 30</text><text text-anchor="middle" transform="translate(521.7391304347826,15)" font-family="sans-serif" font-size="10px" fill="#000" opacity="0">Tue 31</text><text text-anchor="middle" transform="translate(556.5217391304348,15)" font-family="sans-serif" font-size="10px" fill="#000" opacity="1">April</text><text text-anchor="middle" transform="translate(591.3043478260869,15)" font-family="sans-serif" font-size="10px" fill="#000" opacity="0">Thu 02</text><text text-anchor="middle" transform="translate(626.0869565217391,15)" font-family="sans-serif" font-size="10px" fill="#000" opacity="1">Fri 03</text><text text-anchor="middle" transform="translate(660.8695652173913,15)" font-family="sans-serif" font-size="10px" fill="#000" opacity="0">Sat 04</text><text text-anchor="middle" transform="translate(695.6521739130435,15)" font-family="sans-serif" font-size="10px" fill="#000" opacity="1">Apr 05</text><text text-anchor="middle" transform="translate(730.4347826086956,15)" font-family="sans-serif" font-size="10px" fill="#000" opacity="0">Mon 06</text><text text-anchor="middle" transform="translate(765.2173913043479,15)" font-family="sans-serif" font-size="10px" fill="#000" opacity="1">Tue 07</text><text text-anchor="end" transform="translate(800,15)" font-family="sans-serif" font-size="10px" fill="#000" opacity="0">Wed 08</text></g><g class="mark-rule role-axis-domain" pointer-events="none"><line transform="translate(0,0)" x2="800" y2="0" stroke="#888" stroke-width="1" opacity="1"/></g><g class="mark-text role-axis-title" pointer-events="none"><text text-anchor="middle" transform="translate(400,30)" font-family="sans-serif" font-size="11px" font-weight="bold" fill="#000" opacity="1">Date</text></g></g><path class="foreground" aria-hidden="true" d="" pointer-events="none" display="none"/></g></g><g class="mark-group role-axis" role="graphics-symbol" aria-roledescription="axis" aria-label="Y-axis titled 'Unique Clones/day' for a linear scale with values from 0 to 180"><g transform="translate(0.5,0.5)"><path class="background" aria-hidden="true" d="M0,0h0v0h0Z" pointer-events="none"/><g><g class="mark-rule role-axis-tick" pointer-events="none"><line transform="translate(0,300)" x2="-5" y2="0" stroke="#888" stroke-width="1" opacity="1"/><line transform="translate(0,267)" x2="-5" y2="0" stroke="#888" stroke-width="1" opacity="1"/><line transform="translate(0,233)" x2="-5" y2="0" stroke="#888" stroke-width="1" opacity="1"/><line transform="translate(0,200)" x2="-5" y2="0" stroke="#888" stroke-width="1" opacity="1"/><line transform="translate(0,167)" x2="-5" y2="0" stroke="#888" stroke-width="1" opacity="1"/><line transform="translate(0,133)" x2="-5" y2="0" stroke="#888" stroke-width="1" opacity="1"/><line transform="translate(0,100)" x2="-5" y2="0" stroke="#888" stroke-width="1" opacity="1"/><line transform="translate(0,67)" x2="-5" y2="0" stroke="#888" stroke-width="1" opacity="1"/><line transform="translate(0,33)" x2="-5" y2="0" stroke="#888" stroke-width="1" opacity="1"/><line transform="translate(0,0)" x2="-5" y2="0" stroke="#888" stroke-width="1" opacity="1"/></g><g class="mark-text role-axis-label" pointer-events="none"><text text-anchor="end" transform="translate(-7,303)" font-family="sans-serif" font-size="10px" fill="#000" opacity="1">0</text><text text-anchor="end" transform="translate(-7,269.66666666666663)" font-family="sans-serif" font-size="10px" fill="#000" opacity="1">20</text><text text-anchor="end" transform="translate(-7,236.33333333333334)" font-family="sans-serif" font-size="10px" fill="#000" opacity="1">40</text><text text-anchor="end" transform="translate(-7,203.00000000000003)" font-family="sans-serif" font-size="10px" fill="#000" opacity="1">60</text><text text-anchor="end" transform="translate(-7,169.66666666666669)" font-family="sans-serif" font-size="10px" fill="#000" opacity="1">80</text><text text-anchor="end" transform="translate(-7,136.33333333333331)" font-family="sans-serif" font-size="10px" fill="#000" opacity="1">100</text><text text-anchor="end" transform="translate(-7,103.00000000000001)" font-family="sans-serif" font-size="10px" fill="#000" opacity="1">120</text><text text-anchor="end" transform="translate(-7,69.66666666666666)" font-family="sans-serif" font-size="10px" fill="#000" opacity="1">140</text><text text-anchor="end" transform="translate(-7,36.33333333333335)" font-family="sans-serif" font-size="10px" fill="#000" opacity="1">160</text><text text-anchor="end" transform="translate(-7,3)" font-family="sans-serif" font-size="10px" fill="#000" opacity="1">180</text></g><g class="mark-rule role-axis-domain" pointer-events="none"><line transform="translate(0,300)" x2="0" y2="-300" stroke="#888" stroke-width="1" opacity="1"/></g><g class="mark-text role-axis-title" pointer-events="none"><text text-anchor="middle" transform="translate(-27.6845703125,150) rotate(-90) translate(0,-2)" font-family="sans-serif" font-size="11px" font-weight="bold" fill="#000" opacity="1">Unique Clones/day</text></g></g><path class="foreground" aria-hidden="true" d="" pointer-events="none" display="none"/></g></g><g class="mark-group role-scope pathgroup" role="graphics-object" aria-roledescription="group mark container"><g transform="translate(0,0)"><path class="background" aria-hidden="true" d="M0,0h800v300h-800Z"/><g><g class="mark-area role-mark marks" role="graphics-object" aria-roledescription="area mark container"><path aria-label="Date: Mar 16, 2026; Unique Clones/day: 0; Repository: justdavis-family/github-analytics-data" role="graphics-symbol" aria-roledescription="area mark" d="M0,298.333L34.783,300L69.565,300L104.348,298.333L139.13,300L173.913,300L208.696,300L243.478,278.333L278.261,296.667L313.043,288.333L347.826,273.333L382.609,185L417.391,223.333L452.174,140L486.957,245L521.739,261.667L556.522,268.333L591.304,283.333L626.087,250L660.87,23.333L695.652,115L730.435,248.333L765.217,251.667L800,300L800,300L765.217,251.667L730.435,248.333L695.652,115L660.87,23.333L626.087,250L591.304,283.333L556.522,268.333L521.739,261.667L486.957,245L452.174,140L417.391,223.333L382.609,185L347.826,273.333L313.043,288.333L278.261,296.667L243.478,278.333L208.696,300L173.913,300L139.13,300L104.348,298.333L69.565,300L34.783,300L0,298.333Z" fill="#4c78a8"/></g></g><path class="foreground" aria-hidden="true" d="" display="none"/></g><g transform="translate(0,0)"><path class="background" aria-hidden="true" d="M0,0h800v300h-800Z"/><g><g class="mark-area role-mark marks" role="graphics-object" aria-roledescription="area mark container"><path aria-label="Date: Mar 16, 2026; Unique Clones/day: 0; Repository: justdavis-family/justdavis" role="graphics-symbol" aria-roledescription="area mark" d="M0,298.333L34.783,300L69.565,300L104.348,298.333L139.13,300L173.913,300L208.696,300L243.478,278.333L278.261,296.667L313.043,288.333L347.826,273.333L382.609,185L417.391,223.333L452.174,140L486.957,245L521.739,261.667L556.522,268.333L591.304,283.333L626.087,250L660.87,23.333L695.652,115L730.435,248.333L765.217,251.667L800,300L800,300L765.217,251.667L730.435,278.333L695.652,165L660.87,153.333L626.087,251.667L591.304,283.333L556.522,270L521.739,261.667L486.957,245L452.174,140L417.391,223.333L382.609,185L347.826,273.333L313.043,288.333L278.261,296.667L243.478,280L208.696,300L173.913,300L139.13,300L104.348,298.333L69.565,300L34.783,300L0,298.333Z" fill="#f58518"/></g></g><path class="foreground" aria-hidden="true" d="" display="none"/></g><g transform="translate(0,0)"><path class="background" aria-hidden="true" d="M0,0h800v300h-800Z"/><g><g class="mark-area role-mark marks" role="graphics-object" aria-roledescription="area mark container"><path aria-label="Date: Mar 16, 2026; Unique Clones/day: 0; Repository: karlmdavis/FHIR-Server" role="graphics-symbol" aria-roledescription="area mark" d="M0,298.333L34.783,300L69.565,300L104.348,298.333L139.13,300L173.913,300L208.696,300L243.478,280L278.261,296.667L313.043,288.333L347.826,273.333L382.609,185L417.391,223.333L452.174,140L486.957,245L521.739,261.667L556.522,270L591.304,283.333L626.087,251.667L660.87,153.333L695.652,165L730.435,278.333L765.217,251.667L800,300L800,300L765.217,251.667L730.435,278.333L695.652,165L660.87,153.333L626.087,251.667L591.304,283.333L556.522,270L521.739,263.333L486.957,245L452.174,140L417.391,223.333L382.609,185L347.826,273.333L313.043,288.333L278.261,296.667L243.478,280L208.696,300L173.913,300L139.13,300L104.348,298.333L69.565,300L34.783,300L0,298.333Z" fill="#e45756"/></g></g><path class="foreground" aria-hidden="true" d="" display="none"/></g><g transform="translate(0,0)"><path class="background" aria-hidden="true" d="M0,0h800v300h-800Z"/><g><g class="mark-area role-mark marks" role="graphics-object" aria-roledescription="area mark container"><path aria-label="Date: Mar 16, 2026; Unique Clones/day: 1; Repository: karlmdavis/ansible" role="graphics-symbol" aria-roledescription="area mark" d="M0,298.333L34.783,300L69.565,300L104.348,298.333L139.13,300L173.913,300L208.696,300L243.478,280L278.261,296.667L313.043,288.333L347.826,273.333L382.609,185L417.391,223.333L452.174,140L486.957,245L521.739,263.333L556.522,270L591.304,283.333L626.087,251.667L660.87,153.333L695.652,165L730.435,278.333L765.217,251.667L800,300L800,300L765.217,251.667L730.435,278.333L695.652,165L660.87,153.333L626.087,251.667L591.304,283.333L556.522,270L521.739,263.333L486.957,245L452.174,140L417.391,223.333L382.609,185L347.826,273.333L313.043,288.333L278.261,296.667L243.478,280L208.696,300L173.913,300L139.13,300L104.348,298.333L69.565,300L34.783,300L0,300Z" fill="#72b7b2"/></g></g><path class="foreground" aria-hidden="true" d="" display="none"/></g><g transform="translate(0,0)"><path class="background" aria-hidden="true" d="M0,0h800v300h-800Z"/><g><g class="mark-area role-mark marks" role="graphics-object" aria-roledescription="area mark container"><path aria-label="Date: Mar 16, 2026; Unique Clones/day: 0; Repository: karlmdavis/ansible-jenkins" role="graphics-symbol" aria-roledescription="area mark" d="M0,300L34.783,300L69.565,300L104.348,298.333L139.13,300L173.913,300L208.696,300L243.478,280L278.261,296.667L313.043,288.333L347.826,273.333L382.609,185L417.391,223.333L452.174,140L486.957,245L521.739,263.333L556.522,270L591.304,283.333L626.087,251.667L660.87,153.333L695.652,165L730.435,278.333L765.217,251.667L800,300L800,300L765.217,251.667L730.435,278.333L695.652,165L660.87,155L626.087,253.333L591.304,283.333L556.522,270L521.739,263.333L486.957,245L452.174,140L417.391,223.333L382.609,185L347.826,275L313.043,288.333L278.261,296.667L243.478,280L208.696,300L173.913,300L139.13,300L104.348,298.333L69.565,300L34.783,300L0,300Z" fill="#54a24b"/></g></g><path class="foreground" aria-hidden="true" d="" display="none"/></g><g transform="translate(0,0)"><path class="background" aria-hidden="true" d="M0,0h800v300h-800Z"/><g><g class="mark-area role-mark marks" role="graphics-object" aria-roledescription="area mark container"><path aria-label="Date: Mar 16, 2026; Unique Clones/day: 0; Repository: karlmdavis/ansible-role-acmetool" role="graphics-symbol" aria-roledescription="area mark" d="M0,300L34.783,300L69.565,300L104.348,298.333L139.13,300L173.913,300L208.696,300L243.478,280L278.261,296.667L313.043,288.333L347.826,275L382.609,185L417.391,223.333L452.174,140L486.957,245L521.739,263.333L556.522,270L591.304,283.333L626.087,253.333L660.87,155L695.652,165L730.435,278.333L765.217,251.667L800,300L800,300L765.217,251.667L730.435,278.333L695.652,165L660.87,155L626.087,253.333L591.304,283.333L556.522,270L521.739,263.333L486.957,245L452.174,140L417.391,223.333L382.609,185L347.826,276.667L313.043,288.333L278.261,296.667L243.478,280L208.696,300L173.913,300L139.13,300L104.348,298.333L69.565,300L34.783,300L0,300Z" fill="#eeca3b"/></g></g><path class="foreground" aria-hidden="true" d="" display="none"/></g><g transform="translate(0,0)"><path class="background" aria-hidden="true" d="M0,0h800v300h-800Z"/><g><g class="mark-area role-mark marks" role="graphics-object" aria-roledescription="area mark container"><path aria-label="Date: Mar 16, 2026; Unique Clones/day: 0; Repository: karlmdavis/ansible-role-bind-dns" role="graphics-symbol" aria-roledescription="area mark" d="M0,300L34.783,300L69.565,300L104.348,298.333L139.13,300L173.913,300L208.696,300L243.478,280L278.261,296.667L313.043,288.333L347.826,276.667L382.609,185L417.391,223.333L452.174,140L486.957,245L521.739,263.333L556.522,270L591.304,283.333L626.087,253.333L660.87,155L695.652,165L730.435,278.333L765.217,251.667L800,300L800,300L765.217,251.667L730.435,278.333L695.652,165L660.87,156.667L626.087,253.333L591.304,283.333L556.522,275L521.739,263.333L486.957,246.667L452.174,141.667L417.391,223.333L382.609,188.333L347.826,276.667L313.043,288.333L278.261,296.667L243.478,280L208.696,300L173.913,300L139.13,300L104.348,298.333L69.565,300L34.783,300L0,300Z" fill="#b279a2"/></g></g><path class="foreground" aria-hidden="true" d="" display="none"/></g><g transform="translate(0,0)"><path class="background" aria-hidden="true" d="M0,0h800v300h-800Z"/><g><g class="mark-area role-mark marks" role="graphics-object" aria-roledescription="area mark container"><path aria-label="Date: Mar 16, 2026; Unique Clones/day: 0; Repository: karlmdavis/ansible-role-jenkins2" role="graphics-symbol" aria-roledescription="area mark" d="M0,300L34.783,300L69.565,300L104.348,298.333L139.13,300L173.913,300L208.696,300L243.478,280L278.261,296.667L313.043,288.333L347.826,276.667L382.609,188.333L417.391,223.333L452.174,141.667L486.957,246.667L521.739,263.333L556.522,275L591.304,283.333L626.087,253.333L660.87,156.667L695.652,165L730.435,278.333L765.217,251.667L800,300L800,300L765.217,251.667L730.435,278.333L695.652,166.667L660.87,160L626.087,255L591.304,285L556.522,276.667L521.739,265L486.957,246.667L452.174,141.667L417.391,225L382.609,190L347.826,278.333L313.043,290L278.261,298.333L243.478,280L208.696,300L173.913,300L139.13,300L104.348,298.333L69.565,300L34.783,300L0,300Z" fill="#ff9da6"/></g></g><path class="foreground" aria-hidden="true" d="" display="none"/></g><g transform="translate(0,0)"><path class="background" aria-hidden="true" d="M0,0h800v300h-800Z"/><g><g class="mark-area role-mark marks" role="graphics-object" aria-roledescription="area mark container"><path aria-label="Date: Mar 16, 2026; Unique Clones/day: 0; Repository: karlmdavis/ansible-role-ldap" role="graphics-symbol" aria-roledescription="area mark" d="M0,300L34.783,300L69.565,300L104.348,298.333L139.13,300L173.913,300L208.696,300L243.478,280L278.261,298.333L313.043,290L347.826,278.333L382.609,190L417.391,225L452.174,141.667L486.957,246.667L521.739,265L556.522,276.667L591.304,285L626.087,255L660.87,160L695.652,166.667L730.435,278.333L765.217,251.667L800,300L800,300L765.217,251.667L730.435,278.333L695.652,166.667L660.87,160L626.087,255L591.304,285L556.522,276.667L521.739,266.667L486.957,246.667L452.174,141.667L417.391,225L382.609,190L347.826,278.333L313.043,290L278.261,298.333L243.478,280L208.696,300L173.913,300L139.13,300L104.348,298.333L69.565,300L34.783,300L0,300Z" fill="#9d755d"/></g></g><path class="foreground" aria-hidden="true" d="" display="none"/></g><g transform="translate(0,0)"><path class="background" aria-hidden="true" d="M0,0h800v300h-800Z"/><g><g class="mark-area role-mark marks" role="graphics-object" aria-roledescription="area mark container"><path aria-label="Date: Mar 16, 2026; Unique Clones/day: 0; Repository: karlmdavis/ansible-role-rcm-dotfiles" role="graphics-symbol" aria-roledescription="area mark" d="M0,300L34.783,300L69.565,300L104.348,298.333L139.13,300L173.913,300L208.696,300L243.478,280L278.261,298.333L313.043,290L347.826,278.333L382.609,190L417.391,225L452.174,141.667L486.957,246.667L521.739,266.667L556.522,276.667L591.304,285L626.087,255L660.87,160L695.652,166.667L730.435,278.333L765.217,251.667L800,300L800,300L765.217,251.667L730.435,278.333L695.652,166.667L660.87,161.667L626.087,255L591.304,285L556.522,276.667L521.739,266.667L486.957,248.333L452.174,143.333L417.391,225L382.609,193.333L347.826,278.333L313.043,290L278.261,298.333L243.478,280L208.696,300L173.913,300L139.13,300L104.348,298.333L69.565,300L34.783,300L0,300Z" fill="#bab0ac"/></g></g><path class="foreground" aria-hidden="true" d="" display="none"/></g><g transform="translate(0,0)"><path class="background" aria-hidden="true" d="M0,0h800v300h-800Z"/><g><g class="mark-area role-mark marks" role="graphics-object" aria-roledescription="area mark container"><path aria-label="Date: Mar 16, 2026; Unique Clones/day: 0; Repository: karlmdavis/ansible-roles" role="graphics-symbol" aria-roledescription="area mark" d="M0,300L34.783,300L69.565,300L104.348,298.333L139.13,300L173.913,300L208.696,300L243.478,280L278.261,298.333L313.043,290L347.826,278.333L382.609,193.333L417.391,225L452.174,143.333L486.957,248.333L521.739,266.667L556.522,276.667L591.304,285L626.087,255L660.87,161.667L695.652,166.667L730.435,278.333L765.217,251.667L800,300L800,300L765.217,251.667L730.435,278.333L695.652,166.667L660.87,161.667L626.087,255L591.304,285L556.522,276.667L521.739,266.667L486.957,250L452.174,143.333L417.391,225L382.609,193.333L347.826,280L313.043,290L278.261,298.333L243.478,280L208.696,300L173.913,300L139.13,300L104.348,298.333L69.565,300L34.783,300L0,300Z" fill="#4c78a8"/></g></g><path class="foreground" aria-hidden="true" d="" display="none"/></g><g transform="translate(0,0)"><path class="background" aria-hidden="true" d="M0,0h800v300h-800Z"/><g><g class="mark-area role-mark marks" role="graphics-object" aria-roledescription="area mark container"><path aria-label="Date: Mar 16, 2026; Unique Clones/day: 0; Repository: karlmdavis/bbonfhir-dev-infra-docker" role="graphics-symbol" aria-roledescription="area mark" d="M0,300L34.783,300L69.565,300L104.348,298.333L139.13,300L173.913,300L208.696,300L243.478,280L278.261,298.333L313.043,290L347.826,280L382.609,193.333L417.391,225L452.174,143.333L486.957,250L521.739,266.667L556.522,276.667L591.304,285L626.087,255L660.87,161.667L695.652,166.667L730.435,278.333L765.217,251.667L800,300L800,300L765.217,251.667L730.435,278.333L695.652,166.667L660.87,163.333L626.087,255L591.304,285L556.522,276.667L521.739,266.667L486.957,251.667L452.174,143.333L417.391,225L382.609,195L347.826,280L313.043,291.667L278.261,298.333L243.478,280L208.696,300L173.913,300L139.13,300L104.348,298.333L69.565,300L34.783,300L0,300Z" fill="#f58518"/></g></g><path class="foreground" aria-hidden="true" d="" display="none"/></g><g transform="translate(0,0)"><path class="background" aria-hidden="true" d="M0,0h800v300h-800Z"/><g><g class="mark-area role-mark marks" role="graphics-object" aria-roledescription="area mark container"><path aria-label="Date: Mar 16, 2026; Unique Clones/day: 0; Repository: karlmdavis/can-i-kayak-baltimore" role="graphics-symbol" aria-roledescription="area mark" d="M0,300L34.783,300L69.565,300L104.348,298.333L139.13,300L173.913,300L208.696,300L243.478,280L278.261,298.333L313.043,291.667L347.826,280L382.609,195L417.391,225L452.174,143.333L486.957,251.667L521.739,266.667L556.522,276.667L591.304,285L626.087,255L660.87,163.333L695.652,166.667L730.435,278.333L765.217,251.667L800,300L800,300L765.217,251.667L730.435,278.333L695.652,166.667L660.87,165L626.087,255L591.304,285L556.522,278.333L521.739,266.667L486.957,251.667L452.174,143.333L417.391,225L382.609,200L347.826,280L313.043,291.667L278.261,298.333L243.478,280L208.696,300L173.913,300L139.13,300L104.348,298.333L69.565,300L34.783,300L0,300Z" fill="#e45756"/></g></g><path class="foreground" aria-hidden="true" d="" display="none"/></g><g transform="translate(0,0)"><path class="background" aria-hidden="true" d="M0,0h800v300h-800Z"/><g><g class="mark-area role-mark marks" role="graphics-object" aria-roledescription="area mark container"><path aria-label="Date: Mar 16, 2026; Unique Clones/day: 0; Repository: karlmdavis/datanucleus-test-jdo-1-to-n" role="graphics-symbol" aria-roledescription="area mark" d="M0,300L34.783,300L69.565,300L104.348,298.333L139.13,300L173.913,300L208.696,300L243.478,280L278.261,298.333L313.043,291.667L347.826,280L382.609,200L417.391,225L452.174,143.333L486.957,251.667L521.739,266.667L556.522,278.333L591.304,285L626.087,255L660.87,165L695.652,166.667L730.435,278.333L765.217,251.667L800,300L800,300L765.217,251.667L730.435,278.333L695.652,166.667L660.87,165L626.087,255L591.304,285L556.522,278.333L521.739,266.667L486.957,251.667L452.174,143.333L417.391,226.667L382.609,200L347.826,280L313.043,291.667L278.261,298.333L243.478,280L208.696,300L173.913,300L139.13,300L104.348,298.333L69.565,300L34.783,300L0,300Z" fill="#72b7b2"/></g></g><path class="foreground" aria-hidden="true" d="" display="none"/></g><g transform="translate(0,0)"><path class="background" aria-hidden="true" d="M0,0h800v300h-800Z"/><g><g class="mark-area role-mark marks" role="graphics-object" aria-roledescription="area mark container"><path aria-label="Date: Mar 16, 2026; Unique Clones/day: 0; Repository: karlmdavis/dotfiles" role="graphics-symbol" aria-roledescription="area mark" d="M0,300L34.783,300L69.565,300L104.348,298.333L139.13,300L173.913,300L208.696,300L243.478,280L278.261,298.333L313.043,291.667L347.826,280L382.609,200L417.391,226.667L452.174,143.333L486.957,251.667L521.739,266.667L556.522,278.333L591.304,285L626.087,255L660.87,165L695.652,166.667L730.435,278.333L765.217,251.667L800,300L800,300L765.217,251.667L730.435,278.333L695.652,168.333L660.87,166.667L626.087,255L591.304,286.667L556.522,280L521.739,268.333L486.957,251.667L452.174,143.333L417.391,226.667L382.609,203.333L347.826,280L313.043,291.667L278.261,298.333L243.478,281.667L208.696,300L173.913,300L139.13,300L104.348,298.333L69.565,300L34.783,300L0,300Z" fill="#54a24b"/></g></g><path class="foreground" aria-hidden="true" d="" display="none"/></g><g transform="translate(0,0)"><path class="background" aria-hidden="true" d="M0,0h800v300h-800Z"/><g><g class="mark-area role-mark marks" role="graphics-object" aria-roledescription="area mark container"><path aria-label="Date: Mar 16, 2026; Unique Clones/day: 0; Repository: karlmdavis/fhir-benchmarks" role="graphics-symbol" aria-roledescription="area mark" d="M0,300L34.783,300L69.565,300L104.348,298.333L139.13,300L173.913,300L208.696,300L243.478,281.667L278.261,298.333L313.043,291.667L347.826,280L382.609,203.333L417.391,226.667L452.174,143.333L486.957,251.667L521.739,268.333L556.522,280L591.304,286.667L626.087,255L660.87,166.667L695.652,168.333L730.435,278.333L765.217,251.667L800,300L800,300L765.217,253.333L730.435,278.333L695.652,170L660.87,168.333L626.087,256.667L591.304,286.667L556.522,281.667L521.739,271.667L486.957,253.333L452.174,145L417.391,226.667L382.609,206.667L347.826,280L313.043,293.333L278.261,298.333L243.478,283.333L208.696,300L173.913,300L139.13,300L104.348,298.333L69.565,300L34.783,300L0,300Z" fill="#eeca3b"/></g></g><path class="foreground" aria-hidden="true" d="" display="none"/></g><g transform="translate(0,0)"><path class="background" aria-hidden="true" d="M0,0h800v300h-800Z"/><g><g class="mark-area role-mark marks" role="graphics-object" aria-roledescription="area mark container"><path aria-label="Date: Mar 16, 2026; Unique Clones/day: 0; Repository: karlmdavis/hapi-fhir-jpaserver-starter" role="graphics-symbol" aria-roledescription="area mark" d="M0,300L34.783,300L69.565,300L104.348,298.333L139.13,300L173.913,300L208.696,300L243.478,283.333L278.261,298.333L313.043,293.333L347.826,280L382.609,206.667L417.391,226.667L452.174,145L486.957,253.333L521.739,271.667L556.522,281.667L591.304,286.667L626.087,256.667L660.87,168.333L695.652,170L730.435,278.333L765.217,253.333L800,300L800,300L765.217,253.333L730.435,278.333L695.652,170L660.87,168.333L626.087,258.333L591.304,288.333L556.522,281.667L521.739,271.667L486.957,253.333L452.174,145L417.391,226.667L382.609,206.667L347.826,281.667L313.043,293.333L278.261,298.333L243.478,283.333L208.696,300L173.913,300L139.13,300L104.348,298.333L69.565,300L34.783,300L0,300Z" fill="#b279a2"/></g></g><path class="foreground" aria-hidden="true" d="" display="none"/></g><g transform="translate(0,0)"><path class="background" aria-hidden="true" d="M0,0h800v300h-800Z"/><g><g class="mark-area role-mark marks" role="graphics-object" aria-roledescription="area mark container"><path aria-label="Date: Mar 16, 2026; Unique Clones/day: 0; Repository: karlmdavis/hello-rust-actix" role="graphics-symbol" aria-roledescription="area mark" d="M0,300L34.783,300L69.565,300L104.348,298.333L139.13,300L173.913,300L208.696,300L243.478,283.333L278.261,298.333L313.043,293.333L347.826,281.667L382.609,206.667L417.391,226.667L452.174,145L486.957,253.333L521.739,271.667L556.522,281.667L591.304,288.333L626.087,258.333L660.87,168.333L695.652,170L730.435,278.333L765.217,253.333L800,300L800,300L765.217,253.333L730.435,278.333L695.652,170L660.87,170L626.087,258.333L591.304,288.333L556.522,281.667L521.739,273.333L486.957,253.333L452.174,145L417.391,226.667L382.609,208.333L347.826,281.667L313.043,293.333L278.261,298.333L243.478,283.333L208.696,300L173.913,300L139.13,300L104.348,298.333L69.565,300L34.783,300L0,300Z" fill="#ff9da6"/></g></g><path class="foreground" aria-hidden="true" d="" display="none"/></g><g transform="translate(0,0)"><path class="background" aria-hidden="true" d="M0,0h800v300h-800Z"/><g><g class="mark-area role-mark marks" role="graphics-object" aria-roledescription="area mark container"><path aria-label="Date: Mar 16, 2026; Unique Clones/day: 0; Repository: karlmdavis/jessentials" role="graphics-symbol" aria-roledescription="area mark" d="M0,300L34.783,300L69.565,300L104.348,298.333L139.13,300L173.913,300L208.696,300L243.478,283.333L278.261,298.333L313.043,293.333L347.826,281.667L382.609,208.333L417.391,226.667L452.174,145L486.957,253.333L521.739,273.333L556.522,281.667L591.304,288.333L626.087,258.333L660.87,170L695.652,170L730.435,278.333L765.217,253.333L800,300L800,300L765.217,253.333L730.435,278.333L695.652,170L660.87,171.667L626.087,258.333L591.304,288.333L556.522,281.667L521.739,273.333L486.957,255L452.174,145L417.391,226.667L382.609,210L347.826,281.667L313.043,293.333L278.261,298.333L243.478,285L208.696,300L173.913,300L139.13,300L104.348,298.333L69.565,300L34.783,300L0,300Z" fill="#9d755d"/></g></g><path class="foreground" aria-hidden="true" d="" display="none"/></g><g transform="translate(0,0)"><path class="background" aria-hidden="true" d="M0,0h800v300h-800Z"/><g><g class="mark-area role-mark marks" role="graphics-object" aria-roledescription="area mark container"><path aria-label="Date: Mar 16, 2026; Unique Clones/day: 0; Repository: karlmdavis/justdavis-ansible" role="graphics-symbol" aria-roledescription="area mark" d="M0,300L34.783,300L69.565,300L104.348,298.333L139.13,300L173.913,300L208.696,300L243.478,285L278.261,298.333L313.043,293.333L347.826,281.667L382.609,210L417.391,226.667L452.174,145L486.957,255L521.739,273.333L556.522,281.667L591.304,288.333L626.087,258.333L660.87,171.667L695.652,170L730.435,278.333L765.217,253.333L800,300L800,300L765.217,253.333L730.435,278.333L695.652,170L660.87,173.333L626.087,258.333L591.304,288.333L556.522,283.333L521.739,273.333L486.957,255L452.174,145L417.391,228.333L382.609,211.667L347.826,281.667L313.043,295L278.261,298.333L243.478,285L208.696,300L173.913,300L139.13,300L104.348,298.333L69.565,300L34.783,300L0,300Z" fill="#bab0ac"/></g></g><path class="foreground" aria-hidden="true" d="" display="none"/></g><g transform="translate(0,0)"><path class="background" aria-hidden="true" d="M0,0h800v300h-800Z"/><g><g class="mark-area role-mark marks" role="graphics-object" aria-roledescription="area mark container"><path aria-label="Date: Mar 16, 2026; Unique Clones/day: 0; Repository: karlmdavis/justdavis-finances" role="graphics-symbol" aria-roledescription="area mark" d="M0,300L34.783,300L69.565,300L104.348,298.333L139.13,300L173.913,300L208.696,300L243.478,285L278.261,298.333L313.043,295L347.826,281.667L382.609,211.667L417.391,228.333L452.174,145L486.957,255L521.739,273.333L556.522,283.333L591.304,288.333L626.087,258.333L660.87,173.333L695.652,170L730.435,278.333L765.217,253.333L800,300L800,300L765.217,281.667L730.435,291.667L695.652,295L660.87,268.333L626.087,291.667L591.304,290L556.522,285L521.739,275L486.957,280L452.174,286.667L417.391,290L382.609,263.333L347.826,283.333L313.043,296.667L278.261,298.333L243.478,285L208.696,300L173.913,300L139.13,300L104.348,298.333L69.565,300L34.783,300L0,300Z" fill="#4c78a8"/></g></g><path class="foreground" aria-hidden="true" d="" display="none"/></g><g transform="translate(0,0)"><path class="background" aria-hidden="true" d="M0,0h800v300h-800Z"/><g><g class="mark-area role-mark marks" role="graphics-object" aria-roledescription="area mark container"><path aria-label="Date: Mar 16, 2026; Unique Clones/day: 0; Repository: karlmdavis/justdavis-karl" role="graphics-symbol" aria-roledescription="area mark" d="M0,300L34.783,300L69.565,300L104.348,298.333L139.13,300L173.913,300L208.696,300L243.478,285L278.261,298.333L313.043,296.667L347.826,283.333L382.609,263.333L417.391,290L452.174,286.667L486.957,280L521.739,275L556.522,285L591.304,290L626.087,291.667L660.87,268.333L695.652,295L730.435,291.667L765.217,281.667L800,300L800,300L765.217,281.667L730.435,293.333L695.652,295L660.87,270L626.087,291.667L591.304,291.667L556.522,285L521.739,276.667L486.957,281.667L452.174,286.667L417.391,291.667L382.609,265L347.826,283.333L313.043,296.667L278.261,298.333L243.478,286.667L208.696,300L173.913,300L139.13,300L104.348,298.333L69.565,300L34.783,300L0,300Z" fill="#f58518"/></g></g><path class="foreground" aria-hidden="true" d="" display="none"/></g><g transform="translate(0,0)"><path class="background" aria-hidden="true" d="M0,0h800v300h-800Z"/><g><g class="mark-area role-mark marks" role="graphics-object" aria-roledescription="area mark container"><path aria-label="Date: Mar 16, 2026; Unique Clones/day: 0; Repository: karlmdavis/justdavis-puppet" role="graphics-symbol" aria-roledescription="area mark" d="M0,300L34.783,300L69.565,300L104.348,298.333L139.13,300L173.913,300L208.696,300L243.478,286.667L278.261,298.333L313.043,296.667L347.826,283.333L382.609,265L417.391,291.667L452.174,286.667L486.957,281.667L521.739,276.667L556.522,285L591.304,291.667L626.087,291.667L660.87,270L695.652,295L730.435,293.333L765.217,281.667L800,300L800,300L765.217,281.667L730.435,293.333L695.652,295L660.87,271.667L626.087,291.667L591.304,291.667L556.522,285L521.739,280L486.957,283.333L452.174,286.667L417.391,291.667L382.609,266.667L347.826,283.333L313.043,296.667L278.261,298.333L243.478,286.667L208.696,300L173.913,300L139.13,300L104.348,298.333L69.565,300L34.783,300L0,300Z" fill="#e45756"/></g></g><path class="foreground" aria-hidden="true" d="" display="none"/></g><g transform="translate(0,0)"><path class="background" aria-hidden="true" d="M0,0h800v300h-800Z"/><g><g class="mark-area role-mark marks" role="graphics-object" aria-roledescription="area mark container"><path aria-label="Date: Mar 16, 2026; Unique Clones/day: 0; Repository: karlmdavis/kobjects" role="graphics-symbol" aria-roledescription="area mark" d="M0,300L34.783,300L69.565,300L104.348,298.333L139.13,300L173.913,300L208.696,300L243.478,286.667L278.261,298.333L313.043,296.667L347.826,283.333L382.609,266.667L417.391,291.667L452.174,286.667L486.957,283.333L521.739,280L556.522,285L591.304,291.667L626.087,291.667L660.87,271.667L695.652,295L730.435,293.333L765.217,281.667L800,300L800,300L765.217,281.667L730.435,293.333L695.652,295L660.87,273.333L626.087,291.667L591.304,291.667L556.522,285L521.739,280L486.957,283.333L452.174,286.667L417.391,291.667L382.609,268.333L347.826,285L313.043,296.667L278.261,298.333L243.478,286.667L208.696,300L173.913,300L139.13,300L104.348,298.333L69.565,300L34.783,300L0,300Z" fill="#72b7b2"/></g></g><path class="foreground" aria-hidden="true" d="" display="none"/></g><g transform="translate(0,0)"><path class="background" aria-hidden="true" d="M0,0h800v300h-800Z"/><g><g class="mark-area role-mark marks" role="graphics-object" aria-roledescription="area mark container"><path aria-label="Date: Mar 16, 2026; Unique Clones/day: 0; Repository: karlmdavis/ksoap2-android" role="graphics-symbol" aria-roledescription="area mark" d="M0,300L34.783,300L69.565,300L104.348,298.333L139.13,300L173.913,300L208.696,300L243.478,286.667L278.261,298.333L313.043,296.667L347.826,285L382.609,268.333L417.391,291.667L452.174,286.667L486.957,283.333L521.739,280L556.522,285L591.304,291.667L626.087,291.667L660.87,273.333L695.652,295L730.435,293.333L765.217,281.667L800,300L800,300L765.217,290L730.435,295L695.652,295L660.87,278.333L626.087,291.667L591.304,293.333L556.522,286.667L521.739,281.667L486.957,290L452.174,290L417.391,291.667L382.609,270L347.826,290L313.043,296.667L278.261,298.333L243.478,288.333L208.696,300L173.913,300L139.13,300L104.348,298.333L69.565,300L34.783,300L0,300Z" fill="#54a24b"/></g></g><path class="foreground" aria-hidden="true" d="" display="none"/></g><g transform="translate(0,0)"><path class="background" aria-hidden="true" d="M0,0h800v300h-800Z"/><g><g class="mark-area role-mark marks" role="graphics-object" aria-roledescription="area mark container"><path aria-label="Date: Mar 16, 2026; Unique Clones/day: 0; Repository: karlmdavis/kxml2" role="graphics-symbol" aria-roledescription="area mark" d="M0,300L34.783,300L69.565,300L104.348,298.333L139.13,300L173.913,300L208.696,300L243.478,288.333L278.261,298.333L313.043,296.667L347.826,290L382.609,270L417.391,291.667L452.174,290L486.957,290L521.739,281.667L556.522,286.667L591.304,293.333L626.087,291.667L660.87,278.333L695.652,295L730.435,295L765.217,290L800,300L800,300L765.217,291.667L730.435,296.667L695.652,296.667L660.87,280L626.087,291.667L591.304,293.333L556.522,286.667L521.739,283.333L486.957,295L452.174,291.667L417.391,291.667L382.609,273.333L347.826,291.667L313.043,296.667L278.261,298.333L243.478,290L208.696,300L173.913,300L139.13,300L104.348,298.333L69.565,300L34.783,300L0,300Z" fill="#eeca3b"/></g></g><path class="foreground" aria-hidden="true" d="" display="none"/></g><g transform="translate(0,0)"><path class="background" aria-hidden="true" d="M0,0h800v300h-800Z"/><g><g class="mark-area role-mark marks" role="graphics-object" aria-roledescription="area mark container"><path aria-label="Date: Mar 16, 2026; Unique Clones/day: 0; Repository: karlmdavis/ldap-plugin" role="graphics-symbol" aria-roledescription="area mark" d="M0,300L34.783,300L69.565,300L104.348,298.333L139.13,300L173.913,300L208.696,300L243.478,290L278.261,298.333L313.043,296.667L347.826,291.667L382.609,273.333L417.391,291.667L452.174,291.667L486.957,295L521.739,283.333L556.522,286.667L591.304,293.333L626.087,291.667L660.87,280L695.652,296.667L730.435,296.667L765.217,291.667L800,300L800,300L765.217,291.667L730.435,296.667L695.652,296.667L660.87,280L626.087,293.333L591.304,295L556.522,286.667L521.739,283.333L486.957,295L452.174,291.667L417.391,291.667L382.609,273.333L347.826,291.667L313.043,296.667L278.261,298.333L243.478,290L208.696,300L173.913,300L139.13,300L104.348,298.333L69.565,300L34.783,300L0,300Z" fill="#b279a2"/></g></g><path class="foreground" aria-hidden="true" d="" display="none"/></g><g transform="translate(0,0)"><path class="background" aria-hidden="true" d="M0,0h800v300h-800Z"/><g><g class="mark-area role-mark marks" role="graphics-object" aria-roledescription="area mark container"><path aria-label="Date: Mar 16, 2026; Unique Clones/day: 0; Repository: karlmdavis/lego-ev3dev-rs" role="graphics-symbol" aria-roledescription="area mark" d="M0,300L34.783,300L69.565,300L104.348,298.333L139.13,300L173.913,300L208.696,300L243.478,290L278.261,298.333L313.043,296.667L347.826,291.667L382.609,273.333L417.391,291.667L452.174,291.667L486.957,295L521.739,283.333L556.522,286.667L591.304,295L626.087,293.333L660.87,280L695.652,296.667L730.435,296.667L765.217,291.667L800,300L800,300L765.217,291.667L730.435,296.667L695.652,298.333L660.87,281.667L626.087,295L591.304,295L556.522,288.333L521.739,286.667L486.957,295L452.174,293.333L417.391,293.333L382.609,278.333L347.826,291.667L313.043,298.333L278.261,298.333L243.478,291.667L208.696,300L173.913,300L139.13,300L104.348,298.333L69.565,300L34.783,300L0,300Z" fill="#ff9da6"/></g></g><path class="foreground" aria-hidden="true" d="" display="none"/></g><g transform="translate(0,0)"><path class="background" aria-hidden="true" d="M0,0h800v300h-800Z"/><g><g class="mark-area role-mark marks" role="graphics-object" aria-roledescription="area mark container"><path aria-label="Date: Mar 16, 2026; Unique Clones/day: 0; Repository: karlmdavis/liquibase" role="graphics-symbol" aria-roledescription="area mark" d="M0,300L34.783,300L69.565,300L104.348,298.333L139.13,300L173.913,300L208.696,300L243.478,291.667L278.261,298.333L313.043,298.333L347.826,291.667L382.609,278.333L417.391,293.333L452.174,293.333L486.957,295L521.739,286.667L556.522,288.333L591.304,295L626.087,295L660.87,281.667L695.652,298.333L730.435,296.667L765.217,291.667L800,300L800,300L765.217,291.667L730.435,296.667L695.652,298.333L660.87,281.667L626.087,295L591.304,295L556.522,288.333L521.739,286.667L486.957,295L452.174,293.333L417.391,293.333L382.609,278.333L347.826,291.667L313.043,298.333L278.261,298.333L243.478,291.667L208.696,300L173.913,300L139.13,300L104.348,300L69.565,300L34.783,300L0,300Z" fill="#9d755d"/></g></g><path class="foreground" aria-hidden="true" d="" display="none"/></g><g transform="translate(0,0)"><path class="background" aria-hidden="true" d="M0,0h800v300h-800Z"/><g><g class="mark-area role-mark marks" role="graphics-object" aria-roledescription="area mark container"><path aria-label="Date: Mar 16, 2026; Unique Clones/day: 0; Repository: karlmdavis/m2e-core" role="graphics-symbol" aria-roledescription="area mark" d="M0,300L34.783,300L69.565,300L104.348,300L139.13,300L173.913,300L208.696,300L243.478,291.667L278.261,298.333L313.043,298.333L347.826,291.667L382.609,278.333L417.391,293.333L452.174,293.333L486.957,295L521.739,286.667L556.522,288.333L591.304,295L626.087,295L660.87,281.667L695.652,298.333L730.435,296.667L765.217,291.667L800,300L800,300L765.217,293.333L730.435,296.667L695.652,298.333L660.87,283.333L626.087,295L591.304,295L556.522,288.333L521.739,286.667L486.957,295L452.174,295L417.391,293.333L382.609,280L347.826,291.667L313.043,298.333L278.261,298.333L243.478,291.667L208.696,300L173.913,300L139.13,300L104.348,300L69.565,300L34.783,300L0,300Z" fill="#bab0ac"/></g></g><path class="foreground" aria-hidden="true" d="" display="none"/></g><g transform="translate(0,0)"><path class="background" aria-hidden="true" d="M0,0h800v300h-800Z"/><g><g class="mark-area role-mark marks" role="graphics-object" aria-roledescription="area mark container"><path aria-label="Date: Mar 16, 2026; Unique Clones/day: 0; Repository: karlmdavis/m2e-core-tests" role="graphics-symbol" aria-roledescription="area mark" d="M0,300L34.783,300L69.565,300L104.348,300L139.13,300L173.913,300L208.696,300L243.478,291.667L278.261,298.333L313.043,298.333L347.826,291.667L382.609,280L417.391,293.333L452.174,295L486.957,295L521.739,286.667L556.522,288.333L591.304,295L626.087,295L660.87,283.333L695.652,298.333L730.435,296.667L765.217,293.333L800,300L800,300L765.217,295L730.435,296.667L695.652,298.333L660.87,283.333L626.087,295L591.304,295L556.522,291.667L521.739,286.667L486.957,295L452.174,295L417.391,295L382.609,280L347.826,293.333L313.043,298.333L278.261,298.333L243.478,291.667L208.696,300L173.913,300L139.13,300L104.348,300L69.565,300L34.783,300L0,300Z" fill="#4c78a8"/></g></g><path class="foreground" aria-hidden="true" d="" display="none"/></g><g transform="translate(0,0)"><path class="background" aria-hidden="true" d="M0,0h800v300h-800Z"/><g><g class="mark-area role-mark marks" role="graphics-object" aria-roledescription="area mark container"><path aria-label="Date: Mar 16, 2026; Unique Clones/day: 0; Repository: karlmdavis/obsidian-operator" role="graphics-symbol" aria-roledescription="area mark" d="M0,300L34.783,300L69.565,300L104.348,300L139.13,300L173.913,300L208.696,300L243.478,291.667L278.261,298.333L313.043,298.333L347.826,293.333L382.609,280L417.391,295L452.174,295L486.957,295L521.739,286.667L556.522,291.667L591.304,295L626.087,295L660.87,283.333L695.652,298.333L730.435,296.667L765.217,295L800,300L800,300L765.217,295L730.435,296.667L695.652,298.333L660.87,285L626.087,298.333L591.304,295L556.522,291.667L521.739,291.667L486.957,295L452.174,295L417.391,295L382.609,281.667L347.826,293.333L313.043,298.333L278.261,298.333L243.478,293.333L208.696,300L173.913,300L139.13,300L104.348,300L69.565,300L34.783,300L0,300Z" fill="#f58518"/></g></g><path class="foreground" aria-hidden="true" d="" display="none"/></g><g transform="translate(0,0)"><path class="background" aria-hidden="true" d="M0,0h800v300h-800Z"/><g><g class="mark-area role-mark marks" role="graphics-object" aria-roledescription="area mark container"><path aria-label="Date: Mar 16, 2026; Unique Clones/day: 0; Repository: karlmdavis/perfect-note" role="graphics-symbol" aria-roledescription="area mark" d="M0,300L34.783,300L69.565,300L104.348,300L139.13,300L173.913,300L208.696,300L243.478,293.333L278.261,298.333L313.043,298.333L347.826,293.333L382.609,281.667L417.391,295L452.174,295L486.957,295L521.739,291.667L556.522,291.667L591.304,295L626.087,298.333L660.87,285L695.652,298.333L730.435,296.667L765.217,295L800,300L800,300L765.217,295L730.435,296.667L695.652,298.333L660.87,286.667L626.087,298.333L591.304,295L556.522,291.667L521.739,291.667L486.957,295L452.174,295L417.391,296.667L382.609,283.333L347.826,295L313.043,298.333L278.261,298.333L243.478,293.333L208.696,300L173.913,300L139.13,300L104.348,300L69.565,300L34.783,300L0,300Z" fill="#e45756"/></g></g><path class="foreground" aria-hidden="true" d="" display="none"/></g><g transform="translate(0,0)"><path class="background" aria-hidden="true" d="M0,0h800v300h-800Z"/><g><g class="mark-area role-mark marks" role="graphics-object" aria-roledescription="area mark container"><path aria-label="Date: Mar 16, 2026; Unique Clones/day: 0; Repository: karlmdavis/puppet-archive" role="graphics-symbol" aria-roledescription="area mark" d="M0,300L34.783,300L69.565,300L104.348,300L139.13,300L173.913,300L208.696,300L243.478,293.333L278.261,298.333L313.043,298.333L347.826,295L382.609,283.333L417.391,296.667L452.174,295L486.957,295L521.739,291.667L556.522,291.667L591.304,295L626.087,298.333L660.87,286.667L695.652,298.333L730.435,296.667L765.217,295L800,300L800,300L765.217,295L730.435,296.667L695.652,298.333L660.87,286.667L626.087,298.333L591.304,295L556.522,291.667L521.739,291.667L486.957,295L452.174,295L417.391,296.667L382.609,283.333L347.826,295L313.043,298.333L278.261,298.333L243.478,295L208.696,300L173.913,300L139.13,300L104.348,300L69.565,300L34.783,300L0,300Z" fill="#72b7b2"/></g></g><path class="foreground" aria-hidden="true" d="" display="none"/></g><g transform="translate(0,0)"><path class="background" aria-hidden="true" d="M0,0h800v300h-800Z"/><g><g class="mark-area role-mark marks" role="graphics-object" aria-roledescription="area mark container"><path aria-label="Date: Mar 16, 2026; Unique Clones/day: 0; Repository: karlmdavis/puppet-sonar" role="graphics-symbol" aria-roledescription="area mark" d="M0,300L34.783,300L69.565,300L104.348,300L139.13,300L173.913,300L208.696,300L243.478,295L278.261,298.333L313.043,298.333L347.826,295L382.609,283.333L417.391,296.667L452.174,295L486.957,295L521.739,291.667L556.522,291.667L591.304,295L626.087,298.333L660.87,286.667L695.652,298.333L730.435,296.667L765.217,295L800,300L800,300L765.217,296.667L730.435,296.667L695.652,298.333L660.87,286.667L626.087,298.333L591.304,296.667L556.522,291.667L521.739,295L486.957,295L452.174,295L417.391,298.333L382.609,283.333L347.826,295L313.043,298.333L278.261,298.333L243.478,295L208.696,300L173.913,300L139.13,300L104.348,300L69.565,300L34.783,300L0,300Z" fill="#54a24b"/></g></g><path class="foreground" aria-hidden="true" d="" display="none"/></g><g transform="translate(0,0)"><path class="background" aria-hidden="true" d="M0,0h800v300h-800Z"/><g><g class="mark-area role-mark marks" role="graphics-object" aria-roledescription="area mark container"><path aria-label="Date: Mar 16, 2026; Unique Clones/day: 0; Repository: karlmdavis/rps-tourney" role="graphics-symbol" aria-roledescription="area mark" d="M0,300L34.783,300L69.565,300L104.348,300L139.13,300L173.913,300L208.696,300L243.478,295L278.261,298.333L313.043,298.333L347.826,295L382.609,283.333L417.391,298.333L452.174,295L486.957,295L521.739,295L556.522,291.667L591.304,296.667L626.087,298.333L660.87,286.667L695.652,298.333L730.435,296.667L765.217,296.667L800,300L800,300L765.217,296.667L730.435,296.667L695.652,298.333L660.87,288.333L626.087,298.333L591.304,298.333L556.522,291.667L521.739,295L486.957,295L452.174,295L417.391,298.333L382.609,285L347.826,295L313.043,298.333L278.261,298.333L243.478,296.667L208.696,300L173.913,300L139.13,300L104.348,300L69.565,300L34.783,300L0,300Z" fill="#eeca3b"/></g></g><path class="foreground" aria-hidden="true" d="" display="none"/></g><g transform="translate(0,0)"><path class="background" aria-hidden="true" d="M0,0h800v300h-800Z"/><g><g class="mark-area role-mark marks" role="graphics-object" aria-roledescription="area mark container"><path aria-label="Date: Mar 16, 2026; Unique Clones/day: 0; Repository: karlmdavis/sample-maven-and-rcp" role="graphics-symbol" aria-roledescription="area mark" d="M0,300L34.783,300L69.565,300L104.348,300L139.13,300L173.913,300L208.696,300L243.478,296.667L278.261,298.333L313.043,298.333L347.826,295L382.609,285L417.391,298.333L452.174,295L486.957,295L521.739,295L556.522,291.667L591.304,298.333L626.087,298.333L660.87,288.333L695.652,298.333L730.435,296.667L765.217,296.667L800,300L800,300L765.217,296.667L730.435,296.667L695.652,298.333L660.87,290L626.087,298.333L591.304,298.333L556.522,293.333L521.739,295L486.957,295L452.174,295L417.391,298.333L382.609,286.667L347.826,295L313.043,298.333L278.261,298.333L243.478,296.667L208.696,300L173.913,300L139.13,300L104.348,300L69.565,300L34.783,300L0,300Z" fill="#b279a2"/></g></g><path class="foreground" aria-hidden="true" d="" display="none"/></g><g transform="translate(0,0)"><path class="background" aria-hidden="true" d="M0,0h800v300h-800Z"/><g><g class="mark-area role-mark marks" role="graphics-object" aria-roledescription="area mark container"><path aria-label="Date: Mar 16, 2026; Unique Clones/day: 0; Repository: karlmdavis/stockfighter-trades-solutions" role="graphics-symbol" aria-roledescription="area mark" d="M0,300L34.783,300L69.565,300L104.348,300L139.13,300L173.913,300L208.696,300L243.478,296.667L278.261,298.333L313.043,298.333L347.826,295L382.609,286.667L417.391,298.333L452.174,295L486.957,295L521.739,295L556.522,293.333L591.304,298.333L626.087,298.333L660.87,290L695.652,298.333L730.435,296.667L765.217,296.667L800,300L800,300L765.217,296.667L730.435,296.667L695.652,298.333L660.87,291.667L626.087,298.333L591.304,298.333L556.522,293.333L521.739,295L486.957,295L452.174,296.667L417.391,298.333L382.609,290L347.826,295L313.043,298.333L278.261,298.333L243.478,296.667L208.696,300L173.913,300L139.13,300L104.348,300L69.565,300L34.783,300L0,300Z" fill="#ff9da6"/></g></g><path class="foreground" aria-hidden="true" d="" display="none"/></g><g transform="translate(0,0)"><path class="background" aria-hidden="true" d="M0,0h800v300h-800Z"/><g><g class="mark-area role-mark marks" role="graphics-object" aria-roledescription="area mark container"><path aria-label="Date: Mar 16, 2026; Unique Clones/day: 0; Repository: karlmdavis/test-repo-for-move" role="graphics-symbol" aria-roledescription="area mark" d="M0,300L34.783,300L69.565,300L104.348,300L139.13,300L173.913,300L208.696,300L243.478,296.667L278.261,298.333L313.043,298.333L347.826,295L382.609,290L417.391,298.333L452.174,296.667L486.957,295L521.739,295L556.522,293.333L591.304,298.333L626.087,298.333L660.87,291.667L695.652,298.333L730.435,296.667L765.217,296.667L800,300L800,300L765.217,296.667L730.435,296.667L695.652,298.333L660.87,293.333L626.087,298.333L591.304,298.333L556.522,293.333L521.739,295L486.957,295L452.174,298.333L417.391,298.333L382.609,291.667L347.826,296.667L313.043,298.333L278.261,298.333L243.478,296.667L208.696,300L173.913,300L139.13,300L104.348,300L69.565,300L34.783,300L0,300Z" fill="#9d755d"/></g></g><path class="foreground" aria-hidden="true" d="" display="none"/></g><g transform="translate(0,0)"><path class="background" aria-hidden="true" d="M0,0h800v300h-800Z"/><g><g class="mark-area role-mark marks" role="graphics-object" aria-roledescription="area mark container"><path aria-label="Date: Mar 16, 2026; Unique Clones/day: 0; Repository: karlmdavis/todoist-ai" role="graphics-symbol" aria-roledescription="area mark" d="M0,300L34.783,300L69.565,300L104.348,300L139.13,300L173.913,300L208.696,300L243.478,296.667L278.261,298.333L313.043,298.333L347.826,296.667L382.609,291.667L417.391,298.333L452.174,298.333L486.957,295L521.739,295L556.522,293.333L591.304,298.333L626.087,298.333L660.87,293.333L695.652,298.333L730.435,296.667L765.217,296.667L800,300L800,300L765.217,296.667L730.435,296.667L695.652,298.333L660.87,293.333L626.087,298.333L591.304,298.333L556.522,296.667L521.739,295L486.957,295L452.174,298.333L417.391,298.333L382.609,291.667L347.826,296.667L313.043,298.333L278.261,298.333L243.478,296.667L208.696,300L173.913,300L139.13,300L104.348,300L69.565,300L34.783,300L0,300Z" fill="#bab0ac"/></g></g><path class="foreground" aria-hidden="true" d="" display="none"/></g><g transform="translate(0,0)"><path class="background" aria-hidden="true" d="M0,0h800v300h-800Z"/><g><g class="mark-area role-mark marks" role="graphics-object" aria-roledescription="area mark container"><path aria-label="Date: Mar 16, 2026; Unique Clones/day: 0; Repository: karlmdavis/usgs-water-api-java" role="graphics-symbol" aria-roledescription="area mark" d="M0,300L34.783,300L69.565,300L104.348,300L139.13,300L173.913,300L208.696,300L243.478,296.667L278.261,298.333L313.043,298.333L347.826,296.667L382.609,291.667L417.391,298.333L452.174,298.333L486.957,295L521.739,295L556.522,296.667L591.304,298.333L626.087,298.333L660.87,293.333L695.652,298.333L730.435,296.667L765.217,296.667L800,300L800,300L765.217,298.333L730.435,300L695.652,300L660.87,296.667L626.087,300L591.304,300L556.522,298.333L521.739,296.667L486.957,298.333L452.174,300L417.391,300L382.609,295L347.826,300L313.043,300L278.261,300L243.478,300L208.696,300L173.913,300L139.13,300L104.348,300L69.565,300L34.783,300L0,300Z" fill="#4c78a8"/></g></g><path class="foreground" aria-hidden="true" d="" display="none"/></g><g transform="translate(0,0)"><path class="background" aria-hidden="true" d="M0,0h800v300h-800Z"/><g><g class="mark-area role-mark marks" role="graphics-object" aria-roledescription="area mark container"><path aria-label="Date: Mar 16, 2026; Unique Clones/day: 0; Repository: karlmdavis/workstation-base-ansible-role" role="graphics-symbol" aria-roledescription="area mark" d="M0,300L34.783,300L69.565,300L104.348,300L139.13,300L173.913,300L208.696,300L243.478,300L278.261,300L313.043,300L347.826,300L382.609,295L417.391,300L452.174,300L486.957,298.333L521.739,296.667L556.522,298.333L591.304,300L626.087,300L660.87,296.667L695.652,300L730.435,300L765.217,298.333L800,300L800,300L765.217,298.333L730.435,300L695.652,300L660.87,298.333L626.087,300L591.304,300L556.522,300L521.739,298.333L486.957,300L452.174,300L417.391,300L382.609,298.333L347.826,300L313.043,300L278.261,300L243.478,300L208.696,300L173.913,300L139.13,300L104.348,300L69.565,300L34.783,300L0,300Z" fill="#f58518"/></g></g><path class="foreground" aria-hidden="true" d="" display="none"/></g><g transform="translate(0,0)"><path class="background" aria-hidden="true" d="M0,0h800v300h-800Z"/><g><g class="mark-area role-mark marks" role="graphics-object" aria-roledescription="area mark container"><path aria-label="Date: Mar 16, 2026; Unique Clones/day: 0; Repository: karlmdavis/xmlpull" role="graphics-symbol" aria-roledescription="area mark" d="M0,300L34.783,300L69.565,300L104.348,300L139.13,300L173.913,300L208.696,300L243.478,300L278.261,300L313.043,300L347.826,300L382.609,298.333L417.391,300L452.174,300L486.957,300L521.739,298.333L556.522,300L591.304,300L626.087,300L660.87,298.333L695.652,300L730.435,300L765.217,298.333L800,300L800,300L765.217,300L730.435,300L695.652,300L660.87,300L626.087,300L591.304,300L556.522,300L521.739,300L486.957,300L452.174,300L417.391,300L382.609,300L347.826,300L313.043,300L278.261,300L243.478,300L208.696,300L173.913,300L139.13,300L104.348,300L69.565,300L34.783,300L0,300Z" fill="#e45756"/></g></g><path class="foreground" aria-hidden="true" d="" display="none"/></g></g><g class="mark-group role-legend" role="graphics-symbol" aria-roledescription="legend" aria-label="Symbol legend titled 'Repository' for fill color with 43 values: justdavis-family/github-analytics-data, justdavis-family/justdavis, karlmdavis/FHIR-Server, karlmdavis/ansible, karlmdavis/ansible-jenkins, ending with karlmdavis/xmlpull"><g transform="translate(818,0)"><path class="background" aria-hidden="true" d="M0,0h176v404h-176Z" pointer-events="none"/><g><g class="mark-group role-legend-entry"><g transform="translate(0,16)"><path class="background" aria-hidden="true" d="M0,0h0v0h0Z" pointer-events="none"/><g><g class="mark-group role-scope" role="graphics-object" aria-roledescription="group mark container"><g transform="translate(0,0)"><path class="background" aria-hidden="true" d="M0,0h176v11h-176Z" pointer-events="none" opacity="1"/><g><g class="mark-symbol role-legend-symbol" pointer-events="none"><path transform="translate(6,6)" d="M5,0A5,5,0,1,1,-5,0A5,5,0,1,1,5,0" fill="#4c78a8" stroke-width="1.5" opacity="1"/></g><g class="mark-text role-legend-label" pointer-events="none"><text text-anchor="start" transform="translate(16,9)" font-family="sans-serif" font-size="10px" fill="#000" opacity="1">justdavis-family/github-analytics-d…</text></g></g><path class="foreground" aria-hidden="true" d="" pointer-events="none" display="none"/></g><g transform="translate(0,13)"><path class="background" aria-hidden="true" d="M0,0h176v11h-176Z" pointer-events="none" opacity="1"/><g><g class="mark-symbol role-legend-symbol" pointer-events="none"><path transform="translate(6,6)" d="M5,0A5,5,0,1,1,-5,0A5,5,0,1,1,5,0" fill="#f58518" stroke-width="1.5" opacity="1"/></g><g class="mark-text role-legend-label" pointer-events="none"><text text-anchor="start" transform="translate(16,9)" font-family="sans-serif" font-size="10px" fill="#000" opacity="1">justdavis-family/justdavis</text></g></g><path class="foreground" aria-hidden="true" d="" pointer-events="none" display="none"/></g><g transform="translate(0,26)"><path class="background" aria-hidden="true" d="M0,0h176v11h-176Z" pointer-events="none" opacity="1"/><g><g class="mark-symbol role-legend-symbol" pointer-events="none"><path transform="translate(6,6)" d="M5,0A5,5,0,1,1,-5,0A5,5,0,1,1,5,0" fill="#e45756" stroke-width="1.5" opacity="1"/></g><g class="mark-text role-legend-label" pointer-events="none"><text text-anchor="start" transform="translate(16,9)" font-family="sans-serif" font-size="10px" fill="#000" opacity="1">karlmdavis/FHIR-Server</text></g></g><path class="foreground" aria-hidden="true" d="" pointer-events="none" display="none"/></g><g transform="translate(0,39)"><path class="background" aria-hidden="true" d="M0,0h176v11h-176Z" pointer-events="none" opacity="1"/><g><g class="mark-symbol role-legend-symbol" pointer-events="none"><path transform="translate(6,6)" d="M5,0A5,5,0,1,1,-5,0A5,5,0,1,1,5,0" fill="#72b7b2" stroke-width="1.5" opacity="1"/></g><g class="mark-text role-legend-label" pointer-events="none"><text text-anchor="start" transform="translate(16,9)" font-family="sans-serif" font-size="10px" fill="#000" opacity="1">karlmdavis/ansible</text></g></g><path class="foreground" aria-hidden="true" d="" pointer-events="none" display="none"/></g><g transform="translate(0,52)"><path class="background" aria-hidden="true" d="M0,0h176v11h-176Z" pointer-events="none" opacity="1"/><g><g class="mark-symbol role-legend-symbol" pointer-events="none"><path transform="translate(6,6)" d="M5,0A5,5,0,1,1,-5,0A5,5,0,1,1,5,0" fill="#54a24b" stroke-width="1.5" opacity="1"/></g><g class="mark-text role-legend-label" pointer-events="none"><text text-anchor="start" transform="translate(16,9)" font-family="sans-serif" font-size="10px" fill="#000" opacity="1">karlmdavis/ansible-jenkins</text></g></g><path class="foreground" aria-hidden="true" d="" pointer-events="none" display="none"/></g><g transform="translate(0,65)"><path class="background" aria-hidden="true" d="M0,0h176v11h-176Z" pointer-events="none" opacity="1"/><g><g class="mark-symbol role-legend-symbol" pointer-events="none"><path transform="translate(6,6)" d="M5,0A5,5,0,1,1,-5,0A5,5,0,1,1,5,0" fill="#eeca3b" stroke-width="1.5" opacity="1"/></g><g class="mark-text role-legend-label" pointer-events="none"><text text-anchor="start" transform="translate(16,9)" font-family="sans-serif" font-size="10px" fill="#000" opacity="1">karlmdavis/ansible-role-acmetool</text></g></g><path class="foreground" aria-hidden="true" d="" pointer-events="none" display="none"/></g><g transform="translate(0,78)"><path class="background" aria-hidden="true" d="M0,0h176v11h-176Z" pointer-events="none" opacity="1"/><g><g class="mark-symbol role-legend-symbol" pointer-events="none"><path transform="translate(6,6)" d="M5,0A5,5,0,1,1,-5,0A5,5,0,1,1,5,0" fill="#b279a2" stroke-width="1.5" opacity="1"/></g><g class="mark-text role-legend-label" pointer-events="none"><text text-anchor="start" transform="translate(16,9)" font-family="sans-serif" font-size="10px" fill="#000" opacity="1">karlmdavis/ansible-role-bind-dns</text></g></g><path class="foreground" aria-hidden="true" d="" pointer-events="none" display="none"/></g><g transform="translate(0,91)"><path class="background" aria-hidden="true" d="M0,0h176v11h-176Z" pointer-events="none" opacity="1"/><g><g class="mark-symbol role-legend-symbol" pointer-events="none"><path transform="translate(6,6)" d="M5,0A5,5,0,1,1,-5,0A5,5,0,1,1,5,0" fill="#ff9da6" stroke-width="1.5" opacity="1"/></g><g class="mark-text role-legend-label" pointer-events="none"><text text-anchor="start" transform="translate(16,9)" font-family="sans-serif" font-size="10px" fill="#000" opacity="1">karlmdavis/ansible-role-jenkins2</text></g></g><path class="foreground" aria-hidden="true" d="" pointer-events="none" display="none"/></g><g transform="translate(0,104)"><path class="background" aria-hidden="true" d="M0,0h176v11h-176Z" pointer-events="none" opacity="1"/><g><g class="mark-symbol role-legend-symbol" pointer-events="none"><path transform="translate(6,6)" d="M5,0A5,5,0,1,1,-5,0A5,5,0,1,1,5,0" fill="#9d755d" stroke-width="1.5" opacity="1"/></g><g class="mark-text role-legend-label" pointer-events="none"><text text-anchor="start" transform="translate(16,9)" font-family="sans-serif" font-size="10px" fill="#000" opacity="1">karlmdavis/ansible-role-ldap</text></g></g><path class="foreground" aria-hidden="true" d="" pointer-events="none" display="none"/></g><g transform="translate(0,117)"><path class="background" aria-hidden="true" d="M0,0h176v11h-176Z" pointer-events="none" opacity="1"/><g><g class="mark-symbol role-legend-symbol" pointer-events="none"><path transform="translate(6,6)" d="M5,0A5,5,0,1,1,-5,0A5,5,0,1,1,5,0" fill="#bab0ac" stroke-width="1.5" opacity="1"/></g><g class="mark-text role-legend-label" pointer-events="none"><text text-anchor="start" transform="translate(16,9)" font-family="sans-serif" font-size="10px" fill="#000" opacity="1">karlmdavis/ansible-role-rcm-dotfiles</text></g></g><path class="foreground" aria-hidden="true" d="" pointer-events="none" display="none"/></g><g transform="translate(0,130)"><path class="background" aria-hidden="true" d="M0,0h176v11h-176Z" pointer-events="none" opacity="1"/><g><g class="mark-symbol role-legend-symbol" pointer-events="none"><path transform="translate(6,6)" d="M5,0A5,5,0,1,1,-5,0A5,5,0,1,1,5,0" fill="#4c78a8" stroke-width="1.5" opacity="1"/></g><g class="mark-text role-legend-label" pointer-events="none"><text text-anchor="start" transform="translate(16,9)" font-family="sans-serif" font-size="10px" fill="#000" opacity="1">karlmdavis/ansible-roles</text></g></g><path class="foreground" aria-hidden="true" d="" pointer-events="none" display="none"/></g><g transform="translate(0,143)"><path class="background" aria-hidden="true" d="M0,0h176v11h-176Z" pointer-events="none" opacity="1"/><g><g class="mark-symbol role-legend-symbol" pointer-events="none"><path transform="translate(6,6)" d="M5,0A5,5,0,1,1,-5,0A5,5,0,1,1,5,0" fill="#f58518" stroke-width="1.5" opacity="1"/></g><g class="mark-text role-legend-label" pointer-events="none"><text text-anchor="start" transform="translate(16,9)" font-family="sans-serif" font-size="10px" fill="#000" opacity="1">karlmdavis/bbonfhir-dev-infra-doc…</text></g></g><path class="foreground" aria-hidden="true" d="" pointer-events="none" display="none"/></g><g transform="translate(0,156)"><path class="background" aria-hidden="true" d="M0,0h176v11h-176Z" pointer-events="none" opacity="1"/><g><g class="mark-symbol role-legend-symbol" pointer-events="none"><path transform="translate(6,6)" d="M5,0A5,5,0,1,1,-5,0A5,5,0,1,1,5,0" fill="#e45756" stroke-width="1.5" opacity="1"/></g><g class="mark-text role-legend-label" pointer-events="none"><text text-anchor="start" transform="translate(16,9)" font-family="sans-serif" font-size="10px" fill="#000" opacity="1">karlmdavis/can-i-kayak-baltimore</text></g></g><path class="foreground" aria-hidden="true" d="" pointer-events="none" display="none"/></g><g transform="translate(0,169)"><path class="background" aria-hidden="true" d="M0,0h176v11h-176Z" pointer-events="none" opacity="1"/><g><g class="mark-symbol role-legend-symbol" pointer-events="none"><path transform="translate(6,6)" d="M5,0A5,5,0,1,1,-5,0A5,5,0,1,1,5,0" fill="#72b7b2" stroke-width="1.5" opacity="1"/></g><g class="mark-text role-legend-label" pointer-events="none"><text text-anchor="start" transform="translate(16,9)" font-family="sans-serif" font-size="10px" fill="#000" opacity="1">karlmdavis/datanucleus-test-jdo-1…</text></g></g><path class="foreground" aria-hidden="true" d="" pointer-events="none" display="none"/></g><g transform="translate(0,182)"><path class="background" aria-hidden="true" d="M0,0h176v11h-176Z" pointer-events="none" opacity="1"/><g><g class="mark-symbol role-legend-symbol" pointer-events="none"><path transform="translate(6,6)" d="M5,0A5,5,0,1,1,-5,0A5,5,0,1,1,5,0" fill="#54a24b" stroke-width="1.5" opacity="1"/></g><g class="mark-text role-legend-label" pointer-events="none"><text text-anchor="start" transform="translate(16,9)" font-family="sans-serif" font-size="10px" fill="#000" opacity="1">karlmdavis/dotfiles</text></g></g><path class="foreground" aria-hidden="true" d="" pointer-events="none" display="none"/></g><g transform="translate(0,195)"><path class="background" aria-hidden="true" d="M0,0h176v11h-176Z" pointer-events="none" opacity="1"/><g><g class="mark-symbol role-legend-symbol" pointer-events="none"><path transform="translate(6,6)" d="M5,0A5,5,0,1,1,-5,0A5,5,0,1,1,5,0" fill="#eeca3b" stroke-width="1.5" opacity="1"/></g><g class="mark-text role-legend-label" pointer-events="none"><text text-anchor="start" transform="translate(16,9)" font-family="sans-serif" font-size="10px" fill="#000" opacity="1">karlmdavis/fhir-benchmarks</text></g></g><path class="foreground" aria-hidden="true" d="" pointer-events="none" display="none"/></g><g transform="translate(0,208)"><path class="background" aria-hidden="true" d="M0,0h176v11h-176Z" pointer-events="none" opacity="1"/><g><g class="mark-symbol role-legend-symbol" pointer-events="none"><path transform="translate(6,6)" d="M5,0A5,5,0,1,1,-5,0A5,5,0,1,1,5,0" fill="#b279a2" stroke-width="1.5" opacity="1"/></g><g class="mark-text role-legend-label" pointer-events="none"><text text-anchor="start" transform="translate(16,9)" font-family="sans-serif" font-size="10px" fill="#000" opacity="1">karlmdavis/hapi-fhir-jpaserver-sta…</text></g></g><path class="foreground" aria-hidden="true" d="" pointer-events="none" display="none"/></g><g transform="translate(0,221)"><path class="background" aria-hidden="true" d="M0,0h176v11h-176Z" pointer-events="none" opacity="1"/><g><g class="mark-symbol role-legend-symbol" pointer-events="none"><path transform="translate(6,6)" d="M5,0A5,5,0,1,1,-5,0A5,5,0,1,1,5,0" fill="#ff9da6" stroke-width="1.5" opacity="1"/></g><g class="mark-text role-legend-label" pointer-events="none"><text text-anchor="start" transform="translate(16,9)" font-family="sans-serif" font-size="10px" fill="#000" opacity="1">karlmdavis/hello-rust-actix</text></g></g><path class="foreground" aria-hidden="true" d="" pointer-events="none" display="none"/></g><g transform="translate(0,234)"><path class="background" aria-hidden="true" d="M0,0h176v11h-176Z" pointer-events="none" opacity="1"/><g><g class="mark-symbol role-legend-symbol" pointer-events="none"><path transform="translate(6,6)" d="M5,0A5,5,0,1,1,-5,0A5,5,0,1,1,5,0" fill="#9d755d" stroke-width="1.5" opacity="1"/></g><g class="mark-text role-legend-label" pointer-events="none"><text text-anchor="start" transform="translate(16,9)" font-family="sans-serif" font-size="10px" fill="#000" opacity="1">karlmdavis/jessentials</text></g></g><path class="foreground" aria-hidden="true" d="" pointer-events="none" display="none"/></g><g transform="translate(0,247)"><path class="background" aria-hidden="true" d="M0,0h176v11h-176Z" pointer-events="none" opacity="1"/><g><g class="mark-symbol role-legend-symbol" pointer-events="none"><path transform="translate(6,6)" d="M5,0A5,5,0,1,1,-5,0A5,5,0,1,1,5,0" fill="#bab0ac" stroke-width="1.5" opacity="1"/></g><g class="mark-text role-legend-label" pointer-events="none"><text text-anchor="start" transform="translate(16,9)" font-family="sans-serif" font-size="10px" fill="#000" opacity="1">karlmdavis/justdavis-ansible</text></g></g><path class="foreground" aria-hidden="true" d="" pointer-events="none" display="none"/></g><g transform="translate(0,260)"><path class="background" aria-hidden="true" d="M0,0h176v11h-176Z" pointer-events="none" opacity="1"/><g><g class="mark-symbol role-legend-symbol" pointer-events="none"><path transform="translate(6,6)" d="M5,0A5,5,0,1,1,-5,0A5,5,0,1,1,5,0" fill="#4c78a8" stroke-width="1.5" opacity="1"/></g><g class="mark-text role-legend-label" pointer-events="none"><text text-anchor="start" transform="translate(16,9)" font-family="sans-serif" font-size="10px" fill="#000" opacity="1">karlmdavis/justdavis-finances</text></g></g><path class="foreground" aria-hidden="true" d="" pointer-events="none" display="none"/></g><g transform="translate(0,273)"><path class="background" aria-hidden="true" d="M0,0h176v11h-176Z" pointer-events="none" opacity="1"/><g><g class="mark-symbol role-legend-symbol" pointer-events="none"><path transform="translate(6,6)" d="M5,0A5,5,0,1,1,-5,0A5,5,0,1,1,5,0" fill="#f58518" stroke-width="1.5" opacity="1"/></g><g class="mark-text role-legend-label" pointer-events="none"><text text-anchor="start" transform="translate(16,9)" font-family="sans-serif" font-size="10px" fill="#000" opacity="1">karlmdavis/justdavis-karl</text></g></g><path class="foreground" aria-hidden="true" d="" pointer-events="none" display="none"/></g><g transform="translate(0,286)"><path class="background" aria-hidden="true" d="M0,0h176v11h-176Z" pointer-events="none" opacity="1"/><g><g class="mark-symbol role-legend-symbol" pointer-events="none"><path transform="translate(6,6)" d="M5,0A5,5,0,1,1,-5,0A5,5,0,1,1,5,0" fill="#e45756" stroke-width="1.5" opacity="1"/></g><g class="mark-text role-legend-label" pointer-events="none"><text text-anchor="start" transform="translate(16,9)" font-family="sans-serif" font-size="10px" fill="#000" opacity="1">karlmdavis/justdavis-puppet</text></g></g><path class="foreground" aria-hidden="true" d="" pointer-events="none" display="none"/></g><g transform="translate(0,299)"><path class="background" aria-hidden="true" d="M0,0h176v11h-176Z" pointer-events="none" opacity="1"/><g><g class="mark-symbol role-legend-symbol" pointer-events="none"><path transform="translate(6,6)" d="M5,0A5,5,0,1,1,-5,0A5,5,0,1,1,5,0" fill="#72b7b2" stroke-width="1.5" opacity="1"/></g><g class="mark-text role-legend-label" pointer-events="none"><text text-anchor="start" transform="translate(16,9)" font-family="sans-serif" font-size="10px" fill="#000" opacity="1">karlmdavis/kobjects</text></g></g><path class="foreground" aria-hidden="true" d="" pointer-events="none" display="none"/></g><g transform="translate(0,312)"><path class="background" aria-hidden="true" d="M0,0h176v11h-176Z" pointer-events="none" opacity="1"/><g><g class="mark-symbol role-legend-symbol" pointer-events="none"><path transform="translate(6,6)" d="M5,0A5,5,0,1,1,-5,0A5,5,0,1,1,5,0" fill="#54a24b" stroke-width="1.5" opacity="1"/></g><g class="mark-text role-legend-label" pointer-events="none"><text text-anchor="start" transform="translate(16,9)" font-family="sans-serif" font-size="10px" fill="#000" opacity="1">karlmdavis/ksoap2-android</text></g></g><path class="foreground" aria-hidden="true" d="" pointer-events="none" display="none"/></g><g transform="translate(0,325)"><path class="background" aria-hidden="true" d="M0,0h176v11h-176Z" pointer-events="none" opacity="1"/><g><g class="mark-symbol role-legend-symbol" pointer-events="none"><path transform="translate(6,6)" d="M5,0A5,5,0,1,1,-5,0A5,5,0,1,1,5,0" fill="#eeca3b" stroke-width="1.5" opacity="1"/></g><g class="mark-text role-legend-label" pointer-events="none"><text text-anchor="start" transform="translate(16,9)" font-family="sans-serif" font-size="10px" fill="#000" opacity="1">karlmdavis/kxml2</text></g></g><path class="foreground" aria-hidden="true" d="" pointer-events="none" display="none"/></g><g transform="translate(0,338)"><path class="background" aria-hidden="true" d="M0,0h176v11h-176Z" pointer-events="none" opacity="1"/><g><g class="mark-symbol role-legend-symbol" pointer-events="none"><path transform="translate(6,6)" d="M5,0A5,5,0,1,1,-5,0A5,5,0,1,1,5,0" fill="#b279a2" stroke-width="1.5" opacity="1"/></g><g class="mark-text role-legend-label" pointer-events="none"><text text-anchor="start" transform="translate(16,9)" font-family="sans-serif" font-size="10px" fill="#000" opacity="1">karlmdavis/ldap-plugin</text></g></g><path class="foreground" aria-hidden="true" d="" pointer-events="none" display="none"/></g><g transform="translate(0,351)"><path class="background" aria-hidden="true" d="M0,0h176v11h-176Z" pointer-events="none" opacity="1"/><g><g class="mark-symbol role-legend-symbol" pointer-events="none"><path transform="translate(6,6)" d="M5,0A5,5,0,1,1,-5,0A5,5,0,1,1,5,0" fill="#ff9da6" stroke-width="1.5" opacity="1"/></g><g class="mark-text role-legend-label" pointer-events="none"><text text-anchor="start" transform="translate(16,9)" font-family="sans-serif" font-size="10px" fill="#000" opacity="1">karlmdavis/lego-ev3dev-rs</text></g></g><path class="foreground" aria-hidden="true" d="" pointer-events="none" display="none"/></g><g transform="translate(0,364)"><path class="background" aria-hidden="true" d="M0,0h176v11h-176Z" pointer-events="none" opacity="1"/><g><g class="mark-symbol role-legend-symbol" pointer-events="none"><path transform="translate(6,6)" d="M5,0A5,5,0,1,1,-5,0A5,5,0,1,1,5,0" fill="#9d755d" stroke-width="1.5" opacity="1"/></g><g class="mark-text role-legend-label" pointer-events="none"><text text-anchor="start" transform="translate(16,9)" font-family="sans-serif" font-size="10px" fill="#000" opacity="1">karlmdavis/liquibase</text></g></g><path class="foreground" aria-hidden="true" d="" pointer-events="none" display="none"/></g><g transform="translate(0,377)"><path class="background" aria-hidden="true" d="M0,0h176v11h-176Z" pointer-events="none" opacity="1"/><g><g class="mark-symbol role-legend-symbol" pointer-events="none"><path transform="translate(6,6)" d="M5,0A5,5,0,1,1,-5,0A5,5,0,1,1,5,0" fill="#bab0ac" stroke-width="1.5" opacity="1"/></g><g class="mark-text role-legend-label" pointer-events="none"><text text-anchor="start" transform="translate(16,9)" font-family="sans-serif" font-size="10px" fill="#000" opacity="1">…14 entries</text></g></g><path class="foreground" aria-hidden="true" d="" pointer-events="none" display="none"/></g></g></g><path class="foreground" aria-hidden="true" d="" pointer-events="none" display="none"/></g></g><g class="mark-text role-legend-title" pointer-events="none"><text text-anchor="start" transform="translate(0,9)" font-family="sans-serif" font-size="11px" font-weight="bold" fill="#000" opacity="1">Repository</text></g></g><path class="foreground" aria-hidden="true" d="" pointer-events="none" display="none"/></g></g><g class="mark-group role-title"><g transform="translate(400,-22)"><path class="background" aria-hidden="true" d="M0,0h0v0h0Z" pointer-events="none"/><g><g class="mark-text role-title-text" role="graphics-symbol" aria-roledescription="title" aria-label="Title text 'Unique Clones per Day'" pointer-events="none"><text text-anchor="middle" transform="translate(0,10)" font-family="sans-serif" font-size="13px" font-weight="bold" fill="#000" opacity="1">Unique Clones per Day</text></g></g><path class="foreground" aria-hidden="true" d="" pointer-events="none" display="none"/></g></g></g><path class="foreground" aria-hidden="true" d="" display="none"/></g></g></g></svg>