<svg xmlns="http://www.w3.org/2000/svg" xmlns:xlink="http://www.w3.org/1999/xlink" version="1.1" class="marks" width="1032" height="436" viewBox="0 0 1032 436"><rect width="1032" height="436" fill="white"/><g fill="none" stroke-miterlimit="10" transform="translate(33,27)"><g class="mark-group role-frame root" role="graphics-object" aria-roledescription="group mark container"><g transform="translate(0,0)"><path class="background" aria-hidden="true" d="M0.5,0.5h800v300h-800Z" stroke="#ddd"/><g><g class="mark-group role-axis" aria-hidden="true"><g transform="translate(0.5,300.5)"><path class="background" aria-hidden="true" d="M0,0h0v0h0Z" pointer-events="none"/><g><g class="mark-rule role-axis-grid" pointer-events="none"><line transform="translate(19,-300)" x2="0" y2="300" stroke="#ddd" stroke-width="1" opacity="1"/><line transform="translate(57,-300)" x2="0" y2="300" stroke="#ddd" stroke-width="1" opacity="1"/><line transform="translate(95,-300)" x2="0" y2="300" stroke="#ddd" stroke-width="1" opacity="1"/><line transform="translate(133,-300)" x2="0" y2="300" stroke="#ddd" stroke-width="1" opacity="1"/><line transform="translate(171,-300)" x2="0" y2="300" stroke="#ddd" stroke-width="1" opacity="1"/><line transform="translate(210,-300)" x2="0" y2="300" stroke="#ddd" stroke-width="1" opacity="1"/><line transform="translate(248,-300)" x2="0" y2="300" stroke="#ddd" stroke-width="1" opacity="1"/><line transform="translate(286,-300)" x2="0" y2="300" stroke="#ddd" stroke-width="1" opacity="1"/><line transform="translate(305,-300)" x2="0" y2="300" stroke="#ddd" stroke-width="1" opacity="1"/><line transform="translate(343,-300)" x2="0" y2="300" stroke="#ddd" stroke-width="1" opacity="1"/><line transform="translate(381,-300)" x2="0" y2="300" stroke="#ddd" stroke-width="1" opacity="1"/><line transform="translate(419,-300)" x2="0" y2="300" stroke="#ddd" stroke-width="1" opacity="1"/><line transform="translate(457,-300)" x2="0" y2="300" stroke="#ddd" stroke-width="1" opacity="1"/><line transform="translate(495,-300)" x2="0" y2="300" stroke="#ddd" stroke-width="1" opacity="1"/><line transform="translate(533,-300)" x2="0" y2="300" stroke="#ddd" stroke-width="1" opacity="1"/><line transform="translate(571,-300)" x2="0" y2="300" stroke="#ddd" stroke-width="1" opacity="1"/><line transform="translate(610,-300)" x2="0" y2="300" stroke="#ddd" stroke-width="1" opacity="1"/><line transform="translate(648,-300)" x2="0" y2="300" stroke="#ddd" stroke-width="1" opacity="1"/><line transform="translate(686,-300)" x2="0" y2="300" stroke="#ddd" stroke-width="1" opacity="1"/><line transform="translate(724,-300)" x2="0" y2="300" stroke="#ddd" stroke-width="1" opacity="1"/><line transform="translate(762,-300)" x2="0" y2="300" stroke="#ddd" stroke-width="1" opacity="1"/><line transform="translate(800,-300)" x2="0" y2="300" stroke="#ddd" stroke-width="1" opacity="1"/></g></g><path class="foreground" aria-hidden="true" d="" pointer-events="none" display="none"/></g></g><g class="mark-group role-axis" aria-hidden="true"><g transform="translate(0.5,0.5)"><path class="background" aria-hidden="true" d="M0,0h0v0h0Z" pointer-events="none"/><g><g class="mark-rule role-axis-grid" pointer-events="none"><line transform="translate(0,300)" x2="800" y2="0" stroke="#ddd" stroke-width="1" opacity="1"/><line transform="translate(0,263)" x2="800" y2="0" stroke="#ddd" stroke-width="1" opacity="1"/><line transform="translate(0,225)" x2="800" y2="0" stroke="#ddd" stroke-width="1" opacity="1"/><line transform="translate(0,188)" x2="800" y2="0" stroke="#ddd" stroke-width="1" opacity="1"/><line transform="translate(0,150)" x2="800" y2="0" stroke="#ddd" stroke-width="1" opacity="1"/><line transform="translate(0,113)" x2="800" y2="0" stroke="#ddd" stroke-width="1" opacity="1"/><line transform="translate(0,75)" x2="800" y2="0" stroke="#ddd" stroke-width="1" opacity="1"/><line transform="translate(0,38)" x2="800" y2="0" stroke="#ddd" stroke-width="1" opacity="1"/><line transform="translate(0,0)" x2="800" y2="0" stroke="#ddd" stroke-width="1" opacity="1"/></g></g><path class="foreground" aria-hidden="true" d="" pointer-events="none" display="none"/></g></g><g class="mark-group role-axis" role="graphics-symbol" aria-roledescription="axis" aria-label="X-axis titled 'Date' for a time scale with values from Monday, 16 March 2026, 12:00:00 AM to Monday, 27 April 2026, 12:00:00 AM"><g transform="translate(0.5,300.5)"><path class="background" aria-hidden="true" d="M0,0h0v0h0Z" pointer-events="none"/><g><g class="mark-rule role-axis-tick" pointer-events="none"><line transform="translate(19,0)" x2="0" y2="5" stroke="#888" stroke-width="1" opacity="1"/><line transform="translate(57,0)" x2="0" y2="5" stroke="#888" stroke-width="1" opacity="1"/><line transform="translate(95,0)" x2="0" y2="5" stroke="#888" stroke-width="1" opacity="1"/><line transform="translate(133,0)" x2="0" y2="5" stroke="#888" stroke-width="1" opacity="1"/><line transform="translate(171,0)" x2="0" y2="5" stroke="#888" stroke-width="1" opacity="1"/><line transform="translate(210,0)" x2="0" y2="5" stroke="#888" stroke-width="1" opacity="1"/><line transform="translate(248,0)" x2="0" y2="5" stroke="#888" stroke-width="1" opacity="1"/><line transform="translate(286,0)" x2="0" y2="5" stroke="#888" stroke-width="1" opacity="1"/><line transform="translate(305,0)" x2="0" y2="5" stroke="#888" stroke-width="1" opacity="1"/><line transform="translate(343,0)" x2="0" y2="5" stroke="#888" stroke-width="1" opacity="1"/><line transform="translate(381,0)" x2="0" y2="5" stroke="#888" stroke-width="1" opacity="1"/><line transform="translate(419,0)" x2="0" y2="5" stroke="#888" stroke-width="1" opacity="1"/><line transform="translate(457,0)" x2="0" y2="5" stroke="#888" stroke-width="1" opacity="1"/><line transform="translate(495,0)" x2="0" y2="5" stroke="#888" stroke-width="1" opacity="1"/><line transform="translate(533,0)" x2="0" y2="5" stroke="#888" stroke-width="1" opacity="1"/><line transform="translate(571,0)" x2="0" y2="5" stroke="#888" stroke-width="1" opacity="1"/><line transform="translate(610,0)" x2="0" y2="5" stroke="#888" stroke-width="1" opacity="1"/><line transform="translate(648,0)" x2="0" y2="5" stroke="#888" stroke-width="1" opacity="1"/><line transform="translate(686,0)" x2="0" y2="5" stroke="#888" stroke-width="1" opacity="1"/><line transform="translate(724,0)" x2="0" y2="5" stroke="#888" stroke-width="1" opacity="1"/><line transform="translate(762,0)" x2="0" y2="5" stroke="#888" stroke-width="1" opacity="1"/><line transform="translate(800,0)" x2="0" y2="5" stroke="#888" stroke-width="1" opacity="1"/></g><g class="mark-text role-axis-label" pointer-events="none"><text text-anchor="middle" transform="translate(19.047619047619047,15)" font-family="sans-serif" font-size="10px" fill="#000" opacity="1">Tue 17</text><text text-anchor="middle" transform="translate(57.14285714285714,15)" font-family="sans-serif" font-size="10px" fill="#000" opacity="0">Thu 19</text><text text-anchor="middle" transform="translate(95.23809523809523,15)" font-family="sans-serif" font-size="10px" fill="#000" opacity="1">Sat 21</text><text text-anchor="middle" transform="translate(133.33333333333331,15)" font-family="sans-serif" font-size="10px" fill="#000" opacity="0">Mon 23</text><text text-anchor="middle" transform="translate(171.42857142857142,15)" font-family="sans-serif" font-size="10px" fill="#000" opacity="1">Wed 25</text><text text-anchor="middle" transform="translate(209.52380952380955,15)" font-family="sans-serif" font-size="10px" fill="#000" opacity="0">Fri 27</text><text text-anchor="middle" transform="translate(247.61904761904762,15)" font-family="sans-serif" font-size="10px" fill="#000" opacity="1">Mar 29</text><text text-anchor="middle" transform="translate(285.7142857142857,15)" font-family="sans-serif" font-size="10px" fill="#000" opacity="0">Tue 31</text><text text-anchor="middle" transform="translate(304.76190476190476,15)" font-family="sans-serif" font-size="10px" fill="#000" opacity="1">April</text><text text-anchor="middle" transform="translate(342.85714285714283,15)" font-family="sans-serif" font-size="10px" fill="#000" opacity="0">Fri 03</text><text text-anchor="middle" transform="translate(380.9523809523809,15)" font-family="sans-serif" font-size="10px" fill="#000" opacity="1">Apr 05</text><text text-anchor="middle" transform="translate(419.0476190476191,15)" font-family="sans-serif" font-size="10px" fill="#000" opacity="0">Tue 07</text><text text-anchor="middle" transform="translate(457.1428571428571,15)" font-family="sans-serif" font-size="10px" fill="#000" opacity="1">Thu 09</text><text text-anchor="middle" transform="translate(495.23809523809524,15)" font-family="sans-serif" font-size="10px" fill="#000" opacity="0">Sat 11</text><text text-anchor="middle" transform="translate(533.3333333333333,15)" font-family="sans-serif" font-size="10px" fill="#000" opacity="1">Mon 13</text><text text-anchor="middle" transform="translate(571.4285714285714,15)" font-family="sans-serif" font-size="10px" fill="#000" opacity="0">Wed 15</text><text text-anchor="middle" transform="translate(609.5238095238095,15)" font-family="sans-serif" font-size="10px" fill="#000" opacity="1">Fri 17</text><text text-anchor="middle" transform="translate(647.6190476190476,15)" font-family="sans-serif" font-size="10px" fill="#000" opacity="0">Apr 19</text><text text-anchor="middle" transform="translate(685.7142857142857,15)" font-family="sans-serif" font-size="10px" fill="#000" opacity="1">Tue 21</text><text text-anchor="middle" transform="translate(723.8095238095239,15)" font-family="sans-serif" font-size="10px" fill="#000" opacity="0">Thu 23</text><text text-anchor="middle" transform="translate(761.9047619047618,15)" font-family="sans-serif" font-size="10px" fill="#000" opacity="1">Sat 25</text><text text-anchor="end" transform="translate(800,15)" font-family="sans-serif" font-size="10px" fill="#000" opacity="0">Mon 27</text></g><g class="mark-rule role-axis-domain" pointer-events="none"><line transform="translate(0,0)" x2="800" y2="0" stroke="#888" stroke-width="1" opacity="1"/></g><g class="mark-text role-axis-title" pointer-events="none"><text text-anchor="middle" transform="translate(400,30)" font-family="sans-serif" font-size="11px" font-weight="bold" fill="#000" opacity="1">Date</text></g></g><path class="foreground" aria-hidden="true" d="" pointer-events="none" display="none"/></g></g><g class="mark-group role-axis" role="graphics-symbol" aria-roledescription="axis" aria-label="Y-axis titled 'Unique Visitors/day' for a linear scale with values from 0 to 8"><g transform="translate(0.5,0.5)"><path class="background" aria-hidden="true" d="M0,0h0v0h0Z" pointer-events="none"/><g><g class="mark-rule role-axis-tick" pointer-events="none"><line transform="translate(0,300)" x2="-5" y2="0" stroke="#888" stroke-width="1" opacity="1"/><line transform="translate(0,263)" x2="-5" y2="0" stroke="#888" stroke-width="1" opacity="1"/><line transform="translate(0,225)" x2="-5" y2="0" stroke="#888" stroke-width="1" opacity="1"/><line transform="translate(0,188)" x2="-5" y2="0" stroke="#888" stroke-width="1" opacity="1"/><line transform="translate(0,150)" x2="-5" y2="0" stroke="#888" stroke-width="1" opacity="1"/><line transform="translate(0,113)" x2="-5" y2="0" stroke="#888" stroke-width="1" opacity="1"/><line transform="translate(0,75)" x2="-5" y2="0" stroke="#888" stroke-width="1" opacity="1"/><line transform="translate(0,38)" x2="-5" y2="0" stroke="#888" stroke-width="1" opacity="1"/><line transform="translate(0,0)" x2="-5" y2="0" stroke="#888" stroke-width="1" opacity="1"/></g><g class="mark-text role-axis-label" pointer-events="none"><text text-anchor="end" transform="translate(-7,303)" font-family="sans-serif" font-size="10px" fill="#000" opacity="1">0</text><text text-anchor="end" transform="translate(-7,265.5)" font-family="sans-serif" font-size="10px" fill="#000" opacity="1">1</text><text text-anchor="end" transform="translate(-7,228)" font-family="sans-serif" font-size="10px" fill="#000" opacity="1">2</text><text text-anchor="end" transform="translate(-7,190.5)" font-family="sans-serif" font-size="10px" fill="#000" opacity="1">3</text><text text-anchor="end" transform="translate(-7,153)" font-family="sans-serif" font-size="10px" fill="#000" opacity="1">4</text><text text-anchor="end" transform="translate(-7,115.5)" font-family="sans-serif" font-size="10px" fill="#000" opacity="1">5</text><text text-anchor="end" transform="translate(-7,78)" font-family="sans-serif" font-size="10px" fill="#000" opacity="1">6</text><text text-anchor="end" transform="translate(-7,40.5)" font-family="sans-serif" font-size="10px" fill="#000" opacity="1">7</text><text text-anchor="end" transform="translate(-7,3)" font-family="sans-serif" font-size="10px" fill="#000" opacity="1">8</text></g><g class="mark-rule role-axis-domain" pointer-events="none"><line transform="translate(0,300)" x2="0" y2="-300" stroke="#888" stroke-width="1" opacity="1"/></g><g class="mark-text role-axis-title" pointer-events="none"><text text-anchor="middle" transform="translate(-16.5615234375,150) rotate(-90) translate(0,-2)" font-family="sans-serif" font-size="11px" font-weight="bold" fill="#000" opacity="1">Unique Visitors/day</text></g></g><path class="foreground" aria-hidden="true" d="" pointer-events="none" display="none"/></g></g><g class="mark-group role-scope pathgroup" role="graphics-object" aria-roledescription="group mark container"><g transform="translate(0,0)"><path class="background" aria-hidden="true" d="M0,0h800v300h-800Z"/><g><g class="mark-area role-mark marks" role="graphics-object" aria-roledescription="area mark container"><path aria-label="Date: Mar 16, 2026; Unique Visitors/day: 0; Repository: justdavis-family/github-analytics-data" role="graphics-symbol" aria-roledescription="area mark" d="M0,300L19.048,300L38.095,300L57.143,300L76.19,300L95.238,300L114.286,300L133.333,187.5L152.381,187.5L171.429,150L190.476,187.5L209.524,187.5L228.571,187.5L247.619,262.5L266.667,0L285.714,262.5L304.762,150L323.81,262.5L342.857,300L361.905,225L380.952,262.5L400,300L419.048,187.5L438.095,262.5L457.143,262.5L476.19,225L495.238,300L514.286,75L533.333,300L552.381,262.5L571.429,187.5L590.476,262.5L609.524,225L628.571,300L647.619,262.5L666.667,187.5L685.714,187.5L704.762,150L723.81,225L742.857,225L761.905,262.5L780.952,300L800,187.5L800,187.5L780.952,300L761.905,262.5L742.857,225L723.81,225L704.762,150L685.714,187.5L666.667,187.5L647.619,262.5L628.571,300L609.524,225L590.476,300L571.429,187.5L552.381,262.5L533.333,300L514.286,75L495.238,300L476.19,225L457.143,262.5L438.095,262.5L419.048,187.5L400,300L380.952,262.5L361.905,225L342.857,300L323.81,262.5L304.762,150L285.714,262.5L266.667,0L247.619,262.5L228.571,187.5L209.524,187.5L190.476,187.5L171.429,150L152.381,187.5L133.333,187.5L114.286,300L95.238,300L76.19,300L57.143,300L38.095,300L19.048,300L0,300Z" fill="#4c78a8"/></g></g><path class="foreground" aria-hidden="true" d="" display="none"/></g><g transform="translate(0,0)"><path class="background" aria-hidden="true" d="M0,0h800v300h-800Z"/><g><g class="mark-area role-mark marks" role="graphics-object" aria-roledescription="area mark container"><path aria-label="Date: Mar 16, 2026; Unique Visitors/day: 0; Repository: justdavis-family/justdavis" role="graphics-symbol" aria-roledescription="area mark" d="M0,300L19.048,300L38.095,300L57.143,300L76.19,300L95.238,300L114.286,300L133.333,187.5L152.381,187.5L171.429,150L190.476,187.5L209.524,187.5L228.571,187.5L247.619,262.5L266.667,0L285.714,262.5L304.762,150L323.81,262.5L342.857,300L361.905,225L380.952,262.5L400,300L419.048,187.5L438.095,262.5L457.143,262.5L476.19,225L495.238,300L514.286,75L533.333,300L552.381,262.5L571.429,187.5L590.476,300L609.524,225L628.571,300L647.619,262.5L666.667,187.5L685.714,187.5L704.762,150L723.81,225L742.857,225L761.905,262.5L780.952,300L800,187.5L800,187.5L780.952,300L761.905,262.5L742.857,225L723.81,225L704.762,187.5L685.714,187.5L666.667,187.5L647.619,262.5L628.571,300L609.524,225L590.476,300L571.429,187.5L552.381,262.5L533.333,300L514.286,75L495.238,300L476.19,225L457.143,262.5L438.095,262.5L419.048,262.5L400,300L380.952,262.5L361.905,225L342.857,300L323.81,262.5L304.762,150L285.714,262.5L266.667,37.5L247.619,262.5L228.571,187.5L209.524,187.5L190.476,187.5L171.429,150L152.381,187.5L133.333,187.5L114.286,300L95.238,300L76.19,300L57.143,300L38.095,300L19.048,300L0,300Z" fill="#f58518"/></g></g><path class="foreground" aria-hidden="true" d="" display="none"/></g><g transform="translate(0,0)"><path class="background" aria-hidden="true" d="M0,0h800v300h-800Z"/><g><g class="mark-area role-mark marks" role="graphics-object" aria-roledescription="area mark container"><path aria-label="Date: Mar 16, 2026; Unique Visitors/day: 0; Repository: karlmdavis/FHIR-Server" role="graphics-symbol" aria-roledescription="area mark" d="M0,300L19.048,300L38.095,300L57.143,300L76.19,300L95.238,300L114.286,300L133.333,187.5L152.381,187.5L171.429,150L190.476,187.5L209.524,187.5L228.571,187.5L247.619,262.5L266.667,37.5L285.714,262.5L304.762,150L323.81,262.5L342.857,300L361.905,225L380.952,262.5L400,300L419.048,262.5L438.095,262.5L457.143,262.5L476.19,225L495.238,300L514.286,75L533.333,300L552.381,262.5L571.429,187.5L590.476,300L609.524,225L628.571,300L647.619,262.5L666.667,187.5L685.714,187.5L704.762,187.5L723.81,225L742.857,225L761.905,262.5L780.952,300L800,187.5L800,187.5L780.952,300L761.905,262.5L742.857,225L723.81,225L704.762,187.5L685.714,187.5L666.667,187.5L647.619,262.5L628.571,300L609.524,225L590.476,300L571.429,187.5L552.381,262.5L533.333,300L514.286,75L495.238,300L476.19,225L457.143,262.5L438.095,262.5L419.048,262.5L400,300L380.952,262.5L361.905,225L342.857,300L323.81,262.5L304.762,150L285.714,262.5L266.667,37.5L247.619,262.5L228.571,187.5L209.524,187.5L190.476,187.5L171.429,150L152.381,187.5L133.333,187.5L114.286,300L95.238,300L76.19,300L57.143,300L38.095,300L19.048,300L0,300Z" fill="#e45756"/></g></g><path class="foreground" aria-hidden="true" d="" display="none"/></g><g transform="translate(0,0)"><path class="background" aria-hidden="true" d="M0,0h800v300h-800Z"/><g><g class="mark-area role-mark marks" role="graphics-object" aria-roledescription="area mark container"><path aria-label="Date: Mar 16, 2026; Unique Visitors/day: 0; Repository: karlmdavis/ansible" role="graphics-symbol" aria-roledescription="area mark" d="M0,300L19.048,300L38.095,300L57.143,300L76.19,300L95.238,300L114.286,300L133.333,187.5L152.381,187.5L171.429,150L190.476,187.5L209.524,187.5L228.571,187.5L247.619,262.5L266.667,37.5L285.714,262.5L304.762,150L323.81,262.5L342.857,300L361.905,225L380.952,262.5L400,300L419.048,262.5L438.095,262.5L457.143,262.5L476.19,225L495.238,300L514.286,75L533.333,300L552.381,262.5L571.429,187.5L590.476,300L609.524,225L628.571,300L647.619,262.5L666.667,187.5L685.714,187.5L704.762,187.5L723.81,225L742.857,225L761.905,262.5L780.952,300L800,187.5L800,187.5L780.952,300L761.905,262.5L742.857,225L723.81,225L704.762,187.5L685.714,187.5L666.667,187.5L647.619,262.5L628.571,300L609.524,225L590.476,300L571.429,187.5L552.381,262.5L533.333,300L514.286,75L495.238,300L476.19,225L457.143,262.5L438.095,262.5L419.048,262.5L400,300L380.952,262.5L361.905,225L342.857,300L323.81,262.5L304.762,150L285.714,262.5L266.667,37.5L247.619,262.5L228.571,187.5L209.524,187.5L190.476,187.5L171.429,150L152.381,187.5L133.333,187.5L114.286,300L95.238,300L76.19,300L57.143,300L38.095,300L19.048,300L0,300Z" fill="#72b7b2"/></g></g><path class="foreground" aria-hidden="true" d="" display="none"/></g><g transform="translate(0,0)"><path class="background" aria-hidden="true" d="M0,0h800v300h-800Z"/><g><g class="mark-area role-mark marks" role="graphics-object" aria-roledescription="area mark container"><path aria-label="Date: Mar 16, 2026; Unique Visitors/day: 0; Repository: karlmdavis/ansible-jenkins" role="graphics-symbol" aria-roledescription="area mark" d="M0,300L19.048,300L38.095,300L57.143,300L76.19,300L95.238,300L114.286,300L133.333,187.5L152.381,187.5L171.429,150L190.476,187.5L209.524,187.5L228.571,187.5L247.619,262.5L266.667,37.5L285.714,262.5L304.762,150L323.81,262.5L342.857,300L361.905,225L380.952,262.5L400,300L419.048,262.5L438.095,262.5L457.143,262.5L476.19,225L495.238,300L514.286,75L533.333,300L552.381,262.5L571.429,187.5L590.476,300L609.524,225L628.571,300L647.619,262.5L666.667,187.5L685.714,187.5L704.762,187.5L723.81,225L742.857,225L761.905,262.5L780.952,300L800,187.5L800,187.5L780.952,300L761.905,262.5L742.857,225L723.81,225L704.762,187.5L685.714,187.5L666.667,187.5L647.619,262.5L628.571,300L609.524,225L590.476,300L571.429,187.5L552.381,262.5L533.333,300L514.286,75L495.238,300L476.19,225L457.143,262.5L438.095,262.5L419.048,262.5L400,300L380.952,262.5L361.905,225L342.857,300L323.81,262.5L304.762,150L285.714,262.5L266.667,37.5L247.619,262.5L228.571,187.5L209.524,187.5L190.476,187.5L171.429,150L152.381,187.5L133.333,187.5L114.286,300L95.238,300L76.19,300L57.143,300L38.095,300L19.048,300L0,300Z" fill="#54a24b"/></g></g><path class="foreground" aria-hidden="true" d="" display="none"/></g><g transform="translate(0,0)"><path class="background" aria-hidden="true" d="M0,0h800v300h-800Z"/><g><g class="mark-area role-mark marks" role="graphics-object" aria-roledescription="area mark container"><path aria-label="Date: Mar 16, 2026; Unique Visitors/day: 0; Repository: karlmdavis/ansible-role-acmetool" role="graphics-symbol" aria-roledescription="area mark" d="M0,300L19.048,300L38.095,300L57.143,300L76.19,300L95.238,300L114.286,300L133.333,187.5L152.381,187.5L171.429,150L190.476,187.5L209.524,187.5L228.571,187.5L247.619,262.5L266.667,37.5L285.714,262.5L304.762,150L323.81,262.5L342.857,300L361.905,225L380.952,262.5L400,300L419.048,262.5L438.095,262.5L457.143,262.5L476.19,225L495.238,300L514.286,75L533.333,300L552.381,262.5L571.429,187.5L590.476,300L609.524,225L628.571,300L647.619,262.5L666.667,187.5L685.714,187.5L704.762,187.5L723.81,225L742.857,225L761.905,262.5L780.952,300L800,187.5L800,187.5L780.952,300L761.905,262.5L742.857,225L723.81,225L704.762,187.5L685.714,187.5L666.667,187.5L647.619,262.5L628.571,300L609.524,225L590.476,300L571.429,187.5L552.381,262.5L533.333,300L514.286,75L495.238,300L476.19,225L457.143,262.5L438.095,262.5L419.048,262.5L400,300L380.952,262.5L361.905,225L342.857,300L323.81,262.5L304.762,150L285.714,262.5L266.667,37.5L247.619,262.5L228.571,187.5L209.524,187.5L190.476,187.5L171.429,150L152.381,187.5L133.333,187.5L114.286,300L95.238,300L76.19,300L57.143,300L38.095,300L19.048,300L0,300Z" fill="#eeca3b"/></g></g><path class="foreground" aria-hidden="true" d="" display="none"/></g><g transform="translate(0,0)"><path class="background" aria-hidden="true" d="M0,0h800v300h-800Z"/><g><g class="mark-area role-mark marks" role="graphics-object" aria-roledescription="area mark container"><path aria-label="Date: Mar 16, 2026; Unique Visitors/day: 0; Repository: karlmdavis/ansible-role-bind-dns" role="graphics-symbol" aria-roledescription="area mark" d="M0,300L19.048,300L38.095,300L57.143,300L76.19,300L95.238,300L114.286,300L133.333,187.5L152.381,187.5L171.429,150L190.476,187.5L209.524,187.5L228.571,187.5L247.619,262.5L266.667,37.5L285.714,262.5L304.762,150L323.81,262.5L342.857,300L361.905,225L380.952,262.5L400,300L419.048,262.5L438.095,262.5L457.143,262.5L476.19,225L495.238,300L514.286,75L533.333,300L552.381,262.5L571.429,187.5L590.476,300L609.524,225L628.571,300L647.619,262.5L666.667,187.5L685.714,187.5L704.762,187.5L723.81,225L742.857,225L761.905,262.5L780.952,300L800,187.5L800,187.5L780.952,300L761.905,262.5L742.857,225L723.81,225L704.762,187.5L685.714,187.5L666.667,187.5L647.619,300L628.571,300L609.524,225L590.476,300L571.429,225L552.381,262.5L533.333,300L514.286,75L495.238,300L476.19,225L457.143,262.5L438.095,262.5L419.048,262.5L400,300L380.952,262.5L361.905,262.5L342.857,300L323.81,262.5L304.762,150L285.714,262.5L266.667,37.5L247.619,262.5L228.571,225L209.524,187.5L190.476,187.5L171.429,187.5L152.381,187.5L133.333,187.5L114.286,300L95.238,300L76.19,300L57.143,300L38.095,300L19.048,300L0,300Z" fill="#b279a2"/></g></g><path class="foreground" aria-hidden="true" d="" display="none"/></g><g transform="translate(0,0)"><path class="background" aria-hidden="true" d="M0,0h800v300h-800Z"/><g><g class="mark-area role-mark marks" role="graphics-object" aria-roledescription="area mark container"><path aria-label="Date: Mar 16, 2026; Unique Visitors/day: 0; Repository: karlmdavis/ansible-role-jenkins2" role="graphics-symbol" aria-roledescription="area mark" d="M0,300L19.048,300L38.095,300L57.143,300L76.19,300L95.238,300L114.286,300L133.333,187.5L152.381,187.5L171.429,187.5L190.476,187.5L209.524,187.5L228.571,225L247.619,262.5L266.667,37.5L285.714,262.5L304.762,150L323.81,262.5L342.857,300L361.905,262.5L380.952,262.5L400,300L419.048,262.5L438.095,262.5L457.143,262.5L476.19,225L495.238,300L514.286,75L533.333,300L552.381,262.5L571.429,225L590.476,300L609.524,225L628.571,300L647.619,300L666.667,187.5L685.714,187.5L704.762,187.5L723.81,225L742.857,225L761.905,262.5L780.952,300L800,187.5L800,187.5L780.952,300L761.905,262.5L742.857,225L723.81,225L704.762,187.5L685.714,187.5L666.667,225L647.619,300L628.571,300L609.524,225L590.476,300L571.429,225L552.381,262.5L533.333,300L514.286,112.5L495.238,300L476.19,225L457.143,262.5L438.095,262.5L419.048,262.5L400,300L380.952,262.5L361.905,262.5L342.857,300L323.81,262.5L304.762,150L285.714,262.5L266.667,75L247.619,300L228.571,225L209.524,187.5L190.476,187.5L171.429,187.5L152.381,187.5L133.333,187.5L114.286,300L95.238,300L76.19,300L57.143,300L38.095,300L19.048,300L0,300Z" fill="#ff9da6"/></g></g><path class="foreground" aria-hidden="true" d="" display="none"/></g><g transform="translate(0,0)"><path class="background" aria-hidden="true" d="M0,0h800v300h-800Z"/><g><g class="mark-area role-mark marks" role="graphics-object" aria-roledescription="area mark container"><path aria-label="Date: Mar 16, 2026; Unique Visitors/day: 0; Repository: karlmdavis/ansible-role-ldap" role="graphics-symbol" aria-roledescription="area mark" d="M0,300L19.048,300L38.095,300L57.143,300L76.19,300L95.238,300L114.286,300L133.333,187.5L152.381,187.5L171.429,187.5L190.476,187.5L209.524,187.5L228.571,225L247.619,300L266.667,75L285.714,262.5L304.762,150L323.81,262.5L342.857,300L361.905,262.5L380.952,262.5L400,300L419.048,262.5L438.095,262.5L457.143,262.5L476.19,225L495.238,300L514.286,112.5L533.333,300L552.381,262.5L571.429,225L590.476,300L609.524,225L628.571,300L647.619,300L666.667,225L685.714,187.5L704.762,187.5L723.81,225L742.857,225L761.905,262.5L780.952,300L800,187.5L800,187.5L780.952,300L761.905,262.5L742.857,225L723.81,225L704.762,187.5L685.714,187.5L666.667,225L647.619,300L628.571,300L609.524,225L590.476,300L571.429,225L552.381,262.5L533.333,300L514.286,112.5L495.238,300L476.19,225L457.143,262.5L438.095,262.5L419.048,262.5L400,300L380.952,262.5L361.905,262.5L342.857,300L323.81,262.5L304.762,150L285.714,262.5L266.667,75L247.619,300L228.571,225L209.524,187.5L190.476,187.5L171.429,187.5L152.381,187.5L133.333,187.5L114.286,300L95.238,300L76.19,300L57.143,300L38.095,300L19.048,300L0,300Z" fill="#9d755d"/></g></g><path class="foreground" aria-hidden="true" d="" display="none"/></g><g transform="translate(0,0)"><path class="background" aria-hidden="true" d="M0,0h800v300h-800Z"/><g><g class="mark-area role-mark marks" role="graphics-object" aria-roledescription="area mark container"><path aria-label="Date: Mar 16, 2026; Unique Visitors/day: 0; Repository: karlmdavis/ansible-role-rcm-dotfiles" role="graphics-symbol" aria-roledescription="area mark" d="M0,300L19.048,300L38.095,300L57.143,300L76.19,300L95.238,300L114.286,300L133.333,187.5L152.381,187.5L171.429,187.5L190.476,187.5L209.524,187.5L228.571,225L247.619,300L266.667,75L285.714,262.5L304.762,150L323.81,262.5L342.857,300L361.905,262.5L380.952,262.5L400,300L419.048,262.5L438.095,262.5L457.143,262.5L476.19,225L495.238,300L514.286,112.5L533.333,300L552.381,262.5L571.429,225L590.476,300L609.524,225L628.571,300L647.619,300L666.667,225L685.714,187.5L704.762,187.5L723.81,225L742.857,225L761.905,262.5L780.952,300L800,187.5L800,187.5L780.952,300L761.905,262.5L742.857,225L723.81,225L704.762,187.5L685.714,225L666.667,225L647.619,300L628.571,300L609.524,225L590.476,300L571.429,225L552.381,262.5L533.333,300L514.286,112.5L495.238,300L476.19,225L457.143,262.5L438.095,262.5L419.048,262.5L400,300L380.952,262.5L361.905,262.5L342.857,300L323.81,262.5L304.762,150L285.714,262.5L266.667,75L247.619,300L228.571,225L209.524,187.5L190.476,187.5L171.429,187.5L152.381,187.5L133.333,187.5L114.286,300L95.238,300L76.19,300L57.143,300L38.095,300L19.048,300L0,300Z" fill="#bab0ac"/></g></g><path class="foreground" aria-hidden="true" d="" display="none"/></g><g transform="translate(0,0)"><path class="background" aria-hidden="true" d="M0,0h800v300h-800Z"/><g><g class="mark-area role-mark marks" role="graphics-object" aria-roledescription="area mark container"><path aria-label="Date: Mar 16, 2026; Unique Visitors/day: 0; Repository: karlmdavis/ansible-roles" role="graphics-symbol" aria-roledescription="area mark" d="M0,300L19.048,300L38.095,300L57.143,300L76.19,300L95.238,300L114.286,300L133.333,187.5L152.381,187.5L171.429,187.5L190.476,187.5L209.524,187.5L228.571,225L247.619,300L266.667,75L285.714,262.5L304.762,150L323.81,262.5L342.857,300L361.905,262.5L380.952,262.5L400,300L419.048,262.5L438.095,262.5L457.143,262.5L476.19,225L495.238,300L514.286,112.5L533.333,300L552.381,262.5L571.429,225L590.476,300L609.524,225L628.571,300L647.619,300L666.667,225L685.714,225L704.762,187.5L723.81,225L742.857,225L761.905,262.5L780.952,300L800,187.5L800,187.5L780.952,300L761.905,262.5L742.857,225L723.81,225L704.762,187.5L685.714,225L666.667,225L647.619,300L628.571,300L609.524,225L590.476,300L571.429,225L552.381,262.5L533.333,300L514.286,112.5L495.238,300L476.19,225L457.143,262.5L438.095,262.5L419.048,262.5L400,300L380.952,262.5L361.905,262.5L342.857,300L323.81,262.5L304.762,150L285.714,262.5L266.667,75L247.619,300L228.571,225L209.524,187.5L190.476,187.5L171.429,187.5L152.381,187.5L133.333,187.5L114.286,300L95.238,300L76.19,300L57.143,300L38.095,300L19.048,300L0,300Z" fill="#4c78a8"/></g></g><path class="foreground" aria-hidden="true" d="" display="none"/></g><g transform="translate(0,0)"><path class="background" aria-hidden="true" d="M0,0h800v300h-800Z"/><g><g class="mark-area role-mark marks" role="graphics-object" aria-roledescription="area mark container"><path aria-label="Date: Mar 16, 2026; Unique Visitors/day: 0; Repository: karlmdavis/bbonfhir-dev-infra-docker" role="graphics-symbol" aria-roledescription="area mark" d="M0,300L19.048,300L38.095,300L57.143,300L76.19,300L95.238,300L114.286,300L133.333,187.5L152.381,187.5L171.429,187.5L190.476,187.5L209.524,187.5L228.571,225L247.619,300L266.667,75L285.714,262.5L304.762,150L323.81,262.5L342.857,300L361.905,262.5L380.952,262.5L400,300L419.048,262.5L438.095,262.5L457.143,262.5L476.19,225L495.238,300L514.286,112.5L533.333,300L552.381,262.5L571.429,225L590.476,300L609.524,225L628.571,300L647.619,300L666.667,225L685.714,225L704.762,187.5L723.81,225L742.857,225L761.905,262.5L780.952,300L800,187.5L800,187.5L780.952,300L761.905,262.5L742.857,225L723.81,225L704.762,187.5L685.714,225L666.667,225L647.619,300L628.571,300L609.524,225L590.476,300L571.429,225L552.381,262.5L533.333,300L514.286,112.5L495.238,300L476.19,225L457.143,262.5L438.095,262.5L419.048,262.5L400,300L380.952,262.5L361.905,262.5L342.857,300L323.81,262.5L304.762,150L285.714,262.5L266.667,75L247.619,300L228.571,225L209.524,187.5L190.476,187.5L171.429,187.5L152.381,187.5L133.333,187.5L114.286,300L95.238,300L76.19,300L57.143,300L38.095,300L19.048,300L0,300Z" fill="#f58518"/></g></g><path class="foreground" aria-hidden="true" d="" display="none"/></g><g transform="translate(0,0)"><path class="background" aria-hidden="true" d="M0,0h800v300h-800Z"/><g><g class="mark-area role-mark marks" role="graphics-object" aria-roledescription="area mark container"><path aria-label="Date: Mar 16, 2026; Unique Visitors/day: 0; Repository: karlmdavis/can-i-kayak-baltimore" role="graphics-symbol" aria-roledescription="area mark" d="M0,300L19.048,300L38.095,300L57.143,300L76.19,300L95.238,300L114.286,300L133.333,187.5L152.381,187.5L171.429,187.5L190.476,187.5L209.524,187.5L228.571,225L247.619,300L266.667,75L285.714,262.5L304.762,150L323.81,262.5L342.857,300L361.905,262.5L380.952,262.5L400,300L419.048,262.5L438.095,262.5L457.143,262.5L476.19,225L495.238,300L514.286,112.5L533.333,300L552.381,262.5L571.429,225L590.476,300L609.524,225L628.571,300L647.619,300L666.667,225L685.714,225L704.762,187.5L723.81,225L742.857,225L761.905,262.5L780.952,300L800,187.5L800,187.5L780.952,300L761.905,262.5L742.857,225L723.81,225L704.762,187.5L685.714,225L666.667,225L647.619,300L628.571,300L609.524,225L590.476,300L571.429,225L552.381,262.5L533.333,300L514.286,112.5L495.238,300L476.19,225L457.143,262.5L438.095,262.5L419.048,262.5L400,300L380.952,262.5L361.905,262.5L342.857,300L323.81,262.5L304.762,150L285.714,262.5L266.667,75L247.619,300L228.571,225L209.524,187.5L190.476,187.5L171.429,187.5L152.381,187.5L133.333,187.5L114.286,300L95.238,300L76.19,300L57.143,300L38.095,300L19.048,300L0,300Z" fill="#e45756"/></g></g><path class="foreground" aria-hidden="true" d="" display="none"/></g><g transform="translate(0,0)"><path class="background" aria-hidden="true" d="M0,0h800v300h-800Z"/><g><g class="mark-area role-mark marks" role="graphics-object" aria-roledescription="area mark container"><path aria-label="Date: Mar 16, 2026; Unique Visitors/day: 0; Repository: karlmdavis/datanucleus-test-jdo-1-to-n" role="graphics-symbol" aria-roledescription="area mark" d="M0,300L19.048,300L38.095,300L57.143,300L76.19,300L95.238,300L114.286,300L133.333,187.5L152.381,187.5L171.429,187.5L190.476,187.5L209.524,187.5L228.571,225L247.619,300L266.667,75L285.714,262.5L304.762,150L323.81,262.5L342.857,300L361.905,262.5L380.952,262.5L400,300L419.048,262.5L438.095,262.5L457.143,262.5L476.19,225L495.238,300L514.286,112.5L533.333,300L552.381,262.5L571.429,225L590.476,300L609.524,225L628.571,300L647.619,300L666.667,225L685.714,225L704.762,187.5L723.81,225L742.857,225L761.905,262.5L780.952,300L800,187.5L800,187.5L780.952,300L761.905,262.5L742.857,225L723.81,225L704.762,187.5L685.714,225L666.667,225L647.619,300L628.571,300L609.524,225L590.476,300L571.429,225L552.381,262.5L533.333,300L514.286,112.5L495.238,300L476.19,225L457.143,262.5L438.095,262.5L419.048,262.5L400,300L380.952,262.5L361.905,262.5L342.857,300L323.81,262.5L304.762,150L285.714,262.5L266.667,75L247.619,300L228.571,225L209.524,187.5L190.476,187.5L171.429,187.5L152.381,187.5L133.333,187.5L114.286,300L95.238,300L76.19,300L57.143,300L38.095,300L19.048,300L0,300Z" fill="#72b7b2"/></g></g><path class="foreground" aria-hidden="true" d="" display="none"/></g><g transform="translate(0,0)"><path class="background" aria-hidden="true" d="M0,0h800v300h-800Z"/><g><g class="mark-area role-mark marks" role="graphics-object" aria-roledescription="area mark container"><path aria-label="Date: Mar 16, 2026; Unique Visitors/day: 0; Repository: karlmdavis/dotfiles" role="graphics-symbol" aria-roledescription="area mark" d="M0,300L19.048,300L38.095,300L57.143,300L76.19,300L95.238,300L114.286,300L133.333,187.5L152.381,187.5L171.429,187.5L190.476,187.5L209.524,187.5L228.571,225L247.619,300L266.667,75L285.714,262.5L304.762,150L323.81,262.5L342.857,300L361.905,262.5L380.952,262.5L400,300L419.048,262.5L438.095,262.5L457.143,262.5L476.19,225L495.238,300L514.286,112.5L533.333,300L552.381,262.5L571.429,225L590.476,300L609.524,225L628.571,300L647.619,300L666.667,225L685.714,225L704.762,187.5L723.81,225L742.857,225L761.905,262.5L780.952,300L800,187.5L800,187.5L780.952,300L761.905,262.5L742.857,225L723.81,225L704.762,187.5L685.714,225L666.667,225L647.619,300L628.571,300L609.524,225L590.476,300L571.429,225L552.381,262.5L533.333,300L514.286,112.5L495.238,300L476.19,225L457.143,262.5L438.095,262.5L419.048,262.5L400,300L380.952,262.5L361.905,262.5L342.857,300L323.81,262.5L304.762,150L285.714,262.5L266.667,75L247.619,300L228.571,225L209.524,187.5L190.476,187.5L171.429,187.5L152.381,187.5L133.333,187.5L114.286,300L95.238,300L76.19,300L57.143,300L38.095,300L19.048,300L0,300Z" fill="#54a24b"/></g></g><path class="foreground" aria-hidden="true" d="" display="none"/></g><g transform="translate(0,0)"><path class="background" aria-hidden="true" d="M0,0h800v300h-800Z"/><g><g class="mark-area role-mark marks" role="graphics-object" aria-roledescription="area mark container"><path aria-label="Date: Mar 16, 2026; Unique Visitors/day: 0; Repository: karlmdavis/fhir-benchmarks" role="graphics-symbol" aria-roledescription="area mark" d="M0,300L19.048,300L38.095,300L57.143,300L76.19,300L95.238,300L114.286,300L133.333,187.5L152.381,187.5L171.429,187.5L190.476,187.5L209.524,187.5L228.571,225L247.619,300L266.667,75L285.714,262.5L304.762,150L323.81,262.5L342.857,300L361.905,262.5L380.952,262.5L400,300L419.048,262.5L438.095,262.5L457.143,262.5L476.19,225L495.238,300L514.286,112.5L533.333,300L552.381,262.5L571.429,225L590.476,300L609.524,225L628.571,300L647.619,300L666.667,225L685.714,225L704.762,187.5L723.81,225L742.857,225L761.905,262.5L780.952,300L800,187.5L800,187.5L780.952,300L761.905,262.5L742.857,225L723.81,262.5L704.762,225L685.714,225L666.667,225L647.619,300L628.571,300L609.524,225L590.476,300L571.429,262.5L552.381,262.5L533.333,300L514.286,112.5L495.238,300L476.19,262.5L457.143,262.5L438.095,262.5L419.048,300L400,300L380.952,262.5L361.905,262.5L342.857,300L323.81,262.5L304.762,187.5L285.714,262.5L266.667,112.5L247.619,300L228.571,225L209.524,187.5L190.476,225L171.429,187.5L152.381,187.5L133.333,187.5L114.286,300L95.238,300L76.19,300L57.143,300L38.095,300L19.048,300L0,300Z" fill="#eeca3b"/></g></g><path class="foreground" aria-hidden="true" d="" display="none"/></g><g transform="translate(0,0)"><path class="background" aria-hidden="true" d="M0,0h800v300h-800Z"/><g><g class="mark-area role-mark marks" role="graphics-object" aria-roledescription="area mark container"><path aria-label="Date: Mar 16, 2026; Unique Visitors/day: 0; Repository: karlmdavis/hapi-fhir-jpaserver-starter" role="graphics-symbol" aria-roledescription="area mark" d="M0,300L19.048,300L38.095,300L57.143,300L76.19,300L95.238,300L114.286,300L133.333,187.5L152.381,187.5L171.429,187.5L190.476,225L209.524,187.5L228.571,225L247.619,300L266.667,112.5L285.714,262.5L304.762,187.5L323.81,262.5L342.857,300L361.905,262.5L380.952,262.5L400,300L419.048,300L438.095,262.5L457.143,262.5L476.19,262.5L495.238,300L514.286,112.5L533.333,300L552.381,262.5L571.429,262.5L590.476,300L609.524,225L628.571,300L647.619,300L666.667,225L685.714,225L704.762,225L723.81,262.5L742.857,225L761.905,262.5L780.952,300L800,187.5L800,187.5L780.952,300L761.905,262.5L742.857,225L723.81,262.5L704.762,225L685.714,225L666.667,225L647.619,300L628.571,300L609.524,225L590.476,300L571.429,262.5L552.381,262.5L533.333,300L514.286,112.5L495.238,300L476.19,262.5L457.143,262.5L438.095,262.5L419.048,300L400,300L380.952,262.5L361.905,262.5L342.857,300L323.81,262.5L304.762,187.5L285.714,262.5L266.667,112.5L247.619,300L228.571,225L209.524,187.5L190.476,225L171.429,187.5L152.381,187.5L133.333,187.5L114.286,300L95.238,300L76.19,300L57.143,300L38.095,300L19.048,300L0,300Z" fill="#b279a2"/></g></g><path class="foreground" aria-hidden="true" d="" display="none"/></g><g transform="translate(0,0)"><path class="background" aria-hidden="true" d="M0,0h800v300h-800Z"/><g><g class="mark-area role-mark marks" role="graphics-object" aria-roledescription="area mark container"><path aria-label="Date: Mar 16, 2026; Unique Visitors/day: 0; Repository: karlmdavis/hello-rust-actix" role="graphics-symbol" aria-roledescription="area mark" d="M0,300L19.048,300L38.095,300L57.143,300L76.19,300L95.238,300L114.286,300L133.333,187.5L152.381,187.5L171.429,187.5L190.476,225L209.524,187.5L228.571,225L247.619,300L266.667,112.5L285.714,262.5L304.762,187.5L323.81,262.5L342.857,300L361.905,262.5L380.952,262.5L400,300L419.048,300L438.095,262.5L457.143,262.5L476.19,262.5L495.238,300L514.286,112.5L533.333,300L552.381,262.5L571.429,262.5L590.476,300L609.524,225L628.571,300L647.619,300L666.667,225L685.714,225L704.762,225L723.81,262.5L742.857,225L761.905,262.5L780.952,300L800,187.5L800,187.5L780.952,300L761.905,262.5L742.857,225L723.81,262.5L704.762,225L685.714,225L666.667,225L647.619,300L628.571,300L609.524,225L590.476,300L571.429,262.5L552.381,262.5L533.333,300L514.286,112.5L495.238,300L476.19,262.5L457.143,262.5L438.095,262.5L419.048,300L400,300L380.952,262.5L361.905,262.5L342.857,300L323.81,262.5L304.762,187.5L285.714,262.5L266.667,112.5L247.619,300L228.571,225L209.524,187.5L190.476,225L171.429,187.5L152.381,187.5L133.333,187.5L114.286,300L95.238,300L76.19,300L57.143,300L38.095,300L19.048,300L0,300Z" fill="#ff9da6"/></g></g><path class="foreground" aria-hidden="true" d="" display="none"/></g><g transform="translate(0,0)"><path class="background" aria-hidden="true" d="M0,0h800v300h-800Z"/><g><g class="mark-area role-mark marks" role="graphics-object" aria-roledescription="area mark container"><path aria-label="Date: Mar 16, 2026; Unique Visitors/day: 0; Repository: karlmdavis/jessentials" role="graphics-symbol" aria-roledescription="area mark" d="M0,300L19.048,300L38.095,300L57.143,300L76.19,300L95.238,300L114.286,300L133.333,187.5L152.381,187.5L171.429,187.5L190.476,225L209.524,187.5L228.571,225L247.619,300L266.667,112.5L285.714,262.5L304.762,187.5L323.81,262.5L342.857,300L361.905,262.5L380.952,262.5L400,300L419.048,300L438.095,262.5L457.143,262.5L476.19,262.5L495.238,300L514.286,112.5L533.333,300L552.381,262.5L571.429,262.5L590.476,300L609.524,225L628.571,300L647.619,300L666.667,225L685.714,225L704.762,225L723.81,262.5L742.857,225L761.905,262.5L780.952,300L800,187.5L800,187.5L780.952,300L761.905,262.5L742.857,225L723.81,262.5L704.762,225L685.714,225L666.667,225L647.619,300L628.571,300L609.524,225L590.476,300L571.429,262.5L552.381,262.5L533.333,300L514.286,112.5L495.238,300L476.19,262.5L457.143,262.5L438.095,262.5L419.048,300L400,300L380.952,262.5L361.905,262.5L342.857,300L323.81,262.5L304.762,187.5L285.714,262.5L266.667,112.5L247.619,300L228.571,225L209.524,187.5L190.476,225L171.429,187.5L152.381,187.5L133.333,187.5L114.286,300L95.238,300L76.19,300L57.143,300L38.095,300L19.048,300L0,300Z" fill="#9d755d"/></g></g><path class="foreground" aria-hidden="true" d="" display="none"/></g><g transform="translate(0,0)"><path class="background" aria-hidden="true" d="M0,0h800v300h-800Z"/><g><g class="mark-area role-mark marks" role="graphics-object" aria-roledescription="area mark container"><path aria-label="Date: Mar 16, 2026; Unique Visitors/day: 0; Repository: karlmdavis/justdavis-ansible" role="graphics-symbol" aria-roledescription="area mark" d="M0,300L19.048,300L38.095,300L57.143,300L76.19,300L95.238,300L114.286,300L133.333,187.5L152.381,187.5L171.429,187.5L190.476,225L209.524,187.5L228.571,225L247.619,300L266.667,112.5L285.714,262.5L304.762,187.5L323.81,262.5L342.857,300L361.905,262.5L380.952,262.5L400,300L419.048,300L438.095,262.5L457.143,262.5L476.19,262.5L495.238,300L514.286,112.5L533.333,300L552.381,262.5L571.429,262.5L590.476,300L609.524,225L628.571,300L647.619,300L666.667,225L685.714,225L704.762,225L723.81,262.5L742.857,225L761.905,262.5L780.952,300L800,187.5L800,187.5L780.952,300L761.905,262.5L742.857,225L723.81,262.5L704.762,225L685.714,225L666.667,225L647.619,300L628.571,300L609.524,225L590.476,300L571.429,262.5L552.381,262.5L533.333,300L514.286,150L495.238,300L476.19,262.5L457.143,262.5L438.095,262.5L419.048,300L400,300L380.952,262.5L361.905,262.5L342.857,300L323.81,262.5L304.762,225L285.714,262.5L266.667,150L247.619,300L228.571,225L209.524,187.5L190.476,225L171.429,187.5L152.381,187.5L133.333,187.5L114.286,300L95.238,300L76.19,300L57.143,300L38.095,300L19.048,300L0,300Z" fill="#bab0ac"/></g></g><path class="foreground" aria-hidden="true" d="" display="none"/></g><g transform="translate(0,0)"><path class="background" aria-hidden="true" d="M0,0h800v300h-800Z"/><g><g class="mark-area role-mark marks" role="graphics-object" aria-roledescription="area mark container"><path aria-label="Date: Mar 16, 2026; Unique Visitors/day: 0; Repository: karlmdavis/justdavis-finances" role="graphics-symbol" aria-roledescription="area mark" d="M0,300L19.048,300L38.095,300L57.143,300L76.19,300L95.238,300L114.286,300L133.333,187.5L152.381,187.5L171.429,187.5L190.476,225L209.524,187.5L228.571,225L247.619,300L266.667,150L285.714,262.5L304.762,225L323.81,262.5L342.857,300L361.905,262.5L380.952,262.5L400,300L419.048,300L438.095,262.5L457.143,262.5L476.19,262.5L495.238,300L514.286,150L533.333,300L552.381,262.5L571.429,262.5L590.476,300L609.524,225L628.571,300L647.619,300L666.667,225L685.714,225L704.762,225L723.81,262.5L742.857,225L761.905,262.5L780.952,300L800,187.5L800,187.5L780.952,300L761.905,262.5L742.857,225L723.81,262.5L704.762,225L685.714,225L666.667,262.5L647.619,300L628.571,300L609.524,225L590.476,300L571.429,262.5L552.381,262.5L533.333,300L514.286,187.5L495.238,300L476.19,262.5L457.143,262.5L438.095,262.5L419.048,300L400,300L380.952,262.5L361.905,262.5L342.857,300L323.81,262.5L304.762,225L285.714,262.5L266.667,150L247.619,300L228.571,225L209.524,225L190.476,225L171.429,187.5L152.381,187.5L133.333,187.5L114.286,300L95.238,300L76.19,300L57.143,300L38.095,300L19.048,300L0,300Z" fill="#4c78a8"/></g></g><path class="foreground" aria-hidden="true" d="" display="none"/></g><g transform="translate(0,0)"><path class="background" aria-hidden="true" d="M0,0h800v300h-800Z"/><g><g class="mark-area role-mark marks" role="graphics-object" aria-roledescription="area mark container"><path aria-label="Date: Mar 16, 2026; Unique Visitors/day: 0; Repository: karlmdavis/justdavis-karl" role="graphics-symbol" aria-roledescription="area mark" d="M0,300L19.048,300L38.095,300L57.143,300L76.19,300L95.238,300L114.286,300L133.333,187.5L152.381,187.5L171.429,187.5L190.476,225L209.524,225L228.571,225L247.619,300L266.667,150L285.714,262.5L304.762,225L323.81,262.5L342.857,300L361.905,262.5L380.952,262.5L400,300L419.048,300L438.095,262.5L457.143,262.5L476.19,262.5L495.238,300L514.286,187.5L533.333,300L552.381,262.5L571.429,262.5L590.476,300L609.524,225L628.571,300L647.619,300L666.667,262.5L685.714,225L704.762,225L723.81,262.5L742.857,225L761.905,262.5L780.952,300L800,187.5L800,187.5L780.952,300L761.905,262.5L742.857,225L723.81,262.5L704.762,225L685.714,225L666.667,262.5L647.619,300L628.571,300L609.524,225L590.476,300L571.429,262.5L552.381,262.5L533.333,300L514.286,187.5L495.238,300L476.19,262.5L457.143,262.5L438.095,262.5L419.048,300L400,300L380.952,262.5L361.905,262.5L342.857,300L323.81,262.5L304.762,225L285.714,262.5L266.667,150L247.619,300L228.571,225L209.524,225L190.476,225L171.429,187.5L152.381,187.5L133.333,187.5L114.286,300L95.238,300L76.19,300L57.143,300L38.095,300L19.048,300L0,300Z" fill="#f58518"/></g></g><path class="foreground" aria-hidden="true" d="" display="none"/></g><g transform="translate(0,0)"><path class="background" aria-hidden="true" d="M0,0h800v300h-800Z"/><g><g class="mark-area role-mark marks" role="graphics-object" aria-roledescription="area mark container"><path aria-label="Date: Mar 16, 2026; Unique Visitors/day: 0; Repository: karlmdavis/justdavis-puppet" role="graphics-symbol" aria-roledescription="area mark" d="M0,300L19.048,300L38.095,300L57.143,300L76.19,300L95.238,300L114.286,300L133.333,187.5L152.381,187.5L171.429,187.5L190.476,225L209.524,225L228.571,225L247.619,300L266.667,150L285.714,262.5L304.762,225L323.81,262.5L342.857,300L361.905,262.5L380.952,262.5L400,300L419.048,300L438.095,262.5L457.143,262.5L476.19,262.5L495.238,300L514.286,187.5L533.333,300L552.381,262.5L571.429,262.5L590.476,300L609.524,225L628.571,300L647.619,300L666.667,262.5L685.714,225L704.762,225L723.81,262.5L742.857,225L761.905,262.5L780.952,300L800,187.5L800,187.5L780.952,300L761.905,262.5L742.857,225L723.81,262.5L704.762,225L685.714,225L666.667,262.5L647.619,300L628.571,300L609.524,225L590.476,300L571.429,262.5L552.381,262.5L533.333,300L514.286,187.5L495.238,300L476.19,262.5L457.143,262.5L438.095,262.5L419.048,300L400,300L380.952,262.5L361.905,262.5L342.857,300L323.81,262.5L304.762,225L285.714,262.5L266.667,150L247.619,300L228.571,225L209.524,225L190.476,225L171.429,187.5L152.381,187.5L133.333,187.5L114.286,300L95.238,300L76.19,300L57.143,300L38.095,300L19.048,300L0,300Z" fill="#e45756"/></g></g><path class="foreground" aria-hidden="true" d="" display="none"/></g><g transform="translate(0,0)"><path class="background" aria-hidden="true" d="M0,0h800v300h-800Z"/><g><g class="mark-area role-mark marks" role="graphics-object" aria-roledescription="area mark container"><path aria-label="Date: Mar 16, 2026; Unique Visitors/day: 0; Repository: karlmdavis/kobjects" role="graphics-symbol" aria-roledescription="area mark" d="M0,300L19.048,300L38.095,300L57.143,300L76.19,300L95.238,300L114.286,300L133.333,187.5L152.381,187.5L171.429,187.5L190.476,225L209.524,225L228.571,225L247.619,300L266.667,150L285.714,262.5L304.762,225L323.81,262.5L342.857,300L361.905,262.5L380.952,262.5L400,300L419.048,300L438.095,262.5L457.143,262.5L476.19,262.5L495.238,300L514.286,187.5L533.333,300L552.381,262.5L571.429,262.5L590.476,300L609.524,225L628.571,300L647.619,300L666.667,262.5L685.714,225L704.762,225L723.81,262.5L742.857,225L761.905,262.5L780.952,300L800,187.5L800,187.5L780.952,300L761.905,262.5L742.857,225L723.81,262.5L704.762,225L685.714,225L666.667,262.5L647.619,300L628.571,300L609.524,225L590.476,300L571.429,262.5L552.381,262.5L533.333,300L514.286,187.5L495.238,300L476.19,262.5L457.143,262.5L438.095,262.5L419.048,300L400,300L380.952,262.5L361.905,262.5L342.857,300L323.81,262.5L304.762,225L285.714,262.5L266.667,150L247.619,300L228.571,225L209.524,225L190.476,225L171.429,187.5L152.381,187.5L133.333,187.5L114.286,300L95.238,300L76.19,300L57.143,300L38.095,300L19.048,300L0,300Z" fill="#72b7b2"/></g></g><path class="foreground" aria-hidden="true" d="" display="none"/></g><g transform="translate(0,0)"><path class="background" aria-hidden="true" d="M0,0h800v300h-800Z"/><g><g class="mark-area role-mark marks" role="graphics-object" aria-roledescription="area mark container"><path aria-label="Date: Mar 16, 2026; Unique Visitors/day: 0; Repository: karlmdavis/ksoap2-android" role="graphics-symbol" aria-roledescription="area mark" d="M0,300L19.048,300L38.095,300L57.143,300L76.19,300L95.238,300L114.286,300L133.333,187.5L152.381,187.5L171.429,187.5L190.476,225L209.524,225L228.571,225L247.619,300L266.667,150L285.714,262.5L304.762,225L323.81,262.5L342.857,300L361.905,262.5L380.952,262.5L400,300L419.048,300L438.095,262.5L457.143,262.5L476.19,262.5L495.238,300L514.286,187.5L533.333,300L552.381,262.5L571.429,262.5L590.476,300L609.524,225L628.571,300L647.619,300L666.667,262.5L685.714,225L704.762,225L723.81,262.5L742.857,225L761.905,262.5L780.952,300L800,187.5L800,225L780.952,300L761.905,300L742.857,262.5L723.81,300L704.762,300L685.714,262.5L666.667,262.5L647.619,300L628.571,300L609.524,300L590.476,300L571.429,300L552.381,300L533.333,300L514.286,225L495.238,300L476.19,300L457.143,262.5L438.095,300L419.048,300L400,300L380.952,300L361.905,300L342.857,300L323.81,300L304.762,262.5L285.714,262.5L266.667,225L247.619,300L228.571,225L209.524,262.5L190.476,225L171.429,225L152.381,262.5L133.333,262.5L114.286,300L95.238,300L76.19,300L57.143,300L38.095,300L19.048,300L0,300Z" fill="#54a24b"/></g></g><path class="foreground" aria-hidden="true" d="" display="none"/></g><g transform="translate(0,0)"><path class="background" aria-hidden="true" d="M0,0h800v300h-800Z"/><g><g class="mark-area role-mark marks" role="graphics-object" aria-roledescription="area mark container"><path aria-label="Date: Mar 16, 2026; Unique Visitors/day: 0; Repository: karlmdavis/kxml2" role="graphics-symbol" aria-roledescription="area mark" d="M0,300L19.048,300L38.095,300L57.143,300L76.19,300L95.238,300L114.286,300L133.333,262.5L152.381,262.5L171.429,225L190.476,225L209.524,262.5L228.571,225L247.619,300L266.667,225L285.714,262.5L304.762,262.5L323.81,300L342.857,300L361.905,300L380.952,300L400,300L419.048,300L438.095,300L457.143,262.5L476.19,300L495.238,300L514.286,225L533.333,300L552.381,300L571.429,300L590.476,300L609.524,300L628.571,300L647.619,300L666.667,262.5L685.714,262.5L704.762,300L723.81,300L742.857,262.5L761.905,300L780.952,300L800,225L800,262.5L780.952,300L761.905,300L742.857,262.5L723.81,300L704.762,300L685.714,262.5L666.667,262.5L647.619,300L628.571,300L609.524,300L590.476,300L571.429,300L552.381,300L533.333,300L514.286,225L495.238,300L476.19,300L457.143,262.5L438.095,300L419.048,300L400,300L380.952,300L361.905,300L342.857,300L323.81,300L304.762,262.5L285.714,262.5L266.667,225L247.619,300L228.571,262.5L209.524,262.5L190.476,225L171.429,262.5L152.381,262.5L133.333,262.5L114.286,300L95.238,300L76.19,300L57.143,300L38.095,300L19.048,300L0,300Z" fill="#eeca3b"/></g></g><path class="foreground" aria-hidden="true" d="" display="none"/></g><g transform="translate(0,0)"><path class="background" aria-hidden="true" d="M0,0h800v300h-800Z"/><g><g class="mark-area role-mark marks" role="graphics-object" aria-roledescription="area mark container"><path aria-label="Date: Mar 16, 2026; Unique Visitors/day: 0; Repository: karlmdavis/ldap-plugin" role="graphics-symbol" aria-roledescription="area mark" d="M0,300L19.048,300L38.095,300L57.143,300L76.19,300L95.238,300L114.286,300L133.333,262.5L152.381,262.5L171.429,262.5L190.476,225L209.524,262.5L228.571,262.5L247.619,300L266.667,225L285.714,262.5L304.762,262.5L323.81,300L342.857,300L361.905,300L380.952,300L400,300L419.048,300L438.095,300L457.143,262.5L476.19,300L495.238,300L514.286,225L533.333,300L552.381,300L571.429,300L590.476,300L609.524,300L628.571,300L647.619,300L666.667,262.5L685.714,262.5L704.762,300L723.81,300L742.857,262.5L761.905,300L780.952,300L800,262.5L800,262.5L780.952,300L761.905,300L742.857,262.5L723.81,300L704.762,300L685.714,262.5L666.667,262.5L647.619,300L628.571,300L609.524,300L590.476,300L571.429,300L552.381,300L533.333,300L514.286,225L495.238,300L476.19,300L457.143,262.5L438.095,300L419.048,300L400,300L380.952,300L361.905,300L342.857,300L323.81,300L304.762,262.5L285.714,262.5L266.667,225L247.619,300L228.571,262.5L209.524,262.5L190.476,225L171.429,262.5L152.381,262.5L133.333,262.5L114.286,300L95.238,300L76.19,300L57.143,300L38.095,300L19.048,300L0,300Z" fill="#b279a2"/></g></g><path class="foreground" aria-hidden="true" d="" display="none"/></g><g transform="translate(0,0)"><path class="background" aria-hidden="true" d="M0,0h800v300h-800Z"/><g><g class="mark-area role-mark marks" role="graphics-object" aria-roledescription="area mark container"><path aria-label="Date: Mar 16, 2026; Unique Visitors/day: 0; Repository: karlmdavis/lego-ev3dev-rs" role="graphics-symbol" aria-roledescription="area mark" d="M0,300L19.048,300L38.095,300L57.143,300L76.19,300L95.238,300L114.286,300L133.333,262.5L152.381,262.5L171.429,262.5L190.476,225L209.524,262.5L228.571,262.5L247.619,300L266.667,225L285.714,262.5L304.762,262.5L323.81,300L342.857,300L361.905,300L380.952,300L400,300L419.048,300L438.095,300L457.143,262.5L476.19,300L495.238,300L514.286,225L533.333,300L552.381,300L571.429,300L590.476,300L609.524,300L628.571,300L647.619,300L666.667,262.5L685.714,262.5L704.762,300L723.81,300L742.857,262.5L761.905,300L780.952,300L800,262.5L800,262.5L780.952,300L761.905,300L742.857,262.5L723.81,300L704.762,300L685.714,262.5L666.667,262.5L647.619,300L628.571,300L609.524,300L590.476,300L571.429,300L552.381,300L533.333,300L514.286,225L495.238,300L476.19,300L457.143,262.5L438.095,300L419.048,300L400,300L380.952,300L361.905,300L342.857,300L323.81,300L304.762,262.5L285.714,262.5L266.667,225L247.619,300L228.571,262.5L209.524,262.5L190.476,225L171.429,262.5L152.381,262.5L133.333,262.5L114.286,300L95.238,300L76.19,300L57.143,300L38.095,300L19.048,300L0,300Z" fill="#ff9da6"/></g></g><path class="foreground" aria-hidden="true" d="" display="none"/></g><g transform="translate(0,0)"><path class="background" aria-hidden="true" d="M0,0h800v300h-800Z"/><g><g class="mark-area role-mark marks" role="graphics-object" aria-roledescription="area mark container"><path aria-label="Date: Mar 16, 2026; Unique Visitors/day: 0; Repository: karlmdavis/liquibase" role="graphics-symbol" aria-roledescription="area mark" d="M0,300L19.048,300L38.095,300L57.143,300L76.19,300L95.238,300L114.286,300L133.333,262.5L152.381,262.5L171.429,262.5L190.476,225L209.524,262.5L228.571,262.5L247.619,300L266.667,225L285.714,262.5L304.762,262.5L323.81,300L342.857,300L361.905,300L380.952,300L400,300L419.048,300L438.095,300L457.143,262.5L476.19,300L495.238,300L514.286,225L533.333,300L552.381,300L571.429,300L590.476,300L609.524,300L628.571,300L647.619,300L666.667,262.5L685.714,262.5L704.762,300L723.81,300L742.857,262.5L761.905,300L780.952,300L800,262.5L800,262.5L780.952,300L761.905,300L742.857,262.5L723.81,300L704.762,300L685.714,262.5L666.667,262.5L647.619,300L628.571,300L609.524,300L590.476,300L571.429,300L552.381,300L533.333,300L514.286,225L495.238,300L476.19,300L457.143,262.5L438.095,300L419.048,300L400,300L380.952,300L361.905,300L342.857,300L323.81,300L304.762,262.5L285.714,262.5L266.667,225L247.619,300L228.571,262.5L209.524,262.5L190.476,225L171.429,262.5L152.381,262.5L133.333,262.5L114.286,300L95.238,300L76.19,300L57.143,300L38.095,300L19.048,300L0,300Z" fill="#9d755d"/></g></g><path class="foreground" aria-hidden="true" d="" display="none"/></g><g transform="translate(0,0)"><path class="background" aria-hidden="true" d="M0,0h800v300h-800Z"/><g><g class="mark-area role-mark marks" role="graphics-object" aria-roledescription="area mark container"><path aria-label="Date: Mar 16, 2026; Unique Visitors/day: 0; Repository: karlmdavis/m2e-core" role="graphics-symbol" aria-roledescription="area mark" d="M0,300L19.048,300L38.095,300L57.143,300L76.19,300L95.238,300L114.286,300L133.333,262.5L152.381,262.5L171.429,262.5L190.476,225L209.524,262.5L228.571,262.5L247.619,300L266.667,225L285.714,262.5L304.762,262.5L323.81,300L342.857,300L361.905,300L380.952,300L400,300L419.048,300L438.095,300L457.143,262.5L476.19,300L495.238,300L514.286,225L533.333,300L552.381,300L571.429,300L590.476,300L609.524,300L628.571,300L647.619,300L666.667,262.5L685.714,262.5L704.762,300L723.81,300L742.857,262.5L761.905,300L780.952,300L800,262.5L800,262.5L780.952,300L761.905,300L742.857,262.5L723.81,300L704.762,300L685.714,262.5L666.667,262.5L647.619,300L628.571,300L609.524,300L590.476,300L571.429,300L552.381,300L533.333,300L514.286,225L495.238,300L476.19,300L457.143,262.5L438.095,300L419.048,300L400,300L380.952,300L361.905,300L342.857,300L323.81,300L304.762,262.5L285.714,262.5L266.667,225L247.619,300L228.571,262.5L209.524,262.5L190.476,225L171.429,262.5L152.381,262.5L133.333,262.5L114.286,300L95.238,300L76.19,300L57.143,300L38.095,300L19.048,300L0,300Z" fill="#bab0ac"/></g></g><path class="foreground" aria-hidden="true" d="" display="none"/></g><g transform="translate(0,0)"><path class="background" aria-hidden="true" d="M0,0h800v300h-800Z"/><g><g class="mark-area role-mark marks" role="graphics-object" aria-roledescription="area mark container"><path aria-label="Date: Mar 16, 2026; Unique Visitors/day: 0; Repository: karlmdavis/m2e-core-tests" role="graphics-symbol" aria-roledescription="area mark" d="M0,300L19.048,300L38.095,300L57.143,300L76.19,300L95.238,300L114.286,300L133.333,262.5L152.381,262.5L171.429,262.5L190.476,225L209.524,262.5L228.571,262.5L247.619,300L266.667,225L285.714,262.5L304.762,262.5L323.81,300L342.857,300L361.905,300L380.952,300L400,300L419.048,300L438.095,300L457.143,262.5L476.19,300L495.238,300L514.286,225L533.333,300L552.381,300L571.429,300L590.476,300L609.524,300L628.571,300L647.619,300L666.667,262.5L685.714,262.5L704.762,300L723.81,300L742.857,262.5L761.905,300L780.952,300L800,262.5L800,262.5L780.952,300L761.905,300L742.857,262.5L723.81,300L704.762,300L685.714,262.5L666.667,262.5L647.619,300L628.571,300L609.524,300L590.476,300L571.429,300L552.381,300L533.333,300L514.286,225L495.238,300L476.19,300L457.143,262.5L438.095,300L419.048,300L400,300L380.952,300L361.905,300L342.857,300L323.81,300L304.762,262.5L285.714,262.5L266.667,225L247.619,300L228.571,262.5L209.524,262.5L190.476,225L171.429,262.5L152.381,262.5L133.333,262.5L114.286,300L95.238,300L76.19,300L57.143,300L38.095,300L19.048,300L0,300Z" fill="#4c78a8"/></g></g><path class="foreground" aria-hidden="true" d="" display="none"/></g><g transform="translate(0,0)"><path class="background" aria-hidden="true" d="M0,0h800v300h-800Z"/><g><g class="mark-area role-mark marks" role="graphics-object" aria-roledescription="area mark container"><path aria-label="Date: Mar 16, 2026; Unique Visitors/day: 0; Repository: karlmdavis/obsidian-operator" role="graphics-symbol" aria-roledescription="area mark" d="M0,300L19.048,300L38.095,300L57.143,300L76.19,300L95.238,300L114.286,300L133.333,262.5L152.381,262.5L171.429,262.5L190.476,225L209.524,262.5L228.571,262.5L247.619,300L266.667,225L285.714,262.5L304.762,262.5L323.81,300L342.857,300L361.905,300L380.952,300L400,300L419.048,300L438.095,300L457.143,262.5L476.19,300L495.238,300L514.286,225L533.333,300L552.381,300L571.429,300L590.476,300L609.524,300L628.571,300L647.619,300L666.667,262.5L685.714,262.5L704.762,300L723.81,300L742.857,262.5L761.905,300L780.952,300L800,262.5L800,262.5L780.952,300L761.905,300L742.857,262.5L723.81,300L704.762,300L685.714,262.5L666.667,262.5L647.619,300L628.571,300L609.524,300L590.476,300L571.429,300L552.381,300L533.333,300L514.286,262.5L495.238,300L476.19,300L457.143,262.5L438.095,300L419.048,300L400,300L380.952,300L361.905,300L342.857,300L323.81,300L304.762,262.5L285.714,262.5L266.667,225L247.619,300L228.571,262.5L209.524,262.5L190.476,225L171.429,262.5L152.381,262.5L133.333,262.5L114.286,300L95.238,300L76.19,300L57.143,300L38.095,300L19.048,300L0,300Z" fill="#f58518"/></g></g><path class="foreground" aria-hidden="true" d="" display="none"/></g><g transform="translate(0,0)"><path class="background" aria-hidden="true" d="M0,0h800v300h-800Z"/><g><g class="mark-area role-mark marks" role="graphics-object" aria-roledescription="area mark container"><path aria-label="Date: Mar 16, 2026; Unique Visitors/day: 0; Repository: karlmdavis/perfect-note" role="graphics-symbol" aria-roledescription="area mark" d="M0,300L19.048,300L38.095,300L57.143,300L76.19,300L95.238,300L114.286,300L133.333,262.5L152.381,262.5L171.429,262.5L190.476,225L209.524,262.5L228.571,262.5L247.619,300L266.667,225L285.714,262.5L304.762,262.5L323.81,300L342.857,300L361.905,300L380.952,300L400,300L419.048,300L438.095,300L457.143,262.5L476.19,300L495.238,300L514.286,262.5L533.333,300L552.381,300L571.429,300L590.476,300L609.524,300L628.571,300L647.619,300L666.667,262.5L685.714,262.5L704.762,300L723.81,300L742.857,262.5L761.905,300L780.952,300L800,262.5L800,262.5L780.952,300L761.905,300L742.857,262.5L723.81,300L704.762,300L685.714,262.5L666.667,262.5L647.619,300L628.571,300L609.524,300L590.476,300L571.429,300L552.381,300L533.333,300L514.286,262.5L495.238,300L476.19,300L457.143,262.5L438.095,300L419.048,300L400,300L380.952,300L361.905,300L342.857,300L323.81,300L304.762,262.5L285.714,262.5L266.667,225L247.619,300L228.571,262.5L209.524,262.5L190.476,225L171.429,262.5L152.381,262.5L133.333,262.5L114.286,300L95.238,300L76.19,300L57.143,300L38.095,300L19.048,300L0,300Z" fill="#e45756"/></g></g><path class="foreground" aria-hidden="true" d="" display="none"/></g><g transform="translate(0,0)"><path class="background" aria-hidden="true" d="M0,0h800v300h-800Z"/><g><g class="mark-area role-mark marks" role="graphics-object" aria-roledescription="area mark container"><path aria-label="Date: Mar 16, 2026; Unique Visitors/day: 0; Repository: karlmdavis/puppet-archive" role="graphics-symbol" aria-roledescription="area mark" d="M0,300L19.048,300L38.095,300L57.143,300L76.19,300L95.238,300L114.286,300L133.333,262.5L152.381,262.5L171.429,262.5L190.476,225L209.524,262.5L228.571,262.5L247.619,300L266.667,225L285.714,262.5L304.762,262.5L323.81,300L342.857,300L361.905,300L380.952,300L400,300L419.048,300L438.095,300L457.143,262.5L476.19,300L495.238,300L514.286,262.5L533.333,300L552.381,300L571.429,300L590.476,300L609.524,300L628.571,300L647.619,300L666.667,262.5L685.714,262.5L704.762,300L723.81,300L742.857,262.5L761.905,300L780.952,300L800,262.5L800,262.5L780.952,300L761.905,300L742.857,262.5L723.81,300L704.762,300L685.714,262.5L666.667,262.5L647.619,300L628.571,300L609.524,300L590.476,300L571.429,300L552.381,300L533.333,300L514.286,262.5L495.238,300L476.19,300L457.143,262.5L438.095,300L419.048,300L400,300L380.952,300L361.905,300L342.857,300L323.81,300L304.762,262.5L285.714,262.5L266.667,225L247.619,300L228.571,262.5L209.524,262.5L190.476,225L171.429,262.5L152.381,262.5L133.333,262.5L114.286,300L95.238,300L76.19,300L57.143,300L38.095,300L19.048,300L0,300Z" fill="#72b7b2"/></g></g><path class="foreground" aria-hidden="true" d="" display="none"/></g><g transform="translate(0,0)"><path class="background" aria-hidden="true" d="M0,0h800v300h-800Z"/><g><g class="mark-area role-mark marks" role="graphics-object" aria-roledescription="area mark container"><path aria-label="Date: Mar 16, 2026; Unique Visitors/day: 0; Repository: karlmdavis/puppet-sonar" role="graphics-symbol" aria-roledescription="area mark" d="M0,300L19.048,300L38.095,300L57.143,300L76.19,300L95.238,300L114.286,300L133.333,262.5L152.381,262.5L171.429,262.5L190.476,225L209.524,262.5L228.571,262.5L247.619,300L266.667,225L285.714,262.5L304.762,262.5L323.81,300L342.857,300L361.905,300L380.952,300L400,300L419.048,300L438.095,300L457.143,262.5L476.19,300L495.238,300L514.286,262.5L533.333,300L552.381,300L571.429,300L590.476,300L609.524,300L628.571,300L647.619,300L666.667,262.5L685.714,262.5L704.762,300L723.81,300L742.857,262.5L761.905,300L780.952,300L800,262.5L800,262.5L780.952,300L761.905,300L742.857,262.5L723.81,300L704.762,300L685.714,262.5L666.667,262.5L647.619,300L628.571,300L609.524,300L590.476,300L571.429,300L552.381,300L533.333,300L514.286,262.5L495.238,300L476.19,300L457.143,262.5L438.095,300L419.048,300L400,300L380.952,300L361.905,300L342.857,300L323.81,300L304.762,262.5L285.714,262.5L266.667,225L247.619,300L228.571,262.5L209.524,262.5L190.476,225L171.429,262.5L152.381,262.5L133.333,262.5L114.286,300L95.238,300L76.19,300L57.143,300L38.095,300L19.048,300L0,300Z" fill="#54a24b"/></g></g><path class="foreground" aria-hidden="true" d="" display="none"/></g><g transform="translate(0,0)"><path class="background" aria-hidden="true" d="M0,0h800v300h-800Z"/><g><g class="mark-area role-mark marks" role="graphics-object" aria-roledescription="area mark container"><path aria-label="Date: Mar 16, 2026; Unique Visitors/day: 0; Repository: karlmdavis/rps-tourney" role="graphics-symbol" aria-roledescription="area mark" d="M0,300L19.048,300L38.095,300L57.143,300L76.19,300L95.238,300L114.286,300L133.333,262.5L152.381,262.5L171.429,262.5L190.476,225L209.524,262.5L228.571,262.5L247.619,300L266.667,225L285.714,262.5L304.762,262.5L323.81,300L342.857,300L361.905,300L380.952,300L400,300L419.048,300L438.095,300L457.143,262.5L476.19,300L495.238,300L514.286,262.5L533.333,300L552.381,300L571.429,300L590.476,300L609.524,300L628.571,300L647.619,300L666.667,262.5L685.714,262.5L704.762,300L723.81,300L742.857,262.5L761.905,300L780.952,300L800,262.5L800,262.5L780.952,300L761.905,300L742.857,262.5L723.81,300L704.762,300L685.714,300L666.667,262.5L647.619,300L628.571,300L609.524,300L590.476,300L571.429,300L552.381,300L533.333,300L514.286,300L495.238,300L476.19,300L457.143,262.5L438.095,300L419.048,300L400,300L380.952,300L361.905,300L342.857,300L323.81,300L304.762,300L285.714,262.5L266.667,225L247.619,300L228.571,262.5L209.524,300L190.476,225L171.429,262.5L152.381,300L133.333,300L114.286,300L95.238,300L76.19,300L57.143,300L38.095,300L19.048,300L0,300Z" fill="#eeca3b"/></g></g><path class="foreground" aria-hidden="true" d="" display="none"/></g><g transform="translate(0,0)"><path class="background" aria-hidden="true" d="M0,0h800v300h-800Z"/><g><g class="mark-area role-mark marks" role="graphics-object" aria-roledescription="area mark container"><path aria-label="Date: Mar 16, 2026; Unique Visitors/day: 0; Repository: karlmdavis/sample-maven-and-rcp" role="graphics-symbol" aria-roledescription="area mark" d="M0,300L19.048,300L38.095,300L57.143,300L76.19,300L95.238,300L114.286,300L133.333,300L152.381,300L171.429,262.5L190.476,225L209.524,300L228.571,262.5L247.619,300L266.667,225L285.714,262.5L304.762,300L323.81,300L342.857,300L361.905,300L380.952,300L400,300L419.048,300L438.095,300L457.143,262.5L476.19,300L495.238,300L514.286,300L533.333,300L552.381,300L571.429,300L590.476,300L609.524,300L628.571,300L647.619,300L666.667,262.5L685.714,300L704.762,300L723.81,300L742.857,262.5L761.905,300L780.952,300L800,262.5L800,262.5L780.952,300L761.905,300L742.857,262.5L723.81,300L704.762,300L685.714,300L666.667,262.5L647.619,300L628.571,300L609.524,300L590.476,300L571.429,300L552.381,300L533.333,300L514.286,300L495.238,300L476.19,300L457.143,262.5L438.095,300L419.048,300L400,300L380.952,300L361.905,300L342.857,300L323.81,300L304.762,300L285.714,262.5L266.667,225L247.619,300L228.571,262.5L209.524,300L190.476,225L171.429,262.5L152.381,300L133.333,300L114.286,300L95.238,300L76.19,300L57.143,300L38.095,300L19.048,300L0,300Z" fill="#b279a2"/></g></g><path class="foreground" aria-hidden="true" d="" display="none"/></g><g transform="translate(0,0)"><path class="background" aria-hidden="true" d="M0,0h800v300h-800Z"/><g><g class="mark-area role-mark marks" role="graphics-object" aria-roledescription="area mark container"><path aria-label="Date: Mar 16, 2026; Unique Visitors/day: 0; Repository: karlmdavis/stockfighter-trades-solutions" role="graphics-symbol" aria-roledescription="area mark" d="M0,300L19.048,300L38.095,300L57.143,300L76.19,300L95.238,300L114.286,300L133.333,300L152.381,300L171.429,262.5L190.476,225L209.524,300L228.571,262.5L247.619,300L266.667,225L285.714,262.5L304.762,300L323.81,300L342.857,300L361.905,300L380.952,300L400,300L419.048,300L438.095,300L457.143,262.5L476.19,300L495.238,300L514.286,300L533.333,300L552.381,300L571.429,300L590.476,300L609.524,300L628.571,300L647.619,300L666.667,262.5L685.714,300L704.762,300L723.81,300L742.857,262.5L761.905,300L780.952,300L800,262.5L800,262.5L780.952,300L761.905,300L742.857,262.5L723.81,300L704.762,300L685.714,300L666.667,262.5L647.619,300L628.571,300L609.524,300L590.476,300L571.429,300L552.381,300L533.333,300L514.286,300L495.238,300L476.19,300L457.143,262.5L438.095,300L419.048,300L400,300L380.952,300L361.905,300L342.857,300L323.81,300L304.762,300L285.714,262.5L266.667,225L247.619,300L228.571,262.5L209.524,300L190.476,225L171.429,262.5L152.381,300L133.333,300L114.286,300L95.238,300L76.19,300L57.143,300L38.095,300L19.048,300L0,300Z" fill="#ff9da6"/></g></g><path class="foreground" aria-hidden="true" d="" display="none"/></g><g transform="translate(0,0)"><path class="background" aria-hidden="true" d="M0,0h800v300h-800Z"/><g><g class="mark-area role-mark marks" role="graphics-object" aria-roledescription="area mark container"><path aria-label="Date: Mar 16, 2026; Unique Visitors/day: 0; Repository: karlmdavis/test-repo-for-move" role="graphics-symbol" aria-roledescription="area mark" d="M0,300L19.048,300L38.095,300L57.143,300L76.19,300L95.238,300L114.286,300L133.333,300L152.381,300L171.429,262.5L190.476,225L209.524,300L228.571,262.5L247.619,300L266.667,225L285.714,262.5L304.762,300L323.81,300L342.857,300L361.905,300L380.952,300L400,300L419.048,300L438.095,300L457.143,262.5L476.19,300L495.238,300L514.286,300L533.333,300L552.381,300L571.429,300L590.476,300L609.524,300L628.571,300L647.619,300L666.667,262.5L685.714,300L704.762,300L723.81,300L742.857,262.5L761.905,300L780.952,300L800,262.5L800,262.5L780.952,300L761.905,300L742.857,262.5L723.81,300L704.762,300L685.714,300L666.667,262.5L647.619,300L628.571,300L609.524,300L590.476,300L571.429,300L552.381,300L533.333,300L514.286,300L495.238,300L476.19,300L457.143,262.5L438.095,300L419.048,300L400,300L380.952,300L361.905,300L342.857,300L323.81,300L304.762,300L285.714,262.5L266.667,225L247.619,300L228.571,262.5L209.524,300L190.476,225L171.429,262.5L152.381,300L133.333,300L114.286,300L95.238,300L76.19,300L57.143,300L38.095,300L19.048,300L0,300Z" fill="#9d755d"/></g></g><path class="foreground" aria-hidden="true" d="" display="none"/></g><g transform="translate(0,0)"><path class="background" aria-hidden="true" d="M0,0h800v300h-800Z"/><g><g class="mark-area role-mark marks" role="graphics-object" aria-roledescription="area mark container"><path aria-label="Date: Mar 16, 2026; Unique Visitors/day: 0; Repository: karlmdavis/todoist-ai" role="graphics-symbol" aria-roledescription="area mark" d="M0,300L19.048,300L38.095,300L57.143,300L76.19,300L95.238,300L114.286,300L133.333,300L152.381,300L171.429,262.5L190.476,225L209.524,300L228.571,262.5L247.619,300L266.667,225L285.714,262.5L304.762,300L323.81,300L342.857,300L361.905,300L380.952,300L400,300L419.048,300L438.095,300L457.143,262.5L476.19,300L495.238,300L514.286,300L533.333,300L552.381,300L571.429,300L590.476,300L609.524,300L628.571,300L647.619,300L666.667,262.5L685.714,300L704.762,300L723.81,300L742.857,262.5L761.905,300L780.952,300L800,262.5L800,262.5L780.952,300L761.905,300L742.857,262.5L723.81,300L704.762,300L685.714,300L666.667,300L647.619,300L628.571,300L609.524,300L590.476,300L571.429,300L552.381,300L533.333,300L514.286,300L495.238,300L476.19,300L457.143,262.5L438.095,300L419.048,300L400,300L380.952,300L361.905,300L342.857,300L323.81,300L304.762,300L285.714,262.5L266.667,262.5L247.619,300L228.571,262.5L209.524,300L190.476,225L171.429,262.5L152.381,300L133.333,300L114.286,300L95.238,300L76.19,300L57.143,300L38.095,300L19.048,300L0,300Z" fill="#bab0ac"/></g></g><path class="foreground" aria-hidden="true" d="" display="none"/></g><g transform="translate(0,0)"><path class="background" aria-hidden="true" d="M0,0h800v300h-800Z"/><g><g class="mark-area role-mark marks" role="graphics-object" aria-roledescription="area mark container"><path aria-label="Date: Mar 16, 2026; Unique Visitors/day: 0; Repository: karlmdavis/usgs-water-api-java" role="graphics-symbol" aria-roledescription="area mark" d="M0,300L19.048,300L38.095,300L57.143,300L76.19,300L95.238,300L114.286,300L133.333,300L152.381,300L171.429,262.5L190.476,225L209.524,300L228.571,262.5L247.619,300L266.667,262.5L285.714,262.5L304.762,300L323.81,300L342.857,300L361.905,300L380.952,300L400,300L419.048,300L438.095,300L457.143,262.5L476.19,300L495.238,300L514.286,300L533.333,300L552.381,300L571.429,300L590.476,300L609.524,300L628.571,300L647.619,300L666.667,300L685.714,300L704.762,300L723.81,300L742.857,262.5L761.905,300L780.952,300L800,262.5L800,262.5L780.952,300L761.905,300L742.857,262.5L723.81,300L704.762,300L685.714,300L666.667,300L647.619,300L628.571,300L609.524,300L590.476,300L571.429,300L552.381,300L533.333,300L514.286,300L495.238,300L476.19,300L457.143,262.5L438.095,300L419.048,300L400,300L380.952,300L361.905,300L342.857,300L323.81,300L304.762,300L285.714,262.5L266.667,262.5L247.619,300L228.571,262.5L209.524,300L190.476,225L171.429,262.5L152.381,300L133.333,300L114.286,300L95.238,300L76.19,300L57.143,300L38.095,300L19.048,300L0,300Z" fill="#4c78a8"/></g></g><path class="foreground" aria-hidden="true" d="" display="none"/></g><g transform="translate(0,0)"><path class="background" aria-hidden="true" d="M0,0h800v300h-800Z"/><g><g class="mark-area role-mark marks" role="graphics-object" aria-roledescription="area mark container"><path aria-label="Date: Mar 16, 2026; Unique Visitors/day: 0; Repository: karlmdavis/workstation-base-ansible-role" role="graphics-symbol" aria-roledescription="area mark" d="M0,300L19.048,300L38.095,300L57.143,300L76.19,300L95.238,300L114.286,300L133.333,300L152.381,300L171.429,262.5L190.476,225L209.524,300L228.571,262.5L247.619,300L266.667,262.5L285.714,262.5L304.762,300L323.81,300L342.857,300L361.905,300L380.952,300L400,300L419.048,300L438.095,300L457.143,262.5L476.19,300L495.238,300L514.286,300L533.333,300L552.381,300L571.429,300L590.476,300L609.524,300L628.571,300L647.619,300L666.667,300L685.714,300L704.762,300L723.81,300L742.857,262.5L761.905,300L780.952,300L800,262.5L800,262.5L780.952,300L761.905,300L742.857,262.5L723.81,300L704.762,300L685.714,300L666.667,300L647.619,300L628.571,300L609.524,300L590.476,300L571.429,300L552.381,300L533.333,300L514.286,300L495.238,300L476.19,300L457.143,262.5L438.095,300L419.048,300L400,300L380.952,300L361.905,300L342.857,300L323.81,300L304.762,300L285.714,262.5L266.667,262.5L247.619,300L228.571,262.5L209.524,300L190.476,225L171.429,262.5L152.381,300L133.333,300L114.286,300L95.238,300L76.19,300L57.143,300L38.095,300L19.048,300L0,300Z" fill="#f58518"/></g></g><path class="foreground" aria-hidden="true" d="" display="none"/></g><g transform="translate(0,0)"><path class="background" aria-hidden="true" d="M0,0h800v300h-800Z"/><g><g class="mark-area role-mark marks" role="graphics-object" aria-roledescription="area mark container"><path aria-label="Date: Mar 16, 2026; Unique Visitors/day: 0; Repository: karlmdavis/xmlpull" role="graphics-symbol" aria-roledescription="area mark" d="M0,300L19.048,300L38.095,300L57.143,300L76.19,300L95.238,300L114.286,300L133.333,300L152.381,300L171.429,262.5L190.476,225L209.524,300L228.571,262.5L247.619,300L266.667,262.5L285.714,262.5L304.762,300L323.81,300L342.857,300L361.905,300L380.952,300L400,300L419.048,300L438.095,300L457.143,262.5L476.19,300L495.238,300L514.286,300L533.333,300L552.381,300L571.429,300L590.476,300L609.524,300L628.571,300L647.619,300L666.667,300L685.714,300L704.762,300L723.81,300L742.857,262.5L761.905,300L780.952,300L800,262.5L800,300L780.952,300L761.905,300L742.857,300L723.81,300L704.762,300L685.714,300L666.667,300L647.619,300L628.571,300L609.524,300L590.476,300L571.429,300L552.381,300L533.333,300L514.286,300L495.238,300L476.19,300L457.143,300L438.095,300L419.048,300L400,300L380.952,300L361.905,300L342.857,300L323.81,300L304.762,300L285.714,300L266.667,300L247.619,300L228.571,300L209.524,300L190.476,300L171.429,300L152.381,300L133.333,300L114.286,300L95.238,300L76.19,300L57.143,300L38.095,300L19.048,300L0,300Z" fill="#e45756"/></g></g><path class="foreground" aria-hidden="true" d="" display="none"/></g></g><g class="mark-group role-legend" role="graphics-symbol" aria-roledescription="legend" aria-label="Symbol legend titled 'Repository' for fill color with 43 values: justdavis-family/github-analytics-data, justdavis-family/justdavis, karlmdavis/FHIR-Server, karlmdavis/ansible, karlmdavis/ansible-jenkins, ending with karlmdavis/xmlpull"><g transform="translate(818,0)"><path class="background" aria-hidden="true" d="M0,0h176v404h-176Z" pointer-events="none"/><g><g class="mark-group role-legend-entry"><g transform="translate(0,16)"><path class="background" aria-hidden="true" d="M0,0h0v0h0Z" pointer-events="none"/><g><g class="mark-group role-scope" role="graphics-object" aria-roledescription="group mark container"><g transform="translate(0,0)"><path class="background" aria-hidden="true" d="M0,0h176v11h-176Z" pointer-events="none" opacity="1"/><g><g class="mark-symbol role-legend-symbol" pointer-events="none"><path transform="translate(6,6)" d="M5,0A5,5,0,1,1,-5,0A5,5,0,1,1,5,0" fill="#4c78a8" stroke-width="1.5" opacity="1"/></g><g class="mark-text role-legend-label" pointer-events="none"><text text-anchor="start" transform="translate(16,9)" font-family="sans-serif" font-size="10px" fill="#000" opacity="1">justdavis-family/github-analytics-d…</text></g></g><path class="foreground" aria-hidden="true" d="" pointer-events="none" display="none"/></g><g transform="translate(0,13)"><path class="background" aria-hidden="true" d="M0,0h176v11h-176Z" pointer-events="none" opacity="1"/><g><g class="mark-symbol role-legend-symbol" pointer-events="none"><path transform="translate(6,6)" d="M5,0A5,5,0,1,1,-5,0A5,5,0,1,1,5,0" fill="#f58518" stroke-width="1.5" opacity="1"/></g><g class="mark-text role-legend-label" pointer-events="none"><text text-anchor="start" transform="translate(16,9)" font-family="sans-serif" font-size="10px" fill="#000" opacity="1">justdavis-family/justdavis</text></g></g><path class="foreground" aria-hidden="true" d="" pointer-events="none" display="none"/></g><g transform="translate(0,26)"><path class="background" aria-hidden="true" d="M0,0h176v11h-176Z" pointer-events="none" opacity="1"/><g><g class="mark-symbol role-legend-symbol" pointer-events="none"><path transform="translate(6,6)" d="M5,0A5,5,0,1,1,-5,0A5,5,0,1,1,5,0" fill="#e45756" stroke-width="1.5" opacity="1"/></g><g class="mark-text role-legend-label" pointer-events="none"><text text-anchor="start" transform="translate(16,9)" font-family="sans-serif" font-size="10px" fill="#000" opacity="1">karlmdavis/FHIR-Server</text></g></g><path class="foreground" aria-hidden="true" d="" pointer-events="none" display="none"/></g><g transform="translate(0,39)"><path class="background" aria-hidden="true" d="M0,0h176v11h-176Z" pointer-events="none" opacity="1"/><g><g class="mark-symbol role-legend-symbol" pointer-events="none"><path transform="translate(6,6)" d="M5,0A5,5,0,1,1,-5,0A5,5,0,1,1,5,0" fill="#72b7b2" stroke-width="1.5" opacity="1"/></g><g class="mark-text role-legend-label" pointer-events="none"><text text-anchor="start" transform="translate(16,9)" font-family="sans-serif" font-size="10px" fill="#000" opacity="1">karlmdavis/ansible</text></g></g><path class="foreground" aria-hidden="true" d="" pointer-events="none" display="none"/></g><g transform="translate(0,52)"><path class="background" aria-hidden="true" d="M0,0h176v11h-176Z" pointer-events="none" opacity="1"/><g><g class="mark-symbol role-legend-symbol" pointer-events="none"><path transform="translate(6,6)" d="M5,0A5,5,0,1,1,-5,0A5,5,0,1,1,5,0" fill="#54a24b" stroke-width="1.5" opacity="1"/></g><g class="mark-text role-legend-label" pointer-events="none"><text text-anchor="start" transform="translate(16,9)" font-family="sans-serif" font-size="10px" fill="#000" opacity="1">karlmdavis/ansible-jenkins</text></g></g><path class="foreground" aria-hidden="true" d="" pointer-events="none" display="none"/></g><g transform="translate(0,65)"><path class="background" aria-hidden="true" d="M0,0h176v11h-176Z" pointer-events="none" opacity="1"/><g><g class="mark-symbol role-legend-symbol" pointer-events="none"><path transform="translate(6,6)" d="M5,0A5,5,0,1,1,-5,0A5,5,0,1,1,5,0" fill="#eeca3b" stroke-width="1.5" opacity="1"/></g><g class="mark-text role-legend-label" pointer-events="none"><text text-anchor="start" transform="translate(16,9)" font-family="sans-serif" font-size="10px" fill="#000" opacity="1">karlmdavis/ansible-role-acmetool</text></g></g><path class="foreground" aria-hidden="true" d="" pointer-events="none" display="none"/></g><g transform="translate(0,78)"><path class="background" aria-hidden="true" d="M0,0h176v11h-176Z" pointer-events="none" opacity="1"/><g><g class="mark-symbol role-legend-symbol" pointer-events="none"><path transform="translate(6,6)" d="M5,0A5,5,0,1,1,-5,0A5,5,0,1,1,5,0" fill="#b279a2" stroke-width="1.5" opacity="1"/></g><g class="mark-text role-legend-label" pointer-events="none"><text text-anchor="start" transform="translate(16,9)" font-family="sans-serif" font-size="10px" fill="#000" opacity="1">karlmdavis/ansible-role-bind-dns</text></g></g><path class="foreground" aria-hidden="true" d="" pointer-events="none" display="none"/></g><g transform="translate(0,91)"><path class="background" aria-hidden="true" d="M0,0h176v11h-176Z" pointer-events="none" opacity="1"/><g><g class="mark-symbol role-legend-symbol" pointer-events="none"><path transform="translate(6,6)" d="M5,0A5,5,0,1,1,-5,0A5,5,0,1,1,5,0" fill="#ff9da6" stroke-width="1.5" opacity="1"/></g><g class="mark-text role-legend-label" pointer-events="none"><text text-anchor="start" transform="translate(16,9)" font-family="sans-serif" font-size="10px" fill="#000" opacity="1">karlmdavis/ansible-role-jenkins2</text></g></g><path class="foreground" aria-hidden="true" d="" pointer-events="none" display="none"/></g><g transform="translate(0,104)"><path class="background" aria-hidden="true" d="M0,0h176v11h-176Z" pointer-events="none" opacity="1"/><g><g class="mark-symbol role-legend-symbol" pointer-events="none"><path transform="translate(6,6)" d="M5,0A5,5,0,1,1,-5,0A5,5,0,1,1,5,0" fill="#9d755d" stroke-width="1.5" opacity="1"/></g><g class="mark-text role-legend-label" pointer-events="none"><text text-anchor="start" transform="translate(16,9)" font-family="sans-serif" font-size="10px" fill="#000" opacity="1">karlmdavis/ansible-role-ldap</text></g></g><path class="foreground" aria-hidden="true" d="" pointer-events="none" display="none"/></g><g transform="translate(0,117)"><path class="background" aria-hidden="true" d="M0,0h176v11h-176Z" pointer-events="none" opacity="1"/><g><g class="mark-symbol role-legend-symbol" pointer-events="none"><path transform="translate(6,6)" d="M5,0A5,5,0,1,1,-5,0A5,5,0,1,1,5,0" fill="#bab0ac" stroke-width="1.5" opacity="1"/></g><g class="mark-text role-legend-label" pointer-events="none"><text text-anchor="start" transform="translate(16,9)" font-family="sans-serif" font-size="10px" fill="#000" opacity="1">karlmdavis/ansible-role-rcm-dotfiles</text></g></g><path class="foreground" aria-hidden="true" d="" pointer-events="none" display="none"/></g><g transform="translate(0,130)"><path class="background" aria-hidden="true" d="M0,0h176v11h-176Z" pointer-events="none" opacity="1"/><g><g class="mark-symbol role-legend-symbol" pointer-events="none"><path transform="translate(6,6)" d="M5,0A5,5,0,1,1,-5,0A5,5,0,1,1,5,0" fill="#4c78a8" stroke-width="1.5" opacity="1"/></g><g class="mark-text role-legend-label" pointer-events="none"><text text-anchor="start" transform="translate(16,9)" font-family="sans-serif" font-size="10px" fill="#000" opacity="1">karlmdavis/ansible-roles</text></g></g><path class="foreground" aria-hidden="true" d="" pointer-events="none" display="none"/></g><g transform="translate(0,143)"><path class="background" aria-hidden="true" d="M0,0h176v11h-176Z" pointer-events="none" opacity="1"/><g><g class="mark-symbol role-legend-symbol" pointer-events="none"><path transform="translate(6,6)" d="M5,0A5,5,0,1,1,-5,0A5,5,0,1,1,5,0" fill="#f58518" stroke-width="1.5" opacity="1"/></g><g class="mark-text role-legend-label" pointer-events="none"><text text-anchor="start" transform="translate(16,9)" font-family="sans-serif" font-size="10px" fill="#000" opacity="1">karlmdavis/bbonfhir-dev-infra-doc…</text></g></g><path class="foreground" aria-hidden="true" d="" pointer-events="none" display="none"/></g><g transform="translate(0,156)"><path class="background" aria-hidden="true" d="M0,0h176v11h-176Z" pointer-events="none" opacity="1"/><g><g class="mark-symbol role-legend-symbol" pointer-events="none"><path transform="translate(6,6)" d="M5,0A5,5,0,1,1,-5,0A5,5,0,1,1,5,0" fill="#e45756" stroke-width="1.5" opacity="1"/></g><g class="mark-text role-legend-label" pointer-events="none"><text text-anchor="start" transform="translate(16,9)" font-family="sans-serif" font-size="10px" fill="#000" opacity="1">karlmdavis/can-i-kayak-baltimore</text></g></g><path class="foreground" aria-hidden="true" d="" pointer-events="none" display="none"/></g><g transform="translate(0,169)"><path class="background" aria-hidden="true" d="M0,0h176v11h-176Z" pointer-events="none" opacity="1"/><g><g class="mark-symbol role-legend-symbol" pointer-events="none"><path transform="translate(6,6)" d="M5,0A5,5,0,1,1,-5,0A5,5,0,1,1,5,0" fill="#72b7b2" stroke-width="1.5" opacity="1"/></g><g class="mark-text role-legend-label" pointer-events="none"><text text-anchor="start" transform="translate(16,9)" font-family="sans-serif" font-size="10px" fill="#000" opacity="1">karlmdavis/datanucleus-test-jdo-1…</text></g></g><path class="foreground" aria-hidden="true" d="" pointer-events="none" display="none"/></g><g transform="translate(0,182)"><path class="background" aria-hidden="true" d="M0,0h176v11h-176Z" pointer-events="none" opacity="1"/><g><g class="mark-symbol role-legend-symbol" pointer-events="none"><path transform="translate(6,6)" d="M5,0A5,5,0,1,1,-5,0A5,5,0,1,1,5,0" fill="#54a24b" stroke-width="1.5" opacity="1"/></g><g class="mark-text role-legend-label" pointer-events="none"><text text-anchor="start" transform="translate(16,9)" font-family="sans-serif" font-size="10px" fill="#000" opacity="1">karlmdavis/dotfiles</text></g></g><path class="foreground" aria-hidden="true" d="" pointer-events="none" display="none"/></g><g transform="translate(0,195)"><path class="background" aria-hidden="true" d="M0,0h176v11h-176Z" pointer-events="none" opacity="1"/><g><g class="mark-symbol role-legend-symbol" pointer-events="none"><path transform="translate(6,6)" d="M5,0A5,5,0,1,1,-5,0A5,5,0,1,1,5,0" fill="#eeca3b" stroke-width="1.5" opacity="1"/></g><g class="mark-text role-legend-label" pointer-events="none"><text text-anchor="start" transform="translate(16,9)" font-family="sans-serif" font-size="10px" fill="#000" opacity="1">karlmdavis/fhir-benchmarks</text></g></g><path class="foreground" aria-hidden="true" d="" pointer-events="none" display="none"/></g><g transform="translate(0,208)"><path class="background" aria-hidden="true" d="M0,0h176v11h-176Z" pointer-events="none" opacity="1"/><g><g class="mark-symbol role-legend-symbol" pointer-events="none"><path transform="translate(6,6)" d="M5,0A5,5,0,1,1,-5,0A5,5,0,1,1,5,0" fill="#b279a2" stroke-width="1.5" opacity="1"/></g><g class="mark-text role-legend-label" pointer-events="none"><text text-anchor="start" transform="translate(16,9)" font-family="sans-serif" font-size="10px" fill="#000" opacity="1">karlmdavis/hapi-fhir-jpaserver-sta…</text></g></g><path class="foreground" aria-hidden="true" d="" pointer-events="none" display="none"/></g><g transform="translate(0,221)"><path class="background" aria-hidden="true" d="M0,0h176v11h-176Z" pointer-events="none" opacity="1"/><g><g class="mark-symbol role-legend-symbol" pointer-events="none"><path transform="translate(6,6)" d="M5,0A5,5,0,1,1,-5,0A5,5,0,1,1,5,0" fill="#ff9da6" stroke-width="1.5" opacity="1"/></g><g class="mark-text role-legend-label" pointer-events="none"><text text-anchor="start" transform="translate(16,9)" font-family="sans-serif" font-size="10px" fill="#000" opacity="1">karlmdavis/hello-rust-actix</text></g></g><path class="foreground" aria-hidden="true" d="" pointer-events="none" display="none"/></g><g transform="translate(0,234)"><path class="background" aria-hidden="true" d="M0,0h176v11h-176Z" pointer-events="none" opacity="1"/><g><g class="mark-symbol role-legend-symbol" pointer-events="none"><path transform="translate(6,6)" d="M5,0A5,5,0,1,1,-5,0A5,5,0,1,1,5,0" fill="#9d755d" stroke-width="1.5" opacity="1"/></g><g class="mark-text role-legend-label" pointer-events="none"><text text-anchor="start" transform="translate(16,9)" font-family="sans-serif" font-size="10px" fill="#000" opacity="1">karlmdavis/jessentials</text></g></g><path class="foreground" aria-hidden="true" d="" pointer-events="none" display="none"/></g><g transform="translate(0,247)"><path class="background" aria-hidden="true" d="M0,0h176v11h-176Z" pointer-events="none" opacity="1"/><g><g class="mark-symbol role-legend-symbol" pointer-events="none"><path transform="translate(6,6)" d="M5,0A5,5,0,1,1,-5,0A5,5,0,1,1,5,0" fill="#bab0ac" stroke-width="1.5" opacity="1"/></g><g class="mark-text role-legend-label" pointer-events="none"><text text-anchor="start" transform="translate(16,9)" font-family="sans-serif" font-size="10px" fill="#000" opacity="1">karlmdavis/justdavis-ansible</text></g></g><path class="foreground" aria-hidden="true" d="" pointer-events="none" display="none"/></g><g transform="translate(0,260)"><path class="background" aria-hidden="true" d="M0,0h176v11h-176Z" pointer-events="none" opacity="1"/><g><g class="mark-symbol role-legend-symbol" pointer-events="none"><path transform="translate(6,6)" d="M5,0A5,5,0,1,1,-5,0A5,5,0,1,1,5,0" fill="#4c78a8" stroke-width="1.5" opacity="1"/></g><g class="mark-text role-legend-label" pointer-events="none"><text text-anchor="start" transform="translate(16,9)" font-family="sans-serif" font-size="10px" fill="#000" opacity="1">karlmdavis/justdavis-finances</text></g></g><path class="foreground" aria-hidden="true" d="" pointer-events="none" display="none"/></g><g transform="translate(0,273)"><path class="background" aria-hidden="true" d="M0,0h176v11h-176Z" pointer-events="none" opacity="1"/><g><g class="mark-symbol role-legend-symbol" pointer-events="none"><path transform="translate(6,6)" d="M5,0A5,5,0,1,1,-5,0A5,5,0,1,1,5,0" fill="#f58518" stroke-width="1.5" opacity="1"/></g><g class="mark-text role-legend-label" pointer-events="none"><text text-anchor="start" transform="translate(16,9)" font-family="sans-serif" font-size="10px" fill="#000" opacity="1">karlmdavis/justdavis-karl</text></g></g><path class="foreground" aria-hidden="true" d="" pointer-events="none" display="none"/></g><g transform="translate(0,286)"><path class="background" aria-hidden="true" d="M0,0h176v11h-176Z" pointer-events="none" opacity="1"/><g><g class="mark-symbol role-legend-symbol" pointer-events="none"><path transform="translate(6,6)" d="M5,0A5,5,0,1,1,-5,0A5,5,0,1,1,5,0" fill="#e45756" stroke-width="1.5" opacity="1"/></g><g class="mark-text role-legend-label" pointer-events="none"><text text-anchor="start" transform="translate(16,9)" font-family="sans-serif" font-size="10px" fill="#000" opacity="1">karlmdavis/justdavis-puppet</text></g></g><path class="foreground" aria-hidden="true" d="" pointer-events="none" display="none"/></g><g transform="translate(0,299)"><path class="background" aria-hidden="true" d="M0,0h176v11h-176Z" pointer-events="none" opacity="1"/><g><g class="mark-symbol role-legend-symbol" pointer-events="none"><path transform="translate(6,6)" d="M5,0A5,5,0,1,1,-5,0A5,5,0,1,1,5,0" fill="#72b7b2" stroke-width="1.5" opacity="1"/></g><g class="mark-text role-legend-label" pointer-events="none"><text text-anchor="start" transform="translate(16,9)" font-family="sans-serif" font-size="10px" fill="#000" opacity="1">karlmdavis/kobjects</text></g></g><path class="foreground" aria-hidden="true" d="" pointer-events="none" display="none"/></g><g transform="translate(0,312)"><path class="background" aria-hidden="true" d="M0,0h176v11h-176Z" pointer-events="none" opacity="1"/><g><g class="mark-symbol role-legend-symbol" pointer-events="none"><path transform="translate(6,6)" d="M5,0A5,5,0,1,1,-5,0A5,5,0,1,1,5,0" fill="#54a24b" stroke-width="1.5" opacity="1"/></g><g class="mark-text role-legend-label" pointer-events="none"><text text-anchor="start" transform="translate(16,9)" font-family="sans-serif" font-size="10px" fill="#000" opacity="1">karlmdavis/ksoap2-android</text></g></g><path class="foreground" aria-hidden="true" d="" pointer-events="none" display="none"/></g><g transform="translate(0,325)"><path class="background" aria-hidden="true" d="M0,0h176v11h-176Z" pointer-events="none" opacity="1"/><g><g class="mark-symbol role-legend-symbol" pointer-events="none"><path transform="translate(6,6)" d="M5,0A5,5,0,1,1,-5,0A5,5,0,1,1,5,0" fill="#eeca3b" stroke-width="1.5" opacity="1"/></g><g class="mark-text role-legend-label" pointer-events="none"><text text-anchor="start" transform="translate(16,9)" font-family="sans-serif" font-size="10px" fill="#000" opacity="1">karlmdavis/kxml2</text></g></g><path class="foreground" aria-hidden="true" d="" pointer-events="none" display="none"/></g><g transform="translate(0,338)"><path class="background" aria-hidden="true" d="M0,0h176v11h-176Z" pointer-events="none" opacity="1"/><g><g class="mark-symbol role-legend-symbol" pointer-events="none"><path transform="translate(6,6)" d="M5,0A5,5,0,1,1,-5,0A5,5,0,1,1,5,0" fill="#b279a2" stroke-width="1.5" opacity="1"/></g><g class="mark-text role-legend-label" pointer-events="none"><text text-anchor="start" transform="translate(16,9)" font-family="sans-serif" font-size="10px" fill="#000" opacity="1">karlmdavis/ldap-plugin</text></g></g><path class="foreground" aria-hidden="true" d="" pointer-events="none" display="none"/></g><g transform="translate(0,351)"><path class="background" aria-hidden="true" d="M0,0h176v11h-176Z" pointer-events="none" opacity="1"/><g><g class="mark-symbol role-legend-symbol" pointer-events="none"><path transform="translate(6,6)" d="M5,0A5,5,0,1,1,-5,0A5,5,0,1,1,5,0" fill="#ff9da6" stroke-width="1.5" opacity="1"/></g><g class="mark-text role-legend-label" pointer-events="none"><text text-anchor="start" transform="translate(16,9)" font-family="sans-serif" font-size="10px" fill="#000" opacity="1">karlmdavis/lego-ev3dev-rs</text></g></g><path class="foreground" aria-hidden="true" d="" pointer-events="none" display="none"/></g><g transform="translate(0,364)"><path class="background" aria-hidden="true" d="M0,0h176v11h-176Z" pointer-events="none" opacity="1"/><g><g class="mark-symbol role-legend-symbol" pointer-events="none"><path transform="translate(6,6)" d="M5,0A5,5,0,1,1,-5,0A5,5,0,1,1,5,0" fill="#9d755d" stroke-width="1.5" opacity="1"/></g><g class="mark-text role-legend-label" pointer-events="none"><text text-anchor="start" transform="translate(16,9)" font-family="sans-serif" font-size="10px" fill="#000" opacity="1">karlmdavis/liquibase</text></g></g><path class="foreground" aria-hidden="true" d="" pointer-events="none" display="none"/></g><g transform="translate(0,377)"><path class="background" aria-hidden="true" d="M0,0h176v11h-176Z" pointer-events="none" opacity="1"/><g><g class="mark-symbol role-legend-symbol" pointer-events="none"><path transform="translate(6,6)" d="M5,0A5,5,0,1,1,-5,0A5,5,0,1,1,5,0" fill="#bab0ac" stroke-width="1.5" opacity="1"/></g><g class="mark-text role-legend-label" pointer-events="none"><text text-anchor="start" transform="translate(16,9)" font-family="sans-serif" font-size="10px" fill="#000" opacity="1">…14 entries</text></g></g><path class="foreground" aria-hidden="true" d="" pointer-events="none" display="none"/></g></g></g><path class="foreground" aria-hidden="true" d="" pointer-events="none" display="none"/></g></g><g class="mark-text role-legend-title" pointer-events="none"><text text-anchor="start" transform="translate(0,9)" font-family="sans-serif" font-size="11px" font-weight="bold" fill="#000" opacity="1">Repository</text></g></g><path class="foreground" aria-hidden="true" d="" pointer-events="none" display="none"/></g></g><g class="mark-group role-title"><g transform="translate(400,-22)"><path class="background" aria-hidden="true" d="M0,0h0v0h0Z" pointer-events="none"/><g><g class="mark-text role-title-text" role="graphics-symbol" aria-roledescription="title" aria-label="Title text 'Unique Visitors per Day'" pointer-events="none"><text text-anchor="middle" transform="translate(0,10)" font-family="sans-serif" font-size="13px" font-weight="bold" fill="#000" opacity="1">Unique Visitors per Day</text></g></g><path class="foreground" aria-hidden="true" d="" pointer-events="none" display="none"/></g></g></g><path class="foreground" aria-hidden="true" d="" display="none"/></g></g></g></svg>