<svg xmlns="http://www.w3.org/2000/svg" xmlns:xlink="http://www.w3.org/1999/xlink" version="1.1" class="marks" width="1043" height="436" viewBox="0 0 1043 436"><rect width="1043" height="436" fill="white"/><g fill="none" stroke-miterlimit="10" transform="translate(44,27)"><g class="mark-group role-frame root" role="graphics-object" aria-roledescription="group mark container"><g transform="translate(0,0)"><path class="background" aria-hidden="true" d="M0.5,0.5h800v300h-800Z" stroke="#ddd"/><g><g class="mark-group role-axis" aria-hidden="true"><g transform="translate(0.5,300.5)"><path class="background" aria-hidden="true" d="M0,0h0v0h0Z" pointer-events="none"/><g><g class="mark-rule role-axis-grid" pointer-events="none"><line transform="translate(28,-300)" x2="0" y2="300" stroke="#ddd" stroke-width="1" opacity="1"/><line transform="translate(83,-300)" x2="0" y2="300" stroke="#ddd" stroke-width="1" opacity="1"/><line transform="translate(138,-300)" x2="0" y2="300" stroke="#ddd" stroke-width="1" opacity="1"/><line transform="translate(193,-300)" x2="0" y2="300" stroke="#ddd" stroke-width="1" opacity="1"/><line transform="translate(248,-300)" x2="0" y2="300" stroke="#ddd" stroke-width="1" opacity="1"/><line transform="translate(303,-300)" x2="0" y2="300" stroke="#ddd" stroke-width="1" opacity="1"/><line transform="translate(359,-300)" x2="0" y2="300" stroke="#ddd" stroke-width="1" opacity="1"/><line transform="translate(414,-300)" x2="0" y2="300" stroke="#ddd" stroke-width="1" opacity="1"/><line transform="translate(441,-300)" x2="0" y2="300" stroke="#ddd" stroke-width="1" opacity="1"/><line transform="translate(497,-300)" x2="0" y2="300" stroke="#ddd" stroke-width="1" opacity="1"/><line transform="translate(552,-300)" x2="0" y2="300" stroke="#ddd" stroke-width="1" opacity="1"/><line transform="translate(607,-300)" x2="0" y2="300" stroke="#ddd" stroke-width="1" opacity="1"/><line transform="translate(662,-300)" x2="0" y2="300" stroke="#ddd" stroke-width="1" opacity="1"/><line transform="translate(717,-300)" x2="0" y2="300" stroke="#ddd" stroke-width="1" opacity="1"/><line transform="translate(772,-300)" x2="0" y2="300" stroke="#ddd" stroke-width="1" opacity="1"/></g></g><path class="foreground" aria-hidden="true" d="" pointer-events="none" display="none"/></g></g><g class="mark-group role-axis" aria-hidden="true"><g transform="translate(0.5,0.5)"><path class="background" aria-hidden="true" d="M0,0h0v0h0Z" pointer-events="none"/><g><g class="mark-rule role-axis-grid" pointer-events="none"><line transform="translate(0,300)" x2="800" y2="0" stroke="#ddd" stroke-width="1" opacity="1"/><line transform="translate(0,273)" x2="800" y2="0" stroke="#ddd" stroke-width="1" opacity="1"/><line transform="translate(0,245)" x2="800" y2="0" stroke="#ddd" stroke-width="1" opacity="1"/><line transform="translate(0,218)" x2="800" y2="0" stroke="#ddd" stroke-width="1" opacity="1"/><line transform="translate(0,191)" x2="800" y2="0" stroke="#ddd" stroke-width="1" opacity="1"/><line transform="translate(0,164)" x2="800" y2="0" stroke="#ddd" stroke-width="1" opacity="1"/><line transform="translate(0,136)" x2="800" y2="0" stroke="#ddd" stroke-width="1" opacity="1"/><line transform="translate(0,109)" x2="800" y2="0" stroke="#ddd" stroke-width="1" opacity="1"/><line transform="translate(0,82)" x2="800" y2="0" stroke="#ddd" stroke-width="1" opacity="1"/><line transform="translate(0,55)" x2="800" y2="0" stroke="#ddd" stroke-width="1" opacity="1"/><line transform="translate(0,27)" x2="800" y2="0" stroke="#ddd" stroke-width="1" opacity="1"/><line transform="translate(0,0)" x2="800" y2="0" stroke="#ddd" stroke-width="1" opacity="1"/></g></g><path class="foreground" aria-hidden="true" d="" pointer-events="none" display="none"/></g></g><g class="mark-group role-axis" role="graphics-symbol" aria-roledescription="axis" aria-label="X-axis titled 'Date' for a time scale with values from Monday, 16 March 2026, 12:00:00 AM to Tuesday, 14 April 2026, 12:00:00 AM"><g transform="translate(0.5,300.5)"><path class="background" aria-hidden="true" d="M0,0h0v0h0Z" pointer-events="none"/><g><g class="mark-rule role-axis-tick" pointer-events="none"><line transform="translate(28,0)" x2="0" y2="5" stroke="#888" stroke-width="1" opacity="1"/><line transform="translate(83,0)" x2="0" y2="5" stroke="#888" stroke-width="1" opacity="1"/><line transform="translate(138,0)" x2="0" y2="5" stroke="#888" stroke-width="1" opacity="1"/><line transform="translate(193,0)" x2="0" y2="5" stroke="#888" stroke-width="1" opacity="1"/><line transform="translate(248,0)" x2="0" y2="5" stroke="#888" stroke-width="1" opacity="1"/><line transform="translate(303,0)" x2="0" y2="5" stroke="#888" stroke-width="1" opacity="1"/><line transform="translate(359,0)" x2="0" y2="5" stroke="#888" stroke-width="1" opacity="1"/><line transform="translate(414,0)" x2="0" y2="5" stroke="#888" stroke-width="1" opacity="1"/><line transform="translate(441,0)" x2="0" y2="5" stroke="#888" stroke-width="1" opacity="1"/><line transform="translate(497,0)" x2="0" y2="5" stroke="#888" stroke-width="1" opacity="1"/><line transform="translate(552,0)" x2="0" y2="5" stroke="#888" stroke-width="1" opacity="1"/><line transform="translate(607,0)" x2="0" y2="5" stroke="#888" stroke-width="1" opacity="1"/><line transform="translate(662,0)" x2="0" y2="5" stroke="#888" stroke-width="1" opacity="1"/><line transform="translate(717,0)" x2="0" y2="5" stroke="#888" stroke-width="1" opacity="1"/><line transform="translate(772,0)" x2="0" y2="5" stroke="#888" stroke-width="1" opacity="1"/></g><g class="mark-text role-axis-label" pointer-events="none"><text text-anchor="middle" transform="translate(27.586206896551722,15)" font-family="sans-serif" font-size="10px" fill="#000" opacity="1">Tue 17</text><text text-anchor="middle" transform="translate(82.75862068965517,15)" font-family="sans-serif" font-size="10px" fill="#000" opacity="1">Thu 19</text><text text-anchor="middle" transform="translate(137.93103448275863,15)" font-family="sans-serif" font-size="10px" fill="#000" opacity="1">Sat 21</text><text text-anchor="middle" transform="translate(193.10344827586206,15)" font-family="sans-serif" font-size="10px" fill="#000" opacity="1">Mon 23</text><text text-anchor="middle" transform="translate(248.27586206896552,15)" font-family="sans-serif" font-size="10px" fill="#000" opacity="1">Wed 25</text><text text-anchor="middle" transform="translate(303.44827586206895,15)" font-family="sans-serif" font-size="10px" fill="#000" opacity="1">Fri 27</text><text text-anchor="middle" transform="translate(358.62068965517244,15)" font-family="sans-serif" font-size="10px" fill="#000" opacity="1">Mar 29</text><text text-anchor="middle" transform="translate(413.7931034482759,15)" font-family="sans-serif" font-size="10px" fill="#000" opacity="1">Tue 31</text><text text-anchor="middle" transform="translate(441.37931034482756,15)" font-family="sans-serif" font-size="10px" fill="#000" opacity="1">April</text><text text-anchor="middle" transform="translate(496.55172413793105,15)" font-family="sans-serif" font-size="10px" fill="#000" opacity="1">Fri 03</text><text text-anchor="middle" transform="translate(551.7241379310345,15)" font-family="sans-serif" font-size="10px" fill="#000" opacity="1">Apr 05</text><text text-anchor="middle" transform="translate(606.8965517241379,15)" font-family="sans-serif" font-size="10px" fill="#000" opacity="1">Tue 07</text><text text-anchor="middle" transform="translate(662.0689655172414,15)" font-family="sans-serif" font-size="10px" fill="#000" opacity="1">Thu 09</text><text text-anchor="middle" transform="translate(717.2413793103449,15)" font-family="sans-serif" font-size="10px" fill="#000" opacity="1">Sat 11</text><text text-anchor="middle" transform="translate(772.4137931034483,15)" font-family="sans-serif" font-size="10px" fill="#000" opacity="1">Mon 13</text></g><g class="mark-rule role-axis-domain" pointer-events="none"><line transform="translate(0,0)" x2="800" y2="0" stroke="#888" stroke-width="1" opacity="1"/></g><g class="mark-text role-axis-title" pointer-events="none"><text text-anchor="middle" transform="translate(400,30)" font-family="sans-serif" font-size="11px" font-weight="bold" fill="#000" opacity="1">Date</text></g></g><path class="foreground" aria-hidden="true" d="" pointer-events="none" display="none"/></g></g><g class="mark-group role-axis" role="graphics-symbol" aria-roledescription="axis" aria-label="Y-axis titled 'Unique Clones/day' for a linear scale with values from 0 to 220"><g transform="translate(0.5,0.5)"><path class="background" aria-hidden="true" d="M0,0h0v0h0Z" pointer-events="none"/><g><g class="mark-rule role-axis-tick" pointer-events="none"><line transform="translate(0,300)" x2="-5" y2="0" stroke="#888" stroke-width="1" opacity="1"/><line transform="translate(0,273)" x2="-5" y2="0" stroke="#888" stroke-width="1" opacity="1"/><line transform="translate(0,245)" x2="-5" y2="0" stroke="#888" stroke-width="1" opacity="1"/><line transform="translate(0,218)" x2="-5" y2="0" stroke="#888" stroke-width="1" opacity="1"/><line transform="translate(0,191)" x2="-5" y2="0" stroke="#888" stroke-width="1" opacity="1"/><line transform="translate(0,164)" x2="-5" y2="0" stroke="#888" stroke-width="1" opacity="1"/><line transform="translate(0,136)" x2="-5" y2="0" stroke="#888" stroke-width="1" opacity="1"/><line transform="translate(0,109)" x2="-5" y2="0" stroke="#888" stroke-width="1" opacity="1"/><line transform="translate(0,82)" x2="-5" y2="0" stroke="#888" stroke-width="1" opacity="1"/><line transform="translate(0,55)" x2="-5" y2="0" stroke="#888" stroke-width="1" opacity="1"/><line transform="translate(0,27)" x2="-5" y2="0" stroke="#888" stroke-width="1" opacity="1"/><line transform="translate(0,0)" x2="-5" y2="0" stroke="#888" stroke-width="1" opacity="1"/></g><g class="mark-text role-axis-label" pointer-events="none"><text text-anchor="end" transform="translate(-7,303)" font-family="sans-serif" font-size="10px" fill="#000" opacity="1">0</text><text text-anchor="end" transform="translate(-7,275.7272727272727)" font-family="sans-serif" font-size="10px" fill="#000" opacity="1">20</text><text text-anchor="end" transform="translate(-7,248.45454545454544)" font-family="sans-serif" font-size="10px" fill="#000" opacity="1">40</text><text text-anchor="end" transform="translate(-7,221.1818181818182)" font-family="sans-serif" font-size="10px" fill="#000" opacity="1">60</text><text text-anchor="end" transform="translate(-7,193.9090909090909)" font-family="sans-serif" font-size="10px" fill="#000" opacity="1">80</text><text text-anchor="end" transform="translate(-7,166.63636363636363)" font-family="sans-serif" font-size="10px" fill="#000" opacity="1">100</text><text text-anchor="end" transform="translate(-7,139.36363636363637)" font-family="sans-serif" font-size="10px" fill="#000" opacity="1">120</text><text text-anchor="end" transform="translate(-7,112.0909090909091)" font-family="sans-serif" font-size="10px" fill="#000" opacity="1">140</text><text text-anchor="end" transform="translate(-7,84.81818181818181)" font-family="sans-serif" font-size="10px" fill="#000" opacity="1">160</text><text text-anchor="end" transform="translate(-7,57.54545454545453)" font-family="sans-serif" font-size="10px" fill="#000" opacity="1">180</text><text text-anchor="end" transform="translate(-7,30.27272727272728)" font-family="sans-serif" font-size="10px" fill="#000" opacity="1">200</text><text text-anchor="end" transform="translate(-7,3)" font-family="sans-serif" font-size="10px" fill="#000" opacity="1">220</text></g><g class="mark-rule role-axis-domain" pointer-events="none"><line transform="translate(0,300)" x2="0" y2="-300" stroke="#888" stroke-width="1" opacity="1"/></g><g class="mark-text role-axis-title" pointer-events="none"><text text-anchor="middle" transform="translate(-27.6845703125,150) rotate(-90) translate(0,-2)" font-family="sans-serif" font-size="11px" font-weight="bold" fill="#000" opacity="1">Unique Clones/day</text></g></g><path class="foreground" aria-hidden="true" d="" pointer-events="none" display="none"/></g></g><g class="mark-group role-scope pathgroup" role="graphics-object" aria-roledescription="group mark container"><g transform="translate(0,0)"><path class="background" aria-hidden="true" d="M0,0h800v300h-800Z"/><g><g class="mark-area role-mark marks" role="graphics-object" aria-roledescription="area mark container"><path aria-label="Date: Mar 16, 2026; Unique Clones/day: 0; Repository: justdavis-family/github-analytics-data" role="graphics-symbol" aria-roledescription="area mark" d="M0,298.636L27.586,300L55.172,300L82.759,298.636L110.345,300L137.931,300L165.517,300L193.103,282.273L220.69,297.273L248.276,290.455L275.862,278.182L303.448,205.909L331.034,237.273L358.621,169.091L386.207,255L413.793,268.636L441.379,274.091L468.966,286.364L496.552,259.091L524.138,73.636L551.724,148.636L579.31,257.727L606.897,155.455L634.483,250.909L662.069,229.091L689.655,271.364L717.241,249.545L744.828,212.727L772.414,4.091L800,272.727L800,287.727L772.414,10.909L744.828,229.091L717.241,260.455L689.655,280.909L662.069,238.636L634.483,257.727L606.897,190.909L579.31,257.727L551.724,148.636L524.138,73.636L496.552,259.091L468.966,286.364L441.379,274.091L413.793,268.636L386.207,255L358.621,169.091L331.034,237.273L303.448,205.909L275.862,278.182L248.276,290.455L220.69,297.273L193.103,282.273L165.517,300L137.931,300L110.345,300L82.759,298.636L55.172,300L27.586,300L0,298.636Z" fill="#4c78a8"/></g></g><path class="foreground" aria-hidden="true" d="" display="none"/></g><g transform="translate(0,0)"><path class="background" aria-hidden="true" d="M0,0h800v300h-800Z"/><g><g class="mark-area role-mark marks" role="graphics-object" aria-roledescription="area mark container"><path aria-label="Date: Mar 16, 2026; Unique Clones/day: 0; Repository: justdavis-family/justdavis" role="graphics-symbol" aria-roledescription="area mark" d="M0,298.636L27.586,300L55.172,300L82.759,298.636L110.345,300L137.931,300L165.517,300L193.103,282.273L220.69,297.273L248.276,290.455L275.862,278.182L303.448,205.909L331.034,237.273L358.621,169.091L386.207,255L413.793,268.636L441.379,274.091L468.966,286.364L496.552,259.091L524.138,73.636L551.724,148.636L579.31,257.727L606.897,190.909L634.483,257.727L662.069,238.636L689.655,280.909L717.241,260.455L744.828,229.091L772.414,10.909L800,287.727L800,287.727L772.414,178.636L744.828,250.909L717.241,264.545L689.655,283.636L662.069,244.091L634.483,260.455L606.897,259.091L579.31,282.273L551.724,189.545L524.138,180L496.552,260.455L468.966,286.364L441.379,275.455L413.793,268.636L386.207,255L358.621,169.091L331.034,237.273L303.448,205.909L275.862,278.182L248.276,290.455L220.69,297.273L193.103,283.636L165.517,300L137.931,300L110.345,300L82.759,298.636L55.172,300L27.586,300L0,298.636Z" fill="#f58518"/></g></g><path class="foreground" aria-hidden="true" d="" display="none"/></g><g transform="translate(0,0)"><path class="background" aria-hidden="true" d="M0,0h800v300h-800Z"/><g><g class="mark-area role-mark marks" role="graphics-object" aria-roledescription="area mark container"><path aria-label="Date: Mar 16, 2026; Unique Clones/day: 0; Repository: karlmdavis/FHIR-Server" role="graphics-symbol" aria-roledescription="area mark" d="M0,298.636L27.586,300L55.172,300L82.759,298.636L110.345,300L137.931,300L165.517,300L193.103,283.636L220.69,297.273L248.276,290.455L275.862,278.182L303.448,205.909L331.034,237.273L358.621,169.091L386.207,255L413.793,268.636L441.379,275.455L468.966,286.364L496.552,260.455L524.138,180L551.724,189.545L579.31,282.273L606.897,259.091L634.483,260.455L662.069,244.091L689.655,283.636L717.241,264.545L744.828,250.909L772.414,178.636L800,287.727L800,287.727L772.414,178.636L744.828,252.273L717.241,267.273L689.655,283.636L662.069,244.091L634.483,260.455L606.897,259.091L579.31,282.273L551.724,189.545L524.138,180L496.552,260.455L468.966,286.364L441.379,275.455L413.793,270L386.207,255L358.621,169.091L331.034,237.273L303.448,205.909L275.862,278.182L248.276,290.455L220.69,297.273L193.103,283.636L165.517,300L137.931,300L110.345,300L82.759,298.636L55.172,300L27.586,300L0,298.636Z" fill="#e45756"/></g></g><path class="foreground" aria-hidden="true" d="" display="none"/></g><g transform="translate(0,0)"><path class="background" aria-hidden="true" d="M0,0h800v300h-800Z"/><g><g class="mark-area role-mark marks" role="graphics-object" aria-roledescription="area mark container"><path aria-label="Date: Mar 16, 2026; Unique Clones/day: 1; Repository: karlmdavis/ansible" role="graphics-symbol" aria-roledescription="area mark" d="M0,298.636L27.586,300L55.172,300L82.759,298.636L110.345,300L137.931,300L165.517,300L193.103,283.636L220.69,297.273L248.276,290.455L275.862,278.182L303.448,205.909L331.034,237.273L358.621,169.091L386.207,255L413.793,270L441.379,275.455L468.966,286.364L496.552,260.455L524.138,180L551.724,189.545L579.31,282.273L606.897,259.091L634.483,260.455L662.069,244.091L689.655,283.636L717.241,267.273L744.828,252.273L772.414,178.636L800,287.727L800,289.091L772.414,178.636L744.828,252.273L717.241,267.273L689.655,283.636L662.069,244.091L634.483,260.455L606.897,259.091L579.31,282.273L551.724,189.545L524.138,180L496.552,260.455L468.966,286.364L441.379,275.455L413.793,270L386.207,255L358.621,169.091L331.034,237.273L303.448,205.909L275.862,278.182L248.276,290.455L220.69,297.273L193.103,283.636L165.517,300L137.931,300L110.345,300L82.759,298.636L55.172,300L27.586,300L0,300Z" fill="#72b7b2"/></g></g><path class="foreground" aria-hidden="true" d="" display="none"/></g><g transform="translate(0,0)"><path class="background" aria-hidden="true" d="M0,0h800v300h-800Z"/><g><g class="mark-area role-mark marks" role="graphics-object" aria-roledescription="area mark container"><path aria-label="Date: Mar 16, 2026; Unique Clones/day: 0; Repository: karlmdavis/ansible-jenkins" role="graphics-symbol" aria-roledescription="area mark" d="M0,300L27.586,300L55.172,300L82.759,298.636L110.345,300L137.931,300L165.517,300L193.103,283.636L220.69,297.273L248.276,290.455L275.862,278.182L303.448,205.909L331.034,237.273L358.621,169.091L386.207,255L413.793,270L441.379,275.455L468.966,286.364L496.552,260.455L524.138,180L551.724,189.545L579.31,282.273L606.897,259.091L634.483,260.455L662.069,244.091L689.655,283.636L717.241,267.273L744.828,252.273L772.414,178.636L800,289.091L800,289.091L772.414,178.636L744.828,253.636L717.241,267.273L689.655,283.636L662.069,244.091L634.483,260.455L606.897,259.091L579.31,282.273L551.724,189.545L524.138,181.364L496.552,261.818L468.966,286.364L441.379,275.455L413.793,270L386.207,255L358.621,169.091L331.034,237.273L303.448,205.909L275.862,279.545L248.276,290.455L220.69,297.273L193.103,283.636L165.517,300L137.931,300L110.345,300L82.759,298.636L55.172,300L27.586,300L0,300Z" fill="#54a24b"/></g></g><path class="foreground" aria-hidden="true" d="" display="none"/></g><g transform="translate(0,0)"><path class="background" aria-hidden="true" d="M0,0h800v300h-800Z"/><g><g class="mark-area role-mark marks" role="graphics-object" aria-roledescription="area mark container"><path aria-label="Date: Mar 16, 2026; Unique Clones/day: 0; Repository: karlmdavis/ansible-role-acmetool" role="graphics-symbol" aria-roledescription="area mark" d="M0,300L27.586,300L55.172,300L82.759,298.636L110.345,300L137.931,300L165.517,300L193.103,283.636L220.69,297.273L248.276,290.455L275.862,279.545L303.448,205.909L331.034,237.273L358.621,169.091L386.207,255L413.793,270L441.379,275.455L468.966,286.364L496.552,261.818L524.138,181.364L551.724,189.545L579.31,282.273L606.897,259.091L634.483,260.455L662.069,244.091L689.655,283.636L717.241,267.273L744.828,253.636L772.414,178.636L800,289.091L800,289.091L772.414,178.636L744.828,255L717.241,267.273L689.655,283.636L662.069,244.091L634.483,260.455L606.897,259.091L579.31,282.273L551.724,189.545L524.138,181.364L496.552,261.818L468.966,286.364L441.379,275.455L413.793,270L386.207,255L358.621,169.091L331.034,237.273L303.448,205.909L275.862,280.909L248.276,290.455L220.69,297.273L193.103,283.636L165.517,300L137.931,300L110.345,300L82.759,298.636L55.172,300L27.586,300L0,300Z" fill="#eeca3b"/></g></g><path class="foreground" aria-hidden="true" d="" display="none"/></g><g transform="translate(0,0)"><path class="background" aria-hidden="true" d="M0,0h800v300h-800Z"/><g><g class="mark-area role-mark marks" role="graphics-object" aria-roledescription="area mark container"><path aria-label="Date: Mar 16, 2026; Unique Clones/day: 0; Repository: karlmdavis/ansible-role-bind-dns" role="graphics-symbol" aria-roledescription="area mark" d="M0,300L27.586,300L55.172,300L82.759,298.636L110.345,300L137.931,300L165.517,300L193.103,283.636L220.69,297.273L248.276,290.455L275.862,280.909L303.448,205.909L331.034,237.273L358.621,169.091L386.207,255L413.793,270L441.379,275.455L468.966,286.364L496.552,261.818L524.138,181.364L551.724,189.545L579.31,282.273L606.897,259.091L634.483,260.455L662.069,244.091L689.655,283.636L717.241,267.273L744.828,255L772.414,178.636L800,289.091L800,289.091L772.414,184.091L744.828,256.364L717.241,267.273L689.655,283.636L662.069,245.455L634.483,261.818L606.897,259.091L579.31,282.273L551.724,189.545L524.138,182.727L496.552,261.818L468.966,286.364L441.379,279.545L413.793,270L386.207,256.364L358.621,170.455L331.034,237.273L303.448,208.636L275.862,280.909L248.276,290.455L220.69,297.273L193.103,283.636L165.517,300L137.931,300L110.345,300L82.759,298.636L55.172,300L27.586,300L0,300Z" fill="#b279a2"/></g></g><path class="foreground" aria-hidden="true" d="" display="none"/></g><g transform="translate(0,0)"><path class="background" aria-hidden="true" d="M0,0h800v300h-800Z"/><g><g class="mark-area role-mark marks" role="graphics-object" aria-roledescription="area mark container"><path aria-label="Date: Mar 16, 2026; Unique Clones/day: 0; Repository: karlmdavis/ansible-role-jenkins2" role="graphics-symbol" aria-roledescription="area mark" d="M0,300L27.586,300L55.172,300L82.759,298.636L110.345,300L137.931,300L165.517,300L193.103,283.636L220.69,297.273L248.276,290.455L275.862,280.909L303.448,208.636L331.034,237.273L358.621,170.455L386.207,256.364L413.793,270L441.379,279.545L468.966,286.364L496.552,261.818L524.138,182.727L551.724,189.545L579.31,282.273L606.897,259.091L634.483,261.818L662.069,245.455L689.655,283.636L717.241,267.273L744.828,256.364L772.414,184.091L800,289.091L800,289.091L772.414,190.909L744.828,256.364L717.241,268.636L689.655,286.364L662.069,252.273L634.483,261.818L606.897,259.091L579.31,282.273L551.724,190.909L524.138,185.455L496.552,263.182L468.966,287.727L441.379,280.909L413.793,271.364L386.207,256.364L358.621,170.455L331.034,238.636L303.448,210L275.862,282.273L248.276,291.818L220.69,298.636L193.103,283.636L165.517,300L137.931,300L110.345,300L82.759,298.636L55.172,300L27.586,300L0,300Z" fill="#ff9da6"/></g></g><path class="foreground" aria-hidden="true" d="" display="none"/></g><g transform="translate(0,0)"><path class="background" aria-hidden="true" d="M0,0h800v300h-800Z"/><g><g class="mark-area role-mark marks" role="graphics-object" aria-roledescription="area mark container"><path aria-label="Date: Mar 16, 2026; Unique Clones/day: 0; Repository: karlmdavis/ansible-role-ldap" role="graphics-symbol" aria-roledescription="area mark" d="M0,300L27.586,300L55.172,300L82.759,298.636L110.345,300L137.931,300L165.517,300L193.103,283.636L220.69,298.636L248.276,291.818L275.862,282.273L303.448,210L331.034,238.636L358.621,170.455L386.207,256.364L413.793,271.364L441.379,280.909L468.966,287.727L496.552,263.182L524.138,185.455L551.724,190.909L579.31,282.273L606.897,259.091L634.483,261.818L662.069,252.273L689.655,286.364L717.241,268.636L744.828,256.364L772.414,190.909L800,289.091L800,289.091L772.414,192.273L744.828,256.364L717.241,268.636L689.655,286.364L662.069,252.273L634.483,261.818L606.897,259.091L579.31,282.273L551.724,190.909L524.138,185.455L496.552,263.182L468.966,287.727L441.379,280.909L413.793,272.727L386.207,256.364L358.621,170.455L331.034,238.636L303.448,210L275.862,282.273L248.276,291.818L220.69,298.636L193.103,283.636L165.517,300L137.931,300L110.345,300L82.759,298.636L55.172,300L27.586,300L0,300Z" fill="#9d755d"/></g></g><path class="foreground" aria-hidden="true" d="" display="none"/></g><g transform="translate(0,0)"><path class="background" aria-hidden="true" d="M0,0h800v300h-800Z"/><g><g class="mark-area role-mark marks" role="graphics-object" aria-roledescription="area mark container"><path aria-label="Date: Mar 16, 2026; Unique Clones/day: 0; Repository: karlmdavis/ansible-role-rcm-dotfiles" role="graphics-symbol" aria-roledescription="area mark" d="M0,300L27.586,300L55.172,300L82.759,298.636L110.345,300L137.931,300L165.517,300L193.103,283.636L220.69,298.636L248.276,291.818L275.862,282.273L303.448,210L331.034,238.636L358.621,170.455L386.207,256.364L413.793,272.727L441.379,280.909L468.966,287.727L496.552,263.182L524.138,185.455L551.724,190.909L579.31,282.273L606.897,259.091L634.483,261.818L662.069,252.273L689.655,286.364L717.241,268.636L744.828,256.364L772.414,192.273L800,289.091L800,289.091L772.414,196.364L744.828,257.727L717.241,268.636L689.655,286.364L662.069,253.636L634.483,261.818L606.897,259.091L579.31,282.273L551.724,190.909L524.138,186.818L496.552,263.182L468.966,287.727L441.379,280.909L413.793,272.727L386.207,257.727L358.621,171.818L331.034,238.636L303.448,212.727L275.862,282.273L248.276,291.818L220.69,298.636L193.103,283.636L165.517,300L137.931,300L110.345,300L82.759,298.636L55.172,300L27.586,300L0,300Z" fill="#bab0ac"/></g></g><path class="foreground" aria-hidden="true" d="" display="none"/></g><g transform="translate(0,0)"><path class="background" aria-hidden="true" d="M0,0h800v300h-800Z"/><g><g class="mark-area role-mark marks" role="graphics-object" aria-roledescription="area mark container"><path aria-label="Date: Mar 16, 2026; Unique Clones/day: 0; Repository: karlmdavis/ansible-roles" role="graphics-symbol" aria-roledescription="area mark" d="M0,300L27.586,300L55.172,300L82.759,298.636L110.345,300L137.931,300L165.517,300L193.103,283.636L220.69,298.636L248.276,291.818L275.862,282.273L303.448,212.727L331.034,238.636L358.621,171.818L386.207,257.727L413.793,272.727L441.379,280.909L468.966,287.727L496.552,263.182L524.138,186.818L551.724,190.909L579.31,282.273L606.897,259.091L634.483,261.818L662.069,253.636L689.655,286.364L717.241,268.636L744.828,257.727L772.414,196.364L800,289.091L800,289.091L772.414,196.364L744.828,257.727L717.241,270L689.655,286.364L662.069,253.636L634.483,261.818L606.897,259.091L579.31,282.273L551.724,190.909L524.138,186.818L496.552,263.182L468.966,287.727L441.379,280.909L413.793,272.727L386.207,259.091L358.621,171.818L331.034,238.636L303.448,212.727L275.862,283.636L248.276,291.818L220.69,298.636L193.103,283.636L165.517,300L137.931,300L110.345,300L82.759,298.636L55.172,300L27.586,300L0,300Z" fill="#4c78a8"/></g></g><path class="foreground" aria-hidden="true" d="" display="none"/></g><g transform="translate(0,0)"><path class="background" aria-hidden="true" d="M0,0h800v300h-800Z"/><g><g class="mark-area role-mark marks" role="graphics-object" aria-roledescription="area mark container"><path aria-label="Date: Mar 16, 2026; Unique Clones/day: 0; Repository: karlmdavis/bbonfhir-dev-infra-docker" role="graphics-symbol" aria-roledescription="area mark" d="M0,300L27.586,300L55.172,300L82.759,298.636L110.345,300L137.931,300L165.517,300L193.103,283.636L220.69,298.636L248.276,291.818L275.862,283.636L303.448,212.727L331.034,238.636L358.621,171.818L386.207,259.091L413.793,272.727L441.379,280.909L468.966,287.727L496.552,263.182L524.138,186.818L551.724,190.909L579.31,282.273L606.897,259.091L634.483,261.818L662.069,253.636L689.655,286.364L717.241,270L744.828,257.727L772.414,196.364L800,289.091L800,289.091L772.414,200.455L744.828,259.091L717.241,270L689.655,286.364L662.069,255L634.483,261.818L606.897,259.091L579.31,282.273L551.724,190.909L524.138,188.182L496.552,263.182L468.966,287.727L441.379,280.909L413.793,272.727L386.207,260.455L358.621,171.818L331.034,238.636L303.448,214.091L275.862,283.636L248.276,293.182L220.69,298.636L193.103,283.636L165.517,300L137.931,300L110.345,300L82.759,298.636L55.172,300L27.586,300L0,300Z" fill="#f58518"/></g></g><path class="foreground" aria-hidden="true" d="" display="none"/></g><g transform="translate(0,0)"><path class="background" aria-hidden="true" d="M0,0h800v300h-800Z"/><g><g class="mark-area role-mark marks" role="graphics-object" aria-roledescription="area mark container"><path aria-label="Date: Mar 16, 2026; Unique Clones/day: 0; Repository: karlmdavis/can-i-kayak-baltimore" role="graphics-symbol" aria-roledescription="area mark" d="M0,300L27.586,300L55.172,300L82.759,298.636L110.345,300L137.931,300L165.517,300L193.103,283.636L220.69,298.636L248.276,293.182L275.862,283.636L303.448,214.091L331.034,238.636L358.621,171.818L386.207,260.455L413.793,272.727L441.379,280.909L468.966,287.727L496.552,263.182L524.138,188.182L551.724,190.909L579.31,282.273L606.897,259.091L634.483,261.818L662.069,255L689.655,286.364L717.241,270L744.828,259.091L772.414,200.455L800,289.091L800,289.091L772.414,203.182L744.828,260.455L717.241,270L689.655,286.364L662.069,256.364L634.483,261.818L606.897,259.091L579.31,282.273L551.724,190.909L524.138,189.545L496.552,263.182L468.966,287.727L441.379,282.273L413.793,272.727L386.207,260.455L358.621,171.818L331.034,238.636L303.448,218.182L275.862,283.636L248.276,293.182L220.69,298.636L193.103,283.636L165.517,300L137.931,300L110.345,300L82.759,298.636L55.172,300L27.586,300L0,300Z" fill="#e45756"/></g></g><path class="foreground" aria-hidden="true" d="" display="none"/></g><g transform="translate(0,0)"><path class="background" aria-hidden="true" d="M0,0h800v300h-800Z"/><g><g class="mark-area role-mark marks" role="graphics-object" aria-roledescription="area mark container"><path aria-label="Date: Mar 16, 2026; Unique Clones/day: 0; Repository: karlmdavis/datanucleus-test-jdo-1-to-n" role="graphics-symbol" aria-roledescription="area mark" d="M0,300L27.586,300L55.172,300L82.759,298.636L110.345,300L137.931,300L165.517,300L193.103,283.636L220.69,298.636L248.276,293.182L275.862,283.636L303.448,218.182L331.034,238.636L358.621,171.818L386.207,260.455L413.793,272.727L441.379,282.273L468.966,287.727L496.552,263.182L524.138,189.545L551.724,190.909L579.31,282.273L606.897,259.091L634.483,261.818L662.069,256.364L689.655,286.364L717.241,270L744.828,260.455L772.414,203.182L800,289.091L800,289.091L772.414,203.182L744.828,260.455L717.241,270L689.655,286.364L662.069,256.364L634.483,261.818L606.897,259.091L579.31,282.273L551.724,190.909L524.138,189.545L496.552,263.182L468.966,287.727L441.379,282.273L413.793,272.727L386.207,260.455L358.621,171.818L331.034,240L303.448,218.182L275.862,283.636L248.276,293.182L220.69,298.636L193.103,283.636L165.517,300L137.931,300L110.345,300L82.759,298.636L55.172,300L27.586,300L0,300Z" fill="#72b7b2"/></g></g><path class="foreground" aria-hidden="true" d="" display="none"/></g><g transform="translate(0,0)"><path class="background" aria-hidden="true" d="M0,0h800v300h-800Z"/><g><g class="mark-area role-mark marks" role="graphics-object" aria-roledescription="area mark container"><path aria-label="Date: Mar 16, 2026; Unique Clones/day: 0; Repository: karlmdavis/dotfiles" role="graphics-symbol" aria-roledescription="area mark" d="M0,300L27.586,300L55.172,300L82.759,298.636L110.345,300L137.931,300L165.517,300L193.103,283.636L220.69,298.636L248.276,293.182L275.862,283.636L303.448,218.182L331.034,240L358.621,171.818L386.207,260.455L413.793,272.727L441.379,282.273L468.966,287.727L496.552,263.182L524.138,189.545L551.724,190.909L579.31,282.273L606.897,259.091L634.483,261.818L662.069,256.364L689.655,286.364L717.241,270L744.828,260.455L772.414,203.182L800,289.091L800,289.091L772.414,210L744.828,260.455L717.241,272.727L689.655,286.364L662.069,257.727L634.483,263.182L606.897,259.091L579.31,282.273L551.724,192.273L524.138,190.909L496.552,263.182L468.966,289.091L441.379,283.636L413.793,274.091L386.207,260.455L358.621,171.818L331.034,240L303.448,220.909L275.862,283.636L248.276,293.182L220.69,298.636L193.103,285L165.517,300L137.931,300L110.345,300L82.759,298.636L55.172,300L27.586,300L0,300Z" fill="#54a24b"/></g></g><path class="foreground" aria-hidden="true" d="" display="none"/></g><g transform="translate(0,0)"><path class="background" aria-hidden="true" d="M0,0h800v300h-800Z"/><g><g class="mark-area role-mark marks" role="graphics-object" aria-roledescription="area mark container"><path aria-label="Date: Mar 16, 2026; Unique Clones/day: 0; Repository: karlmdavis/fhir-benchmarks" role="graphics-symbol" aria-roledescription="area mark" d="M0,300L27.586,300L55.172,300L82.759,298.636L110.345,300L137.931,300L165.517,300L193.103,285L220.69,298.636L248.276,293.182L275.862,283.636L303.448,220.909L331.034,240L358.621,171.818L386.207,260.455L413.793,274.091L441.379,283.636L468.966,289.091L496.552,263.182L524.138,190.909L551.724,192.273L579.31,282.273L606.897,259.091L634.483,263.182L662.069,257.727L689.655,286.364L717.241,272.727L744.828,260.455L772.414,210L800,289.091L800,293.182L772.414,216.818L744.828,260.455L717.241,275.455L689.655,286.364L662.069,260.455L634.483,272.727L606.897,260.455L579.31,282.273L551.724,193.636L524.138,192.273L496.552,264.545L468.966,289.091L441.379,285L413.793,276.818L386.207,261.818L358.621,173.182L331.034,240L303.448,223.636L275.862,283.636L248.276,294.545L220.69,298.636L193.103,286.364L165.517,300L137.931,300L110.345,300L82.759,298.636L55.172,300L27.586,300L0,300Z" fill="#eeca3b"/></g></g><path class="foreground" aria-hidden="true" d="" display="none"/></g><g transform="translate(0,0)"><path class="background" aria-hidden="true" d="M0,0h800v300h-800Z"/><g><g class="mark-area role-mark marks" role="graphics-object" aria-roledescription="area mark container"><path aria-label="Date: Mar 16, 2026; Unique Clones/day: 0; Repository: karlmdavis/hapi-fhir-jpaserver-starter" role="graphics-symbol" aria-roledescription="area mark" d="M0,300L27.586,300L55.172,300L82.759,298.636L110.345,300L137.931,300L165.517,300L193.103,286.364L220.69,298.636L248.276,294.545L275.862,283.636L303.448,223.636L331.034,240L358.621,173.182L386.207,261.818L413.793,276.818L441.379,285L468.966,289.091L496.552,264.545L524.138,192.273L551.724,193.636L579.31,282.273L606.897,260.455L634.483,272.727L662.069,260.455L689.655,286.364L717.241,275.455L744.828,260.455L772.414,216.818L800,293.182L800,293.182L772.414,218.182L744.828,260.455L717.241,275.455L689.655,286.364L662.069,260.455L634.483,272.727L606.897,260.455L579.31,282.273L551.724,193.636L524.138,192.273L496.552,265.909L468.966,290.455L441.379,285L413.793,276.818L386.207,261.818L358.621,173.182L331.034,240L303.448,223.636L275.862,285L248.276,294.545L220.69,298.636L193.103,286.364L165.517,300L137.931,300L110.345,300L82.759,298.636L55.172,300L27.586,300L0,300Z" fill="#b279a2"/></g></g><path class="foreground" aria-hidden="true" d="" display="none"/></g><g transform="translate(0,0)"><path class="background" aria-hidden="true" d="M0,0h800v300h-800Z"/><g><g class="mark-area role-mark marks" role="graphics-object" aria-roledescription="area mark container"><path aria-label="Date: Mar 16, 2026; Unique Clones/day: 0; Repository: karlmdavis/hello-rust-actix" role="graphics-symbol" aria-roledescription="area mark" d="M0,300L27.586,300L55.172,300L82.759,298.636L110.345,300L137.931,300L165.517,300L193.103,286.364L220.69,298.636L248.276,294.545L275.862,285L303.448,223.636L331.034,240L358.621,173.182L386.207,261.818L413.793,276.818L441.379,285L468.966,290.455L496.552,265.909L524.138,192.273L551.724,193.636L579.31,282.273L606.897,260.455L634.483,272.727L662.069,260.455L689.655,286.364L717.241,275.455L744.828,260.455L772.414,218.182L800,293.182L800,293.182L772.414,220.909L744.828,261.818L717.241,275.455L689.655,286.364L662.069,261.818L634.483,272.727L606.897,260.455L579.31,282.273L551.724,193.636L524.138,193.636L496.552,265.909L468.966,290.455L441.379,285L413.793,278.182L386.207,261.818L358.621,173.182L331.034,240L303.448,225L275.862,285L248.276,294.545L220.69,298.636L193.103,286.364L165.517,300L137.931,300L110.345,300L82.759,298.636L55.172,300L27.586,300L0,300Z" fill="#ff9da6"/></g></g><path class="foreground" aria-hidden="true" d="" display="none"/></g><g transform="translate(0,0)"><path class="background" aria-hidden="true" d="M0,0h800v300h-800Z"/><g><g class="mark-area role-mark marks" role="graphics-object" aria-roledescription="area mark container"><path aria-label="Date: Mar 16, 2026; Unique Clones/day: 0; Repository: karlmdavis/jessentials" role="graphics-symbol" aria-roledescription="area mark" d="M0,300L27.586,300L55.172,300L82.759,298.636L110.345,300L137.931,300L165.517,300L193.103,286.364L220.69,298.636L248.276,294.545L275.862,285L303.448,225L331.034,240L358.621,173.182L386.207,261.818L413.793,278.182L441.379,285L468.966,290.455L496.552,265.909L524.138,193.636L551.724,193.636L579.31,282.273L606.897,260.455L634.483,272.727L662.069,261.818L689.655,286.364L717.241,275.455L744.828,261.818L772.414,220.909L800,293.182L800,293.182L772.414,223.636L744.828,261.818L717.241,276.818L689.655,286.364L662.069,264.545L634.483,283.636L606.897,260.455L579.31,282.273L551.724,193.636L524.138,195L496.552,265.909L468.966,290.455L441.379,285L413.793,278.182L386.207,263.182L358.621,173.182L331.034,240L303.448,226.364L275.862,285L248.276,294.545L220.69,298.636L193.103,287.727L165.517,300L137.931,300L110.345,300L82.759,298.636L55.172,300L27.586,300L0,300Z" fill="#9d755d"/></g></g><path class="foreground" aria-hidden="true" d="" display="none"/></g><g transform="translate(0,0)"><path class="background" aria-hidden="true" d="M0,0h800v300h-800Z"/><g><g class="mark-area role-mark marks" role="graphics-object" aria-roledescription="area mark container"><path aria-label="Date: Mar 16, 2026; Unique Clones/day: 0; Repository: karlmdavis/justdavis-ansible" role="graphics-symbol" aria-roledescription="area mark" d="M0,300L27.586,300L55.172,300L82.759,298.636L110.345,300L137.931,300L165.517,300L193.103,287.727L220.69,298.636L248.276,294.545L275.862,285L303.448,226.364L331.034,240L358.621,173.182L386.207,263.182L413.793,278.182L441.379,285L468.966,290.455L496.552,265.909L524.138,195L551.724,193.636L579.31,282.273L606.897,260.455L634.483,283.636L662.069,264.545L689.655,286.364L717.241,276.818L744.828,261.818L772.414,223.636L800,293.182L800,293.182L772.414,227.727L744.828,267.273L717.241,276.818L689.655,287.727L662.069,265.909L634.483,283.636L606.897,260.455L579.31,282.273L551.724,193.636L524.138,196.364L496.552,265.909L468.966,290.455L441.379,286.364L413.793,278.182L386.207,263.182L358.621,173.182L331.034,241.364L303.448,227.727L275.862,285L248.276,295.909L220.69,298.636L193.103,287.727L165.517,300L137.931,300L110.345,300L82.759,298.636L55.172,300L27.586,300L0,300Z" fill="#bab0ac"/></g></g><path class="foreground" aria-hidden="true" d="" display="none"/></g><g transform="translate(0,0)"><path class="background" aria-hidden="true" d="M0,0h800v300h-800Z"/><g><g class="mark-area role-mark marks" role="graphics-object" aria-roledescription="area mark container"><path aria-label="Date: Mar 16, 2026; Unique Clones/day: 0; Repository: karlmdavis/justdavis-finances" role="graphics-symbol" aria-roledescription="area mark" d="M0,300L27.586,300L55.172,300L82.759,298.636L110.345,300L137.931,300L165.517,300L193.103,287.727L220.69,298.636L248.276,295.909L275.862,285L303.448,227.727L331.034,241.364L358.621,173.182L386.207,263.182L413.793,278.182L441.379,286.364L468.966,290.455L496.552,265.909L524.138,196.364L551.724,193.636L579.31,282.273L606.897,260.455L634.483,283.636L662.069,265.909L689.655,287.727L717.241,276.818L744.828,267.273L772.414,227.727L800,293.182L800,295.909L772.414,248.182L744.828,290.455L717.241,279.545L689.655,287.727L662.069,267.273L634.483,285L606.897,283.636L579.31,293.182L551.724,295.909L524.138,274.091L496.552,293.182L468.966,291.818L441.379,287.727L413.793,279.545L386.207,283.636L358.621,289.091L331.034,291.818L303.448,270L275.862,286.364L248.276,297.273L220.69,298.636L193.103,287.727L165.517,300L137.931,300L110.345,300L82.759,298.636L55.172,300L27.586,300L0,300Z" fill="#4c78a8"/></g></g><path class="foreground" aria-hidden="true" d="" display="none"/></g><g transform="translate(0,0)"><path class="background" aria-hidden="true" d="M0,0h800v300h-800Z"/><g><g class="mark-area role-mark marks" role="graphics-object" aria-roledescription="area mark container"><path aria-label="Date: Mar 16, 2026; Unique Clones/day: 0; Repository: karlmdavis/justdavis-karl" role="graphics-symbol" aria-roledescription="area mark" d="M0,300L27.586,300L55.172,300L82.759,298.636L110.345,300L137.931,300L165.517,300L193.103,287.727L220.69,298.636L248.276,297.273L275.862,286.364L303.448,270L331.034,291.818L358.621,289.091L386.207,283.636L413.793,279.545L441.379,287.727L468.966,291.818L496.552,293.182L524.138,274.091L551.724,295.909L579.31,293.182L606.897,283.636L634.483,285L662.069,267.273L689.655,287.727L717.241,279.545L744.828,290.455L772.414,248.182L800,295.909L800,295.909L772.414,252.273L744.828,291.818L717.241,280.909L689.655,287.727L662.069,270L634.483,285L606.897,283.636L579.31,294.545L551.724,295.909L524.138,275.455L496.552,293.182L468.966,293.182L441.379,287.727L413.793,280.909L386.207,285L358.621,289.091L331.034,293.182L303.448,271.364L275.862,286.364L248.276,297.273L220.69,298.636L193.103,289.091L165.517,300L137.931,300L110.345,300L82.759,298.636L55.172,300L27.586,300L0,300Z" fill="#f58518"/></g></g><path class="foreground" aria-hidden="true" d="" display="none"/></g><g transform="translate(0,0)"><path class="background" aria-hidden="true" d="M0,0h800v300h-800Z"/><g><g class="mark-area role-mark marks" role="graphics-object" aria-roledescription="area mark container"><path aria-label="Date: Mar 16, 2026; Unique Clones/day: 0; Repository: karlmdavis/justdavis-puppet" role="graphics-symbol" aria-roledescription="area mark" d="M0,300L27.586,300L55.172,300L82.759,298.636L110.345,300L137.931,300L165.517,300L193.103,289.091L220.69,298.636L248.276,297.273L275.862,286.364L303.448,271.364L331.034,293.182L358.621,289.091L386.207,285L413.793,280.909L441.379,287.727L468.966,293.182L496.552,293.182L524.138,275.455L551.724,295.909L579.31,294.545L606.897,283.636L634.483,285L662.069,270L689.655,287.727L717.241,280.909L744.828,291.818L772.414,252.273L800,295.909L800,295.909L772.414,255L744.828,293.182L717.241,282.273L689.655,287.727L662.069,271.364L634.483,286.364L606.897,283.636L579.31,294.545L551.724,295.909L524.138,276.818L496.552,293.182L468.966,293.182L441.379,287.727L413.793,283.636L386.207,286.364L358.621,289.091L331.034,293.182L303.448,272.727L275.862,286.364L248.276,297.273L220.69,298.636L193.103,289.091L165.517,300L137.931,300L110.345,300L82.759,298.636L55.172,300L27.586,300L0,300Z" fill="#e45756"/></g></g><path class="foreground" aria-hidden="true" d="" display="none"/></g><g transform="translate(0,0)"><path class="background" aria-hidden="true" d="M0,0h800v300h-800Z"/><g><g class="mark-area role-mark marks" role="graphics-object" aria-roledescription="area mark container"><path aria-label="Date: Mar 16, 2026; Unique Clones/day: 0; Repository: karlmdavis/kobjects" role="graphics-symbol" aria-roledescription="area mark" d="M0,300L27.586,300L55.172,300L82.759,298.636L110.345,300L137.931,300L165.517,300L193.103,289.091L220.69,298.636L248.276,297.273L275.862,286.364L303.448,272.727L331.034,293.182L358.621,289.091L386.207,286.364L413.793,283.636L441.379,287.727L468.966,293.182L496.552,293.182L524.138,276.818L551.724,295.909L579.31,294.545L606.897,283.636L634.483,286.364L662.069,271.364L689.655,287.727L717.241,282.273L744.828,293.182L772.414,255L800,295.909L800,295.909L772.414,257.727L744.828,293.182L717.241,283.636L689.655,287.727L662.069,274.091L634.483,286.364L606.897,283.636L579.31,294.545L551.724,295.909L524.138,278.182L496.552,293.182L468.966,293.182L441.379,287.727L413.793,283.636L386.207,286.364L358.621,289.091L331.034,293.182L303.448,274.091L275.862,287.727L248.276,297.273L220.69,298.636L193.103,289.091L165.517,300L137.931,300L110.345,300L82.759,298.636L55.172,300L27.586,300L0,300Z" fill="#72b7b2"/></g></g><path class="foreground" aria-hidden="true" d="" display="none"/></g><g transform="translate(0,0)"><path class="background" aria-hidden="true" d="M0,0h800v300h-800Z"/><g><g class="mark-area role-mark marks" role="graphics-object" aria-roledescription="area mark container"><path aria-label="Date: Mar 16, 2026; Unique Clones/day: 0; Repository: karlmdavis/ksoap2-android" role="graphics-symbol" aria-roledescription="area mark" d="M0,300L27.586,300L55.172,300L82.759,298.636L110.345,300L137.931,300L165.517,300L193.103,289.091L220.69,298.636L248.276,297.273L275.862,287.727L303.448,274.091L331.034,293.182L358.621,289.091L386.207,286.364L413.793,283.636L441.379,287.727L468.966,293.182L496.552,293.182L524.138,278.182L551.724,295.909L579.31,294.545L606.897,283.636L634.483,286.364L662.069,274.091L689.655,287.727L717.241,283.636L744.828,293.182L772.414,257.727L800,295.909L800,295.909L772.414,260.455L744.828,293.182L717.241,285L689.655,291.818L662.069,275.455L634.483,294.545L606.897,290.455L579.31,295.909L551.724,295.909L524.138,282.273L496.552,293.182L468.966,294.545L441.379,289.091L413.793,285L386.207,291.818L358.621,291.818L331.034,293.182L303.448,275.455L275.862,291.818L248.276,297.273L220.69,298.636L193.103,290.455L165.517,300L137.931,300L110.345,300L82.759,298.636L55.172,300L27.586,300L0,300Z" fill="#54a24b"/></g></g><path class="foreground" aria-hidden="true" d="" display="none"/></g><g transform="translate(0,0)"><path class="background" aria-hidden="true" d="M0,0h800v300h-800Z"/><g><g class="mark-area role-mark marks" role="graphics-object" aria-roledescription="area mark container"><path aria-label="Date: Mar 16, 2026; Unique Clones/day: 0; Repository: karlmdavis/kxml2" role="graphics-symbol" aria-roledescription="area mark" d="M0,300L27.586,300L55.172,300L82.759,298.636L110.345,300L137.931,300L165.517,300L193.103,290.455L220.69,298.636L248.276,297.273L275.862,291.818L303.448,275.455L331.034,293.182L358.621,291.818L386.207,291.818L413.793,285L441.379,289.091L468.966,294.545L496.552,293.182L524.138,282.273L551.724,295.909L579.31,295.909L606.897,290.455L634.483,294.545L662.069,275.455L689.655,291.818L717.241,285L744.828,293.182L772.414,260.455L800,295.909L800,297.273L772.414,264.545L744.828,293.182L717.241,285L689.655,291.818L662.069,276.818L634.483,294.545L606.897,291.818L579.31,297.273L551.724,297.273L524.138,283.636L496.552,293.182L468.966,294.545L441.379,289.091L413.793,286.364L386.207,295.909L358.621,293.182L331.034,293.182L303.448,278.182L275.862,293.182L248.276,297.273L220.69,298.636L193.103,291.818L165.517,300L137.931,300L110.345,300L82.759,298.636L55.172,300L27.586,300L0,300Z" fill="#eeca3b"/></g></g><path class="foreground" aria-hidden="true" d="" display="none"/></g><g transform="translate(0,0)"><path class="background" aria-hidden="true" d="M0,0h800v300h-800Z"/><g><g class="mark-area role-mark marks" role="graphics-object" aria-roledescription="area mark container"><path aria-label="Date: Mar 16, 2026; Unique Clones/day: 0; Repository: karlmdavis/ldap-plugin" role="graphics-symbol" aria-roledescription="area mark" d="M0,300L27.586,300L55.172,300L82.759,298.636L110.345,300L137.931,300L165.517,300L193.103,291.818L220.69,298.636L248.276,297.273L275.862,293.182L303.448,278.182L331.034,293.182L358.621,293.182L386.207,295.909L413.793,286.364L441.379,289.091L468.966,294.545L496.552,293.182L524.138,283.636L551.724,297.273L579.31,297.273L606.897,291.818L634.483,294.545L662.069,276.818L689.655,291.818L717.241,285L744.828,293.182L772.414,264.545L800,297.273L800,297.273L772.414,264.545L744.828,293.182L717.241,285L689.655,291.818L662.069,276.818L634.483,294.545L606.897,291.818L579.31,297.273L551.724,297.273L524.138,283.636L496.552,294.545L468.966,295.909L441.379,289.091L413.793,286.364L386.207,295.909L358.621,293.182L331.034,293.182L303.448,278.182L275.862,293.182L248.276,297.273L220.69,298.636L193.103,291.818L165.517,300L137.931,300L110.345,300L82.759,298.636L55.172,300L27.586,300L0,300Z" fill="#b279a2"/></g></g><path class="foreground" aria-hidden="true" d="" display="none"/></g><g transform="translate(0,0)"><path class="background" aria-hidden="true" d="M0,0h800v300h-800Z"/><g><g class="mark-area role-mark marks" role="graphics-object" aria-roledescription="area mark container"><path aria-label="Date: Mar 16, 2026; Unique Clones/day: 0; Repository: karlmdavis/lego-ev3dev-rs" role="graphics-symbol" aria-roledescription="area mark" d="M0,300L27.586,300L55.172,300L82.759,298.636L110.345,300L137.931,300L165.517,300L193.103,291.818L220.69,298.636L248.276,297.273L275.862,293.182L303.448,278.182L331.034,293.182L358.621,293.182L386.207,295.909L413.793,286.364L441.379,289.091L468.966,295.909L496.552,294.545L524.138,283.636L551.724,297.273L579.31,297.273L606.897,291.818L634.483,294.545L662.069,276.818L689.655,291.818L717.241,285L744.828,293.182L772.414,264.545L800,297.273L800,297.273L772.414,268.636L744.828,293.182L717.241,287.727L689.655,291.818L662.069,279.545L634.483,294.545L606.897,293.182L579.31,297.273L551.724,298.636L524.138,285L496.552,295.909L468.966,295.909L441.379,290.455L413.793,289.091L386.207,295.909L358.621,294.545L331.034,294.545L303.448,282.273L275.862,293.182L248.276,298.636L220.69,298.636L193.103,293.182L165.517,300L137.931,300L110.345,300L82.759,298.636L55.172,300L27.586,300L0,300Z" fill="#ff9da6"/></g></g><path class="foreground" aria-hidden="true" d="" display="none"/></g><g transform="translate(0,0)"><path class="background" aria-hidden="true" d="M0,0h800v300h-800Z"/><g><g class="mark-area role-mark marks" role="graphics-object" aria-roledescription="area mark container"><path aria-label="Date: Mar 16, 2026; Unique Clones/day: 0; Repository: karlmdavis/liquibase" role="graphics-symbol" aria-roledescription="area mark" d="M0,300L27.586,300L55.172,300L82.759,298.636L110.345,300L137.931,300L165.517,300L193.103,293.182L220.69,298.636L248.276,298.636L275.862,293.182L303.448,282.273L331.034,294.545L358.621,294.545L386.207,295.909L413.793,289.091L441.379,290.455L468.966,295.909L496.552,295.909L524.138,285L551.724,298.636L579.31,297.273L606.897,293.182L634.483,294.545L662.069,279.545L689.655,291.818L717.241,287.727L744.828,293.182L772.414,268.636L800,297.273L800,297.273L772.414,268.636L744.828,293.182L717.241,287.727L689.655,293.182L662.069,280.909L634.483,294.545L606.897,293.182L579.31,297.273L551.724,298.636L524.138,285L496.552,295.909L468.966,295.909L441.379,290.455L413.793,289.091L386.207,295.909L358.621,294.545L331.034,294.545L303.448,282.273L275.862,293.182L248.276,298.636L220.69,298.636L193.103,293.182L165.517,300L137.931,300L110.345,300L82.759,300L55.172,300L27.586,300L0,300Z" fill="#9d755d"/></g></g><path class="foreground" aria-hidden="true" d="" display="none"/></g><g transform="translate(0,0)"><path class="background" aria-hidden="true" d="M0,0h800v300h-800Z"/><g><g class="mark-area role-mark marks" role="graphics-object" aria-roledescription="area mark container"><path aria-label="Date: Mar 16, 2026; Unique Clones/day: 0; Repository: karlmdavis/m2e-core" role="graphics-symbol" aria-roledescription="area mark" d="M0,300L27.586,300L55.172,300L82.759,300L110.345,300L137.931,300L165.517,300L193.103,293.182L220.69,298.636L248.276,298.636L275.862,293.182L303.448,282.273L331.034,294.545L358.621,294.545L386.207,295.909L413.793,289.091L441.379,290.455L468.966,295.909L496.552,295.909L524.138,285L551.724,298.636L579.31,297.273L606.897,293.182L634.483,294.545L662.069,280.909L689.655,293.182L717.241,287.727L744.828,293.182L772.414,268.636L800,297.273L800,297.273L772.414,271.364L744.828,293.182L717.241,289.091L689.655,294.545L662.069,283.636L634.483,295.909L606.897,294.545L579.31,297.273L551.724,298.636L524.138,286.364L496.552,295.909L468.966,295.909L441.379,290.455L413.793,289.091L386.207,295.909L358.621,295.909L331.034,294.545L303.448,283.636L275.862,293.182L248.276,298.636L220.69,298.636L193.103,293.182L165.517,300L137.931,300L110.345,300L82.759,300L55.172,300L27.586,300L0,300Z" fill="#bab0ac"/></g></g><path class="foreground" aria-hidden="true" d="" display="none"/></g><g transform="translate(0,0)"><path class="background" aria-hidden="true" d="M0,0h800v300h-800Z"/><g><g class="mark-area role-mark marks" role="graphics-object" aria-roledescription="area mark container"><path aria-label="Date: Mar 16, 2026; Unique Clones/day: 0; Repository: karlmdavis/m2e-core-tests" role="graphics-symbol" aria-roledescription="area mark" d="M0,300L27.586,300L55.172,300L82.759,300L110.345,300L137.931,300L165.517,300L193.103,293.182L220.69,298.636L248.276,298.636L275.862,293.182L303.448,283.636L331.034,294.545L358.621,295.909L386.207,295.909L413.793,289.091L441.379,290.455L468.966,295.909L496.552,295.909L524.138,286.364L551.724,298.636L579.31,297.273L606.897,294.545L634.483,295.909L662.069,283.636L689.655,294.545L717.241,289.091L744.828,293.182L772.414,271.364L800,297.273L800,297.273L772.414,271.364L744.828,294.545L717.241,289.091L689.655,297.273L662.069,285L634.483,297.273L606.897,295.909L579.31,297.273L551.724,298.636L524.138,286.364L496.552,295.909L468.966,295.909L441.379,293.182L413.793,289.091L386.207,295.909L358.621,295.909L331.034,295.909L303.448,283.636L275.862,294.545L248.276,298.636L220.69,298.636L193.103,293.182L165.517,300L137.931,300L110.345,300L82.759,300L55.172,300L27.586,300L0,300Z" fill="#4c78a8"/></g></g><path class="foreground" aria-hidden="true" d="" display="none"/></g><g transform="translate(0,0)"><path class="background" aria-hidden="true" d="M0,0h800v300h-800Z"/><g><g class="mark-area role-mark marks" role="graphics-object" aria-roledescription="area mark container"><path aria-label="Date: Mar 16, 2026; Unique Clones/day: 0; Repository: karlmdavis/obsidian-operator" role="graphics-symbol" aria-roledescription="area mark" d="M0,300L27.586,300L55.172,300L82.759,300L110.345,300L137.931,300L165.517,300L193.103,293.182L220.69,298.636L248.276,298.636L275.862,294.545L303.448,283.636L331.034,295.909L358.621,295.909L386.207,295.909L413.793,289.091L441.379,293.182L468.966,295.909L496.552,295.909L524.138,286.364L551.724,298.636L579.31,297.273L606.897,295.909L634.483,297.273L662.069,285L689.655,297.273L717.241,289.091L744.828,294.545L772.414,271.364L800,297.273L800,298.636L772.414,274.091L744.828,295.909L717.241,291.818L689.655,297.273L662.069,286.364L634.483,297.273L606.897,295.909L579.31,297.273L551.724,298.636L524.138,287.727L496.552,298.636L468.966,295.909L441.379,293.182L413.793,293.182L386.207,295.909L358.621,295.909L331.034,295.909L303.448,285L275.862,294.545L248.276,298.636L220.69,298.636L193.103,294.545L165.517,300L137.931,300L110.345,300L82.759,300L55.172,300L27.586,300L0,300Z" fill="#f58518"/></g></g><path class="foreground" aria-hidden="true" d="" display="none"/></g><g transform="translate(0,0)"><path class="background" aria-hidden="true" d="M0,0h800v300h-800Z"/><g><g class="mark-area role-mark marks" role="graphics-object" aria-roledescription="area mark container"><path aria-label="Date: Mar 16, 2026; Unique Clones/day: 0; Repository: karlmdavis/perfect-note" role="graphics-symbol" aria-roledescription="area mark" d="M0,300L27.586,300L55.172,300L82.759,300L110.345,300L137.931,300L165.517,300L193.103,294.545L220.69,298.636L248.276,298.636L275.862,294.545L303.448,285L331.034,295.909L358.621,295.909L386.207,295.909L413.793,293.182L441.379,293.182L468.966,295.909L496.552,298.636L524.138,287.727L551.724,298.636L579.31,297.273L606.897,295.909L634.483,297.273L662.069,286.364L689.655,297.273L717.241,291.818L744.828,295.909L772.414,274.091L800,298.636L800,298.636L772.414,276.818L744.828,295.909L717.241,291.818L689.655,297.273L662.069,287.727L634.483,297.273L606.897,295.909L579.31,297.273L551.724,298.636L524.138,289.091L496.552,298.636L468.966,295.909L441.379,293.182L413.793,293.182L386.207,295.909L358.621,295.909L331.034,297.273L303.448,286.364L275.862,295.909L248.276,298.636L220.69,298.636L193.103,294.545L165.517,300L137.931,300L110.345,300L82.759,300L55.172,300L27.586,300L0,300Z" fill="#e45756"/></g></g><path class="foreground" aria-hidden="true" d="" display="none"/></g><g transform="translate(0,0)"><path class="background" aria-hidden="true" d="M0,0h800v300h-800Z"/><g><g class="mark-area role-mark marks" role="graphics-object" aria-roledescription="area mark container"><path aria-label="Date: Mar 16, 2026; Unique Clones/day: 0; Repository: karlmdavis/puppet-archive" role="graphics-symbol" aria-roledescription="area mark" d="M0,300L27.586,300L55.172,300L82.759,300L110.345,300L137.931,300L165.517,300L193.103,294.545L220.69,298.636L248.276,298.636L275.862,295.909L303.448,286.364L331.034,297.273L358.621,295.909L386.207,295.909L413.793,293.182L441.379,293.182L468.966,295.909L496.552,298.636L524.138,289.091L551.724,298.636L579.31,297.273L606.897,295.909L634.483,297.273L662.069,287.727L689.655,297.273L717.241,291.818L744.828,295.909L772.414,276.818L800,298.636L800,298.636L772.414,276.818L744.828,295.909L717.241,293.182L689.655,297.273L662.069,289.091L634.483,297.273L606.897,295.909L579.31,297.273L551.724,298.636L524.138,289.091L496.552,298.636L468.966,295.909L441.379,293.182L413.793,293.182L386.207,295.909L358.621,295.909L331.034,297.273L303.448,286.364L275.862,295.909L248.276,298.636L220.69,298.636L193.103,295.909L165.517,300L137.931,300L110.345,300L82.759,300L55.172,300L27.586,300L0,300Z" fill="#72b7b2"/></g></g><path class="foreground" aria-hidden="true" d="" display="none"/></g><g transform="translate(0,0)"><path class="background" aria-hidden="true" d="M0,0h800v300h-800Z"/><g><g class="mark-area role-mark marks" role="graphics-object" aria-roledescription="area mark container"><path aria-label="Date: Mar 16, 2026; Unique Clones/day: 0; Repository: karlmdavis/puppet-sonar" role="graphics-symbol" aria-roledescription="area mark" d="M0,300L27.586,300L55.172,300L82.759,300L110.345,300L137.931,300L165.517,300L193.103,295.909L220.69,298.636L248.276,298.636L275.862,295.909L303.448,286.364L331.034,297.273L358.621,295.909L386.207,295.909L413.793,293.182L441.379,293.182L468.966,295.909L496.552,298.636L524.138,289.091L551.724,298.636L579.31,297.273L606.897,295.909L634.483,297.273L662.069,289.091L689.655,297.273L717.241,293.182L744.828,295.909L772.414,276.818L800,298.636L800,298.636L772.414,276.818L744.828,295.909L717.241,294.545L689.655,297.273L662.069,289.091L634.483,298.636L606.897,297.273L579.31,297.273L551.724,298.636L524.138,289.091L496.552,298.636L468.966,297.273L441.379,293.182L413.793,295.909L386.207,295.909L358.621,295.909L331.034,298.636L303.448,286.364L275.862,295.909L248.276,298.636L220.69,298.636L193.103,295.909L165.517,300L137.931,300L110.345,300L82.759,300L55.172,300L27.586,300L0,300Z" fill="#54a24b"/></g></g><path class="foreground" aria-hidden="true" d="" display="none"/></g><g transform="translate(0,0)"><path class="background" aria-hidden="true" d="M0,0h800v300h-800Z"/><g><g class="mark-area role-mark marks" role="graphics-object" aria-roledescription="area mark container"><path aria-label="Date: Mar 16, 2026; Unique Clones/day: 0; Repository: karlmdavis/rps-tourney" role="graphics-symbol" aria-roledescription="area mark" d="M0,300L27.586,300L55.172,300L82.759,300L110.345,300L137.931,300L165.517,300L193.103,295.909L220.69,298.636L248.276,298.636L275.862,295.909L303.448,286.364L331.034,298.636L358.621,295.909L386.207,295.909L413.793,295.909L441.379,293.182L468.966,297.273L496.552,298.636L524.138,289.091L551.724,298.636L579.31,297.273L606.897,297.273L634.483,298.636L662.069,289.091L689.655,297.273L717.241,294.545L744.828,295.909L772.414,276.818L800,298.636L800,298.636L772.414,279.545L744.828,295.909L717.241,295.909L689.655,297.273L662.069,290.455L634.483,298.636L606.897,297.273L579.31,297.273L551.724,298.636L524.138,290.455L496.552,298.636L468.966,298.636L441.379,293.182L413.793,295.909L386.207,295.909L358.621,295.909L331.034,298.636L303.448,287.727L275.862,295.909L248.276,298.636L220.69,298.636L193.103,297.273L165.517,300L137.931,300L110.345,300L82.759,300L55.172,300L27.586,300L0,300Z" fill="#eeca3b"/></g></g><path class="foreground" aria-hidden="true" d="" display="none"/></g><g transform="translate(0,0)"><path class="background" aria-hidden="true" d="M0,0h800v300h-800Z"/><g><g class="mark-area role-mark marks" role="graphics-object" aria-roledescription="area mark container"><path aria-label="Date: Mar 16, 2026; Unique Clones/day: 0; Repository: karlmdavis/sample-maven-and-rcp" role="graphics-symbol" aria-roledescription="area mark" d="M0,300L27.586,300L55.172,300L82.759,300L110.345,300L137.931,300L165.517,300L193.103,297.273L220.69,298.636L248.276,298.636L275.862,295.909L303.448,287.727L331.034,298.636L358.621,295.909L386.207,295.909L413.793,295.909L441.379,293.182L468.966,298.636L496.552,298.636L524.138,290.455L551.724,298.636L579.31,297.273L606.897,297.273L634.483,298.636L662.069,290.455L689.655,297.273L717.241,295.909L744.828,295.909L772.414,279.545L800,298.636L800,298.636L772.414,282.273L744.828,295.909L717.241,295.909L689.655,297.273L662.069,291.818L634.483,298.636L606.897,297.273L579.31,297.273L551.724,298.636L524.138,291.818L496.552,298.636L468.966,298.636L441.379,294.545L413.793,295.909L386.207,295.909L358.621,295.909L331.034,298.636L303.448,289.091L275.862,295.909L248.276,298.636L220.69,298.636L193.103,297.273L165.517,300L137.931,300L110.345,300L82.759,300L55.172,300L27.586,300L0,300Z" fill="#b279a2"/></g></g><path class="foreground" aria-hidden="true" d="" display="none"/></g><g transform="translate(0,0)"><path class="background" aria-hidden="true" d="M0,0h800v300h-800Z"/><g><g class="mark-area role-mark marks" role="graphics-object" aria-roledescription="area mark container"><path aria-label="Date: Mar 16, 2026; Unique Clones/day: 0; Repository: karlmdavis/stockfighter-trades-solutions" role="graphics-symbol" aria-roledescription="area mark" d="M0,300L27.586,300L55.172,300L82.759,300L110.345,300L137.931,300L165.517,300L193.103,297.273L220.69,298.636L248.276,298.636L275.862,295.909L303.448,289.091L331.034,298.636L358.621,295.909L386.207,295.909L413.793,295.909L441.379,294.545L468.966,298.636L496.552,298.636L524.138,291.818L551.724,298.636L579.31,297.273L606.897,297.273L634.483,298.636L662.069,291.818L689.655,297.273L717.241,295.909L744.828,295.909L772.414,282.273L800,298.636L800,298.636L772.414,286.364L744.828,295.909L717.241,295.909L689.655,297.273L662.069,293.182L634.483,298.636L606.897,297.273L579.31,297.273L551.724,298.636L524.138,293.182L496.552,298.636L468.966,298.636L441.379,294.545L413.793,295.909L386.207,295.909L358.621,297.273L331.034,298.636L303.448,291.818L275.862,295.909L248.276,298.636L220.69,298.636L193.103,297.273L165.517,300L137.931,300L110.345,300L82.759,300L55.172,300L27.586,300L0,300Z" fill="#ff9da6"/></g></g><path class="foreground" aria-hidden="true" d="" display="none"/></g><g transform="translate(0,0)"><path class="background" aria-hidden="true" d="M0,0h800v300h-800Z"/><g><g class="mark-area role-mark marks" role="graphics-object" aria-roledescription="area mark container"><path aria-label="Date: Mar 16, 2026; Unique Clones/day: 0; Repository: karlmdavis/test-repo-for-move" role="graphics-symbol" aria-roledescription="area mark" d="M0,300L27.586,300L55.172,300L82.759,300L110.345,300L137.931,300L165.517,300L193.103,297.273L220.69,298.636L248.276,298.636L275.862,295.909L303.448,291.818L331.034,298.636L358.621,297.273L386.207,295.909L413.793,295.909L441.379,294.545L468.966,298.636L496.552,298.636L524.138,293.182L551.724,298.636L579.31,297.273L606.897,297.273L634.483,298.636L662.069,293.182L689.655,297.273L717.241,295.909L744.828,295.909L772.414,286.364L800,298.636L800,298.636L772.414,289.091L744.828,295.909L717.241,295.909L689.655,297.273L662.069,294.545L634.483,298.636L606.897,297.273L579.31,297.273L551.724,298.636L524.138,294.545L496.552,298.636L468.966,298.636L441.379,294.545L413.793,295.909L386.207,295.909L358.621,298.636L331.034,298.636L303.448,293.182L275.862,297.273L248.276,298.636L220.69,298.636L193.103,297.273L165.517,300L137.931,300L110.345,300L82.759,300L55.172,300L27.586,300L0,300Z" fill="#9d755d"/></g></g><path class="foreground" aria-hidden="true" d="" display="none"/></g><g transform="translate(0,0)"><path class="background" aria-hidden="true" d="M0,0h800v300h-800Z"/><g><g class="mark-area role-mark marks" role="graphics-object" aria-roledescription="area mark container"><path aria-label="Date: Mar 16, 2026; Unique Clones/day: 0; Repository: karlmdavis/todoist-ai" role="graphics-symbol" aria-roledescription="area mark" d="M0,300L27.586,300L55.172,300L82.759,300L110.345,300L137.931,300L165.517,300L193.103,297.273L220.69,298.636L248.276,298.636L275.862,297.273L303.448,293.182L331.034,298.636L358.621,298.636L386.207,295.909L413.793,295.909L441.379,294.545L468.966,298.636L496.552,298.636L524.138,294.545L551.724,298.636L579.31,297.273L606.897,297.273L634.483,298.636L662.069,294.545L689.655,297.273L717.241,295.909L744.828,295.909L772.414,289.091L800,298.636L800,298.636L772.414,289.091L744.828,295.909L717.241,297.273L689.655,297.273L662.069,294.545L634.483,298.636L606.897,297.273L579.31,297.273L551.724,298.636L524.138,294.545L496.552,298.636L468.966,298.636L441.379,297.273L413.793,295.909L386.207,295.909L358.621,298.636L331.034,298.636L303.448,293.182L275.862,297.273L248.276,298.636L220.69,298.636L193.103,297.273L165.517,300L137.931,300L110.345,300L82.759,300L55.172,300L27.586,300L0,300Z" fill="#bab0ac"/></g></g><path class="foreground" aria-hidden="true" d="" display="none"/></g><g transform="translate(0,0)"><path class="background" aria-hidden="true" d="M0,0h800v300h-800Z"/><g><g class="mark-area role-mark marks" role="graphics-object" aria-roledescription="area mark container"><path aria-label="Date: Mar 16, 2026; Unique Clones/day: 0; Repository: karlmdavis/usgs-water-api-java" role="graphics-symbol" aria-roledescription="area mark" d="M0,300L27.586,300L55.172,300L82.759,300L110.345,300L137.931,300L165.517,300L193.103,297.273L220.69,298.636L248.276,298.636L275.862,297.273L303.448,293.182L331.034,298.636L358.621,298.636L386.207,295.909L413.793,295.909L441.379,297.273L468.966,298.636L496.552,298.636L524.138,294.545L551.724,298.636L579.31,297.273L606.897,297.273L634.483,298.636L662.069,294.545L689.655,297.273L717.241,297.273L744.828,295.909L772.414,289.091L800,298.636L800,300L772.414,293.182L744.828,300L717.241,298.636L689.655,298.636L662.069,297.273L634.483,300L606.897,298.636L579.31,300L551.724,300L524.138,297.273L496.552,300L468.966,300L441.379,298.636L413.793,297.273L386.207,298.636L358.621,300L331.034,300L303.448,295.909L275.862,300L248.276,300L220.69,300L193.103,300L165.517,300L137.931,300L110.345,300L82.759,300L55.172,300L27.586,300L0,300Z" fill="#4c78a8"/></g></g><path class="foreground" aria-hidden="true" d="" display="none"/></g><g transform="translate(0,0)"><path class="background" aria-hidden="true" d="M0,0h800v300h-800Z"/><g><g class="mark-area role-mark marks" role="graphics-object" aria-roledescription="area mark container"><path aria-label="Date: Mar 16, 2026; Unique Clones/day: 0; Repository: karlmdavis/workstation-base-ansible-role" role="graphics-symbol" aria-roledescription="area mark" d="M0,300L27.586,300L55.172,300L82.759,300L110.345,300L137.931,300L165.517,300L193.103,300L220.69,300L248.276,300L275.862,300L303.448,295.909L331.034,300L358.621,300L386.207,298.636L413.793,297.273L441.379,298.636L468.966,300L496.552,300L524.138,297.273L551.724,300L579.31,300L606.897,298.636L634.483,300L662.069,297.273L689.655,298.636L717.241,298.636L744.828,300L772.414,293.182L800,300L800,300L772.414,297.273L744.828,300L717.241,300L689.655,298.636L662.069,298.636L634.483,300L606.897,298.636L579.31,300L551.724,300L524.138,298.636L496.552,300L468.966,300L441.379,300L413.793,298.636L386.207,300L358.621,300L331.034,300L303.448,298.636L275.862,300L248.276,300L220.69,300L193.103,300L165.517,300L137.931,300L110.345,300L82.759,300L55.172,300L27.586,300L0,300Z" fill="#f58518"/></g></g><path class="foreground" aria-hidden="true" d="" display="none"/></g><g transform="translate(0,0)"><path class="background" aria-hidden="true" d="M0,0h800v300h-800Z"/><g><g class="mark-area role-mark marks" role="graphics-object" aria-roledescription="area mark container"><path aria-label="Date: Mar 16, 2026; Unique Clones/day: 0; Repository: karlmdavis/xmlpull" role="graphics-symbol" aria-roledescription="area mark" d="M0,300L27.586,300L55.172,300L82.759,300L110.345,300L137.931,300L165.517,300L193.103,300L220.69,300L248.276,300L275.862,300L303.448,298.636L331.034,300L358.621,300L386.207,300L413.793,298.636L441.379,300L468.966,300L496.552,300L524.138,298.636L551.724,300L579.31,300L606.897,298.636L634.483,300L662.069,298.636L689.655,298.636L717.241,300L744.828,300L772.414,297.273L800,300L800,300L772.414,300L744.828,300L717.241,300L689.655,300L662.069,300L634.483,300L606.897,300L579.31,300L551.724,300L524.138,300L496.552,300L468.966,300L441.379,300L413.793,300L386.207,300L358.621,300L331.034,300L303.448,300L275.862,300L248.276,300L220.69,300L193.103,300L165.517,300L137.931,300L110.345,300L82.759,300L55.172,300L27.586,300L0,300Z" fill="#e45756"/></g></g><path class="foreground" aria-hidden="true" d="" display="none"/></g></g><g class="mark-group role-legend" role="graphics-symbol" aria-roledescription="legend" aria-label="Symbol legend titled 'Repository' for fill color with 43 values: justdavis-family/github-analytics-data, justdavis-family/justdavis, karlmdavis/FHIR-Server, karlmdavis/ansible, karlmdavis/ansible-jenkins, ending with karlmdavis/xmlpull"><g transform="translate(818,0)"><path class="background" aria-hidden="true" d="M0,0h176v404h-176Z" pointer-events="none"/><g><g class="mark-group role-legend-entry"><g transform="translate(0,16)"><path class="background" aria-hidden="true" d="M0,0h0v0h0Z" pointer-events="none"/><g><g class="mark-group role-scope" role="graphics-object" aria-roledescription="group mark container"><g transform="translate(0,0)"><path class="background" aria-hidden="true" d="M0,0h176v11h-176Z" pointer-events="none" opacity="1"/><g><g class="mark-symbol role-legend-symbol" pointer-events="none"><path transform="translate(6,6)" d="M5,0A5,5,0,1,1,-5,0A5,5,0,1,1,5,0" fill="#4c78a8" stroke-width="1.5" opacity="1"/></g><g class="mark-text role-legend-label" pointer-events="none"><text text-anchor="start" transform="translate(16,9)" font-family="sans-serif" font-size="10px" fill="#000" opacity="1">justdavis-family/github-analytics-d…</text></g></g><path class="foreground" aria-hidden="true" d="" pointer-events="none" display="none"/></g><g transform="translate(0,13)"><path class="background" aria-hidden="true" d="M0,0h176v11h-176Z" pointer-events="none" opacity="1"/><g><g class="mark-symbol role-legend-symbol" pointer-events="none"><path transform="translate(6,6)" d="M5,0A5,5,0,1,1,-5,0A5,5,0,1,1,5,0" fill="#f58518" stroke-width="1.5" opacity="1"/></g><g class="mark-text role-legend-label" pointer-events="none"><text text-anchor="start" transform="translate(16,9)" font-family="sans-serif" font-size="10px" fill="#000" opacity="1">justdavis-family/justdavis</text></g></g><path class="foreground" aria-hidden="true" d="" pointer-events="none" display="none"/></g><g transform="translate(0,26)"><path class="background" aria-hidden="true" d="M0,0h176v11h-176Z" pointer-events="none" opacity="1"/><g><g class="mark-symbol role-legend-symbol" pointer-events="none"><path transform="translate(6,6)" d="M5,0A5,5,0,1,1,-5,0A5,5,0,1,1,5,0" fill="#e45756" stroke-width="1.5" opacity="1"/></g><g class="mark-text role-legend-label" pointer-events="none"><text text-anchor="start" transform="translate(16,9)" font-family="sans-serif" font-size="10px" fill="#000" opacity="1">karlmdavis/FHIR-Server</text></g></g><path class="foreground" aria-hidden="true" d="" pointer-events="none" display="none"/></g><g transform="translate(0,39)"><path class="background" aria-hidden="true" d="M0,0h176v11h-176Z" pointer-events="none" opacity="1"/><g><g class="mark-symbol role-legend-symbol" pointer-events="none"><path transform="translate(6,6)" d="M5,0A5,5,0,1,1,-5,0A5,5,0,1,1,5,0" fill="#72b7b2" stroke-width="1.5" opacity="1"/></g><g class="mark-text role-legend-label" pointer-events="none"><text text-anchor="start" transform="translate(16,9)" font-family="sans-serif" font-size="10px" fill="#000" opacity="1">karlmdavis/ansible</text></g></g><path class="foreground" aria-hidden="true" d="" pointer-events="none" display="none"/></g><g transform="translate(0,52)"><path class="background" aria-hidden="true" d="M0,0h176v11h-176Z" pointer-events="none" opacity="1"/><g><g class="mark-symbol role-legend-symbol" pointer-events="none"><path transform="translate(6,6)" d="M5,0A5,5,0,1,1,-5,0A5,5,0,1,1,5,0" fill="#54a24b" stroke-width="1.5" opacity="1"/></g><g class="mark-text role-legend-label" pointer-events="none"><text text-anchor="start" transform="translate(16,9)" font-family="sans-serif" font-size="10px" fill="#000" opacity="1">karlmdavis/ansible-jenkins</text></g></g><path class="foreground" aria-hidden="true" d="" pointer-events="none" display="none"/></g><g transform="translate(0,65)"><path class="background" aria-hidden="true" d="M0,0h176v11h-176Z" pointer-events="none" opacity="1"/><g><g class="mark-symbol role-legend-symbol" pointer-events="none"><path transform="translate(6,6)" d="M5,0A5,5,0,1,1,-5,0A5,5,0,1,1,5,0" fill="#eeca3b" stroke-width="1.5" opacity="1"/></g><g class="mark-text role-legend-label" pointer-events="none"><text text-anchor="start" transform="translate(16,9)" font-family="sans-serif" font-size="10px" fill="#000" opacity="1">karlmdavis/ansible-role-acmetool</text></g></g><path class="foreground" aria-hidden="true" d="" pointer-events="none" display="none"/></g><g transform="translate(0,78)"><path class="background" aria-hidden="true" d="M0,0h176v11h-176Z" pointer-events="none" opacity="1"/><g><g class="mark-symbol role-legend-symbol" pointer-events="none"><path transform="translate(6,6)" d="M5,0A5,5,0,1,1,-5,0A5,5,0,1,1,5,0" fill="#b279a2" stroke-width="1.5" opacity="1"/></g><g class="mark-text role-legend-label" pointer-events="none"><text text-anchor="start" transform="translate(16,9)" font-family="sans-serif" font-size="10px" fill="#000" opacity="1">karlmdavis/ansible-role-bind-dns</text></g></g><path class="foreground" aria-hidden="true" d="" pointer-events="none" display="none"/></g><g transform="translate(0,91)"><path class="background" aria-hidden="true" d="M0,0h176v11h-176Z" pointer-events="none" opacity="1"/><g><g class="mark-symbol role-legend-symbol" pointer-events="none"><path transform="translate(6,6)" d="M5,0A5,5,0,1,1,-5,0A5,5,0,1,1,5,0" fill="#ff9da6" stroke-width="1.5" opacity="1"/></g><g class="mark-text role-legend-label" pointer-events="none"><text text-anchor="start" transform="translate(16,9)" font-family="sans-serif" font-size="10px" fill="#000" opacity="1">karlmdavis/ansible-role-jenkins2</text></g></g><path class="foreground" aria-hidden="true" d="" pointer-events="none" display="none"/></g><g transform="translate(0,104)"><path class="background" aria-hidden="true" d="M0,0h176v11h-176Z" pointer-events="none" opacity="1"/><g><g class="mark-symbol role-legend-symbol" pointer-events="none"><path transform="translate(6,6)" d="M5,0A5,5,0,1,1,-5,0A5,5,0,1,1,5,0" fill="#9d755d" stroke-width="1.5" opacity="1"/></g><g class="mark-text role-legend-label" pointer-events="none"><text text-anchor="start" transform="translate(16,9)" font-family="sans-serif" font-size="10px" fill="#000" opacity="1">karlmdavis/ansible-role-ldap</text></g></g><path class="foreground" aria-hidden="true" d="" pointer-events="none" display="none"/></g><g transform="translate(0,117)"><path class="background" aria-hidden="true" d="M0,0h176v11h-176Z" pointer-events="none" opacity="1"/><g><g class="mark-symbol role-legend-symbol" pointer-events="none"><path transform="translate(6,6)" d="M5,0A5,5,0,1,1,-5,0A5,5,0,1,1,5,0" fill="#bab0ac" stroke-width="1.5" opacity="1"/></g><g class="mark-text role-legend-label" pointer-events="none"><text text-anchor="start" transform="translate(16,9)" font-family="sans-serif" font-size="10px" fill="#000" opacity="1">karlmdavis/ansible-role-rcm-dotfiles</text></g></g><path class="foreground" aria-hidden="true" d="" pointer-events="none" display="none"/></g><g transform="translate(0,130)"><path class="background" aria-hidden="true" d="M0,0h176v11h-176Z" pointer-events="none" opacity="1"/><g><g class="mark-symbol role-legend-symbol" pointer-events="none"><path transform="translate(6,6)" d="M5,0A5,5,0,1,1,-5,0A5,5,0,1,1,5,0" fill="#4c78a8" stroke-width="1.5" opacity="1"/></g><g class="mark-text role-legend-label" pointer-events="none"><text text-anchor="start" transform="translate(16,9)" font-family="sans-serif" font-size="10px" fill="#000" opacity="1">karlmdavis/ansible-roles</text></g></g><path class="foreground" aria-hidden="true" d="" pointer-events="none" display="none"/></g><g transform="translate(0,143)"><path class="background" aria-hidden="true" d="M0,0h176v11h-176Z" pointer-events="none" opacity="1"/><g><g class="mark-symbol role-legend-symbol" pointer-events="none"><path transform="translate(6,6)" d="M5,0A5,5,0,1,1,-5,0A5,5,0,1,1,5,0" fill="#f58518" stroke-width="1.5" opacity="1"/></g><g class="mark-text role-legend-label" pointer-events="none"><text text-anchor="start" transform="translate(16,9)" font-family="sans-serif" font-size="10px" fill="#000" opacity="1">karlmdavis/bbonfhir-dev-infra-doc…</text></g></g><path class="foreground" aria-hidden="true" d="" pointer-events="none" display="none"/></g><g transform="translate(0,156)"><path class="background" aria-hidden="true" d="M0,0h176v11h-176Z" pointer-events="none" opacity="1"/><g><g class="mark-symbol role-legend-symbol" pointer-events="none"><path transform="translate(6,6)" d="M5,0A5,5,0,1,1,-5,0A5,5,0,1,1,5,0" fill="#e45756" stroke-width="1.5" opacity="1"/></g><g class="mark-text role-legend-label" pointer-events="none"><text text-anchor="start" transform="translate(16,9)" font-family="sans-serif" font-size="10px" fill="#000" opacity="1">karlmdavis/can-i-kayak-baltimore</text></g></g><path class="foreground" aria-hidden="true" d="" pointer-events="none" display="none"/></g><g transform="translate(0,169)"><path class="background" aria-hidden="true" d="M0,0h176v11h-176Z" pointer-events="none" opacity="1"/><g><g class="mark-symbol role-legend-symbol" pointer-events="none"><path transform="translate(6,6)" d="M5,0A5,5,0,1,1,-5,0A5,5,0,1,1,5,0" fill="#72b7b2" stroke-width="1.5" opacity="1"/></g><g class="mark-text role-legend-label" pointer-events="none"><text text-anchor="start" transform="translate(16,9)" font-family="sans-serif" font-size="10px" fill="#000" opacity="1">karlmdavis/datanucleus-test-jdo-1…</text></g></g><path class="foreground" aria-hidden="true" d="" pointer-events="none" display="none"/></g><g transform="translate(0,182)"><path class="background" aria-hidden="true" d="M0,0h176v11h-176Z" pointer-events="none" opacity="1"/><g><g class="mark-symbol role-legend-symbol" pointer-events="none"><path transform="translate(6,6)" d="M5,0A5,5,0,1,1,-5,0A5,5,0,1,1,5,0" fill="#54a24b" stroke-width="1.5" opacity="1"/></g><g class="mark-text role-legend-label" pointer-events="none"><text text-anchor="start" transform="translate(16,9)" font-family="sans-serif" font-size="10px" fill="#000" opacity="1">karlmdavis/dotfiles</text></g></g><path class="foreground" aria-hidden="true" d="" pointer-events="none" display="none"/></g><g transform="translate(0,195)"><path class="background" aria-hidden="true" d="M0,0h176v11h-176Z" pointer-events="none" opacity="1"/><g><g class="mark-symbol role-legend-symbol" pointer-events="none"><path transform="translate(6,6)" d="M5,0A5,5,0,1,1,-5,0A5,5,0,1,1,5,0" fill="#eeca3b" stroke-width="1.5" opacity="1"/></g><g class="mark-text role-legend-label" pointer-events="none"><text text-anchor="start" transform="translate(16,9)" font-family="sans-serif" font-size="10px" fill="#000" opacity="1">karlmdavis/fhir-benchmarks</text></g></g><path class="foreground" aria-hidden="true" d="" pointer-events="none" display="none"/></g><g transform="translate(0,208)"><path class="background" aria-hidden="true" d="M0,0h176v11h-176Z" pointer-events="none" opacity="1"/><g><g class="mark-symbol role-legend-symbol" pointer-events="none"><path transform="translate(6,6)" d="M5,0A5,5,0,1,1,-5,0A5,5,0,1,1,5,0" fill="#b279a2" stroke-width="1.5" opacity="1"/></g><g class="mark-text role-legend-label" pointer-events="none"><text text-anchor="start" transform="translate(16,9)" font-family="sans-serif" font-size="10px" fill="#000" opacity="1">karlmdavis/hapi-fhir-jpaserver-sta…</text></g></g><path class="foreground" aria-hidden="true" d="" pointer-events="none" display="none"/></g><g transform="translate(0,221)"><path class="background" aria-hidden="true" d="M0,0h176v11h-176Z" pointer-events="none" opacity="1"/><g><g class="mark-symbol role-legend-symbol" pointer-events="none"><path transform="translate(6,6)" d="M5,0A5,5,0,1,1,-5,0A5,5,0,1,1,5,0" fill="#ff9da6" stroke-width="1.5" opacity="1"/></g><g class="mark-text role-legend-label" pointer-events="none"><text text-anchor="start" transform="translate(16,9)" font-family="sans-serif" font-size="10px" fill="#000" opacity="1">karlmdavis/hello-rust-actix</text></g></g><path class="foreground" aria-hidden="true" d="" pointer-events="none" display="none"/></g><g transform="translate(0,234)"><path class="background" aria-hidden="true" d="M0,0h176v11h-176Z" pointer-events="none" opacity="1"/><g><g class="mark-symbol role-legend-symbol" pointer-events="none"><path transform="translate(6,6)" d="M5,0A5,5,0,1,1,-5,0A5,5,0,1,1,5,0" fill="#9d755d" stroke-width="1.5" opacity="1"/></g><g class="mark-text role-legend-label" pointer-events="none"><text text-anchor="start" transform="translate(16,9)" font-family="sans-serif" font-size="10px" fill="#000" opacity="1">karlmdavis/jessentials</text></g></g><path class="foreground" aria-hidden="true" d="" pointer-events="none" display="none"/></g><g transform="translate(0,247)"><path class="background" aria-hidden="true" d="M0,0h176v11h-176Z" pointer-events="none" opacity="1"/><g><g class="mark-symbol role-legend-symbol" pointer-events="none"><path transform="translate(6,6)" d="M5,0A5,5,0,1,1,-5,0A5,5,0,1,1,5,0" fill="#bab0ac" stroke-width="1.5" opacity="1"/></g><g class="mark-text role-legend-label" pointer-events="none"><text text-anchor="start" transform="translate(16,9)" font-family="sans-serif" font-size="10px" fill="#000" opacity="1">karlmdavis/justdavis-ansible</text></g></g><path class="foreground" aria-hidden="true" d="" pointer-events="none" display="none"/></g><g transform="translate(0,260)"><path class="background" aria-hidden="true" d="M0,0h176v11h-176Z" pointer-events="none" opacity="1"/><g><g class="mark-symbol role-legend-symbol" pointer-events="none"><path transform="translate(6,6)" d="M5,0A5,5,0,1,1,-5,0A5,5,0,1,1,5,0" fill="#4c78a8" stroke-width="1.5" opacity="1"/></g><g class="mark-text role-legend-label" pointer-events="none"><text text-anchor="start" transform="translate(16,9)" font-family="sans-serif" font-size="10px" fill="#000" opacity="1">karlmdavis/justdavis-finances</text></g></g><path class="foreground" aria-hidden="true" d="" pointer-events="none" display="none"/></g><g transform="translate(0,273)"><path class="background" aria-hidden="true" d="M0,0h176v11h-176Z" pointer-events="none" opacity="1"/><g><g class="mark-symbol role-legend-symbol" pointer-events="none"><path transform="translate(6,6)" d="M5,0A5,5,0,1,1,-5,0A5,5,0,1,1,5,0" fill="#f58518" stroke-width="1.5" opacity="1"/></g><g class="mark-text role-legend-label" pointer-events="none"><text text-anchor="start" transform="translate(16,9)" font-family="sans-serif" font-size="10px" fill="#000" opacity="1">karlmdavis/justdavis-karl</text></g></g><path class="foreground" aria-hidden="true" d="" pointer-events="none" display="none"/></g><g transform="translate(0,286)"><path class="background" aria-hidden="true" d="M0,0h176v11h-176Z" pointer-events="none" opacity="1"/><g><g class="mark-symbol role-legend-symbol" pointer-events="none"><path transform="translate(6,6)" d="M5,0A5,5,0,1,1,-5,0A5,5,0,1,1,5,0" fill="#e45756" stroke-width="1.5" opacity="1"/></g><g class="mark-text role-legend-label" pointer-events="none"><text text-anchor="start" transform="translate(16,9)" font-family="sans-serif" font-size="10px" fill="#000" opacity="1">karlmdavis/justdavis-puppet</text></g></g><path class="foreground" aria-hidden="true" d="" pointer-events="none" display="none"/></g><g transform="translate(0,299)"><path class="background" aria-hidden="true" d="M0,0h176v11h-176Z" pointer-events="none" opacity="1"/><g><g class="mark-symbol role-legend-symbol" pointer-events="none"><path transform="translate(6,6)" d="M5,0A5,5,0,1,1,-5,0A5,5,0,1,1,5,0" fill="#72b7b2" stroke-width="1.5" opacity="1"/></g><g class="mark-text role-legend-label" pointer-events="none"><text text-anchor="start" transform="translate(16,9)" font-family="sans-serif" font-size="10px" fill="#000" opacity="1">karlmdavis/kobjects</text></g></g><path class="foreground" aria-hidden="true" d="" pointer-events="none" display="none"/></g><g transform="translate(0,312)"><path class="background" aria-hidden="true" d="M0,0h176v11h-176Z" pointer-events="none" opacity="1"/><g><g class="mark-symbol role-legend-symbol" pointer-events="none"><path transform="translate(6,6)" d="M5,0A5,5,0,1,1,-5,0A5,5,0,1,1,5,0" fill="#54a24b" stroke-width="1.5" opacity="1"/></g><g class="mark-text role-legend-label" pointer-events="none"><text text-anchor="start" transform="translate(16,9)" font-family="sans-serif" font-size="10px" fill="#000" opacity="1">karlmdavis/ksoap2-android</text></g></g><path class="foreground" aria-hidden="true" d="" pointer-events="none" display="none"/></g><g transform="translate(0,325)"><path class="background" aria-hidden="true" d="M0,0h176v11h-176Z" pointer-events="none" opacity="1"/><g><g class="mark-symbol role-legend-symbol" pointer-events="none"><path transform="translate(6,6)" d="M5,0A5,5,0,1,1,-5,0A5,5,0,1,1,5,0" fill="#eeca3b" stroke-width="1.5" opacity="1"/></g><g class="mark-text role-legend-label" pointer-events="none"><text text-anchor="start" transform="translate(16,9)" font-family="sans-serif" font-size="10px" fill="#000" opacity="1">karlmdavis/kxml2</text></g></g><path class="foreground" aria-hidden="true" d="" pointer-events="none" display="none"/></g><g transform="translate(0,338)"><path class="background" aria-hidden="true" d="M0,0h176v11h-176Z" pointer-events="none" opacity="1"/><g><g class="mark-symbol role-legend-symbol" pointer-events="none"><path transform="translate(6,6)" d="M5,0A5,5,0,1,1,-5,0A5,5,0,1,1,5,0" fill="#b279a2" stroke-width="1.5" opacity="1"/></g><g class="mark-text role-legend-label" pointer-events="none"><text text-anchor="start" transform="translate(16,9)" font-family="sans-serif" font-size="10px" fill="#000" opacity="1">karlmdavis/ldap-plugin</text></g></g><path class="foreground" aria-hidden="true" d="" pointer-events="none" display="none"/></g><g transform="translate(0,351)"><path class="background" aria-hidden="true" d="M0,0h176v11h-176Z" pointer-events="none" opacity="1"/><g><g class="mark-symbol role-legend-symbol" pointer-events="none"><path transform="translate(6,6)" d="M5,0A5,5,0,1,1,-5,0A5,5,0,1,1,5,0" fill="#ff9da6" stroke-width="1.5" opacity="1"/></g><g class="mark-text role-legend-label" pointer-events="none"><text text-anchor="start" transform="translate(16,9)" font-family="sans-serif" font-size="10px" fill="#000" opacity="1">karlmdavis/lego-ev3dev-rs</text></g></g><path class="foreground" aria-hidden="true" d="" pointer-events="none" display="none"/></g><g transform="translate(0,364)"><path class="background" aria-hidden="true" d="M0,0h176v11h-176Z" pointer-events="none" opacity="1"/><g><g class="mark-symbol role-legend-symbol" pointer-events="none"><path transform="translate(6,6)" d="M5,0A5,5,0,1,1,-5,0A5,5,0,1,1,5,0" fill="#9d755d" stroke-width="1.5" opacity="1"/></g><g class="mark-text role-legend-label" pointer-events="none"><text text-anchor="start" transform="translate(16,9)" font-family="sans-serif" font-size="10px" fill="#000" opacity="1">karlmdavis/liquibase</text></g></g><path class="foreground" aria-hidden="true" d="" pointer-events="none" display="none"/></g><g transform="translate(0,377)"><path class="background" aria-hidden="true" d="M0,0h176v11h-176Z" pointer-events="none" opacity="1"/><g><g class="mark-symbol role-legend-symbol" pointer-events="none"><path transform="translate(6,6)" d="M5,0A5,5,0,1,1,-5,0A5,5,0,1,1,5,0" fill="#bab0ac" stroke-width="1.5" opacity="1"/></g><g class="mark-text role-legend-label" pointer-events="none"><text text-anchor="start" transform="translate(16,9)" font-family="sans-serif" font-size="10px" fill="#000" opacity="1">…14 entries</text></g></g><path class="foreground" aria-hidden="true" d="" pointer-events="none" display="none"/></g></g></g><path class="foreground" aria-hidden="true" d="" pointer-events="none" display="none"/></g></g><g class="mark-text role-legend-title" pointer-events="none"><text text-anchor="start" transform="translate(0,9)" font-family="sans-serif" font-size="11px" font-weight="bold" fill="#000" opacity="1">Repository</text></g></g><path class="foreground" aria-hidden="true" d="" pointer-events="none" display="none"/></g></g><g class="mark-group role-title"><g transform="translate(400,-22)"><path class="background" aria-hidden="true" d="M0,0h0v0h0Z" pointer-events="none"/><g><g class="mark-text role-title-text" role="graphics-symbol" aria-roledescription="title" aria-label="Title text 'Unique Clones per Day'" pointer-events="none"><text text-anchor="middle" transform="translate(0,10)" font-family="sans-serif" font-size="13px" font-weight="bold" fill="#000" opacity="1">Unique Clones per Day</text></g></g><path class="foreground" aria-hidden="true" d="" pointer-events="none" display="none"/></g></g></g><path class="foreground" aria-hidden="true" d="" display="none"/></g></g></g></svg>