<svg xmlns="http://www.w3.org/2000/svg" xmlns:xlink="http://www.w3.org/1999/xlink" version="1.1" class="marks" width="1040" height="364" viewBox="0 0 1040 364"><rect width="1040" height="364" fill="white"/><g fill="none" stroke-miterlimit="10" transform="translate(41,27)"><g class="mark-group role-frame root" role="graphics-object" aria-roledescription="group mark container"><g transform="translate(0,0)"><path class="background" aria-hidden="true" d="M0.5,0.5h800v300h-800Z" stroke="#ddd"/><g><g class="mark-group role-axis" aria-hidden="true"><g transform="translate(0.5,300.5)"><path class="background" aria-hidden="true" d="M0,0h0v0h0Z" pointer-events="none"/><g><g class="mark-rule role-axis-grid" pointer-events="none"><line transform="translate(27,-300)" x2="0" y2="300" stroke="#ddd" stroke-width="1" opacity="1"/><line transform="translate(59,-300)" x2="0" y2="300" stroke="#ddd" stroke-width="1" opacity="1"/><line transform="translate(91,-300)" x2="0" y2="300" stroke="#ddd" stroke-width="1" opacity="1"/><line transform="translate(123,-300)" x2="0" y2="300" stroke="#ddd" stroke-width="1" opacity="1"/><line transform="translate(155,-300)" x2="0" y2="300" stroke="#ddd" stroke-width="1" opacity="1"/><line transform="translate(186,-300)" x2="0" y2="300" stroke="#ddd" stroke-width="1" opacity="1"/><line transform="translate(218,-300)" x2="0" y2="300" stroke="#ddd" stroke-width="1" opacity="1"/><line transform="translate(250,-300)" x2="0" y2="300" stroke="#ddd" stroke-width="1" opacity="1"/><line transform="translate(282,-300)" x2="0" y2="300" stroke="#ddd" stroke-width="1" opacity="1"/><line transform="translate(314,-300)" x2="0" y2="300" stroke="#ddd" stroke-width="1" opacity="1"/><line transform="translate(345,-300)" x2="0" y2="300" stroke="#ddd" stroke-width="1" opacity="1"/><line transform="translate(377,-300)" x2="0" y2="300" stroke="#ddd" stroke-width="1" opacity="1"/><line transform="translate(409,-300)" x2="0" y2="300" stroke="#ddd" stroke-width="1" opacity="1"/><line transform="translate(441,-300)" x2="0" y2="300" stroke="#ddd" stroke-width="1" opacity="1"/><line transform="translate(473,-300)" x2="0" y2="300" stroke="#ddd" stroke-width="1" opacity="1"/><line transform="translate(505,-300)" x2="0" y2="300" stroke="#ddd" stroke-width="1" opacity="1"/><line transform="translate(536,-300)" x2="0" y2="300" stroke="#ddd" stroke-width="1" opacity="1"/><line transform="translate(568,-300)" x2="0" y2="300" stroke="#ddd" stroke-width="1" opacity="1"/><line transform="translate(600,-300)" x2="0" y2="300" stroke="#ddd" stroke-width="1" opacity="1"/><line transform="translate(632,-300)" x2="0" y2="300" stroke="#ddd" stroke-width="1" opacity="1"/><line transform="translate(664,-300)" x2="0" y2="300" stroke="#ddd" stroke-width="1" opacity="1"/><line transform="translate(695,-300)" x2="0" y2="300" stroke="#ddd" stroke-width="1" opacity="1"/><line transform="translate(727,-300)" x2="0" y2="300" stroke="#ddd" stroke-width="1" opacity="1"/><line transform="translate(759,-300)" x2="0" y2="300" stroke="#ddd" stroke-width="1" opacity="1"/><line transform="translate(791,-300)" x2="0" y2="300" stroke="#ddd" stroke-width="1" opacity="1"/></g></g><path class="foreground" aria-hidden="true" d="" pointer-events="none" display="none"/></g></g><g class="mark-group role-axis" aria-hidden="true"><g transform="translate(0.5,0.5)"><path class="background" aria-hidden="true" d="M0,0h0v0h0Z" pointer-events="none"/><g><g class="mark-rule role-axis-grid" pointer-events="none"><line transform="translate(0,300)" x2="800" y2="0" stroke="#ddd" stroke-width="1" opacity="1"/><line transform="translate(0,250)" x2="800" y2="0" stroke="#ddd" stroke-width="1" opacity="1"/><line transform="translate(0,200)" x2="800" y2="0" stroke="#ddd" stroke-width="1" opacity="1"/><line transform="translate(0,150)" x2="800" y2="0" stroke="#ddd" stroke-width="1" opacity="1"/><line transform="translate(0,100)" x2="800" y2="0" stroke="#ddd" stroke-width="1" opacity="1"/><line transform="translate(0,50)" x2="800" y2="0" stroke="#ddd" stroke-width="1" opacity="1"/><line transform="translate(0,0)" x2="800" y2="0" stroke="#ddd" stroke-width="1" opacity="1"/></g></g><path class="foreground" aria-hidden="true" d="" pointer-events="none" display="none"/></g></g><g class="mark-group role-axis" role="graphics-symbol" aria-roledescription="axis" aria-label="X-axis titled 'Date' for a time scale with values from Monday, 23 March 2026, 12:00:00 AM to Tuesday, 15 September 2026, 12:00:00 AM"><g transform="translate(0.5,300.5)"><path class="background" aria-hidden="true" d="M0,0h0v0h0Z" pointer-events="none"/><g><g class="mark-rule role-axis-tick" pointer-events="none"><line transform="translate(27,0)" x2="0" y2="5" stroke="#888" stroke-width="1" opacity="1"/><line transform="translate(59,0)" x2="0" y2="5" stroke="#888" stroke-width="1" opacity="1"/><line transform="translate(91,0)" x2="0" y2="5" stroke="#888" stroke-width="1" opacity="1"/><line transform="translate(123,0)" x2="0" y2="5" stroke="#888" stroke-width="1" opacity="1"/><line transform="translate(155,0)" x2="0" y2="5" stroke="#888" stroke-width="1" opacity="1"/><line transform="translate(186,0)" x2="0" y2="5" stroke="#888" stroke-width="1" opacity="1"/><line transform="translate(218,0)" x2="0" y2="5" stroke="#888" stroke-width="1" opacity="1"/><line transform="translate(250,0)" x2="0" y2="5" stroke="#888" stroke-width="1" opacity="1"/><line transform="translate(282,0)" x2="0" y2="5" stroke="#888" stroke-width="1" opacity="1"/><line transform="translate(314,0)" x2="0" y2="5" stroke="#888" stroke-width="1" opacity="1"/><line transform="translate(345,0)" x2="0" y2="5" stroke="#888" stroke-width="1" opacity="1"/><line transform="translate(377,0)" x2="0" y2="5" stroke="#888" stroke-width="1" opacity="1"/><line transform="translate(409,0)" x2="0" y2="5" stroke="#888" stroke-width="1" opacity="1"/><line transform="translate(441,0)" x2="0" y2="5" stroke="#888" stroke-width="1" opacity="1"/><line transform="translate(473,0)" x2="0" y2="5" stroke="#888" stroke-width="1" opacity="1"/><line transform="translate(505,0)" x2="0" y2="5" stroke="#888" stroke-width="1" opacity="1"/><line transform="translate(536,0)" x2="0" y2="5" stroke="#888" stroke-width="1" opacity="1"/><line transform="translate(568,0)" x2="0" y2="5" stroke="#888" stroke-width="1" opacity="1"/><line transform="translate(600,0)" x2="0" y2="5" stroke="#888" stroke-width="1" opacity="1"/><line transform="translate(632,0)" x2="0" y2="5" stroke="#888" stroke-width="1" opacity="1"/><line transform="translate(664,0)" x2="0" y2="5" stroke="#888" stroke-width="1" opacity="1"/><line transform="translate(695,0)" x2="0" y2="5" stroke="#888" stroke-width="1" opacity="1"/><line transform="translate(727,0)" x2="0" y2="5" stroke="#888" stroke-width="1" opacity="1"/><line transform="translate(759,0)" x2="0" y2="5" stroke="#888" stroke-width="1" opacity="1"/><line transform="translate(791,0)" x2="0" y2="5" stroke="#888" stroke-width="1" opacity="1"/></g><g class="mark-text role-axis-label" pointer-events="none"><text text-anchor="middle" transform="translate(27.27272727272727,15)" font-family="sans-serif" font-size="10px" fill="#000" opacity="1">Mar 29</text><text text-anchor="middle" transform="translate(59.09090909090909,15)" font-family="sans-serif" font-size="10px" fill="#000" opacity="0">Apr 05</text><text text-anchor="middle" transform="translate(90.9090909090909,15)" font-family="sans-serif" font-size="10px" fill="#000" opacity="1">Apr 12</text><text text-anchor="middle" transform="translate(122.72727272727273,15)" font-family="sans-serif" font-size="10px" fill="#000" opacity="0">Apr 19</text><text text-anchor="middle" transform="translate(154.54545454545453,15)" font-family="sans-serif" font-size="10px" fill="#000" opacity="1">Apr 26</text><text text-anchor="middle" transform="translate(186.36363636363635,15)" font-family="sans-serif" font-size="10px" fill="#000" opacity="0">May 03</text><text text-anchor="middle" transform="translate(218.18181818181816,15)" font-family="sans-serif" font-size="10px" fill="#000" opacity="1">May 10</text><text text-anchor="middle" transform="translate(250,15)" font-family="sans-serif" font-size="10px" fill="#000" opacity="0">May 17</text><text text-anchor="middle" transform="translate(281.8181818181818,15)" font-family="sans-serif" font-size="10px" fill="#000" opacity="1">May 24</text><text text-anchor="middle" transform="translate(313.6363636363636,15)" font-family="sans-serif" font-size="10px" fill="#000" opacity="0">May 31</text><text text-anchor="middle" transform="translate(345.45454545454544,15)" font-family="sans-serif" font-size="10px" fill="#000" opacity="1">Jun 07</text><text text-anchor="middle" transform="translate(377.2727272727273,15)" font-family="sans-serif" font-size="10px" fill="#000" opacity="0">Jun 14</text><text text-anchor="middle" transform="translate(409.09090909090907,15)" font-family="sans-serif" font-size="10px" fill="#000" opacity="1">Jun 21</text><text text-anchor="middle" transform="translate(440.90909090909093,15)" font-family="sans-serif" font-size="10px" fill="#000" opacity="0">Jun 28</text><text text-anchor="middle" transform="translate(472.72727272727275,15)" font-family="sans-serif" font-size="10px" fill="#000" opacity="1">Jul 05</text><text text-anchor="middle" transform="translate(504.54545454545456,15)" font-family="sans-serif" font-size="10px" fill="#000" opacity="0">Jul 12</text><text text-anchor="middle" transform="translate(536.3636363636364,15)" font-family="sans-serif" font-size="10px" fill="#000" opacity="1">Jul 19</text><text text-anchor="middle" transform="translate(568.1818181818181,15)" font-family="sans-serif" font-size="10px" fill="#000" opacity="0">Jul 26</text><text text-anchor="middle" transform="translate(600,15)" font-family="sans-serif" font-size="10px" fill="#000" opacity="1">Aug 02</text><text text-anchor="middle" transform="translate(631.8181818181819,15)" font-family="sans-serif" font-size="10px" fill="#000" opacity="0">Aug 09</text><text text-anchor="middle" transform="translate(663.6363636363636,15)" font-family="sans-serif" font-size="10px" fill="#000" opacity="1">Aug 16</text><text text-anchor="middle" transform="translate(695.4545454545454,15)" font-family="sans-serif" font-size="10px" fill="#000" opacity="0">Aug 23</text><text text-anchor="middle" transform="translate(727.2727272727273,15)" font-family="sans-serif" font-size="10px" fill="#000" opacity="1">Aug 30</text><text text-anchor="middle" transform="translate(759.0909090909091,15)" font-family="sans-serif" font-size="10px" fill="#000" opacity="0">Sep 06</text><text text-anchor="middle" transform="translate(790.9090909090909,15)" font-family="sans-serif" font-size="10px" fill="#000" opacity="1">Sep 13</text></g><g class="mark-rule role-axis-domain" pointer-events="none"><line transform="translate(0,0)" x2="800" y2="0" stroke="#888" stroke-width="1" opacity="1"/></g><g class="mark-text role-axis-title" pointer-events="none"><text text-anchor="middle" transform="translate(400,30)" font-family="sans-serif" font-size="11px" font-weight="bold" fill="#000" opacity="1">Date</text></g></g><path class="foreground" aria-hidden="true" d="" pointer-events="none" display="none"/></g></g><g class="mark-group role-axis" role="graphics-symbol" aria-roledescription="axis" aria-label="Y-axis titled 'Unique Visitors/day' for a linear scale with values from 0.0 to 3.0"><g transform="translate(0.5,0.5)"><path class="background" aria-hidden="true" d="M0,0h0v0h0Z" pointer-events="none"/><g><g class="mark-rule role-axis-tick" pointer-events="none"><line transform="translate(0,300)" x2="-5" y2="0" stroke="#888" stroke-width="1" opacity="1"/><line transform="translate(0,250)" x2="-5" y2="0" stroke="#888" stroke-width="1" opacity="1"/><line transform="translate(0,200)" x2="-5" y2="0" stroke="#888" stroke-width="1" opacity="1"/><line transform="translate(0,150)" x2="-5" y2="0" stroke="#888" stroke-width="1" opacity="1"/><line transform="translate(0,100)" x2="-5" y2="0" stroke="#888" stroke-width="1" opacity="1"/><line transform="translate(0,50)" x2="-5" y2="0" stroke="#888" stroke-width="1" opacity="1"/><line transform="translate(0,0)" x2="-5" y2="0" stroke="#888" stroke-width="1" opacity="1"/></g><g class="mark-text role-axis-label" pointer-events="none"><text text-anchor="end" transform="translate(-7,303)" font-family="sans-serif" font-size="10px" fill="#000" opacity="1">0.0</text><text text-anchor="end" transform="translate(-7,253)" font-family="sans-serif" font-size="10px" fill="#000" opacity="1">0.5</text><text text-anchor="end" transform="translate(-7,203.00000000000003)" font-family="sans-serif" font-size="10px" fill="#000" opacity="1">1.0</text><text text-anchor="end" transform="translate(-7,153)" font-family="sans-serif" font-size="10px" fill="#000" opacity="1">1.5</text><text text-anchor="end" transform="translate(-7,103.00000000000001)" font-family="sans-serif" font-size="10px" fill="#000" opacity="1">2.0</text><text text-anchor="end" transform="translate(-7,52.999999999999986)" font-family="sans-serif" font-size="10px" fill="#000" opacity="1">2.5</text><text text-anchor="end" transform="translate(-7,3)" font-family="sans-serif" font-size="10px" fill="#000" opacity="1">3.0</text></g><g class="mark-rule role-axis-domain" pointer-events="none"><line transform="translate(0,300)" x2="0" y2="-300" stroke="#888" stroke-width="1" opacity="1"/></g><g class="mark-text role-axis-title" pointer-events="none"><text text-anchor="middle" transform="translate(-24.9013671875,150) rotate(-90) translate(0,-2)" font-family="sans-serif" font-size="11px" font-weight="bold" fill="#000" opacity="1">Unique Visitors/day</text></g></g><path class="foreground" aria-hidden="true" d="" pointer-events="none" display="none"/></g></g><g class="mark-group role-scope pathgroup" role="graphics-object" aria-roledescription="group mark container"><g transform="translate(0,0)"><path class="background" aria-hidden="true" d="M0,0h800v300h-800Z"/><g><g class="mark-area role-mark marks" role="graphics-object" aria-roledescription="area mark container"><path aria-label="Date: Mar 23, 2026; Unique Visitors/day: 0; Repository: justdavis-family/github-analytics-data" role="graphics-symbol" aria-roledescription="area mark" d="M0,300L4.545,300L9.091,300L13.636,300L18.182,300L22.727,300L27.273,300L31.818,200L36.364,300L40.909,300L45.455,300L50,300L54.545,300L59.091,300L63.636,300L68.182,100L72.727,300L77.273,300L81.818,300L86.364,300L90.909,300L95.455,300L100,300L104.545,300L109.091,200L113.636,300L118.182,300L122.727,300L127.273,300L131.818,300L136.364,200L140.909,300L145.455,300L150,300L154.545,300L159.091,300L163.636,300L168.182,300L172.727,300L177.273,300L181.818,300L186.364,300L190.909,300L195.455,300L200,300L204.545,300L209.091,200L213.636,300L218.182,200L222.727,200L227.273,200L231.818,300L236.364,300L240.909,300L245.455,300L250,300L254.545,300L259.091,300L263.636,300L268.182,300L272.727,300L277.273,200L281.818,300L286.364,300L290.909,300L295.455,300L300,300L304.545,300L309.091,300L313.636,300L318.182,300L322.727,300L327.273,200L331.818,300L336.364,300L340.909,300L345.455,300L350,300L354.545,300L359.091,300L363.636,300L368.182,300L372.727,300L377.273,300L381.818,300L386.364,300L390.909,200L395.455,300L400,300L404.545,300L409.091,300L413.636,300L418.182,300L422.727,300L427.273,300L431.818,300L436.364,300L440.909,300L445.455,300L450,300L454.545,300L459.091,300L463.636,300L468.182,300L472.727,300L477.273,300L481.818,300L486.364,300L490.909,300L495.455,300L500,300L504.545,300L509.091,300L513.636,300L518.182,300L522.727,300L527.273,300L531.818,300L536.364,300L540.909,300L545.455,300L550,300L554.545,300L559.091,300L563.636,300L568.182,300L572.727,300L577.273,300L581.818,300L586.364,300L590.909,0L595.455,300L600,300L604.545,300L609.091,300L613.636,300L618.182,300L622.727,300L627.273,300L631.818,300L636.364,300L640.909,300L645.455,300L650,300L654.545,300L659.091,300L663.636,300L668.182,100L672.727,300L677.273,300L681.818,300L686.364,300L690.909,200L695.455,200L700,300L704.545,300L709.091,200L713.636,300L718.182,300L722.727,300L727.273,300L731.818,200L736.364,200L740.909,300L745.455,300L750,300L754.545,300L759.091,300L763.636,300L768.182,300L772.727,300L777.273,300L781.818,300L786.364,300L790.909,300L795.455,300L800,200L800,200L795.455,300L790.909,300L786.364,300L781.818,300L777.273,300L772.727,300L768.182,300L763.636,300L759.091,300L754.545,300L750,300L745.455,300L740.909,300L736.364,200L731.818,200L727.273,300L722.727,300L718.182,300L713.636,300L709.091,200L704.545,300L700,300L695.455,200L690.909,200L686.364,300L681.818,300L677.273,300L672.727,300L668.182,100L663.636,300L659.091,300L654.545,300L650,300L645.455,300L640.909,300L636.364,300L631.818,300L627.273,300L622.727,300L618.182,300L613.636,300L609.091,300L604.545,300L600,300L595.455,300L590.909,200L586.364,300L581.818,300L577.273,300L572.727,300L568.182,300L563.636,300L559.091,300L554.545,300L550,300L545.455,300L540.909,300L536.364,300L531.818,300L527.273,300L522.727,300L518.182,300L513.636,300L509.091,300L504.545,300L500,300L495.455,300L490.909,300L486.364,300L481.818,300L477.273,300L472.727,300L468.182,300L463.636,300L459.091,300L454.545,300L450,300L445.455,300L440.909,300L436.364,300L431.818,300L427.273,300L422.727,300L418.182,300L413.636,300L409.091,300L404.545,300L400,300L395.455,300L390.909,200L386.364,300L381.818,300L377.273,300L372.727,300L368.182,300L363.636,300L359.091,300L354.545,300L350,300L345.455,300L340.909,300L336.364,300L331.818,300L327.273,200L322.727,300L318.182,300L313.636,300L309.091,300L304.545,300L300,300L295.455,300L290.909,300L286.364,300L281.818,300L277.273,200L272.727,300L268.182,300L263.636,300L259.091,300L254.545,300L250,300L245.455,300L240.909,300L236.364,300L231.818,300L227.273,200L222.727,200L218.182,200L213.636,300L209.091,200L204.545,300L200,300L195.455,300L190.909,300L186.364,300L181.818,300L177.273,300L172.727,300L168.182,300L163.636,300L159.091,300L154.545,300L150,300L145.455,300L140.909,300L136.364,200L131.818,300L127.273,300L122.727,300L118.182,300L113.636,300L109.091,300L104.545,300L100,300L95.455,300L90.909,300L86.364,300L81.818,300L77.273,300L72.727,300L68.182,100L63.636,300L59.091,300L54.545,300L50,300L45.455,300L40.909,300L36.364,300L31.818,200L27.273,300L22.727,300L18.182,300L13.636,300L9.091,300L4.545,300L0,300Z" fill="#4c78a8"/></g></g><path class="foreground" aria-hidden="true" d="" display="none"/></g><g transform="translate(0,0)"><path class="background" aria-hidden="true" d="M0,0h800v300h-800Z"/><g><g class="mark-area role-mark marks" role="graphics-object" aria-roledescription="area mark container"><path aria-label="Date: Mar 23, 2026; Unique Visitors/day: 0; Repository: justdavis-family/justdavis" role="graphics-symbol" aria-roledescription="area mark" d="M0,300L4.545,300L9.091,300L13.636,300L18.182,300L22.727,300L27.273,300L31.818,200L36.364,300L40.909,300L45.455,300L50,300L54.545,300L59.091,300L63.636,300L68.182,100L72.727,300L77.273,300L81.818,300L86.364,300L90.909,300L95.455,300L100,300L104.545,300L109.091,300L113.636,300L118.182,300L122.727,300L127.273,300L131.818,300L136.364,200L140.909,300L145.455,300L150,300L154.545,300L159.091,300L163.636,300L168.182,300L172.727,300L177.273,300L181.818,300L186.364,300L190.909,300L195.455,300L200,300L204.545,300L209.091,200L213.636,300L218.182,200L222.727,200L227.273,200L231.818,300L236.364,300L240.909,300L245.455,300L250,300L254.545,300L259.091,300L263.636,300L268.182,300L272.727,300L277.273,200L281.818,300L286.364,300L290.909,300L295.455,300L300,300L304.545,300L309.091,300L313.636,300L318.182,300L322.727,300L327.273,200L331.818,300L336.364,300L340.909,300L345.455,300L350,300L354.545,300L359.091,300L363.636,300L368.182,300L372.727,300L377.273,300L381.818,300L386.364,300L390.909,200L395.455,300L400,300L404.545,300L409.091,300L413.636,300L418.182,300L422.727,300L427.273,300L431.818,300L436.364,300L440.909,300L445.455,300L450,300L454.545,300L459.091,300L463.636,300L468.182,300L472.727,300L477.273,300L481.818,300L486.364,300L490.909,300L495.455,300L500,300L504.545,300L509.091,300L513.636,300L518.182,300L522.727,300L527.273,300L531.818,300L536.364,300L540.909,300L545.455,300L550,300L554.545,300L559.091,300L563.636,300L568.182,300L572.727,300L577.273,300L581.818,300L586.364,300L590.909,200L595.455,300L600,300L604.545,300L609.091,300L613.636,300L618.182,300L622.727,300L627.273,300L631.818,300L636.364,300L640.909,300L645.455,300L650,300L654.545,300L659.091,300L663.636,300L668.182,100L672.727,300L677.273,300L681.818,300L686.364,300L690.909,200L695.455,200L700,300L704.545,300L709.091,200L713.636,300L718.182,300L722.727,300L727.273,300L731.818,200L736.364,200L740.909,300L745.455,300L750,300L754.545,300L759.091,300L763.636,300L768.182,300L772.727,300L777.273,300L781.818,300L786.364,300L790.909,300L795.455,300L800,200L800,300L795.455,300L790.909,300L786.364,300L781.818,300L777.273,300L772.727,300L768.182,300L763.636,300L759.091,300L754.545,300L750,300L745.455,300L740.909,300L736.364,300L731.818,300L727.273,300L722.727,300L718.182,300L713.636,300L709.091,300L704.545,300L700,300L695.455,300L690.909,300L686.364,300L681.818,300L677.273,300L672.727,300L668.182,300L663.636,300L659.091,300L654.545,300L650,300L645.455,300L640.909,300L636.364,300L631.818,300L627.273,300L622.727,300L618.182,300L613.636,300L609.091,300L604.545,300L600,300L595.455,300L590.909,300L586.364,300L581.818,300L577.273,300L572.727,300L568.182,300L563.636,300L559.091,300L554.545,300L550,300L545.455,300L540.909,300L536.364,300L531.818,300L527.273,300L522.727,300L518.182,300L513.636,300L509.091,300L504.545,300L500,300L495.455,300L490.909,300L486.364,300L481.818,300L477.273,300L472.727,300L468.182,300L463.636,300L459.091,300L454.545,300L450,300L445.455,300L440.909,300L436.364,300L431.818,300L427.273,300L422.727,300L418.182,300L413.636,300L409.091,300L404.545,300L400,300L395.455,300L390.909,300L386.364,300L381.818,300L377.273,300L372.727,300L368.182,300L363.636,300L359.091,300L354.545,300L350,300L345.455,300L340.909,300L336.364,300L331.818,300L327.273,300L322.727,300L318.182,300L313.636,300L309.091,300L304.545,300L300,300L295.455,300L290.909,300L286.364,300L281.818,300L277.273,300L272.727,300L268.182,300L263.636,300L259.091,300L254.545,300L250,300L245.455,300L240.909,300L236.364,300L231.818,300L227.273,300L222.727,300L218.182,300L213.636,300L209.091,300L204.545,300L200,300L195.455,300L190.909,300L186.364,300L181.818,300L177.273,300L172.727,300L168.182,300L163.636,300L159.091,300L154.545,300L150,300L145.455,300L140.909,300L136.364,300L131.818,300L127.273,300L122.727,300L118.182,300L113.636,300L109.091,300L104.545,300L100,300L95.455,300L90.909,300L86.364,300L81.818,300L77.273,300L72.727,300L68.182,300L63.636,300L59.091,300L54.545,300L50,300L45.455,300L40.909,300L36.364,300L31.818,300L27.273,300L22.727,300L18.182,300L13.636,300L9.091,300L4.545,300L0,300Z" fill="#f58518"/></g></g><path class="foreground" aria-hidden="true" d="" display="none"/></g></g><g class="mark-group role-legend" role="graphics-symbol" aria-roledescription="legend" aria-label="Symbol legend titled 'Repository' for fill color with 2 values: justdavis-family/github-analytics-data, justdavis-family/justdavis"><g transform="translate(818,0)"><path class="background" aria-hidden="true" d="M0,0h176v40h-176Z" pointer-events="none"/><g><g class="mark-group role-legend-entry"><g transform="translate(0,16)"><path class="background" aria-hidden="true" d="M0,0h0v0h0Z" pointer-events="none"/><g><g class="mark-group role-scope" role="graphics-object" aria-roledescription="group mark container"><g transform="translate(0,0)"><path class="background" aria-hidden="true" d="M0,0h176v11h-176Z" pointer-events="none" opacity="1"/><g><g class="mark-symbol role-legend-symbol" pointer-events="none"><path transform="translate(6,6)" d="M5,0A5,5,0,1,1,-5,0A5,5,0,1,1,5,0" fill="#4c78a8" stroke-width="1.5" opacity="1"/></g><g class="mark-text role-legend-label" pointer-events="none"><text text-anchor="start" transform="translate(16,9)" font-family="sans-serif" font-size="10px" fill="#000" opacity="1">justdavis-family/github-analytics-d…</text></g></g><path class="foreground" aria-hidden="true" d="" pointer-events="none" display="none"/></g><g transform="translate(0,13)"><path class="background" aria-hidden="true" d="M0,0h176v11h-176Z" pointer-events="none" opacity="1"/><g><g class="mark-symbol role-legend-symbol" pointer-events="none"><path transform="translate(6,6)" d="M5,0A5,5,0,1,1,-5,0A5,5,0,1,1,5,0" fill="#f58518" stroke-width="1.5" opacity="1"/></g><g class="mark-text role-legend-label" pointer-events="none"><text text-anchor="start" transform="translate(16,9)" font-family="sans-serif" font-size="10px" fill="#000" opacity="1">justdavis-family/justdavis</text></g></g><path class="foreground" aria-hidden="true" d="" pointer-events="none" display="none"/></g></g></g><path class="foreground" aria-hidden="true" d="" pointer-events="none" display="none"/></g></g><g class="mark-text role-legend-title" pointer-events="none"><text text-anchor="start" transform="translate(0,9)" font-family="sans-serif" font-size="11px" font-weight="bold" fill="#000" opacity="1">Repository</text></g></g><path class="foreground" aria-hidden="true" d="" pointer-events="none" display="none"/></g></g><g class="mark-group role-title"><g transform="translate(400,-22)"><path class="background" aria-hidden="true" d="M0,0h0v0h0Z" pointer-events="none"/><g><g class="mark-text role-title-text" role="graphics-symbol" aria-roledescription="title" aria-label="Title text 'Unique Visitors per Day'" pointer-events="none"><text text-anchor="middle" transform="translate(0,10)" font-family="sans-serif" font-size="13px" font-weight="bold" fill="#000" opacity="1">Unique Visitors per Day</text></g></g><path class="foreground" aria-hidden="true" d="" pointer-events="none" display="none"/></g></g></g><path class="foreground" aria-hidden="true" d="" display="none"/></g></g></g></svg>