<svg xmlns="http://www.w3.org/2000/svg" xmlns:xlink="http://www.w3.org/1999/xlink" version="1.1" class="marks" width="1043" height="359" viewBox="0 0 1043 359"><rect width="1043" height="359" fill="white"/><g fill="none" stroke-miterlimit="10" transform="translate(44,22)"><g class="mark-group role-frame root" role="graphics-object" aria-roledescription="group mark container"><g transform="translate(0,0)"><path class="background" aria-hidden="true" d="M0.5,0.5h800v300h-800Z" stroke="#ddd"/><g><g class="mark-group role-axis" aria-hidden="true"><g transform="translate(0.5,300.5)"><path class="background" aria-hidden="true" d="M0,0h0v0h0Z" pointer-events="none"/><g><g class="mark-rule role-axis-grid" pointer-events="none"><line transform="translate(53,-300)" x2="0" y2="300" stroke="#ddd" stroke-width="1" opacity="1"/><line transform="translate(116,-300)" x2="0" y2="300" stroke="#ddd" stroke-width="1" opacity="1"/><line transform="translate(178,-300)" x2="0" y2="300" stroke="#ddd" stroke-width="1" opacity="1"/><line transform="translate(240,-300)" x2="0" y2="300" stroke="#ddd" stroke-width="1" opacity="1"/><line transform="translate(302,-300)" x2="0" y2="300" stroke="#ddd" stroke-width="1" opacity="1"/><line transform="translate(364,-300)" x2="0" y2="300" stroke="#ddd" stroke-width="1" opacity="1"/><line transform="translate(427,-300)" x2="0" y2="300" stroke="#ddd" stroke-width="1" opacity="1"/><line transform="translate(489,-300)" x2="0" y2="300" stroke="#ddd" stroke-width="1" opacity="1"/><line transform="translate(551,-300)" x2="0" y2="300" stroke="#ddd" stroke-width="1" opacity="1"/><line transform="translate(613,-300)" x2="0" y2="300" stroke="#ddd" stroke-width="1" opacity="1"/><line transform="translate(676,-300)" x2="0" y2="300" stroke="#ddd" stroke-width="1" opacity="1"/><line transform="translate(738,-300)" x2="0" y2="300" stroke="#ddd" stroke-width="1" opacity="1"/><line transform="translate(800,-300)" x2="0" y2="300" stroke="#ddd" stroke-width="1" opacity="1"/></g></g><path class="foreground" aria-hidden="true" d="" pointer-events="none" display="none"/></g></g><g class="mark-group role-axis" aria-hidden="true"><g transform="translate(0.5,0.5)"><path class="background" aria-hidden="true" d="M0,0h0v0h0Z" pointer-events="none"/><g><g class="mark-rule role-axis-grid" pointer-events="none"><line transform="translate(0,300)" x2="800" y2="0" stroke="#ddd" stroke-width="1" opacity="1"/><line transform="translate(0,254)" x2="800" y2="0" stroke="#ddd" stroke-width="1" opacity="1"/><line transform="translate(0,208)" x2="800" y2="0" stroke="#ddd" stroke-width="1" opacity="1"/><line transform="translate(0,162)" x2="800" y2="0" stroke="#ddd" stroke-width="1" opacity="1"/><line transform="translate(0,115)" x2="800" y2="0" stroke="#ddd" stroke-width="1" opacity="1"/><line transform="translate(0,69)" x2="800" y2="0" stroke="#ddd" stroke-width="1" opacity="1"/><line transform="translate(0,23)" x2="800" y2="0" stroke="#ddd" stroke-width="1" opacity="1"/></g></g><path class="foreground" aria-hidden="true" d="" pointer-events="none" display="none"/></g></g><g class="mark-group role-axis" role="graphics-symbol" aria-roledescription="axis" aria-label="X-axis titled 'Date' for a time scale with values from Monday, 23 March 2026, 12:00:00 AM to Sunday, 21 June 2026, 12:00:00 AM"><g transform="translate(0.5,300.5)"><path class="background" aria-hidden="true" d="M0,0h0v0h0Z" pointer-events="none"/><g><g class="mark-rule role-axis-tick" pointer-events="none"><line transform="translate(53,0)" x2="0" y2="5" stroke="#888" stroke-width="1" opacity="1"/><line transform="translate(116,0)" x2="0" y2="5" stroke="#888" stroke-width="1" opacity="1"/><line transform="translate(178,0)" x2="0" y2="5" stroke="#888" stroke-width="1" opacity="1"/><line transform="translate(240,0)" x2="0" y2="5" stroke="#888" stroke-width="1" opacity="1"/><line transform="translate(302,0)" x2="0" y2="5" stroke="#888" stroke-width="1" opacity="1"/><line transform="translate(364,0)" x2="0" y2="5" stroke="#888" stroke-width="1" opacity="1"/><line transform="translate(427,0)" x2="0" y2="5" stroke="#888" stroke-width="1" opacity="1"/><line transform="translate(489,0)" x2="0" y2="5" stroke="#888" stroke-width="1" opacity="1"/><line transform="translate(551,0)" x2="0" y2="5" stroke="#888" stroke-width="1" opacity="1"/><line transform="translate(613,0)" x2="0" y2="5" stroke="#888" stroke-width="1" opacity="1"/><line transform="translate(676,0)" x2="0" y2="5" stroke="#888" stroke-width="1" opacity="1"/><line transform="translate(738,0)" x2="0" y2="5" stroke="#888" stroke-width="1" opacity="1"/><line transform="translate(800,0)" x2="0" y2="5" stroke="#888" stroke-width="1" opacity="1"/></g><g class="mark-text role-axis-label" pointer-events="none"><text text-anchor="middle" transform="translate(53.333333333333336,15)" font-family="sans-serif" font-size="10px" fill="#000" opacity="1">Mar 29</text><text text-anchor="middle" transform="translate(115.55555555555554,15)" font-family="sans-serif" font-size="10px" fill="#000" opacity="1">Apr 05</text><text text-anchor="middle" transform="translate(177.77777777777777,15)" font-family="sans-serif" font-size="10px" fill="#000" opacity="1">Apr 12</text><text text-anchor="middle" transform="translate(240,15)" font-family="sans-serif" font-size="10px" fill="#000" opacity="1">Apr 19</text><text text-anchor="middle" transform="translate(302.22222222222223,15)" font-family="sans-serif" font-size="10px" fill="#000" opacity="1">Apr 26</text><text text-anchor="middle" transform="translate(364.44444444444446,15)" font-family="sans-serif" font-size="10px" fill="#000" opacity="1">May 03</text><text text-anchor="middle" transform="translate(426.6666666666667,15)" font-family="sans-serif" font-size="10px" fill="#000" opacity="1">May 10</text><text text-anchor="middle" transform="translate(488.8888888888889,15)" font-family="sans-serif" font-size="10px" fill="#000" opacity="1">May 17</text><text text-anchor="middle" transform="translate(551.1111111111111,15)" font-family="sans-serif" font-size="10px" fill="#000" opacity="1">May 24</text><text text-anchor="middle" transform="translate(613.3333333333334,15)" font-family="sans-serif" font-size="10px" fill="#000" opacity="1">May 31</text><text text-anchor="middle" transform="translate(675.5555555555555,15)" font-family="sans-serif" font-size="10px" fill="#000" opacity="1">Jun 07</text><text text-anchor="middle" transform="translate(737.7777777777778,15)" font-family="sans-serif" font-size="10px" fill="#000" opacity="1">Jun 14</text><text text-anchor="end" transform="translate(800,15)" font-family="sans-serif" font-size="10px" fill="#000" opacity="1">Jun 21</text></g><g class="mark-rule role-axis-domain" pointer-events="none"><line transform="translate(0,0)" x2="800" y2="0" stroke="#888" stroke-width="1" opacity="1"/></g><g class="mark-text role-axis-title" pointer-events="none"><text text-anchor="middle" transform="translate(400,30)" font-family="sans-serif" font-size="11px" font-weight="bold" fill="#000" opacity="1">Date</text></g></g><path class="foreground" aria-hidden="true" d="" pointer-events="none" display="none"/></g></g><g class="mark-group role-axis" role="graphics-symbol" aria-roledescription="axis" aria-label="Y-axis titled 'Unique Clones/day' for a linear scale with values from 0 to 130"><g transform="translate(0.5,0.5)"><path class="background" aria-hidden="true" d="M0,0h0v0h0Z" pointer-events="none"/><g><g class="mark-rule role-axis-tick" pointer-events="none"><line transform="translate(0,300)" x2="-5" y2="0" stroke="#888" stroke-width="1" opacity="1"/><line transform="translate(0,254)" x2="-5" y2="0" stroke="#888" stroke-width="1" opacity="1"/><line transform="translate(0,208)" x2="-5" y2="0" stroke="#888" stroke-width="1" opacity="1"/><line transform="translate(0,162)" x2="-5" y2="0" stroke="#888" stroke-width="1" opacity="1"/><line transform="translate(0,115)" x2="-5" y2="0" stroke="#888" stroke-width="1" opacity="1"/><line transform="translate(0,69)" x2="-5" y2="0" stroke="#888" stroke-width="1" opacity="1"/><line transform="translate(0,23)" x2="-5" y2="0" stroke="#888" stroke-width="1" opacity="1"/></g><g class="mark-text role-axis-label" pointer-events="none"><text text-anchor="end" transform="translate(-7,303)" font-family="sans-serif" font-size="10px" fill="#000" opacity="1">0</text><text text-anchor="end" transform="translate(-7,256.8461538461538)" font-family="sans-serif" font-size="10px" fill="#000" opacity="1">20</text><text text-anchor="end" transform="translate(-7,210.69230769230768)" font-family="sans-serif" font-size="10px" fill="#000" opacity="1">40</text><text text-anchor="end" transform="translate(-7,164.53846153846152)" font-family="sans-serif" font-size="10px" fill="#000" opacity="1">60</text><text text-anchor="end" transform="translate(-7,118.38461538461537)" font-family="sans-serif" font-size="10px" fill="#000" opacity="1">80</text><text text-anchor="end" transform="translate(-7,72.23076923076921)" font-family="sans-serif" font-size="10px" fill="#000" opacity="1">100</text><text text-anchor="end" transform="translate(-7,26.076923076923062)" font-family="sans-serif" font-size="10px" fill="#000" opacity="1">120</text></g><g class="mark-rule role-axis-domain" pointer-events="none"><line transform="translate(0,300)" x2="0" y2="-300" stroke="#888" stroke-width="1" opacity="1"/></g><g class="mark-text role-axis-title" pointer-events="none"><text text-anchor="middle" transform="translate(-27.6845703125,150) rotate(-90) translate(0,-2)" font-family="sans-serif" font-size="11px" font-weight="bold" fill="#000" opacity="1">Unique Clones/day</text></g></g><path class="foreground" aria-hidden="true" d="" pointer-events="none" display="none"/></g></g><g class="mark-group role-scope pathgroup" role="graphics-object" aria-roledescription="group mark container"><g transform="translate(0,0)"><path class="background" aria-hidden="true" d="M0,0h800v300h-800Z"/><g><g class="mark-area role-mark marks" role="graphics-object" aria-roledescription="area mark container"><path aria-label="Date: Mar 23, 2026; Unique Clones/day: 0; Repository: justdavis-family/github-analytics-data" role="graphics-symbol" aria-roledescription="area mark" d="M0,297.692L8.889,300L17.778,300L26.667,300L35.556,300L44.444,300L53.333,300L62.222,300L71.111,300L80,297.692L88.889,300L97.778,297.692L106.667,120L115.556,230.769L124.444,258.462L133.333,124.615L142.222,283.846L151.111,274.615L160,279.231L168.889,274.615L177.778,235.385L186.667,4.615L195.556,272.308L204.444,260.769L213.333,270L222.222,281.538L231.111,270L240,272.308L248.889,265.385L257.778,263.077L266.667,272.308L275.556,219.231L284.444,258.462L293.333,219.231L302.222,270L311.111,281.538L320,274.615L328.889,267.692L337.778,267.692L346.667,230.769L355.556,267.692L364.444,276.923L373.333,279.231L382.222,276.923L391.111,290.769L400,270L408.889,274.615L417.778,223.846L426.667,267.692L435.556,288.462L444.444,230.769L453.333,249.231L462.222,272.308L471.111,267.692L480,267.692L488.889,228.462L497.778,265.385L506.667,286.154L515.556,263.077L524.444,279.231L533.333,270L542.222,267.692L551.111,103.846L560,92.308L568.889,73.846L577.778,265.385L586.667,290.769L595.556,276.923L604.444,228.462L613.333,281.538L622.222,274.615L631.111,276.923L640,228.462L648.889,286.154L657.778,274.615L666.667,244.615L675.556,276.923L684.444,258.462L693.333,270L702.222,295.385L711.111,272.308L720,272.308L728.889,276.923L737.778,270L746.667,281.538L755.556,272.308L764.444,279.231L773.333,272.308L782.222,246.923L791.111,260.769L800,281.538L800,297.692L791.111,293.077L782.222,263.077L773.333,290.769L764.444,288.462L755.556,290.769L746.667,293.077L737.778,295.385L728.889,290.769L720,293.077L711.111,290.769L702.222,297.692L693.333,286.154L684.444,270L675.556,293.077L666.667,267.692L657.778,281.538L648.889,297.692L640,244.615L631.111,295.385L622.222,295.385L613.333,293.077L604.444,244.615L595.556,297.692L586.667,295.385L577.778,276.923L568.889,90L560,106.154L551.111,120L542.222,295.385L533.333,297.692L524.444,295.385L515.556,276.923L506.667,295.385L497.778,279.231L488.889,256.154L480,297.692L471.111,293.077L462.222,290.769L453.333,265.385L444.444,253.846L435.556,295.385L426.667,293.077L417.778,240L408.889,295.385L400,293.077L391.111,297.692L382.222,297.692L373.333,297.692L364.444,295.385L355.556,286.154L346.667,249.231L337.778,283.846L328.889,295.385L320,297.692L311.111,297.692L302.222,297.692L293.333,258.462L284.444,293.077L275.556,246.923L266.667,297.692L257.778,295.385L248.889,293.077L240,297.692L231.111,297.692L222.222,293.077L213.333,295.385L204.444,290.769L195.556,297.692L186.667,16.154L177.778,263.077L168.889,293.077L160,295.385L151.111,290.769L142.222,295.385L133.333,184.615L124.444,258.462L115.556,230.769L106.667,120L97.778,297.692L88.889,300L80,297.692L71.111,300L62.222,300L53.333,300L44.444,300L35.556,300L26.667,300L17.778,300L8.889,300L0,297.692Z" fill="#4c78a8"/></g></g><path class="foreground" aria-hidden="true" d="" display="none"/></g><g transform="translate(0,0)"><path class="background" aria-hidden="true" d="M0,0h800v300h-800Z"/><g><g class="mark-area role-mark marks" role="graphics-object" aria-roledescription="area mark container"><path aria-label="Date: Mar 23, 2026; Unique Clones/day: 1; Repository: justdavis-family/justdavis" role="graphics-symbol" aria-roledescription="area mark" d="M0,297.692L8.889,300L17.778,300L26.667,300L35.556,300L44.444,300L53.333,300L62.222,300L71.111,300L80,297.692L88.889,300L97.778,297.692L106.667,120L115.556,230.769L124.444,258.462L133.333,184.615L142.222,295.385L151.111,290.769L160,295.385L168.889,293.077L177.778,263.077L186.667,16.154L195.556,297.692L204.444,290.769L213.333,295.385L222.222,293.077L231.111,297.692L240,297.692L248.889,293.077L257.778,295.385L266.667,297.692L275.556,246.923L284.444,293.077L293.333,258.462L302.222,297.692L311.111,297.692L320,297.692L328.889,295.385L337.778,283.846L346.667,249.231L355.556,286.154L364.444,295.385L373.333,297.692L382.222,297.692L391.111,297.692L400,293.077L408.889,295.385L417.778,240L426.667,293.077L435.556,295.385L444.444,253.846L453.333,265.385L462.222,290.769L471.111,293.077L480,297.692L488.889,256.154L497.778,279.231L506.667,295.385L515.556,276.923L524.444,295.385L533.333,297.692L542.222,295.385L551.111,120L560,106.154L568.889,90L577.778,276.923L586.667,295.385L595.556,297.692L604.444,244.615L613.333,293.077L622.222,295.385L631.111,295.385L640,244.615L648.889,297.692L657.778,281.538L666.667,267.692L675.556,293.077L684.444,270L693.333,286.154L702.222,297.692L711.111,290.769L720,293.077L728.889,290.769L737.778,295.385L746.667,293.077L755.556,290.769L764.444,288.462L773.333,290.769L782.222,263.077L791.111,293.077L800,297.692L800,300L791.111,300L782.222,300L773.333,300L764.444,300L755.556,300L746.667,300L737.778,300L728.889,300L720,300L711.111,300L702.222,300L693.333,300L684.444,300L675.556,300L666.667,300L657.778,300L648.889,300L640,300L631.111,300L622.222,300L613.333,300L604.444,300L595.556,300L586.667,300L577.778,300L568.889,300L560,300L551.111,300L542.222,300L533.333,300L524.444,300L515.556,300L506.667,300L497.778,300L488.889,300L480,300L471.111,300L462.222,300L453.333,300L444.444,300L435.556,300L426.667,300L417.778,300L408.889,300L400,300L391.111,300L382.222,300L373.333,300L364.444,300L355.556,300L346.667,300L337.778,300L328.889,300L320,300L311.111,300L302.222,300L293.333,300L284.444,300L275.556,300L266.667,300L257.778,300L248.889,300L240,300L231.111,300L222.222,300L213.333,300L204.444,300L195.556,300L186.667,300L177.778,300L168.889,300L160,300L151.111,300L142.222,300L133.333,300L124.444,300L115.556,300L106.667,300L97.778,300L88.889,300L80,300L71.111,300L62.222,300L53.333,300L44.444,300L35.556,300L26.667,300L17.778,300L8.889,300L0,300Z" fill="#f58518"/></g></g><path class="foreground" aria-hidden="true" d="" display="none"/></g></g><g class="mark-group role-legend" role="graphics-symbol" aria-roledescription="legend" aria-label="Symbol legend titled 'Repository' for fill color with 2 values: justdavis-family/github-analytics-data, justdavis-family/justdavis"><g transform="translate(818,0)"><path class="background" aria-hidden="true" d="M0,0h176v40h-176Z" pointer-events="none"/><g><g class="mark-group role-legend-entry"><g transform="translate(0,16)"><path class="background" aria-hidden="true" d="M0,0h0v0h0Z" pointer-events="none"/><g><g class="mark-group role-scope" role="graphics-object" aria-roledescription="group mark container"><g transform="translate(0,0)"><path class="background" aria-hidden="true" d="M0,0h176v11h-176Z" pointer-events="none" opacity="1"/><g><g class="mark-symbol role-legend-symbol" pointer-events="none"><path transform="translate(6,6)" d="M5,0A5,5,0,1,1,-5,0A5,5,0,1,1,5,0" fill="#4c78a8" stroke-width="1.5" opacity="1"/></g><g class="mark-text role-legend-label" pointer-events="none"><text text-anchor="start" transform="translate(16,9)" font-family="sans-serif" font-size="10px" fill="#000" opacity="1">justdavis-family/github-analytics-d…</text></g></g><path class="foreground" aria-hidden="true" d="" pointer-events="none" display="none"/></g><g transform="translate(0,13)"><path class="background" aria-hidden="true" d="M0,0h176v11h-176Z" pointer-events="none" opacity="1"/><g><g class="mark-symbol role-legend-symbol" pointer-events="none"><path transform="translate(6,6)" d="M5,0A5,5,0,1,1,-5,0A5,5,0,1,1,5,0" fill="#f58518" stroke-width="1.5" opacity="1"/></g><g class="mark-text role-legend-label" pointer-events="none"><text text-anchor="start" transform="translate(16,9)" font-family="sans-serif" font-size="10px" fill="#000" opacity="1">justdavis-family/justdavis</text></g></g><path class="foreground" aria-hidden="true" d="" pointer-events="none" display="none"/></g></g></g><path class="foreground" aria-hidden="true" d="" pointer-events="none" display="none"/></g></g><g class="mark-text role-legend-title" pointer-events="none"><text text-anchor="start" transform="translate(0,9)" font-family="sans-serif" font-size="11px" font-weight="bold" fill="#000" opacity="1">Repository</text></g></g><path class="foreground" aria-hidden="true" d="" pointer-events="none" display="none"/></g></g><g class="mark-group role-title"><g transform="translate(400,-17)"><path class="background" aria-hidden="true" d="M0,0h0v0h0Z" pointer-events="none"/><g><g class="mark-text role-title-text" role="graphics-symbol" aria-roledescription="title" aria-label="Title text 'Unique Clones per Day'" pointer-events="none"><text text-anchor="middle" transform="translate(0,10)" font-family="sans-serif" font-size="13px" font-weight="bold" fill="#000" opacity="1">Unique Clones per Day</text></g></g><path class="foreground" aria-hidden="true" d="" pointer-events="none" display="none"/></g></g></g><path class="foreground" aria-hidden="true" d="" display="none"/></g></g></g></svg>