<svg xmlns="http://www.w3.org/2000/svg" xmlns:xlink="http://www.w3.org/1999/xlink" version="1.1" class="marks" width="1043" height="359" viewBox="0 0 1043 359"><rect width="1043" height="359" fill="white"/><g fill="none" stroke-miterlimit="10" transform="translate(44,22)"><g class="mark-group role-frame root" role="graphics-object" aria-roledescription="group mark container"><g transform="translate(0,0)"><path class="background" aria-hidden="true" d="M0.5,0.5h800v300h-800Z" stroke="#ddd"/><g><g class="mark-group role-axis" aria-hidden="true"><g transform="translate(0.5,300.5)"><path class="background" aria-hidden="true" d="M0,0h0v0h0Z" pointer-events="none"/><g><g class="mark-rule role-axis-grid" pointer-events="none"><line transform="translate(0,-300)" x2="0" y2="300" stroke="#ddd" stroke-width="1" opacity="1"/><line transform="translate(29,-300)" x2="0" y2="300" stroke="#ddd" stroke-width="1" opacity="1"/><line transform="translate(57,-300)" x2="0" y2="300" stroke="#ddd" stroke-width="1" opacity="1"/><line transform="translate(86,-300)" x2="0" y2="300" stroke="#ddd" stroke-width="1" opacity="1"/><line transform="translate(114,-300)" x2="0" y2="300" stroke="#ddd" stroke-width="1" opacity="1"/><line transform="translate(143,-300)" x2="0" y2="300" stroke="#ddd" stroke-width="1" opacity="1"/><line transform="translate(171,-300)" x2="0" y2="300" stroke="#ddd" stroke-width="1" opacity="1"/><line transform="translate(200,-300)" x2="0" y2="300" stroke="#ddd" stroke-width="1" opacity="1"/><line transform="translate(229,-300)" x2="0" y2="300" stroke="#ddd" stroke-width="1" opacity="1"/><line transform="translate(257,-300)" x2="0" y2="300" stroke="#ddd" stroke-width="1" opacity="1"/><line transform="translate(286,-300)" x2="0" y2="300" stroke="#ddd" stroke-width="1" opacity="1"/><line transform="translate(314,-300)" x2="0" y2="300" stroke="#ddd" stroke-width="1" opacity="1"/><line transform="translate(343,-300)" x2="0" y2="300" stroke="#ddd" stroke-width="1" opacity="1"/><line transform="translate(371,-300)" x2="0" y2="300" stroke="#ddd" stroke-width="1" opacity="1"/><line transform="translate(400,-300)" x2="0" y2="300" stroke="#ddd" stroke-width="1" opacity="1"/><line transform="translate(429,-300)" x2="0" y2="300" stroke="#ddd" stroke-width="1" opacity="1"/><line transform="translate(457,-300)" x2="0" y2="300" stroke="#ddd" stroke-width="1" opacity="1"/><line transform="translate(486,-300)" x2="0" y2="300" stroke="#ddd" stroke-width="1" opacity="1"/><line transform="translate(514,-300)" x2="0" y2="300" stroke="#ddd" stroke-width="1" opacity="1"/><line transform="translate(543,-300)" x2="0" y2="300" stroke="#ddd" stroke-width="1" opacity="1"/><line transform="translate(571,-300)" x2="0" y2="300" stroke="#ddd" stroke-width="1" opacity="1"/><line transform="translate(600,-300)" x2="0" y2="300" stroke="#ddd" stroke-width="1" opacity="1"/><line transform="translate(629,-300)" x2="0" y2="300" stroke="#ddd" stroke-width="1" opacity="1"/><line transform="translate(657,-300)" x2="0" y2="300" stroke="#ddd" stroke-width="1" opacity="1"/><line transform="translate(686,-300)" x2="0" y2="300" stroke="#ddd" stroke-width="1" opacity="1"/><line transform="translate(714,-300)" x2="0" y2="300" stroke="#ddd" stroke-width="1" opacity="1"/><line transform="translate(743,-300)" x2="0" y2="300" stroke="#ddd" stroke-width="1" opacity="1"/><line transform="translate(771,-300)" x2="0" y2="300" stroke="#ddd" stroke-width="1" opacity="1"/><line transform="translate(800,-300)" x2="0" y2="300" stroke="#ddd" stroke-width="1" opacity="1"/></g></g><path class="foreground" aria-hidden="true" d="" pointer-events="none" display="none"/></g></g><g class="mark-group role-axis" aria-hidden="true"><g transform="translate(0.5,0.5)"><path class="background" aria-hidden="true" d="M0,0h0v0h0Z" pointer-events="none"/><g><g class="mark-rule role-axis-grid" pointer-events="none"><line transform="translate(0,300)" x2="800" y2="0" stroke="#ddd" stroke-width="1" opacity="1"/><line transform="translate(0,254)" x2="800" y2="0" stroke="#ddd" stroke-width="1" opacity="1"/><line transform="translate(0,208)" x2="800" y2="0" stroke="#ddd" stroke-width="1" opacity="1"/><line transform="translate(0,162)" x2="800" y2="0" stroke="#ddd" stroke-width="1" opacity="1"/><line transform="translate(0,115)" x2="800" y2="0" stroke="#ddd" stroke-width="1" opacity="1"/><line transform="translate(0,69)" x2="800" y2="0" stroke="#ddd" stroke-width="1" opacity="1"/><line transform="translate(0,23)" x2="800" y2="0" stroke="#ddd" stroke-width="1" opacity="1"/></g></g><path class="foreground" aria-hidden="true" d="" pointer-events="none" display="none"/></g></g><g class="mark-group role-axis" role="graphics-symbol" aria-roledescription="axis" aria-label="X-axis titled 'Date' for a time scale with values from Monday, 23 March 2026, 12:00:00 AM to Monday, 20 April 2026, 12:00:00 AM"><g transform="translate(0.5,300.5)"><path class="background" aria-hidden="true" d="M0,0h0v0h0Z" pointer-events="none"/><g><g class="mark-rule role-axis-tick" pointer-events="none"><line transform="translate(0,0)" x2="0" y2="5" stroke="#888" stroke-width="1" opacity="1"/><line transform="translate(29,0)" x2="0" y2="5" stroke="#888" stroke-width="1" opacity="1"/><line transform="translate(57,0)" x2="0" y2="5" stroke="#888" stroke-width="1" opacity="1"/><line transform="translate(86,0)" x2="0" y2="5" stroke="#888" stroke-width="1" opacity="1"/><line transform="translate(114,0)" x2="0" y2="5" stroke="#888" stroke-width="1" opacity="1"/><line transform="translate(143,0)" x2="0" y2="5" stroke="#888" stroke-width="1" opacity="1"/><line transform="translate(171,0)" x2="0" y2="5" stroke="#888" stroke-width="1" opacity="1"/><line transform="translate(200,0)" x2="0" y2="5" stroke="#888" stroke-width="1" opacity="1"/><line transform="translate(229,0)" x2="0" y2="5" stroke="#888" stroke-width="1" opacity="1"/><line transform="translate(257,0)" x2="0" y2="5" stroke="#888" stroke-width="1" opacity="1"/><line transform="translate(286,0)" x2="0" y2="5" stroke="#888" stroke-width="1" opacity="1"/><line transform="translate(314,0)" x2="0" y2="5" stroke="#888" stroke-width="1" opacity="1"/><line transform="translate(343,0)" x2="0" y2="5" stroke="#888" stroke-width="1" opacity="1"/><line transform="translate(371,0)" x2="0" y2="5" stroke="#888" stroke-width="1" opacity="1"/><line transform="translate(400,0)" x2="0" y2="5" stroke="#888" stroke-width="1" opacity="1"/><line transform="translate(429,0)" x2="0" y2="5" stroke="#888" stroke-width="1" opacity="1"/><line transform="translate(457,0)" x2="0" y2="5" stroke="#888" stroke-width="1" opacity="1"/><line transform="translate(486,0)" x2="0" y2="5" stroke="#888" stroke-width="1" opacity="1"/><line transform="translate(514,0)" x2="0" y2="5" stroke="#888" stroke-width="1" opacity="1"/><line transform="translate(543,0)" x2="0" y2="5" stroke="#888" stroke-width="1" opacity="1"/><line transform="translate(571,0)" x2="0" y2="5" stroke="#888" stroke-width="1" opacity="1"/><line transform="translate(600,0)" x2="0" y2="5" stroke="#888" stroke-width="1" opacity="1"/><line transform="translate(629,0)" x2="0" y2="5" stroke="#888" stroke-width="1" opacity="1"/><line transform="translate(657,0)" x2="0" y2="5" stroke="#888" stroke-width="1" opacity="1"/><line transform="translate(686,0)" x2="0" y2="5" stroke="#888" stroke-width="1" opacity="1"/><line transform="translate(714,0)" x2="0" y2="5" stroke="#888" stroke-width="1" opacity="1"/><line transform="translate(743,0)" x2="0" y2="5" stroke="#888" stroke-width="1" opacity="1"/><line transform="translate(771,0)" x2="0" y2="5" stroke="#888" stroke-width="1" opacity="1"/><line transform="translate(800,0)" x2="0" y2="5" stroke="#888" stroke-width="1" opacity="1"/></g><g class="mark-text role-axis-label" pointer-events="none"><text text-anchor="start" transform="translate(0,15)" font-family="sans-serif" font-size="10px" fill="#000" opacity="1">Mon 23</text><text text-anchor="middle" transform="translate(28.57142857142857,15)" font-family="sans-serif" font-size="10px" fill="#000" opacity="0">Tue 24</text><text text-anchor="middle" transform="translate(57.14285714285714,15)" font-family="sans-serif" font-size="10px" fill="#000" opacity="1">Wed 25</text><text text-anchor="middle" transform="translate(85.71428571428571,15)" font-family="sans-serif" font-size="10px" fill="#000" opacity="0">Thu 26</text><text text-anchor="middle" transform="translate(114.28571428571428,15)" font-family="sans-serif" font-size="10px" fill="#000" opacity="1">Fri 27</text><text text-anchor="middle" transform="translate(142.85714285714286,15)" font-family="sans-serif" font-size="10px" fill="#000" opacity="0">Sat 28</text><text text-anchor="middle" transform="translate(171.42857142857142,15)" font-family="sans-serif" font-size="10px" fill="#000" opacity="1">Mar 29</text><text text-anchor="middle" transform="translate(200,15)" font-family="sans-serif" font-size="10px" fill="#000" opacity="0">Mon 30</text><text text-anchor="middle" transform="translate(228.57142857142856,15)" font-family="sans-serif" font-size="10px" fill="#000" opacity="1">Tue 31</text><text text-anchor="middle" transform="translate(257.14285714285717,15)" font-family="sans-serif" font-size="10px" fill="#000" opacity="0">April</text><text text-anchor="middle" transform="translate(285.7142857142857,15)" font-family="sans-serif" font-size="10px" fill="#000" opacity="1">Thu 02</text><text text-anchor="middle" transform="translate(314.2857142857143,15)" font-family="sans-serif" font-size="10px" fill="#000" opacity="0">Fri 03</text><text text-anchor="middle" transform="translate(342.85714285714283,15)" font-family="sans-serif" font-size="10px" fill="#000" opacity="1">Sat 04</text><text text-anchor="middle" transform="translate(371.42857142857144,15)" font-family="sans-serif" font-size="10px" fill="#000" opacity="0">Apr 05</text><text text-anchor="middle" transform="translate(400,15)" font-family="sans-serif" font-size="10px" fill="#000" opacity="1">Mon 06</text><text text-anchor="middle" transform="translate(428.57142857142856,15)" font-family="sans-serif" font-size="10px" fill="#000" opacity="0">Tue 07</text><text text-anchor="middle" transform="translate(457.1428571428571,15)" font-family="sans-serif" font-size="10px" fill="#000" opacity="1">Wed 08</text><text text-anchor="middle" transform="translate(485.71428571428567,15)" font-family="sans-serif" font-size="10px" fill="#000" opacity="0">Thu 09</text><text text-anchor="middle" transform="translate(514.2857142857143,15)" font-family="sans-serif" font-size="10px" fill="#000" opacity="1">Fri 10</text><text text-anchor="middle" transform="translate(542.8571428571429,15)" font-family="sans-serif" font-size="10px" fill="#000" opacity="0">Sat 11</text><text text-anchor="middle" transform="translate(571.4285714285714,15)" font-family="sans-serif" font-size="10px" fill="#000" opacity="1">Apr 12</text><text text-anchor="middle" transform="translate(600,15)" font-family="sans-serif" font-size="10px" fill="#000" opacity="0">Mon 13</text><text text-anchor="middle" transform="translate(628.5714285714286,15)" font-family="sans-serif" font-size="10px" fill="#000" opacity="1">Tue 14</text><text text-anchor="middle" transform="translate(657.1428571428571,15)" font-family="sans-serif" font-size="10px" fill="#000" opacity="0">Wed 15</text><text text-anchor="middle" transform="translate(685.7142857142857,15)" font-family="sans-serif" font-size="10px" fill="#000" opacity="1">Thu 16</text><text text-anchor="middle" transform="translate(714.2857142857143,15)" font-family="sans-serif" font-size="10px" fill="#000" opacity="0">Fri 17</text><text text-anchor="middle" transform="translate(742.8571428571429,15)" font-family="sans-serif" font-size="10px" fill="#000" opacity="1">Sat 18</text><text text-anchor="middle" transform="translate(771.4285714285714,15)" font-family="sans-serif" font-size="10px" fill="#000" opacity="0">Apr 19</text><text text-anchor="end" transform="translate(800,15)" font-family="sans-serif" font-size="10px" fill="#000" opacity="1">Mon 20</text></g><g class="mark-rule role-axis-domain" pointer-events="none"><line transform="translate(0,0)" x2="800" y2="0" stroke="#888" stroke-width="1" opacity="1"/></g><g class="mark-text role-axis-title" pointer-events="none"><text text-anchor="middle" transform="translate(400,30)" font-family="sans-serif" font-size="11px" font-weight="bold" fill="#000" opacity="1">Date</text></g></g><path class="foreground" aria-hidden="true" d="" pointer-events="none" display="none"/></g></g><g class="mark-group role-axis" role="graphics-symbol" aria-roledescription="axis" aria-label="Y-axis titled 'Unique Clones/day' for a linear scale with values from 0 to 130"><g transform="translate(0.5,0.5)"><path class="background" aria-hidden="true" d="M0,0h0v0h0Z" pointer-events="none"/><g><g class="mark-rule role-axis-tick" pointer-events="none"><line transform="translate(0,300)" x2="-5" y2="0" stroke="#888" stroke-width="1" opacity="1"/><line transform="translate(0,254)" x2="-5" y2="0" stroke="#888" stroke-width="1" opacity="1"/><line transform="translate(0,208)" x2="-5" y2="0" stroke="#888" stroke-width="1" opacity="1"/><line transform="translate(0,162)" x2="-5" y2="0" stroke="#888" stroke-width="1" opacity="1"/><line transform="translate(0,115)" x2="-5" y2="0" stroke="#888" stroke-width="1" opacity="1"/><line transform="translate(0,69)" x2="-5" y2="0" stroke="#888" stroke-width="1" opacity="1"/><line transform="translate(0,23)" x2="-5" y2="0" stroke="#888" stroke-width="1" opacity="1"/></g><g class="mark-text role-axis-label" pointer-events="none"><text text-anchor="end" transform="translate(-7,303)" font-family="sans-serif" font-size="10px" fill="#000" opacity="1">0</text><text text-anchor="end" transform="translate(-7,256.8461538461538)" font-family="sans-serif" font-size="10px" fill="#000" opacity="1">20</text><text text-anchor="end" transform="translate(-7,210.69230769230768)" font-family="sans-serif" font-size="10px" fill="#000" opacity="1">40</text><text text-anchor="end" transform="translate(-7,164.53846153846152)" font-family="sans-serif" font-size="10px" fill="#000" opacity="1">60</text><text text-anchor="end" transform="translate(-7,118.38461538461537)" font-family="sans-serif" font-size="10px" fill="#000" opacity="1">80</text><text text-anchor="end" transform="translate(-7,72.23076923076921)" font-family="sans-serif" font-size="10px" fill="#000" opacity="1">100</text><text text-anchor="end" transform="translate(-7,26.076923076923062)" font-family="sans-serif" font-size="10px" fill="#000" opacity="1">120</text></g><g class="mark-rule role-axis-domain" pointer-events="none"><line transform="translate(0,300)" x2="0" y2="-300" stroke="#888" stroke-width="1" opacity="1"/></g><g class="mark-text role-axis-title" pointer-events="none"><text text-anchor="middle" transform="translate(-27.6845703125,150) rotate(-90) translate(0,-2)" font-family="sans-serif" font-size="11px" font-weight="bold" fill="#000" opacity="1">Unique Clones/day</text></g></g><path class="foreground" aria-hidden="true" d="" pointer-events="none" display="none"/></g></g><g class="mark-group role-scope pathgroup" role="graphics-object" aria-roledescription="group mark container"><g transform="translate(0,0)"><path class="background" aria-hidden="true" d="M0,0h800v300h-800Z"/><g><g class="mark-area role-mark marks" role="graphics-object" aria-roledescription="area mark container"><path aria-label="Date: Mar 23, 2026; Unique Clones/day: 0; Repository: justdavis-family/github-analytics-data" role="graphics-symbol" aria-roledescription="area mark" d="M0,297.692L28.571,300L57.143,300L85.714,300L114.286,300L142.857,300L171.429,300L200,300L228.571,300L257.143,297.692L285.714,300L314.286,297.692L342.857,120L371.429,230.769L400,258.462L428.571,124.615L457.143,283.846L485.714,274.615L514.286,279.231L542.857,274.615L571.429,235.385L600,4.615L628.571,272.308L657.143,260.769L685.714,270L714.286,281.538L742.857,270L771.429,272.308L800,265.385L800,293.077L771.429,297.692L742.857,297.692L714.286,293.077L685.714,295.385L657.143,290.769L628.571,297.692L600,16.154L571.429,263.077L542.857,293.077L514.286,295.385L485.714,290.769L457.143,295.385L428.571,184.615L400,258.462L371.429,230.769L342.857,120L314.286,297.692L285.714,300L257.143,297.692L228.571,300L200,300L171.429,300L142.857,300L114.286,300L85.714,300L57.143,300L28.571,300L0,297.692Z" fill="#4c78a8"/></g></g><path class="foreground" aria-hidden="true" d="" display="none"/></g><g transform="translate(0,0)"><path class="background" aria-hidden="true" d="M0,0h800v300h-800Z"/><g><g class="mark-area role-mark marks" role="graphics-object" aria-roledescription="area mark container"><path aria-label="Date: Mar 23, 2026; Unique Clones/day: 1; Repository: justdavis-family/justdavis" role="graphics-symbol" aria-roledescription="area mark" d="M0,297.692L28.571,300L57.143,300L85.714,300L114.286,300L142.857,300L171.429,300L200,300L228.571,300L257.143,297.692L285.714,300L314.286,297.692L342.857,120L371.429,230.769L400,258.462L428.571,184.615L457.143,295.385L485.714,290.769L514.286,295.385L542.857,293.077L571.429,263.077L600,16.154L628.571,297.692L657.143,290.769L685.714,295.385L714.286,293.077L742.857,297.692L771.429,297.692L800,293.077L800,300L771.429,300L742.857,300L714.286,300L685.714,300L657.143,300L628.571,300L600,300L571.429,300L542.857,300L514.286,300L485.714,300L457.143,300L428.571,300L400,300L371.429,300L342.857,300L314.286,300L285.714,300L257.143,300L228.571,300L200,300L171.429,300L142.857,300L114.286,300L85.714,300L57.143,300L28.571,300L0,300Z" fill="#f58518"/></g></g><path class="foreground" aria-hidden="true" d="" display="none"/></g></g><g class="mark-group role-legend" role="graphics-symbol" aria-roledescription="legend" aria-label="Symbol legend titled 'Repository' for fill color with 2 values: justdavis-family/github-analytics-data, justdavis-family/justdavis"><g transform="translate(818,0)"><path class="background" aria-hidden="true" d="M0,0h176v40h-176Z" pointer-events="none"/><g><g class="mark-group role-legend-entry"><g transform="translate(0,16)"><path class="background" aria-hidden="true" d="M0,0h0v0h0Z" pointer-events="none"/><g><g class="mark-group role-scope" role="graphics-object" aria-roledescription="group mark container"><g transform="translate(0,0)"><path class="background" aria-hidden="true" d="M0,0h176v11h-176Z" pointer-events="none" opacity="1"/><g><g class="mark-symbol role-legend-symbol" pointer-events="none"><path transform="translate(6,6)" d="M5,0A5,5,0,1,1,-5,0A5,5,0,1,1,5,0" fill="#4c78a8" stroke-width="1.5" opacity="1"/></g><g class="mark-text role-legend-label" pointer-events="none"><text text-anchor="start" transform="translate(16,9)" font-family="sans-serif" font-size="10px" fill="#000" opacity="1">justdavis-family/github-analytics-d…</text></g></g><path class="foreground" aria-hidden="true" d="" pointer-events="none" display="none"/></g><g transform="translate(0,13)"><path class="background" aria-hidden="true" d="M0,0h176v11h-176Z" pointer-events="none" opacity="1"/><g><g class="mark-symbol role-legend-symbol" pointer-events="none"><path transform="translate(6,6)" d="M5,0A5,5,0,1,1,-5,0A5,5,0,1,1,5,0" fill="#f58518" stroke-width="1.5" opacity="1"/></g><g class="mark-text role-legend-label" pointer-events="none"><text text-anchor="start" transform="translate(16,9)" font-family="sans-serif" font-size="10px" fill="#000" opacity="1">justdavis-family/justdavis</text></g></g><path class="foreground" aria-hidden="true" d="" pointer-events="none" display="none"/></g></g></g><path class="foreground" aria-hidden="true" d="" pointer-events="none" display="none"/></g></g><g class="mark-text role-legend-title" pointer-events="none"><text text-anchor="start" transform="translate(0,9)" font-family="sans-serif" font-size="11px" font-weight="bold" fill="#000" opacity="1">Repository</text></g></g><path class="foreground" aria-hidden="true" d="" pointer-events="none" display="none"/></g></g><g class="mark-group role-title"><g transform="translate(400,-17)"><path class="background" aria-hidden="true" d="M0,0h0v0h0Z" pointer-events="none"/><g><g class="mark-text role-title-text" role="graphics-symbol" aria-roledescription="title" aria-label="Title text 'Unique Clones per Day'" pointer-events="none"><text text-anchor="middle" transform="translate(0,10)" font-family="sans-serif" font-size="13px" font-weight="bold" fill="#000" opacity="1">Unique Clones per Day</text></g></g><path class="foreground" aria-hidden="true" d="" pointer-events="none" display="none"/></g></g></g><path class="foreground" aria-hidden="true" d="" display="none"/></g></g></g></svg>