<svg xmlns="http://www.w3.org/2000/svg" xmlns:xlink="http://www.w3.org/1999/xlink" version="1.1" class="marks" width="1040" height="364" viewBox="0 0 1040 364"><rect width="1040" height="364" fill="white"/><g fill="none" stroke-miterlimit="10" transform="translate(41,27)"><g class="mark-group role-frame root" role="graphics-object" aria-roledescription="group mark container"><g transform="translate(0,0)"><path class="background" aria-hidden="true" d="M0.5,0.5h800v300h-800Z" stroke="#ddd"/><g><g class="mark-group role-axis" aria-hidden="true"><g transform="translate(0.5,300.5)"><path class="background" aria-hidden="true" d="M0,0h0v0h0Z" pointer-events="none"/><g><g class="mark-rule role-axis-grid" pointer-events="none"><line transform="translate(0,-300)" x2="0" y2="300" stroke="#ddd" stroke-width="1" opacity="1"/><line transform="translate(55,-300)" x2="0" y2="300" stroke="#ddd" stroke-width="1" opacity="1"/><line transform="translate(110,-300)" x2="0" y2="300" stroke="#ddd" stroke-width="1" opacity="1"/><line transform="translate(166,-300)" x2="0" y2="300" stroke="#ddd" stroke-width="1" opacity="1"/><line transform="translate(221,-300)" x2="0" y2="300" stroke="#ddd" stroke-width="1" opacity="1"/><line transform="translate(248,-300)" x2="0" y2="300" stroke="#ddd" stroke-width="1" opacity="1"/><line transform="translate(303,-300)" x2="0" y2="300" stroke="#ddd" stroke-width="1" opacity="1"/><line transform="translate(359,-300)" x2="0" y2="300" stroke="#ddd" stroke-width="1" opacity="1"/><line transform="translate(414,-300)" x2="0" y2="300" stroke="#ddd" stroke-width="1" opacity="1"/><line transform="translate(469,-300)" x2="0" y2="300" stroke="#ddd" stroke-width="1" opacity="1"/><line transform="translate(524,-300)" x2="0" y2="300" stroke="#ddd" stroke-width="1" opacity="1"/><line transform="translate(579,-300)" x2="0" y2="300" stroke="#ddd" stroke-width="1" opacity="1"/><line transform="translate(634,-300)" x2="0" y2="300" stroke="#ddd" stroke-width="1" opacity="1"/><line transform="translate(690,-300)" x2="0" y2="300" stroke="#ddd" stroke-width="1" opacity="1"/><line transform="translate(745,-300)" x2="0" y2="300" stroke="#ddd" stroke-width="1" opacity="1"/><line transform="translate(800,-300)" x2="0" y2="300" stroke="#ddd" stroke-width="1" opacity="1"/></g></g><path class="foreground" aria-hidden="true" d="" pointer-events="none" display="none"/></g></g><g class="mark-group role-axis" aria-hidden="true"><g transform="translate(0.5,0.5)"><path class="background" aria-hidden="true" d="M0,0h0v0h0Z" pointer-events="none"/><g><g class="mark-rule role-axis-grid" pointer-events="none"><line transform="translate(0,300)" x2="800" y2="0" stroke="#ddd" stroke-width="1" opacity="1"/><line transform="translate(0,270)" x2="800" y2="0" stroke="#ddd" stroke-width="1" opacity="1"/><line transform="translate(0,240)" x2="800" y2="0" stroke="#ddd" stroke-width="1" opacity="1"/><line transform="translate(0,210)" x2="800" y2="0" stroke="#ddd" stroke-width="1" opacity="1"/><line transform="translate(0,180)" x2="800" y2="0" stroke="#ddd" stroke-width="1" opacity="1"/><line transform="translate(0,150)" x2="800" y2="0" stroke="#ddd" stroke-width="1" opacity="1"/><line transform="translate(0,120)" x2="800" y2="0" stroke="#ddd" stroke-width="1" opacity="1"/><line transform="translate(0,90)" x2="800" y2="0" stroke="#ddd" stroke-width="1" opacity="1"/><line transform="translate(0,60)" x2="800" y2="0" stroke="#ddd" stroke-width="1" opacity="1"/><line transform="translate(0,30)" x2="800" y2="0" stroke="#ddd" stroke-width="1" opacity="1"/><line transform="translate(0,0)" x2="800" y2="0" stroke="#ddd" stroke-width="1" opacity="1"/></g></g><path class="foreground" aria-hidden="true" d="" pointer-events="none" display="none"/></g></g><g class="mark-group role-axis" role="graphics-symbol" aria-roledescription="axis" aria-label="X-axis titled 'Date' for a time scale with values from Monday, 23 March 2026, 12:00:00 AM to Tuesday, 21 April 2026, 12:00:00 AM"><g transform="translate(0.5,300.5)"><path class="background" aria-hidden="true" d="M0,0h0v0h0Z" pointer-events="none"/><g><g class="mark-rule role-axis-tick" pointer-events="none"><line transform="translate(0,0)" x2="0" y2="5" stroke="#888" stroke-width="1" opacity="1"/><line transform="translate(55,0)" x2="0" y2="5" stroke="#888" stroke-width="1" opacity="1"/><line transform="translate(110,0)" x2="0" y2="5" stroke="#888" stroke-width="1" opacity="1"/><line transform="translate(166,0)" x2="0" y2="5" stroke="#888" stroke-width="1" opacity="1"/><line transform="translate(221,0)" x2="0" y2="5" stroke="#888" stroke-width="1" opacity="1"/><line transform="translate(248,0)" x2="0" y2="5" stroke="#888" stroke-width="1" opacity="1"/><line transform="translate(303,0)" x2="0" y2="5" stroke="#888" stroke-width="1" opacity="1"/><line transform="translate(359,0)" x2="0" y2="5" stroke="#888" stroke-width="1" opacity="1"/><line transform="translate(414,0)" x2="0" y2="5" stroke="#888" stroke-width="1" opacity="1"/><line transform="translate(469,0)" x2="0" y2="5" stroke="#888" stroke-width="1" opacity="1"/><line transform="translate(524,0)" x2="0" y2="5" stroke="#888" stroke-width="1" opacity="1"/><line transform="translate(579,0)" x2="0" y2="5" stroke="#888" stroke-width="1" opacity="1"/><line transform="translate(634,0)" x2="0" y2="5" stroke="#888" stroke-width="1" opacity="1"/><line transform="translate(690,0)" x2="0" y2="5" stroke="#888" stroke-width="1" opacity="1"/><line transform="translate(745,0)" x2="0" y2="5" stroke="#888" stroke-width="1" opacity="1"/><line transform="translate(800,0)" x2="0" y2="5" stroke="#888" stroke-width="1" opacity="1"/></g><g class="mark-text role-axis-label" pointer-events="none"><text text-anchor="start" transform="translate(0,15)" font-family="sans-serif" font-size="10px" fill="#000" opacity="1">Mon 23</text><text text-anchor="middle" transform="translate(55.172413793103445,15)" font-family="sans-serif" font-size="10px" fill="#000" opacity="1">Wed 25</text><text text-anchor="middle" transform="translate(110.34482758620689,15)" font-family="sans-serif" font-size="10px" fill="#000" opacity="1">Fri 27</text><text text-anchor="middle" transform="translate(165.51724137931035,15)" font-family="sans-serif" font-size="10px" fill="#000" opacity="1">Mar 29</text><text text-anchor="middle" transform="translate(220.68965517241378,15)" font-family="sans-serif" font-size="10px" fill="#000" opacity="1">Tue 31</text><text text-anchor="middle" transform="translate(248.27586206896552,15)" font-family="sans-serif" font-size="10px" fill="#000" opacity="1">April</text><text text-anchor="middle" transform="translate(303.44827586206895,15)" font-family="sans-serif" font-size="10px" fill="#000" opacity="1">Fri 03</text><text text-anchor="middle" transform="translate(358.62068965517244,15)" font-family="sans-serif" font-size="10px" fill="#000" opacity="1">Apr 05</text><text text-anchor="middle" transform="translate(413.7931034482759,15)" font-family="sans-serif" font-size="10px" fill="#000" opacity="1">Tue 07</text><text text-anchor="middle" transform="translate(468.96551724137925,15)" font-family="sans-serif" font-size="10px" fill="#000" opacity="1">Thu 09</text><text text-anchor="middle" transform="translate(524.1379310344828,15)" font-family="sans-serif" font-size="10px" fill="#000" opacity="1">Sat 11</text><text text-anchor="middle" transform="translate(579.3103448275862,15)" font-family="sans-serif" font-size="10px" fill="#000" opacity="1">Mon 13</text><text text-anchor="middle" transform="translate(634.4827586206897,15)" font-family="sans-serif" font-size="10px" fill="#000" opacity="1">Wed 15</text><text text-anchor="middle" transform="translate(689.655172413793,15)" font-family="sans-serif" font-size="10px" fill="#000" opacity="1">Fri 17</text><text text-anchor="middle" transform="translate(744.8275862068965,15)" font-family="sans-serif" font-size="10px" fill="#000" opacity="1">Apr 19</text><text text-anchor="end" transform="translate(800,15)" font-family="sans-serif" font-size="10px" fill="#000" opacity="1">Tue 21</text></g><g class="mark-rule role-axis-domain" pointer-events="none"><line transform="translate(0,0)" x2="800" y2="0" stroke="#888" stroke-width="1" opacity="1"/></g><g class="mark-text role-axis-title" pointer-events="none"><text text-anchor="middle" transform="translate(400,30)" font-family="sans-serif" font-size="11px" font-weight="bold" fill="#000" opacity="1">Date</text></g></g><path class="foreground" aria-hidden="true" d="" pointer-events="none" display="none"/></g></g><g class="mark-group role-axis" role="graphics-symbol" aria-roledescription="axis" aria-label="Y-axis titled 'Unique Visitors/day' for a linear scale with values from 0.0 to 2.0"><g transform="translate(0.5,0.5)"><path class="background" aria-hidden="true" d="M0,0h0v0h0Z" pointer-events="none"/><g><g class="mark-rule role-axis-tick" pointer-events="none"><line transform="translate(0,300)" x2="-5" y2="0" stroke="#888" stroke-width="1" opacity="1"/><line transform="translate(0,270)" x2="-5" y2="0" stroke="#888" stroke-width="1" opacity="1"/><line transform="translate(0,240)" x2="-5" y2="0" stroke="#888" stroke-width="1" opacity="1"/><line transform="translate(0,210)" x2="-5" y2="0" stroke="#888" stroke-width="1" opacity="1"/><line transform="translate(0,180)" x2="-5" y2="0" stroke="#888" stroke-width="1" opacity="1"/><line transform="translate(0,150)" x2="-5" y2="0" stroke="#888" stroke-width="1" opacity="1"/><line transform="translate(0,120)" x2="-5" y2="0" stroke="#888" stroke-width="1" opacity="1"/><line transform="translate(0,90)" x2="-5" y2="0" stroke="#888" stroke-width="1" opacity="1"/><line transform="translate(0,60)" x2="-5" y2="0" stroke="#888" stroke-width="1" opacity="1"/><line transform="translate(0,30)" x2="-5" y2="0" stroke="#888" stroke-width="1" opacity="1"/><line transform="translate(0,0)" x2="-5" y2="0" stroke="#888" stroke-width="1" opacity="1"/></g><g class="mark-text role-axis-label" pointer-events="none"><text text-anchor="end" transform="translate(-7,303)" font-family="sans-serif" font-size="10px" fill="#000" opacity="1">0.0</text><text text-anchor="end" transform="translate(-7,273)" font-family="sans-serif" font-size="10px" fill="#000" opacity="1">0.2</text><text text-anchor="end" transform="translate(-7,243)" font-family="sans-serif" font-size="10px" fill="#000" opacity="1">0.4</text><text text-anchor="end" transform="translate(-7,213)" font-family="sans-serif" font-size="10px" fill="#000" opacity="1">0.6</text><text text-anchor="end" transform="translate(-7,183)" font-family="sans-serif" font-size="10px" fill="#000" opacity="1">0.8</text><text text-anchor="end" transform="translate(-7,153)" font-family="sans-serif" font-size="10px" fill="#000" opacity="1">1.0</text><text text-anchor="end" transform="translate(-7,123)" font-family="sans-serif" font-size="10px" fill="#000" opacity="1">1.2</text><text text-anchor="end" transform="translate(-7,93.00000000000001)" font-family="sans-serif" font-size="10px" fill="#000" opacity="1">1.4</text><text text-anchor="end" transform="translate(-7,62.999999999999986)" font-family="sans-serif" font-size="10px" fill="#000" opacity="1">1.6</text><text text-anchor="end" transform="translate(-7,32.99999999999999)" font-family="sans-serif" font-size="10px" fill="#000" opacity="1">1.8</text><text text-anchor="end" transform="translate(-7,3)" font-family="sans-serif" font-size="10px" fill="#000" opacity="1">2.0</text></g><g class="mark-rule role-axis-domain" pointer-events="none"><line transform="translate(0,300)" x2="0" y2="-300" stroke="#888" stroke-width="1" opacity="1"/></g><g class="mark-text role-axis-title" pointer-events="none"><text text-anchor="middle" transform="translate(-24.9013671875,150) rotate(-90) translate(0,-2)" font-family="sans-serif" font-size="11px" font-weight="bold" fill="#000" opacity="1">Unique Visitors/day</text></g></g><path class="foreground" aria-hidden="true" d="" pointer-events="none" display="none"/></g></g><g class="mark-group role-scope pathgroup" role="graphics-object" aria-roledescription="group mark container"><g transform="translate(0,0)"><path class="background" aria-hidden="true" d="M0,0h800v300h-800Z"/><g><g class="mark-area role-mark marks" role="graphics-object" aria-roledescription="area mark container"><path aria-label="Date: Mar 23, 2026; Unique Visitors/day: 0; Repository: justdavis-family/github-analytics-data" role="graphics-symbol" aria-roledescription="area mark" d="M0,300L27.586,300L55.172,300L82.759,300L110.345,300L137.931,300L165.517,300L193.103,150L220.69,300L248.276,300L275.862,300L303.448,300L331.034,300L358.621,300L386.207,300L413.793,0L441.379,300L468.966,300L496.552,300L524.138,300L551.724,300L579.31,300L606.897,300L634.483,300L662.069,150L689.655,300L717.241,300L744.828,300L772.414,300L800,300L800,300L772.414,300L744.828,300L717.241,300L689.655,300L662.069,300L634.483,300L606.897,300L579.31,300L551.724,300L524.138,300L496.552,300L468.966,300L441.379,300L413.793,0L386.207,300L358.621,300L331.034,300L303.448,300L275.862,300L248.276,300L220.69,300L193.103,150L165.517,300L137.931,300L110.345,300L82.759,300L55.172,300L27.586,300L0,300Z" fill="#4c78a8"/></g></g><path class="foreground" aria-hidden="true" d="" display="none"/></g><g transform="translate(0,0)"><path class="background" aria-hidden="true" d="M0,0h800v300h-800Z"/><g><g class="mark-area role-mark marks" role="graphics-object" aria-roledescription="area mark container"><path aria-label="Date: Mar 23, 2026; Unique Visitors/day: 0; Repository: justdavis-family/justdavis" role="graphics-symbol" aria-roledescription="area mark" d="M0,300L27.586,300L55.172,300L82.759,300L110.345,300L137.931,300L165.517,300L193.103,150L220.69,300L248.276,300L275.862,300L303.448,300L331.034,300L358.621,300L386.207,300L413.793,0L441.379,300L468.966,300L496.552,300L524.138,300L551.724,300L579.31,300L606.897,300L634.483,300L662.069,300L689.655,300L717.241,300L744.828,300L772.414,300L800,300L800,300L772.414,300L744.828,300L717.241,300L689.655,300L662.069,300L634.483,300L606.897,300L579.31,300L551.724,300L524.138,300L496.552,300L468.966,300L441.379,300L413.793,300L386.207,300L358.621,300L331.034,300L303.448,300L275.862,300L248.276,300L220.69,300L193.103,300L165.517,300L137.931,300L110.345,300L82.759,300L55.172,300L27.586,300L0,300Z" fill="#f58518"/></g></g><path class="foreground" aria-hidden="true" d="" display="none"/></g></g><g class="mark-group role-legend" role="graphics-symbol" aria-roledescription="legend" aria-label="Symbol legend titled 'Repository' for fill color with 2 values: justdavis-family/github-analytics-data, justdavis-family/justdavis"><g transform="translate(818,0)"><path class="background" aria-hidden="true" d="M0,0h176v40h-176Z" pointer-events="none"/><g><g class="mark-group role-legend-entry"><g transform="translate(0,16)"><path class="background" aria-hidden="true" d="M0,0h0v0h0Z" pointer-events="none"/><g><g class="mark-group role-scope" role="graphics-object" aria-roledescription="group mark container"><g transform="translate(0,0)"><path class="background" aria-hidden="true" d="M0,0h176v11h-176Z" pointer-events="none" opacity="1"/><g><g class="mark-symbol role-legend-symbol" pointer-events="none"><path transform="translate(6,6)" d="M5,0A5,5,0,1,1,-5,0A5,5,0,1,1,5,0" fill="#4c78a8" stroke-width="1.5" opacity="1"/></g><g class="mark-text role-legend-label" pointer-events="none"><text text-anchor="start" transform="translate(16,9)" font-family="sans-serif" font-size="10px" fill="#000" opacity="1">justdavis-family/github-analytics-d…</text></g></g><path class="foreground" aria-hidden="true" d="" pointer-events="none" display="none"/></g><g transform="translate(0,13)"><path class="background" aria-hidden="true" d="M0,0h176v11h-176Z" pointer-events="none" opacity="1"/><g><g class="mark-symbol role-legend-symbol" pointer-events="none"><path transform="translate(6,6)" d="M5,0A5,5,0,1,1,-5,0A5,5,0,1,1,5,0" fill="#f58518" stroke-width="1.5" opacity="1"/></g><g class="mark-text role-legend-label" pointer-events="none"><text text-anchor="start" transform="translate(16,9)" font-family="sans-serif" font-size="10px" fill="#000" opacity="1">justdavis-family/justdavis</text></g></g><path class="foreground" aria-hidden="true" d="" pointer-events="none" display="none"/></g></g></g><path class="foreground" aria-hidden="true" d="" pointer-events="none" display="none"/></g></g><g class="mark-text role-legend-title" pointer-events="none"><text text-anchor="start" transform="translate(0,9)" font-family="sans-serif" font-size="11px" font-weight="bold" fill="#000" opacity="1">Repository</text></g></g><path class="foreground" aria-hidden="true" d="" pointer-events="none" display="none"/></g></g><g class="mark-group role-title"><g transform="translate(400,-22)"><path class="background" aria-hidden="true" d="M0,0h0v0h0Z" pointer-events="none"/><g><g class="mark-text role-title-text" role="graphics-symbol" aria-roledescription="title" aria-label="Title text 'Unique Visitors per Day'" pointer-events="none"><text text-anchor="middle" transform="translate(0,10)" font-family="sans-serif" font-size="13px" font-weight="bold" fill="#000" opacity="1">Unique Visitors per Day</text></g></g><path class="foreground" aria-hidden="true" d="" pointer-events="none" display="none"/></g></g></g><path class="foreground" aria-hidden="true" d="" display="none"/></g></g></g></svg>