<svg xmlns="http://www.w3.org/2000/svg" xmlns:xlink="http://www.w3.org/1999/xlink" version="1.1" class="marks" width="1043" height="359" viewBox="0 0 1043 359"><rect width="1043" height="359" fill="white"/><g fill="none" stroke-miterlimit="10" transform="translate(44,22)"><g class="mark-group role-frame root" role="graphics-object" aria-roledescription="group mark container"><g transform="translate(0,0)"><path class="background" aria-hidden="true" d="M0.5,0.5h800v300h-800Z" stroke="#ddd"/><g><g class="mark-group role-axis" aria-hidden="true"><g transform="translate(0.5,300.5)"><path class="background" aria-hidden="true" d="M0,0h0v0h0Z" pointer-events="none"/><g><g class="mark-rule role-axis-grid" pointer-events="none"><line transform="translate(0,-300)" x2="0" y2="300" stroke="#ddd" stroke-width="1" opacity="1"/><line transform="translate(32,-300)" x2="0" y2="300" stroke="#ddd" stroke-width="1" opacity="1"/><line transform="translate(64,-300)" x2="0" y2="300" stroke="#ddd" stroke-width="1" opacity="1"/><line transform="translate(96,-300)" x2="0" y2="300" stroke="#ddd" stroke-width="1" opacity="1"/><line transform="translate(128,-300)" x2="0" y2="300" stroke="#ddd" stroke-width="1" opacity="1"/><line transform="translate(160,-300)" x2="0" y2="300" stroke="#ddd" stroke-width="1" opacity="1"/><line transform="translate(192,-300)" x2="0" y2="300" stroke="#ddd" stroke-width="1" opacity="1"/><line transform="translate(224,-300)" x2="0" y2="300" stroke="#ddd" stroke-width="1" opacity="1"/><line transform="translate(256,-300)" x2="0" y2="300" stroke="#ddd" stroke-width="1" opacity="1"/><line transform="translate(288,-300)" x2="0" y2="300" stroke="#ddd" stroke-width="1" opacity="1"/><line transform="translate(320,-300)" x2="0" y2="300" stroke="#ddd" stroke-width="1" opacity="1"/><line transform="translate(352,-300)" x2="0" y2="300" stroke="#ddd" stroke-width="1" opacity="1"/><line transform="translate(384,-300)" x2="0" y2="300" stroke="#ddd" stroke-width="1" opacity="1"/><line transform="translate(416,-300)" x2="0" y2="300" stroke="#ddd" stroke-width="1" opacity="1"/><line transform="translate(448,-300)" x2="0" y2="300" stroke="#ddd" stroke-width="1" opacity="1"/><line transform="translate(480,-300)" x2="0" y2="300" stroke="#ddd" stroke-width="1" opacity="1"/><line transform="translate(512,-300)" x2="0" y2="300" stroke="#ddd" stroke-width="1" opacity="1"/><line transform="translate(544,-300)" x2="0" y2="300" stroke="#ddd" stroke-width="1" opacity="1"/><line transform="translate(576,-300)" x2="0" y2="300" stroke="#ddd" stroke-width="1" opacity="1"/><line transform="translate(608,-300)" x2="0" y2="300" stroke="#ddd" stroke-width="1" opacity="1"/><line transform="translate(640,-300)" x2="0" y2="300" stroke="#ddd" stroke-width="1" opacity="1"/><line transform="translate(672,-300)" x2="0" y2="300" stroke="#ddd" stroke-width="1" opacity="1"/><line transform="translate(704,-300)" x2="0" y2="300" stroke="#ddd" stroke-width="1" opacity="1"/><line transform="translate(736,-300)" x2="0" y2="300" stroke="#ddd" stroke-width="1" opacity="1"/><line transform="translate(768,-300)" x2="0" y2="300" stroke="#ddd" stroke-width="1" opacity="1"/><line transform="translate(800,-300)" x2="0" y2="300" stroke="#ddd" stroke-width="1" opacity="1"/></g></g><path class="foreground" aria-hidden="true" d="" pointer-events="none" display="none"/></g></g><g class="mark-group role-axis" aria-hidden="true"><g transform="translate(0.5,0.5)"><path class="background" aria-hidden="true" d="M0,0h0v0h0Z" pointer-events="none"/><g><g class="mark-rule role-axis-grid" pointer-events="none"><line transform="translate(0,300)" x2="800" y2="0" stroke="#ddd" stroke-width="1" opacity="1"/><line transform="translate(0,254)" x2="800" y2="0" stroke="#ddd" stroke-width="1" opacity="1"/><line transform="translate(0,208)" x2="800" y2="0" stroke="#ddd" stroke-width="1" opacity="1"/><line transform="translate(0,162)" x2="800" y2="0" stroke="#ddd" stroke-width="1" opacity="1"/><line transform="translate(0,115)" x2="800" y2="0" stroke="#ddd" stroke-width="1" opacity="1"/><line transform="translate(0,69)" x2="800" y2="0" stroke="#ddd" stroke-width="1" opacity="1"/><line transform="translate(0,23)" x2="800" y2="0" stroke="#ddd" stroke-width="1" opacity="1"/></g></g><path class="foreground" aria-hidden="true" d="" pointer-events="none" display="none"/></g></g><g class="mark-group role-axis" role="graphics-symbol" aria-roledescription="axis" aria-label="X-axis titled 'Date' for a time scale with values from Monday, 23 March 2026, 12:00:00 AM to Friday, 17 April 2026, 12:00:00 AM"><g transform="translate(0.5,300.5)"><path class="background" aria-hidden="true" d="M0,0h0v0h0Z" pointer-events="none"/><g><g class="mark-rule role-axis-tick" pointer-events="none"><line transform="translate(0,0)" x2="0" y2="5" stroke="#888" stroke-width="1" opacity="1"/><line transform="translate(32,0)" x2="0" y2="5" stroke="#888" stroke-width="1" opacity="1"/><line transform="translate(64,0)" x2="0" y2="5" stroke="#888" stroke-width="1" opacity="1"/><line transform="translate(96,0)" x2="0" y2="5" stroke="#888" stroke-width="1" opacity="1"/><line transform="translate(128,0)" x2="0" y2="5" stroke="#888" stroke-width="1" opacity="1"/><line transform="translate(160,0)" x2="0" y2="5" stroke="#888" stroke-width="1" opacity="1"/><line transform="translate(192,0)" x2="0" y2="5" stroke="#888" stroke-width="1" opacity="1"/><line transform="translate(224,0)" x2="0" y2="5" stroke="#888" stroke-width="1" opacity="1"/><line transform="translate(256,0)" x2="0" y2="5" stroke="#888" stroke-width="1" opacity="1"/><line transform="translate(288,0)" x2="0" y2="5" stroke="#888" stroke-width="1" opacity="1"/><line transform="translate(320,0)" x2="0" y2="5" stroke="#888" stroke-width="1" opacity="1"/><line transform="translate(352,0)" x2="0" y2="5" stroke="#888" stroke-width="1" opacity="1"/><line transform="translate(384,0)" x2="0" y2="5" stroke="#888" stroke-width="1" opacity="1"/><line transform="translate(416,0)" x2="0" y2="5" stroke="#888" stroke-width="1" opacity="1"/><line transform="translate(448,0)" x2="0" y2="5" stroke="#888" stroke-width="1" opacity="1"/><line transform="translate(480,0)" x2="0" y2="5" stroke="#888" stroke-width="1" opacity="1"/><line transform="translate(512,0)" x2="0" y2="5" stroke="#888" stroke-width="1" opacity="1"/><line transform="translate(544,0)" x2="0" y2="5" stroke="#888" stroke-width="1" opacity="1"/><line transform="translate(576,0)" x2="0" y2="5" stroke="#888" stroke-width="1" opacity="1"/><line transform="translate(608,0)" x2="0" y2="5" stroke="#888" stroke-width="1" opacity="1"/><line transform="translate(640,0)" x2="0" y2="5" stroke="#888" stroke-width="1" opacity="1"/><line transform="translate(672,0)" x2="0" y2="5" stroke="#888" stroke-width="1" opacity="1"/><line transform="translate(704,0)" x2="0" y2="5" stroke="#888" stroke-width="1" opacity="1"/><line transform="translate(736,0)" x2="0" y2="5" stroke="#888" stroke-width="1" opacity="1"/><line transform="translate(768,0)" x2="0" y2="5" stroke="#888" stroke-width="1" opacity="1"/><line transform="translate(800,0)" x2="0" y2="5" stroke="#888" stroke-width="1" opacity="1"/></g><g class="mark-text role-axis-label" pointer-events="none"><text text-anchor="start" transform="translate(0,15)" font-family="sans-serif" font-size="10px" fill="#000" opacity="1">Mon 23</text><text text-anchor="middle" transform="translate(32,15)" font-family="sans-serif" font-size="10px" fill="#000" opacity="0">Tue 24</text><text text-anchor="middle" transform="translate(64,15)" font-family="sans-serif" font-size="10px" fill="#000" opacity="1">Wed 25</text><text text-anchor="middle" transform="translate(96,15)" font-family="sans-serif" font-size="10px" fill="#000" opacity="0">Thu 26</text><text text-anchor="middle" transform="translate(128,15)" font-family="sans-serif" font-size="10px" fill="#000" opacity="1">Fri 27</text><text text-anchor="middle" transform="translate(160,15)" font-family="sans-serif" font-size="10px" fill="#000" opacity="0">Sat 28</text><text text-anchor="middle" transform="translate(192,15)" font-family="sans-serif" font-size="10px" fill="#000" opacity="1">Mar 29</text><text text-anchor="middle" transform="translate(224.00000000000003,15)" font-family="sans-serif" font-size="10px" fill="#000" opacity="0">Mon 30</text><text text-anchor="middle" transform="translate(256,15)" font-family="sans-serif" font-size="10px" fill="#000" opacity="1">Tue 31</text><text text-anchor="middle" transform="translate(288,15)" font-family="sans-serif" font-size="10px" fill="#000" opacity="0">April</text><text text-anchor="middle" transform="translate(320,15)" font-family="sans-serif" font-size="10px" fill="#000" opacity="1">Thu 02</text><text text-anchor="middle" transform="translate(352,15)" font-family="sans-serif" font-size="10px" fill="#000" opacity="0">Fri 03</text><text text-anchor="middle" transform="translate(384,15)" font-family="sans-serif" font-size="10px" fill="#000" opacity="1">Sat 04</text><text text-anchor="middle" transform="translate(416,15)" font-family="sans-serif" font-size="10px" fill="#000" opacity="0">Apr 05</text><text text-anchor="middle" transform="translate(448.00000000000006,15)" font-family="sans-serif" font-size="10px" fill="#000" opacity="1">Mon 06</text><text text-anchor="middle" transform="translate(480,15)" font-family="sans-serif" font-size="10px" fill="#000" opacity="0">Tue 07</text><text text-anchor="middle" transform="translate(512,15)" font-family="sans-serif" font-size="10px" fill="#000" opacity="1">Wed 08</text><text text-anchor="middle" transform="translate(544,15)" font-family="sans-serif" font-size="10px" fill="#000" opacity="0">Thu 09</text><text text-anchor="middle" transform="translate(576,15)" font-family="sans-serif" font-size="10px" fill="#000" opacity="1">Fri 10</text><text text-anchor="middle" transform="translate(608,15)" font-family="sans-serif" font-size="10px" fill="#000" opacity="0">Sat 11</text><text text-anchor="middle" transform="translate(640,15)" font-family="sans-serif" font-size="10px" fill="#000" opacity="1">Apr 12</text><text text-anchor="middle" transform="translate(672,15)" font-family="sans-serif" font-size="10px" fill="#000" opacity="0">Mon 13</text><text text-anchor="middle" transform="translate(704,15)" font-family="sans-serif" font-size="10px" fill="#000" opacity="1">Tue 14</text><text text-anchor="middle" transform="translate(736,15)" font-family="sans-serif" font-size="10px" fill="#000" opacity="0">Wed 15</text><text text-anchor="middle" transform="translate(768,15)" font-family="sans-serif" font-size="10px" fill="#000" opacity="1">Thu 16</text><text text-anchor="end" transform="translate(800,15)" font-family="sans-serif" font-size="10px" fill="#000" opacity="0">Fri 17</text></g><g class="mark-rule role-axis-domain" pointer-events="none"><line transform="translate(0,0)" x2="800" y2="0" stroke="#888" stroke-width="1" opacity="1"/></g><g class="mark-text role-axis-title" pointer-events="none"><text text-anchor="middle" transform="translate(400,30)" font-family="sans-serif" font-size="11px" font-weight="bold" fill="#000" opacity="1">Date</text></g></g><path class="foreground" aria-hidden="true" d="" pointer-events="none" display="none"/></g></g><g class="mark-group role-axis" role="graphics-symbol" aria-roledescription="axis" aria-label="Y-axis titled 'Unique Clones/day' for a linear scale with values from 0 to 130"><g transform="translate(0.5,0.5)"><path class="background" aria-hidden="true" d="M0,0h0v0h0Z" pointer-events="none"/><g><g class="mark-rule role-axis-tick" pointer-events="none"><line transform="translate(0,300)" x2="-5" y2="0" stroke="#888" stroke-width="1" opacity="1"/><line transform="translate(0,254)" x2="-5" y2="0" stroke="#888" stroke-width="1" opacity="1"/><line transform="translate(0,208)" x2="-5" y2="0" stroke="#888" stroke-width="1" opacity="1"/><line transform="translate(0,162)" x2="-5" y2="0" stroke="#888" stroke-width="1" opacity="1"/><line transform="translate(0,115)" x2="-5" y2="0" stroke="#888" stroke-width="1" opacity="1"/><line transform="translate(0,69)" x2="-5" y2="0" stroke="#888" stroke-width="1" opacity="1"/><line transform="translate(0,23)" x2="-5" y2="0" stroke="#888" stroke-width="1" opacity="1"/></g><g class="mark-text role-axis-label" pointer-events="none"><text text-anchor="end" transform="translate(-7,303)" font-family="sans-serif" font-size="10px" fill="#000" opacity="1">0</text><text text-anchor="end" transform="translate(-7,256.8461538461538)" font-family="sans-serif" font-size="10px" fill="#000" opacity="1">20</text><text text-anchor="end" transform="translate(-7,210.69230769230768)" font-family="sans-serif" font-size="10px" fill="#000" opacity="1">40</text><text text-anchor="end" transform="translate(-7,164.53846153846152)" font-family="sans-serif" font-size="10px" fill="#000" opacity="1">60</text><text text-anchor="end" transform="translate(-7,118.38461538461537)" font-family="sans-serif" font-size="10px" fill="#000" opacity="1">80</text><text text-anchor="end" transform="translate(-7,72.23076923076921)" font-family="sans-serif" font-size="10px" fill="#000" opacity="1">100</text><text text-anchor="end" transform="translate(-7,26.076923076923062)" font-family="sans-serif" font-size="10px" fill="#000" opacity="1">120</text></g><g class="mark-rule role-axis-domain" pointer-events="none"><line transform="translate(0,300)" x2="0" y2="-300" stroke="#888" stroke-width="1" opacity="1"/></g><g class="mark-text role-axis-title" pointer-events="none"><text text-anchor="middle" transform="translate(-27.6845703125,150) rotate(-90) translate(0,-2)" font-family="sans-serif" font-size="11px" font-weight="bold" fill="#000" opacity="1">Unique Clones/day</text></g></g><path class="foreground" aria-hidden="true" d="" pointer-events="none" display="none"/></g></g><g class="mark-group role-scope pathgroup" role="graphics-object" aria-roledescription="group mark container"><g transform="translate(0,0)"><path class="background" aria-hidden="true" d="M0,0h800v300h-800Z"/><g><g class="mark-area role-mark marks" role="graphics-object" aria-roledescription="area mark container"><path aria-label="Date: Mar 23, 2026; Unique Clones/day: 0; Repository: justdavis-family/github-analytics-data" role="graphics-symbol" aria-roledescription="area mark" d="M0,297.692L32,300L64,300L96,300L128,300L160,300L192,300L224,300L256,300L288,297.692L320,300L352,297.692L384,120L416,230.769L448,258.462L480,124.615L512,283.846L544,274.615L576,279.231L608,274.615L640,235.385L672,4.615L704,272.308L736,260.769L768,270L800,281.538L800,293.077L768,295.385L736,290.769L704,297.692L672,16.154L640,263.077L608,293.077L576,295.385L544,290.769L512,295.385L480,184.615L448,258.462L416,230.769L384,120L352,297.692L320,300L288,297.692L256,300L224,300L192,300L160,300L128,300L96,300L64,300L32,300L0,297.692Z" fill="#4c78a8"/></g></g><path class="foreground" aria-hidden="true" d="" display="none"/></g><g transform="translate(0,0)"><path class="background" aria-hidden="true" d="M0,0h800v300h-800Z"/><g><g class="mark-area role-mark marks" role="graphics-object" aria-roledescription="area mark container"><path aria-label="Date: Mar 23, 2026; Unique Clones/day: 1; Repository: justdavis-family/justdavis" role="graphics-symbol" aria-roledescription="area mark" d="M0,297.692L32,300L64,300L96,300L128,300L160,300L192,300L224,300L256,300L288,297.692L320,300L352,297.692L384,120L416,230.769L448,258.462L480,184.615L512,295.385L544,290.769L576,295.385L608,293.077L640,263.077L672,16.154L704,297.692L736,290.769L768,295.385L800,293.077L800,300L768,300L736,300L704,300L672,300L640,300L608,300L576,300L544,300L512,300L480,300L448,300L416,300L384,300L352,300L320,300L288,300L256,300L224,300L192,300L160,300L128,300L96,300L64,300L32,300L0,300Z" fill="#f58518"/></g></g><path class="foreground" aria-hidden="true" d="" display="none"/></g></g><g class="mark-group role-legend" role="graphics-symbol" aria-roledescription="legend" aria-label="Symbol legend titled 'Repository' for fill color with 2 values: justdavis-family/github-analytics-data, justdavis-family/justdavis"><g transform="translate(818,0)"><path class="background" aria-hidden="true" d="M0,0h176v40h-176Z" pointer-events="none"/><g><g class="mark-group role-legend-entry"><g transform="translate(0,16)"><path class="background" aria-hidden="true" d="M0,0h0v0h0Z" pointer-events="none"/><g><g class="mark-group role-scope" role="graphics-object" aria-roledescription="group mark container"><g transform="translate(0,0)"><path class="background" aria-hidden="true" d="M0,0h176v11h-176Z" pointer-events="none" opacity="1"/><g><g class="mark-symbol role-legend-symbol" pointer-events="none"><path transform="translate(6,6)" d="M5,0A5,5,0,1,1,-5,0A5,5,0,1,1,5,0" fill="#4c78a8" stroke-width="1.5" opacity="1"/></g><g class="mark-text role-legend-label" pointer-events="none"><text text-anchor="start" transform="translate(16,9)" font-family="sans-serif" font-size="10px" fill="#000" opacity="1">justdavis-family/github-analytics-d…</text></g></g><path class="foreground" aria-hidden="true" d="" pointer-events="none" display="none"/></g><g transform="translate(0,13)"><path class="background" aria-hidden="true" d="M0,0h176v11h-176Z" pointer-events="none" opacity="1"/><g><g class="mark-symbol role-legend-symbol" pointer-events="none"><path transform="translate(6,6)" d="M5,0A5,5,0,1,1,-5,0A5,5,0,1,1,5,0" fill="#f58518" stroke-width="1.5" opacity="1"/></g><g class="mark-text role-legend-label" pointer-events="none"><text text-anchor="start" transform="translate(16,9)" font-family="sans-serif" font-size="10px" fill="#000" opacity="1">justdavis-family/justdavis</text></g></g><path class="foreground" aria-hidden="true" d="" pointer-events="none" display="none"/></g></g></g><path class="foreground" aria-hidden="true" d="" pointer-events="none" display="none"/></g></g><g class="mark-text role-legend-title" pointer-events="none"><text text-anchor="start" transform="translate(0,9)" font-family="sans-serif" font-size="11px" font-weight="bold" fill="#000" opacity="1">Repository</text></g></g><path class="foreground" aria-hidden="true" d="" pointer-events="none" display="none"/></g></g><g class="mark-group role-title"><g transform="translate(400,-17)"><path class="background" aria-hidden="true" d="M0,0h0v0h0Z" pointer-events="none"/><g><g class="mark-text role-title-text" role="graphics-symbol" aria-roledescription="title" aria-label="Title text 'Unique Clones per Day'" pointer-events="none"><text text-anchor="middle" transform="translate(0,10)" font-family="sans-serif" font-size="13px" font-weight="bold" fill="#000" opacity="1">Unique Clones per Day</text></g></g><path class="foreground" aria-hidden="true" d="" pointer-events="none" display="none"/></g></g></g><path class="foreground" aria-hidden="true" d="" display="none"/></g></g></g></svg>