<svg xmlns="http://www.w3.org/2000/svg" xmlns:xlink="http://www.w3.org/1999/xlink" version="1.1" class="marks" width="1043" height="359" viewBox="0 0 1043 359"><rect width="1043" height="359" fill="white"/><g fill="none" stroke-miterlimit="10" transform="translate(44,22)"><g class="mark-group role-frame root" role="graphics-object" aria-roledescription="group mark container"><g transform="translate(0,0)"><path class="background" aria-hidden="true" d="M0.5,0.5h800v300h-800Z" stroke="#ddd"/><g><g class="mark-group role-axis" aria-hidden="true"><g transform="translate(0.5,300.5)"><path class="background" aria-hidden="true" d="M0,0h0v0h0Z" pointer-events="none"/><g><g class="mark-rule role-axis-grid" pointer-events="none"><line transform="translate(56,-300)" x2="0" y2="300" stroke="#ddd" stroke-width="1" opacity="1"/><line transform="translate(122,-300)" x2="0" y2="300" stroke="#ddd" stroke-width="1" opacity="1"/><line transform="translate(188,-300)" x2="0" y2="300" stroke="#ddd" stroke-width="1" opacity="1"/><line transform="translate(254,-300)" x2="0" y2="300" stroke="#ddd" stroke-width="1" opacity="1"/><line transform="translate(320,-300)" x2="0" y2="300" stroke="#ddd" stroke-width="1" opacity="1"/><line transform="translate(386,-300)" x2="0" y2="300" stroke="#ddd" stroke-width="1" opacity="1"/><line transform="translate(452,-300)" x2="0" y2="300" stroke="#ddd" stroke-width="1" opacity="1"/><line transform="translate(518,-300)" x2="0" y2="300" stroke="#ddd" stroke-width="1" opacity="1"/><line transform="translate(584,-300)" x2="0" y2="300" stroke="#ddd" stroke-width="1" opacity="1"/><line transform="translate(649,-300)" x2="0" y2="300" stroke="#ddd" stroke-width="1" opacity="1"/><line transform="translate(715,-300)" x2="0" y2="300" stroke="#ddd" stroke-width="1" opacity="1"/><line transform="translate(781,-300)" x2="0" y2="300" stroke="#ddd" stroke-width="1" opacity="1"/></g></g><path class="foreground" aria-hidden="true" d="" pointer-events="none" display="none"/></g></g><g class="mark-group role-axis" aria-hidden="true"><g transform="translate(0.5,0.5)"><path class="background" aria-hidden="true" d="M0,0h0v0h0Z" pointer-events="none"/><g><g class="mark-rule role-axis-grid" pointer-events="none"><line transform="translate(0,300)" x2="800" y2="0" stroke="#ddd" stroke-width="1" opacity="1"/><line transform="translate(0,254)" x2="800" y2="0" stroke="#ddd" stroke-width="1" opacity="1"/><line transform="translate(0,208)" x2="800" y2="0" stroke="#ddd" stroke-width="1" opacity="1"/><line transform="translate(0,162)" x2="800" y2="0" stroke="#ddd" stroke-width="1" opacity="1"/><line transform="translate(0,115)" x2="800" y2="0" stroke="#ddd" stroke-width="1" opacity="1"/><line transform="translate(0,69)" x2="800" y2="0" stroke="#ddd" stroke-width="1" opacity="1"/><line transform="translate(0,23)" x2="800" y2="0" stroke="#ddd" stroke-width="1" opacity="1"/></g></g><path class="foreground" aria-hidden="true" d="" pointer-events="none" display="none"/></g></g><g class="mark-group role-axis" role="graphics-symbol" aria-roledescription="axis" aria-label="X-axis titled 'Date' for a time scale with values from Monday, 23 March 2026, 12:00:00 AM to Tuesday, 16 June 2026, 12:00:00 AM"><g transform="translate(0.5,300.5)"><path class="background" aria-hidden="true" d="M0,0h0v0h0Z" pointer-events="none"/><g><g class="mark-rule role-axis-tick" pointer-events="none"><line transform="translate(56,0)" x2="0" y2="5" stroke="#888" stroke-width="1" opacity="1"/><line transform="translate(122,0)" x2="0" y2="5" stroke="#888" stroke-width="1" opacity="1"/><line transform="translate(188,0)" x2="0" y2="5" stroke="#888" stroke-width="1" opacity="1"/><line transform="translate(254,0)" x2="0" y2="5" stroke="#888" stroke-width="1" opacity="1"/><line transform="translate(320,0)" x2="0" y2="5" stroke="#888" stroke-width="1" opacity="1"/><line transform="translate(386,0)" x2="0" y2="5" stroke="#888" stroke-width="1" opacity="1"/><line transform="translate(452,0)" x2="0" y2="5" stroke="#888" stroke-width="1" opacity="1"/><line transform="translate(518,0)" x2="0" y2="5" stroke="#888" stroke-width="1" opacity="1"/><line transform="translate(584,0)" x2="0" y2="5" stroke="#888" stroke-width="1" opacity="1"/><line transform="translate(649,0)" x2="0" y2="5" stroke="#888" stroke-width="1" opacity="1"/><line transform="translate(715,0)" x2="0" y2="5" stroke="#888" stroke-width="1" opacity="1"/><line transform="translate(781,0)" x2="0" y2="5" stroke="#888" stroke-width="1" opacity="1"/></g><g class="mark-text role-axis-label" pointer-events="none"><text text-anchor="middle" transform="translate(56.470588235294116,15)" font-family="sans-serif" font-size="10px" fill="#000" opacity="1">Mar 29</text><text text-anchor="middle" transform="translate(122.3529411764706,15)" font-family="sans-serif" font-size="10px" fill="#000" opacity="1">Apr 05</text><text text-anchor="middle" transform="translate(188.23529411764704,15)" font-family="sans-serif" font-size="10px" fill="#000" opacity="1">Apr 12</text><text text-anchor="middle" transform="translate(254.1176470588235,15)" font-family="sans-serif" font-size="10px" fill="#000" opacity="1">Apr 19</text><text text-anchor="middle" transform="translate(320,15)" font-family="sans-serif" font-size="10px" fill="#000" opacity="1">Apr 26</text><text text-anchor="middle" transform="translate(385.88235294117646,15)" font-family="sans-serif" font-size="10px" fill="#000" opacity="1">May 03</text><text text-anchor="middle" transform="translate(451.7647058823529,15)" font-family="sans-serif" font-size="10px" fill="#000" opacity="1">May 10</text><text text-anchor="middle" transform="translate(517.6470588235294,15)" font-family="sans-serif" font-size="10px" fill="#000" opacity="1">May 17</text><text text-anchor="middle" transform="translate(583.5294117647059,15)" font-family="sans-serif" font-size="10px" fill="#000" opacity="1">May 24</text><text text-anchor="middle" transform="translate(649.4117647058823,15)" font-family="sans-serif" font-size="10px" fill="#000" opacity="1">May 31</text><text text-anchor="middle" transform="translate(715.2941176470589,15)" font-family="sans-serif" font-size="10px" fill="#000" opacity="1">Jun 07</text><text text-anchor="middle" transform="translate(781.1764705882352,15)" font-family="sans-serif" font-size="10px" fill="#000" opacity="1">Jun 14</text></g><g class="mark-rule role-axis-domain" pointer-events="none"><line transform="translate(0,0)" x2="800" y2="0" stroke="#888" stroke-width="1" opacity="1"/></g><g class="mark-text role-axis-title" pointer-events="none"><text text-anchor="middle" transform="translate(400,30)" font-family="sans-serif" font-size="11px" font-weight="bold" fill="#000" opacity="1">Date</text></g></g><path class="foreground" aria-hidden="true" d="" pointer-events="none" display="none"/></g></g><g class="mark-group role-axis" role="graphics-symbol" aria-roledescription="axis" aria-label="Y-axis titled 'Unique Clones/day' for a linear scale with values from 0 to 130"><g transform="translate(0.5,0.5)"><path class="background" aria-hidden="true" d="M0,0h0v0h0Z" pointer-events="none"/><g><g class="mark-rule role-axis-tick" pointer-events="none"><line transform="translate(0,300)" x2="-5" y2="0" stroke="#888" stroke-width="1" opacity="1"/><line transform="translate(0,254)" x2="-5" y2="0" stroke="#888" stroke-width="1" opacity="1"/><line transform="translate(0,208)" x2="-5" y2="0" stroke="#888" stroke-width="1" opacity="1"/><line transform="translate(0,162)" x2="-5" y2="0" stroke="#888" stroke-width="1" opacity="1"/><line transform="translate(0,115)" x2="-5" y2="0" stroke="#888" stroke-width="1" opacity="1"/><line transform="translate(0,69)" x2="-5" y2="0" stroke="#888" stroke-width="1" opacity="1"/><line transform="translate(0,23)" x2="-5" y2="0" stroke="#888" stroke-width="1" opacity="1"/></g><g class="mark-text role-axis-label" pointer-events="none"><text text-anchor="end" transform="translate(-7,303)" font-family="sans-serif" font-size="10px" fill="#000" opacity="1">0</text><text text-anchor="end" transform="translate(-7,256.8461538461538)" font-family="sans-serif" font-size="10px" fill="#000" opacity="1">20</text><text text-anchor="end" transform="translate(-7,210.69230769230768)" font-family="sans-serif" font-size="10px" fill="#000" opacity="1">40</text><text text-anchor="end" transform="translate(-7,164.53846153846152)" font-family="sans-serif" font-size="10px" fill="#000" opacity="1">60</text><text text-anchor="end" transform="translate(-7,118.38461538461537)" font-family="sans-serif" font-size="10px" fill="#000" opacity="1">80</text><text text-anchor="end" transform="translate(-7,72.23076923076921)" font-family="sans-serif" font-size="10px" fill="#000" opacity="1">100</text><text text-anchor="end" transform="translate(-7,26.076923076923062)" font-family="sans-serif" font-size="10px" fill="#000" opacity="1">120</text></g><g class="mark-rule role-axis-domain" pointer-events="none"><line transform="translate(0,300)" x2="0" y2="-300" stroke="#888" stroke-width="1" opacity="1"/></g><g class="mark-text role-axis-title" pointer-events="none"><text text-anchor="middle" transform="translate(-27.6845703125,150) rotate(-90) translate(0,-2)" font-family="sans-serif" font-size="11px" font-weight="bold" fill="#000" opacity="1">Unique Clones/day</text></g></g><path class="foreground" aria-hidden="true" d="" pointer-events="none" display="none"/></g></g><g class="mark-group role-scope pathgroup" role="graphics-object" aria-roledescription="group mark container"><g transform="translate(0,0)"><path class="background" aria-hidden="true" d="M0,0h800v300h-800Z"/><g><g class="mark-area role-mark marks" role="graphics-object" aria-roledescription="area mark container"><path aria-label="Date: Mar 23, 2026; Unique Clones/day: 0; Repository: justdavis-family/github-analytics-data" role="graphics-symbol" aria-roledescription="area mark" d="M0,297.692L9.412,300L18.824,300L28.235,300L37.647,300L47.059,300L56.471,300L65.882,300L75.294,300L84.706,297.692L94.118,300L103.529,297.692L112.941,120L122.353,230.769L131.765,258.462L141.176,124.615L150.588,283.846L160,274.615L169.412,279.231L178.824,274.615L188.235,235.385L197.647,4.615L207.059,272.308L216.471,260.769L225.882,270L235.294,281.538L244.706,270L254.118,272.308L263.529,265.385L272.941,263.077L282.353,272.308L291.765,219.231L301.176,258.462L310.588,219.231L320,270L329.412,281.538L338.824,274.615L348.235,267.692L357.647,267.692L367.059,230.769L376.471,267.692L385.882,276.923L395.294,279.231L404.706,276.923L414.118,290.769L423.529,270L432.941,274.615L442.353,223.846L451.765,267.692L461.176,288.462L470.588,230.769L480,249.231L489.412,272.308L498.824,267.692L508.235,267.692L517.647,228.462L527.059,265.385L536.471,286.154L545.882,263.077L555.294,279.231L564.706,270L574.118,267.692L583.529,103.846L592.941,92.308L602.353,73.846L611.765,265.385L621.176,290.769L630.588,276.923L640,228.462L649.412,281.538L658.824,274.615L668.235,276.923L677.647,228.462L687.059,286.154L696.471,274.615L705.882,244.615L715.294,276.923L724.706,258.462L734.118,270L743.529,295.385L752.941,272.308L762.353,272.308L771.765,276.923L781.176,270L790.588,281.538L800,272.308L800,290.769L790.588,293.077L781.176,295.385L771.765,290.769L762.353,293.077L752.941,290.769L743.529,297.692L734.118,286.154L724.706,270L715.294,293.077L705.882,267.692L696.471,281.538L687.059,297.692L677.647,244.615L668.235,295.385L658.824,295.385L649.412,293.077L640,244.615L630.588,297.692L621.176,295.385L611.765,276.923L602.353,90L592.941,106.154L583.529,120L574.118,295.385L564.706,297.692L555.294,295.385L545.882,276.923L536.471,295.385L527.059,279.231L517.647,256.154L508.235,297.692L498.824,293.077L489.412,290.769L480,265.385L470.588,253.846L461.176,295.385L451.765,293.077L442.353,240L432.941,295.385L423.529,293.077L414.118,297.692L404.706,297.692L395.294,297.692L385.882,295.385L376.471,286.154L367.059,249.231L357.647,283.846L348.235,295.385L338.824,297.692L329.412,297.692L320,297.692L310.588,258.462L301.176,293.077L291.765,246.923L282.353,297.692L272.941,295.385L263.529,293.077L254.118,297.692L244.706,297.692L235.294,293.077L225.882,295.385L216.471,290.769L207.059,297.692L197.647,16.154L188.235,263.077L178.824,293.077L169.412,295.385L160,290.769L150.588,295.385L141.176,184.615L131.765,258.462L122.353,230.769L112.941,120L103.529,297.692L94.118,300L84.706,297.692L75.294,300L65.882,300L56.471,300L47.059,300L37.647,300L28.235,300L18.824,300L9.412,300L0,297.692Z" fill="#4c78a8"/></g></g><path class="foreground" aria-hidden="true" d="" display="none"/></g><g transform="translate(0,0)"><path class="background" aria-hidden="true" d="M0,0h800v300h-800Z"/><g><g class="mark-area role-mark marks" role="graphics-object" aria-roledescription="area mark container"><path aria-label="Date: Mar 23, 2026; Unique Clones/day: 1; Repository: justdavis-family/justdavis" role="graphics-symbol" aria-roledescription="area mark" d="M0,297.692L9.412,300L18.824,300L28.235,300L37.647,300L47.059,300L56.471,300L65.882,300L75.294,300L84.706,297.692L94.118,300L103.529,297.692L112.941,120L122.353,230.769L131.765,258.462L141.176,184.615L150.588,295.385L160,290.769L169.412,295.385L178.824,293.077L188.235,263.077L197.647,16.154L207.059,297.692L216.471,290.769L225.882,295.385L235.294,293.077L244.706,297.692L254.118,297.692L263.529,293.077L272.941,295.385L282.353,297.692L291.765,246.923L301.176,293.077L310.588,258.462L320,297.692L329.412,297.692L338.824,297.692L348.235,295.385L357.647,283.846L367.059,249.231L376.471,286.154L385.882,295.385L395.294,297.692L404.706,297.692L414.118,297.692L423.529,293.077L432.941,295.385L442.353,240L451.765,293.077L461.176,295.385L470.588,253.846L480,265.385L489.412,290.769L498.824,293.077L508.235,297.692L517.647,256.154L527.059,279.231L536.471,295.385L545.882,276.923L555.294,295.385L564.706,297.692L574.118,295.385L583.529,120L592.941,106.154L602.353,90L611.765,276.923L621.176,295.385L630.588,297.692L640,244.615L649.412,293.077L658.824,295.385L668.235,295.385L677.647,244.615L687.059,297.692L696.471,281.538L705.882,267.692L715.294,293.077L724.706,270L734.118,286.154L743.529,297.692L752.941,290.769L762.353,293.077L771.765,290.769L781.176,295.385L790.588,293.077L800,290.769L800,300L790.588,300L781.176,300L771.765,300L762.353,300L752.941,300L743.529,300L734.118,300L724.706,300L715.294,300L705.882,300L696.471,300L687.059,300L677.647,300L668.235,300L658.824,300L649.412,300L640,300L630.588,300L621.176,300L611.765,300L602.353,300L592.941,300L583.529,300L574.118,300L564.706,300L555.294,300L545.882,300L536.471,300L527.059,300L517.647,300L508.235,300L498.824,300L489.412,300L480,300L470.588,300L461.176,300L451.765,300L442.353,300L432.941,300L423.529,300L414.118,300L404.706,300L395.294,300L385.882,300L376.471,300L367.059,300L357.647,300L348.235,300L338.824,300L329.412,300L320,300L310.588,300L301.176,300L291.765,300L282.353,300L272.941,300L263.529,300L254.118,300L244.706,300L235.294,300L225.882,300L216.471,300L207.059,300L197.647,300L188.235,300L178.824,300L169.412,300L160,300L150.588,300L141.176,300L131.765,300L122.353,300L112.941,300L103.529,300L94.118,300L84.706,300L75.294,300L65.882,300L56.471,300L47.059,300L37.647,300L28.235,300L18.824,300L9.412,300L0,300Z" fill="#f58518"/></g></g><path class="foreground" aria-hidden="true" d="" display="none"/></g></g><g class="mark-group role-legend" role="graphics-symbol" aria-roledescription="legend" aria-label="Symbol legend titled 'Repository' for fill color with 2 values: justdavis-family/github-analytics-data, justdavis-family/justdavis"><g transform="translate(818,0)"><path class="background" aria-hidden="true" d="M0,0h176v40h-176Z" pointer-events="none"/><g><g class="mark-group role-legend-entry"><g transform="translate(0,16)"><path class="background" aria-hidden="true" d="M0,0h0v0h0Z" pointer-events="none"/><g><g class="mark-group role-scope" role="graphics-object" aria-roledescription="group mark container"><g transform="translate(0,0)"><path class="background" aria-hidden="true" d="M0,0h176v11h-176Z" pointer-events="none" opacity="1"/><g><g class="mark-symbol role-legend-symbol" pointer-events="none"><path transform="translate(6,6)" d="M5,0A5,5,0,1,1,-5,0A5,5,0,1,1,5,0" fill="#4c78a8" stroke-width="1.5" opacity="1"/></g><g class="mark-text role-legend-label" pointer-events="none"><text text-anchor="start" transform="translate(16,9)" font-family="sans-serif" font-size="10px" fill="#000" opacity="1">justdavis-family/github-analytics-d…</text></g></g><path class="foreground" aria-hidden="true" d="" pointer-events="none" display="none"/></g><g transform="translate(0,13)"><path class="background" aria-hidden="true" d="M0,0h176v11h-176Z" pointer-events="none" opacity="1"/><g><g class="mark-symbol role-legend-symbol" pointer-events="none"><path transform="translate(6,6)" d="M5,0A5,5,0,1,1,-5,0A5,5,0,1,1,5,0" fill="#f58518" stroke-width="1.5" opacity="1"/></g><g class="mark-text role-legend-label" pointer-events="none"><text text-anchor="start" transform="translate(16,9)" font-family="sans-serif" font-size="10px" fill="#000" opacity="1">justdavis-family/justdavis</text></g></g><path class="foreground" aria-hidden="true" d="" pointer-events="none" display="none"/></g></g></g><path class="foreground" aria-hidden="true" d="" pointer-events="none" display="none"/></g></g><g class="mark-text role-legend-title" pointer-events="none"><text text-anchor="start" transform="translate(0,9)" font-family="sans-serif" font-size="11px" font-weight="bold" fill="#000" opacity="1">Repository</text></g></g><path class="foreground" aria-hidden="true" d="" pointer-events="none" display="none"/></g></g><g class="mark-group role-title"><g transform="translate(400,-17)"><path class="background" aria-hidden="true" d="M0,0h0v0h0Z" pointer-events="none"/><g><g class="mark-text role-title-text" role="graphics-symbol" aria-roledescription="title" aria-label="Title text 'Unique Clones per Day'" pointer-events="none"><text text-anchor="middle" transform="translate(0,10)" font-family="sans-serif" font-size="13px" font-weight="bold" fill="#000" opacity="1">Unique Clones per Day</text></g></g><path class="foreground" aria-hidden="true" d="" pointer-events="none" display="none"/></g></g></g><path class="foreground" aria-hidden="true" d="" display="none"/></g></g></g></svg>