<svg xmlns="http://www.w3.org/2000/svg" xmlns:xlink="http://www.w3.org/1999/xlink" version="1.1" class="marks" width="1032" height="436" viewBox="0 0 1032 436"><rect width="1032" height="436" fill="white"/><g fill="none" stroke-miterlimit="10" transform="translate(33,27)"><g class="mark-group role-frame root" role="graphics-object" aria-roledescription="group mark container"><g transform="translate(0,0)"><path class="background" aria-hidden="true" d="M0.5,0.5h800v300h-800Z" stroke="#ddd"/><g><g class="mark-group role-axis" aria-hidden="true"><g transform="translate(0.5,300.5)"><path class="background" aria-hidden="true" d="M0,0h0v0h0Z" pointer-events="none"/><g><g class="mark-rule role-axis-grid" pointer-events="none"><line transform="translate(20,-300)" x2="0" y2="300" stroke="#ddd" stroke-width="1" opacity="1"/><line transform="translate(59,-300)" x2="0" y2="300" stroke="#ddd" stroke-width="1" opacity="1"/><line transform="translate(98,-300)" x2="0" y2="300" stroke="#ddd" stroke-width="1" opacity="1"/><line transform="translate(137,-300)" x2="0" y2="300" stroke="#ddd" stroke-width="1" opacity="1"/><line transform="translate(176,-300)" x2="0" y2="300" stroke="#ddd" stroke-width="1" opacity="1"/><line transform="translate(215,-300)" x2="0" y2="300" stroke="#ddd" stroke-width="1" opacity="1"/><line transform="translate(254,-300)" x2="0" y2="300" stroke="#ddd" stroke-width="1" opacity="1"/><line transform="translate(293,-300)" x2="0" y2="300" stroke="#ddd" stroke-width="1" opacity="1"/><line transform="translate(312,-300)" x2="0" y2="300" stroke="#ddd" stroke-width="1" opacity="1"/><line transform="translate(351,-300)" x2="0" y2="300" stroke="#ddd" stroke-width="1" opacity="1"/><line transform="translate(390,-300)" x2="0" y2="300" stroke="#ddd" stroke-width="1" opacity="1"/><line transform="translate(429,-300)" x2="0" y2="300" stroke="#ddd" stroke-width="1" opacity="1"/><line transform="translate(468,-300)" x2="0" y2="300" stroke="#ddd" stroke-width="1" opacity="1"/><line transform="translate(507,-300)" x2="0" y2="300" stroke="#ddd" stroke-width="1" opacity="1"/><line transform="translate(546,-300)" x2="0" y2="300" stroke="#ddd" stroke-width="1" opacity="1"/><line transform="translate(585,-300)" x2="0" y2="300" stroke="#ddd" stroke-width="1" opacity="1"/><line transform="translate(624,-300)" x2="0" y2="300" stroke="#ddd" stroke-width="1" opacity="1"/><line transform="translate(663,-300)" x2="0" y2="300" stroke="#ddd" stroke-width="1" opacity="1"/><line transform="translate(702,-300)" x2="0" y2="300" stroke="#ddd" stroke-width="1" opacity="1"/><line transform="translate(741,-300)" x2="0" y2="300" stroke="#ddd" stroke-width="1" opacity="1"/><line transform="translate(780,-300)" x2="0" y2="300" stroke="#ddd" stroke-width="1" opacity="1"/></g></g><path class="foreground" aria-hidden="true" d="" pointer-events="none" display="none"/></g></g><g class="mark-group role-axis" aria-hidden="true"><g transform="translate(0.5,0.5)"><path class="background" aria-hidden="true" d="M0,0h0v0h0Z" pointer-events="none"/><g><g class="mark-rule role-axis-grid" pointer-events="none"><line transform="translate(0,300)" x2="800" y2="0" stroke="#ddd" stroke-width="1" opacity="1"/><line transform="translate(0,257)" x2="800" y2="0" stroke="#ddd" stroke-width="1" opacity="1"/><line transform="translate(0,214)" x2="800" y2="0" stroke="#ddd" stroke-width="1" opacity="1"/><line transform="translate(0,171)" x2="800" y2="0" stroke="#ddd" stroke-width="1" opacity="1"/><line transform="translate(0,129)" x2="800" y2="0" stroke="#ddd" stroke-width="1" opacity="1"/><line transform="translate(0,86)" x2="800" y2="0" stroke="#ddd" stroke-width="1" opacity="1"/><line transform="translate(0,43)" x2="800" y2="0" stroke="#ddd" stroke-width="1" opacity="1"/><line transform="translate(0,0)" x2="800" y2="0" stroke="#ddd" stroke-width="1" opacity="1"/></g></g><path class="foreground" aria-hidden="true" d="" pointer-events="none" display="none"/></g></g><g class="mark-group role-axis" role="graphics-symbol" aria-roledescription="axis" aria-label="X-axis titled 'Date' for a time scale with values from Monday, 16 March 2026, 12:00:00 AM to Sunday, 26 April 2026, 12:00:00 AM"><g transform="translate(0.5,300.5)"><path class="background" aria-hidden="true" d="M0,0h0v0h0Z" pointer-events="none"/><g><g class="mark-rule role-axis-tick" pointer-events="none"><line transform="translate(20,0)" x2="0" y2="5" stroke="#888" stroke-width="1" opacity="1"/><line transform="translate(59,0)" x2="0" y2="5" stroke="#888" stroke-width="1" opacity="1"/><line transform="translate(98,0)" x2="0" y2="5" stroke="#888" stroke-width="1" opacity="1"/><line transform="translate(137,0)" x2="0" y2="5" stroke="#888" stroke-width="1" opacity="1"/><line transform="translate(176,0)" x2="0" y2="5" stroke="#888" stroke-width="1" opacity="1"/><line transform="translate(215,0)" x2="0" y2="5" stroke="#888" stroke-width="1" opacity="1"/><line transform="translate(254,0)" x2="0" y2="5" stroke="#888" stroke-width="1" opacity="1"/><line transform="translate(293,0)" x2="0" y2="5" stroke="#888" stroke-width="1" opacity="1"/><line transform="translate(312,0)" x2="0" y2="5" stroke="#888" stroke-width="1" opacity="1"/><line transform="translate(351,0)" x2="0" y2="5" stroke="#888" stroke-width="1" opacity="1"/><line transform="translate(390,0)" x2="0" y2="5" stroke="#888" stroke-width="1" opacity="1"/><line transform="translate(429,0)" x2="0" y2="5" stroke="#888" stroke-width="1" opacity="1"/><line transform="translate(468,0)" x2="0" y2="5" stroke="#888" stroke-width="1" opacity="1"/><line transform="translate(507,0)" x2="0" y2="5" stroke="#888" stroke-width="1" opacity="1"/><line transform="translate(546,0)" x2="0" y2="5" stroke="#888" stroke-width="1" opacity="1"/><line transform="translate(585,0)" x2="0" y2="5" stroke="#888" stroke-width="1" opacity="1"/><line transform="translate(624,0)" x2="0" y2="5" stroke="#888" stroke-width="1" opacity="1"/><line transform="translate(663,0)" x2="0" y2="5" stroke="#888" stroke-width="1" opacity="1"/><line transform="translate(702,0)" x2="0" y2="5" stroke="#888" stroke-width="1" opacity="1"/><line transform="translate(741,0)" x2="0" y2="5" stroke="#888" stroke-width="1" opacity="1"/><line transform="translate(780,0)" x2="0" y2="5" stroke="#888" stroke-width="1" opacity="1"/></g><g class="mark-text role-axis-label" pointer-events="none"><text text-anchor="middle" transform="translate(19.51219512195122,15)" font-family="sans-serif" font-size="10px" fill="#000" opacity="1">Tue 17</text><text text-anchor="middle" transform="translate(58.536585365853654,15)" font-family="sans-serif" font-size="10px" fill="#000" opacity="0">Thu 19</text><text text-anchor="middle" transform="translate(97.5609756097561,15)" font-family="sans-serif" font-size="10px" fill="#000" opacity="1">Sat 21</text><text text-anchor="middle" transform="translate(136.58536585365854,15)" font-family="sans-serif" font-size="10px" fill="#000" opacity="0">Mon 23</text><text text-anchor="middle" transform="translate(175.609756097561,15)" font-family="sans-serif" font-size="10px" fill="#000" opacity="1">Wed 25</text><text text-anchor="middle" transform="translate(214.63414634146343,15)" font-family="sans-serif" font-size="10px" fill="#000" opacity="0">Fri 27</text><text text-anchor="middle" transform="translate(253.65853658536585,15)" font-family="sans-serif" font-size="10px" fill="#000" opacity="1">Mar 29</text><text text-anchor="middle" transform="translate(292.6829268292683,15)" font-family="sans-serif" font-size="10px" fill="#000" opacity="0">Tue 31</text><text text-anchor="middle" transform="translate(312.1951219512195,15)" font-family="sans-serif" font-size="10px" fill="#000" opacity="1">April</text><text text-anchor="middle" transform="translate(351.219512195122,15)" font-family="sans-serif" font-size="10px" fill="#000" opacity="0">Fri 03</text><text text-anchor="middle" transform="translate(390.2439024390244,15)" font-family="sans-serif" font-size="10px" fill="#000" opacity="1">Apr 05</text><text text-anchor="middle" transform="translate(429.26829268292687,15)" font-family="sans-serif" font-size="10px" fill="#000" opacity="0">Tue 07</text><text text-anchor="middle" transform="translate(468.29268292682923,15)" font-family="sans-serif" font-size="10px" fill="#000" opacity="1">Thu 09</text><text text-anchor="middle" transform="translate(507.3170731707317,15)" font-family="sans-serif" font-size="10px" fill="#000" opacity="0">Sat 11</text><text text-anchor="middle" transform="translate(546.3414634146342,15)" font-family="sans-serif" font-size="10px" fill="#000" opacity="1">Mon 13</text><text text-anchor="middle" transform="translate(585.3658536585366,15)" font-family="sans-serif" font-size="10px" fill="#000" opacity="0">Wed 15</text><text text-anchor="middle" transform="translate(624.390243902439,15)" font-family="sans-serif" font-size="10px" fill="#000" opacity="1">Fri 17</text><text text-anchor="middle" transform="translate(663.4146341463414,15)" font-family="sans-serif" font-size="10px" fill="#000" opacity="0">Apr 19</text><text text-anchor="middle" transform="translate(702.439024390244,15)" font-family="sans-serif" font-size="10px" fill="#000" opacity="1">Tue 21</text><text text-anchor="middle" transform="translate(741.4634146341464,15)" font-family="sans-serif" font-size="10px" fill="#000" opacity="0">Thu 23</text><text text-anchor="middle" transform="translate(780.4878048780488,15)" font-family="sans-serif" font-size="10px" fill="#000" opacity="1">Sat 25</text></g><g class="mark-rule role-axis-domain" pointer-events="none"><line transform="translate(0,0)" x2="800" y2="0" stroke="#888" stroke-width="1" opacity="1"/></g><g class="mark-text role-axis-title" pointer-events="none"><text text-anchor="middle" transform="translate(400,30)" font-family="sans-serif" font-size="11px" font-weight="bold" fill="#000" opacity="1">Date</text></g></g><path class="foreground" aria-hidden="true" d="" pointer-events="none" display="none"/></g></g><g class="mark-group role-axis" role="graphics-symbol" aria-roledescription="axis" aria-label="Y-axis titled 'Unique Visitors/day' for a linear scale with values from 0 to 7"><g transform="translate(0.5,0.5)"><path class="background" aria-hidden="true" d="M0,0h0v0h0Z" pointer-events="none"/><g><g class="mark-rule role-axis-tick" pointer-events="none"><line transform="translate(0,300)" x2="-5" y2="0" stroke="#888" stroke-width="1" opacity="1"/><line transform="translate(0,257)" x2="-5" y2="0" stroke="#888" stroke-width="1" opacity="1"/><line transform="translate(0,214)" x2="-5" y2="0" stroke="#888" stroke-width="1" opacity="1"/><line transform="translate(0,171)" x2="-5" y2="0" stroke="#888" stroke-width="1" opacity="1"/><line transform="translate(0,129)" x2="-5" y2="0" stroke="#888" stroke-width="1" opacity="1"/><line transform="translate(0,86)" x2="-5" y2="0" stroke="#888" stroke-width="1" opacity="1"/><line transform="translate(0,43)" x2="-5" y2="0" stroke="#888" stroke-width="1" opacity="1"/><line transform="translate(0,0)" x2="-5" y2="0" stroke="#888" stroke-width="1" opacity="1"/></g><g class="mark-text role-axis-label" pointer-events="none"><text text-anchor="end" transform="translate(-7,303)" font-family="sans-serif" font-size="10px" fill="#000" opacity="1">0</text><text text-anchor="end" transform="translate(-7,260.14285714285717)" font-family="sans-serif" font-size="10px" fill="#000" opacity="1">1</text><text text-anchor="end" transform="translate(-7,217.28571428571428)" font-family="sans-serif" font-size="10px" fill="#000" opacity="1">2</text><text text-anchor="end" transform="translate(-7,174.42857142857142)" font-family="sans-serif" font-size="10px" fill="#000" opacity="1">3</text><text text-anchor="end" transform="translate(-7,131.57142857142858)" font-family="sans-serif" font-size="10px" fill="#000" opacity="1">4</text><text text-anchor="end" transform="translate(-7,88.71428571428571)" font-family="sans-serif" font-size="10px" fill="#000" opacity="1">5</text><text text-anchor="end" transform="translate(-7,45.85714285714287)" font-family="sans-serif" font-size="10px" fill="#000" opacity="1">6</text><text text-anchor="end" transform="translate(-7,3)" font-family="sans-serif" font-size="10px" fill="#000" opacity="1">7</text></g><g class="mark-rule role-axis-domain" pointer-events="none"><line transform="translate(0,300)" x2="0" y2="-300" stroke="#888" stroke-width="1" opacity="1"/></g><g class="mark-text role-axis-title" pointer-events="none"><text text-anchor="middle" transform="translate(-16.5615234375,150) rotate(-90) translate(0,-2)" font-family="sans-serif" font-size="11px" font-weight="bold" fill="#000" opacity="1">Unique Visitors/day</text></g></g><path class="foreground" aria-hidden="true" d="" pointer-events="none" display="none"/></g></g><g class="mark-group role-scope pathgroup" role="graphics-object" aria-roledescription="group mark container"><g transform="translate(0,0)"><path class="background" aria-hidden="true" d="M0,0h800v300h-800Z"/><g><g class="mark-area role-mark marks" role="graphics-object" aria-roledescription="area mark container"><path aria-label="Date: Mar 16, 2026; Unique Visitors/day: 0; Repository: karlmdavis/FHIR-Server" role="graphics-symbol" aria-roledescription="area mark" d="M0,300L19.512,300L39.024,300L58.537,300L78.049,300L97.561,300L117.073,300L136.585,171.429L156.098,171.429L175.61,128.571L195.122,171.429L214.634,171.429L234.146,171.429L253.659,257.143L273.171,0L292.683,257.143L312.195,128.571L331.707,257.143L351.22,300L370.732,214.286L390.244,257.143L409.756,300L429.268,257.143L448.78,257.143L468.293,257.143L487.805,214.286L507.317,300L526.829,42.857L546.341,300L565.854,257.143L585.366,171.429L604.878,300L624.39,214.286L643.902,300L663.415,257.143L682.927,171.429L702.439,171.429L721.951,171.429L741.463,214.286L760.976,214.286L780.488,257.143L800,300L800,300L780.488,257.143L760.976,214.286L741.463,214.286L721.951,171.429L702.439,171.429L682.927,171.429L663.415,257.143L643.902,300L624.39,214.286L604.878,300L585.366,171.429L565.854,257.143L546.341,300L526.829,42.857L507.317,300L487.805,214.286L468.293,257.143L448.78,257.143L429.268,257.143L409.756,300L390.244,257.143L370.732,214.286L351.22,300L331.707,257.143L312.195,128.571L292.683,257.143L273.171,0L253.659,257.143L234.146,171.429L214.634,171.429L195.122,171.429L175.61,128.571L156.098,171.429L136.585,171.429L117.073,300L97.561,300L78.049,300L58.537,300L39.024,300L19.512,300L0,300Z" fill="#4c78a8"/></g></g><path class="foreground" aria-hidden="true" d="" display="none"/></g><g transform="translate(0,0)"><path class="background" aria-hidden="true" d="M0,0h800v300h-800Z"/><g><g class="mark-area role-mark marks" role="graphics-object" aria-roledescription="area mark container"><path aria-label="Date: Mar 16, 2026; Unique Visitors/day: 0; Repository: karlmdavis/ansible" role="graphics-symbol" aria-roledescription="area mark" d="M0,300L19.512,300L39.024,300L58.537,300L78.049,300L97.561,300L117.073,300L136.585,171.429L156.098,171.429L175.61,128.571L195.122,171.429L214.634,171.429L234.146,171.429L253.659,257.143L273.171,0L292.683,257.143L312.195,128.571L331.707,257.143L351.22,300L370.732,214.286L390.244,257.143L409.756,300L429.268,257.143L448.78,257.143L468.293,257.143L487.805,214.286L507.317,300L526.829,42.857L546.341,300L565.854,257.143L585.366,171.429L604.878,300L624.39,214.286L643.902,300L663.415,257.143L682.927,171.429L702.439,171.429L721.951,171.429L741.463,214.286L760.976,214.286L780.488,257.143L800,300L800,300L780.488,257.143L760.976,214.286L741.463,214.286L721.951,171.429L702.439,171.429L682.927,171.429L663.415,257.143L643.902,300L624.39,214.286L604.878,300L585.366,171.429L565.854,257.143L546.341,300L526.829,42.857L507.317,300L487.805,214.286L468.293,257.143L448.78,257.143L429.268,257.143L409.756,300L390.244,257.143L370.732,214.286L351.22,300L331.707,257.143L312.195,128.571L292.683,257.143L273.171,0L253.659,257.143L234.146,171.429L214.634,171.429L195.122,171.429L175.61,128.571L156.098,171.429L136.585,171.429L117.073,300L97.561,300L78.049,300L58.537,300L39.024,300L19.512,300L0,300Z" fill="#f58518"/></g></g><path class="foreground" aria-hidden="true" d="" display="none"/></g><g transform="translate(0,0)"><path class="background" aria-hidden="true" d="M0,0h800v300h-800Z"/><g><g class="mark-area role-mark marks" role="graphics-object" aria-roledescription="area mark container"><path aria-label="Date: Mar 16, 2026; Unique Visitors/day: 0; Repository: karlmdavis/ansible-jenkins" role="graphics-symbol" aria-roledescription="area mark" d="M0,300L19.512,300L39.024,300L58.537,300L78.049,300L97.561,300L117.073,300L136.585,171.429L156.098,171.429L175.61,128.571L195.122,171.429L214.634,171.429L234.146,171.429L253.659,257.143L273.171,0L292.683,257.143L312.195,128.571L331.707,257.143L351.22,300L370.732,214.286L390.244,257.143L409.756,300L429.268,257.143L448.78,257.143L468.293,257.143L487.805,214.286L507.317,300L526.829,42.857L546.341,300L565.854,257.143L585.366,171.429L604.878,300L624.39,214.286L643.902,300L663.415,257.143L682.927,171.429L702.439,171.429L721.951,171.429L741.463,214.286L760.976,214.286L780.488,257.143L800,300L800,300L780.488,257.143L760.976,214.286L741.463,214.286L721.951,171.429L702.439,171.429L682.927,171.429L663.415,257.143L643.902,300L624.39,214.286L604.878,300L585.366,171.429L565.854,257.143L546.341,300L526.829,42.857L507.317,300L487.805,214.286L468.293,257.143L448.78,257.143L429.268,257.143L409.756,300L390.244,257.143L370.732,214.286L351.22,300L331.707,257.143L312.195,128.571L292.683,257.143L273.171,0L253.659,257.143L234.146,171.429L214.634,171.429L195.122,171.429L175.61,128.571L156.098,171.429L136.585,171.429L117.073,300L97.561,300L78.049,300L58.537,300L39.024,300L19.512,300L0,300Z" fill="#e45756"/></g></g><path class="foreground" aria-hidden="true" d="" display="none"/></g><g transform="translate(0,0)"><path class="background" aria-hidden="true" d="M0,0h800v300h-800Z"/><g><g class="mark-area role-mark marks" role="graphics-object" aria-roledescription="area mark container"><path aria-label="Date: Mar 16, 2026; Unique Visitors/day: 0; Repository: karlmdavis/ansible-role-acmetool" role="graphics-symbol" aria-roledescription="area mark" d="M0,300L19.512,300L39.024,300L58.537,300L78.049,300L97.561,300L117.073,300L136.585,171.429L156.098,171.429L175.61,128.571L195.122,171.429L214.634,171.429L234.146,171.429L253.659,257.143L273.171,0L292.683,257.143L312.195,128.571L331.707,257.143L351.22,300L370.732,214.286L390.244,257.143L409.756,300L429.268,257.143L448.78,257.143L468.293,257.143L487.805,214.286L507.317,300L526.829,42.857L546.341,300L565.854,257.143L585.366,171.429L604.878,300L624.39,214.286L643.902,300L663.415,257.143L682.927,171.429L702.439,171.429L721.951,171.429L741.463,214.286L760.976,214.286L780.488,257.143L800,300L800,300L780.488,257.143L760.976,214.286L741.463,214.286L721.951,171.429L702.439,171.429L682.927,171.429L663.415,257.143L643.902,300L624.39,214.286L604.878,300L585.366,171.429L565.854,257.143L546.341,300L526.829,42.857L507.317,300L487.805,214.286L468.293,257.143L448.78,257.143L429.268,257.143L409.756,300L390.244,257.143L370.732,214.286L351.22,300L331.707,257.143L312.195,128.571L292.683,257.143L273.171,0L253.659,257.143L234.146,171.429L214.634,171.429L195.122,171.429L175.61,128.571L156.098,171.429L136.585,171.429L117.073,300L97.561,300L78.049,300L58.537,300L39.024,300L19.512,300L0,300Z" fill="#72b7b2"/></g></g><path class="foreground" aria-hidden="true" d="" display="none"/></g><g transform="translate(0,0)"><path class="background" aria-hidden="true" d="M0,0h800v300h-800Z"/><g><g class="mark-area role-mark marks" role="graphics-object" aria-roledescription="area mark container"><path aria-label="Date: Mar 16, 2026; Unique Visitors/day: 0; Repository: karlmdavis/ansible-role-bind-dns" role="graphics-symbol" aria-roledescription="area mark" d="M0,300L19.512,300L39.024,300L58.537,300L78.049,300L97.561,300L117.073,300L136.585,171.429L156.098,171.429L175.61,128.571L195.122,171.429L214.634,171.429L234.146,171.429L253.659,257.143L273.171,0L292.683,257.143L312.195,128.571L331.707,257.143L351.22,300L370.732,214.286L390.244,257.143L409.756,300L429.268,257.143L448.78,257.143L468.293,257.143L487.805,214.286L507.317,300L526.829,42.857L546.341,300L565.854,257.143L585.366,171.429L604.878,300L624.39,214.286L643.902,300L663.415,257.143L682.927,171.429L702.439,171.429L721.951,171.429L741.463,214.286L760.976,214.286L780.488,257.143L800,300L800,300L780.488,257.143L760.976,214.286L741.463,214.286L721.951,171.429L702.439,171.429L682.927,171.429L663.415,300L643.902,300L624.39,214.286L604.878,300L585.366,214.286L565.854,257.143L546.341,300L526.829,42.857L507.317,300L487.805,214.286L468.293,257.143L448.78,257.143L429.268,257.143L409.756,300L390.244,257.143L370.732,257.143L351.22,300L331.707,257.143L312.195,128.571L292.683,257.143L273.171,0L253.659,257.143L234.146,214.286L214.634,171.429L195.122,171.429L175.61,171.429L156.098,171.429L136.585,171.429L117.073,300L97.561,300L78.049,300L58.537,300L39.024,300L19.512,300L0,300Z" fill="#54a24b"/></g></g><path class="foreground" aria-hidden="true" d="" display="none"/></g><g transform="translate(0,0)"><path class="background" aria-hidden="true" d="M0,0h800v300h-800Z"/><g><g class="mark-area role-mark marks" role="graphics-object" aria-roledescription="area mark container"><path aria-label="Date: Mar 16, 2026; Unique Visitors/day: 0; Repository: karlmdavis/ansible-role-jenkins2" role="graphics-symbol" aria-roledescription="area mark" d="M0,300L19.512,300L39.024,300L58.537,300L78.049,300L97.561,300L117.073,300L136.585,171.429L156.098,171.429L175.61,171.429L195.122,171.429L214.634,171.429L234.146,214.286L253.659,257.143L273.171,0L292.683,257.143L312.195,128.571L331.707,257.143L351.22,300L370.732,257.143L390.244,257.143L409.756,300L429.268,257.143L448.78,257.143L468.293,257.143L487.805,214.286L507.317,300L526.829,42.857L546.341,300L565.854,257.143L585.366,214.286L604.878,300L624.39,214.286L643.902,300L663.415,300L682.927,171.429L702.439,171.429L721.951,171.429L741.463,214.286L760.976,214.286L780.488,257.143L800,300L800,300L780.488,257.143L760.976,214.286L741.463,214.286L721.951,171.429L702.439,171.429L682.927,214.286L663.415,300L643.902,300L624.39,214.286L604.878,300L585.366,214.286L565.854,257.143L546.341,300L526.829,85.714L507.317,300L487.805,214.286L468.293,257.143L448.78,257.143L429.268,257.143L409.756,300L390.244,257.143L370.732,257.143L351.22,300L331.707,257.143L312.195,128.571L292.683,257.143L273.171,42.857L253.659,300L234.146,214.286L214.634,171.429L195.122,171.429L175.61,171.429L156.098,171.429L136.585,171.429L117.073,300L97.561,300L78.049,300L58.537,300L39.024,300L19.512,300L0,300Z" fill="#eeca3b"/></g></g><path class="foreground" aria-hidden="true" d="" display="none"/></g><g transform="translate(0,0)"><path class="background" aria-hidden="true" d="M0,0h800v300h-800Z"/><g><g class="mark-area role-mark marks" role="graphics-object" aria-roledescription="area mark container"><path aria-label="Date: Mar 16, 2026; Unique Visitors/day: 0; Repository: karlmdavis/ansible-role-ldap" role="graphics-symbol" aria-roledescription="area mark" d="M0,300L19.512,300L39.024,300L58.537,300L78.049,300L97.561,300L117.073,300L136.585,171.429L156.098,171.429L175.61,171.429L195.122,171.429L214.634,171.429L234.146,214.286L253.659,300L273.171,42.857L292.683,257.143L312.195,128.571L331.707,257.143L351.22,300L370.732,257.143L390.244,257.143L409.756,300L429.268,257.143L448.78,257.143L468.293,257.143L487.805,214.286L507.317,300L526.829,85.714L546.341,300L565.854,257.143L585.366,214.286L604.878,300L624.39,214.286L643.902,300L663.415,300L682.927,214.286L702.439,171.429L721.951,171.429L741.463,214.286L760.976,214.286L780.488,257.143L800,300L800,300L780.488,257.143L760.976,214.286L741.463,214.286L721.951,171.429L702.439,171.429L682.927,214.286L663.415,300L643.902,300L624.39,214.286L604.878,300L585.366,214.286L565.854,257.143L546.341,300L526.829,85.714L507.317,300L487.805,214.286L468.293,257.143L448.78,257.143L429.268,257.143L409.756,300L390.244,257.143L370.732,257.143L351.22,300L331.707,257.143L312.195,128.571L292.683,257.143L273.171,42.857L253.659,300L234.146,214.286L214.634,171.429L195.122,171.429L175.61,171.429L156.098,171.429L136.585,171.429L117.073,300L97.561,300L78.049,300L58.537,300L39.024,300L19.512,300L0,300Z" fill="#b279a2"/></g></g><path class="foreground" aria-hidden="true" d="" display="none"/></g><g transform="translate(0,0)"><path class="background" aria-hidden="true" d="M0,0h800v300h-800Z"/><g><g class="mark-area role-mark marks" role="graphics-object" aria-roledescription="area mark container"><path aria-label="Date: Mar 16, 2026; Unique Visitors/day: 0; Repository: karlmdavis/ansible-role-rcm-dotfiles" role="graphics-symbol" aria-roledescription="area mark" d="M0,300L19.512,300L39.024,300L58.537,300L78.049,300L97.561,300L117.073,300L136.585,171.429L156.098,171.429L175.61,171.429L195.122,171.429L214.634,171.429L234.146,214.286L253.659,300L273.171,42.857L292.683,257.143L312.195,128.571L331.707,257.143L351.22,300L370.732,257.143L390.244,257.143L409.756,300L429.268,257.143L448.78,257.143L468.293,257.143L487.805,214.286L507.317,300L526.829,85.714L546.341,300L565.854,257.143L585.366,214.286L604.878,300L624.39,214.286L643.902,300L663.415,300L682.927,214.286L702.439,171.429L721.951,171.429L741.463,214.286L760.976,214.286L780.488,257.143L800,300L800,300L780.488,257.143L760.976,214.286L741.463,214.286L721.951,171.429L702.439,214.286L682.927,214.286L663.415,300L643.902,300L624.39,214.286L604.878,300L585.366,214.286L565.854,257.143L546.341,300L526.829,85.714L507.317,300L487.805,214.286L468.293,257.143L448.78,257.143L429.268,257.143L409.756,300L390.244,257.143L370.732,257.143L351.22,300L331.707,257.143L312.195,128.571L292.683,257.143L273.171,42.857L253.659,300L234.146,214.286L214.634,171.429L195.122,171.429L175.61,171.429L156.098,171.429L136.585,171.429L117.073,300L97.561,300L78.049,300L58.537,300L39.024,300L19.512,300L0,300Z" fill="#ff9da6"/></g></g><path class="foreground" aria-hidden="true" d="" display="none"/></g><g transform="translate(0,0)"><path class="background" aria-hidden="true" d="M0,0h800v300h-800Z"/><g><g class="mark-area role-mark marks" role="graphics-object" aria-roledescription="area mark container"><path aria-label="Date: Mar 16, 2026; Unique Visitors/day: 0; Repository: karlmdavis/ansible-roles" role="graphics-symbol" aria-roledescription="area mark" d="M0,300L19.512,300L39.024,300L58.537,300L78.049,300L97.561,300L117.073,300L136.585,171.429L156.098,171.429L175.61,171.429L195.122,171.429L214.634,171.429L234.146,214.286L253.659,300L273.171,42.857L292.683,257.143L312.195,128.571L331.707,257.143L351.22,300L370.732,257.143L390.244,257.143L409.756,300L429.268,257.143L448.78,257.143L468.293,257.143L487.805,214.286L507.317,300L526.829,85.714L546.341,300L565.854,257.143L585.366,214.286L604.878,300L624.39,214.286L643.902,300L663.415,300L682.927,214.286L702.439,214.286L721.951,171.429L741.463,214.286L760.976,214.286L780.488,257.143L800,300L800,300L780.488,257.143L760.976,214.286L741.463,214.286L721.951,171.429L702.439,214.286L682.927,214.286L663.415,300L643.902,300L624.39,214.286L604.878,300L585.366,214.286L565.854,257.143L546.341,300L526.829,85.714L507.317,300L487.805,214.286L468.293,257.143L448.78,257.143L429.268,257.143L409.756,300L390.244,257.143L370.732,257.143L351.22,300L331.707,257.143L312.195,128.571L292.683,257.143L273.171,42.857L253.659,300L234.146,214.286L214.634,171.429L195.122,171.429L175.61,171.429L156.098,171.429L136.585,171.429L117.073,300L97.561,300L78.049,300L58.537,300L39.024,300L19.512,300L0,300Z" fill="#9d755d"/></g></g><path class="foreground" aria-hidden="true" d="" display="none"/></g><g transform="translate(0,0)"><path class="background" aria-hidden="true" d="M0,0h800v300h-800Z"/><g><g class="mark-area role-mark marks" role="graphics-object" aria-roledescription="area mark container"><path aria-label="Date: Mar 16, 2026; Unique Visitors/day: 0; Repository: karlmdavis/bbonfhir-dev-infra-docker" role="graphics-symbol" aria-roledescription="area mark" d="M0,300L19.512,300L39.024,300L58.537,300L78.049,300L97.561,300L117.073,300L136.585,171.429L156.098,171.429L175.61,171.429L195.122,171.429L214.634,171.429L234.146,214.286L253.659,300L273.171,42.857L292.683,257.143L312.195,128.571L331.707,257.143L351.22,300L370.732,257.143L390.244,257.143L409.756,300L429.268,257.143L448.78,257.143L468.293,257.143L487.805,214.286L507.317,300L526.829,85.714L546.341,300L565.854,257.143L585.366,214.286L604.878,300L624.39,214.286L643.902,300L663.415,300L682.927,214.286L702.439,214.286L721.951,171.429L741.463,214.286L760.976,214.286L780.488,257.143L800,300L800,300L780.488,257.143L760.976,214.286L741.463,214.286L721.951,171.429L702.439,214.286L682.927,214.286L663.415,300L643.902,300L624.39,214.286L604.878,300L585.366,214.286L565.854,257.143L546.341,300L526.829,85.714L507.317,300L487.805,214.286L468.293,257.143L448.78,257.143L429.268,257.143L409.756,300L390.244,257.143L370.732,257.143L351.22,300L331.707,257.143L312.195,128.571L292.683,257.143L273.171,42.857L253.659,300L234.146,214.286L214.634,171.429L195.122,171.429L175.61,171.429L156.098,171.429L136.585,171.429L117.073,300L97.561,300L78.049,300L58.537,300L39.024,300L19.512,300L0,300Z" fill="#bab0ac"/></g></g><path class="foreground" aria-hidden="true" d="" display="none"/></g><g transform="translate(0,0)"><path class="background" aria-hidden="true" d="M0,0h800v300h-800Z"/><g><g class="mark-area role-mark marks" role="graphics-object" aria-roledescription="area mark container"><path aria-label="Date: Mar 16, 2026; Unique Visitors/day: 0; Repository: karlmdavis/can-i-kayak-baltimore" role="graphics-symbol" aria-roledescription="area mark" d="M0,300L19.512,300L39.024,300L58.537,300L78.049,300L97.561,300L117.073,300L136.585,171.429L156.098,171.429L175.61,171.429L195.122,171.429L214.634,171.429L234.146,214.286L253.659,300L273.171,42.857L292.683,257.143L312.195,128.571L331.707,257.143L351.22,300L370.732,257.143L390.244,257.143L409.756,300L429.268,257.143L448.78,257.143L468.293,257.143L487.805,214.286L507.317,300L526.829,85.714L546.341,300L565.854,257.143L585.366,214.286L604.878,300L624.39,214.286L643.902,300L663.415,300L682.927,214.286L702.439,214.286L721.951,171.429L741.463,214.286L760.976,214.286L780.488,257.143L800,300L800,300L780.488,257.143L760.976,214.286L741.463,214.286L721.951,171.429L702.439,214.286L682.927,214.286L663.415,300L643.902,300L624.39,214.286L604.878,300L585.366,214.286L565.854,257.143L546.341,300L526.829,85.714L507.317,300L487.805,214.286L468.293,257.143L448.78,257.143L429.268,257.143L409.756,300L390.244,257.143L370.732,257.143L351.22,300L331.707,257.143L312.195,128.571L292.683,257.143L273.171,42.857L253.659,300L234.146,214.286L214.634,171.429L195.122,171.429L175.61,171.429L156.098,171.429L136.585,171.429L117.073,300L97.561,300L78.049,300L58.537,300L39.024,300L19.512,300L0,300Z" fill="#4c78a8"/></g></g><path class="foreground" aria-hidden="true" d="" display="none"/></g><g transform="translate(0,0)"><path class="background" aria-hidden="true" d="M0,0h800v300h-800Z"/><g><g class="mark-area role-mark marks" role="graphics-object" aria-roledescription="area mark container"><path aria-label="Date: Mar 16, 2026; Unique Visitors/day: 0; Repository: karlmdavis/datanucleus-test-jdo-1-to-n" role="graphics-symbol" aria-roledescription="area mark" d="M0,300L19.512,300L39.024,300L58.537,300L78.049,300L97.561,300L117.073,300L136.585,171.429L156.098,171.429L175.61,171.429L195.122,171.429L214.634,171.429L234.146,214.286L253.659,300L273.171,42.857L292.683,257.143L312.195,128.571L331.707,257.143L351.22,300L370.732,257.143L390.244,257.143L409.756,300L429.268,257.143L448.78,257.143L468.293,257.143L487.805,214.286L507.317,300L526.829,85.714L546.341,300L565.854,257.143L585.366,214.286L604.878,300L624.39,214.286L643.902,300L663.415,300L682.927,214.286L702.439,214.286L721.951,171.429L741.463,214.286L760.976,214.286L780.488,257.143L800,300L800,300L780.488,257.143L760.976,214.286L741.463,214.286L721.951,171.429L702.439,214.286L682.927,214.286L663.415,300L643.902,300L624.39,214.286L604.878,300L585.366,214.286L565.854,257.143L546.341,300L526.829,85.714L507.317,300L487.805,214.286L468.293,257.143L448.78,257.143L429.268,257.143L409.756,300L390.244,257.143L370.732,257.143L351.22,300L331.707,257.143L312.195,128.571L292.683,257.143L273.171,42.857L253.659,300L234.146,214.286L214.634,171.429L195.122,171.429L175.61,171.429L156.098,171.429L136.585,171.429L117.073,300L97.561,300L78.049,300L58.537,300L39.024,300L19.512,300L0,300Z" fill="#f58518"/></g></g><path class="foreground" aria-hidden="true" d="" display="none"/></g><g transform="translate(0,0)"><path class="background" aria-hidden="true" d="M0,0h800v300h-800Z"/><g><g class="mark-area role-mark marks" role="graphics-object" aria-roledescription="area mark container"><path aria-label="Date: Mar 16, 2026; Unique Visitors/day: 0; Repository: karlmdavis/dotfiles" role="graphics-symbol" aria-roledescription="area mark" d="M0,300L19.512,300L39.024,300L58.537,300L78.049,300L97.561,300L117.073,300L136.585,171.429L156.098,171.429L175.61,171.429L195.122,171.429L214.634,171.429L234.146,214.286L253.659,300L273.171,42.857L292.683,257.143L312.195,128.571L331.707,257.143L351.22,300L370.732,257.143L390.244,257.143L409.756,300L429.268,257.143L448.78,257.143L468.293,257.143L487.805,214.286L507.317,300L526.829,85.714L546.341,300L565.854,257.143L585.366,214.286L604.878,300L624.39,214.286L643.902,300L663.415,300L682.927,214.286L702.439,214.286L721.951,171.429L741.463,214.286L760.976,214.286L780.488,257.143L800,300L800,300L780.488,257.143L760.976,214.286L741.463,214.286L721.951,171.429L702.439,214.286L682.927,214.286L663.415,300L643.902,300L624.39,214.286L604.878,300L585.366,214.286L565.854,257.143L546.341,300L526.829,85.714L507.317,300L487.805,214.286L468.293,257.143L448.78,257.143L429.268,257.143L409.756,300L390.244,257.143L370.732,257.143L351.22,300L331.707,257.143L312.195,128.571L292.683,257.143L273.171,42.857L253.659,300L234.146,214.286L214.634,171.429L195.122,171.429L175.61,171.429L156.098,171.429L136.585,171.429L117.073,300L97.561,300L78.049,300L58.537,300L39.024,300L19.512,300L0,300Z" fill="#e45756"/></g></g><path class="foreground" aria-hidden="true" d="" display="none"/></g><g transform="translate(0,0)"><path class="background" aria-hidden="true" d="M0,0h800v300h-800Z"/><g><g class="mark-area role-mark marks" role="graphics-object" aria-roledescription="area mark container"><path aria-label="Date: Mar 16, 2026; Unique Visitors/day: 0; Repository: karlmdavis/fhir-benchmarks" role="graphics-symbol" aria-roledescription="area mark" d="M0,300L19.512,300L39.024,300L58.537,300L78.049,300L97.561,300L117.073,300L136.585,171.429L156.098,171.429L175.61,171.429L195.122,171.429L214.634,171.429L234.146,214.286L253.659,300L273.171,42.857L292.683,257.143L312.195,128.571L331.707,257.143L351.22,300L370.732,257.143L390.244,257.143L409.756,300L429.268,257.143L448.78,257.143L468.293,257.143L487.805,214.286L507.317,300L526.829,85.714L546.341,300L565.854,257.143L585.366,214.286L604.878,300L624.39,214.286L643.902,300L663.415,300L682.927,214.286L702.439,214.286L721.951,171.429L741.463,214.286L760.976,214.286L780.488,257.143L800,300L800,300L780.488,257.143L760.976,214.286L741.463,257.143L721.951,214.286L702.439,214.286L682.927,214.286L663.415,300L643.902,300L624.39,214.286L604.878,300L585.366,257.143L565.854,257.143L546.341,300L526.829,85.714L507.317,300L487.805,257.143L468.293,257.143L448.78,257.143L429.268,300L409.756,300L390.244,257.143L370.732,257.143L351.22,300L331.707,257.143L312.195,171.429L292.683,257.143L273.171,85.714L253.659,300L234.146,214.286L214.634,171.429L195.122,214.286L175.61,171.429L156.098,171.429L136.585,171.429L117.073,300L97.561,300L78.049,300L58.537,300L39.024,300L19.512,300L0,300Z" fill="#72b7b2"/></g></g><path class="foreground" aria-hidden="true" d="" display="none"/></g><g transform="translate(0,0)"><path class="background" aria-hidden="true" d="M0,0h800v300h-800Z"/><g><g class="mark-area role-mark marks" role="graphics-object" aria-roledescription="area mark container"><path aria-label="Date: Mar 16, 2026; Unique Visitors/day: 0; Repository: karlmdavis/hapi-fhir-jpaserver-starter" role="graphics-symbol" aria-roledescription="area mark" d="M0,300L19.512,300L39.024,300L58.537,300L78.049,300L97.561,300L117.073,300L136.585,171.429L156.098,171.429L175.61,171.429L195.122,214.286L214.634,171.429L234.146,214.286L253.659,300L273.171,85.714L292.683,257.143L312.195,171.429L331.707,257.143L351.22,300L370.732,257.143L390.244,257.143L409.756,300L429.268,300L448.78,257.143L468.293,257.143L487.805,257.143L507.317,300L526.829,85.714L546.341,300L565.854,257.143L585.366,257.143L604.878,300L624.39,214.286L643.902,300L663.415,300L682.927,214.286L702.439,214.286L721.951,214.286L741.463,257.143L760.976,214.286L780.488,257.143L800,300L800,300L780.488,257.143L760.976,214.286L741.463,257.143L721.951,214.286L702.439,214.286L682.927,214.286L663.415,300L643.902,300L624.39,214.286L604.878,300L585.366,257.143L565.854,257.143L546.341,300L526.829,85.714L507.317,300L487.805,257.143L468.293,257.143L448.78,257.143L429.268,300L409.756,300L390.244,257.143L370.732,257.143L351.22,300L331.707,257.143L312.195,171.429L292.683,257.143L273.171,85.714L253.659,300L234.146,214.286L214.634,171.429L195.122,214.286L175.61,171.429L156.098,171.429L136.585,171.429L117.073,300L97.561,300L78.049,300L58.537,300L39.024,300L19.512,300L0,300Z" fill="#54a24b"/></g></g><path class="foreground" aria-hidden="true" d="" display="none"/></g><g transform="translate(0,0)"><path class="background" aria-hidden="true" d="M0,0h800v300h-800Z"/><g><g class="mark-area role-mark marks" role="graphics-object" aria-roledescription="area mark container"><path aria-label="Date: Mar 16, 2026; Unique Visitors/day: 0; Repository: karlmdavis/hello-rust-actix" role="graphics-symbol" aria-roledescription="area mark" d="M0,300L19.512,300L39.024,300L58.537,300L78.049,300L97.561,300L117.073,300L136.585,171.429L156.098,171.429L175.61,171.429L195.122,214.286L214.634,171.429L234.146,214.286L253.659,300L273.171,85.714L292.683,257.143L312.195,171.429L331.707,257.143L351.22,300L370.732,257.143L390.244,257.143L409.756,300L429.268,300L448.78,257.143L468.293,257.143L487.805,257.143L507.317,300L526.829,85.714L546.341,300L565.854,257.143L585.366,257.143L604.878,300L624.39,214.286L643.902,300L663.415,300L682.927,214.286L702.439,214.286L721.951,214.286L741.463,257.143L760.976,214.286L780.488,257.143L800,300L800,300L780.488,257.143L760.976,214.286L741.463,257.143L721.951,214.286L702.439,214.286L682.927,214.286L663.415,300L643.902,300L624.39,214.286L604.878,300L585.366,257.143L565.854,257.143L546.341,300L526.829,85.714L507.317,300L487.805,257.143L468.293,257.143L448.78,257.143L429.268,300L409.756,300L390.244,257.143L370.732,257.143L351.22,300L331.707,257.143L312.195,171.429L292.683,257.143L273.171,85.714L253.659,300L234.146,214.286L214.634,171.429L195.122,214.286L175.61,171.429L156.098,171.429L136.585,171.429L117.073,300L97.561,300L78.049,300L58.537,300L39.024,300L19.512,300L0,300Z" fill="#eeca3b"/></g></g><path class="foreground" aria-hidden="true" d="" display="none"/></g><g transform="translate(0,0)"><path class="background" aria-hidden="true" d="M0,0h800v300h-800Z"/><g><g class="mark-area role-mark marks" role="graphics-object" aria-roledescription="area mark container"><path aria-label="Date: Mar 16, 2026; Unique Visitors/day: 0; Repository: karlmdavis/jessentials" role="graphics-symbol" aria-roledescription="area mark" d="M0,300L19.512,300L39.024,300L58.537,300L78.049,300L97.561,300L117.073,300L136.585,171.429L156.098,171.429L175.61,171.429L195.122,214.286L214.634,171.429L234.146,214.286L253.659,300L273.171,85.714L292.683,257.143L312.195,171.429L331.707,257.143L351.22,300L370.732,257.143L390.244,257.143L409.756,300L429.268,300L448.78,257.143L468.293,257.143L487.805,257.143L507.317,300L526.829,85.714L546.341,300L565.854,257.143L585.366,257.143L604.878,300L624.39,214.286L643.902,300L663.415,300L682.927,214.286L702.439,214.286L721.951,214.286L741.463,257.143L760.976,214.286L780.488,257.143L800,300L800,300L780.488,257.143L760.976,214.286L741.463,257.143L721.951,214.286L702.439,214.286L682.927,214.286L663.415,300L643.902,300L624.39,214.286L604.878,300L585.366,257.143L565.854,257.143L546.341,300L526.829,85.714L507.317,300L487.805,257.143L468.293,257.143L448.78,257.143L429.268,300L409.756,300L390.244,257.143L370.732,257.143L351.22,300L331.707,257.143L312.195,171.429L292.683,257.143L273.171,85.714L253.659,300L234.146,214.286L214.634,171.429L195.122,214.286L175.61,171.429L156.098,171.429L136.585,171.429L117.073,300L97.561,300L78.049,300L58.537,300L39.024,300L19.512,300L0,300Z" fill="#b279a2"/></g></g><path class="foreground" aria-hidden="true" d="" display="none"/></g><g transform="translate(0,0)"><path class="background" aria-hidden="true" d="M0,0h800v300h-800Z"/><g><g class="mark-area role-mark marks" role="graphics-object" aria-roledescription="area mark container"><path aria-label="Date: Mar 16, 2026; Unique Visitors/day: 0; Repository: karlmdavis/justdavis-ansible" role="graphics-symbol" aria-roledescription="area mark" d="M0,300L19.512,300L39.024,300L58.537,300L78.049,300L97.561,300L117.073,300L136.585,171.429L156.098,171.429L175.61,171.429L195.122,214.286L214.634,171.429L234.146,214.286L253.659,300L273.171,85.714L292.683,257.143L312.195,171.429L331.707,257.143L351.22,300L370.732,257.143L390.244,257.143L409.756,300L429.268,300L448.78,257.143L468.293,257.143L487.805,257.143L507.317,300L526.829,85.714L546.341,300L565.854,257.143L585.366,257.143L604.878,300L624.39,214.286L643.902,300L663.415,300L682.927,214.286L702.439,214.286L721.951,214.286L741.463,257.143L760.976,214.286L780.488,257.143L800,300L800,300L780.488,257.143L760.976,214.286L741.463,257.143L721.951,214.286L702.439,214.286L682.927,214.286L663.415,300L643.902,300L624.39,214.286L604.878,300L585.366,257.143L565.854,257.143L546.341,300L526.829,128.571L507.317,300L487.805,257.143L468.293,257.143L448.78,257.143L429.268,300L409.756,300L390.244,257.143L370.732,257.143L351.22,300L331.707,257.143L312.195,214.286L292.683,257.143L273.171,128.571L253.659,300L234.146,214.286L214.634,171.429L195.122,214.286L175.61,171.429L156.098,171.429L136.585,171.429L117.073,300L97.561,300L78.049,300L58.537,300L39.024,300L19.512,300L0,300Z" fill="#ff9da6"/></g></g><path class="foreground" aria-hidden="true" d="" display="none"/></g><g transform="translate(0,0)"><path class="background" aria-hidden="true" d="M0,0h800v300h-800Z"/><g><g class="mark-area role-mark marks" role="graphics-object" aria-roledescription="area mark container"><path aria-label="Date: Mar 16, 2026; Unique Visitors/day: 0; Repository: karlmdavis/justdavis-finances" role="graphics-symbol" aria-roledescription="area mark" d="M0,300L19.512,300L39.024,300L58.537,300L78.049,300L97.561,300L117.073,300L136.585,171.429L156.098,171.429L175.61,171.429L195.122,214.286L214.634,171.429L234.146,214.286L253.659,300L273.171,128.571L292.683,257.143L312.195,214.286L331.707,257.143L351.22,300L370.732,257.143L390.244,257.143L409.756,300L429.268,300L448.78,257.143L468.293,257.143L487.805,257.143L507.317,300L526.829,128.571L546.341,300L565.854,257.143L585.366,257.143L604.878,300L624.39,214.286L643.902,300L663.415,300L682.927,214.286L702.439,214.286L721.951,214.286L741.463,257.143L760.976,214.286L780.488,257.143L800,300L800,300L780.488,257.143L760.976,214.286L741.463,257.143L721.951,214.286L702.439,214.286L682.927,257.143L663.415,300L643.902,300L624.39,214.286L604.878,300L585.366,257.143L565.854,257.143L546.341,300L526.829,171.429L507.317,300L487.805,257.143L468.293,257.143L448.78,257.143L429.268,300L409.756,300L390.244,257.143L370.732,257.143L351.22,300L331.707,257.143L312.195,214.286L292.683,257.143L273.171,128.571L253.659,300L234.146,214.286L214.634,214.286L195.122,214.286L175.61,171.429L156.098,171.429L136.585,171.429L117.073,300L97.561,300L78.049,300L58.537,300L39.024,300L19.512,300L0,300Z" fill="#9d755d"/></g></g><path class="foreground" aria-hidden="true" d="" display="none"/></g><g transform="translate(0,0)"><path class="background" aria-hidden="true" d="M0,0h800v300h-800Z"/><g><g class="mark-area role-mark marks" role="graphics-object" aria-roledescription="area mark container"><path aria-label="Date: Mar 16, 2026; Unique Visitors/day: 0; Repository: karlmdavis/justdavis-karl" role="graphics-symbol" aria-roledescription="area mark" d="M0,300L19.512,300L39.024,300L58.537,300L78.049,300L97.561,300L117.073,300L136.585,171.429L156.098,171.429L175.61,171.429L195.122,214.286L214.634,214.286L234.146,214.286L253.659,300L273.171,128.571L292.683,257.143L312.195,214.286L331.707,257.143L351.22,300L370.732,257.143L390.244,257.143L409.756,300L429.268,300L448.78,257.143L468.293,257.143L487.805,257.143L507.317,300L526.829,171.429L546.341,300L565.854,257.143L585.366,257.143L604.878,300L624.39,214.286L643.902,300L663.415,300L682.927,257.143L702.439,214.286L721.951,214.286L741.463,257.143L760.976,214.286L780.488,257.143L800,300L800,300L780.488,257.143L760.976,214.286L741.463,257.143L721.951,214.286L702.439,214.286L682.927,257.143L663.415,300L643.902,300L624.39,214.286L604.878,300L585.366,257.143L565.854,257.143L546.341,300L526.829,171.429L507.317,300L487.805,257.143L468.293,257.143L448.78,257.143L429.268,300L409.756,300L390.244,257.143L370.732,257.143L351.22,300L331.707,257.143L312.195,214.286L292.683,257.143L273.171,128.571L253.659,300L234.146,214.286L214.634,214.286L195.122,214.286L175.61,171.429L156.098,171.429L136.585,171.429L117.073,300L97.561,300L78.049,300L58.537,300L39.024,300L19.512,300L0,300Z" fill="#bab0ac"/></g></g><path class="foreground" aria-hidden="true" d="" display="none"/></g><g transform="translate(0,0)"><path class="background" aria-hidden="true" d="M0,0h800v300h-800Z"/><g><g class="mark-area role-mark marks" role="graphics-object" aria-roledescription="area mark container"><path aria-label="Date: Mar 16, 2026; Unique Visitors/day: 0; Repository: karlmdavis/justdavis-puppet" role="graphics-symbol" aria-roledescription="area mark" d="M0,300L19.512,300L39.024,300L58.537,300L78.049,300L97.561,300L117.073,300L136.585,171.429L156.098,171.429L175.61,171.429L195.122,214.286L214.634,214.286L234.146,214.286L253.659,300L273.171,128.571L292.683,257.143L312.195,214.286L331.707,257.143L351.22,300L370.732,257.143L390.244,257.143L409.756,300L429.268,300L448.78,257.143L468.293,257.143L487.805,257.143L507.317,300L526.829,171.429L546.341,300L565.854,257.143L585.366,257.143L604.878,300L624.39,214.286L643.902,300L663.415,300L682.927,257.143L702.439,214.286L721.951,214.286L741.463,257.143L760.976,214.286L780.488,257.143L800,300L800,300L780.488,257.143L760.976,214.286L741.463,257.143L721.951,214.286L702.439,214.286L682.927,257.143L663.415,300L643.902,300L624.39,214.286L604.878,300L585.366,257.143L565.854,257.143L546.341,300L526.829,171.429L507.317,300L487.805,257.143L468.293,257.143L448.78,257.143L429.268,300L409.756,300L390.244,257.143L370.732,257.143L351.22,300L331.707,257.143L312.195,214.286L292.683,257.143L273.171,128.571L253.659,300L234.146,214.286L214.634,214.286L195.122,214.286L175.61,171.429L156.098,171.429L136.585,171.429L117.073,300L97.561,300L78.049,300L58.537,300L39.024,300L19.512,300L0,300Z" fill="#4c78a8"/></g></g><path class="foreground" aria-hidden="true" d="" display="none"/></g><g transform="translate(0,0)"><path class="background" aria-hidden="true" d="M0,0h800v300h-800Z"/><g><g class="mark-area role-mark marks" role="graphics-object" aria-roledescription="area mark container"><path aria-label="Date: Mar 16, 2026; Unique Visitors/day: 0; Repository: karlmdavis/kobjects" role="graphics-symbol" aria-roledescription="area mark" d="M0,300L19.512,300L39.024,300L58.537,300L78.049,300L97.561,300L117.073,300L136.585,171.429L156.098,171.429L175.61,171.429L195.122,214.286L214.634,214.286L234.146,214.286L253.659,300L273.171,128.571L292.683,257.143L312.195,214.286L331.707,257.143L351.22,300L370.732,257.143L390.244,257.143L409.756,300L429.268,300L448.78,257.143L468.293,257.143L487.805,257.143L507.317,300L526.829,171.429L546.341,300L565.854,257.143L585.366,257.143L604.878,300L624.39,214.286L643.902,300L663.415,300L682.927,257.143L702.439,214.286L721.951,214.286L741.463,257.143L760.976,214.286L780.488,257.143L800,300L800,300L780.488,257.143L760.976,214.286L741.463,257.143L721.951,214.286L702.439,214.286L682.927,257.143L663.415,300L643.902,300L624.39,214.286L604.878,300L585.366,257.143L565.854,257.143L546.341,300L526.829,171.429L507.317,300L487.805,257.143L468.293,257.143L448.78,257.143L429.268,300L409.756,300L390.244,257.143L370.732,257.143L351.22,300L331.707,257.143L312.195,214.286L292.683,257.143L273.171,128.571L253.659,300L234.146,214.286L214.634,214.286L195.122,214.286L175.61,171.429L156.098,171.429L136.585,171.429L117.073,300L97.561,300L78.049,300L58.537,300L39.024,300L19.512,300L0,300Z" fill="#f58518"/></g></g><path class="foreground" aria-hidden="true" d="" display="none"/></g><g transform="translate(0,0)"><path class="background" aria-hidden="true" d="M0,0h800v300h-800Z"/><g><g class="mark-area role-mark marks" role="graphics-object" aria-roledescription="area mark container"><path aria-label="Date: Mar 16, 2026; Unique Visitors/day: 0; Repository: karlmdavis/ksoap2-android" role="graphics-symbol" aria-roledescription="area mark" d="M0,300L19.512,300L39.024,300L58.537,300L78.049,300L97.561,300L117.073,300L136.585,171.429L156.098,171.429L175.61,171.429L195.122,214.286L214.634,214.286L234.146,214.286L253.659,300L273.171,128.571L292.683,257.143L312.195,214.286L331.707,257.143L351.22,300L370.732,257.143L390.244,257.143L409.756,300L429.268,300L448.78,257.143L468.293,257.143L487.805,257.143L507.317,300L526.829,171.429L546.341,300L565.854,257.143L585.366,257.143L604.878,300L624.39,214.286L643.902,300L663.415,300L682.927,257.143L702.439,214.286L721.951,214.286L741.463,257.143L760.976,214.286L780.488,257.143L800,300L800,300L780.488,300L760.976,257.143L741.463,300L721.951,300L702.439,257.143L682.927,257.143L663.415,300L643.902,300L624.39,300L604.878,300L585.366,300L565.854,300L546.341,300L526.829,214.286L507.317,300L487.805,300L468.293,257.143L448.78,300L429.268,300L409.756,300L390.244,300L370.732,300L351.22,300L331.707,300L312.195,257.143L292.683,257.143L273.171,214.286L253.659,300L234.146,214.286L214.634,257.143L195.122,214.286L175.61,214.286L156.098,257.143L136.585,257.143L117.073,300L97.561,300L78.049,300L58.537,300L39.024,300L19.512,300L0,300Z" fill="#e45756"/></g></g><path class="foreground" aria-hidden="true" d="" display="none"/></g><g transform="translate(0,0)"><path class="background" aria-hidden="true" d="M0,0h800v300h-800Z"/><g><g class="mark-area role-mark marks" role="graphics-object" aria-roledescription="area mark container"><path aria-label="Date: Mar 16, 2026; Unique Visitors/day: 0; Repository: karlmdavis/kxml2" role="graphics-symbol" aria-roledescription="area mark" d="M0,300L19.512,300L39.024,300L58.537,300L78.049,300L97.561,300L117.073,300L136.585,257.143L156.098,257.143L175.61,214.286L195.122,214.286L214.634,257.143L234.146,214.286L253.659,300L273.171,214.286L292.683,257.143L312.195,257.143L331.707,300L351.22,300L370.732,300L390.244,300L409.756,300L429.268,300L448.78,300L468.293,257.143L487.805,300L507.317,300L526.829,214.286L546.341,300L565.854,300L585.366,300L604.878,300L624.39,300L643.902,300L663.415,300L682.927,257.143L702.439,257.143L721.951,300L741.463,300L760.976,257.143L780.488,300L800,300L800,300L780.488,300L760.976,257.143L741.463,300L721.951,300L702.439,257.143L682.927,257.143L663.415,300L643.902,300L624.39,300L604.878,300L585.366,300L565.854,300L546.341,300L526.829,214.286L507.317,300L487.805,300L468.293,257.143L448.78,300L429.268,300L409.756,300L390.244,300L370.732,300L351.22,300L331.707,300L312.195,257.143L292.683,257.143L273.171,214.286L253.659,300L234.146,257.143L214.634,257.143L195.122,214.286L175.61,257.143L156.098,257.143L136.585,257.143L117.073,300L97.561,300L78.049,300L58.537,300L39.024,300L19.512,300L0,300Z" fill="#72b7b2"/></g></g><path class="foreground" aria-hidden="true" d="" display="none"/></g><g transform="translate(0,0)"><path class="background" aria-hidden="true" d="M0,0h800v300h-800Z"/><g><g class="mark-area role-mark marks" role="graphics-object" aria-roledescription="area mark container"><path aria-label="Date: Mar 16, 2026; Unique Visitors/day: 0; Repository: karlmdavis/ldap-plugin" role="graphics-symbol" aria-roledescription="area mark" d="M0,300L19.512,300L39.024,300L58.537,300L78.049,300L97.561,300L117.073,300L136.585,257.143L156.098,257.143L175.61,257.143L195.122,214.286L214.634,257.143L234.146,257.143L253.659,300L273.171,214.286L292.683,257.143L312.195,257.143L331.707,300L351.22,300L370.732,300L390.244,300L409.756,300L429.268,300L448.78,300L468.293,257.143L487.805,300L507.317,300L526.829,214.286L546.341,300L565.854,300L585.366,300L604.878,300L624.39,300L643.902,300L663.415,300L682.927,257.143L702.439,257.143L721.951,300L741.463,300L760.976,257.143L780.488,300L800,300L800,300L780.488,300L760.976,257.143L741.463,300L721.951,300L702.439,257.143L682.927,257.143L663.415,300L643.902,300L624.39,300L604.878,300L585.366,300L565.854,300L546.341,300L526.829,214.286L507.317,300L487.805,300L468.293,257.143L448.78,300L429.268,300L409.756,300L390.244,300L370.732,300L351.22,300L331.707,300L312.195,257.143L292.683,257.143L273.171,214.286L253.659,300L234.146,257.143L214.634,257.143L195.122,214.286L175.61,257.143L156.098,257.143L136.585,257.143L117.073,300L97.561,300L78.049,300L58.537,300L39.024,300L19.512,300L0,300Z" fill="#54a24b"/></g></g><path class="foreground" aria-hidden="true" d="" display="none"/></g><g transform="translate(0,0)"><path class="background" aria-hidden="true" d="M0,0h800v300h-800Z"/><g><g class="mark-area role-mark marks" role="graphics-object" aria-roledescription="area mark container"><path aria-label="Date: Mar 16, 2026; Unique Visitors/day: 0; Repository: karlmdavis/lego-ev3dev-rs" role="graphics-symbol" aria-roledescription="area mark" d="M0,300L19.512,300L39.024,300L58.537,300L78.049,300L97.561,300L117.073,300L136.585,257.143L156.098,257.143L175.61,257.143L195.122,214.286L214.634,257.143L234.146,257.143L253.659,300L273.171,214.286L292.683,257.143L312.195,257.143L331.707,300L351.22,300L370.732,300L390.244,300L409.756,300L429.268,300L448.78,300L468.293,257.143L487.805,300L507.317,300L526.829,214.286L546.341,300L565.854,300L585.366,300L604.878,300L624.39,300L643.902,300L663.415,300L682.927,257.143L702.439,257.143L721.951,300L741.463,300L760.976,257.143L780.488,300L800,300L800,300L780.488,300L760.976,257.143L741.463,300L721.951,300L702.439,257.143L682.927,257.143L663.415,300L643.902,300L624.39,300L604.878,300L585.366,300L565.854,300L546.341,300L526.829,214.286L507.317,300L487.805,300L468.293,257.143L448.78,300L429.268,300L409.756,300L390.244,300L370.732,300L351.22,300L331.707,300L312.195,257.143L292.683,257.143L273.171,214.286L253.659,300L234.146,257.143L214.634,257.143L195.122,214.286L175.61,257.143L156.098,257.143L136.585,257.143L117.073,300L97.561,300L78.049,300L58.537,300L39.024,300L19.512,300L0,300Z" fill="#eeca3b"/></g></g><path class="foreground" aria-hidden="true" d="" display="none"/></g><g transform="translate(0,0)"><path class="background" aria-hidden="true" d="M0,0h800v300h-800Z"/><g><g class="mark-area role-mark marks" role="graphics-object" aria-roledescription="area mark container"><path aria-label="Date: Mar 16, 2026; Unique Visitors/day: 0; Repository: karlmdavis/liquibase" role="graphics-symbol" aria-roledescription="area mark" d="M0,300L19.512,300L39.024,300L58.537,300L78.049,300L97.561,300L117.073,300L136.585,257.143L156.098,257.143L175.61,257.143L195.122,214.286L214.634,257.143L234.146,257.143L253.659,300L273.171,214.286L292.683,257.143L312.195,257.143L331.707,300L351.22,300L370.732,300L390.244,300L409.756,300L429.268,300L448.78,300L468.293,257.143L487.805,300L507.317,300L526.829,214.286L546.341,300L565.854,300L585.366,300L604.878,300L624.39,300L643.902,300L663.415,300L682.927,257.143L702.439,257.143L721.951,300L741.463,300L760.976,257.143L780.488,300L800,300L800,300L780.488,300L760.976,257.143L741.463,300L721.951,300L702.439,257.143L682.927,257.143L663.415,300L643.902,300L624.39,300L604.878,300L585.366,300L565.854,300L546.341,300L526.829,214.286L507.317,300L487.805,300L468.293,257.143L448.78,300L429.268,300L409.756,300L390.244,300L370.732,300L351.22,300L331.707,300L312.195,257.143L292.683,257.143L273.171,214.286L253.659,300L234.146,257.143L214.634,257.143L195.122,214.286L175.61,257.143L156.098,257.143L136.585,257.143L117.073,300L97.561,300L78.049,300L58.537,300L39.024,300L19.512,300L0,300Z" fill="#b279a2"/></g></g><path class="foreground" aria-hidden="true" d="" display="none"/></g><g transform="translate(0,0)"><path class="background" aria-hidden="true" d="M0,0h800v300h-800Z"/><g><g class="mark-area role-mark marks" role="graphics-object" aria-roledescription="area mark container"><path aria-label="Date: Mar 16, 2026; Unique Visitors/day: 0; Repository: karlmdavis/m2e-core" role="graphics-symbol" aria-roledescription="area mark" d="M0,300L19.512,300L39.024,300L58.537,300L78.049,300L97.561,300L117.073,300L136.585,257.143L156.098,257.143L175.61,257.143L195.122,214.286L214.634,257.143L234.146,257.143L253.659,300L273.171,214.286L292.683,257.143L312.195,257.143L331.707,300L351.22,300L370.732,300L390.244,300L409.756,300L429.268,300L448.78,300L468.293,257.143L487.805,300L507.317,300L526.829,214.286L546.341,300L565.854,300L585.366,300L604.878,300L624.39,300L643.902,300L663.415,300L682.927,257.143L702.439,257.143L721.951,300L741.463,300L760.976,257.143L780.488,300L800,300L800,300L780.488,300L760.976,257.143L741.463,300L721.951,300L702.439,257.143L682.927,257.143L663.415,300L643.902,300L624.39,300L604.878,300L585.366,300L565.854,300L546.341,300L526.829,214.286L507.317,300L487.805,300L468.293,257.143L448.78,300L429.268,300L409.756,300L390.244,300L370.732,300L351.22,300L331.707,300L312.195,257.143L292.683,257.143L273.171,214.286L253.659,300L234.146,257.143L214.634,257.143L195.122,214.286L175.61,257.143L156.098,257.143L136.585,257.143L117.073,300L97.561,300L78.049,300L58.537,300L39.024,300L19.512,300L0,300Z" fill="#ff9da6"/></g></g><path class="foreground" aria-hidden="true" d="" display="none"/></g><g transform="translate(0,0)"><path class="background" aria-hidden="true" d="M0,0h800v300h-800Z"/><g><g class="mark-area role-mark marks" role="graphics-object" aria-roledescription="area mark container"><path aria-label="Date: Mar 16, 2026; Unique Visitors/day: 0; Repository: karlmdavis/m2e-core-tests" role="graphics-symbol" aria-roledescription="area mark" d="M0,300L19.512,300L39.024,300L58.537,300L78.049,300L97.561,300L117.073,300L136.585,257.143L156.098,257.143L175.61,257.143L195.122,214.286L214.634,257.143L234.146,257.143L253.659,300L273.171,214.286L292.683,257.143L312.195,257.143L331.707,300L351.22,300L370.732,300L390.244,300L409.756,300L429.268,300L448.78,300L468.293,257.143L487.805,300L507.317,300L526.829,214.286L546.341,300L565.854,300L585.366,300L604.878,300L624.39,300L643.902,300L663.415,300L682.927,257.143L702.439,257.143L721.951,300L741.463,300L760.976,257.143L780.488,300L800,300L800,300L780.488,300L760.976,257.143L741.463,300L721.951,300L702.439,257.143L682.927,257.143L663.415,300L643.902,300L624.39,300L604.878,300L585.366,300L565.854,300L546.341,300L526.829,214.286L507.317,300L487.805,300L468.293,257.143L448.78,300L429.268,300L409.756,300L390.244,300L370.732,300L351.22,300L331.707,300L312.195,257.143L292.683,257.143L273.171,214.286L253.659,300L234.146,257.143L214.634,257.143L195.122,214.286L175.61,257.143L156.098,257.143L136.585,257.143L117.073,300L97.561,300L78.049,300L58.537,300L39.024,300L19.512,300L0,300Z" fill="#9d755d"/></g></g><path class="foreground" aria-hidden="true" d="" display="none"/></g><g transform="translate(0,0)"><path class="background" aria-hidden="true" d="M0,0h800v300h-800Z"/><g><g class="mark-area role-mark marks" role="graphics-object" aria-roledescription="area mark container"><path aria-label="Date: Mar 16, 2026; Unique Visitors/day: 0; Repository: karlmdavis/obsidian-operator" role="graphics-symbol" aria-roledescription="area mark" d="M0,300L19.512,300L39.024,300L58.537,300L78.049,300L97.561,300L117.073,300L136.585,257.143L156.098,257.143L175.61,257.143L195.122,214.286L214.634,257.143L234.146,257.143L253.659,300L273.171,214.286L292.683,257.143L312.195,257.143L331.707,300L351.22,300L370.732,300L390.244,300L409.756,300L429.268,300L448.78,300L468.293,257.143L487.805,300L507.317,300L526.829,214.286L546.341,300L565.854,300L585.366,300L604.878,300L624.39,300L643.902,300L663.415,300L682.927,257.143L702.439,257.143L721.951,300L741.463,300L760.976,257.143L780.488,300L800,300L800,300L780.488,300L760.976,257.143L741.463,300L721.951,300L702.439,257.143L682.927,257.143L663.415,300L643.902,300L624.39,300L604.878,300L585.366,300L565.854,300L546.341,300L526.829,257.143L507.317,300L487.805,300L468.293,257.143L448.78,300L429.268,300L409.756,300L390.244,300L370.732,300L351.22,300L331.707,300L312.195,257.143L292.683,257.143L273.171,214.286L253.659,300L234.146,257.143L214.634,257.143L195.122,214.286L175.61,257.143L156.098,257.143L136.585,257.143L117.073,300L97.561,300L78.049,300L58.537,300L39.024,300L19.512,300L0,300Z" fill="#bab0ac"/></g></g><path class="foreground" aria-hidden="true" d="" display="none"/></g><g transform="translate(0,0)"><path class="background" aria-hidden="true" d="M0,0h800v300h-800Z"/><g><g class="mark-area role-mark marks" role="graphics-object" aria-roledescription="area mark container"><path aria-label="Date: Mar 16, 2026; Unique Visitors/day: 0; Repository: karlmdavis/perfect-note" role="graphics-symbol" aria-roledescription="area mark" d="M0,300L19.512,300L39.024,300L58.537,300L78.049,300L97.561,300L117.073,300L136.585,257.143L156.098,257.143L175.61,257.143L195.122,214.286L214.634,257.143L234.146,257.143L253.659,300L273.171,214.286L292.683,257.143L312.195,257.143L331.707,300L351.22,300L370.732,300L390.244,300L409.756,300L429.268,300L448.78,300L468.293,257.143L487.805,300L507.317,300L526.829,257.143L546.341,300L565.854,300L585.366,300L604.878,300L624.39,300L643.902,300L663.415,300L682.927,257.143L702.439,257.143L721.951,300L741.463,300L760.976,257.143L780.488,300L800,300L800,300L780.488,300L760.976,257.143L741.463,300L721.951,300L702.439,257.143L682.927,257.143L663.415,300L643.902,300L624.39,300L604.878,300L585.366,300L565.854,300L546.341,300L526.829,257.143L507.317,300L487.805,300L468.293,257.143L448.78,300L429.268,300L409.756,300L390.244,300L370.732,300L351.22,300L331.707,300L312.195,257.143L292.683,257.143L273.171,214.286L253.659,300L234.146,257.143L214.634,257.143L195.122,214.286L175.61,257.143L156.098,257.143L136.585,257.143L117.073,300L97.561,300L78.049,300L58.537,300L39.024,300L19.512,300L0,300Z" fill="#4c78a8"/></g></g><path class="foreground" aria-hidden="true" d="" display="none"/></g><g transform="translate(0,0)"><path class="background" aria-hidden="true" d="M0,0h800v300h-800Z"/><g><g class="mark-area role-mark marks" role="graphics-object" aria-roledescription="area mark container"><path aria-label="Date: Mar 16, 2026; Unique Visitors/day: 0; Repository: karlmdavis/puppet-archive" role="graphics-symbol" aria-roledescription="area mark" d="M0,300L19.512,300L39.024,300L58.537,300L78.049,300L97.561,300L117.073,300L136.585,257.143L156.098,257.143L175.61,257.143L195.122,214.286L214.634,257.143L234.146,257.143L253.659,300L273.171,214.286L292.683,257.143L312.195,257.143L331.707,300L351.22,300L370.732,300L390.244,300L409.756,300L429.268,300L448.78,300L468.293,257.143L487.805,300L507.317,300L526.829,257.143L546.341,300L565.854,300L585.366,300L604.878,300L624.39,300L643.902,300L663.415,300L682.927,257.143L702.439,257.143L721.951,300L741.463,300L760.976,257.143L780.488,300L800,300L800,300L780.488,300L760.976,257.143L741.463,300L721.951,300L702.439,257.143L682.927,257.143L663.415,300L643.902,300L624.39,300L604.878,300L585.366,300L565.854,300L546.341,300L526.829,257.143L507.317,300L487.805,300L468.293,257.143L448.78,300L429.268,300L409.756,300L390.244,300L370.732,300L351.22,300L331.707,300L312.195,257.143L292.683,257.143L273.171,214.286L253.659,300L234.146,257.143L214.634,257.143L195.122,214.286L175.61,257.143L156.098,257.143L136.585,257.143L117.073,300L97.561,300L78.049,300L58.537,300L39.024,300L19.512,300L0,300Z" fill="#f58518"/></g></g><path class="foreground" aria-hidden="true" d="" display="none"/></g><g transform="translate(0,0)"><path class="background" aria-hidden="true" d="M0,0h800v300h-800Z"/><g><g class="mark-area role-mark marks" role="graphics-object" aria-roledescription="area mark container"><path aria-label="Date: Mar 16, 2026; Unique Visitors/day: 0; Repository: karlmdavis/puppet-sonar" role="graphics-symbol" aria-roledescription="area mark" d="M0,300L19.512,300L39.024,300L58.537,300L78.049,300L97.561,300L117.073,300L136.585,257.143L156.098,257.143L175.61,257.143L195.122,214.286L214.634,257.143L234.146,257.143L253.659,300L273.171,214.286L292.683,257.143L312.195,257.143L331.707,300L351.22,300L370.732,300L390.244,300L409.756,300L429.268,300L448.78,300L468.293,257.143L487.805,300L507.317,300L526.829,257.143L546.341,300L565.854,300L585.366,300L604.878,300L624.39,300L643.902,300L663.415,300L682.927,257.143L702.439,257.143L721.951,300L741.463,300L760.976,257.143L780.488,300L800,300L800,300L780.488,300L760.976,257.143L741.463,300L721.951,300L702.439,257.143L682.927,257.143L663.415,300L643.902,300L624.39,300L604.878,300L585.366,300L565.854,300L546.341,300L526.829,257.143L507.317,300L487.805,300L468.293,257.143L448.78,300L429.268,300L409.756,300L390.244,300L370.732,300L351.22,300L331.707,300L312.195,257.143L292.683,257.143L273.171,214.286L253.659,300L234.146,257.143L214.634,257.143L195.122,214.286L175.61,257.143L156.098,257.143L136.585,257.143L117.073,300L97.561,300L78.049,300L58.537,300L39.024,300L19.512,300L0,300Z" fill="#e45756"/></g></g><path class="foreground" aria-hidden="true" d="" display="none"/></g><g transform="translate(0,0)"><path class="background" aria-hidden="true" d="M0,0h800v300h-800Z"/><g><g class="mark-area role-mark marks" role="graphics-object" aria-roledescription="area mark container"><path aria-label="Date: Mar 16, 2026; Unique Visitors/day: 0; Repository: karlmdavis/rps-tourney" role="graphics-symbol" aria-roledescription="area mark" d="M0,300L19.512,300L39.024,300L58.537,300L78.049,300L97.561,300L117.073,300L136.585,257.143L156.098,257.143L175.61,257.143L195.122,214.286L214.634,257.143L234.146,257.143L253.659,300L273.171,214.286L292.683,257.143L312.195,257.143L331.707,300L351.22,300L370.732,300L390.244,300L409.756,300L429.268,300L448.78,300L468.293,257.143L487.805,300L507.317,300L526.829,257.143L546.341,300L565.854,300L585.366,300L604.878,300L624.39,300L643.902,300L663.415,300L682.927,257.143L702.439,257.143L721.951,300L741.463,300L760.976,257.143L780.488,300L800,300L800,300L780.488,300L760.976,257.143L741.463,300L721.951,300L702.439,300L682.927,257.143L663.415,300L643.902,300L624.39,300L604.878,300L585.366,300L565.854,300L546.341,300L526.829,300L507.317,300L487.805,300L468.293,257.143L448.78,300L429.268,300L409.756,300L390.244,300L370.732,300L351.22,300L331.707,300L312.195,300L292.683,257.143L273.171,214.286L253.659,300L234.146,257.143L214.634,300L195.122,214.286L175.61,257.143L156.098,300L136.585,300L117.073,300L97.561,300L78.049,300L58.537,300L39.024,300L19.512,300L0,300Z" fill="#72b7b2"/></g></g><path class="foreground" aria-hidden="true" d="" display="none"/></g><g transform="translate(0,0)"><path class="background" aria-hidden="true" d="M0,0h800v300h-800Z"/><g><g class="mark-area role-mark marks" role="graphics-object" aria-roledescription="area mark container"><path aria-label="Date: Mar 16, 2026; Unique Visitors/day: 0; Repository: karlmdavis/sample-maven-and-rcp" role="graphics-symbol" aria-roledescription="area mark" d="M0,300L19.512,300L39.024,300L58.537,300L78.049,300L97.561,300L117.073,300L136.585,300L156.098,300L175.61,257.143L195.122,214.286L214.634,300L234.146,257.143L253.659,300L273.171,214.286L292.683,257.143L312.195,300L331.707,300L351.22,300L370.732,300L390.244,300L409.756,300L429.268,300L448.78,300L468.293,257.143L487.805,300L507.317,300L526.829,300L546.341,300L565.854,300L585.366,300L604.878,300L624.39,300L643.902,300L663.415,300L682.927,257.143L702.439,300L721.951,300L741.463,300L760.976,257.143L780.488,300L800,300L800,300L780.488,300L760.976,257.143L741.463,300L721.951,300L702.439,300L682.927,257.143L663.415,300L643.902,300L624.39,300L604.878,300L585.366,300L565.854,300L546.341,300L526.829,300L507.317,300L487.805,300L468.293,257.143L448.78,300L429.268,300L409.756,300L390.244,300L370.732,300L351.22,300L331.707,300L312.195,300L292.683,257.143L273.171,214.286L253.659,300L234.146,257.143L214.634,300L195.122,214.286L175.61,257.143L156.098,300L136.585,300L117.073,300L97.561,300L78.049,300L58.537,300L39.024,300L19.512,300L0,300Z" fill="#54a24b"/></g></g><path class="foreground" aria-hidden="true" d="" display="none"/></g><g transform="translate(0,0)"><path class="background" aria-hidden="true" d="M0,0h800v300h-800Z"/><g><g class="mark-area role-mark marks" role="graphics-object" aria-roledescription="area mark container"><path aria-label="Date: Mar 16, 2026; Unique Visitors/day: 0; Repository: karlmdavis/stockfighter-trades-solutions" role="graphics-symbol" aria-roledescription="area mark" d="M0,300L19.512,300L39.024,300L58.537,300L78.049,300L97.561,300L117.073,300L136.585,300L156.098,300L175.61,257.143L195.122,214.286L214.634,300L234.146,257.143L253.659,300L273.171,214.286L292.683,257.143L312.195,300L331.707,300L351.22,300L370.732,300L390.244,300L409.756,300L429.268,300L448.78,300L468.293,257.143L487.805,300L507.317,300L526.829,300L546.341,300L565.854,300L585.366,300L604.878,300L624.39,300L643.902,300L663.415,300L682.927,257.143L702.439,300L721.951,300L741.463,300L760.976,257.143L780.488,300L800,300L800,300L780.488,300L760.976,257.143L741.463,300L721.951,300L702.439,300L682.927,257.143L663.415,300L643.902,300L624.39,300L604.878,300L585.366,300L565.854,300L546.341,300L526.829,300L507.317,300L487.805,300L468.293,257.143L448.78,300L429.268,300L409.756,300L390.244,300L370.732,300L351.22,300L331.707,300L312.195,300L292.683,257.143L273.171,214.286L253.659,300L234.146,257.143L214.634,300L195.122,214.286L175.61,257.143L156.098,300L136.585,300L117.073,300L97.561,300L78.049,300L58.537,300L39.024,300L19.512,300L0,300Z" fill="#eeca3b"/></g></g><path class="foreground" aria-hidden="true" d="" display="none"/></g><g transform="translate(0,0)"><path class="background" aria-hidden="true" d="M0,0h800v300h-800Z"/><g><g class="mark-area role-mark marks" role="graphics-object" aria-roledescription="area mark container"><path aria-label="Date: Mar 16, 2026; Unique Visitors/day: 0; Repository: karlmdavis/test-repo-for-move" role="graphics-symbol" aria-roledescription="area mark" d="M0,300L19.512,300L39.024,300L58.537,300L78.049,300L97.561,300L117.073,300L136.585,300L156.098,300L175.61,257.143L195.122,214.286L214.634,300L234.146,257.143L253.659,300L273.171,214.286L292.683,257.143L312.195,300L331.707,300L351.22,300L370.732,300L390.244,300L409.756,300L429.268,300L448.78,300L468.293,257.143L487.805,300L507.317,300L526.829,300L546.341,300L565.854,300L585.366,300L604.878,300L624.39,300L643.902,300L663.415,300L682.927,257.143L702.439,300L721.951,300L741.463,300L760.976,257.143L780.488,300L800,300L800,300L780.488,300L760.976,257.143L741.463,300L721.951,300L702.439,300L682.927,257.143L663.415,300L643.902,300L624.39,300L604.878,300L585.366,300L565.854,300L546.341,300L526.829,300L507.317,300L487.805,300L468.293,257.143L448.78,300L429.268,300L409.756,300L390.244,300L370.732,300L351.22,300L331.707,300L312.195,300L292.683,257.143L273.171,214.286L253.659,300L234.146,257.143L214.634,300L195.122,214.286L175.61,257.143L156.098,300L136.585,300L117.073,300L97.561,300L78.049,300L58.537,300L39.024,300L19.512,300L0,300Z" fill="#b279a2"/></g></g><path class="foreground" aria-hidden="true" d="" display="none"/></g><g transform="translate(0,0)"><path class="background" aria-hidden="true" d="M0,0h800v300h-800Z"/><g><g class="mark-area role-mark marks" role="graphics-object" aria-roledescription="area mark container"><path aria-label="Date: Mar 16, 2026; Unique Visitors/day: 0; Repository: karlmdavis/todoist-ai" role="graphics-symbol" aria-roledescription="area mark" d="M0,300L19.512,300L39.024,300L58.537,300L78.049,300L97.561,300L117.073,300L136.585,300L156.098,300L175.61,257.143L195.122,214.286L214.634,300L234.146,257.143L253.659,300L273.171,214.286L292.683,257.143L312.195,300L331.707,300L351.22,300L370.732,300L390.244,300L409.756,300L429.268,300L448.78,300L468.293,257.143L487.805,300L507.317,300L526.829,300L546.341,300L565.854,300L585.366,300L604.878,300L624.39,300L643.902,300L663.415,300L682.927,257.143L702.439,300L721.951,300L741.463,300L760.976,257.143L780.488,300L800,300L800,300L780.488,300L760.976,257.143L741.463,300L721.951,300L702.439,300L682.927,300L663.415,300L643.902,300L624.39,300L604.878,300L585.366,300L565.854,300L546.341,300L526.829,300L507.317,300L487.805,300L468.293,257.143L448.78,300L429.268,300L409.756,300L390.244,300L370.732,300L351.22,300L331.707,300L312.195,300L292.683,257.143L273.171,257.143L253.659,300L234.146,257.143L214.634,300L195.122,214.286L175.61,257.143L156.098,300L136.585,300L117.073,300L97.561,300L78.049,300L58.537,300L39.024,300L19.512,300L0,300Z" fill="#ff9da6"/></g></g><path class="foreground" aria-hidden="true" d="" display="none"/></g><g transform="translate(0,0)"><path class="background" aria-hidden="true" d="M0,0h800v300h-800Z"/><g><g class="mark-area role-mark marks" role="graphics-object" aria-roledescription="area mark container"><path aria-label="Date: Mar 16, 2026; Unique Visitors/day: 0; Repository: karlmdavis/usgs-water-api-java" role="graphics-symbol" aria-roledescription="area mark" d="M0,300L19.512,300L39.024,300L58.537,300L78.049,300L97.561,300L117.073,300L136.585,300L156.098,300L175.61,257.143L195.122,214.286L214.634,300L234.146,257.143L253.659,300L273.171,257.143L292.683,257.143L312.195,300L331.707,300L351.22,300L370.732,300L390.244,300L409.756,300L429.268,300L448.78,300L468.293,257.143L487.805,300L507.317,300L526.829,300L546.341,300L565.854,300L585.366,300L604.878,300L624.39,300L643.902,300L663.415,300L682.927,300L702.439,300L721.951,300L741.463,300L760.976,257.143L780.488,300L800,300L800,300L780.488,300L760.976,257.143L741.463,300L721.951,300L702.439,300L682.927,300L663.415,300L643.902,300L624.39,300L604.878,300L585.366,300L565.854,300L546.341,300L526.829,300L507.317,300L487.805,300L468.293,257.143L448.78,300L429.268,300L409.756,300L390.244,300L370.732,300L351.22,300L331.707,300L312.195,300L292.683,257.143L273.171,257.143L253.659,300L234.146,257.143L214.634,300L195.122,214.286L175.61,257.143L156.098,300L136.585,300L117.073,300L97.561,300L78.049,300L58.537,300L39.024,300L19.512,300L0,300Z" fill="#9d755d"/></g></g><path class="foreground" aria-hidden="true" d="" display="none"/></g><g transform="translate(0,0)"><path class="background" aria-hidden="true" d="M0,0h800v300h-800Z"/><g><g class="mark-area role-mark marks" role="graphics-object" aria-roledescription="area mark container"><path aria-label="Date: Mar 16, 2026; Unique Visitors/day: 0; Repository: karlmdavis/workstation-base-ansible-role" role="graphics-symbol" aria-roledescription="area mark" d="M0,300L19.512,300L39.024,300L58.537,300L78.049,300L97.561,300L117.073,300L136.585,300L156.098,300L175.61,257.143L195.122,214.286L214.634,300L234.146,257.143L253.659,300L273.171,257.143L292.683,257.143L312.195,300L331.707,300L351.22,300L370.732,300L390.244,300L409.756,300L429.268,300L448.78,300L468.293,257.143L487.805,300L507.317,300L526.829,300L546.341,300L565.854,300L585.366,300L604.878,300L624.39,300L643.902,300L663.415,300L682.927,300L702.439,300L721.951,300L741.463,300L760.976,257.143L780.488,300L800,300L800,300L780.488,300L760.976,257.143L741.463,300L721.951,300L702.439,300L682.927,300L663.415,300L643.902,300L624.39,300L604.878,300L585.366,300L565.854,300L546.341,300L526.829,300L507.317,300L487.805,300L468.293,257.143L448.78,300L429.268,300L409.756,300L390.244,300L370.732,300L351.22,300L331.707,300L312.195,300L292.683,257.143L273.171,257.143L253.659,300L234.146,257.143L214.634,300L195.122,214.286L175.61,257.143L156.098,300L136.585,300L117.073,300L97.561,300L78.049,300L58.537,300L39.024,300L19.512,300L0,300Z" fill="#bab0ac"/></g></g><path class="foreground" aria-hidden="true" d="" display="none"/></g><g transform="translate(0,0)"><path class="background" aria-hidden="true" d="M0,0h800v300h-800Z"/><g><g class="mark-area role-mark marks" role="graphics-object" aria-roledescription="area mark container"><path aria-label="Date: Mar 16, 2026; Unique Visitors/day: 0; Repository: karlmdavis/xmlpull" role="graphics-symbol" aria-roledescription="area mark" d="M0,300L19.512,300L39.024,300L58.537,300L78.049,300L97.561,300L117.073,300L136.585,300L156.098,300L175.61,257.143L195.122,214.286L214.634,300L234.146,257.143L253.659,300L273.171,257.143L292.683,257.143L312.195,300L331.707,300L351.22,300L370.732,300L390.244,300L409.756,300L429.268,300L448.78,300L468.293,257.143L487.805,300L507.317,300L526.829,300L546.341,300L565.854,300L585.366,300L604.878,300L624.39,300L643.902,300L663.415,300L682.927,300L702.439,300L721.951,300L741.463,300L760.976,257.143L780.488,300L800,300L800,300L780.488,300L760.976,300L741.463,300L721.951,300L702.439,300L682.927,300L663.415,300L643.902,300L624.39,300L604.878,300L585.366,300L565.854,300L546.341,300L526.829,300L507.317,300L487.805,300L468.293,300L448.78,300L429.268,300L409.756,300L390.244,300L370.732,300L351.22,300L331.707,300L312.195,300L292.683,300L273.171,300L253.659,300L234.146,300L214.634,300L195.122,300L175.61,300L156.098,300L136.585,300L117.073,300L97.561,300L78.049,300L58.537,300L39.024,300L19.512,300L0,300Z" fill="#4c78a8"/></g></g><path class="foreground" aria-hidden="true" d="" display="none"/></g></g><g class="mark-group role-legend" role="graphics-symbol" aria-roledescription="legend" aria-label="Symbol legend titled 'Repository' for fill color with 41 values: karlmdavis/FHIR-Server, karlmdavis/ansible, karlmdavis/ansible-jenkins, karlmdavis/ansible-role-acmetool, karlmdavis/ansible-role-bind-dns, ending with karlmdavis/xmlpull"><g transform="translate(818,0)"><path class="background" aria-hidden="true" d="M0,0h176v404h-176Z" pointer-events="none"/><g><g class="mark-group role-legend-entry"><g transform="translate(0,16)"><path class="background" aria-hidden="true" d="M0,0h0v0h0Z" pointer-events="none"/><g><g class="mark-group role-scope" role="graphics-object" aria-roledescription="group mark container"><g transform="translate(0,0)"><path class="background" aria-hidden="true" d="M0,0h176v11h-176Z" pointer-events="none" opacity="1"/><g><g class="mark-symbol role-legend-symbol" pointer-events="none"><path transform="translate(6,6)" d="M5,0A5,5,0,1,1,-5,0A5,5,0,1,1,5,0" fill="#4c78a8" stroke-width="1.5" opacity="1"/></g><g class="mark-text role-legend-label" pointer-events="none"><text text-anchor="start" transform="translate(16,9)" font-family="sans-serif" font-size="10px" fill="#000" opacity="1">karlmdavis/FHIR-Server</text></g></g><path class="foreground" aria-hidden="true" d="" pointer-events="none" display="none"/></g><g transform="translate(0,13)"><path class="background" aria-hidden="true" d="M0,0h176v11h-176Z" pointer-events="none" opacity="1"/><g><g class="mark-symbol role-legend-symbol" pointer-events="none"><path transform="translate(6,6)" d="M5,0A5,5,0,1,1,-5,0A5,5,0,1,1,5,0" fill="#f58518" stroke-width="1.5" opacity="1"/></g><g class="mark-text role-legend-label" pointer-events="none"><text text-anchor="start" transform="translate(16,9)" font-family="sans-serif" font-size="10px" fill="#000" opacity="1">karlmdavis/ansible</text></g></g><path class="foreground" aria-hidden="true" d="" pointer-events="none" display="none"/></g><g transform="translate(0,26)"><path class="background" aria-hidden="true" d="M0,0h176v11h-176Z" pointer-events="none" opacity="1"/><g><g class="mark-symbol role-legend-symbol" pointer-events="none"><path transform="translate(6,6)" d="M5,0A5,5,0,1,1,-5,0A5,5,0,1,1,5,0" fill="#e45756" stroke-width="1.5" opacity="1"/></g><g class="mark-text role-legend-label" pointer-events="none"><text text-anchor="start" transform="translate(16,9)" font-family="sans-serif" font-size="10px" fill="#000" opacity="1">karlmdavis/ansible-jenkins</text></g></g><path class="foreground" aria-hidden="true" d="" pointer-events="none" display="none"/></g><g transform="translate(0,39)"><path class="background" aria-hidden="true" d="M0,0h176v11h-176Z" pointer-events="none" opacity="1"/><g><g class="mark-symbol role-legend-symbol" pointer-events="none"><path transform="translate(6,6)" d="M5,0A5,5,0,1,1,-5,0A5,5,0,1,1,5,0" fill="#72b7b2" stroke-width="1.5" opacity="1"/></g><g class="mark-text role-legend-label" pointer-events="none"><text text-anchor="start" transform="translate(16,9)" font-family="sans-serif" font-size="10px" fill="#000" opacity="1">karlmdavis/ansible-role-acmetool</text></g></g><path class="foreground" aria-hidden="true" d="" pointer-events="none" display="none"/></g><g transform="translate(0,52)"><path class="background" aria-hidden="true" d="M0,0h176v11h-176Z" pointer-events="none" opacity="1"/><g><g class="mark-symbol role-legend-symbol" pointer-events="none"><path transform="translate(6,6)" d="M5,0A5,5,0,1,1,-5,0A5,5,0,1,1,5,0" fill="#54a24b" stroke-width="1.5" opacity="1"/></g><g class="mark-text role-legend-label" pointer-events="none"><text text-anchor="start" transform="translate(16,9)" font-family="sans-serif" font-size="10px" fill="#000" opacity="1">karlmdavis/ansible-role-bind-dns</text></g></g><path class="foreground" aria-hidden="true" d="" pointer-events="none" display="none"/></g><g transform="translate(0,65)"><path class="background" aria-hidden="true" d="M0,0h176v11h-176Z" pointer-events="none" opacity="1"/><g><g class="mark-symbol role-legend-symbol" pointer-events="none"><path transform="translate(6,6)" d="M5,0A5,5,0,1,1,-5,0A5,5,0,1,1,5,0" fill="#eeca3b" stroke-width="1.5" opacity="1"/></g><g class="mark-text role-legend-label" pointer-events="none"><text text-anchor="start" transform="translate(16,9)" font-family="sans-serif" font-size="10px" fill="#000" opacity="1">karlmdavis/ansible-role-jenkins2</text></g></g><path class="foreground" aria-hidden="true" d="" pointer-events="none" display="none"/></g><g transform="translate(0,78)"><path class="background" aria-hidden="true" d="M0,0h176v11h-176Z" pointer-events="none" opacity="1"/><g><g class="mark-symbol role-legend-symbol" pointer-events="none"><path transform="translate(6,6)" d="M5,0A5,5,0,1,1,-5,0A5,5,0,1,1,5,0" fill="#b279a2" stroke-width="1.5" opacity="1"/></g><g class="mark-text role-legend-label" pointer-events="none"><text text-anchor="start" transform="translate(16,9)" font-family="sans-serif" font-size="10px" fill="#000" opacity="1">karlmdavis/ansible-role-ldap</text></g></g><path class="foreground" aria-hidden="true" d="" pointer-events="none" display="none"/></g><g transform="translate(0,91)"><path class="background" aria-hidden="true" d="M0,0h176v11h-176Z" pointer-events="none" opacity="1"/><g><g class="mark-symbol role-legend-symbol" pointer-events="none"><path transform="translate(6,6)" d="M5,0A5,5,0,1,1,-5,0A5,5,0,1,1,5,0" fill="#ff9da6" stroke-width="1.5" opacity="1"/></g><g class="mark-text role-legend-label" pointer-events="none"><text text-anchor="start" transform="translate(16,9)" font-family="sans-serif" font-size="10px" fill="#000" opacity="1">karlmdavis/ansible-role-rcm-dotfiles</text></g></g><path class="foreground" aria-hidden="true" d="" pointer-events="none" display="none"/></g><g transform="translate(0,104)"><path class="background" aria-hidden="true" d="M0,0h176v11h-176Z" pointer-events="none" opacity="1"/><g><g class="mark-symbol role-legend-symbol" pointer-events="none"><path transform="translate(6,6)" d="M5,0A5,5,0,1,1,-5,0A5,5,0,1,1,5,0" fill="#9d755d" stroke-width="1.5" opacity="1"/></g><g class="mark-text role-legend-label" pointer-events="none"><text text-anchor="start" transform="translate(16,9)" font-family="sans-serif" font-size="10px" fill="#000" opacity="1">karlmdavis/ansible-roles</text></g></g><path class="foreground" aria-hidden="true" d="" pointer-events="none" display="none"/></g><g transform="translate(0,117)"><path class="background" aria-hidden="true" d="M0,0h176v11h-176Z" pointer-events="none" opacity="1"/><g><g class="mark-symbol role-legend-symbol" pointer-events="none"><path transform="translate(6,6)" d="M5,0A5,5,0,1,1,-5,0A5,5,0,1,1,5,0" fill="#bab0ac" stroke-width="1.5" opacity="1"/></g><g class="mark-text role-legend-label" pointer-events="none"><text text-anchor="start" transform="translate(16,9)" font-family="sans-serif" font-size="10px" fill="#000" opacity="1">karlmdavis/bbonfhir-dev-infra-doc…</text></g></g><path class="foreground" aria-hidden="true" d="" pointer-events="none" display="none"/></g><g transform="translate(0,130)"><path class="background" aria-hidden="true" d="M0,0h176v11h-176Z" pointer-events="none" opacity="1"/><g><g class="mark-symbol role-legend-symbol" pointer-events="none"><path transform="translate(6,6)" d="M5,0A5,5,0,1,1,-5,0A5,5,0,1,1,5,0" fill="#4c78a8" stroke-width="1.5" opacity="1"/></g><g class="mark-text role-legend-label" pointer-events="none"><text text-anchor="start" transform="translate(16,9)" font-family="sans-serif" font-size="10px" fill="#000" opacity="1">karlmdavis/can-i-kayak-baltimore</text></g></g><path class="foreground" aria-hidden="true" d="" pointer-events="none" display="none"/></g><g transform="translate(0,143)"><path class="background" aria-hidden="true" d="M0,0h176v11h-176Z" pointer-events="none" opacity="1"/><g><g class="mark-symbol role-legend-symbol" pointer-events="none"><path transform="translate(6,6)" d="M5,0A5,5,0,1,1,-5,0A5,5,0,1,1,5,0" fill="#f58518" stroke-width="1.5" opacity="1"/></g><g class="mark-text role-legend-label" pointer-events="none"><text text-anchor="start" transform="translate(16,9)" font-family="sans-serif" font-size="10px" fill="#000" opacity="1">karlmdavis/datanucleus-test-jdo-1…</text></g></g><path class="foreground" aria-hidden="true" d="" pointer-events="none" display="none"/></g><g transform="translate(0,156)"><path class="background" aria-hidden="true" d="M0,0h176v11h-176Z" pointer-events="none" opacity="1"/><g><g class="mark-symbol role-legend-symbol" pointer-events="none"><path transform="translate(6,6)" d="M5,0A5,5,0,1,1,-5,0A5,5,0,1,1,5,0" fill="#e45756" stroke-width="1.5" opacity="1"/></g><g class="mark-text role-legend-label" pointer-events="none"><text text-anchor="start" transform="translate(16,9)" font-family="sans-serif" font-size="10px" fill="#000" opacity="1">karlmdavis/dotfiles</text></g></g><path class="foreground" aria-hidden="true" d="" pointer-events="none" display="none"/></g><g transform="translate(0,169)"><path class="background" aria-hidden="true" d="M0,0h176v11h-176Z" pointer-events="none" opacity="1"/><g><g class="mark-symbol role-legend-symbol" pointer-events="none"><path transform="translate(6,6)" d="M5,0A5,5,0,1,1,-5,0A5,5,0,1,1,5,0" fill="#72b7b2" stroke-width="1.5" opacity="1"/></g><g class="mark-text role-legend-label" pointer-events="none"><text text-anchor="start" transform="translate(16,9)" font-family="sans-serif" font-size="10px" fill="#000" opacity="1">karlmdavis/fhir-benchmarks</text></g></g><path class="foreground" aria-hidden="true" d="" pointer-events="none" display="none"/></g><g transform="translate(0,182)"><path class="background" aria-hidden="true" d="M0,0h176v11h-176Z" pointer-events="none" opacity="1"/><g><g class="mark-symbol role-legend-symbol" pointer-events="none"><path transform="translate(6,6)" d="M5,0A5,5,0,1,1,-5,0A5,5,0,1,1,5,0" fill="#54a24b" stroke-width="1.5" opacity="1"/></g><g class="mark-text role-legend-label" pointer-events="none"><text text-anchor="start" transform="translate(16,9)" font-family="sans-serif" font-size="10px" fill="#000" opacity="1">karlmdavis/hapi-fhir-jpaserver-sta…</text></g></g><path class="foreground" aria-hidden="true" d="" pointer-events="none" display="none"/></g><g transform="translate(0,195)"><path class="background" aria-hidden="true" d="M0,0h176v11h-176Z" pointer-events="none" opacity="1"/><g><g class="mark-symbol role-legend-symbol" pointer-events="none"><path transform="translate(6,6)" d="M5,0A5,5,0,1,1,-5,0A5,5,0,1,1,5,0" fill="#eeca3b" stroke-width="1.5" opacity="1"/></g><g class="mark-text role-legend-label" pointer-events="none"><text text-anchor="start" transform="translate(16,9)" font-family="sans-serif" font-size="10px" fill="#000" opacity="1">karlmdavis/hello-rust-actix</text></g></g><path class="foreground" aria-hidden="true" d="" pointer-events="none" display="none"/></g><g transform="translate(0,208)"><path class="background" aria-hidden="true" d="M0,0h176v11h-176Z" pointer-events="none" opacity="1"/><g><g class="mark-symbol role-legend-symbol" pointer-events="none"><path transform="translate(6,6)" d="M5,0A5,5,0,1,1,-5,0A5,5,0,1,1,5,0" fill="#b279a2" stroke-width="1.5" opacity="1"/></g><g class="mark-text role-legend-label" pointer-events="none"><text text-anchor="start" transform="translate(16,9)" font-family="sans-serif" font-size="10px" fill="#000" opacity="1">karlmdavis/jessentials</text></g></g><path class="foreground" aria-hidden="true" d="" pointer-events="none" display="none"/></g><g transform="translate(0,221)"><path class="background" aria-hidden="true" d="M0,0h176v11h-176Z" pointer-events="none" opacity="1"/><g><g class="mark-symbol role-legend-symbol" pointer-events="none"><path transform="translate(6,6)" d="M5,0A5,5,0,1,1,-5,0A5,5,0,1,1,5,0" fill="#ff9da6" stroke-width="1.5" opacity="1"/></g><g class="mark-text role-legend-label" pointer-events="none"><text text-anchor="start" transform="translate(16,9)" font-family="sans-serif" font-size="10px" fill="#000" opacity="1">karlmdavis/justdavis-ansible</text></g></g><path class="foreground" aria-hidden="true" d="" pointer-events="none" display="none"/></g><g transform="translate(0,234)"><path class="background" aria-hidden="true" d="M0,0h176v11h-176Z" pointer-events="none" opacity="1"/><g><g class="mark-symbol role-legend-symbol" pointer-events="none"><path transform="translate(6,6)" d="M5,0A5,5,0,1,1,-5,0A5,5,0,1,1,5,0" fill="#9d755d" stroke-width="1.5" opacity="1"/></g><g class="mark-text role-legend-label" pointer-events="none"><text text-anchor="start" transform="translate(16,9)" font-family="sans-serif" font-size="10px" fill="#000" opacity="1">karlmdavis/justdavis-finances</text></g></g><path class="foreground" aria-hidden="true" d="" pointer-events="none" display="none"/></g><g transform="translate(0,247)"><path class="background" aria-hidden="true" d="M0,0h176v11h-176Z" pointer-events="none" opacity="1"/><g><g class="mark-symbol role-legend-symbol" pointer-events="none"><path transform="translate(6,6)" d="M5,0A5,5,0,1,1,-5,0A5,5,0,1,1,5,0" fill="#bab0ac" stroke-width="1.5" opacity="1"/></g><g class="mark-text role-legend-label" pointer-events="none"><text text-anchor="start" transform="translate(16,9)" font-family="sans-serif" font-size="10px" fill="#000" opacity="1">karlmdavis/justdavis-karl</text></g></g><path class="foreground" aria-hidden="true" d="" pointer-events="none" display="none"/></g><g transform="translate(0,260)"><path class="background" aria-hidden="true" d="M0,0h176v11h-176Z" pointer-events="none" opacity="1"/><g><g class="mark-symbol role-legend-symbol" pointer-events="none"><path transform="translate(6,6)" d="M5,0A5,5,0,1,1,-5,0A5,5,0,1,1,5,0" fill="#4c78a8" stroke-width="1.5" opacity="1"/></g><g class="mark-text role-legend-label" pointer-events="none"><text text-anchor="start" transform="translate(16,9)" font-family="sans-serif" font-size="10px" fill="#000" opacity="1">karlmdavis/justdavis-puppet</text></g></g><path class="foreground" aria-hidden="true" d="" pointer-events="none" display="none"/></g><g transform="translate(0,273)"><path class="background" aria-hidden="true" d="M0,0h176v11h-176Z" pointer-events="none" opacity="1"/><g><g class="mark-symbol role-legend-symbol" pointer-events="none"><path transform="translate(6,6)" d="M5,0A5,5,0,1,1,-5,0A5,5,0,1,1,5,0" fill="#f58518" stroke-width="1.5" opacity="1"/></g><g class="mark-text role-legend-label" pointer-events="none"><text text-anchor="start" transform="translate(16,9)" font-family="sans-serif" font-size="10px" fill="#000" opacity="1">karlmdavis/kobjects</text></g></g><path class="foreground" aria-hidden="true" d="" pointer-events="none" display="none"/></g><g transform="translate(0,286)"><path class="background" aria-hidden="true" d="M0,0h176v11h-176Z" pointer-events="none" opacity="1"/><g><g class="mark-symbol role-legend-symbol" pointer-events="none"><path transform="translate(6,6)" d="M5,0A5,5,0,1,1,-5,0A5,5,0,1,1,5,0" fill="#e45756" stroke-width="1.5" opacity="1"/></g><g class="mark-text role-legend-label" pointer-events="none"><text text-anchor="start" transform="translate(16,9)" font-family="sans-serif" font-size="10px" fill="#000" opacity="1">karlmdavis/ksoap2-android</text></g></g><path class="foreground" aria-hidden="true" d="" pointer-events="none" display="none"/></g><g transform="translate(0,299)"><path class="background" aria-hidden="true" d="M0,0h176v11h-176Z" pointer-events="none" opacity="1"/><g><g class="mark-symbol role-legend-symbol" pointer-events="none"><path transform="translate(6,6)" d="M5,0A5,5,0,1,1,-5,0A5,5,0,1,1,5,0" fill="#72b7b2" stroke-width="1.5" opacity="1"/></g><g class="mark-text role-legend-label" pointer-events="none"><text text-anchor="start" transform="translate(16,9)" font-family="sans-serif" font-size="10px" fill="#000" opacity="1">karlmdavis/kxml2</text></g></g><path class="foreground" aria-hidden="true" d="" pointer-events="none" display="none"/></g><g transform="translate(0,312)"><path class="background" aria-hidden="true" d="M0,0h176v11h-176Z" pointer-events="none" opacity="1"/><g><g class="mark-symbol role-legend-symbol" pointer-events="none"><path transform="translate(6,6)" d="M5,0A5,5,0,1,1,-5,0A5,5,0,1,1,5,0" fill="#54a24b" stroke-width="1.5" opacity="1"/></g><g class="mark-text role-legend-label" pointer-events="none"><text text-anchor="start" transform="translate(16,9)" font-family="sans-serif" font-size="10px" fill="#000" opacity="1">karlmdavis/ldap-plugin</text></g></g><path class="foreground" aria-hidden="true" d="" pointer-events="none" display="none"/></g><g transform="translate(0,325)"><path class="background" aria-hidden="true" d="M0,0h176v11h-176Z" pointer-events="none" opacity="1"/><g><g class="mark-symbol role-legend-symbol" pointer-events="none"><path transform="translate(6,6)" d="M5,0A5,5,0,1,1,-5,0A5,5,0,1,1,5,0" fill="#eeca3b" stroke-width="1.5" opacity="1"/></g><g class="mark-text role-legend-label" pointer-events="none"><text text-anchor="start" transform="translate(16,9)" font-family="sans-serif" font-size="10px" fill="#000" opacity="1">karlmdavis/lego-ev3dev-rs</text></g></g><path class="foreground" aria-hidden="true" d="" pointer-events="none" display="none"/></g><g transform="translate(0,338)"><path class="background" aria-hidden="true" d="M0,0h176v11h-176Z" pointer-events="none" opacity="1"/><g><g class="mark-symbol role-legend-symbol" pointer-events="none"><path transform="translate(6,6)" d="M5,0A5,5,0,1,1,-5,0A5,5,0,1,1,5,0" fill="#b279a2" stroke-width="1.5" opacity="1"/></g><g class="mark-text role-legend-label" pointer-events="none"><text text-anchor="start" transform="translate(16,9)" font-family="sans-serif" font-size="10px" fill="#000" opacity="1">karlmdavis/liquibase</text></g></g><path class="foreground" aria-hidden="true" d="" pointer-events="none" display="none"/></g><g transform="translate(0,351)"><path class="background" aria-hidden="true" d="M0,0h176v11h-176Z" pointer-events="none" opacity="1"/><g><g class="mark-symbol role-legend-symbol" pointer-events="none"><path transform="translate(6,6)" d="M5,0A5,5,0,1,1,-5,0A5,5,0,1,1,5,0" fill="#ff9da6" stroke-width="1.5" opacity="1"/></g><g class="mark-text role-legend-label" pointer-events="none"><text text-anchor="start" transform="translate(16,9)" font-family="sans-serif" font-size="10px" fill="#000" opacity="1">karlmdavis/m2e-core</text></g></g><path class="foreground" aria-hidden="true" d="" pointer-events="none" display="none"/></g><g transform="translate(0,364)"><path class="background" aria-hidden="true" d="M0,0h176v11h-176Z" pointer-events="none" opacity="1"/><g><g class="mark-symbol role-legend-symbol" pointer-events="none"><path transform="translate(6,6)" d="M5,0A5,5,0,1,1,-5,0A5,5,0,1,1,5,0" fill="#9d755d" stroke-width="1.5" opacity="1"/></g><g class="mark-text role-legend-label" pointer-events="none"><text text-anchor="start" transform="translate(16,9)" font-family="sans-serif" font-size="10px" fill="#000" opacity="1">karlmdavis/m2e-core-tests</text></g></g><path class="foreground" aria-hidden="true" d="" pointer-events="none" display="none"/></g><g transform="translate(0,377)"><path class="background" aria-hidden="true" d="M0,0h176v11h-176Z" pointer-events="none" opacity="1"/><g><g class="mark-symbol role-legend-symbol" pointer-events="none"><path transform="translate(6,6)" d="M5,0A5,5,0,1,1,-5,0A5,5,0,1,1,5,0" fill="#bab0ac" stroke-width="1.5" opacity="1"/></g><g class="mark-text role-legend-label" pointer-events="none"><text text-anchor="start" transform="translate(16,9)" font-family="sans-serif" font-size="10px" fill="#000" opacity="1">…12 entries</text></g></g><path class="foreground" aria-hidden="true" d="" pointer-events="none" display="none"/></g></g></g><path class="foreground" aria-hidden="true" d="" pointer-events="none" display="none"/></g></g><g class="mark-text role-legend-title" pointer-events="none"><text text-anchor="start" transform="translate(0,9)" font-family="sans-serif" font-size="11px" font-weight="bold" fill="#000" opacity="1">Repository</text></g></g><path class="foreground" aria-hidden="true" d="" pointer-events="none" display="none"/></g></g><g class="mark-group role-title"><g transform="translate(400,-22)"><path class="background" aria-hidden="true" d="M0,0h0v0h0Z" pointer-events="none"/><g><g class="mark-text role-title-text" role="graphics-symbol" aria-roledescription="title" aria-label="Title text 'Unique Visitors per Day'" pointer-events="none"><text text-anchor="middle" transform="translate(0,10)" font-family="sans-serif" font-size="13px" font-weight="bold" fill="#000" opacity="1">Unique Visitors per Day</text></g></g><path class="foreground" aria-hidden="true" d="" pointer-events="none" display="none"/></g></g></g><path class="foreground" aria-hidden="true" d="" display="none"/></g></g></g></svg>