<svg xmlns="http://www.w3.org/2000/svg" xmlns:xlink="http://www.w3.org/1999/xlink" version="1.1" class="marks" width="1032" height="436" viewBox="0 0 1032 436"><rect width="1032" height="436" fill="white"/><g fill="none" stroke-miterlimit="10" transform="translate(33,27)"><g class="mark-group role-frame root" role="graphics-object" aria-roledescription="group mark container"><g transform="translate(0,0)"><path class="background" aria-hidden="true" d="M0.5,0.5h800v300h-800Z" stroke="#ddd"/><g><g class="mark-group role-axis" aria-hidden="true"><g transform="translate(0.5,300.5)"><path class="background" aria-hidden="true" d="M0,0h0v0h0Z" pointer-events="none"/><g><g class="mark-rule role-axis-grid" pointer-events="none"><line transform="translate(23,-300)" x2="0" y2="300" stroke="#ddd" stroke-width="1" opacity="1"/><line transform="translate(69,-300)" x2="0" y2="300" stroke="#ddd" stroke-width="1" opacity="1"/><line transform="translate(114,-300)" x2="0" y2="300" stroke="#ddd" stroke-width="1" opacity="1"/><line transform="translate(160,-300)" x2="0" y2="300" stroke="#ddd" stroke-width="1" opacity="1"/><line transform="translate(206,-300)" x2="0" y2="300" stroke="#ddd" stroke-width="1" opacity="1"/><line transform="translate(251,-300)" x2="0" y2="300" stroke="#ddd" stroke-width="1" opacity="1"/><line transform="translate(297,-300)" x2="0" y2="300" stroke="#ddd" stroke-width="1" opacity="1"/><line transform="translate(343,-300)" x2="0" y2="300" stroke="#ddd" stroke-width="1" opacity="1"/><line transform="translate(366,-300)" x2="0" y2="300" stroke="#ddd" stroke-width="1" opacity="1"/><line transform="translate(411,-300)" x2="0" y2="300" stroke="#ddd" stroke-width="1" opacity="1"/><line transform="translate(457,-300)" x2="0" y2="300" stroke="#ddd" stroke-width="1" opacity="1"/><line transform="translate(503,-300)" x2="0" y2="300" stroke="#ddd" stroke-width="1" opacity="1"/><line transform="translate(549,-300)" x2="0" y2="300" stroke="#ddd" stroke-width="1" opacity="1"/><line transform="translate(594,-300)" x2="0" y2="300" stroke="#ddd" stroke-width="1" opacity="1"/><line transform="translate(640,-300)" x2="0" y2="300" stroke="#ddd" stroke-width="1" opacity="1"/><line transform="translate(686,-300)" x2="0" y2="300" stroke="#ddd" stroke-width="1" opacity="1"/><line transform="translate(731,-300)" x2="0" y2="300" stroke="#ddd" stroke-width="1" opacity="1"/><line transform="translate(777,-300)" x2="0" y2="300" stroke="#ddd" stroke-width="1" opacity="1"/></g></g><path class="foreground" aria-hidden="true" d="" pointer-events="none" display="none"/></g></g><g class="mark-group role-axis" aria-hidden="true"><g transform="translate(0.5,0.5)"><path class="background" aria-hidden="true" d="M0,0h0v0h0Z" pointer-events="none"/><g><g class="mark-rule role-axis-grid" pointer-events="none"><line transform="translate(0,300)" x2="800" y2="0" stroke="#ddd" stroke-width="1" opacity="1"/><line transform="translate(0,257)" x2="800" y2="0" stroke="#ddd" stroke-width="1" opacity="1"/><line transform="translate(0,214)" x2="800" y2="0" stroke="#ddd" stroke-width="1" opacity="1"/><line transform="translate(0,171)" x2="800" y2="0" stroke="#ddd" stroke-width="1" opacity="1"/><line transform="translate(0,129)" x2="800" y2="0" stroke="#ddd" stroke-width="1" opacity="1"/><line transform="translate(0,86)" x2="800" y2="0" stroke="#ddd" stroke-width="1" opacity="1"/><line transform="translate(0,43)" x2="800" y2="0" stroke="#ddd" stroke-width="1" opacity="1"/><line transform="translate(0,0)" x2="800" y2="0" stroke="#ddd" stroke-width="1" opacity="1"/></g></g><path class="foreground" aria-hidden="true" d="" pointer-events="none" display="none"/></g></g><g class="mark-group role-axis" role="graphics-symbol" aria-roledescription="axis" aria-label="X-axis titled 'Date' for a time scale with values from Monday, 16 March 2026, 12:00:00 AM to Monday, 20 April 2026, 12:00:00 AM"><g transform="translate(0.5,300.5)"><path class="background" aria-hidden="true" d="M0,0h0v0h0Z" pointer-events="none"/><g><g class="mark-rule role-axis-tick" pointer-events="none"><line transform="translate(23,0)" x2="0" y2="5" stroke="#888" stroke-width="1" opacity="1"/><line transform="translate(69,0)" x2="0" y2="5" stroke="#888" stroke-width="1" opacity="1"/><line transform="translate(114,0)" x2="0" y2="5" stroke="#888" stroke-width="1" opacity="1"/><line transform="translate(160,0)" x2="0" y2="5" stroke="#888" stroke-width="1" opacity="1"/><line transform="translate(206,0)" x2="0" y2="5" stroke="#888" stroke-width="1" opacity="1"/><line transform="translate(251,0)" x2="0" y2="5" stroke="#888" stroke-width="1" opacity="1"/><line transform="translate(297,0)" x2="0" y2="5" stroke="#888" stroke-width="1" opacity="1"/><line transform="translate(343,0)" x2="0" y2="5" stroke="#888" stroke-width="1" opacity="1"/><line transform="translate(366,0)" x2="0" y2="5" stroke="#888" stroke-width="1" opacity="1"/><line transform="translate(411,0)" x2="0" y2="5" stroke="#888" stroke-width="1" opacity="1"/><line transform="translate(457,0)" x2="0" y2="5" stroke="#888" stroke-width="1" opacity="1"/><line transform="translate(503,0)" x2="0" y2="5" stroke="#888" stroke-width="1" opacity="1"/><line transform="translate(549,0)" x2="0" y2="5" stroke="#888" stroke-width="1" opacity="1"/><line transform="translate(594,0)" x2="0" y2="5" stroke="#888" stroke-width="1" opacity="1"/><line transform="translate(640,0)" x2="0" y2="5" stroke="#888" stroke-width="1" opacity="1"/><line transform="translate(686,0)" x2="0" y2="5" stroke="#888" stroke-width="1" opacity="1"/><line transform="translate(731,0)" x2="0" y2="5" stroke="#888" stroke-width="1" opacity="1"/><line transform="translate(777,0)" x2="0" y2="5" stroke="#888" stroke-width="1" opacity="1"/></g><g class="mark-text role-axis-label" pointer-events="none"><text text-anchor="middle" transform="translate(22.857142857142858,15)" font-family="sans-serif" font-size="10px" fill="#000" opacity="1">Tue 17</text><text text-anchor="middle" transform="translate(68.57142857142857,15)" font-family="sans-serif" font-size="10px" fill="#000" opacity="0">Thu 19</text><text text-anchor="middle" transform="translate(114.28571428571428,15)" font-family="sans-serif" font-size="10px" fill="#000" opacity="1">Sat 21</text><text text-anchor="middle" transform="translate(160,15)" font-family="sans-serif" font-size="10px" fill="#000" opacity="0">Mon 23</text><text text-anchor="middle" transform="translate(205.7142857142857,15)" font-family="sans-serif" font-size="10px" fill="#000" opacity="1">Wed 25</text><text text-anchor="middle" transform="translate(251.42857142857142,15)" font-family="sans-serif" font-size="10px" fill="#000" opacity="0">Fri 27</text><text text-anchor="middle" transform="translate(297.14285714285717,15)" font-family="sans-serif" font-size="10px" fill="#000" opacity="1">Mar 29</text><text text-anchor="middle" transform="translate(342.85714285714283,15)" font-family="sans-serif" font-size="10px" fill="#000" opacity="0">Tue 31</text><text text-anchor="middle" transform="translate(365.7142857142857,15)" font-family="sans-serif" font-size="10px" fill="#000" opacity="1">April</text><text text-anchor="middle" transform="translate(411.4285714285714,15)" font-family="sans-serif" font-size="10px" fill="#000" opacity="0">Fri 03</text><text text-anchor="middle" transform="translate(457.1428571428571,15)" font-family="sans-serif" font-size="10px" fill="#000" opacity="1">Apr 05</text><text text-anchor="middle" transform="translate(502.85714285714283,15)" font-family="sans-serif" font-size="10px" fill="#000" opacity="0">Tue 07</text><text text-anchor="middle" transform="translate(548.5714285714286,15)" font-family="sans-serif" font-size="10px" fill="#000" opacity="1">Thu 09</text><text text-anchor="middle" transform="translate(594.2857142857143,15)" font-family="sans-serif" font-size="10px" fill="#000" opacity="0">Sat 11</text><text text-anchor="middle" transform="translate(640,15)" font-family="sans-serif" font-size="10px" fill="#000" opacity="1">Mon 13</text><text text-anchor="middle" transform="translate(685.7142857142857,15)" font-family="sans-serif" font-size="10px" fill="#000" opacity="0">Wed 15</text><text text-anchor="middle" transform="translate(731.4285714285714,15)" font-family="sans-serif" font-size="10px" fill="#000" opacity="1">Fri 17</text><text text-anchor="middle" transform="translate(777.1428571428571,15)" font-family="sans-serif" font-size="10px" fill="#000" opacity="0">Apr 19</text></g><g class="mark-rule role-axis-domain" pointer-events="none"><line transform="translate(0,0)" x2="800" y2="0" stroke="#888" stroke-width="1" opacity="1"/></g><g class="mark-text role-axis-title" pointer-events="none"><text text-anchor="middle" transform="translate(400,30)" font-family="sans-serif" font-size="11px" font-weight="bold" fill="#000" opacity="1">Date</text></g></g><path class="foreground" aria-hidden="true" d="" pointer-events="none" display="none"/></g></g><g class="mark-group role-axis" role="graphics-symbol" aria-roledescription="axis" aria-label="Y-axis titled 'Unique Visitors/day' for a linear scale with values from 0 to 7"><g transform="translate(0.5,0.5)"><path class="background" aria-hidden="true" d="M0,0h0v0h0Z" pointer-events="none"/><g><g class="mark-rule role-axis-tick" pointer-events="none"><line transform="translate(0,300)" x2="-5" y2="0" stroke="#888" stroke-width="1" opacity="1"/><line transform="translate(0,257)" x2="-5" y2="0" stroke="#888" stroke-width="1" opacity="1"/><line transform="translate(0,214)" x2="-5" y2="0" stroke="#888" stroke-width="1" opacity="1"/><line transform="translate(0,171)" x2="-5" y2="0" stroke="#888" stroke-width="1" opacity="1"/><line transform="translate(0,129)" x2="-5" y2="0" stroke="#888" stroke-width="1" opacity="1"/><line transform="translate(0,86)" x2="-5" y2="0" stroke="#888" stroke-width="1" opacity="1"/><line transform="translate(0,43)" x2="-5" y2="0" stroke="#888" stroke-width="1" opacity="1"/><line transform="translate(0,0)" x2="-5" y2="0" stroke="#888" stroke-width="1" opacity="1"/></g><g class="mark-text role-axis-label" pointer-events="none"><text text-anchor="end" transform="translate(-7,303)" font-family="sans-serif" font-size="10px" fill="#000" opacity="1">0</text><text text-anchor="end" transform="translate(-7,260.14285714285717)" font-family="sans-serif" font-size="10px" fill="#000" opacity="1">1</text><text text-anchor="end" transform="translate(-7,217.28571428571428)" font-family="sans-serif" font-size="10px" fill="#000" opacity="1">2</text><text text-anchor="end" transform="translate(-7,174.42857142857142)" font-family="sans-serif" font-size="10px" fill="#000" opacity="1">3</text><text text-anchor="end" transform="translate(-7,131.57142857142858)" font-family="sans-serif" font-size="10px" fill="#000" opacity="1">4</text><text text-anchor="end" transform="translate(-7,88.71428571428571)" font-family="sans-serif" font-size="10px" fill="#000" opacity="1">5</text><text text-anchor="end" transform="translate(-7,45.85714285714287)" font-family="sans-serif" font-size="10px" fill="#000" opacity="1">6</text><text text-anchor="end" transform="translate(-7,3)" font-family="sans-serif" font-size="10px" fill="#000" opacity="1">7</text></g><g class="mark-rule role-axis-domain" pointer-events="none"><line transform="translate(0,300)" x2="0" y2="-300" stroke="#888" stroke-width="1" opacity="1"/></g><g class="mark-text role-axis-title" pointer-events="none"><text text-anchor="middle" transform="translate(-16.5615234375,150) rotate(-90) translate(0,-2)" font-family="sans-serif" font-size="11px" font-weight="bold" fill="#000" opacity="1">Unique Visitors/day</text></g></g><path class="foreground" aria-hidden="true" d="" pointer-events="none" display="none"/></g></g><g class="mark-group role-scope pathgroup" role="graphics-object" aria-roledescription="group mark container"><g transform="translate(0,0)"><path class="background" aria-hidden="true" d="M0,0h800v300h-800Z"/><g><g class="mark-area role-mark marks" role="graphics-object" aria-roledescription="area mark container"><path aria-label="Date: Mar 16, 2026; Unique Visitors/day: 0; Repository: karlmdavis/FHIR-Server" role="graphics-symbol" aria-roledescription="area mark" d="M0,300L22.857,300L45.714,300L68.571,300L91.429,300L114.286,300L137.143,300L160,171.429L182.857,171.429L205.714,128.571L228.571,171.429L251.429,171.429L274.286,171.429L297.143,257.143L320,0L342.857,257.143L365.714,128.571L388.571,257.143L411.429,300L434.286,214.286L457.143,257.143L480,300L502.857,257.143L525.714,257.143L548.571,257.143L571.429,214.286L594.286,300L617.143,42.857L640,300L662.857,257.143L685.714,171.429L708.571,300L731.429,214.286L754.286,300L777.143,257.143L800,214.286L800,214.286L777.143,257.143L754.286,300L731.429,214.286L708.571,300L685.714,171.429L662.857,257.143L640,300L617.143,42.857L594.286,300L571.429,214.286L548.571,257.143L525.714,257.143L502.857,257.143L480,300L457.143,257.143L434.286,214.286L411.429,300L388.571,257.143L365.714,128.571L342.857,257.143L320,0L297.143,257.143L274.286,171.429L251.429,171.429L228.571,171.429L205.714,128.571L182.857,171.429L160,171.429L137.143,300L114.286,300L91.429,300L68.571,300L45.714,300L22.857,300L0,300Z" fill="#4c78a8"/></g></g><path class="foreground" aria-hidden="true" d="" display="none"/></g><g transform="translate(0,0)"><path class="background" aria-hidden="true" d="M0,0h800v300h-800Z"/><g><g class="mark-area role-mark marks" role="graphics-object" aria-roledescription="area mark container"><path aria-label="Date: Mar 16, 2026; Unique Visitors/day: 0; Repository: karlmdavis/ansible" role="graphics-symbol" aria-roledescription="area mark" d="M0,300L22.857,300L45.714,300L68.571,300L91.429,300L114.286,300L137.143,300L160,171.429L182.857,171.429L205.714,128.571L228.571,171.429L251.429,171.429L274.286,171.429L297.143,257.143L320,0L342.857,257.143L365.714,128.571L388.571,257.143L411.429,300L434.286,214.286L457.143,257.143L480,300L502.857,257.143L525.714,257.143L548.571,257.143L571.429,214.286L594.286,300L617.143,42.857L640,300L662.857,257.143L685.714,171.429L708.571,300L731.429,214.286L754.286,300L777.143,257.143L800,214.286L800,214.286L777.143,257.143L754.286,300L731.429,214.286L708.571,300L685.714,171.429L662.857,257.143L640,300L617.143,42.857L594.286,300L571.429,214.286L548.571,257.143L525.714,257.143L502.857,257.143L480,300L457.143,257.143L434.286,214.286L411.429,300L388.571,257.143L365.714,128.571L342.857,257.143L320,0L297.143,257.143L274.286,171.429L251.429,171.429L228.571,171.429L205.714,128.571L182.857,171.429L160,171.429L137.143,300L114.286,300L91.429,300L68.571,300L45.714,300L22.857,300L0,300Z" fill="#f58518"/></g></g><path class="foreground" aria-hidden="true" d="" display="none"/></g><g transform="translate(0,0)"><path class="background" aria-hidden="true" d="M0,0h800v300h-800Z"/><g><g class="mark-area role-mark marks" role="graphics-object" aria-roledescription="area mark container"><path aria-label="Date: Mar 16, 2026; Unique Visitors/day: 0; Repository: karlmdavis/ansible-jenkins" role="graphics-symbol" aria-roledescription="area mark" d="M0,300L22.857,300L45.714,300L68.571,300L91.429,300L114.286,300L137.143,300L160,171.429L182.857,171.429L205.714,128.571L228.571,171.429L251.429,171.429L274.286,171.429L297.143,257.143L320,0L342.857,257.143L365.714,128.571L388.571,257.143L411.429,300L434.286,214.286L457.143,257.143L480,300L502.857,257.143L525.714,257.143L548.571,257.143L571.429,214.286L594.286,300L617.143,42.857L640,300L662.857,257.143L685.714,171.429L708.571,300L731.429,214.286L754.286,300L777.143,257.143L800,214.286L800,214.286L777.143,257.143L754.286,300L731.429,214.286L708.571,300L685.714,171.429L662.857,257.143L640,300L617.143,42.857L594.286,300L571.429,214.286L548.571,257.143L525.714,257.143L502.857,257.143L480,300L457.143,257.143L434.286,214.286L411.429,300L388.571,257.143L365.714,128.571L342.857,257.143L320,0L297.143,257.143L274.286,171.429L251.429,171.429L228.571,171.429L205.714,128.571L182.857,171.429L160,171.429L137.143,300L114.286,300L91.429,300L68.571,300L45.714,300L22.857,300L0,300Z" fill="#e45756"/></g></g><path class="foreground" aria-hidden="true" d="" display="none"/></g><g transform="translate(0,0)"><path class="background" aria-hidden="true" d="M0,0h800v300h-800Z"/><g><g class="mark-area role-mark marks" role="graphics-object" aria-roledescription="area mark container"><path aria-label="Date: Mar 16, 2026; Unique Visitors/day: 0; Repository: karlmdavis/ansible-role-acmetool" role="graphics-symbol" aria-roledescription="area mark" d="M0,300L22.857,300L45.714,300L68.571,300L91.429,300L114.286,300L137.143,300L160,171.429L182.857,171.429L205.714,128.571L228.571,171.429L251.429,171.429L274.286,171.429L297.143,257.143L320,0L342.857,257.143L365.714,128.571L388.571,257.143L411.429,300L434.286,214.286L457.143,257.143L480,300L502.857,257.143L525.714,257.143L548.571,257.143L571.429,214.286L594.286,300L617.143,42.857L640,300L662.857,257.143L685.714,171.429L708.571,300L731.429,214.286L754.286,300L777.143,257.143L800,214.286L800,214.286L777.143,257.143L754.286,300L731.429,214.286L708.571,300L685.714,171.429L662.857,257.143L640,300L617.143,42.857L594.286,300L571.429,214.286L548.571,257.143L525.714,257.143L502.857,257.143L480,300L457.143,257.143L434.286,214.286L411.429,300L388.571,257.143L365.714,128.571L342.857,257.143L320,0L297.143,257.143L274.286,171.429L251.429,171.429L228.571,171.429L205.714,128.571L182.857,171.429L160,171.429L137.143,300L114.286,300L91.429,300L68.571,300L45.714,300L22.857,300L0,300Z" fill="#72b7b2"/></g></g><path class="foreground" aria-hidden="true" d="" display="none"/></g><g transform="translate(0,0)"><path class="background" aria-hidden="true" d="M0,0h800v300h-800Z"/><g><g class="mark-area role-mark marks" role="graphics-object" aria-roledescription="area mark container"><path aria-label="Date: Mar 16, 2026; Unique Visitors/day: 0; Repository: karlmdavis/ansible-role-bind-dns" role="graphics-symbol" aria-roledescription="area mark" d="M0,300L22.857,300L45.714,300L68.571,300L91.429,300L114.286,300L137.143,300L160,171.429L182.857,171.429L205.714,128.571L228.571,171.429L251.429,171.429L274.286,171.429L297.143,257.143L320,0L342.857,257.143L365.714,128.571L388.571,257.143L411.429,300L434.286,214.286L457.143,257.143L480,300L502.857,257.143L525.714,257.143L548.571,257.143L571.429,214.286L594.286,300L617.143,42.857L640,300L662.857,257.143L685.714,171.429L708.571,300L731.429,214.286L754.286,300L777.143,257.143L800,214.286L800,214.286L777.143,300L754.286,300L731.429,214.286L708.571,300L685.714,214.286L662.857,257.143L640,300L617.143,42.857L594.286,300L571.429,214.286L548.571,257.143L525.714,257.143L502.857,257.143L480,300L457.143,257.143L434.286,257.143L411.429,300L388.571,257.143L365.714,128.571L342.857,257.143L320,0L297.143,257.143L274.286,214.286L251.429,171.429L228.571,171.429L205.714,171.429L182.857,171.429L160,171.429L137.143,300L114.286,300L91.429,300L68.571,300L45.714,300L22.857,300L0,300Z" fill="#54a24b"/></g></g><path class="foreground" aria-hidden="true" d="" display="none"/></g><g transform="translate(0,0)"><path class="background" aria-hidden="true" d="M0,0h800v300h-800Z"/><g><g class="mark-area role-mark marks" role="graphics-object" aria-roledescription="area mark container"><path aria-label="Date: Mar 16, 2026; Unique Visitors/day: 0; Repository: karlmdavis/ansible-role-jenkins2" role="graphics-symbol" aria-roledescription="area mark" d="M0,300L22.857,300L45.714,300L68.571,300L91.429,300L114.286,300L137.143,300L160,171.429L182.857,171.429L205.714,171.429L228.571,171.429L251.429,171.429L274.286,214.286L297.143,257.143L320,0L342.857,257.143L365.714,128.571L388.571,257.143L411.429,300L434.286,257.143L457.143,257.143L480,300L502.857,257.143L525.714,257.143L548.571,257.143L571.429,214.286L594.286,300L617.143,42.857L640,300L662.857,257.143L685.714,214.286L708.571,300L731.429,214.286L754.286,300L777.143,300L800,214.286L800,257.143L777.143,300L754.286,300L731.429,214.286L708.571,300L685.714,214.286L662.857,257.143L640,300L617.143,85.714L594.286,300L571.429,214.286L548.571,257.143L525.714,257.143L502.857,257.143L480,300L457.143,257.143L434.286,257.143L411.429,300L388.571,257.143L365.714,128.571L342.857,257.143L320,42.857L297.143,300L274.286,214.286L251.429,171.429L228.571,171.429L205.714,171.429L182.857,171.429L160,171.429L137.143,300L114.286,300L91.429,300L68.571,300L45.714,300L22.857,300L0,300Z" fill="#eeca3b"/></g></g><path class="foreground" aria-hidden="true" d="" display="none"/></g><g transform="translate(0,0)"><path class="background" aria-hidden="true" d="M0,0h800v300h-800Z"/><g><g class="mark-area role-mark marks" role="graphics-object" aria-roledescription="area mark container"><path aria-label="Date: Mar 16, 2026; Unique Visitors/day: 0; Repository: karlmdavis/ansible-role-ldap" role="graphics-symbol" aria-roledescription="area mark" d="M0,300L22.857,300L45.714,300L68.571,300L91.429,300L114.286,300L137.143,300L160,171.429L182.857,171.429L205.714,171.429L228.571,171.429L251.429,171.429L274.286,214.286L297.143,300L320,42.857L342.857,257.143L365.714,128.571L388.571,257.143L411.429,300L434.286,257.143L457.143,257.143L480,300L502.857,257.143L525.714,257.143L548.571,257.143L571.429,214.286L594.286,300L617.143,85.714L640,300L662.857,257.143L685.714,214.286L708.571,300L731.429,214.286L754.286,300L777.143,300L800,257.143L800,257.143L777.143,300L754.286,300L731.429,214.286L708.571,300L685.714,214.286L662.857,257.143L640,300L617.143,85.714L594.286,300L571.429,214.286L548.571,257.143L525.714,257.143L502.857,257.143L480,300L457.143,257.143L434.286,257.143L411.429,300L388.571,257.143L365.714,128.571L342.857,257.143L320,42.857L297.143,300L274.286,214.286L251.429,171.429L228.571,171.429L205.714,171.429L182.857,171.429L160,171.429L137.143,300L114.286,300L91.429,300L68.571,300L45.714,300L22.857,300L0,300Z" fill="#b279a2"/></g></g><path class="foreground" aria-hidden="true" d="" display="none"/></g><g transform="translate(0,0)"><path class="background" aria-hidden="true" d="M0,0h800v300h-800Z"/><g><g class="mark-area role-mark marks" role="graphics-object" aria-roledescription="area mark container"><path aria-label="Date: Mar 16, 2026; Unique Visitors/day: 0; Repository: karlmdavis/ansible-role-rcm-dotfiles" role="graphics-symbol" aria-roledescription="area mark" d="M0,300L22.857,300L45.714,300L68.571,300L91.429,300L114.286,300L137.143,300L160,171.429L182.857,171.429L205.714,171.429L228.571,171.429L251.429,171.429L274.286,214.286L297.143,300L320,42.857L342.857,257.143L365.714,128.571L388.571,257.143L411.429,300L434.286,257.143L457.143,257.143L480,300L502.857,257.143L525.714,257.143L548.571,257.143L571.429,214.286L594.286,300L617.143,85.714L640,300L662.857,257.143L685.714,214.286L708.571,300L731.429,214.286L754.286,300L777.143,300L800,257.143L800,257.143L777.143,300L754.286,300L731.429,214.286L708.571,300L685.714,214.286L662.857,257.143L640,300L617.143,85.714L594.286,300L571.429,214.286L548.571,257.143L525.714,257.143L502.857,257.143L480,300L457.143,257.143L434.286,257.143L411.429,300L388.571,257.143L365.714,128.571L342.857,257.143L320,42.857L297.143,300L274.286,214.286L251.429,171.429L228.571,171.429L205.714,171.429L182.857,171.429L160,171.429L137.143,300L114.286,300L91.429,300L68.571,300L45.714,300L22.857,300L0,300Z" fill="#ff9da6"/></g></g><path class="foreground" aria-hidden="true" d="" display="none"/></g><g transform="translate(0,0)"><path class="background" aria-hidden="true" d="M0,0h800v300h-800Z"/><g><g class="mark-area role-mark marks" role="graphics-object" aria-roledescription="area mark container"><path aria-label="Date: Mar 16, 2026; Unique Visitors/day: 0; Repository: karlmdavis/ansible-roles" role="graphics-symbol" aria-roledescription="area mark" d="M0,300L22.857,300L45.714,300L68.571,300L91.429,300L114.286,300L137.143,300L160,171.429L182.857,171.429L205.714,171.429L228.571,171.429L251.429,171.429L274.286,214.286L297.143,300L320,42.857L342.857,257.143L365.714,128.571L388.571,257.143L411.429,300L434.286,257.143L457.143,257.143L480,300L502.857,257.143L525.714,257.143L548.571,257.143L571.429,214.286L594.286,300L617.143,85.714L640,300L662.857,257.143L685.714,214.286L708.571,300L731.429,214.286L754.286,300L777.143,300L800,257.143L800,257.143L777.143,300L754.286,300L731.429,214.286L708.571,300L685.714,214.286L662.857,257.143L640,300L617.143,85.714L594.286,300L571.429,214.286L548.571,257.143L525.714,257.143L502.857,257.143L480,300L457.143,257.143L434.286,257.143L411.429,300L388.571,257.143L365.714,128.571L342.857,257.143L320,42.857L297.143,300L274.286,214.286L251.429,171.429L228.571,171.429L205.714,171.429L182.857,171.429L160,171.429L137.143,300L114.286,300L91.429,300L68.571,300L45.714,300L22.857,300L0,300Z" fill="#9d755d"/></g></g><path class="foreground" aria-hidden="true" d="" display="none"/></g><g transform="translate(0,0)"><path class="background" aria-hidden="true" d="M0,0h800v300h-800Z"/><g><g class="mark-area role-mark marks" role="graphics-object" aria-roledescription="area mark container"><path aria-label="Date: Mar 16, 2026; Unique Visitors/day: 0; Repository: karlmdavis/bbonfhir-dev-infra-docker" role="graphics-symbol" aria-roledescription="area mark" d="M0,300L22.857,300L45.714,300L68.571,300L91.429,300L114.286,300L137.143,300L160,171.429L182.857,171.429L205.714,171.429L228.571,171.429L251.429,171.429L274.286,214.286L297.143,300L320,42.857L342.857,257.143L365.714,128.571L388.571,257.143L411.429,300L434.286,257.143L457.143,257.143L480,300L502.857,257.143L525.714,257.143L548.571,257.143L571.429,214.286L594.286,300L617.143,85.714L640,300L662.857,257.143L685.714,214.286L708.571,300L731.429,214.286L754.286,300L777.143,300L800,257.143L800,257.143L777.143,300L754.286,300L731.429,214.286L708.571,300L685.714,214.286L662.857,257.143L640,300L617.143,85.714L594.286,300L571.429,214.286L548.571,257.143L525.714,257.143L502.857,257.143L480,300L457.143,257.143L434.286,257.143L411.429,300L388.571,257.143L365.714,128.571L342.857,257.143L320,42.857L297.143,300L274.286,214.286L251.429,171.429L228.571,171.429L205.714,171.429L182.857,171.429L160,171.429L137.143,300L114.286,300L91.429,300L68.571,300L45.714,300L22.857,300L0,300Z" fill="#bab0ac"/></g></g><path class="foreground" aria-hidden="true" d="" display="none"/></g><g transform="translate(0,0)"><path class="background" aria-hidden="true" d="M0,0h800v300h-800Z"/><g><g class="mark-area role-mark marks" role="graphics-object" aria-roledescription="area mark container"><path aria-label="Date: Mar 16, 2026; Unique Visitors/day: 0; Repository: karlmdavis/can-i-kayak-baltimore" role="graphics-symbol" aria-roledescription="area mark" d="M0,300L22.857,300L45.714,300L68.571,300L91.429,300L114.286,300L137.143,300L160,171.429L182.857,171.429L205.714,171.429L228.571,171.429L251.429,171.429L274.286,214.286L297.143,300L320,42.857L342.857,257.143L365.714,128.571L388.571,257.143L411.429,300L434.286,257.143L457.143,257.143L480,300L502.857,257.143L525.714,257.143L548.571,257.143L571.429,214.286L594.286,300L617.143,85.714L640,300L662.857,257.143L685.714,214.286L708.571,300L731.429,214.286L754.286,300L777.143,300L800,257.143L800,257.143L777.143,300L754.286,300L731.429,214.286L708.571,300L685.714,214.286L662.857,257.143L640,300L617.143,85.714L594.286,300L571.429,214.286L548.571,257.143L525.714,257.143L502.857,257.143L480,300L457.143,257.143L434.286,257.143L411.429,300L388.571,257.143L365.714,128.571L342.857,257.143L320,42.857L297.143,300L274.286,214.286L251.429,171.429L228.571,171.429L205.714,171.429L182.857,171.429L160,171.429L137.143,300L114.286,300L91.429,300L68.571,300L45.714,300L22.857,300L0,300Z" fill="#4c78a8"/></g></g><path class="foreground" aria-hidden="true" d="" display="none"/></g><g transform="translate(0,0)"><path class="background" aria-hidden="true" d="M0,0h800v300h-800Z"/><g><g class="mark-area role-mark marks" role="graphics-object" aria-roledescription="area mark container"><path aria-label="Date: Mar 16, 2026; Unique Visitors/day: 0; Repository: karlmdavis/datanucleus-test-jdo-1-to-n" role="graphics-symbol" aria-roledescription="area mark" d="M0,300L22.857,300L45.714,300L68.571,300L91.429,300L114.286,300L137.143,300L160,171.429L182.857,171.429L205.714,171.429L228.571,171.429L251.429,171.429L274.286,214.286L297.143,300L320,42.857L342.857,257.143L365.714,128.571L388.571,257.143L411.429,300L434.286,257.143L457.143,257.143L480,300L502.857,257.143L525.714,257.143L548.571,257.143L571.429,214.286L594.286,300L617.143,85.714L640,300L662.857,257.143L685.714,214.286L708.571,300L731.429,214.286L754.286,300L777.143,300L800,257.143L800,257.143L777.143,300L754.286,300L731.429,214.286L708.571,300L685.714,214.286L662.857,257.143L640,300L617.143,85.714L594.286,300L571.429,214.286L548.571,257.143L525.714,257.143L502.857,257.143L480,300L457.143,257.143L434.286,257.143L411.429,300L388.571,257.143L365.714,128.571L342.857,257.143L320,42.857L297.143,300L274.286,214.286L251.429,171.429L228.571,171.429L205.714,171.429L182.857,171.429L160,171.429L137.143,300L114.286,300L91.429,300L68.571,300L45.714,300L22.857,300L0,300Z" fill="#f58518"/></g></g><path class="foreground" aria-hidden="true" d="" display="none"/></g><g transform="translate(0,0)"><path class="background" aria-hidden="true" d="M0,0h800v300h-800Z"/><g><g class="mark-area role-mark marks" role="graphics-object" aria-roledescription="area mark container"><path aria-label="Date: Mar 16, 2026; Unique Visitors/day: 0; Repository: karlmdavis/dotfiles" role="graphics-symbol" aria-roledescription="area mark" d="M0,300L22.857,300L45.714,300L68.571,300L91.429,300L114.286,300L137.143,300L160,171.429L182.857,171.429L205.714,171.429L228.571,171.429L251.429,171.429L274.286,214.286L297.143,300L320,42.857L342.857,257.143L365.714,128.571L388.571,257.143L411.429,300L434.286,257.143L457.143,257.143L480,300L502.857,257.143L525.714,257.143L548.571,257.143L571.429,214.286L594.286,300L617.143,85.714L640,300L662.857,257.143L685.714,214.286L708.571,300L731.429,214.286L754.286,300L777.143,300L800,257.143L800,257.143L777.143,300L754.286,300L731.429,214.286L708.571,300L685.714,214.286L662.857,257.143L640,300L617.143,85.714L594.286,300L571.429,214.286L548.571,257.143L525.714,257.143L502.857,257.143L480,300L457.143,257.143L434.286,257.143L411.429,300L388.571,257.143L365.714,128.571L342.857,257.143L320,42.857L297.143,300L274.286,214.286L251.429,171.429L228.571,171.429L205.714,171.429L182.857,171.429L160,171.429L137.143,300L114.286,300L91.429,300L68.571,300L45.714,300L22.857,300L0,300Z" fill="#e45756"/></g></g><path class="foreground" aria-hidden="true" d="" display="none"/></g><g transform="translate(0,0)"><path class="background" aria-hidden="true" d="M0,0h800v300h-800Z"/><g><g class="mark-area role-mark marks" role="graphics-object" aria-roledescription="area mark container"><path aria-label="Date: Mar 16, 2026; Unique Visitors/day: 0; Repository: karlmdavis/fhir-benchmarks" role="graphics-symbol" aria-roledescription="area mark" d="M0,300L22.857,300L45.714,300L68.571,300L91.429,300L114.286,300L137.143,300L160,171.429L182.857,171.429L205.714,171.429L228.571,171.429L251.429,171.429L274.286,214.286L297.143,300L320,42.857L342.857,257.143L365.714,128.571L388.571,257.143L411.429,300L434.286,257.143L457.143,257.143L480,300L502.857,257.143L525.714,257.143L548.571,257.143L571.429,214.286L594.286,300L617.143,85.714L640,300L662.857,257.143L685.714,214.286L708.571,300L731.429,214.286L754.286,300L777.143,300L800,257.143L800,257.143L777.143,300L754.286,300L731.429,214.286L708.571,300L685.714,257.143L662.857,257.143L640,300L617.143,85.714L594.286,300L571.429,257.143L548.571,257.143L525.714,257.143L502.857,300L480,300L457.143,257.143L434.286,257.143L411.429,300L388.571,257.143L365.714,171.429L342.857,257.143L320,85.714L297.143,300L274.286,214.286L251.429,171.429L228.571,214.286L205.714,171.429L182.857,171.429L160,171.429L137.143,300L114.286,300L91.429,300L68.571,300L45.714,300L22.857,300L0,300Z" fill="#72b7b2"/></g></g><path class="foreground" aria-hidden="true" d="" display="none"/></g><g transform="translate(0,0)"><path class="background" aria-hidden="true" d="M0,0h800v300h-800Z"/><g><g class="mark-area role-mark marks" role="graphics-object" aria-roledescription="area mark container"><path aria-label="Date: Mar 16, 2026; Unique Visitors/day: 0; Repository: karlmdavis/hapi-fhir-jpaserver-starter" role="graphics-symbol" aria-roledescription="area mark" d="M0,300L22.857,300L45.714,300L68.571,300L91.429,300L114.286,300L137.143,300L160,171.429L182.857,171.429L205.714,171.429L228.571,214.286L251.429,171.429L274.286,214.286L297.143,300L320,85.714L342.857,257.143L365.714,171.429L388.571,257.143L411.429,300L434.286,257.143L457.143,257.143L480,300L502.857,300L525.714,257.143L548.571,257.143L571.429,257.143L594.286,300L617.143,85.714L640,300L662.857,257.143L685.714,257.143L708.571,300L731.429,214.286L754.286,300L777.143,300L800,257.143L800,257.143L777.143,300L754.286,300L731.429,214.286L708.571,300L685.714,257.143L662.857,257.143L640,300L617.143,85.714L594.286,300L571.429,257.143L548.571,257.143L525.714,257.143L502.857,300L480,300L457.143,257.143L434.286,257.143L411.429,300L388.571,257.143L365.714,171.429L342.857,257.143L320,85.714L297.143,300L274.286,214.286L251.429,171.429L228.571,214.286L205.714,171.429L182.857,171.429L160,171.429L137.143,300L114.286,300L91.429,300L68.571,300L45.714,300L22.857,300L0,300Z" fill="#54a24b"/></g></g><path class="foreground" aria-hidden="true" d="" display="none"/></g><g transform="translate(0,0)"><path class="background" aria-hidden="true" d="M0,0h800v300h-800Z"/><g><g class="mark-area role-mark marks" role="graphics-object" aria-roledescription="area mark container"><path aria-label="Date: Mar 16, 2026; Unique Visitors/day: 0; Repository: karlmdavis/hello-rust-actix" role="graphics-symbol" aria-roledescription="area mark" d="M0,300L22.857,300L45.714,300L68.571,300L91.429,300L114.286,300L137.143,300L160,171.429L182.857,171.429L205.714,171.429L228.571,214.286L251.429,171.429L274.286,214.286L297.143,300L320,85.714L342.857,257.143L365.714,171.429L388.571,257.143L411.429,300L434.286,257.143L457.143,257.143L480,300L502.857,300L525.714,257.143L548.571,257.143L571.429,257.143L594.286,300L617.143,85.714L640,300L662.857,257.143L685.714,257.143L708.571,300L731.429,214.286L754.286,300L777.143,300L800,257.143L800,257.143L777.143,300L754.286,300L731.429,214.286L708.571,300L685.714,257.143L662.857,257.143L640,300L617.143,85.714L594.286,300L571.429,257.143L548.571,257.143L525.714,257.143L502.857,300L480,300L457.143,257.143L434.286,257.143L411.429,300L388.571,257.143L365.714,171.429L342.857,257.143L320,85.714L297.143,300L274.286,214.286L251.429,171.429L228.571,214.286L205.714,171.429L182.857,171.429L160,171.429L137.143,300L114.286,300L91.429,300L68.571,300L45.714,300L22.857,300L0,300Z" fill="#eeca3b"/></g></g><path class="foreground" aria-hidden="true" d="" display="none"/></g><g transform="translate(0,0)"><path class="background" aria-hidden="true" d="M0,0h800v300h-800Z"/><g><g class="mark-area role-mark marks" role="graphics-object" aria-roledescription="area mark container"><path aria-label="Date: Mar 16, 2026; Unique Visitors/day: 0; Repository: karlmdavis/jessentials" role="graphics-symbol" aria-roledescription="area mark" d="M0,300L22.857,300L45.714,300L68.571,300L91.429,300L114.286,300L137.143,300L160,171.429L182.857,171.429L205.714,171.429L228.571,214.286L251.429,171.429L274.286,214.286L297.143,300L320,85.714L342.857,257.143L365.714,171.429L388.571,257.143L411.429,300L434.286,257.143L457.143,257.143L480,300L502.857,300L525.714,257.143L548.571,257.143L571.429,257.143L594.286,300L617.143,85.714L640,300L662.857,257.143L685.714,257.143L708.571,300L731.429,214.286L754.286,300L777.143,300L800,257.143L800,257.143L777.143,300L754.286,300L731.429,214.286L708.571,300L685.714,257.143L662.857,257.143L640,300L617.143,85.714L594.286,300L571.429,257.143L548.571,257.143L525.714,257.143L502.857,300L480,300L457.143,257.143L434.286,257.143L411.429,300L388.571,257.143L365.714,171.429L342.857,257.143L320,85.714L297.143,300L274.286,214.286L251.429,171.429L228.571,214.286L205.714,171.429L182.857,171.429L160,171.429L137.143,300L114.286,300L91.429,300L68.571,300L45.714,300L22.857,300L0,300Z" fill="#b279a2"/></g></g><path class="foreground" aria-hidden="true" d="" display="none"/></g><g transform="translate(0,0)"><path class="background" aria-hidden="true" d="M0,0h800v300h-800Z"/><g><g class="mark-area role-mark marks" role="graphics-object" aria-roledescription="area mark container"><path aria-label="Date: Mar 16, 2026; Unique Visitors/day: 0; Repository: karlmdavis/justdavis-ansible" role="graphics-symbol" aria-roledescription="area mark" d="M0,300L22.857,300L45.714,300L68.571,300L91.429,300L114.286,300L137.143,300L160,171.429L182.857,171.429L205.714,171.429L228.571,214.286L251.429,171.429L274.286,214.286L297.143,300L320,85.714L342.857,257.143L365.714,171.429L388.571,257.143L411.429,300L434.286,257.143L457.143,257.143L480,300L502.857,300L525.714,257.143L548.571,257.143L571.429,257.143L594.286,300L617.143,85.714L640,300L662.857,257.143L685.714,257.143L708.571,300L731.429,214.286L754.286,300L777.143,300L800,257.143L800,257.143L777.143,300L754.286,300L731.429,214.286L708.571,300L685.714,257.143L662.857,257.143L640,300L617.143,128.571L594.286,300L571.429,257.143L548.571,257.143L525.714,257.143L502.857,300L480,300L457.143,257.143L434.286,257.143L411.429,300L388.571,257.143L365.714,214.286L342.857,257.143L320,128.571L297.143,300L274.286,214.286L251.429,171.429L228.571,214.286L205.714,171.429L182.857,171.429L160,171.429L137.143,300L114.286,300L91.429,300L68.571,300L45.714,300L22.857,300L0,300Z" fill="#ff9da6"/></g></g><path class="foreground" aria-hidden="true" d="" display="none"/></g><g transform="translate(0,0)"><path class="background" aria-hidden="true" d="M0,0h800v300h-800Z"/><g><g class="mark-area role-mark marks" role="graphics-object" aria-roledescription="area mark container"><path aria-label="Date: Mar 16, 2026; Unique Visitors/day: 0; Repository: karlmdavis/justdavis-finances" role="graphics-symbol" aria-roledescription="area mark" d="M0,300L22.857,300L45.714,300L68.571,300L91.429,300L114.286,300L137.143,300L160,171.429L182.857,171.429L205.714,171.429L228.571,214.286L251.429,171.429L274.286,214.286L297.143,300L320,128.571L342.857,257.143L365.714,214.286L388.571,257.143L411.429,300L434.286,257.143L457.143,257.143L480,300L502.857,300L525.714,257.143L548.571,257.143L571.429,257.143L594.286,300L617.143,128.571L640,300L662.857,257.143L685.714,257.143L708.571,300L731.429,214.286L754.286,300L777.143,300L800,257.143L800,257.143L777.143,300L754.286,300L731.429,214.286L708.571,300L685.714,257.143L662.857,257.143L640,300L617.143,171.429L594.286,300L571.429,257.143L548.571,257.143L525.714,257.143L502.857,300L480,300L457.143,257.143L434.286,257.143L411.429,300L388.571,257.143L365.714,214.286L342.857,257.143L320,128.571L297.143,300L274.286,214.286L251.429,214.286L228.571,214.286L205.714,171.429L182.857,171.429L160,171.429L137.143,300L114.286,300L91.429,300L68.571,300L45.714,300L22.857,300L0,300Z" fill="#9d755d"/></g></g><path class="foreground" aria-hidden="true" d="" display="none"/></g><g transform="translate(0,0)"><path class="background" aria-hidden="true" d="M0,0h800v300h-800Z"/><g><g class="mark-area role-mark marks" role="graphics-object" aria-roledescription="area mark container"><path aria-label="Date: Mar 16, 2026; Unique Visitors/day: 0; Repository: karlmdavis/justdavis-karl" role="graphics-symbol" aria-roledescription="area mark" d="M0,300L22.857,300L45.714,300L68.571,300L91.429,300L114.286,300L137.143,300L160,171.429L182.857,171.429L205.714,171.429L228.571,214.286L251.429,214.286L274.286,214.286L297.143,300L320,128.571L342.857,257.143L365.714,214.286L388.571,257.143L411.429,300L434.286,257.143L457.143,257.143L480,300L502.857,300L525.714,257.143L548.571,257.143L571.429,257.143L594.286,300L617.143,171.429L640,300L662.857,257.143L685.714,257.143L708.571,300L731.429,214.286L754.286,300L777.143,300L800,257.143L800,257.143L777.143,300L754.286,300L731.429,214.286L708.571,300L685.714,257.143L662.857,257.143L640,300L617.143,171.429L594.286,300L571.429,257.143L548.571,257.143L525.714,257.143L502.857,300L480,300L457.143,257.143L434.286,257.143L411.429,300L388.571,257.143L365.714,214.286L342.857,257.143L320,128.571L297.143,300L274.286,214.286L251.429,214.286L228.571,214.286L205.714,171.429L182.857,171.429L160,171.429L137.143,300L114.286,300L91.429,300L68.571,300L45.714,300L22.857,300L0,300Z" fill="#bab0ac"/></g></g><path class="foreground" aria-hidden="true" d="" display="none"/></g><g transform="translate(0,0)"><path class="background" aria-hidden="true" d="M0,0h800v300h-800Z"/><g><g class="mark-area role-mark marks" role="graphics-object" aria-roledescription="area mark container"><path aria-label="Date: Mar 16, 2026; Unique Visitors/day: 0; Repository: karlmdavis/justdavis-puppet" role="graphics-symbol" aria-roledescription="area mark" d="M0,300L22.857,300L45.714,300L68.571,300L91.429,300L114.286,300L137.143,300L160,171.429L182.857,171.429L205.714,171.429L228.571,214.286L251.429,214.286L274.286,214.286L297.143,300L320,128.571L342.857,257.143L365.714,214.286L388.571,257.143L411.429,300L434.286,257.143L457.143,257.143L480,300L502.857,300L525.714,257.143L548.571,257.143L571.429,257.143L594.286,300L617.143,171.429L640,300L662.857,257.143L685.714,257.143L708.571,300L731.429,214.286L754.286,300L777.143,300L800,257.143L800,257.143L777.143,300L754.286,300L731.429,214.286L708.571,300L685.714,257.143L662.857,257.143L640,300L617.143,171.429L594.286,300L571.429,257.143L548.571,257.143L525.714,257.143L502.857,300L480,300L457.143,257.143L434.286,257.143L411.429,300L388.571,257.143L365.714,214.286L342.857,257.143L320,128.571L297.143,300L274.286,214.286L251.429,214.286L228.571,214.286L205.714,171.429L182.857,171.429L160,171.429L137.143,300L114.286,300L91.429,300L68.571,300L45.714,300L22.857,300L0,300Z" fill="#4c78a8"/></g></g><path class="foreground" aria-hidden="true" d="" display="none"/></g><g transform="translate(0,0)"><path class="background" aria-hidden="true" d="M0,0h800v300h-800Z"/><g><g class="mark-area role-mark marks" role="graphics-object" aria-roledescription="area mark container"><path aria-label="Date: Mar 16, 2026; Unique Visitors/day: 0; Repository: karlmdavis/kobjects" role="graphics-symbol" aria-roledescription="area mark" d="M0,300L22.857,300L45.714,300L68.571,300L91.429,300L114.286,300L137.143,300L160,171.429L182.857,171.429L205.714,171.429L228.571,214.286L251.429,214.286L274.286,214.286L297.143,300L320,128.571L342.857,257.143L365.714,214.286L388.571,257.143L411.429,300L434.286,257.143L457.143,257.143L480,300L502.857,300L525.714,257.143L548.571,257.143L571.429,257.143L594.286,300L617.143,171.429L640,300L662.857,257.143L685.714,257.143L708.571,300L731.429,214.286L754.286,300L777.143,300L800,257.143L800,257.143L777.143,300L754.286,300L731.429,214.286L708.571,300L685.714,257.143L662.857,257.143L640,300L617.143,171.429L594.286,300L571.429,257.143L548.571,257.143L525.714,257.143L502.857,300L480,300L457.143,257.143L434.286,257.143L411.429,300L388.571,257.143L365.714,214.286L342.857,257.143L320,128.571L297.143,300L274.286,214.286L251.429,214.286L228.571,214.286L205.714,171.429L182.857,171.429L160,171.429L137.143,300L114.286,300L91.429,300L68.571,300L45.714,300L22.857,300L0,300Z" fill="#f58518"/></g></g><path class="foreground" aria-hidden="true" d="" display="none"/></g><g transform="translate(0,0)"><path class="background" aria-hidden="true" d="M0,0h800v300h-800Z"/><g><g class="mark-area role-mark marks" role="graphics-object" aria-roledescription="area mark container"><path aria-label="Date: Mar 16, 2026; Unique Visitors/day: 0; Repository: karlmdavis/ksoap2-android" role="graphics-symbol" aria-roledescription="area mark" d="M0,300L22.857,300L45.714,300L68.571,300L91.429,300L114.286,300L137.143,300L160,171.429L182.857,171.429L205.714,171.429L228.571,214.286L251.429,214.286L274.286,214.286L297.143,300L320,128.571L342.857,257.143L365.714,214.286L388.571,257.143L411.429,300L434.286,257.143L457.143,257.143L480,300L502.857,300L525.714,257.143L548.571,257.143L571.429,257.143L594.286,300L617.143,171.429L640,300L662.857,257.143L685.714,257.143L708.571,300L731.429,214.286L754.286,300L777.143,300L800,257.143L800,257.143L777.143,300L754.286,300L731.429,300L708.571,300L685.714,300L662.857,300L640,300L617.143,214.286L594.286,300L571.429,300L548.571,257.143L525.714,300L502.857,300L480,300L457.143,300L434.286,300L411.429,300L388.571,300L365.714,257.143L342.857,257.143L320,214.286L297.143,300L274.286,214.286L251.429,257.143L228.571,214.286L205.714,214.286L182.857,257.143L160,257.143L137.143,300L114.286,300L91.429,300L68.571,300L45.714,300L22.857,300L0,300Z" fill="#e45756"/></g></g><path class="foreground" aria-hidden="true" d="" display="none"/></g><g transform="translate(0,0)"><path class="background" aria-hidden="true" d="M0,0h800v300h-800Z"/><g><g class="mark-area role-mark marks" role="graphics-object" aria-roledescription="area mark container"><path aria-label="Date: Mar 16, 2026; Unique Visitors/day: 0; Repository: karlmdavis/kxml2" role="graphics-symbol" aria-roledescription="area mark" d="M0,300L22.857,300L45.714,300L68.571,300L91.429,300L114.286,300L137.143,300L160,257.143L182.857,257.143L205.714,214.286L228.571,214.286L251.429,257.143L274.286,214.286L297.143,300L320,214.286L342.857,257.143L365.714,257.143L388.571,300L411.429,300L434.286,300L457.143,300L480,300L502.857,300L525.714,300L548.571,257.143L571.429,300L594.286,300L617.143,214.286L640,300L662.857,300L685.714,300L708.571,300L731.429,300L754.286,300L777.143,300L800,257.143L800,257.143L777.143,300L754.286,300L731.429,300L708.571,300L685.714,300L662.857,300L640,300L617.143,214.286L594.286,300L571.429,300L548.571,257.143L525.714,300L502.857,300L480,300L457.143,300L434.286,300L411.429,300L388.571,300L365.714,257.143L342.857,257.143L320,214.286L297.143,300L274.286,257.143L251.429,257.143L228.571,214.286L205.714,257.143L182.857,257.143L160,257.143L137.143,300L114.286,300L91.429,300L68.571,300L45.714,300L22.857,300L0,300Z" fill="#72b7b2"/></g></g><path class="foreground" aria-hidden="true" d="" display="none"/></g><g transform="translate(0,0)"><path class="background" aria-hidden="true" d="M0,0h800v300h-800Z"/><g><g class="mark-area role-mark marks" role="graphics-object" aria-roledescription="area mark container"><path aria-label="Date: Mar 16, 2026; Unique Visitors/day: 0; Repository: karlmdavis/ldap-plugin" role="graphics-symbol" aria-roledescription="area mark" d="M0,300L22.857,300L45.714,300L68.571,300L91.429,300L114.286,300L137.143,300L160,257.143L182.857,257.143L205.714,257.143L228.571,214.286L251.429,257.143L274.286,257.143L297.143,300L320,214.286L342.857,257.143L365.714,257.143L388.571,300L411.429,300L434.286,300L457.143,300L480,300L502.857,300L525.714,300L548.571,257.143L571.429,300L594.286,300L617.143,214.286L640,300L662.857,300L685.714,300L708.571,300L731.429,300L754.286,300L777.143,300L800,257.143L800,257.143L777.143,300L754.286,300L731.429,300L708.571,300L685.714,300L662.857,300L640,300L617.143,214.286L594.286,300L571.429,300L548.571,257.143L525.714,300L502.857,300L480,300L457.143,300L434.286,300L411.429,300L388.571,300L365.714,257.143L342.857,257.143L320,214.286L297.143,300L274.286,257.143L251.429,257.143L228.571,214.286L205.714,257.143L182.857,257.143L160,257.143L137.143,300L114.286,300L91.429,300L68.571,300L45.714,300L22.857,300L0,300Z" fill="#54a24b"/></g></g><path class="foreground" aria-hidden="true" d="" display="none"/></g><g transform="translate(0,0)"><path class="background" aria-hidden="true" d="M0,0h800v300h-800Z"/><g><g class="mark-area role-mark marks" role="graphics-object" aria-roledescription="area mark container"><path aria-label="Date: Mar 16, 2026; Unique Visitors/day: 0; Repository: karlmdavis/lego-ev3dev-rs" role="graphics-symbol" aria-roledescription="area mark" d="M0,300L22.857,300L45.714,300L68.571,300L91.429,300L114.286,300L137.143,300L160,257.143L182.857,257.143L205.714,257.143L228.571,214.286L251.429,257.143L274.286,257.143L297.143,300L320,214.286L342.857,257.143L365.714,257.143L388.571,300L411.429,300L434.286,300L457.143,300L480,300L502.857,300L525.714,300L548.571,257.143L571.429,300L594.286,300L617.143,214.286L640,300L662.857,300L685.714,300L708.571,300L731.429,300L754.286,300L777.143,300L800,257.143L800,257.143L777.143,300L754.286,300L731.429,300L708.571,300L685.714,300L662.857,300L640,300L617.143,214.286L594.286,300L571.429,300L548.571,257.143L525.714,300L502.857,300L480,300L457.143,300L434.286,300L411.429,300L388.571,300L365.714,257.143L342.857,257.143L320,214.286L297.143,300L274.286,257.143L251.429,257.143L228.571,214.286L205.714,257.143L182.857,257.143L160,257.143L137.143,300L114.286,300L91.429,300L68.571,300L45.714,300L22.857,300L0,300Z" fill="#eeca3b"/></g></g><path class="foreground" aria-hidden="true" d="" display="none"/></g><g transform="translate(0,0)"><path class="background" aria-hidden="true" d="M0,0h800v300h-800Z"/><g><g class="mark-area role-mark marks" role="graphics-object" aria-roledescription="area mark container"><path aria-label="Date: Mar 16, 2026; Unique Visitors/day: 0; Repository: karlmdavis/liquibase" role="graphics-symbol" aria-roledescription="area mark" d="M0,300L22.857,300L45.714,300L68.571,300L91.429,300L114.286,300L137.143,300L160,257.143L182.857,257.143L205.714,257.143L228.571,214.286L251.429,257.143L274.286,257.143L297.143,300L320,214.286L342.857,257.143L365.714,257.143L388.571,300L411.429,300L434.286,300L457.143,300L480,300L502.857,300L525.714,300L548.571,257.143L571.429,300L594.286,300L617.143,214.286L640,300L662.857,300L685.714,300L708.571,300L731.429,300L754.286,300L777.143,300L800,257.143L800,257.143L777.143,300L754.286,300L731.429,300L708.571,300L685.714,300L662.857,300L640,300L617.143,214.286L594.286,300L571.429,300L548.571,257.143L525.714,300L502.857,300L480,300L457.143,300L434.286,300L411.429,300L388.571,300L365.714,257.143L342.857,257.143L320,214.286L297.143,300L274.286,257.143L251.429,257.143L228.571,214.286L205.714,257.143L182.857,257.143L160,257.143L137.143,300L114.286,300L91.429,300L68.571,300L45.714,300L22.857,300L0,300Z" fill="#b279a2"/></g></g><path class="foreground" aria-hidden="true" d="" display="none"/></g><g transform="translate(0,0)"><path class="background" aria-hidden="true" d="M0,0h800v300h-800Z"/><g><g class="mark-area role-mark marks" role="graphics-object" aria-roledescription="area mark container"><path aria-label="Date: Mar 16, 2026; Unique Visitors/day: 0; Repository: karlmdavis/m2e-core" role="graphics-symbol" aria-roledescription="area mark" d="M0,300L22.857,300L45.714,300L68.571,300L91.429,300L114.286,300L137.143,300L160,257.143L182.857,257.143L205.714,257.143L228.571,214.286L251.429,257.143L274.286,257.143L297.143,300L320,214.286L342.857,257.143L365.714,257.143L388.571,300L411.429,300L434.286,300L457.143,300L480,300L502.857,300L525.714,300L548.571,257.143L571.429,300L594.286,300L617.143,214.286L640,300L662.857,300L685.714,300L708.571,300L731.429,300L754.286,300L777.143,300L800,257.143L800,257.143L777.143,300L754.286,300L731.429,300L708.571,300L685.714,300L662.857,300L640,300L617.143,214.286L594.286,300L571.429,300L548.571,257.143L525.714,300L502.857,300L480,300L457.143,300L434.286,300L411.429,300L388.571,300L365.714,257.143L342.857,257.143L320,214.286L297.143,300L274.286,257.143L251.429,257.143L228.571,214.286L205.714,257.143L182.857,257.143L160,257.143L137.143,300L114.286,300L91.429,300L68.571,300L45.714,300L22.857,300L0,300Z" fill="#ff9da6"/></g></g><path class="foreground" aria-hidden="true" d="" display="none"/></g><g transform="translate(0,0)"><path class="background" aria-hidden="true" d="M0,0h800v300h-800Z"/><g><g class="mark-area role-mark marks" role="graphics-object" aria-roledescription="area mark container"><path aria-label="Date: Mar 16, 2026; Unique Visitors/day: 0; Repository: karlmdavis/m2e-core-tests" role="graphics-symbol" aria-roledescription="area mark" d="M0,300L22.857,300L45.714,300L68.571,300L91.429,300L114.286,300L137.143,300L160,257.143L182.857,257.143L205.714,257.143L228.571,214.286L251.429,257.143L274.286,257.143L297.143,300L320,214.286L342.857,257.143L365.714,257.143L388.571,300L411.429,300L434.286,300L457.143,300L480,300L502.857,300L525.714,300L548.571,257.143L571.429,300L594.286,300L617.143,214.286L640,300L662.857,300L685.714,300L708.571,300L731.429,300L754.286,300L777.143,300L800,257.143L800,257.143L777.143,300L754.286,300L731.429,300L708.571,300L685.714,300L662.857,300L640,300L617.143,214.286L594.286,300L571.429,300L548.571,257.143L525.714,300L502.857,300L480,300L457.143,300L434.286,300L411.429,300L388.571,300L365.714,257.143L342.857,257.143L320,214.286L297.143,300L274.286,257.143L251.429,257.143L228.571,214.286L205.714,257.143L182.857,257.143L160,257.143L137.143,300L114.286,300L91.429,300L68.571,300L45.714,300L22.857,300L0,300Z" fill="#9d755d"/></g></g><path class="foreground" aria-hidden="true" d="" display="none"/></g><g transform="translate(0,0)"><path class="background" aria-hidden="true" d="M0,0h800v300h-800Z"/><g><g class="mark-area role-mark marks" role="graphics-object" aria-roledescription="area mark container"><path aria-label="Date: Mar 16, 2026; Unique Visitors/day: 0; Repository: karlmdavis/obsidian-operator" role="graphics-symbol" aria-roledescription="area mark" d="M0,300L22.857,300L45.714,300L68.571,300L91.429,300L114.286,300L137.143,300L160,257.143L182.857,257.143L205.714,257.143L228.571,214.286L251.429,257.143L274.286,257.143L297.143,300L320,214.286L342.857,257.143L365.714,257.143L388.571,300L411.429,300L434.286,300L457.143,300L480,300L502.857,300L525.714,300L548.571,257.143L571.429,300L594.286,300L617.143,214.286L640,300L662.857,300L685.714,300L708.571,300L731.429,300L754.286,300L777.143,300L800,257.143L800,257.143L777.143,300L754.286,300L731.429,300L708.571,300L685.714,300L662.857,300L640,300L617.143,257.143L594.286,300L571.429,300L548.571,257.143L525.714,300L502.857,300L480,300L457.143,300L434.286,300L411.429,300L388.571,300L365.714,257.143L342.857,257.143L320,214.286L297.143,300L274.286,257.143L251.429,257.143L228.571,214.286L205.714,257.143L182.857,257.143L160,257.143L137.143,300L114.286,300L91.429,300L68.571,300L45.714,300L22.857,300L0,300Z" fill="#bab0ac"/></g></g><path class="foreground" aria-hidden="true" d="" display="none"/></g><g transform="translate(0,0)"><path class="background" aria-hidden="true" d="M0,0h800v300h-800Z"/><g><g class="mark-area role-mark marks" role="graphics-object" aria-roledescription="area mark container"><path aria-label="Date: Mar 16, 2026; Unique Visitors/day: 0; Repository: karlmdavis/perfect-note" role="graphics-symbol" aria-roledescription="area mark" d="M0,300L22.857,300L45.714,300L68.571,300L91.429,300L114.286,300L137.143,300L160,257.143L182.857,257.143L205.714,257.143L228.571,214.286L251.429,257.143L274.286,257.143L297.143,300L320,214.286L342.857,257.143L365.714,257.143L388.571,300L411.429,300L434.286,300L457.143,300L480,300L502.857,300L525.714,300L548.571,257.143L571.429,300L594.286,300L617.143,257.143L640,300L662.857,300L685.714,300L708.571,300L731.429,300L754.286,300L777.143,300L800,257.143L800,257.143L777.143,300L754.286,300L731.429,300L708.571,300L685.714,300L662.857,300L640,300L617.143,257.143L594.286,300L571.429,300L548.571,257.143L525.714,300L502.857,300L480,300L457.143,300L434.286,300L411.429,300L388.571,300L365.714,257.143L342.857,257.143L320,214.286L297.143,300L274.286,257.143L251.429,257.143L228.571,214.286L205.714,257.143L182.857,257.143L160,257.143L137.143,300L114.286,300L91.429,300L68.571,300L45.714,300L22.857,300L0,300Z" fill="#4c78a8"/></g></g><path class="foreground" aria-hidden="true" d="" display="none"/></g><g transform="translate(0,0)"><path class="background" aria-hidden="true" d="M0,0h800v300h-800Z"/><g><g class="mark-area role-mark marks" role="graphics-object" aria-roledescription="area mark container"><path aria-label="Date: Mar 16, 2026; Unique Visitors/day: 0; Repository: karlmdavis/puppet-archive" role="graphics-symbol" aria-roledescription="area mark" d="M0,300L22.857,300L45.714,300L68.571,300L91.429,300L114.286,300L137.143,300L160,257.143L182.857,257.143L205.714,257.143L228.571,214.286L251.429,257.143L274.286,257.143L297.143,300L320,214.286L342.857,257.143L365.714,257.143L388.571,300L411.429,300L434.286,300L457.143,300L480,300L502.857,300L525.714,300L548.571,257.143L571.429,300L594.286,300L617.143,257.143L640,300L662.857,300L685.714,300L708.571,300L731.429,300L754.286,300L777.143,300L800,257.143L800,257.143L777.143,300L754.286,300L731.429,300L708.571,300L685.714,300L662.857,300L640,300L617.143,257.143L594.286,300L571.429,300L548.571,257.143L525.714,300L502.857,300L480,300L457.143,300L434.286,300L411.429,300L388.571,300L365.714,257.143L342.857,257.143L320,214.286L297.143,300L274.286,257.143L251.429,257.143L228.571,214.286L205.714,257.143L182.857,257.143L160,257.143L137.143,300L114.286,300L91.429,300L68.571,300L45.714,300L22.857,300L0,300Z" fill="#f58518"/></g></g><path class="foreground" aria-hidden="true" d="" display="none"/></g><g transform="translate(0,0)"><path class="background" aria-hidden="true" d="M0,0h800v300h-800Z"/><g><g class="mark-area role-mark marks" role="graphics-object" aria-roledescription="area mark container"><path aria-label="Date: Mar 16, 2026; Unique Visitors/day: 0; Repository: karlmdavis/puppet-sonar" role="graphics-symbol" aria-roledescription="area mark" d="M0,300L22.857,300L45.714,300L68.571,300L91.429,300L114.286,300L137.143,300L160,257.143L182.857,257.143L205.714,257.143L228.571,214.286L251.429,257.143L274.286,257.143L297.143,300L320,214.286L342.857,257.143L365.714,257.143L388.571,300L411.429,300L434.286,300L457.143,300L480,300L502.857,300L525.714,300L548.571,257.143L571.429,300L594.286,300L617.143,257.143L640,300L662.857,300L685.714,300L708.571,300L731.429,300L754.286,300L777.143,300L800,257.143L800,257.143L777.143,300L754.286,300L731.429,300L708.571,300L685.714,300L662.857,300L640,300L617.143,257.143L594.286,300L571.429,300L548.571,257.143L525.714,300L502.857,300L480,300L457.143,300L434.286,300L411.429,300L388.571,300L365.714,257.143L342.857,257.143L320,214.286L297.143,300L274.286,257.143L251.429,257.143L228.571,214.286L205.714,257.143L182.857,257.143L160,257.143L137.143,300L114.286,300L91.429,300L68.571,300L45.714,300L22.857,300L0,300Z" fill="#e45756"/></g></g><path class="foreground" aria-hidden="true" d="" display="none"/></g><g transform="translate(0,0)"><path class="background" aria-hidden="true" d="M0,0h800v300h-800Z"/><g><g class="mark-area role-mark marks" role="graphics-object" aria-roledescription="area mark container"><path aria-label="Date: Mar 16, 2026; Unique Visitors/day: 0; Repository: karlmdavis/rps-tourney" role="graphics-symbol" aria-roledescription="area mark" d="M0,300L22.857,300L45.714,300L68.571,300L91.429,300L114.286,300L137.143,300L160,257.143L182.857,257.143L205.714,257.143L228.571,214.286L251.429,257.143L274.286,257.143L297.143,300L320,214.286L342.857,257.143L365.714,257.143L388.571,300L411.429,300L434.286,300L457.143,300L480,300L502.857,300L525.714,300L548.571,257.143L571.429,300L594.286,300L617.143,257.143L640,300L662.857,300L685.714,300L708.571,300L731.429,300L754.286,300L777.143,300L800,257.143L800,257.143L777.143,300L754.286,300L731.429,300L708.571,300L685.714,300L662.857,300L640,300L617.143,300L594.286,300L571.429,300L548.571,257.143L525.714,300L502.857,300L480,300L457.143,300L434.286,300L411.429,300L388.571,300L365.714,300L342.857,257.143L320,214.286L297.143,300L274.286,257.143L251.429,300L228.571,214.286L205.714,257.143L182.857,300L160,300L137.143,300L114.286,300L91.429,300L68.571,300L45.714,300L22.857,300L0,300Z" fill="#72b7b2"/></g></g><path class="foreground" aria-hidden="true" d="" display="none"/></g><g transform="translate(0,0)"><path class="background" aria-hidden="true" d="M0,0h800v300h-800Z"/><g><g class="mark-area role-mark marks" role="graphics-object" aria-roledescription="area mark container"><path aria-label="Date: Mar 16, 2026; Unique Visitors/day: 0; Repository: karlmdavis/sample-maven-and-rcp" role="graphics-symbol" aria-roledescription="area mark" d="M0,300L22.857,300L45.714,300L68.571,300L91.429,300L114.286,300L137.143,300L160,300L182.857,300L205.714,257.143L228.571,214.286L251.429,300L274.286,257.143L297.143,300L320,214.286L342.857,257.143L365.714,300L388.571,300L411.429,300L434.286,300L457.143,300L480,300L502.857,300L525.714,300L548.571,257.143L571.429,300L594.286,300L617.143,300L640,300L662.857,300L685.714,300L708.571,300L731.429,300L754.286,300L777.143,300L800,257.143L800,257.143L777.143,300L754.286,300L731.429,300L708.571,300L685.714,300L662.857,300L640,300L617.143,300L594.286,300L571.429,300L548.571,257.143L525.714,300L502.857,300L480,300L457.143,300L434.286,300L411.429,300L388.571,300L365.714,300L342.857,257.143L320,214.286L297.143,300L274.286,257.143L251.429,300L228.571,214.286L205.714,257.143L182.857,300L160,300L137.143,300L114.286,300L91.429,300L68.571,300L45.714,300L22.857,300L0,300Z" fill="#54a24b"/></g></g><path class="foreground" aria-hidden="true" d="" display="none"/></g><g transform="translate(0,0)"><path class="background" aria-hidden="true" d="M0,0h800v300h-800Z"/><g><g class="mark-area role-mark marks" role="graphics-object" aria-roledescription="area mark container"><path aria-label="Date: Mar 16, 2026; Unique Visitors/day: 0; Repository: karlmdavis/stockfighter-trades-solutions" role="graphics-symbol" aria-roledescription="area mark" d="M0,300L22.857,300L45.714,300L68.571,300L91.429,300L114.286,300L137.143,300L160,300L182.857,300L205.714,257.143L228.571,214.286L251.429,300L274.286,257.143L297.143,300L320,214.286L342.857,257.143L365.714,300L388.571,300L411.429,300L434.286,300L457.143,300L480,300L502.857,300L525.714,300L548.571,257.143L571.429,300L594.286,300L617.143,300L640,300L662.857,300L685.714,300L708.571,300L731.429,300L754.286,300L777.143,300L800,257.143L800,257.143L777.143,300L754.286,300L731.429,300L708.571,300L685.714,300L662.857,300L640,300L617.143,300L594.286,300L571.429,300L548.571,257.143L525.714,300L502.857,300L480,300L457.143,300L434.286,300L411.429,300L388.571,300L365.714,300L342.857,257.143L320,214.286L297.143,300L274.286,257.143L251.429,300L228.571,214.286L205.714,257.143L182.857,300L160,300L137.143,300L114.286,300L91.429,300L68.571,300L45.714,300L22.857,300L0,300Z" fill="#eeca3b"/></g></g><path class="foreground" aria-hidden="true" d="" display="none"/></g><g transform="translate(0,0)"><path class="background" aria-hidden="true" d="M0,0h800v300h-800Z"/><g><g class="mark-area role-mark marks" role="graphics-object" aria-roledescription="area mark container"><path aria-label="Date: Mar 16, 2026; Unique Visitors/day: 0; Repository: karlmdavis/test-repo-for-move" role="graphics-symbol" aria-roledescription="area mark" d="M0,300L22.857,300L45.714,300L68.571,300L91.429,300L114.286,300L137.143,300L160,300L182.857,300L205.714,257.143L228.571,214.286L251.429,300L274.286,257.143L297.143,300L320,214.286L342.857,257.143L365.714,300L388.571,300L411.429,300L434.286,300L457.143,300L480,300L502.857,300L525.714,300L548.571,257.143L571.429,300L594.286,300L617.143,300L640,300L662.857,300L685.714,300L708.571,300L731.429,300L754.286,300L777.143,300L800,257.143L800,257.143L777.143,300L754.286,300L731.429,300L708.571,300L685.714,300L662.857,300L640,300L617.143,300L594.286,300L571.429,300L548.571,257.143L525.714,300L502.857,300L480,300L457.143,300L434.286,300L411.429,300L388.571,300L365.714,300L342.857,257.143L320,214.286L297.143,300L274.286,257.143L251.429,300L228.571,214.286L205.714,257.143L182.857,300L160,300L137.143,300L114.286,300L91.429,300L68.571,300L45.714,300L22.857,300L0,300Z" fill="#b279a2"/></g></g><path class="foreground" aria-hidden="true" d="" display="none"/></g><g transform="translate(0,0)"><path class="background" aria-hidden="true" d="M0,0h800v300h-800Z"/><g><g class="mark-area role-mark marks" role="graphics-object" aria-roledescription="area mark container"><path aria-label="Date: Mar 16, 2026; Unique Visitors/day: 0; Repository: karlmdavis/todoist-ai" role="graphics-symbol" aria-roledescription="area mark" d="M0,300L22.857,300L45.714,300L68.571,300L91.429,300L114.286,300L137.143,300L160,300L182.857,300L205.714,257.143L228.571,214.286L251.429,300L274.286,257.143L297.143,300L320,214.286L342.857,257.143L365.714,300L388.571,300L411.429,300L434.286,300L457.143,300L480,300L502.857,300L525.714,300L548.571,257.143L571.429,300L594.286,300L617.143,300L640,300L662.857,300L685.714,300L708.571,300L731.429,300L754.286,300L777.143,300L800,257.143L800,300L777.143,300L754.286,300L731.429,300L708.571,300L685.714,300L662.857,300L640,300L617.143,300L594.286,300L571.429,300L548.571,257.143L525.714,300L502.857,300L480,300L457.143,300L434.286,300L411.429,300L388.571,300L365.714,300L342.857,257.143L320,257.143L297.143,300L274.286,257.143L251.429,300L228.571,214.286L205.714,257.143L182.857,300L160,300L137.143,300L114.286,300L91.429,300L68.571,300L45.714,300L22.857,300L0,300Z" fill="#ff9da6"/></g></g><path class="foreground" aria-hidden="true" d="" display="none"/></g><g transform="translate(0,0)"><path class="background" aria-hidden="true" d="M0,0h800v300h-800Z"/><g><g class="mark-area role-mark marks" role="graphics-object" aria-roledescription="area mark container"><path aria-label="Date: Mar 16, 2026; Unique Visitors/day: 0; Repository: karlmdavis/usgs-water-api-java" role="graphics-symbol" aria-roledescription="area mark" d="M0,300L22.857,300L45.714,300L68.571,300L91.429,300L114.286,300L137.143,300L160,300L182.857,300L205.714,257.143L228.571,214.286L251.429,300L274.286,257.143L297.143,300L320,257.143L342.857,257.143L365.714,300L388.571,300L411.429,300L434.286,300L457.143,300L480,300L502.857,300L525.714,300L548.571,257.143L571.429,300L594.286,300L617.143,300L640,300L662.857,300L685.714,300L708.571,300L731.429,300L754.286,300L777.143,300L800,300L800,300L777.143,300L754.286,300L731.429,300L708.571,300L685.714,300L662.857,300L640,300L617.143,300L594.286,300L571.429,300L548.571,257.143L525.714,300L502.857,300L480,300L457.143,300L434.286,300L411.429,300L388.571,300L365.714,300L342.857,257.143L320,257.143L297.143,300L274.286,257.143L251.429,300L228.571,214.286L205.714,257.143L182.857,300L160,300L137.143,300L114.286,300L91.429,300L68.571,300L45.714,300L22.857,300L0,300Z" fill="#9d755d"/></g></g><path class="foreground" aria-hidden="true" d="" display="none"/></g><g transform="translate(0,0)"><path class="background" aria-hidden="true" d="M0,0h800v300h-800Z"/><g><g class="mark-area role-mark marks" role="graphics-object" aria-roledescription="area mark container"><path aria-label="Date: Mar 16, 2026; Unique Visitors/day: 0; Repository: karlmdavis/workstation-base-ansible-role" role="graphics-symbol" aria-roledescription="area mark" d="M0,300L22.857,300L45.714,300L68.571,300L91.429,300L114.286,300L137.143,300L160,300L182.857,300L205.714,257.143L228.571,214.286L251.429,300L274.286,257.143L297.143,300L320,257.143L342.857,257.143L365.714,300L388.571,300L411.429,300L434.286,300L457.143,300L480,300L502.857,300L525.714,300L548.571,257.143L571.429,300L594.286,300L617.143,300L640,300L662.857,300L685.714,300L708.571,300L731.429,300L754.286,300L777.143,300L800,300L800,300L777.143,300L754.286,300L731.429,300L708.571,300L685.714,300L662.857,300L640,300L617.143,300L594.286,300L571.429,300L548.571,257.143L525.714,300L502.857,300L480,300L457.143,300L434.286,300L411.429,300L388.571,300L365.714,300L342.857,257.143L320,257.143L297.143,300L274.286,257.143L251.429,300L228.571,214.286L205.714,257.143L182.857,300L160,300L137.143,300L114.286,300L91.429,300L68.571,300L45.714,300L22.857,300L0,300Z" fill="#bab0ac"/></g></g><path class="foreground" aria-hidden="true" d="" display="none"/></g><g transform="translate(0,0)"><path class="background" aria-hidden="true" d="M0,0h800v300h-800Z"/><g><g class="mark-area role-mark marks" role="graphics-object" aria-roledescription="area mark container"><path aria-label="Date: Mar 16, 2026; Unique Visitors/day: 0; Repository: karlmdavis/xmlpull" role="graphics-symbol" aria-roledescription="area mark" d="M0,300L22.857,300L45.714,300L68.571,300L91.429,300L114.286,300L137.143,300L160,300L182.857,300L205.714,257.143L228.571,214.286L251.429,300L274.286,257.143L297.143,300L320,257.143L342.857,257.143L365.714,300L388.571,300L411.429,300L434.286,300L457.143,300L480,300L502.857,300L525.714,300L548.571,257.143L571.429,300L594.286,300L617.143,300L640,300L662.857,300L685.714,300L708.571,300L731.429,300L754.286,300L777.143,300L800,300L800,300L777.143,300L754.286,300L731.429,300L708.571,300L685.714,300L662.857,300L640,300L617.143,300L594.286,300L571.429,300L548.571,300L525.714,300L502.857,300L480,300L457.143,300L434.286,300L411.429,300L388.571,300L365.714,300L342.857,300L320,300L297.143,300L274.286,300L251.429,300L228.571,300L205.714,300L182.857,300L160,300L137.143,300L114.286,300L91.429,300L68.571,300L45.714,300L22.857,300L0,300Z" fill="#4c78a8"/></g></g><path class="foreground" aria-hidden="true" d="" display="none"/></g></g><g class="mark-group role-legend" role="graphics-symbol" aria-roledescription="legend" aria-label="Symbol legend titled 'Repository' for fill color with 41 values: karlmdavis/FHIR-Server, karlmdavis/ansible, karlmdavis/ansible-jenkins, karlmdavis/ansible-role-acmetool, karlmdavis/ansible-role-bind-dns, ending with karlmdavis/xmlpull"><g transform="translate(818,0)"><path class="background" aria-hidden="true" d="M0,0h176v404h-176Z" pointer-events="none"/><g><g class="mark-group role-legend-entry"><g transform="translate(0,16)"><path class="background" aria-hidden="true" d="M0,0h0v0h0Z" pointer-events="none"/><g><g class="mark-group role-scope" role="graphics-object" aria-roledescription="group mark container"><g transform="translate(0,0)"><path class="background" aria-hidden="true" d="M0,0h176v11h-176Z" pointer-events="none" opacity="1"/><g><g class="mark-symbol role-legend-symbol" pointer-events="none"><path transform="translate(6,6)" d="M5,0A5,5,0,1,1,-5,0A5,5,0,1,1,5,0" fill="#4c78a8" stroke-width="1.5" opacity="1"/></g><g class="mark-text role-legend-label" pointer-events="none"><text text-anchor="start" transform="translate(16,9)" font-family="sans-serif" font-size="10px" fill="#000" opacity="1">karlmdavis/FHIR-Server</text></g></g><path class="foreground" aria-hidden="true" d="" pointer-events="none" display="none"/></g><g transform="translate(0,13)"><path class="background" aria-hidden="true" d="M0,0h176v11h-176Z" pointer-events="none" opacity="1"/><g><g class="mark-symbol role-legend-symbol" pointer-events="none"><path transform="translate(6,6)" d="M5,0A5,5,0,1,1,-5,0A5,5,0,1,1,5,0" fill="#f58518" stroke-width="1.5" opacity="1"/></g><g class="mark-text role-legend-label" pointer-events="none"><text text-anchor="start" transform="translate(16,9)" font-family="sans-serif" font-size="10px" fill="#000" opacity="1">karlmdavis/ansible</text></g></g><path class="foreground" aria-hidden="true" d="" pointer-events="none" display="none"/></g><g transform="translate(0,26)"><path class="background" aria-hidden="true" d="M0,0h176v11h-176Z" pointer-events="none" opacity="1"/><g><g class="mark-symbol role-legend-symbol" pointer-events="none"><path transform="translate(6,6)" d="M5,0A5,5,0,1,1,-5,0A5,5,0,1,1,5,0" fill="#e45756" stroke-width="1.5" opacity="1"/></g><g class="mark-text role-legend-label" pointer-events="none"><text text-anchor="start" transform="translate(16,9)" font-family="sans-serif" font-size="10px" fill="#000" opacity="1">karlmdavis/ansible-jenkins</text></g></g><path class="foreground" aria-hidden="true" d="" pointer-events="none" display="none"/></g><g transform="translate(0,39)"><path class="background" aria-hidden="true" d="M0,0h176v11h-176Z" pointer-events="none" opacity="1"/><g><g class="mark-symbol role-legend-symbol" pointer-events="none"><path transform="translate(6,6)" d="M5,0A5,5,0,1,1,-5,0A5,5,0,1,1,5,0" fill="#72b7b2" stroke-width="1.5" opacity="1"/></g><g class="mark-text role-legend-label" pointer-events="none"><text text-anchor="start" transform="translate(16,9)" font-family="sans-serif" font-size="10px" fill="#000" opacity="1">karlmdavis/ansible-role-acmetool</text></g></g><path class="foreground" aria-hidden="true" d="" pointer-events="none" display="none"/></g><g transform="translate(0,52)"><path class="background" aria-hidden="true" d="M0,0h176v11h-176Z" pointer-events="none" opacity="1"/><g><g class="mark-symbol role-legend-symbol" pointer-events="none"><path transform="translate(6,6)" d="M5,0A5,5,0,1,1,-5,0A5,5,0,1,1,5,0" fill="#54a24b" stroke-width="1.5" opacity="1"/></g><g class="mark-text role-legend-label" pointer-events="none"><text text-anchor="start" transform="translate(16,9)" font-family="sans-serif" font-size="10px" fill="#000" opacity="1">karlmdavis/ansible-role-bind-dns</text></g></g><path class="foreground" aria-hidden="true" d="" pointer-events="none" display="none"/></g><g transform="translate(0,65)"><path class="background" aria-hidden="true" d="M0,0h176v11h-176Z" pointer-events="none" opacity="1"/><g><g class="mark-symbol role-legend-symbol" pointer-events="none"><path transform="translate(6,6)" d="M5,0A5,5,0,1,1,-5,0A5,5,0,1,1,5,0" fill="#eeca3b" stroke-width="1.5" opacity="1"/></g><g class="mark-text role-legend-label" pointer-events="none"><text text-anchor="start" transform="translate(16,9)" font-family="sans-serif" font-size="10px" fill="#000" opacity="1">karlmdavis/ansible-role-jenkins2</text></g></g><path class="foreground" aria-hidden="true" d="" pointer-events="none" display="none"/></g><g transform="translate(0,78)"><path class="background" aria-hidden="true" d="M0,0h176v11h-176Z" pointer-events="none" opacity="1"/><g><g class="mark-symbol role-legend-symbol" pointer-events="none"><path transform="translate(6,6)" d="M5,0A5,5,0,1,1,-5,0A5,5,0,1,1,5,0" fill="#b279a2" stroke-width="1.5" opacity="1"/></g><g class="mark-text role-legend-label" pointer-events="none"><text text-anchor="start" transform="translate(16,9)" font-family="sans-serif" font-size="10px" fill="#000" opacity="1">karlmdavis/ansible-role-ldap</text></g></g><path class="foreground" aria-hidden="true" d="" pointer-events="none" display="none"/></g><g transform="translate(0,91)"><path class="background" aria-hidden="true" d="M0,0h176v11h-176Z" pointer-events="none" opacity="1"/><g><g class="mark-symbol role-legend-symbol" pointer-events="none"><path transform="translate(6,6)" d="M5,0A5,5,0,1,1,-5,0A5,5,0,1,1,5,0" fill="#ff9da6" stroke-width="1.5" opacity="1"/></g><g class="mark-text role-legend-label" pointer-events="none"><text text-anchor="start" transform="translate(16,9)" font-family="sans-serif" font-size="10px" fill="#000" opacity="1">karlmdavis/ansible-role-rcm-dotfiles</text></g></g><path class="foreground" aria-hidden="true" d="" pointer-events="none" display="none"/></g><g transform="translate(0,104)"><path class="background" aria-hidden="true" d="M0,0h176v11h-176Z" pointer-events="none" opacity="1"/><g><g class="mark-symbol role-legend-symbol" pointer-events="none"><path transform="translate(6,6)" d="M5,0A5,5,0,1,1,-5,0A5,5,0,1,1,5,0" fill="#9d755d" stroke-width="1.5" opacity="1"/></g><g class="mark-text role-legend-label" pointer-events="none"><text text-anchor="start" transform="translate(16,9)" font-family="sans-serif" font-size="10px" fill="#000" opacity="1">karlmdavis/ansible-roles</text></g></g><path class="foreground" aria-hidden="true" d="" pointer-events="none" display="none"/></g><g transform="translate(0,117)"><path class="background" aria-hidden="true" d="M0,0h176v11h-176Z" pointer-events="none" opacity="1"/><g><g class="mark-symbol role-legend-symbol" pointer-events="none"><path transform="translate(6,6)" d="M5,0A5,5,0,1,1,-5,0A5,5,0,1,1,5,0" fill="#bab0ac" stroke-width="1.5" opacity="1"/></g><g class="mark-text role-legend-label" pointer-events="none"><text text-anchor="start" transform="translate(16,9)" font-family="sans-serif" font-size="10px" fill="#000" opacity="1">karlmdavis/bbonfhir-dev-infra-doc…</text></g></g><path class="foreground" aria-hidden="true" d="" pointer-events="none" display="none"/></g><g transform="translate(0,130)"><path class="background" aria-hidden="true" d="M0,0h176v11h-176Z" pointer-events="none" opacity="1"/><g><g class="mark-symbol role-legend-symbol" pointer-events="none"><path transform="translate(6,6)" d="M5,0A5,5,0,1,1,-5,0A5,5,0,1,1,5,0" fill="#4c78a8" stroke-width="1.5" opacity="1"/></g><g class="mark-text role-legend-label" pointer-events="none"><text text-anchor="start" transform="translate(16,9)" font-family="sans-serif" font-size="10px" fill="#000" opacity="1">karlmdavis/can-i-kayak-baltimore</text></g></g><path class="foreground" aria-hidden="true" d="" pointer-events="none" display="none"/></g><g transform="translate(0,143)"><path class="background" aria-hidden="true" d="M0,0h176v11h-176Z" pointer-events="none" opacity="1"/><g><g class="mark-symbol role-legend-symbol" pointer-events="none"><path transform="translate(6,6)" d="M5,0A5,5,0,1,1,-5,0A5,5,0,1,1,5,0" fill="#f58518" stroke-width="1.5" opacity="1"/></g><g class="mark-text role-legend-label" pointer-events="none"><text text-anchor="start" transform="translate(16,9)" font-family="sans-serif" font-size="10px" fill="#000" opacity="1">karlmdavis/datanucleus-test-jdo-1…</text></g></g><path class="foreground" aria-hidden="true" d="" pointer-events="none" display="none"/></g><g transform="translate(0,156)"><path class="background" aria-hidden="true" d="M0,0h176v11h-176Z" pointer-events="none" opacity="1"/><g><g class="mark-symbol role-legend-symbol" pointer-events="none"><path transform="translate(6,6)" d="M5,0A5,5,0,1,1,-5,0A5,5,0,1,1,5,0" fill="#e45756" stroke-width="1.5" opacity="1"/></g><g class="mark-text role-legend-label" pointer-events="none"><text text-anchor="start" transform="translate(16,9)" font-family="sans-serif" font-size="10px" fill="#000" opacity="1">karlmdavis/dotfiles</text></g></g><path class="foreground" aria-hidden="true" d="" pointer-events="none" display="none"/></g><g transform="translate(0,169)"><path class="background" aria-hidden="true" d="M0,0h176v11h-176Z" pointer-events="none" opacity="1"/><g><g class="mark-symbol role-legend-symbol" pointer-events="none"><path transform="translate(6,6)" d="M5,0A5,5,0,1,1,-5,0A5,5,0,1,1,5,0" fill="#72b7b2" stroke-width="1.5" opacity="1"/></g><g class="mark-text role-legend-label" pointer-events="none"><text text-anchor="start" transform="translate(16,9)" font-family="sans-serif" font-size="10px" fill="#000" opacity="1">karlmdavis/fhir-benchmarks</text></g></g><path class="foreground" aria-hidden="true" d="" pointer-events="none" display="none"/></g><g transform="translate(0,182)"><path class="background" aria-hidden="true" d="M0,0h176v11h-176Z" pointer-events="none" opacity="1"/><g><g class="mark-symbol role-legend-symbol" pointer-events="none"><path transform="translate(6,6)" d="M5,0A5,5,0,1,1,-5,0A5,5,0,1,1,5,0" fill="#54a24b" stroke-width="1.5" opacity="1"/></g><g class="mark-text role-legend-label" pointer-events="none"><text text-anchor="start" transform="translate(16,9)" font-family="sans-serif" font-size="10px" fill="#000" opacity="1">karlmdavis/hapi-fhir-jpaserver-sta…</text></g></g><path class="foreground" aria-hidden="true" d="" pointer-events="none" display="none"/></g><g transform="translate(0,195)"><path class="background" aria-hidden="true" d="M0,0h176v11h-176Z" pointer-events="none" opacity="1"/><g><g class="mark-symbol role-legend-symbol" pointer-events="none"><path transform="translate(6,6)" d="M5,0A5,5,0,1,1,-5,0A5,5,0,1,1,5,0" fill="#eeca3b" stroke-width="1.5" opacity="1"/></g><g class="mark-text role-legend-label" pointer-events="none"><text text-anchor="start" transform="translate(16,9)" font-family="sans-serif" font-size="10px" fill="#000" opacity="1">karlmdavis/hello-rust-actix</text></g></g><path class="foreground" aria-hidden="true" d="" pointer-events="none" display="none"/></g><g transform="translate(0,208)"><path class="background" aria-hidden="true" d="M0,0h176v11h-176Z" pointer-events="none" opacity="1"/><g><g class="mark-symbol role-legend-symbol" pointer-events="none"><path transform="translate(6,6)" d="M5,0A5,5,0,1,1,-5,0A5,5,0,1,1,5,0" fill="#b279a2" stroke-width="1.5" opacity="1"/></g><g class="mark-text role-legend-label" pointer-events="none"><text text-anchor="start" transform="translate(16,9)" font-family="sans-serif" font-size="10px" fill="#000" opacity="1">karlmdavis/jessentials</text></g></g><path class="foreground" aria-hidden="true" d="" pointer-events="none" display="none"/></g><g transform="translate(0,221)"><path class="background" aria-hidden="true" d="M0,0h176v11h-176Z" pointer-events="none" opacity="1"/><g><g class="mark-symbol role-legend-symbol" pointer-events="none"><path transform="translate(6,6)" d="M5,0A5,5,0,1,1,-5,0A5,5,0,1,1,5,0" fill="#ff9da6" stroke-width="1.5" opacity="1"/></g><g class="mark-text role-legend-label" pointer-events="none"><text text-anchor="start" transform="translate(16,9)" font-family="sans-serif" font-size="10px" fill="#000" opacity="1">karlmdavis/justdavis-ansible</text></g></g><path class="foreground" aria-hidden="true" d="" pointer-events="none" display="none"/></g><g transform="translate(0,234)"><path class="background" aria-hidden="true" d="M0,0h176v11h-176Z" pointer-events="none" opacity="1"/><g><g class="mark-symbol role-legend-symbol" pointer-events="none"><path transform="translate(6,6)" d="M5,0A5,5,0,1,1,-5,0A5,5,0,1,1,5,0" fill="#9d755d" stroke-width="1.5" opacity="1"/></g><g class="mark-text role-legend-label" pointer-events="none"><text text-anchor="start" transform="translate(16,9)" font-family="sans-serif" font-size="10px" fill="#000" opacity="1">karlmdavis/justdavis-finances</text></g></g><path class="foreground" aria-hidden="true" d="" pointer-events="none" display="none"/></g><g transform="translate(0,247)"><path class="background" aria-hidden="true" d="M0,0h176v11h-176Z" pointer-events="none" opacity="1"/><g><g class="mark-symbol role-legend-symbol" pointer-events="none"><path transform="translate(6,6)" d="M5,0A5,5,0,1,1,-5,0A5,5,0,1,1,5,0" fill="#bab0ac" stroke-width="1.5" opacity="1"/></g><g class="mark-text role-legend-label" pointer-events="none"><text text-anchor="start" transform="translate(16,9)" font-family="sans-serif" font-size="10px" fill="#000" opacity="1">karlmdavis/justdavis-karl</text></g></g><path class="foreground" aria-hidden="true" d="" pointer-events="none" display="none"/></g><g transform="translate(0,260)"><path class="background" aria-hidden="true" d="M0,0h176v11h-176Z" pointer-events="none" opacity="1"/><g><g class="mark-symbol role-legend-symbol" pointer-events="none"><path transform="translate(6,6)" d="M5,0A5,5,0,1,1,-5,0A5,5,0,1,1,5,0" fill="#4c78a8" stroke-width="1.5" opacity="1"/></g><g class="mark-text role-legend-label" pointer-events="none"><text text-anchor="start" transform="translate(16,9)" font-family="sans-serif" font-size="10px" fill="#000" opacity="1">karlmdavis/justdavis-puppet</text></g></g><path class="foreground" aria-hidden="true" d="" pointer-events="none" display="none"/></g><g transform="translate(0,273)"><path class="background" aria-hidden="true" d="M0,0h176v11h-176Z" pointer-events="none" opacity="1"/><g><g class="mark-symbol role-legend-symbol" pointer-events="none"><path transform="translate(6,6)" d="M5,0A5,5,0,1,1,-5,0A5,5,0,1,1,5,0" fill="#f58518" stroke-width="1.5" opacity="1"/></g><g class="mark-text role-legend-label" pointer-events="none"><text text-anchor="start" transform="translate(16,9)" font-family="sans-serif" font-size="10px" fill="#000" opacity="1">karlmdavis/kobjects</text></g></g><path class="foreground" aria-hidden="true" d="" pointer-events="none" display="none"/></g><g transform="translate(0,286)"><path class="background" aria-hidden="true" d="M0,0h176v11h-176Z" pointer-events="none" opacity="1"/><g><g class="mark-symbol role-legend-symbol" pointer-events="none"><path transform="translate(6,6)" d="M5,0A5,5,0,1,1,-5,0A5,5,0,1,1,5,0" fill="#e45756" stroke-width="1.5" opacity="1"/></g><g class="mark-text role-legend-label" pointer-events="none"><text text-anchor="start" transform="translate(16,9)" font-family="sans-serif" font-size="10px" fill="#000" opacity="1">karlmdavis/ksoap2-android</text></g></g><path class="foreground" aria-hidden="true" d="" pointer-events="none" display="none"/></g><g transform="translate(0,299)"><path class="background" aria-hidden="true" d="M0,0h176v11h-176Z" pointer-events="none" opacity="1"/><g><g class="mark-symbol role-legend-symbol" pointer-events="none"><path transform="translate(6,6)" d="M5,0A5,5,0,1,1,-5,0A5,5,0,1,1,5,0" fill="#72b7b2" stroke-width="1.5" opacity="1"/></g><g class="mark-text role-legend-label" pointer-events="none"><text text-anchor="start" transform="translate(16,9)" font-family="sans-serif" font-size="10px" fill="#000" opacity="1">karlmdavis/kxml2</text></g></g><path class="foreground" aria-hidden="true" d="" pointer-events="none" display="none"/></g><g transform="translate(0,312)"><path class="background" aria-hidden="true" d="M0,0h176v11h-176Z" pointer-events="none" opacity="1"/><g><g class="mark-symbol role-legend-symbol" pointer-events="none"><path transform="translate(6,6)" d="M5,0A5,5,0,1,1,-5,0A5,5,0,1,1,5,0" fill="#54a24b" stroke-width="1.5" opacity="1"/></g><g class="mark-text role-legend-label" pointer-events="none"><text text-anchor="start" transform="translate(16,9)" font-family="sans-serif" font-size="10px" fill="#000" opacity="1">karlmdavis/ldap-plugin</text></g></g><path class="foreground" aria-hidden="true" d="" pointer-events="none" display="none"/></g><g transform="translate(0,325)"><path class="background" aria-hidden="true" d="M0,0h176v11h-176Z" pointer-events="none" opacity="1"/><g><g class="mark-symbol role-legend-symbol" pointer-events="none"><path transform="translate(6,6)" d="M5,0A5,5,0,1,1,-5,0A5,5,0,1,1,5,0" fill="#eeca3b" stroke-width="1.5" opacity="1"/></g><g class="mark-text role-legend-label" pointer-events="none"><text text-anchor="start" transform="translate(16,9)" font-family="sans-serif" font-size="10px" fill="#000" opacity="1">karlmdavis/lego-ev3dev-rs</text></g></g><path class="foreground" aria-hidden="true" d="" pointer-events="none" display="none"/></g><g transform="translate(0,338)"><path class="background" aria-hidden="true" d="M0,0h176v11h-176Z" pointer-events="none" opacity="1"/><g><g class="mark-symbol role-legend-symbol" pointer-events="none"><path transform="translate(6,6)" d="M5,0A5,5,0,1,1,-5,0A5,5,0,1,1,5,0" fill="#b279a2" stroke-width="1.5" opacity="1"/></g><g class="mark-text role-legend-label" pointer-events="none"><text text-anchor="start" transform="translate(16,9)" font-family="sans-serif" font-size="10px" fill="#000" opacity="1">karlmdavis/liquibase</text></g></g><path class="foreground" aria-hidden="true" d="" pointer-events="none" display="none"/></g><g transform="translate(0,351)"><path class="background" aria-hidden="true" d="M0,0h176v11h-176Z" pointer-events="none" opacity="1"/><g><g class="mark-symbol role-legend-symbol" pointer-events="none"><path transform="translate(6,6)" d="M5,0A5,5,0,1,1,-5,0A5,5,0,1,1,5,0" fill="#ff9da6" stroke-width="1.5" opacity="1"/></g><g class="mark-text role-legend-label" pointer-events="none"><text text-anchor="start" transform="translate(16,9)" font-family="sans-serif" font-size="10px" fill="#000" opacity="1">karlmdavis/m2e-core</text></g></g><path class="foreground" aria-hidden="true" d="" pointer-events="none" display="none"/></g><g transform="translate(0,364)"><path class="background" aria-hidden="true" d="M0,0h176v11h-176Z" pointer-events="none" opacity="1"/><g><g class="mark-symbol role-legend-symbol" pointer-events="none"><path transform="translate(6,6)" d="M5,0A5,5,0,1,1,-5,0A5,5,0,1,1,5,0" fill="#9d755d" stroke-width="1.5" opacity="1"/></g><g class="mark-text role-legend-label" pointer-events="none"><text text-anchor="start" transform="translate(16,9)" font-family="sans-serif" font-size="10px" fill="#000" opacity="1">karlmdavis/m2e-core-tests</text></g></g><path class="foreground" aria-hidden="true" d="" pointer-events="none" display="none"/></g><g transform="translate(0,377)"><path class="background" aria-hidden="true" d="M0,0h176v11h-176Z" pointer-events="none" opacity="1"/><g><g class="mark-symbol role-legend-symbol" pointer-events="none"><path transform="translate(6,6)" d="M5,0A5,5,0,1,1,-5,0A5,5,0,1,1,5,0" fill="#bab0ac" stroke-width="1.5" opacity="1"/></g><g class="mark-text role-legend-label" pointer-events="none"><text text-anchor="start" transform="translate(16,9)" font-family="sans-serif" font-size="10px" fill="#000" opacity="1">…12 entries</text></g></g><path class="foreground" aria-hidden="true" d="" pointer-events="none" display="none"/></g></g></g><path class="foreground" aria-hidden="true" d="" pointer-events="none" display="none"/></g></g><g class="mark-text role-legend-title" pointer-events="none"><text text-anchor="start" transform="translate(0,9)" font-family="sans-serif" font-size="11px" font-weight="bold" fill="#000" opacity="1">Repository</text></g></g><path class="foreground" aria-hidden="true" d="" pointer-events="none" display="none"/></g></g><g class="mark-group role-title"><g transform="translate(400,-22)"><path class="background" aria-hidden="true" d="M0,0h0v0h0Z" pointer-events="none"/><g><g class="mark-text role-title-text" role="graphics-symbol" aria-roledescription="title" aria-label="Title text 'Unique Visitors per Day'" pointer-events="none"><text text-anchor="middle" transform="translate(0,10)" font-family="sans-serif" font-size="13px" font-weight="bold" fill="#000" opacity="1">Unique Visitors per Day</text></g></g><path class="foreground" aria-hidden="true" d="" pointer-events="none" display="none"/></g></g></g><path class="foreground" aria-hidden="true" d="" display="none"/></g></g></g></svg>