<svg xmlns="http://www.w3.org/2000/svg" xmlns:xlink="http://www.w3.org/1999/xlink" version="1.1" class="marks" width="1043" height="436" viewBox="0 0 1043 436"><rect width="1043" height="436" fill="white"/><g fill="none" stroke-miterlimit="10" transform="translate(44,27)"><g class="mark-group role-frame root" role="graphics-object" aria-roledescription="group mark container"><g transform="translate(0,0)"><path class="background" aria-hidden="true" d="M0.5,0.5h800v300h-800Z" stroke="#ddd"/><g><g class="mark-group role-axis" aria-hidden="true"><g transform="translate(0.5,300.5)"><path class="background" aria-hidden="true" d="M0,0h0v0h0Z" pointer-events="none"/><g><g class="mark-rule role-axis-grid" pointer-events="none"><line transform="translate(22,-300)" x2="0" y2="300" stroke="#ddd" stroke-width="1" opacity="1"/><line transform="translate(67,-300)" x2="0" y2="300" stroke="#ddd" stroke-width="1" opacity="1"/><line transform="translate(111,-300)" x2="0" y2="300" stroke="#ddd" stroke-width="1" opacity="1"/><line transform="translate(156,-300)" x2="0" y2="300" stroke="#ddd" stroke-width="1" opacity="1"/><line transform="translate(200,-300)" x2="0" y2="300" stroke="#ddd" stroke-width="1" opacity="1"/><line transform="translate(244,-300)" x2="0" y2="300" stroke="#ddd" stroke-width="1" opacity="1"/><line transform="translate(289,-300)" x2="0" y2="300" stroke="#ddd" stroke-width="1" opacity="1"/><line transform="translate(333,-300)" x2="0" y2="300" stroke="#ddd" stroke-width="1" opacity="1"/><line transform="translate(356,-300)" x2="0" y2="300" stroke="#ddd" stroke-width="1" opacity="1"/><line transform="translate(400,-300)" x2="0" y2="300" stroke="#ddd" stroke-width="1" opacity="1"/><line transform="translate(444,-300)" x2="0" y2="300" stroke="#ddd" stroke-width="1" opacity="1"/><line transform="translate(489,-300)" x2="0" y2="300" stroke="#ddd" stroke-width="1" opacity="1"/><line transform="translate(533,-300)" x2="0" y2="300" stroke="#ddd" stroke-width="1" opacity="1"/><line transform="translate(578,-300)" x2="0" y2="300" stroke="#ddd" stroke-width="1" opacity="1"/><line transform="translate(622,-300)" x2="0" y2="300" stroke="#ddd" stroke-width="1" opacity="1"/><line transform="translate(667,-300)" x2="0" y2="300" stroke="#ddd" stroke-width="1" opacity="1"/><line transform="translate(711,-300)" x2="0" y2="300" stroke="#ddd" stroke-width="1" opacity="1"/><line transform="translate(756,-300)" x2="0" y2="300" stroke="#ddd" stroke-width="1" opacity="1"/><line transform="translate(800,-300)" x2="0" y2="300" stroke="#ddd" stroke-width="1" opacity="1"/></g></g><path class="foreground" aria-hidden="true" d="" pointer-events="none" display="none"/></g></g><g class="mark-group role-axis" aria-hidden="true"><g transform="translate(0.5,0.5)"><path class="background" aria-hidden="true" d="M0,0h0v0h0Z" pointer-events="none"/><g><g class="mark-rule role-axis-grid" pointer-events="none"><line transform="translate(0,300)" x2="800" y2="0" stroke="#ddd" stroke-width="1" opacity="1"/><line transform="translate(0,270)" x2="800" y2="0" stroke="#ddd" stroke-width="1" opacity="1"/><line transform="translate(0,240)" x2="800" y2="0" stroke="#ddd" stroke-width="1" opacity="1"/><line transform="translate(0,210)" x2="800" y2="0" stroke="#ddd" stroke-width="1" opacity="1"/><line transform="translate(0,180)" x2="800" y2="0" stroke="#ddd" stroke-width="1" opacity="1"/><line transform="translate(0,150)" x2="800" y2="0" stroke="#ddd" stroke-width="1" opacity="1"/><line transform="translate(0,120)" x2="800" y2="0" stroke="#ddd" stroke-width="1" opacity="1"/><line transform="translate(0,90)" x2="800" y2="0" stroke="#ddd" stroke-width="1" opacity="1"/><line transform="translate(0,60)" x2="800" y2="0" stroke="#ddd" stroke-width="1" opacity="1"/><line transform="translate(0,30)" x2="800" y2="0" stroke="#ddd" stroke-width="1" opacity="1"/><line transform="translate(0,0)" x2="800" y2="0" stroke="#ddd" stroke-width="1" opacity="1"/></g></g><path class="foreground" aria-hidden="true" d="" pointer-events="none" display="none"/></g></g><g class="mark-group role-axis" role="graphics-symbol" aria-roledescription="axis" aria-label="X-axis titled 'Date' for a time scale with values from Monday, 16 March 2026, 12:00:00 AM to Tuesday, 21 April 2026, 12:00:00 AM"><g transform="translate(0.5,300.5)"><path class="background" aria-hidden="true" d="M0,0h0v0h0Z" pointer-events="none"/><g><g class="mark-rule role-axis-tick" pointer-events="none"><line transform="translate(22,0)" x2="0" y2="5" stroke="#888" stroke-width="1" opacity="1"/><line transform="translate(67,0)" x2="0" y2="5" stroke="#888" stroke-width="1" opacity="1"/><line transform="translate(111,0)" x2="0" y2="5" stroke="#888" stroke-width="1" opacity="1"/><line transform="translate(156,0)" x2="0" y2="5" stroke="#888" stroke-width="1" opacity="1"/><line transform="translate(200,0)" x2="0" y2="5" stroke="#888" stroke-width="1" opacity="1"/><line transform="translate(244,0)" x2="0" y2="5" stroke="#888" stroke-width="1" opacity="1"/><line transform="translate(289,0)" x2="0" y2="5" stroke="#888" stroke-width="1" opacity="1"/><line transform="translate(333,0)" x2="0" y2="5" stroke="#888" stroke-width="1" opacity="1"/><line transform="translate(356,0)" x2="0" y2="5" stroke="#888" stroke-width="1" opacity="1"/><line transform="translate(400,0)" x2="0" y2="5" stroke="#888" stroke-width="1" opacity="1"/><line transform="translate(444,0)" x2="0" y2="5" stroke="#888" stroke-width="1" opacity="1"/><line transform="translate(489,0)" x2="0" y2="5" stroke="#888" stroke-width="1" opacity="1"/><line transform="translate(533,0)" x2="0" y2="5" stroke="#888" stroke-width="1" opacity="1"/><line transform="translate(578,0)" x2="0" y2="5" stroke="#888" stroke-width="1" opacity="1"/><line transform="translate(622,0)" x2="0" y2="5" stroke="#888" stroke-width="1" opacity="1"/><line transform="translate(667,0)" x2="0" y2="5" stroke="#888" stroke-width="1" opacity="1"/><line transform="translate(711,0)" x2="0" y2="5" stroke="#888" stroke-width="1" opacity="1"/><line transform="translate(756,0)" x2="0" y2="5" stroke="#888" stroke-width="1" opacity="1"/><line transform="translate(800,0)" x2="0" y2="5" stroke="#888" stroke-width="1" opacity="1"/></g><g class="mark-text role-axis-label" pointer-events="none"><text text-anchor="middle" transform="translate(22.22222222222222,15)" font-family="sans-serif" font-size="10px" fill="#000" opacity="1">Tue 17</text><text text-anchor="middle" transform="translate(66.66666666666666,15)" font-family="sans-serif" font-size="10px" fill="#000" opacity="0">Thu 19</text><text text-anchor="middle" transform="translate(111.11111111111111,15)" font-family="sans-serif" font-size="10px" fill="#000" opacity="1">Sat 21</text><text text-anchor="middle" transform="translate(155.55555555555557,15)" font-family="sans-serif" font-size="10px" fill="#000" opacity="0">Mon 23</text><text text-anchor="middle" transform="translate(200,15)" font-family="sans-serif" font-size="10px" fill="#000" opacity="1">Wed 25</text><text text-anchor="middle" transform="translate(244.44444444444446,15)" font-family="sans-serif" font-size="10px" fill="#000" opacity="0">Fri 27</text><text text-anchor="middle" transform="translate(288.88888888888886,15)" font-family="sans-serif" font-size="10px" fill="#000" opacity="1">Mar 29</text><text text-anchor="middle" transform="translate(333.33333333333337,15)" font-family="sans-serif" font-size="10px" fill="#000" opacity="0">Tue 31</text><text text-anchor="middle" transform="translate(355.55555555555554,15)" font-family="sans-serif" font-size="10px" fill="#000" opacity="1">April</text><text text-anchor="middle" transform="translate(400,15)" font-family="sans-serif" font-size="10px" fill="#000" opacity="0">Fri 03</text><text text-anchor="middle" transform="translate(444.44444444444446,15)" font-family="sans-serif" font-size="10px" fill="#000" opacity="1">Apr 05</text><text text-anchor="middle" transform="translate(488.8888888888889,15)" font-family="sans-serif" font-size="10px" fill="#000" opacity="0">Tue 07</text><text text-anchor="middle" transform="translate(533.3333333333333,15)" font-family="sans-serif" font-size="10px" fill="#000" opacity="1">Thu 09</text><text text-anchor="middle" transform="translate(577.7777777777777,15)" font-family="sans-serif" font-size="10px" fill="#000" opacity="0">Sat 11</text><text text-anchor="middle" transform="translate(622.2222222222223,15)" font-family="sans-serif" font-size="10px" fill="#000" opacity="1">Mon 13</text><text text-anchor="middle" transform="translate(666.6666666666667,15)" font-family="sans-serif" font-size="10px" fill="#000" opacity="0">Wed 15</text><text text-anchor="middle" transform="translate(711.1111111111111,15)" font-family="sans-serif" font-size="10px" fill="#000" opacity="1">Fri 17</text><text text-anchor="middle" transform="translate(755.5555555555555,15)" font-family="sans-serif" font-size="10px" fill="#000" opacity="0">Apr 19</text><text text-anchor="end" transform="translate(800,15)" font-family="sans-serif" font-size="10px" fill="#000" opacity="1">Tue 21</text></g><g class="mark-rule role-axis-domain" pointer-events="none"><line transform="translate(0,0)" x2="800" y2="0" stroke="#888" stroke-width="1" opacity="1"/></g><g class="mark-text role-axis-title" pointer-events="none"><text text-anchor="middle" transform="translate(400,30)" font-family="sans-serif" font-size="11px" font-weight="bold" fill="#000" opacity="1">Date</text></g></g><path class="foreground" aria-hidden="true" d="" pointer-events="none" display="none"/></g></g><g class="mark-group role-axis" role="graphics-symbol" aria-roledescription="axis" aria-label="Y-axis titled 'Unique Clones/day' for a linear scale with values from 0 to 100"><g transform="translate(0.5,0.5)"><path class="background" aria-hidden="true" d="M0,0h0v0h0Z" pointer-events="none"/><g><g class="mark-rule role-axis-tick" pointer-events="none"><line transform="translate(0,300)" x2="-5" y2="0" stroke="#888" stroke-width="1" opacity="1"/><line transform="translate(0,270)" x2="-5" y2="0" stroke="#888" stroke-width="1" opacity="1"/><line transform="translate(0,240)" x2="-5" y2="0" stroke="#888" stroke-width="1" opacity="1"/><line transform="translate(0,210)" x2="-5" y2="0" stroke="#888" stroke-width="1" opacity="1"/><line transform="translate(0,180)" x2="-5" y2="0" stroke="#888" stroke-width="1" opacity="1"/><line transform="translate(0,150)" x2="-5" y2="0" stroke="#888" stroke-width="1" opacity="1"/><line transform="translate(0,120)" x2="-5" y2="0" stroke="#888" stroke-width="1" opacity="1"/><line transform="translate(0,90)" x2="-5" y2="0" stroke="#888" stroke-width="1" opacity="1"/><line transform="translate(0,60)" x2="-5" y2="0" stroke="#888" stroke-width="1" opacity="1"/><line transform="translate(0,30)" x2="-5" y2="0" stroke="#888" stroke-width="1" opacity="1"/><line transform="translate(0,0)" x2="-5" y2="0" stroke="#888" stroke-width="1" opacity="1"/></g><g class="mark-text role-axis-label" pointer-events="none"><text text-anchor="end" transform="translate(-7,303)" font-family="sans-serif" font-size="10px" fill="#000" opacity="1">0</text><text text-anchor="end" transform="translate(-7,273)" font-family="sans-serif" font-size="10px" fill="#000" opacity="1">10</text><text text-anchor="end" transform="translate(-7,243)" font-family="sans-serif" font-size="10px" fill="#000" opacity="1">20</text><text text-anchor="end" transform="translate(-7,213)" font-family="sans-serif" font-size="10px" fill="#000" opacity="1">30</text><text text-anchor="end" transform="translate(-7,183)" font-family="sans-serif" font-size="10px" fill="#000" opacity="1">40</text><text text-anchor="end" transform="translate(-7,153)" font-family="sans-serif" font-size="10px" fill="#000" opacity="1">50</text><text text-anchor="end" transform="translate(-7,123)" font-family="sans-serif" font-size="10px" fill="#000" opacity="1">60</text><text text-anchor="end" transform="translate(-7,93.00000000000001)" font-family="sans-serif" font-size="10px" fill="#000" opacity="1">70</text><text text-anchor="end" transform="translate(-7,62.999999999999986)" font-family="sans-serif" font-size="10px" fill="#000" opacity="1">80</text><text text-anchor="end" transform="translate(-7,32.99999999999999)" font-family="sans-serif" font-size="10px" fill="#000" opacity="1">90</text><text text-anchor="end" transform="translate(-7,3)" font-family="sans-serif" font-size="10px" fill="#000" opacity="1">100</text></g><g class="mark-rule role-axis-domain" pointer-events="none"><line transform="translate(0,300)" x2="0" y2="-300" stroke="#888" stroke-width="1" opacity="1"/></g><g class="mark-text role-axis-title" pointer-events="none"><text text-anchor="middle" transform="translate(-27.6845703125,150) rotate(-90) translate(0,-2)" font-family="sans-serif" font-size="11px" font-weight="bold" fill="#000" opacity="1">Unique Clones/day</text></g></g><path class="foreground" aria-hidden="true" d="" pointer-events="none" display="none"/></g></g><g class="mark-group role-scope pathgroup" role="graphics-object" aria-roledescription="group mark container"><g transform="translate(0,0)"><path class="background" aria-hidden="true" d="M0,0h800v300h-800Z"/><g><g class="mark-area role-mark marks" role="graphics-object" aria-roledescription="area mark container"><path aria-label="Date: Mar 16, 2026; Unique Clones/day: 0; Repository: karlmdavis/FHIR-Server" role="graphics-symbol" aria-roledescription="area mark" d="M0,297L22.222,300L44.444,300L66.667,297L88.889,300L111.111,300L133.333,300L155.556,264L177.778,294L200,279L222.222,252L244.444,93L266.667,162L288.889,12L311.111,201L333.333,231L355.556,246L377.778,270L400,213L422.222,36L444.444,57L466.667,261L488.889,210L511.111,213L533.333,177L555.556,264L577.778,222L600,192L622.222,33L644.444,264L666.667,264L688.889,282L711.111,282L733.333,291L755.556,237L777.778,93L800,210L800,210L777.778,96L755.556,237L733.333,291L711.111,282L688.889,282L666.667,264L644.444,264L622.222,33L600,195L577.778,228L555.556,264L533.333,177L511.111,213L488.889,210L466.667,261L444.444,57L422.222,36L400,213L377.778,270L355.556,246L333.333,234L311.111,201L288.889,12L266.667,162L244.444,93L222.222,252L200,279L177.778,294L155.556,264L133.333,300L111.111,300L88.889,300L66.667,297L44.444,300L22.222,300L0,297Z" fill="#4c78a8"/></g></g><path class="foreground" aria-hidden="true" d="" display="none"/></g><g transform="translate(0,0)"><path class="background" aria-hidden="true" d="M0,0h800v300h-800Z"/><g><g class="mark-area role-mark marks" role="graphics-object" aria-roledescription="area mark container"><path aria-label="Date: Mar 16, 2026; Unique Clones/day: 1; Repository: karlmdavis/ansible" role="graphics-symbol" aria-roledescription="area mark" d="M0,297L22.222,300L44.444,300L66.667,297L88.889,300L111.111,300L133.333,300L155.556,264L177.778,294L200,279L222.222,252L244.444,93L266.667,162L288.889,12L311.111,201L333.333,234L355.556,246L377.778,270L400,213L422.222,36L444.444,57L466.667,261L488.889,210L511.111,213L533.333,177L555.556,264L577.778,228L600,195L622.222,33L644.444,264L666.667,264L688.889,282L711.111,282L733.333,291L755.556,237L777.778,96L800,210L800,210L777.778,96L755.556,237L733.333,291L711.111,282L688.889,282L666.667,264L644.444,267L622.222,33L600,195L577.778,228L555.556,264L533.333,177L511.111,213L488.889,210L466.667,261L444.444,57L422.222,36L400,213L377.778,270L355.556,246L333.333,234L311.111,201L288.889,12L266.667,162L244.444,93L222.222,252L200,279L177.778,294L155.556,264L133.333,300L111.111,300L88.889,300L66.667,297L44.444,300L22.222,300L0,300Z" fill="#f58518"/></g></g><path class="foreground" aria-hidden="true" d="" display="none"/></g><g transform="translate(0,0)"><path class="background" aria-hidden="true" d="M0,0h800v300h-800Z"/><g><g class="mark-area role-mark marks" role="graphics-object" aria-roledescription="area mark container"><path aria-label="Date: Mar 16, 2026; Unique Clones/day: 0; Repository: karlmdavis/ansible-jenkins" role="graphics-symbol" aria-roledescription="area mark" d="M0,300L22.222,300L44.444,300L66.667,297L88.889,300L111.111,300L133.333,300L155.556,264L177.778,294L200,279L222.222,252L244.444,93L266.667,162L288.889,12L311.111,201L333.333,234L355.556,246L377.778,270L400,213L422.222,36L444.444,57L466.667,261L488.889,210L511.111,213L533.333,177L555.556,264L577.778,228L600,195L622.222,33L644.444,267L666.667,264L688.889,282L711.111,282L733.333,291L755.556,237L777.778,96L800,210L800,210L777.778,96L755.556,237L733.333,291L711.111,282L688.889,282L666.667,264L644.444,267L622.222,33L600,198L577.778,228L555.556,264L533.333,177L511.111,213L488.889,210L466.667,261L444.444,57L422.222,39L400,216L377.778,270L355.556,246L333.333,234L311.111,201L288.889,12L266.667,162L244.444,93L222.222,255L200,279L177.778,294L155.556,264L133.333,300L111.111,300L88.889,300L66.667,297L44.444,300L22.222,300L0,300Z" fill="#e45756"/></g></g><path class="foreground" aria-hidden="true" d="" display="none"/></g><g transform="translate(0,0)"><path class="background" aria-hidden="true" d="M0,0h800v300h-800Z"/><g><g class="mark-area role-mark marks" role="graphics-object" aria-roledescription="area mark container"><path aria-label="Date: Mar 16, 2026; Unique Clones/day: 0; Repository: karlmdavis/ansible-role-acmetool" role="graphics-symbol" aria-roledescription="area mark" d="M0,300L22.222,300L44.444,300L66.667,297L88.889,300L111.111,300L133.333,300L155.556,264L177.778,294L200,279L222.222,255L244.444,93L266.667,162L288.889,12L311.111,201L333.333,234L355.556,246L377.778,270L400,216L422.222,39L444.444,57L466.667,261L488.889,210L511.111,213L533.333,177L555.556,264L577.778,228L600,198L622.222,33L644.444,267L666.667,264L688.889,282L711.111,282L733.333,291L755.556,237L777.778,96L800,210L800,210L777.778,96L755.556,237L733.333,291L711.111,282L688.889,282L666.667,264L644.444,267L622.222,33L600,201L577.778,228L555.556,264L533.333,177L511.111,213L488.889,210L466.667,261L444.444,57L422.222,39L400,216L377.778,270L355.556,246L333.333,234L311.111,201L288.889,12L266.667,162L244.444,93L222.222,258L200,279L177.778,294L155.556,264L133.333,300L111.111,300L88.889,300L66.667,297L44.444,300L22.222,300L0,300Z" fill="#72b7b2"/></g></g><path class="foreground" aria-hidden="true" d="" display="none"/></g><g transform="translate(0,0)"><path class="background" aria-hidden="true" d="M0,0h800v300h-800Z"/><g><g class="mark-area role-mark marks" role="graphics-object" aria-roledescription="area mark container"><path aria-label="Date: Mar 16, 2026; Unique Clones/day: 0; Repository: karlmdavis/ansible-role-bind-dns" role="graphics-symbol" aria-roledescription="area mark" d="M0,300L22.222,300L44.444,300L66.667,297L88.889,300L111.111,300L133.333,300L155.556,264L177.778,294L200,279L222.222,258L244.444,93L266.667,162L288.889,12L311.111,201L333.333,234L355.556,246L377.778,270L400,216L422.222,39L444.444,57L466.667,261L488.889,210L511.111,213L533.333,177L555.556,264L577.778,228L600,201L622.222,33L644.444,267L666.667,264L688.889,282L711.111,282L733.333,291L755.556,237L777.778,96L800,210L800,210L777.778,99L755.556,237L733.333,291L711.111,282L688.889,285L666.667,264L644.444,267L622.222,45L600,204L577.778,228L555.556,264L533.333,180L511.111,216L488.889,210L466.667,261L444.444,57L422.222,42L400,216L377.778,270L355.556,255L333.333,234L311.111,204L288.889,15L266.667,162L244.444,99L222.222,258L200,279L177.778,294L155.556,264L133.333,300L111.111,300L88.889,300L66.667,297L44.444,300L22.222,300L0,300Z" fill="#54a24b"/></g></g><path class="foreground" aria-hidden="true" d="" display="none"/></g><g transform="translate(0,0)"><path class="background" aria-hidden="true" d="M0,0h800v300h-800Z"/><g><g class="mark-area role-mark marks" role="graphics-object" aria-roledescription="area mark container"><path aria-label="Date: Mar 16, 2026; Unique Clones/day: 0; Repository: karlmdavis/ansible-role-jenkins2" role="graphics-symbol" aria-roledescription="area mark" d="M0,300L22.222,300L44.444,300L66.667,297L88.889,300L111.111,300L133.333,300L155.556,264L177.778,294L200,279L222.222,258L244.444,99L266.667,162L288.889,15L311.111,204L333.333,234L355.556,255L377.778,270L400,216L422.222,42L444.444,57L466.667,261L488.889,210L511.111,216L533.333,180L555.556,264L577.778,228L600,204L622.222,45L644.444,267L666.667,264L688.889,285L711.111,282L733.333,291L755.556,237L777.778,99L800,210L800,213L777.778,102L755.556,237L733.333,291L711.111,282L688.889,285L666.667,267L644.444,267L622.222,60L600,204L577.778,231L555.556,270L533.333,195L511.111,216L488.889,210L466.667,261L444.444,60L422.222,48L400,219L377.778,273L355.556,258L333.333,237L311.111,204L288.889,15L266.667,165L244.444,102L222.222,261L200,282L177.778,297L155.556,264L133.333,300L111.111,300L88.889,300L66.667,297L44.444,300L22.222,300L0,300Z" fill="#eeca3b"/></g></g><path class="foreground" aria-hidden="true" d="" display="none"/></g><g transform="translate(0,0)"><path class="background" aria-hidden="true" d="M0,0h800v300h-800Z"/><g><g class="mark-area role-mark marks" role="graphics-object" aria-roledescription="area mark container"><path aria-label="Date: Mar 16, 2026; Unique Clones/day: 0; Repository: karlmdavis/ansible-role-ldap" role="graphics-symbol" aria-roledescription="area mark" d="M0,300L22.222,300L44.444,300L66.667,297L88.889,300L111.111,300L133.333,300L155.556,264L177.778,297L200,282L222.222,261L244.444,102L266.667,165L288.889,15L311.111,204L333.333,237L355.556,258L377.778,273L400,219L422.222,48L444.444,60L466.667,261L488.889,210L511.111,216L533.333,195L555.556,270L577.778,231L600,204L622.222,60L644.444,267L666.667,267L688.889,285L711.111,282L733.333,291L755.556,237L777.778,102L800,213L800,213L777.778,102L755.556,237L733.333,291L711.111,282L688.889,285L666.667,267L644.444,267L622.222,63L600,204L577.778,231L555.556,270L533.333,195L511.111,216L488.889,210L466.667,261L444.444,60L422.222,48L400,219L377.778,273L355.556,258L333.333,240L311.111,204L288.889,15L266.667,165L244.444,102L222.222,261L200,282L177.778,297L155.556,264L133.333,300L111.111,300L88.889,300L66.667,297L44.444,300L22.222,300L0,300Z" fill="#b279a2"/></g></g><path class="foreground" aria-hidden="true" d="" display="none"/></g><g transform="translate(0,0)"><path class="background" aria-hidden="true" d="M0,0h800v300h-800Z"/><g><g class="mark-area role-mark marks" role="graphics-object" aria-roledescription="area mark container"><path aria-label="Date: Mar 16, 2026; Unique Clones/day: 0; Repository: karlmdavis/ansible-role-rcm-dotfiles" role="graphics-symbol" aria-roledescription="area mark" d="M0,300L22.222,300L44.444,300L66.667,297L88.889,300L111.111,300L133.333,300L155.556,264L177.778,297L200,282L222.222,261L244.444,102L266.667,165L288.889,15L311.111,204L333.333,240L355.556,258L377.778,273L400,219L422.222,48L444.444,60L466.667,261L488.889,210L511.111,216L533.333,195L555.556,270L577.778,231L600,204L622.222,63L644.444,267L666.667,267L688.889,285L711.111,282L733.333,291L755.556,237L777.778,102L800,213L800,213L777.778,105L755.556,237L733.333,291L711.111,282L688.889,285L666.667,270L644.444,267L622.222,72L600,207L577.778,231L555.556,270L533.333,198L511.111,216L488.889,210L466.667,261L444.444,60L422.222,51L400,219L377.778,273L355.556,258L333.333,240L311.111,207L288.889,18L266.667,165L244.444,108L222.222,261L200,282L177.778,297L155.556,264L133.333,300L111.111,300L88.889,300L66.667,297L44.444,300L22.222,300L0,300Z" fill="#ff9da6"/></g></g><path class="foreground" aria-hidden="true" d="" display="none"/></g><g transform="translate(0,0)"><path class="background" aria-hidden="true" d="M0,0h800v300h-800Z"/><g><g class="mark-area role-mark marks" role="graphics-object" aria-roledescription="area mark container"><path aria-label="Date: Mar 16, 2026; Unique Clones/day: 0; Repository: karlmdavis/ansible-roles" role="graphics-symbol" aria-roledescription="area mark" d="M0,300L22.222,300L44.444,300L66.667,297L88.889,300L111.111,300L133.333,300L155.556,264L177.778,297L200,282L222.222,261L244.444,108L266.667,165L288.889,18L311.111,207L333.333,240L355.556,258L377.778,273L400,219L422.222,51L444.444,60L466.667,261L488.889,210L511.111,216L533.333,198L555.556,270L577.778,231L600,207L622.222,72L644.444,267L666.667,270L688.889,285L711.111,282L733.333,291L755.556,237L777.778,105L800,213L800,213L777.778,105L755.556,237L733.333,291L711.111,282L688.889,285L666.667,270L644.444,267L622.222,72L600,207L577.778,234L555.556,270L533.333,198L511.111,216L488.889,210L466.667,261L444.444,60L422.222,51L400,219L377.778,273L355.556,258L333.333,240L311.111,210L288.889,18L266.667,165L244.444,108L222.222,264L200,282L177.778,297L155.556,264L133.333,300L111.111,300L88.889,300L66.667,297L44.444,300L22.222,300L0,300Z" fill="#9d755d"/></g></g><path class="foreground" aria-hidden="true" d="" display="none"/></g><g transform="translate(0,0)"><path class="background" aria-hidden="true" d="M0,0h800v300h-800Z"/><g><g class="mark-area role-mark marks" role="graphics-object" aria-roledescription="area mark container"><path aria-label="Date: Mar 16, 2026; Unique Clones/day: 0; Repository: karlmdavis/bbonfhir-dev-infra-docker" role="graphics-symbol" aria-roledescription="area mark" d="M0,300L22.222,300L44.444,300L66.667,297L88.889,300L111.111,300L133.333,300L155.556,264L177.778,297L200,282L222.222,264L244.444,108L266.667,165L288.889,18L311.111,210L333.333,240L355.556,258L377.778,273L400,219L422.222,51L444.444,60L466.667,261L488.889,210L511.111,216L533.333,198L555.556,270L577.778,234L600,207L622.222,72L644.444,267L666.667,270L688.889,285L711.111,282L733.333,291L755.556,237L777.778,105L800,213L800,213L777.778,108L755.556,237L733.333,291L711.111,282L688.889,285L666.667,270L644.444,267L622.222,81L600,210L577.778,234L555.556,270L533.333,201L511.111,216L488.889,210L466.667,261L444.444,60L422.222,54L400,219L377.778,273L355.556,258L333.333,240L311.111,213L288.889,18L266.667,165L244.444,111L222.222,264L200,285L177.778,297L155.556,264L133.333,300L111.111,300L88.889,300L66.667,297L44.444,300L22.222,300L0,300Z" fill="#bab0ac"/></g></g><path class="foreground" aria-hidden="true" d="" display="none"/></g><g transform="translate(0,0)"><path class="background" aria-hidden="true" d="M0,0h800v300h-800Z"/><g><g class="mark-area role-mark marks" role="graphics-object" aria-roledescription="area mark container"><path aria-label="Date: Mar 16, 2026; Unique Clones/day: 0; Repository: karlmdavis/can-i-kayak-baltimore" role="graphics-symbol" aria-roledescription="area mark" d="M0,300L22.222,300L44.444,300L66.667,297L88.889,300L111.111,300L133.333,300L155.556,264L177.778,297L200,285L222.222,264L244.444,111L266.667,165L288.889,18L311.111,213L333.333,240L355.556,258L377.778,273L400,219L422.222,54L444.444,60L466.667,261L488.889,210L511.111,216L533.333,201L555.556,270L577.778,234L600,210L622.222,81L644.444,267L666.667,270L688.889,285L711.111,282L733.333,291L755.556,237L777.778,108L800,213L800,213L777.778,111L755.556,237L733.333,291L711.111,282L688.889,285L666.667,270L644.444,267L622.222,87L600,213L577.778,234L555.556,270L533.333,204L511.111,216L488.889,210L466.667,261L444.444,60L422.222,57L400,219L377.778,273L355.556,261L333.333,240L311.111,213L288.889,18L266.667,165L244.444,120L222.222,264L200,285L177.778,297L155.556,264L133.333,300L111.111,300L88.889,300L66.667,297L44.444,300L22.222,300L0,300Z" fill="#4c78a8"/></g></g><path class="foreground" aria-hidden="true" d="" display="none"/></g><g transform="translate(0,0)"><path class="background" aria-hidden="true" d="M0,0h800v300h-800Z"/><g><g class="mark-area role-mark marks" role="graphics-object" aria-roledescription="area mark container"><path aria-label="Date: Mar 16, 2026; Unique Clones/day: 0; Repository: karlmdavis/datanucleus-test-jdo-1-to-n" role="graphics-symbol" aria-roledescription="area mark" d="M0,300L22.222,300L44.444,300L66.667,297L88.889,300L111.111,300L133.333,300L155.556,264L177.778,297L200,285L222.222,264L244.444,120L266.667,165L288.889,18L311.111,213L333.333,240L355.556,261L377.778,273L400,219L422.222,57L444.444,60L466.667,261L488.889,210L511.111,216L533.333,204L555.556,270L577.778,234L600,213L622.222,87L644.444,267L666.667,270L688.889,285L711.111,282L733.333,291L755.556,237L777.778,111L800,213L800,213L777.778,111L755.556,237L733.333,291L711.111,285L688.889,285L666.667,270L644.444,270L622.222,87L600,213L577.778,234L555.556,270L533.333,204L511.111,216L488.889,210L466.667,261L444.444,60L422.222,57L400,219L377.778,273L355.556,261L333.333,240L311.111,213L288.889,18L266.667,168L244.444,120L222.222,264L200,285L177.778,297L155.556,264L133.333,300L111.111,300L88.889,300L66.667,297L44.444,300L22.222,300L0,300Z" fill="#f58518"/></g></g><path class="foreground" aria-hidden="true" d="" display="none"/></g><g transform="translate(0,0)"><path class="background" aria-hidden="true" d="M0,0h800v300h-800Z"/><g><g class="mark-area role-mark marks" role="graphics-object" aria-roledescription="area mark container"><path aria-label="Date: Mar 16, 2026; Unique Clones/day: 0; Repository: karlmdavis/dotfiles" role="graphics-symbol" aria-roledescription="area mark" d="M0,300L22.222,300L44.444,300L66.667,297L88.889,300L111.111,300L133.333,300L155.556,264L177.778,297L200,285L222.222,264L244.444,120L266.667,168L288.889,18L311.111,213L333.333,240L355.556,261L377.778,273L400,219L422.222,57L444.444,60L466.667,261L488.889,210L511.111,216L533.333,204L555.556,270L577.778,234L600,213L622.222,87L644.444,270L666.667,270L688.889,285L711.111,285L733.333,291L755.556,237L777.778,111L800,213L800,216L777.778,156L755.556,243L733.333,291L711.111,288L688.889,288L666.667,270L644.444,270L622.222,102L600,213L577.778,240L555.556,270L533.333,207L511.111,219L488.889,210L466.667,261L444.444,63L422.222,60L400,219L377.778,276L355.556,264L333.333,243L311.111,213L288.889,18L266.667,168L244.444,126L222.222,264L200,285L177.778,297L155.556,267L133.333,300L111.111,300L88.889,300L66.667,297L44.444,300L22.222,300L0,300Z" fill="#e45756"/></g></g><path class="foreground" aria-hidden="true" d="" display="none"/></g><g transform="translate(0,0)"><path class="background" aria-hidden="true" d="M0,0h800v300h-800Z"/><g><g class="mark-area role-mark marks" role="graphics-object" aria-roledescription="area mark container"><path aria-label="Date: Mar 16, 2026; Unique Clones/day: 0; Repository: karlmdavis/fhir-benchmarks" role="graphics-symbol" aria-roledescription="area mark" d="M0,300L22.222,300L44.444,300L66.667,297L88.889,300L111.111,300L133.333,300L155.556,267L177.778,297L200,285L222.222,264L244.444,126L266.667,168L288.889,18L311.111,213L333.333,243L355.556,264L377.778,276L400,219L422.222,60L444.444,63L466.667,261L488.889,210L511.111,219L533.333,207L555.556,270L577.778,240L600,213L622.222,102L644.444,270L666.667,270L688.889,288L711.111,288L733.333,291L755.556,243L777.778,156L800,216L800,219L777.778,159L755.556,243L733.333,294L711.111,291L688.889,288L666.667,273L644.444,279L622.222,117L600,213L577.778,246L555.556,270L533.333,213L511.111,240L488.889,213L466.667,261L444.444,66L422.222,63L400,222L377.778,276L355.556,267L333.333,249L311.111,216L288.889,21L266.667,168L244.444,132L222.222,264L200,288L177.778,297L155.556,270L133.333,300L111.111,300L88.889,300L66.667,297L44.444,300L22.222,300L0,300Z" fill="#72b7b2"/></g></g><path class="foreground" aria-hidden="true" d="" display="none"/></g><g transform="translate(0,0)"><path class="background" aria-hidden="true" d="M0,0h800v300h-800Z"/><g><g class="mark-area role-mark marks" role="graphics-object" aria-roledescription="area mark container"><path aria-label="Date: Mar 16, 2026; Unique Clones/day: 0; Repository: karlmdavis/hapi-fhir-jpaserver-starter" role="graphics-symbol" aria-roledescription="area mark" d="M0,300L22.222,300L44.444,300L66.667,297L88.889,300L111.111,300L133.333,300L155.556,270L177.778,297L200,288L222.222,264L244.444,132L266.667,168L288.889,21L311.111,216L333.333,249L355.556,267L377.778,276L400,222L422.222,63L444.444,66L466.667,261L488.889,213L511.111,240L533.333,213L555.556,270L577.778,246L600,213L622.222,117L644.444,279L666.667,273L688.889,288L711.111,291L733.333,294L755.556,243L777.778,159L800,219L800,219L777.778,159L755.556,243L733.333,294L711.111,291L688.889,288L666.667,273L644.444,279L622.222,120L600,213L577.778,246L555.556,270L533.333,213L511.111,240L488.889,213L466.667,261L444.444,66L422.222,63L400,225L377.778,279L355.556,267L333.333,249L311.111,216L288.889,21L266.667,168L244.444,132L222.222,267L200,288L177.778,297L155.556,270L133.333,300L111.111,300L88.889,300L66.667,297L44.444,300L22.222,300L0,300Z" fill="#54a24b"/></g></g><path class="foreground" aria-hidden="true" d="" display="none"/></g><g transform="translate(0,0)"><path class="background" aria-hidden="true" d="M0,0h800v300h-800Z"/><g><g class="mark-area role-mark marks" role="graphics-object" aria-roledescription="area mark container"><path aria-label="Date: Mar 16, 2026; Unique Clones/day: 0; Repository: karlmdavis/hello-rust-actix" role="graphics-symbol" aria-roledescription="area mark" d="M0,300L22.222,300L44.444,300L66.667,297L88.889,300L111.111,300L133.333,300L155.556,270L177.778,297L200,288L222.222,267L244.444,132L266.667,168L288.889,21L311.111,216L333.333,249L355.556,267L377.778,279L400,225L422.222,63L444.444,66L466.667,261L488.889,213L511.111,240L533.333,213L555.556,270L577.778,246L600,213L622.222,120L644.444,279L666.667,273L688.889,288L711.111,291L733.333,294L755.556,243L777.778,159L800,219L800,219L777.778,162L755.556,243L733.333,294L711.111,291L688.889,288L666.667,273L644.444,279L622.222,126L600,216L577.778,246L555.556,270L533.333,216L511.111,240L488.889,213L466.667,261L444.444,66L422.222,66L400,225L377.778,279L355.556,267L333.333,252L311.111,216L288.889,21L266.667,168L244.444,135L222.222,267L200,288L177.778,297L155.556,270L133.333,300L111.111,300L88.889,300L66.667,297L44.444,300L22.222,300L0,300Z" fill="#eeca3b"/></g></g><path class="foreground" aria-hidden="true" d="" display="none"/></g><g transform="translate(0,0)"><path class="background" aria-hidden="true" d="M0,0h800v300h-800Z"/><g><g class="mark-area role-mark marks" role="graphics-object" aria-roledescription="area mark container"><path aria-label="Date: Mar 16, 2026; Unique Clones/day: 0; Repository: karlmdavis/jessentials" role="graphics-symbol" aria-roledescription="area mark" d="M0,300L22.222,300L44.444,300L66.667,297L88.889,300L111.111,300L133.333,300L155.556,270L177.778,297L200,288L222.222,267L244.444,135L266.667,168L288.889,21L311.111,216L333.333,252L355.556,267L377.778,279L400,225L422.222,66L444.444,66L466.667,261L488.889,213L511.111,240L533.333,216L555.556,270L577.778,246L600,216L622.222,126L644.444,279L666.667,273L688.889,288L711.111,291L733.333,294L755.556,243L777.778,162L800,219L800,219L777.778,165L755.556,246L733.333,294L711.111,291L688.889,288L666.667,273L644.444,279L622.222,132L600,216L577.778,249L555.556,270L533.333,222L511.111,264L488.889,213L466.667,261L444.444,66L422.222,69L400,225L377.778,279L355.556,267L333.333,252L311.111,219L288.889,21L266.667,168L244.444,138L222.222,267L200,288L177.778,297L155.556,273L133.333,300L111.111,300L88.889,300L66.667,297L44.444,300L22.222,300L0,300Z" fill="#b279a2"/></g></g><path class="foreground" aria-hidden="true" d="" display="none"/></g><g transform="translate(0,0)"><path class="background" aria-hidden="true" d="M0,0h800v300h-800Z"/><g><g class="mark-area role-mark marks" role="graphics-object" aria-roledescription="area mark container"><path aria-label="Date: Mar 16, 2026; Unique Clones/day: 0; Repository: karlmdavis/justdavis-ansible" role="graphics-symbol" aria-roledescription="area mark" d="M0,300L22.222,300L44.444,300L66.667,297L88.889,300L111.111,300L133.333,300L155.556,273L177.778,297L200,288L222.222,267L244.444,138L266.667,168L288.889,21L311.111,219L333.333,252L355.556,267L377.778,279L400,225L422.222,69L444.444,66L466.667,261L488.889,213L511.111,264L533.333,222L555.556,270L577.778,249L600,216L622.222,132L644.444,279L666.667,273L688.889,288L711.111,291L733.333,294L755.556,246L777.778,165L800,219L800,237L777.778,168L755.556,258L733.333,294L711.111,291L688.889,288L666.667,273L644.444,279L622.222,141L600,228L577.778,249L555.556,273L533.333,225L511.111,264L488.889,213L466.667,261L444.444,66L422.222,72L400,225L377.778,279L355.556,270L333.333,252L311.111,219L288.889,21L266.667,171L244.444,141L222.222,267L200,291L177.778,297L155.556,273L133.333,300L111.111,300L88.889,300L66.667,297L44.444,300L22.222,300L0,300Z" fill="#ff9da6"/></g></g><path class="foreground" aria-hidden="true" d="" display="none"/></g><g transform="translate(0,0)"><path class="background" aria-hidden="true" d="M0,0h800v300h-800Z"/><g><g class="mark-area role-mark marks" role="graphics-object" aria-roledescription="area mark container"><path aria-label="Date: Mar 16, 2026; Unique Clones/day: 0; Repository: karlmdavis/justdavis-finances" role="graphics-symbol" aria-roledescription="area mark" d="M0,300L22.222,300L44.444,300L66.667,297L88.889,300L111.111,300L133.333,300L155.556,273L177.778,297L200,291L222.222,267L244.444,141L266.667,171L288.889,21L311.111,219L333.333,252L355.556,270L377.778,279L400,225L422.222,72L444.444,66L466.667,261L488.889,213L511.111,264L533.333,225L555.556,273L577.778,249L600,228L622.222,141L644.444,279L666.667,273L688.889,288L711.111,291L733.333,294L755.556,258L777.778,168L800,237L800,285L777.778,243L755.556,288L733.333,294L711.111,291L688.889,288L666.667,276L644.444,285L622.222,186L600,279L577.778,255L555.556,273L533.333,228L511.111,267L488.889,264L466.667,285L444.444,291L422.222,243L400,285L377.778,282L355.556,273L333.333,255L311.111,264L288.889,276L266.667,282L244.444,234L222.222,270L200,294L177.778,297L155.556,273L133.333,300L111.111,300L88.889,300L66.667,297L44.444,300L22.222,300L0,300Z" fill="#9d755d"/></g></g><path class="foreground" aria-hidden="true" d="" display="none"/></g><g transform="translate(0,0)"><path class="background" aria-hidden="true" d="M0,0h800v300h-800Z"/><g><g class="mark-area role-mark marks" role="graphics-object" aria-roledescription="area mark container"><path aria-label="Date: Mar 16, 2026; Unique Clones/day: 0; Repository: karlmdavis/justdavis-karl" role="graphics-symbol" aria-roledescription="area mark" d="M0,300L22.222,300L44.444,300L66.667,297L88.889,300L111.111,300L133.333,300L155.556,273L177.778,297L200,294L222.222,270L244.444,234L266.667,282L288.889,276L311.111,264L333.333,255L355.556,273L377.778,282L400,285L422.222,243L444.444,291L466.667,285L488.889,264L511.111,267L533.333,228L555.556,273L577.778,255L600,279L622.222,186L644.444,285L666.667,276L688.889,288L711.111,291L733.333,294L755.556,288L777.778,243L800,285L800,285L777.778,246L755.556,288L733.333,294L711.111,291L688.889,288L666.667,276L644.444,285L622.222,195L600,282L577.778,258L555.556,273L533.333,234L511.111,267L488.889,264L466.667,288L444.444,291L422.222,246L400,285L377.778,285L355.556,273L333.333,258L311.111,267L288.889,276L266.667,285L244.444,237L222.222,270L200,294L177.778,297L155.556,276L133.333,300L111.111,300L88.889,300L66.667,297L44.444,300L22.222,300L0,300Z" fill="#bab0ac"/></g></g><path class="foreground" aria-hidden="true" d="" display="none"/></g><g transform="translate(0,0)"><path class="background" aria-hidden="true" d="M0,0h800v300h-800Z"/><g><g class="mark-area role-mark marks" role="graphics-object" aria-roledescription="area mark container"><path aria-label="Date: Mar 16, 2026; Unique Clones/day: 0; Repository: karlmdavis/justdavis-puppet" role="graphics-symbol" aria-roledescription="area mark" d="M0,300L22.222,300L44.444,300L66.667,297L88.889,300L111.111,300L133.333,300L155.556,276L177.778,297L200,294L222.222,270L244.444,237L266.667,285L288.889,276L311.111,267L333.333,258L355.556,273L377.778,285L400,285L422.222,246L444.444,291L466.667,288L488.889,264L511.111,267L533.333,234L555.556,273L577.778,258L600,282L622.222,195L644.444,285L666.667,276L688.889,288L711.111,291L733.333,294L755.556,288L777.778,246L800,285L800,285L777.778,249L755.556,288L733.333,294L711.111,291L688.889,288L666.667,276L644.444,285L622.222,201L600,285L577.778,261L555.556,273L533.333,237L511.111,270L488.889,264L466.667,288L444.444,291L422.222,249L400,285L377.778,285L355.556,273L333.333,264L311.111,270L288.889,276L266.667,285L244.444,240L222.222,270L200,294L177.778,297L155.556,276L133.333,300L111.111,300L88.889,300L66.667,297L44.444,300L22.222,300L0,300Z" fill="#4c78a8"/></g></g><path class="foreground" aria-hidden="true" d="" display="none"/></g><g transform="translate(0,0)"><path class="background" aria-hidden="true" d="M0,0h800v300h-800Z"/><g><g class="mark-area role-mark marks" role="graphics-object" aria-roledescription="area mark container"><path aria-label="Date: Mar 16, 2026; Unique Clones/day: 0; Repository: karlmdavis/kobjects" role="graphics-symbol" aria-roledescription="area mark" d="M0,300L22.222,300L44.444,300L66.667,297L88.889,300L111.111,300L133.333,300L155.556,276L177.778,297L200,294L222.222,270L244.444,240L266.667,285L288.889,276L311.111,270L333.333,264L355.556,273L377.778,285L400,285L422.222,249L444.444,291L466.667,288L488.889,264L511.111,270L533.333,237L555.556,273L577.778,261L600,285L622.222,201L644.444,285L666.667,276L688.889,288L711.111,291L733.333,294L755.556,288L777.778,249L800,285L800,285L777.778,252L755.556,288L733.333,294L711.111,291L688.889,288L666.667,276L644.444,285L622.222,207L600,285L577.778,264L555.556,273L533.333,243L511.111,270L488.889,264L466.667,288L444.444,291L422.222,252L400,285L377.778,285L355.556,273L333.333,264L311.111,270L288.889,276L266.667,285L244.444,243L222.222,273L200,294L177.778,297L155.556,276L133.333,300L111.111,300L88.889,300L66.667,297L44.444,300L22.222,300L0,300Z" fill="#f58518"/></g></g><path class="foreground" aria-hidden="true" d="" display="none"/></g><g transform="translate(0,0)"><path class="background" aria-hidden="true" d="M0,0h800v300h-800Z"/><g><g class="mark-area role-mark marks" role="graphics-object" aria-roledescription="area mark container"><path aria-label="Date: Mar 16, 2026; Unique Clones/day: 0; Repository: karlmdavis/ksoap2-android" role="graphics-symbol" aria-roledescription="area mark" d="M0,300L22.222,300L44.444,300L66.667,297L88.889,300L111.111,300L133.333,300L155.556,276L177.778,297L200,294L222.222,273L244.444,243L266.667,285L288.889,276L311.111,270L333.333,264L355.556,273L377.778,285L400,285L422.222,252L444.444,291L466.667,288L488.889,264L511.111,270L533.333,243L555.556,273L577.778,264L600,285L622.222,207L644.444,285L666.667,276L688.889,288L711.111,291L733.333,294L755.556,288L777.778,252L800,285L800,288L777.778,258L755.556,288L733.333,294L711.111,291L688.889,288L666.667,282L644.444,285L622.222,213L600,285L577.778,267L555.556,282L533.333,246L511.111,288L488.889,279L466.667,291L444.444,291L422.222,261L400,285L377.778,288L355.556,276L333.333,267L311.111,282L288.889,282L266.667,285L244.444,246L222.222,282L200,294L177.778,297L155.556,279L133.333,300L111.111,300L88.889,300L66.667,297L44.444,300L22.222,300L0,300Z" fill="#e45756"/></g></g><path class="foreground" aria-hidden="true" d="" display="none"/></g><g transform="translate(0,0)"><path class="background" aria-hidden="true" d="M0,0h800v300h-800Z"/><g><g class="mark-area role-mark marks" role="graphics-object" aria-roledescription="area mark container"><path aria-label="Date: Mar 16, 2026; Unique Clones/day: 0; Repository: karlmdavis/kxml2" role="graphics-symbol" aria-roledescription="area mark" d="M0,300L22.222,300L44.444,300L66.667,297L88.889,300L111.111,300L133.333,300L155.556,279L177.778,297L200,294L222.222,282L244.444,246L266.667,285L288.889,282L311.111,282L333.333,267L355.556,276L377.778,288L400,285L422.222,261L444.444,291L466.667,291L488.889,279L511.111,288L533.333,246L555.556,282L577.778,267L600,285L622.222,213L644.444,285L666.667,282L688.889,288L711.111,291L733.333,294L755.556,288L777.778,258L800,288L800,291L777.778,264L755.556,291L733.333,294L711.111,291L688.889,291L666.667,285L644.444,288L622.222,222L600,285L577.778,267L555.556,282L533.333,249L511.111,288L488.889,282L466.667,294L444.444,294L422.222,264L400,285L377.778,288L355.556,276L333.333,270L311.111,291L288.889,285L266.667,285L244.444,252L222.222,285L200,294L177.778,297L155.556,282L133.333,300L111.111,300L88.889,300L66.667,297L44.444,300L22.222,300L0,300Z" fill="#72b7b2"/></g></g><path class="foreground" aria-hidden="true" d="" display="none"/></g><g transform="translate(0,0)"><path class="background" aria-hidden="true" d="M0,0h800v300h-800Z"/><g><g class="mark-area role-mark marks" role="graphics-object" aria-roledescription="area mark container"><path aria-label="Date: Mar 16, 2026; Unique Clones/day: 0; Repository: karlmdavis/ldap-plugin" role="graphics-symbol" aria-roledescription="area mark" d="M0,300L22.222,300L44.444,300L66.667,297L88.889,300L111.111,300L133.333,300L155.556,282L177.778,297L200,294L222.222,285L244.444,252L266.667,285L288.889,285L311.111,291L333.333,270L355.556,276L377.778,288L400,285L422.222,264L444.444,294L466.667,294L488.889,282L511.111,288L533.333,249L555.556,282L577.778,267L600,285L622.222,222L644.444,288L666.667,285L688.889,291L711.111,291L733.333,294L755.556,291L777.778,264L800,291L800,291L777.778,264L755.556,291L733.333,294L711.111,291L688.889,291L666.667,285L644.444,288L622.222,222L600,285L577.778,267L555.556,282L533.333,249L511.111,288L488.889,282L466.667,294L444.444,294L422.222,264L400,288L377.778,291L355.556,276L333.333,270L311.111,291L288.889,285L266.667,285L244.444,252L222.222,285L200,294L177.778,297L155.556,282L133.333,300L111.111,300L88.889,300L66.667,297L44.444,300L22.222,300L0,300Z" fill="#54a24b"/></g></g><path class="foreground" aria-hidden="true" d="" display="none"/></g><g transform="translate(0,0)"><path class="background" aria-hidden="true" d="M0,0h800v300h-800Z"/><g><g class="mark-area role-mark marks" role="graphics-object" aria-roledescription="area mark container"><path aria-label="Date: Mar 16, 2026; Unique Clones/day: 0; Repository: karlmdavis/lego-ev3dev-rs" role="graphics-symbol" aria-roledescription="area mark" d="M0,300L22.222,300L44.444,300L66.667,297L88.889,300L111.111,300L133.333,300L155.556,282L177.778,297L200,294L222.222,285L244.444,252L266.667,285L288.889,285L311.111,291L333.333,270L355.556,276L377.778,291L400,288L422.222,264L444.444,294L466.667,294L488.889,282L511.111,288L533.333,249L555.556,282L577.778,267L600,285L622.222,222L644.444,288L666.667,285L688.889,291L711.111,291L733.333,294L755.556,291L777.778,264L800,291L800,294L777.778,267L755.556,291L733.333,297L711.111,294L688.889,291L666.667,288L644.444,288L622.222,231L600,285L577.778,273L555.556,282L533.333,255L511.111,288L488.889,285L466.667,294L444.444,297L422.222,267L400,291L377.778,291L355.556,279L333.333,276L311.111,291L288.889,288L266.667,288L244.444,261L222.222,285L200,297L177.778,297L155.556,285L133.333,300L111.111,300L88.889,300L66.667,297L44.444,300L22.222,300L0,300Z" fill="#eeca3b"/></g></g><path class="foreground" aria-hidden="true" d="" display="none"/></g><g transform="translate(0,0)"><path class="background" aria-hidden="true" d="M0,0h800v300h-800Z"/><g><g class="mark-area role-mark marks" role="graphics-object" aria-roledescription="area mark container"><path aria-label="Date: Mar 16, 2026; Unique Clones/day: 0; Repository: karlmdavis/liquibase" role="graphics-symbol" aria-roledescription="area mark" d="M0,300L22.222,300L44.444,300L66.667,297L88.889,300L111.111,300L133.333,300L155.556,285L177.778,297L200,297L222.222,285L244.444,261L266.667,288L288.889,288L311.111,291L333.333,276L355.556,279L377.778,291L400,291L422.222,267L444.444,297L466.667,294L488.889,285L511.111,288L533.333,255L555.556,282L577.778,273L600,285L622.222,231L644.444,288L666.667,288L688.889,291L711.111,294L733.333,297L755.556,291L777.778,267L800,294L800,294L777.778,267L755.556,291L733.333,297L711.111,294L688.889,291L666.667,288L644.444,288L622.222,231L600,285L577.778,273L555.556,285L533.333,258L511.111,288L488.889,285L466.667,294L444.444,297L422.222,267L400,291L377.778,291L355.556,279L333.333,276L311.111,291L288.889,288L266.667,288L244.444,261L222.222,285L200,297L177.778,297L155.556,285L133.333,300L111.111,300L88.889,300L66.667,300L44.444,300L22.222,300L0,300Z" fill="#b279a2"/></g></g><path class="foreground" aria-hidden="true" d="" display="none"/></g><g transform="translate(0,0)"><path class="background" aria-hidden="true" d="M0,0h800v300h-800Z"/><g><g class="mark-area role-mark marks" role="graphics-object" aria-roledescription="area mark container"><path aria-label="Date: Mar 16, 2026; Unique Clones/day: 0; Repository: karlmdavis/m2e-core" role="graphics-symbol" aria-roledescription="area mark" d="M0,300L22.222,300L44.444,300L66.667,300L88.889,300L111.111,300L133.333,300L155.556,285L177.778,297L200,297L222.222,285L244.444,261L266.667,288L288.889,288L311.111,291L333.333,276L355.556,279L377.778,291L400,291L422.222,267L444.444,297L466.667,294L488.889,285L511.111,288L533.333,258L555.556,285L577.778,273L600,285L622.222,231L644.444,288L666.667,288L688.889,291L711.111,294L733.333,297L755.556,291L777.778,267L800,294L800,294L777.778,270L755.556,291L733.333,297L711.111,294L688.889,291L666.667,288L644.444,288L622.222,237L600,285L577.778,276L555.556,288L533.333,264L511.111,291L488.889,288L466.667,294L444.444,297L422.222,270L400,291L377.778,291L355.556,279L333.333,276L311.111,291L288.889,291L266.667,288L244.444,264L222.222,285L200,297L177.778,297L155.556,285L133.333,300L111.111,300L88.889,300L66.667,300L44.444,300L22.222,300L0,300Z" fill="#ff9da6"/></g></g><path class="foreground" aria-hidden="true" d="" display="none"/></g><g transform="translate(0,0)"><path class="background" aria-hidden="true" d="M0,0h800v300h-800Z"/><g><g class="mark-area role-mark marks" role="graphics-object" aria-roledescription="area mark container"><path aria-label="Date: Mar 16, 2026; Unique Clones/day: 0; Repository: karlmdavis/m2e-core-tests" role="graphics-symbol" aria-roledescription="area mark" d="M0,300L22.222,300L44.444,300L66.667,300L88.889,300L111.111,300L133.333,300L155.556,285L177.778,297L200,297L222.222,285L244.444,264L266.667,288L288.889,291L311.111,291L333.333,276L355.556,279L377.778,291L400,291L422.222,270L444.444,297L466.667,294L488.889,288L511.111,291L533.333,264L555.556,288L577.778,276L600,285L622.222,237L644.444,288L666.667,288L688.889,291L711.111,294L733.333,297L755.556,291L777.778,270L800,294L800,294L777.778,270L755.556,291L733.333,297L711.111,294L688.889,291L666.667,288L644.444,288L622.222,237L600,288L577.778,276L555.556,294L533.333,267L511.111,294L488.889,291L466.667,294L444.444,297L422.222,270L400,291L377.778,291L355.556,285L333.333,276L311.111,291L288.889,291L266.667,291L244.444,264L222.222,288L200,297L177.778,297L155.556,285L133.333,300L111.111,300L88.889,300L66.667,300L44.444,300L22.222,300L0,300Z" fill="#9d755d"/></g></g><path class="foreground" aria-hidden="true" d="" display="none"/></g><g transform="translate(0,0)"><path class="background" aria-hidden="true" d="M0,0h800v300h-800Z"/><g><g class="mark-area role-mark marks" role="graphics-object" aria-roledescription="area mark container"><path aria-label="Date: Mar 16, 2026; Unique Clones/day: 0; Repository: karlmdavis/obsidian-operator" role="graphics-symbol" aria-roledescription="area mark" d="M0,300L22.222,300L44.444,300L66.667,300L88.889,300L111.111,300L133.333,300L155.556,285L177.778,297L200,297L222.222,288L244.444,264L266.667,291L288.889,291L311.111,291L333.333,276L355.556,285L377.778,291L400,291L422.222,270L444.444,297L466.667,294L488.889,291L511.111,294L533.333,267L555.556,294L577.778,276L600,288L622.222,237L644.444,288L666.667,288L688.889,291L711.111,294L733.333,297L755.556,291L777.778,270L800,294L800,294L777.778,273L755.556,297L733.333,297L711.111,294L688.889,291L666.667,294L644.444,291L622.222,243L600,291L577.778,282L555.556,294L533.333,270L511.111,294L488.889,291L466.667,294L444.444,297L422.222,273L400,297L377.778,291L355.556,285L333.333,285L311.111,291L288.889,291L266.667,291L244.444,267L222.222,288L200,297L177.778,297L155.556,288L133.333,300L111.111,300L88.889,300L66.667,300L44.444,300L22.222,300L0,300Z" fill="#bab0ac"/></g></g><path class="foreground" aria-hidden="true" d="" display="none"/></g><g transform="translate(0,0)"><path class="background" aria-hidden="true" d="M0,0h800v300h-800Z"/><g><g class="mark-area role-mark marks" role="graphics-object" aria-roledescription="area mark container"><path aria-label="Date: Mar 16, 2026; Unique Clones/day: 0; Repository: karlmdavis/perfect-note" role="graphics-symbol" aria-roledescription="area mark" d="M0,300L22.222,300L44.444,300L66.667,300L88.889,300L111.111,300L133.333,300L155.556,288L177.778,297L200,297L222.222,288L244.444,267L266.667,291L288.889,291L311.111,291L333.333,285L355.556,285L377.778,291L400,297L422.222,273L444.444,297L466.667,294L488.889,291L511.111,294L533.333,270L555.556,294L577.778,282L600,291L622.222,243L644.444,291L666.667,294L688.889,291L711.111,294L733.333,297L755.556,297L777.778,273L800,294L800,294L777.778,276L755.556,297L733.333,297L711.111,294L688.889,291L666.667,294L644.444,294L622.222,249L600,291L577.778,282L555.556,294L533.333,273L511.111,294L488.889,291L466.667,294L444.444,297L422.222,276L400,297L377.778,291L355.556,285L333.333,285L311.111,291L288.889,291L266.667,294L244.444,270L222.222,291L200,297L177.778,297L155.556,288L133.333,300L111.111,300L88.889,300L66.667,300L44.444,300L22.222,300L0,300Z" fill="#4c78a8"/></g></g><path class="foreground" aria-hidden="true" d="" display="none"/></g><g transform="translate(0,0)"><path class="background" aria-hidden="true" d="M0,0h800v300h-800Z"/><g><g class="mark-area role-mark marks" role="graphics-object" aria-roledescription="area mark container"><path aria-label="Date: Mar 16, 2026; Unique Clones/day: 0; Repository: karlmdavis/puppet-archive" role="graphics-symbol" aria-roledescription="area mark" d="M0,300L22.222,300L44.444,300L66.667,300L88.889,300L111.111,300L133.333,300L155.556,288L177.778,297L200,297L222.222,291L244.444,270L266.667,294L288.889,291L311.111,291L333.333,285L355.556,285L377.778,291L400,297L422.222,276L444.444,297L466.667,294L488.889,291L511.111,294L533.333,273L555.556,294L577.778,282L600,291L622.222,249L644.444,294L666.667,294L688.889,291L711.111,294L733.333,297L755.556,297L777.778,276L800,294L800,294L777.778,276L755.556,297L733.333,297L711.111,294L688.889,291L666.667,294L644.444,294L622.222,249L600,291L577.778,285L555.556,294L533.333,276L511.111,294L488.889,291L466.667,294L444.444,297L422.222,276L400,297L377.778,291L355.556,285L333.333,285L311.111,291L288.889,291L266.667,294L244.444,270L222.222,291L200,297L177.778,297L155.556,291L133.333,300L111.111,300L88.889,300L66.667,300L44.444,300L22.222,300L0,300Z" fill="#f58518"/></g></g><path class="foreground" aria-hidden="true" d="" display="none"/></g><g transform="translate(0,0)"><path class="background" aria-hidden="true" d="M0,0h800v300h-800Z"/><g><g class="mark-area role-mark marks" role="graphics-object" aria-roledescription="area mark container"><path aria-label="Date: Mar 16, 2026; Unique Clones/day: 0; Repository: karlmdavis/puppet-sonar" role="graphics-symbol" aria-roledescription="area mark" d="M0,300L22.222,300L44.444,300L66.667,300L88.889,300L111.111,300L133.333,300L155.556,291L177.778,297L200,297L222.222,291L244.444,270L266.667,294L288.889,291L311.111,291L333.333,285L355.556,285L377.778,291L400,297L422.222,276L444.444,297L466.667,294L488.889,291L511.111,294L533.333,276L555.556,294L577.778,285L600,291L622.222,249L644.444,294L666.667,294L688.889,291L711.111,294L733.333,297L755.556,297L777.778,276L800,294L800,297L777.778,276L755.556,297L733.333,297L711.111,294L688.889,291L666.667,294L644.444,297L622.222,249L600,291L577.778,288L555.556,294L533.333,276L511.111,297L488.889,294L466.667,294L444.444,297L422.222,276L400,297L377.778,294L355.556,285L333.333,291L311.111,291L288.889,291L266.667,297L244.444,270L222.222,291L200,297L177.778,297L155.556,291L133.333,300L111.111,300L88.889,300L66.667,300L44.444,300L22.222,300L0,300Z" fill="#e45756"/></g></g><path class="foreground" aria-hidden="true" d="" display="none"/></g><g transform="translate(0,0)"><path class="background" aria-hidden="true" d="M0,0h800v300h-800Z"/><g><g class="mark-area role-mark marks" role="graphics-object" aria-roledescription="area mark container"><path aria-label="Date: Mar 16, 2026; Unique Clones/day: 0; Repository: karlmdavis/rps-tourney" role="graphics-symbol" aria-roledescription="area mark" d="M0,300L22.222,300L44.444,300L66.667,300L88.889,300L111.111,300L133.333,300L155.556,291L177.778,297L200,297L222.222,291L244.444,270L266.667,297L288.889,291L311.111,291L333.333,291L355.556,285L377.778,294L400,297L422.222,276L444.444,297L466.667,294L488.889,294L511.111,297L533.333,276L555.556,294L577.778,288L600,291L622.222,249L644.444,297L666.667,294L688.889,291L711.111,294L733.333,297L755.556,297L777.778,276L800,297L800,297L777.778,279L755.556,297L733.333,297L711.111,294L688.889,291L666.667,294L644.444,297L622.222,255L600,291L577.778,291L555.556,294L533.333,279L511.111,297L488.889,294L466.667,294L444.444,297L422.222,279L400,297L377.778,297L355.556,285L333.333,291L311.111,291L288.889,291L266.667,297L244.444,273L222.222,291L200,297L177.778,297L155.556,294L133.333,300L111.111,300L88.889,300L66.667,300L44.444,300L22.222,300L0,300Z" fill="#72b7b2"/></g></g><path class="foreground" aria-hidden="true" d="" display="none"/></g><g transform="translate(0,0)"><path class="background" aria-hidden="true" d="M0,0h800v300h-800Z"/><g><g class="mark-area role-mark marks" role="graphics-object" aria-roledescription="area mark container"><path aria-label="Date: Mar 16, 2026; Unique Clones/day: 0; Repository: karlmdavis/sample-maven-and-rcp" role="graphics-symbol" aria-roledescription="area mark" d="M0,300L22.222,300L44.444,300L66.667,300L88.889,300L111.111,300L133.333,300L155.556,294L177.778,297L200,297L222.222,291L244.444,273L266.667,297L288.889,291L311.111,291L333.333,291L355.556,285L377.778,297L400,297L422.222,279L444.444,297L466.667,294L488.889,294L511.111,297L533.333,279L555.556,294L577.778,291L600,291L622.222,255L644.444,297L666.667,294L688.889,291L711.111,294L733.333,297L755.556,297L777.778,279L800,297L800,297L777.778,282L755.556,297L733.333,297L711.111,294L688.889,291L666.667,294L644.444,297L622.222,261L600,291L577.778,291L555.556,294L533.333,282L511.111,297L488.889,294L466.667,294L444.444,297L422.222,282L400,297L377.778,297L355.556,288L333.333,291L311.111,291L288.889,291L266.667,297L244.444,276L222.222,291L200,297L177.778,297L155.556,294L133.333,300L111.111,300L88.889,300L66.667,300L44.444,300L22.222,300L0,300Z" fill="#54a24b"/></g></g><path class="foreground" aria-hidden="true" d="" display="none"/></g><g transform="translate(0,0)"><path class="background" aria-hidden="true" d="M0,0h800v300h-800Z"/><g><g class="mark-area role-mark marks" role="graphics-object" aria-roledescription="area mark container"><path aria-label="Date: Mar 16, 2026; Unique Clones/day: 0; Repository: karlmdavis/stockfighter-trades-solutions" role="graphics-symbol" aria-roledescription="area mark" d="M0,300L22.222,300L44.444,300L66.667,300L88.889,300L111.111,300L133.333,300L155.556,294L177.778,297L200,297L222.222,291L244.444,276L266.667,297L288.889,291L311.111,291L333.333,291L355.556,288L377.778,297L400,297L422.222,282L444.444,297L466.667,294L488.889,294L511.111,297L533.333,282L555.556,294L577.778,291L600,291L622.222,261L644.444,297L666.667,294L688.889,291L711.111,294L733.333,297L755.556,297L777.778,282L800,297L800,297L777.778,285L755.556,297L733.333,297L711.111,294L688.889,291L666.667,294L644.444,297L622.222,270L600,291L577.778,291L555.556,294L533.333,285L511.111,297L488.889,294L466.667,294L444.444,297L422.222,285L400,297L377.778,297L355.556,288L333.333,291L311.111,291L288.889,294L266.667,297L244.444,282L222.222,291L200,297L177.778,297L155.556,294L133.333,300L111.111,300L88.889,300L66.667,300L44.444,300L22.222,300L0,300Z" fill="#eeca3b"/></g></g><path class="foreground" aria-hidden="true" d="" display="none"/></g><g transform="translate(0,0)"><path class="background" aria-hidden="true" d="M0,0h800v300h-800Z"/><g><g class="mark-area role-mark marks" role="graphics-object" aria-roledescription="area mark container"><path aria-label="Date: Mar 16, 2026; Unique Clones/day: 0; Repository: karlmdavis/test-repo-for-move" role="graphics-symbol" aria-roledescription="area mark" d="M0,300L22.222,300L44.444,300L66.667,300L88.889,300L111.111,300L133.333,300L155.556,294L177.778,297L200,297L222.222,291L244.444,282L266.667,297L288.889,294L311.111,291L333.333,291L355.556,288L377.778,297L400,297L422.222,285L444.444,297L466.667,294L488.889,294L511.111,297L533.333,285L555.556,294L577.778,291L600,291L622.222,270L644.444,297L666.667,294L688.889,291L711.111,294L733.333,297L755.556,297L777.778,285L800,297L800,297L777.778,288L755.556,297L733.333,297L711.111,294L688.889,294L666.667,294L644.444,297L622.222,276L600,291L577.778,291L555.556,294L533.333,288L511.111,297L488.889,294L466.667,294L444.444,297L422.222,288L400,297L377.778,297L355.556,288L333.333,291L311.111,291L288.889,297L266.667,297L244.444,285L222.222,294L200,297L177.778,297L155.556,294L133.333,300L111.111,300L88.889,300L66.667,300L44.444,300L22.222,300L0,300Z" fill="#b279a2"/></g></g><path class="foreground" aria-hidden="true" d="" display="none"/></g><g transform="translate(0,0)"><path class="background" aria-hidden="true" d="M0,0h800v300h-800Z"/><g><g class="mark-area role-mark marks" role="graphics-object" aria-roledescription="area mark container"><path aria-label="Date: Mar 16, 2026; Unique Clones/day: 0; Repository: karlmdavis/todoist-ai" role="graphics-symbol" aria-roledescription="area mark" d="M0,300L22.222,300L44.444,300L66.667,300L88.889,300L111.111,300L133.333,300L155.556,294L177.778,297L200,297L222.222,294L244.444,285L266.667,297L288.889,297L311.111,291L333.333,291L355.556,288L377.778,297L400,297L422.222,288L444.444,297L466.667,294L488.889,294L511.111,297L533.333,288L555.556,294L577.778,291L600,291L622.222,276L644.444,297L666.667,294L688.889,294L711.111,294L733.333,297L755.556,297L777.778,288L800,297L800,297L777.778,288L755.556,297L733.333,297L711.111,294L688.889,294L666.667,297L644.444,297L622.222,276L600,291L577.778,294L555.556,294L533.333,288L511.111,297L488.889,294L466.667,294L444.444,297L422.222,288L400,297L377.778,297L355.556,294L333.333,291L311.111,291L288.889,297L266.667,297L244.444,285L222.222,294L200,297L177.778,297L155.556,294L133.333,300L111.111,300L88.889,300L66.667,300L44.444,300L22.222,300L0,300Z" fill="#ff9da6"/></g></g><path class="foreground" aria-hidden="true" d="" display="none"/></g><g transform="translate(0,0)"><path class="background" aria-hidden="true" d="M0,0h800v300h-800Z"/><g><g class="mark-area role-mark marks" role="graphics-object" aria-roledescription="area mark container"><path aria-label="Date: Mar 16, 2026; Unique Clones/day: 0; Repository: karlmdavis/usgs-water-api-java" role="graphics-symbol" aria-roledescription="area mark" d="M0,300L22.222,300L44.444,300L66.667,300L88.889,300L111.111,300L133.333,300L155.556,294L177.778,297L200,297L222.222,294L244.444,285L266.667,297L288.889,297L311.111,291L333.333,291L355.556,294L377.778,297L400,297L422.222,288L444.444,297L466.667,294L488.889,294L511.111,297L533.333,288L555.556,294L577.778,294L600,291L622.222,276L644.444,297L666.667,297L688.889,294L711.111,294L733.333,297L755.556,297L777.778,288L800,297L800,300L777.778,294L755.556,300L733.333,300L711.111,297L688.889,300L666.667,300L644.444,300L622.222,285L600,300L577.778,297L555.556,297L533.333,294L511.111,300L488.889,297L466.667,300L444.444,300L422.222,294L400,300L377.778,300L355.556,297L333.333,294L311.111,297L288.889,300L266.667,300L244.444,291L222.222,300L200,300L177.778,300L155.556,300L133.333,300L111.111,300L88.889,300L66.667,300L44.444,300L22.222,300L0,300Z" fill="#9d755d"/></g></g><path class="foreground" aria-hidden="true" d="" display="none"/></g><g transform="translate(0,0)"><path class="background" aria-hidden="true" d="M0,0h800v300h-800Z"/><g><g class="mark-area role-mark marks" role="graphics-object" aria-roledescription="area mark container"><path aria-label="Date: Mar 16, 2026; Unique Clones/day: 0; Repository: karlmdavis/workstation-base-ansible-role" role="graphics-symbol" aria-roledescription="area mark" d="M0,300L22.222,300L44.444,300L66.667,300L88.889,300L111.111,300L133.333,300L155.556,300L177.778,300L200,300L222.222,300L244.444,291L266.667,300L288.889,300L311.111,297L333.333,294L355.556,297L377.778,300L400,300L422.222,294L444.444,300L466.667,300L488.889,297L511.111,300L533.333,294L555.556,297L577.778,297L600,300L622.222,285L644.444,300L666.667,300L688.889,300L711.111,297L733.333,300L755.556,300L777.778,294L800,300L800,300L777.778,297L755.556,300L733.333,300L711.111,297L688.889,300L666.667,300L644.444,300L622.222,294L600,300L577.778,300L555.556,297L533.333,297L511.111,300L488.889,297L466.667,300L444.444,300L422.222,297L400,300L377.778,300L355.556,300L333.333,297L311.111,300L288.889,300L266.667,300L244.444,297L222.222,300L200,300L177.778,300L155.556,300L133.333,300L111.111,300L88.889,300L66.667,300L44.444,300L22.222,300L0,300Z" fill="#bab0ac"/></g></g><path class="foreground" aria-hidden="true" d="" display="none"/></g><g transform="translate(0,0)"><path class="background" aria-hidden="true" d="M0,0h800v300h-800Z"/><g><g class="mark-area role-mark marks" role="graphics-object" aria-roledescription="area mark container"><path aria-label="Date: Mar 16, 2026; Unique Clones/day: 0; Repository: karlmdavis/xmlpull" role="graphics-symbol" aria-roledescription="area mark" d="M0,300L22.222,300L44.444,300L66.667,300L88.889,300L111.111,300L133.333,300L155.556,300L177.778,300L200,300L222.222,300L244.444,297L266.667,300L288.889,300L311.111,300L333.333,297L355.556,300L377.778,300L400,300L422.222,297L444.444,300L466.667,300L488.889,297L511.111,300L533.333,297L555.556,297L577.778,300L600,300L622.222,294L644.444,300L666.667,300L688.889,300L711.111,297L733.333,300L755.556,300L777.778,297L800,300L800,300L777.778,300L755.556,300L733.333,300L711.111,300L688.889,300L666.667,300L644.444,300L622.222,300L600,300L577.778,300L555.556,300L533.333,300L511.111,300L488.889,300L466.667,300L444.444,300L422.222,300L400,300L377.778,300L355.556,300L333.333,300L311.111,300L288.889,300L266.667,300L244.444,300L222.222,300L200,300L177.778,300L155.556,300L133.333,300L111.111,300L88.889,300L66.667,300L44.444,300L22.222,300L0,300Z" fill="#4c78a8"/></g></g><path class="foreground" aria-hidden="true" d="" display="none"/></g></g><g class="mark-group role-legend" role="graphics-symbol" aria-roledescription="legend" aria-label="Symbol legend titled 'Repository' for fill color with 41 values: karlmdavis/FHIR-Server, karlmdavis/ansible, karlmdavis/ansible-jenkins, karlmdavis/ansible-role-acmetool, karlmdavis/ansible-role-bind-dns, ending with karlmdavis/xmlpull"><g transform="translate(818,0)"><path class="background" aria-hidden="true" d="M0,0h176v404h-176Z" pointer-events="none"/><g><g class="mark-group role-legend-entry"><g transform="translate(0,16)"><path class="background" aria-hidden="true" d="M0,0h0v0h0Z" pointer-events="none"/><g><g class="mark-group role-scope" role="graphics-object" aria-roledescription="group mark container"><g transform="translate(0,0)"><path class="background" aria-hidden="true" d="M0,0h176v11h-176Z" pointer-events="none" opacity="1"/><g><g class="mark-symbol role-legend-symbol" pointer-events="none"><path transform="translate(6,6)" d="M5,0A5,5,0,1,1,-5,0A5,5,0,1,1,5,0" fill="#4c78a8" stroke-width="1.5" opacity="1"/></g><g class="mark-text role-legend-label" pointer-events="none"><text text-anchor="start" transform="translate(16,9)" font-family="sans-serif" font-size="10px" fill="#000" opacity="1">karlmdavis/FHIR-Server</text></g></g><path class="foreground" aria-hidden="true" d="" pointer-events="none" display="none"/></g><g transform="translate(0,13)"><path class="background" aria-hidden="true" d="M0,0h176v11h-176Z" pointer-events="none" opacity="1"/><g><g class="mark-symbol role-legend-symbol" pointer-events="none"><path transform="translate(6,6)" d="M5,0A5,5,0,1,1,-5,0A5,5,0,1,1,5,0" fill="#f58518" stroke-width="1.5" opacity="1"/></g><g class="mark-text role-legend-label" pointer-events="none"><text text-anchor="start" transform="translate(16,9)" font-family="sans-serif" font-size="10px" fill="#000" opacity="1">karlmdavis/ansible</text></g></g><path class="foreground" aria-hidden="true" d="" pointer-events="none" display="none"/></g><g transform="translate(0,26)"><path class="background" aria-hidden="true" d="M0,0h176v11h-176Z" pointer-events="none" opacity="1"/><g><g class="mark-symbol role-legend-symbol" pointer-events="none"><path transform="translate(6,6)" d="M5,0A5,5,0,1,1,-5,0A5,5,0,1,1,5,0" fill="#e45756" stroke-width="1.5" opacity="1"/></g><g class="mark-text role-legend-label" pointer-events="none"><text text-anchor="start" transform="translate(16,9)" font-family="sans-serif" font-size="10px" fill="#000" opacity="1">karlmdavis/ansible-jenkins</text></g></g><path class="foreground" aria-hidden="true" d="" pointer-events="none" display="none"/></g><g transform="translate(0,39)"><path class="background" aria-hidden="true" d="M0,0h176v11h-176Z" pointer-events="none" opacity="1"/><g><g class="mark-symbol role-legend-symbol" pointer-events="none"><path transform="translate(6,6)" d="M5,0A5,5,0,1,1,-5,0A5,5,0,1,1,5,0" fill="#72b7b2" stroke-width="1.5" opacity="1"/></g><g class="mark-text role-legend-label" pointer-events="none"><text text-anchor="start" transform="translate(16,9)" font-family="sans-serif" font-size="10px" fill="#000" opacity="1">karlmdavis/ansible-role-acmetool</text></g></g><path class="foreground" aria-hidden="true" d="" pointer-events="none" display="none"/></g><g transform="translate(0,52)"><path class="background" aria-hidden="true" d="M0,0h176v11h-176Z" pointer-events="none" opacity="1"/><g><g class="mark-symbol role-legend-symbol" pointer-events="none"><path transform="translate(6,6)" d="M5,0A5,5,0,1,1,-5,0A5,5,0,1,1,5,0" fill="#54a24b" stroke-width="1.5" opacity="1"/></g><g class="mark-text role-legend-label" pointer-events="none"><text text-anchor="start" transform="translate(16,9)" font-family="sans-serif" font-size="10px" fill="#000" opacity="1">karlmdavis/ansible-role-bind-dns</text></g></g><path class="foreground" aria-hidden="true" d="" pointer-events="none" display="none"/></g><g transform="translate(0,65)"><path class="background" aria-hidden="true" d="M0,0h176v11h-176Z" pointer-events="none" opacity="1"/><g><g class="mark-symbol role-legend-symbol" pointer-events="none"><path transform="translate(6,6)" d="M5,0A5,5,0,1,1,-5,0A5,5,0,1,1,5,0" fill="#eeca3b" stroke-width="1.5" opacity="1"/></g><g class="mark-text role-legend-label" pointer-events="none"><text text-anchor="start" transform="translate(16,9)" font-family="sans-serif" font-size="10px" fill="#000" opacity="1">karlmdavis/ansible-role-jenkins2</text></g></g><path class="foreground" aria-hidden="true" d="" pointer-events="none" display="none"/></g><g transform="translate(0,78)"><path class="background" aria-hidden="true" d="M0,0h176v11h-176Z" pointer-events="none" opacity="1"/><g><g class="mark-symbol role-legend-symbol" pointer-events="none"><path transform="translate(6,6)" d="M5,0A5,5,0,1,1,-5,0A5,5,0,1,1,5,0" fill="#b279a2" stroke-width="1.5" opacity="1"/></g><g class="mark-text role-legend-label" pointer-events="none"><text text-anchor="start" transform="translate(16,9)" font-family="sans-serif" font-size="10px" fill="#000" opacity="1">karlmdavis/ansible-role-ldap</text></g></g><path class="foreground" aria-hidden="true" d="" pointer-events="none" display="none"/></g><g transform="translate(0,91)"><path class="background" aria-hidden="true" d="M0,0h176v11h-176Z" pointer-events="none" opacity="1"/><g><g class="mark-symbol role-legend-symbol" pointer-events="none"><path transform="translate(6,6)" d="M5,0A5,5,0,1,1,-5,0A5,5,0,1,1,5,0" fill="#ff9da6" stroke-width="1.5" opacity="1"/></g><g class="mark-text role-legend-label" pointer-events="none"><text text-anchor="start" transform="translate(16,9)" font-family="sans-serif" font-size="10px" fill="#000" opacity="1">karlmdavis/ansible-role-rcm-dotfiles</text></g></g><path class="foreground" aria-hidden="true" d="" pointer-events="none" display="none"/></g><g transform="translate(0,104)"><path class="background" aria-hidden="true" d="M0,0h176v11h-176Z" pointer-events="none" opacity="1"/><g><g class="mark-symbol role-legend-symbol" pointer-events="none"><path transform="translate(6,6)" d="M5,0A5,5,0,1,1,-5,0A5,5,0,1,1,5,0" fill="#9d755d" stroke-width="1.5" opacity="1"/></g><g class="mark-text role-legend-label" pointer-events="none"><text text-anchor="start" transform="translate(16,9)" font-family="sans-serif" font-size="10px" fill="#000" opacity="1">karlmdavis/ansible-roles</text></g></g><path class="foreground" aria-hidden="true" d="" pointer-events="none" display="none"/></g><g transform="translate(0,117)"><path class="background" aria-hidden="true" d="M0,0h176v11h-176Z" pointer-events="none" opacity="1"/><g><g class="mark-symbol role-legend-symbol" pointer-events="none"><path transform="translate(6,6)" d="M5,0A5,5,0,1,1,-5,0A5,5,0,1,1,5,0" fill="#bab0ac" stroke-width="1.5" opacity="1"/></g><g class="mark-text role-legend-label" pointer-events="none"><text text-anchor="start" transform="translate(16,9)" font-family="sans-serif" font-size="10px" fill="#000" opacity="1">karlmdavis/bbonfhir-dev-infra-doc…</text></g></g><path class="foreground" aria-hidden="true" d="" pointer-events="none" display="none"/></g><g transform="translate(0,130)"><path class="background" aria-hidden="true" d="M0,0h176v11h-176Z" pointer-events="none" opacity="1"/><g><g class="mark-symbol role-legend-symbol" pointer-events="none"><path transform="translate(6,6)" d="M5,0A5,5,0,1,1,-5,0A5,5,0,1,1,5,0" fill="#4c78a8" stroke-width="1.5" opacity="1"/></g><g class="mark-text role-legend-label" pointer-events="none"><text text-anchor="start" transform="translate(16,9)" font-family="sans-serif" font-size="10px" fill="#000" opacity="1">karlmdavis/can-i-kayak-baltimore</text></g></g><path class="foreground" aria-hidden="true" d="" pointer-events="none" display="none"/></g><g transform="translate(0,143)"><path class="background" aria-hidden="true" d="M0,0h176v11h-176Z" pointer-events="none" opacity="1"/><g><g class="mark-symbol role-legend-symbol" pointer-events="none"><path transform="translate(6,6)" d="M5,0A5,5,0,1,1,-5,0A5,5,0,1,1,5,0" fill="#f58518" stroke-width="1.5" opacity="1"/></g><g class="mark-text role-legend-label" pointer-events="none"><text text-anchor="start" transform="translate(16,9)" font-family="sans-serif" font-size="10px" fill="#000" opacity="1">karlmdavis/datanucleus-test-jdo-1…</text></g></g><path class="foreground" aria-hidden="true" d="" pointer-events="none" display="none"/></g><g transform="translate(0,156)"><path class="background" aria-hidden="true" d="M0,0h176v11h-176Z" pointer-events="none" opacity="1"/><g><g class="mark-symbol role-legend-symbol" pointer-events="none"><path transform="translate(6,6)" d="M5,0A5,5,0,1,1,-5,0A5,5,0,1,1,5,0" fill="#e45756" stroke-width="1.5" opacity="1"/></g><g class="mark-text role-legend-label" pointer-events="none"><text text-anchor="start" transform="translate(16,9)" font-family="sans-serif" font-size="10px" fill="#000" opacity="1">karlmdavis/dotfiles</text></g></g><path class="foreground" aria-hidden="true" d="" pointer-events="none" display="none"/></g><g transform="translate(0,169)"><path class="background" aria-hidden="true" d="M0,0h176v11h-176Z" pointer-events="none" opacity="1"/><g><g class="mark-symbol role-legend-symbol" pointer-events="none"><path transform="translate(6,6)" d="M5,0A5,5,0,1,1,-5,0A5,5,0,1,1,5,0" fill="#72b7b2" stroke-width="1.5" opacity="1"/></g><g class="mark-text role-legend-label" pointer-events="none"><text text-anchor="start" transform="translate(16,9)" font-family="sans-serif" font-size="10px" fill="#000" opacity="1">karlmdavis/fhir-benchmarks</text></g></g><path class="foreground" aria-hidden="true" d="" pointer-events="none" display="none"/></g><g transform="translate(0,182)"><path class="background" aria-hidden="true" d="M0,0h176v11h-176Z" pointer-events="none" opacity="1"/><g><g class="mark-symbol role-legend-symbol" pointer-events="none"><path transform="translate(6,6)" d="M5,0A5,5,0,1,1,-5,0A5,5,0,1,1,5,0" fill="#54a24b" stroke-width="1.5" opacity="1"/></g><g class="mark-text role-legend-label" pointer-events="none"><text text-anchor="start" transform="translate(16,9)" font-family="sans-serif" font-size="10px" fill="#000" opacity="1">karlmdavis/hapi-fhir-jpaserver-sta…</text></g></g><path class="foreground" aria-hidden="true" d="" pointer-events="none" display="none"/></g><g transform="translate(0,195)"><path class="background" aria-hidden="true" d="M0,0h176v11h-176Z" pointer-events="none" opacity="1"/><g><g class="mark-symbol role-legend-symbol" pointer-events="none"><path transform="translate(6,6)" d="M5,0A5,5,0,1,1,-5,0A5,5,0,1,1,5,0" fill="#eeca3b" stroke-width="1.5" opacity="1"/></g><g class="mark-text role-legend-label" pointer-events="none"><text text-anchor="start" transform="translate(16,9)" font-family="sans-serif" font-size="10px" fill="#000" opacity="1">karlmdavis/hello-rust-actix</text></g></g><path class="foreground" aria-hidden="true" d="" pointer-events="none" display="none"/></g><g transform="translate(0,208)"><path class="background" aria-hidden="true" d="M0,0h176v11h-176Z" pointer-events="none" opacity="1"/><g><g class="mark-symbol role-legend-symbol" pointer-events="none"><path transform="translate(6,6)" d="M5,0A5,5,0,1,1,-5,0A5,5,0,1,1,5,0" fill="#b279a2" stroke-width="1.5" opacity="1"/></g><g class="mark-text role-legend-label" pointer-events="none"><text text-anchor="start" transform="translate(16,9)" font-family="sans-serif" font-size="10px" fill="#000" opacity="1">karlmdavis/jessentials</text></g></g><path class="foreground" aria-hidden="true" d="" pointer-events="none" display="none"/></g><g transform="translate(0,221)"><path class="background" aria-hidden="true" d="M0,0h176v11h-176Z" pointer-events="none" opacity="1"/><g><g class="mark-symbol role-legend-symbol" pointer-events="none"><path transform="translate(6,6)" d="M5,0A5,5,0,1,1,-5,0A5,5,0,1,1,5,0" fill="#ff9da6" stroke-width="1.5" opacity="1"/></g><g class="mark-text role-legend-label" pointer-events="none"><text text-anchor="start" transform="translate(16,9)" font-family="sans-serif" font-size="10px" fill="#000" opacity="1">karlmdavis/justdavis-ansible</text></g></g><path class="foreground" aria-hidden="true" d="" pointer-events="none" display="none"/></g><g transform="translate(0,234)"><path class="background" aria-hidden="true" d="M0,0h176v11h-176Z" pointer-events="none" opacity="1"/><g><g class="mark-symbol role-legend-symbol" pointer-events="none"><path transform="translate(6,6)" d="M5,0A5,5,0,1,1,-5,0A5,5,0,1,1,5,0" fill="#9d755d" stroke-width="1.5" opacity="1"/></g><g class="mark-text role-legend-label" pointer-events="none"><text text-anchor="start" transform="translate(16,9)" font-family="sans-serif" font-size="10px" fill="#000" opacity="1">karlmdavis/justdavis-finances</text></g></g><path class="foreground" aria-hidden="true" d="" pointer-events="none" display="none"/></g><g transform="translate(0,247)"><path class="background" aria-hidden="true" d="M0,0h176v11h-176Z" pointer-events="none" opacity="1"/><g><g class="mark-symbol role-legend-symbol" pointer-events="none"><path transform="translate(6,6)" d="M5,0A5,5,0,1,1,-5,0A5,5,0,1,1,5,0" fill="#bab0ac" stroke-width="1.5" opacity="1"/></g><g class="mark-text role-legend-label" pointer-events="none"><text text-anchor="start" transform="translate(16,9)" font-family="sans-serif" font-size="10px" fill="#000" opacity="1">karlmdavis/justdavis-karl</text></g></g><path class="foreground" aria-hidden="true" d="" pointer-events="none" display="none"/></g><g transform="translate(0,260)"><path class="background" aria-hidden="true" d="M0,0h176v11h-176Z" pointer-events="none" opacity="1"/><g><g class="mark-symbol role-legend-symbol" pointer-events="none"><path transform="translate(6,6)" d="M5,0A5,5,0,1,1,-5,0A5,5,0,1,1,5,0" fill="#4c78a8" stroke-width="1.5" opacity="1"/></g><g class="mark-text role-legend-label" pointer-events="none"><text text-anchor="start" transform="translate(16,9)" font-family="sans-serif" font-size="10px" fill="#000" opacity="1">karlmdavis/justdavis-puppet</text></g></g><path class="foreground" aria-hidden="true" d="" pointer-events="none" display="none"/></g><g transform="translate(0,273)"><path class="background" aria-hidden="true" d="M0,0h176v11h-176Z" pointer-events="none" opacity="1"/><g><g class="mark-symbol role-legend-symbol" pointer-events="none"><path transform="translate(6,6)" d="M5,0A5,5,0,1,1,-5,0A5,5,0,1,1,5,0" fill="#f58518" stroke-width="1.5" opacity="1"/></g><g class="mark-text role-legend-label" pointer-events="none"><text text-anchor="start" transform="translate(16,9)" font-family="sans-serif" font-size="10px" fill="#000" opacity="1">karlmdavis/kobjects</text></g></g><path class="foreground" aria-hidden="true" d="" pointer-events="none" display="none"/></g><g transform="translate(0,286)"><path class="background" aria-hidden="true" d="M0,0h176v11h-176Z" pointer-events="none" opacity="1"/><g><g class="mark-symbol role-legend-symbol" pointer-events="none"><path transform="translate(6,6)" d="M5,0A5,5,0,1,1,-5,0A5,5,0,1,1,5,0" fill="#e45756" stroke-width="1.5" opacity="1"/></g><g class="mark-text role-legend-label" pointer-events="none"><text text-anchor="start" transform="translate(16,9)" font-family="sans-serif" font-size="10px" fill="#000" opacity="1">karlmdavis/ksoap2-android</text></g></g><path class="foreground" aria-hidden="true" d="" pointer-events="none" display="none"/></g><g transform="translate(0,299)"><path class="background" aria-hidden="true" d="M0,0h176v11h-176Z" pointer-events="none" opacity="1"/><g><g class="mark-symbol role-legend-symbol" pointer-events="none"><path transform="translate(6,6)" d="M5,0A5,5,0,1,1,-5,0A5,5,0,1,1,5,0" fill="#72b7b2" stroke-width="1.5" opacity="1"/></g><g class="mark-text role-legend-label" pointer-events="none"><text text-anchor="start" transform="translate(16,9)" font-family="sans-serif" font-size="10px" fill="#000" opacity="1">karlmdavis/kxml2</text></g></g><path class="foreground" aria-hidden="true" d="" pointer-events="none" display="none"/></g><g transform="translate(0,312)"><path class="background" aria-hidden="true" d="M0,0h176v11h-176Z" pointer-events="none" opacity="1"/><g><g class="mark-symbol role-legend-symbol" pointer-events="none"><path transform="translate(6,6)" d="M5,0A5,5,0,1,1,-5,0A5,5,0,1,1,5,0" fill="#54a24b" stroke-width="1.5" opacity="1"/></g><g class="mark-text role-legend-label" pointer-events="none"><text text-anchor="start" transform="translate(16,9)" font-family="sans-serif" font-size="10px" fill="#000" opacity="1">karlmdavis/ldap-plugin</text></g></g><path class="foreground" aria-hidden="true" d="" pointer-events="none" display="none"/></g><g transform="translate(0,325)"><path class="background" aria-hidden="true" d="M0,0h176v11h-176Z" pointer-events="none" opacity="1"/><g><g class="mark-symbol role-legend-symbol" pointer-events="none"><path transform="translate(6,6)" d="M5,0A5,5,0,1,1,-5,0A5,5,0,1,1,5,0" fill="#eeca3b" stroke-width="1.5" opacity="1"/></g><g class="mark-text role-legend-label" pointer-events="none"><text text-anchor="start" transform="translate(16,9)" font-family="sans-serif" font-size="10px" fill="#000" opacity="1">karlmdavis/lego-ev3dev-rs</text></g></g><path class="foreground" aria-hidden="true" d="" pointer-events="none" display="none"/></g><g transform="translate(0,338)"><path class="background" aria-hidden="true" d="M0,0h176v11h-176Z" pointer-events="none" opacity="1"/><g><g class="mark-symbol role-legend-symbol" pointer-events="none"><path transform="translate(6,6)" d="M5,0A5,5,0,1,1,-5,0A5,5,0,1,1,5,0" fill="#b279a2" stroke-width="1.5" opacity="1"/></g><g class="mark-text role-legend-label" pointer-events="none"><text text-anchor="start" transform="translate(16,9)" font-family="sans-serif" font-size="10px" fill="#000" opacity="1">karlmdavis/liquibase</text></g></g><path class="foreground" aria-hidden="true" d="" pointer-events="none" display="none"/></g><g transform="translate(0,351)"><path class="background" aria-hidden="true" d="M0,0h176v11h-176Z" pointer-events="none" opacity="1"/><g><g class="mark-symbol role-legend-symbol" pointer-events="none"><path transform="translate(6,6)" d="M5,0A5,5,0,1,1,-5,0A5,5,0,1,1,5,0" fill="#ff9da6" stroke-width="1.5" opacity="1"/></g><g class="mark-text role-legend-label" pointer-events="none"><text text-anchor="start" transform="translate(16,9)" font-family="sans-serif" font-size="10px" fill="#000" opacity="1">karlmdavis/m2e-core</text></g></g><path class="foreground" aria-hidden="true" d="" pointer-events="none" display="none"/></g><g transform="translate(0,364)"><path class="background" aria-hidden="true" d="M0,0h176v11h-176Z" pointer-events="none" opacity="1"/><g><g class="mark-symbol role-legend-symbol" pointer-events="none"><path transform="translate(6,6)" d="M5,0A5,5,0,1,1,-5,0A5,5,0,1,1,5,0" fill="#9d755d" stroke-width="1.5" opacity="1"/></g><g class="mark-text role-legend-label" pointer-events="none"><text text-anchor="start" transform="translate(16,9)" font-family="sans-serif" font-size="10px" fill="#000" opacity="1">karlmdavis/m2e-core-tests</text></g></g><path class="foreground" aria-hidden="true" d="" pointer-events="none" display="none"/></g><g transform="translate(0,377)"><path class="background" aria-hidden="true" d="M0,0h176v11h-176Z" pointer-events="none" opacity="1"/><g><g class="mark-symbol role-legend-symbol" pointer-events="none"><path transform="translate(6,6)" d="M5,0A5,5,0,1,1,-5,0A5,5,0,1,1,5,0" fill="#bab0ac" stroke-width="1.5" opacity="1"/></g><g class="mark-text role-legend-label" pointer-events="none"><text text-anchor="start" transform="translate(16,9)" font-family="sans-serif" font-size="10px" fill="#000" opacity="1">…12 entries</text></g></g><path class="foreground" aria-hidden="true" d="" pointer-events="none" display="none"/></g></g></g><path class="foreground" aria-hidden="true" d="" pointer-events="none" display="none"/></g></g><g class="mark-text role-legend-title" pointer-events="none"><text text-anchor="start" transform="translate(0,9)" font-family="sans-serif" font-size="11px" font-weight="bold" fill="#000" opacity="1">Repository</text></g></g><path class="foreground" aria-hidden="true" d="" pointer-events="none" display="none"/></g></g><g class="mark-group role-title"><g transform="translate(400,-22)"><path class="background" aria-hidden="true" d="M0,0h0v0h0Z" pointer-events="none"/><g><g class="mark-text role-title-text" role="graphics-symbol" aria-roledescription="title" aria-label="Title text 'Unique Clones per Day'" pointer-events="none"><text text-anchor="middle" transform="translate(0,10)" font-family="sans-serif" font-size="13px" font-weight="bold" fill="#000" opacity="1">Unique Clones per Day</text></g></g><path class="foreground" aria-hidden="true" d="" pointer-events="none" display="none"/></g></g></g><path class="foreground" aria-hidden="true" d="" display="none"/></g></g></g></svg>