<svg xmlns="http://www.w3.org/2000/svg" xmlns:xlink="http://www.w3.org/1999/xlink" version="1.1" class="marks" width="1032" height="436" viewBox="0 0 1032 436"><rect width="1032" height="436" fill="white"/><g fill="none" stroke-miterlimit="10" transform="translate(33,27)"><g class="mark-group role-frame root" role="graphics-object" aria-roledescription="group mark container"><g transform="translate(0,0)"><path class="background" aria-hidden="true" d="M0.5,0.5h800v300h-800Z" stroke="#ddd"/><g><g class="mark-group role-axis" aria-hidden="true"><g transform="translate(0.5,300.5)"><path class="background" aria-hidden="true" d="M0,0h0v0h0Z" pointer-events="none"/><g><g class="mark-rule role-axis-grid" pointer-events="none"><line transform="translate(24,-300)" x2="0" y2="300" stroke="#ddd" stroke-width="1" opacity="1"/><line transform="translate(71,-300)" x2="0" y2="300" stroke="#ddd" stroke-width="1" opacity="1"/><line transform="translate(118,-300)" x2="0" y2="300" stroke="#ddd" stroke-width="1" opacity="1"/><line transform="translate(165,-300)" x2="0" y2="300" stroke="#ddd" stroke-width="1" opacity="1"/><line transform="translate(212,-300)" x2="0" y2="300" stroke="#ddd" stroke-width="1" opacity="1"/><line transform="translate(259,-300)" x2="0" y2="300" stroke="#ddd" stroke-width="1" opacity="1"/><line transform="translate(306,-300)" x2="0" y2="300" stroke="#ddd" stroke-width="1" opacity="1"/><line transform="translate(353,-300)" x2="0" y2="300" stroke="#ddd" stroke-width="1" opacity="1"/><line transform="translate(376,-300)" x2="0" y2="300" stroke="#ddd" stroke-width="1" opacity="1"/><line transform="translate(424,-300)" x2="0" y2="300" stroke="#ddd" stroke-width="1" opacity="1"/><line transform="translate(471,-300)" x2="0" y2="300" stroke="#ddd" stroke-width="1" opacity="1"/><line transform="translate(518,-300)" x2="0" y2="300" stroke="#ddd" stroke-width="1" opacity="1"/><line transform="translate(565,-300)" x2="0" y2="300" stroke="#ddd" stroke-width="1" opacity="1"/><line transform="translate(612,-300)" x2="0" y2="300" stroke="#ddd" stroke-width="1" opacity="1"/><line transform="translate(659,-300)" x2="0" y2="300" stroke="#ddd" stroke-width="1" opacity="1"/><line transform="translate(706,-300)" x2="0" y2="300" stroke="#ddd" stroke-width="1" opacity="1"/><line transform="translate(753,-300)" x2="0" y2="300" stroke="#ddd" stroke-width="1" opacity="1"/><line transform="translate(800,-300)" x2="0" y2="300" stroke="#ddd" stroke-width="1" opacity="1"/></g></g><path class="foreground" aria-hidden="true" d="" pointer-events="none" display="none"/></g></g><g class="mark-group role-axis" aria-hidden="true"><g transform="translate(0.5,0.5)"><path class="background" aria-hidden="true" d="M0,0h0v0h0Z" pointer-events="none"/><g><g class="mark-rule role-axis-grid" pointer-events="none"><line transform="translate(0,300)" x2="800" y2="0" stroke="#ddd" stroke-width="1" opacity="1"/><line transform="translate(0,257)" x2="800" y2="0" stroke="#ddd" stroke-width="1" opacity="1"/><line transform="translate(0,214)" x2="800" y2="0" stroke="#ddd" stroke-width="1" opacity="1"/><line transform="translate(0,171)" x2="800" y2="0" stroke="#ddd" stroke-width="1" opacity="1"/><line transform="translate(0,129)" x2="800" y2="0" stroke="#ddd" stroke-width="1" opacity="1"/><line transform="translate(0,86)" x2="800" y2="0" stroke="#ddd" stroke-width="1" opacity="1"/><line transform="translate(0,43)" x2="800" y2="0" stroke="#ddd" stroke-width="1" opacity="1"/><line transform="translate(0,0)" x2="800" y2="0" stroke="#ddd" stroke-width="1" opacity="1"/></g></g><path class="foreground" aria-hidden="true" d="" pointer-events="none" display="none"/></g></g><g class="mark-group role-axis" role="graphics-symbol" aria-roledescription="axis" aria-label="X-axis titled 'Date' for a time scale with values from Monday, 16 March 2026, 12:00:00 AM to Sunday, 19 April 2026, 12:00:00 AM"><g transform="translate(0.5,300.5)"><path class="background" aria-hidden="true" d="M0,0h0v0h0Z" pointer-events="none"/><g><g class="mark-rule role-axis-tick" pointer-events="none"><line transform="translate(24,0)" x2="0" y2="5" stroke="#888" stroke-width="1" opacity="1"/><line transform="translate(71,0)" x2="0" y2="5" stroke="#888" stroke-width="1" opacity="1"/><line transform="translate(118,0)" x2="0" y2="5" stroke="#888" stroke-width="1" opacity="1"/><line transform="translate(165,0)" x2="0" y2="5" stroke="#888" stroke-width="1" opacity="1"/><line transform="translate(212,0)" x2="0" y2="5" stroke="#888" stroke-width="1" opacity="1"/><line transform="translate(259,0)" x2="0" y2="5" stroke="#888" stroke-width="1" opacity="1"/><line transform="translate(306,0)" x2="0" y2="5" stroke="#888" stroke-width="1" opacity="1"/><line transform="translate(353,0)" x2="0" y2="5" stroke="#888" stroke-width="1" opacity="1"/><line transform="translate(376,0)" x2="0" y2="5" stroke="#888" stroke-width="1" opacity="1"/><line transform="translate(424,0)" x2="0" y2="5" stroke="#888" stroke-width="1" opacity="1"/><line transform="translate(471,0)" x2="0" y2="5" stroke="#888" stroke-width="1" opacity="1"/><line transform="translate(518,0)" x2="0" y2="5" stroke="#888" stroke-width="1" opacity="1"/><line transform="translate(565,0)" x2="0" y2="5" stroke="#888" stroke-width="1" opacity="1"/><line transform="translate(612,0)" x2="0" y2="5" stroke="#888" stroke-width="1" opacity="1"/><line transform="translate(659,0)" x2="0" y2="5" stroke="#888" stroke-width="1" opacity="1"/><line transform="translate(706,0)" x2="0" y2="5" stroke="#888" stroke-width="1" opacity="1"/><line transform="translate(753,0)" x2="0" y2="5" stroke="#888" stroke-width="1" opacity="1"/><line transform="translate(800,0)" x2="0" y2="5" stroke="#888" stroke-width="1" opacity="1"/></g><g class="mark-text role-axis-label" pointer-events="none"><text text-anchor="middle" transform="translate(23.52941176470588,15)" font-family="sans-serif" font-size="10px" fill="#000" opacity="1">Tue 17</text><text text-anchor="middle" transform="translate(70.58823529411765,15)" font-family="sans-serif" font-size="10px" fill="#000" opacity="0">Thu 19</text><text text-anchor="middle" transform="translate(117.64705882352942,15)" font-family="sans-serif" font-size="10px" fill="#000" opacity="1">Sat 21</text><text text-anchor="middle" transform="translate(164.70588235294116,15)" font-family="sans-serif" font-size="10px" fill="#000" opacity="0">Mon 23</text><text text-anchor="middle" transform="translate(211.76470588235296,15)" font-family="sans-serif" font-size="10px" fill="#000" opacity="1">Wed 25</text><text text-anchor="middle" transform="translate(258.8235294117647,15)" font-family="sans-serif" font-size="10px" fill="#000" opacity="0">Fri 27</text><text text-anchor="middle" transform="translate(305.88235294117646,15)" font-family="sans-serif" font-size="10px" fill="#000" opacity="1">Mar 29</text><text text-anchor="middle" transform="translate(352.94117647058823,15)" font-family="sans-serif" font-size="10px" fill="#000" opacity="0">Tue 31</text><text text-anchor="middle" transform="translate(376.4705882352941,15)" font-family="sans-serif" font-size="10px" fill="#000" opacity="1">April</text><text text-anchor="middle" transform="translate(423.5294117647059,15)" font-family="sans-serif" font-size="10px" fill="#000" opacity="0">Fri 03</text><text text-anchor="middle" transform="translate(470.5882352941177,15)" font-family="sans-serif" font-size="10px" fill="#000" opacity="1">Apr 05</text><text text-anchor="middle" transform="translate(517.6470588235294,15)" font-family="sans-serif" font-size="10px" fill="#000" opacity="0">Tue 07</text><text text-anchor="middle" transform="translate(564.7058823529412,15)" font-family="sans-serif" font-size="10px" fill="#000" opacity="1">Thu 09</text><text text-anchor="middle" transform="translate(611.7647058823529,15)" font-family="sans-serif" font-size="10px" fill="#000" opacity="0">Sat 11</text><text text-anchor="middle" transform="translate(658.8235294117646,15)" font-family="sans-serif" font-size="10px" fill="#000" opacity="1">Mon 13</text><text text-anchor="middle" transform="translate(705.8823529411765,15)" font-family="sans-serif" font-size="10px" fill="#000" opacity="0">Wed 15</text><text text-anchor="middle" transform="translate(752.9411764705882,15)" font-family="sans-serif" font-size="10px" fill="#000" opacity="1">Fri 17</text><text text-anchor="end" transform="translate(800,15)" font-family="sans-serif" font-size="10px" fill="#000" opacity="0">Apr 19</text></g><g class="mark-rule role-axis-domain" pointer-events="none"><line transform="translate(0,0)" x2="800" y2="0" stroke="#888" stroke-width="1" opacity="1"/></g><g class="mark-text role-axis-title" pointer-events="none"><text text-anchor="middle" transform="translate(400,30)" font-family="sans-serif" font-size="11px" font-weight="bold" fill="#000" opacity="1">Date</text></g></g><path class="foreground" aria-hidden="true" d="" pointer-events="none" display="none"/></g></g><g class="mark-group role-axis" role="graphics-symbol" aria-roledescription="axis" aria-label="Y-axis titled 'Unique Visitors/day' for a linear scale with values from 0 to 7"><g transform="translate(0.5,0.5)"><path class="background" aria-hidden="true" d="M0,0h0v0h0Z" pointer-events="none"/><g><g class="mark-rule role-axis-tick" pointer-events="none"><line transform="translate(0,300)" x2="-5" y2="0" stroke="#888" stroke-width="1" opacity="1"/><line transform="translate(0,257)" x2="-5" y2="0" stroke="#888" stroke-width="1" opacity="1"/><line transform="translate(0,214)" x2="-5" y2="0" stroke="#888" stroke-width="1" opacity="1"/><line transform="translate(0,171)" x2="-5" y2="0" stroke="#888" stroke-width="1" opacity="1"/><line transform="translate(0,129)" x2="-5" y2="0" stroke="#888" stroke-width="1" opacity="1"/><line transform="translate(0,86)" x2="-5" y2="0" stroke="#888" stroke-width="1" opacity="1"/><line transform="translate(0,43)" x2="-5" y2="0" stroke="#888" stroke-width="1" opacity="1"/><line transform="translate(0,0)" x2="-5" y2="0" stroke="#888" stroke-width="1" opacity="1"/></g><g class="mark-text role-axis-label" pointer-events="none"><text text-anchor="end" transform="translate(-7,303)" font-family="sans-serif" font-size="10px" fill="#000" opacity="1">0</text><text text-anchor="end" transform="translate(-7,260.14285714285717)" font-family="sans-serif" font-size="10px" fill="#000" opacity="1">1</text><text text-anchor="end" transform="translate(-7,217.28571428571428)" font-family="sans-serif" font-size="10px" fill="#000" opacity="1">2</text><text text-anchor="end" transform="translate(-7,174.42857142857142)" font-family="sans-serif" font-size="10px" fill="#000" opacity="1">3</text><text text-anchor="end" transform="translate(-7,131.57142857142858)" font-family="sans-serif" font-size="10px" fill="#000" opacity="1">4</text><text text-anchor="end" transform="translate(-7,88.71428571428571)" font-family="sans-serif" font-size="10px" fill="#000" opacity="1">5</text><text text-anchor="end" transform="translate(-7,45.85714285714287)" font-family="sans-serif" font-size="10px" fill="#000" opacity="1">6</text><text text-anchor="end" transform="translate(-7,3)" font-family="sans-serif" font-size="10px" fill="#000" opacity="1">7</text></g><g class="mark-rule role-axis-domain" pointer-events="none"><line transform="translate(0,300)" x2="0" y2="-300" stroke="#888" stroke-width="1" opacity="1"/></g><g class="mark-text role-axis-title" pointer-events="none"><text text-anchor="middle" transform="translate(-16.5615234375,150) rotate(-90) translate(0,-2)" font-family="sans-serif" font-size="11px" font-weight="bold" fill="#000" opacity="1">Unique Visitors/day</text></g></g><path class="foreground" aria-hidden="true" d="" pointer-events="none" display="none"/></g></g><g class="mark-group role-scope pathgroup" role="graphics-object" aria-roledescription="group mark container"><g transform="translate(0,0)"><path class="background" aria-hidden="true" d="M0,0h800v300h-800Z"/><g><g class="mark-area role-mark marks" role="graphics-object" aria-roledescription="area mark container"><path aria-label="Date: Mar 16, 2026; Unique Visitors/day: 0; Repository: karlmdavis/FHIR-Server" role="graphics-symbol" aria-roledescription="area mark" d="M0,300L23.529,300L47.059,300L70.588,300L94.118,300L117.647,300L141.176,300L164.706,171.429L188.235,171.429L211.765,128.571L235.294,171.429L258.824,171.429L282.353,171.429L305.882,257.143L329.412,0L352.941,257.143L376.471,128.571L400,257.143L423.529,300L447.059,214.286L470.588,257.143L494.118,300L517.647,257.143L541.176,257.143L564.706,257.143L588.235,214.286L611.765,300L635.294,42.857L658.824,300L682.353,257.143L705.882,171.429L729.412,300L752.941,214.286L776.471,300L800,300L800,300L776.471,300L752.941,214.286L729.412,300L705.882,171.429L682.353,257.143L658.824,300L635.294,42.857L611.765,300L588.235,214.286L564.706,257.143L541.176,257.143L517.647,257.143L494.118,300L470.588,257.143L447.059,214.286L423.529,300L400,257.143L376.471,128.571L352.941,257.143L329.412,0L305.882,257.143L282.353,171.429L258.824,171.429L235.294,171.429L211.765,128.571L188.235,171.429L164.706,171.429L141.176,300L117.647,300L94.118,300L70.588,300L47.059,300L23.529,300L0,300Z" fill="#4c78a8"/></g></g><path class="foreground" aria-hidden="true" d="" display="none"/></g><g transform="translate(0,0)"><path class="background" aria-hidden="true" d="M0,0h800v300h-800Z"/><g><g class="mark-area role-mark marks" role="graphics-object" aria-roledescription="area mark container"><path aria-label="Date: Mar 16, 2026; Unique Visitors/day: 0; Repository: karlmdavis/ansible" role="graphics-symbol" aria-roledescription="area mark" d="M0,300L23.529,300L47.059,300L70.588,300L94.118,300L117.647,300L141.176,300L164.706,171.429L188.235,171.429L211.765,128.571L235.294,171.429L258.824,171.429L282.353,171.429L305.882,257.143L329.412,0L352.941,257.143L376.471,128.571L400,257.143L423.529,300L447.059,214.286L470.588,257.143L494.118,300L517.647,257.143L541.176,257.143L564.706,257.143L588.235,214.286L611.765,300L635.294,42.857L658.824,300L682.353,257.143L705.882,171.429L729.412,300L752.941,214.286L776.471,300L800,300L800,300L776.471,300L752.941,214.286L729.412,300L705.882,171.429L682.353,257.143L658.824,300L635.294,42.857L611.765,300L588.235,214.286L564.706,257.143L541.176,257.143L517.647,257.143L494.118,300L470.588,257.143L447.059,214.286L423.529,300L400,257.143L376.471,128.571L352.941,257.143L329.412,0L305.882,257.143L282.353,171.429L258.824,171.429L235.294,171.429L211.765,128.571L188.235,171.429L164.706,171.429L141.176,300L117.647,300L94.118,300L70.588,300L47.059,300L23.529,300L0,300Z" fill="#f58518"/></g></g><path class="foreground" aria-hidden="true" d="" display="none"/></g><g transform="translate(0,0)"><path class="background" aria-hidden="true" d="M0,0h800v300h-800Z"/><g><g class="mark-area role-mark marks" role="graphics-object" aria-roledescription="area mark container"><path aria-label="Date: Mar 16, 2026; Unique Visitors/day: 0; Repository: karlmdavis/ansible-jenkins" role="graphics-symbol" aria-roledescription="area mark" d="M0,300L23.529,300L47.059,300L70.588,300L94.118,300L117.647,300L141.176,300L164.706,171.429L188.235,171.429L211.765,128.571L235.294,171.429L258.824,171.429L282.353,171.429L305.882,257.143L329.412,0L352.941,257.143L376.471,128.571L400,257.143L423.529,300L447.059,214.286L470.588,257.143L494.118,300L517.647,257.143L541.176,257.143L564.706,257.143L588.235,214.286L611.765,300L635.294,42.857L658.824,300L682.353,257.143L705.882,171.429L729.412,300L752.941,214.286L776.471,300L800,300L800,300L776.471,300L752.941,214.286L729.412,300L705.882,171.429L682.353,257.143L658.824,300L635.294,42.857L611.765,300L588.235,214.286L564.706,257.143L541.176,257.143L517.647,257.143L494.118,300L470.588,257.143L447.059,214.286L423.529,300L400,257.143L376.471,128.571L352.941,257.143L329.412,0L305.882,257.143L282.353,171.429L258.824,171.429L235.294,171.429L211.765,128.571L188.235,171.429L164.706,171.429L141.176,300L117.647,300L94.118,300L70.588,300L47.059,300L23.529,300L0,300Z" fill="#e45756"/></g></g><path class="foreground" aria-hidden="true" d="" display="none"/></g><g transform="translate(0,0)"><path class="background" aria-hidden="true" d="M0,0h800v300h-800Z"/><g><g class="mark-area role-mark marks" role="graphics-object" aria-roledescription="area mark container"><path aria-label="Date: Mar 16, 2026; Unique Visitors/day: 0; Repository: karlmdavis/ansible-role-acmetool" role="graphics-symbol" aria-roledescription="area mark" d="M0,300L23.529,300L47.059,300L70.588,300L94.118,300L117.647,300L141.176,300L164.706,171.429L188.235,171.429L211.765,128.571L235.294,171.429L258.824,171.429L282.353,171.429L305.882,257.143L329.412,0L352.941,257.143L376.471,128.571L400,257.143L423.529,300L447.059,214.286L470.588,257.143L494.118,300L517.647,257.143L541.176,257.143L564.706,257.143L588.235,214.286L611.765,300L635.294,42.857L658.824,300L682.353,257.143L705.882,171.429L729.412,300L752.941,214.286L776.471,300L800,300L800,300L776.471,300L752.941,214.286L729.412,300L705.882,171.429L682.353,257.143L658.824,300L635.294,42.857L611.765,300L588.235,214.286L564.706,257.143L541.176,257.143L517.647,257.143L494.118,300L470.588,257.143L447.059,214.286L423.529,300L400,257.143L376.471,128.571L352.941,257.143L329.412,0L305.882,257.143L282.353,171.429L258.824,171.429L235.294,171.429L211.765,128.571L188.235,171.429L164.706,171.429L141.176,300L117.647,300L94.118,300L70.588,300L47.059,300L23.529,300L0,300Z" fill="#72b7b2"/></g></g><path class="foreground" aria-hidden="true" d="" display="none"/></g><g transform="translate(0,0)"><path class="background" aria-hidden="true" d="M0,0h800v300h-800Z"/><g><g class="mark-area role-mark marks" role="graphics-object" aria-roledescription="area mark container"><path aria-label="Date: Mar 16, 2026; Unique Visitors/day: 0; Repository: karlmdavis/ansible-role-bind-dns" role="graphics-symbol" aria-roledescription="area mark" d="M0,300L23.529,300L47.059,300L70.588,300L94.118,300L117.647,300L141.176,300L164.706,171.429L188.235,171.429L211.765,128.571L235.294,171.429L258.824,171.429L282.353,171.429L305.882,257.143L329.412,0L352.941,257.143L376.471,128.571L400,257.143L423.529,300L447.059,214.286L470.588,257.143L494.118,300L517.647,257.143L541.176,257.143L564.706,257.143L588.235,214.286L611.765,300L635.294,42.857L658.824,300L682.353,257.143L705.882,171.429L729.412,300L752.941,214.286L776.471,300L800,300L800,300L776.471,300L752.941,214.286L729.412,300L705.882,214.286L682.353,257.143L658.824,300L635.294,42.857L611.765,300L588.235,214.286L564.706,257.143L541.176,257.143L517.647,257.143L494.118,300L470.588,257.143L447.059,257.143L423.529,300L400,257.143L376.471,128.571L352.941,257.143L329.412,0L305.882,257.143L282.353,214.286L258.824,171.429L235.294,171.429L211.765,171.429L188.235,171.429L164.706,171.429L141.176,300L117.647,300L94.118,300L70.588,300L47.059,300L23.529,300L0,300Z" fill="#54a24b"/></g></g><path class="foreground" aria-hidden="true" d="" display="none"/></g><g transform="translate(0,0)"><path class="background" aria-hidden="true" d="M0,0h800v300h-800Z"/><g><g class="mark-area role-mark marks" role="graphics-object" aria-roledescription="area mark container"><path aria-label="Date: Mar 16, 2026; Unique Visitors/day: 0; Repository: karlmdavis/ansible-role-jenkins2" role="graphics-symbol" aria-roledescription="area mark" d="M0,300L23.529,300L47.059,300L70.588,300L94.118,300L117.647,300L141.176,300L164.706,171.429L188.235,171.429L211.765,171.429L235.294,171.429L258.824,171.429L282.353,214.286L305.882,257.143L329.412,0L352.941,257.143L376.471,128.571L400,257.143L423.529,300L447.059,257.143L470.588,257.143L494.118,300L517.647,257.143L541.176,257.143L564.706,257.143L588.235,214.286L611.765,300L635.294,42.857L658.824,300L682.353,257.143L705.882,214.286L729.412,300L752.941,214.286L776.471,300L800,300L800,300L776.471,300L752.941,214.286L729.412,300L705.882,214.286L682.353,257.143L658.824,300L635.294,85.714L611.765,300L588.235,214.286L564.706,257.143L541.176,257.143L517.647,257.143L494.118,300L470.588,257.143L447.059,257.143L423.529,300L400,257.143L376.471,128.571L352.941,257.143L329.412,42.857L305.882,300L282.353,214.286L258.824,171.429L235.294,171.429L211.765,171.429L188.235,171.429L164.706,171.429L141.176,300L117.647,300L94.118,300L70.588,300L47.059,300L23.529,300L0,300Z" fill="#eeca3b"/></g></g><path class="foreground" aria-hidden="true" d="" display="none"/></g><g transform="translate(0,0)"><path class="background" aria-hidden="true" d="M0,0h800v300h-800Z"/><g><g class="mark-area role-mark marks" role="graphics-object" aria-roledescription="area mark container"><path aria-label="Date: Mar 16, 2026; Unique Visitors/day: 0; Repository: karlmdavis/ansible-role-ldap" role="graphics-symbol" aria-roledescription="area mark" d="M0,300L23.529,300L47.059,300L70.588,300L94.118,300L117.647,300L141.176,300L164.706,171.429L188.235,171.429L211.765,171.429L235.294,171.429L258.824,171.429L282.353,214.286L305.882,300L329.412,42.857L352.941,257.143L376.471,128.571L400,257.143L423.529,300L447.059,257.143L470.588,257.143L494.118,300L517.647,257.143L541.176,257.143L564.706,257.143L588.235,214.286L611.765,300L635.294,85.714L658.824,300L682.353,257.143L705.882,214.286L729.412,300L752.941,214.286L776.471,300L800,300L800,300L776.471,300L752.941,214.286L729.412,300L705.882,214.286L682.353,257.143L658.824,300L635.294,85.714L611.765,300L588.235,214.286L564.706,257.143L541.176,257.143L517.647,257.143L494.118,300L470.588,257.143L447.059,257.143L423.529,300L400,257.143L376.471,128.571L352.941,257.143L329.412,42.857L305.882,300L282.353,214.286L258.824,171.429L235.294,171.429L211.765,171.429L188.235,171.429L164.706,171.429L141.176,300L117.647,300L94.118,300L70.588,300L47.059,300L23.529,300L0,300Z" fill="#b279a2"/></g></g><path class="foreground" aria-hidden="true" d="" display="none"/></g><g transform="translate(0,0)"><path class="background" aria-hidden="true" d="M0,0h800v300h-800Z"/><g><g class="mark-area role-mark marks" role="graphics-object" aria-roledescription="area mark container"><path aria-label="Date: Mar 16, 2026; Unique Visitors/day: 0; Repository: karlmdavis/ansible-role-rcm-dotfiles" role="graphics-symbol" aria-roledescription="area mark" d="M0,300L23.529,300L47.059,300L70.588,300L94.118,300L117.647,300L141.176,300L164.706,171.429L188.235,171.429L211.765,171.429L235.294,171.429L258.824,171.429L282.353,214.286L305.882,300L329.412,42.857L352.941,257.143L376.471,128.571L400,257.143L423.529,300L447.059,257.143L470.588,257.143L494.118,300L517.647,257.143L541.176,257.143L564.706,257.143L588.235,214.286L611.765,300L635.294,85.714L658.824,300L682.353,257.143L705.882,214.286L729.412,300L752.941,214.286L776.471,300L800,300L800,300L776.471,300L752.941,214.286L729.412,300L705.882,214.286L682.353,257.143L658.824,300L635.294,85.714L611.765,300L588.235,214.286L564.706,257.143L541.176,257.143L517.647,257.143L494.118,300L470.588,257.143L447.059,257.143L423.529,300L400,257.143L376.471,128.571L352.941,257.143L329.412,42.857L305.882,300L282.353,214.286L258.824,171.429L235.294,171.429L211.765,171.429L188.235,171.429L164.706,171.429L141.176,300L117.647,300L94.118,300L70.588,300L47.059,300L23.529,300L0,300Z" fill="#ff9da6"/></g></g><path class="foreground" aria-hidden="true" d="" display="none"/></g><g transform="translate(0,0)"><path class="background" aria-hidden="true" d="M0,0h800v300h-800Z"/><g><g class="mark-area role-mark marks" role="graphics-object" aria-roledescription="area mark container"><path aria-label="Date: Mar 16, 2026; Unique Visitors/day: 0; Repository: karlmdavis/ansible-roles" role="graphics-symbol" aria-roledescription="area mark" d="M0,300L23.529,300L47.059,300L70.588,300L94.118,300L117.647,300L141.176,300L164.706,171.429L188.235,171.429L211.765,171.429L235.294,171.429L258.824,171.429L282.353,214.286L305.882,300L329.412,42.857L352.941,257.143L376.471,128.571L400,257.143L423.529,300L447.059,257.143L470.588,257.143L494.118,300L517.647,257.143L541.176,257.143L564.706,257.143L588.235,214.286L611.765,300L635.294,85.714L658.824,300L682.353,257.143L705.882,214.286L729.412,300L752.941,214.286L776.471,300L800,300L800,300L776.471,300L752.941,214.286L729.412,300L705.882,214.286L682.353,257.143L658.824,300L635.294,85.714L611.765,300L588.235,214.286L564.706,257.143L541.176,257.143L517.647,257.143L494.118,300L470.588,257.143L447.059,257.143L423.529,300L400,257.143L376.471,128.571L352.941,257.143L329.412,42.857L305.882,300L282.353,214.286L258.824,171.429L235.294,171.429L211.765,171.429L188.235,171.429L164.706,171.429L141.176,300L117.647,300L94.118,300L70.588,300L47.059,300L23.529,300L0,300Z" fill="#9d755d"/></g></g><path class="foreground" aria-hidden="true" d="" display="none"/></g><g transform="translate(0,0)"><path class="background" aria-hidden="true" d="M0,0h800v300h-800Z"/><g><g class="mark-area role-mark marks" role="graphics-object" aria-roledescription="area mark container"><path aria-label="Date: Mar 16, 2026; Unique Visitors/day: 0; Repository: karlmdavis/bbonfhir-dev-infra-docker" role="graphics-symbol" aria-roledescription="area mark" d="M0,300L23.529,300L47.059,300L70.588,300L94.118,300L117.647,300L141.176,300L164.706,171.429L188.235,171.429L211.765,171.429L235.294,171.429L258.824,171.429L282.353,214.286L305.882,300L329.412,42.857L352.941,257.143L376.471,128.571L400,257.143L423.529,300L447.059,257.143L470.588,257.143L494.118,300L517.647,257.143L541.176,257.143L564.706,257.143L588.235,214.286L611.765,300L635.294,85.714L658.824,300L682.353,257.143L705.882,214.286L729.412,300L752.941,214.286L776.471,300L800,300L800,300L776.471,300L752.941,214.286L729.412,300L705.882,214.286L682.353,257.143L658.824,300L635.294,85.714L611.765,300L588.235,214.286L564.706,257.143L541.176,257.143L517.647,257.143L494.118,300L470.588,257.143L447.059,257.143L423.529,300L400,257.143L376.471,128.571L352.941,257.143L329.412,42.857L305.882,300L282.353,214.286L258.824,171.429L235.294,171.429L211.765,171.429L188.235,171.429L164.706,171.429L141.176,300L117.647,300L94.118,300L70.588,300L47.059,300L23.529,300L0,300Z" fill="#bab0ac"/></g></g><path class="foreground" aria-hidden="true" d="" display="none"/></g><g transform="translate(0,0)"><path class="background" aria-hidden="true" d="M0,0h800v300h-800Z"/><g><g class="mark-area role-mark marks" role="graphics-object" aria-roledescription="area mark container"><path aria-label="Date: Mar 16, 2026; Unique Visitors/day: 0; Repository: karlmdavis/can-i-kayak-baltimore" role="graphics-symbol" aria-roledescription="area mark" d="M0,300L23.529,300L47.059,300L70.588,300L94.118,300L117.647,300L141.176,300L164.706,171.429L188.235,171.429L211.765,171.429L235.294,171.429L258.824,171.429L282.353,214.286L305.882,300L329.412,42.857L352.941,257.143L376.471,128.571L400,257.143L423.529,300L447.059,257.143L470.588,257.143L494.118,300L517.647,257.143L541.176,257.143L564.706,257.143L588.235,214.286L611.765,300L635.294,85.714L658.824,300L682.353,257.143L705.882,214.286L729.412,300L752.941,214.286L776.471,300L800,300L800,300L776.471,300L752.941,214.286L729.412,300L705.882,214.286L682.353,257.143L658.824,300L635.294,85.714L611.765,300L588.235,214.286L564.706,257.143L541.176,257.143L517.647,257.143L494.118,300L470.588,257.143L447.059,257.143L423.529,300L400,257.143L376.471,128.571L352.941,257.143L329.412,42.857L305.882,300L282.353,214.286L258.824,171.429L235.294,171.429L211.765,171.429L188.235,171.429L164.706,171.429L141.176,300L117.647,300L94.118,300L70.588,300L47.059,300L23.529,300L0,300Z" fill="#4c78a8"/></g></g><path class="foreground" aria-hidden="true" d="" display="none"/></g><g transform="translate(0,0)"><path class="background" aria-hidden="true" d="M0,0h800v300h-800Z"/><g><g class="mark-area role-mark marks" role="graphics-object" aria-roledescription="area mark container"><path aria-label="Date: Mar 16, 2026; Unique Visitors/day: 0; Repository: karlmdavis/datanucleus-test-jdo-1-to-n" role="graphics-symbol" aria-roledescription="area mark" d="M0,300L23.529,300L47.059,300L70.588,300L94.118,300L117.647,300L141.176,300L164.706,171.429L188.235,171.429L211.765,171.429L235.294,171.429L258.824,171.429L282.353,214.286L305.882,300L329.412,42.857L352.941,257.143L376.471,128.571L400,257.143L423.529,300L447.059,257.143L470.588,257.143L494.118,300L517.647,257.143L541.176,257.143L564.706,257.143L588.235,214.286L611.765,300L635.294,85.714L658.824,300L682.353,257.143L705.882,214.286L729.412,300L752.941,214.286L776.471,300L800,300L800,300L776.471,300L752.941,214.286L729.412,300L705.882,214.286L682.353,257.143L658.824,300L635.294,85.714L611.765,300L588.235,214.286L564.706,257.143L541.176,257.143L517.647,257.143L494.118,300L470.588,257.143L447.059,257.143L423.529,300L400,257.143L376.471,128.571L352.941,257.143L329.412,42.857L305.882,300L282.353,214.286L258.824,171.429L235.294,171.429L211.765,171.429L188.235,171.429L164.706,171.429L141.176,300L117.647,300L94.118,300L70.588,300L47.059,300L23.529,300L0,300Z" fill="#f58518"/></g></g><path class="foreground" aria-hidden="true" d="" display="none"/></g><g transform="translate(0,0)"><path class="background" aria-hidden="true" d="M0,0h800v300h-800Z"/><g><g class="mark-area role-mark marks" role="graphics-object" aria-roledescription="area mark container"><path aria-label="Date: Mar 16, 2026; Unique Visitors/day: 0; Repository: karlmdavis/dotfiles" role="graphics-symbol" aria-roledescription="area mark" d="M0,300L23.529,300L47.059,300L70.588,300L94.118,300L117.647,300L141.176,300L164.706,171.429L188.235,171.429L211.765,171.429L235.294,171.429L258.824,171.429L282.353,214.286L305.882,300L329.412,42.857L352.941,257.143L376.471,128.571L400,257.143L423.529,300L447.059,257.143L470.588,257.143L494.118,300L517.647,257.143L541.176,257.143L564.706,257.143L588.235,214.286L611.765,300L635.294,85.714L658.824,300L682.353,257.143L705.882,214.286L729.412,300L752.941,214.286L776.471,300L800,300L800,300L776.471,300L752.941,214.286L729.412,300L705.882,214.286L682.353,257.143L658.824,300L635.294,85.714L611.765,300L588.235,214.286L564.706,257.143L541.176,257.143L517.647,257.143L494.118,300L470.588,257.143L447.059,257.143L423.529,300L400,257.143L376.471,128.571L352.941,257.143L329.412,42.857L305.882,300L282.353,214.286L258.824,171.429L235.294,171.429L211.765,171.429L188.235,171.429L164.706,171.429L141.176,300L117.647,300L94.118,300L70.588,300L47.059,300L23.529,300L0,300Z" fill="#e45756"/></g></g><path class="foreground" aria-hidden="true" d="" display="none"/></g><g transform="translate(0,0)"><path class="background" aria-hidden="true" d="M0,0h800v300h-800Z"/><g><g class="mark-area role-mark marks" role="graphics-object" aria-roledescription="area mark container"><path aria-label="Date: Mar 16, 2026; Unique Visitors/day: 0; Repository: karlmdavis/fhir-benchmarks" role="graphics-symbol" aria-roledescription="area mark" d="M0,300L23.529,300L47.059,300L70.588,300L94.118,300L117.647,300L141.176,300L164.706,171.429L188.235,171.429L211.765,171.429L235.294,171.429L258.824,171.429L282.353,214.286L305.882,300L329.412,42.857L352.941,257.143L376.471,128.571L400,257.143L423.529,300L447.059,257.143L470.588,257.143L494.118,300L517.647,257.143L541.176,257.143L564.706,257.143L588.235,214.286L611.765,300L635.294,85.714L658.824,300L682.353,257.143L705.882,214.286L729.412,300L752.941,214.286L776.471,300L800,300L800,300L776.471,300L752.941,214.286L729.412,300L705.882,257.143L682.353,257.143L658.824,300L635.294,85.714L611.765,300L588.235,257.143L564.706,257.143L541.176,257.143L517.647,300L494.118,300L470.588,257.143L447.059,257.143L423.529,300L400,257.143L376.471,171.429L352.941,257.143L329.412,85.714L305.882,300L282.353,214.286L258.824,171.429L235.294,214.286L211.765,171.429L188.235,171.429L164.706,171.429L141.176,300L117.647,300L94.118,300L70.588,300L47.059,300L23.529,300L0,300Z" fill="#72b7b2"/></g></g><path class="foreground" aria-hidden="true" d="" display="none"/></g><g transform="translate(0,0)"><path class="background" aria-hidden="true" d="M0,0h800v300h-800Z"/><g><g class="mark-area role-mark marks" role="graphics-object" aria-roledescription="area mark container"><path aria-label="Date: Mar 16, 2026; Unique Visitors/day: 0; Repository: karlmdavis/hapi-fhir-jpaserver-starter" role="graphics-symbol" aria-roledescription="area mark" d="M0,300L23.529,300L47.059,300L70.588,300L94.118,300L117.647,300L141.176,300L164.706,171.429L188.235,171.429L211.765,171.429L235.294,214.286L258.824,171.429L282.353,214.286L305.882,300L329.412,85.714L352.941,257.143L376.471,171.429L400,257.143L423.529,300L447.059,257.143L470.588,257.143L494.118,300L517.647,300L541.176,257.143L564.706,257.143L588.235,257.143L611.765,300L635.294,85.714L658.824,300L682.353,257.143L705.882,257.143L729.412,300L752.941,214.286L776.471,300L800,300L800,300L776.471,300L752.941,214.286L729.412,300L705.882,257.143L682.353,257.143L658.824,300L635.294,85.714L611.765,300L588.235,257.143L564.706,257.143L541.176,257.143L517.647,300L494.118,300L470.588,257.143L447.059,257.143L423.529,300L400,257.143L376.471,171.429L352.941,257.143L329.412,85.714L305.882,300L282.353,214.286L258.824,171.429L235.294,214.286L211.765,171.429L188.235,171.429L164.706,171.429L141.176,300L117.647,300L94.118,300L70.588,300L47.059,300L23.529,300L0,300Z" fill="#54a24b"/></g></g><path class="foreground" aria-hidden="true" d="" display="none"/></g><g transform="translate(0,0)"><path class="background" aria-hidden="true" d="M0,0h800v300h-800Z"/><g><g class="mark-area role-mark marks" role="graphics-object" aria-roledescription="area mark container"><path aria-label="Date: Mar 16, 2026; Unique Visitors/day: 0; Repository: karlmdavis/hello-rust-actix" role="graphics-symbol" aria-roledescription="area mark" d="M0,300L23.529,300L47.059,300L70.588,300L94.118,300L117.647,300L141.176,300L164.706,171.429L188.235,171.429L211.765,171.429L235.294,214.286L258.824,171.429L282.353,214.286L305.882,300L329.412,85.714L352.941,257.143L376.471,171.429L400,257.143L423.529,300L447.059,257.143L470.588,257.143L494.118,300L517.647,300L541.176,257.143L564.706,257.143L588.235,257.143L611.765,300L635.294,85.714L658.824,300L682.353,257.143L705.882,257.143L729.412,300L752.941,214.286L776.471,300L800,300L800,300L776.471,300L752.941,214.286L729.412,300L705.882,257.143L682.353,257.143L658.824,300L635.294,85.714L611.765,300L588.235,257.143L564.706,257.143L541.176,257.143L517.647,300L494.118,300L470.588,257.143L447.059,257.143L423.529,300L400,257.143L376.471,171.429L352.941,257.143L329.412,85.714L305.882,300L282.353,214.286L258.824,171.429L235.294,214.286L211.765,171.429L188.235,171.429L164.706,171.429L141.176,300L117.647,300L94.118,300L70.588,300L47.059,300L23.529,300L0,300Z" fill="#eeca3b"/></g></g><path class="foreground" aria-hidden="true" d="" display="none"/></g><g transform="translate(0,0)"><path class="background" aria-hidden="true" d="M0,0h800v300h-800Z"/><g><g class="mark-area role-mark marks" role="graphics-object" aria-roledescription="area mark container"><path aria-label="Date: Mar 16, 2026; Unique Visitors/day: 0; Repository: karlmdavis/jessentials" role="graphics-symbol" aria-roledescription="area mark" d="M0,300L23.529,300L47.059,300L70.588,300L94.118,300L117.647,300L141.176,300L164.706,171.429L188.235,171.429L211.765,171.429L235.294,214.286L258.824,171.429L282.353,214.286L305.882,300L329.412,85.714L352.941,257.143L376.471,171.429L400,257.143L423.529,300L447.059,257.143L470.588,257.143L494.118,300L517.647,300L541.176,257.143L564.706,257.143L588.235,257.143L611.765,300L635.294,85.714L658.824,300L682.353,257.143L705.882,257.143L729.412,300L752.941,214.286L776.471,300L800,300L800,300L776.471,300L752.941,214.286L729.412,300L705.882,257.143L682.353,257.143L658.824,300L635.294,85.714L611.765,300L588.235,257.143L564.706,257.143L541.176,257.143L517.647,300L494.118,300L470.588,257.143L447.059,257.143L423.529,300L400,257.143L376.471,171.429L352.941,257.143L329.412,85.714L305.882,300L282.353,214.286L258.824,171.429L235.294,214.286L211.765,171.429L188.235,171.429L164.706,171.429L141.176,300L117.647,300L94.118,300L70.588,300L47.059,300L23.529,300L0,300Z" fill="#b279a2"/></g></g><path class="foreground" aria-hidden="true" d="" display="none"/></g><g transform="translate(0,0)"><path class="background" aria-hidden="true" d="M0,0h800v300h-800Z"/><g><g class="mark-area role-mark marks" role="graphics-object" aria-roledescription="area mark container"><path aria-label="Date: Mar 16, 2026; Unique Visitors/day: 0; Repository: karlmdavis/justdavis-ansible" role="graphics-symbol" aria-roledescription="area mark" d="M0,300L23.529,300L47.059,300L70.588,300L94.118,300L117.647,300L141.176,300L164.706,171.429L188.235,171.429L211.765,171.429L235.294,214.286L258.824,171.429L282.353,214.286L305.882,300L329.412,85.714L352.941,257.143L376.471,171.429L400,257.143L423.529,300L447.059,257.143L470.588,257.143L494.118,300L517.647,300L541.176,257.143L564.706,257.143L588.235,257.143L611.765,300L635.294,85.714L658.824,300L682.353,257.143L705.882,257.143L729.412,300L752.941,214.286L776.471,300L800,300L800,300L776.471,300L752.941,214.286L729.412,300L705.882,257.143L682.353,257.143L658.824,300L635.294,128.571L611.765,300L588.235,257.143L564.706,257.143L541.176,257.143L517.647,300L494.118,300L470.588,257.143L447.059,257.143L423.529,300L400,257.143L376.471,214.286L352.941,257.143L329.412,128.571L305.882,300L282.353,214.286L258.824,171.429L235.294,214.286L211.765,171.429L188.235,171.429L164.706,171.429L141.176,300L117.647,300L94.118,300L70.588,300L47.059,300L23.529,300L0,300Z" fill="#ff9da6"/></g></g><path class="foreground" aria-hidden="true" d="" display="none"/></g><g transform="translate(0,0)"><path class="background" aria-hidden="true" d="M0,0h800v300h-800Z"/><g><g class="mark-area role-mark marks" role="graphics-object" aria-roledescription="area mark container"><path aria-label="Date: Mar 16, 2026; Unique Visitors/day: 0; Repository: karlmdavis/justdavis-finances" role="graphics-symbol" aria-roledescription="area mark" d="M0,300L23.529,300L47.059,300L70.588,300L94.118,300L117.647,300L141.176,300L164.706,171.429L188.235,171.429L211.765,171.429L235.294,214.286L258.824,171.429L282.353,214.286L305.882,300L329.412,128.571L352.941,257.143L376.471,214.286L400,257.143L423.529,300L447.059,257.143L470.588,257.143L494.118,300L517.647,300L541.176,257.143L564.706,257.143L588.235,257.143L611.765,300L635.294,128.571L658.824,300L682.353,257.143L705.882,257.143L729.412,300L752.941,214.286L776.471,300L800,300L800,300L776.471,300L752.941,214.286L729.412,300L705.882,257.143L682.353,257.143L658.824,300L635.294,171.429L611.765,300L588.235,257.143L564.706,257.143L541.176,257.143L517.647,300L494.118,300L470.588,257.143L447.059,257.143L423.529,300L400,257.143L376.471,214.286L352.941,257.143L329.412,128.571L305.882,300L282.353,214.286L258.824,214.286L235.294,214.286L211.765,171.429L188.235,171.429L164.706,171.429L141.176,300L117.647,300L94.118,300L70.588,300L47.059,300L23.529,300L0,300Z" fill="#9d755d"/></g></g><path class="foreground" aria-hidden="true" d="" display="none"/></g><g transform="translate(0,0)"><path class="background" aria-hidden="true" d="M0,0h800v300h-800Z"/><g><g class="mark-area role-mark marks" role="graphics-object" aria-roledescription="area mark container"><path aria-label="Date: Mar 16, 2026; Unique Visitors/day: 0; Repository: karlmdavis/justdavis-karl" role="graphics-symbol" aria-roledescription="area mark" d="M0,300L23.529,300L47.059,300L70.588,300L94.118,300L117.647,300L141.176,300L164.706,171.429L188.235,171.429L211.765,171.429L235.294,214.286L258.824,214.286L282.353,214.286L305.882,300L329.412,128.571L352.941,257.143L376.471,214.286L400,257.143L423.529,300L447.059,257.143L470.588,257.143L494.118,300L517.647,300L541.176,257.143L564.706,257.143L588.235,257.143L611.765,300L635.294,171.429L658.824,300L682.353,257.143L705.882,257.143L729.412,300L752.941,214.286L776.471,300L800,300L800,300L776.471,300L752.941,214.286L729.412,300L705.882,257.143L682.353,257.143L658.824,300L635.294,171.429L611.765,300L588.235,257.143L564.706,257.143L541.176,257.143L517.647,300L494.118,300L470.588,257.143L447.059,257.143L423.529,300L400,257.143L376.471,214.286L352.941,257.143L329.412,128.571L305.882,300L282.353,214.286L258.824,214.286L235.294,214.286L211.765,171.429L188.235,171.429L164.706,171.429L141.176,300L117.647,300L94.118,300L70.588,300L47.059,300L23.529,300L0,300Z" fill="#bab0ac"/></g></g><path class="foreground" aria-hidden="true" d="" display="none"/></g><g transform="translate(0,0)"><path class="background" aria-hidden="true" d="M0,0h800v300h-800Z"/><g><g class="mark-area role-mark marks" role="graphics-object" aria-roledescription="area mark container"><path aria-label="Date: Mar 16, 2026; Unique Visitors/day: 0; Repository: karlmdavis/justdavis-puppet" role="graphics-symbol" aria-roledescription="area mark" d="M0,300L23.529,300L47.059,300L70.588,300L94.118,300L117.647,300L141.176,300L164.706,171.429L188.235,171.429L211.765,171.429L235.294,214.286L258.824,214.286L282.353,214.286L305.882,300L329.412,128.571L352.941,257.143L376.471,214.286L400,257.143L423.529,300L447.059,257.143L470.588,257.143L494.118,300L517.647,300L541.176,257.143L564.706,257.143L588.235,257.143L611.765,300L635.294,171.429L658.824,300L682.353,257.143L705.882,257.143L729.412,300L752.941,214.286L776.471,300L800,300L800,300L776.471,300L752.941,214.286L729.412,300L705.882,257.143L682.353,257.143L658.824,300L635.294,171.429L611.765,300L588.235,257.143L564.706,257.143L541.176,257.143L517.647,300L494.118,300L470.588,257.143L447.059,257.143L423.529,300L400,257.143L376.471,214.286L352.941,257.143L329.412,128.571L305.882,300L282.353,214.286L258.824,214.286L235.294,214.286L211.765,171.429L188.235,171.429L164.706,171.429L141.176,300L117.647,300L94.118,300L70.588,300L47.059,300L23.529,300L0,300Z" fill="#4c78a8"/></g></g><path class="foreground" aria-hidden="true" d="" display="none"/></g><g transform="translate(0,0)"><path class="background" aria-hidden="true" d="M0,0h800v300h-800Z"/><g><g class="mark-area role-mark marks" role="graphics-object" aria-roledescription="area mark container"><path aria-label="Date: Mar 16, 2026; Unique Visitors/day: 0; Repository: karlmdavis/kobjects" role="graphics-symbol" aria-roledescription="area mark" d="M0,300L23.529,300L47.059,300L70.588,300L94.118,300L117.647,300L141.176,300L164.706,171.429L188.235,171.429L211.765,171.429L235.294,214.286L258.824,214.286L282.353,214.286L305.882,300L329.412,128.571L352.941,257.143L376.471,214.286L400,257.143L423.529,300L447.059,257.143L470.588,257.143L494.118,300L517.647,300L541.176,257.143L564.706,257.143L588.235,257.143L611.765,300L635.294,171.429L658.824,300L682.353,257.143L705.882,257.143L729.412,300L752.941,214.286L776.471,300L800,300L800,300L776.471,300L752.941,214.286L729.412,300L705.882,257.143L682.353,257.143L658.824,300L635.294,171.429L611.765,300L588.235,257.143L564.706,257.143L541.176,257.143L517.647,300L494.118,300L470.588,257.143L447.059,257.143L423.529,300L400,257.143L376.471,214.286L352.941,257.143L329.412,128.571L305.882,300L282.353,214.286L258.824,214.286L235.294,214.286L211.765,171.429L188.235,171.429L164.706,171.429L141.176,300L117.647,300L94.118,300L70.588,300L47.059,300L23.529,300L0,300Z" fill="#f58518"/></g></g><path class="foreground" aria-hidden="true" d="" display="none"/></g><g transform="translate(0,0)"><path class="background" aria-hidden="true" d="M0,0h800v300h-800Z"/><g><g class="mark-area role-mark marks" role="graphics-object" aria-roledescription="area mark container"><path aria-label="Date: Mar 16, 2026; Unique Visitors/day: 0; Repository: karlmdavis/ksoap2-android" role="graphics-symbol" aria-roledescription="area mark" d="M0,300L23.529,300L47.059,300L70.588,300L94.118,300L117.647,300L141.176,300L164.706,171.429L188.235,171.429L211.765,171.429L235.294,214.286L258.824,214.286L282.353,214.286L305.882,300L329.412,128.571L352.941,257.143L376.471,214.286L400,257.143L423.529,300L447.059,257.143L470.588,257.143L494.118,300L517.647,300L541.176,257.143L564.706,257.143L588.235,257.143L611.765,300L635.294,171.429L658.824,300L682.353,257.143L705.882,257.143L729.412,300L752.941,214.286L776.471,300L800,300L800,300L776.471,300L752.941,300L729.412,300L705.882,300L682.353,300L658.824,300L635.294,214.286L611.765,300L588.235,300L564.706,257.143L541.176,300L517.647,300L494.118,300L470.588,300L447.059,300L423.529,300L400,300L376.471,257.143L352.941,257.143L329.412,214.286L305.882,300L282.353,214.286L258.824,257.143L235.294,214.286L211.765,214.286L188.235,257.143L164.706,257.143L141.176,300L117.647,300L94.118,300L70.588,300L47.059,300L23.529,300L0,300Z" fill="#e45756"/></g></g><path class="foreground" aria-hidden="true" d="" display="none"/></g><g transform="translate(0,0)"><path class="background" aria-hidden="true" d="M0,0h800v300h-800Z"/><g><g class="mark-area role-mark marks" role="graphics-object" aria-roledescription="area mark container"><path aria-label="Date: Mar 16, 2026; Unique Visitors/day: 0; Repository: karlmdavis/kxml2" role="graphics-symbol" aria-roledescription="area mark" d="M0,300L23.529,300L47.059,300L70.588,300L94.118,300L117.647,300L141.176,300L164.706,257.143L188.235,257.143L211.765,214.286L235.294,214.286L258.824,257.143L282.353,214.286L305.882,300L329.412,214.286L352.941,257.143L376.471,257.143L400,300L423.529,300L447.059,300L470.588,300L494.118,300L517.647,300L541.176,300L564.706,257.143L588.235,300L611.765,300L635.294,214.286L658.824,300L682.353,300L705.882,300L729.412,300L752.941,300L776.471,300L800,300L800,300L776.471,300L752.941,300L729.412,300L705.882,300L682.353,300L658.824,300L635.294,214.286L611.765,300L588.235,300L564.706,257.143L541.176,300L517.647,300L494.118,300L470.588,300L447.059,300L423.529,300L400,300L376.471,257.143L352.941,257.143L329.412,214.286L305.882,300L282.353,257.143L258.824,257.143L235.294,214.286L211.765,257.143L188.235,257.143L164.706,257.143L141.176,300L117.647,300L94.118,300L70.588,300L47.059,300L23.529,300L0,300Z" fill="#72b7b2"/></g></g><path class="foreground" aria-hidden="true" d="" display="none"/></g><g transform="translate(0,0)"><path class="background" aria-hidden="true" d="M0,0h800v300h-800Z"/><g><g class="mark-area role-mark marks" role="graphics-object" aria-roledescription="area mark container"><path aria-label="Date: Mar 16, 2026; Unique Visitors/day: 0; Repository: karlmdavis/ldap-plugin" role="graphics-symbol" aria-roledescription="area mark" d="M0,300L23.529,300L47.059,300L70.588,300L94.118,300L117.647,300L141.176,300L164.706,257.143L188.235,257.143L211.765,257.143L235.294,214.286L258.824,257.143L282.353,257.143L305.882,300L329.412,214.286L352.941,257.143L376.471,257.143L400,300L423.529,300L447.059,300L470.588,300L494.118,300L517.647,300L541.176,300L564.706,257.143L588.235,300L611.765,300L635.294,214.286L658.824,300L682.353,300L705.882,300L729.412,300L752.941,300L776.471,300L800,300L800,300L776.471,300L752.941,300L729.412,300L705.882,300L682.353,300L658.824,300L635.294,214.286L611.765,300L588.235,300L564.706,257.143L541.176,300L517.647,300L494.118,300L470.588,300L447.059,300L423.529,300L400,300L376.471,257.143L352.941,257.143L329.412,214.286L305.882,300L282.353,257.143L258.824,257.143L235.294,214.286L211.765,257.143L188.235,257.143L164.706,257.143L141.176,300L117.647,300L94.118,300L70.588,300L47.059,300L23.529,300L0,300Z" fill="#54a24b"/></g></g><path class="foreground" aria-hidden="true" d="" display="none"/></g><g transform="translate(0,0)"><path class="background" aria-hidden="true" d="M0,0h800v300h-800Z"/><g><g class="mark-area role-mark marks" role="graphics-object" aria-roledescription="area mark container"><path aria-label="Date: Mar 16, 2026; Unique Visitors/day: 0; Repository: karlmdavis/lego-ev3dev-rs" role="graphics-symbol" aria-roledescription="area mark" d="M0,300L23.529,300L47.059,300L70.588,300L94.118,300L117.647,300L141.176,300L164.706,257.143L188.235,257.143L211.765,257.143L235.294,214.286L258.824,257.143L282.353,257.143L305.882,300L329.412,214.286L352.941,257.143L376.471,257.143L400,300L423.529,300L447.059,300L470.588,300L494.118,300L517.647,300L541.176,300L564.706,257.143L588.235,300L611.765,300L635.294,214.286L658.824,300L682.353,300L705.882,300L729.412,300L752.941,300L776.471,300L800,300L800,300L776.471,300L752.941,300L729.412,300L705.882,300L682.353,300L658.824,300L635.294,214.286L611.765,300L588.235,300L564.706,257.143L541.176,300L517.647,300L494.118,300L470.588,300L447.059,300L423.529,300L400,300L376.471,257.143L352.941,257.143L329.412,214.286L305.882,300L282.353,257.143L258.824,257.143L235.294,214.286L211.765,257.143L188.235,257.143L164.706,257.143L141.176,300L117.647,300L94.118,300L70.588,300L47.059,300L23.529,300L0,300Z" fill="#eeca3b"/></g></g><path class="foreground" aria-hidden="true" d="" display="none"/></g><g transform="translate(0,0)"><path class="background" aria-hidden="true" d="M0,0h800v300h-800Z"/><g><g class="mark-area role-mark marks" role="graphics-object" aria-roledescription="area mark container"><path aria-label="Date: Mar 16, 2026; Unique Visitors/day: 0; Repository: karlmdavis/liquibase" role="graphics-symbol" aria-roledescription="area mark" d="M0,300L23.529,300L47.059,300L70.588,300L94.118,300L117.647,300L141.176,300L164.706,257.143L188.235,257.143L211.765,257.143L235.294,214.286L258.824,257.143L282.353,257.143L305.882,300L329.412,214.286L352.941,257.143L376.471,257.143L400,300L423.529,300L447.059,300L470.588,300L494.118,300L517.647,300L541.176,300L564.706,257.143L588.235,300L611.765,300L635.294,214.286L658.824,300L682.353,300L705.882,300L729.412,300L752.941,300L776.471,300L800,300L800,300L776.471,300L752.941,300L729.412,300L705.882,300L682.353,300L658.824,300L635.294,214.286L611.765,300L588.235,300L564.706,257.143L541.176,300L517.647,300L494.118,300L470.588,300L447.059,300L423.529,300L400,300L376.471,257.143L352.941,257.143L329.412,214.286L305.882,300L282.353,257.143L258.824,257.143L235.294,214.286L211.765,257.143L188.235,257.143L164.706,257.143L141.176,300L117.647,300L94.118,300L70.588,300L47.059,300L23.529,300L0,300Z" fill="#b279a2"/></g></g><path class="foreground" aria-hidden="true" d="" display="none"/></g><g transform="translate(0,0)"><path class="background" aria-hidden="true" d="M0,0h800v300h-800Z"/><g><g class="mark-area role-mark marks" role="graphics-object" aria-roledescription="area mark container"><path aria-label="Date: Mar 16, 2026; Unique Visitors/day: 0; Repository: karlmdavis/m2e-core" role="graphics-symbol" aria-roledescription="area mark" d="M0,300L23.529,300L47.059,300L70.588,300L94.118,300L117.647,300L141.176,300L164.706,257.143L188.235,257.143L211.765,257.143L235.294,214.286L258.824,257.143L282.353,257.143L305.882,300L329.412,214.286L352.941,257.143L376.471,257.143L400,300L423.529,300L447.059,300L470.588,300L494.118,300L517.647,300L541.176,300L564.706,257.143L588.235,300L611.765,300L635.294,214.286L658.824,300L682.353,300L705.882,300L729.412,300L752.941,300L776.471,300L800,300L800,300L776.471,300L752.941,300L729.412,300L705.882,300L682.353,300L658.824,300L635.294,214.286L611.765,300L588.235,300L564.706,257.143L541.176,300L517.647,300L494.118,300L470.588,300L447.059,300L423.529,300L400,300L376.471,257.143L352.941,257.143L329.412,214.286L305.882,300L282.353,257.143L258.824,257.143L235.294,214.286L211.765,257.143L188.235,257.143L164.706,257.143L141.176,300L117.647,300L94.118,300L70.588,300L47.059,300L23.529,300L0,300Z" fill="#ff9da6"/></g></g><path class="foreground" aria-hidden="true" d="" display="none"/></g><g transform="translate(0,0)"><path class="background" aria-hidden="true" d="M0,0h800v300h-800Z"/><g><g class="mark-area role-mark marks" role="graphics-object" aria-roledescription="area mark container"><path aria-label="Date: Mar 16, 2026; Unique Visitors/day: 0; Repository: karlmdavis/m2e-core-tests" role="graphics-symbol" aria-roledescription="area mark" d="M0,300L23.529,300L47.059,300L70.588,300L94.118,300L117.647,300L141.176,300L164.706,257.143L188.235,257.143L211.765,257.143L235.294,214.286L258.824,257.143L282.353,257.143L305.882,300L329.412,214.286L352.941,257.143L376.471,257.143L400,300L423.529,300L447.059,300L470.588,300L494.118,300L517.647,300L541.176,300L564.706,257.143L588.235,300L611.765,300L635.294,214.286L658.824,300L682.353,300L705.882,300L729.412,300L752.941,300L776.471,300L800,300L800,300L776.471,300L752.941,300L729.412,300L705.882,300L682.353,300L658.824,300L635.294,214.286L611.765,300L588.235,300L564.706,257.143L541.176,300L517.647,300L494.118,300L470.588,300L447.059,300L423.529,300L400,300L376.471,257.143L352.941,257.143L329.412,214.286L305.882,300L282.353,257.143L258.824,257.143L235.294,214.286L211.765,257.143L188.235,257.143L164.706,257.143L141.176,300L117.647,300L94.118,300L70.588,300L47.059,300L23.529,300L0,300Z" fill="#9d755d"/></g></g><path class="foreground" aria-hidden="true" d="" display="none"/></g><g transform="translate(0,0)"><path class="background" aria-hidden="true" d="M0,0h800v300h-800Z"/><g><g class="mark-area role-mark marks" role="graphics-object" aria-roledescription="area mark container"><path aria-label="Date: Mar 16, 2026; Unique Visitors/day: 0; Repository: karlmdavis/obsidian-operator" role="graphics-symbol" aria-roledescription="area mark" d="M0,300L23.529,300L47.059,300L70.588,300L94.118,300L117.647,300L141.176,300L164.706,257.143L188.235,257.143L211.765,257.143L235.294,214.286L258.824,257.143L282.353,257.143L305.882,300L329.412,214.286L352.941,257.143L376.471,257.143L400,300L423.529,300L447.059,300L470.588,300L494.118,300L517.647,300L541.176,300L564.706,257.143L588.235,300L611.765,300L635.294,214.286L658.824,300L682.353,300L705.882,300L729.412,300L752.941,300L776.471,300L800,300L800,300L776.471,300L752.941,300L729.412,300L705.882,300L682.353,300L658.824,300L635.294,257.143L611.765,300L588.235,300L564.706,257.143L541.176,300L517.647,300L494.118,300L470.588,300L447.059,300L423.529,300L400,300L376.471,257.143L352.941,257.143L329.412,214.286L305.882,300L282.353,257.143L258.824,257.143L235.294,214.286L211.765,257.143L188.235,257.143L164.706,257.143L141.176,300L117.647,300L94.118,300L70.588,300L47.059,300L23.529,300L0,300Z" fill="#bab0ac"/></g></g><path class="foreground" aria-hidden="true" d="" display="none"/></g><g transform="translate(0,0)"><path class="background" aria-hidden="true" d="M0,0h800v300h-800Z"/><g><g class="mark-area role-mark marks" role="graphics-object" aria-roledescription="area mark container"><path aria-label="Date: Mar 16, 2026; Unique Visitors/day: 0; Repository: karlmdavis/perfect-note" role="graphics-symbol" aria-roledescription="area mark" d="M0,300L23.529,300L47.059,300L70.588,300L94.118,300L117.647,300L141.176,300L164.706,257.143L188.235,257.143L211.765,257.143L235.294,214.286L258.824,257.143L282.353,257.143L305.882,300L329.412,214.286L352.941,257.143L376.471,257.143L400,300L423.529,300L447.059,300L470.588,300L494.118,300L517.647,300L541.176,300L564.706,257.143L588.235,300L611.765,300L635.294,257.143L658.824,300L682.353,300L705.882,300L729.412,300L752.941,300L776.471,300L800,300L800,300L776.471,300L752.941,300L729.412,300L705.882,300L682.353,300L658.824,300L635.294,257.143L611.765,300L588.235,300L564.706,257.143L541.176,300L517.647,300L494.118,300L470.588,300L447.059,300L423.529,300L400,300L376.471,257.143L352.941,257.143L329.412,214.286L305.882,300L282.353,257.143L258.824,257.143L235.294,214.286L211.765,257.143L188.235,257.143L164.706,257.143L141.176,300L117.647,300L94.118,300L70.588,300L47.059,300L23.529,300L0,300Z" fill="#4c78a8"/></g></g><path class="foreground" aria-hidden="true" d="" display="none"/></g><g transform="translate(0,0)"><path class="background" aria-hidden="true" d="M0,0h800v300h-800Z"/><g><g class="mark-area role-mark marks" role="graphics-object" aria-roledescription="area mark container"><path aria-label="Date: Mar 16, 2026; Unique Visitors/day: 0; Repository: karlmdavis/puppet-archive" role="graphics-symbol" aria-roledescription="area mark" d="M0,300L23.529,300L47.059,300L70.588,300L94.118,300L117.647,300L141.176,300L164.706,257.143L188.235,257.143L211.765,257.143L235.294,214.286L258.824,257.143L282.353,257.143L305.882,300L329.412,214.286L352.941,257.143L376.471,257.143L400,300L423.529,300L447.059,300L470.588,300L494.118,300L517.647,300L541.176,300L564.706,257.143L588.235,300L611.765,300L635.294,257.143L658.824,300L682.353,300L705.882,300L729.412,300L752.941,300L776.471,300L800,300L800,300L776.471,300L752.941,300L729.412,300L705.882,300L682.353,300L658.824,300L635.294,257.143L611.765,300L588.235,300L564.706,257.143L541.176,300L517.647,300L494.118,300L470.588,300L447.059,300L423.529,300L400,300L376.471,257.143L352.941,257.143L329.412,214.286L305.882,300L282.353,257.143L258.824,257.143L235.294,214.286L211.765,257.143L188.235,257.143L164.706,257.143L141.176,300L117.647,300L94.118,300L70.588,300L47.059,300L23.529,300L0,300Z" fill="#f58518"/></g></g><path class="foreground" aria-hidden="true" d="" display="none"/></g><g transform="translate(0,0)"><path class="background" aria-hidden="true" d="M0,0h800v300h-800Z"/><g><g class="mark-area role-mark marks" role="graphics-object" aria-roledescription="area mark container"><path aria-label="Date: Mar 16, 2026; Unique Visitors/day: 0; Repository: karlmdavis/puppet-sonar" role="graphics-symbol" aria-roledescription="area mark" d="M0,300L23.529,300L47.059,300L70.588,300L94.118,300L117.647,300L141.176,300L164.706,257.143L188.235,257.143L211.765,257.143L235.294,214.286L258.824,257.143L282.353,257.143L305.882,300L329.412,214.286L352.941,257.143L376.471,257.143L400,300L423.529,300L447.059,300L470.588,300L494.118,300L517.647,300L541.176,300L564.706,257.143L588.235,300L611.765,300L635.294,257.143L658.824,300L682.353,300L705.882,300L729.412,300L752.941,300L776.471,300L800,300L800,300L776.471,300L752.941,300L729.412,300L705.882,300L682.353,300L658.824,300L635.294,257.143L611.765,300L588.235,300L564.706,257.143L541.176,300L517.647,300L494.118,300L470.588,300L447.059,300L423.529,300L400,300L376.471,257.143L352.941,257.143L329.412,214.286L305.882,300L282.353,257.143L258.824,257.143L235.294,214.286L211.765,257.143L188.235,257.143L164.706,257.143L141.176,300L117.647,300L94.118,300L70.588,300L47.059,300L23.529,300L0,300Z" fill="#e45756"/></g></g><path class="foreground" aria-hidden="true" d="" display="none"/></g><g transform="translate(0,0)"><path class="background" aria-hidden="true" d="M0,0h800v300h-800Z"/><g><g class="mark-area role-mark marks" role="graphics-object" aria-roledescription="area mark container"><path aria-label="Date: Mar 16, 2026; Unique Visitors/day: 0; Repository: karlmdavis/rps-tourney" role="graphics-symbol" aria-roledescription="area mark" d="M0,300L23.529,300L47.059,300L70.588,300L94.118,300L117.647,300L141.176,300L164.706,257.143L188.235,257.143L211.765,257.143L235.294,214.286L258.824,257.143L282.353,257.143L305.882,300L329.412,214.286L352.941,257.143L376.471,257.143L400,300L423.529,300L447.059,300L470.588,300L494.118,300L517.647,300L541.176,300L564.706,257.143L588.235,300L611.765,300L635.294,257.143L658.824,300L682.353,300L705.882,300L729.412,300L752.941,300L776.471,300L800,300L800,300L776.471,300L752.941,300L729.412,300L705.882,300L682.353,300L658.824,300L635.294,300L611.765,300L588.235,300L564.706,257.143L541.176,300L517.647,300L494.118,300L470.588,300L447.059,300L423.529,300L400,300L376.471,300L352.941,257.143L329.412,214.286L305.882,300L282.353,257.143L258.824,300L235.294,214.286L211.765,257.143L188.235,300L164.706,300L141.176,300L117.647,300L94.118,300L70.588,300L47.059,300L23.529,300L0,300Z" fill="#72b7b2"/></g></g><path class="foreground" aria-hidden="true" d="" display="none"/></g><g transform="translate(0,0)"><path class="background" aria-hidden="true" d="M0,0h800v300h-800Z"/><g><g class="mark-area role-mark marks" role="graphics-object" aria-roledescription="area mark container"><path aria-label="Date: Mar 16, 2026; Unique Visitors/day: 0; Repository: karlmdavis/sample-maven-and-rcp" role="graphics-symbol" aria-roledescription="area mark" d="M0,300L23.529,300L47.059,300L70.588,300L94.118,300L117.647,300L141.176,300L164.706,300L188.235,300L211.765,257.143L235.294,214.286L258.824,300L282.353,257.143L305.882,300L329.412,214.286L352.941,257.143L376.471,300L400,300L423.529,300L447.059,300L470.588,300L494.118,300L517.647,300L541.176,300L564.706,257.143L588.235,300L611.765,300L635.294,300L658.824,300L682.353,300L705.882,300L729.412,300L752.941,300L776.471,300L800,300L800,300L776.471,300L752.941,300L729.412,300L705.882,300L682.353,300L658.824,300L635.294,300L611.765,300L588.235,300L564.706,257.143L541.176,300L517.647,300L494.118,300L470.588,300L447.059,300L423.529,300L400,300L376.471,300L352.941,257.143L329.412,214.286L305.882,300L282.353,257.143L258.824,300L235.294,214.286L211.765,257.143L188.235,300L164.706,300L141.176,300L117.647,300L94.118,300L70.588,300L47.059,300L23.529,300L0,300Z" fill="#54a24b"/></g></g><path class="foreground" aria-hidden="true" d="" display="none"/></g><g transform="translate(0,0)"><path class="background" aria-hidden="true" d="M0,0h800v300h-800Z"/><g><g class="mark-area role-mark marks" role="graphics-object" aria-roledescription="area mark container"><path aria-label="Date: Mar 16, 2026; Unique Visitors/day: 0; Repository: karlmdavis/stockfighter-trades-solutions" role="graphics-symbol" aria-roledescription="area mark" d="M0,300L23.529,300L47.059,300L70.588,300L94.118,300L117.647,300L141.176,300L164.706,300L188.235,300L211.765,257.143L235.294,214.286L258.824,300L282.353,257.143L305.882,300L329.412,214.286L352.941,257.143L376.471,300L400,300L423.529,300L447.059,300L470.588,300L494.118,300L517.647,300L541.176,300L564.706,257.143L588.235,300L611.765,300L635.294,300L658.824,300L682.353,300L705.882,300L729.412,300L752.941,300L776.471,300L800,300L800,300L776.471,300L752.941,300L729.412,300L705.882,300L682.353,300L658.824,300L635.294,300L611.765,300L588.235,300L564.706,257.143L541.176,300L517.647,300L494.118,300L470.588,300L447.059,300L423.529,300L400,300L376.471,300L352.941,257.143L329.412,214.286L305.882,300L282.353,257.143L258.824,300L235.294,214.286L211.765,257.143L188.235,300L164.706,300L141.176,300L117.647,300L94.118,300L70.588,300L47.059,300L23.529,300L0,300Z" fill="#eeca3b"/></g></g><path class="foreground" aria-hidden="true" d="" display="none"/></g><g transform="translate(0,0)"><path class="background" aria-hidden="true" d="M0,0h800v300h-800Z"/><g><g class="mark-area role-mark marks" role="graphics-object" aria-roledescription="area mark container"><path aria-label="Date: Mar 16, 2026; Unique Visitors/day: 0; Repository: karlmdavis/test-repo-for-move" role="graphics-symbol" aria-roledescription="area mark" d="M0,300L23.529,300L47.059,300L70.588,300L94.118,300L117.647,300L141.176,300L164.706,300L188.235,300L211.765,257.143L235.294,214.286L258.824,300L282.353,257.143L305.882,300L329.412,214.286L352.941,257.143L376.471,300L400,300L423.529,300L447.059,300L470.588,300L494.118,300L517.647,300L541.176,300L564.706,257.143L588.235,300L611.765,300L635.294,300L658.824,300L682.353,300L705.882,300L729.412,300L752.941,300L776.471,300L800,300L800,300L776.471,300L752.941,300L729.412,300L705.882,300L682.353,300L658.824,300L635.294,300L611.765,300L588.235,300L564.706,257.143L541.176,300L517.647,300L494.118,300L470.588,300L447.059,300L423.529,300L400,300L376.471,300L352.941,257.143L329.412,214.286L305.882,300L282.353,257.143L258.824,300L235.294,214.286L211.765,257.143L188.235,300L164.706,300L141.176,300L117.647,300L94.118,300L70.588,300L47.059,300L23.529,300L0,300Z" fill="#b279a2"/></g></g><path class="foreground" aria-hidden="true" d="" display="none"/></g><g transform="translate(0,0)"><path class="background" aria-hidden="true" d="M0,0h800v300h-800Z"/><g><g class="mark-area role-mark marks" role="graphics-object" aria-roledescription="area mark container"><path aria-label="Date: Mar 16, 2026; Unique Visitors/day: 0; Repository: karlmdavis/todoist-ai" role="graphics-symbol" aria-roledescription="area mark" d="M0,300L23.529,300L47.059,300L70.588,300L94.118,300L117.647,300L141.176,300L164.706,300L188.235,300L211.765,257.143L235.294,214.286L258.824,300L282.353,257.143L305.882,300L329.412,214.286L352.941,257.143L376.471,300L400,300L423.529,300L447.059,300L470.588,300L494.118,300L517.647,300L541.176,300L564.706,257.143L588.235,300L611.765,300L635.294,300L658.824,300L682.353,300L705.882,300L729.412,300L752.941,300L776.471,300L800,300L800,300L776.471,300L752.941,300L729.412,300L705.882,300L682.353,300L658.824,300L635.294,300L611.765,300L588.235,300L564.706,257.143L541.176,300L517.647,300L494.118,300L470.588,300L447.059,300L423.529,300L400,300L376.471,300L352.941,257.143L329.412,257.143L305.882,300L282.353,257.143L258.824,300L235.294,214.286L211.765,257.143L188.235,300L164.706,300L141.176,300L117.647,300L94.118,300L70.588,300L47.059,300L23.529,300L0,300Z" fill="#ff9da6"/></g></g><path class="foreground" aria-hidden="true" d="" display="none"/></g><g transform="translate(0,0)"><path class="background" aria-hidden="true" d="M0,0h800v300h-800Z"/><g><g class="mark-area role-mark marks" role="graphics-object" aria-roledescription="area mark container"><path aria-label="Date: Mar 16, 2026; Unique Visitors/day: 0; Repository: karlmdavis/usgs-water-api-java" role="graphics-symbol" aria-roledescription="area mark" d="M0,300L23.529,300L47.059,300L70.588,300L94.118,300L117.647,300L141.176,300L164.706,300L188.235,300L211.765,257.143L235.294,214.286L258.824,300L282.353,257.143L305.882,300L329.412,257.143L352.941,257.143L376.471,300L400,300L423.529,300L447.059,300L470.588,300L494.118,300L517.647,300L541.176,300L564.706,257.143L588.235,300L611.765,300L635.294,300L658.824,300L682.353,300L705.882,300L729.412,300L752.941,300L776.471,300L800,300L800,300L776.471,300L752.941,300L729.412,300L705.882,300L682.353,300L658.824,300L635.294,300L611.765,300L588.235,300L564.706,257.143L541.176,300L517.647,300L494.118,300L470.588,300L447.059,300L423.529,300L400,300L376.471,300L352.941,257.143L329.412,257.143L305.882,300L282.353,257.143L258.824,300L235.294,214.286L211.765,257.143L188.235,300L164.706,300L141.176,300L117.647,300L94.118,300L70.588,300L47.059,300L23.529,300L0,300Z" fill="#9d755d"/></g></g><path class="foreground" aria-hidden="true" d="" display="none"/></g><g transform="translate(0,0)"><path class="background" aria-hidden="true" d="M0,0h800v300h-800Z"/><g><g class="mark-area role-mark marks" role="graphics-object" aria-roledescription="area mark container"><path aria-label="Date: Mar 16, 2026; Unique Visitors/day: 0; Repository: karlmdavis/workstation-base-ansible-role" role="graphics-symbol" aria-roledescription="area mark" d="M0,300L23.529,300L47.059,300L70.588,300L94.118,300L117.647,300L141.176,300L164.706,300L188.235,300L211.765,257.143L235.294,214.286L258.824,300L282.353,257.143L305.882,300L329.412,257.143L352.941,257.143L376.471,300L400,300L423.529,300L447.059,300L470.588,300L494.118,300L517.647,300L541.176,300L564.706,257.143L588.235,300L611.765,300L635.294,300L658.824,300L682.353,300L705.882,300L729.412,300L752.941,300L776.471,300L800,300L800,300L776.471,300L752.941,300L729.412,300L705.882,300L682.353,300L658.824,300L635.294,300L611.765,300L588.235,300L564.706,257.143L541.176,300L517.647,300L494.118,300L470.588,300L447.059,300L423.529,300L400,300L376.471,300L352.941,257.143L329.412,257.143L305.882,300L282.353,257.143L258.824,300L235.294,214.286L211.765,257.143L188.235,300L164.706,300L141.176,300L117.647,300L94.118,300L70.588,300L47.059,300L23.529,300L0,300Z" fill="#bab0ac"/></g></g><path class="foreground" aria-hidden="true" d="" display="none"/></g><g transform="translate(0,0)"><path class="background" aria-hidden="true" d="M0,0h800v300h-800Z"/><g><g class="mark-area role-mark marks" role="graphics-object" aria-roledescription="area mark container"><path aria-label="Date: Mar 16, 2026; Unique Visitors/day: 0; Repository: karlmdavis/xmlpull" role="graphics-symbol" aria-roledescription="area mark" d="M0,300L23.529,300L47.059,300L70.588,300L94.118,300L117.647,300L141.176,300L164.706,300L188.235,300L211.765,257.143L235.294,214.286L258.824,300L282.353,257.143L305.882,300L329.412,257.143L352.941,257.143L376.471,300L400,300L423.529,300L447.059,300L470.588,300L494.118,300L517.647,300L541.176,300L564.706,257.143L588.235,300L611.765,300L635.294,300L658.824,300L682.353,300L705.882,300L729.412,300L752.941,300L776.471,300L800,300L800,300L776.471,300L752.941,300L729.412,300L705.882,300L682.353,300L658.824,300L635.294,300L611.765,300L588.235,300L564.706,300L541.176,300L517.647,300L494.118,300L470.588,300L447.059,300L423.529,300L400,300L376.471,300L352.941,300L329.412,300L305.882,300L282.353,300L258.824,300L235.294,300L211.765,300L188.235,300L164.706,300L141.176,300L117.647,300L94.118,300L70.588,300L47.059,300L23.529,300L0,300Z" fill="#4c78a8"/></g></g><path class="foreground" aria-hidden="true" d="" display="none"/></g></g><g class="mark-group role-legend" role="graphics-symbol" aria-roledescription="legend" aria-label="Symbol legend titled 'Repository' for fill color with 41 values: karlmdavis/FHIR-Server, karlmdavis/ansible, karlmdavis/ansible-jenkins, karlmdavis/ansible-role-acmetool, karlmdavis/ansible-role-bind-dns, ending with karlmdavis/xmlpull"><g transform="translate(818,0)"><path class="background" aria-hidden="true" d="M0,0h176v404h-176Z" pointer-events="none"/><g><g class="mark-group role-legend-entry"><g transform="translate(0,16)"><path class="background" aria-hidden="true" d="M0,0h0v0h0Z" pointer-events="none"/><g><g class="mark-group role-scope" role="graphics-object" aria-roledescription="group mark container"><g transform="translate(0,0)"><path class="background" aria-hidden="true" d="M0,0h176v11h-176Z" pointer-events="none" opacity="1"/><g><g class="mark-symbol role-legend-symbol" pointer-events="none"><path transform="translate(6,6)" d="M5,0A5,5,0,1,1,-5,0A5,5,0,1,1,5,0" fill="#4c78a8" stroke-width="1.5" opacity="1"/></g><g class="mark-text role-legend-label" pointer-events="none"><text text-anchor="start" transform="translate(16,9)" font-family="sans-serif" font-size="10px" fill="#000" opacity="1">karlmdavis/FHIR-Server</text></g></g><path class="foreground" aria-hidden="true" d="" pointer-events="none" display="none"/></g><g transform="translate(0,13)"><path class="background" aria-hidden="true" d="M0,0h176v11h-176Z" pointer-events="none" opacity="1"/><g><g class="mark-symbol role-legend-symbol" pointer-events="none"><path transform="translate(6,6)" d="M5,0A5,5,0,1,1,-5,0A5,5,0,1,1,5,0" fill="#f58518" stroke-width="1.5" opacity="1"/></g><g class="mark-text role-legend-label" pointer-events="none"><text text-anchor="start" transform="translate(16,9)" font-family="sans-serif" font-size="10px" fill="#000" opacity="1">karlmdavis/ansible</text></g></g><path class="foreground" aria-hidden="true" d="" pointer-events="none" display="none"/></g><g transform="translate(0,26)"><path class="background" aria-hidden="true" d="M0,0h176v11h-176Z" pointer-events="none" opacity="1"/><g><g class="mark-symbol role-legend-symbol" pointer-events="none"><path transform="translate(6,6)" d="M5,0A5,5,0,1,1,-5,0A5,5,0,1,1,5,0" fill="#e45756" stroke-width="1.5" opacity="1"/></g><g class="mark-text role-legend-label" pointer-events="none"><text text-anchor="start" transform="translate(16,9)" font-family="sans-serif" font-size="10px" fill="#000" opacity="1">karlmdavis/ansible-jenkins</text></g></g><path class="foreground" aria-hidden="true" d="" pointer-events="none" display="none"/></g><g transform="translate(0,39)"><path class="background" aria-hidden="true" d="M0,0h176v11h-176Z" pointer-events="none" opacity="1"/><g><g class="mark-symbol role-legend-symbol" pointer-events="none"><path transform="translate(6,6)" d="M5,0A5,5,0,1,1,-5,0A5,5,0,1,1,5,0" fill="#72b7b2" stroke-width="1.5" opacity="1"/></g><g class="mark-text role-legend-label" pointer-events="none"><text text-anchor="start" transform="translate(16,9)" font-family="sans-serif" font-size="10px" fill="#000" opacity="1">karlmdavis/ansible-role-acmetool</text></g></g><path class="foreground" aria-hidden="true" d="" pointer-events="none" display="none"/></g><g transform="translate(0,52)"><path class="background" aria-hidden="true" d="M0,0h176v11h-176Z" pointer-events="none" opacity="1"/><g><g class="mark-symbol role-legend-symbol" pointer-events="none"><path transform="translate(6,6)" d="M5,0A5,5,0,1,1,-5,0A5,5,0,1,1,5,0" fill="#54a24b" stroke-width="1.5" opacity="1"/></g><g class="mark-text role-legend-label" pointer-events="none"><text text-anchor="start" transform="translate(16,9)" font-family="sans-serif" font-size="10px" fill="#000" opacity="1">karlmdavis/ansible-role-bind-dns</text></g></g><path class="foreground" aria-hidden="true" d="" pointer-events="none" display="none"/></g><g transform="translate(0,65)"><path class="background" aria-hidden="true" d="M0,0h176v11h-176Z" pointer-events="none" opacity="1"/><g><g class="mark-symbol role-legend-symbol" pointer-events="none"><path transform="translate(6,6)" d="M5,0A5,5,0,1,1,-5,0A5,5,0,1,1,5,0" fill="#eeca3b" stroke-width="1.5" opacity="1"/></g><g class="mark-text role-legend-label" pointer-events="none"><text text-anchor="start" transform="translate(16,9)" font-family="sans-serif" font-size="10px" fill="#000" opacity="1">karlmdavis/ansible-role-jenkins2</text></g></g><path class="foreground" aria-hidden="true" d="" pointer-events="none" display="none"/></g><g transform="translate(0,78)"><path class="background" aria-hidden="true" d="M0,0h176v11h-176Z" pointer-events="none" opacity="1"/><g><g class="mark-symbol role-legend-symbol" pointer-events="none"><path transform="translate(6,6)" d="M5,0A5,5,0,1,1,-5,0A5,5,0,1,1,5,0" fill="#b279a2" stroke-width="1.5" opacity="1"/></g><g class="mark-text role-legend-label" pointer-events="none"><text text-anchor="start" transform="translate(16,9)" font-family="sans-serif" font-size="10px" fill="#000" opacity="1">karlmdavis/ansible-role-ldap</text></g></g><path class="foreground" aria-hidden="true" d="" pointer-events="none" display="none"/></g><g transform="translate(0,91)"><path class="background" aria-hidden="true" d="M0,0h176v11h-176Z" pointer-events="none" opacity="1"/><g><g class="mark-symbol role-legend-symbol" pointer-events="none"><path transform="translate(6,6)" d="M5,0A5,5,0,1,1,-5,0A5,5,0,1,1,5,0" fill="#ff9da6" stroke-width="1.5" opacity="1"/></g><g class="mark-text role-legend-label" pointer-events="none"><text text-anchor="start" transform="translate(16,9)" font-family="sans-serif" font-size="10px" fill="#000" opacity="1">karlmdavis/ansible-role-rcm-dotfiles</text></g></g><path class="foreground" aria-hidden="true" d="" pointer-events="none" display="none"/></g><g transform="translate(0,104)"><path class="background" aria-hidden="true" d="M0,0h176v11h-176Z" pointer-events="none" opacity="1"/><g><g class="mark-symbol role-legend-symbol" pointer-events="none"><path transform="translate(6,6)" d="M5,0A5,5,0,1,1,-5,0A5,5,0,1,1,5,0" fill="#9d755d" stroke-width="1.5" opacity="1"/></g><g class="mark-text role-legend-label" pointer-events="none"><text text-anchor="start" transform="translate(16,9)" font-family="sans-serif" font-size="10px" fill="#000" opacity="1">karlmdavis/ansible-roles</text></g></g><path class="foreground" aria-hidden="true" d="" pointer-events="none" display="none"/></g><g transform="translate(0,117)"><path class="background" aria-hidden="true" d="M0,0h176v11h-176Z" pointer-events="none" opacity="1"/><g><g class="mark-symbol role-legend-symbol" pointer-events="none"><path transform="translate(6,6)" d="M5,0A5,5,0,1,1,-5,0A5,5,0,1,1,5,0" fill="#bab0ac" stroke-width="1.5" opacity="1"/></g><g class="mark-text role-legend-label" pointer-events="none"><text text-anchor="start" transform="translate(16,9)" font-family="sans-serif" font-size="10px" fill="#000" opacity="1">karlmdavis/bbonfhir-dev-infra-doc…</text></g></g><path class="foreground" aria-hidden="true" d="" pointer-events="none" display="none"/></g><g transform="translate(0,130)"><path class="background" aria-hidden="true" d="M0,0h176v11h-176Z" pointer-events="none" opacity="1"/><g><g class="mark-symbol role-legend-symbol" pointer-events="none"><path transform="translate(6,6)" d="M5,0A5,5,0,1,1,-5,0A5,5,0,1,1,5,0" fill="#4c78a8" stroke-width="1.5" opacity="1"/></g><g class="mark-text role-legend-label" pointer-events="none"><text text-anchor="start" transform="translate(16,9)" font-family="sans-serif" font-size="10px" fill="#000" opacity="1">karlmdavis/can-i-kayak-baltimore</text></g></g><path class="foreground" aria-hidden="true" d="" pointer-events="none" display="none"/></g><g transform="translate(0,143)"><path class="background" aria-hidden="true" d="M0,0h176v11h-176Z" pointer-events="none" opacity="1"/><g><g class="mark-symbol role-legend-symbol" pointer-events="none"><path transform="translate(6,6)" d="M5,0A5,5,0,1,1,-5,0A5,5,0,1,1,5,0" fill="#f58518" stroke-width="1.5" opacity="1"/></g><g class="mark-text role-legend-label" pointer-events="none"><text text-anchor="start" transform="translate(16,9)" font-family="sans-serif" font-size="10px" fill="#000" opacity="1">karlmdavis/datanucleus-test-jdo-1…</text></g></g><path class="foreground" aria-hidden="true" d="" pointer-events="none" display="none"/></g><g transform="translate(0,156)"><path class="background" aria-hidden="true" d="M0,0h176v11h-176Z" pointer-events="none" opacity="1"/><g><g class="mark-symbol role-legend-symbol" pointer-events="none"><path transform="translate(6,6)" d="M5,0A5,5,0,1,1,-5,0A5,5,0,1,1,5,0" fill="#e45756" stroke-width="1.5" opacity="1"/></g><g class="mark-text role-legend-label" pointer-events="none"><text text-anchor="start" transform="translate(16,9)" font-family="sans-serif" font-size="10px" fill="#000" opacity="1">karlmdavis/dotfiles</text></g></g><path class="foreground" aria-hidden="true" d="" pointer-events="none" display="none"/></g><g transform="translate(0,169)"><path class="background" aria-hidden="true" d="M0,0h176v11h-176Z" pointer-events="none" opacity="1"/><g><g class="mark-symbol role-legend-symbol" pointer-events="none"><path transform="translate(6,6)" d="M5,0A5,5,0,1,1,-5,0A5,5,0,1,1,5,0" fill="#72b7b2" stroke-width="1.5" opacity="1"/></g><g class="mark-text role-legend-label" pointer-events="none"><text text-anchor="start" transform="translate(16,9)" font-family="sans-serif" font-size="10px" fill="#000" opacity="1">karlmdavis/fhir-benchmarks</text></g></g><path class="foreground" aria-hidden="true" d="" pointer-events="none" display="none"/></g><g transform="translate(0,182)"><path class="background" aria-hidden="true" d="M0,0h176v11h-176Z" pointer-events="none" opacity="1"/><g><g class="mark-symbol role-legend-symbol" pointer-events="none"><path transform="translate(6,6)" d="M5,0A5,5,0,1,1,-5,0A5,5,0,1,1,5,0" fill="#54a24b" stroke-width="1.5" opacity="1"/></g><g class="mark-text role-legend-label" pointer-events="none"><text text-anchor="start" transform="translate(16,9)" font-family="sans-serif" font-size="10px" fill="#000" opacity="1">karlmdavis/hapi-fhir-jpaserver-sta…</text></g></g><path class="foreground" aria-hidden="true" d="" pointer-events="none" display="none"/></g><g transform="translate(0,195)"><path class="background" aria-hidden="true" d="M0,0h176v11h-176Z" pointer-events="none" opacity="1"/><g><g class="mark-symbol role-legend-symbol" pointer-events="none"><path transform="translate(6,6)" d="M5,0A5,5,0,1,1,-5,0A5,5,0,1,1,5,0" fill="#eeca3b" stroke-width="1.5" opacity="1"/></g><g class="mark-text role-legend-label" pointer-events="none"><text text-anchor="start" transform="translate(16,9)" font-family="sans-serif" font-size="10px" fill="#000" opacity="1">karlmdavis/hello-rust-actix</text></g></g><path class="foreground" aria-hidden="true" d="" pointer-events="none" display="none"/></g><g transform="translate(0,208)"><path class="background" aria-hidden="true" d="M0,0h176v11h-176Z" pointer-events="none" opacity="1"/><g><g class="mark-symbol role-legend-symbol" pointer-events="none"><path transform="translate(6,6)" d="M5,0A5,5,0,1,1,-5,0A5,5,0,1,1,5,0" fill="#b279a2" stroke-width="1.5" opacity="1"/></g><g class="mark-text role-legend-label" pointer-events="none"><text text-anchor="start" transform="translate(16,9)" font-family="sans-serif" font-size="10px" fill="#000" opacity="1">karlmdavis/jessentials</text></g></g><path class="foreground" aria-hidden="true" d="" pointer-events="none" display="none"/></g><g transform="translate(0,221)"><path class="background" aria-hidden="true" d="M0,0h176v11h-176Z" pointer-events="none" opacity="1"/><g><g class="mark-symbol role-legend-symbol" pointer-events="none"><path transform="translate(6,6)" d="M5,0A5,5,0,1,1,-5,0A5,5,0,1,1,5,0" fill="#ff9da6" stroke-width="1.5" opacity="1"/></g><g class="mark-text role-legend-label" pointer-events="none"><text text-anchor="start" transform="translate(16,9)" font-family="sans-serif" font-size="10px" fill="#000" opacity="1">karlmdavis/justdavis-ansible</text></g></g><path class="foreground" aria-hidden="true" d="" pointer-events="none" display="none"/></g><g transform="translate(0,234)"><path class="background" aria-hidden="true" d="M0,0h176v11h-176Z" pointer-events="none" opacity="1"/><g><g class="mark-symbol role-legend-symbol" pointer-events="none"><path transform="translate(6,6)" d="M5,0A5,5,0,1,1,-5,0A5,5,0,1,1,5,0" fill="#9d755d" stroke-width="1.5" opacity="1"/></g><g class="mark-text role-legend-label" pointer-events="none"><text text-anchor="start" transform="translate(16,9)" font-family="sans-serif" font-size="10px" fill="#000" opacity="1">karlmdavis/justdavis-finances</text></g></g><path class="foreground" aria-hidden="true" d="" pointer-events="none" display="none"/></g><g transform="translate(0,247)"><path class="background" aria-hidden="true" d="M0,0h176v11h-176Z" pointer-events="none" opacity="1"/><g><g class="mark-symbol role-legend-symbol" pointer-events="none"><path transform="translate(6,6)" d="M5,0A5,5,0,1,1,-5,0A5,5,0,1,1,5,0" fill="#bab0ac" stroke-width="1.5" opacity="1"/></g><g class="mark-text role-legend-label" pointer-events="none"><text text-anchor="start" transform="translate(16,9)" font-family="sans-serif" font-size="10px" fill="#000" opacity="1">karlmdavis/justdavis-karl</text></g></g><path class="foreground" aria-hidden="true" d="" pointer-events="none" display="none"/></g><g transform="translate(0,260)"><path class="background" aria-hidden="true" d="M0,0h176v11h-176Z" pointer-events="none" opacity="1"/><g><g class="mark-symbol role-legend-symbol" pointer-events="none"><path transform="translate(6,6)" d="M5,0A5,5,0,1,1,-5,0A5,5,0,1,1,5,0" fill="#4c78a8" stroke-width="1.5" opacity="1"/></g><g class="mark-text role-legend-label" pointer-events="none"><text text-anchor="start" transform="translate(16,9)" font-family="sans-serif" font-size="10px" fill="#000" opacity="1">karlmdavis/justdavis-puppet</text></g></g><path class="foreground" aria-hidden="true" d="" pointer-events="none" display="none"/></g><g transform="translate(0,273)"><path class="background" aria-hidden="true" d="M0,0h176v11h-176Z" pointer-events="none" opacity="1"/><g><g class="mark-symbol role-legend-symbol" pointer-events="none"><path transform="translate(6,6)" d="M5,0A5,5,0,1,1,-5,0A5,5,0,1,1,5,0" fill="#f58518" stroke-width="1.5" opacity="1"/></g><g class="mark-text role-legend-label" pointer-events="none"><text text-anchor="start" transform="translate(16,9)" font-family="sans-serif" font-size="10px" fill="#000" opacity="1">karlmdavis/kobjects</text></g></g><path class="foreground" aria-hidden="true" d="" pointer-events="none" display="none"/></g><g transform="translate(0,286)"><path class="background" aria-hidden="true" d="M0,0h176v11h-176Z" pointer-events="none" opacity="1"/><g><g class="mark-symbol role-legend-symbol" pointer-events="none"><path transform="translate(6,6)" d="M5,0A5,5,0,1,1,-5,0A5,5,0,1,1,5,0" fill="#e45756" stroke-width="1.5" opacity="1"/></g><g class="mark-text role-legend-label" pointer-events="none"><text text-anchor="start" transform="translate(16,9)" font-family="sans-serif" font-size="10px" fill="#000" opacity="1">karlmdavis/ksoap2-android</text></g></g><path class="foreground" aria-hidden="true" d="" pointer-events="none" display="none"/></g><g transform="translate(0,299)"><path class="background" aria-hidden="true" d="M0,0h176v11h-176Z" pointer-events="none" opacity="1"/><g><g class="mark-symbol role-legend-symbol" pointer-events="none"><path transform="translate(6,6)" d="M5,0A5,5,0,1,1,-5,0A5,5,0,1,1,5,0" fill="#72b7b2" stroke-width="1.5" opacity="1"/></g><g class="mark-text role-legend-label" pointer-events="none"><text text-anchor="start" transform="translate(16,9)" font-family="sans-serif" font-size="10px" fill="#000" opacity="1">karlmdavis/kxml2</text></g></g><path class="foreground" aria-hidden="true" d="" pointer-events="none" display="none"/></g><g transform="translate(0,312)"><path class="background" aria-hidden="true" d="M0,0h176v11h-176Z" pointer-events="none" opacity="1"/><g><g class="mark-symbol role-legend-symbol" pointer-events="none"><path transform="translate(6,6)" d="M5,0A5,5,0,1,1,-5,0A5,5,0,1,1,5,0" fill="#54a24b" stroke-width="1.5" opacity="1"/></g><g class="mark-text role-legend-label" pointer-events="none"><text text-anchor="start" transform="translate(16,9)" font-family="sans-serif" font-size="10px" fill="#000" opacity="1">karlmdavis/ldap-plugin</text></g></g><path class="foreground" aria-hidden="true" d="" pointer-events="none" display="none"/></g><g transform="translate(0,325)"><path class="background" aria-hidden="true" d="M0,0h176v11h-176Z" pointer-events="none" opacity="1"/><g><g class="mark-symbol role-legend-symbol" pointer-events="none"><path transform="translate(6,6)" d="M5,0A5,5,0,1,1,-5,0A5,5,0,1,1,5,0" fill="#eeca3b" stroke-width="1.5" opacity="1"/></g><g class="mark-text role-legend-label" pointer-events="none"><text text-anchor="start" transform="translate(16,9)" font-family="sans-serif" font-size="10px" fill="#000" opacity="1">karlmdavis/lego-ev3dev-rs</text></g></g><path class="foreground" aria-hidden="true" d="" pointer-events="none" display="none"/></g><g transform="translate(0,338)"><path class="background" aria-hidden="true" d="M0,0h176v11h-176Z" pointer-events="none" opacity="1"/><g><g class="mark-symbol role-legend-symbol" pointer-events="none"><path transform="translate(6,6)" d="M5,0A5,5,0,1,1,-5,0A5,5,0,1,1,5,0" fill="#b279a2" stroke-width="1.5" opacity="1"/></g><g class="mark-text role-legend-label" pointer-events="none"><text text-anchor="start" transform="translate(16,9)" font-family="sans-serif" font-size="10px" fill="#000" opacity="1">karlmdavis/liquibase</text></g></g><path class="foreground" aria-hidden="true" d="" pointer-events="none" display="none"/></g><g transform="translate(0,351)"><path class="background" aria-hidden="true" d="M0,0h176v11h-176Z" pointer-events="none" opacity="1"/><g><g class="mark-symbol role-legend-symbol" pointer-events="none"><path transform="translate(6,6)" d="M5,0A5,5,0,1,1,-5,0A5,5,0,1,1,5,0" fill="#ff9da6" stroke-width="1.5" opacity="1"/></g><g class="mark-text role-legend-label" pointer-events="none"><text text-anchor="start" transform="translate(16,9)" font-family="sans-serif" font-size="10px" fill="#000" opacity="1">karlmdavis/m2e-core</text></g></g><path class="foreground" aria-hidden="true" d="" pointer-events="none" display="none"/></g><g transform="translate(0,364)"><path class="background" aria-hidden="true" d="M0,0h176v11h-176Z" pointer-events="none" opacity="1"/><g><g class="mark-symbol role-legend-symbol" pointer-events="none"><path transform="translate(6,6)" d="M5,0A5,5,0,1,1,-5,0A5,5,0,1,1,5,0" fill="#9d755d" stroke-width="1.5" opacity="1"/></g><g class="mark-text role-legend-label" pointer-events="none"><text text-anchor="start" transform="translate(16,9)" font-family="sans-serif" font-size="10px" fill="#000" opacity="1">karlmdavis/m2e-core-tests</text></g></g><path class="foreground" aria-hidden="true" d="" pointer-events="none" display="none"/></g><g transform="translate(0,377)"><path class="background" aria-hidden="true" d="M0,0h176v11h-176Z" pointer-events="none" opacity="1"/><g><g class="mark-symbol role-legend-symbol" pointer-events="none"><path transform="translate(6,6)" d="M5,0A5,5,0,1,1,-5,0A5,5,0,1,1,5,0" fill="#bab0ac" stroke-width="1.5" opacity="1"/></g><g class="mark-text role-legend-label" pointer-events="none"><text text-anchor="start" transform="translate(16,9)" font-family="sans-serif" font-size="10px" fill="#000" opacity="1">…12 entries</text></g></g><path class="foreground" aria-hidden="true" d="" pointer-events="none" display="none"/></g></g></g><path class="foreground" aria-hidden="true" d="" pointer-events="none" display="none"/></g></g><g class="mark-text role-legend-title" pointer-events="none"><text text-anchor="start" transform="translate(0,9)" font-family="sans-serif" font-size="11px" font-weight="bold" fill="#000" opacity="1">Repository</text></g></g><path class="foreground" aria-hidden="true" d="" pointer-events="none" display="none"/></g></g><g class="mark-group role-title"><g transform="translate(400,-22)"><path class="background" aria-hidden="true" d="M0,0h0v0h0Z" pointer-events="none"/><g><g class="mark-text role-title-text" role="graphics-symbol" aria-roledescription="title" aria-label="Title text 'Unique Visitors per Day'" pointer-events="none"><text text-anchor="middle" transform="translate(0,10)" font-family="sans-serif" font-size="13px" font-weight="bold" fill="#000" opacity="1">Unique Visitors per Day</text></g></g><path class="foreground" aria-hidden="true" d="" pointer-events="none" display="none"/></g></g></g><path class="foreground" aria-hidden="true" d="" display="none"/></g></g></g></svg>