<svg xmlns="http://www.w3.org/2000/svg" xmlns:xlink="http://www.w3.org/1999/xlink" version="1.1" class="marks" width="1043" height="436" viewBox="0 0 1043 436"><rect width="1043" height="436" fill="white"/><g fill="none" stroke-miterlimit="10" transform="translate(44,27)"><g class="mark-group role-frame root" role="graphics-object" aria-roledescription="group mark container"><g transform="translate(0,0)"><path class="background" aria-hidden="true" d="M0.5,0.5h800v300h-800Z" stroke="#ddd"/><g><g class="mark-group role-axis" aria-hidden="true"><g transform="translate(0.5,300.5)"><path class="background" aria-hidden="true" d="M0,0h0v0h0Z" pointer-events="none"/><g><g class="mark-rule role-axis-grid" pointer-events="none"><line transform="translate(26,-300)" x2="0" y2="300" stroke="#ddd" stroke-width="1" opacity="1"/><line transform="translate(77,-300)" x2="0" y2="300" stroke="#ddd" stroke-width="1" opacity="1"/><line transform="translate(129,-300)" x2="0" y2="300" stroke="#ddd" stroke-width="1" opacity="1"/><line transform="translate(181,-300)" x2="0" y2="300" stroke="#ddd" stroke-width="1" opacity="1"/><line transform="translate(232,-300)" x2="0" y2="300" stroke="#ddd" stroke-width="1" opacity="1"/><line transform="translate(284,-300)" x2="0" y2="300" stroke="#ddd" stroke-width="1" opacity="1"/><line transform="translate(335,-300)" x2="0" y2="300" stroke="#ddd" stroke-width="1" opacity="1"/><line transform="translate(387,-300)" x2="0" y2="300" stroke="#ddd" stroke-width="1" opacity="1"/><line transform="translate(413,-300)" x2="0" y2="300" stroke="#ddd" stroke-width="1" opacity="1"/><line transform="translate(465,-300)" x2="0" y2="300" stroke="#ddd" stroke-width="1" opacity="1"/><line transform="translate(516,-300)" x2="0" y2="300" stroke="#ddd" stroke-width="1" opacity="1"/><line transform="translate(568,-300)" x2="0" y2="300" stroke="#ddd" stroke-width="1" opacity="1"/><line transform="translate(619,-300)" x2="0" y2="300" stroke="#ddd" stroke-width="1" opacity="1"/><line transform="translate(671,-300)" x2="0" y2="300" stroke="#ddd" stroke-width="1" opacity="1"/><line transform="translate(723,-300)" x2="0" y2="300" stroke="#ddd" stroke-width="1" opacity="1"/><line transform="translate(774,-300)" x2="0" y2="300" stroke="#ddd" stroke-width="1" opacity="1"/></g></g><path class="foreground" aria-hidden="true" d="" pointer-events="none" display="none"/></g></g><g class="mark-group role-axis" aria-hidden="true"><g transform="translate(0.5,0.5)"><path class="background" aria-hidden="true" d="M0,0h0v0h0Z" pointer-events="none"/><g><g class="mark-rule role-axis-grid" pointer-events="none"><line transform="translate(0,300)" x2="800" y2="0" stroke="#ddd" stroke-width="1" opacity="1"/><line transform="translate(0,270)" x2="800" y2="0" stroke="#ddd" stroke-width="1" opacity="1"/><line transform="translate(0,240)" x2="800" y2="0" stroke="#ddd" stroke-width="1" opacity="1"/><line transform="translate(0,210)" x2="800" y2="0" stroke="#ddd" stroke-width="1" opacity="1"/><line transform="translate(0,180)" x2="800" y2="0" stroke="#ddd" stroke-width="1" opacity="1"/><line transform="translate(0,150)" x2="800" y2="0" stroke="#ddd" stroke-width="1" opacity="1"/><line transform="translate(0,120)" x2="800" y2="0" stroke="#ddd" stroke-width="1" opacity="1"/><line transform="translate(0,90)" x2="800" y2="0" stroke="#ddd" stroke-width="1" opacity="1"/><line transform="translate(0,60)" x2="800" y2="0" stroke="#ddd" stroke-width="1" opacity="1"/><line transform="translate(0,30)" x2="800" y2="0" stroke="#ddd" stroke-width="1" opacity="1"/><line transform="translate(0,0)" x2="800" y2="0" stroke="#ddd" stroke-width="1" opacity="1"/></g></g><path class="foreground" aria-hidden="true" d="" pointer-events="none" display="none"/></g></g><g class="mark-group role-axis" role="graphics-symbol" aria-roledescription="axis" aria-label="X-axis titled 'Date' for a time scale with values from Monday, 16 March 2026, 12:00:00 AM to Thursday, 16 April 2026, 12:00:00 AM"><g transform="translate(0.5,300.5)"><path class="background" aria-hidden="true" d="M0,0h0v0h0Z" pointer-events="none"/><g><g class="mark-rule role-axis-tick" pointer-events="none"><line transform="translate(26,0)" x2="0" y2="5" stroke="#888" stroke-width="1" opacity="1"/><line transform="translate(77,0)" x2="0" y2="5" stroke="#888" stroke-width="1" opacity="1"/><line transform="translate(129,0)" x2="0" y2="5" stroke="#888" stroke-width="1" opacity="1"/><line transform="translate(181,0)" x2="0" y2="5" stroke="#888" stroke-width="1" opacity="1"/><line transform="translate(232,0)" x2="0" y2="5" stroke="#888" stroke-width="1" opacity="1"/><line transform="translate(284,0)" x2="0" y2="5" stroke="#888" stroke-width="1" opacity="1"/><line transform="translate(335,0)" x2="0" y2="5" stroke="#888" stroke-width="1" opacity="1"/><line transform="translate(387,0)" x2="0" y2="5" stroke="#888" stroke-width="1" opacity="1"/><line transform="translate(413,0)" x2="0" y2="5" stroke="#888" stroke-width="1" opacity="1"/><line transform="translate(465,0)" x2="0" y2="5" stroke="#888" stroke-width="1" opacity="1"/><line transform="translate(516,0)" x2="0" y2="5" stroke="#888" stroke-width="1" opacity="1"/><line transform="translate(568,0)" x2="0" y2="5" stroke="#888" stroke-width="1" opacity="1"/><line transform="translate(619,0)" x2="0" y2="5" stroke="#888" stroke-width="1" opacity="1"/><line transform="translate(671,0)" x2="0" y2="5" stroke="#888" stroke-width="1" opacity="1"/><line transform="translate(723,0)" x2="0" y2="5" stroke="#888" stroke-width="1" opacity="1"/><line transform="translate(774,0)" x2="0" y2="5" stroke="#888" stroke-width="1" opacity="1"/></g><g class="mark-text role-axis-label" pointer-events="none"><text text-anchor="middle" transform="translate(25.806451612903224,15)" font-family="sans-serif" font-size="10px" fill="#000" opacity="1">Tue 17</text><text text-anchor="middle" transform="translate(77.41935483870968,15)" font-family="sans-serif" font-size="10px" fill="#000" opacity="1">Thu 19</text><text text-anchor="middle" transform="translate(129.03225806451613,15)" font-family="sans-serif" font-size="10px" fill="#000" opacity="1">Sat 21</text><text text-anchor="middle" transform="translate(180.64516129032256,15)" font-family="sans-serif" font-size="10px" fill="#000" opacity="1">Mon 23</text><text text-anchor="middle" transform="translate(232.25806451612905,15)" font-family="sans-serif" font-size="10px" fill="#000" opacity="1">Wed 25</text><text text-anchor="middle" transform="translate(283.8709677419355,15)" font-family="sans-serif" font-size="10px" fill="#000" opacity="1">Fri 27</text><text text-anchor="middle" transform="translate(335.48387096774195,15)" font-family="sans-serif" font-size="10px" fill="#000" opacity="1">Mar 29</text><text text-anchor="middle" transform="translate(387.0967741935484,15)" font-family="sans-serif" font-size="10px" fill="#000" opacity="1">Tue 31</text><text text-anchor="middle" transform="translate(412.9032258064516,15)" font-family="sans-serif" font-size="10px" fill="#000" opacity="1">April</text><text text-anchor="middle" transform="translate(464.5161290322581,15)" font-family="sans-serif" font-size="10px" fill="#000" opacity="1">Fri 03</text><text text-anchor="middle" transform="translate(516.1290322580645,15)" font-family="sans-serif" font-size="10px" fill="#000" opacity="1">Apr 05</text><text text-anchor="middle" transform="translate(567.741935483871,15)" font-family="sans-serif" font-size="10px" fill="#000" opacity="1">Tue 07</text><text text-anchor="middle" transform="translate(619.3548387096774,15)" font-family="sans-serif" font-size="10px" fill="#000" opacity="1">Thu 09</text><text text-anchor="middle" transform="translate(670.9677419354839,15)" font-family="sans-serif" font-size="10px" fill="#000" opacity="1">Sat 11</text><text text-anchor="middle" transform="translate(722.5806451612902,15)" font-family="sans-serif" font-size="10px" fill="#000" opacity="1">Mon 13</text><text text-anchor="middle" transform="translate(774.1935483870968,15)" font-family="sans-serif" font-size="10px" fill="#000" opacity="1">Wed 15</text></g><g class="mark-rule role-axis-domain" pointer-events="none"><line transform="translate(0,0)" x2="800" y2="0" stroke="#888" stroke-width="1" opacity="1"/></g><g class="mark-text role-axis-title" pointer-events="none"><text text-anchor="middle" transform="translate(400,30)" font-family="sans-serif" font-size="11px" font-weight="bold" fill="#000" opacity="1">Date</text></g></g><path class="foreground" aria-hidden="true" d="" pointer-events="none" display="none"/></g></g><g class="mark-group role-axis" role="graphics-symbol" aria-roledescription="axis" aria-label="Y-axis titled 'Unique Clones/day' for a linear scale with values from 0 to 100"><g transform="translate(0.5,0.5)"><path class="background" aria-hidden="true" d="M0,0h0v0h0Z" pointer-events="none"/><g><g class="mark-rule role-axis-tick" pointer-events="none"><line transform="translate(0,300)" x2="-5" y2="0" stroke="#888" stroke-width="1" opacity="1"/><line transform="translate(0,270)" x2="-5" y2="0" stroke="#888" stroke-width="1" opacity="1"/><line transform="translate(0,240)" x2="-5" y2="0" stroke="#888" stroke-width="1" opacity="1"/><line transform="translate(0,210)" x2="-5" y2="0" stroke="#888" stroke-width="1" opacity="1"/><line transform="translate(0,180)" x2="-5" y2="0" stroke="#888" stroke-width="1" opacity="1"/><line transform="translate(0,150)" x2="-5" y2="0" stroke="#888" stroke-width="1" opacity="1"/><line transform="translate(0,120)" x2="-5" y2="0" stroke="#888" stroke-width="1" opacity="1"/><line transform="translate(0,90)" x2="-5" y2="0" stroke="#888" stroke-width="1" opacity="1"/><line transform="translate(0,60)" x2="-5" y2="0" stroke="#888" stroke-width="1" opacity="1"/><line transform="translate(0,30)" x2="-5" y2="0" stroke="#888" stroke-width="1" opacity="1"/><line transform="translate(0,0)" x2="-5" y2="0" stroke="#888" stroke-width="1" opacity="1"/></g><g class="mark-text role-axis-label" pointer-events="none"><text text-anchor="end" transform="translate(-7,303)" font-family="sans-serif" font-size="10px" fill="#000" opacity="1">0</text><text text-anchor="end" transform="translate(-7,273)" font-family="sans-serif" font-size="10px" fill="#000" opacity="1">10</text><text text-anchor="end" transform="translate(-7,243)" font-family="sans-serif" font-size="10px" fill="#000" opacity="1">20</text><text text-anchor="end" transform="translate(-7,213)" font-family="sans-serif" font-size="10px" fill="#000" opacity="1">30</text><text text-anchor="end" transform="translate(-7,183)" font-family="sans-serif" font-size="10px" fill="#000" opacity="1">40</text><text text-anchor="end" transform="translate(-7,153)" font-family="sans-serif" font-size="10px" fill="#000" opacity="1">50</text><text text-anchor="end" transform="translate(-7,123)" font-family="sans-serif" font-size="10px" fill="#000" opacity="1">60</text><text text-anchor="end" transform="translate(-7,93.00000000000001)" font-family="sans-serif" font-size="10px" fill="#000" opacity="1">70</text><text text-anchor="end" transform="translate(-7,62.999999999999986)" font-family="sans-serif" font-size="10px" fill="#000" opacity="1">80</text><text text-anchor="end" transform="translate(-7,32.99999999999999)" font-family="sans-serif" font-size="10px" fill="#000" opacity="1">90</text><text text-anchor="end" transform="translate(-7,3)" font-family="sans-serif" font-size="10px" fill="#000" opacity="1">100</text></g><g class="mark-rule role-axis-domain" pointer-events="none"><line transform="translate(0,300)" x2="0" y2="-300" stroke="#888" stroke-width="1" opacity="1"/></g><g class="mark-text role-axis-title" pointer-events="none"><text text-anchor="middle" transform="translate(-27.6845703125,150) rotate(-90) translate(0,-2)" font-family="sans-serif" font-size="11px" font-weight="bold" fill="#000" opacity="1">Unique Clones/day</text></g></g><path class="foreground" aria-hidden="true" d="" pointer-events="none" display="none"/></g></g><g class="mark-group role-scope pathgroup" role="graphics-object" aria-roledescription="group mark container"><g transform="translate(0,0)"><path class="background" aria-hidden="true" d="M0,0h800v300h-800Z"/><g><g class="mark-area role-mark marks" role="graphics-object" aria-roledescription="area mark container"><path aria-label="Date: Mar 16, 2026; Unique Clones/day: 0; Repository: karlmdavis/FHIR-Server" role="graphics-symbol" aria-roledescription="area mark" d="M0,297L25.806,300L51.613,300L77.419,297L103.226,300L129.032,300L154.839,300L180.645,264L206.452,294L232.258,279L258.065,252L283.871,93L309.677,162L335.484,12L361.29,201L387.097,231L412.903,246L438.71,270L464.516,213L490.323,36L516.129,57L541.935,261L567.742,210L593.548,213L619.355,177L645.161,264L670.968,222L696.774,192L722.581,33L748.387,264L774.194,264L800,288L800,288L774.194,264L748.387,264L722.581,33L696.774,195L670.968,228L645.161,264L619.355,177L593.548,213L567.742,210L541.935,261L516.129,57L490.323,36L464.516,213L438.71,270L412.903,246L387.097,234L361.29,201L335.484,12L309.677,162L283.871,93L258.065,252L232.258,279L206.452,294L180.645,264L154.839,300L129.032,300L103.226,300L77.419,297L51.613,300L25.806,300L0,297Z" fill="#4c78a8"/></g></g><path class="foreground" aria-hidden="true" d="" display="none"/></g><g transform="translate(0,0)"><path class="background" aria-hidden="true" d="M0,0h800v300h-800Z"/><g><g class="mark-area role-mark marks" role="graphics-object" aria-roledescription="area mark container"><path aria-label="Date: Mar 16, 2026; Unique Clones/day: 1; Repository: karlmdavis/ansible" role="graphics-symbol" aria-roledescription="area mark" d="M0,297L25.806,300L51.613,300L77.419,297L103.226,300L129.032,300L154.839,300L180.645,264L206.452,294L232.258,279L258.065,252L283.871,93L309.677,162L335.484,12L361.29,201L387.097,234L412.903,246L438.71,270L464.516,213L490.323,36L516.129,57L541.935,261L567.742,210L593.548,213L619.355,177L645.161,264L670.968,228L696.774,195L722.581,33L748.387,264L774.194,264L800,288L800,288L774.194,264L748.387,267L722.581,33L696.774,195L670.968,228L645.161,264L619.355,177L593.548,213L567.742,210L541.935,261L516.129,57L490.323,36L464.516,213L438.71,270L412.903,246L387.097,234L361.29,201L335.484,12L309.677,162L283.871,93L258.065,252L232.258,279L206.452,294L180.645,264L154.839,300L129.032,300L103.226,300L77.419,297L51.613,300L25.806,300L0,300Z" fill="#f58518"/></g></g><path class="foreground" aria-hidden="true" d="" display="none"/></g><g transform="translate(0,0)"><path class="background" aria-hidden="true" d="M0,0h800v300h-800Z"/><g><g class="mark-area role-mark marks" role="graphics-object" aria-roledescription="area mark container"><path aria-label="Date: Mar 16, 2026; Unique Clones/day: 0; Repository: karlmdavis/ansible-jenkins" role="graphics-symbol" aria-roledescription="area mark" d="M0,300L25.806,300L51.613,300L77.419,297L103.226,300L129.032,300L154.839,300L180.645,264L206.452,294L232.258,279L258.065,252L283.871,93L309.677,162L335.484,12L361.29,201L387.097,234L412.903,246L438.71,270L464.516,213L490.323,36L516.129,57L541.935,261L567.742,210L593.548,213L619.355,177L645.161,264L670.968,228L696.774,195L722.581,33L748.387,267L774.194,264L800,288L800,288L774.194,264L748.387,267L722.581,33L696.774,198L670.968,228L645.161,264L619.355,177L593.548,213L567.742,210L541.935,261L516.129,57L490.323,39L464.516,216L438.71,270L412.903,246L387.097,234L361.29,201L335.484,12L309.677,162L283.871,93L258.065,255L232.258,279L206.452,294L180.645,264L154.839,300L129.032,300L103.226,300L77.419,297L51.613,300L25.806,300L0,300Z" fill="#e45756"/></g></g><path class="foreground" aria-hidden="true" d="" display="none"/></g><g transform="translate(0,0)"><path class="background" aria-hidden="true" d="M0,0h800v300h-800Z"/><g><g class="mark-area role-mark marks" role="graphics-object" aria-roledescription="area mark container"><path aria-label="Date: Mar 16, 2026; Unique Clones/day: 0; Repository: karlmdavis/ansible-role-acmetool" role="graphics-symbol" aria-roledescription="area mark" d="M0,300L25.806,300L51.613,300L77.419,297L103.226,300L129.032,300L154.839,300L180.645,264L206.452,294L232.258,279L258.065,255L283.871,93L309.677,162L335.484,12L361.29,201L387.097,234L412.903,246L438.71,270L464.516,216L490.323,39L516.129,57L541.935,261L567.742,210L593.548,213L619.355,177L645.161,264L670.968,228L696.774,198L722.581,33L748.387,267L774.194,264L800,288L800,288L774.194,264L748.387,267L722.581,33L696.774,201L670.968,228L645.161,264L619.355,177L593.548,213L567.742,210L541.935,261L516.129,57L490.323,39L464.516,216L438.71,270L412.903,246L387.097,234L361.29,201L335.484,12L309.677,162L283.871,93L258.065,258L232.258,279L206.452,294L180.645,264L154.839,300L129.032,300L103.226,300L77.419,297L51.613,300L25.806,300L0,300Z" fill="#72b7b2"/></g></g><path class="foreground" aria-hidden="true" d="" display="none"/></g><g transform="translate(0,0)"><path class="background" aria-hidden="true" d="M0,0h800v300h-800Z"/><g><g class="mark-area role-mark marks" role="graphics-object" aria-roledescription="area mark container"><path aria-label="Date: Mar 16, 2026; Unique Clones/day: 0; Repository: karlmdavis/ansible-role-bind-dns" role="graphics-symbol" aria-roledescription="area mark" d="M0,300L25.806,300L51.613,300L77.419,297L103.226,300L129.032,300L154.839,300L180.645,264L206.452,294L232.258,279L258.065,258L283.871,93L309.677,162L335.484,12L361.29,201L387.097,234L412.903,246L438.71,270L464.516,216L490.323,39L516.129,57L541.935,261L567.742,210L593.548,213L619.355,177L645.161,264L670.968,228L696.774,201L722.581,33L748.387,267L774.194,264L800,288L800,291L774.194,264L748.387,267L722.581,45L696.774,204L670.968,228L645.161,264L619.355,180L593.548,216L567.742,210L541.935,261L516.129,57L490.323,42L464.516,216L438.71,270L412.903,255L387.097,234L361.29,204L335.484,15L309.677,162L283.871,99L258.065,258L232.258,279L206.452,294L180.645,264L154.839,300L129.032,300L103.226,300L77.419,297L51.613,300L25.806,300L0,300Z" fill="#54a24b"/></g></g><path class="foreground" aria-hidden="true" d="" display="none"/></g><g transform="translate(0,0)"><path class="background" aria-hidden="true" d="M0,0h800v300h-800Z"/><g><g class="mark-area role-mark marks" role="graphics-object" aria-roledescription="area mark container"><path aria-label="Date: Mar 16, 2026; Unique Clones/day: 0; Repository: karlmdavis/ansible-role-jenkins2" role="graphics-symbol" aria-roledescription="area mark" d="M0,300L25.806,300L51.613,300L77.419,297L103.226,300L129.032,300L154.839,300L180.645,264L206.452,294L232.258,279L258.065,258L283.871,99L309.677,162L335.484,15L361.29,204L387.097,234L412.903,255L438.71,270L464.516,216L490.323,42L516.129,57L541.935,261L567.742,210L593.548,216L619.355,180L645.161,264L670.968,228L696.774,204L722.581,45L748.387,267L774.194,264L800,291L800,291L774.194,267L748.387,267L722.581,60L696.774,204L670.968,231L645.161,270L619.355,195L593.548,216L567.742,210L541.935,261L516.129,60L490.323,48L464.516,219L438.71,273L412.903,258L387.097,237L361.29,204L335.484,15L309.677,165L283.871,102L258.065,261L232.258,282L206.452,297L180.645,264L154.839,300L129.032,300L103.226,300L77.419,297L51.613,300L25.806,300L0,300Z" fill="#eeca3b"/></g></g><path class="foreground" aria-hidden="true" d="" display="none"/></g><g transform="translate(0,0)"><path class="background" aria-hidden="true" d="M0,0h800v300h-800Z"/><g><g class="mark-area role-mark marks" role="graphics-object" aria-roledescription="area mark container"><path aria-label="Date: Mar 16, 2026; Unique Clones/day: 0; Repository: karlmdavis/ansible-role-ldap" role="graphics-symbol" aria-roledescription="area mark" d="M0,300L25.806,300L51.613,300L77.419,297L103.226,300L129.032,300L154.839,300L180.645,264L206.452,297L232.258,282L258.065,261L283.871,102L309.677,165L335.484,15L361.29,204L387.097,237L412.903,258L438.71,273L464.516,219L490.323,48L516.129,60L541.935,261L567.742,210L593.548,216L619.355,195L645.161,270L670.968,231L696.774,204L722.581,60L748.387,267L774.194,267L800,291L800,291L774.194,267L748.387,267L722.581,63L696.774,204L670.968,231L645.161,270L619.355,195L593.548,216L567.742,210L541.935,261L516.129,60L490.323,48L464.516,219L438.71,273L412.903,258L387.097,240L361.29,204L335.484,15L309.677,165L283.871,102L258.065,261L232.258,282L206.452,297L180.645,264L154.839,300L129.032,300L103.226,300L77.419,297L51.613,300L25.806,300L0,300Z" fill="#b279a2"/></g></g><path class="foreground" aria-hidden="true" d="" display="none"/></g><g transform="translate(0,0)"><path class="background" aria-hidden="true" d="M0,0h800v300h-800Z"/><g><g class="mark-area role-mark marks" role="graphics-object" aria-roledescription="area mark container"><path aria-label="Date: Mar 16, 2026; Unique Clones/day: 0; Repository: karlmdavis/ansible-role-rcm-dotfiles" role="graphics-symbol" aria-roledescription="area mark" d="M0,300L25.806,300L51.613,300L77.419,297L103.226,300L129.032,300L154.839,300L180.645,264L206.452,297L232.258,282L258.065,261L283.871,102L309.677,165L335.484,15L361.29,204L387.097,240L412.903,258L438.71,273L464.516,219L490.323,48L516.129,60L541.935,261L567.742,210L593.548,216L619.355,195L645.161,270L670.968,231L696.774,204L722.581,63L748.387,267L774.194,267L800,291L800,291L774.194,270L748.387,267L722.581,72L696.774,207L670.968,231L645.161,270L619.355,198L593.548,216L567.742,210L541.935,261L516.129,60L490.323,51L464.516,219L438.71,273L412.903,258L387.097,240L361.29,207L335.484,18L309.677,165L283.871,108L258.065,261L232.258,282L206.452,297L180.645,264L154.839,300L129.032,300L103.226,300L77.419,297L51.613,300L25.806,300L0,300Z" fill="#ff9da6"/></g></g><path class="foreground" aria-hidden="true" d="" display="none"/></g><g transform="translate(0,0)"><path class="background" aria-hidden="true" d="M0,0h800v300h-800Z"/><g><g class="mark-area role-mark marks" role="graphics-object" aria-roledescription="area mark container"><path aria-label="Date: Mar 16, 2026; Unique Clones/day: 0; Repository: karlmdavis/ansible-roles" role="graphics-symbol" aria-roledescription="area mark" d="M0,300L25.806,300L51.613,300L77.419,297L103.226,300L129.032,300L154.839,300L180.645,264L206.452,297L232.258,282L258.065,261L283.871,108L309.677,165L335.484,18L361.29,207L387.097,240L412.903,258L438.71,273L464.516,219L490.323,51L516.129,60L541.935,261L567.742,210L593.548,216L619.355,198L645.161,270L670.968,231L696.774,207L722.581,72L748.387,267L774.194,270L800,291L800,291L774.194,270L748.387,267L722.581,72L696.774,207L670.968,234L645.161,270L619.355,198L593.548,216L567.742,210L541.935,261L516.129,60L490.323,51L464.516,219L438.71,273L412.903,258L387.097,240L361.29,210L335.484,18L309.677,165L283.871,108L258.065,264L232.258,282L206.452,297L180.645,264L154.839,300L129.032,300L103.226,300L77.419,297L51.613,300L25.806,300L0,300Z" fill="#9d755d"/></g></g><path class="foreground" aria-hidden="true" d="" display="none"/></g><g transform="translate(0,0)"><path class="background" aria-hidden="true" d="M0,0h800v300h-800Z"/><g><g class="mark-area role-mark marks" role="graphics-object" aria-roledescription="area mark container"><path aria-label="Date: Mar 16, 2026; Unique Clones/day: 0; Repository: karlmdavis/bbonfhir-dev-infra-docker" role="graphics-symbol" aria-roledescription="area mark" d="M0,300L25.806,300L51.613,300L77.419,297L103.226,300L129.032,300L154.839,300L180.645,264L206.452,297L232.258,282L258.065,264L283.871,108L309.677,165L335.484,18L361.29,210L387.097,240L412.903,258L438.71,273L464.516,219L490.323,51L516.129,60L541.935,261L567.742,210L593.548,216L619.355,198L645.161,270L670.968,234L696.774,207L722.581,72L748.387,267L774.194,270L800,291L800,291L774.194,270L748.387,267L722.581,81L696.774,210L670.968,234L645.161,270L619.355,201L593.548,216L567.742,210L541.935,261L516.129,60L490.323,54L464.516,219L438.71,273L412.903,258L387.097,240L361.29,213L335.484,18L309.677,165L283.871,111L258.065,264L232.258,285L206.452,297L180.645,264L154.839,300L129.032,300L103.226,300L77.419,297L51.613,300L25.806,300L0,300Z" fill="#bab0ac"/></g></g><path class="foreground" aria-hidden="true" d="" display="none"/></g><g transform="translate(0,0)"><path class="background" aria-hidden="true" d="M0,0h800v300h-800Z"/><g><g class="mark-area role-mark marks" role="graphics-object" aria-roledescription="area mark container"><path aria-label="Date: Mar 16, 2026; Unique Clones/day: 0; Repository: karlmdavis/can-i-kayak-baltimore" role="graphics-symbol" aria-roledescription="area mark" d="M0,300L25.806,300L51.613,300L77.419,297L103.226,300L129.032,300L154.839,300L180.645,264L206.452,297L232.258,285L258.065,264L283.871,111L309.677,165L335.484,18L361.29,213L387.097,240L412.903,258L438.71,273L464.516,219L490.323,54L516.129,60L541.935,261L567.742,210L593.548,216L619.355,201L645.161,270L670.968,234L696.774,210L722.581,81L748.387,267L774.194,270L800,291L800,291L774.194,270L748.387,267L722.581,87L696.774,213L670.968,234L645.161,270L619.355,204L593.548,216L567.742,210L541.935,261L516.129,60L490.323,57L464.516,219L438.71,273L412.903,261L387.097,240L361.29,213L335.484,18L309.677,165L283.871,120L258.065,264L232.258,285L206.452,297L180.645,264L154.839,300L129.032,300L103.226,300L77.419,297L51.613,300L25.806,300L0,300Z" fill="#4c78a8"/></g></g><path class="foreground" aria-hidden="true" d="" display="none"/></g><g transform="translate(0,0)"><path class="background" aria-hidden="true" d="M0,0h800v300h-800Z"/><g><g class="mark-area role-mark marks" role="graphics-object" aria-roledescription="area mark container"><path aria-label="Date: Mar 16, 2026; Unique Clones/day: 0; Repository: karlmdavis/datanucleus-test-jdo-1-to-n" role="graphics-symbol" aria-roledescription="area mark" d="M0,300L25.806,300L51.613,300L77.419,297L103.226,300L129.032,300L154.839,300L180.645,264L206.452,297L232.258,285L258.065,264L283.871,120L309.677,165L335.484,18L361.29,213L387.097,240L412.903,261L438.71,273L464.516,219L490.323,57L516.129,60L541.935,261L567.742,210L593.548,216L619.355,204L645.161,270L670.968,234L696.774,213L722.581,87L748.387,267L774.194,270L800,291L800,291L774.194,270L748.387,270L722.581,87L696.774,213L670.968,234L645.161,270L619.355,204L593.548,216L567.742,210L541.935,261L516.129,60L490.323,57L464.516,219L438.71,273L412.903,261L387.097,240L361.29,213L335.484,18L309.677,168L283.871,120L258.065,264L232.258,285L206.452,297L180.645,264L154.839,300L129.032,300L103.226,300L77.419,297L51.613,300L25.806,300L0,300Z" fill="#f58518"/></g></g><path class="foreground" aria-hidden="true" d="" display="none"/></g><g transform="translate(0,0)"><path class="background" aria-hidden="true" d="M0,0h800v300h-800Z"/><g><g class="mark-area role-mark marks" role="graphics-object" aria-roledescription="area mark container"><path aria-label="Date: Mar 16, 2026; Unique Clones/day: 0; Repository: karlmdavis/dotfiles" role="graphics-symbol" aria-roledescription="area mark" d="M0,300L25.806,300L51.613,300L77.419,297L103.226,300L129.032,300L154.839,300L180.645,264L206.452,297L232.258,285L258.065,264L283.871,120L309.677,168L335.484,18L361.29,213L387.097,240L412.903,261L438.71,273L464.516,219L490.323,57L516.129,60L541.935,261L567.742,210L593.548,216L619.355,204L645.161,270L670.968,234L696.774,213L722.581,87L748.387,270L774.194,270L800,291L800,294L774.194,270L748.387,270L722.581,102L696.774,213L670.968,240L645.161,270L619.355,207L593.548,219L567.742,210L541.935,261L516.129,63L490.323,60L464.516,219L438.71,276L412.903,264L387.097,243L361.29,213L335.484,18L309.677,168L283.871,126L258.065,264L232.258,285L206.452,297L180.645,267L154.839,300L129.032,300L103.226,300L77.419,297L51.613,300L25.806,300L0,300Z" fill="#e45756"/></g></g><path class="foreground" aria-hidden="true" d="" display="none"/></g><g transform="translate(0,0)"><path class="background" aria-hidden="true" d="M0,0h800v300h-800Z"/><g><g class="mark-area role-mark marks" role="graphics-object" aria-roledescription="area mark container"><path aria-label="Date: Mar 16, 2026; Unique Clones/day: 0; Repository: karlmdavis/fhir-benchmarks" role="graphics-symbol" aria-roledescription="area mark" d="M0,300L25.806,300L51.613,300L77.419,297L103.226,300L129.032,300L154.839,300L180.645,267L206.452,297L232.258,285L258.065,264L283.871,126L309.677,168L335.484,18L361.29,213L387.097,243L412.903,264L438.71,276L464.516,219L490.323,60L516.129,63L541.935,261L567.742,210L593.548,219L619.355,207L645.161,270L670.968,240L696.774,213L722.581,102L748.387,270L774.194,270L800,294L800,294L774.194,273L748.387,279L722.581,117L696.774,213L670.968,246L645.161,270L619.355,213L593.548,240L567.742,213L541.935,261L516.129,66L490.323,63L464.516,222L438.71,276L412.903,267L387.097,249L361.29,216L335.484,21L309.677,168L283.871,132L258.065,264L232.258,288L206.452,297L180.645,270L154.839,300L129.032,300L103.226,300L77.419,297L51.613,300L25.806,300L0,300Z" fill="#72b7b2"/></g></g><path class="foreground" aria-hidden="true" d="" display="none"/></g><g transform="translate(0,0)"><path class="background" aria-hidden="true" d="M0,0h800v300h-800Z"/><g><g class="mark-area role-mark marks" role="graphics-object" aria-roledescription="area mark container"><path aria-label="Date: Mar 16, 2026; Unique Clones/day: 0; Repository: karlmdavis/hapi-fhir-jpaserver-starter" role="graphics-symbol" aria-roledescription="area mark" d="M0,300L25.806,300L51.613,300L77.419,297L103.226,300L129.032,300L154.839,300L180.645,270L206.452,297L232.258,288L258.065,264L283.871,132L309.677,168L335.484,21L361.29,216L387.097,249L412.903,267L438.71,276L464.516,222L490.323,63L516.129,66L541.935,261L567.742,213L593.548,240L619.355,213L645.161,270L670.968,246L696.774,213L722.581,117L748.387,279L774.194,273L800,294L800,294L774.194,273L748.387,279L722.581,120L696.774,213L670.968,246L645.161,270L619.355,213L593.548,240L567.742,213L541.935,261L516.129,66L490.323,63L464.516,225L438.71,279L412.903,267L387.097,249L361.29,216L335.484,21L309.677,168L283.871,132L258.065,267L232.258,288L206.452,297L180.645,270L154.839,300L129.032,300L103.226,300L77.419,297L51.613,300L25.806,300L0,300Z" fill="#54a24b"/></g></g><path class="foreground" aria-hidden="true" d="" display="none"/></g><g transform="translate(0,0)"><path class="background" aria-hidden="true" d="M0,0h800v300h-800Z"/><g><g class="mark-area role-mark marks" role="graphics-object" aria-roledescription="area mark container"><path aria-label="Date: Mar 16, 2026; Unique Clones/day: 0; Repository: karlmdavis/hello-rust-actix" role="graphics-symbol" aria-roledescription="area mark" d="M0,300L25.806,300L51.613,300L77.419,297L103.226,300L129.032,300L154.839,300L180.645,270L206.452,297L232.258,288L258.065,267L283.871,132L309.677,168L335.484,21L361.29,216L387.097,249L412.903,267L438.71,279L464.516,225L490.323,63L516.129,66L541.935,261L567.742,213L593.548,240L619.355,213L645.161,270L670.968,246L696.774,213L722.581,120L748.387,279L774.194,273L800,294L800,294L774.194,273L748.387,279L722.581,126L696.774,216L670.968,246L645.161,270L619.355,216L593.548,240L567.742,213L541.935,261L516.129,66L490.323,66L464.516,225L438.71,279L412.903,267L387.097,252L361.29,216L335.484,21L309.677,168L283.871,135L258.065,267L232.258,288L206.452,297L180.645,270L154.839,300L129.032,300L103.226,300L77.419,297L51.613,300L25.806,300L0,300Z" fill="#eeca3b"/></g></g><path class="foreground" aria-hidden="true" d="" display="none"/></g><g transform="translate(0,0)"><path class="background" aria-hidden="true" d="M0,0h800v300h-800Z"/><g><g class="mark-area role-mark marks" role="graphics-object" aria-roledescription="area mark container"><path aria-label="Date: Mar 16, 2026; Unique Clones/day: 0; Repository: karlmdavis/jessentials" role="graphics-symbol" aria-roledescription="area mark" d="M0,300L25.806,300L51.613,300L77.419,297L103.226,300L129.032,300L154.839,300L180.645,270L206.452,297L232.258,288L258.065,267L283.871,135L309.677,168L335.484,21L361.29,216L387.097,252L412.903,267L438.71,279L464.516,225L490.323,66L516.129,66L541.935,261L567.742,213L593.548,240L619.355,216L645.161,270L670.968,246L696.774,216L722.581,126L748.387,279L774.194,273L800,294L800,294L774.194,273L748.387,279L722.581,132L696.774,216L670.968,249L645.161,270L619.355,222L593.548,264L567.742,213L541.935,261L516.129,66L490.323,69L464.516,225L438.71,279L412.903,267L387.097,252L361.29,219L335.484,21L309.677,168L283.871,138L258.065,267L232.258,288L206.452,297L180.645,273L154.839,300L129.032,300L103.226,300L77.419,297L51.613,300L25.806,300L0,300Z" fill="#b279a2"/></g></g><path class="foreground" aria-hidden="true" d="" display="none"/></g><g transform="translate(0,0)"><path class="background" aria-hidden="true" d="M0,0h800v300h-800Z"/><g><g class="mark-area role-mark marks" role="graphics-object" aria-roledescription="area mark container"><path aria-label="Date: Mar 16, 2026; Unique Clones/day: 0; Repository: karlmdavis/justdavis-ansible" role="graphics-symbol" aria-roledescription="area mark" d="M0,300L25.806,300L51.613,300L77.419,297L103.226,300L129.032,300L154.839,300L180.645,273L206.452,297L232.258,288L258.065,267L283.871,138L309.677,168L335.484,21L361.29,219L387.097,252L412.903,267L438.71,279L464.516,225L490.323,69L516.129,66L541.935,261L567.742,213L593.548,264L619.355,222L645.161,270L670.968,249L696.774,216L722.581,132L748.387,279L774.194,273L800,294L800,294L774.194,273L748.387,279L722.581,141L696.774,228L670.968,249L645.161,273L619.355,225L593.548,264L567.742,213L541.935,261L516.129,66L490.323,72L464.516,225L438.71,279L412.903,270L387.097,252L361.29,219L335.484,21L309.677,171L283.871,141L258.065,267L232.258,291L206.452,297L180.645,273L154.839,300L129.032,300L103.226,300L77.419,297L51.613,300L25.806,300L0,300Z" fill="#ff9da6"/></g></g><path class="foreground" aria-hidden="true" d="" display="none"/></g><g transform="translate(0,0)"><path class="background" aria-hidden="true" d="M0,0h800v300h-800Z"/><g><g class="mark-area role-mark marks" role="graphics-object" aria-roledescription="area mark container"><path aria-label="Date: Mar 16, 2026; Unique Clones/day: 0; Repository: karlmdavis/justdavis-finances" role="graphics-symbol" aria-roledescription="area mark" d="M0,300L25.806,300L51.613,300L77.419,297L103.226,300L129.032,300L154.839,300L180.645,273L206.452,297L232.258,291L258.065,267L283.871,141L309.677,171L335.484,21L361.29,219L387.097,252L412.903,270L438.71,279L464.516,225L490.323,72L516.129,66L541.935,261L567.742,213L593.548,264L619.355,225L645.161,273L670.968,249L696.774,228L722.581,141L748.387,279L774.194,273L800,294L800,294L774.194,276L748.387,285L722.581,186L696.774,279L670.968,255L645.161,273L619.355,228L593.548,267L567.742,264L541.935,285L516.129,291L490.323,243L464.516,285L438.71,282L412.903,273L387.097,255L361.29,264L335.484,276L309.677,282L283.871,234L258.065,270L232.258,294L206.452,297L180.645,273L154.839,300L129.032,300L103.226,300L77.419,297L51.613,300L25.806,300L0,300Z" fill="#9d755d"/></g></g><path class="foreground" aria-hidden="true" d="" display="none"/></g><g transform="translate(0,0)"><path class="background" aria-hidden="true" d="M0,0h800v300h-800Z"/><g><g class="mark-area role-mark marks" role="graphics-object" aria-roledescription="area mark container"><path aria-label="Date: Mar 16, 2026; Unique Clones/day: 0; Repository: karlmdavis/justdavis-karl" role="graphics-symbol" aria-roledescription="area mark" d="M0,300L25.806,300L51.613,300L77.419,297L103.226,300L129.032,300L154.839,300L180.645,273L206.452,297L232.258,294L258.065,270L283.871,234L309.677,282L335.484,276L361.29,264L387.097,255L412.903,273L438.71,282L464.516,285L490.323,243L516.129,291L541.935,285L567.742,264L593.548,267L619.355,228L645.161,273L670.968,255L696.774,279L722.581,186L748.387,285L774.194,276L800,294L800,294L774.194,276L748.387,285L722.581,195L696.774,282L670.968,258L645.161,273L619.355,234L593.548,267L567.742,264L541.935,288L516.129,291L490.323,246L464.516,285L438.71,285L412.903,273L387.097,258L361.29,267L335.484,276L309.677,285L283.871,237L258.065,270L232.258,294L206.452,297L180.645,276L154.839,300L129.032,300L103.226,300L77.419,297L51.613,300L25.806,300L0,300Z" fill="#bab0ac"/></g></g><path class="foreground" aria-hidden="true" d="" display="none"/></g><g transform="translate(0,0)"><path class="background" aria-hidden="true" d="M0,0h800v300h-800Z"/><g><g class="mark-area role-mark marks" role="graphics-object" aria-roledescription="area mark container"><path aria-label="Date: Mar 16, 2026; Unique Clones/day: 0; Repository: karlmdavis/justdavis-puppet" role="graphics-symbol" aria-roledescription="area mark" d="M0,300L25.806,300L51.613,300L77.419,297L103.226,300L129.032,300L154.839,300L180.645,276L206.452,297L232.258,294L258.065,270L283.871,237L309.677,285L335.484,276L361.29,267L387.097,258L412.903,273L438.71,285L464.516,285L490.323,246L516.129,291L541.935,288L567.742,264L593.548,267L619.355,234L645.161,273L670.968,258L696.774,282L722.581,195L748.387,285L774.194,276L800,294L800,294L774.194,276L748.387,285L722.581,201L696.774,285L670.968,261L645.161,273L619.355,237L593.548,270L567.742,264L541.935,288L516.129,291L490.323,249L464.516,285L438.71,285L412.903,273L387.097,264L361.29,270L335.484,276L309.677,285L283.871,240L258.065,270L232.258,294L206.452,297L180.645,276L154.839,300L129.032,300L103.226,300L77.419,297L51.613,300L25.806,300L0,300Z" fill="#4c78a8"/></g></g><path class="foreground" aria-hidden="true" d="" display="none"/></g><g transform="translate(0,0)"><path class="background" aria-hidden="true" d="M0,0h800v300h-800Z"/><g><g class="mark-area role-mark marks" role="graphics-object" aria-roledescription="area mark container"><path aria-label="Date: Mar 16, 2026; Unique Clones/day: 0; Repository: karlmdavis/kobjects" role="graphics-symbol" aria-roledescription="area mark" d="M0,300L25.806,300L51.613,300L77.419,297L103.226,300L129.032,300L154.839,300L180.645,276L206.452,297L232.258,294L258.065,270L283.871,240L309.677,285L335.484,276L361.29,270L387.097,264L412.903,273L438.71,285L464.516,285L490.323,249L516.129,291L541.935,288L567.742,264L593.548,270L619.355,237L645.161,273L670.968,261L696.774,285L722.581,201L748.387,285L774.194,276L800,294L800,294L774.194,276L748.387,285L722.581,207L696.774,285L670.968,264L645.161,273L619.355,243L593.548,270L567.742,264L541.935,288L516.129,291L490.323,252L464.516,285L438.71,285L412.903,273L387.097,264L361.29,270L335.484,276L309.677,285L283.871,243L258.065,273L232.258,294L206.452,297L180.645,276L154.839,300L129.032,300L103.226,300L77.419,297L51.613,300L25.806,300L0,300Z" fill="#f58518"/></g></g><path class="foreground" aria-hidden="true" d="" display="none"/></g><g transform="translate(0,0)"><path class="background" aria-hidden="true" d="M0,0h800v300h-800Z"/><g><g class="mark-area role-mark marks" role="graphics-object" aria-roledescription="area mark container"><path aria-label="Date: Mar 16, 2026; Unique Clones/day: 0; Repository: karlmdavis/ksoap2-android" role="graphics-symbol" aria-roledescription="area mark" d="M0,300L25.806,300L51.613,300L77.419,297L103.226,300L129.032,300L154.839,300L180.645,276L206.452,297L232.258,294L258.065,273L283.871,243L309.677,285L335.484,276L361.29,270L387.097,264L412.903,273L438.71,285L464.516,285L490.323,252L516.129,291L541.935,288L567.742,264L593.548,270L619.355,243L645.161,273L670.968,264L696.774,285L722.581,207L748.387,285L774.194,276L800,294L800,294L774.194,282L748.387,285L722.581,213L696.774,285L670.968,267L645.161,282L619.355,246L593.548,288L567.742,279L541.935,291L516.129,291L490.323,261L464.516,285L438.71,288L412.903,276L387.097,267L361.29,282L335.484,282L309.677,285L283.871,246L258.065,282L232.258,294L206.452,297L180.645,279L154.839,300L129.032,300L103.226,300L77.419,297L51.613,300L25.806,300L0,300Z" fill="#e45756"/></g></g><path class="foreground" aria-hidden="true" d="" display="none"/></g><g transform="translate(0,0)"><path class="background" aria-hidden="true" d="M0,0h800v300h-800Z"/><g><g class="mark-area role-mark marks" role="graphics-object" aria-roledescription="area mark container"><path aria-label="Date: Mar 16, 2026; Unique Clones/day: 0; Repository: karlmdavis/kxml2" role="graphics-symbol" aria-roledescription="area mark" d="M0,300L25.806,300L51.613,300L77.419,297L103.226,300L129.032,300L154.839,300L180.645,279L206.452,297L232.258,294L258.065,282L283.871,246L309.677,285L335.484,282L361.29,282L387.097,267L412.903,276L438.71,288L464.516,285L490.323,261L516.129,291L541.935,291L567.742,279L593.548,288L619.355,246L645.161,282L670.968,267L696.774,285L722.581,213L748.387,285L774.194,282L800,294L800,297L774.194,285L748.387,288L722.581,222L696.774,285L670.968,267L645.161,282L619.355,249L593.548,288L567.742,282L541.935,294L516.129,294L490.323,264L464.516,285L438.71,288L412.903,276L387.097,270L361.29,291L335.484,285L309.677,285L283.871,252L258.065,285L232.258,294L206.452,297L180.645,282L154.839,300L129.032,300L103.226,300L77.419,297L51.613,300L25.806,300L0,300Z" fill="#72b7b2"/></g></g><path class="foreground" aria-hidden="true" d="" display="none"/></g><g transform="translate(0,0)"><path class="background" aria-hidden="true" d="M0,0h800v300h-800Z"/><g><g class="mark-area role-mark marks" role="graphics-object" aria-roledescription="area mark container"><path aria-label="Date: Mar 16, 2026; Unique Clones/day: 0; Repository: karlmdavis/ldap-plugin" role="graphics-symbol" aria-roledescription="area mark" d="M0,300L25.806,300L51.613,300L77.419,297L103.226,300L129.032,300L154.839,300L180.645,282L206.452,297L232.258,294L258.065,285L283.871,252L309.677,285L335.484,285L361.29,291L387.097,270L412.903,276L438.71,288L464.516,285L490.323,264L516.129,294L541.935,294L567.742,282L593.548,288L619.355,249L645.161,282L670.968,267L696.774,285L722.581,222L748.387,288L774.194,285L800,297L800,297L774.194,285L748.387,288L722.581,222L696.774,285L670.968,267L645.161,282L619.355,249L593.548,288L567.742,282L541.935,294L516.129,294L490.323,264L464.516,288L438.71,291L412.903,276L387.097,270L361.29,291L335.484,285L309.677,285L283.871,252L258.065,285L232.258,294L206.452,297L180.645,282L154.839,300L129.032,300L103.226,300L77.419,297L51.613,300L25.806,300L0,300Z" fill="#54a24b"/></g></g><path class="foreground" aria-hidden="true" d="" display="none"/></g><g transform="translate(0,0)"><path class="background" aria-hidden="true" d="M0,0h800v300h-800Z"/><g><g class="mark-area role-mark marks" role="graphics-object" aria-roledescription="area mark container"><path aria-label="Date: Mar 16, 2026; Unique Clones/day: 0; Repository: karlmdavis/lego-ev3dev-rs" role="graphics-symbol" aria-roledescription="area mark" d="M0,300L25.806,300L51.613,300L77.419,297L103.226,300L129.032,300L154.839,300L180.645,282L206.452,297L232.258,294L258.065,285L283.871,252L309.677,285L335.484,285L361.29,291L387.097,270L412.903,276L438.71,291L464.516,288L490.323,264L516.129,294L541.935,294L567.742,282L593.548,288L619.355,249L645.161,282L670.968,267L696.774,285L722.581,222L748.387,288L774.194,285L800,297L800,297L774.194,288L748.387,288L722.581,231L696.774,285L670.968,273L645.161,282L619.355,255L593.548,288L567.742,285L541.935,294L516.129,297L490.323,267L464.516,291L438.71,291L412.903,279L387.097,276L361.29,291L335.484,288L309.677,288L283.871,261L258.065,285L232.258,297L206.452,297L180.645,285L154.839,300L129.032,300L103.226,300L77.419,297L51.613,300L25.806,300L0,300Z" fill="#eeca3b"/></g></g><path class="foreground" aria-hidden="true" d="" display="none"/></g><g transform="translate(0,0)"><path class="background" aria-hidden="true" d="M0,0h800v300h-800Z"/><g><g class="mark-area role-mark marks" role="graphics-object" aria-roledescription="area mark container"><path aria-label="Date: Mar 16, 2026; Unique Clones/day: 0; Repository: karlmdavis/liquibase" role="graphics-symbol" aria-roledescription="area mark" d="M0,300L25.806,300L51.613,300L77.419,297L103.226,300L129.032,300L154.839,300L180.645,285L206.452,297L232.258,297L258.065,285L283.871,261L309.677,288L335.484,288L361.29,291L387.097,276L412.903,279L438.71,291L464.516,291L490.323,267L516.129,297L541.935,294L567.742,285L593.548,288L619.355,255L645.161,282L670.968,273L696.774,285L722.581,231L748.387,288L774.194,288L800,297L800,297L774.194,288L748.387,288L722.581,231L696.774,285L670.968,273L645.161,285L619.355,258L593.548,288L567.742,285L541.935,294L516.129,297L490.323,267L464.516,291L438.71,291L412.903,279L387.097,276L361.29,291L335.484,288L309.677,288L283.871,261L258.065,285L232.258,297L206.452,297L180.645,285L154.839,300L129.032,300L103.226,300L77.419,300L51.613,300L25.806,300L0,300Z" fill="#b279a2"/></g></g><path class="foreground" aria-hidden="true" d="" display="none"/></g><g transform="translate(0,0)"><path class="background" aria-hidden="true" d="M0,0h800v300h-800Z"/><g><g class="mark-area role-mark marks" role="graphics-object" aria-roledescription="area mark container"><path aria-label="Date: Mar 16, 2026; Unique Clones/day: 0; Repository: karlmdavis/m2e-core" role="graphics-symbol" aria-roledescription="area mark" d="M0,300L25.806,300L51.613,300L77.419,300L103.226,300L129.032,300L154.839,300L180.645,285L206.452,297L232.258,297L258.065,285L283.871,261L309.677,288L335.484,288L361.29,291L387.097,276L412.903,279L438.71,291L464.516,291L490.323,267L516.129,297L541.935,294L567.742,285L593.548,288L619.355,258L645.161,285L670.968,273L696.774,285L722.581,231L748.387,288L774.194,288L800,297L800,297L774.194,288L748.387,288L722.581,237L696.774,285L670.968,276L645.161,288L619.355,264L593.548,291L567.742,288L541.935,294L516.129,297L490.323,270L464.516,291L438.71,291L412.903,279L387.097,276L361.29,291L335.484,291L309.677,288L283.871,264L258.065,285L232.258,297L206.452,297L180.645,285L154.839,300L129.032,300L103.226,300L77.419,300L51.613,300L25.806,300L0,300Z" fill="#ff9da6"/></g></g><path class="foreground" aria-hidden="true" d="" display="none"/></g><g transform="translate(0,0)"><path class="background" aria-hidden="true" d="M0,0h800v300h-800Z"/><g><g class="mark-area role-mark marks" role="graphics-object" aria-roledescription="area mark container"><path aria-label="Date: Mar 16, 2026; Unique Clones/day: 0; Repository: karlmdavis/m2e-core-tests" role="graphics-symbol" aria-roledescription="area mark" d="M0,300L25.806,300L51.613,300L77.419,300L103.226,300L129.032,300L154.839,300L180.645,285L206.452,297L232.258,297L258.065,285L283.871,264L309.677,288L335.484,291L361.29,291L387.097,276L412.903,279L438.71,291L464.516,291L490.323,270L516.129,297L541.935,294L567.742,288L593.548,291L619.355,264L645.161,288L670.968,276L696.774,285L722.581,237L748.387,288L774.194,288L800,297L800,297L774.194,288L748.387,288L722.581,237L696.774,288L670.968,276L645.161,294L619.355,267L593.548,294L567.742,291L541.935,294L516.129,297L490.323,270L464.516,291L438.71,291L412.903,285L387.097,276L361.29,291L335.484,291L309.677,291L283.871,264L258.065,288L232.258,297L206.452,297L180.645,285L154.839,300L129.032,300L103.226,300L77.419,300L51.613,300L25.806,300L0,300Z" fill="#9d755d"/></g></g><path class="foreground" aria-hidden="true" d="" display="none"/></g><g transform="translate(0,0)"><path class="background" aria-hidden="true" d="M0,0h800v300h-800Z"/><g><g class="mark-area role-mark marks" role="graphics-object" aria-roledescription="area mark container"><path aria-label="Date: Mar 16, 2026; Unique Clones/day: 0; Repository: karlmdavis/obsidian-operator" role="graphics-symbol" aria-roledescription="area mark" d="M0,300L25.806,300L51.613,300L77.419,300L103.226,300L129.032,300L154.839,300L180.645,285L206.452,297L232.258,297L258.065,288L283.871,264L309.677,291L335.484,291L361.29,291L387.097,276L412.903,285L438.71,291L464.516,291L490.323,270L516.129,297L541.935,294L567.742,291L593.548,294L619.355,267L645.161,294L670.968,276L696.774,288L722.581,237L748.387,288L774.194,288L800,297L800,297L774.194,294L748.387,291L722.581,243L696.774,291L670.968,282L645.161,294L619.355,270L593.548,294L567.742,291L541.935,294L516.129,297L490.323,273L464.516,297L438.71,291L412.903,285L387.097,285L361.29,291L335.484,291L309.677,291L283.871,267L258.065,288L232.258,297L206.452,297L180.645,288L154.839,300L129.032,300L103.226,300L77.419,300L51.613,300L25.806,300L0,300Z" fill="#bab0ac"/></g></g><path class="foreground" aria-hidden="true" d="" display="none"/></g><g transform="translate(0,0)"><path class="background" aria-hidden="true" d="M0,0h800v300h-800Z"/><g><g class="mark-area role-mark marks" role="graphics-object" aria-roledescription="area mark container"><path aria-label="Date: Mar 16, 2026; Unique Clones/day: 0; Repository: karlmdavis/perfect-note" role="graphics-symbol" aria-roledescription="area mark" d="M0,300L25.806,300L51.613,300L77.419,300L103.226,300L129.032,300L154.839,300L180.645,288L206.452,297L232.258,297L258.065,288L283.871,267L309.677,291L335.484,291L361.29,291L387.097,285L412.903,285L438.71,291L464.516,297L490.323,273L516.129,297L541.935,294L567.742,291L593.548,294L619.355,270L645.161,294L670.968,282L696.774,291L722.581,243L748.387,291L774.194,294L800,297L800,297L774.194,294L748.387,294L722.581,249L696.774,291L670.968,282L645.161,294L619.355,273L593.548,294L567.742,291L541.935,294L516.129,297L490.323,276L464.516,297L438.71,291L412.903,285L387.097,285L361.29,291L335.484,291L309.677,294L283.871,270L258.065,291L232.258,297L206.452,297L180.645,288L154.839,300L129.032,300L103.226,300L77.419,300L51.613,300L25.806,300L0,300Z" fill="#4c78a8"/></g></g><path class="foreground" aria-hidden="true" d="" display="none"/></g><g transform="translate(0,0)"><path class="background" aria-hidden="true" d="M0,0h800v300h-800Z"/><g><g class="mark-area role-mark marks" role="graphics-object" aria-roledescription="area mark container"><path aria-label="Date: Mar 16, 2026; Unique Clones/day: 0; Repository: karlmdavis/puppet-archive" role="graphics-symbol" aria-roledescription="area mark" d="M0,300L25.806,300L51.613,300L77.419,300L103.226,300L129.032,300L154.839,300L180.645,288L206.452,297L232.258,297L258.065,291L283.871,270L309.677,294L335.484,291L361.29,291L387.097,285L412.903,285L438.71,291L464.516,297L490.323,276L516.129,297L541.935,294L567.742,291L593.548,294L619.355,273L645.161,294L670.968,282L696.774,291L722.581,249L748.387,294L774.194,294L800,297L800,297L774.194,294L748.387,294L722.581,249L696.774,291L670.968,285L645.161,294L619.355,276L593.548,294L567.742,291L541.935,294L516.129,297L490.323,276L464.516,297L438.71,291L412.903,285L387.097,285L361.29,291L335.484,291L309.677,294L283.871,270L258.065,291L232.258,297L206.452,297L180.645,291L154.839,300L129.032,300L103.226,300L77.419,300L51.613,300L25.806,300L0,300Z" fill="#f58518"/></g></g><path class="foreground" aria-hidden="true" d="" display="none"/></g><g transform="translate(0,0)"><path class="background" aria-hidden="true" d="M0,0h800v300h-800Z"/><g><g class="mark-area role-mark marks" role="graphics-object" aria-roledescription="area mark container"><path aria-label="Date: Mar 16, 2026; Unique Clones/day: 0; Repository: karlmdavis/puppet-sonar" role="graphics-symbol" aria-roledescription="area mark" d="M0,300L25.806,300L51.613,300L77.419,300L103.226,300L129.032,300L154.839,300L180.645,291L206.452,297L232.258,297L258.065,291L283.871,270L309.677,294L335.484,291L361.29,291L387.097,285L412.903,285L438.71,291L464.516,297L490.323,276L516.129,297L541.935,294L567.742,291L593.548,294L619.355,276L645.161,294L670.968,285L696.774,291L722.581,249L748.387,294L774.194,294L800,297L800,297L774.194,294L748.387,297L722.581,249L696.774,291L670.968,288L645.161,294L619.355,276L593.548,297L567.742,294L541.935,294L516.129,297L490.323,276L464.516,297L438.71,294L412.903,285L387.097,291L361.29,291L335.484,291L309.677,297L283.871,270L258.065,291L232.258,297L206.452,297L180.645,291L154.839,300L129.032,300L103.226,300L77.419,300L51.613,300L25.806,300L0,300Z" fill="#e45756"/></g></g><path class="foreground" aria-hidden="true" d="" display="none"/></g><g transform="translate(0,0)"><path class="background" aria-hidden="true" d="M0,0h800v300h-800Z"/><g><g class="mark-area role-mark marks" role="graphics-object" aria-roledescription="area mark container"><path aria-label="Date: Mar 16, 2026; Unique Clones/day: 0; Repository: karlmdavis/rps-tourney" role="graphics-symbol" aria-roledescription="area mark" d="M0,300L25.806,300L51.613,300L77.419,300L103.226,300L129.032,300L154.839,300L180.645,291L206.452,297L232.258,297L258.065,291L283.871,270L309.677,297L335.484,291L361.29,291L387.097,291L412.903,285L438.71,294L464.516,297L490.323,276L516.129,297L541.935,294L567.742,294L593.548,297L619.355,276L645.161,294L670.968,288L696.774,291L722.581,249L748.387,297L774.194,294L800,297L800,297L774.194,294L748.387,297L722.581,255L696.774,291L670.968,291L645.161,294L619.355,279L593.548,297L567.742,294L541.935,294L516.129,297L490.323,279L464.516,297L438.71,297L412.903,285L387.097,291L361.29,291L335.484,291L309.677,297L283.871,273L258.065,291L232.258,297L206.452,297L180.645,294L154.839,300L129.032,300L103.226,300L77.419,300L51.613,300L25.806,300L0,300Z" fill="#72b7b2"/></g></g><path class="foreground" aria-hidden="true" d="" display="none"/></g><g transform="translate(0,0)"><path class="background" aria-hidden="true" d="M0,0h800v300h-800Z"/><g><g class="mark-area role-mark marks" role="graphics-object" aria-roledescription="area mark container"><path aria-label="Date: Mar 16, 2026; Unique Clones/day: 0; Repository: karlmdavis/sample-maven-and-rcp" role="graphics-symbol" aria-roledescription="area mark" d="M0,300L25.806,300L51.613,300L77.419,300L103.226,300L129.032,300L154.839,300L180.645,294L206.452,297L232.258,297L258.065,291L283.871,273L309.677,297L335.484,291L361.29,291L387.097,291L412.903,285L438.71,297L464.516,297L490.323,279L516.129,297L541.935,294L567.742,294L593.548,297L619.355,279L645.161,294L670.968,291L696.774,291L722.581,255L748.387,297L774.194,294L800,297L800,297L774.194,294L748.387,297L722.581,261L696.774,291L670.968,291L645.161,294L619.355,282L593.548,297L567.742,294L541.935,294L516.129,297L490.323,282L464.516,297L438.71,297L412.903,288L387.097,291L361.29,291L335.484,291L309.677,297L283.871,276L258.065,291L232.258,297L206.452,297L180.645,294L154.839,300L129.032,300L103.226,300L77.419,300L51.613,300L25.806,300L0,300Z" fill="#54a24b"/></g></g><path class="foreground" aria-hidden="true" d="" display="none"/></g><g transform="translate(0,0)"><path class="background" aria-hidden="true" d="M0,0h800v300h-800Z"/><g><g class="mark-area role-mark marks" role="graphics-object" aria-roledescription="area mark container"><path aria-label="Date: Mar 16, 2026; Unique Clones/day: 0; Repository: karlmdavis/stockfighter-trades-solutions" role="graphics-symbol" aria-roledescription="area mark" d="M0,300L25.806,300L51.613,300L77.419,300L103.226,300L129.032,300L154.839,300L180.645,294L206.452,297L232.258,297L258.065,291L283.871,276L309.677,297L335.484,291L361.29,291L387.097,291L412.903,288L438.71,297L464.516,297L490.323,282L516.129,297L541.935,294L567.742,294L593.548,297L619.355,282L645.161,294L670.968,291L696.774,291L722.581,261L748.387,297L774.194,294L800,297L800,297L774.194,294L748.387,297L722.581,270L696.774,291L670.968,291L645.161,294L619.355,285L593.548,297L567.742,294L541.935,294L516.129,297L490.323,285L464.516,297L438.71,297L412.903,288L387.097,291L361.29,291L335.484,294L309.677,297L283.871,282L258.065,291L232.258,297L206.452,297L180.645,294L154.839,300L129.032,300L103.226,300L77.419,300L51.613,300L25.806,300L0,300Z" fill="#eeca3b"/></g></g><path class="foreground" aria-hidden="true" d="" display="none"/></g><g transform="translate(0,0)"><path class="background" aria-hidden="true" d="M0,0h800v300h-800Z"/><g><g class="mark-area role-mark marks" role="graphics-object" aria-roledescription="area mark container"><path aria-label="Date: Mar 16, 2026; Unique Clones/day: 0; Repository: karlmdavis/test-repo-for-move" role="graphics-symbol" aria-roledescription="area mark" d="M0,300L25.806,300L51.613,300L77.419,300L103.226,300L129.032,300L154.839,300L180.645,294L206.452,297L232.258,297L258.065,291L283.871,282L309.677,297L335.484,294L361.29,291L387.097,291L412.903,288L438.71,297L464.516,297L490.323,285L516.129,297L541.935,294L567.742,294L593.548,297L619.355,285L645.161,294L670.968,291L696.774,291L722.581,270L748.387,297L774.194,294L800,297L800,300L774.194,294L748.387,297L722.581,276L696.774,291L670.968,291L645.161,294L619.355,288L593.548,297L567.742,294L541.935,294L516.129,297L490.323,288L464.516,297L438.71,297L412.903,288L387.097,291L361.29,291L335.484,297L309.677,297L283.871,285L258.065,294L232.258,297L206.452,297L180.645,294L154.839,300L129.032,300L103.226,300L77.419,300L51.613,300L25.806,300L0,300Z" fill="#b279a2"/></g></g><path class="foreground" aria-hidden="true" d="" display="none"/></g><g transform="translate(0,0)"><path class="background" aria-hidden="true" d="M0,0h800v300h-800Z"/><g><g class="mark-area role-mark marks" role="graphics-object" aria-roledescription="area mark container"><path aria-label="Date: Mar 16, 2026; Unique Clones/day: 0; Repository: karlmdavis/todoist-ai" role="graphics-symbol" aria-roledescription="area mark" d="M0,300L25.806,300L51.613,300L77.419,300L103.226,300L129.032,300L154.839,300L180.645,294L206.452,297L232.258,297L258.065,294L283.871,285L309.677,297L335.484,297L361.29,291L387.097,291L412.903,288L438.71,297L464.516,297L490.323,288L516.129,297L541.935,294L567.742,294L593.548,297L619.355,288L645.161,294L670.968,291L696.774,291L722.581,276L748.387,297L774.194,294L800,300L800,300L774.194,297L748.387,297L722.581,276L696.774,291L670.968,294L645.161,294L619.355,288L593.548,297L567.742,294L541.935,294L516.129,297L490.323,288L464.516,297L438.71,297L412.903,294L387.097,291L361.29,291L335.484,297L309.677,297L283.871,285L258.065,294L232.258,297L206.452,297L180.645,294L154.839,300L129.032,300L103.226,300L77.419,300L51.613,300L25.806,300L0,300Z" fill="#ff9da6"/></g></g><path class="foreground" aria-hidden="true" d="" display="none"/></g><g transform="translate(0,0)"><path class="background" aria-hidden="true" d="M0,0h800v300h-800Z"/><g><g class="mark-area role-mark marks" role="graphics-object" aria-roledescription="area mark container"><path aria-label="Date: Mar 16, 2026; Unique Clones/day: 0; Repository: karlmdavis/usgs-water-api-java" role="graphics-symbol" aria-roledescription="area mark" d="M0,300L25.806,300L51.613,300L77.419,300L103.226,300L129.032,300L154.839,300L180.645,294L206.452,297L232.258,297L258.065,294L283.871,285L309.677,297L335.484,297L361.29,291L387.097,291L412.903,294L438.71,297L464.516,297L490.323,288L516.129,297L541.935,294L567.742,294L593.548,297L619.355,288L645.161,294L670.968,294L696.774,291L722.581,276L748.387,297L774.194,297L800,300L800,300L774.194,300L748.387,300L722.581,285L696.774,300L670.968,297L645.161,297L619.355,294L593.548,300L567.742,297L541.935,300L516.129,300L490.323,294L464.516,300L438.71,300L412.903,297L387.097,294L361.29,297L335.484,300L309.677,300L283.871,291L258.065,300L232.258,300L206.452,300L180.645,300L154.839,300L129.032,300L103.226,300L77.419,300L51.613,300L25.806,300L0,300Z" fill="#9d755d"/></g></g><path class="foreground" aria-hidden="true" d="" display="none"/></g><g transform="translate(0,0)"><path class="background" aria-hidden="true" d="M0,0h800v300h-800Z"/><g><g class="mark-area role-mark marks" role="graphics-object" aria-roledescription="area mark container"><path aria-label="Date: Mar 16, 2026; Unique Clones/day: 0; Repository: karlmdavis/workstation-base-ansible-role" role="graphics-symbol" aria-roledescription="area mark" d="M0,300L25.806,300L51.613,300L77.419,300L103.226,300L129.032,300L154.839,300L180.645,300L206.452,300L232.258,300L258.065,300L283.871,291L309.677,300L335.484,300L361.29,297L387.097,294L412.903,297L438.71,300L464.516,300L490.323,294L516.129,300L541.935,300L567.742,297L593.548,300L619.355,294L645.161,297L670.968,297L696.774,300L722.581,285L748.387,300L774.194,300L800,300L800,300L774.194,300L748.387,300L722.581,294L696.774,300L670.968,300L645.161,297L619.355,297L593.548,300L567.742,297L541.935,300L516.129,300L490.323,297L464.516,300L438.71,300L412.903,300L387.097,297L361.29,300L335.484,300L309.677,300L283.871,297L258.065,300L232.258,300L206.452,300L180.645,300L154.839,300L129.032,300L103.226,300L77.419,300L51.613,300L25.806,300L0,300Z" fill="#bab0ac"/></g></g><path class="foreground" aria-hidden="true" d="" display="none"/></g><g transform="translate(0,0)"><path class="background" aria-hidden="true" d="M0,0h800v300h-800Z"/><g><g class="mark-area role-mark marks" role="graphics-object" aria-roledescription="area mark container"><path aria-label="Date: Mar 16, 2026; Unique Clones/day: 0; Repository: karlmdavis/xmlpull" role="graphics-symbol" aria-roledescription="area mark" d="M0,300L25.806,300L51.613,300L77.419,300L103.226,300L129.032,300L154.839,300L180.645,300L206.452,300L232.258,300L258.065,300L283.871,297L309.677,300L335.484,300L361.29,300L387.097,297L412.903,300L438.71,300L464.516,300L490.323,297L516.129,300L541.935,300L567.742,297L593.548,300L619.355,297L645.161,297L670.968,300L696.774,300L722.581,294L748.387,300L774.194,300L800,300L800,300L774.194,300L748.387,300L722.581,300L696.774,300L670.968,300L645.161,300L619.355,300L593.548,300L567.742,300L541.935,300L516.129,300L490.323,300L464.516,300L438.71,300L412.903,300L387.097,300L361.29,300L335.484,300L309.677,300L283.871,300L258.065,300L232.258,300L206.452,300L180.645,300L154.839,300L129.032,300L103.226,300L77.419,300L51.613,300L25.806,300L0,300Z" fill="#4c78a8"/></g></g><path class="foreground" aria-hidden="true" d="" display="none"/></g></g><g class="mark-group role-legend" role="graphics-symbol" aria-roledescription="legend" aria-label="Symbol legend titled 'Repository' for fill color with 41 values: karlmdavis/FHIR-Server, karlmdavis/ansible, karlmdavis/ansible-jenkins, karlmdavis/ansible-role-acmetool, karlmdavis/ansible-role-bind-dns, ending with karlmdavis/xmlpull"><g transform="translate(818,0)"><path class="background" aria-hidden="true" d="M0,0h176v404h-176Z" pointer-events="none"/><g><g class="mark-group role-legend-entry"><g transform="translate(0,16)"><path class="background" aria-hidden="true" d="M0,0h0v0h0Z" pointer-events="none"/><g><g class="mark-group role-scope" role="graphics-object" aria-roledescription="group mark container"><g transform="translate(0,0)"><path class="background" aria-hidden="true" d="M0,0h176v11h-176Z" pointer-events="none" opacity="1"/><g><g class="mark-symbol role-legend-symbol" pointer-events="none"><path transform="translate(6,6)" d="M5,0A5,5,0,1,1,-5,0A5,5,0,1,1,5,0" fill="#4c78a8" stroke-width="1.5" opacity="1"/></g><g class="mark-text role-legend-label" pointer-events="none"><text text-anchor="start" transform="translate(16,9)" font-family="sans-serif" font-size="10px" fill="#000" opacity="1">karlmdavis/FHIR-Server</text></g></g><path class="foreground" aria-hidden="true" d="" pointer-events="none" display="none"/></g><g transform="translate(0,13)"><path class="background" aria-hidden="true" d="M0,0h176v11h-176Z" pointer-events="none" opacity="1"/><g><g class="mark-symbol role-legend-symbol" pointer-events="none"><path transform="translate(6,6)" d="M5,0A5,5,0,1,1,-5,0A5,5,0,1,1,5,0" fill="#f58518" stroke-width="1.5" opacity="1"/></g><g class="mark-text role-legend-label" pointer-events="none"><text text-anchor="start" transform="translate(16,9)" font-family="sans-serif" font-size="10px" fill="#000" opacity="1">karlmdavis/ansible</text></g></g><path class="foreground" aria-hidden="true" d="" pointer-events="none" display="none"/></g><g transform="translate(0,26)"><path class="background" aria-hidden="true" d="M0,0h176v11h-176Z" pointer-events="none" opacity="1"/><g><g class="mark-symbol role-legend-symbol" pointer-events="none"><path transform="translate(6,6)" d="M5,0A5,5,0,1,1,-5,0A5,5,0,1,1,5,0" fill="#e45756" stroke-width="1.5" opacity="1"/></g><g class="mark-text role-legend-label" pointer-events="none"><text text-anchor="start" transform="translate(16,9)" font-family="sans-serif" font-size="10px" fill="#000" opacity="1">karlmdavis/ansible-jenkins</text></g></g><path class="foreground" aria-hidden="true" d="" pointer-events="none" display="none"/></g><g transform="translate(0,39)"><path class="background" aria-hidden="true" d="M0,0h176v11h-176Z" pointer-events="none" opacity="1"/><g><g class="mark-symbol role-legend-symbol" pointer-events="none"><path transform="translate(6,6)" d="M5,0A5,5,0,1,1,-5,0A5,5,0,1,1,5,0" fill="#72b7b2" stroke-width="1.5" opacity="1"/></g><g class="mark-text role-legend-label" pointer-events="none"><text text-anchor="start" transform="translate(16,9)" font-family="sans-serif" font-size="10px" fill="#000" opacity="1">karlmdavis/ansible-role-acmetool</text></g></g><path class="foreground" aria-hidden="true" d="" pointer-events="none" display="none"/></g><g transform="translate(0,52)"><path class="background" aria-hidden="true" d="M0,0h176v11h-176Z" pointer-events="none" opacity="1"/><g><g class="mark-symbol role-legend-symbol" pointer-events="none"><path transform="translate(6,6)" d="M5,0A5,5,0,1,1,-5,0A5,5,0,1,1,5,0" fill="#54a24b" stroke-width="1.5" opacity="1"/></g><g class="mark-text role-legend-label" pointer-events="none"><text text-anchor="start" transform="translate(16,9)" font-family="sans-serif" font-size="10px" fill="#000" opacity="1">karlmdavis/ansible-role-bind-dns</text></g></g><path class="foreground" aria-hidden="true" d="" pointer-events="none" display="none"/></g><g transform="translate(0,65)"><path class="background" aria-hidden="true" d="M0,0h176v11h-176Z" pointer-events="none" opacity="1"/><g><g class="mark-symbol role-legend-symbol" pointer-events="none"><path transform="translate(6,6)" d="M5,0A5,5,0,1,1,-5,0A5,5,0,1,1,5,0" fill="#eeca3b" stroke-width="1.5" opacity="1"/></g><g class="mark-text role-legend-label" pointer-events="none"><text text-anchor="start" transform="translate(16,9)" font-family="sans-serif" font-size="10px" fill="#000" opacity="1">karlmdavis/ansible-role-jenkins2</text></g></g><path class="foreground" aria-hidden="true" d="" pointer-events="none" display="none"/></g><g transform="translate(0,78)"><path class="background" aria-hidden="true" d="M0,0h176v11h-176Z" pointer-events="none" opacity="1"/><g><g class="mark-symbol role-legend-symbol" pointer-events="none"><path transform="translate(6,6)" d="M5,0A5,5,0,1,1,-5,0A5,5,0,1,1,5,0" fill="#b279a2" stroke-width="1.5" opacity="1"/></g><g class="mark-text role-legend-label" pointer-events="none"><text text-anchor="start" transform="translate(16,9)" font-family="sans-serif" font-size="10px" fill="#000" opacity="1">karlmdavis/ansible-role-ldap</text></g></g><path class="foreground" aria-hidden="true" d="" pointer-events="none" display="none"/></g><g transform="translate(0,91)"><path class="background" aria-hidden="true" d="M0,0h176v11h-176Z" pointer-events="none" opacity="1"/><g><g class="mark-symbol role-legend-symbol" pointer-events="none"><path transform="translate(6,6)" d="M5,0A5,5,0,1,1,-5,0A5,5,0,1,1,5,0" fill="#ff9da6" stroke-width="1.5" opacity="1"/></g><g class="mark-text role-legend-label" pointer-events="none"><text text-anchor="start" transform="translate(16,9)" font-family="sans-serif" font-size="10px" fill="#000" opacity="1">karlmdavis/ansible-role-rcm-dotfiles</text></g></g><path class="foreground" aria-hidden="true" d="" pointer-events="none" display="none"/></g><g transform="translate(0,104)"><path class="background" aria-hidden="true" d="M0,0h176v11h-176Z" pointer-events="none" opacity="1"/><g><g class="mark-symbol role-legend-symbol" pointer-events="none"><path transform="translate(6,6)" d="M5,0A5,5,0,1,1,-5,0A5,5,0,1,1,5,0" fill="#9d755d" stroke-width="1.5" opacity="1"/></g><g class="mark-text role-legend-label" pointer-events="none"><text text-anchor="start" transform="translate(16,9)" font-family="sans-serif" font-size="10px" fill="#000" opacity="1">karlmdavis/ansible-roles</text></g></g><path class="foreground" aria-hidden="true" d="" pointer-events="none" display="none"/></g><g transform="translate(0,117)"><path class="background" aria-hidden="true" d="M0,0h176v11h-176Z" pointer-events="none" opacity="1"/><g><g class="mark-symbol role-legend-symbol" pointer-events="none"><path transform="translate(6,6)" d="M5,0A5,5,0,1,1,-5,0A5,5,0,1,1,5,0" fill="#bab0ac" stroke-width="1.5" opacity="1"/></g><g class="mark-text role-legend-label" pointer-events="none"><text text-anchor="start" transform="translate(16,9)" font-family="sans-serif" font-size="10px" fill="#000" opacity="1">karlmdavis/bbonfhir-dev-infra-doc…</text></g></g><path class="foreground" aria-hidden="true" d="" pointer-events="none" display="none"/></g><g transform="translate(0,130)"><path class="background" aria-hidden="true" d="M0,0h176v11h-176Z" pointer-events="none" opacity="1"/><g><g class="mark-symbol role-legend-symbol" pointer-events="none"><path transform="translate(6,6)" d="M5,0A5,5,0,1,1,-5,0A5,5,0,1,1,5,0" fill="#4c78a8" stroke-width="1.5" opacity="1"/></g><g class="mark-text role-legend-label" pointer-events="none"><text text-anchor="start" transform="translate(16,9)" font-family="sans-serif" font-size="10px" fill="#000" opacity="1">karlmdavis/can-i-kayak-baltimore</text></g></g><path class="foreground" aria-hidden="true" d="" pointer-events="none" display="none"/></g><g transform="translate(0,143)"><path class="background" aria-hidden="true" d="M0,0h176v11h-176Z" pointer-events="none" opacity="1"/><g><g class="mark-symbol role-legend-symbol" pointer-events="none"><path transform="translate(6,6)" d="M5,0A5,5,0,1,1,-5,0A5,5,0,1,1,5,0" fill="#f58518" stroke-width="1.5" opacity="1"/></g><g class="mark-text role-legend-label" pointer-events="none"><text text-anchor="start" transform="translate(16,9)" font-family="sans-serif" font-size="10px" fill="#000" opacity="1">karlmdavis/datanucleus-test-jdo-1…</text></g></g><path class="foreground" aria-hidden="true" d="" pointer-events="none" display="none"/></g><g transform="translate(0,156)"><path class="background" aria-hidden="true" d="M0,0h176v11h-176Z" pointer-events="none" opacity="1"/><g><g class="mark-symbol role-legend-symbol" pointer-events="none"><path transform="translate(6,6)" d="M5,0A5,5,0,1,1,-5,0A5,5,0,1,1,5,0" fill="#e45756" stroke-width="1.5" opacity="1"/></g><g class="mark-text role-legend-label" pointer-events="none"><text text-anchor="start" transform="translate(16,9)" font-family="sans-serif" font-size="10px" fill="#000" opacity="1">karlmdavis/dotfiles</text></g></g><path class="foreground" aria-hidden="true" d="" pointer-events="none" display="none"/></g><g transform="translate(0,169)"><path class="background" aria-hidden="true" d="M0,0h176v11h-176Z" pointer-events="none" opacity="1"/><g><g class="mark-symbol role-legend-symbol" pointer-events="none"><path transform="translate(6,6)" d="M5,0A5,5,0,1,1,-5,0A5,5,0,1,1,5,0" fill="#72b7b2" stroke-width="1.5" opacity="1"/></g><g class="mark-text role-legend-label" pointer-events="none"><text text-anchor="start" transform="translate(16,9)" font-family="sans-serif" font-size="10px" fill="#000" opacity="1">karlmdavis/fhir-benchmarks</text></g></g><path class="foreground" aria-hidden="true" d="" pointer-events="none" display="none"/></g><g transform="translate(0,182)"><path class="background" aria-hidden="true" d="M0,0h176v11h-176Z" pointer-events="none" opacity="1"/><g><g class="mark-symbol role-legend-symbol" pointer-events="none"><path transform="translate(6,6)" d="M5,0A5,5,0,1,1,-5,0A5,5,0,1,1,5,0" fill="#54a24b" stroke-width="1.5" opacity="1"/></g><g class="mark-text role-legend-label" pointer-events="none"><text text-anchor="start" transform="translate(16,9)" font-family="sans-serif" font-size="10px" fill="#000" opacity="1">karlmdavis/hapi-fhir-jpaserver-sta…</text></g></g><path class="foreground" aria-hidden="true" d="" pointer-events="none" display="none"/></g><g transform="translate(0,195)"><path class="background" aria-hidden="true" d="M0,0h176v11h-176Z" pointer-events="none" opacity="1"/><g><g class="mark-symbol role-legend-symbol" pointer-events="none"><path transform="translate(6,6)" d="M5,0A5,5,0,1,1,-5,0A5,5,0,1,1,5,0" fill="#eeca3b" stroke-width="1.5" opacity="1"/></g><g class="mark-text role-legend-label" pointer-events="none"><text text-anchor="start" transform="translate(16,9)" font-family="sans-serif" font-size="10px" fill="#000" opacity="1">karlmdavis/hello-rust-actix</text></g></g><path class="foreground" aria-hidden="true" d="" pointer-events="none" display="none"/></g><g transform="translate(0,208)"><path class="background" aria-hidden="true" d="M0,0h176v11h-176Z" pointer-events="none" opacity="1"/><g><g class="mark-symbol role-legend-symbol" pointer-events="none"><path transform="translate(6,6)" d="M5,0A5,5,0,1,1,-5,0A5,5,0,1,1,5,0" fill="#b279a2" stroke-width="1.5" opacity="1"/></g><g class="mark-text role-legend-label" pointer-events="none"><text text-anchor="start" transform="translate(16,9)" font-family="sans-serif" font-size="10px" fill="#000" opacity="1">karlmdavis/jessentials</text></g></g><path class="foreground" aria-hidden="true" d="" pointer-events="none" display="none"/></g><g transform="translate(0,221)"><path class="background" aria-hidden="true" d="M0,0h176v11h-176Z" pointer-events="none" opacity="1"/><g><g class="mark-symbol role-legend-symbol" pointer-events="none"><path transform="translate(6,6)" d="M5,0A5,5,0,1,1,-5,0A5,5,0,1,1,5,0" fill="#ff9da6" stroke-width="1.5" opacity="1"/></g><g class="mark-text role-legend-label" pointer-events="none"><text text-anchor="start" transform="translate(16,9)" font-family="sans-serif" font-size="10px" fill="#000" opacity="1">karlmdavis/justdavis-ansible</text></g></g><path class="foreground" aria-hidden="true" d="" pointer-events="none" display="none"/></g><g transform="translate(0,234)"><path class="background" aria-hidden="true" d="M0,0h176v11h-176Z" pointer-events="none" opacity="1"/><g><g class="mark-symbol role-legend-symbol" pointer-events="none"><path transform="translate(6,6)" d="M5,0A5,5,0,1,1,-5,0A5,5,0,1,1,5,0" fill="#9d755d" stroke-width="1.5" opacity="1"/></g><g class="mark-text role-legend-label" pointer-events="none"><text text-anchor="start" transform="translate(16,9)" font-family="sans-serif" font-size="10px" fill="#000" opacity="1">karlmdavis/justdavis-finances</text></g></g><path class="foreground" aria-hidden="true" d="" pointer-events="none" display="none"/></g><g transform="translate(0,247)"><path class="background" aria-hidden="true" d="M0,0h176v11h-176Z" pointer-events="none" opacity="1"/><g><g class="mark-symbol role-legend-symbol" pointer-events="none"><path transform="translate(6,6)" d="M5,0A5,5,0,1,1,-5,0A5,5,0,1,1,5,0" fill="#bab0ac" stroke-width="1.5" opacity="1"/></g><g class="mark-text role-legend-label" pointer-events="none"><text text-anchor="start" transform="translate(16,9)" font-family="sans-serif" font-size="10px" fill="#000" opacity="1">karlmdavis/justdavis-karl</text></g></g><path class="foreground" aria-hidden="true" d="" pointer-events="none" display="none"/></g><g transform="translate(0,260)"><path class="background" aria-hidden="true" d="M0,0h176v11h-176Z" pointer-events="none" opacity="1"/><g><g class="mark-symbol role-legend-symbol" pointer-events="none"><path transform="translate(6,6)" d="M5,0A5,5,0,1,1,-5,0A5,5,0,1,1,5,0" fill="#4c78a8" stroke-width="1.5" opacity="1"/></g><g class="mark-text role-legend-label" pointer-events="none"><text text-anchor="start" transform="translate(16,9)" font-family="sans-serif" font-size="10px" fill="#000" opacity="1">karlmdavis/justdavis-puppet</text></g></g><path class="foreground" aria-hidden="true" d="" pointer-events="none" display="none"/></g><g transform="translate(0,273)"><path class="background" aria-hidden="true" d="M0,0h176v11h-176Z" pointer-events="none" opacity="1"/><g><g class="mark-symbol role-legend-symbol" pointer-events="none"><path transform="translate(6,6)" d="M5,0A5,5,0,1,1,-5,0A5,5,0,1,1,5,0" fill="#f58518" stroke-width="1.5" opacity="1"/></g><g class="mark-text role-legend-label" pointer-events="none"><text text-anchor="start" transform="translate(16,9)" font-family="sans-serif" font-size="10px" fill="#000" opacity="1">karlmdavis/kobjects</text></g></g><path class="foreground" aria-hidden="true" d="" pointer-events="none" display="none"/></g><g transform="translate(0,286)"><path class="background" aria-hidden="true" d="M0,0h176v11h-176Z" pointer-events="none" opacity="1"/><g><g class="mark-symbol role-legend-symbol" pointer-events="none"><path transform="translate(6,6)" d="M5,0A5,5,0,1,1,-5,0A5,5,0,1,1,5,0" fill="#e45756" stroke-width="1.5" opacity="1"/></g><g class="mark-text role-legend-label" pointer-events="none"><text text-anchor="start" transform="translate(16,9)" font-family="sans-serif" font-size="10px" fill="#000" opacity="1">karlmdavis/ksoap2-android</text></g></g><path class="foreground" aria-hidden="true" d="" pointer-events="none" display="none"/></g><g transform="translate(0,299)"><path class="background" aria-hidden="true" d="M0,0h176v11h-176Z" pointer-events="none" opacity="1"/><g><g class="mark-symbol role-legend-symbol" pointer-events="none"><path transform="translate(6,6)" d="M5,0A5,5,0,1,1,-5,0A5,5,0,1,1,5,0" fill="#72b7b2" stroke-width="1.5" opacity="1"/></g><g class="mark-text role-legend-label" pointer-events="none"><text text-anchor="start" transform="translate(16,9)" font-family="sans-serif" font-size="10px" fill="#000" opacity="1">karlmdavis/kxml2</text></g></g><path class="foreground" aria-hidden="true" d="" pointer-events="none" display="none"/></g><g transform="translate(0,312)"><path class="background" aria-hidden="true" d="M0,0h176v11h-176Z" pointer-events="none" opacity="1"/><g><g class="mark-symbol role-legend-symbol" pointer-events="none"><path transform="translate(6,6)" d="M5,0A5,5,0,1,1,-5,0A5,5,0,1,1,5,0" fill="#54a24b" stroke-width="1.5" opacity="1"/></g><g class="mark-text role-legend-label" pointer-events="none"><text text-anchor="start" transform="translate(16,9)" font-family="sans-serif" font-size="10px" fill="#000" opacity="1">karlmdavis/ldap-plugin</text></g></g><path class="foreground" aria-hidden="true" d="" pointer-events="none" display="none"/></g><g transform="translate(0,325)"><path class="background" aria-hidden="true" d="M0,0h176v11h-176Z" pointer-events="none" opacity="1"/><g><g class="mark-symbol role-legend-symbol" pointer-events="none"><path transform="translate(6,6)" d="M5,0A5,5,0,1,1,-5,0A5,5,0,1,1,5,0" fill="#eeca3b" stroke-width="1.5" opacity="1"/></g><g class="mark-text role-legend-label" pointer-events="none"><text text-anchor="start" transform="translate(16,9)" font-family="sans-serif" font-size="10px" fill="#000" opacity="1">karlmdavis/lego-ev3dev-rs</text></g></g><path class="foreground" aria-hidden="true" d="" pointer-events="none" display="none"/></g><g transform="translate(0,338)"><path class="background" aria-hidden="true" d="M0,0h176v11h-176Z" pointer-events="none" opacity="1"/><g><g class="mark-symbol role-legend-symbol" pointer-events="none"><path transform="translate(6,6)" d="M5,0A5,5,0,1,1,-5,0A5,5,0,1,1,5,0" fill="#b279a2" stroke-width="1.5" opacity="1"/></g><g class="mark-text role-legend-label" pointer-events="none"><text text-anchor="start" transform="translate(16,9)" font-family="sans-serif" font-size="10px" fill="#000" opacity="1">karlmdavis/liquibase</text></g></g><path class="foreground" aria-hidden="true" d="" pointer-events="none" display="none"/></g><g transform="translate(0,351)"><path class="background" aria-hidden="true" d="M0,0h176v11h-176Z" pointer-events="none" opacity="1"/><g><g class="mark-symbol role-legend-symbol" pointer-events="none"><path transform="translate(6,6)" d="M5,0A5,5,0,1,1,-5,0A5,5,0,1,1,5,0" fill="#ff9da6" stroke-width="1.5" opacity="1"/></g><g class="mark-text role-legend-label" pointer-events="none"><text text-anchor="start" transform="translate(16,9)" font-family="sans-serif" font-size="10px" fill="#000" opacity="1">karlmdavis/m2e-core</text></g></g><path class="foreground" aria-hidden="true" d="" pointer-events="none" display="none"/></g><g transform="translate(0,364)"><path class="background" aria-hidden="true" d="M0,0h176v11h-176Z" pointer-events="none" opacity="1"/><g><g class="mark-symbol role-legend-symbol" pointer-events="none"><path transform="translate(6,6)" d="M5,0A5,5,0,1,1,-5,0A5,5,0,1,1,5,0" fill="#9d755d" stroke-width="1.5" opacity="1"/></g><g class="mark-text role-legend-label" pointer-events="none"><text text-anchor="start" transform="translate(16,9)" font-family="sans-serif" font-size="10px" fill="#000" opacity="1">karlmdavis/m2e-core-tests</text></g></g><path class="foreground" aria-hidden="true" d="" pointer-events="none" display="none"/></g><g transform="translate(0,377)"><path class="background" aria-hidden="true" d="M0,0h176v11h-176Z" pointer-events="none" opacity="1"/><g><g class="mark-symbol role-legend-symbol" pointer-events="none"><path transform="translate(6,6)" d="M5,0A5,5,0,1,1,-5,0A5,5,0,1,1,5,0" fill="#bab0ac" stroke-width="1.5" opacity="1"/></g><g class="mark-text role-legend-label" pointer-events="none"><text text-anchor="start" transform="translate(16,9)" font-family="sans-serif" font-size="10px" fill="#000" opacity="1">…12 entries</text></g></g><path class="foreground" aria-hidden="true" d="" pointer-events="none" display="none"/></g></g></g><path class="foreground" aria-hidden="true" d="" pointer-events="none" display="none"/></g></g><g class="mark-text role-legend-title" pointer-events="none"><text text-anchor="start" transform="translate(0,9)" font-family="sans-serif" font-size="11px" font-weight="bold" fill="#000" opacity="1">Repository</text></g></g><path class="foreground" aria-hidden="true" d="" pointer-events="none" display="none"/></g></g><g class="mark-group role-title"><g transform="translate(400,-22)"><path class="background" aria-hidden="true" d="M0,0h0v0h0Z" pointer-events="none"/><g><g class="mark-text role-title-text" role="graphics-symbol" aria-roledescription="title" aria-label="Title text 'Unique Clones per Day'" pointer-events="none"><text text-anchor="middle" transform="translate(0,10)" font-family="sans-serif" font-size="13px" font-weight="bold" fill="#000" opacity="1">Unique Clones per Day</text></g></g><path class="foreground" aria-hidden="true" d="" pointer-events="none" display="none"/></g></g></g><path class="foreground" aria-hidden="true" d="" display="none"/></g></g></g></svg>