<svg xmlns="http://www.w3.org/2000/svg" xmlns:xlink="http://www.w3.org/1999/xlink" version="1.1" class="marks" width="1043" height="436" viewBox="0 0 1043 436"><rect width="1043" height="436" fill="white"/><g fill="none" stroke-miterlimit="10" transform="translate(44,27)"><g class="mark-group role-frame root" role="graphics-object" aria-roledescription="group mark container"><g transform="translate(0,0)"><path class="background" aria-hidden="true" d="M0.5,0.5h800v300h-800Z" stroke="#ddd"/><g><g class="mark-group role-axis" aria-hidden="true"><g transform="translate(0.5,300.5)"><path class="background" aria-hidden="true" d="M0,0h0v0h0Z" pointer-events="none"/><g><g class="mark-rule role-axis-grid" pointer-events="none"><line transform="translate(24,-300)" x2="0" y2="300" stroke="#ddd" stroke-width="1" opacity="1"/><line transform="translate(71,-300)" x2="0" y2="300" stroke="#ddd" stroke-width="1" opacity="1"/><line transform="translate(118,-300)" x2="0" y2="300" stroke="#ddd" stroke-width="1" opacity="1"/><line transform="translate(165,-300)" x2="0" y2="300" stroke="#ddd" stroke-width="1" opacity="1"/><line transform="translate(212,-300)" x2="0" y2="300" stroke="#ddd" stroke-width="1" opacity="1"/><line transform="translate(259,-300)" x2="0" y2="300" stroke="#ddd" stroke-width="1" opacity="1"/><line transform="translate(306,-300)" x2="0" y2="300" stroke="#ddd" stroke-width="1" opacity="1"/><line transform="translate(353,-300)" x2="0" y2="300" stroke="#ddd" stroke-width="1" opacity="1"/><line transform="translate(376,-300)" x2="0" y2="300" stroke="#ddd" stroke-width="1" opacity="1"/><line transform="translate(424,-300)" x2="0" y2="300" stroke="#ddd" stroke-width="1" opacity="1"/><line transform="translate(471,-300)" x2="0" y2="300" stroke="#ddd" stroke-width="1" opacity="1"/><line transform="translate(518,-300)" x2="0" y2="300" stroke="#ddd" stroke-width="1" opacity="1"/><line transform="translate(565,-300)" x2="0" y2="300" stroke="#ddd" stroke-width="1" opacity="1"/><line transform="translate(612,-300)" x2="0" y2="300" stroke="#ddd" stroke-width="1" opacity="1"/><line transform="translate(659,-300)" x2="0" y2="300" stroke="#ddd" stroke-width="1" opacity="1"/><line transform="translate(706,-300)" x2="0" y2="300" stroke="#ddd" stroke-width="1" opacity="1"/><line transform="translate(753,-300)" x2="0" y2="300" stroke="#ddd" stroke-width="1" opacity="1"/><line transform="translate(800,-300)" x2="0" y2="300" stroke="#ddd" stroke-width="1" opacity="1"/></g></g><path class="foreground" aria-hidden="true" d="" pointer-events="none" display="none"/></g></g><g class="mark-group role-axis" aria-hidden="true"><g transform="translate(0.5,0.5)"><path class="background" aria-hidden="true" d="M0,0h0v0h0Z" pointer-events="none"/><g><g class="mark-rule role-axis-grid" pointer-events="none"><line transform="translate(0,300)" x2="800" y2="0" stroke="#ddd" stroke-width="1" opacity="1"/><line transform="translate(0,270)" x2="800" y2="0" stroke="#ddd" stroke-width="1" opacity="1"/><line transform="translate(0,240)" x2="800" y2="0" stroke="#ddd" stroke-width="1" opacity="1"/><line transform="translate(0,210)" x2="800" y2="0" stroke="#ddd" stroke-width="1" opacity="1"/><line transform="translate(0,180)" x2="800" y2="0" stroke="#ddd" stroke-width="1" opacity="1"/><line transform="translate(0,150)" x2="800" y2="0" stroke="#ddd" stroke-width="1" opacity="1"/><line transform="translate(0,120)" x2="800" y2="0" stroke="#ddd" stroke-width="1" opacity="1"/><line transform="translate(0,90)" x2="800" y2="0" stroke="#ddd" stroke-width="1" opacity="1"/><line transform="translate(0,60)" x2="800" y2="0" stroke="#ddd" stroke-width="1" opacity="1"/><line transform="translate(0,30)" x2="800" y2="0" stroke="#ddd" stroke-width="1" opacity="1"/><line transform="translate(0,0)" x2="800" y2="0" stroke="#ddd" stroke-width="1" opacity="1"/></g></g><path class="foreground" aria-hidden="true" d="" pointer-events="none" display="none"/></g></g><g class="mark-group role-axis" role="graphics-symbol" aria-roledescription="axis" aria-label="X-axis titled 'Date' for a time scale with values from Monday, 16 March 2026, 12:00:00 AM to Sunday, 19 April 2026, 12:00:00 AM"><g transform="translate(0.5,300.5)"><path class="background" aria-hidden="true" d="M0,0h0v0h0Z" pointer-events="none"/><g><g class="mark-rule role-axis-tick" pointer-events="none"><line transform="translate(24,0)" x2="0" y2="5" stroke="#888" stroke-width="1" opacity="1"/><line transform="translate(71,0)" x2="0" y2="5" stroke="#888" stroke-width="1" opacity="1"/><line transform="translate(118,0)" x2="0" y2="5" stroke="#888" stroke-width="1" opacity="1"/><line transform="translate(165,0)" x2="0" y2="5" stroke="#888" stroke-width="1" opacity="1"/><line transform="translate(212,0)" x2="0" y2="5" stroke="#888" stroke-width="1" opacity="1"/><line transform="translate(259,0)" x2="0" y2="5" stroke="#888" stroke-width="1" opacity="1"/><line transform="translate(306,0)" x2="0" y2="5" stroke="#888" stroke-width="1" opacity="1"/><line transform="translate(353,0)" x2="0" y2="5" stroke="#888" stroke-width="1" opacity="1"/><line transform="translate(376,0)" x2="0" y2="5" stroke="#888" stroke-width="1" opacity="1"/><line transform="translate(424,0)" x2="0" y2="5" stroke="#888" stroke-width="1" opacity="1"/><line transform="translate(471,0)" x2="0" y2="5" stroke="#888" stroke-width="1" opacity="1"/><line transform="translate(518,0)" x2="0" y2="5" stroke="#888" stroke-width="1" opacity="1"/><line transform="translate(565,0)" x2="0" y2="5" stroke="#888" stroke-width="1" opacity="1"/><line transform="translate(612,0)" x2="0" y2="5" stroke="#888" stroke-width="1" opacity="1"/><line transform="translate(659,0)" x2="0" y2="5" stroke="#888" stroke-width="1" opacity="1"/><line transform="translate(706,0)" x2="0" y2="5" stroke="#888" stroke-width="1" opacity="1"/><line transform="translate(753,0)" x2="0" y2="5" stroke="#888" stroke-width="1" opacity="1"/><line transform="translate(800,0)" x2="0" y2="5" stroke="#888" stroke-width="1" opacity="1"/></g><g class="mark-text role-axis-label" pointer-events="none"><text text-anchor="middle" transform="translate(23.52941176470588,15)" font-family="sans-serif" font-size="10px" fill="#000" opacity="1">Tue 17</text><text text-anchor="middle" transform="translate(70.58823529411765,15)" font-family="sans-serif" font-size="10px" fill="#000" opacity="0">Thu 19</text><text text-anchor="middle" transform="translate(117.64705882352942,15)" font-family="sans-serif" font-size="10px" fill="#000" opacity="1">Sat 21</text><text text-anchor="middle" transform="translate(164.70588235294116,15)" font-family="sans-serif" font-size="10px" fill="#000" opacity="0">Mon 23</text><text text-anchor="middle" transform="translate(211.76470588235296,15)" font-family="sans-serif" font-size="10px" fill="#000" opacity="1">Wed 25</text><text text-anchor="middle" transform="translate(258.8235294117647,15)" font-family="sans-serif" font-size="10px" fill="#000" opacity="0">Fri 27</text><text text-anchor="middle" transform="translate(305.88235294117646,15)" font-family="sans-serif" font-size="10px" fill="#000" opacity="1">Mar 29</text><text text-anchor="middle" transform="translate(352.94117647058823,15)" font-family="sans-serif" font-size="10px" fill="#000" opacity="0">Tue 31</text><text text-anchor="middle" transform="translate(376.4705882352941,15)" font-family="sans-serif" font-size="10px" fill="#000" opacity="1">April</text><text text-anchor="middle" transform="translate(423.5294117647059,15)" font-family="sans-serif" font-size="10px" fill="#000" opacity="0">Fri 03</text><text text-anchor="middle" transform="translate(470.5882352941177,15)" font-family="sans-serif" font-size="10px" fill="#000" opacity="1">Apr 05</text><text text-anchor="middle" transform="translate(517.6470588235294,15)" font-family="sans-serif" font-size="10px" fill="#000" opacity="0">Tue 07</text><text text-anchor="middle" transform="translate(564.7058823529412,15)" font-family="sans-serif" font-size="10px" fill="#000" opacity="1">Thu 09</text><text text-anchor="middle" transform="translate(611.7647058823529,15)" font-family="sans-serif" font-size="10px" fill="#000" opacity="0">Sat 11</text><text text-anchor="middle" transform="translate(658.8235294117646,15)" font-family="sans-serif" font-size="10px" fill="#000" opacity="1">Mon 13</text><text text-anchor="middle" transform="translate(705.8823529411765,15)" font-family="sans-serif" font-size="10px" fill="#000" opacity="0">Wed 15</text><text text-anchor="middle" transform="translate(752.9411764705882,15)" font-family="sans-serif" font-size="10px" fill="#000" opacity="1">Fri 17</text><text text-anchor="end" transform="translate(800,15)" font-family="sans-serif" font-size="10px" fill="#000" opacity="0">Apr 19</text></g><g class="mark-rule role-axis-domain" pointer-events="none"><line transform="translate(0,0)" x2="800" y2="0" stroke="#888" stroke-width="1" opacity="1"/></g><g class="mark-text role-axis-title" pointer-events="none"><text text-anchor="middle" transform="translate(400,30)" font-family="sans-serif" font-size="11px" font-weight="bold" fill="#000" opacity="1">Date</text></g></g><path class="foreground" aria-hidden="true" d="" pointer-events="none" display="none"/></g></g><g class="mark-group role-axis" role="graphics-symbol" aria-roledescription="axis" aria-label="Y-axis titled 'Unique Clones/day' for a linear scale with values from 0 to 100"><g transform="translate(0.5,0.5)"><path class="background" aria-hidden="true" d="M0,0h0v0h0Z" pointer-events="none"/><g><g class="mark-rule role-axis-tick" pointer-events="none"><line transform="translate(0,300)" x2="-5" y2="0" stroke="#888" stroke-width="1" opacity="1"/><line transform="translate(0,270)" x2="-5" y2="0" stroke="#888" stroke-width="1" opacity="1"/><line transform="translate(0,240)" x2="-5" y2="0" stroke="#888" stroke-width="1" opacity="1"/><line transform="translate(0,210)" x2="-5" y2="0" stroke="#888" stroke-width="1" opacity="1"/><line transform="translate(0,180)" x2="-5" y2="0" stroke="#888" stroke-width="1" opacity="1"/><line transform="translate(0,150)" x2="-5" y2="0" stroke="#888" stroke-width="1" opacity="1"/><line transform="translate(0,120)" x2="-5" y2="0" stroke="#888" stroke-width="1" opacity="1"/><line transform="translate(0,90)" x2="-5" y2="0" stroke="#888" stroke-width="1" opacity="1"/><line transform="translate(0,60)" x2="-5" y2="0" stroke="#888" stroke-width="1" opacity="1"/><line transform="translate(0,30)" x2="-5" y2="0" stroke="#888" stroke-width="1" opacity="1"/><line transform="translate(0,0)" x2="-5" y2="0" stroke="#888" stroke-width="1" opacity="1"/></g><g class="mark-text role-axis-label" pointer-events="none"><text text-anchor="end" transform="translate(-7,303)" font-family="sans-serif" font-size="10px" fill="#000" opacity="1">0</text><text text-anchor="end" transform="translate(-7,273)" font-family="sans-serif" font-size="10px" fill="#000" opacity="1">10</text><text text-anchor="end" transform="translate(-7,243)" font-family="sans-serif" font-size="10px" fill="#000" opacity="1">20</text><text text-anchor="end" transform="translate(-7,213)" font-family="sans-serif" font-size="10px" fill="#000" opacity="1">30</text><text text-anchor="end" transform="translate(-7,183)" font-family="sans-serif" font-size="10px" fill="#000" opacity="1">40</text><text text-anchor="end" transform="translate(-7,153)" font-family="sans-serif" font-size="10px" fill="#000" opacity="1">50</text><text text-anchor="end" transform="translate(-7,123)" font-family="sans-serif" font-size="10px" fill="#000" opacity="1">60</text><text text-anchor="end" transform="translate(-7,93.00000000000001)" font-family="sans-serif" font-size="10px" fill="#000" opacity="1">70</text><text text-anchor="end" transform="translate(-7,62.999999999999986)" font-family="sans-serif" font-size="10px" fill="#000" opacity="1">80</text><text text-anchor="end" transform="translate(-7,32.99999999999999)" font-family="sans-serif" font-size="10px" fill="#000" opacity="1">90</text><text text-anchor="end" transform="translate(-7,3)" font-family="sans-serif" font-size="10px" fill="#000" opacity="1">100</text></g><g class="mark-rule role-axis-domain" pointer-events="none"><line transform="translate(0,300)" x2="0" y2="-300" stroke="#888" stroke-width="1" opacity="1"/></g><g class="mark-text role-axis-title" pointer-events="none"><text text-anchor="middle" transform="translate(-27.6845703125,150) rotate(-90) translate(0,-2)" font-family="sans-serif" font-size="11px" font-weight="bold" fill="#000" opacity="1">Unique Clones/day</text></g></g><path class="foreground" aria-hidden="true" d="" pointer-events="none" display="none"/></g></g><g class="mark-group role-scope pathgroup" role="graphics-object" aria-roledescription="group mark container"><g transform="translate(0,0)"><path class="background" aria-hidden="true" d="M0,0h800v300h-800Z"/><g><g class="mark-area role-mark marks" role="graphics-object" aria-roledescription="area mark container"><path aria-label="Date: Mar 16, 2026; Unique Clones/day: 0; Repository: karlmdavis/FHIR-Server" role="graphics-symbol" aria-roledescription="area mark" d="M0,297L23.529,300L47.059,300L70.588,297L94.118,300L117.647,300L141.176,300L164.706,264L188.235,294L211.765,279L235.294,252L258.824,93L282.353,162L305.882,12L329.412,201L352.941,231L376.471,246L400,270L423.529,213L447.059,36L470.588,57L494.118,261L517.647,210L541.176,213L564.706,177L588.235,264L611.765,222L635.294,192L658.824,33L682.353,264L705.882,264L729.412,282L752.941,282L776.471,291L800,237L800,237L776.471,291L752.941,282L729.412,282L705.882,264L682.353,264L658.824,33L635.294,195L611.765,228L588.235,264L564.706,177L541.176,213L517.647,210L494.118,261L470.588,57L447.059,36L423.529,213L400,270L376.471,246L352.941,234L329.412,201L305.882,12L282.353,162L258.824,93L235.294,252L211.765,279L188.235,294L164.706,264L141.176,300L117.647,300L94.118,300L70.588,297L47.059,300L23.529,300L0,297Z" fill="#4c78a8"/></g></g><path class="foreground" aria-hidden="true" d="" display="none"/></g><g transform="translate(0,0)"><path class="background" aria-hidden="true" d="M0,0h800v300h-800Z"/><g><g class="mark-area role-mark marks" role="graphics-object" aria-roledescription="area mark container"><path aria-label="Date: Mar 16, 2026; Unique Clones/day: 1; Repository: karlmdavis/ansible" role="graphics-symbol" aria-roledescription="area mark" d="M0,297L23.529,300L47.059,300L70.588,297L94.118,300L117.647,300L141.176,300L164.706,264L188.235,294L211.765,279L235.294,252L258.824,93L282.353,162L305.882,12L329.412,201L352.941,234L376.471,246L400,270L423.529,213L447.059,36L470.588,57L494.118,261L517.647,210L541.176,213L564.706,177L588.235,264L611.765,228L635.294,195L658.824,33L682.353,264L705.882,264L729.412,282L752.941,282L776.471,291L800,237L800,237L776.471,291L752.941,282L729.412,282L705.882,264L682.353,267L658.824,33L635.294,195L611.765,228L588.235,264L564.706,177L541.176,213L517.647,210L494.118,261L470.588,57L447.059,36L423.529,213L400,270L376.471,246L352.941,234L329.412,201L305.882,12L282.353,162L258.824,93L235.294,252L211.765,279L188.235,294L164.706,264L141.176,300L117.647,300L94.118,300L70.588,297L47.059,300L23.529,300L0,300Z" fill="#f58518"/></g></g><path class="foreground" aria-hidden="true" d="" display="none"/></g><g transform="translate(0,0)"><path class="background" aria-hidden="true" d="M0,0h800v300h-800Z"/><g><g class="mark-area role-mark marks" role="graphics-object" aria-roledescription="area mark container"><path aria-label="Date: Mar 16, 2026; Unique Clones/day: 0; Repository: karlmdavis/ansible-jenkins" role="graphics-symbol" aria-roledescription="area mark" d="M0,300L23.529,300L47.059,300L70.588,297L94.118,300L117.647,300L141.176,300L164.706,264L188.235,294L211.765,279L235.294,252L258.824,93L282.353,162L305.882,12L329.412,201L352.941,234L376.471,246L400,270L423.529,213L447.059,36L470.588,57L494.118,261L517.647,210L541.176,213L564.706,177L588.235,264L611.765,228L635.294,195L658.824,33L682.353,267L705.882,264L729.412,282L752.941,282L776.471,291L800,237L800,237L776.471,291L752.941,282L729.412,282L705.882,264L682.353,267L658.824,33L635.294,198L611.765,228L588.235,264L564.706,177L541.176,213L517.647,210L494.118,261L470.588,57L447.059,39L423.529,216L400,270L376.471,246L352.941,234L329.412,201L305.882,12L282.353,162L258.824,93L235.294,255L211.765,279L188.235,294L164.706,264L141.176,300L117.647,300L94.118,300L70.588,297L47.059,300L23.529,300L0,300Z" fill="#e45756"/></g></g><path class="foreground" aria-hidden="true" d="" display="none"/></g><g transform="translate(0,0)"><path class="background" aria-hidden="true" d="M0,0h800v300h-800Z"/><g><g class="mark-area role-mark marks" role="graphics-object" aria-roledescription="area mark container"><path aria-label="Date: Mar 16, 2026; Unique Clones/day: 0; Repository: karlmdavis/ansible-role-acmetool" role="graphics-symbol" aria-roledescription="area mark" d="M0,300L23.529,300L47.059,300L70.588,297L94.118,300L117.647,300L141.176,300L164.706,264L188.235,294L211.765,279L235.294,255L258.824,93L282.353,162L305.882,12L329.412,201L352.941,234L376.471,246L400,270L423.529,216L447.059,39L470.588,57L494.118,261L517.647,210L541.176,213L564.706,177L588.235,264L611.765,228L635.294,198L658.824,33L682.353,267L705.882,264L729.412,282L752.941,282L776.471,291L800,237L800,237L776.471,291L752.941,282L729.412,282L705.882,264L682.353,267L658.824,33L635.294,201L611.765,228L588.235,264L564.706,177L541.176,213L517.647,210L494.118,261L470.588,57L447.059,39L423.529,216L400,270L376.471,246L352.941,234L329.412,201L305.882,12L282.353,162L258.824,93L235.294,258L211.765,279L188.235,294L164.706,264L141.176,300L117.647,300L94.118,300L70.588,297L47.059,300L23.529,300L0,300Z" fill="#72b7b2"/></g></g><path class="foreground" aria-hidden="true" d="" display="none"/></g><g transform="translate(0,0)"><path class="background" aria-hidden="true" d="M0,0h800v300h-800Z"/><g><g class="mark-area role-mark marks" role="graphics-object" aria-roledescription="area mark container"><path aria-label="Date: Mar 16, 2026; Unique Clones/day: 0; Repository: karlmdavis/ansible-role-bind-dns" role="graphics-symbol" aria-roledescription="area mark" d="M0,300L23.529,300L47.059,300L70.588,297L94.118,300L117.647,300L141.176,300L164.706,264L188.235,294L211.765,279L235.294,258L258.824,93L282.353,162L305.882,12L329.412,201L352.941,234L376.471,246L400,270L423.529,216L447.059,39L470.588,57L494.118,261L517.647,210L541.176,213L564.706,177L588.235,264L611.765,228L635.294,201L658.824,33L682.353,267L705.882,264L729.412,282L752.941,282L776.471,291L800,237L800,237L776.471,291L752.941,282L729.412,285L705.882,264L682.353,267L658.824,45L635.294,204L611.765,228L588.235,264L564.706,180L541.176,216L517.647,210L494.118,261L470.588,57L447.059,42L423.529,216L400,270L376.471,255L352.941,234L329.412,204L305.882,15L282.353,162L258.824,99L235.294,258L211.765,279L188.235,294L164.706,264L141.176,300L117.647,300L94.118,300L70.588,297L47.059,300L23.529,300L0,300Z" fill="#54a24b"/></g></g><path class="foreground" aria-hidden="true" d="" display="none"/></g><g transform="translate(0,0)"><path class="background" aria-hidden="true" d="M0,0h800v300h-800Z"/><g><g class="mark-area role-mark marks" role="graphics-object" aria-roledescription="area mark container"><path aria-label="Date: Mar 16, 2026; Unique Clones/day: 0; Repository: karlmdavis/ansible-role-jenkins2" role="graphics-symbol" aria-roledescription="area mark" d="M0,300L23.529,300L47.059,300L70.588,297L94.118,300L117.647,300L141.176,300L164.706,264L188.235,294L211.765,279L235.294,258L258.824,99L282.353,162L305.882,15L329.412,204L352.941,234L376.471,255L400,270L423.529,216L447.059,42L470.588,57L494.118,261L517.647,210L541.176,216L564.706,180L588.235,264L611.765,228L635.294,204L658.824,45L682.353,267L705.882,264L729.412,285L752.941,282L776.471,291L800,237L800,237L776.471,291L752.941,282L729.412,285L705.882,267L682.353,267L658.824,60L635.294,204L611.765,231L588.235,270L564.706,195L541.176,216L517.647,210L494.118,261L470.588,60L447.059,48L423.529,219L400,273L376.471,258L352.941,237L329.412,204L305.882,15L282.353,165L258.824,102L235.294,261L211.765,282L188.235,297L164.706,264L141.176,300L117.647,300L94.118,300L70.588,297L47.059,300L23.529,300L0,300Z" fill="#eeca3b"/></g></g><path class="foreground" aria-hidden="true" d="" display="none"/></g><g transform="translate(0,0)"><path class="background" aria-hidden="true" d="M0,0h800v300h-800Z"/><g><g class="mark-area role-mark marks" role="graphics-object" aria-roledescription="area mark container"><path aria-label="Date: Mar 16, 2026; Unique Clones/day: 0; Repository: karlmdavis/ansible-role-ldap" role="graphics-symbol" aria-roledescription="area mark" d="M0,300L23.529,300L47.059,300L70.588,297L94.118,300L117.647,300L141.176,300L164.706,264L188.235,297L211.765,282L235.294,261L258.824,102L282.353,165L305.882,15L329.412,204L352.941,237L376.471,258L400,273L423.529,219L447.059,48L470.588,60L494.118,261L517.647,210L541.176,216L564.706,195L588.235,270L611.765,231L635.294,204L658.824,60L682.353,267L705.882,267L729.412,285L752.941,282L776.471,291L800,237L800,237L776.471,291L752.941,282L729.412,285L705.882,267L682.353,267L658.824,63L635.294,204L611.765,231L588.235,270L564.706,195L541.176,216L517.647,210L494.118,261L470.588,60L447.059,48L423.529,219L400,273L376.471,258L352.941,240L329.412,204L305.882,15L282.353,165L258.824,102L235.294,261L211.765,282L188.235,297L164.706,264L141.176,300L117.647,300L94.118,300L70.588,297L47.059,300L23.529,300L0,300Z" fill="#b279a2"/></g></g><path class="foreground" aria-hidden="true" d="" display="none"/></g><g transform="translate(0,0)"><path class="background" aria-hidden="true" d="M0,0h800v300h-800Z"/><g><g class="mark-area role-mark marks" role="graphics-object" aria-roledescription="area mark container"><path aria-label="Date: Mar 16, 2026; Unique Clones/day: 0; Repository: karlmdavis/ansible-role-rcm-dotfiles" role="graphics-symbol" aria-roledescription="area mark" d="M0,300L23.529,300L47.059,300L70.588,297L94.118,300L117.647,300L141.176,300L164.706,264L188.235,297L211.765,282L235.294,261L258.824,102L282.353,165L305.882,15L329.412,204L352.941,240L376.471,258L400,273L423.529,219L447.059,48L470.588,60L494.118,261L517.647,210L541.176,216L564.706,195L588.235,270L611.765,231L635.294,204L658.824,63L682.353,267L705.882,267L729.412,285L752.941,282L776.471,291L800,237L800,237L776.471,291L752.941,282L729.412,285L705.882,270L682.353,267L658.824,72L635.294,207L611.765,231L588.235,270L564.706,198L541.176,216L517.647,210L494.118,261L470.588,60L447.059,51L423.529,219L400,273L376.471,258L352.941,240L329.412,207L305.882,18L282.353,165L258.824,108L235.294,261L211.765,282L188.235,297L164.706,264L141.176,300L117.647,300L94.118,300L70.588,297L47.059,300L23.529,300L0,300Z" fill="#ff9da6"/></g></g><path class="foreground" aria-hidden="true" d="" display="none"/></g><g transform="translate(0,0)"><path class="background" aria-hidden="true" d="M0,0h800v300h-800Z"/><g><g class="mark-area role-mark marks" role="graphics-object" aria-roledescription="area mark container"><path aria-label="Date: Mar 16, 2026; Unique Clones/day: 0; Repository: karlmdavis/ansible-roles" role="graphics-symbol" aria-roledescription="area mark" d="M0,300L23.529,300L47.059,300L70.588,297L94.118,300L117.647,300L141.176,300L164.706,264L188.235,297L211.765,282L235.294,261L258.824,108L282.353,165L305.882,18L329.412,207L352.941,240L376.471,258L400,273L423.529,219L447.059,51L470.588,60L494.118,261L517.647,210L541.176,216L564.706,198L588.235,270L611.765,231L635.294,207L658.824,72L682.353,267L705.882,270L729.412,285L752.941,282L776.471,291L800,237L800,237L776.471,291L752.941,282L729.412,285L705.882,270L682.353,267L658.824,72L635.294,207L611.765,234L588.235,270L564.706,198L541.176,216L517.647,210L494.118,261L470.588,60L447.059,51L423.529,219L400,273L376.471,258L352.941,240L329.412,210L305.882,18L282.353,165L258.824,108L235.294,264L211.765,282L188.235,297L164.706,264L141.176,300L117.647,300L94.118,300L70.588,297L47.059,300L23.529,300L0,300Z" fill="#9d755d"/></g></g><path class="foreground" aria-hidden="true" d="" display="none"/></g><g transform="translate(0,0)"><path class="background" aria-hidden="true" d="M0,0h800v300h-800Z"/><g><g class="mark-area role-mark marks" role="graphics-object" aria-roledescription="area mark container"><path aria-label="Date: Mar 16, 2026; Unique Clones/day: 0; Repository: karlmdavis/bbonfhir-dev-infra-docker" role="graphics-symbol" aria-roledescription="area mark" d="M0,300L23.529,300L47.059,300L70.588,297L94.118,300L117.647,300L141.176,300L164.706,264L188.235,297L211.765,282L235.294,264L258.824,108L282.353,165L305.882,18L329.412,210L352.941,240L376.471,258L400,273L423.529,219L447.059,51L470.588,60L494.118,261L517.647,210L541.176,216L564.706,198L588.235,270L611.765,234L635.294,207L658.824,72L682.353,267L705.882,270L729.412,285L752.941,282L776.471,291L800,237L800,237L776.471,291L752.941,282L729.412,285L705.882,270L682.353,267L658.824,81L635.294,210L611.765,234L588.235,270L564.706,201L541.176,216L517.647,210L494.118,261L470.588,60L447.059,54L423.529,219L400,273L376.471,258L352.941,240L329.412,213L305.882,18L282.353,165L258.824,111L235.294,264L211.765,285L188.235,297L164.706,264L141.176,300L117.647,300L94.118,300L70.588,297L47.059,300L23.529,300L0,300Z" fill="#bab0ac"/></g></g><path class="foreground" aria-hidden="true" d="" display="none"/></g><g transform="translate(0,0)"><path class="background" aria-hidden="true" d="M0,0h800v300h-800Z"/><g><g class="mark-area role-mark marks" role="graphics-object" aria-roledescription="area mark container"><path aria-label="Date: Mar 16, 2026; Unique Clones/day: 0; Repository: karlmdavis/can-i-kayak-baltimore" role="graphics-symbol" aria-roledescription="area mark" d="M0,300L23.529,300L47.059,300L70.588,297L94.118,300L117.647,300L141.176,300L164.706,264L188.235,297L211.765,285L235.294,264L258.824,111L282.353,165L305.882,18L329.412,213L352.941,240L376.471,258L400,273L423.529,219L447.059,54L470.588,60L494.118,261L517.647,210L541.176,216L564.706,201L588.235,270L611.765,234L635.294,210L658.824,81L682.353,267L705.882,270L729.412,285L752.941,282L776.471,291L800,237L800,237L776.471,291L752.941,282L729.412,285L705.882,270L682.353,267L658.824,87L635.294,213L611.765,234L588.235,270L564.706,204L541.176,216L517.647,210L494.118,261L470.588,60L447.059,57L423.529,219L400,273L376.471,261L352.941,240L329.412,213L305.882,18L282.353,165L258.824,120L235.294,264L211.765,285L188.235,297L164.706,264L141.176,300L117.647,300L94.118,300L70.588,297L47.059,300L23.529,300L0,300Z" fill="#4c78a8"/></g></g><path class="foreground" aria-hidden="true" d="" display="none"/></g><g transform="translate(0,0)"><path class="background" aria-hidden="true" d="M0,0h800v300h-800Z"/><g><g class="mark-area role-mark marks" role="graphics-object" aria-roledescription="area mark container"><path aria-label="Date: Mar 16, 2026; Unique Clones/day: 0; Repository: karlmdavis/datanucleus-test-jdo-1-to-n" role="graphics-symbol" aria-roledescription="area mark" d="M0,300L23.529,300L47.059,300L70.588,297L94.118,300L117.647,300L141.176,300L164.706,264L188.235,297L211.765,285L235.294,264L258.824,120L282.353,165L305.882,18L329.412,213L352.941,240L376.471,261L400,273L423.529,219L447.059,57L470.588,60L494.118,261L517.647,210L541.176,216L564.706,204L588.235,270L611.765,234L635.294,213L658.824,87L682.353,267L705.882,270L729.412,285L752.941,282L776.471,291L800,237L800,237L776.471,291L752.941,285L729.412,285L705.882,270L682.353,270L658.824,87L635.294,213L611.765,234L588.235,270L564.706,204L541.176,216L517.647,210L494.118,261L470.588,60L447.059,57L423.529,219L400,273L376.471,261L352.941,240L329.412,213L305.882,18L282.353,168L258.824,120L235.294,264L211.765,285L188.235,297L164.706,264L141.176,300L117.647,300L94.118,300L70.588,297L47.059,300L23.529,300L0,300Z" fill="#f58518"/></g></g><path class="foreground" aria-hidden="true" d="" display="none"/></g><g transform="translate(0,0)"><path class="background" aria-hidden="true" d="M0,0h800v300h-800Z"/><g><g class="mark-area role-mark marks" role="graphics-object" aria-roledescription="area mark container"><path aria-label="Date: Mar 16, 2026; Unique Clones/day: 0; Repository: karlmdavis/dotfiles" role="graphics-symbol" aria-roledescription="area mark" d="M0,300L23.529,300L47.059,300L70.588,297L94.118,300L117.647,300L141.176,300L164.706,264L188.235,297L211.765,285L235.294,264L258.824,120L282.353,168L305.882,18L329.412,213L352.941,240L376.471,261L400,273L423.529,219L447.059,57L470.588,60L494.118,261L517.647,210L541.176,216L564.706,204L588.235,270L611.765,234L635.294,213L658.824,87L682.353,270L705.882,270L729.412,285L752.941,285L776.471,291L800,237L800,243L776.471,291L752.941,288L729.412,288L705.882,270L682.353,270L658.824,102L635.294,213L611.765,240L588.235,270L564.706,207L541.176,219L517.647,210L494.118,261L470.588,63L447.059,60L423.529,219L400,276L376.471,264L352.941,243L329.412,213L305.882,18L282.353,168L258.824,126L235.294,264L211.765,285L188.235,297L164.706,267L141.176,300L117.647,300L94.118,300L70.588,297L47.059,300L23.529,300L0,300Z" fill="#e45756"/></g></g><path class="foreground" aria-hidden="true" d="" display="none"/></g><g transform="translate(0,0)"><path class="background" aria-hidden="true" d="M0,0h800v300h-800Z"/><g><g class="mark-area role-mark marks" role="graphics-object" aria-roledescription="area mark container"><path aria-label="Date: Mar 16, 2026; Unique Clones/day: 0; Repository: karlmdavis/fhir-benchmarks" role="graphics-symbol" aria-roledescription="area mark" d="M0,300L23.529,300L47.059,300L70.588,297L94.118,300L117.647,300L141.176,300L164.706,267L188.235,297L211.765,285L235.294,264L258.824,126L282.353,168L305.882,18L329.412,213L352.941,243L376.471,264L400,276L423.529,219L447.059,60L470.588,63L494.118,261L517.647,210L541.176,219L564.706,207L588.235,270L611.765,240L635.294,213L658.824,102L682.353,270L705.882,270L729.412,288L752.941,288L776.471,291L800,243L800,243L776.471,294L752.941,291L729.412,288L705.882,273L682.353,279L658.824,117L635.294,213L611.765,246L588.235,270L564.706,213L541.176,240L517.647,213L494.118,261L470.588,66L447.059,63L423.529,222L400,276L376.471,267L352.941,249L329.412,216L305.882,21L282.353,168L258.824,132L235.294,264L211.765,288L188.235,297L164.706,270L141.176,300L117.647,300L94.118,300L70.588,297L47.059,300L23.529,300L0,300Z" fill="#72b7b2"/></g></g><path class="foreground" aria-hidden="true" d="" display="none"/></g><g transform="translate(0,0)"><path class="background" aria-hidden="true" d="M0,0h800v300h-800Z"/><g><g class="mark-area role-mark marks" role="graphics-object" aria-roledescription="area mark container"><path aria-label="Date: Mar 16, 2026; Unique Clones/day: 0; Repository: karlmdavis/hapi-fhir-jpaserver-starter" role="graphics-symbol" aria-roledescription="area mark" d="M0,300L23.529,300L47.059,300L70.588,297L94.118,300L117.647,300L141.176,300L164.706,270L188.235,297L211.765,288L235.294,264L258.824,132L282.353,168L305.882,21L329.412,216L352.941,249L376.471,267L400,276L423.529,222L447.059,63L470.588,66L494.118,261L517.647,213L541.176,240L564.706,213L588.235,270L611.765,246L635.294,213L658.824,117L682.353,279L705.882,273L729.412,288L752.941,291L776.471,294L800,243L800,243L776.471,294L752.941,291L729.412,288L705.882,273L682.353,279L658.824,120L635.294,213L611.765,246L588.235,270L564.706,213L541.176,240L517.647,213L494.118,261L470.588,66L447.059,63L423.529,225L400,279L376.471,267L352.941,249L329.412,216L305.882,21L282.353,168L258.824,132L235.294,267L211.765,288L188.235,297L164.706,270L141.176,300L117.647,300L94.118,300L70.588,297L47.059,300L23.529,300L0,300Z" fill="#54a24b"/></g></g><path class="foreground" aria-hidden="true" d="" display="none"/></g><g transform="translate(0,0)"><path class="background" aria-hidden="true" d="M0,0h800v300h-800Z"/><g><g class="mark-area role-mark marks" role="graphics-object" aria-roledescription="area mark container"><path aria-label="Date: Mar 16, 2026; Unique Clones/day: 0; Repository: karlmdavis/hello-rust-actix" role="graphics-symbol" aria-roledescription="area mark" d="M0,300L23.529,300L47.059,300L70.588,297L94.118,300L117.647,300L141.176,300L164.706,270L188.235,297L211.765,288L235.294,267L258.824,132L282.353,168L305.882,21L329.412,216L352.941,249L376.471,267L400,279L423.529,225L447.059,63L470.588,66L494.118,261L517.647,213L541.176,240L564.706,213L588.235,270L611.765,246L635.294,213L658.824,120L682.353,279L705.882,273L729.412,288L752.941,291L776.471,294L800,243L800,243L776.471,294L752.941,291L729.412,288L705.882,273L682.353,279L658.824,126L635.294,216L611.765,246L588.235,270L564.706,216L541.176,240L517.647,213L494.118,261L470.588,66L447.059,66L423.529,225L400,279L376.471,267L352.941,252L329.412,216L305.882,21L282.353,168L258.824,135L235.294,267L211.765,288L188.235,297L164.706,270L141.176,300L117.647,300L94.118,300L70.588,297L47.059,300L23.529,300L0,300Z" fill="#eeca3b"/></g></g><path class="foreground" aria-hidden="true" d="" display="none"/></g><g transform="translate(0,0)"><path class="background" aria-hidden="true" d="M0,0h800v300h-800Z"/><g><g class="mark-area role-mark marks" role="graphics-object" aria-roledescription="area mark container"><path aria-label="Date: Mar 16, 2026; Unique Clones/day: 0; Repository: karlmdavis/jessentials" role="graphics-symbol" aria-roledescription="area mark" d="M0,300L23.529,300L47.059,300L70.588,297L94.118,300L117.647,300L141.176,300L164.706,270L188.235,297L211.765,288L235.294,267L258.824,135L282.353,168L305.882,21L329.412,216L352.941,252L376.471,267L400,279L423.529,225L447.059,66L470.588,66L494.118,261L517.647,213L541.176,240L564.706,216L588.235,270L611.765,246L635.294,216L658.824,126L682.353,279L705.882,273L729.412,288L752.941,291L776.471,294L800,243L800,246L776.471,294L752.941,291L729.412,288L705.882,273L682.353,279L658.824,132L635.294,216L611.765,249L588.235,270L564.706,222L541.176,264L517.647,213L494.118,261L470.588,66L447.059,69L423.529,225L400,279L376.471,267L352.941,252L329.412,219L305.882,21L282.353,168L258.824,138L235.294,267L211.765,288L188.235,297L164.706,273L141.176,300L117.647,300L94.118,300L70.588,297L47.059,300L23.529,300L0,300Z" fill="#b279a2"/></g></g><path class="foreground" aria-hidden="true" d="" display="none"/></g><g transform="translate(0,0)"><path class="background" aria-hidden="true" d="M0,0h800v300h-800Z"/><g><g class="mark-area role-mark marks" role="graphics-object" aria-roledescription="area mark container"><path aria-label="Date: Mar 16, 2026; Unique Clones/day: 0; Repository: karlmdavis/justdavis-ansible" role="graphics-symbol" aria-roledescription="area mark" d="M0,300L23.529,300L47.059,300L70.588,297L94.118,300L117.647,300L141.176,300L164.706,273L188.235,297L211.765,288L235.294,267L258.824,138L282.353,168L305.882,21L329.412,219L352.941,252L376.471,267L400,279L423.529,225L447.059,69L470.588,66L494.118,261L517.647,213L541.176,264L564.706,222L588.235,270L611.765,249L635.294,216L658.824,132L682.353,279L705.882,273L729.412,288L752.941,291L776.471,294L800,246L800,258L776.471,294L752.941,291L729.412,288L705.882,273L682.353,279L658.824,141L635.294,228L611.765,249L588.235,273L564.706,225L541.176,264L517.647,213L494.118,261L470.588,66L447.059,72L423.529,225L400,279L376.471,270L352.941,252L329.412,219L305.882,21L282.353,171L258.824,141L235.294,267L211.765,291L188.235,297L164.706,273L141.176,300L117.647,300L94.118,300L70.588,297L47.059,300L23.529,300L0,300Z" fill="#ff9da6"/></g></g><path class="foreground" aria-hidden="true" d="" display="none"/></g><g transform="translate(0,0)"><path class="background" aria-hidden="true" d="M0,0h800v300h-800Z"/><g><g class="mark-area role-mark marks" role="graphics-object" aria-roledescription="area mark container"><path aria-label="Date: Mar 16, 2026; Unique Clones/day: 0; Repository: karlmdavis/justdavis-finances" role="graphics-symbol" aria-roledescription="area mark" d="M0,300L23.529,300L47.059,300L70.588,297L94.118,300L117.647,300L141.176,300L164.706,273L188.235,297L211.765,291L235.294,267L258.824,141L282.353,171L305.882,21L329.412,219L352.941,252L376.471,270L400,279L423.529,225L447.059,72L470.588,66L494.118,261L517.647,213L541.176,264L564.706,225L588.235,273L611.765,249L635.294,228L658.824,141L682.353,279L705.882,273L729.412,288L752.941,291L776.471,294L800,258L800,288L776.471,294L752.941,291L729.412,288L705.882,276L682.353,285L658.824,186L635.294,279L611.765,255L588.235,273L564.706,228L541.176,267L517.647,264L494.118,285L470.588,291L447.059,243L423.529,285L400,282L376.471,273L352.941,255L329.412,264L305.882,276L282.353,282L258.824,234L235.294,270L211.765,294L188.235,297L164.706,273L141.176,300L117.647,300L94.118,300L70.588,297L47.059,300L23.529,300L0,300Z" fill="#9d755d"/></g></g><path class="foreground" aria-hidden="true" d="" display="none"/></g><g transform="translate(0,0)"><path class="background" aria-hidden="true" d="M0,0h800v300h-800Z"/><g><g class="mark-area role-mark marks" role="graphics-object" aria-roledescription="area mark container"><path aria-label="Date: Mar 16, 2026; Unique Clones/day: 0; Repository: karlmdavis/justdavis-karl" role="graphics-symbol" aria-roledescription="area mark" d="M0,300L23.529,300L47.059,300L70.588,297L94.118,300L117.647,300L141.176,300L164.706,273L188.235,297L211.765,294L235.294,270L258.824,234L282.353,282L305.882,276L329.412,264L352.941,255L376.471,273L400,282L423.529,285L447.059,243L470.588,291L494.118,285L517.647,264L541.176,267L564.706,228L588.235,273L611.765,255L635.294,279L658.824,186L682.353,285L705.882,276L729.412,288L752.941,291L776.471,294L800,288L800,288L776.471,294L752.941,291L729.412,288L705.882,276L682.353,285L658.824,195L635.294,282L611.765,258L588.235,273L564.706,234L541.176,267L517.647,264L494.118,288L470.588,291L447.059,246L423.529,285L400,285L376.471,273L352.941,258L329.412,267L305.882,276L282.353,285L258.824,237L235.294,270L211.765,294L188.235,297L164.706,276L141.176,300L117.647,300L94.118,300L70.588,297L47.059,300L23.529,300L0,300Z" fill="#bab0ac"/></g></g><path class="foreground" aria-hidden="true" d="" display="none"/></g><g transform="translate(0,0)"><path class="background" aria-hidden="true" d="M0,0h800v300h-800Z"/><g><g class="mark-area role-mark marks" role="graphics-object" aria-roledescription="area mark container"><path aria-label="Date: Mar 16, 2026; Unique Clones/day: 0; Repository: karlmdavis/justdavis-puppet" role="graphics-symbol" aria-roledescription="area mark" d="M0,300L23.529,300L47.059,300L70.588,297L94.118,300L117.647,300L141.176,300L164.706,276L188.235,297L211.765,294L235.294,270L258.824,237L282.353,285L305.882,276L329.412,267L352.941,258L376.471,273L400,285L423.529,285L447.059,246L470.588,291L494.118,288L517.647,264L541.176,267L564.706,234L588.235,273L611.765,258L635.294,282L658.824,195L682.353,285L705.882,276L729.412,288L752.941,291L776.471,294L800,288L800,288L776.471,294L752.941,291L729.412,288L705.882,276L682.353,285L658.824,201L635.294,285L611.765,261L588.235,273L564.706,237L541.176,270L517.647,264L494.118,288L470.588,291L447.059,249L423.529,285L400,285L376.471,273L352.941,264L329.412,270L305.882,276L282.353,285L258.824,240L235.294,270L211.765,294L188.235,297L164.706,276L141.176,300L117.647,300L94.118,300L70.588,297L47.059,300L23.529,300L0,300Z" fill="#4c78a8"/></g></g><path class="foreground" aria-hidden="true" d="" display="none"/></g><g transform="translate(0,0)"><path class="background" aria-hidden="true" d="M0,0h800v300h-800Z"/><g><g class="mark-area role-mark marks" role="graphics-object" aria-roledescription="area mark container"><path aria-label="Date: Mar 16, 2026; Unique Clones/day: 0; Repository: karlmdavis/kobjects" role="graphics-symbol" aria-roledescription="area mark" d="M0,300L23.529,300L47.059,300L70.588,297L94.118,300L117.647,300L141.176,300L164.706,276L188.235,297L211.765,294L235.294,270L258.824,240L282.353,285L305.882,276L329.412,270L352.941,264L376.471,273L400,285L423.529,285L447.059,249L470.588,291L494.118,288L517.647,264L541.176,270L564.706,237L588.235,273L611.765,261L635.294,285L658.824,201L682.353,285L705.882,276L729.412,288L752.941,291L776.471,294L800,288L800,288L776.471,294L752.941,291L729.412,288L705.882,276L682.353,285L658.824,207L635.294,285L611.765,264L588.235,273L564.706,243L541.176,270L517.647,264L494.118,288L470.588,291L447.059,252L423.529,285L400,285L376.471,273L352.941,264L329.412,270L305.882,276L282.353,285L258.824,243L235.294,273L211.765,294L188.235,297L164.706,276L141.176,300L117.647,300L94.118,300L70.588,297L47.059,300L23.529,300L0,300Z" fill="#f58518"/></g></g><path class="foreground" aria-hidden="true" d="" display="none"/></g><g transform="translate(0,0)"><path class="background" aria-hidden="true" d="M0,0h800v300h-800Z"/><g><g class="mark-area role-mark marks" role="graphics-object" aria-roledescription="area mark container"><path aria-label="Date: Mar 16, 2026; Unique Clones/day: 0; Repository: karlmdavis/ksoap2-android" role="graphics-symbol" aria-roledescription="area mark" d="M0,300L23.529,300L47.059,300L70.588,297L94.118,300L117.647,300L141.176,300L164.706,276L188.235,297L211.765,294L235.294,273L258.824,243L282.353,285L305.882,276L329.412,270L352.941,264L376.471,273L400,285L423.529,285L447.059,252L470.588,291L494.118,288L517.647,264L541.176,270L564.706,243L588.235,273L611.765,264L635.294,285L658.824,207L682.353,285L705.882,276L729.412,288L752.941,291L776.471,294L800,288L800,288L776.471,294L752.941,291L729.412,288L705.882,282L682.353,285L658.824,213L635.294,285L611.765,267L588.235,282L564.706,246L541.176,288L517.647,279L494.118,291L470.588,291L447.059,261L423.529,285L400,288L376.471,276L352.941,267L329.412,282L305.882,282L282.353,285L258.824,246L235.294,282L211.765,294L188.235,297L164.706,279L141.176,300L117.647,300L94.118,300L70.588,297L47.059,300L23.529,300L0,300Z" fill="#e45756"/></g></g><path class="foreground" aria-hidden="true" d="" display="none"/></g><g transform="translate(0,0)"><path class="background" aria-hidden="true" d="M0,0h800v300h-800Z"/><g><g class="mark-area role-mark marks" role="graphics-object" aria-roledescription="area mark container"><path aria-label="Date: Mar 16, 2026; Unique Clones/day: 0; Repository: karlmdavis/kxml2" role="graphics-symbol" aria-roledescription="area mark" d="M0,300L23.529,300L47.059,300L70.588,297L94.118,300L117.647,300L141.176,300L164.706,279L188.235,297L211.765,294L235.294,282L258.824,246L282.353,285L305.882,282L329.412,282L352.941,267L376.471,276L400,288L423.529,285L447.059,261L470.588,291L494.118,291L517.647,279L541.176,288L564.706,246L588.235,282L611.765,267L635.294,285L658.824,213L682.353,285L705.882,282L729.412,288L752.941,291L776.471,294L800,288L800,291L776.471,294L752.941,291L729.412,291L705.882,285L682.353,288L658.824,222L635.294,285L611.765,267L588.235,282L564.706,249L541.176,288L517.647,282L494.118,294L470.588,294L447.059,264L423.529,285L400,288L376.471,276L352.941,270L329.412,291L305.882,285L282.353,285L258.824,252L235.294,285L211.765,294L188.235,297L164.706,282L141.176,300L117.647,300L94.118,300L70.588,297L47.059,300L23.529,300L0,300Z" fill="#72b7b2"/></g></g><path class="foreground" aria-hidden="true" d="" display="none"/></g><g transform="translate(0,0)"><path class="background" aria-hidden="true" d="M0,0h800v300h-800Z"/><g><g class="mark-area role-mark marks" role="graphics-object" aria-roledescription="area mark container"><path aria-label="Date: Mar 16, 2026; Unique Clones/day: 0; Repository: karlmdavis/ldap-plugin" role="graphics-symbol" aria-roledescription="area mark" d="M0,300L23.529,300L47.059,300L70.588,297L94.118,300L117.647,300L141.176,300L164.706,282L188.235,297L211.765,294L235.294,285L258.824,252L282.353,285L305.882,285L329.412,291L352.941,270L376.471,276L400,288L423.529,285L447.059,264L470.588,294L494.118,294L517.647,282L541.176,288L564.706,249L588.235,282L611.765,267L635.294,285L658.824,222L682.353,288L705.882,285L729.412,291L752.941,291L776.471,294L800,291L800,291L776.471,294L752.941,291L729.412,291L705.882,285L682.353,288L658.824,222L635.294,285L611.765,267L588.235,282L564.706,249L541.176,288L517.647,282L494.118,294L470.588,294L447.059,264L423.529,288L400,291L376.471,276L352.941,270L329.412,291L305.882,285L282.353,285L258.824,252L235.294,285L211.765,294L188.235,297L164.706,282L141.176,300L117.647,300L94.118,300L70.588,297L47.059,300L23.529,300L0,300Z" fill="#54a24b"/></g></g><path class="foreground" aria-hidden="true" d="" display="none"/></g><g transform="translate(0,0)"><path class="background" aria-hidden="true" d="M0,0h800v300h-800Z"/><g><g class="mark-area role-mark marks" role="graphics-object" aria-roledescription="area mark container"><path aria-label="Date: Mar 16, 2026; Unique Clones/day: 0; Repository: karlmdavis/lego-ev3dev-rs" role="graphics-symbol" aria-roledescription="area mark" d="M0,300L23.529,300L47.059,300L70.588,297L94.118,300L117.647,300L141.176,300L164.706,282L188.235,297L211.765,294L235.294,285L258.824,252L282.353,285L305.882,285L329.412,291L352.941,270L376.471,276L400,291L423.529,288L447.059,264L470.588,294L494.118,294L517.647,282L541.176,288L564.706,249L588.235,282L611.765,267L635.294,285L658.824,222L682.353,288L705.882,285L729.412,291L752.941,291L776.471,294L800,291L800,291L776.471,297L752.941,294L729.412,291L705.882,288L682.353,288L658.824,231L635.294,285L611.765,273L588.235,282L564.706,255L541.176,288L517.647,285L494.118,294L470.588,297L447.059,267L423.529,291L400,291L376.471,279L352.941,276L329.412,291L305.882,288L282.353,288L258.824,261L235.294,285L211.765,297L188.235,297L164.706,285L141.176,300L117.647,300L94.118,300L70.588,297L47.059,300L23.529,300L0,300Z" fill="#eeca3b"/></g></g><path class="foreground" aria-hidden="true" d="" display="none"/></g><g transform="translate(0,0)"><path class="background" aria-hidden="true" d="M0,0h800v300h-800Z"/><g><g class="mark-area role-mark marks" role="graphics-object" aria-roledescription="area mark container"><path aria-label="Date: Mar 16, 2026; Unique Clones/day: 0; Repository: karlmdavis/liquibase" role="graphics-symbol" aria-roledescription="area mark" d="M0,300L23.529,300L47.059,300L70.588,297L94.118,300L117.647,300L141.176,300L164.706,285L188.235,297L211.765,297L235.294,285L258.824,261L282.353,288L305.882,288L329.412,291L352.941,276L376.471,279L400,291L423.529,291L447.059,267L470.588,297L494.118,294L517.647,285L541.176,288L564.706,255L588.235,282L611.765,273L635.294,285L658.824,231L682.353,288L705.882,288L729.412,291L752.941,294L776.471,297L800,291L800,291L776.471,297L752.941,294L729.412,291L705.882,288L682.353,288L658.824,231L635.294,285L611.765,273L588.235,285L564.706,258L541.176,288L517.647,285L494.118,294L470.588,297L447.059,267L423.529,291L400,291L376.471,279L352.941,276L329.412,291L305.882,288L282.353,288L258.824,261L235.294,285L211.765,297L188.235,297L164.706,285L141.176,300L117.647,300L94.118,300L70.588,300L47.059,300L23.529,300L0,300Z" fill="#b279a2"/></g></g><path class="foreground" aria-hidden="true" d="" display="none"/></g><g transform="translate(0,0)"><path class="background" aria-hidden="true" d="M0,0h800v300h-800Z"/><g><g class="mark-area role-mark marks" role="graphics-object" aria-roledescription="area mark container"><path aria-label="Date: Mar 16, 2026; Unique Clones/day: 0; Repository: karlmdavis/m2e-core" role="graphics-symbol" aria-roledescription="area mark" d="M0,300L23.529,300L47.059,300L70.588,300L94.118,300L117.647,300L141.176,300L164.706,285L188.235,297L211.765,297L235.294,285L258.824,261L282.353,288L305.882,288L329.412,291L352.941,276L376.471,279L400,291L423.529,291L447.059,267L470.588,297L494.118,294L517.647,285L541.176,288L564.706,258L588.235,285L611.765,273L635.294,285L658.824,231L682.353,288L705.882,288L729.412,291L752.941,294L776.471,297L800,291L800,291L776.471,297L752.941,294L729.412,291L705.882,288L682.353,288L658.824,237L635.294,285L611.765,276L588.235,288L564.706,264L541.176,291L517.647,288L494.118,294L470.588,297L447.059,270L423.529,291L400,291L376.471,279L352.941,276L329.412,291L305.882,291L282.353,288L258.824,264L235.294,285L211.765,297L188.235,297L164.706,285L141.176,300L117.647,300L94.118,300L70.588,300L47.059,300L23.529,300L0,300Z" fill="#ff9da6"/></g></g><path class="foreground" aria-hidden="true" d="" display="none"/></g><g transform="translate(0,0)"><path class="background" aria-hidden="true" d="M0,0h800v300h-800Z"/><g><g class="mark-area role-mark marks" role="graphics-object" aria-roledescription="area mark container"><path aria-label="Date: Mar 16, 2026; Unique Clones/day: 0; Repository: karlmdavis/m2e-core-tests" role="graphics-symbol" aria-roledescription="area mark" d="M0,300L23.529,300L47.059,300L70.588,300L94.118,300L117.647,300L141.176,300L164.706,285L188.235,297L211.765,297L235.294,285L258.824,264L282.353,288L305.882,291L329.412,291L352.941,276L376.471,279L400,291L423.529,291L447.059,270L470.588,297L494.118,294L517.647,288L541.176,291L564.706,264L588.235,288L611.765,276L635.294,285L658.824,237L682.353,288L705.882,288L729.412,291L752.941,294L776.471,297L800,291L800,291L776.471,297L752.941,294L729.412,291L705.882,288L682.353,288L658.824,237L635.294,288L611.765,276L588.235,294L564.706,267L541.176,294L517.647,291L494.118,294L470.588,297L447.059,270L423.529,291L400,291L376.471,285L352.941,276L329.412,291L305.882,291L282.353,291L258.824,264L235.294,288L211.765,297L188.235,297L164.706,285L141.176,300L117.647,300L94.118,300L70.588,300L47.059,300L23.529,300L0,300Z" fill="#9d755d"/></g></g><path class="foreground" aria-hidden="true" d="" display="none"/></g><g transform="translate(0,0)"><path class="background" aria-hidden="true" d="M0,0h800v300h-800Z"/><g><g class="mark-area role-mark marks" role="graphics-object" aria-roledescription="area mark container"><path aria-label="Date: Mar 16, 2026; Unique Clones/day: 0; Repository: karlmdavis/obsidian-operator" role="graphics-symbol" aria-roledescription="area mark" d="M0,300L23.529,300L47.059,300L70.588,300L94.118,300L117.647,300L141.176,300L164.706,285L188.235,297L211.765,297L235.294,288L258.824,264L282.353,291L305.882,291L329.412,291L352.941,276L376.471,285L400,291L423.529,291L447.059,270L470.588,297L494.118,294L517.647,291L541.176,294L564.706,267L588.235,294L611.765,276L635.294,288L658.824,237L682.353,288L705.882,288L729.412,291L752.941,294L776.471,297L800,291L800,297L776.471,297L752.941,294L729.412,291L705.882,294L682.353,291L658.824,243L635.294,291L611.765,282L588.235,294L564.706,270L541.176,294L517.647,291L494.118,294L470.588,297L447.059,273L423.529,297L400,291L376.471,285L352.941,285L329.412,291L305.882,291L282.353,291L258.824,267L235.294,288L211.765,297L188.235,297L164.706,288L141.176,300L117.647,300L94.118,300L70.588,300L47.059,300L23.529,300L0,300Z" fill="#bab0ac"/></g></g><path class="foreground" aria-hidden="true" d="" display="none"/></g><g transform="translate(0,0)"><path class="background" aria-hidden="true" d="M0,0h800v300h-800Z"/><g><g class="mark-area role-mark marks" role="graphics-object" aria-roledescription="area mark container"><path aria-label="Date: Mar 16, 2026; Unique Clones/day: 0; Repository: karlmdavis/perfect-note" role="graphics-symbol" aria-roledescription="area mark" d="M0,300L23.529,300L47.059,300L70.588,300L94.118,300L117.647,300L141.176,300L164.706,288L188.235,297L211.765,297L235.294,288L258.824,267L282.353,291L305.882,291L329.412,291L352.941,285L376.471,285L400,291L423.529,297L447.059,273L470.588,297L494.118,294L517.647,291L541.176,294L564.706,270L588.235,294L611.765,282L635.294,291L658.824,243L682.353,291L705.882,294L729.412,291L752.941,294L776.471,297L800,297L800,297L776.471,297L752.941,294L729.412,291L705.882,294L682.353,294L658.824,249L635.294,291L611.765,282L588.235,294L564.706,273L541.176,294L517.647,291L494.118,294L470.588,297L447.059,276L423.529,297L400,291L376.471,285L352.941,285L329.412,291L305.882,291L282.353,294L258.824,270L235.294,291L211.765,297L188.235,297L164.706,288L141.176,300L117.647,300L94.118,300L70.588,300L47.059,300L23.529,300L0,300Z" fill="#4c78a8"/></g></g><path class="foreground" aria-hidden="true" d="" display="none"/></g><g transform="translate(0,0)"><path class="background" aria-hidden="true" d="M0,0h800v300h-800Z"/><g><g class="mark-area role-mark marks" role="graphics-object" aria-roledescription="area mark container"><path aria-label="Date: Mar 16, 2026; Unique Clones/day: 0; Repository: karlmdavis/puppet-archive" role="graphics-symbol" aria-roledescription="area mark" d="M0,300L23.529,300L47.059,300L70.588,300L94.118,300L117.647,300L141.176,300L164.706,288L188.235,297L211.765,297L235.294,291L258.824,270L282.353,294L305.882,291L329.412,291L352.941,285L376.471,285L400,291L423.529,297L447.059,276L470.588,297L494.118,294L517.647,291L541.176,294L564.706,273L588.235,294L611.765,282L635.294,291L658.824,249L682.353,294L705.882,294L729.412,291L752.941,294L776.471,297L800,297L800,297L776.471,297L752.941,294L729.412,291L705.882,294L682.353,294L658.824,249L635.294,291L611.765,285L588.235,294L564.706,276L541.176,294L517.647,291L494.118,294L470.588,297L447.059,276L423.529,297L400,291L376.471,285L352.941,285L329.412,291L305.882,291L282.353,294L258.824,270L235.294,291L211.765,297L188.235,297L164.706,291L141.176,300L117.647,300L94.118,300L70.588,300L47.059,300L23.529,300L0,300Z" fill="#f58518"/></g></g><path class="foreground" aria-hidden="true" d="" display="none"/></g><g transform="translate(0,0)"><path class="background" aria-hidden="true" d="M0,0h800v300h-800Z"/><g><g class="mark-area role-mark marks" role="graphics-object" aria-roledescription="area mark container"><path aria-label="Date: Mar 16, 2026; Unique Clones/day: 0; Repository: karlmdavis/puppet-sonar" role="graphics-symbol" aria-roledescription="area mark" d="M0,300L23.529,300L47.059,300L70.588,300L94.118,300L117.647,300L141.176,300L164.706,291L188.235,297L211.765,297L235.294,291L258.824,270L282.353,294L305.882,291L329.412,291L352.941,285L376.471,285L400,291L423.529,297L447.059,276L470.588,297L494.118,294L517.647,291L541.176,294L564.706,276L588.235,294L611.765,285L635.294,291L658.824,249L682.353,294L705.882,294L729.412,291L752.941,294L776.471,297L800,297L800,297L776.471,297L752.941,294L729.412,291L705.882,294L682.353,297L658.824,249L635.294,291L611.765,288L588.235,294L564.706,276L541.176,297L517.647,294L494.118,294L470.588,297L447.059,276L423.529,297L400,294L376.471,285L352.941,291L329.412,291L305.882,291L282.353,297L258.824,270L235.294,291L211.765,297L188.235,297L164.706,291L141.176,300L117.647,300L94.118,300L70.588,300L47.059,300L23.529,300L0,300Z" fill="#e45756"/></g></g><path class="foreground" aria-hidden="true" d="" display="none"/></g><g transform="translate(0,0)"><path class="background" aria-hidden="true" d="M0,0h800v300h-800Z"/><g><g class="mark-area role-mark marks" role="graphics-object" aria-roledescription="area mark container"><path aria-label="Date: Mar 16, 2026; Unique Clones/day: 0; Repository: karlmdavis/rps-tourney" role="graphics-symbol" aria-roledescription="area mark" d="M0,300L23.529,300L47.059,300L70.588,300L94.118,300L117.647,300L141.176,300L164.706,291L188.235,297L211.765,297L235.294,291L258.824,270L282.353,297L305.882,291L329.412,291L352.941,291L376.471,285L400,294L423.529,297L447.059,276L470.588,297L494.118,294L517.647,294L541.176,297L564.706,276L588.235,294L611.765,288L635.294,291L658.824,249L682.353,297L705.882,294L729.412,291L752.941,294L776.471,297L800,297L800,297L776.471,297L752.941,294L729.412,291L705.882,294L682.353,297L658.824,255L635.294,291L611.765,291L588.235,294L564.706,279L541.176,297L517.647,294L494.118,294L470.588,297L447.059,279L423.529,297L400,297L376.471,285L352.941,291L329.412,291L305.882,291L282.353,297L258.824,273L235.294,291L211.765,297L188.235,297L164.706,294L141.176,300L117.647,300L94.118,300L70.588,300L47.059,300L23.529,300L0,300Z" fill="#72b7b2"/></g></g><path class="foreground" aria-hidden="true" d="" display="none"/></g><g transform="translate(0,0)"><path class="background" aria-hidden="true" d="M0,0h800v300h-800Z"/><g><g class="mark-area role-mark marks" role="graphics-object" aria-roledescription="area mark container"><path aria-label="Date: Mar 16, 2026; Unique Clones/day: 0; Repository: karlmdavis/sample-maven-and-rcp" role="graphics-symbol" aria-roledescription="area mark" d="M0,300L23.529,300L47.059,300L70.588,300L94.118,300L117.647,300L141.176,300L164.706,294L188.235,297L211.765,297L235.294,291L258.824,273L282.353,297L305.882,291L329.412,291L352.941,291L376.471,285L400,297L423.529,297L447.059,279L470.588,297L494.118,294L517.647,294L541.176,297L564.706,279L588.235,294L611.765,291L635.294,291L658.824,255L682.353,297L705.882,294L729.412,291L752.941,294L776.471,297L800,297L800,297L776.471,297L752.941,294L729.412,291L705.882,294L682.353,297L658.824,261L635.294,291L611.765,291L588.235,294L564.706,282L541.176,297L517.647,294L494.118,294L470.588,297L447.059,282L423.529,297L400,297L376.471,288L352.941,291L329.412,291L305.882,291L282.353,297L258.824,276L235.294,291L211.765,297L188.235,297L164.706,294L141.176,300L117.647,300L94.118,300L70.588,300L47.059,300L23.529,300L0,300Z" fill="#54a24b"/></g></g><path class="foreground" aria-hidden="true" d="" display="none"/></g><g transform="translate(0,0)"><path class="background" aria-hidden="true" d="M0,0h800v300h-800Z"/><g><g class="mark-area role-mark marks" role="graphics-object" aria-roledescription="area mark container"><path aria-label="Date: Mar 16, 2026; Unique Clones/day: 0; Repository: karlmdavis/stockfighter-trades-solutions" role="graphics-symbol" aria-roledescription="area mark" d="M0,300L23.529,300L47.059,300L70.588,300L94.118,300L117.647,300L141.176,300L164.706,294L188.235,297L211.765,297L235.294,291L258.824,276L282.353,297L305.882,291L329.412,291L352.941,291L376.471,288L400,297L423.529,297L447.059,282L470.588,297L494.118,294L517.647,294L541.176,297L564.706,282L588.235,294L611.765,291L635.294,291L658.824,261L682.353,297L705.882,294L729.412,291L752.941,294L776.471,297L800,297L800,297L776.471,297L752.941,294L729.412,291L705.882,294L682.353,297L658.824,270L635.294,291L611.765,291L588.235,294L564.706,285L541.176,297L517.647,294L494.118,294L470.588,297L447.059,285L423.529,297L400,297L376.471,288L352.941,291L329.412,291L305.882,294L282.353,297L258.824,282L235.294,291L211.765,297L188.235,297L164.706,294L141.176,300L117.647,300L94.118,300L70.588,300L47.059,300L23.529,300L0,300Z" fill="#eeca3b"/></g></g><path class="foreground" aria-hidden="true" d="" display="none"/></g><g transform="translate(0,0)"><path class="background" aria-hidden="true" d="M0,0h800v300h-800Z"/><g><g class="mark-area role-mark marks" role="graphics-object" aria-roledescription="area mark container"><path aria-label="Date: Mar 16, 2026; Unique Clones/day: 0; Repository: karlmdavis/test-repo-for-move" role="graphics-symbol" aria-roledescription="area mark" d="M0,300L23.529,300L47.059,300L70.588,300L94.118,300L117.647,300L141.176,300L164.706,294L188.235,297L211.765,297L235.294,291L258.824,282L282.353,297L305.882,294L329.412,291L352.941,291L376.471,288L400,297L423.529,297L447.059,285L470.588,297L494.118,294L517.647,294L541.176,297L564.706,285L588.235,294L611.765,291L635.294,291L658.824,270L682.353,297L705.882,294L729.412,291L752.941,294L776.471,297L800,297L800,297L776.471,297L752.941,294L729.412,294L705.882,294L682.353,297L658.824,276L635.294,291L611.765,291L588.235,294L564.706,288L541.176,297L517.647,294L494.118,294L470.588,297L447.059,288L423.529,297L400,297L376.471,288L352.941,291L329.412,291L305.882,297L282.353,297L258.824,285L235.294,294L211.765,297L188.235,297L164.706,294L141.176,300L117.647,300L94.118,300L70.588,300L47.059,300L23.529,300L0,300Z" fill="#b279a2"/></g></g><path class="foreground" aria-hidden="true" d="" display="none"/></g><g transform="translate(0,0)"><path class="background" aria-hidden="true" d="M0,0h800v300h-800Z"/><g><g class="mark-area role-mark marks" role="graphics-object" aria-roledescription="area mark container"><path aria-label="Date: Mar 16, 2026; Unique Clones/day: 0; Repository: karlmdavis/todoist-ai" role="graphics-symbol" aria-roledescription="area mark" d="M0,300L23.529,300L47.059,300L70.588,300L94.118,300L117.647,300L141.176,300L164.706,294L188.235,297L211.765,297L235.294,294L258.824,285L282.353,297L305.882,297L329.412,291L352.941,291L376.471,288L400,297L423.529,297L447.059,288L470.588,297L494.118,294L517.647,294L541.176,297L564.706,288L588.235,294L611.765,291L635.294,291L658.824,276L682.353,297L705.882,294L729.412,294L752.941,294L776.471,297L800,297L800,297L776.471,297L752.941,294L729.412,294L705.882,297L682.353,297L658.824,276L635.294,291L611.765,294L588.235,294L564.706,288L541.176,297L517.647,294L494.118,294L470.588,297L447.059,288L423.529,297L400,297L376.471,294L352.941,291L329.412,291L305.882,297L282.353,297L258.824,285L235.294,294L211.765,297L188.235,297L164.706,294L141.176,300L117.647,300L94.118,300L70.588,300L47.059,300L23.529,300L0,300Z" fill="#ff9da6"/></g></g><path class="foreground" aria-hidden="true" d="" display="none"/></g><g transform="translate(0,0)"><path class="background" aria-hidden="true" d="M0,0h800v300h-800Z"/><g><g class="mark-area role-mark marks" role="graphics-object" aria-roledescription="area mark container"><path aria-label="Date: Mar 16, 2026; Unique Clones/day: 0; Repository: karlmdavis/usgs-water-api-java" role="graphics-symbol" aria-roledescription="area mark" d="M0,300L23.529,300L47.059,300L70.588,300L94.118,300L117.647,300L141.176,300L164.706,294L188.235,297L211.765,297L235.294,294L258.824,285L282.353,297L305.882,297L329.412,291L352.941,291L376.471,294L400,297L423.529,297L447.059,288L470.588,297L494.118,294L517.647,294L541.176,297L564.706,288L588.235,294L611.765,294L635.294,291L658.824,276L682.353,297L705.882,297L729.412,294L752.941,294L776.471,297L800,297L800,300L776.471,300L752.941,297L729.412,300L705.882,300L682.353,300L658.824,285L635.294,300L611.765,297L588.235,297L564.706,294L541.176,300L517.647,297L494.118,300L470.588,300L447.059,294L423.529,300L400,300L376.471,297L352.941,294L329.412,297L305.882,300L282.353,300L258.824,291L235.294,300L211.765,300L188.235,300L164.706,300L141.176,300L117.647,300L94.118,300L70.588,300L47.059,300L23.529,300L0,300Z" fill="#9d755d"/></g></g><path class="foreground" aria-hidden="true" d="" display="none"/></g><g transform="translate(0,0)"><path class="background" aria-hidden="true" d="M0,0h800v300h-800Z"/><g><g class="mark-area role-mark marks" role="graphics-object" aria-roledescription="area mark container"><path aria-label="Date: Mar 16, 2026; Unique Clones/day: 0; Repository: karlmdavis/workstation-base-ansible-role" role="graphics-symbol" aria-roledescription="area mark" d="M0,300L23.529,300L47.059,300L70.588,300L94.118,300L117.647,300L141.176,300L164.706,300L188.235,300L211.765,300L235.294,300L258.824,291L282.353,300L305.882,300L329.412,297L352.941,294L376.471,297L400,300L423.529,300L447.059,294L470.588,300L494.118,300L517.647,297L541.176,300L564.706,294L588.235,297L611.765,297L635.294,300L658.824,285L682.353,300L705.882,300L729.412,300L752.941,297L776.471,300L800,300L800,300L776.471,300L752.941,297L729.412,300L705.882,300L682.353,300L658.824,294L635.294,300L611.765,300L588.235,297L564.706,297L541.176,300L517.647,297L494.118,300L470.588,300L447.059,297L423.529,300L400,300L376.471,300L352.941,297L329.412,300L305.882,300L282.353,300L258.824,297L235.294,300L211.765,300L188.235,300L164.706,300L141.176,300L117.647,300L94.118,300L70.588,300L47.059,300L23.529,300L0,300Z" fill="#bab0ac"/></g></g><path class="foreground" aria-hidden="true" d="" display="none"/></g><g transform="translate(0,0)"><path class="background" aria-hidden="true" d="M0,0h800v300h-800Z"/><g><g class="mark-area role-mark marks" role="graphics-object" aria-roledescription="area mark container"><path aria-label="Date: Mar 16, 2026; Unique Clones/day: 0; Repository: karlmdavis/xmlpull" role="graphics-symbol" aria-roledescription="area mark" d="M0,300L23.529,300L47.059,300L70.588,300L94.118,300L117.647,300L141.176,300L164.706,300L188.235,300L211.765,300L235.294,300L258.824,297L282.353,300L305.882,300L329.412,300L352.941,297L376.471,300L400,300L423.529,300L447.059,297L470.588,300L494.118,300L517.647,297L541.176,300L564.706,297L588.235,297L611.765,300L635.294,300L658.824,294L682.353,300L705.882,300L729.412,300L752.941,297L776.471,300L800,300L800,300L776.471,300L752.941,300L729.412,300L705.882,300L682.353,300L658.824,300L635.294,300L611.765,300L588.235,300L564.706,300L541.176,300L517.647,300L494.118,300L470.588,300L447.059,300L423.529,300L400,300L376.471,300L352.941,300L329.412,300L305.882,300L282.353,300L258.824,300L235.294,300L211.765,300L188.235,300L164.706,300L141.176,300L117.647,300L94.118,300L70.588,300L47.059,300L23.529,300L0,300Z" fill="#4c78a8"/></g></g><path class="foreground" aria-hidden="true" d="" display="none"/></g></g><g class="mark-group role-legend" role="graphics-symbol" aria-roledescription="legend" aria-label="Symbol legend titled 'Repository' for fill color with 41 values: karlmdavis/FHIR-Server, karlmdavis/ansible, karlmdavis/ansible-jenkins, karlmdavis/ansible-role-acmetool, karlmdavis/ansible-role-bind-dns, ending with karlmdavis/xmlpull"><g transform="translate(818,0)"><path class="background" aria-hidden="true" d="M0,0h176v404h-176Z" pointer-events="none"/><g><g class="mark-group role-legend-entry"><g transform="translate(0,16)"><path class="background" aria-hidden="true" d="M0,0h0v0h0Z" pointer-events="none"/><g><g class="mark-group role-scope" role="graphics-object" aria-roledescription="group mark container"><g transform="translate(0,0)"><path class="background" aria-hidden="true" d="M0,0h176v11h-176Z" pointer-events="none" opacity="1"/><g><g class="mark-symbol role-legend-symbol" pointer-events="none"><path transform="translate(6,6)" d="M5,0A5,5,0,1,1,-5,0A5,5,0,1,1,5,0" fill="#4c78a8" stroke-width="1.5" opacity="1"/></g><g class="mark-text role-legend-label" pointer-events="none"><text text-anchor="start" transform="translate(16,9)" font-family="sans-serif" font-size="10px" fill="#000" opacity="1">karlmdavis/FHIR-Server</text></g></g><path class="foreground" aria-hidden="true" d="" pointer-events="none" display="none"/></g><g transform="translate(0,13)"><path class="background" aria-hidden="true" d="M0,0h176v11h-176Z" pointer-events="none" opacity="1"/><g><g class="mark-symbol role-legend-symbol" pointer-events="none"><path transform="translate(6,6)" d="M5,0A5,5,0,1,1,-5,0A5,5,0,1,1,5,0" fill="#f58518" stroke-width="1.5" opacity="1"/></g><g class="mark-text role-legend-label" pointer-events="none"><text text-anchor="start" transform="translate(16,9)" font-family="sans-serif" font-size="10px" fill="#000" opacity="1">karlmdavis/ansible</text></g></g><path class="foreground" aria-hidden="true" d="" pointer-events="none" display="none"/></g><g transform="translate(0,26)"><path class="background" aria-hidden="true" d="M0,0h176v11h-176Z" pointer-events="none" opacity="1"/><g><g class="mark-symbol role-legend-symbol" pointer-events="none"><path transform="translate(6,6)" d="M5,0A5,5,0,1,1,-5,0A5,5,0,1,1,5,0" fill="#e45756" stroke-width="1.5" opacity="1"/></g><g class="mark-text role-legend-label" pointer-events="none"><text text-anchor="start" transform="translate(16,9)" font-family="sans-serif" font-size="10px" fill="#000" opacity="1">karlmdavis/ansible-jenkins</text></g></g><path class="foreground" aria-hidden="true" d="" pointer-events="none" display="none"/></g><g transform="translate(0,39)"><path class="background" aria-hidden="true" d="M0,0h176v11h-176Z" pointer-events="none" opacity="1"/><g><g class="mark-symbol role-legend-symbol" pointer-events="none"><path transform="translate(6,6)" d="M5,0A5,5,0,1,1,-5,0A5,5,0,1,1,5,0" fill="#72b7b2" stroke-width="1.5" opacity="1"/></g><g class="mark-text role-legend-label" pointer-events="none"><text text-anchor="start" transform="translate(16,9)" font-family="sans-serif" font-size="10px" fill="#000" opacity="1">karlmdavis/ansible-role-acmetool</text></g></g><path class="foreground" aria-hidden="true" d="" pointer-events="none" display="none"/></g><g transform="translate(0,52)"><path class="background" aria-hidden="true" d="M0,0h176v11h-176Z" pointer-events="none" opacity="1"/><g><g class="mark-symbol role-legend-symbol" pointer-events="none"><path transform="translate(6,6)" d="M5,0A5,5,0,1,1,-5,0A5,5,0,1,1,5,0" fill="#54a24b" stroke-width="1.5" opacity="1"/></g><g class="mark-text role-legend-label" pointer-events="none"><text text-anchor="start" transform="translate(16,9)" font-family="sans-serif" font-size="10px" fill="#000" opacity="1">karlmdavis/ansible-role-bind-dns</text></g></g><path class="foreground" aria-hidden="true" d="" pointer-events="none" display="none"/></g><g transform="translate(0,65)"><path class="background" aria-hidden="true" d="M0,0h176v11h-176Z" pointer-events="none" opacity="1"/><g><g class="mark-symbol role-legend-symbol" pointer-events="none"><path transform="translate(6,6)" d="M5,0A5,5,0,1,1,-5,0A5,5,0,1,1,5,0" fill="#eeca3b" stroke-width="1.5" opacity="1"/></g><g class="mark-text role-legend-label" pointer-events="none"><text text-anchor="start" transform="translate(16,9)" font-family="sans-serif" font-size="10px" fill="#000" opacity="1">karlmdavis/ansible-role-jenkins2</text></g></g><path class="foreground" aria-hidden="true" d="" pointer-events="none" display="none"/></g><g transform="translate(0,78)"><path class="background" aria-hidden="true" d="M0,0h176v11h-176Z" pointer-events="none" opacity="1"/><g><g class="mark-symbol role-legend-symbol" pointer-events="none"><path transform="translate(6,6)" d="M5,0A5,5,0,1,1,-5,0A5,5,0,1,1,5,0" fill="#b279a2" stroke-width="1.5" opacity="1"/></g><g class="mark-text role-legend-label" pointer-events="none"><text text-anchor="start" transform="translate(16,9)" font-family="sans-serif" font-size="10px" fill="#000" opacity="1">karlmdavis/ansible-role-ldap</text></g></g><path class="foreground" aria-hidden="true" d="" pointer-events="none" display="none"/></g><g transform="translate(0,91)"><path class="background" aria-hidden="true" d="M0,0h176v11h-176Z" pointer-events="none" opacity="1"/><g><g class="mark-symbol role-legend-symbol" pointer-events="none"><path transform="translate(6,6)" d="M5,0A5,5,0,1,1,-5,0A5,5,0,1,1,5,0" fill="#ff9da6" stroke-width="1.5" opacity="1"/></g><g class="mark-text role-legend-label" pointer-events="none"><text text-anchor="start" transform="translate(16,9)" font-family="sans-serif" font-size="10px" fill="#000" opacity="1">karlmdavis/ansible-role-rcm-dotfiles</text></g></g><path class="foreground" aria-hidden="true" d="" pointer-events="none" display="none"/></g><g transform="translate(0,104)"><path class="background" aria-hidden="true" d="M0,0h176v11h-176Z" pointer-events="none" opacity="1"/><g><g class="mark-symbol role-legend-symbol" pointer-events="none"><path transform="translate(6,6)" d="M5,0A5,5,0,1,1,-5,0A5,5,0,1,1,5,0" fill="#9d755d" stroke-width="1.5" opacity="1"/></g><g class="mark-text role-legend-label" pointer-events="none"><text text-anchor="start" transform="translate(16,9)" font-family="sans-serif" font-size="10px" fill="#000" opacity="1">karlmdavis/ansible-roles</text></g></g><path class="foreground" aria-hidden="true" d="" pointer-events="none" display="none"/></g><g transform="translate(0,117)"><path class="background" aria-hidden="true" d="M0,0h176v11h-176Z" pointer-events="none" opacity="1"/><g><g class="mark-symbol role-legend-symbol" pointer-events="none"><path transform="translate(6,6)" d="M5,0A5,5,0,1,1,-5,0A5,5,0,1,1,5,0" fill="#bab0ac" stroke-width="1.5" opacity="1"/></g><g class="mark-text role-legend-label" pointer-events="none"><text text-anchor="start" transform="translate(16,9)" font-family="sans-serif" font-size="10px" fill="#000" opacity="1">karlmdavis/bbonfhir-dev-infra-doc…</text></g></g><path class="foreground" aria-hidden="true" d="" pointer-events="none" display="none"/></g><g transform="translate(0,130)"><path class="background" aria-hidden="true" d="M0,0h176v11h-176Z" pointer-events="none" opacity="1"/><g><g class="mark-symbol role-legend-symbol" pointer-events="none"><path transform="translate(6,6)" d="M5,0A5,5,0,1,1,-5,0A5,5,0,1,1,5,0" fill="#4c78a8" stroke-width="1.5" opacity="1"/></g><g class="mark-text role-legend-label" pointer-events="none"><text text-anchor="start" transform="translate(16,9)" font-family="sans-serif" font-size="10px" fill="#000" opacity="1">karlmdavis/can-i-kayak-baltimore</text></g></g><path class="foreground" aria-hidden="true" d="" pointer-events="none" display="none"/></g><g transform="translate(0,143)"><path class="background" aria-hidden="true" d="M0,0h176v11h-176Z" pointer-events="none" opacity="1"/><g><g class="mark-symbol role-legend-symbol" pointer-events="none"><path transform="translate(6,6)" d="M5,0A5,5,0,1,1,-5,0A5,5,0,1,1,5,0" fill="#f58518" stroke-width="1.5" opacity="1"/></g><g class="mark-text role-legend-label" pointer-events="none"><text text-anchor="start" transform="translate(16,9)" font-family="sans-serif" font-size="10px" fill="#000" opacity="1">karlmdavis/datanucleus-test-jdo-1…</text></g></g><path class="foreground" aria-hidden="true" d="" pointer-events="none" display="none"/></g><g transform="translate(0,156)"><path class="background" aria-hidden="true" d="M0,0h176v11h-176Z" pointer-events="none" opacity="1"/><g><g class="mark-symbol role-legend-symbol" pointer-events="none"><path transform="translate(6,6)" d="M5,0A5,5,0,1,1,-5,0A5,5,0,1,1,5,0" fill="#e45756" stroke-width="1.5" opacity="1"/></g><g class="mark-text role-legend-label" pointer-events="none"><text text-anchor="start" transform="translate(16,9)" font-family="sans-serif" font-size="10px" fill="#000" opacity="1">karlmdavis/dotfiles</text></g></g><path class="foreground" aria-hidden="true" d="" pointer-events="none" display="none"/></g><g transform="translate(0,169)"><path class="background" aria-hidden="true" d="M0,0h176v11h-176Z" pointer-events="none" opacity="1"/><g><g class="mark-symbol role-legend-symbol" pointer-events="none"><path transform="translate(6,6)" d="M5,0A5,5,0,1,1,-5,0A5,5,0,1,1,5,0" fill="#72b7b2" stroke-width="1.5" opacity="1"/></g><g class="mark-text role-legend-label" pointer-events="none"><text text-anchor="start" transform="translate(16,9)" font-family="sans-serif" font-size="10px" fill="#000" opacity="1">karlmdavis/fhir-benchmarks</text></g></g><path class="foreground" aria-hidden="true" d="" pointer-events="none" display="none"/></g><g transform="translate(0,182)"><path class="background" aria-hidden="true" d="M0,0h176v11h-176Z" pointer-events="none" opacity="1"/><g><g class="mark-symbol role-legend-symbol" pointer-events="none"><path transform="translate(6,6)" d="M5,0A5,5,0,1,1,-5,0A5,5,0,1,1,5,0" fill="#54a24b" stroke-width="1.5" opacity="1"/></g><g class="mark-text role-legend-label" pointer-events="none"><text text-anchor="start" transform="translate(16,9)" font-family="sans-serif" font-size="10px" fill="#000" opacity="1">karlmdavis/hapi-fhir-jpaserver-sta…</text></g></g><path class="foreground" aria-hidden="true" d="" pointer-events="none" display="none"/></g><g transform="translate(0,195)"><path class="background" aria-hidden="true" d="M0,0h176v11h-176Z" pointer-events="none" opacity="1"/><g><g class="mark-symbol role-legend-symbol" pointer-events="none"><path transform="translate(6,6)" d="M5,0A5,5,0,1,1,-5,0A5,5,0,1,1,5,0" fill="#eeca3b" stroke-width="1.5" opacity="1"/></g><g class="mark-text role-legend-label" pointer-events="none"><text text-anchor="start" transform="translate(16,9)" font-family="sans-serif" font-size="10px" fill="#000" opacity="1">karlmdavis/hello-rust-actix</text></g></g><path class="foreground" aria-hidden="true" d="" pointer-events="none" display="none"/></g><g transform="translate(0,208)"><path class="background" aria-hidden="true" d="M0,0h176v11h-176Z" pointer-events="none" opacity="1"/><g><g class="mark-symbol role-legend-symbol" pointer-events="none"><path transform="translate(6,6)" d="M5,0A5,5,0,1,1,-5,0A5,5,0,1,1,5,0" fill="#b279a2" stroke-width="1.5" opacity="1"/></g><g class="mark-text role-legend-label" pointer-events="none"><text text-anchor="start" transform="translate(16,9)" font-family="sans-serif" font-size="10px" fill="#000" opacity="1">karlmdavis/jessentials</text></g></g><path class="foreground" aria-hidden="true" d="" pointer-events="none" display="none"/></g><g transform="translate(0,221)"><path class="background" aria-hidden="true" d="M0,0h176v11h-176Z" pointer-events="none" opacity="1"/><g><g class="mark-symbol role-legend-symbol" pointer-events="none"><path transform="translate(6,6)" d="M5,0A5,5,0,1,1,-5,0A5,5,0,1,1,5,0" fill="#ff9da6" stroke-width="1.5" opacity="1"/></g><g class="mark-text role-legend-label" pointer-events="none"><text text-anchor="start" transform="translate(16,9)" font-family="sans-serif" font-size="10px" fill="#000" opacity="1">karlmdavis/justdavis-ansible</text></g></g><path class="foreground" aria-hidden="true" d="" pointer-events="none" display="none"/></g><g transform="translate(0,234)"><path class="background" aria-hidden="true" d="M0,0h176v11h-176Z" pointer-events="none" opacity="1"/><g><g class="mark-symbol role-legend-symbol" pointer-events="none"><path transform="translate(6,6)" d="M5,0A5,5,0,1,1,-5,0A5,5,0,1,1,5,0" fill="#9d755d" stroke-width="1.5" opacity="1"/></g><g class="mark-text role-legend-label" pointer-events="none"><text text-anchor="start" transform="translate(16,9)" font-family="sans-serif" font-size="10px" fill="#000" opacity="1">karlmdavis/justdavis-finances</text></g></g><path class="foreground" aria-hidden="true" d="" pointer-events="none" display="none"/></g><g transform="translate(0,247)"><path class="background" aria-hidden="true" d="M0,0h176v11h-176Z" pointer-events="none" opacity="1"/><g><g class="mark-symbol role-legend-symbol" pointer-events="none"><path transform="translate(6,6)" d="M5,0A5,5,0,1,1,-5,0A5,5,0,1,1,5,0" fill="#bab0ac" stroke-width="1.5" opacity="1"/></g><g class="mark-text role-legend-label" pointer-events="none"><text text-anchor="start" transform="translate(16,9)" font-family="sans-serif" font-size="10px" fill="#000" opacity="1">karlmdavis/justdavis-karl</text></g></g><path class="foreground" aria-hidden="true" d="" pointer-events="none" display="none"/></g><g transform="translate(0,260)"><path class="background" aria-hidden="true" d="M0,0h176v11h-176Z" pointer-events="none" opacity="1"/><g><g class="mark-symbol role-legend-symbol" pointer-events="none"><path transform="translate(6,6)" d="M5,0A5,5,0,1,1,-5,0A5,5,0,1,1,5,0" fill="#4c78a8" stroke-width="1.5" opacity="1"/></g><g class="mark-text role-legend-label" pointer-events="none"><text text-anchor="start" transform="translate(16,9)" font-family="sans-serif" font-size="10px" fill="#000" opacity="1">karlmdavis/justdavis-puppet</text></g></g><path class="foreground" aria-hidden="true" d="" pointer-events="none" display="none"/></g><g transform="translate(0,273)"><path class="background" aria-hidden="true" d="M0,0h176v11h-176Z" pointer-events="none" opacity="1"/><g><g class="mark-symbol role-legend-symbol" pointer-events="none"><path transform="translate(6,6)" d="M5,0A5,5,0,1,1,-5,0A5,5,0,1,1,5,0" fill="#f58518" stroke-width="1.5" opacity="1"/></g><g class="mark-text role-legend-label" pointer-events="none"><text text-anchor="start" transform="translate(16,9)" font-family="sans-serif" font-size="10px" fill="#000" opacity="1">karlmdavis/kobjects</text></g></g><path class="foreground" aria-hidden="true" d="" pointer-events="none" display="none"/></g><g transform="translate(0,286)"><path class="background" aria-hidden="true" d="M0,0h176v11h-176Z" pointer-events="none" opacity="1"/><g><g class="mark-symbol role-legend-symbol" pointer-events="none"><path transform="translate(6,6)" d="M5,0A5,5,0,1,1,-5,0A5,5,0,1,1,5,0" fill="#e45756" stroke-width="1.5" opacity="1"/></g><g class="mark-text role-legend-label" pointer-events="none"><text text-anchor="start" transform="translate(16,9)" font-family="sans-serif" font-size="10px" fill="#000" opacity="1">karlmdavis/ksoap2-android</text></g></g><path class="foreground" aria-hidden="true" d="" pointer-events="none" display="none"/></g><g transform="translate(0,299)"><path class="background" aria-hidden="true" d="M0,0h176v11h-176Z" pointer-events="none" opacity="1"/><g><g class="mark-symbol role-legend-symbol" pointer-events="none"><path transform="translate(6,6)" d="M5,0A5,5,0,1,1,-5,0A5,5,0,1,1,5,0" fill="#72b7b2" stroke-width="1.5" opacity="1"/></g><g class="mark-text role-legend-label" pointer-events="none"><text text-anchor="start" transform="translate(16,9)" font-family="sans-serif" font-size="10px" fill="#000" opacity="1">karlmdavis/kxml2</text></g></g><path class="foreground" aria-hidden="true" d="" pointer-events="none" display="none"/></g><g transform="translate(0,312)"><path class="background" aria-hidden="true" d="M0,0h176v11h-176Z" pointer-events="none" opacity="1"/><g><g class="mark-symbol role-legend-symbol" pointer-events="none"><path transform="translate(6,6)" d="M5,0A5,5,0,1,1,-5,0A5,5,0,1,1,5,0" fill="#54a24b" stroke-width="1.5" opacity="1"/></g><g class="mark-text role-legend-label" pointer-events="none"><text text-anchor="start" transform="translate(16,9)" font-family="sans-serif" font-size="10px" fill="#000" opacity="1">karlmdavis/ldap-plugin</text></g></g><path class="foreground" aria-hidden="true" d="" pointer-events="none" display="none"/></g><g transform="translate(0,325)"><path class="background" aria-hidden="true" d="M0,0h176v11h-176Z" pointer-events="none" opacity="1"/><g><g class="mark-symbol role-legend-symbol" pointer-events="none"><path transform="translate(6,6)" d="M5,0A5,5,0,1,1,-5,0A5,5,0,1,1,5,0" fill="#eeca3b" stroke-width="1.5" opacity="1"/></g><g class="mark-text role-legend-label" pointer-events="none"><text text-anchor="start" transform="translate(16,9)" font-family="sans-serif" font-size="10px" fill="#000" opacity="1">karlmdavis/lego-ev3dev-rs</text></g></g><path class="foreground" aria-hidden="true" d="" pointer-events="none" display="none"/></g><g transform="translate(0,338)"><path class="background" aria-hidden="true" d="M0,0h176v11h-176Z" pointer-events="none" opacity="1"/><g><g class="mark-symbol role-legend-symbol" pointer-events="none"><path transform="translate(6,6)" d="M5,0A5,5,0,1,1,-5,0A5,5,0,1,1,5,0" fill="#b279a2" stroke-width="1.5" opacity="1"/></g><g class="mark-text role-legend-label" pointer-events="none"><text text-anchor="start" transform="translate(16,9)" font-family="sans-serif" font-size="10px" fill="#000" opacity="1">karlmdavis/liquibase</text></g></g><path class="foreground" aria-hidden="true" d="" pointer-events="none" display="none"/></g><g transform="translate(0,351)"><path class="background" aria-hidden="true" d="M0,0h176v11h-176Z" pointer-events="none" opacity="1"/><g><g class="mark-symbol role-legend-symbol" pointer-events="none"><path transform="translate(6,6)" d="M5,0A5,5,0,1,1,-5,0A5,5,0,1,1,5,0" fill="#ff9da6" stroke-width="1.5" opacity="1"/></g><g class="mark-text role-legend-label" pointer-events="none"><text text-anchor="start" transform="translate(16,9)" font-family="sans-serif" font-size="10px" fill="#000" opacity="1">karlmdavis/m2e-core</text></g></g><path class="foreground" aria-hidden="true" d="" pointer-events="none" display="none"/></g><g transform="translate(0,364)"><path class="background" aria-hidden="true" d="M0,0h176v11h-176Z" pointer-events="none" opacity="1"/><g><g class="mark-symbol role-legend-symbol" pointer-events="none"><path transform="translate(6,6)" d="M5,0A5,5,0,1,1,-5,0A5,5,0,1,1,5,0" fill="#9d755d" stroke-width="1.5" opacity="1"/></g><g class="mark-text role-legend-label" pointer-events="none"><text text-anchor="start" transform="translate(16,9)" font-family="sans-serif" font-size="10px" fill="#000" opacity="1">karlmdavis/m2e-core-tests</text></g></g><path class="foreground" aria-hidden="true" d="" pointer-events="none" display="none"/></g><g transform="translate(0,377)"><path class="background" aria-hidden="true" d="M0,0h176v11h-176Z" pointer-events="none" opacity="1"/><g><g class="mark-symbol role-legend-symbol" pointer-events="none"><path transform="translate(6,6)" d="M5,0A5,5,0,1,1,-5,0A5,5,0,1,1,5,0" fill="#bab0ac" stroke-width="1.5" opacity="1"/></g><g class="mark-text role-legend-label" pointer-events="none"><text text-anchor="start" transform="translate(16,9)" font-family="sans-serif" font-size="10px" fill="#000" opacity="1">…12 entries</text></g></g><path class="foreground" aria-hidden="true" d="" pointer-events="none" display="none"/></g></g></g><path class="foreground" aria-hidden="true" d="" pointer-events="none" display="none"/></g></g><g class="mark-text role-legend-title" pointer-events="none"><text text-anchor="start" transform="translate(0,9)" font-family="sans-serif" font-size="11px" font-weight="bold" fill="#000" opacity="1">Repository</text></g></g><path class="foreground" aria-hidden="true" d="" pointer-events="none" display="none"/></g></g><g class="mark-group role-title"><g transform="translate(400,-22)"><path class="background" aria-hidden="true" d="M0,0h0v0h0Z" pointer-events="none"/><g><g class="mark-text role-title-text" role="graphics-symbol" aria-roledescription="title" aria-label="Title text 'Unique Clones per Day'" pointer-events="none"><text text-anchor="middle" transform="translate(0,10)" font-family="sans-serif" font-size="13px" font-weight="bold" fill="#000" opacity="1">Unique Clones per Day</text></g></g><path class="foreground" aria-hidden="true" d="" pointer-events="none" display="none"/></g></g></g><path class="foreground" aria-hidden="true" d="" display="none"/></g></g></g></svg>