<svg xmlns="http://www.w3.org/2000/svg" xmlns:xlink="http://www.w3.org/1999/xlink" version="1.1" class="marks" width="1032" height="436" viewBox="0 0 1032 436"><rect width="1032" height="436" fill="white"/><g fill="none" stroke-miterlimit="10" transform="translate(33,27)"><g class="mark-group role-frame root" role="graphics-object" aria-roledescription="group mark container"><g transform="translate(0,0)"><path class="background" aria-hidden="true" d="M0.5,0.5h800v300h-800Z" stroke="#ddd"/><g><g class="mark-group role-axis" aria-hidden="true"><g transform="translate(0.5,300.5)"><path class="background" aria-hidden="true" d="M0,0h0v0h0Z" pointer-events="none"/><g><g class="mark-rule role-axis-grid" pointer-events="none"><line transform="translate(22,-300)" x2="0" y2="300" stroke="#ddd" stroke-width="1" opacity="1"/><line transform="translate(67,-300)" x2="0" y2="300" stroke="#ddd" stroke-width="1" opacity="1"/><line transform="translate(111,-300)" x2="0" y2="300" stroke="#ddd" stroke-width="1" opacity="1"/><line transform="translate(156,-300)" x2="0" y2="300" stroke="#ddd" stroke-width="1" opacity="1"/><line transform="translate(200,-300)" x2="0" y2="300" stroke="#ddd" stroke-width="1" opacity="1"/><line transform="translate(244,-300)" x2="0" y2="300" stroke="#ddd" stroke-width="1" opacity="1"/><line transform="translate(289,-300)" x2="0" y2="300" stroke="#ddd" stroke-width="1" opacity="1"/><line transform="translate(333,-300)" x2="0" y2="300" stroke="#ddd" stroke-width="1" opacity="1"/><line transform="translate(356,-300)" x2="0" y2="300" stroke="#ddd" stroke-width="1" opacity="1"/><line transform="translate(400,-300)" x2="0" y2="300" stroke="#ddd" stroke-width="1" opacity="1"/><line transform="translate(444,-300)" x2="0" y2="300" stroke="#ddd" stroke-width="1" opacity="1"/><line transform="translate(489,-300)" x2="0" y2="300" stroke="#ddd" stroke-width="1" opacity="1"/><line transform="translate(533,-300)" x2="0" y2="300" stroke="#ddd" stroke-width="1" opacity="1"/><line transform="translate(578,-300)" x2="0" y2="300" stroke="#ddd" stroke-width="1" opacity="1"/><line transform="translate(622,-300)" x2="0" y2="300" stroke="#ddd" stroke-width="1" opacity="1"/><line transform="translate(667,-300)" x2="0" y2="300" stroke="#ddd" stroke-width="1" opacity="1"/><line transform="translate(711,-300)" x2="0" y2="300" stroke="#ddd" stroke-width="1" opacity="1"/><line transform="translate(756,-300)" x2="0" y2="300" stroke="#ddd" stroke-width="1" opacity="1"/><line transform="translate(800,-300)" x2="0" y2="300" stroke="#ddd" stroke-width="1" opacity="1"/></g></g><path class="foreground" aria-hidden="true" d="" pointer-events="none" display="none"/></g></g><g class="mark-group role-axis" aria-hidden="true"><g transform="translate(0.5,0.5)"><path class="background" aria-hidden="true" d="M0,0h0v0h0Z" pointer-events="none"/><g><g class="mark-rule role-axis-grid" pointer-events="none"><line transform="translate(0,300)" x2="800" y2="0" stroke="#ddd" stroke-width="1" opacity="1"/><line transform="translate(0,257)" x2="800" y2="0" stroke="#ddd" stroke-width="1" opacity="1"/><line transform="translate(0,214)" x2="800" y2="0" stroke="#ddd" stroke-width="1" opacity="1"/><line transform="translate(0,171)" x2="800" y2="0" stroke="#ddd" stroke-width="1" opacity="1"/><line transform="translate(0,129)" x2="800" y2="0" stroke="#ddd" stroke-width="1" opacity="1"/><line transform="translate(0,86)" x2="800" y2="0" stroke="#ddd" stroke-width="1" opacity="1"/><line transform="translate(0,43)" x2="800" y2="0" stroke="#ddd" stroke-width="1" opacity="1"/><line transform="translate(0,0)" x2="800" y2="0" stroke="#ddd" stroke-width="1" opacity="1"/></g></g><path class="foreground" aria-hidden="true" d="" pointer-events="none" display="none"/></g></g><g class="mark-group role-axis" role="graphics-symbol" aria-roledescription="axis" aria-label="X-axis titled 'Date' for a time scale with values from Monday, 16 March 2026, 12:00:00 AM to Tuesday, 21 April 2026, 12:00:00 AM"><g transform="translate(0.5,300.5)"><path class="background" aria-hidden="true" d="M0,0h0v0h0Z" pointer-events="none"/><g><g class="mark-rule role-axis-tick" pointer-events="none"><line transform="translate(22,0)" x2="0" y2="5" stroke="#888" stroke-width="1" opacity="1"/><line transform="translate(67,0)" x2="0" y2="5" stroke="#888" stroke-width="1" opacity="1"/><line transform="translate(111,0)" x2="0" y2="5" stroke="#888" stroke-width="1" opacity="1"/><line transform="translate(156,0)" x2="0" y2="5" stroke="#888" stroke-width="1" opacity="1"/><line transform="translate(200,0)" x2="0" y2="5" stroke="#888" stroke-width="1" opacity="1"/><line transform="translate(244,0)" x2="0" y2="5" stroke="#888" stroke-width="1" opacity="1"/><line transform="translate(289,0)" x2="0" y2="5" stroke="#888" stroke-width="1" opacity="1"/><line transform="translate(333,0)" x2="0" y2="5" stroke="#888" stroke-width="1" opacity="1"/><line transform="translate(356,0)" x2="0" y2="5" stroke="#888" stroke-width="1" opacity="1"/><line transform="translate(400,0)" x2="0" y2="5" stroke="#888" stroke-width="1" opacity="1"/><line transform="translate(444,0)" x2="0" y2="5" stroke="#888" stroke-width="1" opacity="1"/><line transform="translate(489,0)" x2="0" y2="5" stroke="#888" stroke-width="1" opacity="1"/><line transform="translate(533,0)" x2="0" y2="5" stroke="#888" stroke-width="1" opacity="1"/><line transform="translate(578,0)" x2="0" y2="5" stroke="#888" stroke-width="1" opacity="1"/><line transform="translate(622,0)" x2="0" y2="5" stroke="#888" stroke-width="1" opacity="1"/><line transform="translate(667,0)" x2="0" y2="5" stroke="#888" stroke-width="1" opacity="1"/><line transform="translate(711,0)" x2="0" y2="5" stroke="#888" stroke-width="1" opacity="1"/><line transform="translate(756,0)" x2="0" y2="5" stroke="#888" stroke-width="1" opacity="1"/><line transform="translate(800,0)" x2="0" y2="5" stroke="#888" stroke-width="1" opacity="1"/></g><g class="mark-text role-axis-label" pointer-events="none"><text text-anchor="middle" transform="translate(22.22222222222222,15)" font-family="sans-serif" font-size="10px" fill="#000" opacity="1">Tue 17</text><text text-anchor="middle" transform="translate(66.66666666666666,15)" font-family="sans-serif" font-size="10px" fill="#000" opacity="0">Thu 19</text><text text-anchor="middle" transform="translate(111.11111111111111,15)" font-family="sans-serif" font-size="10px" fill="#000" opacity="1">Sat 21</text><text text-anchor="middle" transform="translate(155.55555555555557,15)" font-family="sans-serif" font-size="10px" fill="#000" opacity="0">Mon 23</text><text text-anchor="middle" transform="translate(200,15)" font-family="sans-serif" font-size="10px" fill="#000" opacity="1">Wed 25</text><text text-anchor="middle" transform="translate(244.44444444444446,15)" font-family="sans-serif" font-size="10px" fill="#000" opacity="0">Fri 27</text><text text-anchor="middle" transform="translate(288.88888888888886,15)" font-family="sans-serif" font-size="10px" fill="#000" opacity="1">Mar 29</text><text text-anchor="middle" transform="translate(333.33333333333337,15)" font-family="sans-serif" font-size="10px" fill="#000" opacity="0">Tue 31</text><text text-anchor="middle" transform="translate(355.55555555555554,15)" font-family="sans-serif" font-size="10px" fill="#000" opacity="1">April</text><text text-anchor="middle" transform="translate(400,15)" font-family="sans-serif" font-size="10px" fill="#000" opacity="0">Fri 03</text><text text-anchor="middle" transform="translate(444.44444444444446,15)" font-family="sans-serif" font-size="10px" fill="#000" opacity="1">Apr 05</text><text text-anchor="middle" transform="translate(488.8888888888889,15)" font-family="sans-serif" font-size="10px" fill="#000" opacity="0">Tue 07</text><text text-anchor="middle" transform="translate(533.3333333333333,15)" font-family="sans-serif" font-size="10px" fill="#000" opacity="1">Thu 09</text><text text-anchor="middle" transform="translate(577.7777777777777,15)" font-family="sans-serif" font-size="10px" fill="#000" opacity="0">Sat 11</text><text text-anchor="middle" transform="translate(622.2222222222223,15)" font-family="sans-serif" font-size="10px" fill="#000" opacity="1">Mon 13</text><text text-anchor="middle" transform="translate(666.6666666666667,15)" font-family="sans-serif" font-size="10px" fill="#000" opacity="0">Wed 15</text><text text-anchor="middle" transform="translate(711.1111111111111,15)" font-family="sans-serif" font-size="10px" fill="#000" opacity="1">Fri 17</text><text text-anchor="middle" transform="translate(755.5555555555555,15)" font-family="sans-serif" font-size="10px" fill="#000" opacity="0">Apr 19</text><text text-anchor="end" transform="translate(800,15)" font-family="sans-serif" font-size="10px" fill="#000" opacity="1">Tue 21</text></g><g class="mark-rule role-axis-domain" pointer-events="none"><line transform="translate(0,0)" x2="800" y2="0" stroke="#888" stroke-width="1" opacity="1"/></g><g class="mark-text role-axis-title" pointer-events="none"><text text-anchor="middle" transform="translate(400,30)" font-family="sans-serif" font-size="11px" font-weight="bold" fill="#000" opacity="1">Date</text></g></g><path class="foreground" aria-hidden="true" d="" pointer-events="none" display="none"/></g></g><g class="mark-group role-axis" role="graphics-symbol" aria-roledescription="axis" aria-label="Y-axis titled 'Unique Visitors/day' for a linear scale with values from 0 to 7"><g transform="translate(0.5,0.5)"><path class="background" aria-hidden="true" d="M0,0h0v0h0Z" pointer-events="none"/><g><g class="mark-rule role-axis-tick" pointer-events="none"><line transform="translate(0,300)" x2="-5" y2="0" stroke="#888" stroke-width="1" opacity="1"/><line transform="translate(0,257)" x2="-5" y2="0" stroke="#888" stroke-width="1" opacity="1"/><line transform="translate(0,214)" x2="-5" y2="0" stroke="#888" stroke-width="1" opacity="1"/><line transform="translate(0,171)" x2="-5" y2="0" stroke="#888" stroke-width="1" opacity="1"/><line transform="translate(0,129)" x2="-5" y2="0" stroke="#888" stroke-width="1" opacity="1"/><line transform="translate(0,86)" x2="-5" y2="0" stroke="#888" stroke-width="1" opacity="1"/><line transform="translate(0,43)" x2="-5" y2="0" stroke="#888" stroke-width="1" opacity="1"/><line transform="translate(0,0)" x2="-5" y2="0" stroke="#888" stroke-width="1" opacity="1"/></g><g class="mark-text role-axis-label" pointer-events="none"><text text-anchor="end" transform="translate(-7,303)" font-family="sans-serif" font-size="10px" fill="#000" opacity="1">0</text><text text-anchor="end" transform="translate(-7,260.14285714285717)" font-family="sans-serif" font-size="10px" fill="#000" opacity="1">1</text><text text-anchor="end" transform="translate(-7,217.28571428571428)" font-family="sans-serif" font-size="10px" fill="#000" opacity="1">2</text><text text-anchor="end" transform="translate(-7,174.42857142857142)" font-family="sans-serif" font-size="10px" fill="#000" opacity="1">3</text><text text-anchor="end" transform="translate(-7,131.57142857142858)" font-family="sans-serif" font-size="10px" fill="#000" opacity="1">4</text><text text-anchor="end" transform="translate(-7,88.71428571428571)" font-family="sans-serif" font-size="10px" fill="#000" opacity="1">5</text><text text-anchor="end" transform="translate(-7,45.85714285714287)" font-family="sans-serif" font-size="10px" fill="#000" opacity="1">6</text><text text-anchor="end" transform="translate(-7,3)" font-family="sans-serif" font-size="10px" fill="#000" opacity="1">7</text></g><g class="mark-rule role-axis-domain" pointer-events="none"><line transform="translate(0,300)" x2="0" y2="-300" stroke="#888" stroke-width="1" opacity="1"/></g><g class="mark-text role-axis-title" pointer-events="none"><text text-anchor="middle" transform="translate(-16.5615234375,150) rotate(-90) translate(0,-2)" font-family="sans-serif" font-size="11px" font-weight="bold" fill="#000" opacity="1">Unique Visitors/day</text></g></g><path class="foreground" aria-hidden="true" d="" pointer-events="none" display="none"/></g></g><g class="mark-group role-scope pathgroup" role="graphics-object" aria-roledescription="group mark container"><g transform="translate(0,0)"><path class="background" aria-hidden="true" d="M0,0h800v300h-800Z"/><g><g class="mark-area role-mark marks" role="graphics-object" aria-roledescription="area mark container"><path aria-label="Date: Mar 16, 2026; Unique Visitors/day: 0; Repository: karlmdavis/FHIR-Server" role="graphics-symbol" aria-roledescription="area mark" d="M0,300L22.222,300L44.444,300L66.667,300L88.889,300L111.111,300L133.333,300L155.556,171.429L177.778,171.429L200,128.571L222.222,171.429L244.444,171.429L266.667,171.429L288.889,257.143L311.111,0L333.333,257.143L355.556,128.571L377.778,257.143L400,300L422.222,214.286L444.444,257.143L466.667,300L488.889,257.143L511.111,257.143L533.333,257.143L555.556,214.286L577.778,300L600,42.857L622.222,300L644.444,257.143L666.667,171.429L688.889,300L711.111,214.286L733.333,300L755.556,257.143L777.778,171.429L800,171.429L800,171.429L777.778,171.429L755.556,257.143L733.333,300L711.111,214.286L688.889,300L666.667,171.429L644.444,257.143L622.222,300L600,42.857L577.778,300L555.556,214.286L533.333,257.143L511.111,257.143L488.889,257.143L466.667,300L444.444,257.143L422.222,214.286L400,300L377.778,257.143L355.556,128.571L333.333,257.143L311.111,0L288.889,257.143L266.667,171.429L244.444,171.429L222.222,171.429L200,128.571L177.778,171.429L155.556,171.429L133.333,300L111.111,300L88.889,300L66.667,300L44.444,300L22.222,300L0,300Z" fill="#4c78a8"/></g></g><path class="foreground" aria-hidden="true" d="" display="none"/></g><g transform="translate(0,0)"><path class="background" aria-hidden="true" d="M0,0h800v300h-800Z"/><g><g class="mark-area role-mark marks" role="graphics-object" aria-roledescription="area mark container"><path aria-label="Date: Mar 16, 2026; Unique Visitors/day: 0; Repository: karlmdavis/ansible" role="graphics-symbol" aria-roledescription="area mark" d="M0,300L22.222,300L44.444,300L66.667,300L88.889,300L111.111,300L133.333,300L155.556,171.429L177.778,171.429L200,128.571L222.222,171.429L244.444,171.429L266.667,171.429L288.889,257.143L311.111,0L333.333,257.143L355.556,128.571L377.778,257.143L400,300L422.222,214.286L444.444,257.143L466.667,300L488.889,257.143L511.111,257.143L533.333,257.143L555.556,214.286L577.778,300L600,42.857L622.222,300L644.444,257.143L666.667,171.429L688.889,300L711.111,214.286L733.333,300L755.556,257.143L777.778,171.429L800,171.429L800,171.429L777.778,171.429L755.556,257.143L733.333,300L711.111,214.286L688.889,300L666.667,171.429L644.444,257.143L622.222,300L600,42.857L577.778,300L555.556,214.286L533.333,257.143L511.111,257.143L488.889,257.143L466.667,300L444.444,257.143L422.222,214.286L400,300L377.778,257.143L355.556,128.571L333.333,257.143L311.111,0L288.889,257.143L266.667,171.429L244.444,171.429L222.222,171.429L200,128.571L177.778,171.429L155.556,171.429L133.333,300L111.111,300L88.889,300L66.667,300L44.444,300L22.222,300L0,300Z" fill="#f58518"/></g></g><path class="foreground" aria-hidden="true" d="" display="none"/></g><g transform="translate(0,0)"><path class="background" aria-hidden="true" d="M0,0h800v300h-800Z"/><g><g class="mark-area role-mark marks" role="graphics-object" aria-roledescription="area mark container"><path aria-label="Date: Mar 16, 2026; Unique Visitors/day: 0; Repository: karlmdavis/ansible-jenkins" role="graphics-symbol" aria-roledescription="area mark" d="M0,300L22.222,300L44.444,300L66.667,300L88.889,300L111.111,300L133.333,300L155.556,171.429L177.778,171.429L200,128.571L222.222,171.429L244.444,171.429L266.667,171.429L288.889,257.143L311.111,0L333.333,257.143L355.556,128.571L377.778,257.143L400,300L422.222,214.286L444.444,257.143L466.667,300L488.889,257.143L511.111,257.143L533.333,257.143L555.556,214.286L577.778,300L600,42.857L622.222,300L644.444,257.143L666.667,171.429L688.889,300L711.111,214.286L733.333,300L755.556,257.143L777.778,171.429L800,171.429L800,171.429L777.778,171.429L755.556,257.143L733.333,300L711.111,214.286L688.889,300L666.667,171.429L644.444,257.143L622.222,300L600,42.857L577.778,300L555.556,214.286L533.333,257.143L511.111,257.143L488.889,257.143L466.667,300L444.444,257.143L422.222,214.286L400,300L377.778,257.143L355.556,128.571L333.333,257.143L311.111,0L288.889,257.143L266.667,171.429L244.444,171.429L222.222,171.429L200,128.571L177.778,171.429L155.556,171.429L133.333,300L111.111,300L88.889,300L66.667,300L44.444,300L22.222,300L0,300Z" fill="#e45756"/></g></g><path class="foreground" aria-hidden="true" d="" display="none"/></g><g transform="translate(0,0)"><path class="background" aria-hidden="true" d="M0,0h800v300h-800Z"/><g><g class="mark-area role-mark marks" role="graphics-object" aria-roledescription="area mark container"><path aria-label="Date: Mar 16, 2026; Unique Visitors/day: 0; Repository: karlmdavis/ansible-role-acmetool" role="graphics-symbol" aria-roledescription="area mark" d="M0,300L22.222,300L44.444,300L66.667,300L88.889,300L111.111,300L133.333,300L155.556,171.429L177.778,171.429L200,128.571L222.222,171.429L244.444,171.429L266.667,171.429L288.889,257.143L311.111,0L333.333,257.143L355.556,128.571L377.778,257.143L400,300L422.222,214.286L444.444,257.143L466.667,300L488.889,257.143L511.111,257.143L533.333,257.143L555.556,214.286L577.778,300L600,42.857L622.222,300L644.444,257.143L666.667,171.429L688.889,300L711.111,214.286L733.333,300L755.556,257.143L777.778,171.429L800,171.429L800,171.429L777.778,171.429L755.556,257.143L733.333,300L711.111,214.286L688.889,300L666.667,171.429L644.444,257.143L622.222,300L600,42.857L577.778,300L555.556,214.286L533.333,257.143L511.111,257.143L488.889,257.143L466.667,300L444.444,257.143L422.222,214.286L400,300L377.778,257.143L355.556,128.571L333.333,257.143L311.111,0L288.889,257.143L266.667,171.429L244.444,171.429L222.222,171.429L200,128.571L177.778,171.429L155.556,171.429L133.333,300L111.111,300L88.889,300L66.667,300L44.444,300L22.222,300L0,300Z" fill="#72b7b2"/></g></g><path class="foreground" aria-hidden="true" d="" display="none"/></g><g transform="translate(0,0)"><path class="background" aria-hidden="true" d="M0,0h800v300h-800Z"/><g><g class="mark-area role-mark marks" role="graphics-object" aria-roledescription="area mark container"><path aria-label="Date: Mar 16, 2026; Unique Visitors/day: 0; Repository: karlmdavis/ansible-role-bind-dns" role="graphics-symbol" aria-roledescription="area mark" d="M0,300L22.222,300L44.444,300L66.667,300L88.889,300L111.111,300L133.333,300L155.556,171.429L177.778,171.429L200,128.571L222.222,171.429L244.444,171.429L266.667,171.429L288.889,257.143L311.111,0L333.333,257.143L355.556,128.571L377.778,257.143L400,300L422.222,214.286L444.444,257.143L466.667,300L488.889,257.143L511.111,257.143L533.333,257.143L555.556,214.286L577.778,300L600,42.857L622.222,300L644.444,257.143L666.667,171.429L688.889,300L711.111,214.286L733.333,300L755.556,257.143L777.778,171.429L800,171.429L800,171.429L777.778,171.429L755.556,300L733.333,300L711.111,214.286L688.889,300L666.667,214.286L644.444,257.143L622.222,300L600,42.857L577.778,300L555.556,214.286L533.333,257.143L511.111,257.143L488.889,257.143L466.667,300L444.444,257.143L422.222,257.143L400,300L377.778,257.143L355.556,128.571L333.333,257.143L311.111,0L288.889,257.143L266.667,214.286L244.444,171.429L222.222,171.429L200,171.429L177.778,171.429L155.556,171.429L133.333,300L111.111,300L88.889,300L66.667,300L44.444,300L22.222,300L0,300Z" fill="#54a24b"/></g></g><path class="foreground" aria-hidden="true" d="" display="none"/></g><g transform="translate(0,0)"><path class="background" aria-hidden="true" d="M0,0h800v300h-800Z"/><g><g class="mark-area role-mark marks" role="graphics-object" aria-roledescription="area mark container"><path aria-label="Date: Mar 16, 2026; Unique Visitors/day: 0; Repository: karlmdavis/ansible-role-jenkins2" role="graphics-symbol" aria-roledescription="area mark" d="M0,300L22.222,300L44.444,300L66.667,300L88.889,300L111.111,300L133.333,300L155.556,171.429L177.778,171.429L200,171.429L222.222,171.429L244.444,171.429L266.667,214.286L288.889,257.143L311.111,0L333.333,257.143L355.556,128.571L377.778,257.143L400,300L422.222,257.143L444.444,257.143L466.667,300L488.889,257.143L511.111,257.143L533.333,257.143L555.556,214.286L577.778,300L600,42.857L622.222,300L644.444,257.143L666.667,214.286L688.889,300L711.111,214.286L733.333,300L755.556,300L777.778,171.429L800,171.429L800,171.429L777.778,214.286L755.556,300L733.333,300L711.111,214.286L688.889,300L666.667,214.286L644.444,257.143L622.222,300L600,85.714L577.778,300L555.556,214.286L533.333,257.143L511.111,257.143L488.889,257.143L466.667,300L444.444,257.143L422.222,257.143L400,300L377.778,257.143L355.556,128.571L333.333,257.143L311.111,42.857L288.889,300L266.667,214.286L244.444,171.429L222.222,171.429L200,171.429L177.778,171.429L155.556,171.429L133.333,300L111.111,300L88.889,300L66.667,300L44.444,300L22.222,300L0,300Z" fill="#eeca3b"/></g></g><path class="foreground" aria-hidden="true" d="" display="none"/></g><g transform="translate(0,0)"><path class="background" aria-hidden="true" d="M0,0h800v300h-800Z"/><g><g class="mark-area role-mark marks" role="graphics-object" aria-roledescription="area mark container"><path aria-label="Date: Mar 16, 2026; Unique Visitors/day: 0; Repository: karlmdavis/ansible-role-ldap" role="graphics-symbol" aria-roledescription="area mark" d="M0,300L22.222,300L44.444,300L66.667,300L88.889,300L111.111,300L133.333,300L155.556,171.429L177.778,171.429L200,171.429L222.222,171.429L244.444,171.429L266.667,214.286L288.889,300L311.111,42.857L333.333,257.143L355.556,128.571L377.778,257.143L400,300L422.222,257.143L444.444,257.143L466.667,300L488.889,257.143L511.111,257.143L533.333,257.143L555.556,214.286L577.778,300L600,85.714L622.222,300L644.444,257.143L666.667,214.286L688.889,300L711.111,214.286L733.333,300L755.556,300L777.778,214.286L800,171.429L800,171.429L777.778,214.286L755.556,300L733.333,300L711.111,214.286L688.889,300L666.667,214.286L644.444,257.143L622.222,300L600,85.714L577.778,300L555.556,214.286L533.333,257.143L511.111,257.143L488.889,257.143L466.667,300L444.444,257.143L422.222,257.143L400,300L377.778,257.143L355.556,128.571L333.333,257.143L311.111,42.857L288.889,300L266.667,214.286L244.444,171.429L222.222,171.429L200,171.429L177.778,171.429L155.556,171.429L133.333,300L111.111,300L88.889,300L66.667,300L44.444,300L22.222,300L0,300Z" fill="#b279a2"/></g></g><path class="foreground" aria-hidden="true" d="" display="none"/></g><g transform="translate(0,0)"><path class="background" aria-hidden="true" d="M0,0h800v300h-800Z"/><g><g class="mark-area role-mark marks" role="graphics-object" aria-roledescription="area mark container"><path aria-label="Date: Mar 16, 2026; Unique Visitors/day: 0; Repository: karlmdavis/ansible-role-rcm-dotfiles" role="graphics-symbol" aria-roledescription="area mark" d="M0,300L22.222,300L44.444,300L66.667,300L88.889,300L111.111,300L133.333,300L155.556,171.429L177.778,171.429L200,171.429L222.222,171.429L244.444,171.429L266.667,214.286L288.889,300L311.111,42.857L333.333,257.143L355.556,128.571L377.778,257.143L400,300L422.222,257.143L444.444,257.143L466.667,300L488.889,257.143L511.111,257.143L533.333,257.143L555.556,214.286L577.778,300L600,85.714L622.222,300L644.444,257.143L666.667,214.286L688.889,300L711.111,214.286L733.333,300L755.556,300L777.778,214.286L800,171.429L800,214.286L777.778,214.286L755.556,300L733.333,300L711.111,214.286L688.889,300L666.667,214.286L644.444,257.143L622.222,300L600,85.714L577.778,300L555.556,214.286L533.333,257.143L511.111,257.143L488.889,257.143L466.667,300L444.444,257.143L422.222,257.143L400,300L377.778,257.143L355.556,128.571L333.333,257.143L311.111,42.857L288.889,300L266.667,214.286L244.444,171.429L222.222,171.429L200,171.429L177.778,171.429L155.556,171.429L133.333,300L111.111,300L88.889,300L66.667,300L44.444,300L22.222,300L0,300Z" fill="#ff9da6"/></g></g><path class="foreground" aria-hidden="true" d="" display="none"/></g><g transform="translate(0,0)"><path class="background" aria-hidden="true" d="M0,0h800v300h-800Z"/><g><g class="mark-area role-mark marks" role="graphics-object" aria-roledescription="area mark container"><path aria-label="Date: Mar 16, 2026; Unique Visitors/day: 0; Repository: karlmdavis/ansible-roles" role="graphics-symbol" aria-roledescription="area mark" d="M0,300L22.222,300L44.444,300L66.667,300L88.889,300L111.111,300L133.333,300L155.556,171.429L177.778,171.429L200,171.429L222.222,171.429L244.444,171.429L266.667,214.286L288.889,300L311.111,42.857L333.333,257.143L355.556,128.571L377.778,257.143L400,300L422.222,257.143L444.444,257.143L466.667,300L488.889,257.143L511.111,257.143L533.333,257.143L555.556,214.286L577.778,300L600,85.714L622.222,300L644.444,257.143L666.667,214.286L688.889,300L711.111,214.286L733.333,300L755.556,300L777.778,214.286L800,214.286L800,214.286L777.778,214.286L755.556,300L733.333,300L711.111,214.286L688.889,300L666.667,214.286L644.444,257.143L622.222,300L600,85.714L577.778,300L555.556,214.286L533.333,257.143L511.111,257.143L488.889,257.143L466.667,300L444.444,257.143L422.222,257.143L400,300L377.778,257.143L355.556,128.571L333.333,257.143L311.111,42.857L288.889,300L266.667,214.286L244.444,171.429L222.222,171.429L200,171.429L177.778,171.429L155.556,171.429L133.333,300L111.111,300L88.889,300L66.667,300L44.444,300L22.222,300L0,300Z" fill="#9d755d"/></g></g><path class="foreground" aria-hidden="true" d="" display="none"/></g><g transform="translate(0,0)"><path class="background" aria-hidden="true" d="M0,0h800v300h-800Z"/><g><g class="mark-area role-mark marks" role="graphics-object" aria-roledescription="area mark container"><path aria-label="Date: Mar 16, 2026; Unique Visitors/day: 0; Repository: karlmdavis/bbonfhir-dev-infra-docker" role="graphics-symbol" aria-roledescription="area mark" d="M0,300L22.222,300L44.444,300L66.667,300L88.889,300L111.111,300L133.333,300L155.556,171.429L177.778,171.429L200,171.429L222.222,171.429L244.444,171.429L266.667,214.286L288.889,300L311.111,42.857L333.333,257.143L355.556,128.571L377.778,257.143L400,300L422.222,257.143L444.444,257.143L466.667,300L488.889,257.143L511.111,257.143L533.333,257.143L555.556,214.286L577.778,300L600,85.714L622.222,300L644.444,257.143L666.667,214.286L688.889,300L711.111,214.286L733.333,300L755.556,300L777.778,214.286L800,214.286L800,214.286L777.778,214.286L755.556,300L733.333,300L711.111,214.286L688.889,300L666.667,214.286L644.444,257.143L622.222,300L600,85.714L577.778,300L555.556,214.286L533.333,257.143L511.111,257.143L488.889,257.143L466.667,300L444.444,257.143L422.222,257.143L400,300L377.778,257.143L355.556,128.571L333.333,257.143L311.111,42.857L288.889,300L266.667,214.286L244.444,171.429L222.222,171.429L200,171.429L177.778,171.429L155.556,171.429L133.333,300L111.111,300L88.889,300L66.667,300L44.444,300L22.222,300L0,300Z" fill="#bab0ac"/></g></g><path class="foreground" aria-hidden="true" d="" display="none"/></g><g transform="translate(0,0)"><path class="background" aria-hidden="true" d="M0,0h800v300h-800Z"/><g><g class="mark-area role-mark marks" role="graphics-object" aria-roledescription="area mark container"><path aria-label="Date: Mar 16, 2026; Unique Visitors/day: 0; Repository: karlmdavis/can-i-kayak-baltimore" role="graphics-symbol" aria-roledescription="area mark" d="M0,300L22.222,300L44.444,300L66.667,300L88.889,300L111.111,300L133.333,300L155.556,171.429L177.778,171.429L200,171.429L222.222,171.429L244.444,171.429L266.667,214.286L288.889,300L311.111,42.857L333.333,257.143L355.556,128.571L377.778,257.143L400,300L422.222,257.143L444.444,257.143L466.667,300L488.889,257.143L511.111,257.143L533.333,257.143L555.556,214.286L577.778,300L600,85.714L622.222,300L644.444,257.143L666.667,214.286L688.889,300L711.111,214.286L733.333,300L755.556,300L777.778,214.286L800,214.286L800,214.286L777.778,214.286L755.556,300L733.333,300L711.111,214.286L688.889,300L666.667,214.286L644.444,257.143L622.222,300L600,85.714L577.778,300L555.556,214.286L533.333,257.143L511.111,257.143L488.889,257.143L466.667,300L444.444,257.143L422.222,257.143L400,300L377.778,257.143L355.556,128.571L333.333,257.143L311.111,42.857L288.889,300L266.667,214.286L244.444,171.429L222.222,171.429L200,171.429L177.778,171.429L155.556,171.429L133.333,300L111.111,300L88.889,300L66.667,300L44.444,300L22.222,300L0,300Z" fill="#4c78a8"/></g></g><path class="foreground" aria-hidden="true" d="" display="none"/></g><g transform="translate(0,0)"><path class="background" aria-hidden="true" d="M0,0h800v300h-800Z"/><g><g class="mark-area role-mark marks" role="graphics-object" aria-roledescription="area mark container"><path aria-label="Date: Mar 16, 2026; Unique Visitors/day: 0; Repository: karlmdavis/datanucleus-test-jdo-1-to-n" role="graphics-symbol" aria-roledescription="area mark" d="M0,300L22.222,300L44.444,300L66.667,300L88.889,300L111.111,300L133.333,300L155.556,171.429L177.778,171.429L200,171.429L222.222,171.429L244.444,171.429L266.667,214.286L288.889,300L311.111,42.857L333.333,257.143L355.556,128.571L377.778,257.143L400,300L422.222,257.143L444.444,257.143L466.667,300L488.889,257.143L511.111,257.143L533.333,257.143L555.556,214.286L577.778,300L600,85.714L622.222,300L644.444,257.143L666.667,214.286L688.889,300L711.111,214.286L733.333,300L755.556,300L777.778,214.286L800,214.286L800,214.286L777.778,214.286L755.556,300L733.333,300L711.111,214.286L688.889,300L666.667,214.286L644.444,257.143L622.222,300L600,85.714L577.778,300L555.556,214.286L533.333,257.143L511.111,257.143L488.889,257.143L466.667,300L444.444,257.143L422.222,257.143L400,300L377.778,257.143L355.556,128.571L333.333,257.143L311.111,42.857L288.889,300L266.667,214.286L244.444,171.429L222.222,171.429L200,171.429L177.778,171.429L155.556,171.429L133.333,300L111.111,300L88.889,300L66.667,300L44.444,300L22.222,300L0,300Z" fill="#f58518"/></g></g><path class="foreground" aria-hidden="true" d="" display="none"/></g><g transform="translate(0,0)"><path class="background" aria-hidden="true" d="M0,0h800v300h-800Z"/><g><g class="mark-area role-mark marks" role="graphics-object" aria-roledescription="area mark container"><path aria-label="Date: Mar 16, 2026; Unique Visitors/day: 0; Repository: karlmdavis/dotfiles" role="graphics-symbol" aria-roledescription="area mark" d="M0,300L22.222,300L44.444,300L66.667,300L88.889,300L111.111,300L133.333,300L155.556,171.429L177.778,171.429L200,171.429L222.222,171.429L244.444,171.429L266.667,214.286L288.889,300L311.111,42.857L333.333,257.143L355.556,128.571L377.778,257.143L400,300L422.222,257.143L444.444,257.143L466.667,300L488.889,257.143L511.111,257.143L533.333,257.143L555.556,214.286L577.778,300L600,85.714L622.222,300L644.444,257.143L666.667,214.286L688.889,300L711.111,214.286L733.333,300L755.556,300L777.778,214.286L800,214.286L800,214.286L777.778,214.286L755.556,300L733.333,300L711.111,214.286L688.889,300L666.667,214.286L644.444,257.143L622.222,300L600,85.714L577.778,300L555.556,214.286L533.333,257.143L511.111,257.143L488.889,257.143L466.667,300L444.444,257.143L422.222,257.143L400,300L377.778,257.143L355.556,128.571L333.333,257.143L311.111,42.857L288.889,300L266.667,214.286L244.444,171.429L222.222,171.429L200,171.429L177.778,171.429L155.556,171.429L133.333,300L111.111,300L88.889,300L66.667,300L44.444,300L22.222,300L0,300Z" fill="#e45756"/></g></g><path class="foreground" aria-hidden="true" d="" display="none"/></g><g transform="translate(0,0)"><path class="background" aria-hidden="true" d="M0,0h800v300h-800Z"/><g><g class="mark-area role-mark marks" role="graphics-object" aria-roledescription="area mark container"><path aria-label="Date: Mar 16, 2026; Unique Visitors/day: 0; Repository: karlmdavis/fhir-benchmarks" role="graphics-symbol" aria-roledescription="area mark" d="M0,300L22.222,300L44.444,300L66.667,300L88.889,300L111.111,300L133.333,300L155.556,171.429L177.778,171.429L200,171.429L222.222,171.429L244.444,171.429L266.667,214.286L288.889,300L311.111,42.857L333.333,257.143L355.556,128.571L377.778,257.143L400,300L422.222,257.143L444.444,257.143L466.667,300L488.889,257.143L511.111,257.143L533.333,257.143L555.556,214.286L577.778,300L600,85.714L622.222,300L644.444,257.143L666.667,214.286L688.889,300L711.111,214.286L733.333,300L755.556,300L777.778,214.286L800,214.286L800,214.286L777.778,214.286L755.556,300L733.333,300L711.111,214.286L688.889,300L666.667,257.143L644.444,257.143L622.222,300L600,85.714L577.778,300L555.556,257.143L533.333,257.143L511.111,257.143L488.889,300L466.667,300L444.444,257.143L422.222,257.143L400,300L377.778,257.143L355.556,171.429L333.333,257.143L311.111,85.714L288.889,300L266.667,214.286L244.444,171.429L222.222,214.286L200,171.429L177.778,171.429L155.556,171.429L133.333,300L111.111,300L88.889,300L66.667,300L44.444,300L22.222,300L0,300Z" fill="#72b7b2"/></g></g><path class="foreground" aria-hidden="true" d="" display="none"/></g><g transform="translate(0,0)"><path class="background" aria-hidden="true" d="M0,0h800v300h-800Z"/><g><g class="mark-area role-mark marks" role="graphics-object" aria-roledescription="area mark container"><path aria-label="Date: Mar 16, 2026; Unique Visitors/day: 0; Repository: karlmdavis/hapi-fhir-jpaserver-starter" role="graphics-symbol" aria-roledescription="area mark" d="M0,300L22.222,300L44.444,300L66.667,300L88.889,300L111.111,300L133.333,300L155.556,171.429L177.778,171.429L200,171.429L222.222,214.286L244.444,171.429L266.667,214.286L288.889,300L311.111,85.714L333.333,257.143L355.556,171.429L377.778,257.143L400,300L422.222,257.143L444.444,257.143L466.667,300L488.889,300L511.111,257.143L533.333,257.143L555.556,257.143L577.778,300L600,85.714L622.222,300L644.444,257.143L666.667,257.143L688.889,300L711.111,214.286L733.333,300L755.556,300L777.778,214.286L800,214.286L800,214.286L777.778,214.286L755.556,300L733.333,300L711.111,214.286L688.889,300L666.667,257.143L644.444,257.143L622.222,300L600,85.714L577.778,300L555.556,257.143L533.333,257.143L511.111,257.143L488.889,300L466.667,300L444.444,257.143L422.222,257.143L400,300L377.778,257.143L355.556,171.429L333.333,257.143L311.111,85.714L288.889,300L266.667,214.286L244.444,171.429L222.222,214.286L200,171.429L177.778,171.429L155.556,171.429L133.333,300L111.111,300L88.889,300L66.667,300L44.444,300L22.222,300L0,300Z" fill="#54a24b"/></g></g><path class="foreground" aria-hidden="true" d="" display="none"/></g><g transform="translate(0,0)"><path class="background" aria-hidden="true" d="M0,0h800v300h-800Z"/><g><g class="mark-area role-mark marks" role="graphics-object" aria-roledescription="area mark container"><path aria-label="Date: Mar 16, 2026; Unique Visitors/day: 0; Repository: karlmdavis/hello-rust-actix" role="graphics-symbol" aria-roledescription="area mark" d="M0,300L22.222,300L44.444,300L66.667,300L88.889,300L111.111,300L133.333,300L155.556,171.429L177.778,171.429L200,171.429L222.222,214.286L244.444,171.429L266.667,214.286L288.889,300L311.111,85.714L333.333,257.143L355.556,171.429L377.778,257.143L400,300L422.222,257.143L444.444,257.143L466.667,300L488.889,300L511.111,257.143L533.333,257.143L555.556,257.143L577.778,300L600,85.714L622.222,300L644.444,257.143L666.667,257.143L688.889,300L711.111,214.286L733.333,300L755.556,300L777.778,214.286L800,214.286L800,214.286L777.778,214.286L755.556,300L733.333,300L711.111,214.286L688.889,300L666.667,257.143L644.444,257.143L622.222,300L600,85.714L577.778,300L555.556,257.143L533.333,257.143L511.111,257.143L488.889,300L466.667,300L444.444,257.143L422.222,257.143L400,300L377.778,257.143L355.556,171.429L333.333,257.143L311.111,85.714L288.889,300L266.667,214.286L244.444,171.429L222.222,214.286L200,171.429L177.778,171.429L155.556,171.429L133.333,300L111.111,300L88.889,300L66.667,300L44.444,300L22.222,300L0,300Z" fill="#eeca3b"/></g></g><path class="foreground" aria-hidden="true" d="" display="none"/></g><g transform="translate(0,0)"><path class="background" aria-hidden="true" d="M0,0h800v300h-800Z"/><g><g class="mark-area role-mark marks" role="graphics-object" aria-roledescription="area mark container"><path aria-label="Date: Mar 16, 2026; Unique Visitors/day: 0; Repository: karlmdavis/jessentials" role="graphics-symbol" aria-roledescription="area mark" d="M0,300L22.222,300L44.444,300L66.667,300L88.889,300L111.111,300L133.333,300L155.556,171.429L177.778,171.429L200,171.429L222.222,214.286L244.444,171.429L266.667,214.286L288.889,300L311.111,85.714L333.333,257.143L355.556,171.429L377.778,257.143L400,300L422.222,257.143L444.444,257.143L466.667,300L488.889,300L511.111,257.143L533.333,257.143L555.556,257.143L577.778,300L600,85.714L622.222,300L644.444,257.143L666.667,257.143L688.889,300L711.111,214.286L733.333,300L755.556,300L777.778,214.286L800,214.286L800,214.286L777.778,214.286L755.556,300L733.333,300L711.111,214.286L688.889,300L666.667,257.143L644.444,257.143L622.222,300L600,85.714L577.778,300L555.556,257.143L533.333,257.143L511.111,257.143L488.889,300L466.667,300L444.444,257.143L422.222,257.143L400,300L377.778,257.143L355.556,171.429L333.333,257.143L311.111,85.714L288.889,300L266.667,214.286L244.444,171.429L222.222,214.286L200,171.429L177.778,171.429L155.556,171.429L133.333,300L111.111,300L88.889,300L66.667,300L44.444,300L22.222,300L0,300Z" fill="#b279a2"/></g></g><path class="foreground" aria-hidden="true" d="" display="none"/></g><g transform="translate(0,0)"><path class="background" aria-hidden="true" d="M0,0h800v300h-800Z"/><g><g class="mark-area role-mark marks" role="graphics-object" aria-roledescription="area mark container"><path aria-label="Date: Mar 16, 2026; Unique Visitors/day: 0; Repository: karlmdavis/justdavis-ansible" role="graphics-symbol" aria-roledescription="area mark" d="M0,300L22.222,300L44.444,300L66.667,300L88.889,300L111.111,300L133.333,300L155.556,171.429L177.778,171.429L200,171.429L222.222,214.286L244.444,171.429L266.667,214.286L288.889,300L311.111,85.714L333.333,257.143L355.556,171.429L377.778,257.143L400,300L422.222,257.143L444.444,257.143L466.667,300L488.889,300L511.111,257.143L533.333,257.143L555.556,257.143L577.778,300L600,85.714L622.222,300L644.444,257.143L666.667,257.143L688.889,300L711.111,214.286L733.333,300L755.556,300L777.778,214.286L800,214.286L800,214.286L777.778,214.286L755.556,300L733.333,300L711.111,214.286L688.889,300L666.667,257.143L644.444,257.143L622.222,300L600,128.571L577.778,300L555.556,257.143L533.333,257.143L511.111,257.143L488.889,300L466.667,300L444.444,257.143L422.222,257.143L400,300L377.778,257.143L355.556,214.286L333.333,257.143L311.111,128.571L288.889,300L266.667,214.286L244.444,171.429L222.222,214.286L200,171.429L177.778,171.429L155.556,171.429L133.333,300L111.111,300L88.889,300L66.667,300L44.444,300L22.222,300L0,300Z" fill="#ff9da6"/></g></g><path class="foreground" aria-hidden="true" d="" display="none"/></g><g transform="translate(0,0)"><path class="background" aria-hidden="true" d="M0,0h800v300h-800Z"/><g><g class="mark-area role-mark marks" role="graphics-object" aria-roledescription="area mark container"><path aria-label="Date: Mar 16, 2026; Unique Visitors/day: 0; Repository: karlmdavis/justdavis-finances" role="graphics-symbol" aria-roledescription="area mark" d="M0,300L22.222,300L44.444,300L66.667,300L88.889,300L111.111,300L133.333,300L155.556,171.429L177.778,171.429L200,171.429L222.222,214.286L244.444,171.429L266.667,214.286L288.889,300L311.111,128.571L333.333,257.143L355.556,214.286L377.778,257.143L400,300L422.222,257.143L444.444,257.143L466.667,300L488.889,300L511.111,257.143L533.333,257.143L555.556,257.143L577.778,300L600,128.571L622.222,300L644.444,257.143L666.667,257.143L688.889,300L711.111,214.286L733.333,300L755.556,300L777.778,214.286L800,214.286L800,214.286L777.778,257.143L755.556,300L733.333,300L711.111,214.286L688.889,300L666.667,257.143L644.444,257.143L622.222,300L600,171.429L577.778,300L555.556,257.143L533.333,257.143L511.111,257.143L488.889,300L466.667,300L444.444,257.143L422.222,257.143L400,300L377.778,257.143L355.556,214.286L333.333,257.143L311.111,128.571L288.889,300L266.667,214.286L244.444,214.286L222.222,214.286L200,171.429L177.778,171.429L155.556,171.429L133.333,300L111.111,300L88.889,300L66.667,300L44.444,300L22.222,300L0,300Z" fill="#9d755d"/></g></g><path class="foreground" aria-hidden="true" d="" display="none"/></g><g transform="translate(0,0)"><path class="background" aria-hidden="true" d="M0,0h800v300h-800Z"/><g><g class="mark-area role-mark marks" role="graphics-object" aria-roledescription="area mark container"><path aria-label="Date: Mar 16, 2026; Unique Visitors/day: 0; Repository: karlmdavis/justdavis-karl" role="graphics-symbol" aria-roledescription="area mark" d="M0,300L22.222,300L44.444,300L66.667,300L88.889,300L111.111,300L133.333,300L155.556,171.429L177.778,171.429L200,171.429L222.222,214.286L244.444,214.286L266.667,214.286L288.889,300L311.111,128.571L333.333,257.143L355.556,214.286L377.778,257.143L400,300L422.222,257.143L444.444,257.143L466.667,300L488.889,300L511.111,257.143L533.333,257.143L555.556,257.143L577.778,300L600,171.429L622.222,300L644.444,257.143L666.667,257.143L688.889,300L711.111,214.286L733.333,300L755.556,300L777.778,257.143L800,214.286L800,214.286L777.778,257.143L755.556,300L733.333,300L711.111,214.286L688.889,300L666.667,257.143L644.444,257.143L622.222,300L600,171.429L577.778,300L555.556,257.143L533.333,257.143L511.111,257.143L488.889,300L466.667,300L444.444,257.143L422.222,257.143L400,300L377.778,257.143L355.556,214.286L333.333,257.143L311.111,128.571L288.889,300L266.667,214.286L244.444,214.286L222.222,214.286L200,171.429L177.778,171.429L155.556,171.429L133.333,300L111.111,300L88.889,300L66.667,300L44.444,300L22.222,300L0,300Z" fill="#bab0ac"/></g></g><path class="foreground" aria-hidden="true" d="" display="none"/></g><g transform="translate(0,0)"><path class="background" aria-hidden="true" d="M0,0h800v300h-800Z"/><g><g class="mark-area role-mark marks" role="graphics-object" aria-roledescription="area mark container"><path aria-label="Date: Mar 16, 2026; Unique Visitors/day: 0; Repository: karlmdavis/justdavis-puppet" role="graphics-symbol" aria-roledescription="area mark" d="M0,300L22.222,300L44.444,300L66.667,300L88.889,300L111.111,300L133.333,300L155.556,171.429L177.778,171.429L200,171.429L222.222,214.286L244.444,214.286L266.667,214.286L288.889,300L311.111,128.571L333.333,257.143L355.556,214.286L377.778,257.143L400,300L422.222,257.143L444.444,257.143L466.667,300L488.889,300L511.111,257.143L533.333,257.143L555.556,257.143L577.778,300L600,171.429L622.222,300L644.444,257.143L666.667,257.143L688.889,300L711.111,214.286L733.333,300L755.556,300L777.778,257.143L800,214.286L800,214.286L777.778,257.143L755.556,300L733.333,300L711.111,214.286L688.889,300L666.667,257.143L644.444,257.143L622.222,300L600,171.429L577.778,300L555.556,257.143L533.333,257.143L511.111,257.143L488.889,300L466.667,300L444.444,257.143L422.222,257.143L400,300L377.778,257.143L355.556,214.286L333.333,257.143L311.111,128.571L288.889,300L266.667,214.286L244.444,214.286L222.222,214.286L200,171.429L177.778,171.429L155.556,171.429L133.333,300L111.111,300L88.889,300L66.667,300L44.444,300L22.222,300L0,300Z" fill="#4c78a8"/></g></g><path class="foreground" aria-hidden="true" d="" display="none"/></g><g transform="translate(0,0)"><path class="background" aria-hidden="true" d="M0,0h800v300h-800Z"/><g><g class="mark-area role-mark marks" role="graphics-object" aria-roledescription="area mark container"><path aria-label="Date: Mar 16, 2026; Unique Visitors/day: 0; Repository: karlmdavis/kobjects" role="graphics-symbol" aria-roledescription="area mark" d="M0,300L22.222,300L44.444,300L66.667,300L88.889,300L111.111,300L133.333,300L155.556,171.429L177.778,171.429L200,171.429L222.222,214.286L244.444,214.286L266.667,214.286L288.889,300L311.111,128.571L333.333,257.143L355.556,214.286L377.778,257.143L400,300L422.222,257.143L444.444,257.143L466.667,300L488.889,300L511.111,257.143L533.333,257.143L555.556,257.143L577.778,300L600,171.429L622.222,300L644.444,257.143L666.667,257.143L688.889,300L711.111,214.286L733.333,300L755.556,300L777.778,257.143L800,214.286L800,214.286L777.778,257.143L755.556,300L733.333,300L711.111,214.286L688.889,300L666.667,257.143L644.444,257.143L622.222,300L600,171.429L577.778,300L555.556,257.143L533.333,257.143L511.111,257.143L488.889,300L466.667,300L444.444,257.143L422.222,257.143L400,300L377.778,257.143L355.556,214.286L333.333,257.143L311.111,128.571L288.889,300L266.667,214.286L244.444,214.286L222.222,214.286L200,171.429L177.778,171.429L155.556,171.429L133.333,300L111.111,300L88.889,300L66.667,300L44.444,300L22.222,300L0,300Z" fill="#f58518"/></g></g><path class="foreground" aria-hidden="true" d="" display="none"/></g><g transform="translate(0,0)"><path class="background" aria-hidden="true" d="M0,0h800v300h-800Z"/><g><g class="mark-area role-mark marks" role="graphics-object" aria-roledescription="area mark container"><path aria-label="Date: Mar 16, 2026; Unique Visitors/day: 0; Repository: karlmdavis/ksoap2-android" role="graphics-symbol" aria-roledescription="area mark" d="M0,300L22.222,300L44.444,300L66.667,300L88.889,300L111.111,300L133.333,300L155.556,171.429L177.778,171.429L200,171.429L222.222,214.286L244.444,214.286L266.667,214.286L288.889,300L311.111,128.571L333.333,257.143L355.556,214.286L377.778,257.143L400,300L422.222,257.143L444.444,257.143L466.667,300L488.889,300L511.111,257.143L533.333,257.143L555.556,257.143L577.778,300L600,171.429L622.222,300L644.444,257.143L666.667,257.143L688.889,300L711.111,214.286L733.333,300L755.556,300L777.778,257.143L800,214.286L800,257.143L777.778,257.143L755.556,300L733.333,300L711.111,300L688.889,300L666.667,300L644.444,300L622.222,300L600,214.286L577.778,300L555.556,300L533.333,257.143L511.111,300L488.889,300L466.667,300L444.444,300L422.222,300L400,300L377.778,300L355.556,257.143L333.333,257.143L311.111,214.286L288.889,300L266.667,214.286L244.444,257.143L222.222,214.286L200,214.286L177.778,257.143L155.556,257.143L133.333,300L111.111,300L88.889,300L66.667,300L44.444,300L22.222,300L0,300Z" fill="#e45756"/></g></g><path class="foreground" aria-hidden="true" d="" display="none"/></g><g transform="translate(0,0)"><path class="background" aria-hidden="true" d="M0,0h800v300h-800Z"/><g><g class="mark-area role-mark marks" role="graphics-object" aria-roledescription="area mark container"><path aria-label="Date: Mar 16, 2026; Unique Visitors/day: 0; Repository: karlmdavis/kxml2" role="graphics-symbol" aria-roledescription="area mark" d="M0,300L22.222,300L44.444,300L66.667,300L88.889,300L111.111,300L133.333,300L155.556,257.143L177.778,257.143L200,214.286L222.222,214.286L244.444,257.143L266.667,214.286L288.889,300L311.111,214.286L333.333,257.143L355.556,257.143L377.778,300L400,300L422.222,300L444.444,300L466.667,300L488.889,300L511.111,300L533.333,257.143L555.556,300L577.778,300L600,214.286L622.222,300L644.444,300L666.667,300L688.889,300L711.111,300L733.333,300L755.556,300L777.778,257.143L800,257.143L800,257.143L777.778,257.143L755.556,300L733.333,300L711.111,300L688.889,300L666.667,300L644.444,300L622.222,300L600,214.286L577.778,300L555.556,300L533.333,257.143L511.111,300L488.889,300L466.667,300L444.444,300L422.222,300L400,300L377.778,300L355.556,257.143L333.333,257.143L311.111,214.286L288.889,300L266.667,257.143L244.444,257.143L222.222,214.286L200,257.143L177.778,257.143L155.556,257.143L133.333,300L111.111,300L88.889,300L66.667,300L44.444,300L22.222,300L0,300Z" fill="#72b7b2"/></g></g><path class="foreground" aria-hidden="true" d="" display="none"/></g><g transform="translate(0,0)"><path class="background" aria-hidden="true" d="M0,0h800v300h-800Z"/><g><g class="mark-area role-mark marks" role="graphics-object" aria-roledescription="area mark container"><path aria-label="Date: Mar 16, 2026; Unique Visitors/day: 0; Repository: karlmdavis/ldap-plugin" role="graphics-symbol" aria-roledescription="area mark" d="M0,300L22.222,300L44.444,300L66.667,300L88.889,300L111.111,300L133.333,300L155.556,257.143L177.778,257.143L200,257.143L222.222,214.286L244.444,257.143L266.667,257.143L288.889,300L311.111,214.286L333.333,257.143L355.556,257.143L377.778,300L400,300L422.222,300L444.444,300L466.667,300L488.889,300L511.111,300L533.333,257.143L555.556,300L577.778,300L600,214.286L622.222,300L644.444,300L666.667,300L688.889,300L711.111,300L733.333,300L755.556,300L777.778,257.143L800,257.143L800,257.143L777.778,257.143L755.556,300L733.333,300L711.111,300L688.889,300L666.667,300L644.444,300L622.222,300L600,214.286L577.778,300L555.556,300L533.333,257.143L511.111,300L488.889,300L466.667,300L444.444,300L422.222,300L400,300L377.778,300L355.556,257.143L333.333,257.143L311.111,214.286L288.889,300L266.667,257.143L244.444,257.143L222.222,214.286L200,257.143L177.778,257.143L155.556,257.143L133.333,300L111.111,300L88.889,300L66.667,300L44.444,300L22.222,300L0,300Z" fill="#54a24b"/></g></g><path class="foreground" aria-hidden="true" d="" display="none"/></g><g transform="translate(0,0)"><path class="background" aria-hidden="true" d="M0,0h800v300h-800Z"/><g><g class="mark-area role-mark marks" role="graphics-object" aria-roledescription="area mark container"><path aria-label="Date: Mar 16, 2026; Unique Visitors/day: 0; Repository: karlmdavis/lego-ev3dev-rs" role="graphics-symbol" aria-roledescription="area mark" d="M0,300L22.222,300L44.444,300L66.667,300L88.889,300L111.111,300L133.333,300L155.556,257.143L177.778,257.143L200,257.143L222.222,214.286L244.444,257.143L266.667,257.143L288.889,300L311.111,214.286L333.333,257.143L355.556,257.143L377.778,300L400,300L422.222,300L444.444,300L466.667,300L488.889,300L511.111,300L533.333,257.143L555.556,300L577.778,300L600,214.286L622.222,300L644.444,300L666.667,300L688.889,300L711.111,300L733.333,300L755.556,300L777.778,257.143L800,257.143L800,257.143L777.778,257.143L755.556,300L733.333,300L711.111,300L688.889,300L666.667,300L644.444,300L622.222,300L600,214.286L577.778,300L555.556,300L533.333,257.143L511.111,300L488.889,300L466.667,300L444.444,300L422.222,300L400,300L377.778,300L355.556,257.143L333.333,257.143L311.111,214.286L288.889,300L266.667,257.143L244.444,257.143L222.222,214.286L200,257.143L177.778,257.143L155.556,257.143L133.333,300L111.111,300L88.889,300L66.667,300L44.444,300L22.222,300L0,300Z" fill="#eeca3b"/></g></g><path class="foreground" aria-hidden="true" d="" display="none"/></g><g transform="translate(0,0)"><path class="background" aria-hidden="true" d="M0,0h800v300h-800Z"/><g><g class="mark-area role-mark marks" role="graphics-object" aria-roledescription="area mark container"><path aria-label="Date: Mar 16, 2026; Unique Visitors/day: 0; Repository: karlmdavis/liquibase" role="graphics-symbol" aria-roledescription="area mark" d="M0,300L22.222,300L44.444,300L66.667,300L88.889,300L111.111,300L133.333,300L155.556,257.143L177.778,257.143L200,257.143L222.222,214.286L244.444,257.143L266.667,257.143L288.889,300L311.111,214.286L333.333,257.143L355.556,257.143L377.778,300L400,300L422.222,300L444.444,300L466.667,300L488.889,300L511.111,300L533.333,257.143L555.556,300L577.778,300L600,214.286L622.222,300L644.444,300L666.667,300L688.889,300L711.111,300L733.333,300L755.556,300L777.778,257.143L800,257.143L800,257.143L777.778,257.143L755.556,300L733.333,300L711.111,300L688.889,300L666.667,300L644.444,300L622.222,300L600,214.286L577.778,300L555.556,300L533.333,257.143L511.111,300L488.889,300L466.667,300L444.444,300L422.222,300L400,300L377.778,300L355.556,257.143L333.333,257.143L311.111,214.286L288.889,300L266.667,257.143L244.444,257.143L222.222,214.286L200,257.143L177.778,257.143L155.556,257.143L133.333,300L111.111,300L88.889,300L66.667,300L44.444,300L22.222,300L0,300Z" fill="#b279a2"/></g></g><path class="foreground" aria-hidden="true" d="" display="none"/></g><g transform="translate(0,0)"><path class="background" aria-hidden="true" d="M0,0h800v300h-800Z"/><g><g class="mark-area role-mark marks" role="graphics-object" aria-roledescription="area mark container"><path aria-label="Date: Mar 16, 2026; Unique Visitors/day: 0; Repository: karlmdavis/m2e-core" role="graphics-symbol" aria-roledescription="area mark" d="M0,300L22.222,300L44.444,300L66.667,300L88.889,300L111.111,300L133.333,300L155.556,257.143L177.778,257.143L200,257.143L222.222,214.286L244.444,257.143L266.667,257.143L288.889,300L311.111,214.286L333.333,257.143L355.556,257.143L377.778,300L400,300L422.222,300L444.444,300L466.667,300L488.889,300L511.111,300L533.333,257.143L555.556,300L577.778,300L600,214.286L622.222,300L644.444,300L666.667,300L688.889,300L711.111,300L733.333,300L755.556,300L777.778,257.143L800,257.143L800,257.143L777.778,257.143L755.556,300L733.333,300L711.111,300L688.889,300L666.667,300L644.444,300L622.222,300L600,214.286L577.778,300L555.556,300L533.333,257.143L511.111,300L488.889,300L466.667,300L444.444,300L422.222,300L400,300L377.778,300L355.556,257.143L333.333,257.143L311.111,214.286L288.889,300L266.667,257.143L244.444,257.143L222.222,214.286L200,257.143L177.778,257.143L155.556,257.143L133.333,300L111.111,300L88.889,300L66.667,300L44.444,300L22.222,300L0,300Z" fill="#ff9da6"/></g></g><path class="foreground" aria-hidden="true" d="" display="none"/></g><g transform="translate(0,0)"><path class="background" aria-hidden="true" d="M0,0h800v300h-800Z"/><g><g class="mark-area role-mark marks" role="graphics-object" aria-roledescription="area mark container"><path aria-label="Date: Mar 16, 2026; Unique Visitors/day: 0; Repository: karlmdavis/m2e-core-tests" role="graphics-symbol" aria-roledescription="area mark" d="M0,300L22.222,300L44.444,300L66.667,300L88.889,300L111.111,300L133.333,300L155.556,257.143L177.778,257.143L200,257.143L222.222,214.286L244.444,257.143L266.667,257.143L288.889,300L311.111,214.286L333.333,257.143L355.556,257.143L377.778,300L400,300L422.222,300L444.444,300L466.667,300L488.889,300L511.111,300L533.333,257.143L555.556,300L577.778,300L600,214.286L622.222,300L644.444,300L666.667,300L688.889,300L711.111,300L733.333,300L755.556,300L777.778,257.143L800,257.143L800,257.143L777.778,257.143L755.556,300L733.333,300L711.111,300L688.889,300L666.667,300L644.444,300L622.222,300L600,214.286L577.778,300L555.556,300L533.333,257.143L511.111,300L488.889,300L466.667,300L444.444,300L422.222,300L400,300L377.778,300L355.556,257.143L333.333,257.143L311.111,214.286L288.889,300L266.667,257.143L244.444,257.143L222.222,214.286L200,257.143L177.778,257.143L155.556,257.143L133.333,300L111.111,300L88.889,300L66.667,300L44.444,300L22.222,300L0,300Z" fill="#9d755d"/></g></g><path class="foreground" aria-hidden="true" d="" display="none"/></g><g transform="translate(0,0)"><path class="background" aria-hidden="true" d="M0,0h800v300h-800Z"/><g><g class="mark-area role-mark marks" role="graphics-object" aria-roledescription="area mark container"><path aria-label="Date: Mar 16, 2026; Unique Visitors/day: 0; Repository: karlmdavis/obsidian-operator" role="graphics-symbol" aria-roledescription="area mark" d="M0,300L22.222,300L44.444,300L66.667,300L88.889,300L111.111,300L133.333,300L155.556,257.143L177.778,257.143L200,257.143L222.222,214.286L244.444,257.143L266.667,257.143L288.889,300L311.111,214.286L333.333,257.143L355.556,257.143L377.778,300L400,300L422.222,300L444.444,300L466.667,300L488.889,300L511.111,300L533.333,257.143L555.556,300L577.778,300L600,214.286L622.222,300L644.444,300L666.667,300L688.889,300L711.111,300L733.333,300L755.556,300L777.778,257.143L800,257.143L800,257.143L777.778,257.143L755.556,300L733.333,300L711.111,300L688.889,300L666.667,300L644.444,300L622.222,300L600,257.143L577.778,300L555.556,300L533.333,257.143L511.111,300L488.889,300L466.667,300L444.444,300L422.222,300L400,300L377.778,300L355.556,257.143L333.333,257.143L311.111,214.286L288.889,300L266.667,257.143L244.444,257.143L222.222,214.286L200,257.143L177.778,257.143L155.556,257.143L133.333,300L111.111,300L88.889,300L66.667,300L44.444,300L22.222,300L0,300Z" fill="#bab0ac"/></g></g><path class="foreground" aria-hidden="true" d="" display="none"/></g><g transform="translate(0,0)"><path class="background" aria-hidden="true" d="M0,0h800v300h-800Z"/><g><g class="mark-area role-mark marks" role="graphics-object" aria-roledescription="area mark container"><path aria-label="Date: Mar 16, 2026; Unique Visitors/day: 0; Repository: karlmdavis/perfect-note" role="graphics-symbol" aria-roledescription="area mark" d="M0,300L22.222,300L44.444,300L66.667,300L88.889,300L111.111,300L133.333,300L155.556,257.143L177.778,257.143L200,257.143L222.222,214.286L244.444,257.143L266.667,257.143L288.889,300L311.111,214.286L333.333,257.143L355.556,257.143L377.778,300L400,300L422.222,300L444.444,300L466.667,300L488.889,300L511.111,300L533.333,257.143L555.556,300L577.778,300L600,257.143L622.222,300L644.444,300L666.667,300L688.889,300L711.111,300L733.333,300L755.556,300L777.778,257.143L800,257.143L800,257.143L777.778,257.143L755.556,300L733.333,300L711.111,300L688.889,300L666.667,300L644.444,300L622.222,300L600,257.143L577.778,300L555.556,300L533.333,257.143L511.111,300L488.889,300L466.667,300L444.444,300L422.222,300L400,300L377.778,300L355.556,257.143L333.333,257.143L311.111,214.286L288.889,300L266.667,257.143L244.444,257.143L222.222,214.286L200,257.143L177.778,257.143L155.556,257.143L133.333,300L111.111,300L88.889,300L66.667,300L44.444,300L22.222,300L0,300Z" fill="#4c78a8"/></g></g><path class="foreground" aria-hidden="true" d="" display="none"/></g><g transform="translate(0,0)"><path class="background" aria-hidden="true" d="M0,0h800v300h-800Z"/><g><g class="mark-area role-mark marks" role="graphics-object" aria-roledescription="area mark container"><path aria-label="Date: Mar 16, 2026; Unique Visitors/day: 0; Repository: karlmdavis/puppet-archive" role="graphics-symbol" aria-roledescription="area mark" d="M0,300L22.222,300L44.444,300L66.667,300L88.889,300L111.111,300L133.333,300L155.556,257.143L177.778,257.143L200,257.143L222.222,214.286L244.444,257.143L266.667,257.143L288.889,300L311.111,214.286L333.333,257.143L355.556,257.143L377.778,300L400,300L422.222,300L444.444,300L466.667,300L488.889,300L511.111,300L533.333,257.143L555.556,300L577.778,300L600,257.143L622.222,300L644.444,300L666.667,300L688.889,300L711.111,300L733.333,300L755.556,300L777.778,257.143L800,257.143L800,257.143L777.778,257.143L755.556,300L733.333,300L711.111,300L688.889,300L666.667,300L644.444,300L622.222,300L600,257.143L577.778,300L555.556,300L533.333,257.143L511.111,300L488.889,300L466.667,300L444.444,300L422.222,300L400,300L377.778,300L355.556,257.143L333.333,257.143L311.111,214.286L288.889,300L266.667,257.143L244.444,257.143L222.222,214.286L200,257.143L177.778,257.143L155.556,257.143L133.333,300L111.111,300L88.889,300L66.667,300L44.444,300L22.222,300L0,300Z" fill="#f58518"/></g></g><path class="foreground" aria-hidden="true" d="" display="none"/></g><g transform="translate(0,0)"><path class="background" aria-hidden="true" d="M0,0h800v300h-800Z"/><g><g class="mark-area role-mark marks" role="graphics-object" aria-roledescription="area mark container"><path aria-label="Date: Mar 16, 2026; Unique Visitors/day: 0; Repository: karlmdavis/puppet-sonar" role="graphics-symbol" aria-roledescription="area mark" d="M0,300L22.222,300L44.444,300L66.667,300L88.889,300L111.111,300L133.333,300L155.556,257.143L177.778,257.143L200,257.143L222.222,214.286L244.444,257.143L266.667,257.143L288.889,300L311.111,214.286L333.333,257.143L355.556,257.143L377.778,300L400,300L422.222,300L444.444,300L466.667,300L488.889,300L511.111,300L533.333,257.143L555.556,300L577.778,300L600,257.143L622.222,300L644.444,300L666.667,300L688.889,300L711.111,300L733.333,300L755.556,300L777.778,257.143L800,257.143L800,257.143L777.778,257.143L755.556,300L733.333,300L711.111,300L688.889,300L666.667,300L644.444,300L622.222,300L600,257.143L577.778,300L555.556,300L533.333,257.143L511.111,300L488.889,300L466.667,300L444.444,300L422.222,300L400,300L377.778,300L355.556,257.143L333.333,257.143L311.111,214.286L288.889,300L266.667,257.143L244.444,257.143L222.222,214.286L200,257.143L177.778,257.143L155.556,257.143L133.333,300L111.111,300L88.889,300L66.667,300L44.444,300L22.222,300L0,300Z" fill="#e45756"/></g></g><path class="foreground" aria-hidden="true" d="" display="none"/></g><g transform="translate(0,0)"><path class="background" aria-hidden="true" d="M0,0h800v300h-800Z"/><g><g class="mark-area role-mark marks" role="graphics-object" aria-roledescription="area mark container"><path aria-label="Date: Mar 16, 2026; Unique Visitors/day: 0; Repository: karlmdavis/rps-tourney" role="graphics-symbol" aria-roledescription="area mark" d="M0,300L22.222,300L44.444,300L66.667,300L88.889,300L111.111,300L133.333,300L155.556,257.143L177.778,257.143L200,257.143L222.222,214.286L244.444,257.143L266.667,257.143L288.889,300L311.111,214.286L333.333,257.143L355.556,257.143L377.778,300L400,300L422.222,300L444.444,300L466.667,300L488.889,300L511.111,300L533.333,257.143L555.556,300L577.778,300L600,257.143L622.222,300L644.444,300L666.667,300L688.889,300L711.111,300L733.333,300L755.556,300L777.778,257.143L800,257.143L800,300L777.778,257.143L755.556,300L733.333,300L711.111,300L688.889,300L666.667,300L644.444,300L622.222,300L600,300L577.778,300L555.556,300L533.333,257.143L511.111,300L488.889,300L466.667,300L444.444,300L422.222,300L400,300L377.778,300L355.556,300L333.333,257.143L311.111,214.286L288.889,300L266.667,257.143L244.444,300L222.222,214.286L200,257.143L177.778,300L155.556,300L133.333,300L111.111,300L88.889,300L66.667,300L44.444,300L22.222,300L0,300Z" fill="#72b7b2"/></g></g><path class="foreground" aria-hidden="true" d="" display="none"/></g><g transform="translate(0,0)"><path class="background" aria-hidden="true" d="M0,0h800v300h-800Z"/><g><g class="mark-area role-mark marks" role="graphics-object" aria-roledescription="area mark container"><path aria-label="Date: Mar 16, 2026; Unique Visitors/day: 0; Repository: karlmdavis/sample-maven-and-rcp" role="graphics-symbol" aria-roledescription="area mark" d="M0,300L22.222,300L44.444,300L66.667,300L88.889,300L111.111,300L133.333,300L155.556,300L177.778,300L200,257.143L222.222,214.286L244.444,300L266.667,257.143L288.889,300L311.111,214.286L333.333,257.143L355.556,300L377.778,300L400,300L422.222,300L444.444,300L466.667,300L488.889,300L511.111,300L533.333,257.143L555.556,300L577.778,300L600,300L622.222,300L644.444,300L666.667,300L688.889,300L711.111,300L733.333,300L755.556,300L777.778,257.143L800,300L800,300L777.778,257.143L755.556,300L733.333,300L711.111,300L688.889,300L666.667,300L644.444,300L622.222,300L600,300L577.778,300L555.556,300L533.333,257.143L511.111,300L488.889,300L466.667,300L444.444,300L422.222,300L400,300L377.778,300L355.556,300L333.333,257.143L311.111,214.286L288.889,300L266.667,257.143L244.444,300L222.222,214.286L200,257.143L177.778,300L155.556,300L133.333,300L111.111,300L88.889,300L66.667,300L44.444,300L22.222,300L0,300Z" fill="#54a24b"/></g></g><path class="foreground" aria-hidden="true" d="" display="none"/></g><g transform="translate(0,0)"><path class="background" aria-hidden="true" d="M0,0h800v300h-800Z"/><g><g class="mark-area role-mark marks" role="graphics-object" aria-roledescription="area mark container"><path aria-label="Date: Mar 16, 2026; Unique Visitors/day: 0; Repository: karlmdavis/stockfighter-trades-solutions" role="graphics-symbol" aria-roledescription="area mark" d="M0,300L22.222,300L44.444,300L66.667,300L88.889,300L111.111,300L133.333,300L155.556,300L177.778,300L200,257.143L222.222,214.286L244.444,300L266.667,257.143L288.889,300L311.111,214.286L333.333,257.143L355.556,300L377.778,300L400,300L422.222,300L444.444,300L466.667,300L488.889,300L511.111,300L533.333,257.143L555.556,300L577.778,300L600,300L622.222,300L644.444,300L666.667,300L688.889,300L711.111,300L733.333,300L755.556,300L777.778,257.143L800,300L800,300L777.778,257.143L755.556,300L733.333,300L711.111,300L688.889,300L666.667,300L644.444,300L622.222,300L600,300L577.778,300L555.556,300L533.333,257.143L511.111,300L488.889,300L466.667,300L444.444,300L422.222,300L400,300L377.778,300L355.556,300L333.333,257.143L311.111,214.286L288.889,300L266.667,257.143L244.444,300L222.222,214.286L200,257.143L177.778,300L155.556,300L133.333,300L111.111,300L88.889,300L66.667,300L44.444,300L22.222,300L0,300Z" fill="#eeca3b"/></g></g><path class="foreground" aria-hidden="true" d="" display="none"/></g><g transform="translate(0,0)"><path class="background" aria-hidden="true" d="M0,0h800v300h-800Z"/><g><g class="mark-area role-mark marks" role="graphics-object" aria-roledescription="area mark container"><path aria-label="Date: Mar 16, 2026; Unique Visitors/day: 0; Repository: karlmdavis/test-repo-for-move" role="graphics-symbol" aria-roledescription="area mark" d="M0,300L22.222,300L44.444,300L66.667,300L88.889,300L111.111,300L133.333,300L155.556,300L177.778,300L200,257.143L222.222,214.286L244.444,300L266.667,257.143L288.889,300L311.111,214.286L333.333,257.143L355.556,300L377.778,300L400,300L422.222,300L444.444,300L466.667,300L488.889,300L511.111,300L533.333,257.143L555.556,300L577.778,300L600,300L622.222,300L644.444,300L666.667,300L688.889,300L711.111,300L733.333,300L755.556,300L777.778,257.143L800,300L800,300L777.778,257.143L755.556,300L733.333,300L711.111,300L688.889,300L666.667,300L644.444,300L622.222,300L600,300L577.778,300L555.556,300L533.333,257.143L511.111,300L488.889,300L466.667,300L444.444,300L422.222,300L400,300L377.778,300L355.556,300L333.333,257.143L311.111,214.286L288.889,300L266.667,257.143L244.444,300L222.222,214.286L200,257.143L177.778,300L155.556,300L133.333,300L111.111,300L88.889,300L66.667,300L44.444,300L22.222,300L0,300Z" fill="#b279a2"/></g></g><path class="foreground" aria-hidden="true" d="" display="none"/></g><g transform="translate(0,0)"><path class="background" aria-hidden="true" d="M0,0h800v300h-800Z"/><g><g class="mark-area role-mark marks" role="graphics-object" aria-roledescription="area mark container"><path aria-label="Date: Mar 16, 2026; Unique Visitors/day: 0; Repository: karlmdavis/todoist-ai" role="graphics-symbol" aria-roledescription="area mark" d="M0,300L22.222,300L44.444,300L66.667,300L88.889,300L111.111,300L133.333,300L155.556,300L177.778,300L200,257.143L222.222,214.286L244.444,300L266.667,257.143L288.889,300L311.111,214.286L333.333,257.143L355.556,300L377.778,300L400,300L422.222,300L444.444,300L466.667,300L488.889,300L511.111,300L533.333,257.143L555.556,300L577.778,300L600,300L622.222,300L644.444,300L666.667,300L688.889,300L711.111,300L733.333,300L755.556,300L777.778,257.143L800,300L800,300L777.778,300L755.556,300L733.333,300L711.111,300L688.889,300L666.667,300L644.444,300L622.222,300L600,300L577.778,300L555.556,300L533.333,257.143L511.111,300L488.889,300L466.667,300L444.444,300L422.222,300L400,300L377.778,300L355.556,300L333.333,257.143L311.111,257.143L288.889,300L266.667,257.143L244.444,300L222.222,214.286L200,257.143L177.778,300L155.556,300L133.333,300L111.111,300L88.889,300L66.667,300L44.444,300L22.222,300L0,300Z" fill="#ff9da6"/></g></g><path class="foreground" aria-hidden="true" d="" display="none"/></g><g transform="translate(0,0)"><path class="background" aria-hidden="true" d="M0,0h800v300h-800Z"/><g><g class="mark-area role-mark marks" role="graphics-object" aria-roledescription="area mark container"><path aria-label="Date: Mar 16, 2026; Unique Visitors/day: 0; Repository: karlmdavis/usgs-water-api-java" role="graphics-symbol" aria-roledescription="area mark" d="M0,300L22.222,300L44.444,300L66.667,300L88.889,300L111.111,300L133.333,300L155.556,300L177.778,300L200,257.143L222.222,214.286L244.444,300L266.667,257.143L288.889,300L311.111,257.143L333.333,257.143L355.556,300L377.778,300L400,300L422.222,300L444.444,300L466.667,300L488.889,300L511.111,300L533.333,257.143L555.556,300L577.778,300L600,300L622.222,300L644.444,300L666.667,300L688.889,300L711.111,300L733.333,300L755.556,300L777.778,300L800,300L800,300L777.778,300L755.556,300L733.333,300L711.111,300L688.889,300L666.667,300L644.444,300L622.222,300L600,300L577.778,300L555.556,300L533.333,257.143L511.111,300L488.889,300L466.667,300L444.444,300L422.222,300L400,300L377.778,300L355.556,300L333.333,257.143L311.111,257.143L288.889,300L266.667,257.143L244.444,300L222.222,214.286L200,257.143L177.778,300L155.556,300L133.333,300L111.111,300L88.889,300L66.667,300L44.444,300L22.222,300L0,300Z" fill="#9d755d"/></g></g><path class="foreground" aria-hidden="true" d="" display="none"/></g><g transform="translate(0,0)"><path class="background" aria-hidden="true" d="M0,0h800v300h-800Z"/><g><g class="mark-area role-mark marks" role="graphics-object" aria-roledescription="area mark container"><path aria-label="Date: Mar 16, 2026; Unique Visitors/day: 0; Repository: karlmdavis/workstation-base-ansible-role" role="graphics-symbol" aria-roledescription="area mark" d="M0,300L22.222,300L44.444,300L66.667,300L88.889,300L111.111,300L133.333,300L155.556,300L177.778,300L200,257.143L222.222,214.286L244.444,300L266.667,257.143L288.889,300L311.111,257.143L333.333,257.143L355.556,300L377.778,300L400,300L422.222,300L444.444,300L466.667,300L488.889,300L511.111,300L533.333,257.143L555.556,300L577.778,300L600,300L622.222,300L644.444,300L666.667,300L688.889,300L711.111,300L733.333,300L755.556,300L777.778,300L800,300L800,300L777.778,300L755.556,300L733.333,300L711.111,300L688.889,300L666.667,300L644.444,300L622.222,300L600,300L577.778,300L555.556,300L533.333,257.143L511.111,300L488.889,300L466.667,300L444.444,300L422.222,300L400,300L377.778,300L355.556,300L333.333,257.143L311.111,257.143L288.889,300L266.667,257.143L244.444,300L222.222,214.286L200,257.143L177.778,300L155.556,300L133.333,300L111.111,300L88.889,300L66.667,300L44.444,300L22.222,300L0,300Z" fill="#bab0ac"/></g></g><path class="foreground" aria-hidden="true" d="" display="none"/></g><g transform="translate(0,0)"><path class="background" aria-hidden="true" d="M0,0h800v300h-800Z"/><g><g class="mark-area role-mark marks" role="graphics-object" aria-roledescription="area mark container"><path aria-label="Date: Mar 16, 2026; Unique Visitors/day: 0; Repository: karlmdavis/xmlpull" role="graphics-symbol" aria-roledescription="area mark" d="M0,300L22.222,300L44.444,300L66.667,300L88.889,300L111.111,300L133.333,300L155.556,300L177.778,300L200,257.143L222.222,214.286L244.444,300L266.667,257.143L288.889,300L311.111,257.143L333.333,257.143L355.556,300L377.778,300L400,300L422.222,300L444.444,300L466.667,300L488.889,300L511.111,300L533.333,257.143L555.556,300L577.778,300L600,300L622.222,300L644.444,300L666.667,300L688.889,300L711.111,300L733.333,300L755.556,300L777.778,300L800,300L800,300L777.778,300L755.556,300L733.333,300L711.111,300L688.889,300L666.667,300L644.444,300L622.222,300L600,300L577.778,300L555.556,300L533.333,300L511.111,300L488.889,300L466.667,300L444.444,300L422.222,300L400,300L377.778,300L355.556,300L333.333,300L311.111,300L288.889,300L266.667,300L244.444,300L222.222,300L200,300L177.778,300L155.556,300L133.333,300L111.111,300L88.889,300L66.667,300L44.444,300L22.222,300L0,300Z" fill="#4c78a8"/></g></g><path class="foreground" aria-hidden="true" d="" display="none"/></g></g><g class="mark-group role-legend" role="graphics-symbol" aria-roledescription="legend" aria-label="Symbol legend titled 'Repository' for fill color with 41 values: karlmdavis/FHIR-Server, karlmdavis/ansible, karlmdavis/ansible-jenkins, karlmdavis/ansible-role-acmetool, karlmdavis/ansible-role-bind-dns, ending with karlmdavis/xmlpull"><g transform="translate(818,0)"><path class="background" aria-hidden="true" d="M0,0h176v404h-176Z" pointer-events="none"/><g><g class="mark-group role-legend-entry"><g transform="translate(0,16)"><path class="background" aria-hidden="true" d="M0,0h0v0h0Z" pointer-events="none"/><g><g class="mark-group role-scope" role="graphics-object" aria-roledescription="group mark container"><g transform="translate(0,0)"><path class="background" aria-hidden="true" d="M0,0h176v11h-176Z" pointer-events="none" opacity="1"/><g><g class="mark-symbol role-legend-symbol" pointer-events="none"><path transform="translate(6,6)" d="M5,0A5,5,0,1,1,-5,0A5,5,0,1,1,5,0" fill="#4c78a8" stroke-width="1.5" opacity="1"/></g><g class="mark-text role-legend-label" pointer-events="none"><text text-anchor="start" transform="translate(16,9)" font-family="sans-serif" font-size="10px" fill="#000" opacity="1">karlmdavis/FHIR-Server</text></g></g><path class="foreground" aria-hidden="true" d="" pointer-events="none" display="none"/></g><g transform="translate(0,13)"><path class="background" aria-hidden="true" d="M0,0h176v11h-176Z" pointer-events="none" opacity="1"/><g><g class="mark-symbol role-legend-symbol" pointer-events="none"><path transform="translate(6,6)" d="M5,0A5,5,0,1,1,-5,0A5,5,0,1,1,5,0" fill="#f58518" stroke-width="1.5" opacity="1"/></g><g class="mark-text role-legend-label" pointer-events="none"><text text-anchor="start" transform="translate(16,9)" font-family="sans-serif" font-size="10px" fill="#000" opacity="1">karlmdavis/ansible</text></g></g><path class="foreground" aria-hidden="true" d="" pointer-events="none" display="none"/></g><g transform="translate(0,26)"><path class="background" aria-hidden="true" d="M0,0h176v11h-176Z" pointer-events="none" opacity="1"/><g><g class="mark-symbol role-legend-symbol" pointer-events="none"><path transform="translate(6,6)" d="M5,0A5,5,0,1,1,-5,0A5,5,0,1,1,5,0" fill="#e45756" stroke-width="1.5" opacity="1"/></g><g class="mark-text role-legend-label" pointer-events="none"><text text-anchor="start" transform="translate(16,9)" font-family="sans-serif" font-size="10px" fill="#000" opacity="1">karlmdavis/ansible-jenkins</text></g></g><path class="foreground" aria-hidden="true" d="" pointer-events="none" display="none"/></g><g transform="translate(0,39)"><path class="background" aria-hidden="true" d="M0,0h176v11h-176Z" pointer-events="none" opacity="1"/><g><g class="mark-symbol role-legend-symbol" pointer-events="none"><path transform="translate(6,6)" d="M5,0A5,5,0,1,1,-5,0A5,5,0,1,1,5,0" fill="#72b7b2" stroke-width="1.5" opacity="1"/></g><g class="mark-text role-legend-label" pointer-events="none"><text text-anchor="start" transform="translate(16,9)" font-family="sans-serif" font-size="10px" fill="#000" opacity="1">karlmdavis/ansible-role-acmetool</text></g></g><path class="foreground" aria-hidden="true" d="" pointer-events="none" display="none"/></g><g transform="translate(0,52)"><path class="background" aria-hidden="true" d="M0,0h176v11h-176Z" pointer-events="none" opacity="1"/><g><g class="mark-symbol role-legend-symbol" pointer-events="none"><path transform="translate(6,6)" d="M5,0A5,5,0,1,1,-5,0A5,5,0,1,1,5,0" fill="#54a24b" stroke-width="1.5" opacity="1"/></g><g class="mark-text role-legend-label" pointer-events="none"><text text-anchor="start" transform="translate(16,9)" font-family="sans-serif" font-size="10px" fill="#000" opacity="1">karlmdavis/ansible-role-bind-dns</text></g></g><path class="foreground" aria-hidden="true" d="" pointer-events="none" display="none"/></g><g transform="translate(0,65)"><path class="background" aria-hidden="true" d="M0,0h176v11h-176Z" pointer-events="none" opacity="1"/><g><g class="mark-symbol role-legend-symbol" pointer-events="none"><path transform="translate(6,6)" d="M5,0A5,5,0,1,1,-5,0A5,5,0,1,1,5,0" fill="#eeca3b" stroke-width="1.5" opacity="1"/></g><g class="mark-text role-legend-label" pointer-events="none"><text text-anchor="start" transform="translate(16,9)" font-family="sans-serif" font-size="10px" fill="#000" opacity="1">karlmdavis/ansible-role-jenkins2</text></g></g><path class="foreground" aria-hidden="true" d="" pointer-events="none" display="none"/></g><g transform="translate(0,78)"><path class="background" aria-hidden="true" d="M0,0h176v11h-176Z" pointer-events="none" opacity="1"/><g><g class="mark-symbol role-legend-symbol" pointer-events="none"><path transform="translate(6,6)" d="M5,0A5,5,0,1,1,-5,0A5,5,0,1,1,5,0" fill="#b279a2" stroke-width="1.5" opacity="1"/></g><g class="mark-text role-legend-label" pointer-events="none"><text text-anchor="start" transform="translate(16,9)" font-family="sans-serif" font-size="10px" fill="#000" opacity="1">karlmdavis/ansible-role-ldap</text></g></g><path class="foreground" aria-hidden="true" d="" pointer-events="none" display="none"/></g><g transform="translate(0,91)"><path class="background" aria-hidden="true" d="M0,0h176v11h-176Z" pointer-events="none" opacity="1"/><g><g class="mark-symbol role-legend-symbol" pointer-events="none"><path transform="translate(6,6)" d="M5,0A5,5,0,1,1,-5,0A5,5,0,1,1,5,0" fill="#ff9da6" stroke-width="1.5" opacity="1"/></g><g class="mark-text role-legend-label" pointer-events="none"><text text-anchor="start" transform="translate(16,9)" font-family="sans-serif" font-size="10px" fill="#000" opacity="1">karlmdavis/ansible-role-rcm-dotfiles</text></g></g><path class="foreground" aria-hidden="true" d="" pointer-events="none" display="none"/></g><g transform="translate(0,104)"><path class="background" aria-hidden="true" d="M0,0h176v11h-176Z" pointer-events="none" opacity="1"/><g><g class="mark-symbol role-legend-symbol" pointer-events="none"><path transform="translate(6,6)" d="M5,0A5,5,0,1,1,-5,0A5,5,0,1,1,5,0" fill="#9d755d" stroke-width="1.5" opacity="1"/></g><g class="mark-text role-legend-label" pointer-events="none"><text text-anchor="start" transform="translate(16,9)" font-family="sans-serif" font-size="10px" fill="#000" opacity="1">karlmdavis/ansible-roles</text></g></g><path class="foreground" aria-hidden="true" d="" pointer-events="none" display="none"/></g><g transform="translate(0,117)"><path class="background" aria-hidden="true" d="M0,0h176v11h-176Z" pointer-events="none" opacity="1"/><g><g class="mark-symbol role-legend-symbol" pointer-events="none"><path transform="translate(6,6)" d="M5,0A5,5,0,1,1,-5,0A5,5,0,1,1,5,0" fill="#bab0ac" stroke-width="1.5" opacity="1"/></g><g class="mark-text role-legend-label" pointer-events="none"><text text-anchor="start" transform="translate(16,9)" font-family="sans-serif" font-size="10px" fill="#000" opacity="1">karlmdavis/bbonfhir-dev-infra-doc…</text></g></g><path class="foreground" aria-hidden="true" d="" pointer-events="none" display="none"/></g><g transform="translate(0,130)"><path class="background" aria-hidden="true" d="M0,0h176v11h-176Z" pointer-events="none" opacity="1"/><g><g class="mark-symbol role-legend-symbol" pointer-events="none"><path transform="translate(6,6)" d="M5,0A5,5,0,1,1,-5,0A5,5,0,1,1,5,0" fill="#4c78a8" stroke-width="1.5" opacity="1"/></g><g class="mark-text role-legend-label" pointer-events="none"><text text-anchor="start" transform="translate(16,9)" font-family="sans-serif" font-size="10px" fill="#000" opacity="1">karlmdavis/can-i-kayak-baltimore</text></g></g><path class="foreground" aria-hidden="true" d="" pointer-events="none" display="none"/></g><g transform="translate(0,143)"><path class="background" aria-hidden="true" d="M0,0h176v11h-176Z" pointer-events="none" opacity="1"/><g><g class="mark-symbol role-legend-symbol" pointer-events="none"><path transform="translate(6,6)" d="M5,0A5,5,0,1,1,-5,0A5,5,0,1,1,5,0" fill="#f58518" stroke-width="1.5" opacity="1"/></g><g class="mark-text role-legend-label" pointer-events="none"><text text-anchor="start" transform="translate(16,9)" font-family="sans-serif" font-size="10px" fill="#000" opacity="1">karlmdavis/datanucleus-test-jdo-1…</text></g></g><path class="foreground" aria-hidden="true" d="" pointer-events="none" display="none"/></g><g transform="translate(0,156)"><path class="background" aria-hidden="true" d="M0,0h176v11h-176Z" pointer-events="none" opacity="1"/><g><g class="mark-symbol role-legend-symbol" pointer-events="none"><path transform="translate(6,6)" d="M5,0A5,5,0,1,1,-5,0A5,5,0,1,1,5,0" fill="#e45756" stroke-width="1.5" opacity="1"/></g><g class="mark-text role-legend-label" pointer-events="none"><text text-anchor="start" transform="translate(16,9)" font-family="sans-serif" font-size="10px" fill="#000" opacity="1">karlmdavis/dotfiles</text></g></g><path class="foreground" aria-hidden="true" d="" pointer-events="none" display="none"/></g><g transform="translate(0,169)"><path class="background" aria-hidden="true" d="M0,0h176v11h-176Z" pointer-events="none" opacity="1"/><g><g class="mark-symbol role-legend-symbol" pointer-events="none"><path transform="translate(6,6)" d="M5,0A5,5,0,1,1,-5,0A5,5,0,1,1,5,0" fill="#72b7b2" stroke-width="1.5" opacity="1"/></g><g class="mark-text role-legend-label" pointer-events="none"><text text-anchor="start" transform="translate(16,9)" font-family="sans-serif" font-size="10px" fill="#000" opacity="1">karlmdavis/fhir-benchmarks</text></g></g><path class="foreground" aria-hidden="true" d="" pointer-events="none" display="none"/></g><g transform="translate(0,182)"><path class="background" aria-hidden="true" d="M0,0h176v11h-176Z" pointer-events="none" opacity="1"/><g><g class="mark-symbol role-legend-symbol" pointer-events="none"><path transform="translate(6,6)" d="M5,0A5,5,0,1,1,-5,0A5,5,0,1,1,5,0" fill="#54a24b" stroke-width="1.5" opacity="1"/></g><g class="mark-text role-legend-label" pointer-events="none"><text text-anchor="start" transform="translate(16,9)" font-family="sans-serif" font-size="10px" fill="#000" opacity="1">karlmdavis/hapi-fhir-jpaserver-sta…</text></g></g><path class="foreground" aria-hidden="true" d="" pointer-events="none" display="none"/></g><g transform="translate(0,195)"><path class="background" aria-hidden="true" d="M0,0h176v11h-176Z" pointer-events="none" opacity="1"/><g><g class="mark-symbol role-legend-symbol" pointer-events="none"><path transform="translate(6,6)" d="M5,0A5,5,0,1,1,-5,0A5,5,0,1,1,5,0" fill="#eeca3b" stroke-width="1.5" opacity="1"/></g><g class="mark-text role-legend-label" pointer-events="none"><text text-anchor="start" transform="translate(16,9)" font-family="sans-serif" font-size="10px" fill="#000" opacity="1">karlmdavis/hello-rust-actix</text></g></g><path class="foreground" aria-hidden="true" d="" pointer-events="none" display="none"/></g><g transform="translate(0,208)"><path class="background" aria-hidden="true" d="M0,0h176v11h-176Z" pointer-events="none" opacity="1"/><g><g class="mark-symbol role-legend-symbol" pointer-events="none"><path transform="translate(6,6)" d="M5,0A5,5,0,1,1,-5,0A5,5,0,1,1,5,0" fill="#b279a2" stroke-width="1.5" opacity="1"/></g><g class="mark-text role-legend-label" pointer-events="none"><text text-anchor="start" transform="translate(16,9)" font-family="sans-serif" font-size="10px" fill="#000" opacity="1">karlmdavis/jessentials</text></g></g><path class="foreground" aria-hidden="true" d="" pointer-events="none" display="none"/></g><g transform="translate(0,221)"><path class="background" aria-hidden="true" d="M0,0h176v11h-176Z" pointer-events="none" opacity="1"/><g><g class="mark-symbol role-legend-symbol" pointer-events="none"><path transform="translate(6,6)" d="M5,0A5,5,0,1,1,-5,0A5,5,0,1,1,5,0" fill="#ff9da6" stroke-width="1.5" opacity="1"/></g><g class="mark-text role-legend-label" pointer-events="none"><text text-anchor="start" transform="translate(16,9)" font-family="sans-serif" font-size="10px" fill="#000" opacity="1">karlmdavis/justdavis-ansible</text></g></g><path class="foreground" aria-hidden="true" d="" pointer-events="none" display="none"/></g><g transform="translate(0,234)"><path class="background" aria-hidden="true" d="M0,0h176v11h-176Z" pointer-events="none" opacity="1"/><g><g class="mark-symbol role-legend-symbol" pointer-events="none"><path transform="translate(6,6)" d="M5,0A5,5,0,1,1,-5,0A5,5,0,1,1,5,0" fill="#9d755d" stroke-width="1.5" opacity="1"/></g><g class="mark-text role-legend-label" pointer-events="none"><text text-anchor="start" transform="translate(16,9)" font-family="sans-serif" font-size="10px" fill="#000" opacity="1">karlmdavis/justdavis-finances</text></g></g><path class="foreground" aria-hidden="true" d="" pointer-events="none" display="none"/></g><g transform="translate(0,247)"><path class="background" aria-hidden="true" d="M0,0h176v11h-176Z" pointer-events="none" opacity="1"/><g><g class="mark-symbol role-legend-symbol" pointer-events="none"><path transform="translate(6,6)" d="M5,0A5,5,0,1,1,-5,0A5,5,0,1,1,5,0" fill="#bab0ac" stroke-width="1.5" opacity="1"/></g><g class="mark-text role-legend-label" pointer-events="none"><text text-anchor="start" transform="translate(16,9)" font-family="sans-serif" font-size="10px" fill="#000" opacity="1">karlmdavis/justdavis-karl</text></g></g><path class="foreground" aria-hidden="true" d="" pointer-events="none" display="none"/></g><g transform="translate(0,260)"><path class="background" aria-hidden="true" d="M0,0h176v11h-176Z" pointer-events="none" opacity="1"/><g><g class="mark-symbol role-legend-symbol" pointer-events="none"><path transform="translate(6,6)" d="M5,0A5,5,0,1,1,-5,0A5,5,0,1,1,5,0" fill="#4c78a8" stroke-width="1.5" opacity="1"/></g><g class="mark-text role-legend-label" pointer-events="none"><text text-anchor="start" transform="translate(16,9)" font-family="sans-serif" font-size="10px" fill="#000" opacity="1">karlmdavis/justdavis-puppet</text></g></g><path class="foreground" aria-hidden="true" d="" pointer-events="none" display="none"/></g><g transform="translate(0,273)"><path class="background" aria-hidden="true" d="M0,0h176v11h-176Z" pointer-events="none" opacity="1"/><g><g class="mark-symbol role-legend-symbol" pointer-events="none"><path transform="translate(6,6)" d="M5,0A5,5,0,1,1,-5,0A5,5,0,1,1,5,0" fill="#f58518" stroke-width="1.5" opacity="1"/></g><g class="mark-text role-legend-label" pointer-events="none"><text text-anchor="start" transform="translate(16,9)" font-family="sans-serif" font-size="10px" fill="#000" opacity="1">karlmdavis/kobjects</text></g></g><path class="foreground" aria-hidden="true" d="" pointer-events="none" display="none"/></g><g transform="translate(0,286)"><path class="background" aria-hidden="true" d="M0,0h176v11h-176Z" pointer-events="none" opacity="1"/><g><g class="mark-symbol role-legend-symbol" pointer-events="none"><path transform="translate(6,6)" d="M5,0A5,5,0,1,1,-5,0A5,5,0,1,1,5,0" fill="#e45756" stroke-width="1.5" opacity="1"/></g><g class="mark-text role-legend-label" pointer-events="none"><text text-anchor="start" transform="translate(16,9)" font-family="sans-serif" font-size="10px" fill="#000" opacity="1">karlmdavis/ksoap2-android</text></g></g><path class="foreground" aria-hidden="true" d="" pointer-events="none" display="none"/></g><g transform="translate(0,299)"><path class="background" aria-hidden="true" d="M0,0h176v11h-176Z" pointer-events="none" opacity="1"/><g><g class="mark-symbol role-legend-symbol" pointer-events="none"><path transform="translate(6,6)" d="M5,0A5,5,0,1,1,-5,0A5,5,0,1,1,5,0" fill="#72b7b2" stroke-width="1.5" opacity="1"/></g><g class="mark-text role-legend-label" pointer-events="none"><text text-anchor="start" transform="translate(16,9)" font-family="sans-serif" font-size="10px" fill="#000" opacity="1">karlmdavis/kxml2</text></g></g><path class="foreground" aria-hidden="true" d="" pointer-events="none" display="none"/></g><g transform="translate(0,312)"><path class="background" aria-hidden="true" d="M0,0h176v11h-176Z" pointer-events="none" opacity="1"/><g><g class="mark-symbol role-legend-symbol" pointer-events="none"><path transform="translate(6,6)" d="M5,0A5,5,0,1,1,-5,0A5,5,0,1,1,5,0" fill="#54a24b" stroke-width="1.5" opacity="1"/></g><g class="mark-text role-legend-label" pointer-events="none"><text text-anchor="start" transform="translate(16,9)" font-family="sans-serif" font-size="10px" fill="#000" opacity="1">karlmdavis/ldap-plugin</text></g></g><path class="foreground" aria-hidden="true" d="" pointer-events="none" display="none"/></g><g transform="translate(0,325)"><path class="background" aria-hidden="true" d="M0,0h176v11h-176Z" pointer-events="none" opacity="1"/><g><g class="mark-symbol role-legend-symbol" pointer-events="none"><path transform="translate(6,6)" d="M5,0A5,5,0,1,1,-5,0A5,5,0,1,1,5,0" fill="#eeca3b" stroke-width="1.5" opacity="1"/></g><g class="mark-text role-legend-label" pointer-events="none"><text text-anchor="start" transform="translate(16,9)" font-family="sans-serif" font-size="10px" fill="#000" opacity="1">karlmdavis/lego-ev3dev-rs</text></g></g><path class="foreground" aria-hidden="true" d="" pointer-events="none" display="none"/></g><g transform="translate(0,338)"><path class="background" aria-hidden="true" d="M0,0h176v11h-176Z" pointer-events="none" opacity="1"/><g><g class="mark-symbol role-legend-symbol" pointer-events="none"><path transform="translate(6,6)" d="M5,0A5,5,0,1,1,-5,0A5,5,0,1,1,5,0" fill="#b279a2" stroke-width="1.5" opacity="1"/></g><g class="mark-text role-legend-label" pointer-events="none"><text text-anchor="start" transform="translate(16,9)" font-family="sans-serif" font-size="10px" fill="#000" opacity="1">karlmdavis/liquibase</text></g></g><path class="foreground" aria-hidden="true" d="" pointer-events="none" display="none"/></g><g transform="translate(0,351)"><path class="background" aria-hidden="true" d="M0,0h176v11h-176Z" pointer-events="none" opacity="1"/><g><g class="mark-symbol role-legend-symbol" pointer-events="none"><path transform="translate(6,6)" d="M5,0A5,5,0,1,1,-5,0A5,5,0,1,1,5,0" fill="#ff9da6" stroke-width="1.5" opacity="1"/></g><g class="mark-text role-legend-label" pointer-events="none"><text text-anchor="start" transform="translate(16,9)" font-family="sans-serif" font-size="10px" fill="#000" opacity="1">karlmdavis/m2e-core</text></g></g><path class="foreground" aria-hidden="true" d="" pointer-events="none" display="none"/></g><g transform="translate(0,364)"><path class="background" aria-hidden="true" d="M0,0h176v11h-176Z" pointer-events="none" opacity="1"/><g><g class="mark-symbol role-legend-symbol" pointer-events="none"><path transform="translate(6,6)" d="M5,0A5,5,0,1,1,-5,0A5,5,0,1,1,5,0" fill="#9d755d" stroke-width="1.5" opacity="1"/></g><g class="mark-text role-legend-label" pointer-events="none"><text text-anchor="start" transform="translate(16,9)" font-family="sans-serif" font-size="10px" fill="#000" opacity="1">karlmdavis/m2e-core-tests</text></g></g><path class="foreground" aria-hidden="true" d="" pointer-events="none" display="none"/></g><g transform="translate(0,377)"><path class="background" aria-hidden="true" d="M0,0h176v11h-176Z" pointer-events="none" opacity="1"/><g><g class="mark-symbol role-legend-symbol" pointer-events="none"><path transform="translate(6,6)" d="M5,0A5,5,0,1,1,-5,0A5,5,0,1,1,5,0" fill="#bab0ac" stroke-width="1.5" opacity="1"/></g><g class="mark-text role-legend-label" pointer-events="none"><text text-anchor="start" transform="translate(16,9)" font-family="sans-serif" font-size="10px" fill="#000" opacity="1">…12 entries</text></g></g><path class="foreground" aria-hidden="true" d="" pointer-events="none" display="none"/></g></g></g><path class="foreground" aria-hidden="true" d="" pointer-events="none" display="none"/></g></g><g class="mark-text role-legend-title" pointer-events="none"><text text-anchor="start" transform="translate(0,9)" font-family="sans-serif" font-size="11px" font-weight="bold" fill="#000" opacity="1">Repository</text></g></g><path class="foreground" aria-hidden="true" d="" pointer-events="none" display="none"/></g></g><g class="mark-group role-title"><g transform="translate(400,-22)"><path class="background" aria-hidden="true" d="M0,0h0v0h0Z" pointer-events="none"/><g><g class="mark-text role-title-text" role="graphics-symbol" aria-roledescription="title" aria-label="Title text 'Unique Visitors per Day'" pointer-events="none"><text text-anchor="middle" transform="translate(0,10)" font-family="sans-serif" font-size="13px" font-weight="bold" fill="#000" opacity="1">Unique Visitors per Day</text></g></g><path class="foreground" aria-hidden="true" d="" pointer-events="none" display="none"/></g></g></g><path class="foreground" aria-hidden="true" d="" display="none"/></g></g></g></svg>