<svg xmlns="http://www.w3.org/2000/svg" xmlns:xlink="http://www.w3.org/1999/xlink" version="1.1" class="marks" width="1043" height="436" viewBox="0 0 1043 436"><rect width="1043" height="436" fill="white"/><g fill="none" stroke-miterlimit="10" transform="translate(44,27)"><g class="mark-group role-frame root" role="graphics-object" aria-roledescription="group mark container"><g transform="translate(0,0)"><path class="background" aria-hidden="true" d="M0.5,0.5h800v300h-800Z" stroke="#ddd"/><g><g class="mark-group role-axis" aria-hidden="true"><g transform="translate(0.5,300.5)"><path class="background" aria-hidden="true" d="M0,0h0v0h0Z" pointer-events="none"/><g><g class="mark-rule role-axis-grid" pointer-events="none"><line transform="translate(21,-300)" x2="0" y2="300" stroke="#ddd" stroke-width="1" opacity="1"/><line transform="translate(63,-300)" x2="0" y2="300" stroke="#ddd" stroke-width="1" opacity="1"/><line transform="translate(105,-300)" x2="0" y2="300" stroke="#ddd" stroke-width="1" opacity="1"/><line transform="translate(147,-300)" x2="0" y2="300" stroke="#ddd" stroke-width="1" opacity="1"/><line transform="translate(189,-300)" x2="0" y2="300" stroke="#ddd" stroke-width="1" opacity="1"/><line transform="translate(232,-300)" x2="0" y2="300" stroke="#ddd" stroke-width="1" opacity="1"/><line transform="translate(274,-300)" x2="0" y2="300" stroke="#ddd" stroke-width="1" opacity="1"/><line transform="translate(316,-300)" x2="0" y2="300" stroke="#ddd" stroke-width="1" opacity="1"/><line transform="translate(337,-300)" x2="0" y2="300" stroke="#ddd" stroke-width="1" opacity="1"/><line transform="translate(379,-300)" x2="0" y2="300" stroke="#ddd" stroke-width="1" opacity="1"/><line transform="translate(421,-300)" x2="0" y2="300" stroke="#ddd" stroke-width="1" opacity="1"/><line transform="translate(463,-300)" x2="0" y2="300" stroke="#ddd" stroke-width="1" opacity="1"/><line transform="translate(505,-300)" x2="0" y2="300" stroke="#ddd" stroke-width="1" opacity="1"/><line transform="translate(547,-300)" x2="0" y2="300" stroke="#ddd" stroke-width="1" opacity="1"/><line transform="translate(589,-300)" x2="0" y2="300" stroke="#ddd" stroke-width="1" opacity="1"/><line transform="translate(632,-300)" x2="0" y2="300" stroke="#ddd" stroke-width="1" opacity="1"/><line transform="translate(674,-300)" x2="0" y2="300" stroke="#ddd" stroke-width="1" opacity="1"/><line transform="translate(716,-300)" x2="0" y2="300" stroke="#ddd" stroke-width="1" opacity="1"/><line transform="translate(758,-300)" x2="0" y2="300" stroke="#ddd" stroke-width="1" opacity="1"/><line transform="translate(800,-300)" x2="0" y2="300" stroke="#ddd" stroke-width="1" opacity="1"/></g></g><path class="foreground" aria-hidden="true" d="" pointer-events="none" display="none"/></g></g><g class="mark-group role-axis" aria-hidden="true"><g transform="translate(0.5,0.5)"><path class="background" aria-hidden="true" d="M0,0h0v0h0Z" pointer-events="none"/><g><g class="mark-rule role-axis-grid" pointer-events="none"><line transform="translate(0,300)" x2="800" y2="0" stroke="#ddd" stroke-width="1" opacity="1"/><line transform="translate(0,270)" x2="800" y2="0" stroke="#ddd" stroke-width="1" opacity="1"/><line transform="translate(0,240)" x2="800" y2="0" stroke="#ddd" stroke-width="1" opacity="1"/><line transform="translate(0,210)" x2="800" y2="0" stroke="#ddd" stroke-width="1" opacity="1"/><line transform="translate(0,180)" x2="800" y2="0" stroke="#ddd" stroke-width="1" opacity="1"/><line transform="translate(0,150)" x2="800" y2="0" stroke="#ddd" stroke-width="1" opacity="1"/><line transform="translate(0,120)" x2="800" y2="0" stroke="#ddd" stroke-width="1" opacity="1"/><line transform="translate(0,90)" x2="800" y2="0" stroke="#ddd" stroke-width="1" opacity="1"/><line transform="translate(0,60)" x2="800" y2="0" stroke="#ddd" stroke-width="1" opacity="1"/><line transform="translate(0,30)" x2="800" y2="0" stroke="#ddd" stroke-width="1" opacity="1"/><line transform="translate(0,0)" x2="800" y2="0" stroke="#ddd" stroke-width="1" opacity="1"/></g></g><path class="foreground" aria-hidden="true" d="" pointer-events="none" display="none"/></g></g><g class="mark-group role-axis" role="graphics-symbol" aria-roledescription="axis" aria-label="X-axis titled 'Date' for a time scale with values from Monday, 16 March 2026, 12:00:00 AM to Thursday, 23 April 2026, 12:00:00 AM"><g transform="translate(0.5,300.5)"><path class="background" aria-hidden="true" d="M0,0h0v0h0Z" pointer-events="none"/><g><g class="mark-rule role-axis-tick" pointer-events="none"><line transform="translate(21,0)" x2="0" y2="5" stroke="#888" stroke-width="1" opacity="1"/><line transform="translate(63,0)" x2="0" y2="5" stroke="#888" stroke-width="1" opacity="1"/><line transform="translate(105,0)" x2="0" y2="5" stroke="#888" stroke-width="1" opacity="1"/><line transform="translate(147,0)" x2="0" y2="5" stroke="#888" stroke-width="1" opacity="1"/><line transform="translate(189,0)" x2="0" y2="5" stroke="#888" stroke-width="1" opacity="1"/><line transform="translate(232,0)" x2="0" y2="5" stroke="#888" stroke-width="1" opacity="1"/><line transform="translate(274,0)" x2="0" y2="5" stroke="#888" stroke-width="1" opacity="1"/><line transform="translate(316,0)" x2="0" y2="5" stroke="#888" stroke-width="1" opacity="1"/><line transform="translate(337,0)" x2="0" y2="5" stroke="#888" stroke-width="1" opacity="1"/><line transform="translate(379,0)" x2="0" y2="5" stroke="#888" stroke-width="1" opacity="1"/><line transform="translate(421,0)" x2="0" y2="5" stroke="#888" stroke-width="1" opacity="1"/><line transform="translate(463,0)" x2="0" y2="5" stroke="#888" stroke-width="1" opacity="1"/><line transform="translate(505,0)" x2="0" y2="5" stroke="#888" stroke-width="1" opacity="1"/><line transform="translate(547,0)" x2="0" y2="5" stroke="#888" stroke-width="1" opacity="1"/><line transform="translate(589,0)" x2="0" y2="5" stroke="#888" stroke-width="1" opacity="1"/><line transform="translate(632,0)" x2="0" y2="5" stroke="#888" stroke-width="1" opacity="1"/><line transform="translate(674,0)" x2="0" y2="5" stroke="#888" stroke-width="1" opacity="1"/><line transform="translate(716,0)" x2="0" y2="5" stroke="#888" stroke-width="1" opacity="1"/><line transform="translate(758,0)" x2="0" y2="5" stroke="#888" stroke-width="1" opacity="1"/><line transform="translate(800,0)" x2="0" y2="5" stroke="#888" stroke-width="1" opacity="1"/></g><g class="mark-text role-axis-label" pointer-events="none"><text text-anchor="middle" transform="translate(21.052631578947366,15)" font-family="sans-serif" font-size="10px" fill="#000" opacity="1">Tue 17</text><text text-anchor="middle" transform="translate(63.1578947368421,15)" font-family="sans-serif" font-size="10px" fill="#000" opacity="0">Thu 19</text><text text-anchor="middle" transform="translate(105.26315789473684,15)" font-family="sans-serif" font-size="10px" fill="#000" opacity="1">Sat 21</text><text text-anchor="middle" transform="translate(147.36842105263156,15)" font-family="sans-serif" font-size="10px" fill="#000" opacity="0">Mon 23</text><text text-anchor="middle" transform="translate(189.4736842105263,15)" font-family="sans-serif" font-size="10px" fill="#000" opacity="1">Wed 25</text><text text-anchor="middle" transform="translate(231.57894736842107,15)" font-family="sans-serif" font-size="10px" fill="#000" opacity="0">Fri 27</text><text text-anchor="middle" transform="translate(273.6842105263158,15)" font-family="sans-serif" font-size="10px" fill="#000" opacity="1">Mar 29</text><text text-anchor="middle" transform="translate(315.7894736842105,15)" font-family="sans-serif" font-size="10px" fill="#000" opacity="0">Tue 31</text><text text-anchor="middle" transform="translate(336.84210526315786,15)" font-family="sans-serif" font-size="10px" fill="#000" opacity="1">April</text><text text-anchor="middle" transform="translate(378.9473684210526,15)" font-family="sans-serif" font-size="10px" fill="#000" opacity="0">Fri 03</text><text text-anchor="middle" transform="translate(421.05263157894734,15)" font-family="sans-serif" font-size="10px" fill="#000" opacity="1">Apr 05</text><text text-anchor="middle" transform="translate(463.15789473684214,15)" font-family="sans-serif" font-size="10px" fill="#000" opacity="0">Tue 07</text><text text-anchor="middle" transform="translate(505.2631578947368,15)" font-family="sans-serif" font-size="10px" fill="#000" opacity="1">Thu 09</text><text text-anchor="middle" transform="translate(547.3684210526316,15)" font-family="sans-serif" font-size="10px" fill="#000" opacity="0">Sat 11</text><text text-anchor="middle" transform="translate(589.4736842105262,15)" font-family="sans-serif" font-size="10px" fill="#000" opacity="1">Mon 13</text><text text-anchor="middle" transform="translate(631.578947368421,15)" font-family="sans-serif" font-size="10px" fill="#000" opacity="0">Wed 15</text><text text-anchor="middle" transform="translate(673.6842105263157,15)" font-family="sans-serif" font-size="10px" fill="#000" opacity="1">Fri 17</text><text text-anchor="middle" transform="translate(715.7894736842105,15)" font-family="sans-serif" font-size="10px" fill="#000" opacity="0">Apr 19</text><text text-anchor="middle" transform="translate(757.8947368421052,15)" font-family="sans-serif" font-size="10px" fill="#000" opacity="1">Tue 21</text><text text-anchor="end" transform="translate(800,15)" font-family="sans-serif" font-size="10px" fill="#000" opacity="0">Thu 23</text></g><g class="mark-rule role-axis-domain" pointer-events="none"><line transform="translate(0,0)" x2="800" y2="0" stroke="#888" stroke-width="1" opacity="1"/></g><g class="mark-text role-axis-title" pointer-events="none"><text text-anchor="middle" transform="translate(400,30)" font-family="sans-serif" font-size="11px" font-weight="bold" fill="#000" opacity="1">Date</text></g></g><path class="foreground" aria-hidden="true" d="" pointer-events="none" display="none"/></g></g><g class="mark-group role-axis" role="graphics-symbol" aria-roledescription="axis" aria-label="Y-axis titled 'Unique Clones/day' for a linear scale with values from 0 to 100"><g transform="translate(0.5,0.5)"><path class="background" aria-hidden="true" d="M0,0h0v0h0Z" pointer-events="none"/><g><g class="mark-rule role-axis-tick" pointer-events="none"><line transform="translate(0,300)" x2="-5" y2="0" stroke="#888" stroke-width="1" opacity="1"/><line transform="translate(0,270)" x2="-5" y2="0" stroke="#888" stroke-width="1" opacity="1"/><line transform="translate(0,240)" x2="-5" y2="0" stroke="#888" stroke-width="1" opacity="1"/><line transform="translate(0,210)" x2="-5" y2="0" stroke="#888" stroke-width="1" opacity="1"/><line transform="translate(0,180)" x2="-5" y2="0" stroke="#888" stroke-width="1" opacity="1"/><line transform="translate(0,150)" x2="-5" y2="0" stroke="#888" stroke-width="1" opacity="1"/><line transform="translate(0,120)" x2="-5" y2="0" stroke="#888" stroke-width="1" opacity="1"/><line transform="translate(0,90)" x2="-5" y2="0" stroke="#888" stroke-width="1" opacity="1"/><line transform="translate(0,60)" x2="-5" y2="0" stroke="#888" stroke-width="1" opacity="1"/><line transform="translate(0,30)" x2="-5" y2="0" stroke="#888" stroke-width="1" opacity="1"/><line transform="translate(0,0)" x2="-5" y2="0" stroke="#888" stroke-width="1" opacity="1"/></g><g class="mark-text role-axis-label" pointer-events="none"><text text-anchor="end" transform="translate(-7,303)" font-family="sans-serif" font-size="10px" fill="#000" opacity="1">0</text><text text-anchor="end" transform="translate(-7,273)" font-family="sans-serif" font-size="10px" fill="#000" opacity="1">10</text><text text-anchor="end" transform="translate(-7,243)" font-family="sans-serif" font-size="10px" fill="#000" opacity="1">20</text><text text-anchor="end" transform="translate(-7,213)" font-family="sans-serif" font-size="10px" fill="#000" opacity="1">30</text><text text-anchor="end" transform="translate(-7,183)" font-family="sans-serif" font-size="10px" fill="#000" opacity="1">40</text><text text-anchor="end" transform="translate(-7,153)" font-family="sans-serif" font-size="10px" fill="#000" opacity="1">50</text><text text-anchor="end" transform="translate(-7,123)" font-family="sans-serif" font-size="10px" fill="#000" opacity="1">60</text><text text-anchor="end" transform="translate(-7,93.00000000000001)" font-family="sans-serif" font-size="10px" fill="#000" opacity="1">70</text><text text-anchor="end" transform="translate(-7,62.999999999999986)" font-family="sans-serif" font-size="10px" fill="#000" opacity="1">80</text><text text-anchor="end" transform="translate(-7,32.99999999999999)" font-family="sans-serif" font-size="10px" fill="#000" opacity="1">90</text><text text-anchor="end" transform="translate(-7,3)" font-family="sans-serif" font-size="10px" fill="#000" opacity="1">100</text></g><g class="mark-rule role-axis-domain" pointer-events="none"><line transform="translate(0,300)" x2="0" y2="-300" stroke="#888" stroke-width="1" opacity="1"/></g><g class="mark-text role-axis-title" pointer-events="none"><text text-anchor="middle" transform="translate(-27.6845703125,150) rotate(-90) translate(0,-2)" font-family="sans-serif" font-size="11px" font-weight="bold" fill="#000" opacity="1">Unique Clones/day</text></g></g><path class="foreground" aria-hidden="true" d="" pointer-events="none" display="none"/></g></g><g class="mark-group role-scope pathgroup" role="graphics-object" aria-roledescription="group mark container"><g transform="translate(0,0)"><path class="background" aria-hidden="true" d="M0,0h800v300h-800Z"/><g><g class="mark-area role-mark marks" role="graphics-object" aria-roledescription="area mark container"><path aria-label="Date: Mar 16, 2026; Unique Clones/day: 0; Repository: karlmdavis/FHIR-Server" role="graphics-symbol" aria-roledescription="area mark" d="M0,297L21.053,300L42.105,300L63.158,297L84.211,300L105.263,300L126.316,300L147.368,264L168.421,294L189.474,279L210.526,252L231.579,93L252.632,162L273.684,12L294.737,201L315.789,231L336.842,246L357.895,270L378.947,213L400,36L421.053,57L442.105,261L463.158,210L484.211,213L505.263,177L526.316,264L547.368,222L568.421,192L589.474,33L610.526,264L631.579,264L652.632,282L673.684,282L694.737,291L715.789,237L736.842,93L757.895,210L778.947,219L800,165L800,165L778.947,219L757.895,210L736.842,96L715.789,237L694.737,291L673.684,282L652.632,282L631.579,264L610.526,264L589.474,33L568.421,195L547.368,228L526.316,264L505.263,177L484.211,213L463.158,210L442.105,261L421.053,57L400,36L378.947,213L357.895,270L336.842,246L315.789,234L294.737,201L273.684,12L252.632,162L231.579,93L210.526,252L189.474,279L168.421,294L147.368,264L126.316,300L105.263,300L84.211,300L63.158,297L42.105,300L21.053,300L0,297Z" fill="#4c78a8"/></g></g><path class="foreground" aria-hidden="true" d="" display="none"/></g><g transform="translate(0,0)"><path class="background" aria-hidden="true" d="M0,0h800v300h-800Z"/><g><g class="mark-area role-mark marks" role="graphics-object" aria-roledescription="area mark container"><path aria-label="Date: Mar 16, 2026; Unique Clones/day: 1; Repository: karlmdavis/ansible" role="graphics-symbol" aria-roledescription="area mark" d="M0,297L21.053,300L42.105,300L63.158,297L84.211,300L105.263,300L126.316,300L147.368,264L168.421,294L189.474,279L210.526,252L231.579,93L252.632,162L273.684,12L294.737,201L315.789,234L336.842,246L357.895,270L378.947,213L400,36L421.053,57L442.105,261L463.158,210L484.211,213L505.263,177L526.316,264L547.368,228L568.421,195L589.474,33L610.526,264L631.579,264L652.632,282L673.684,282L694.737,291L715.789,237L736.842,96L757.895,210L778.947,219L800,165L800,165L778.947,219L757.895,210L736.842,96L715.789,237L694.737,291L673.684,282L652.632,282L631.579,264L610.526,267L589.474,33L568.421,195L547.368,228L526.316,264L505.263,177L484.211,213L463.158,210L442.105,261L421.053,57L400,36L378.947,213L357.895,270L336.842,246L315.789,234L294.737,201L273.684,12L252.632,162L231.579,93L210.526,252L189.474,279L168.421,294L147.368,264L126.316,300L105.263,300L84.211,300L63.158,297L42.105,300L21.053,300L0,300Z" fill="#f58518"/></g></g><path class="foreground" aria-hidden="true" d="" display="none"/></g><g transform="translate(0,0)"><path class="background" aria-hidden="true" d="M0,0h800v300h-800Z"/><g><g class="mark-area role-mark marks" role="graphics-object" aria-roledescription="area mark container"><path aria-label="Date: Mar 16, 2026; Unique Clones/day: 0; Repository: karlmdavis/ansible-jenkins" role="graphics-symbol" aria-roledescription="area mark" d="M0,300L21.053,300L42.105,300L63.158,297L84.211,300L105.263,300L126.316,300L147.368,264L168.421,294L189.474,279L210.526,252L231.579,93L252.632,162L273.684,12L294.737,201L315.789,234L336.842,246L357.895,270L378.947,213L400,36L421.053,57L442.105,261L463.158,210L484.211,213L505.263,177L526.316,264L547.368,228L568.421,195L589.474,33L610.526,267L631.579,264L652.632,282L673.684,282L694.737,291L715.789,237L736.842,96L757.895,210L778.947,219L800,165L800,165L778.947,219L757.895,210L736.842,96L715.789,237L694.737,291L673.684,282L652.632,282L631.579,264L610.526,267L589.474,33L568.421,198L547.368,228L526.316,264L505.263,177L484.211,213L463.158,210L442.105,261L421.053,57L400,39L378.947,216L357.895,270L336.842,246L315.789,234L294.737,201L273.684,12L252.632,162L231.579,93L210.526,255L189.474,279L168.421,294L147.368,264L126.316,300L105.263,300L84.211,300L63.158,297L42.105,300L21.053,300L0,300Z" fill="#e45756"/></g></g><path class="foreground" aria-hidden="true" d="" display="none"/></g><g transform="translate(0,0)"><path class="background" aria-hidden="true" d="M0,0h800v300h-800Z"/><g><g class="mark-area role-mark marks" role="graphics-object" aria-roledescription="area mark container"><path aria-label="Date: Mar 16, 2026; Unique Clones/day: 0; Repository: karlmdavis/ansible-role-acmetool" role="graphics-symbol" aria-roledescription="area mark" d="M0,300L21.053,300L42.105,300L63.158,297L84.211,300L105.263,300L126.316,300L147.368,264L168.421,294L189.474,279L210.526,255L231.579,93L252.632,162L273.684,12L294.737,201L315.789,234L336.842,246L357.895,270L378.947,216L400,39L421.053,57L442.105,261L463.158,210L484.211,213L505.263,177L526.316,264L547.368,228L568.421,198L589.474,33L610.526,267L631.579,264L652.632,282L673.684,282L694.737,291L715.789,237L736.842,96L757.895,210L778.947,219L800,165L800,165L778.947,219L757.895,210L736.842,96L715.789,237L694.737,291L673.684,282L652.632,282L631.579,264L610.526,267L589.474,33L568.421,201L547.368,228L526.316,264L505.263,177L484.211,213L463.158,210L442.105,261L421.053,57L400,39L378.947,216L357.895,270L336.842,246L315.789,234L294.737,201L273.684,12L252.632,162L231.579,93L210.526,258L189.474,279L168.421,294L147.368,264L126.316,300L105.263,300L84.211,300L63.158,297L42.105,300L21.053,300L0,300Z" fill="#72b7b2"/></g></g><path class="foreground" aria-hidden="true" d="" display="none"/></g><g transform="translate(0,0)"><path class="background" aria-hidden="true" d="M0,0h800v300h-800Z"/><g><g class="mark-area role-mark marks" role="graphics-object" aria-roledescription="area mark container"><path aria-label="Date: Mar 16, 2026; Unique Clones/day: 0; Repository: karlmdavis/ansible-role-bind-dns" role="graphics-symbol" aria-roledescription="area mark" d="M0,300L21.053,300L42.105,300L63.158,297L84.211,300L105.263,300L126.316,300L147.368,264L168.421,294L189.474,279L210.526,258L231.579,93L252.632,162L273.684,12L294.737,201L315.789,234L336.842,246L357.895,270L378.947,216L400,39L421.053,57L442.105,261L463.158,210L484.211,213L505.263,177L526.316,264L547.368,228L568.421,201L589.474,33L610.526,267L631.579,264L652.632,282L673.684,282L694.737,291L715.789,237L736.842,96L757.895,210L778.947,219L800,165L800,168L778.947,219L757.895,210L736.842,99L715.789,237L694.737,291L673.684,282L652.632,285L631.579,264L610.526,267L589.474,45L568.421,204L547.368,228L526.316,264L505.263,180L484.211,216L463.158,210L442.105,261L421.053,57L400,42L378.947,216L357.895,270L336.842,255L315.789,234L294.737,204L273.684,15L252.632,162L231.579,99L210.526,258L189.474,279L168.421,294L147.368,264L126.316,300L105.263,300L84.211,300L63.158,297L42.105,300L21.053,300L0,300Z" fill="#54a24b"/></g></g><path class="foreground" aria-hidden="true" d="" display="none"/></g><g transform="translate(0,0)"><path class="background" aria-hidden="true" d="M0,0h800v300h-800Z"/><g><g class="mark-area role-mark marks" role="graphics-object" aria-roledescription="area mark container"><path aria-label="Date: Mar 16, 2026; Unique Clones/day: 0; Repository: karlmdavis/ansible-role-jenkins2" role="graphics-symbol" aria-roledescription="area mark" d="M0,300L21.053,300L42.105,300L63.158,297L84.211,300L105.263,300L126.316,300L147.368,264L168.421,294L189.474,279L210.526,258L231.579,99L252.632,162L273.684,15L294.737,204L315.789,234L336.842,255L357.895,270L378.947,216L400,42L421.053,57L442.105,261L463.158,210L484.211,216L505.263,180L526.316,264L547.368,228L568.421,204L589.474,45L610.526,267L631.579,264L652.632,285L673.684,282L694.737,291L715.789,237L736.842,99L757.895,210L778.947,219L800,168L800,171L778.947,219L757.895,213L736.842,102L715.789,237L694.737,291L673.684,282L652.632,285L631.579,267L610.526,267L589.474,60L568.421,204L547.368,231L526.316,270L505.263,195L484.211,216L463.158,210L442.105,261L421.053,60L400,48L378.947,219L357.895,273L336.842,258L315.789,237L294.737,204L273.684,15L252.632,165L231.579,102L210.526,261L189.474,282L168.421,297L147.368,264L126.316,300L105.263,300L84.211,300L63.158,297L42.105,300L21.053,300L0,300Z" fill="#eeca3b"/></g></g><path class="foreground" aria-hidden="true" d="" display="none"/></g><g transform="translate(0,0)"><path class="background" aria-hidden="true" d="M0,0h800v300h-800Z"/><g><g class="mark-area role-mark marks" role="graphics-object" aria-roledescription="area mark container"><path aria-label="Date: Mar 16, 2026; Unique Clones/day: 0; Repository: karlmdavis/ansible-role-ldap" role="graphics-symbol" aria-roledescription="area mark" d="M0,300L21.053,300L42.105,300L63.158,297L84.211,300L105.263,300L126.316,300L147.368,264L168.421,297L189.474,282L210.526,261L231.579,102L252.632,165L273.684,15L294.737,204L315.789,237L336.842,258L357.895,273L378.947,219L400,48L421.053,60L442.105,261L463.158,210L484.211,216L505.263,195L526.316,270L547.368,231L568.421,204L589.474,60L610.526,267L631.579,267L652.632,285L673.684,282L694.737,291L715.789,237L736.842,102L757.895,213L778.947,219L800,171L800,171L778.947,219L757.895,213L736.842,102L715.789,237L694.737,291L673.684,282L652.632,285L631.579,267L610.526,267L589.474,63L568.421,204L547.368,231L526.316,270L505.263,195L484.211,216L463.158,210L442.105,261L421.053,60L400,48L378.947,219L357.895,273L336.842,258L315.789,240L294.737,204L273.684,15L252.632,165L231.579,102L210.526,261L189.474,282L168.421,297L147.368,264L126.316,300L105.263,300L84.211,300L63.158,297L42.105,300L21.053,300L0,300Z" fill="#b279a2"/></g></g><path class="foreground" aria-hidden="true" d="" display="none"/></g><g transform="translate(0,0)"><path class="background" aria-hidden="true" d="M0,0h800v300h-800Z"/><g><g class="mark-area role-mark marks" role="graphics-object" aria-roledescription="area mark container"><path aria-label="Date: Mar 16, 2026; Unique Clones/day: 0; Repository: karlmdavis/ansible-role-rcm-dotfiles" role="graphics-symbol" aria-roledescription="area mark" d="M0,300L21.053,300L42.105,300L63.158,297L84.211,300L105.263,300L126.316,300L147.368,264L168.421,297L189.474,282L210.526,261L231.579,102L252.632,165L273.684,15L294.737,204L315.789,240L336.842,258L357.895,273L378.947,219L400,48L421.053,60L442.105,261L463.158,210L484.211,216L505.263,195L526.316,270L547.368,231L568.421,204L589.474,63L610.526,267L631.579,267L652.632,285L673.684,282L694.737,291L715.789,237L736.842,102L757.895,213L778.947,219L800,171L800,174L778.947,219L757.895,213L736.842,105L715.789,237L694.737,291L673.684,282L652.632,285L631.579,270L610.526,267L589.474,72L568.421,207L547.368,231L526.316,270L505.263,198L484.211,216L463.158,210L442.105,261L421.053,60L400,51L378.947,219L357.895,273L336.842,258L315.789,240L294.737,207L273.684,18L252.632,165L231.579,108L210.526,261L189.474,282L168.421,297L147.368,264L126.316,300L105.263,300L84.211,300L63.158,297L42.105,300L21.053,300L0,300Z" fill="#ff9da6"/></g></g><path class="foreground" aria-hidden="true" d="" display="none"/></g><g transform="translate(0,0)"><path class="background" aria-hidden="true" d="M0,0h800v300h-800Z"/><g><g class="mark-area role-mark marks" role="graphics-object" aria-roledescription="area mark container"><path aria-label="Date: Mar 16, 2026; Unique Clones/day: 0; Repository: karlmdavis/ansible-roles" role="graphics-symbol" aria-roledescription="area mark" d="M0,300L21.053,300L42.105,300L63.158,297L84.211,300L105.263,300L126.316,300L147.368,264L168.421,297L189.474,282L210.526,261L231.579,108L252.632,165L273.684,18L294.737,207L315.789,240L336.842,258L357.895,273L378.947,219L400,51L421.053,60L442.105,261L463.158,210L484.211,216L505.263,198L526.316,270L547.368,231L568.421,207L589.474,72L610.526,267L631.579,270L652.632,285L673.684,282L694.737,291L715.789,237L736.842,105L757.895,213L778.947,219L800,174L800,174L778.947,219L757.895,213L736.842,105L715.789,237L694.737,291L673.684,282L652.632,285L631.579,270L610.526,267L589.474,72L568.421,207L547.368,234L526.316,270L505.263,198L484.211,216L463.158,210L442.105,261L421.053,60L400,51L378.947,219L357.895,273L336.842,258L315.789,240L294.737,210L273.684,18L252.632,165L231.579,108L210.526,264L189.474,282L168.421,297L147.368,264L126.316,300L105.263,300L84.211,300L63.158,297L42.105,300L21.053,300L0,300Z" fill="#9d755d"/></g></g><path class="foreground" aria-hidden="true" d="" display="none"/></g><g transform="translate(0,0)"><path class="background" aria-hidden="true" d="M0,0h800v300h-800Z"/><g><g class="mark-area role-mark marks" role="graphics-object" aria-roledescription="area mark container"><path aria-label="Date: Mar 16, 2026; Unique Clones/day: 0; Repository: karlmdavis/bbonfhir-dev-infra-docker" role="graphics-symbol" aria-roledescription="area mark" d="M0,300L21.053,300L42.105,300L63.158,297L84.211,300L105.263,300L126.316,300L147.368,264L168.421,297L189.474,282L210.526,264L231.579,108L252.632,165L273.684,18L294.737,210L315.789,240L336.842,258L357.895,273L378.947,219L400,51L421.053,60L442.105,261L463.158,210L484.211,216L505.263,198L526.316,270L547.368,234L568.421,207L589.474,72L610.526,267L631.579,270L652.632,285L673.684,282L694.737,291L715.789,237L736.842,105L757.895,213L778.947,219L800,174L800,177L778.947,222L757.895,213L736.842,108L715.789,237L694.737,291L673.684,282L652.632,285L631.579,270L610.526,267L589.474,81L568.421,210L547.368,234L526.316,270L505.263,201L484.211,216L463.158,210L442.105,261L421.053,60L400,54L378.947,219L357.895,273L336.842,258L315.789,240L294.737,213L273.684,18L252.632,165L231.579,111L210.526,264L189.474,285L168.421,297L147.368,264L126.316,300L105.263,300L84.211,300L63.158,297L42.105,300L21.053,300L0,300Z" fill="#bab0ac"/></g></g><path class="foreground" aria-hidden="true" d="" display="none"/></g><g transform="translate(0,0)"><path class="background" aria-hidden="true" d="M0,0h800v300h-800Z"/><g><g class="mark-area role-mark marks" role="graphics-object" aria-roledescription="area mark container"><path aria-label="Date: Mar 16, 2026; Unique Clones/day: 0; Repository: karlmdavis/can-i-kayak-baltimore" role="graphics-symbol" aria-roledescription="area mark" d="M0,300L21.053,300L42.105,300L63.158,297L84.211,300L105.263,300L126.316,300L147.368,264L168.421,297L189.474,285L210.526,264L231.579,111L252.632,165L273.684,18L294.737,213L315.789,240L336.842,258L357.895,273L378.947,219L400,54L421.053,60L442.105,261L463.158,210L484.211,216L505.263,201L526.316,270L547.368,234L568.421,210L589.474,81L610.526,267L631.579,270L652.632,285L673.684,282L694.737,291L715.789,237L736.842,108L757.895,213L778.947,222L800,177L800,177L778.947,222L757.895,213L736.842,111L715.789,237L694.737,291L673.684,282L652.632,285L631.579,270L610.526,267L589.474,87L568.421,213L547.368,234L526.316,270L505.263,204L484.211,216L463.158,210L442.105,261L421.053,60L400,57L378.947,219L357.895,273L336.842,261L315.789,240L294.737,213L273.684,18L252.632,165L231.579,120L210.526,264L189.474,285L168.421,297L147.368,264L126.316,300L105.263,300L84.211,300L63.158,297L42.105,300L21.053,300L0,300Z" fill="#4c78a8"/></g></g><path class="foreground" aria-hidden="true" d="" display="none"/></g><g transform="translate(0,0)"><path class="background" aria-hidden="true" d="M0,0h800v300h-800Z"/><g><g class="mark-area role-mark marks" role="graphics-object" aria-roledescription="area mark container"><path aria-label="Date: Mar 16, 2026; Unique Clones/day: 0; Repository: karlmdavis/datanucleus-test-jdo-1-to-n" role="graphics-symbol" aria-roledescription="area mark" d="M0,300L21.053,300L42.105,300L63.158,297L84.211,300L105.263,300L126.316,300L147.368,264L168.421,297L189.474,285L210.526,264L231.579,120L252.632,165L273.684,18L294.737,213L315.789,240L336.842,261L357.895,273L378.947,219L400,57L421.053,60L442.105,261L463.158,210L484.211,216L505.263,204L526.316,270L547.368,234L568.421,213L589.474,87L610.526,267L631.579,270L652.632,285L673.684,282L694.737,291L715.789,237L736.842,111L757.895,213L778.947,222L800,177L800,177L778.947,222L757.895,213L736.842,111L715.789,237L694.737,291L673.684,285L652.632,285L631.579,270L610.526,270L589.474,87L568.421,213L547.368,234L526.316,270L505.263,204L484.211,216L463.158,210L442.105,261L421.053,60L400,57L378.947,219L357.895,273L336.842,261L315.789,240L294.737,213L273.684,18L252.632,168L231.579,120L210.526,264L189.474,285L168.421,297L147.368,264L126.316,300L105.263,300L84.211,300L63.158,297L42.105,300L21.053,300L0,300Z" fill="#f58518"/></g></g><path class="foreground" aria-hidden="true" d="" display="none"/></g><g transform="translate(0,0)"><path class="background" aria-hidden="true" d="M0,0h800v300h-800Z"/><g><g class="mark-area role-mark marks" role="graphics-object" aria-roledescription="area mark container"><path aria-label="Date: Mar 16, 2026; Unique Clones/day: 0; Repository: karlmdavis/dotfiles" role="graphics-symbol" aria-roledescription="area mark" d="M0,300L21.053,300L42.105,300L63.158,297L84.211,300L105.263,300L126.316,300L147.368,264L168.421,297L189.474,285L210.526,264L231.579,120L252.632,168L273.684,18L294.737,213L315.789,240L336.842,261L357.895,273L378.947,219L400,57L421.053,60L442.105,261L463.158,210L484.211,216L505.263,204L526.316,270L547.368,234L568.421,213L589.474,87L610.526,270L631.579,270L652.632,285L673.684,285L694.737,291L715.789,237L736.842,111L757.895,213L778.947,222L800,177L800,186L778.947,249L757.895,216L736.842,156L715.789,243L694.737,291L673.684,288L652.632,288L631.579,270L610.526,270L589.474,102L568.421,213L547.368,240L526.316,270L505.263,207L484.211,219L463.158,210L442.105,261L421.053,63L400,60L378.947,219L357.895,276L336.842,264L315.789,243L294.737,213L273.684,18L252.632,168L231.579,126L210.526,264L189.474,285L168.421,297L147.368,267L126.316,300L105.263,300L84.211,300L63.158,297L42.105,300L21.053,300L0,300Z" fill="#e45756"/></g></g><path class="foreground" aria-hidden="true" d="" display="none"/></g><g transform="translate(0,0)"><path class="background" aria-hidden="true" d="M0,0h800v300h-800Z"/><g><g class="mark-area role-mark marks" role="graphics-object" aria-roledescription="area mark container"><path aria-label="Date: Mar 16, 2026; Unique Clones/day: 0; Repository: karlmdavis/fhir-benchmarks" role="graphics-symbol" aria-roledescription="area mark" d="M0,300L21.053,300L42.105,300L63.158,297L84.211,300L105.263,300L126.316,300L147.368,267L168.421,297L189.474,285L210.526,264L231.579,126L252.632,168L273.684,18L294.737,213L315.789,243L336.842,264L357.895,276L378.947,219L400,60L421.053,63L442.105,261L463.158,210L484.211,219L505.263,207L526.316,270L547.368,240L568.421,213L589.474,102L610.526,270L631.579,270L652.632,288L673.684,288L694.737,291L715.789,243L736.842,156L757.895,216L778.947,249L800,186L800,189L778.947,249L757.895,219L736.842,159L715.789,243L694.737,294L673.684,291L652.632,288L631.579,273L610.526,279L589.474,117L568.421,213L547.368,246L526.316,270L505.263,213L484.211,240L463.158,213L442.105,261L421.053,66L400,63L378.947,222L357.895,276L336.842,267L315.789,249L294.737,216L273.684,21L252.632,168L231.579,132L210.526,264L189.474,288L168.421,297L147.368,270L126.316,300L105.263,300L84.211,300L63.158,297L42.105,300L21.053,300L0,300Z" fill="#72b7b2"/></g></g><path class="foreground" aria-hidden="true" d="" display="none"/></g><g transform="translate(0,0)"><path class="background" aria-hidden="true" d="M0,0h800v300h-800Z"/><g><g class="mark-area role-mark marks" role="graphics-object" aria-roledescription="area mark container"><path aria-label="Date: Mar 16, 2026; Unique Clones/day: 0; Repository: karlmdavis/hapi-fhir-jpaserver-starter" role="graphics-symbol" aria-roledescription="area mark" d="M0,300L21.053,300L42.105,300L63.158,297L84.211,300L105.263,300L126.316,300L147.368,270L168.421,297L189.474,288L210.526,264L231.579,132L252.632,168L273.684,21L294.737,216L315.789,249L336.842,267L357.895,276L378.947,222L400,63L421.053,66L442.105,261L463.158,213L484.211,240L505.263,213L526.316,270L547.368,246L568.421,213L589.474,117L610.526,279L631.579,273L652.632,288L673.684,291L694.737,294L715.789,243L736.842,159L757.895,219L778.947,249L800,189L800,192L778.947,249L757.895,219L736.842,159L715.789,243L694.737,294L673.684,291L652.632,288L631.579,273L610.526,279L589.474,120L568.421,213L547.368,246L526.316,270L505.263,213L484.211,240L463.158,213L442.105,261L421.053,66L400,63L378.947,225L357.895,279L336.842,267L315.789,249L294.737,216L273.684,21L252.632,168L231.579,132L210.526,267L189.474,288L168.421,297L147.368,270L126.316,300L105.263,300L84.211,300L63.158,297L42.105,300L21.053,300L0,300Z" fill="#54a24b"/></g></g><path class="foreground" aria-hidden="true" d="" display="none"/></g><g transform="translate(0,0)"><path class="background" aria-hidden="true" d="M0,0h800v300h-800Z"/><g><g class="mark-area role-mark marks" role="graphics-object" aria-roledescription="area mark container"><path aria-label="Date: Mar 16, 2026; Unique Clones/day: 0; Repository: karlmdavis/hello-rust-actix" role="graphics-symbol" aria-roledescription="area mark" d="M0,300L21.053,300L42.105,300L63.158,297L84.211,300L105.263,300L126.316,300L147.368,270L168.421,297L189.474,288L210.526,267L231.579,132L252.632,168L273.684,21L294.737,216L315.789,249L336.842,267L357.895,279L378.947,225L400,63L421.053,66L442.105,261L463.158,213L484.211,240L505.263,213L526.316,270L547.368,246L568.421,213L589.474,120L610.526,279L631.579,273L652.632,288L673.684,291L694.737,294L715.789,243L736.842,159L757.895,219L778.947,249L800,192L800,195L778.947,249L757.895,219L736.842,162L715.789,243L694.737,294L673.684,291L652.632,288L631.579,273L610.526,279L589.474,126L568.421,216L547.368,246L526.316,270L505.263,216L484.211,240L463.158,213L442.105,261L421.053,66L400,66L378.947,225L357.895,279L336.842,267L315.789,252L294.737,216L273.684,21L252.632,168L231.579,135L210.526,267L189.474,288L168.421,297L147.368,270L126.316,300L105.263,300L84.211,300L63.158,297L42.105,300L21.053,300L0,300Z" fill="#eeca3b"/></g></g><path class="foreground" aria-hidden="true" d="" display="none"/></g><g transform="translate(0,0)"><path class="background" aria-hidden="true" d="M0,0h800v300h-800Z"/><g><g class="mark-area role-mark marks" role="graphics-object" aria-roledescription="area mark container"><path aria-label="Date: Mar 16, 2026; Unique Clones/day: 0; Repository: karlmdavis/jessentials" role="graphics-symbol" aria-roledescription="area mark" d="M0,300L21.053,300L42.105,300L63.158,297L84.211,300L105.263,300L126.316,300L147.368,270L168.421,297L189.474,288L210.526,267L231.579,135L252.632,168L273.684,21L294.737,216L315.789,252L336.842,267L357.895,279L378.947,225L400,66L421.053,66L442.105,261L463.158,213L484.211,240L505.263,216L526.316,270L547.368,246L568.421,216L589.474,126L610.526,279L631.579,273L652.632,288L673.684,291L694.737,294L715.789,243L736.842,162L757.895,219L778.947,249L800,195L800,198L778.947,252L757.895,219L736.842,165L715.789,246L694.737,294L673.684,291L652.632,288L631.579,273L610.526,279L589.474,132L568.421,216L547.368,249L526.316,270L505.263,222L484.211,264L463.158,213L442.105,261L421.053,66L400,69L378.947,225L357.895,279L336.842,267L315.789,252L294.737,219L273.684,21L252.632,168L231.579,138L210.526,267L189.474,288L168.421,297L147.368,273L126.316,300L105.263,300L84.211,300L63.158,297L42.105,300L21.053,300L0,300Z" fill="#b279a2"/></g></g><path class="foreground" aria-hidden="true" d="" display="none"/></g><g transform="translate(0,0)"><path class="background" aria-hidden="true" d="M0,0h800v300h-800Z"/><g><g class="mark-area role-mark marks" role="graphics-object" aria-roledescription="area mark container"><path aria-label="Date: Mar 16, 2026; Unique Clones/day: 0; Repository: karlmdavis/justdavis-ansible" role="graphics-symbol" aria-roledescription="area mark" d="M0,300L21.053,300L42.105,300L63.158,297L84.211,300L105.263,300L126.316,300L147.368,273L168.421,297L189.474,288L210.526,267L231.579,138L252.632,168L273.684,21L294.737,219L315.789,252L336.842,267L357.895,279L378.947,225L400,69L421.053,66L442.105,261L463.158,213L484.211,264L505.263,222L526.316,270L547.368,249L568.421,216L589.474,132L610.526,279L631.579,273L652.632,288L673.684,291L694.737,294L715.789,246L736.842,165L757.895,219L778.947,252L800,198L800,204L778.947,267L757.895,237L736.842,168L715.789,258L694.737,294L673.684,291L652.632,288L631.579,273L610.526,279L589.474,141L568.421,228L547.368,249L526.316,273L505.263,225L484.211,264L463.158,213L442.105,261L421.053,66L400,72L378.947,225L357.895,279L336.842,270L315.789,252L294.737,219L273.684,21L252.632,171L231.579,141L210.526,267L189.474,291L168.421,297L147.368,273L126.316,300L105.263,300L84.211,300L63.158,297L42.105,300L21.053,300L0,300Z" fill="#ff9da6"/></g></g><path class="foreground" aria-hidden="true" d="" display="none"/></g><g transform="translate(0,0)"><path class="background" aria-hidden="true" d="M0,0h800v300h-800Z"/><g><g class="mark-area role-mark marks" role="graphics-object" aria-roledescription="area mark container"><path aria-label="Date: Mar 16, 2026; Unique Clones/day: 0; Repository: karlmdavis/justdavis-finances" role="graphics-symbol" aria-roledescription="area mark" d="M0,300L21.053,300L42.105,300L63.158,297L84.211,300L105.263,300L126.316,300L147.368,273L168.421,297L189.474,291L210.526,267L231.579,141L252.632,171L273.684,21L294.737,219L315.789,252L336.842,270L357.895,279L378.947,225L400,72L421.053,66L442.105,261L463.158,213L484.211,264L505.263,225L526.316,273L547.368,249L568.421,228L589.474,141L610.526,279L631.579,273L652.632,288L673.684,291L694.737,294L715.789,258L736.842,168L757.895,237L778.947,267L800,204L800,240L778.947,294L757.895,285L736.842,243L715.789,288L694.737,294L673.684,291L652.632,288L631.579,276L610.526,285L589.474,186L568.421,279L547.368,255L526.316,273L505.263,228L484.211,267L463.158,264L442.105,285L421.053,291L400,243L378.947,285L357.895,282L336.842,273L315.789,255L294.737,264L273.684,276L252.632,282L231.579,234L210.526,270L189.474,294L168.421,297L147.368,273L126.316,300L105.263,300L84.211,300L63.158,297L42.105,300L21.053,300L0,300Z" fill="#9d755d"/></g></g><path class="foreground" aria-hidden="true" d="" display="none"/></g><g transform="translate(0,0)"><path class="background" aria-hidden="true" d="M0,0h800v300h-800Z"/><g><g class="mark-area role-mark marks" role="graphics-object" aria-roledescription="area mark container"><path aria-label="Date: Mar 16, 2026; Unique Clones/day: 0; Repository: karlmdavis/justdavis-karl" role="graphics-symbol" aria-roledescription="area mark" d="M0,300L21.053,300L42.105,300L63.158,297L84.211,300L105.263,300L126.316,300L147.368,273L168.421,297L189.474,294L210.526,270L231.579,234L252.632,282L273.684,276L294.737,264L315.789,255L336.842,273L357.895,282L378.947,285L400,243L421.053,291L442.105,285L463.158,264L484.211,267L505.263,228L526.316,273L547.368,255L568.421,279L589.474,186L610.526,285L631.579,276L652.632,288L673.684,291L694.737,294L715.789,288L736.842,243L757.895,285L778.947,294L800,240L800,243L778.947,294L757.895,285L736.842,246L715.789,288L694.737,294L673.684,291L652.632,288L631.579,276L610.526,285L589.474,195L568.421,282L547.368,258L526.316,273L505.263,234L484.211,267L463.158,264L442.105,288L421.053,291L400,246L378.947,285L357.895,285L336.842,273L315.789,258L294.737,267L273.684,276L252.632,285L231.579,237L210.526,270L189.474,294L168.421,297L147.368,276L126.316,300L105.263,300L84.211,300L63.158,297L42.105,300L21.053,300L0,300Z" fill="#bab0ac"/></g></g><path class="foreground" aria-hidden="true" d="" display="none"/></g><g transform="translate(0,0)"><path class="background" aria-hidden="true" d="M0,0h800v300h-800Z"/><g><g class="mark-area role-mark marks" role="graphics-object" aria-roledescription="area mark container"><path aria-label="Date: Mar 16, 2026; Unique Clones/day: 0; Repository: karlmdavis/justdavis-puppet" role="graphics-symbol" aria-roledescription="area mark" d="M0,300L21.053,300L42.105,300L63.158,297L84.211,300L105.263,300L126.316,300L147.368,276L168.421,297L189.474,294L210.526,270L231.579,237L252.632,285L273.684,276L294.737,267L315.789,258L336.842,273L357.895,285L378.947,285L400,246L421.053,291L442.105,288L463.158,264L484.211,267L505.263,234L526.316,273L547.368,258L568.421,282L589.474,195L610.526,285L631.579,276L652.632,288L673.684,291L694.737,294L715.789,288L736.842,246L757.895,285L778.947,294L800,243L800,246L778.947,294L757.895,285L736.842,249L715.789,288L694.737,294L673.684,291L652.632,288L631.579,276L610.526,285L589.474,201L568.421,285L547.368,261L526.316,273L505.263,237L484.211,270L463.158,264L442.105,288L421.053,291L400,249L378.947,285L357.895,285L336.842,273L315.789,264L294.737,270L273.684,276L252.632,285L231.579,240L210.526,270L189.474,294L168.421,297L147.368,276L126.316,300L105.263,300L84.211,300L63.158,297L42.105,300L21.053,300L0,300Z" fill="#4c78a8"/></g></g><path class="foreground" aria-hidden="true" d="" display="none"/></g><g transform="translate(0,0)"><path class="background" aria-hidden="true" d="M0,0h800v300h-800Z"/><g><g class="mark-area role-mark marks" role="graphics-object" aria-roledescription="area mark container"><path aria-label="Date: Mar 16, 2026; Unique Clones/day: 0; Repository: karlmdavis/kobjects" role="graphics-symbol" aria-roledescription="area mark" d="M0,300L21.053,300L42.105,300L63.158,297L84.211,300L105.263,300L126.316,300L147.368,276L168.421,297L189.474,294L210.526,270L231.579,240L252.632,285L273.684,276L294.737,270L315.789,264L336.842,273L357.895,285L378.947,285L400,249L421.053,291L442.105,288L463.158,264L484.211,270L505.263,237L526.316,273L547.368,261L568.421,285L589.474,201L610.526,285L631.579,276L652.632,288L673.684,291L694.737,294L715.789,288L736.842,249L757.895,285L778.947,294L800,246L800,249L778.947,294L757.895,285L736.842,252L715.789,288L694.737,294L673.684,291L652.632,288L631.579,276L610.526,285L589.474,207L568.421,285L547.368,264L526.316,273L505.263,243L484.211,270L463.158,264L442.105,288L421.053,291L400,252L378.947,285L357.895,285L336.842,273L315.789,264L294.737,270L273.684,276L252.632,285L231.579,243L210.526,273L189.474,294L168.421,297L147.368,276L126.316,300L105.263,300L84.211,300L63.158,297L42.105,300L21.053,300L0,300Z" fill="#f58518"/></g></g><path class="foreground" aria-hidden="true" d="" display="none"/></g><g transform="translate(0,0)"><path class="background" aria-hidden="true" d="M0,0h800v300h-800Z"/><g><g class="mark-area role-mark marks" role="graphics-object" aria-roledescription="area mark container"><path aria-label="Date: Mar 16, 2026; Unique Clones/day: 0; Repository: karlmdavis/ksoap2-android" role="graphics-symbol" aria-roledescription="area mark" d="M0,300L21.053,300L42.105,300L63.158,297L84.211,300L105.263,300L126.316,300L147.368,276L168.421,297L189.474,294L210.526,273L231.579,243L252.632,285L273.684,276L294.737,270L315.789,264L336.842,273L357.895,285L378.947,285L400,252L421.053,291L442.105,288L463.158,264L484.211,270L505.263,243L526.316,273L547.368,264L568.421,285L589.474,207L610.526,285L631.579,276L652.632,288L673.684,291L694.737,294L715.789,288L736.842,252L757.895,285L778.947,294L800,249L800,258L778.947,297L757.895,288L736.842,258L715.789,288L694.737,294L673.684,291L652.632,288L631.579,282L610.526,285L589.474,213L568.421,285L547.368,267L526.316,282L505.263,246L484.211,288L463.158,279L442.105,291L421.053,291L400,261L378.947,285L357.895,288L336.842,276L315.789,267L294.737,282L273.684,282L252.632,285L231.579,246L210.526,282L189.474,294L168.421,297L147.368,279L126.316,300L105.263,300L84.211,300L63.158,297L42.105,300L21.053,300L0,300Z" fill="#e45756"/></g></g><path class="foreground" aria-hidden="true" d="" display="none"/></g><g transform="translate(0,0)"><path class="background" aria-hidden="true" d="M0,0h800v300h-800Z"/><g><g class="mark-area role-mark marks" role="graphics-object" aria-roledescription="area mark container"><path aria-label="Date: Mar 16, 2026; Unique Clones/day: 0; Repository: karlmdavis/kxml2" role="graphics-symbol" aria-roledescription="area mark" d="M0,300L21.053,300L42.105,300L63.158,297L84.211,300L105.263,300L126.316,300L147.368,279L168.421,297L189.474,294L210.526,282L231.579,246L252.632,285L273.684,282L294.737,282L315.789,267L336.842,276L357.895,288L378.947,285L400,261L421.053,291L442.105,291L463.158,279L484.211,288L505.263,246L526.316,282L547.368,267L568.421,285L589.474,213L610.526,285L631.579,282L652.632,288L673.684,291L694.737,294L715.789,288L736.842,258L757.895,288L778.947,297L800,258L800,264L778.947,297L757.895,291L736.842,264L715.789,291L694.737,294L673.684,291L652.632,291L631.579,285L610.526,288L589.474,222L568.421,285L547.368,267L526.316,282L505.263,249L484.211,288L463.158,282L442.105,294L421.053,294L400,264L378.947,285L357.895,288L336.842,276L315.789,270L294.737,291L273.684,285L252.632,285L231.579,252L210.526,285L189.474,294L168.421,297L147.368,282L126.316,300L105.263,300L84.211,300L63.158,297L42.105,300L21.053,300L0,300Z" fill="#72b7b2"/></g></g><path class="foreground" aria-hidden="true" d="" display="none"/></g><g transform="translate(0,0)"><path class="background" aria-hidden="true" d="M0,0h800v300h-800Z"/><g><g class="mark-area role-mark marks" role="graphics-object" aria-roledescription="area mark container"><path aria-label="Date: Mar 16, 2026; Unique Clones/day: 0; Repository: karlmdavis/ldap-plugin" role="graphics-symbol" aria-roledescription="area mark" d="M0,300L21.053,300L42.105,300L63.158,297L84.211,300L105.263,300L126.316,300L147.368,282L168.421,297L189.474,294L210.526,285L231.579,252L252.632,285L273.684,285L294.737,291L315.789,270L336.842,276L357.895,288L378.947,285L400,264L421.053,294L442.105,294L463.158,282L484.211,288L505.263,249L526.316,282L547.368,267L568.421,285L589.474,222L610.526,288L631.579,285L652.632,291L673.684,291L694.737,294L715.789,291L736.842,264L757.895,291L778.947,297L800,264L800,264L778.947,297L757.895,291L736.842,264L715.789,291L694.737,294L673.684,291L652.632,291L631.579,285L610.526,288L589.474,222L568.421,285L547.368,267L526.316,282L505.263,249L484.211,288L463.158,282L442.105,294L421.053,294L400,264L378.947,288L357.895,291L336.842,276L315.789,270L294.737,291L273.684,285L252.632,285L231.579,252L210.526,285L189.474,294L168.421,297L147.368,282L126.316,300L105.263,300L84.211,300L63.158,297L42.105,300L21.053,300L0,300Z" fill="#54a24b"/></g></g><path class="foreground" aria-hidden="true" d="" display="none"/></g><g transform="translate(0,0)"><path class="background" aria-hidden="true" d="M0,0h800v300h-800Z"/><g><g class="mark-area role-mark marks" role="graphics-object" aria-roledescription="area mark container"><path aria-label="Date: Mar 16, 2026; Unique Clones/day: 0; Repository: karlmdavis/lego-ev3dev-rs" role="graphics-symbol" aria-roledescription="area mark" d="M0,300L21.053,300L42.105,300L63.158,297L84.211,300L105.263,300L126.316,300L147.368,282L168.421,297L189.474,294L210.526,285L231.579,252L252.632,285L273.684,285L294.737,291L315.789,270L336.842,276L357.895,291L378.947,288L400,264L421.053,294L442.105,294L463.158,282L484.211,288L505.263,249L526.316,282L547.368,267L568.421,285L589.474,222L610.526,288L631.579,285L652.632,291L673.684,291L694.737,294L715.789,291L736.842,264L757.895,291L778.947,297L800,264L800,267L778.947,297L757.895,294L736.842,267L715.789,291L694.737,297L673.684,294L652.632,291L631.579,288L610.526,288L589.474,231L568.421,285L547.368,273L526.316,282L505.263,255L484.211,288L463.158,285L442.105,294L421.053,297L400,267L378.947,291L357.895,291L336.842,279L315.789,276L294.737,291L273.684,288L252.632,288L231.579,261L210.526,285L189.474,297L168.421,297L147.368,285L126.316,300L105.263,300L84.211,300L63.158,297L42.105,300L21.053,300L0,300Z" fill="#eeca3b"/></g></g><path class="foreground" aria-hidden="true" d="" display="none"/></g><g transform="translate(0,0)"><path class="background" aria-hidden="true" d="M0,0h800v300h-800Z"/><g><g class="mark-area role-mark marks" role="graphics-object" aria-roledescription="area mark container"><path aria-label="Date: Mar 16, 2026; Unique Clones/day: 0; Repository: karlmdavis/liquibase" role="graphics-symbol" aria-roledescription="area mark" d="M0,300L21.053,300L42.105,300L63.158,297L84.211,300L105.263,300L126.316,300L147.368,285L168.421,297L189.474,297L210.526,285L231.579,261L252.632,288L273.684,288L294.737,291L315.789,276L336.842,279L357.895,291L378.947,291L400,267L421.053,297L442.105,294L463.158,285L484.211,288L505.263,255L526.316,282L547.368,273L568.421,285L589.474,231L610.526,288L631.579,288L652.632,291L673.684,294L694.737,297L715.789,291L736.842,267L757.895,294L778.947,297L800,267L800,267L778.947,297L757.895,294L736.842,267L715.789,291L694.737,297L673.684,294L652.632,291L631.579,288L610.526,288L589.474,231L568.421,285L547.368,273L526.316,285L505.263,258L484.211,288L463.158,285L442.105,294L421.053,297L400,267L378.947,291L357.895,291L336.842,279L315.789,276L294.737,291L273.684,288L252.632,288L231.579,261L210.526,285L189.474,297L168.421,297L147.368,285L126.316,300L105.263,300L84.211,300L63.158,300L42.105,300L21.053,300L0,300Z" fill="#b279a2"/></g></g><path class="foreground" aria-hidden="true" d="" display="none"/></g><g transform="translate(0,0)"><path class="background" aria-hidden="true" d="M0,0h800v300h-800Z"/><g><g class="mark-area role-mark marks" role="graphics-object" aria-roledescription="area mark container"><path aria-label="Date: Mar 16, 2026; Unique Clones/day: 0; Repository: karlmdavis/m2e-core" role="graphics-symbol" aria-roledescription="area mark" d="M0,300L21.053,300L42.105,300L63.158,300L84.211,300L105.263,300L126.316,300L147.368,285L168.421,297L189.474,297L210.526,285L231.579,261L252.632,288L273.684,288L294.737,291L315.789,276L336.842,279L357.895,291L378.947,291L400,267L421.053,297L442.105,294L463.158,285L484.211,288L505.263,258L526.316,285L547.368,273L568.421,285L589.474,231L610.526,288L631.579,288L652.632,291L673.684,294L694.737,297L715.789,291L736.842,267L757.895,294L778.947,297L800,267L800,270L778.947,297L757.895,294L736.842,270L715.789,291L694.737,297L673.684,294L652.632,291L631.579,288L610.526,288L589.474,237L568.421,285L547.368,276L526.316,288L505.263,264L484.211,291L463.158,288L442.105,294L421.053,297L400,270L378.947,291L357.895,291L336.842,279L315.789,276L294.737,291L273.684,291L252.632,288L231.579,264L210.526,285L189.474,297L168.421,297L147.368,285L126.316,300L105.263,300L84.211,300L63.158,300L42.105,300L21.053,300L0,300Z" fill="#ff9da6"/></g></g><path class="foreground" aria-hidden="true" d="" display="none"/></g><g transform="translate(0,0)"><path class="background" aria-hidden="true" d="M0,0h800v300h-800Z"/><g><g class="mark-area role-mark marks" role="graphics-object" aria-roledescription="area mark container"><path aria-label="Date: Mar 16, 2026; Unique Clones/day: 0; Repository: karlmdavis/m2e-core-tests" role="graphics-symbol" aria-roledescription="area mark" d="M0,300L21.053,300L42.105,300L63.158,300L84.211,300L105.263,300L126.316,300L147.368,285L168.421,297L189.474,297L210.526,285L231.579,264L252.632,288L273.684,291L294.737,291L315.789,276L336.842,279L357.895,291L378.947,291L400,270L421.053,297L442.105,294L463.158,288L484.211,291L505.263,264L526.316,288L547.368,276L568.421,285L589.474,237L610.526,288L631.579,288L652.632,291L673.684,294L694.737,297L715.789,291L736.842,270L757.895,294L778.947,297L800,270L800,270L778.947,297L757.895,294L736.842,270L715.789,291L694.737,297L673.684,294L652.632,291L631.579,288L610.526,288L589.474,237L568.421,288L547.368,276L526.316,294L505.263,267L484.211,294L463.158,291L442.105,294L421.053,297L400,270L378.947,291L357.895,291L336.842,285L315.789,276L294.737,291L273.684,291L252.632,291L231.579,264L210.526,288L189.474,297L168.421,297L147.368,285L126.316,300L105.263,300L84.211,300L63.158,300L42.105,300L21.053,300L0,300Z" fill="#9d755d"/></g></g><path class="foreground" aria-hidden="true" d="" display="none"/></g><g transform="translate(0,0)"><path class="background" aria-hidden="true" d="M0,0h800v300h-800Z"/><g><g class="mark-area role-mark marks" role="graphics-object" aria-roledescription="area mark container"><path aria-label="Date: Mar 16, 2026; Unique Clones/day: 0; Repository: karlmdavis/obsidian-operator" role="graphics-symbol" aria-roledescription="area mark" d="M0,300L21.053,300L42.105,300L63.158,300L84.211,300L105.263,300L126.316,300L147.368,285L168.421,297L189.474,297L210.526,288L231.579,264L252.632,291L273.684,291L294.737,291L315.789,276L336.842,285L357.895,291L378.947,291L400,270L421.053,297L442.105,294L463.158,291L484.211,294L505.263,267L526.316,294L547.368,276L568.421,288L589.474,237L610.526,288L631.579,288L652.632,291L673.684,294L694.737,297L715.789,291L736.842,270L757.895,294L778.947,297L800,270L800,273L778.947,297L757.895,294L736.842,273L715.789,297L694.737,297L673.684,294L652.632,291L631.579,294L610.526,291L589.474,243L568.421,291L547.368,282L526.316,294L505.263,270L484.211,294L463.158,291L442.105,294L421.053,297L400,273L378.947,297L357.895,291L336.842,285L315.789,285L294.737,291L273.684,291L252.632,291L231.579,267L210.526,288L189.474,297L168.421,297L147.368,288L126.316,300L105.263,300L84.211,300L63.158,300L42.105,300L21.053,300L0,300Z" fill="#bab0ac"/></g></g><path class="foreground" aria-hidden="true" d="" display="none"/></g><g transform="translate(0,0)"><path class="background" aria-hidden="true" d="M0,0h800v300h-800Z"/><g><g class="mark-area role-mark marks" role="graphics-object" aria-roledescription="area mark container"><path aria-label="Date: Mar 16, 2026; Unique Clones/day: 0; Repository: karlmdavis/perfect-note" role="graphics-symbol" aria-roledescription="area mark" d="M0,300L21.053,300L42.105,300L63.158,300L84.211,300L105.263,300L126.316,300L147.368,288L168.421,297L189.474,297L210.526,288L231.579,267L252.632,291L273.684,291L294.737,291L315.789,285L336.842,285L357.895,291L378.947,297L400,273L421.053,297L442.105,294L463.158,291L484.211,294L505.263,270L526.316,294L547.368,282L568.421,291L589.474,243L610.526,291L631.579,294L652.632,291L673.684,294L694.737,297L715.789,297L736.842,273L757.895,294L778.947,297L800,273L800,276L778.947,297L757.895,294L736.842,276L715.789,297L694.737,297L673.684,294L652.632,291L631.579,294L610.526,294L589.474,249L568.421,291L547.368,282L526.316,294L505.263,273L484.211,294L463.158,291L442.105,294L421.053,297L400,276L378.947,297L357.895,291L336.842,285L315.789,285L294.737,291L273.684,291L252.632,294L231.579,270L210.526,291L189.474,297L168.421,297L147.368,288L126.316,300L105.263,300L84.211,300L63.158,300L42.105,300L21.053,300L0,300Z" fill="#4c78a8"/></g></g><path class="foreground" aria-hidden="true" d="" display="none"/></g><g transform="translate(0,0)"><path class="background" aria-hidden="true" d="M0,0h800v300h-800Z"/><g><g class="mark-area role-mark marks" role="graphics-object" aria-roledescription="area mark container"><path aria-label="Date: Mar 16, 2026; Unique Clones/day: 0; Repository: karlmdavis/puppet-archive" role="graphics-symbol" aria-roledescription="area mark" d="M0,300L21.053,300L42.105,300L63.158,300L84.211,300L105.263,300L126.316,300L147.368,288L168.421,297L189.474,297L210.526,291L231.579,270L252.632,294L273.684,291L294.737,291L315.789,285L336.842,285L357.895,291L378.947,297L400,276L421.053,297L442.105,294L463.158,291L484.211,294L505.263,273L526.316,294L547.368,282L568.421,291L589.474,249L610.526,294L631.579,294L652.632,291L673.684,294L694.737,297L715.789,297L736.842,276L757.895,294L778.947,297L800,276L800,276L778.947,297L757.895,294L736.842,276L715.789,297L694.737,297L673.684,294L652.632,291L631.579,294L610.526,294L589.474,249L568.421,291L547.368,285L526.316,294L505.263,276L484.211,294L463.158,291L442.105,294L421.053,297L400,276L378.947,297L357.895,291L336.842,285L315.789,285L294.737,291L273.684,291L252.632,294L231.579,270L210.526,291L189.474,297L168.421,297L147.368,291L126.316,300L105.263,300L84.211,300L63.158,300L42.105,300L21.053,300L0,300Z" fill="#f58518"/></g></g><path class="foreground" aria-hidden="true" d="" display="none"/></g><g transform="translate(0,0)"><path class="background" aria-hidden="true" d="M0,0h800v300h-800Z"/><g><g class="mark-area role-mark marks" role="graphics-object" aria-roledescription="area mark container"><path aria-label="Date: Mar 16, 2026; Unique Clones/day: 0; Repository: karlmdavis/puppet-sonar" role="graphics-symbol" aria-roledescription="area mark" d="M0,300L21.053,300L42.105,300L63.158,300L84.211,300L105.263,300L126.316,300L147.368,291L168.421,297L189.474,297L210.526,291L231.579,270L252.632,294L273.684,291L294.737,291L315.789,285L336.842,285L357.895,291L378.947,297L400,276L421.053,297L442.105,294L463.158,291L484.211,294L505.263,276L526.316,294L547.368,285L568.421,291L589.474,249L610.526,294L631.579,294L652.632,291L673.684,294L694.737,297L715.789,297L736.842,276L757.895,294L778.947,297L800,276L800,279L778.947,297L757.895,297L736.842,276L715.789,297L694.737,297L673.684,294L652.632,291L631.579,294L610.526,297L589.474,249L568.421,291L547.368,288L526.316,294L505.263,276L484.211,297L463.158,294L442.105,294L421.053,297L400,276L378.947,297L357.895,294L336.842,285L315.789,291L294.737,291L273.684,291L252.632,297L231.579,270L210.526,291L189.474,297L168.421,297L147.368,291L126.316,300L105.263,300L84.211,300L63.158,300L42.105,300L21.053,300L0,300Z" fill="#e45756"/></g></g><path class="foreground" aria-hidden="true" d="" display="none"/></g><g transform="translate(0,0)"><path class="background" aria-hidden="true" d="M0,0h800v300h-800Z"/><g><g class="mark-area role-mark marks" role="graphics-object" aria-roledescription="area mark container"><path aria-label="Date: Mar 16, 2026; Unique Clones/day: 0; Repository: karlmdavis/rps-tourney" role="graphics-symbol" aria-roledescription="area mark" d="M0,300L21.053,300L42.105,300L63.158,300L84.211,300L105.263,300L126.316,300L147.368,291L168.421,297L189.474,297L210.526,291L231.579,270L252.632,297L273.684,291L294.737,291L315.789,291L336.842,285L357.895,294L378.947,297L400,276L421.053,297L442.105,294L463.158,294L484.211,297L505.263,276L526.316,294L547.368,288L568.421,291L589.474,249L610.526,297L631.579,294L652.632,291L673.684,294L694.737,297L715.789,297L736.842,276L757.895,297L778.947,297L800,279L800,282L778.947,297L757.895,297L736.842,279L715.789,297L694.737,297L673.684,294L652.632,291L631.579,294L610.526,297L589.474,255L568.421,291L547.368,291L526.316,294L505.263,279L484.211,297L463.158,294L442.105,294L421.053,297L400,279L378.947,297L357.895,297L336.842,285L315.789,291L294.737,291L273.684,291L252.632,297L231.579,273L210.526,291L189.474,297L168.421,297L147.368,294L126.316,300L105.263,300L84.211,300L63.158,300L42.105,300L21.053,300L0,300Z" fill="#72b7b2"/></g></g><path class="foreground" aria-hidden="true" d="" display="none"/></g><g transform="translate(0,0)"><path class="background" aria-hidden="true" d="M0,0h800v300h-800Z"/><g><g class="mark-area role-mark marks" role="graphics-object" aria-roledescription="area mark container"><path aria-label="Date: Mar 16, 2026; Unique Clones/day: 0; Repository: karlmdavis/sample-maven-and-rcp" role="graphics-symbol" aria-roledescription="area mark" d="M0,300L21.053,300L42.105,300L63.158,300L84.211,300L105.263,300L126.316,300L147.368,294L168.421,297L189.474,297L210.526,291L231.579,273L252.632,297L273.684,291L294.737,291L315.789,291L336.842,285L357.895,297L378.947,297L400,279L421.053,297L442.105,294L463.158,294L484.211,297L505.263,279L526.316,294L547.368,291L568.421,291L589.474,255L610.526,297L631.579,294L652.632,291L673.684,294L694.737,297L715.789,297L736.842,279L757.895,297L778.947,297L800,282L800,285L778.947,297L757.895,297L736.842,282L715.789,297L694.737,297L673.684,294L652.632,291L631.579,294L610.526,297L589.474,261L568.421,291L547.368,291L526.316,294L505.263,282L484.211,297L463.158,294L442.105,294L421.053,297L400,282L378.947,297L357.895,297L336.842,288L315.789,291L294.737,291L273.684,291L252.632,297L231.579,276L210.526,291L189.474,297L168.421,297L147.368,294L126.316,300L105.263,300L84.211,300L63.158,300L42.105,300L21.053,300L0,300Z" fill="#54a24b"/></g></g><path class="foreground" aria-hidden="true" d="" display="none"/></g><g transform="translate(0,0)"><path class="background" aria-hidden="true" d="M0,0h800v300h-800Z"/><g><g class="mark-area role-mark marks" role="graphics-object" aria-roledescription="area mark container"><path aria-label="Date: Mar 16, 2026; Unique Clones/day: 0; Repository: karlmdavis/stockfighter-trades-solutions" role="graphics-symbol" aria-roledescription="area mark" d="M0,300L21.053,300L42.105,300L63.158,300L84.211,300L105.263,300L126.316,300L147.368,294L168.421,297L189.474,297L210.526,291L231.579,276L252.632,297L273.684,291L294.737,291L315.789,291L336.842,288L357.895,297L378.947,297L400,282L421.053,297L442.105,294L463.158,294L484.211,297L505.263,282L526.316,294L547.368,291L568.421,291L589.474,261L610.526,297L631.579,294L652.632,291L673.684,294L694.737,297L715.789,297L736.842,282L757.895,297L778.947,297L800,285L800,288L778.947,297L757.895,297L736.842,285L715.789,297L694.737,297L673.684,294L652.632,291L631.579,294L610.526,297L589.474,270L568.421,291L547.368,291L526.316,294L505.263,285L484.211,297L463.158,294L442.105,294L421.053,297L400,285L378.947,297L357.895,297L336.842,288L315.789,291L294.737,291L273.684,294L252.632,297L231.579,282L210.526,291L189.474,297L168.421,297L147.368,294L126.316,300L105.263,300L84.211,300L63.158,300L42.105,300L21.053,300L0,300Z" fill="#eeca3b"/></g></g><path class="foreground" aria-hidden="true" d="" display="none"/></g><g transform="translate(0,0)"><path class="background" aria-hidden="true" d="M0,0h800v300h-800Z"/><g><g class="mark-area role-mark marks" role="graphics-object" aria-roledescription="area mark container"><path aria-label="Date: Mar 16, 2026; Unique Clones/day: 0; Repository: karlmdavis/test-repo-for-move" role="graphics-symbol" aria-roledescription="area mark" d="M0,300L21.053,300L42.105,300L63.158,300L84.211,300L105.263,300L126.316,300L147.368,294L168.421,297L189.474,297L210.526,291L231.579,282L252.632,297L273.684,294L294.737,291L315.789,291L336.842,288L357.895,297L378.947,297L400,285L421.053,297L442.105,294L463.158,294L484.211,297L505.263,285L526.316,294L547.368,291L568.421,291L589.474,270L610.526,297L631.579,294L652.632,291L673.684,294L694.737,297L715.789,297L736.842,285L757.895,297L778.947,297L800,288L800,291L778.947,297L757.895,297L736.842,288L715.789,297L694.737,297L673.684,294L652.632,294L631.579,294L610.526,297L589.474,276L568.421,291L547.368,291L526.316,294L505.263,288L484.211,297L463.158,294L442.105,294L421.053,297L400,288L378.947,297L357.895,297L336.842,288L315.789,291L294.737,291L273.684,297L252.632,297L231.579,285L210.526,294L189.474,297L168.421,297L147.368,294L126.316,300L105.263,300L84.211,300L63.158,300L42.105,300L21.053,300L0,300Z" fill="#b279a2"/></g></g><path class="foreground" aria-hidden="true" d="" display="none"/></g><g transform="translate(0,0)"><path class="background" aria-hidden="true" d="M0,0h800v300h-800Z"/><g><g class="mark-area role-mark marks" role="graphics-object" aria-roledescription="area mark container"><path aria-label="Date: Mar 16, 2026; Unique Clones/day: 0; Repository: karlmdavis/todoist-ai" role="graphics-symbol" aria-roledescription="area mark" d="M0,300L21.053,300L42.105,300L63.158,300L84.211,300L105.263,300L126.316,300L147.368,294L168.421,297L189.474,297L210.526,294L231.579,285L252.632,297L273.684,297L294.737,291L315.789,291L336.842,288L357.895,297L378.947,297L400,288L421.053,297L442.105,294L463.158,294L484.211,297L505.263,288L526.316,294L547.368,291L568.421,291L589.474,276L610.526,297L631.579,294L652.632,294L673.684,294L694.737,297L715.789,297L736.842,288L757.895,297L778.947,297L800,291L800,291L778.947,297L757.895,297L736.842,288L715.789,297L694.737,297L673.684,294L652.632,294L631.579,297L610.526,297L589.474,276L568.421,291L547.368,294L526.316,294L505.263,288L484.211,297L463.158,294L442.105,294L421.053,297L400,288L378.947,297L357.895,297L336.842,294L315.789,291L294.737,291L273.684,297L252.632,297L231.579,285L210.526,294L189.474,297L168.421,297L147.368,294L126.316,300L105.263,300L84.211,300L63.158,300L42.105,300L21.053,300L0,300Z" fill="#ff9da6"/></g></g><path class="foreground" aria-hidden="true" d="" display="none"/></g><g transform="translate(0,0)"><path class="background" aria-hidden="true" d="M0,0h800v300h-800Z"/><g><g class="mark-area role-mark marks" role="graphics-object" aria-roledescription="area mark container"><path aria-label="Date: Mar 16, 2026; Unique Clones/day: 0; Repository: karlmdavis/usgs-water-api-java" role="graphics-symbol" aria-roledescription="area mark" d="M0,300L21.053,300L42.105,300L63.158,300L84.211,300L105.263,300L126.316,300L147.368,294L168.421,297L189.474,297L210.526,294L231.579,285L252.632,297L273.684,297L294.737,291L315.789,291L336.842,294L357.895,297L378.947,297L400,288L421.053,297L442.105,294L463.158,294L484.211,297L505.263,288L526.316,294L547.368,294L568.421,291L589.474,276L610.526,297L631.579,297L652.632,294L673.684,294L694.737,297L715.789,297L736.842,288L757.895,297L778.947,297L800,291L800,297L778.947,300L757.895,300L736.842,294L715.789,300L694.737,300L673.684,297L652.632,300L631.579,300L610.526,300L589.474,285L568.421,300L547.368,297L526.316,297L505.263,294L484.211,300L463.158,297L442.105,300L421.053,300L400,294L378.947,300L357.895,300L336.842,297L315.789,294L294.737,297L273.684,300L252.632,300L231.579,291L210.526,300L189.474,300L168.421,300L147.368,300L126.316,300L105.263,300L84.211,300L63.158,300L42.105,300L21.053,300L0,300Z" fill="#9d755d"/></g></g><path class="foreground" aria-hidden="true" d="" display="none"/></g><g transform="translate(0,0)"><path class="background" aria-hidden="true" d="M0,0h800v300h-800Z"/><g><g class="mark-area role-mark marks" role="graphics-object" aria-roledescription="area mark container"><path aria-label="Date: Mar 16, 2026; Unique Clones/day: 0; Repository: karlmdavis/workstation-base-ansible-role" role="graphics-symbol" aria-roledescription="area mark" d="M0,300L21.053,300L42.105,300L63.158,300L84.211,300L105.263,300L126.316,300L147.368,300L168.421,300L189.474,300L210.526,300L231.579,291L252.632,300L273.684,300L294.737,297L315.789,294L336.842,297L357.895,300L378.947,300L400,294L421.053,300L442.105,300L463.158,297L484.211,300L505.263,294L526.316,297L547.368,297L568.421,300L589.474,285L610.526,300L631.579,300L652.632,300L673.684,297L694.737,300L715.789,300L736.842,294L757.895,300L778.947,300L800,297L800,297L778.947,300L757.895,300L736.842,297L715.789,300L694.737,300L673.684,297L652.632,300L631.579,300L610.526,300L589.474,294L568.421,300L547.368,300L526.316,297L505.263,297L484.211,300L463.158,297L442.105,300L421.053,300L400,297L378.947,300L357.895,300L336.842,300L315.789,297L294.737,300L273.684,300L252.632,300L231.579,297L210.526,300L189.474,300L168.421,300L147.368,300L126.316,300L105.263,300L84.211,300L63.158,300L42.105,300L21.053,300L0,300Z" fill="#bab0ac"/></g></g><path class="foreground" aria-hidden="true" d="" display="none"/></g><g transform="translate(0,0)"><path class="background" aria-hidden="true" d="M0,0h800v300h-800Z"/><g><g class="mark-area role-mark marks" role="graphics-object" aria-roledescription="area mark container"><path aria-label="Date: Mar 16, 2026; Unique Clones/day: 0; Repository: karlmdavis/xmlpull" role="graphics-symbol" aria-roledescription="area mark" d="M0,300L21.053,300L42.105,300L63.158,300L84.211,300L105.263,300L126.316,300L147.368,300L168.421,300L189.474,300L210.526,300L231.579,297L252.632,300L273.684,300L294.737,300L315.789,297L336.842,300L357.895,300L378.947,300L400,297L421.053,300L442.105,300L463.158,297L484.211,300L505.263,297L526.316,297L547.368,300L568.421,300L589.474,294L610.526,300L631.579,300L652.632,300L673.684,297L694.737,300L715.789,300L736.842,297L757.895,300L778.947,300L800,297L800,300L778.947,300L757.895,300L736.842,300L715.789,300L694.737,300L673.684,300L652.632,300L631.579,300L610.526,300L589.474,300L568.421,300L547.368,300L526.316,300L505.263,300L484.211,300L463.158,300L442.105,300L421.053,300L400,300L378.947,300L357.895,300L336.842,300L315.789,300L294.737,300L273.684,300L252.632,300L231.579,300L210.526,300L189.474,300L168.421,300L147.368,300L126.316,300L105.263,300L84.211,300L63.158,300L42.105,300L21.053,300L0,300Z" fill="#4c78a8"/></g></g><path class="foreground" aria-hidden="true" d="" display="none"/></g></g><g class="mark-group role-legend" role="graphics-symbol" aria-roledescription="legend" aria-label="Symbol legend titled 'Repository' for fill color with 41 values: karlmdavis/FHIR-Server, karlmdavis/ansible, karlmdavis/ansible-jenkins, karlmdavis/ansible-role-acmetool, karlmdavis/ansible-role-bind-dns, ending with karlmdavis/xmlpull"><g transform="translate(818,0)"><path class="background" aria-hidden="true" d="M0,0h176v404h-176Z" pointer-events="none"/><g><g class="mark-group role-legend-entry"><g transform="translate(0,16)"><path class="background" aria-hidden="true" d="M0,0h0v0h0Z" pointer-events="none"/><g><g class="mark-group role-scope" role="graphics-object" aria-roledescription="group mark container"><g transform="translate(0,0)"><path class="background" aria-hidden="true" d="M0,0h176v11h-176Z" pointer-events="none" opacity="1"/><g><g class="mark-symbol role-legend-symbol" pointer-events="none"><path transform="translate(6,6)" d="M5,0A5,5,0,1,1,-5,0A5,5,0,1,1,5,0" fill="#4c78a8" stroke-width="1.5" opacity="1"/></g><g class="mark-text role-legend-label" pointer-events="none"><text text-anchor="start" transform="translate(16,9)" font-family="sans-serif" font-size="10px" fill="#000" opacity="1">karlmdavis/FHIR-Server</text></g></g><path class="foreground" aria-hidden="true" d="" pointer-events="none" display="none"/></g><g transform="translate(0,13)"><path class="background" aria-hidden="true" d="M0,0h176v11h-176Z" pointer-events="none" opacity="1"/><g><g class="mark-symbol role-legend-symbol" pointer-events="none"><path transform="translate(6,6)" d="M5,0A5,5,0,1,1,-5,0A5,5,0,1,1,5,0" fill="#f58518" stroke-width="1.5" opacity="1"/></g><g class="mark-text role-legend-label" pointer-events="none"><text text-anchor="start" transform="translate(16,9)" font-family="sans-serif" font-size="10px" fill="#000" opacity="1">karlmdavis/ansible</text></g></g><path class="foreground" aria-hidden="true" d="" pointer-events="none" display="none"/></g><g transform="translate(0,26)"><path class="background" aria-hidden="true" d="M0,0h176v11h-176Z" pointer-events="none" opacity="1"/><g><g class="mark-symbol role-legend-symbol" pointer-events="none"><path transform="translate(6,6)" d="M5,0A5,5,0,1,1,-5,0A5,5,0,1,1,5,0" fill="#e45756" stroke-width="1.5" opacity="1"/></g><g class="mark-text role-legend-label" pointer-events="none"><text text-anchor="start" transform="translate(16,9)" font-family="sans-serif" font-size="10px" fill="#000" opacity="1">karlmdavis/ansible-jenkins</text></g></g><path class="foreground" aria-hidden="true" d="" pointer-events="none" display="none"/></g><g transform="translate(0,39)"><path class="background" aria-hidden="true" d="M0,0h176v11h-176Z" pointer-events="none" opacity="1"/><g><g class="mark-symbol role-legend-symbol" pointer-events="none"><path transform="translate(6,6)" d="M5,0A5,5,0,1,1,-5,0A5,5,0,1,1,5,0" fill="#72b7b2" stroke-width="1.5" opacity="1"/></g><g class="mark-text role-legend-label" pointer-events="none"><text text-anchor="start" transform="translate(16,9)" font-family="sans-serif" font-size="10px" fill="#000" opacity="1">karlmdavis/ansible-role-acmetool</text></g></g><path class="foreground" aria-hidden="true" d="" pointer-events="none" display="none"/></g><g transform="translate(0,52)"><path class="background" aria-hidden="true" d="M0,0h176v11h-176Z" pointer-events="none" opacity="1"/><g><g class="mark-symbol role-legend-symbol" pointer-events="none"><path transform="translate(6,6)" d="M5,0A5,5,0,1,1,-5,0A5,5,0,1,1,5,0" fill="#54a24b" stroke-width="1.5" opacity="1"/></g><g class="mark-text role-legend-label" pointer-events="none"><text text-anchor="start" transform="translate(16,9)" font-family="sans-serif" font-size="10px" fill="#000" opacity="1">karlmdavis/ansible-role-bind-dns</text></g></g><path class="foreground" aria-hidden="true" d="" pointer-events="none" display="none"/></g><g transform="translate(0,65)"><path class="background" aria-hidden="true" d="M0,0h176v11h-176Z" pointer-events="none" opacity="1"/><g><g class="mark-symbol role-legend-symbol" pointer-events="none"><path transform="translate(6,6)" d="M5,0A5,5,0,1,1,-5,0A5,5,0,1,1,5,0" fill="#eeca3b" stroke-width="1.5" opacity="1"/></g><g class="mark-text role-legend-label" pointer-events="none"><text text-anchor="start" transform="translate(16,9)" font-family="sans-serif" font-size="10px" fill="#000" opacity="1">karlmdavis/ansible-role-jenkins2</text></g></g><path class="foreground" aria-hidden="true" d="" pointer-events="none" display="none"/></g><g transform="translate(0,78)"><path class="background" aria-hidden="true" d="M0,0h176v11h-176Z" pointer-events="none" opacity="1"/><g><g class="mark-symbol role-legend-symbol" pointer-events="none"><path transform="translate(6,6)" d="M5,0A5,5,0,1,1,-5,0A5,5,0,1,1,5,0" fill="#b279a2" stroke-width="1.5" opacity="1"/></g><g class="mark-text role-legend-label" pointer-events="none"><text text-anchor="start" transform="translate(16,9)" font-family="sans-serif" font-size="10px" fill="#000" opacity="1">karlmdavis/ansible-role-ldap</text></g></g><path class="foreground" aria-hidden="true" d="" pointer-events="none" display="none"/></g><g transform="translate(0,91)"><path class="background" aria-hidden="true" d="M0,0h176v11h-176Z" pointer-events="none" opacity="1"/><g><g class="mark-symbol role-legend-symbol" pointer-events="none"><path transform="translate(6,6)" d="M5,0A5,5,0,1,1,-5,0A5,5,0,1,1,5,0" fill="#ff9da6" stroke-width="1.5" opacity="1"/></g><g class="mark-text role-legend-label" pointer-events="none"><text text-anchor="start" transform="translate(16,9)" font-family="sans-serif" font-size="10px" fill="#000" opacity="1">karlmdavis/ansible-role-rcm-dotfiles</text></g></g><path class="foreground" aria-hidden="true" d="" pointer-events="none" display="none"/></g><g transform="translate(0,104)"><path class="background" aria-hidden="true" d="M0,0h176v11h-176Z" pointer-events="none" opacity="1"/><g><g class="mark-symbol role-legend-symbol" pointer-events="none"><path transform="translate(6,6)" d="M5,0A5,5,0,1,1,-5,0A5,5,0,1,1,5,0" fill="#9d755d" stroke-width="1.5" opacity="1"/></g><g class="mark-text role-legend-label" pointer-events="none"><text text-anchor="start" transform="translate(16,9)" font-family="sans-serif" font-size="10px" fill="#000" opacity="1">karlmdavis/ansible-roles</text></g></g><path class="foreground" aria-hidden="true" d="" pointer-events="none" display="none"/></g><g transform="translate(0,117)"><path class="background" aria-hidden="true" d="M0,0h176v11h-176Z" pointer-events="none" opacity="1"/><g><g class="mark-symbol role-legend-symbol" pointer-events="none"><path transform="translate(6,6)" d="M5,0A5,5,0,1,1,-5,0A5,5,0,1,1,5,0" fill="#bab0ac" stroke-width="1.5" opacity="1"/></g><g class="mark-text role-legend-label" pointer-events="none"><text text-anchor="start" transform="translate(16,9)" font-family="sans-serif" font-size="10px" fill="#000" opacity="1">karlmdavis/bbonfhir-dev-infra-doc…</text></g></g><path class="foreground" aria-hidden="true" d="" pointer-events="none" display="none"/></g><g transform="translate(0,130)"><path class="background" aria-hidden="true" d="M0,0h176v11h-176Z" pointer-events="none" opacity="1"/><g><g class="mark-symbol role-legend-symbol" pointer-events="none"><path transform="translate(6,6)" d="M5,0A5,5,0,1,1,-5,0A5,5,0,1,1,5,0" fill="#4c78a8" stroke-width="1.5" opacity="1"/></g><g class="mark-text role-legend-label" pointer-events="none"><text text-anchor="start" transform="translate(16,9)" font-family="sans-serif" font-size="10px" fill="#000" opacity="1">karlmdavis/can-i-kayak-baltimore</text></g></g><path class="foreground" aria-hidden="true" d="" pointer-events="none" display="none"/></g><g transform="translate(0,143)"><path class="background" aria-hidden="true" d="M0,0h176v11h-176Z" pointer-events="none" opacity="1"/><g><g class="mark-symbol role-legend-symbol" pointer-events="none"><path transform="translate(6,6)" d="M5,0A5,5,0,1,1,-5,0A5,5,0,1,1,5,0" fill="#f58518" stroke-width="1.5" opacity="1"/></g><g class="mark-text role-legend-label" pointer-events="none"><text text-anchor="start" transform="translate(16,9)" font-family="sans-serif" font-size="10px" fill="#000" opacity="1">karlmdavis/datanucleus-test-jdo-1…</text></g></g><path class="foreground" aria-hidden="true" d="" pointer-events="none" display="none"/></g><g transform="translate(0,156)"><path class="background" aria-hidden="true" d="M0,0h176v11h-176Z" pointer-events="none" opacity="1"/><g><g class="mark-symbol role-legend-symbol" pointer-events="none"><path transform="translate(6,6)" d="M5,0A5,5,0,1,1,-5,0A5,5,0,1,1,5,0" fill="#e45756" stroke-width="1.5" opacity="1"/></g><g class="mark-text role-legend-label" pointer-events="none"><text text-anchor="start" transform="translate(16,9)" font-family="sans-serif" font-size="10px" fill="#000" opacity="1">karlmdavis/dotfiles</text></g></g><path class="foreground" aria-hidden="true" d="" pointer-events="none" display="none"/></g><g transform="translate(0,169)"><path class="background" aria-hidden="true" d="M0,0h176v11h-176Z" pointer-events="none" opacity="1"/><g><g class="mark-symbol role-legend-symbol" pointer-events="none"><path transform="translate(6,6)" d="M5,0A5,5,0,1,1,-5,0A5,5,0,1,1,5,0" fill="#72b7b2" stroke-width="1.5" opacity="1"/></g><g class="mark-text role-legend-label" pointer-events="none"><text text-anchor="start" transform="translate(16,9)" font-family="sans-serif" font-size="10px" fill="#000" opacity="1">karlmdavis/fhir-benchmarks</text></g></g><path class="foreground" aria-hidden="true" d="" pointer-events="none" display="none"/></g><g transform="translate(0,182)"><path class="background" aria-hidden="true" d="M0,0h176v11h-176Z" pointer-events="none" opacity="1"/><g><g class="mark-symbol role-legend-symbol" pointer-events="none"><path transform="translate(6,6)" d="M5,0A5,5,0,1,1,-5,0A5,5,0,1,1,5,0" fill="#54a24b" stroke-width="1.5" opacity="1"/></g><g class="mark-text role-legend-label" pointer-events="none"><text text-anchor="start" transform="translate(16,9)" font-family="sans-serif" font-size="10px" fill="#000" opacity="1">karlmdavis/hapi-fhir-jpaserver-sta…</text></g></g><path class="foreground" aria-hidden="true" d="" pointer-events="none" display="none"/></g><g transform="translate(0,195)"><path class="background" aria-hidden="true" d="M0,0h176v11h-176Z" pointer-events="none" opacity="1"/><g><g class="mark-symbol role-legend-symbol" pointer-events="none"><path transform="translate(6,6)" d="M5,0A5,5,0,1,1,-5,0A5,5,0,1,1,5,0" fill="#eeca3b" stroke-width="1.5" opacity="1"/></g><g class="mark-text role-legend-label" pointer-events="none"><text text-anchor="start" transform="translate(16,9)" font-family="sans-serif" font-size="10px" fill="#000" opacity="1">karlmdavis/hello-rust-actix</text></g></g><path class="foreground" aria-hidden="true" d="" pointer-events="none" display="none"/></g><g transform="translate(0,208)"><path class="background" aria-hidden="true" d="M0,0h176v11h-176Z" pointer-events="none" opacity="1"/><g><g class="mark-symbol role-legend-symbol" pointer-events="none"><path transform="translate(6,6)" d="M5,0A5,5,0,1,1,-5,0A5,5,0,1,1,5,0" fill="#b279a2" stroke-width="1.5" opacity="1"/></g><g class="mark-text role-legend-label" pointer-events="none"><text text-anchor="start" transform="translate(16,9)" font-family="sans-serif" font-size="10px" fill="#000" opacity="1">karlmdavis/jessentials</text></g></g><path class="foreground" aria-hidden="true" d="" pointer-events="none" display="none"/></g><g transform="translate(0,221)"><path class="background" aria-hidden="true" d="M0,0h176v11h-176Z" pointer-events="none" opacity="1"/><g><g class="mark-symbol role-legend-symbol" pointer-events="none"><path transform="translate(6,6)" d="M5,0A5,5,0,1,1,-5,0A5,5,0,1,1,5,0" fill="#ff9da6" stroke-width="1.5" opacity="1"/></g><g class="mark-text role-legend-label" pointer-events="none"><text text-anchor="start" transform="translate(16,9)" font-family="sans-serif" font-size="10px" fill="#000" opacity="1">karlmdavis/justdavis-ansible</text></g></g><path class="foreground" aria-hidden="true" d="" pointer-events="none" display="none"/></g><g transform="translate(0,234)"><path class="background" aria-hidden="true" d="M0,0h176v11h-176Z" pointer-events="none" opacity="1"/><g><g class="mark-symbol role-legend-symbol" pointer-events="none"><path transform="translate(6,6)" d="M5,0A5,5,0,1,1,-5,0A5,5,0,1,1,5,0" fill="#9d755d" stroke-width="1.5" opacity="1"/></g><g class="mark-text role-legend-label" pointer-events="none"><text text-anchor="start" transform="translate(16,9)" font-family="sans-serif" font-size="10px" fill="#000" opacity="1">karlmdavis/justdavis-finances</text></g></g><path class="foreground" aria-hidden="true" d="" pointer-events="none" display="none"/></g><g transform="translate(0,247)"><path class="background" aria-hidden="true" d="M0,0h176v11h-176Z" pointer-events="none" opacity="1"/><g><g class="mark-symbol role-legend-symbol" pointer-events="none"><path transform="translate(6,6)" d="M5,0A5,5,0,1,1,-5,0A5,5,0,1,1,5,0" fill="#bab0ac" stroke-width="1.5" opacity="1"/></g><g class="mark-text role-legend-label" pointer-events="none"><text text-anchor="start" transform="translate(16,9)" font-family="sans-serif" font-size="10px" fill="#000" opacity="1">karlmdavis/justdavis-karl</text></g></g><path class="foreground" aria-hidden="true" d="" pointer-events="none" display="none"/></g><g transform="translate(0,260)"><path class="background" aria-hidden="true" d="M0,0h176v11h-176Z" pointer-events="none" opacity="1"/><g><g class="mark-symbol role-legend-symbol" pointer-events="none"><path transform="translate(6,6)" d="M5,0A5,5,0,1,1,-5,0A5,5,0,1,1,5,0" fill="#4c78a8" stroke-width="1.5" opacity="1"/></g><g class="mark-text role-legend-label" pointer-events="none"><text text-anchor="start" transform="translate(16,9)" font-family="sans-serif" font-size="10px" fill="#000" opacity="1">karlmdavis/justdavis-puppet</text></g></g><path class="foreground" aria-hidden="true" d="" pointer-events="none" display="none"/></g><g transform="translate(0,273)"><path class="background" aria-hidden="true" d="M0,0h176v11h-176Z" pointer-events="none" opacity="1"/><g><g class="mark-symbol role-legend-symbol" pointer-events="none"><path transform="translate(6,6)" d="M5,0A5,5,0,1,1,-5,0A5,5,0,1,1,5,0" fill="#f58518" stroke-width="1.5" opacity="1"/></g><g class="mark-text role-legend-label" pointer-events="none"><text text-anchor="start" transform="translate(16,9)" font-family="sans-serif" font-size="10px" fill="#000" opacity="1">karlmdavis/kobjects</text></g></g><path class="foreground" aria-hidden="true" d="" pointer-events="none" display="none"/></g><g transform="translate(0,286)"><path class="background" aria-hidden="true" d="M0,0h176v11h-176Z" pointer-events="none" opacity="1"/><g><g class="mark-symbol role-legend-symbol" pointer-events="none"><path transform="translate(6,6)" d="M5,0A5,5,0,1,1,-5,0A5,5,0,1,1,5,0" fill="#e45756" stroke-width="1.5" opacity="1"/></g><g class="mark-text role-legend-label" pointer-events="none"><text text-anchor="start" transform="translate(16,9)" font-family="sans-serif" font-size="10px" fill="#000" opacity="1">karlmdavis/ksoap2-android</text></g></g><path class="foreground" aria-hidden="true" d="" pointer-events="none" display="none"/></g><g transform="translate(0,299)"><path class="background" aria-hidden="true" d="M0,0h176v11h-176Z" pointer-events="none" opacity="1"/><g><g class="mark-symbol role-legend-symbol" pointer-events="none"><path transform="translate(6,6)" d="M5,0A5,5,0,1,1,-5,0A5,5,0,1,1,5,0" fill="#72b7b2" stroke-width="1.5" opacity="1"/></g><g class="mark-text role-legend-label" pointer-events="none"><text text-anchor="start" transform="translate(16,9)" font-family="sans-serif" font-size="10px" fill="#000" opacity="1">karlmdavis/kxml2</text></g></g><path class="foreground" aria-hidden="true" d="" pointer-events="none" display="none"/></g><g transform="translate(0,312)"><path class="background" aria-hidden="true" d="M0,0h176v11h-176Z" pointer-events="none" opacity="1"/><g><g class="mark-symbol role-legend-symbol" pointer-events="none"><path transform="translate(6,6)" d="M5,0A5,5,0,1,1,-5,0A5,5,0,1,1,5,0" fill="#54a24b" stroke-width="1.5" opacity="1"/></g><g class="mark-text role-legend-label" pointer-events="none"><text text-anchor="start" transform="translate(16,9)" font-family="sans-serif" font-size="10px" fill="#000" opacity="1">karlmdavis/ldap-plugin</text></g></g><path class="foreground" aria-hidden="true" d="" pointer-events="none" display="none"/></g><g transform="translate(0,325)"><path class="background" aria-hidden="true" d="M0,0h176v11h-176Z" pointer-events="none" opacity="1"/><g><g class="mark-symbol role-legend-symbol" pointer-events="none"><path transform="translate(6,6)" d="M5,0A5,5,0,1,1,-5,0A5,5,0,1,1,5,0" fill="#eeca3b" stroke-width="1.5" opacity="1"/></g><g class="mark-text role-legend-label" pointer-events="none"><text text-anchor="start" transform="translate(16,9)" font-family="sans-serif" font-size="10px" fill="#000" opacity="1">karlmdavis/lego-ev3dev-rs</text></g></g><path class="foreground" aria-hidden="true" d="" pointer-events="none" display="none"/></g><g transform="translate(0,338)"><path class="background" aria-hidden="true" d="M0,0h176v11h-176Z" pointer-events="none" opacity="1"/><g><g class="mark-symbol role-legend-symbol" pointer-events="none"><path transform="translate(6,6)" d="M5,0A5,5,0,1,1,-5,0A5,5,0,1,1,5,0" fill="#b279a2" stroke-width="1.5" opacity="1"/></g><g class="mark-text role-legend-label" pointer-events="none"><text text-anchor="start" transform="translate(16,9)" font-family="sans-serif" font-size="10px" fill="#000" opacity="1">karlmdavis/liquibase</text></g></g><path class="foreground" aria-hidden="true" d="" pointer-events="none" display="none"/></g><g transform="translate(0,351)"><path class="background" aria-hidden="true" d="M0,0h176v11h-176Z" pointer-events="none" opacity="1"/><g><g class="mark-symbol role-legend-symbol" pointer-events="none"><path transform="translate(6,6)" d="M5,0A5,5,0,1,1,-5,0A5,5,0,1,1,5,0" fill="#ff9da6" stroke-width="1.5" opacity="1"/></g><g class="mark-text role-legend-label" pointer-events="none"><text text-anchor="start" transform="translate(16,9)" font-family="sans-serif" font-size="10px" fill="#000" opacity="1">karlmdavis/m2e-core</text></g></g><path class="foreground" aria-hidden="true" d="" pointer-events="none" display="none"/></g><g transform="translate(0,364)"><path class="background" aria-hidden="true" d="M0,0h176v11h-176Z" pointer-events="none" opacity="1"/><g><g class="mark-symbol role-legend-symbol" pointer-events="none"><path transform="translate(6,6)" d="M5,0A5,5,0,1,1,-5,0A5,5,0,1,1,5,0" fill="#9d755d" stroke-width="1.5" opacity="1"/></g><g class="mark-text role-legend-label" pointer-events="none"><text text-anchor="start" transform="translate(16,9)" font-family="sans-serif" font-size="10px" fill="#000" opacity="1">karlmdavis/m2e-core-tests</text></g></g><path class="foreground" aria-hidden="true" d="" pointer-events="none" display="none"/></g><g transform="translate(0,377)"><path class="background" aria-hidden="true" d="M0,0h176v11h-176Z" pointer-events="none" opacity="1"/><g><g class="mark-symbol role-legend-symbol" pointer-events="none"><path transform="translate(6,6)" d="M5,0A5,5,0,1,1,-5,0A5,5,0,1,1,5,0" fill="#bab0ac" stroke-width="1.5" opacity="1"/></g><g class="mark-text role-legend-label" pointer-events="none"><text text-anchor="start" transform="translate(16,9)" font-family="sans-serif" font-size="10px" fill="#000" opacity="1">…12 entries</text></g></g><path class="foreground" aria-hidden="true" d="" pointer-events="none" display="none"/></g></g></g><path class="foreground" aria-hidden="true" d="" pointer-events="none" display="none"/></g></g><g class="mark-text role-legend-title" pointer-events="none"><text text-anchor="start" transform="translate(0,9)" font-family="sans-serif" font-size="11px" font-weight="bold" fill="#000" opacity="1">Repository</text></g></g><path class="foreground" aria-hidden="true" d="" pointer-events="none" display="none"/></g></g><g class="mark-group role-title"><g transform="translate(400,-22)"><path class="background" aria-hidden="true" d="M0,0h0v0h0Z" pointer-events="none"/><g><g class="mark-text role-title-text" role="graphics-symbol" aria-roledescription="title" aria-label="Title text 'Unique Clones per Day'" pointer-events="none"><text text-anchor="middle" transform="translate(0,10)" font-family="sans-serif" font-size="13px" font-weight="bold" fill="#000" opacity="1">Unique Clones per Day</text></g></g><path class="foreground" aria-hidden="true" d="" pointer-events="none" display="none"/></g></g></g><path class="foreground" aria-hidden="true" d="" display="none"/></g></g></g></svg>