<svg xmlns="http://www.w3.org/2000/svg" xmlns:xlink="http://www.w3.org/1999/xlink" version="1.1" class="marks" width="1043" height="436" viewBox="0 0 1043 436"><rect width="1043" height="436" fill="white"/><g fill="none" stroke-miterlimit="10" transform="translate(44,27)"><g class="mark-group role-frame root" role="graphics-object" aria-roledescription="group mark container"><g transform="translate(0,0)"><path class="background" aria-hidden="true" d="M0.5,0.5h800v300h-800Z" stroke="#ddd"/><g><g class="mark-group role-axis" aria-hidden="true"><g transform="translate(0.5,300.5)"><path class="background" aria-hidden="true" d="M0,0h0v0h0Z" pointer-events="none"/><g><g class="mark-rule role-axis-grid" pointer-events="none"><line transform="translate(0,-300)" x2="0" y2="300" stroke="#ddd" stroke-width="1" opacity="1"/><line transform="translate(31,-300)" x2="0" y2="300" stroke="#ddd" stroke-width="1" opacity="1"/><line transform="translate(62,-300)" x2="0" y2="300" stroke="#ddd" stroke-width="1" opacity="1"/><line transform="translate(92,-300)" x2="0" y2="300" stroke="#ddd" stroke-width="1" opacity="1"/><line transform="translate(123,-300)" x2="0" y2="300" stroke="#ddd" stroke-width="1" opacity="1"/><line transform="translate(154,-300)" x2="0" y2="300" stroke="#ddd" stroke-width="1" opacity="1"/><line transform="translate(185,-300)" x2="0" y2="300" stroke="#ddd" stroke-width="1" opacity="1"/><line transform="translate(215,-300)" x2="0" y2="300" stroke="#ddd" stroke-width="1" opacity="1"/><line transform="translate(246,-300)" x2="0" y2="300" stroke="#ddd" stroke-width="1" opacity="1"/><line transform="translate(277,-300)" x2="0" y2="300" stroke="#ddd" stroke-width="1" opacity="1"/><line transform="translate(308,-300)" x2="0" y2="300" stroke="#ddd" stroke-width="1" opacity="1"/><line transform="translate(338,-300)" x2="0" y2="300" stroke="#ddd" stroke-width="1" opacity="1"/><line transform="translate(369,-300)" x2="0" y2="300" stroke="#ddd" stroke-width="1" opacity="1"/><line transform="translate(400,-300)" x2="0" y2="300" stroke="#ddd" stroke-width="1" opacity="1"/><line transform="translate(431,-300)" x2="0" y2="300" stroke="#ddd" stroke-width="1" opacity="1"/><line transform="translate(462,-300)" x2="0" y2="300" stroke="#ddd" stroke-width="1" opacity="1"/><line transform="translate(492,-300)" x2="0" y2="300" stroke="#ddd" stroke-width="1" opacity="1"/><line transform="translate(523,-300)" x2="0" y2="300" stroke="#ddd" stroke-width="1" opacity="1"/><line transform="translate(554,-300)" x2="0" y2="300" stroke="#ddd" stroke-width="1" opacity="1"/><line transform="translate(585,-300)" x2="0" y2="300" stroke="#ddd" stroke-width="1" opacity="1"/><line transform="translate(615,-300)" x2="0" y2="300" stroke="#ddd" stroke-width="1" opacity="1"/><line transform="translate(646,-300)" x2="0" y2="300" stroke="#ddd" stroke-width="1" opacity="1"/><line transform="translate(677,-300)" x2="0" y2="300" stroke="#ddd" stroke-width="1" opacity="1"/><line transform="translate(708,-300)" x2="0" y2="300" stroke="#ddd" stroke-width="1" opacity="1"/><line transform="translate(738,-300)" x2="0" y2="300" stroke="#ddd" stroke-width="1" opacity="1"/><line transform="translate(769,-300)" x2="0" y2="300" stroke="#ddd" stroke-width="1" opacity="1"/><line transform="translate(800,-300)" x2="0" y2="300" stroke="#ddd" stroke-width="1" opacity="1"/></g></g><path class="foreground" aria-hidden="true" d="" pointer-events="none" display="none"/></g></g><g class="mark-group role-axis" aria-hidden="true"><g transform="translate(0.5,0.5)"><path class="background" aria-hidden="true" d="M0,0h0v0h0Z" pointer-events="none"/><g><g class="mark-rule role-axis-grid" pointer-events="none"><line transform="translate(0,300)" x2="800" y2="0" stroke="#ddd" stroke-width="1" opacity="1"/><line transform="translate(0,270)" x2="800" y2="0" stroke="#ddd" stroke-width="1" opacity="1"/><line transform="translate(0,240)" x2="800" y2="0" stroke="#ddd" stroke-width="1" opacity="1"/><line transform="translate(0,210)" x2="800" y2="0" stroke="#ddd" stroke-width="1" opacity="1"/><line transform="translate(0,180)" x2="800" y2="0" stroke="#ddd" stroke-width="1" opacity="1"/><line transform="translate(0,150)" x2="800" y2="0" stroke="#ddd" stroke-width="1" opacity="1"/><line transform="translate(0,120)" x2="800" y2="0" stroke="#ddd" stroke-width="1" opacity="1"/><line transform="translate(0,90)" x2="800" y2="0" stroke="#ddd" stroke-width="1" opacity="1"/><line transform="translate(0,60)" x2="800" y2="0" stroke="#ddd" stroke-width="1" opacity="1"/><line transform="translate(0,30)" x2="800" y2="0" stroke="#ddd" stroke-width="1" opacity="1"/><line transform="translate(0,0)" x2="800" y2="0" stroke="#ddd" stroke-width="1" opacity="1"/></g></g><path class="foreground" aria-hidden="true" d="" pointer-events="none" display="none"/></g></g><g class="mark-group role-axis" role="graphics-symbol" aria-roledescription="axis" aria-label="X-axis titled 'Date' for a time scale with values from Monday, 16 March 2026, 12:00:00 AM to Saturday, 11 April 2026, 12:00:00 AM"><g transform="translate(0.5,300.5)"><path class="background" aria-hidden="true" d="M0,0h0v0h0Z" pointer-events="none"/><g><g class="mark-rule role-axis-tick" pointer-events="none"><line transform="translate(0,0)" x2="0" y2="5" stroke="#888" stroke-width="1" opacity="1"/><line transform="translate(31,0)" x2="0" y2="5" stroke="#888" stroke-width="1" opacity="1"/><line transform="translate(62,0)" x2="0" y2="5" stroke="#888" stroke-width="1" opacity="1"/><line transform="translate(92,0)" x2="0" y2="5" stroke="#888" stroke-width="1" opacity="1"/><line transform="translate(123,0)" x2="0" y2="5" stroke="#888" stroke-width="1" opacity="1"/><line transform="translate(154,0)" x2="0" y2="5" stroke="#888" stroke-width="1" opacity="1"/><line transform="translate(185,0)" x2="0" y2="5" stroke="#888" stroke-width="1" opacity="1"/><line transform="translate(215,0)" x2="0" y2="5" stroke="#888" stroke-width="1" opacity="1"/><line transform="translate(246,0)" x2="0" y2="5" stroke="#888" stroke-width="1" opacity="1"/><line transform="translate(277,0)" x2="0" y2="5" stroke="#888" stroke-width="1" opacity="1"/><line transform="translate(308,0)" x2="0" y2="5" stroke="#888" stroke-width="1" opacity="1"/><line transform="translate(338,0)" x2="0" y2="5" stroke="#888" stroke-width="1" opacity="1"/><line transform="translate(369,0)" x2="0" y2="5" stroke="#888" stroke-width="1" opacity="1"/><line transform="translate(400,0)" x2="0" y2="5" stroke="#888" stroke-width="1" opacity="1"/><line transform="translate(431,0)" x2="0" y2="5" stroke="#888" stroke-width="1" opacity="1"/><line transform="translate(462,0)" x2="0" y2="5" stroke="#888" stroke-width="1" opacity="1"/><line transform="translate(492,0)" x2="0" y2="5" stroke="#888" stroke-width="1" opacity="1"/><line transform="translate(523,0)" x2="0" y2="5" stroke="#888" stroke-width="1" opacity="1"/><line transform="translate(554,0)" x2="0" y2="5" stroke="#888" stroke-width="1" opacity="1"/><line transform="translate(585,0)" x2="0" y2="5" stroke="#888" stroke-width="1" opacity="1"/><line transform="translate(615,0)" x2="0" y2="5" stroke="#888" stroke-width="1" opacity="1"/><line transform="translate(646,0)" x2="0" y2="5" stroke="#888" stroke-width="1" opacity="1"/><line transform="translate(677,0)" x2="0" y2="5" stroke="#888" stroke-width="1" opacity="1"/><line transform="translate(708,0)" x2="0" y2="5" stroke="#888" stroke-width="1" opacity="1"/><line transform="translate(738,0)" x2="0" y2="5" stroke="#888" stroke-width="1" opacity="1"/><line transform="translate(769,0)" x2="0" y2="5" stroke="#888" stroke-width="1" opacity="1"/><line transform="translate(800,0)" x2="0" y2="5" stroke="#888" stroke-width="1" opacity="1"/></g><g class="mark-text role-axis-label" pointer-events="none"><text text-anchor="start" transform="translate(0,15)" font-family="sans-serif" font-size="10px" fill="#000" opacity="1">Mon 16</text><text text-anchor="middle" transform="translate(30.76923076923077,15)" font-family="sans-serif" font-size="10px" fill="#000" opacity="0">Tue 17</text><text text-anchor="middle" transform="translate(61.53846153846154,15)" font-family="sans-serif" font-size="10px" fill="#000" opacity="1">Wed 18</text><text text-anchor="middle" transform="translate(92.3076923076923,15)" font-family="sans-serif" font-size="10px" fill="#000" opacity="0">Thu 19</text><text text-anchor="middle" transform="translate(123.07692307692308,15)" font-family="sans-serif" font-size="10px" fill="#000" opacity="1">Fri 20</text><text text-anchor="middle" transform="translate(153.84615384615387,15)" font-family="sans-serif" font-size="10px" fill="#000" opacity="0">Sat 21</text><text text-anchor="middle" transform="translate(184.6153846153846,15)" font-family="sans-serif" font-size="10px" fill="#000" opacity="1">Mar 22</text><text text-anchor="middle" transform="translate(215.3846153846154,15)" font-family="sans-serif" font-size="10px" fill="#000" opacity="0">Mon 23</text><text text-anchor="middle" transform="translate(246.15384615384616,15)" font-family="sans-serif" font-size="10px" fill="#000" opacity="1">Tue 24</text><text text-anchor="middle" transform="translate(276.9230769230769,15)" font-family="sans-serif" font-size="10px" fill="#000" opacity="0">Wed 25</text><text text-anchor="middle" transform="translate(307.69230769230774,15)" font-family="sans-serif" font-size="10px" fill="#000" opacity="1">Thu 26</text><text text-anchor="middle" transform="translate(338.46153846153845,15)" font-family="sans-serif" font-size="10px" fill="#000" opacity="0">Fri 27</text><text text-anchor="middle" transform="translate(369.2307692307692,15)" font-family="sans-serif" font-size="10px" fill="#000" opacity="1">Sat 28</text><text text-anchor="middle" transform="translate(400,15)" font-family="sans-serif" font-size="10px" fill="#000" opacity="0">Mar 29</text><text text-anchor="middle" transform="translate(430.7692307692308,15)" font-family="sans-serif" font-size="10px" fill="#000" opacity="1">Mon 30</text><text text-anchor="middle" transform="translate(461.5384615384615,15)" font-family="sans-serif" font-size="10px" fill="#000" opacity="0">Tue 31</text><text text-anchor="middle" transform="translate(492.3076923076923,15)" font-family="sans-serif" font-size="10px" fill="#000" opacity="1">April</text><text text-anchor="middle" transform="translate(523.0769230769231,15)" font-family="sans-serif" font-size="10px" fill="#000" opacity="0">Thu 02</text><text text-anchor="middle" transform="translate(553.8461538461538,15)" font-family="sans-serif" font-size="10px" fill="#000" opacity="1">Fri 03</text><text text-anchor="middle" transform="translate(584.6153846153845,15)" font-family="sans-serif" font-size="10px" fill="#000" opacity="0">Sat 04</text><text text-anchor="middle" transform="translate(615.3846153846155,15)" font-family="sans-serif" font-size="10px" fill="#000" opacity="1">Apr 05</text><text text-anchor="middle" transform="translate(646.1538461538462,15)" font-family="sans-serif" font-size="10px" fill="#000" opacity="0">Mon 06</text><text text-anchor="middle" transform="translate(676.9230769230769,15)" font-family="sans-serif" font-size="10px" fill="#000" opacity="1">Tue 07</text><text text-anchor="middle" transform="translate(707.6923076923076,15)" font-family="sans-serif" font-size="10px" fill="#000" opacity="0">Wed 08</text><text text-anchor="middle" transform="translate(738.4615384615385,15)" font-family="sans-serif" font-size="10px" fill="#000" opacity="1">Thu 09</text><text text-anchor="middle" transform="translate(769.2307692307693,15)" font-family="sans-serif" font-size="10px" fill="#000" opacity="0">Fri 10</text><text text-anchor="end" transform="translate(800,15)" font-family="sans-serif" font-size="10px" fill="#000" opacity="1">Sat 11</text></g><g class="mark-rule role-axis-domain" pointer-events="none"><line transform="translate(0,0)" x2="800" y2="0" stroke="#888" stroke-width="1" opacity="1"/></g><g class="mark-text role-axis-title" pointer-events="none"><text text-anchor="middle" transform="translate(400,30)" font-family="sans-serif" font-size="11px" font-weight="bold" fill="#000" opacity="1">Date</text></g></g><path class="foreground" aria-hidden="true" d="" pointer-events="none" display="none"/></g></g><g class="mark-group role-axis" role="graphics-symbol" aria-roledescription="axis" aria-label="Y-axis titled 'Unique Clones/day' for a linear scale with values from 0 to 100"><g transform="translate(0.5,0.5)"><path class="background" aria-hidden="true" d="M0,0h0v0h0Z" pointer-events="none"/><g><g class="mark-rule role-axis-tick" pointer-events="none"><line transform="translate(0,300)" x2="-5" y2="0" stroke="#888" stroke-width="1" opacity="1"/><line transform="translate(0,270)" x2="-5" y2="0" stroke="#888" stroke-width="1" opacity="1"/><line transform="translate(0,240)" x2="-5" y2="0" stroke="#888" stroke-width="1" opacity="1"/><line transform="translate(0,210)" x2="-5" y2="0" stroke="#888" stroke-width="1" opacity="1"/><line transform="translate(0,180)" x2="-5" y2="0" stroke="#888" stroke-width="1" opacity="1"/><line transform="translate(0,150)" x2="-5" y2="0" stroke="#888" stroke-width="1" opacity="1"/><line transform="translate(0,120)" x2="-5" y2="0" stroke="#888" stroke-width="1" opacity="1"/><line transform="translate(0,90)" x2="-5" y2="0" stroke="#888" stroke-width="1" opacity="1"/><line transform="translate(0,60)" x2="-5" y2="0" stroke="#888" stroke-width="1" opacity="1"/><line transform="translate(0,30)" x2="-5" y2="0" stroke="#888" stroke-width="1" opacity="1"/><line transform="translate(0,0)" x2="-5" y2="0" stroke="#888" stroke-width="1" opacity="1"/></g><g class="mark-text role-axis-label" pointer-events="none"><text text-anchor="end" transform="translate(-7,303)" font-family="sans-serif" font-size="10px" fill="#000" opacity="1">0</text><text text-anchor="end" transform="translate(-7,273)" font-family="sans-serif" font-size="10px" fill="#000" opacity="1">10</text><text text-anchor="end" transform="translate(-7,243)" font-family="sans-serif" font-size="10px" fill="#000" opacity="1">20</text><text text-anchor="end" transform="translate(-7,213)" font-family="sans-serif" font-size="10px" fill="#000" opacity="1">30</text><text text-anchor="end" transform="translate(-7,183)" font-family="sans-serif" font-size="10px" fill="#000" opacity="1">40</text><text text-anchor="end" transform="translate(-7,153)" font-family="sans-serif" font-size="10px" fill="#000" opacity="1">50</text><text text-anchor="end" transform="translate(-7,123)" font-family="sans-serif" font-size="10px" fill="#000" opacity="1">60</text><text text-anchor="end" transform="translate(-7,93.00000000000001)" font-family="sans-serif" font-size="10px" fill="#000" opacity="1">70</text><text text-anchor="end" transform="translate(-7,62.999999999999986)" font-family="sans-serif" font-size="10px" fill="#000" opacity="1">80</text><text text-anchor="end" transform="translate(-7,32.99999999999999)" font-family="sans-serif" font-size="10px" fill="#000" opacity="1">90</text><text text-anchor="end" transform="translate(-7,3)" font-family="sans-serif" font-size="10px" fill="#000" opacity="1">100</text></g><g class="mark-rule role-axis-domain" pointer-events="none"><line transform="translate(0,300)" x2="0" y2="-300" stroke="#888" stroke-width="1" opacity="1"/></g><g class="mark-text role-axis-title" pointer-events="none"><text text-anchor="middle" transform="translate(-27.6845703125,150) rotate(-90) translate(0,-2)" font-family="sans-serif" font-size="11px" font-weight="bold" fill="#000" opacity="1">Unique Clones/day</text></g></g><path class="foreground" aria-hidden="true" d="" pointer-events="none" display="none"/></g></g><g class="mark-group role-scope pathgroup" role="graphics-object" aria-roledescription="group mark container"><g transform="translate(0,0)"><path class="background" aria-hidden="true" d="M0,0h800v300h-800Z"/><g><g class="mark-area role-mark marks" role="graphics-object" aria-roledescription="area mark container"><path aria-label="Date: Mar 16, 2026; Unique Clones/day: 0; Repository: karlmdavis/FHIR-Server" role="graphics-symbol" aria-roledescription="area mark" d="M0,297L30.769,300L61.538,300L92.308,297L123.077,300L153.846,300L184.615,300L215.385,264L246.154,294L276.923,279L307.692,252L338.462,93L369.231,162L400,12L430.769,201L461.538,231L492.308,246L523.077,270L553.846,213L584.615,36L615.385,57L646.154,261L676.923,210L707.692,213L738.462,177L769.231,264L800,252L800,258L769.231,264L738.462,177L707.692,213L676.923,210L646.154,261L615.385,57L584.615,36L553.846,213L523.077,270L492.308,246L461.538,234L430.769,201L400,12L369.231,162L338.462,93L307.692,252L276.923,279L246.154,294L215.385,264L184.615,300L153.846,300L123.077,300L92.308,297L61.538,300L30.769,300L0,297Z" fill="#4c78a8"/></g></g><path class="foreground" aria-hidden="true" d="" display="none"/></g><g transform="translate(0,0)"><path class="background" aria-hidden="true" d="M0,0h800v300h-800Z"/><g><g class="mark-area role-mark marks" role="graphics-object" aria-roledescription="area mark container"><path aria-label="Date: Mar 16, 2026; Unique Clones/day: 1; Repository: karlmdavis/ansible" role="graphics-symbol" aria-roledescription="area mark" d="M0,297L30.769,300L61.538,300L92.308,297L123.077,300L153.846,300L184.615,300L215.385,264L246.154,294L276.923,279L307.692,252L338.462,93L369.231,162L400,12L430.769,201L461.538,234L492.308,246L523.077,270L553.846,213L584.615,36L615.385,57L646.154,261L676.923,210L707.692,213L738.462,177L769.231,264L800,258L800,258L769.231,264L738.462,177L707.692,213L676.923,210L646.154,261L615.385,57L584.615,36L553.846,213L523.077,270L492.308,246L461.538,234L430.769,201L400,12L369.231,162L338.462,93L307.692,252L276.923,279L246.154,294L215.385,264L184.615,300L153.846,300L123.077,300L92.308,297L61.538,300L30.769,300L0,300Z" fill="#f58518"/></g></g><path class="foreground" aria-hidden="true" d="" display="none"/></g><g transform="translate(0,0)"><path class="background" aria-hidden="true" d="M0,0h800v300h-800Z"/><g><g class="mark-area role-mark marks" role="graphics-object" aria-roledescription="area mark container"><path aria-label="Date: Mar 16, 2026; Unique Clones/day: 0; Repository: karlmdavis/ansible-jenkins" role="graphics-symbol" aria-roledescription="area mark" d="M0,300L30.769,300L61.538,300L92.308,297L123.077,300L153.846,300L184.615,300L215.385,264L246.154,294L276.923,279L307.692,252L338.462,93L369.231,162L400,12L430.769,201L461.538,234L492.308,246L523.077,270L553.846,213L584.615,36L615.385,57L646.154,261L676.923,210L707.692,213L738.462,177L769.231,264L800,258L800,258L769.231,264L738.462,177L707.692,213L676.923,210L646.154,261L615.385,57L584.615,39L553.846,216L523.077,270L492.308,246L461.538,234L430.769,201L400,12L369.231,162L338.462,93L307.692,255L276.923,279L246.154,294L215.385,264L184.615,300L153.846,300L123.077,300L92.308,297L61.538,300L30.769,300L0,300Z" fill="#e45756"/></g></g><path class="foreground" aria-hidden="true" d="" display="none"/></g><g transform="translate(0,0)"><path class="background" aria-hidden="true" d="M0,0h800v300h-800Z"/><g><g class="mark-area role-mark marks" role="graphics-object" aria-roledescription="area mark container"><path aria-label="Date: Mar 16, 2026; Unique Clones/day: 0; Repository: karlmdavis/ansible-role-acmetool" role="graphics-symbol" aria-roledescription="area mark" d="M0,300L30.769,300L61.538,300L92.308,297L123.077,300L153.846,300L184.615,300L215.385,264L246.154,294L276.923,279L307.692,255L338.462,93L369.231,162L400,12L430.769,201L461.538,234L492.308,246L523.077,270L553.846,216L584.615,39L615.385,57L646.154,261L676.923,210L707.692,213L738.462,177L769.231,264L800,258L800,258L769.231,264L738.462,177L707.692,213L676.923,210L646.154,261L615.385,57L584.615,39L553.846,216L523.077,270L492.308,246L461.538,234L430.769,201L400,12L369.231,162L338.462,93L307.692,258L276.923,279L246.154,294L215.385,264L184.615,300L153.846,300L123.077,300L92.308,297L61.538,300L30.769,300L0,300Z" fill="#72b7b2"/></g></g><path class="foreground" aria-hidden="true" d="" display="none"/></g><g transform="translate(0,0)"><path class="background" aria-hidden="true" d="M0,0h800v300h-800Z"/><g><g class="mark-area role-mark marks" role="graphics-object" aria-roledescription="area mark container"><path aria-label="Date: Mar 16, 2026; Unique Clones/day: 0; Repository: karlmdavis/ansible-role-bind-dns" role="graphics-symbol" aria-roledescription="area mark" d="M0,300L30.769,300L61.538,300L92.308,297L123.077,300L153.846,300L184.615,300L215.385,264L246.154,294L276.923,279L307.692,258L338.462,93L369.231,162L400,12L430.769,201L461.538,234L492.308,246L523.077,270L553.846,216L584.615,39L615.385,57L646.154,261L676.923,210L707.692,213L738.462,177L769.231,264L800,258L800,258L769.231,264L738.462,180L707.692,216L676.923,210L646.154,261L615.385,57L584.615,42L553.846,216L523.077,270L492.308,255L461.538,234L430.769,204L400,15L369.231,162L338.462,99L307.692,258L276.923,279L246.154,294L215.385,264L184.615,300L153.846,300L123.077,300L92.308,297L61.538,300L30.769,300L0,300Z" fill="#54a24b"/></g></g><path class="foreground" aria-hidden="true" d="" display="none"/></g><g transform="translate(0,0)"><path class="background" aria-hidden="true" d="M0,0h800v300h-800Z"/><g><g class="mark-area role-mark marks" role="graphics-object" aria-roledescription="area mark container"><path aria-label="Date: Mar 16, 2026; Unique Clones/day: 0; Repository: karlmdavis/ansible-role-jenkins2" role="graphics-symbol" aria-roledescription="area mark" d="M0,300L30.769,300L61.538,300L92.308,297L123.077,300L153.846,300L184.615,300L215.385,264L246.154,294L276.923,279L307.692,258L338.462,99L369.231,162L400,15L430.769,204L461.538,234L492.308,255L523.077,270L553.846,216L584.615,42L615.385,57L646.154,261L676.923,210L707.692,216L738.462,180L769.231,264L800,258L800,258L769.231,270L738.462,195L707.692,216L676.923,210L646.154,261L615.385,60L584.615,48L553.846,219L523.077,273L492.308,258L461.538,237L430.769,204L400,15L369.231,165L338.462,102L307.692,261L276.923,282L246.154,297L215.385,264L184.615,300L153.846,300L123.077,300L92.308,297L61.538,300L30.769,300L0,300Z" fill="#eeca3b"/></g></g><path class="foreground" aria-hidden="true" d="" display="none"/></g><g transform="translate(0,0)"><path class="background" aria-hidden="true" d="M0,0h800v300h-800Z"/><g><g class="mark-area role-mark marks" role="graphics-object" aria-roledescription="area mark container"><path aria-label="Date: Mar 16, 2026; Unique Clones/day: 0; Repository: karlmdavis/ansible-role-ldap" role="graphics-symbol" aria-roledescription="area mark" d="M0,300L30.769,300L61.538,300L92.308,297L123.077,300L153.846,300L184.615,300L215.385,264L246.154,297L276.923,282L307.692,261L338.462,102L369.231,165L400,15L430.769,204L461.538,237L492.308,258L523.077,273L553.846,219L584.615,48L615.385,60L646.154,261L676.923,210L707.692,216L738.462,195L769.231,270L800,258L800,258L769.231,270L738.462,195L707.692,216L676.923,210L646.154,261L615.385,60L584.615,48L553.846,219L523.077,273L492.308,258L461.538,240L430.769,204L400,15L369.231,165L338.462,102L307.692,261L276.923,282L246.154,297L215.385,264L184.615,300L153.846,300L123.077,300L92.308,297L61.538,300L30.769,300L0,300Z" fill="#b279a2"/></g></g><path class="foreground" aria-hidden="true" d="" display="none"/></g><g transform="translate(0,0)"><path class="background" aria-hidden="true" d="M0,0h800v300h-800Z"/><g><g class="mark-area role-mark marks" role="graphics-object" aria-roledescription="area mark container"><path aria-label="Date: Mar 16, 2026; Unique Clones/day: 0; Repository: karlmdavis/ansible-role-rcm-dotfiles" role="graphics-symbol" aria-roledescription="area mark" d="M0,300L30.769,300L61.538,300L92.308,297L123.077,300L153.846,300L184.615,300L215.385,264L246.154,297L276.923,282L307.692,261L338.462,102L369.231,165L400,15L430.769,204L461.538,240L492.308,258L523.077,273L553.846,219L584.615,48L615.385,60L646.154,261L676.923,210L707.692,216L738.462,195L769.231,270L800,258L800,258L769.231,270L738.462,198L707.692,216L676.923,210L646.154,261L615.385,60L584.615,51L553.846,219L523.077,273L492.308,258L461.538,240L430.769,207L400,18L369.231,165L338.462,108L307.692,261L276.923,282L246.154,297L215.385,264L184.615,300L153.846,300L123.077,300L92.308,297L61.538,300L30.769,300L0,300Z" fill="#ff9da6"/></g></g><path class="foreground" aria-hidden="true" d="" display="none"/></g><g transform="translate(0,0)"><path class="background" aria-hidden="true" d="M0,0h800v300h-800Z"/><g><g class="mark-area role-mark marks" role="graphics-object" aria-roledescription="area mark container"><path aria-label="Date: Mar 16, 2026; Unique Clones/day: 0; Repository: karlmdavis/ansible-roles" role="graphics-symbol" aria-roledescription="area mark" d="M0,300L30.769,300L61.538,300L92.308,297L123.077,300L153.846,300L184.615,300L215.385,264L246.154,297L276.923,282L307.692,261L338.462,108L369.231,165L400,18L430.769,207L461.538,240L492.308,258L523.077,273L553.846,219L584.615,51L615.385,60L646.154,261L676.923,210L707.692,216L738.462,198L769.231,270L800,258L800,261L769.231,270L738.462,198L707.692,216L676.923,210L646.154,261L615.385,60L584.615,51L553.846,219L523.077,273L492.308,258L461.538,240L430.769,210L400,18L369.231,165L338.462,108L307.692,264L276.923,282L246.154,297L215.385,264L184.615,300L153.846,300L123.077,300L92.308,297L61.538,300L30.769,300L0,300Z" fill="#9d755d"/></g></g><path class="foreground" aria-hidden="true" d="" display="none"/></g><g transform="translate(0,0)"><path class="background" aria-hidden="true" d="M0,0h800v300h-800Z"/><g><g class="mark-area role-mark marks" role="graphics-object" aria-roledescription="area mark container"><path aria-label="Date: Mar 16, 2026; Unique Clones/day: 0; Repository: karlmdavis/bbonfhir-dev-infra-docker" role="graphics-symbol" aria-roledescription="area mark" d="M0,300L30.769,300L61.538,300L92.308,297L123.077,300L153.846,300L184.615,300L215.385,264L246.154,297L276.923,282L307.692,264L338.462,108L369.231,165L400,18L430.769,210L461.538,240L492.308,258L523.077,273L553.846,219L584.615,51L615.385,60L646.154,261L676.923,210L707.692,216L738.462,198L769.231,270L800,261L800,261L769.231,270L738.462,201L707.692,216L676.923,210L646.154,261L615.385,60L584.615,54L553.846,219L523.077,273L492.308,258L461.538,240L430.769,213L400,18L369.231,165L338.462,111L307.692,264L276.923,285L246.154,297L215.385,264L184.615,300L153.846,300L123.077,300L92.308,297L61.538,300L30.769,300L0,300Z" fill="#bab0ac"/></g></g><path class="foreground" aria-hidden="true" d="" display="none"/></g><g transform="translate(0,0)"><path class="background" aria-hidden="true" d="M0,0h800v300h-800Z"/><g><g class="mark-area role-mark marks" role="graphics-object" aria-roledescription="area mark container"><path aria-label="Date: Mar 16, 2026; Unique Clones/day: 0; Repository: karlmdavis/can-i-kayak-baltimore" role="graphics-symbol" aria-roledescription="area mark" d="M0,300L30.769,300L61.538,300L92.308,297L123.077,300L153.846,300L184.615,300L215.385,264L246.154,297L276.923,285L307.692,264L338.462,111L369.231,165L400,18L430.769,213L461.538,240L492.308,258L523.077,273L553.846,219L584.615,54L615.385,60L646.154,261L676.923,210L707.692,216L738.462,201L769.231,270L800,261L800,261L769.231,270L738.462,204L707.692,216L676.923,210L646.154,261L615.385,60L584.615,57L553.846,219L523.077,273L492.308,261L461.538,240L430.769,213L400,18L369.231,165L338.462,120L307.692,264L276.923,285L246.154,297L215.385,264L184.615,300L153.846,300L123.077,300L92.308,297L61.538,300L30.769,300L0,300Z" fill="#4c78a8"/></g></g><path class="foreground" aria-hidden="true" d="" display="none"/></g><g transform="translate(0,0)"><path class="background" aria-hidden="true" d="M0,0h800v300h-800Z"/><g><g class="mark-area role-mark marks" role="graphics-object" aria-roledescription="area mark container"><path aria-label="Date: Mar 16, 2026; Unique Clones/day: 0; Repository: karlmdavis/datanucleus-test-jdo-1-to-n" role="graphics-symbol" aria-roledescription="area mark" d="M0,300L30.769,300L61.538,300L92.308,297L123.077,300L153.846,300L184.615,300L215.385,264L246.154,297L276.923,285L307.692,264L338.462,120L369.231,165L400,18L430.769,213L461.538,240L492.308,261L523.077,273L553.846,219L584.615,57L615.385,60L646.154,261L676.923,210L707.692,216L738.462,204L769.231,270L800,261L800,261L769.231,270L738.462,204L707.692,216L676.923,210L646.154,261L615.385,60L584.615,57L553.846,219L523.077,273L492.308,261L461.538,240L430.769,213L400,18L369.231,168L338.462,120L307.692,264L276.923,285L246.154,297L215.385,264L184.615,300L153.846,300L123.077,300L92.308,297L61.538,300L30.769,300L0,300Z" fill="#f58518"/></g></g><path class="foreground" aria-hidden="true" d="" display="none"/></g><g transform="translate(0,0)"><path class="background" aria-hidden="true" d="M0,0h800v300h-800Z"/><g><g class="mark-area role-mark marks" role="graphics-object" aria-roledescription="area mark container"><path aria-label="Date: Mar 16, 2026; Unique Clones/day: 0; Repository: karlmdavis/dotfiles" role="graphics-symbol" aria-roledescription="area mark" d="M0,300L30.769,300L61.538,300L92.308,297L123.077,300L153.846,300L184.615,300L215.385,264L246.154,297L276.923,285L307.692,264L338.462,120L369.231,168L400,18L430.769,213L461.538,240L492.308,261L523.077,273L553.846,219L584.615,57L615.385,60L646.154,261L676.923,210L707.692,216L738.462,204L769.231,270L800,261L800,267L769.231,270L738.462,207L707.692,219L676.923,210L646.154,261L615.385,63L584.615,60L553.846,219L523.077,276L492.308,264L461.538,243L430.769,213L400,18L369.231,168L338.462,126L307.692,264L276.923,285L246.154,297L215.385,267L184.615,300L153.846,300L123.077,300L92.308,297L61.538,300L30.769,300L0,300Z" fill="#e45756"/></g></g><path class="foreground" aria-hidden="true" d="" display="none"/></g><g transform="translate(0,0)"><path class="background" aria-hidden="true" d="M0,0h800v300h-800Z"/><g><g class="mark-area role-mark marks" role="graphics-object" aria-roledescription="area mark container"><path aria-label="Date: Mar 16, 2026; Unique Clones/day: 0; Repository: karlmdavis/fhir-benchmarks" role="graphics-symbol" aria-roledescription="area mark" d="M0,300L30.769,300L61.538,300L92.308,297L123.077,300L153.846,300L184.615,300L215.385,267L246.154,297L276.923,285L307.692,264L338.462,126L369.231,168L400,18L430.769,213L461.538,243L492.308,264L523.077,276L553.846,219L584.615,60L615.385,63L646.154,261L676.923,210L707.692,219L738.462,207L769.231,270L800,267L800,267L769.231,270L738.462,213L707.692,240L676.923,213L646.154,261L615.385,66L584.615,63L553.846,222L523.077,276L492.308,267L461.538,249L430.769,216L400,21L369.231,168L338.462,132L307.692,264L276.923,288L246.154,297L215.385,270L184.615,300L153.846,300L123.077,300L92.308,297L61.538,300L30.769,300L0,300Z" fill="#72b7b2"/></g></g><path class="foreground" aria-hidden="true" d="" display="none"/></g><g transform="translate(0,0)"><path class="background" aria-hidden="true" d="M0,0h800v300h-800Z"/><g><g class="mark-area role-mark marks" role="graphics-object" aria-roledescription="area mark container"><path aria-label="Date: Mar 16, 2026; Unique Clones/day: 0; Repository: karlmdavis/hapi-fhir-jpaserver-starter" role="graphics-symbol" aria-roledescription="area mark" d="M0,300L30.769,300L61.538,300L92.308,297L123.077,300L153.846,300L184.615,300L215.385,270L246.154,297L276.923,288L307.692,264L338.462,132L369.231,168L400,21L430.769,216L461.538,249L492.308,267L523.077,276L553.846,222L584.615,63L615.385,66L646.154,261L676.923,213L707.692,240L738.462,213L769.231,270L800,267L800,267L769.231,270L738.462,213L707.692,240L676.923,213L646.154,261L615.385,66L584.615,63L553.846,225L523.077,279L492.308,267L461.538,249L430.769,216L400,21L369.231,168L338.462,132L307.692,267L276.923,288L246.154,297L215.385,270L184.615,300L153.846,300L123.077,300L92.308,297L61.538,300L30.769,300L0,300Z" fill="#54a24b"/></g></g><path class="foreground" aria-hidden="true" d="" display="none"/></g><g transform="translate(0,0)"><path class="background" aria-hidden="true" d="M0,0h800v300h-800Z"/><g><g class="mark-area role-mark marks" role="graphics-object" aria-roledescription="area mark container"><path aria-label="Date: Mar 16, 2026; Unique Clones/day: 0; Repository: karlmdavis/hello-rust-actix" role="graphics-symbol" aria-roledescription="area mark" d="M0,300L30.769,300L61.538,300L92.308,297L123.077,300L153.846,300L184.615,300L215.385,270L246.154,297L276.923,288L307.692,267L338.462,132L369.231,168L400,21L430.769,216L461.538,249L492.308,267L523.077,279L553.846,225L584.615,63L615.385,66L646.154,261L676.923,213L707.692,240L738.462,213L769.231,270L800,267L800,267L769.231,270L738.462,216L707.692,240L676.923,213L646.154,261L615.385,66L584.615,66L553.846,225L523.077,279L492.308,267L461.538,252L430.769,216L400,21L369.231,168L338.462,135L307.692,267L276.923,288L246.154,297L215.385,270L184.615,300L153.846,300L123.077,300L92.308,297L61.538,300L30.769,300L0,300Z" fill="#eeca3b"/></g></g><path class="foreground" aria-hidden="true" d="" display="none"/></g><g transform="translate(0,0)"><path class="background" aria-hidden="true" d="M0,0h800v300h-800Z"/><g><g class="mark-area role-mark marks" role="graphics-object" aria-roledescription="area mark container"><path aria-label="Date: Mar 16, 2026; Unique Clones/day: 0; Repository: karlmdavis/jessentials" role="graphics-symbol" aria-roledescription="area mark" d="M0,300L30.769,300L61.538,300L92.308,297L123.077,300L153.846,300L184.615,300L215.385,270L246.154,297L276.923,288L307.692,267L338.462,135L369.231,168L400,21L430.769,216L461.538,252L492.308,267L523.077,279L553.846,225L584.615,66L615.385,66L646.154,261L676.923,213L707.692,240L738.462,216L769.231,270L800,267L800,270L769.231,270L738.462,222L707.692,264L676.923,213L646.154,261L615.385,66L584.615,69L553.846,225L523.077,279L492.308,267L461.538,252L430.769,219L400,21L369.231,168L338.462,138L307.692,267L276.923,288L246.154,297L215.385,273L184.615,300L153.846,300L123.077,300L92.308,297L61.538,300L30.769,300L0,300Z" fill="#b279a2"/></g></g><path class="foreground" aria-hidden="true" d="" display="none"/></g><g transform="translate(0,0)"><path class="background" aria-hidden="true" d="M0,0h800v300h-800Z"/><g><g class="mark-area role-mark marks" role="graphics-object" aria-roledescription="area mark container"><path aria-label="Date: Mar 16, 2026; Unique Clones/day: 0; Repository: karlmdavis/justdavis-ansible" role="graphics-symbol" aria-roledescription="area mark" d="M0,300L30.769,300L61.538,300L92.308,297L123.077,300L153.846,300L184.615,300L215.385,273L246.154,297L276.923,288L307.692,267L338.462,138L369.231,168L400,21L430.769,219L461.538,252L492.308,267L523.077,279L553.846,225L584.615,69L615.385,66L646.154,261L676.923,213L707.692,264L738.462,222L769.231,270L800,270L800,270L769.231,273L738.462,225L707.692,264L676.923,213L646.154,261L615.385,66L584.615,72L553.846,225L523.077,279L492.308,270L461.538,252L430.769,219L400,21L369.231,171L338.462,141L307.692,267L276.923,291L246.154,297L215.385,273L184.615,300L153.846,300L123.077,300L92.308,297L61.538,300L30.769,300L0,300Z" fill="#ff9da6"/></g></g><path class="foreground" aria-hidden="true" d="" display="none"/></g><g transform="translate(0,0)"><path class="background" aria-hidden="true" d="M0,0h800v300h-800Z"/><g><g class="mark-area role-mark marks" role="graphics-object" aria-roledescription="area mark container"><path aria-label="Date: Mar 16, 2026; Unique Clones/day: 0; Repository: karlmdavis/justdavis-finances" role="graphics-symbol" aria-roledescription="area mark" d="M0,300L30.769,300L61.538,300L92.308,297L123.077,300L153.846,300L184.615,300L215.385,273L246.154,297L276.923,291L307.692,267L338.462,141L369.231,171L400,21L430.769,219L461.538,252L492.308,270L523.077,279L553.846,225L584.615,72L615.385,66L646.154,261L676.923,213L707.692,264L738.462,225L769.231,273L800,270L800,276L769.231,273L738.462,228L707.692,267L676.923,264L646.154,285L615.385,291L584.615,243L553.846,285L523.077,282L492.308,273L461.538,255L430.769,264L400,276L369.231,282L338.462,234L307.692,270L276.923,294L246.154,297L215.385,273L184.615,300L153.846,300L123.077,300L92.308,297L61.538,300L30.769,300L0,300Z" fill="#9d755d"/></g></g><path class="foreground" aria-hidden="true" d="" display="none"/></g><g transform="translate(0,0)"><path class="background" aria-hidden="true" d="M0,0h800v300h-800Z"/><g><g class="mark-area role-mark marks" role="graphics-object" aria-roledescription="area mark container"><path aria-label="Date: Mar 16, 2026; Unique Clones/day: 0; Repository: karlmdavis/justdavis-karl" role="graphics-symbol" aria-roledescription="area mark" d="M0,300L30.769,300L61.538,300L92.308,297L123.077,300L153.846,300L184.615,300L215.385,273L246.154,297L276.923,294L307.692,270L338.462,234L369.231,282L400,276L430.769,264L461.538,255L492.308,273L523.077,282L553.846,285L584.615,243L615.385,291L646.154,285L676.923,264L707.692,267L738.462,228L769.231,273L800,276L800,279L769.231,273L738.462,234L707.692,267L676.923,264L646.154,288L615.385,291L584.615,246L553.846,285L523.077,285L492.308,273L461.538,258L430.769,267L400,276L369.231,285L338.462,237L307.692,270L276.923,294L246.154,297L215.385,276L184.615,300L153.846,300L123.077,300L92.308,297L61.538,300L30.769,300L0,300Z" fill="#bab0ac"/></g></g><path class="foreground" aria-hidden="true" d="" display="none"/></g><g transform="translate(0,0)"><path class="background" aria-hidden="true" d="M0,0h800v300h-800Z"/><g><g class="mark-area role-mark marks" role="graphics-object" aria-roledescription="area mark container"><path aria-label="Date: Mar 16, 2026; Unique Clones/day: 0; Repository: karlmdavis/justdavis-puppet" role="graphics-symbol" aria-roledescription="area mark" d="M0,300L30.769,300L61.538,300L92.308,297L123.077,300L153.846,300L184.615,300L215.385,276L246.154,297L276.923,294L307.692,270L338.462,237L369.231,285L400,276L430.769,267L461.538,258L492.308,273L523.077,285L553.846,285L584.615,246L615.385,291L646.154,288L676.923,264L707.692,267L738.462,234L769.231,273L800,279L800,279L769.231,273L738.462,237L707.692,270L676.923,264L646.154,288L615.385,291L584.615,249L553.846,285L523.077,285L492.308,273L461.538,264L430.769,270L400,276L369.231,285L338.462,240L307.692,270L276.923,294L246.154,297L215.385,276L184.615,300L153.846,300L123.077,300L92.308,297L61.538,300L30.769,300L0,300Z" fill="#4c78a8"/></g></g><path class="foreground" aria-hidden="true" d="" display="none"/></g><g transform="translate(0,0)"><path class="background" aria-hidden="true" d="M0,0h800v300h-800Z"/><g><g class="mark-area role-mark marks" role="graphics-object" aria-roledescription="area mark container"><path aria-label="Date: Mar 16, 2026; Unique Clones/day: 0; Repository: karlmdavis/kobjects" role="graphics-symbol" aria-roledescription="area mark" d="M0,300L30.769,300L61.538,300L92.308,297L123.077,300L153.846,300L184.615,300L215.385,276L246.154,297L276.923,294L307.692,270L338.462,240L369.231,285L400,276L430.769,270L461.538,264L492.308,273L523.077,285L553.846,285L584.615,249L615.385,291L646.154,288L676.923,264L707.692,270L738.462,237L769.231,273L800,279L800,279L769.231,273L738.462,243L707.692,270L676.923,264L646.154,288L615.385,291L584.615,252L553.846,285L523.077,285L492.308,273L461.538,264L430.769,270L400,276L369.231,285L338.462,243L307.692,273L276.923,294L246.154,297L215.385,276L184.615,300L153.846,300L123.077,300L92.308,297L61.538,300L30.769,300L0,300Z" fill="#f58518"/></g></g><path class="foreground" aria-hidden="true" d="" display="none"/></g><g transform="translate(0,0)"><path class="background" aria-hidden="true" d="M0,0h800v300h-800Z"/><g><g class="mark-area role-mark marks" role="graphics-object" aria-roledescription="area mark container"><path aria-label="Date: Mar 16, 2026; Unique Clones/day: 0; Repository: karlmdavis/ksoap2-android" role="graphics-symbol" aria-roledescription="area mark" d="M0,300L30.769,300L61.538,300L92.308,297L123.077,300L153.846,300L184.615,300L215.385,276L246.154,297L276.923,294L307.692,273L338.462,243L369.231,285L400,276L430.769,270L461.538,264L492.308,273L523.077,285L553.846,285L584.615,252L615.385,291L646.154,288L676.923,264L707.692,270L738.462,243L769.231,273L800,279L800,279L769.231,282L738.462,246L707.692,288L676.923,279L646.154,291L615.385,291L584.615,261L553.846,285L523.077,288L492.308,276L461.538,267L430.769,282L400,282L369.231,285L338.462,246L307.692,282L276.923,294L246.154,297L215.385,279L184.615,300L153.846,300L123.077,300L92.308,297L61.538,300L30.769,300L0,300Z" fill="#e45756"/></g></g><path class="foreground" aria-hidden="true" d="" display="none"/></g><g transform="translate(0,0)"><path class="background" aria-hidden="true" d="M0,0h800v300h-800Z"/><g><g class="mark-area role-mark marks" role="graphics-object" aria-roledescription="area mark container"><path aria-label="Date: Mar 16, 2026; Unique Clones/day: 0; Repository: karlmdavis/kxml2" role="graphics-symbol" aria-roledescription="area mark" d="M0,300L30.769,300L61.538,300L92.308,297L123.077,300L153.846,300L184.615,300L215.385,279L246.154,297L276.923,294L307.692,282L338.462,246L369.231,285L400,282L430.769,282L461.538,267L492.308,276L523.077,288L553.846,285L584.615,261L615.385,291L646.154,291L676.923,279L707.692,288L738.462,246L769.231,282L800,279L800,279L769.231,282L738.462,249L707.692,288L676.923,282L646.154,294L615.385,294L584.615,264L553.846,285L523.077,288L492.308,276L461.538,270L430.769,291L400,285L369.231,285L338.462,252L307.692,285L276.923,294L246.154,297L215.385,282L184.615,300L153.846,300L123.077,300L92.308,297L61.538,300L30.769,300L0,300Z" fill="#72b7b2"/></g></g><path class="foreground" aria-hidden="true" d="" display="none"/></g><g transform="translate(0,0)"><path class="background" aria-hidden="true" d="M0,0h800v300h-800Z"/><g><g class="mark-area role-mark marks" role="graphics-object" aria-roledescription="area mark container"><path aria-label="Date: Mar 16, 2026; Unique Clones/day: 0; Repository: karlmdavis/ldap-plugin" role="graphics-symbol" aria-roledescription="area mark" d="M0,300L30.769,300L61.538,300L92.308,297L123.077,300L153.846,300L184.615,300L215.385,282L246.154,297L276.923,294L307.692,285L338.462,252L369.231,285L400,285L430.769,291L461.538,270L492.308,276L523.077,288L553.846,285L584.615,264L615.385,294L646.154,294L676.923,282L707.692,288L738.462,249L769.231,282L800,279L800,279L769.231,282L738.462,249L707.692,288L676.923,282L646.154,294L615.385,294L584.615,264L553.846,288L523.077,291L492.308,276L461.538,270L430.769,291L400,285L369.231,285L338.462,252L307.692,285L276.923,294L246.154,297L215.385,282L184.615,300L153.846,300L123.077,300L92.308,297L61.538,300L30.769,300L0,300Z" fill="#54a24b"/></g></g><path class="foreground" aria-hidden="true" d="" display="none"/></g><g transform="translate(0,0)"><path class="background" aria-hidden="true" d="M0,0h800v300h-800Z"/><g><g class="mark-area role-mark marks" role="graphics-object" aria-roledescription="area mark container"><path aria-label="Date: Mar 16, 2026; Unique Clones/day: 0; Repository: karlmdavis/lego-ev3dev-rs" role="graphics-symbol" aria-roledescription="area mark" d="M0,300L30.769,300L61.538,300L92.308,297L123.077,300L153.846,300L184.615,300L215.385,282L246.154,297L276.923,294L307.692,285L338.462,252L369.231,285L400,285L430.769,291L461.538,270L492.308,276L523.077,291L553.846,288L584.615,264L615.385,294L646.154,294L676.923,282L707.692,288L738.462,249L769.231,282L800,279L800,285L769.231,282L738.462,255L707.692,288L676.923,285L646.154,294L615.385,297L584.615,267L553.846,291L523.077,291L492.308,279L461.538,276L430.769,291L400,288L369.231,288L338.462,261L307.692,285L276.923,297L246.154,297L215.385,285L184.615,300L153.846,300L123.077,300L92.308,297L61.538,300L30.769,300L0,300Z" fill="#eeca3b"/></g></g><path class="foreground" aria-hidden="true" d="" display="none"/></g><g transform="translate(0,0)"><path class="background" aria-hidden="true" d="M0,0h800v300h-800Z"/><g><g class="mark-area role-mark marks" role="graphics-object" aria-roledescription="area mark container"><path aria-label="Date: Mar 16, 2026; Unique Clones/day: 0; Repository: karlmdavis/liquibase" role="graphics-symbol" aria-roledescription="area mark" d="M0,300L30.769,300L61.538,300L92.308,297L123.077,300L153.846,300L184.615,300L215.385,285L246.154,297L276.923,297L307.692,285L338.462,261L369.231,288L400,288L430.769,291L461.538,276L492.308,279L523.077,291L553.846,291L584.615,267L615.385,297L646.154,294L676.923,285L707.692,288L738.462,255L769.231,282L800,285L800,285L769.231,285L738.462,258L707.692,288L676.923,285L646.154,294L615.385,297L584.615,267L553.846,291L523.077,291L492.308,279L461.538,276L430.769,291L400,288L369.231,288L338.462,261L307.692,285L276.923,297L246.154,297L215.385,285L184.615,300L153.846,300L123.077,300L92.308,300L61.538,300L30.769,300L0,300Z" fill="#b279a2"/></g></g><path class="foreground" aria-hidden="true" d="" display="none"/></g><g transform="translate(0,0)"><path class="background" aria-hidden="true" d="M0,0h800v300h-800Z"/><g><g class="mark-area role-mark marks" role="graphics-object" aria-roledescription="area mark container"><path aria-label="Date: Mar 16, 2026; Unique Clones/day: 0; Repository: karlmdavis/m2e-core" role="graphics-symbol" aria-roledescription="area mark" d="M0,300L30.769,300L61.538,300L92.308,300L123.077,300L153.846,300L184.615,300L215.385,285L246.154,297L276.923,297L307.692,285L338.462,261L369.231,288L400,288L430.769,291L461.538,276L492.308,279L523.077,291L553.846,291L584.615,267L615.385,297L646.154,294L676.923,285L707.692,288L738.462,258L769.231,285L800,285L800,288L769.231,288L738.462,264L707.692,291L676.923,288L646.154,294L615.385,297L584.615,270L553.846,291L523.077,291L492.308,279L461.538,276L430.769,291L400,291L369.231,288L338.462,264L307.692,285L276.923,297L246.154,297L215.385,285L184.615,300L153.846,300L123.077,300L92.308,300L61.538,300L30.769,300L0,300Z" fill="#ff9da6"/></g></g><path class="foreground" aria-hidden="true" d="" display="none"/></g><g transform="translate(0,0)"><path class="background" aria-hidden="true" d="M0,0h800v300h-800Z"/><g><g class="mark-area role-mark marks" role="graphics-object" aria-roledescription="area mark container"><path aria-label="Date: Mar 16, 2026; Unique Clones/day: 0; Repository: karlmdavis/m2e-core-tests" role="graphics-symbol" aria-roledescription="area mark" d="M0,300L30.769,300L61.538,300L92.308,300L123.077,300L153.846,300L184.615,300L215.385,285L246.154,297L276.923,297L307.692,285L338.462,264L369.231,288L400,291L430.769,291L461.538,276L492.308,279L523.077,291L553.846,291L584.615,270L615.385,297L646.154,294L676.923,288L707.692,291L738.462,264L769.231,288L800,288L800,288L769.231,294L738.462,267L707.692,294L676.923,291L646.154,294L615.385,297L584.615,270L553.846,291L523.077,291L492.308,285L461.538,276L430.769,291L400,291L369.231,291L338.462,264L307.692,288L276.923,297L246.154,297L215.385,285L184.615,300L153.846,300L123.077,300L92.308,300L61.538,300L30.769,300L0,300Z" fill="#9d755d"/></g></g><path class="foreground" aria-hidden="true" d="" display="none"/></g><g transform="translate(0,0)"><path class="background" aria-hidden="true" d="M0,0h800v300h-800Z"/><g><g class="mark-area role-mark marks" role="graphics-object" aria-roledescription="area mark container"><path aria-label="Date: Mar 16, 2026; Unique Clones/day: 0; Repository: karlmdavis/obsidian-operator" role="graphics-symbol" aria-roledescription="area mark" d="M0,300L30.769,300L61.538,300L92.308,300L123.077,300L153.846,300L184.615,300L215.385,285L246.154,297L276.923,297L307.692,288L338.462,264L369.231,291L400,291L430.769,291L461.538,276L492.308,285L523.077,291L553.846,291L584.615,270L615.385,297L646.154,294L676.923,291L707.692,294L738.462,267L769.231,294L800,288L800,288L769.231,294L738.462,270L707.692,294L676.923,291L646.154,294L615.385,297L584.615,273L553.846,297L523.077,291L492.308,285L461.538,285L430.769,291L400,291L369.231,291L338.462,267L307.692,288L276.923,297L246.154,297L215.385,288L184.615,300L153.846,300L123.077,300L92.308,300L61.538,300L30.769,300L0,300Z" fill="#bab0ac"/></g></g><path class="foreground" aria-hidden="true" d="" display="none"/></g><g transform="translate(0,0)"><path class="background" aria-hidden="true" d="M0,0h800v300h-800Z"/><g><g class="mark-area role-mark marks" role="graphics-object" aria-roledescription="area mark container"><path aria-label="Date: Mar 16, 2026; Unique Clones/day: 0; Repository: karlmdavis/perfect-note" role="graphics-symbol" aria-roledescription="area mark" d="M0,300L30.769,300L61.538,300L92.308,300L123.077,300L153.846,300L184.615,300L215.385,288L246.154,297L276.923,297L307.692,288L338.462,267L369.231,291L400,291L430.769,291L461.538,285L492.308,285L523.077,291L553.846,297L584.615,273L615.385,297L646.154,294L676.923,291L707.692,294L738.462,270L769.231,294L800,288L800,288L769.231,294L738.462,273L707.692,294L676.923,291L646.154,294L615.385,297L584.615,276L553.846,297L523.077,291L492.308,285L461.538,285L430.769,291L400,291L369.231,294L338.462,270L307.692,291L276.923,297L246.154,297L215.385,288L184.615,300L153.846,300L123.077,300L92.308,300L61.538,300L30.769,300L0,300Z" fill="#4c78a8"/></g></g><path class="foreground" aria-hidden="true" d="" display="none"/></g><g transform="translate(0,0)"><path class="background" aria-hidden="true" d="M0,0h800v300h-800Z"/><g><g class="mark-area role-mark marks" role="graphics-object" aria-roledescription="area mark container"><path aria-label="Date: Mar 16, 2026; Unique Clones/day: 0; Repository: karlmdavis/puppet-archive" role="graphics-symbol" aria-roledescription="area mark" d="M0,300L30.769,300L61.538,300L92.308,300L123.077,300L153.846,300L184.615,300L215.385,288L246.154,297L276.923,297L307.692,291L338.462,270L369.231,294L400,291L430.769,291L461.538,285L492.308,285L523.077,291L553.846,297L584.615,276L615.385,297L646.154,294L676.923,291L707.692,294L738.462,273L769.231,294L800,288L800,291L769.231,294L738.462,276L707.692,294L676.923,291L646.154,294L615.385,297L584.615,276L553.846,297L523.077,291L492.308,285L461.538,285L430.769,291L400,291L369.231,294L338.462,270L307.692,291L276.923,297L246.154,297L215.385,291L184.615,300L153.846,300L123.077,300L92.308,300L61.538,300L30.769,300L0,300Z" fill="#f58518"/></g></g><path class="foreground" aria-hidden="true" d="" display="none"/></g><g transform="translate(0,0)"><path class="background" aria-hidden="true" d="M0,0h800v300h-800Z"/><g><g class="mark-area role-mark marks" role="graphics-object" aria-roledescription="area mark container"><path aria-label="Date: Mar 16, 2026; Unique Clones/day: 0; Repository: karlmdavis/puppet-sonar" role="graphics-symbol" aria-roledescription="area mark" d="M0,300L30.769,300L61.538,300L92.308,300L123.077,300L153.846,300L184.615,300L215.385,291L246.154,297L276.923,297L307.692,291L338.462,270L369.231,294L400,291L430.769,291L461.538,285L492.308,285L523.077,291L553.846,297L584.615,276L615.385,297L646.154,294L676.923,291L707.692,294L738.462,276L769.231,294L800,291L800,294L769.231,294L738.462,276L707.692,297L676.923,294L646.154,294L615.385,297L584.615,276L553.846,297L523.077,294L492.308,285L461.538,291L430.769,291L400,291L369.231,297L338.462,270L307.692,291L276.923,297L246.154,297L215.385,291L184.615,300L153.846,300L123.077,300L92.308,300L61.538,300L30.769,300L0,300Z" fill="#e45756"/></g></g><path class="foreground" aria-hidden="true" d="" display="none"/></g><g transform="translate(0,0)"><path class="background" aria-hidden="true" d="M0,0h800v300h-800Z"/><g><g class="mark-area role-mark marks" role="graphics-object" aria-roledescription="area mark container"><path aria-label="Date: Mar 16, 2026; Unique Clones/day: 0; Repository: karlmdavis/rps-tourney" role="graphics-symbol" aria-roledescription="area mark" d="M0,300L30.769,300L61.538,300L92.308,300L123.077,300L153.846,300L184.615,300L215.385,291L246.154,297L276.923,297L307.692,291L338.462,270L369.231,297L400,291L430.769,291L461.538,291L492.308,285L523.077,294L553.846,297L584.615,276L615.385,297L646.154,294L676.923,294L707.692,297L738.462,276L769.231,294L800,294L800,297L769.231,294L738.462,279L707.692,297L676.923,294L646.154,294L615.385,297L584.615,279L553.846,297L523.077,297L492.308,285L461.538,291L430.769,291L400,291L369.231,297L338.462,273L307.692,291L276.923,297L246.154,297L215.385,294L184.615,300L153.846,300L123.077,300L92.308,300L61.538,300L30.769,300L0,300Z" fill="#72b7b2"/></g></g><path class="foreground" aria-hidden="true" d="" display="none"/></g><g transform="translate(0,0)"><path class="background" aria-hidden="true" d="M0,0h800v300h-800Z"/><g><g class="mark-area role-mark marks" role="graphics-object" aria-roledescription="area mark container"><path aria-label="Date: Mar 16, 2026; Unique Clones/day: 0; Repository: karlmdavis/sample-maven-and-rcp" role="graphics-symbol" aria-roledescription="area mark" d="M0,300L30.769,300L61.538,300L92.308,300L123.077,300L153.846,300L184.615,300L215.385,294L246.154,297L276.923,297L307.692,291L338.462,273L369.231,297L400,291L430.769,291L461.538,291L492.308,285L523.077,297L553.846,297L584.615,279L615.385,297L646.154,294L676.923,294L707.692,297L738.462,279L769.231,294L800,297L800,297L769.231,294L738.462,282L707.692,297L676.923,294L646.154,294L615.385,297L584.615,282L553.846,297L523.077,297L492.308,288L461.538,291L430.769,291L400,291L369.231,297L338.462,276L307.692,291L276.923,297L246.154,297L215.385,294L184.615,300L153.846,300L123.077,300L92.308,300L61.538,300L30.769,300L0,300Z" fill="#54a24b"/></g></g><path class="foreground" aria-hidden="true" d="" display="none"/></g><g transform="translate(0,0)"><path class="background" aria-hidden="true" d="M0,0h800v300h-800Z"/><g><g class="mark-area role-mark marks" role="graphics-object" aria-roledescription="area mark container"><path aria-label="Date: Mar 16, 2026; Unique Clones/day: 0; Repository: karlmdavis/stockfighter-trades-solutions" role="graphics-symbol" aria-roledescription="area mark" d="M0,300L30.769,300L61.538,300L92.308,300L123.077,300L153.846,300L184.615,300L215.385,294L246.154,297L276.923,297L307.692,291L338.462,276L369.231,297L400,291L430.769,291L461.538,291L492.308,288L523.077,297L553.846,297L584.615,282L615.385,297L646.154,294L676.923,294L707.692,297L738.462,282L769.231,294L800,297L800,297L769.231,294L738.462,285L707.692,297L676.923,294L646.154,294L615.385,297L584.615,285L553.846,297L523.077,297L492.308,288L461.538,291L430.769,291L400,294L369.231,297L338.462,282L307.692,291L276.923,297L246.154,297L215.385,294L184.615,300L153.846,300L123.077,300L92.308,300L61.538,300L30.769,300L0,300Z" fill="#eeca3b"/></g></g><path class="foreground" aria-hidden="true" d="" display="none"/></g><g transform="translate(0,0)"><path class="background" aria-hidden="true" d="M0,0h800v300h-800Z"/><g><g class="mark-area role-mark marks" role="graphics-object" aria-roledescription="area mark container"><path aria-label="Date: Mar 16, 2026; Unique Clones/day: 0; Repository: karlmdavis/test-repo-for-move" role="graphics-symbol" aria-roledescription="area mark" d="M0,300L30.769,300L61.538,300L92.308,300L123.077,300L153.846,300L184.615,300L215.385,294L246.154,297L276.923,297L307.692,291L338.462,282L369.231,297L400,294L430.769,291L461.538,291L492.308,288L523.077,297L553.846,297L584.615,285L615.385,297L646.154,294L676.923,294L707.692,297L738.462,285L769.231,294L800,297L800,297L769.231,294L738.462,288L707.692,297L676.923,294L646.154,294L615.385,297L584.615,288L553.846,297L523.077,297L492.308,288L461.538,291L430.769,291L400,297L369.231,297L338.462,285L307.692,294L276.923,297L246.154,297L215.385,294L184.615,300L153.846,300L123.077,300L92.308,300L61.538,300L30.769,300L0,300Z" fill="#b279a2"/></g></g><path class="foreground" aria-hidden="true" d="" display="none"/></g><g transform="translate(0,0)"><path class="background" aria-hidden="true" d="M0,0h800v300h-800Z"/><g><g class="mark-area role-mark marks" role="graphics-object" aria-roledescription="area mark container"><path aria-label="Date: Mar 16, 2026; Unique Clones/day: 0; Repository: karlmdavis/todoist-ai" role="graphics-symbol" aria-roledescription="area mark" d="M0,300L30.769,300L61.538,300L92.308,300L123.077,300L153.846,300L184.615,300L215.385,294L246.154,297L276.923,297L307.692,294L338.462,285L369.231,297L400,297L430.769,291L461.538,291L492.308,288L523.077,297L553.846,297L584.615,288L615.385,297L646.154,294L676.923,294L707.692,297L738.462,288L769.231,294L800,297L800,300L769.231,294L738.462,288L707.692,297L676.923,294L646.154,294L615.385,297L584.615,288L553.846,297L523.077,297L492.308,294L461.538,291L430.769,291L400,297L369.231,297L338.462,285L307.692,294L276.923,297L246.154,297L215.385,294L184.615,300L153.846,300L123.077,300L92.308,300L61.538,300L30.769,300L0,300Z" fill="#ff9da6"/></g></g><path class="foreground" aria-hidden="true" d="" display="none"/></g><g transform="translate(0,0)"><path class="background" aria-hidden="true" d="M0,0h800v300h-800Z"/><g><g class="mark-area role-mark marks" role="graphics-object" aria-roledescription="area mark container"><path aria-label="Date: Mar 16, 2026; Unique Clones/day: 0; Repository: karlmdavis/usgs-water-api-java" role="graphics-symbol" aria-roledescription="area mark" d="M0,300L30.769,300L61.538,300L92.308,300L123.077,300L153.846,300L184.615,300L215.385,294L246.154,297L276.923,297L307.692,294L338.462,285L369.231,297L400,297L430.769,291L461.538,291L492.308,294L523.077,297L553.846,297L584.615,288L615.385,297L646.154,294L676.923,294L707.692,297L738.462,288L769.231,294L800,300L800,300L769.231,297L738.462,294L707.692,300L676.923,297L646.154,300L615.385,300L584.615,294L553.846,300L523.077,300L492.308,297L461.538,294L430.769,297L400,300L369.231,300L338.462,291L307.692,300L276.923,300L246.154,300L215.385,300L184.615,300L153.846,300L123.077,300L92.308,300L61.538,300L30.769,300L0,300Z" fill="#9d755d"/></g></g><path class="foreground" aria-hidden="true" d="" display="none"/></g><g transform="translate(0,0)"><path class="background" aria-hidden="true" d="M0,0h800v300h-800Z"/><g><g class="mark-area role-mark marks" role="graphics-object" aria-roledescription="area mark container"><path aria-label="Date: Mar 16, 2026; Unique Clones/day: 0; Repository: karlmdavis/workstation-base-ansible-role" role="graphics-symbol" aria-roledescription="area mark" d="M0,300L30.769,300L61.538,300L92.308,300L123.077,300L153.846,300L184.615,300L215.385,300L246.154,300L276.923,300L307.692,300L338.462,291L369.231,300L400,300L430.769,297L461.538,294L492.308,297L523.077,300L553.846,300L584.615,294L615.385,300L646.154,300L676.923,297L707.692,300L738.462,294L769.231,297L800,300L800,300L769.231,297L738.462,297L707.692,300L676.923,297L646.154,300L615.385,300L584.615,297L553.846,300L523.077,300L492.308,300L461.538,297L430.769,300L400,300L369.231,300L338.462,297L307.692,300L276.923,300L246.154,300L215.385,300L184.615,300L153.846,300L123.077,300L92.308,300L61.538,300L30.769,300L0,300Z" fill="#bab0ac"/></g></g><path class="foreground" aria-hidden="true" d="" display="none"/></g><g transform="translate(0,0)"><path class="background" aria-hidden="true" d="M0,0h800v300h-800Z"/><g><g class="mark-area role-mark marks" role="graphics-object" aria-roledescription="area mark container"><path aria-label="Date: Mar 16, 2026; Unique Clones/day: 0; Repository: karlmdavis/xmlpull" role="graphics-symbol" aria-roledescription="area mark" d="M0,300L30.769,300L61.538,300L92.308,300L123.077,300L153.846,300L184.615,300L215.385,300L246.154,300L276.923,300L307.692,300L338.462,297L369.231,300L400,300L430.769,300L461.538,297L492.308,300L523.077,300L553.846,300L584.615,297L615.385,300L646.154,300L676.923,297L707.692,300L738.462,297L769.231,297L800,300L800,300L769.231,300L738.462,300L707.692,300L676.923,300L646.154,300L615.385,300L584.615,300L553.846,300L523.077,300L492.308,300L461.538,300L430.769,300L400,300L369.231,300L338.462,300L307.692,300L276.923,300L246.154,300L215.385,300L184.615,300L153.846,300L123.077,300L92.308,300L61.538,300L30.769,300L0,300Z" fill="#4c78a8"/></g></g><path class="foreground" aria-hidden="true" d="" display="none"/></g></g><g class="mark-group role-legend" role="graphics-symbol" aria-roledescription="legend" aria-label="Symbol legend titled 'Repository' for fill color with 41 values: karlmdavis/FHIR-Server, karlmdavis/ansible, karlmdavis/ansible-jenkins, karlmdavis/ansible-role-acmetool, karlmdavis/ansible-role-bind-dns, ending with karlmdavis/xmlpull"><g transform="translate(818,0)"><path class="background" aria-hidden="true" d="M0,0h176v404h-176Z" pointer-events="none"/><g><g class="mark-group role-legend-entry"><g transform="translate(0,16)"><path class="background" aria-hidden="true" d="M0,0h0v0h0Z" pointer-events="none"/><g><g class="mark-group role-scope" role="graphics-object" aria-roledescription="group mark container"><g transform="translate(0,0)"><path class="background" aria-hidden="true" d="M0,0h176v11h-176Z" pointer-events="none" opacity="1"/><g><g class="mark-symbol role-legend-symbol" pointer-events="none"><path transform="translate(6,6)" d="M5,0A5,5,0,1,1,-5,0A5,5,0,1,1,5,0" fill="#4c78a8" stroke-width="1.5" opacity="1"/></g><g class="mark-text role-legend-label" pointer-events="none"><text text-anchor="start" transform="translate(16,9)" font-family="sans-serif" font-size="10px" fill="#000" opacity="1">karlmdavis/FHIR-Server</text></g></g><path class="foreground" aria-hidden="true" d="" pointer-events="none" display="none"/></g><g transform="translate(0,13)"><path class="background" aria-hidden="true" d="M0,0h176v11h-176Z" pointer-events="none" opacity="1"/><g><g class="mark-symbol role-legend-symbol" pointer-events="none"><path transform="translate(6,6)" d="M5,0A5,5,0,1,1,-5,0A5,5,0,1,1,5,0" fill="#f58518" stroke-width="1.5" opacity="1"/></g><g class="mark-text role-legend-label" pointer-events="none"><text text-anchor="start" transform="translate(16,9)" font-family="sans-serif" font-size="10px" fill="#000" opacity="1">karlmdavis/ansible</text></g></g><path class="foreground" aria-hidden="true" d="" pointer-events="none" display="none"/></g><g transform="translate(0,26)"><path class="background" aria-hidden="true" d="M0,0h176v11h-176Z" pointer-events="none" opacity="1"/><g><g class="mark-symbol role-legend-symbol" pointer-events="none"><path transform="translate(6,6)" d="M5,0A5,5,0,1,1,-5,0A5,5,0,1,1,5,0" fill="#e45756" stroke-width="1.5" opacity="1"/></g><g class="mark-text role-legend-label" pointer-events="none"><text text-anchor="start" transform="translate(16,9)" font-family="sans-serif" font-size="10px" fill="#000" opacity="1">karlmdavis/ansible-jenkins</text></g></g><path class="foreground" aria-hidden="true" d="" pointer-events="none" display="none"/></g><g transform="translate(0,39)"><path class="background" aria-hidden="true" d="M0,0h176v11h-176Z" pointer-events="none" opacity="1"/><g><g class="mark-symbol role-legend-symbol" pointer-events="none"><path transform="translate(6,6)" d="M5,0A5,5,0,1,1,-5,0A5,5,0,1,1,5,0" fill="#72b7b2" stroke-width="1.5" opacity="1"/></g><g class="mark-text role-legend-label" pointer-events="none"><text text-anchor="start" transform="translate(16,9)" font-family="sans-serif" font-size="10px" fill="#000" opacity="1">karlmdavis/ansible-role-acmetool</text></g></g><path class="foreground" aria-hidden="true" d="" pointer-events="none" display="none"/></g><g transform="translate(0,52)"><path class="background" aria-hidden="true" d="M0,0h176v11h-176Z" pointer-events="none" opacity="1"/><g><g class="mark-symbol role-legend-symbol" pointer-events="none"><path transform="translate(6,6)" d="M5,0A5,5,0,1,1,-5,0A5,5,0,1,1,5,0" fill="#54a24b" stroke-width="1.5" opacity="1"/></g><g class="mark-text role-legend-label" pointer-events="none"><text text-anchor="start" transform="translate(16,9)" font-family="sans-serif" font-size="10px" fill="#000" opacity="1">karlmdavis/ansible-role-bind-dns</text></g></g><path class="foreground" aria-hidden="true" d="" pointer-events="none" display="none"/></g><g transform="translate(0,65)"><path class="background" aria-hidden="true" d="M0,0h176v11h-176Z" pointer-events="none" opacity="1"/><g><g class="mark-symbol role-legend-symbol" pointer-events="none"><path transform="translate(6,6)" d="M5,0A5,5,0,1,1,-5,0A5,5,0,1,1,5,0" fill="#eeca3b" stroke-width="1.5" opacity="1"/></g><g class="mark-text role-legend-label" pointer-events="none"><text text-anchor="start" transform="translate(16,9)" font-family="sans-serif" font-size="10px" fill="#000" opacity="1">karlmdavis/ansible-role-jenkins2</text></g></g><path class="foreground" aria-hidden="true" d="" pointer-events="none" display="none"/></g><g transform="translate(0,78)"><path class="background" aria-hidden="true" d="M0,0h176v11h-176Z" pointer-events="none" opacity="1"/><g><g class="mark-symbol role-legend-symbol" pointer-events="none"><path transform="translate(6,6)" d="M5,0A5,5,0,1,1,-5,0A5,5,0,1,1,5,0" fill="#b279a2" stroke-width="1.5" opacity="1"/></g><g class="mark-text role-legend-label" pointer-events="none"><text text-anchor="start" transform="translate(16,9)" font-family="sans-serif" font-size="10px" fill="#000" opacity="1">karlmdavis/ansible-role-ldap</text></g></g><path class="foreground" aria-hidden="true" d="" pointer-events="none" display="none"/></g><g transform="translate(0,91)"><path class="background" aria-hidden="true" d="M0,0h176v11h-176Z" pointer-events="none" opacity="1"/><g><g class="mark-symbol role-legend-symbol" pointer-events="none"><path transform="translate(6,6)" d="M5,0A5,5,0,1,1,-5,0A5,5,0,1,1,5,0" fill="#ff9da6" stroke-width="1.5" opacity="1"/></g><g class="mark-text role-legend-label" pointer-events="none"><text text-anchor="start" transform="translate(16,9)" font-family="sans-serif" font-size="10px" fill="#000" opacity="1">karlmdavis/ansible-role-rcm-dotfiles</text></g></g><path class="foreground" aria-hidden="true" d="" pointer-events="none" display="none"/></g><g transform="translate(0,104)"><path class="background" aria-hidden="true" d="M0,0h176v11h-176Z" pointer-events="none" opacity="1"/><g><g class="mark-symbol role-legend-symbol" pointer-events="none"><path transform="translate(6,6)" d="M5,0A5,5,0,1,1,-5,0A5,5,0,1,1,5,0" fill="#9d755d" stroke-width="1.5" opacity="1"/></g><g class="mark-text role-legend-label" pointer-events="none"><text text-anchor="start" transform="translate(16,9)" font-family="sans-serif" font-size="10px" fill="#000" opacity="1">karlmdavis/ansible-roles</text></g></g><path class="foreground" aria-hidden="true" d="" pointer-events="none" display="none"/></g><g transform="translate(0,117)"><path class="background" aria-hidden="true" d="M0,0h176v11h-176Z" pointer-events="none" opacity="1"/><g><g class="mark-symbol role-legend-symbol" pointer-events="none"><path transform="translate(6,6)" d="M5,0A5,5,0,1,1,-5,0A5,5,0,1,1,5,0" fill="#bab0ac" stroke-width="1.5" opacity="1"/></g><g class="mark-text role-legend-label" pointer-events="none"><text text-anchor="start" transform="translate(16,9)" font-family="sans-serif" font-size="10px" fill="#000" opacity="1">karlmdavis/bbonfhir-dev-infra-doc…</text></g></g><path class="foreground" aria-hidden="true" d="" pointer-events="none" display="none"/></g><g transform="translate(0,130)"><path class="background" aria-hidden="true" d="M0,0h176v11h-176Z" pointer-events="none" opacity="1"/><g><g class="mark-symbol role-legend-symbol" pointer-events="none"><path transform="translate(6,6)" d="M5,0A5,5,0,1,1,-5,0A5,5,0,1,1,5,0" fill="#4c78a8" stroke-width="1.5" opacity="1"/></g><g class="mark-text role-legend-label" pointer-events="none"><text text-anchor="start" transform="translate(16,9)" font-family="sans-serif" font-size="10px" fill="#000" opacity="1">karlmdavis/can-i-kayak-baltimore</text></g></g><path class="foreground" aria-hidden="true" d="" pointer-events="none" display="none"/></g><g transform="translate(0,143)"><path class="background" aria-hidden="true" d="M0,0h176v11h-176Z" pointer-events="none" opacity="1"/><g><g class="mark-symbol role-legend-symbol" pointer-events="none"><path transform="translate(6,6)" d="M5,0A5,5,0,1,1,-5,0A5,5,0,1,1,5,0" fill="#f58518" stroke-width="1.5" opacity="1"/></g><g class="mark-text role-legend-label" pointer-events="none"><text text-anchor="start" transform="translate(16,9)" font-family="sans-serif" font-size="10px" fill="#000" opacity="1">karlmdavis/datanucleus-test-jdo-1…</text></g></g><path class="foreground" aria-hidden="true" d="" pointer-events="none" display="none"/></g><g transform="translate(0,156)"><path class="background" aria-hidden="true" d="M0,0h176v11h-176Z" pointer-events="none" opacity="1"/><g><g class="mark-symbol role-legend-symbol" pointer-events="none"><path transform="translate(6,6)" d="M5,0A5,5,0,1,1,-5,0A5,5,0,1,1,5,0" fill="#e45756" stroke-width="1.5" opacity="1"/></g><g class="mark-text role-legend-label" pointer-events="none"><text text-anchor="start" transform="translate(16,9)" font-family="sans-serif" font-size="10px" fill="#000" opacity="1">karlmdavis/dotfiles</text></g></g><path class="foreground" aria-hidden="true" d="" pointer-events="none" display="none"/></g><g transform="translate(0,169)"><path class="background" aria-hidden="true" d="M0,0h176v11h-176Z" pointer-events="none" opacity="1"/><g><g class="mark-symbol role-legend-symbol" pointer-events="none"><path transform="translate(6,6)" d="M5,0A5,5,0,1,1,-5,0A5,5,0,1,1,5,0" fill="#72b7b2" stroke-width="1.5" opacity="1"/></g><g class="mark-text role-legend-label" pointer-events="none"><text text-anchor="start" transform="translate(16,9)" font-family="sans-serif" font-size="10px" fill="#000" opacity="1">karlmdavis/fhir-benchmarks</text></g></g><path class="foreground" aria-hidden="true" d="" pointer-events="none" display="none"/></g><g transform="translate(0,182)"><path class="background" aria-hidden="true" d="M0,0h176v11h-176Z" pointer-events="none" opacity="1"/><g><g class="mark-symbol role-legend-symbol" pointer-events="none"><path transform="translate(6,6)" d="M5,0A5,5,0,1,1,-5,0A5,5,0,1,1,5,0" fill="#54a24b" stroke-width="1.5" opacity="1"/></g><g class="mark-text role-legend-label" pointer-events="none"><text text-anchor="start" transform="translate(16,9)" font-family="sans-serif" font-size="10px" fill="#000" opacity="1">karlmdavis/hapi-fhir-jpaserver-sta…</text></g></g><path class="foreground" aria-hidden="true" d="" pointer-events="none" display="none"/></g><g transform="translate(0,195)"><path class="background" aria-hidden="true" d="M0,0h176v11h-176Z" pointer-events="none" opacity="1"/><g><g class="mark-symbol role-legend-symbol" pointer-events="none"><path transform="translate(6,6)" d="M5,0A5,5,0,1,1,-5,0A5,5,0,1,1,5,0" fill="#eeca3b" stroke-width="1.5" opacity="1"/></g><g class="mark-text role-legend-label" pointer-events="none"><text text-anchor="start" transform="translate(16,9)" font-family="sans-serif" font-size="10px" fill="#000" opacity="1">karlmdavis/hello-rust-actix</text></g></g><path class="foreground" aria-hidden="true" d="" pointer-events="none" display="none"/></g><g transform="translate(0,208)"><path class="background" aria-hidden="true" d="M0,0h176v11h-176Z" pointer-events="none" opacity="1"/><g><g class="mark-symbol role-legend-symbol" pointer-events="none"><path transform="translate(6,6)" d="M5,0A5,5,0,1,1,-5,0A5,5,0,1,1,5,0" fill="#b279a2" stroke-width="1.5" opacity="1"/></g><g class="mark-text role-legend-label" pointer-events="none"><text text-anchor="start" transform="translate(16,9)" font-family="sans-serif" font-size="10px" fill="#000" opacity="1">karlmdavis/jessentials</text></g></g><path class="foreground" aria-hidden="true" d="" pointer-events="none" display="none"/></g><g transform="translate(0,221)"><path class="background" aria-hidden="true" d="M0,0h176v11h-176Z" pointer-events="none" opacity="1"/><g><g class="mark-symbol role-legend-symbol" pointer-events="none"><path transform="translate(6,6)" d="M5,0A5,5,0,1,1,-5,0A5,5,0,1,1,5,0" fill="#ff9da6" stroke-width="1.5" opacity="1"/></g><g class="mark-text role-legend-label" pointer-events="none"><text text-anchor="start" transform="translate(16,9)" font-family="sans-serif" font-size="10px" fill="#000" opacity="1">karlmdavis/justdavis-ansible</text></g></g><path class="foreground" aria-hidden="true" d="" pointer-events="none" display="none"/></g><g transform="translate(0,234)"><path class="background" aria-hidden="true" d="M0,0h176v11h-176Z" pointer-events="none" opacity="1"/><g><g class="mark-symbol role-legend-symbol" pointer-events="none"><path transform="translate(6,6)" d="M5,0A5,5,0,1,1,-5,0A5,5,0,1,1,5,0" fill="#9d755d" stroke-width="1.5" opacity="1"/></g><g class="mark-text role-legend-label" pointer-events="none"><text text-anchor="start" transform="translate(16,9)" font-family="sans-serif" font-size="10px" fill="#000" opacity="1">karlmdavis/justdavis-finances</text></g></g><path class="foreground" aria-hidden="true" d="" pointer-events="none" display="none"/></g><g transform="translate(0,247)"><path class="background" aria-hidden="true" d="M0,0h176v11h-176Z" pointer-events="none" opacity="1"/><g><g class="mark-symbol role-legend-symbol" pointer-events="none"><path transform="translate(6,6)" d="M5,0A5,5,0,1,1,-5,0A5,5,0,1,1,5,0" fill="#bab0ac" stroke-width="1.5" opacity="1"/></g><g class="mark-text role-legend-label" pointer-events="none"><text text-anchor="start" transform="translate(16,9)" font-family="sans-serif" font-size="10px" fill="#000" opacity="1">karlmdavis/justdavis-karl</text></g></g><path class="foreground" aria-hidden="true" d="" pointer-events="none" display="none"/></g><g transform="translate(0,260)"><path class="background" aria-hidden="true" d="M0,0h176v11h-176Z" pointer-events="none" opacity="1"/><g><g class="mark-symbol role-legend-symbol" pointer-events="none"><path transform="translate(6,6)" d="M5,0A5,5,0,1,1,-5,0A5,5,0,1,1,5,0" fill="#4c78a8" stroke-width="1.5" opacity="1"/></g><g class="mark-text role-legend-label" pointer-events="none"><text text-anchor="start" transform="translate(16,9)" font-family="sans-serif" font-size="10px" fill="#000" opacity="1">karlmdavis/justdavis-puppet</text></g></g><path class="foreground" aria-hidden="true" d="" pointer-events="none" display="none"/></g><g transform="translate(0,273)"><path class="background" aria-hidden="true" d="M0,0h176v11h-176Z" pointer-events="none" opacity="1"/><g><g class="mark-symbol role-legend-symbol" pointer-events="none"><path transform="translate(6,6)" d="M5,0A5,5,0,1,1,-5,0A5,5,0,1,1,5,0" fill="#f58518" stroke-width="1.5" opacity="1"/></g><g class="mark-text role-legend-label" pointer-events="none"><text text-anchor="start" transform="translate(16,9)" font-family="sans-serif" font-size="10px" fill="#000" opacity="1">karlmdavis/kobjects</text></g></g><path class="foreground" aria-hidden="true" d="" pointer-events="none" display="none"/></g><g transform="translate(0,286)"><path class="background" aria-hidden="true" d="M0,0h176v11h-176Z" pointer-events="none" opacity="1"/><g><g class="mark-symbol role-legend-symbol" pointer-events="none"><path transform="translate(6,6)" d="M5,0A5,5,0,1,1,-5,0A5,5,0,1,1,5,0" fill="#e45756" stroke-width="1.5" opacity="1"/></g><g class="mark-text role-legend-label" pointer-events="none"><text text-anchor="start" transform="translate(16,9)" font-family="sans-serif" font-size="10px" fill="#000" opacity="1">karlmdavis/ksoap2-android</text></g></g><path class="foreground" aria-hidden="true" d="" pointer-events="none" display="none"/></g><g transform="translate(0,299)"><path class="background" aria-hidden="true" d="M0,0h176v11h-176Z" pointer-events="none" opacity="1"/><g><g class="mark-symbol role-legend-symbol" pointer-events="none"><path transform="translate(6,6)" d="M5,0A5,5,0,1,1,-5,0A5,5,0,1,1,5,0" fill="#72b7b2" stroke-width="1.5" opacity="1"/></g><g class="mark-text role-legend-label" pointer-events="none"><text text-anchor="start" transform="translate(16,9)" font-family="sans-serif" font-size="10px" fill="#000" opacity="1">karlmdavis/kxml2</text></g></g><path class="foreground" aria-hidden="true" d="" pointer-events="none" display="none"/></g><g transform="translate(0,312)"><path class="background" aria-hidden="true" d="M0,0h176v11h-176Z" pointer-events="none" opacity="1"/><g><g class="mark-symbol role-legend-symbol" pointer-events="none"><path transform="translate(6,6)" d="M5,0A5,5,0,1,1,-5,0A5,5,0,1,1,5,0" fill="#54a24b" stroke-width="1.5" opacity="1"/></g><g class="mark-text role-legend-label" pointer-events="none"><text text-anchor="start" transform="translate(16,9)" font-family="sans-serif" font-size="10px" fill="#000" opacity="1">karlmdavis/ldap-plugin</text></g></g><path class="foreground" aria-hidden="true" d="" pointer-events="none" display="none"/></g><g transform="translate(0,325)"><path class="background" aria-hidden="true" d="M0,0h176v11h-176Z" pointer-events="none" opacity="1"/><g><g class="mark-symbol role-legend-symbol" pointer-events="none"><path transform="translate(6,6)" d="M5,0A5,5,0,1,1,-5,0A5,5,0,1,1,5,0" fill="#eeca3b" stroke-width="1.5" opacity="1"/></g><g class="mark-text role-legend-label" pointer-events="none"><text text-anchor="start" transform="translate(16,9)" font-family="sans-serif" font-size="10px" fill="#000" opacity="1">karlmdavis/lego-ev3dev-rs</text></g></g><path class="foreground" aria-hidden="true" d="" pointer-events="none" display="none"/></g><g transform="translate(0,338)"><path class="background" aria-hidden="true" d="M0,0h176v11h-176Z" pointer-events="none" opacity="1"/><g><g class="mark-symbol role-legend-symbol" pointer-events="none"><path transform="translate(6,6)" d="M5,0A5,5,0,1,1,-5,0A5,5,0,1,1,5,0" fill="#b279a2" stroke-width="1.5" opacity="1"/></g><g class="mark-text role-legend-label" pointer-events="none"><text text-anchor="start" transform="translate(16,9)" font-family="sans-serif" font-size="10px" fill="#000" opacity="1">karlmdavis/liquibase</text></g></g><path class="foreground" aria-hidden="true" d="" pointer-events="none" display="none"/></g><g transform="translate(0,351)"><path class="background" aria-hidden="true" d="M0,0h176v11h-176Z" pointer-events="none" opacity="1"/><g><g class="mark-symbol role-legend-symbol" pointer-events="none"><path transform="translate(6,6)" d="M5,0A5,5,0,1,1,-5,0A5,5,0,1,1,5,0" fill="#ff9da6" stroke-width="1.5" opacity="1"/></g><g class="mark-text role-legend-label" pointer-events="none"><text text-anchor="start" transform="translate(16,9)" font-family="sans-serif" font-size="10px" fill="#000" opacity="1">karlmdavis/m2e-core</text></g></g><path class="foreground" aria-hidden="true" d="" pointer-events="none" display="none"/></g><g transform="translate(0,364)"><path class="background" aria-hidden="true" d="M0,0h176v11h-176Z" pointer-events="none" opacity="1"/><g><g class="mark-symbol role-legend-symbol" pointer-events="none"><path transform="translate(6,6)" d="M5,0A5,5,0,1,1,-5,0A5,5,0,1,1,5,0" fill="#9d755d" stroke-width="1.5" opacity="1"/></g><g class="mark-text role-legend-label" pointer-events="none"><text text-anchor="start" transform="translate(16,9)" font-family="sans-serif" font-size="10px" fill="#000" opacity="1">karlmdavis/m2e-core-tests</text></g></g><path class="foreground" aria-hidden="true" d="" pointer-events="none" display="none"/></g><g transform="translate(0,377)"><path class="background" aria-hidden="true" d="M0,0h176v11h-176Z" pointer-events="none" opacity="1"/><g><g class="mark-symbol role-legend-symbol" pointer-events="none"><path transform="translate(6,6)" d="M5,0A5,5,0,1,1,-5,0A5,5,0,1,1,5,0" fill="#bab0ac" stroke-width="1.5" opacity="1"/></g><g class="mark-text role-legend-label" pointer-events="none"><text text-anchor="start" transform="translate(16,9)" font-family="sans-serif" font-size="10px" fill="#000" opacity="1">…12 entries</text></g></g><path class="foreground" aria-hidden="true" d="" pointer-events="none" display="none"/></g></g></g><path class="foreground" aria-hidden="true" d="" pointer-events="none" display="none"/></g></g><g class="mark-text role-legend-title" pointer-events="none"><text text-anchor="start" transform="translate(0,9)" font-family="sans-serif" font-size="11px" font-weight="bold" fill="#000" opacity="1">Repository</text></g></g><path class="foreground" aria-hidden="true" d="" pointer-events="none" display="none"/></g></g><g class="mark-group role-title"><g transform="translate(400,-22)"><path class="background" aria-hidden="true" d="M0,0h0v0h0Z" pointer-events="none"/><g><g class="mark-text role-title-text" role="graphics-symbol" aria-roledescription="title" aria-label="Title text 'Unique Clones per Day'" pointer-events="none"><text text-anchor="middle" transform="translate(0,10)" font-family="sans-serif" font-size="13px" font-weight="bold" fill="#000" opacity="1">Unique Clones per Day</text></g></g><path class="foreground" aria-hidden="true" d="" pointer-events="none" display="none"/></g></g></g><path class="foreground" aria-hidden="true" d="" display="none"/></g></g></g></svg>