<svg xmlns="http://www.w3.org/2000/svg" xmlns:xlink="http://www.w3.org/1999/xlink" version="1.1" class="marks" width="1043" height="436" viewBox="0 0 1043 436"><rect width="1043" height="436" fill="white"/><g fill="none" stroke-miterlimit="10" transform="translate(44,27)"><g class="mark-group role-frame root" role="graphics-object" aria-roledescription="group mark container"><g transform="translate(0,0)"><path class="background" aria-hidden="true" d="M0.5,0.5h800v300h-800Z" stroke="#ddd"/><g><g class="mark-group role-axis" aria-hidden="true"><g transform="translate(0.5,300.5)"><path class="background" aria-hidden="true" d="M0,0h0v0h0Z" pointer-events="none"/><g><g class="mark-rule role-axis-grid" pointer-events="none"><line transform="translate(0,-300)" x2="0" y2="300" stroke="#ddd" stroke-width="1" opacity="1"/><line transform="translate(30,-300)" x2="0" y2="300" stroke="#ddd" stroke-width="1" opacity="1"/><line transform="translate(59,-300)" x2="0" y2="300" stroke="#ddd" stroke-width="1" opacity="1"/><line transform="translate(89,-300)" x2="0" y2="300" stroke="#ddd" stroke-width="1" opacity="1"/><line transform="translate(119,-300)" x2="0" y2="300" stroke="#ddd" stroke-width="1" opacity="1"/><line transform="translate(148,-300)" x2="0" y2="300" stroke="#ddd" stroke-width="1" opacity="1"/><line transform="translate(178,-300)" x2="0" y2="300" stroke="#ddd" stroke-width="1" opacity="1"/><line transform="translate(207,-300)" x2="0" y2="300" stroke="#ddd" stroke-width="1" opacity="1"/><line transform="translate(237,-300)" x2="0" y2="300" stroke="#ddd" stroke-width="1" opacity="1"/><line transform="translate(267,-300)" x2="0" y2="300" stroke="#ddd" stroke-width="1" opacity="1"/><line transform="translate(296,-300)" x2="0" y2="300" stroke="#ddd" stroke-width="1" opacity="1"/><line transform="translate(326,-300)" x2="0" y2="300" stroke="#ddd" stroke-width="1" opacity="1"/><line transform="translate(356,-300)" x2="0" y2="300" stroke="#ddd" stroke-width="1" opacity="1"/><line transform="translate(385,-300)" x2="0" y2="300" stroke="#ddd" stroke-width="1" opacity="1"/><line transform="translate(415,-300)" x2="0" y2="300" stroke="#ddd" stroke-width="1" opacity="1"/><line transform="translate(444,-300)" x2="0" y2="300" stroke="#ddd" stroke-width="1" opacity="1"/><line transform="translate(474,-300)" x2="0" y2="300" stroke="#ddd" stroke-width="1" opacity="1"/><line transform="translate(504,-300)" x2="0" y2="300" stroke="#ddd" stroke-width="1" opacity="1"/><line transform="translate(533,-300)" x2="0" y2="300" stroke="#ddd" stroke-width="1" opacity="1"/><line transform="translate(563,-300)" x2="0" y2="300" stroke="#ddd" stroke-width="1" opacity="1"/><line transform="translate(593,-300)" x2="0" y2="300" stroke="#ddd" stroke-width="1" opacity="1"/><line transform="translate(622,-300)" x2="0" y2="300" stroke="#ddd" stroke-width="1" opacity="1"/><line transform="translate(652,-300)" x2="0" y2="300" stroke="#ddd" stroke-width="1" opacity="1"/><line transform="translate(681,-300)" x2="0" y2="300" stroke="#ddd" stroke-width="1" opacity="1"/><line transform="translate(711,-300)" x2="0" y2="300" stroke="#ddd" stroke-width="1" opacity="1"/><line transform="translate(741,-300)" x2="0" y2="300" stroke="#ddd" stroke-width="1" opacity="1"/><line transform="translate(770,-300)" x2="0" y2="300" stroke="#ddd" stroke-width="1" opacity="1"/><line transform="translate(800,-300)" x2="0" y2="300" stroke="#ddd" stroke-width="1" opacity="1"/></g></g><path class="foreground" aria-hidden="true" d="" pointer-events="none" display="none"/></g></g><g class="mark-group role-axis" aria-hidden="true"><g transform="translate(0.5,0.5)"><path class="background" aria-hidden="true" d="M0,0h0v0h0Z" pointer-events="none"/><g><g class="mark-rule role-axis-grid" pointer-events="none"><line transform="translate(0,300)" x2="800" y2="0" stroke="#ddd" stroke-width="1" opacity="1"/><line transform="translate(0,270)" x2="800" y2="0" stroke="#ddd" stroke-width="1" opacity="1"/><line transform="translate(0,240)" x2="800" y2="0" stroke="#ddd" stroke-width="1" opacity="1"/><line transform="translate(0,210)" x2="800" y2="0" stroke="#ddd" stroke-width="1" opacity="1"/><line transform="translate(0,180)" x2="800" y2="0" stroke="#ddd" stroke-width="1" opacity="1"/><line transform="translate(0,150)" x2="800" y2="0" stroke="#ddd" stroke-width="1" opacity="1"/><line transform="translate(0,120)" x2="800" y2="0" stroke="#ddd" stroke-width="1" opacity="1"/><line transform="translate(0,90)" x2="800" y2="0" stroke="#ddd" stroke-width="1" opacity="1"/><line transform="translate(0,60)" x2="800" y2="0" stroke="#ddd" stroke-width="1" opacity="1"/><line transform="translate(0,30)" x2="800" y2="0" stroke="#ddd" stroke-width="1" opacity="1"/><line transform="translate(0,0)" x2="800" y2="0" stroke="#ddd" stroke-width="1" opacity="1"/></g></g><path class="foreground" aria-hidden="true" d="" pointer-events="none" display="none"/></g></g><g class="mark-group role-axis" role="graphics-symbol" aria-roledescription="axis" aria-label="X-axis titled 'Date' for a time scale with values from Monday, 16 March 2026, 12:00:00 AM to Sunday, 12 April 2026, 12:00:00 AM"><g transform="translate(0.5,300.5)"><path class="background" aria-hidden="true" d="M0,0h0v0h0Z" pointer-events="none"/><g><g class="mark-rule role-axis-tick" pointer-events="none"><line transform="translate(0,0)" x2="0" y2="5" stroke="#888" stroke-width="1" opacity="1"/><line transform="translate(30,0)" x2="0" y2="5" stroke="#888" stroke-width="1" opacity="1"/><line transform="translate(59,0)" x2="0" y2="5" stroke="#888" stroke-width="1" opacity="1"/><line transform="translate(89,0)" x2="0" y2="5" stroke="#888" stroke-width="1" opacity="1"/><line transform="translate(119,0)" x2="0" y2="5" stroke="#888" stroke-width="1" opacity="1"/><line transform="translate(148,0)" x2="0" y2="5" stroke="#888" stroke-width="1" opacity="1"/><line transform="translate(178,0)" x2="0" y2="5" stroke="#888" stroke-width="1" opacity="1"/><line transform="translate(207,0)" x2="0" y2="5" stroke="#888" stroke-width="1" opacity="1"/><line transform="translate(237,0)" x2="0" y2="5" stroke="#888" stroke-width="1" opacity="1"/><line transform="translate(267,0)" x2="0" y2="5" stroke="#888" stroke-width="1" opacity="1"/><line transform="translate(296,0)" x2="0" y2="5" stroke="#888" stroke-width="1" opacity="1"/><line transform="translate(326,0)" x2="0" y2="5" stroke="#888" stroke-width="1" opacity="1"/><line transform="translate(356,0)" x2="0" y2="5" stroke="#888" stroke-width="1" opacity="1"/><line transform="translate(385,0)" x2="0" y2="5" stroke="#888" stroke-width="1" opacity="1"/><line transform="translate(415,0)" x2="0" y2="5" stroke="#888" stroke-width="1" opacity="1"/><line transform="translate(444,0)" x2="0" y2="5" stroke="#888" stroke-width="1" opacity="1"/><line transform="translate(474,0)" x2="0" y2="5" stroke="#888" stroke-width="1" opacity="1"/><line transform="translate(504,0)" x2="0" y2="5" stroke="#888" stroke-width="1" opacity="1"/><line transform="translate(533,0)" x2="0" y2="5" stroke="#888" stroke-width="1" opacity="1"/><line transform="translate(563,0)" x2="0" y2="5" stroke="#888" stroke-width="1" opacity="1"/><line transform="translate(593,0)" x2="0" y2="5" stroke="#888" stroke-width="1" opacity="1"/><line transform="translate(622,0)" x2="0" y2="5" stroke="#888" stroke-width="1" opacity="1"/><line transform="translate(652,0)" x2="0" y2="5" stroke="#888" stroke-width="1" opacity="1"/><line transform="translate(681,0)" x2="0" y2="5" stroke="#888" stroke-width="1" opacity="1"/><line transform="translate(711,0)" x2="0" y2="5" stroke="#888" stroke-width="1" opacity="1"/><line transform="translate(741,0)" x2="0" y2="5" stroke="#888" stroke-width="1" opacity="1"/><line transform="translate(770,0)" x2="0" y2="5" stroke="#888" stroke-width="1" opacity="1"/><line transform="translate(800,0)" x2="0" y2="5" stroke="#888" stroke-width="1" opacity="1"/></g><g class="mark-text role-axis-label" pointer-events="none"><text text-anchor="start" transform="translate(0,15)" font-family="sans-serif" font-size="10px" fill="#000" opacity="1">Mon 16</text><text text-anchor="middle" transform="translate(29.629629629629626,15)" font-family="sans-serif" font-size="10px" fill="#000" opacity="0">Tue 17</text><text text-anchor="middle" transform="translate(59.25925925925925,15)" font-family="sans-serif" font-size="10px" fill="#000" opacity="1">Wed 18</text><text text-anchor="middle" transform="translate(88.88888888888889,15)" font-family="sans-serif" font-size="10px" fill="#000" opacity="0">Thu 19</text><text text-anchor="middle" transform="translate(118.5185185185185,15)" font-family="sans-serif" font-size="10px" fill="#000" opacity="1">Fri 20</text><text text-anchor="middle" transform="translate(148.14814814814815,15)" font-family="sans-serif" font-size="10px" fill="#000" opacity="0">Sat 21</text><text text-anchor="middle" transform="translate(177.77777777777777,15)" font-family="sans-serif" font-size="10px" fill="#000" opacity="1">Mar 22</text><text text-anchor="middle" transform="translate(207.4074074074074,15)" font-family="sans-serif" font-size="10px" fill="#000" opacity="0">Mon 23</text><text text-anchor="middle" transform="translate(237.037037037037,15)" font-family="sans-serif" font-size="10px" fill="#000" opacity="1">Tue 24</text><text text-anchor="middle" transform="translate(266.66666666666663,15)" font-family="sans-serif" font-size="10px" fill="#000" opacity="0">Wed 25</text><text text-anchor="middle" transform="translate(296.2962962962963,15)" font-family="sans-serif" font-size="10px" fill="#000" opacity="1">Thu 26</text><text text-anchor="middle" transform="translate(325.9259259259259,15)" font-family="sans-serif" font-size="10px" fill="#000" opacity="0">Fri 27</text><text text-anchor="middle" transform="translate(355.55555555555554,15)" font-family="sans-serif" font-size="10px" fill="#000" opacity="1">Sat 28</text><text text-anchor="middle" transform="translate(385.18518518518516,15)" font-family="sans-serif" font-size="10px" fill="#000" opacity="0">Mar 29</text><text text-anchor="middle" transform="translate(414.8148148148148,15)" font-family="sans-serif" font-size="10px" fill="#000" opacity="1">Mon 30</text><text text-anchor="middle" transform="translate(444.44444444444446,15)" font-family="sans-serif" font-size="10px" fill="#000" opacity="0">Tue 31</text><text text-anchor="middle" transform="translate(474.074074074074,15)" font-family="sans-serif" font-size="10px" fill="#000" opacity="1">April</text><text text-anchor="middle" transform="translate(503.7037037037037,15)" font-family="sans-serif" font-size="10px" fill="#000" opacity="0">Thu 02</text><text text-anchor="middle" transform="translate(533.3333333333333,15)" font-family="sans-serif" font-size="10px" fill="#000" opacity="1">Fri 03</text><text text-anchor="middle" transform="translate(562.9629629629629,15)" font-family="sans-serif" font-size="10px" fill="#000" opacity="0">Sat 04</text><text text-anchor="middle" transform="translate(592.5925925925926,15)" font-family="sans-serif" font-size="10px" fill="#000" opacity="1">Apr 05</text><text text-anchor="middle" transform="translate(622.2222222222223,15)" font-family="sans-serif" font-size="10px" fill="#000" opacity="0">Mon 06</text><text text-anchor="middle" transform="translate(651.8518518518518,15)" font-family="sans-serif" font-size="10px" fill="#000" opacity="1">Tue 07</text><text text-anchor="middle" transform="translate(681.4814814814815,15)" font-family="sans-serif" font-size="10px" fill="#000" opacity="0">Wed 08</text><text text-anchor="middle" transform="translate(711.1111111111111,15)" font-family="sans-serif" font-size="10px" fill="#000" opacity="1">Thu 09</text><text text-anchor="middle" transform="translate(740.7407407407408,15)" font-family="sans-serif" font-size="10px" fill="#000" opacity="0">Fri 10</text><text text-anchor="middle" transform="translate(770.3703703703703,15)" font-family="sans-serif" font-size="10px" fill="#000" opacity="1">Sat 11</text><text text-anchor="end" transform="translate(800,15)" font-family="sans-serif" font-size="10px" fill="#000" opacity="0">Apr 12</text></g><g class="mark-rule role-axis-domain" pointer-events="none"><line transform="translate(0,0)" x2="800" y2="0" stroke="#888" stroke-width="1" opacity="1"/></g><g class="mark-text role-axis-title" pointer-events="none"><text text-anchor="middle" transform="translate(400,30)" font-family="sans-serif" font-size="11px" font-weight="bold" fill="#000" opacity="1">Date</text></g></g><path class="foreground" aria-hidden="true" d="" pointer-events="none" display="none"/></g></g><g class="mark-group role-axis" role="graphics-symbol" aria-roledescription="axis" aria-label="Y-axis titled 'Unique Clones/day' for a linear scale with values from 0 to 100"><g transform="translate(0.5,0.5)"><path class="background" aria-hidden="true" d="M0,0h0v0h0Z" pointer-events="none"/><g><g class="mark-rule role-axis-tick" pointer-events="none"><line transform="translate(0,300)" x2="-5" y2="0" stroke="#888" stroke-width="1" opacity="1"/><line transform="translate(0,270)" x2="-5" y2="0" stroke="#888" stroke-width="1" opacity="1"/><line transform="translate(0,240)" x2="-5" y2="0" stroke="#888" stroke-width="1" opacity="1"/><line transform="translate(0,210)" x2="-5" y2="0" stroke="#888" stroke-width="1" opacity="1"/><line transform="translate(0,180)" x2="-5" y2="0" stroke="#888" stroke-width="1" opacity="1"/><line transform="translate(0,150)" x2="-5" y2="0" stroke="#888" stroke-width="1" opacity="1"/><line transform="translate(0,120)" x2="-5" y2="0" stroke="#888" stroke-width="1" opacity="1"/><line transform="translate(0,90)" x2="-5" y2="0" stroke="#888" stroke-width="1" opacity="1"/><line transform="translate(0,60)" x2="-5" y2="0" stroke="#888" stroke-width="1" opacity="1"/><line transform="translate(0,30)" x2="-5" y2="0" stroke="#888" stroke-width="1" opacity="1"/><line transform="translate(0,0)" x2="-5" y2="0" stroke="#888" stroke-width="1" opacity="1"/></g><g class="mark-text role-axis-label" pointer-events="none"><text text-anchor="end" transform="translate(-7,303)" font-family="sans-serif" font-size="10px" fill="#000" opacity="1">0</text><text text-anchor="end" transform="translate(-7,273)" font-family="sans-serif" font-size="10px" fill="#000" opacity="1">10</text><text text-anchor="end" transform="translate(-7,243)" font-family="sans-serif" font-size="10px" fill="#000" opacity="1">20</text><text text-anchor="end" transform="translate(-7,213)" font-family="sans-serif" font-size="10px" fill="#000" opacity="1">30</text><text text-anchor="end" transform="translate(-7,183)" font-family="sans-serif" font-size="10px" fill="#000" opacity="1">40</text><text text-anchor="end" transform="translate(-7,153)" font-family="sans-serif" font-size="10px" fill="#000" opacity="1">50</text><text text-anchor="end" transform="translate(-7,123)" font-family="sans-serif" font-size="10px" fill="#000" opacity="1">60</text><text text-anchor="end" transform="translate(-7,93.00000000000001)" font-family="sans-serif" font-size="10px" fill="#000" opacity="1">70</text><text text-anchor="end" transform="translate(-7,62.999999999999986)" font-family="sans-serif" font-size="10px" fill="#000" opacity="1">80</text><text text-anchor="end" transform="translate(-7,32.99999999999999)" font-family="sans-serif" font-size="10px" fill="#000" opacity="1">90</text><text text-anchor="end" transform="translate(-7,3)" font-family="sans-serif" font-size="10px" fill="#000" opacity="1">100</text></g><g class="mark-rule role-axis-domain" pointer-events="none"><line transform="translate(0,300)" x2="0" y2="-300" stroke="#888" stroke-width="1" opacity="1"/></g><g class="mark-text role-axis-title" pointer-events="none"><text text-anchor="middle" transform="translate(-27.6845703125,150) rotate(-90) translate(0,-2)" font-family="sans-serif" font-size="11px" font-weight="bold" fill="#000" opacity="1">Unique Clones/day</text></g></g><path class="foreground" aria-hidden="true" d="" pointer-events="none" display="none"/></g></g><g class="mark-group role-scope pathgroup" role="graphics-object" aria-roledescription="group mark container"><g transform="translate(0,0)"><path class="background" aria-hidden="true" d="M0,0h800v300h-800Z"/><g><g class="mark-area role-mark marks" role="graphics-object" aria-roledescription="area mark container"><path aria-label="Date: Mar 16, 2026; Unique Clones/day: 0; Repository: karlmdavis/FHIR-Server" role="graphics-symbol" aria-roledescription="area mark" d="M0,297L29.63,300L59.259,300L88.889,297L118.519,300L148.148,300L177.778,300L207.407,264L237.037,294L266.667,279L296.296,252L325.926,93L355.556,162L385.185,12L414.815,201L444.444,231L474.074,246L503.704,270L533.333,213L562.963,36L592.593,57L622.222,261L651.852,210L681.481,213L711.111,177L740.741,264L770.37,222L800,198L800,201L770.37,228L740.741,264L711.111,177L681.481,213L651.852,210L622.222,261L592.593,57L562.963,36L533.333,213L503.704,270L474.074,246L444.444,234L414.815,201L385.185,12L355.556,162L325.926,93L296.296,252L266.667,279L237.037,294L207.407,264L177.778,300L148.148,300L118.519,300L88.889,297L59.259,300L29.63,300L0,297Z" fill="#4c78a8"/></g></g><path class="foreground" aria-hidden="true" d="" display="none"/></g><g transform="translate(0,0)"><path class="background" aria-hidden="true" d="M0,0h800v300h-800Z"/><g><g class="mark-area role-mark marks" role="graphics-object" aria-roledescription="area mark container"><path aria-label="Date: Mar 16, 2026; Unique Clones/day: 1; Repository: karlmdavis/ansible" role="graphics-symbol" aria-roledescription="area mark" d="M0,297L29.63,300L59.259,300L88.889,297L118.519,300L148.148,300L177.778,300L207.407,264L237.037,294L266.667,279L296.296,252L325.926,93L355.556,162L385.185,12L414.815,201L444.444,234L474.074,246L503.704,270L533.333,213L562.963,36L592.593,57L622.222,261L651.852,210L681.481,213L711.111,177L740.741,264L770.37,228L800,201L800,201L770.37,228L740.741,264L711.111,177L681.481,213L651.852,210L622.222,261L592.593,57L562.963,36L533.333,213L503.704,270L474.074,246L444.444,234L414.815,201L385.185,12L355.556,162L325.926,93L296.296,252L266.667,279L237.037,294L207.407,264L177.778,300L148.148,300L118.519,300L88.889,297L59.259,300L29.63,300L0,300Z" fill="#f58518"/></g></g><path class="foreground" aria-hidden="true" d="" display="none"/></g><g transform="translate(0,0)"><path class="background" aria-hidden="true" d="M0,0h800v300h-800Z"/><g><g class="mark-area role-mark marks" role="graphics-object" aria-roledescription="area mark container"><path aria-label="Date: Mar 16, 2026; Unique Clones/day: 0; Repository: karlmdavis/ansible-jenkins" role="graphics-symbol" aria-roledescription="area mark" d="M0,300L29.63,300L59.259,300L88.889,297L118.519,300L148.148,300L177.778,300L207.407,264L237.037,294L266.667,279L296.296,252L325.926,93L355.556,162L385.185,12L414.815,201L444.444,234L474.074,246L503.704,270L533.333,213L562.963,36L592.593,57L622.222,261L651.852,210L681.481,213L711.111,177L740.741,264L770.37,228L800,201L800,204L770.37,228L740.741,264L711.111,177L681.481,213L651.852,210L622.222,261L592.593,57L562.963,39L533.333,216L503.704,270L474.074,246L444.444,234L414.815,201L385.185,12L355.556,162L325.926,93L296.296,255L266.667,279L237.037,294L207.407,264L177.778,300L148.148,300L118.519,300L88.889,297L59.259,300L29.63,300L0,300Z" fill="#e45756"/></g></g><path class="foreground" aria-hidden="true" d="" display="none"/></g><g transform="translate(0,0)"><path class="background" aria-hidden="true" d="M0,0h800v300h-800Z"/><g><g class="mark-area role-mark marks" role="graphics-object" aria-roledescription="area mark container"><path aria-label="Date: Mar 16, 2026; Unique Clones/day: 0; Repository: karlmdavis/ansible-role-acmetool" role="graphics-symbol" aria-roledescription="area mark" d="M0,300L29.63,300L59.259,300L88.889,297L118.519,300L148.148,300L177.778,300L207.407,264L237.037,294L266.667,279L296.296,255L325.926,93L355.556,162L385.185,12L414.815,201L444.444,234L474.074,246L503.704,270L533.333,216L562.963,39L592.593,57L622.222,261L651.852,210L681.481,213L711.111,177L740.741,264L770.37,228L800,204L800,207L770.37,228L740.741,264L711.111,177L681.481,213L651.852,210L622.222,261L592.593,57L562.963,39L533.333,216L503.704,270L474.074,246L444.444,234L414.815,201L385.185,12L355.556,162L325.926,93L296.296,258L266.667,279L237.037,294L207.407,264L177.778,300L148.148,300L118.519,300L88.889,297L59.259,300L29.63,300L0,300Z" fill="#72b7b2"/></g></g><path class="foreground" aria-hidden="true" d="" display="none"/></g><g transform="translate(0,0)"><path class="background" aria-hidden="true" d="M0,0h800v300h-800Z"/><g><g class="mark-area role-mark marks" role="graphics-object" aria-roledescription="area mark container"><path aria-label="Date: Mar 16, 2026; Unique Clones/day: 0; Repository: karlmdavis/ansible-role-bind-dns" role="graphics-symbol" aria-roledescription="area mark" d="M0,300L29.63,300L59.259,300L88.889,297L118.519,300L148.148,300L177.778,300L207.407,264L237.037,294L266.667,279L296.296,258L325.926,93L355.556,162L385.185,12L414.815,201L444.444,234L474.074,246L503.704,270L533.333,216L562.963,39L592.593,57L622.222,261L651.852,210L681.481,213L711.111,177L740.741,264L770.37,228L800,207L800,210L770.37,228L740.741,264L711.111,180L681.481,216L651.852,210L622.222,261L592.593,57L562.963,42L533.333,216L503.704,270L474.074,255L444.444,234L414.815,204L385.185,15L355.556,162L325.926,99L296.296,258L266.667,279L237.037,294L207.407,264L177.778,300L148.148,300L118.519,300L88.889,297L59.259,300L29.63,300L0,300Z" fill="#54a24b"/></g></g><path class="foreground" aria-hidden="true" d="" display="none"/></g><g transform="translate(0,0)"><path class="background" aria-hidden="true" d="M0,0h800v300h-800Z"/><g><g class="mark-area role-mark marks" role="graphics-object" aria-roledescription="area mark container"><path aria-label="Date: Mar 16, 2026; Unique Clones/day: 0; Repository: karlmdavis/ansible-role-jenkins2" role="graphics-symbol" aria-roledescription="area mark" d="M0,300L29.63,300L59.259,300L88.889,297L118.519,300L148.148,300L177.778,300L207.407,264L237.037,294L266.667,279L296.296,258L325.926,99L355.556,162L385.185,15L414.815,204L444.444,234L474.074,255L503.704,270L533.333,216L562.963,42L592.593,57L622.222,261L651.852,210L681.481,216L711.111,180L740.741,264L770.37,228L800,210L800,210L770.37,231L740.741,270L711.111,195L681.481,216L651.852,210L622.222,261L592.593,60L562.963,48L533.333,219L503.704,273L474.074,258L444.444,237L414.815,204L385.185,15L355.556,165L325.926,102L296.296,261L266.667,282L237.037,297L207.407,264L177.778,300L148.148,300L118.519,300L88.889,297L59.259,300L29.63,300L0,300Z" fill="#eeca3b"/></g></g><path class="foreground" aria-hidden="true" d="" display="none"/></g><g transform="translate(0,0)"><path class="background" aria-hidden="true" d="M0,0h800v300h-800Z"/><g><g class="mark-area role-mark marks" role="graphics-object" aria-roledescription="area mark container"><path aria-label="Date: Mar 16, 2026; Unique Clones/day: 0; Repository: karlmdavis/ansible-role-ldap" role="graphics-symbol" aria-roledescription="area mark" d="M0,300L29.63,300L59.259,300L88.889,297L118.519,300L148.148,300L177.778,300L207.407,264L237.037,297L266.667,282L296.296,261L325.926,102L355.556,165L385.185,15L414.815,204L444.444,237L474.074,258L503.704,273L533.333,219L562.963,48L592.593,60L622.222,261L651.852,210L681.481,216L711.111,195L740.741,270L770.37,231L800,210L800,210L770.37,231L740.741,270L711.111,195L681.481,216L651.852,210L622.222,261L592.593,60L562.963,48L533.333,219L503.704,273L474.074,258L444.444,240L414.815,204L385.185,15L355.556,165L325.926,102L296.296,261L266.667,282L237.037,297L207.407,264L177.778,300L148.148,300L118.519,300L88.889,297L59.259,300L29.63,300L0,300Z" fill="#b279a2"/></g></g><path class="foreground" aria-hidden="true" d="" display="none"/></g><g transform="translate(0,0)"><path class="background" aria-hidden="true" d="M0,0h800v300h-800Z"/><g><g class="mark-area role-mark marks" role="graphics-object" aria-roledescription="area mark container"><path aria-label="Date: Mar 16, 2026; Unique Clones/day: 0; Repository: karlmdavis/ansible-role-rcm-dotfiles" role="graphics-symbol" aria-roledescription="area mark" d="M0,300L29.63,300L59.259,300L88.889,297L118.519,300L148.148,300L177.778,300L207.407,264L237.037,297L266.667,282L296.296,261L325.926,102L355.556,165L385.185,15L414.815,204L444.444,240L474.074,258L503.704,273L533.333,219L562.963,48L592.593,60L622.222,261L651.852,210L681.481,216L711.111,195L740.741,270L770.37,231L800,210L800,210L770.37,231L740.741,270L711.111,198L681.481,216L651.852,210L622.222,261L592.593,60L562.963,51L533.333,219L503.704,273L474.074,258L444.444,240L414.815,207L385.185,18L355.556,165L325.926,108L296.296,261L266.667,282L237.037,297L207.407,264L177.778,300L148.148,300L118.519,300L88.889,297L59.259,300L29.63,300L0,300Z" fill="#ff9da6"/></g></g><path class="foreground" aria-hidden="true" d="" display="none"/></g><g transform="translate(0,0)"><path class="background" aria-hidden="true" d="M0,0h800v300h-800Z"/><g><g class="mark-area role-mark marks" role="graphics-object" aria-roledescription="area mark container"><path aria-label="Date: Mar 16, 2026; Unique Clones/day: 0; Repository: karlmdavis/ansible-roles" role="graphics-symbol" aria-roledescription="area mark" d="M0,300L29.63,300L59.259,300L88.889,297L118.519,300L148.148,300L177.778,300L207.407,264L237.037,297L266.667,282L296.296,261L325.926,108L355.556,165L385.185,18L414.815,207L444.444,240L474.074,258L503.704,273L533.333,219L562.963,51L592.593,60L622.222,261L651.852,210L681.481,216L711.111,198L740.741,270L770.37,231L800,210L800,210L770.37,234L740.741,270L711.111,198L681.481,216L651.852,210L622.222,261L592.593,60L562.963,51L533.333,219L503.704,273L474.074,258L444.444,240L414.815,210L385.185,18L355.556,165L325.926,108L296.296,264L266.667,282L237.037,297L207.407,264L177.778,300L148.148,300L118.519,300L88.889,297L59.259,300L29.63,300L0,300Z" fill="#9d755d"/></g></g><path class="foreground" aria-hidden="true" d="" display="none"/></g><g transform="translate(0,0)"><path class="background" aria-hidden="true" d="M0,0h800v300h-800Z"/><g><g class="mark-area role-mark marks" role="graphics-object" aria-roledescription="area mark container"><path aria-label="Date: Mar 16, 2026; Unique Clones/day: 0; Repository: karlmdavis/bbonfhir-dev-infra-docker" role="graphics-symbol" aria-roledescription="area mark" d="M0,300L29.63,300L59.259,300L88.889,297L118.519,300L148.148,300L177.778,300L207.407,264L237.037,297L266.667,282L296.296,264L325.926,108L355.556,165L385.185,18L414.815,210L444.444,240L474.074,258L503.704,273L533.333,219L562.963,51L592.593,60L622.222,261L651.852,210L681.481,216L711.111,198L740.741,270L770.37,234L800,210L800,210L770.37,234L740.741,270L711.111,201L681.481,216L651.852,210L622.222,261L592.593,60L562.963,54L533.333,219L503.704,273L474.074,258L444.444,240L414.815,213L385.185,18L355.556,165L325.926,111L296.296,264L266.667,285L237.037,297L207.407,264L177.778,300L148.148,300L118.519,300L88.889,297L59.259,300L29.63,300L0,300Z" fill="#bab0ac"/></g></g><path class="foreground" aria-hidden="true" d="" display="none"/></g><g transform="translate(0,0)"><path class="background" aria-hidden="true" d="M0,0h800v300h-800Z"/><g><g class="mark-area role-mark marks" role="graphics-object" aria-roledescription="area mark container"><path aria-label="Date: Mar 16, 2026; Unique Clones/day: 0; Repository: karlmdavis/can-i-kayak-baltimore" role="graphics-symbol" aria-roledescription="area mark" d="M0,300L29.63,300L59.259,300L88.889,297L118.519,300L148.148,300L177.778,300L207.407,264L237.037,297L266.667,285L296.296,264L325.926,111L355.556,165L385.185,18L414.815,213L444.444,240L474.074,258L503.704,273L533.333,219L562.963,54L592.593,60L622.222,261L651.852,210L681.481,216L711.111,201L740.741,270L770.37,234L800,210L800,213L770.37,234L740.741,270L711.111,204L681.481,216L651.852,210L622.222,261L592.593,60L562.963,57L533.333,219L503.704,273L474.074,261L444.444,240L414.815,213L385.185,18L355.556,165L325.926,120L296.296,264L266.667,285L237.037,297L207.407,264L177.778,300L148.148,300L118.519,300L88.889,297L59.259,300L29.63,300L0,300Z" fill="#4c78a8"/></g></g><path class="foreground" aria-hidden="true" d="" display="none"/></g><g transform="translate(0,0)"><path class="background" aria-hidden="true" d="M0,0h800v300h-800Z"/><g><g class="mark-area role-mark marks" role="graphics-object" aria-roledescription="area mark container"><path aria-label="Date: Mar 16, 2026; Unique Clones/day: 0; Repository: karlmdavis/datanucleus-test-jdo-1-to-n" role="graphics-symbol" aria-roledescription="area mark" d="M0,300L29.63,300L59.259,300L88.889,297L118.519,300L148.148,300L177.778,300L207.407,264L237.037,297L266.667,285L296.296,264L325.926,120L355.556,165L385.185,18L414.815,213L444.444,240L474.074,261L503.704,273L533.333,219L562.963,57L592.593,60L622.222,261L651.852,210L681.481,216L711.111,204L740.741,270L770.37,234L800,213L800,213L770.37,234L740.741,270L711.111,204L681.481,216L651.852,210L622.222,261L592.593,60L562.963,57L533.333,219L503.704,273L474.074,261L444.444,240L414.815,213L385.185,18L355.556,168L325.926,120L296.296,264L266.667,285L237.037,297L207.407,264L177.778,300L148.148,300L118.519,300L88.889,297L59.259,300L29.63,300L0,300Z" fill="#f58518"/></g></g><path class="foreground" aria-hidden="true" d="" display="none"/></g><g transform="translate(0,0)"><path class="background" aria-hidden="true" d="M0,0h800v300h-800Z"/><g><g class="mark-area role-mark marks" role="graphics-object" aria-roledescription="area mark container"><path aria-label="Date: Mar 16, 2026; Unique Clones/day: 0; Repository: karlmdavis/dotfiles" role="graphics-symbol" aria-roledescription="area mark" d="M0,300L29.63,300L59.259,300L88.889,297L118.519,300L148.148,300L177.778,300L207.407,264L237.037,297L266.667,285L296.296,264L325.926,120L355.556,168L385.185,18L414.815,213L444.444,240L474.074,261L503.704,273L533.333,219L562.963,57L592.593,60L622.222,261L651.852,210L681.481,216L711.111,204L740.741,270L770.37,234L800,213L800,213L770.37,240L740.741,270L711.111,207L681.481,219L651.852,210L622.222,261L592.593,63L562.963,60L533.333,219L503.704,276L474.074,264L444.444,243L414.815,213L385.185,18L355.556,168L325.926,126L296.296,264L266.667,285L237.037,297L207.407,267L177.778,300L148.148,300L118.519,300L88.889,297L59.259,300L29.63,300L0,300Z" fill="#e45756"/></g></g><path class="foreground" aria-hidden="true" d="" display="none"/></g><g transform="translate(0,0)"><path class="background" aria-hidden="true" d="M0,0h800v300h-800Z"/><g><g class="mark-area role-mark marks" role="graphics-object" aria-roledescription="area mark container"><path aria-label="Date: Mar 16, 2026; Unique Clones/day: 0; Repository: karlmdavis/fhir-benchmarks" role="graphics-symbol" aria-roledescription="area mark" d="M0,300L29.63,300L59.259,300L88.889,297L118.519,300L148.148,300L177.778,300L207.407,267L237.037,297L266.667,285L296.296,264L325.926,126L355.556,168L385.185,18L414.815,213L444.444,243L474.074,264L503.704,276L533.333,219L562.963,60L592.593,63L622.222,261L651.852,210L681.481,219L711.111,207L740.741,270L770.37,240L800,213L800,213L770.37,246L740.741,270L711.111,213L681.481,240L651.852,213L622.222,261L592.593,66L562.963,63L533.333,222L503.704,276L474.074,267L444.444,249L414.815,216L385.185,21L355.556,168L325.926,132L296.296,264L266.667,288L237.037,297L207.407,270L177.778,300L148.148,300L118.519,300L88.889,297L59.259,300L29.63,300L0,300Z" fill="#72b7b2"/></g></g><path class="foreground" aria-hidden="true" d="" display="none"/></g><g transform="translate(0,0)"><path class="background" aria-hidden="true" d="M0,0h800v300h-800Z"/><g><g class="mark-area role-mark marks" role="graphics-object" aria-roledescription="area mark container"><path aria-label="Date: Mar 16, 2026; Unique Clones/day: 0; Repository: karlmdavis/hapi-fhir-jpaserver-starter" role="graphics-symbol" aria-roledescription="area mark" d="M0,300L29.63,300L59.259,300L88.889,297L118.519,300L148.148,300L177.778,300L207.407,270L237.037,297L266.667,288L296.296,264L325.926,132L355.556,168L385.185,21L414.815,216L444.444,249L474.074,267L503.704,276L533.333,222L562.963,63L592.593,66L622.222,261L651.852,213L681.481,240L711.111,213L740.741,270L770.37,246L800,213L800,213L770.37,246L740.741,270L711.111,213L681.481,240L651.852,213L622.222,261L592.593,66L562.963,63L533.333,225L503.704,279L474.074,267L444.444,249L414.815,216L385.185,21L355.556,168L325.926,132L296.296,267L266.667,288L237.037,297L207.407,270L177.778,300L148.148,300L118.519,300L88.889,297L59.259,300L29.63,300L0,300Z" fill="#54a24b"/></g></g><path class="foreground" aria-hidden="true" d="" display="none"/></g><g transform="translate(0,0)"><path class="background" aria-hidden="true" d="M0,0h800v300h-800Z"/><g><g class="mark-area role-mark marks" role="graphics-object" aria-roledescription="area mark container"><path aria-label="Date: Mar 16, 2026; Unique Clones/day: 0; Repository: karlmdavis/hello-rust-actix" role="graphics-symbol" aria-roledescription="area mark" d="M0,300L29.63,300L59.259,300L88.889,297L118.519,300L148.148,300L177.778,300L207.407,270L237.037,297L266.667,288L296.296,267L325.926,132L355.556,168L385.185,21L414.815,216L444.444,249L474.074,267L503.704,279L533.333,225L562.963,63L592.593,66L622.222,261L651.852,213L681.481,240L711.111,213L740.741,270L770.37,246L800,213L800,216L770.37,246L740.741,270L711.111,216L681.481,240L651.852,213L622.222,261L592.593,66L562.963,66L533.333,225L503.704,279L474.074,267L444.444,252L414.815,216L385.185,21L355.556,168L325.926,135L296.296,267L266.667,288L237.037,297L207.407,270L177.778,300L148.148,300L118.519,300L88.889,297L59.259,300L29.63,300L0,300Z" fill="#eeca3b"/></g></g><path class="foreground" aria-hidden="true" d="" display="none"/></g><g transform="translate(0,0)"><path class="background" aria-hidden="true" d="M0,0h800v300h-800Z"/><g><g class="mark-area role-mark marks" role="graphics-object" aria-roledescription="area mark container"><path aria-label="Date: Mar 16, 2026; Unique Clones/day: 0; Repository: karlmdavis/jessentials" role="graphics-symbol" aria-roledescription="area mark" d="M0,300L29.63,300L59.259,300L88.889,297L118.519,300L148.148,300L177.778,300L207.407,270L237.037,297L266.667,288L296.296,267L325.926,135L355.556,168L385.185,21L414.815,216L444.444,252L474.074,267L503.704,279L533.333,225L562.963,66L592.593,66L622.222,261L651.852,213L681.481,240L711.111,216L740.741,270L770.37,246L800,216L800,216L770.37,249L740.741,270L711.111,222L681.481,264L651.852,213L622.222,261L592.593,66L562.963,69L533.333,225L503.704,279L474.074,267L444.444,252L414.815,219L385.185,21L355.556,168L325.926,138L296.296,267L266.667,288L237.037,297L207.407,273L177.778,300L148.148,300L118.519,300L88.889,297L59.259,300L29.63,300L0,300Z" fill="#b279a2"/></g></g><path class="foreground" aria-hidden="true" d="" display="none"/></g><g transform="translate(0,0)"><path class="background" aria-hidden="true" d="M0,0h800v300h-800Z"/><g><g class="mark-area role-mark marks" role="graphics-object" aria-roledescription="area mark container"><path aria-label="Date: Mar 16, 2026; Unique Clones/day: 0; Repository: karlmdavis/justdavis-ansible" role="graphics-symbol" aria-roledescription="area mark" d="M0,300L29.63,300L59.259,300L88.889,297L118.519,300L148.148,300L177.778,300L207.407,273L237.037,297L266.667,288L296.296,267L325.926,138L355.556,168L385.185,21L414.815,219L444.444,252L474.074,267L503.704,279L533.333,225L562.963,69L592.593,66L622.222,261L651.852,213L681.481,264L711.111,222L740.741,270L770.37,249L800,216L800,228L770.37,249L740.741,273L711.111,225L681.481,264L651.852,213L622.222,261L592.593,66L562.963,72L533.333,225L503.704,279L474.074,270L444.444,252L414.815,219L385.185,21L355.556,171L325.926,141L296.296,267L266.667,291L237.037,297L207.407,273L177.778,300L148.148,300L118.519,300L88.889,297L59.259,300L29.63,300L0,300Z" fill="#ff9da6"/></g></g><path class="foreground" aria-hidden="true" d="" display="none"/></g><g transform="translate(0,0)"><path class="background" aria-hidden="true" d="M0,0h800v300h-800Z"/><g><g class="mark-area role-mark marks" role="graphics-object" aria-roledescription="area mark container"><path aria-label="Date: Mar 16, 2026; Unique Clones/day: 0; Repository: karlmdavis/justdavis-finances" role="graphics-symbol" aria-roledescription="area mark" d="M0,300L29.63,300L59.259,300L88.889,297L118.519,300L148.148,300L177.778,300L207.407,273L237.037,297L266.667,291L296.296,267L325.926,141L355.556,171L385.185,21L414.815,219L444.444,252L474.074,270L503.704,279L533.333,225L562.963,72L592.593,66L622.222,261L651.852,213L681.481,264L711.111,225L740.741,273L770.37,249L800,228L800,279L770.37,255L740.741,273L711.111,228L681.481,267L651.852,264L622.222,285L592.593,291L562.963,243L533.333,285L503.704,282L474.074,273L444.444,255L414.815,264L385.185,276L355.556,282L325.926,234L296.296,270L266.667,294L237.037,297L207.407,273L177.778,300L148.148,300L118.519,300L88.889,297L59.259,300L29.63,300L0,300Z" fill="#9d755d"/></g></g><path class="foreground" aria-hidden="true" d="" display="none"/></g><g transform="translate(0,0)"><path class="background" aria-hidden="true" d="M0,0h800v300h-800Z"/><g><g class="mark-area role-mark marks" role="graphics-object" aria-roledescription="area mark container"><path aria-label="Date: Mar 16, 2026; Unique Clones/day: 0; Repository: karlmdavis/justdavis-karl" role="graphics-symbol" aria-roledescription="area mark" d="M0,300L29.63,300L59.259,300L88.889,297L118.519,300L148.148,300L177.778,300L207.407,273L237.037,297L266.667,294L296.296,270L325.926,234L355.556,282L385.185,276L414.815,264L444.444,255L474.074,273L503.704,282L533.333,285L562.963,243L592.593,291L622.222,285L651.852,264L681.481,267L711.111,228L740.741,273L770.37,255L800,279L800,282L770.37,258L740.741,273L711.111,234L681.481,267L651.852,264L622.222,288L592.593,291L562.963,246L533.333,285L503.704,285L474.074,273L444.444,258L414.815,267L385.185,276L355.556,285L325.926,237L296.296,270L266.667,294L237.037,297L207.407,276L177.778,300L148.148,300L118.519,300L88.889,297L59.259,300L29.63,300L0,300Z" fill="#bab0ac"/></g></g><path class="foreground" aria-hidden="true" d="" display="none"/></g><g transform="translate(0,0)"><path class="background" aria-hidden="true" d="M0,0h800v300h-800Z"/><g><g class="mark-area role-mark marks" role="graphics-object" aria-roledescription="area mark container"><path aria-label="Date: Mar 16, 2026; Unique Clones/day: 0; Repository: karlmdavis/justdavis-puppet" role="graphics-symbol" aria-roledescription="area mark" d="M0,300L29.63,300L59.259,300L88.889,297L118.519,300L148.148,300L177.778,300L207.407,276L237.037,297L266.667,294L296.296,270L325.926,237L355.556,285L385.185,276L414.815,267L444.444,258L474.074,273L503.704,285L533.333,285L562.963,246L592.593,291L622.222,288L651.852,264L681.481,267L711.111,234L740.741,273L770.37,258L800,282L800,285L770.37,261L740.741,273L711.111,237L681.481,270L651.852,264L622.222,288L592.593,291L562.963,249L533.333,285L503.704,285L474.074,273L444.444,264L414.815,270L385.185,276L355.556,285L325.926,240L296.296,270L266.667,294L237.037,297L207.407,276L177.778,300L148.148,300L118.519,300L88.889,297L59.259,300L29.63,300L0,300Z" fill="#4c78a8"/></g></g><path class="foreground" aria-hidden="true" d="" display="none"/></g><g transform="translate(0,0)"><path class="background" aria-hidden="true" d="M0,0h800v300h-800Z"/><g><g class="mark-area role-mark marks" role="graphics-object" aria-roledescription="area mark container"><path aria-label="Date: Mar 16, 2026; Unique Clones/day: 0; Repository: karlmdavis/kobjects" role="graphics-symbol" aria-roledescription="area mark" d="M0,300L29.63,300L59.259,300L88.889,297L118.519,300L148.148,300L177.778,300L207.407,276L237.037,297L266.667,294L296.296,270L325.926,240L355.556,285L385.185,276L414.815,270L444.444,264L474.074,273L503.704,285L533.333,285L562.963,249L592.593,291L622.222,288L651.852,264L681.481,270L711.111,237L740.741,273L770.37,261L800,285L800,285L770.37,264L740.741,273L711.111,243L681.481,270L651.852,264L622.222,288L592.593,291L562.963,252L533.333,285L503.704,285L474.074,273L444.444,264L414.815,270L385.185,276L355.556,285L325.926,243L296.296,273L266.667,294L237.037,297L207.407,276L177.778,300L148.148,300L118.519,300L88.889,297L59.259,300L29.63,300L0,300Z" fill="#f58518"/></g></g><path class="foreground" aria-hidden="true" d="" display="none"/></g><g transform="translate(0,0)"><path class="background" aria-hidden="true" d="M0,0h800v300h-800Z"/><g><g class="mark-area role-mark marks" role="graphics-object" aria-roledescription="area mark container"><path aria-label="Date: Mar 16, 2026; Unique Clones/day: 0; Repository: karlmdavis/ksoap2-android" role="graphics-symbol" aria-roledescription="area mark" d="M0,300L29.63,300L59.259,300L88.889,297L118.519,300L148.148,300L177.778,300L207.407,276L237.037,297L266.667,294L296.296,273L325.926,243L355.556,285L385.185,276L414.815,270L444.444,264L474.074,273L503.704,285L533.333,285L562.963,252L592.593,291L622.222,288L651.852,264L681.481,270L711.111,243L740.741,273L770.37,264L800,285L800,285L770.37,267L740.741,282L711.111,246L681.481,288L651.852,279L622.222,291L592.593,291L562.963,261L533.333,285L503.704,288L474.074,276L444.444,267L414.815,282L385.185,282L355.556,285L325.926,246L296.296,282L266.667,294L237.037,297L207.407,279L177.778,300L148.148,300L118.519,300L88.889,297L59.259,300L29.63,300L0,300Z" fill="#e45756"/></g></g><path class="foreground" aria-hidden="true" d="" display="none"/></g><g transform="translate(0,0)"><path class="background" aria-hidden="true" d="M0,0h800v300h-800Z"/><g><g class="mark-area role-mark marks" role="graphics-object" aria-roledescription="area mark container"><path aria-label="Date: Mar 16, 2026; Unique Clones/day: 0; Repository: karlmdavis/kxml2" role="graphics-symbol" aria-roledescription="area mark" d="M0,300L29.63,300L59.259,300L88.889,297L118.519,300L148.148,300L177.778,300L207.407,279L237.037,297L266.667,294L296.296,282L325.926,246L355.556,285L385.185,282L414.815,282L444.444,267L474.074,276L503.704,288L533.333,285L562.963,261L592.593,291L622.222,291L651.852,279L681.481,288L711.111,246L740.741,282L770.37,267L800,285L800,285L770.37,267L740.741,282L711.111,249L681.481,288L651.852,282L622.222,294L592.593,294L562.963,264L533.333,285L503.704,288L474.074,276L444.444,270L414.815,291L385.185,285L355.556,285L325.926,252L296.296,285L266.667,294L237.037,297L207.407,282L177.778,300L148.148,300L118.519,300L88.889,297L59.259,300L29.63,300L0,300Z" fill="#72b7b2"/></g></g><path class="foreground" aria-hidden="true" d="" display="none"/></g><g transform="translate(0,0)"><path class="background" aria-hidden="true" d="M0,0h800v300h-800Z"/><g><g class="mark-area role-mark marks" role="graphics-object" aria-roledescription="area mark container"><path aria-label="Date: Mar 16, 2026; Unique Clones/day: 0; Repository: karlmdavis/ldap-plugin" role="graphics-symbol" aria-roledescription="area mark" d="M0,300L29.63,300L59.259,300L88.889,297L118.519,300L148.148,300L177.778,300L207.407,282L237.037,297L266.667,294L296.296,285L325.926,252L355.556,285L385.185,285L414.815,291L444.444,270L474.074,276L503.704,288L533.333,285L562.963,264L592.593,294L622.222,294L651.852,282L681.481,288L711.111,249L740.741,282L770.37,267L800,285L800,285L770.37,267L740.741,282L711.111,249L681.481,288L651.852,282L622.222,294L592.593,294L562.963,264L533.333,288L503.704,291L474.074,276L444.444,270L414.815,291L385.185,285L355.556,285L325.926,252L296.296,285L266.667,294L237.037,297L207.407,282L177.778,300L148.148,300L118.519,300L88.889,297L59.259,300L29.63,300L0,300Z" fill="#54a24b"/></g></g><path class="foreground" aria-hidden="true" d="" display="none"/></g><g transform="translate(0,0)"><path class="background" aria-hidden="true" d="M0,0h800v300h-800Z"/><g><g class="mark-area role-mark marks" role="graphics-object" aria-roledescription="area mark container"><path aria-label="Date: Mar 16, 2026; Unique Clones/day: 0; Repository: karlmdavis/lego-ev3dev-rs" role="graphics-symbol" aria-roledescription="area mark" d="M0,300L29.63,300L59.259,300L88.889,297L118.519,300L148.148,300L177.778,300L207.407,282L237.037,297L266.667,294L296.296,285L325.926,252L355.556,285L385.185,285L414.815,291L444.444,270L474.074,276L503.704,291L533.333,288L562.963,264L592.593,294L622.222,294L651.852,282L681.481,288L711.111,249L740.741,282L770.37,267L800,285L800,285L770.37,273L740.741,282L711.111,255L681.481,288L651.852,285L622.222,294L592.593,297L562.963,267L533.333,291L503.704,291L474.074,279L444.444,276L414.815,291L385.185,288L355.556,288L325.926,261L296.296,285L266.667,297L237.037,297L207.407,285L177.778,300L148.148,300L118.519,300L88.889,297L59.259,300L29.63,300L0,300Z" fill="#eeca3b"/></g></g><path class="foreground" aria-hidden="true" d="" display="none"/></g><g transform="translate(0,0)"><path class="background" aria-hidden="true" d="M0,0h800v300h-800Z"/><g><g class="mark-area role-mark marks" role="graphics-object" aria-roledescription="area mark container"><path aria-label="Date: Mar 16, 2026; Unique Clones/day: 0; Repository: karlmdavis/liquibase" role="graphics-symbol" aria-roledescription="area mark" d="M0,300L29.63,300L59.259,300L88.889,297L118.519,300L148.148,300L177.778,300L207.407,285L237.037,297L266.667,297L296.296,285L325.926,261L355.556,288L385.185,288L414.815,291L444.444,276L474.074,279L503.704,291L533.333,291L562.963,267L592.593,297L622.222,294L651.852,285L681.481,288L711.111,255L740.741,282L770.37,273L800,285L800,285L770.37,273L740.741,285L711.111,258L681.481,288L651.852,285L622.222,294L592.593,297L562.963,267L533.333,291L503.704,291L474.074,279L444.444,276L414.815,291L385.185,288L355.556,288L325.926,261L296.296,285L266.667,297L237.037,297L207.407,285L177.778,300L148.148,300L118.519,300L88.889,300L59.259,300L29.63,300L0,300Z" fill="#b279a2"/></g></g><path class="foreground" aria-hidden="true" d="" display="none"/></g><g transform="translate(0,0)"><path class="background" aria-hidden="true" d="M0,0h800v300h-800Z"/><g><g class="mark-area role-mark marks" role="graphics-object" aria-roledescription="area mark container"><path aria-label="Date: Mar 16, 2026; Unique Clones/day: 0; Repository: karlmdavis/m2e-core" role="graphics-symbol" aria-roledescription="area mark" d="M0,300L29.63,300L59.259,300L88.889,300L118.519,300L148.148,300L177.778,300L207.407,285L237.037,297L266.667,297L296.296,285L325.926,261L355.556,288L385.185,288L414.815,291L444.444,276L474.074,279L503.704,291L533.333,291L562.963,267L592.593,297L622.222,294L651.852,285L681.481,288L711.111,258L740.741,285L770.37,273L800,285L800,285L770.37,276L740.741,288L711.111,264L681.481,291L651.852,288L622.222,294L592.593,297L562.963,270L533.333,291L503.704,291L474.074,279L444.444,276L414.815,291L385.185,291L355.556,288L325.926,264L296.296,285L266.667,297L237.037,297L207.407,285L177.778,300L148.148,300L118.519,300L88.889,300L59.259,300L29.63,300L0,300Z" fill="#ff9da6"/></g></g><path class="foreground" aria-hidden="true" d="" display="none"/></g><g transform="translate(0,0)"><path class="background" aria-hidden="true" d="M0,0h800v300h-800Z"/><g><g class="mark-area role-mark marks" role="graphics-object" aria-roledescription="area mark container"><path aria-label="Date: Mar 16, 2026; Unique Clones/day: 0; Repository: karlmdavis/m2e-core-tests" role="graphics-symbol" aria-roledescription="area mark" d="M0,300L29.63,300L59.259,300L88.889,300L118.519,300L148.148,300L177.778,300L207.407,285L237.037,297L266.667,297L296.296,285L325.926,264L355.556,288L385.185,291L414.815,291L444.444,276L474.074,279L503.704,291L533.333,291L562.963,270L592.593,297L622.222,294L651.852,288L681.481,291L711.111,264L740.741,288L770.37,276L800,285L800,288L770.37,276L740.741,294L711.111,267L681.481,294L651.852,291L622.222,294L592.593,297L562.963,270L533.333,291L503.704,291L474.074,285L444.444,276L414.815,291L385.185,291L355.556,291L325.926,264L296.296,288L266.667,297L237.037,297L207.407,285L177.778,300L148.148,300L118.519,300L88.889,300L59.259,300L29.63,300L0,300Z" fill="#9d755d"/></g></g><path class="foreground" aria-hidden="true" d="" display="none"/></g><g transform="translate(0,0)"><path class="background" aria-hidden="true" d="M0,0h800v300h-800Z"/><g><g class="mark-area role-mark marks" role="graphics-object" aria-roledescription="area mark container"><path aria-label="Date: Mar 16, 2026; Unique Clones/day: 0; Repository: karlmdavis/obsidian-operator" role="graphics-symbol" aria-roledescription="area mark" d="M0,300L29.63,300L59.259,300L88.889,300L118.519,300L148.148,300L177.778,300L207.407,285L237.037,297L266.667,297L296.296,288L325.926,264L355.556,291L385.185,291L414.815,291L444.444,276L474.074,285L503.704,291L533.333,291L562.963,270L592.593,297L622.222,294L651.852,291L681.481,294L711.111,267L740.741,294L770.37,276L800,288L800,291L770.37,282L740.741,294L711.111,270L681.481,294L651.852,291L622.222,294L592.593,297L562.963,273L533.333,297L503.704,291L474.074,285L444.444,285L414.815,291L385.185,291L355.556,291L325.926,267L296.296,288L266.667,297L237.037,297L207.407,288L177.778,300L148.148,300L118.519,300L88.889,300L59.259,300L29.63,300L0,300Z" fill="#bab0ac"/></g></g><path class="foreground" aria-hidden="true" d="" display="none"/></g><g transform="translate(0,0)"><path class="background" aria-hidden="true" d="M0,0h800v300h-800Z"/><g><g class="mark-area role-mark marks" role="graphics-object" aria-roledescription="area mark container"><path aria-label="Date: Mar 16, 2026; Unique Clones/day: 0; Repository: karlmdavis/perfect-note" role="graphics-symbol" aria-roledescription="area mark" d="M0,300L29.63,300L59.259,300L88.889,300L118.519,300L148.148,300L177.778,300L207.407,288L237.037,297L266.667,297L296.296,288L325.926,267L355.556,291L385.185,291L414.815,291L444.444,285L474.074,285L503.704,291L533.333,297L562.963,273L592.593,297L622.222,294L651.852,291L681.481,294L711.111,270L740.741,294L770.37,282L800,291L800,291L770.37,282L740.741,294L711.111,273L681.481,294L651.852,291L622.222,294L592.593,297L562.963,276L533.333,297L503.704,291L474.074,285L444.444,285L414.815,291L385.185,291L355.556,294L325.926,270L296.296,291L266.667,297L237.037,297L207.407,288L177.778,300L148.148,300L118.519,300L88.889,300L59.259,300L29.63,300L0,300Z" fill="#4c78a8"/></g></g><path class="foreground" aria-hidden="true" d="" display="none"/></g><g transform="translate(0,0)"><path class="background" aria-hidden="true" d="M0,0h800v300h-800Z"/><g><g class="mark-area role-mark marks" role="graphics-object" aria-roledescription="area mark container"><path aria-label="Date: Mar 16, 2026; Unique Clones/day: 0; Repository: karlmdavis/puppet-archive" role="graphics-symbol" aria-roledescription="area mark" d="M0,300L29.63,300L59.259,300L88.889,300L118.519,300L148.148,300L177.778,300L207.407,288L237.037,297L266.667,297L296.296,291L325.926,270L355.556,294L385.185,291L414.815,291L444.444,285L474.074,285L503.704,291L533.333,297L562.963,276L592.593,297L622.222,294L651.852,291L681.481,294L711.111,273L740.741,294L770.37,282L800,291L800,291L770.37,285L740.741,294L711.111,276L681.481,294L651.852,291L622.222,294L592.593,297L562.963,276L533.333,297L503.704,291L474.074,285L444.444,285L414.815,291L385.185,291L355.556,294L325.926,270L296.296,291L266.667,297L237.037,297L207.407,291L177.778,300L148.148,300L118.519,300L88.889,300L59.259,300L29.63,300L0,300Z" fill="#f58518"/></g></g><path class="foreground" aria-hidden="true" d="" display="none"/></g><g transform="translate(0,0)"><path class="background" aria-hidden="true" d="M0,0h800v300h-800Z"/><g><g class="mark-area role-mark marks" role="graphics-object" aria-roledescription="area mark container"><path aria-label="Date: Mar 16, 2026; Unique Clones/day: 0; Repository: karlmdavis/puppet-sonar" role="graphics-symbol" aria-roledescription="area mark" d="M0,300L29.63,300L59.259,300L88.889,300L118.519,300L148.148,300L177.778,300L207.407,291L237.037,297L266.667,297L296.296,291L325.926,270L355.556,294L385.185,291L414.815,291L444.444,285L474.074,285L503.704,291L533.333,297L562.963,276L592.593,297L622.222,294L651.852,291L681.481,294L711.111,276L740.741,294L770.37,285L800,291L800,291L770.37,288L740.741,294L711.111,276L681.481,297L651.852,294L622.222,294L592.593,297L562.963,276L533.333,297L503.704,294L474.074,285L444.444,291L414.815,291L385.185,291L355.556,297L325.926,270L296.296,291L266.667,297L237.037,297L207.407,291L177.778,300L148.148,300L118.519,300L88.889,300L59.259,300L29.63,300L0,300Z" fill="#e45756"/></g></g><path class="foreground" aria-hidden="true" d="" display="none"/></g><g transform="translate(0,0)"><path class="background" aria-hidden="true" d="M0,0h800v300h-800Z"/><g><g class="mark-area role-mark marks" role="graphics-object" aria-roledescription="area mark container"><path aria-label="Date: Mar 16, 2026; Unique Clones/day: 0; Repository: karlmdavis/rps-tourney" role="graphics-symbol" aria-roledescription="area mark" d="M0,300L29.63,300L59.259,300L88.889,300L118.519,300L148.148,300L177.778,300L207.407,291L237.037,297L266.667,297L296.296,291L325.926,270L355.556,297L385.185,291L414.815,291L444.444,291L474.074,285L503.704,294L533.333,297L562.963,276L592.593,297L622.222,294L651.852,294L681.481,297L711.111,276L740.741,294L770.37,288L800,291L800,291L770.37,291L740.741,294L711.111,279L681.481,297L651.852,294L622.222,294L592.593,297L562.963,279L533.333,297L503.704,297L474.074,285L444.444,291L414.815,291L385.185,291L355.556,297L325.926,273L296.296,291L266.667,297L237.037,297L207.407,294L177.778,300L148.148,300L118.519,300L88.889,300L59.259,300L29.63,300L0,300Z" fill="#72b7b2"/></g></g><path class="foreground" aria-hidden="true" d="" display="none"/></g><g transform="translate(0,0)"><path class="background" aria-hidden="true" d="M0,0h800v300h-800Z"/><g><g class="mark-area role-mark marks" role="graphics-object" aria-roledescription="area mark container"><path aria-label="Date: Mar 16, 2026; Unique Clones/day: 0; Repository: karlmdavis/sample-maven-and-rcp" role="graphics-symbol" aria-roledescription="area mark" d="M0,300L29.63,300L59.259,300L88.889,300L118.519,300L148.148,300L177.778,300L207.407,294L237.037,297L266.667,297L296.296,291L325.926,273L355.556,297L385.185,291L414.815,291L444.444,291L474.074,285L503.704,297L533.333,297L562.963,279L592.593,297L622.222,294L651.852,294L681.481,297L711.111,279L740.741,294L770.37,291L800,291L800,291L770.37,291L740.741,294L711.111,282L681.481,297L651.852,294L622.222,294L592.593,297L562.963,282L533.333,297L503.704,297L474.074,288L444.444,291L414.815,291L385.185,291L355.556,297L325.926,276L296.296,291L266.667,297L237.037,297L207.407,294L177.778,300L148.148,300L118.519,300L88.889,300L59.259,300L29.63,300L0,300Z" fill="#54a24b"/></g></g><path class="foreground" aria-hidden="true" d="" display="none"/></g><g transform="translate(0,0)"><path class="background" aria-hidden="true" d="M0,0h800v300h-800Z"/><g><g class="mark-area role-mark marks" role="graphics-object" aria-roledescription="area mark container"><path aria-label="Date: Mar 16, 2026; Unique Clones/day: 0; Repository: karlmdavis/stockfighter-trades-solutions" role="graphics-symbol" aria-roledescription="area mark" d="M0,300L29.63,300L59.259,300L88.889,300L118.519,300L148.148,300L177.778,300L207.407,294L237.037,297L266.667,297L296.296,291L325.926,276L355.556,297L385.185,291L414.815,291L444.444,291L474.074,288L503.704,297L533.333,297L562.963,282L592.593,297L622.222,294L651.852,294L681.481,297L711.111,282L740.741,294L770.37,291L800,291L800,291L770.37,291L740.741,294L711.111,285L681.481,297L651.852,294L622.222,294L592.593,297L562.963,285L533.333,297L503.704,297L474.074,288L444.444,291L414.815,291L385.185,294L355.556,297L325.926,282L296.296,291L266.667,297L237.037,297L207.407,294L177.778,300L148.148,300L118.519,300L88.889,300L59.259,300L29.63,300L0,300Z" fill="#eeca3b"/></g></g><path class="foreground" aria-hidden="true" d="" display="none"/></g><g transform="translate(0,0)"><path class="background" aria-hidden="true" d="M0,0h800v300h-800Z"/><g><g class="mark-area role-mark marks" role="graphics-object" aria-roledescription="area mark container"><path aria-label="Date: Mar 16, 2026; Unique Clones/day: 0; Repository: karlmdavis/test-repo-for-move" role="graphics-symbol" aria-roledescription="area mark" d="M0,300L29.63,300L59.259,300L88.889,300L118.519,300L148.148,300L177.778,300L207.407,294L237.037,297L266.667,297L296.296,291L325.926,282L355.556,297L385.185,294L414.815,291L444.444,291L474.074,288L503.704,297L533.333,297L562.963,285L592.593,297L622.222,294L651.852,294L681.481,297L711.111,285L740.741,294L770.37,291L800,291L800,291L770.37,291L740.741,294L711.111,288L681.481,297L651.852,294L622.222,294L592.593,297L562.963,288L533.333,297L503.704,297L474.074,288L444.444,291L414.815,291L385.185,297L355.556,297L325.926,285L296.296,294L266.667,297L237.037,297L207.407,294L177.778,300L148.148,300L118.519,300L88.889,300L59.259,300L29.63,300L0,300Z" fill="#b279a2"/></g></g><path class="foreground" aria-hidden="true" d="" display="none"/></g><g transform="translate(0,0)"><path class="background" aria-hidden="true" d="M0,0h800v300h-800Z"/><g><g class="mark-area role-mark marks" role="graphics-object" aria-roledescription="area mark container"><path aria-label="Date: Mar 16, 2026; Unique Clones/day: 0; Repository: karlmdavis/todoist-ai" role="graphics-symbol" aria-roledescription="area mark" d="M0,300L29.63,300L59.259,300L88.889,300L118.519,300L148.148,300L177.778,300L207.407,294L237.037,297L266.667,297L296.296,294L325.926,285L355.556,297L385.185,297L414.815,291L444.444,291L474.074,288L503.704,297L533.333,297L562.963,288L592.593,297L622.222,294L651.852,294L681.481,297L711.111,288L740.741,294L770.37,291L800,291L800,291L770.37,294L740.741,294L711.111,288L681.481,297L651.852,294L622.222,294L592.593,297L562.963,288L533.333,297L503.704,297L474.074,294L444.444,291L414.815,291L385.185,297L355.556,297L325.926,285L296.296,294L266.667,297L237.037,297L207.407,294L177.778,300L148.148,300L118.519,300L88.889,300L59.259,300L29.63,300L0,300Z" fill="#ff9da6"/></g></g><path class="foreground" aria-hidden="true" d="" display="none"/></g><g transform="translate(0,0)"><path class="background" aria-hidden="true" d="M0,0h800v300h-800Z"/><g><g class="mark-area role-mark marks" role="graphics-object" aria-roledescription="area mark container"><path aria-label="Date: Mar 16, 2026; Unique Clones/day: 0; Repository: karlmdavis/usgs-water-api-java" role="graphics-symbol" aria-roledescription="area mark" d="M0,300L29.63,300L59.259,300L88.889,300L118.519,300L148.148,300L177.778,300L207.407,294L237.037,297L266.667,297L296.296,294L325.926,285L355.556,297L385.185,297L414.815,291L444.444,291L474.074,294L503.704,297L533.333,297L562.963,288L592.593,297L622.222,294L651.852,294L681.481,297L711.111,288L740.741,294L770.37,294L800,291L800,300L770.37,297L740.741,297L711.111,294L681.481,300L651.852,297L622.222,300L592.593,300L562.963,294L533.333,300L503.704,300L474.074,297L444.444,294L414.815,297L385.185,300L355.556,300L325.926,291L296.296,300L266.667,300L237.037,300L207.407,300L177.778,300L148.148,300L118.519,300L88.889,300L59.259,300L29.63,300L0,300Z" fill="#9d755d"/></g></g><path class="foreground" aria-hidden="true" d="" display="none"/></g><g transform="translate(0,0)"><path class="background" aria-hidden="true" d="M0,0h800v300h-800Z"/><g><g class="mark-area role-mark marks" role="graphics-object" aria-roledescription="area mark container"><path aria-label="Date: Mar 16, 2026; Unique Clones/day: 0; Repository: karlmdavis/workstation-base-ansible-role" role="graphics-symbol" aria-roledescription="area mark" d="M0,300L29.63,300L59.259,300L88.889,300L118.519,300L148.148,300L177.778,300L207.407,300L237.037,300L266.667,300L296.296,300L325.926,291L355.556,300L385.185,300L414.815,297L444.444,294L474.074,297L503.704,300L533.333,300L562.963,294L592.593,300L622.222,300L651.852,297L681.481,300L711.111,294L740.741,297L770.37,297L800,300L800,300L770.37,300L740.741,297L711.111,297L681.481,300L651.852,297L622.222,300L592.593,300L562.963,297L533.333,300L503.704,300L474.074,300L444.444,297L414.815,300L385.185,300L355.556,300L325.926,297L296.296,300L266.667,300L237.037,300L207.407,300L177.778,300L148.148,300L118.519,300L88.889,300L59.259,300L29.63,300L0,300Z" fill="#bab0ac"/></g></g><path class="foreground" aria-hidden="true" d="" display="none"/></g><g transform="translate(0,0)"><path class="background" aria-hidden="true" d="M0,0h800v300h-800Z"/><g><g class="mark-area role-mark marks" role="graphics-object" aria-roledescription="area mark container"><path aria-label="Date: Mar 16, 2026; Unique Clones/day: 0; Repository: karlmdavis/xmlpull" role="graphics-symbol" aria-roledescription="area mark" d="M0,300L29.63,300L59.259,300L88.889,300L118.519,300L148.148,300L177.778,300L207.407,300L237.037,300L266.667,300L296.296,300L325.926,297L355.556,300L385.185,300L414.815,300L444.444,297L474.074,300L503.704,300L533.333,300L562.963,297L592.593,300L622.222,300L651.852,297L681.481,300L711.111,297L740.741,297L770.37,300L800,300L800,300L770.37,300L740.741,300L711.111,300L681.481,300L651.852,300L622.222,300L592.593,300L562.963,300L533.333,300L503.704,300L474.074,300L444.444,300L414.815,300L385.185,300L355.556,300L325.926,300L296.296,300L266.667,300L237.037,300L207.407,300L177.778,300L148.148,300L118.519,300L88.889,300L59.259,300L29.63,300L0,300Z" fill="#4c78a8"/></g></g><path class="foreground" aria-hidden="true" d="" display="none"/></g></g><g class="mark-group role-legend" role="graphics-symbol" aria-roledescription="legend" aria-label="Symbol legend titled 'Repository' for fill color with 41 values: karlmdavis/FHIR-Server, karlmdavis/ansible, karlmdavis/ansible-jenkins, karlmdavis/ansible-role-acmetool, karlmdavis/ansible-role-bind-dns, ending with karlmdavis/xmlpull"><g transform="translate(818,0)"><path class="background" aria-hidden="true" d="M0,0h176v404h-176Z" pointer-events="none"/><g><g class="mark-group role-legend-entry"><g transform="translate(0,16)"><path class="background" aria-hidden="true" d="M0,0h0v0h0Z" pointer-events="none"/><g><g class="mark-group role-scope" role="graphics-object" aria-roledescription="group mark container"><g transform="translate(0,0)"><path class="background" aria-hidden="true" d="M0,0h176v11h-176Z" pointer-events="none" opacity="1"/><g><g class="mark-symbol role-legend-symbol" pointer-events="none"><path transform="translate(6,6)" d="M5,0A5,5,0,1,1,-5,0A5,5,0,1,1,5,0" fill="#4c78a8" stroke-width="1.5" opacity="1"/></g><g class="mark-text role-legend-label" pointer-events="none"><text text-anchor="start" transform="translate(16,9)" font-family="sans-serif" font-size="10px" fill="#000" opacity="1">karlmdavis/FHIR-Server</text></g></g><path class="foreground" aria-hidden="true" d="" pointer-events="none" display="none"/></g><g transform="translate(0,13)"><path class="background" aria-hidden="true" d="M0,0h176v11h-176Z" pointer-events="none" opacity="1"/><g><g class="mark-symbol role-legend-symbol" pointer-events="none"><path transform="translate(6,6)" d="M5,0A5,5,0,1,1,-5,0A5,5,0,1,1,5,0" fill="#f58518" stroke-width="1.5" opacity="1"/></g><g class="mark-text role-legend-label" pointer-events="none"><text text-anchor="start" transform="translate(16,9)" font-family="sans-serif" font-size="10px" fill="#000" opacity="1">karlmdavis/ansible</text></g></g><path class="foreground" aria-hidden="true" d="" pointer-events="none" display="none"/></g><g transform="translate(0,26)"><path class="background" aria-hidden="true" d="M0,0h176v11h-176Z" pointer-events="none" opacity="1"/><g><g class="mark-symbol role-legend-symbol" pointer-events="none"><path transform="translate(6,6)" d="M5,0A5,5,0,1,1,-5,0A5,5,0,1,1,5,0" fill="#e45756" stroke-width="1.5" opacity="1"/></g><g class="mark-text role-legend-label" pointer-events="none"><text text-anchor="start" transform="translate(16,9)" font-family="sans-serif" font-size="10px" fill="#000" opacity="1">karlmdavis/ansible-jenkins</text></g></g><path class="foreground" aria-hidden="true" d="" pointer-events="none" display="none"/></g><g transform="translate(0,39)"><path class="background" aria-hidden="true" d="M0,0h176v11h-176Z" pointer-events="none" opacity="1"/><g><g class="mark-symbol role-legend-symbol" pointer-events="none"><path transform="translate(6,6)" d="M5,0A5,5,0,1,1,-5,0A5,5,0,1,1,5,0" fill="#72b7b2" stroke-width="1.5" opacity="1"/></g><g class="mark-text role-legend-label" pointer-events="none"><text text-anchor="start" transform="translate(16,9)" font-family="sans-serif" font-size="10px" fill="#000" opacity="1">karlmdavis/ansible-role-acmetool</text></g></g><path class="foreground" aria-hidden="true" d="" pointer-events="none" display="none"/></g><g transform="translate(0,52)"><path class="background" aria-hidden="true" d="M0,0h176v11h-176Z" pointer-events="none" opacity="1"/><g><g class="mark-symbol role-legend-symbol" pointer-events="none"><path transform="translate(6,6)" d="M5,0A5,5,0,1,1,-5,0A5,5,0,1,1,5,0" fill="#54a24b" stroke-width="1.5" opacity="1"/></g><g class="mark-text role-legend-label" pointer-events="none"><text text-anchor="start" transform="translate(16,9)" font-family="sans-serif" font-size="10px" fill="#000" opacity="1">karlmdavis/ansible-role-bind-dns</text></g></g><path class="foreground" aria-hidden="true" d="" pointer-events="none" display="none"/></g><g transform="translate(0,65)"><path class="background" aria-hidden="true" d="M0,0h176v11h-176Z" pointer-events="none" opacity="1"/><g><g class="mark-symbol role-legend-symbol" pointer-events="none"><path transform="translate(6,6)" d="M5,0A5,5,0,1,1,-5,0A5,5,0,1,1,5,0" fill="#eeca3b" stroke-width="1.5" opacity="1"/></g><g class="mark-text role-legend-label" pointer-events="none"><text text-anchor="start" transform="translate(16,9)" font-family="sans-serif" font-size="10px" fill="#000" opacity="1">karlmdavis/ansible-role-jenkins2</text></g></g><path class="foreground" aria-hidden="true" d="" pointer-events="none" display="none"/></g><g transform="translate(0,78)"><path class="background" aria-hidden="true" d="M0,0h176v11h-176Z" pointer-events="none" opacity="1"/><g><g class="mark-symbol role-legend-symbol" pointer-events="none"><path transform="translate(6,6)" d="M5,0A5,5,0,1,1,-5,0A5,5,0,1,1,5,0" fill="#b279a2" stroke-width="1.5" opacity="1"/></g><g class="mark-text role-legend-label" pointer-events="none"><text text-anchor="start" transform="translate(16,9)" font-family="sans-serif" font-size="10px" fill="#000" opacity="1">karlmdavis/ansible-role-ldap</text></g></g><path class="foreground" aria-hidden="true" d="" pointer-events="none" display="none"/></g><g transform="translate(0,91)"><path class="background" aria-hidden="true" d="M0,0h176v11h-176Z" pointer-events="none" opacity="1"/><g><g class="mark-symbol role-legend-symbol" pointer-events="none"><path transform="translate(6,6)" d="M5,0A5,5,0,1,1,-5,0A5,5,0,1,1,5,0" fill="#ff9da6" stroke-width="1.5" opacity="1"/></g><g class="mark-text role-legend-label" pointer-events="none"><text text-anchor="start" transform="translate(16,9)" font-family="sans-serif" font-size="10px" fill="#000" opacity="1">karlmdavis/ansible-role-rcm-dotfiles</text></g></g><path class="foreground" aria-hidden="true" d="" pointer-events="none" display="none"/></g><g transform="translate(0,104)"><path class="background" aria-hidden="true" d="M0,0h176v11h-176Z" pointer-events="none" opacity="1"/><g><g class="mark-symbol role-legend-symbol" pointer-events="none"><path transform="translate(6,6)" d="M5,0A5,5,0,1,1,-5,0A5,5,0,1,1,5,0" fill="#9d755d" stroke-width="1.5" opacity="1"/></g><g class="mark-text role-legend-label" pointer-events="none"><text text-anchor="start" transform="translate(16,9)" font-family="sans-serif" font-size="10px" fill="#000" opacity="1">karlmdavis/ansible-roles</text></g></g><path class="foreground" aria-hidden="true" d="" pointer-events="none" display="none"/></g><g transform="translate(0,117)"><path class="background" aria-hidden="true" d="M0,0h176v11h-176Z" pointer-events="none" opacity="1"/><g><g class="mark-symbol role-legend-symbol" pointer-events="none"><path transform="translate(6,6)" d="M5,0A5,5,0,1,1,-5,0A5,5,0,1,1,5,0" fill="#bab0ac" stroke-width="1.5" opacity="1"/></g><g class="mark-text role-legend-label" pointer-events="none"><text text-anchor="start" transform="translate(16,9)" font-family="sans-serif" font-size="10px" fill="#000" opacity="1">karlmdavis/bbonfhir-dev-infra-doc…</text></g></g><path class="foreground" aria-hidden="true" d="" pointer-events="none" display="none"/></g><g transform="translate(0,130)"><path class="background" aria-hidden="true" d="M0,0h176v11h-176Z" pointer-events="none" opacity="1"/><g><g class="mark-symbol role-legend-symbol" pointer-events="none"><path transform="translate(6,6)" d="M5,0A5,5,0,1,1,-5,0A5,5,0,1,1,5,0" fill="#4c78a8" stroke-width="1.5" opacity="1"/></g><g class="mark-text role-legend-label" pointer-events="none"><text text-anchor="start" transform="translate(16,9)" font-family="sans-serif" font-size="10px" fill="#000" opacity="1">karlmdavis/can-i-kayak-baltimore</text></g></g><path class="foreground" aria-hidden="true" d="" pointer-events="none" display="none"/></g><g transform="translate(0,143)"><path class="background" aria-hidden="true" d="M0,0h176v11h-176Z" pointer-events="none" opacity="1"/><g><g class="mark-symbol role-legend-symbol" pointer-events="none"><path transform="translate(6,6)" d="M5,0A5,5,0,1,1,-5,0A5,5,0,1,1,5,0" fill="#f58518" stroke-width="1.5" opacity="1"/></g><g class="mark-text role-legend-label" pointer-events="none"><text text-anchor="start" transform="translate(16,9)" font-family="sans-serif" font-size="10px" fill="#000" opacity="1">karlmdavis/datanucleus-test-jdo-1…</text></g></g><path class="foreground" aria-hidden="true" d="" pointer-events="none" display="none"/></g><g transform="translate(0,156)"><path class="background" aria-hidden="true" d="M0,0h176v11h-176Z" pointer-events="none" opacity="1"/><g><g class="mark-symbol role-legend-symbol" pointer-events="none"><path transform="translate(6,6)" d="M5,0A5,5,0,1,1,-5,0A5,5,0,1,1,5,0" fill="#e45756" stroke-width="1.5" opacity="1"/></g><g class="mark-text role-legend-label" pointer-events="none"><text text-anchor="start" transform="translate(16,9)" font-family="sans-serif" font-size="10px" fill="#000" opacity="1">karlmdavis/dotfiles</text></g></g><path class="foreground" aria-hidden="true" d="" pointer-events="none" display="none"/></g><g transform="translate(0,169)"><path class="background" aria-hidden="true" d="M0,0h176v11h-176Z" pointer-events="none" opacity="1"/><g><g class="mark-symbol role-legend-symbol" pointer-events="none"><path transform="translate(6,6)" d="M5,0A5,5,0,1,1,-5,0A5,5,0,1,1,5,0" fill="#72b7b2" stroke-width="1.5" opacity="1"/></g><g class="mark-text role-legend-label" pointer-events="none"><text text-anchor="start" transform="translate(16,9)" font-family="sans-serif" font-size="10px" fill="#000" opacity="1">karlmdavis/fhir-benchmarks</text></g></g><path class="foreground" aria-hidden="true" d="" pointer-events="none" display="none"/></g><g transform="translate(0,182)"><path class="background" aria-hidden="true" d="M0,0h176v11h-176Z" pointer-events="none" opacity="1"/><g><g class="mark-symbol role-legend-symbol" pointer-events="none"><path transform="translate(6,6)" d="M5,0A5,5,0,1,1,-5,0A5,5,0,1,1,5,0" fill="#54a24b" stroke-width="1.5" opacity="1"/></g><g class="mark-text role-legend-label" pointer-events="none"><text text-anchor="start" transform="translate(16,9)" font-family="sans-serif" font-size="10px" fill="#000" opacity="1">karlmdavis/hapi-fhir-jpaserver-sta…</text></g></g><path class="foreground" aria-hidden="true" d="" pointer-events="none" display="none"/></g><g transform="translate(0,195)"><path class="background" aria-hidden="true" d="M0,0h176v11h-176Z" pointer-events="none" opacity="1"/><g><g class="mark-symbol role-legend-symbol" pointer-events="none"><path transform="translate(6,6)" d="M5,0A5,5,0,1,1,-5,0A5,5,0,1,1,5,0" fill="#eeca3b" stroke-width="1.5" opacity="1"/></g><g class="mark-text role-legend-label" pointer-events="none"><text text-anchor="start" transform="translate(16,9)" font-family="sans-serif" font-size="10px" fill="#000" opacity="1">karlmdavis/hello-rust-actix</text></g></g><path class="foreground" aria-hidden="true" d="" pointer-events="none" display="none"/></g><g transform="translate(0,208)"><path class="background" aria-hidden="true" d="M0,0h176v11h-176Z" pointer-events="none" opacity="1"/><g><g class="mark-symbol role-legend-symbol" pointer-events="none"><path transform="translate(6,6)" d="M5,0A5,5,0,1,1,-5,0A5,5,0,1,1,5,0" fill="#b279a2" stroke-width="1.5" opacity="1"/></g><g class="mark-text role-legend-label" pointer-events="none"><text text-anchor="start" transform="translate(16,9)" font-family="sans-serif" font-size="10px" fill="#000" opacity="1">karlmdavis/jessentials</text></g></g><path class="foreground" aria-hidden="true" d="" pointer-events="none" display="none"/></g><g transform="translate(0,221)"><path class="background" aria-hidden="true" d="M0,0h176v11h-176Z" pointer-events="none" opacity="1"/><g><g class="mark-symbol role-legend-symbol" pointer-events="none"><path transform="translate(6,6)" d="M5,0A5,5,0,1,1,-5,0A5,5,0,1,1,5,0" fill="#ff9da6" stroke-width="1.5" opacity="1"/></g><g class="mark-text role-legend-label" pointer-events="none"><text text-anchor="start" transform="translate(16,9)" font-family="sans-serif" font-size="10px" fill="#000" opacity="1">karlmdavis/justdavis-ansible</text></g></g><path class="foreground" aria-hidden="true" d="" pointer-events="none" display="none"/></g><g transform="translate(0,234)"><path class="background" aria-hidden="true" d="M0,0h176v11h-176Z" pointer-events="none" opacity="1"/><g><g class="mark-symbol role-legend-symbol" pointer-events="none"><path transform="translate(6,6)" d="M5,0A5,5,0,1,1,-5,0A5,5,0,1,1,5,0" fill="#9d755d" stroke-width="1.5" opacity="1"/></g><g class="mark-text role-legend-label" pointer-events="none"><text text-anchor="start" transform="translate(16,9)" font-family="sans-serif" font-size="10px" fill="#000" opacity="1">karlmdavis/justdavis-finances</text></g></g><path class="foreground" aria-hidden="true" d="" pointer-events="none" display="none"/></g><g transform="translate(0,247)"><path class="background" aria-hidden="true" d="M0,0h176v11h-176Z" pointer-events="none" opacity="1"/><g><g class="mark-symbol role-legend-symbol" pointer-events="none"><path transform="translate(6,6)" d="M5,0A5,5,0,1,1,-5,0A5,5,0,1,1,5,0" fill="#bab0ac" stroke-width="1.5" opacity="1"/></g><g class="mark-text role-legend-label" pointer-events="none"><text text-anchor="start" transform="translate(16,9)" font-family="sans-serif" font-size="10px" fill="#000" opacity="1">karlmdavis/justdavis-karl</text></g></g><path class="foreground" aria-hidden="true" d="" pointer-events="none" display="none"/></g><g transform="translate(0,260)"><path class="background" aria-hidden="true" d="M0,0h176v11h-176Z" pointer-events="none" opacity="1"/><g><g class="mark-symbol role-legend-symbol" pointer-events="none"><path transform="translate(6,6)" d="M5,0A5,5,0,1,1,-5,0A5,5,0,1,1,5,0" fill="#4c78a8" stroke-width="1.5" opacity="1"/></g><g class="mark-text role-legend-label" pointer-events="none"><text text-anchor="start" transform="translate(16,9)" font-family="sans-serif" font-size="10px" fill="#000" opacity="1">karlmdavis/justdavis-puppet</text></g></g><path class="foreground" aria-hidden="true" d="" pointer-events="none" display="none"/></g><g transform="translate(0,273)"><path class="background" aria-hidden="true" d="M0,0h176v11h-176Z" pointer-events="none" opacity="1"/><g><g class="mark-symbol role-legend-symbol" pointer-events="none"><path transform="translate(6,6)" d="M5,0A5,5,0,1,1,-5,0A5,5,0,1,1,5,0" fill="#f58518" stroke-width="1.5" opacity="1"/></g><g class="mark-text role-legend-label" pointer-events="none"><text text-anchor="start" transform="translate(16,9)" font-family="sans-serif" font-size="10px" fill="#000" opacity="1">karlmdavis/kobjects</text></g></g><path class="foreground" aria-hidden="true" d="" pointer-events="none" display="none"/></g><g transform="translate(0,286)"><path class="background" aria-hidden="true" d="M0,0h176v11h-176Z" pointer-events="none" opacity="1"/><g><g class="mark-symbol role-legend-symbol" pointer-events="none"><path transform="translate(6,6)" d="M5,0A5,5,0,1,1,-5,0A5,5,0,1,1,5,0" fill="#e45756" stroke-width="1.5" opacity="1"/></g><g class="mark-text role-legend-label" pointer-events="none"><text text-anchor="start" transform="translate(16,9)" font-family="sans-serif" font-size="10px" fill="#000" opacity="1">karlmdavis/ksoap2-android</text></g></g><path class="foreground" aria-hidden="true" d="" pointer-events="none" display="none"/></g><g transform="translate(0,299)"><path class="background" aria-hidden="true" d="M0,0h176v11h-176Z" pointer-events="none" opacity="1"/><g><g class="mark-symbol role-legend-symbol" pointer-events="none"><path transform="translate(6,6)" d="M5,0A5,5,0,1,1,-5,0A5,5,0,1,1,5,0" fill="#72b7b2" stroke-width="1.5" opacity="1"/></g><g class="mark-text role-legend-label" pointer-events="none"><text text-anchor="start" transform="translate(16,9)" font-family="sans-serif" font-size="10px" fill="#000" opacity="1">karlmdavis/kxml2</text></g></g><path class="foreground" aria-hidden="true" d="" pointer-events="none" display="none"/></g><g transform="translate(0,312)"><path class="background" aria-hidden="true" d="M0,0h176v11h-176Z" pointer-events="none" opacity="1"/><g><g class="mark-symbol role-legend-symbol" pointer-events="none"><path transform="translate(6,6)" d="M5,0A5,5,0,1,1,-5,0A5,5,0,1,1,5,0" fill="#54a24b" stroke-width="1.5" opacity="1"/></g><g class="mark-text role-legend-label" pointer-events="none"><text text-anchor="start" transform="translate(16,9)" font-family="sans-serif" font-size="10px" fill="#000" opacity="1">karlmdavis/ldap-plugin</text></g></g><path class="foreground" aria-hidden="true" d="" pointer-events="none" display="none"/></g><g transform="translate(0,325)"><path class="background" aria-hidden="true" d="M0,0h176v11h-176Z" pointer-events="none" opacity="1"/><g><g class="mark-symbol role-legend-symbol" pointer-events="none"><path transform="translate(6,6)" d="M5,0A5,5,0,1,1,-5,0A5,5,0,1,1,5,0" fill="#eeca3b" stroke-width="1.5" opacity="1"/></g><g class="mark-text role-legend-label" pointer-events="none"><text text-anchor="start" transform="translate(16,9)" font-family="sans-serif" font-size="10px" fill="#000" opacity="1">karlmdavis/lego-ev3dev-rs</text></g></g><path class="foreground" aria-hidden="true" d="" pointer-events="none" display="none"/></g><g transform="translate(0,338)"><path class="background" aria-hidden="true" d="M0,0h176v11h-176Z" pointer-events="none" opacity="1"/><g><g class="mark-symbol role-legend-symbol" pointer-events="none"><path transform="translate(6,6)" d="M5,0A5,5,0,1,1,-5,0A5,5,0,1,1,5,0" fill="#b279a2" stroke-width="1.5" opacity="1"/></g><g class="mark-text role-legend-label" pointer-events="none"><text text-anchor="start" transform="translate(16,9)" font-family="sans-serif" font-size="10px" fill="#000" opacity="1">karlmdavis/liquibase</text></g></g><path class="foreground" aria-hidden="true" d="" pointer-events="none" display="none"/></g><g transform="translate(0,351)"><path class="background" aria-hidden="true" d="M0,0h176v11h-176Z" pointer-events="none" opacity="1"/><g><g class="mark-symbol role-legend-symbol" pointer-events="none"><path transform="translate(6,6)" d="M5,0A5,5,0,1,1,-5,0A5,5,0,1,1,5,0" fill="#ff9da6" stroke-width="1.5" opacity="1"/></g><g class="mark-text role-legend-label" pointer-events="none"><text text-anchor="start" transform="translate(16,9)" font-family="sans-serif" font-size="10px" fill="#000" opacity="1">karlmdavis/m2e-core</text></g></g><path class="foreground" aria-hidden="true" d="" pointer-events="none" display="none"/></g><g transform="translate(0,364)"><path class="background" aria-hidden="true" d="M0,0h176v11h-176Z" pointer-events="none" opacity="1"/><g><g class="mark-symbol role-legend-symbol" pointer-events="none"><path transform="translate(6,6)" d="M5,0A5,5,0,1,1,-5,0A5,5,0,1,1,5,0" fill="#9d755d" stroke-width="1.5" opacity="1"/></g><g class="mark-text role-legend-label" pointer-events="none"><text text-anchor="start" transform="translate(16,9)" font-family="sans-serif" font-size="10px" fill="#000" opacity="1">karlmdavis/m2e-core-tests</text></g></g><path class="foreground" aria-hidden="true" d="" pointer-events="none" display="none"/></g><g transform="translate(0,377)"><path class="background" aria-hidden="true" d="M0,0h176v11h-176Z" pointer-events="none" opacity="1"/><g><g class="mark-symbol role-legend-symbol" pointer-events="none"><path transform="translate(6,6)" d="M5,0A5,5,0,1,1,-5,0A5,5,0,1,1,5,0" fill="#bab0ac" stroke-width="1.5" opacity="1"/></g><g class="mark-text role-legend-label" pointer-events="none"><text text-anchor="start" transform="translate(16,9)" font-family="sans-serif" font-size="10px" fill="#000" opacity="1">…12 entries</text></g></g><path class="foreground" aria-hidden="true" d="" pointer-events="none" display="none"/></g></g></g><path class="foreground" aria-hidden="true" d="" pointer-events="none" display="none"/></g></g><g class="mark-text role-legend-title" pointer-events="none"><text text-anchor="start" transform="translate(0,9)" font-family="sans-serif" font-size="11px" font-weight="bold" fill="#000" opacity="1">Repository</text></g></g><path class="foreground" aria-hidden="true" d="" pointer-events="none" display="none"/></g></g><g class="mark-group role-title"><g transform="translate(400,-22)"><path class="background" aria-hidden="true" d="M0,0h0v0h0Z" pointer-events="none"/><g><g class="mark-text role-title-text" role="graphics-symbol" aria-roledescription="title" aria-label="Title text 'Unique Clones per Day'" pointer-events="none"><text text-anchor="middle" transform="translate(0,10)" font-family="sans-serif" font-size="13px" font-weight="bold" fill="#000" opacity="1">Unique Clones per Day</text></g></g><path class="foreground" aria-hidden="true" d="" pointer-events="none" display="none"/></g></g></g><path class="foreground" aria-hidden="true" d="" display="none"/></g></g></g></svg>