<svg xmlns="http://www.w3.org/2000/svg" xmlns:xlink="http://www.w3.org/1999/xlink" version="1.1" class="marks" width="1043" height="436" viewBox="0 0 1043 436"><rect width="1043" height="436" fill="white"/><g fill="none" stroke-miterlimit="10" transform="translate(44,27)"><g class="mark-group role-frame root" role="graphics-object" aria-roledescription="group mark container"><g transform="translate(0,0)"><path class="background" aria-hidden="true" d="M0.5,0.5h800v300h-800Z" stroke="#ddd"/><g><g class="mark-group role-axis" aria-hidden="true"><g transform="translate(0.5,300.5)"><path class="background" aria-hidden="true" d="M0,0h0v0h0Z" pointer-events="none"/><g><g class="mark-rule role-axis-grid" pointer-events="none"><line transform="translate(22,-300)" x2="0" y2="300" stroke="#ddd" stroke-width="1" opacity="1"/><line transform="translate(65,-300)" x2="0" y2="300" stroke="#ddd" stroke-width="1" opacity="1"/><line transform="translate(108,-300)" x2="0" y2="300" stroke="#ddd" stroke-width="1" opacity="1"/><line transform="translate(151,-300)" x2="0" y2="300" stroke="#ddd" stroke-width="1" opacity="1"/><line transform="translate(195,-300)" x2="0" y2="300" stroke="#ddd" stroke-width="1" opacity="1"/><line transform="translate(238,-300)" x2="0" y2="300" stroke="#ddd" stroke-width="1" opacity="1"/><line transform="translate(281,-300)" x2="0" y2="300" stroke="#ddd" stroke-width="1" opacity="1"/><line transform="translate(324,-300)" x2="0" y2="300" stroke="#ddd" stroke-width="1" opacity="1"/><line transform="translate(346,-300)" x2="0" y2="300" stroke="#ddd" stroke-width="1" opacity="1"/><line transform="translate(389,-300)" x2="0" y2="300" stroke="#ddd" stroke-width="1" opacity="1"/><line transform="translate(432,-300)" x2="0" y2="300" stroke="#ddd" stroke-width="1" opacity="1"/><line transform="translate(476,-300)" x2="0" y2="300" stroke="#ddd" stroke-width="1" opacity="1"/><line transform="translate(519,-300)" x2="0" y2="300" stroke="#ddd" stroke-width="1" opacity="1"/><line transform="translate(562,-300)" x2="0" y2="300" stroke="#ddd" stroke-width="1" opacity="1"/><line transform="translate(605,-300)" x2="0" y2="300" stroke="#ddd" stroke-width="1" opacity="1"/><line transform="translate(649,-300)" x2="0" y2="300" stroke="#ddd" stroke-width="1" opacity="1"/><line transform="translate(692,-300)" x2="0" y2="300" stroke="#ddd" stroke-width="1" opacity="1"/><line transform="translate(735,-300)" x2="0" y2="300" stroke="#ddd" stroke-width="1" opacity="1"/><line transform="translate(778,-300)" x2="0" y2="300" stroke="#ddd" stroke-width="1" opacity="1"/></g></g><path class="foreground" aria-hidden="true" d="" pointer-events="none" display="none"/></g></g><g class="mark-group role-axis" aria-hidden="true"><g transform="translate(0.5,0.5)"><path class="background" aria-hidden="true" d="M0,0h0v0h0Z" pointer-events="none"/><g><g class="mark-rule role-axis-grid" pointer-events="none"><line transform="translate(0,300)" x2="800" y2="0" stroke="#ddd" stroke-width="1" opacity="1"/><line transform="translate(0,270)" x2="800" y2="0" stroke="#ddd" stroke-width="1" opacity="1"/><line transform="translate(0,240)" x2="800" y2="0" stroke="#ddd" stroke-width="1" opacity="1"/><line transform="translate(0,210)" x2="800" y2="0" stroke="#ddd" stroke-width="1" opacity="1"/><line transform="translate(0,180)" x2="800" y2="0" stroke="#ddd" stroke-width="1" opacity="1"/><line transform="translate(0,150)" x2="800" y2="0" stroke="#ddd" stroke-width="1" opacity="1"/><line transform="translate(0,120)" x2="800" y2="0" stroke="#ddd" stroke-width="1" opacity="1"/><line transform="translate(0,90)" x2="800" y2="0" stroke="#ddd" stroke-width="1" opacity="1"/><line transform="translate(0,60)" x2="800" y2="0" stroke="#ddd" stroke-width="1" opacity="1"/><line transform="translate(0,30)" x2="800" y2="0" stroke="#ddd" stroke-width="1" opacity="1"/><line transform="translate(0,0)" x2="800" y2="0" stroke="#ddd" stroke-width="1" opacity="1"/></g></g><path class="foreground" aria-hidden="true" d="" pointer-events="none" display="none"/></g></g><g class="mark-group role-axis" role="graphics-symbol" aria-roledescription="axis" aria-label="X-axis titled 'Date' for a time scale with values from Monday, 16 March 2026, 12:00:00 AM to Wednesday, 22 April 2026, 12:00:00 AM"><g transform="translate(0.5,300.5)"><path class="background" aria-hidden="true" d="M0,0h0v0h0Z" pointer-events="none"/><g><g class="mark-rule role-axis-tick" pointer-events="none"><line transform="translate(22,0)" x2="0" y2="5" stroke="#888" stroke-width="1" opacity="1"/><line transform="translate(65,0)" x2="0" y2="5" stroke="#888" stroke-width="1" opacity="1"/><line transform="translate(108,0)" x2="0" y2="5" stroke="#888" stroke-width="1" opacity="1"/><line transform="translate(151,0)" x2="0" y2="5" stroke="#888" stroke-width="1" opacity="1"/><line transform="translate(195,0)" x2="0" y2="5" stroke="#888" stroke-width="1" opacity="1"/><line transform="translate(238,0)" x2="0" y2="5" stroke="#888" stroke-width="1" opacity="1"/><line transform="translate(281,0)" x2="0" y2="5" stroke="#888" stroke-width="1" opacity="1"/><line transform="translate(324,0)" x2="0" y2="5" stroke="#888" stroke-width="1" opacity="1"/><line transform="translate(346,0)" x2="0" y2="5" stroke="#888" stroke-width="1" opacity="1"/><line transform="translate(389,0)" x2="0" y2="5" stroke="#888" stroke-width="1" opacity="1"/><line transform="translate(432,0)" x2="0" y2="5" stroke="#888" stroke-width="1" opacity="1"/><line transform="translate(476,0)" x2="0" y2="5" stroke="#888" stroke-width="1" opacity="1"/><line transform="translate(519,0)" x2="0" y2="5" stroke="#888" stroke-width="1" opacity="1"/><line transform="translate(562,0)" x2="0" y2="5" stroke="#888" stroke-width="1" opacity="1"/><line transform="translate(605,0)" x2="0" y2="5" stroke="#888" stroke-width="1" opacity="1"/><line transform="translate(649,0)" x2="0" y2="5" stroke="#888" stroke-width="1" opacity="1"/><line transform="translate(692,0)" x2="0" y2="5" stroke="#888" stroke-width="1" opacity="1"/><line transform="translate(735,0)" x2="0" y2="5" stroke="#888" stroke-width="1" opacity="1"/><line transform="translate(778,0)" x2="0" y2="5" stroke="#888" stroke-width="1" opacity="1"/></g><g class="mark-text role-axis-label" pointer-events="none"><text text-anchor="middle" transform="translate(21.62162162162162,15)" font-family="sans-serif" font-size="10px" fill="#000" opacity="1">Tue 17</text><text text-anchor="middle" transform="translate(64.86486486486487,15)" font-family="sans-serif" font-size="10px" fill="#000" opacity="0">Thu 19</text><text text-anchor="middle" transform="translate(108.10810810810811,15)" font-family="sans-serif" font-size="10px" fill="#000" opacity="1">Sat 21</text><text text-anchor="middle" transform="translate(151.35135135135135,15)" font-family="sans-serif" font-size="10px" fill="#000" opacity="0">Mon 23</text><text text-anchor="middle" transform="translate(194.5945945945946,15)" font-family="sans-serif" font-size="10px" fill="#000" opacity="1">Wed 25</text><text text-anchor="middle" transform="translate(237.83783783783784,15)" font-family="sans-serif" font-size="10px" fill="#000" opacity="0">Fri 27</text><text text-anchor="middle" transform="translate(281.0810810810811,15)" font-family="sans-serif" font-size="10px" fill="#000" opacity="1">Mar 29</text><text text-anchor="middle" transform="translate(324.3243243243243,15)" font-family="sans-serif" font-size="10px" fill="#000" opacity="0">Tue 31</text><text text-anchor="middle" transform="translate(345.94594594594594,15)" font-family="sans-serif" font-size="10px" fill="#000" opacity="1">April</text><text text-anchor="middle" transform="translate(389.1891891891892,15)" font-family="sans-serif" font-size="10px" fill="#000" opacity="0">Fri 03</text><text text-anchor="middle" transform="translate(432.43243243243245,15)" font-family="sans-serif" font-size="10px" fill="#000" opacity="1">Apr 05</text><text text-anchor="middle" transform="translate(475.6756756756757,15)" font-family="sans-serif" font-size="10px" fill="#000" opacity="0">Tue 07</text><text text-anchor="middle" transform="translate(518.918918918919,15)" font-family="sans-serif" font-size="10px" fill="#000" opacity="1">Thu 09</text><text text-anchor="middle" transform="translate(562.1621621621622,15)" font-family="sans-serif" font-size="10px" fill="#000" opacity="0">Sat 11</text><text text-anchor="middle" transform="translate(605.4054054054054,15)" font-family="sans-serif" font-size="10px" fill="#000" opacity="1">Mon 13</text><text text-anchor="middle" transform="translate(648.6486486486486,15)" font-family="sans-serif" font-size="10px" fill="#000" opacity="0">Wed 15</text><text text-anchor="middle" transform="translate(691.8918918918919,15)" font-family="sans-serif" font-size="10px" fill="#000" opacity="1">Fri 17</text><text text-anchor="middle" transform="translate(735.1351351351352,15)" font-family="sans-serif" font-size="10px" fill="#000" opacity="0">Apr 19</text><text text-anchor="middle" transform="translate(778.3783783783784,15)" font-family="sans-serif" font-size="10px" fill="#000" opacity="1">Tue 21</text></g><g class="mark-rule role-axis-domain" pointer-events="none"><line transform="translate(0,0)" x2="800" y2="0" stroke="#888" stroke-width="1" opacity="1"/></g><g class="mark-text role-axis-title" pointer-events="none"><text text-anchor="middle" transform="translate(400,30)" font-family="sans-serif" font-size="11px" font-weight="bold" fill="#000" opacity="1">Date</text></g></g><path class="foreground" aria-hidden="true" d="" pointer-events="none" display="none"/></g></g><g class="mark-group role-axis" role="graphics-symbol" aria-roledescription="axis" aria-label="Y-axis titled 'Unique Clones/day' for a linear scale with values from 0 to 100"><g transform="translate(0.5,0.5)"><path class="background" aria-hidden="true" d="M0,0h0v0h0Z" pointer-events="none"/><g><g class="mark-rule role-axis-tick" pointer-events="none"><line transform="translate(0,300)" x2="-5" y2="0" stroke="#888" stroke-width="1" opacity="1"/><line transform="translate(0,270)" x2="-5" y2="0" stroke="#888" stroke-width="1" opacity="1"/><line transform="translate(0,240)" x2="-5" y2="0" stroke="#888" stroke-width="1" opacity="1"/><line transform="translate(0,210)" x2="-5" y2="0" stroke="#888" stroke-width="1" opacity="1"/><line transform="translate(0,180)" x2="-5" y2="0" stroke="#888" stroke-width="1" opacity="1"/><line transform="translate(0,150)" x2="-5" y2="0" stroke="#888" stroke-width="1" opacity="1"/><line transform="translate(0,120)" x2="-5" y2="0" stroke="#888" stroke-width="1" opacity="1"/><line transform="translate(0,90)" x2="-5" y2="0" stroke="#888" stroke-width="1" opacity="1"/><line transform="translate(0,60)" x2="-5" y2="0" stroke="#888" stroke-width="1" opacity="1"/><line transform="translate(0,30)" x2="-5" y2="0" stroke="#888" stroke-width="1" opacity="1"/><line transform="translate(0,0)" x2="-5" y2="0" stroke="#888" stroke-width="1" opacity="1"/></g><g class="mark-text role-axis-label" pointer-events="none"><text text-anchor="end" transform="translate(-7,303)" font-family="sans-serif" font-size="10px" fill="#000" opacity="1">0</text><text text-anchor="end" transform="translate(-7,273)" font-family="sans-serif" font-size="10px" fill="#000" opacity="1">10</text><text text-anchor="end" transform="translate(-7,243)" font-family="sans-serif" font-size="10px" fill="#000" opacity="1">20</text><text text-anchor="end" transform="translate(-7,213)" font-family="sans-serif" font-size="10px" fill="#000" opacity="1">30</text><text text-anchor="end" transform="translate(-7,183)" font-family="sans-serif" font-size="10px" fill="#000" opacity="1">40</text><text text-anchor="end" transform="translate(-7,153)" font-family="sans-serif" font-size="10px" fill="#000" opacity="1">50</text><text text-anchor="end" transform="translate(-7,123)" font-family="sans-serif" font-size="10px" fill="#000" opacity="1">60</text><text text-anchor="end" transform="translate(-7,93.00000000000001)" font-family="sans-serif" font-size="10px" fill="#000" opacity="1">70</text><text text-anchor="end" transform="translate(-7,62.999999999999986)" font-family="sans-serif" font-size="10px" fill="#000" opacity="1">80</text><text text-anchor="end" transform="translate(-7,32.99999999999999)" font-family="sans-serif" font-size="10px" fill="#000" opacity="1">90</text><text text-anchor="end" transform="translate(-7,3)" font-family="sans-serif" font-size="10px" fill="#000" opacity="1">100</text></g><g class="mark-rule role-axis-domain" pointer-events="none"><line transform="translate(0,300)" x2="0" y2="-300" stroke="#888" stroke-width="1" opacity="1"/></g><g class="mark-text role-axis-title" pointer-events="none"><text text-anchor="middle" transform="translate(-27.6845703125,150) rotate(-90) translate(0,-2)" font-family="sans-serif" font-size="11px" font-weight="bold" fill="#000" opacity="1">Unique Clones/day</text></g></g><path class="foreground" aria-hidden="true" d="" pointer-events="none" display="none"/></g></g><g class="mark-group role-scope pathgroup" role="graphics-object" aria-roledescription="group mark container"><g transform="translate(0,0)"><path class="background" aria-hidden="true" d="M0,0h800v300h-800Z"/><g><g class="mark-area role-mark marks" role="graphics-object" aria-roledescription="area mark container"><path aria-label="Date: Mar 16, 2026; Unique Clones/day: 0; Repository: karlmdavis/FHIR-Server" role="graphics-symbol" aria-roledescription="area mark" d="M0,297L21.622,300L43.243,300L64.865,297L86.486,300L108.108,300L129.73,300L151.351,264L172.973,294L194.595,279L216.216,252L237.838,93L259.459,162L281.081,12L302.703,201L324.324,231L345.946,246L367.568,270L389.189,213L410.811,36L432.432,57L454.054,261L475.676,210L497.297,213L518.919,177L540.541,264L562.162,222L583.784,192L605.405,33L627.027,264L648.649,264L670.27,282L691.892,282L713.514,291L735.135,237L756.757,93L778.378,210L800,219L800,219L778.378,210L756.757,96L735.135,237L713.514,291L691.892,282L670.27,282L648.649,264L627.027,264L605.405,33L583.784,195L562.162,228L540.541,264L518.919,177L497.297,213L475.676,210L454.054,261L432.432,57L410.811,36L389.189,213L367.568,270L345.946,246L324.324,234L302.703,201L281.081,12L259.459,162L237.838,93L216.216,252L194.595,279L172.973,294L151.351,264L129.73,300L108.108,300L86.486,300L64.865,297L43.243,300L21.622,300L0,297Z" fill="#4c78a8"/></g></g><path class="foreground" aria-hidden="true" d="" display="none"/></g><g transform="translate(0,0)"><path class="background" aria-hidden="true" d="M0,0h800v300h-800Z"/><g><g class="mark-area role-mark marks" role="graphics-object" aria-roledescription="area mark container"><path aria-label="Date: Mar 16, 2026; Unique Clones/day: 1; Repository: karlmdavis/ansible" role="graphics-symbol" aria-roledescription="area mark" d="M0,297L21.622,300L43.243,300L64.865,297L86.486,300L108.108,300L129.73,300L151.351,264L172.973,294L194.595,279L216.216,252L237.838,93L259.459,162L281.081,12L302.703,201L324.324,234L345.946,246L367.568,270L389.189,213L410.811,36L432.432,57L454.054,261L475.676,210L497.297,213L518.919,177L540.541,264L562.162,228L583.784,195L605.405,33L627.027,264L648.649,264L670.27,282L691.892,282L713.514,291L735.135,237L756.757,96L778.378,210L800,219L800,219L778.378,210L756.757,96L735.135,237L713.514,291L691.892,282L670.27,282L648.649,264L627.027,267L605.405,33L583.784,195L562.162,228L540.541,264L518.919,177L497.297,213L475.676,210L454.054,261L432.432,57L410.811,36L389.189,213L367.568,270L345.946,246L324.324,234L302.703,201L281.081,12L259.459,162L237.838,93L216.216,252L194.595,279L172.973,294L151.351,264L129.73,300L108.108,300L86.486,300L64.865,297L43.243,300L21.622,300L0,300Z" fill="#f58518"/></g></g><path class="foreground" aria-hidden="true" d="" display="none"/></g><g transform="translate(0,0)"><path class="background" aria-hidden="true" d="M0,0h800v300h-800Z"/><g><g class="mark-area role-mark marks" role="graphics-object" aria-roledescription="area mark container"><path aria-label="Date: Mar 16, 2026; Unique Clones/day: 0; Repository: karlmdavis/ansible-jenkins" role="graphics-symbol" aria-roledescription="area mark" d="M0,300L21.622,300L43.243,300L64.865,297L86.486,300L108.108,300L129.73,300L151.351,264L172.973,294L194.595,279L216.216,252L237.838,93L259.459,162L281.081,12L302.703,201L324.324,234L345.946,246L367.568,270L389.189,213L410.811,36L432.432,57L454.054,261L475.676,210L497.297,213L518.919,177L540.541,264L562.162,228L583.784,195L605.405,33L627.027,267L648.649,264L670.27,282L691.892,282L713.514,291L735.135,237L756.757,96L778.378,210L800,219L800,219L778.378,210L756.757,96L735.135,237L713.514,291L691.892,282L670.27,282L648.649,264L627.027,267L605.405,33L583.784,198L562.162,228L540.541,264L518.919,177L497.297,213L475.676,210L454.054,261L432.432,57L410.811,39L389.189,216L367.568,270L345.946,246L324.324,234L302.703,201L281.081,12L259.459,162L237.838,93L216.216,255L194.595,279L172.973,294L151.351,264L129.73,300L108.108,300L86.486,300L64.865,297L43.243,300L21.622,300L0,300Z" fill="#e45756"/></g></g><path class="foreground" aria-hidden="true" d="" display="none"/></g><g transform="translate(0,0)"><path class="background" aria-hidden="true" d="M0,0h800v300h-800Z"/><g><g class="mark-area role-mark marks" role="graphics-object" aria-roledescription="area mark container"><path aria-label="Date: Mar 16, 2026; Unique Clones/day: 0; Repository: karlmdavis/ansible-role-acmetool" role="graphics-symbol" aria-roledescription="area mark" d="M0,300L21.622,300L43.243,300L64.865,297L86.486,300L108.108,300L129.73,300L151.351,264L172.973,294L194.595,279L216.216,255L237.838,93L259.459,162L281.081,12L302.703,201L324.324,234L345.946,246L367.568,270L389.189,216L410.811,39L432.432,57L454.054,261L475.676,210L497.297,213L518.919,177L540.541,264L562.162,228L583.784,198L605.405,33L627.027,267L648.649,264L670.27,282L691.892,282L713.514,291L735.135,237L756.757,96L778.378,210L800,219L800,219L778.378,210L756.757,96L735.135,237L713.514,291L691.892,282L670.27,282L648.649,264L627.027,267L605.405,33L583.784,201L562.162,228L540.541,264L518.919,177L497.297,213L475.676,210L454.054,261L432.432,57L410.811,39L389.189,216L367.568,270L345.946,246L324.324,234L302.703,201L281.081,12L259.459,162L237.838,93L216.216,258L194.595,279L172.973,294L151.351,264L129.73,300L108.108,300L86.486,300L64.865,297L43.243,300L21.622,300L0,300Z" fill="#72b7b2"/></g></g><path class="foreground" aria-hidden="true" d="" display="none"/></g><g transform="translate(0,0)"><path class="background" aria-hidden="true" d="M0,0h800v300h-800Z"/><g><g class="mark-area role-mark marks" role="graphics-object" aria-roledescription="area mark container"><path aria-label="Date: Mar 16, 2026; Unique Clones/day: 0; Repository: karlmdavis/ansible-role-bind-dns" role="graphics-symbol" aria-roledescription="area mark" d="M0,300L21.622,300L43.243,300L64.865,297L86.486,300L108.108,300L129.73,300L151.351,264L172.973,294L194.595,279L216.216,258L237.838,93L259.459,162L281.081,12L302.703,201L324.324,234L345.946,246L367.568,270L389.189,216L410.811,39L432.432,57L454.054,261L475.676,210L497.297,213L518.919,177L540.541,264L562.162,228L583.784,201L605.405,33L627.027,267L648.649,264L670.27,282L691.892,282L713.514,291L735.135,237L756.757,96L778.378,210L800,219L800,219L778.378,210L756.757,99L735.135,237L713.514,291L691.892,282L670.27,285L648.649,264L627.027,267L605.405,45L583.784,204L562.162,228L540.541,264L518.919,180L497.297,216L475.676,210L454.054,261L432.432,57L410.811,42L389.189,216L367.568,270L345.946,255L324.324,234L302.703,204L281.081,15L259.459,162L237.838,99L216.216,258L194.595,279L172.973,294L151.351,264L129.73,300L108.108,300L86.486,300L64.865,297L43.243,300L21.622,300L0,300Z" fill="#54a24b"/></g></g><path class="foreground" aria-hidden="true" d="" display="none"/></g><g transform="translate(0,0)"><path class="background" aria-hidden="true" d="M0,0h800v300h-800Z"/><g><g class="mark-area role-mark marks" role="graphics-object" aria-roledescription="area mark container"><path aria-label="Date: Mar 16, 2026; Unique Clones/day: 0; Repository: karlmdavis/ansible-role-jenkins2" role="graphics-symbol" aria-roledescription="area mark" d="M0,300L21.622,300L43.243,300L64.865,297L86.486,300L108.108,300L129.73,300L151.351,264L172.973,294L194.595,279L216.216,258L237.838,99L259.459,162L281.081,15L302.703,204L324.324,234L345.946,255L367.568,270L389.189,216L410.811,42L432.432,57L454.054,261L475.676,210L497.297,216L518.919,180L540.541,264L562.162,228L583.784,204L605.405,45L627.027,267L648.649,264L670.27,285L691.892,282L713.514,291L735.135,237L756.757,99L778.378,210L800,219L800,219L778.378,213L756.757,102L735.135,237L713.514,291L691.892,282L670.27,285L648.649,267L627.027,267L605.405,60L583.784,204L562.162,231L540.541,270L518.919,195L497.297,216L475.676,210L454.054,261L432.432,60L410.811,48L389.189,219L367.568,273L345.946,258L324.324,237L302.703,204L281.081,15L259.459,165L237.838,102L216.216,261L194.595,282L172.973,297L151.351,264L129.73,300L108.108,300L86.486,300L64.865,297L43.243,300L21.622,300L0,300Z" fill="#eeca3b"/></g></g><path class="foreground" aria-hidden="true" d="" display="none"/></g><g transform="translate(0,0)"><path class="background" aria-hidden="true" d="M0,0h800v300h-800Z"/><g><g class="mark-area role-mark marks" role="graphics-object" aria-roledescription="area mark container"><path aria-label="Date: Mar 16, 2026; Unique Clones/day: 0; Repository: karlmdavis/ansible-role-ldap" role="graphics-symbol" aria-roledescription="area mark" d="M0,300L21.622,300L43.243,300L64.865,297L86.486,300L108.108,300L129.73,300L151.351,264L172.973,297L194.595,282L216.216,261L237.838,102L259.459,165L281.081,15L302.703,204L324.324,237L345.946,258L367.568,273L389.189,219L410.811,48L432.432,60L454.054,261L475.676,210L497.297,216L518.919,195L540.541,270L562.162,231L583.784,204L605.405,60L627.027,267L648.649,267L670.27,285L691.892,282L713.514,291L735.135,237L756.757,102L778.378,213L800,219L800,219L778.378,213L756.757,102L735.135,237L713.514,291L691.892,282L670.27,285L648.649,267L627.027,267L605.405,63L583.784,204L562.162,231L540.541,270L518.919,195L497.297,216L475.676,210L454.054,261L432.432,60L410.811,48L389.189,219L367.568,273L345.946,258L324.324,240L302.703,204L281.081,15L259.459,165L237.838,102L216.216,261L194.595,282L172.973,297L151.351,264L129.73,300L108.108,300L86.486,300L64.865,297L43.243,300L21.622,300L0,300Z" fill="#b279a2"/></g></g><path class="foreground" aria-hidden="true" d="" display="none"/></g><g transform="translate(0,0)"><path class="background" aria-hidden="true" d="M0,0h800v300h-800Z"/><g><g class="mark-area role-mark marks" role="graphics-object" aria-roledescription="area mark container"><path aria-label="Date: Mar 16, 2026; Unique Clones/day: 0; Repository: karlmdavis/ansible-role-rcm-dotfiles" role="graphics-symbol" aria-roledescription="area mark" d="M0,300L21.622,300L43.243,300L64.865,297L86.486,300L108.108,300L129.73,300L151.351,264L172.973,297L194.595,282L216.216,261L237.838,102L259.459,165L281.081,15L302.703,204L324.324,240L345.946,258L367.568,273L389.189,219L410.811,48L432.432,60L454.054,261L475.676,210L497.297,216L518.919,195L540.541,270L562.162,231L583.784,204L605.405,63L627.027,267L648.649,267L670.27,285L691.892,282L713.514,291L735.135,237L756.757,102L778.378,213L800,219L800,219L778.378,213L756.757,105L735.135,237L713.514,291L691.892,282L670.27,285L648.649,270L627.027,267L605.405,72L583.784,207L562.162,231L540.541,270L518.919,198L497.297,216L475.676,210L454.054,261L432.432,60L410.811,51L389.189,219L367.568,273L345.946,258L324.324,240L302.703,207L281.081,18L259.459,165L237.838,108L216.216,261L194.595,282L172.973,297L151.351,264L129.73,300L108.108,300L86.486,300L64.865,297L43.243,300L21.622,300L0,300Z" fill="#ff9da6"/></g></g><path class="foreground" aria-hidden="true" d="" display="none"/></g><g transform="translate(0,0)"><path class="background" aria-hidden="true" d="M0,0h800v300h-800Z"/><g><g class="mark-area role-mark marks" role="graphics-object" aria-roledescription="area mark container"><path aria-label="Date: Mar 16, 2026; Unique Clones/day: 0; Repository: karlmdavis/ansible-roles" role="graphics-symbol" aria-roledescription="area mark" d="M0,300L21.622,300L43.243,300L64.865,297L86.486,300L108.108,300L129.73,300L151.351,264L172.973,297L194.595,282L216.216,261L237.838,108L259.459,165L281.081,18L302.703,207L324.324,240L345.946,258L367.568,273L389.189,219L410.811,51L432.432,60L454.054,261L475.676,210L497.297,216L518.919,198L540.541,270L562.162,231L583.784,207L605.405,72L627.027,267L648.649,270L670.27,285L691.892,282L713.514,291L735.135,237L756.757,105L778.378,213L800,219L800,219L778.378,213L756.757,105L735.135,237L713.514,291L691.892,282L670.27,285L648.649,270L627.027,267L605.405,72L583.784,207L562.162,234L540.541,270L518.919,198L497.297,216L475.676,210L454.054,261L432.432,60L410.811,51L389.189,219L367.568,273L345.946,258L324.324,240L302.703,210L281.081,18L259.459,165L237.838,108L216.216,264L194.595,282L172.973,297L151.351,264L129.73,300L108.108,300L86.486,300L64.865,297L43.243,300L21.622,300L0,300Z" fill="#9d755d"/></g></g><path class="foreground" aria-hidden="true" d="" display="none"/></g><g transform="translate(0,0)"><path class="background" aria-hidden="true" d="M0,0h800v300h-800Z"/><g><g class="mark-area role-mark marks" role="graphics-object" aria-roledescription="area mark container"><path aria-label="Date: Mar 16, 2026; Unique Clones/day: 0; Repository: karlmdavis/bbonfhir-dev-infra-docker" role="graphics-symbol" aria-roledescription="area mark" d="M0,300L21.622,300L43.243,300L64.865,297L86.486,300L108.108,300L129.73,300L151.351,264L172.973,297L194.595,282L216.216,264L237.838,108L259.459,165L281.081,18L302.703,210L324.324,240L345.946,258L367.568,273L389.189,219L410.811,51L432.432,60L454.054,261L475.676,210L497.297,216L518.919,198L540.541,270L562.162,234L583.784,207L605.405,72L627.027,267L648.649,270L670.27,285L691.892,282L713.514,291L735.135,237L756.757,105L778.378,213L800,219L800,222L778.378,213L756.757,108L735.135,237L713.514,291L691.892,282L670.27,285L648.649,270L627.027,267L605.405,81L583.784,210L562.162,234L540.541,270L518.919,201L497.297,216L475.676,210L454.054,261L432.432,60L410.811,54L389.189,219L367.568,273L345.946,258L324.324,240L302.703,213L281.081,18L259.459,165L237.838,111L216.216,264L194.595,285L172.973,297L151.351,264L129.73,300L108.108,300L86.486,300L64.865,297L43.243,300L21.622,300L0,300Z" fill="#bab0ac"/></g></g><path class="foreground" aria-hidden="true" d="" display="none"/></g><g transform="translate(0,0)"><path class="background" aria-hidden="true" d="M0,0h800v300h-800Z"/><g><g class="mark-area role-mark marks" role="graphics-object" aria-roledescription="area mark container"><path aria-label="Date: Mar 16, 2026; Unique Clones/day: 0; Repository: karlmdavis/can-i-kayak-baltimore" role="graphics-symbol" aria-roledescription="area mark" d="M0,300L21.622,300L43.243,300L64.865,297L86.486,300L108.108,300L129.73,300L151.351,264L172.973,297L194.595,285L216.216,264L237.838,111L259.459,165L281.081,18L302.703,213L324.324,240L345.946,258L367.568,273L389.189,219L410.811,54L432.432,60L454.054,261L475.676,210L497.297,216L518.919,201L540.541,270L562.162,234L583.784,210L605.405,81L627.027,267L648.649,270L670.27,285L691.892,282L713.514,291L735.135,237L756.757,108L778.378,213L800,222L800,222L778.378,213L756.757,111L735.135,237L713.514,291L691.892,282L670.27,285L648.649,270L627.027,267L605.405,87L583.784,213L562.162,234L540.541,270L518.919,204L497.297,216L475.676,210L454.054,261L432.432,60L410.811,57L389.189,219L367.568,273L345.946,261L324.324,240L302.703,213L281.081,18L259.459,165L237.838,120L216.216,264L194.595,285L172.973,297L151.351,264L129.73,300L108.108,300L86.486,300L64.865,297L43.243,300L21.622,300L0,300Z" fill="#4c78a8"/></g></g><path class="foreground" aria-hidden="true" d="" display="none"/></g><g transform="translate(0,0)"><path class="background" aria-hidden="true" d="M0,0h800v300h-800Z"/><g><g class="mark-area role-mark marks" role="graphics-object" aria-roledescription="area mark container"><path aria-label="Date: Mar 16, 2026; Unique Clones/day: 0; Repository: karlmdavis/datanucleus-test-jdo-1-to-n" role="graphics-symbol" aria-roledescription="area mark" d="M0,300L21.622,300L43.243,300L64.865,297L86.486,300L108.108,300L129.73,300L151.351,264L172.973,297L194.595,285L216.216,264L237.838,120L259.459,165L281.081,18L302.703,213L324.324,240L345.946,261L367.568,273L389.189,219L410.811,57L432.432,60L454.054,261L475.676,210L497.297,216L518.919,204L540.541,270L562.162,234L583.784,213L605.405,87L627.027,267L648.649,270L670.27,285L691.892,282L713.514,291L735.135,237L756.757,111L778.378,213L800,222L800,222L778.378,213L756.757,111L735.135,237L713.514,291L691.892,285L670.27,285L648.649,270L627.027,270L605.405,87L583.784,213L562.162,234L540.541,270L518.919,204L497.297,216L475.676,210L454.054,261L432.432,60L410.811,57L389.189,219L367.568,273L345.946,261L324.324,240L302.703,213L281.081,18L259.459,168L237.838,120L216.216,264L194.595,285L172.973,297L151.351,264L129.73,300L108.108,300L86.486,300L64.865,297L43.243,300L21.622,300L0,300Z" fill="#f58518"/></g></g><path class="foreground" aria-hidden="true" d="" display="none"/></g><g transform="translate(0,0)"><path class="background" aria-hidden="true" d="M0,0h800v300h-800Z"/><g><g class="mark-area role-mark marks" role="graphics-object" aria-roledescription="area mark container"><path aria-label="Date: Mar 16, 2026; Unique Clones/day: 0; Repository: karlmdavis/dotfiles" role="graphics-symbol" aria-roledescription="area mark" d="M0,300L21.622,300L43.243,300L64.865,297L86.486,300L108.108,300L129.73,300L151.351,264L172.973,297L194.595,285L216.216,264L237.838,120L259.459,168L281.081,18L302.703,213L324.324,240L345.946,261L367.568,273L389.189,219L410.811,57L432.432,60L454.054,261L475.676,210L497.297,216L518.919,204L540.541,270L562.162,234L583.784,213L605.405,87L627.027,270L648.649,270L670.27,285L691.892,285L713.514,291L735.135,237L756.757,111L778.378,213L800,222L800,249L778.378,216L756.757,156L735.135,243L713.514,291L691.892,288L670.27,288L648.649,270L627.027,270L605.405,102L583.784,213L562.162,240L540.541,270L518.919,207L497.297,219L475.676,210L454.054,261L432.432,63L410.811,60L389.189,219L367.568,276L345.946,264L324.324,243L302.703,213L281.081,18L259.459,168L237.838,126L216.216,264L194.595,285L172.973,297L151.351,267L129.73,300L108.108,300L86.486,300L64.865,297L43.243,300L21.622,300L0,300Z" fill="#e45756"/></g></g><path class="foreground" aria-hidden="true" d="" display="none"/></g><g transform="translate(0,0)"><path class="background" aria-hidden="true" d="M0,0h800v300h-800Z"/><g><g class="mark-area role-mark marks" role="graphics-object" aria-roledescription="area mark container"><path aria-label="Date: Mar 16, 2026; Unique Clones/day: 0; Repository: karlmdavis/fhir-benchmarks" role="graphics-symbol" aria-roledescription="area mark" d="M0,300L21.622,300L43.243,300L64.865,297L86.486,300L108.108,300L129.73,300L151.351,267L172.973,297L194.595,285L216.216,264L237.838,126L259.459,168L281.081,18L302.703,213L324.324,243L345.946,264L367.568,276L389.189,219L410.811,60L432.432,63L454.054,261L475.676,210L497.297,219L518.919,207L540.541,270L562.162,240L583.784,213L605.405,102L627.027,270L648.649,270L670.27,288L691.892,288L713.514,291L735.135,243L756.757,156L778.378,216L800,249L800,249L778.378,219L756.757,159L735.135,243L713.514,294L691.892,291L670.27,288L648.649,273L627.027,279L605.405,117L583.784,213L562.162,246L540.541,270L518.919,213L497.297,240L475.676,213L454.054,261L432.432,66L410.811,63L389.189,222L367.568,276L345.946,267L324.324,249L302.703,216L281.081,21L259.459,168L237.838,132L216.216,264L194.595,288L172.973,297L151.351,270L129.73,300L108.108,300L86.486,300L64.865,297L43.243,300L21.622,300L0,300Z" fill="#72b7b2"/></g></g><path class="foreground" aria-hidden="true" d="" display="none"/></g><g transform="translate(0,0)"><path class="background" aria-hidden="true" d="M0,0h800v300h-800Z"/><g><g class="mark-area role-mark marks" role="graphics-object" aria-roledescription="area mark container"><path aria-label="Date: Mar 16, 2026; Unique Clones/day: 0; Repository: karlmdavis/hapi-fhir-jpaserver-starter" role="graphics-symbol" aria-roledescription="area mark" d="M0,300L21.622,300L43.243,300L64.865,297L86.486,300L108.108,300L129.73,300L151.351,270L172.973,297L194.595,288L216.216,264L237.838,132L259.459,168L281.081,21L302.703,216L324.324,249L345.946,267L367.568,276L389.189,222L410.811,63L432.432,66L454.054,261L475.676,213L497.297,240L518.919,213L540.541,270L562.162,246L583.784,213L605.405,117L627.027,279L648.649,273L670.27,288L691.892,291L713.514,294L735.135,243L756.757,159L778.378,219L800,249L800,249L778.378,219L756.757,159L735.135,243L713.514,294L691.892,291L670.27,288L648.649,273L627.027,279L605.405,120L583.784,213L562.162,246L540.541,270L518.919,213L497.297,240L475.676,213L454.054,261L432.432,66L410.811,63L389.189,225L367.568,279L345.946,267L324.324,249L302.703,216L281.081,21L259.459,168L237.838,132L216.216,267L194.595,288L172.973,297L151.351,270L129.73,300L108.108,300L86.486,300L64.865,297L43.243,300L21.622,300L0,300Z" fill="#54a24b"/></g></g><path class="foreground" aria-hidden="true" d="" display="none"/></g><g transform="translate(0,0)"><path class="background" aria-hidden="true" d="M0,0h800v300h-800Z"/><g><g class="mark-area role-mark marks" role="graphics-object" aria-roledescription="area mark container"><path aria-label="Date: Mar 16, 2026; Unique Clones/day: 0; Repository: karlmdavis/hello-rust-actix" role="graphics-symbol" aria-roledescription="area mark" d="M0,300L21.622,300L43.243,300L64.865,297L86.486,300L108.108,300L129.73,300L151.351,270L172.973,297L194.595,288L216.216,267L237.838,132L259.459,168L281.081,21L302.703,216L324.324,249L345.946,267L367.568,279L389.189,225L410.811,63L432.432,66L454.054,261L475.676,213L497.297,240L518.919,213L540.541,270L562.162,246L583.784,213L605.405,120L627.027,279L648.649,273L670.27,288L691.892,291L713.514,294L735.135,243L756.757,159L778.378,219L800,249L800,249L778.378,219L756.757,162L735.135,243L713.514,294L691.892,291L670.27,288L648.649,273L627.027,279L605.405,126L583.784,216L562.162,246L540.541,270L518.919,216L497.297,240L475.676,213L454.054,261L432.432,66L410.811,66L389.189,225L367.568,279L345.946,267L324.324,252L302.703,216L281.081,21L259.459,168L237.838,135L216.216,267L194.595,288L172.973,297L151.351,270L129.73,300L108.108,300L86.486,300L64.865,297L43.243,300L21.622,300L0,300Z" fill="#eeca3b"/></g></g><path class="foreground" aria-hidden="true" d="" display="none"/></g><g transform="translate(0,0)"><path class="background" aria-hidden="true" d="M0,0h800v300h-800Z"/><g><g class="mark-area role-mark marks" role="graphics-object" aria-roledescription="area mark container"><path aria-label="Date: Mar 16, 2026; Unique Clones/day: 0; Repository: karlmdavis/jessentials" role="graphics-symbol" aria-roledescription="area mark" d="M0,300L21.622,300L43.243,300L64.865,297L86.486,300L108.108,300L129.73,300L151.351,270L172.973,297L194.595,288L216.216,267L237.838,135L259.459,168L281.081,21L302.703,216L324.324,252L345.946,267L367.568,279L389.189,225L410.811,66L432.432,66L454.054,261L475.676,213L497.297,240L518.919,216L540.541,270L562.162,246L583.784,216L605.405,126L627.027,279L648.649,273L670.27,288L691.892,291L713.514,294L735.135,243L756.757,162L778.378,219L800,249L800,252L778.378,219L756.757,165L735.135,246L713.514,294L691.892,291L670.27,288L648.649,273L627.027,279L605.405,132L583.784,216L562.162,249L540.541,270L518.919,222L497.297,264L475.676,213L454.054,261L432.432,66L410.811,69L389.189,225L367.568,279L345.946,267L324.324,252L302.703,219L281.081,21L259.459,168L237.838,138L216.216,267L194.595,288L172.973,297L151.351,273L129.73,300L108.108,300L86.486,300L64.865,297L43.243,300L21.622,300L0,300Z" fill="#b279a2"/></g></g><path class="foreground" aria-hidden="true" d="" display="none"/></g><g transform="translate(0,0)"><path class="background" aria-hidden="true" d="M0,0h800v300h-800Z"/><g><g class="mark-area role-mark marks" role="graphics-object" aria-roledescription="area mark container"><path aria-label="Date: Mar 16, 2026; Unique Clones/day: 0; Repository: karlmdavis/justdavis-ansible" role="graphics-symbol" aria-roledescription="area mark" d="M0,300L21.622,300L43.243,300L64.865,297L86.486,300L108.108,300L129.73,300L151.351,273L172.973,297L194.595,288L216.216,267L237.838,138L259.459,168L281.081,21L302.703,219L324.324,252L345.946,267L367.568,279L389.189,225L410.811,69L432.432,66L454.054,261L475.676,213L497.297,264L518.919,222L540.541,270L562.162,249L583.784,216L605.405,132L627.027,279L648.649,273L670.27,288L691.892,291L713.514,294L735.135,246L756.757,165L778.378,219L800,252L800,267L778.378,237L756.757,168L735.135,258L713.514,294L691.892,291L670.27,288L648.649,273L627.027,279L605.405,141L583.784,228L562.162,249L540.541,273L518.919,225L497.297,264L475.676,213L454.054,261L432.432,66L410.811,72L389.189,225L367.568,279L345.946,270L324.324,252L302.703,219L281.081,21L259.459,171L237.838,141L216.216,267L194.595,291L172.973,297L151.351,273L129.73,300L108.108,300L86.486,300L64.865,297L43.243,300L21.622,300L0,300Z" fill="#ff9da6"/></g></g><path class="foreground" aria-hidden="true" d="" display="none"/></g><g transform="translate(0,0)"><path class="background" aria-hidden="true" d="M0,0h800v300h-800Z"/><g><g class="mark-area role-mark marks" role="graphics-object" aria-roledescription="area mark container"><path aria-label="Date: Mar 16, 2026; Unique Clones/day: 0; Repository: karlmdavis/justdavis-finances" role="graphics-symbol" aria-roledescription="area mark" d="M0,300L21.622,300L43.243,300L64.865,297L86.486,300L108.108,300L129.73,300L151.351,273L172.973,297L194.595,291L216.216,267L237.838,141L259.459,171L281.081,21L302.703,219L324.324,252L345.946,270L367.568,279L389.189,225L410.811,72L432.432,66L454.054,261L475.676,213L497.297,264L518.919,225L540.541,273L562.162,249L583.784,228L605.405,141L627.027,279L648.649,273L670.27,288L691.892,291L713.514,294L735.135,258L756.757,168L778.378,237L800,267L800,294L778.378,285L756.757,243L735.135,288L713.514,294L691.892,291L670.27,288L648.649,276L627.027,285L605.405,186L583.784,279L562.162,255L540.541,273L518.919,228L497.297,267L475.676,264L454.054,285L432.432,291L410.811,243L389.189,285L367.568,282L345.946,273L324.324,255L302.703,264L281.081,276L259.459,282L237.838,234L216.216,270L194.595,294L172.973,297L151.351,273L129.73,300L108.108,300L86.486,300L64.865,297L43.243,300L21.622,300L0,300Z" fill="#9d755d"/></g></g><path class="foreground" aria-hidden="true" d="" display="none"/></g><g transform="translate(0,0)"><path class="background" aria-hidden="true" d="M0,0h800v300h-800Z"/><g><g class="mark-area role-mark marks" role="graphics-object" aria-roledescription="area mark container"><path aria-label="Date: Mar 16, 2026; Unique Clones/day: 0; Repository: karlmdavis/justdavis-karl" role="graphics-symbol" aria-roledescription="area mark" d="M0,300L21.622,300L43.243,300L64.865,297L86.486,300L108.108,300L129.73,300L151.351,273L172.973,297L194.595,294L216.216,270L237.838,234L259.459,282L281.081,276L302.703,264L324.324,255L345.946,273L367.568,282L389.189,285L410.811,243L432.432,291L454.054,285L475.676,264L497.297,267L518.919,228L540.541,273L562.162,255L583.784,279L605.405,186L627.027,285L648.649,276L670.27,288L691.892,291L713.514,294L735.135,288L756.757,243L778.378,285L800,294L800,294L778.378,285L756.757,246L735.135,288L713.514,294L691.892,291L670.27,288L648.649,276L627.027,285L605.405,195L583.784,282L562.162,258L540.541,273L518.919,234L497.297,267L475.676,264L454.054,288L432.432,291L410.811,246L389.189,285L367.568,285L345.946,273L324.324,258L302.703,267L281.081,276L259.459,285L237.838,237L216.216,270L194.595,294L172.973,297L151.351,276L129.73,300L108.108,300L86.486,300L64.865,297L43.243,300L21.622,300L0,300Z" fill="#bab0ac"/></g></g><path class="foreground" aria-hidden="true" d="" display="none"/></g><g transform="translate(0,0)"><path class="background" aria-hidden="true" d="M0,0h800v300h-800Z"/><g><g class="mark-area role-mark marks" role="graphics-object" aria-roledescription="area mark container"><path aria-label="Date: Mar 16, 2026; Unique Clones/day: 0; Repository: karlmdavis/justdavis-puppet" role="graphics-symbol" aria-roledescription="area mark" d="M0,300L21.622,300L43.243,300L64.865,297L86.486,300L108.108,300L129.73,300L151.351,276L172.973,297L194.595,294L216.216,270L237.838,237L259.459,285L281.081,276L302.703,267L324.324,258L345.946,273L367.568,285L389.189,285L410.811,246L432.432,291L454.054,288L475.676,264L497.297,267L518.919,234L540.541,273L562.162,258L583.784,282L605.405,195L627.027,285L648.649,276L670.27,288L691.892,291L713.514,294L735.135,288L756.757,246L778.378,285L800,294L800,294L778.378,285L756.757,249L735.135,288L713.514,294L691.892,291L670.27,288L648.649,276L627.027,285L605.405,201L583.784,285L562.162,261L540.541,273L518.919,237L497.297,270L475.676,264L454.054,288L432.432,291L410.811,249L389.189,285L367.568,285L345.946,273L324.324,264L302.703,270L281.081,276L259.459,285L237.838,240L216.216,270L194.595,294L172.973,297L151.351,276L129.73,300L108.108,300L86.486,300L64.865,297L43.243,300L21.622,300L0,300Z" fill="#4c78a8"/></g></g><path class="foreground" aria-hidden="true" d="" display="none"/></g><g transform="translate(0,0)"><path class="background" aria-hidden="true" d="M0,0h800v300h-800Z"/><g><g class="mark-area role-mark marks" role="graphics-object" aria-roledescription="area mark container"><path aria-label="Date: Mar 16, 2026; Unique Clones/day: 0; Repository: karlmdavis/kobjects" role="graphics-symbol" aria-roledescription="area mark" d="M0,300L21.622,300L43.243,300L64.865,297L86.486,300L108.108,300L129.73,300L151.351,276L172.973,297L194.595,294L216.216,270L237.838,240L259.459,285L281.081,276L302.703,270L324.324,264L345.946,273L367.568,285L389.189,285L410.811,249L432.432,291L454.054,288L475.676,264L497.297,270L518.919,237L540.541,273L562.162,261L583.784,285L605.405,201L627.027,285L648.649,276L670.27,288L691.892,291L713.514,294L735.135,288L756.757,249L778.378,285L800,294L800,294L778.378,285L756.757,252L735.135,288L713.514,294L691.892,291L670.27,288L648.649,276L627.027,285L605.405,207L583.784,285L562.162,264L540.541,273L518.919,243L497.297,270L475.676,264L454.054,288L432.432,291L410.811,252L389.189,285L367.568,285L345.946,273L324.324,264L302.703,270L281.081,276L259.459,285L237.838,243L216.216,273L194.595,294L172.973,297L151.351,276L129.73,300L108.108,300L86.486,300L64.865,297L43.243,300L21.622,300L0,300Z" fill="#f58518"/></g></g><path class="foreground" aria-hidden="true" d="" display="none"/></g><g transform="translate(0,0)"><path class="background" aria-hidden="true" d="M0,0h800v300h-800Z"/><g><g class="mark-area role-mark marks" role="graphics-object" aria-roledescription="area mark container"><path aria-label="Date: Mar 16, 2026; Unique Clones/day: 0; Repository: karlmdavis/ksoap2-android" role="graphics-symbol" aria-roledescription="area mark" d="M0,300L21.622,300L43.243,300L64.865,297L86.486,300L108.108,300L129.73,300L151.351,276L172.973,297L194.595,294L216.216,273L237.838,243L259.459,285L281.081,276L302.703,270L324.324,264L345.946,273L367.568,285L389.189,285L410.811,252L432.432,291L454.054,288L475.676,264L497.297,270L518.919,243L540.541,273L562.162,264L583.784,285L605.405,207L627.027,285L648.649,276L670.27,288L691.892,291L713.514,294L735.135,288L756.757,252L778.378,285L800,294L800,297L778.378,288L756.757,258L735.135,288L713.514,294L691.892,291L670.27,288L648.649,282L627.027,285L605.405,213L583.784,285L562.162,267L540.541,282L518.919,246L497.297,288L475.676,279L454.054,291L432.432,291L410.811,261L389.189,285L367.568,288L345.946,276L324.324,267L302.703,282L281.081,282L259.459,285L237.838,246L216.216,282L194.595,294L172.973,297L151.351,279L129.73,300L108.108,300L86.486,300L64.865,297L43.243,300L21.622,300L0,300Z" fill="#e45756"/></g></g><path class="foreground" aria-hidden="true" d="" display="none"/></g><g transform="translate(0,0)"><path class="background" aria-hidden="true" d="M0,0h800v300h-800Z"/><g><g class="mark-area role-mark marks" role="graphics-object" aria-roledescription="area mark container"><path aria-label="Date: Mar 16, 2026; Unique Clones/day: 0; Repository: karlmdavis/kxml2" role="graphics-symbol" aria-roledescription="area mark" d="M0,300L21.622,300L43.243,300L64.865,297L86.486,300L108.108,300L129.73,300L151.351,279L172.973,297L194.595,294L216.216,282L237.838,246L259.459,285L281.081,282L302.703,282L324.324,267L345.946,276L367.568,288L389.189,285L410.811,261L432.432,291L454.054,291L475.676,279L497.297,288L518.919,246L540.541,282L562.162,267L583.784,285L605.405,213L627.027,285L648.649,282L670.27,288L691.892,291L713.514,294L735.135,288L756.757,258L778.378,288L800,297L800,297L778.378,291L756.757,264L735.135,291L713.514,294L691.892,291L670.27,291L648.649,285L627.027,288L605.405,222L583.784,285L562.162,267L540.541,282L518.919,249L497.297,288L475.676,282L454.054,294L432.432,294L410.811,264L389.189,285L367.568,288L345.946,276L324.324,270L302.703,291L281.081,285L259.459,285L237.838,252L216.216,285L194.595,294L172.973,297L151.351,282L129.73,300L108.108,300L86.486,300L64.865,297L43.243,300L21.622,300L0,300Z" fill="#72b7b2"/></g></g><path class="foreground" aria-hidden="true" d="" display="none"/></g><g transform="translate(0,0)"><path class="background" aria-hidden="true" d="M0,0h800v300h-800Z"/><g><g class="mark-area role-mark marks" role="graphics-object" aria-roledescription="area mark container"><path aria-label="Date: Mar 16, 2026; Unique Clones/day: 0; Repository: karlmdavis/ldap-plugin" role="graphics-symbol" aria-roledescription="area mark" d="M0,300L21.622,300L43.243,300L64.865,297L86.486,300L108.108,300L129.73,300L151.351,282L172.973,297L194.595,294L216.216,285L237.838,252L259.459,285L281.081,285L302.703,291L324.324,270L345.946,276L367.568,288L389.189,285L410.811,264L432.432,294L454.054,294L475.676,282L497.297,288L518.919,249L540.541,282L562.162,267L583.784,285L605.405,222L627.027,288L648.649,285L670.27,291L691.892,291L713.514,294L735.135,291L756.757,264L778.378,291L800,297L800,297L778.378,291L756.757,264L735.135,291L713.514,294L691.892,291L670.27,291L648.649,285L627.027,288L605.405,222L583.784,285L562.162,267L540.541,282L518.919,249L497.297,288L475.676,282L454.054,294L432.432,294L410.811,264L389.189,288L367.568,291L345.946,276L324.324,270L302.703,291L281.081,285L259.459,285L237.838,252L216.216,285L194.595,294L172.973,297L151.351,282L129.73,300L108.108,300L86.486,300L64.865,297L43.243,300L21.622,300L0,300Z" fill="#54a24b"/></g></g><path class="foreground" aria-hidden="true" d="" display="none"/></g><g transform="translate(0,0)"><path class="background" aria-hidden="true" d="M0,0h800v300h-800Z"/><g><g class="mark-area role-mark marks" role="graphics-object" aria-roledescription="area mark container"><path aria-label="Date: Mar 16, 2026; Unique Clones/day: 0; Repository: karlmdavis/lego-ev3dev-rs" role="graphics-symbol" aria-roledescription="area mark" d="M0,300L21.622,300L43.243,300L64.865,297L86.486,300L108.108,300L129.73,300L151.351,282L172.973,297L194.595,294L216.216,285L237.838,252L259.459,285L281.081,285L302.703,291L324.324,270L345.946,276L367.568,291L389.189,288L410.811,264L432.432,294L454.054,294L475.676,282L497.297,288L518.919,249L540.541,282L562.162,267L583.784,285L605.405,222L627.027,288L648.649,285L670.27,291L691.892,291L713.514,294L735.135,291L756.757,264L778.378,291L800,297L800,297L778.378,294L756.757,267L735.135,291L713.514,297L691.892,294L670.27,291L648.649,288L627.027,288L605.405,231L583.784,285L562.162,273L540.541,282L518.919,255L497.297,288L475.676,285L454.054,294L432.432,297L410.811,267L389.189,291L367.568,291L345.946,279L324.324,276L302.703,291L281.081,288L259.459,288L237.838,261L216.216,285L194.595,297L172.973,297L151.351,285L129.73,300L108.108,300L86.486,300L64.865,297L43.243,300L21.622,300L0,300Z" fill="#eeca3b"/></g></g><path class="foreground" aria-hidden="true" d="" display="none"/></g><g transform="translate(0,0)"><path class="background" aria-hidden="true" d="M0,0h800v300h-800Z"/><g><g class="mark-area role-mark marks" role="graphics-object" aria-roledescription="area mark container"><path aria-label="Date: Mar 16, 2026; Unique Clones/day: 0; Repository: karlmdavis/liquibase" role="graphics-symbol" aria-roledescription="area mark" d="M0,300L21.622,300L43.243,300L64.865,297L86.486,300L108.108,300L129.73,300L151.351,285L172.973,297L194.595,297L216.216,285L237.838,261L259.459,288L281.081,288L302.703,291L324.324,276L345.946,279L367.568,291L389.189,291L410.811,267L432.432,297L454.054,294L475.676,285L497.297,288L518.919,255L540.541,282L562.162,273L583.784,285L605.405,231L627.027,288L648.649,288L670.27,291L691.892,294L713.514,297L735.135,291L756.757,267L778.378,294L800,297L800,297L778.378,294L756.757,267L735.135,291L713.514,297L691.892,294L670.27,291L648.649,288L627.027,288L605.405,231L583.784,285L562.162,273L540.541,285L518.919,258L497.297,288L475.676,285L454.054,294L432.432,297L410.811,267L389.189,291L367.568,291L345.946,279L324.324,276L302.703,291L281.081,288L259.459,288L237.838,261L216.216,285L194.595,297L172.973,297L151.351,285L129.73,300L108.108,300L86.486,300L64.865,300L43.243,300L21.622,300L0,300Z" fill="#b279a2"/></g></g><path class="foreground" aria-hidden="true" d="" display="none"/></g><g transform="translate(0,0)"><path class="background" aria-hidden="true" d="M0,0h800v300h-800Z"/><g><g class="mark-area role-mark marks" role="graphics-object" aria-roledescription="area mark container"><path aria-label="Date: Mar 16, 2026; Unique Clones/day: 0; Repository: karlmdavis/m2e-core" role="graphics-symbol" aria-roledescription="area mark" d="M0,300L21.622,300L43.243,300L64.865,300L86.486,300L108.108,300L129.73,300L151.351,285L172.973,297L194.595,297L216.216,285L237.838,261L259.459,288L281.081,288L302.703,291L324.324,276L345.946,279L367.568,291L389.189,291L410.811,267L432.432,297L454.054,294L475.676,285L497.297,288L518.919,258L540.541,285L562.162,273L583.784,285L605.405,231L627.027,288L648.649,288L670.27,291L691.892,294L713.514,297L735.135,291L756.757,267L778.378,294L800,297L800,297L778.378,294L756.757,270L735.135,291L713.514,297L691.892,294L670.27,291L648.649,288L627.027,288L605.405,237L583.784,285L562.162,276L540.541,288L518.919,264L497.297,291L475.676,288L454.054,294L432.432,297L410.811,270L389.189,291L367.568,291L345.946,279L324.324,276L302.703,291L281.081,291L259.459,288L237.838,264L216.216,285L194.595,297L172.973,297L151.351,285L129.73,300L108.108,300L86.486,300L64.865,300L43.243,300L21.622,300L0,300Z" fill="#ff9da6"/></g></g><path class="foreground" aria-hidden="true" d="" display="none"/></g><g transform="translate(0,0)"><path class="background" aria-hidden="true" d="M0,0h800v300h-800Z"/><g><g class="mark-area role-mark marks" role="graphics-object" aria-roledescription="area mark container"><path aria-label="Date: Mar 16, 2026; Unique Clones/day: 0; Repository: karlmdavis/m2e-core-tests" role="graphics-symbol" aria-roledescription="area mark" d="M0,300L21.622,300L43.243,300L64.865,300L86.486,300L108.108,300L129.73,300L151.351,285L172.973,297L194.595,297L216.216,285L237.838,264L259.459,288L281.081,291L302.703,291L324.324,276L345.946,279L367.568,291L389.189,291L410.811,270L432.432,297L454.054,294L475.676,288L497.297,291L518.919,264L540.541,288L562.162,276L583.784,285L605.405,237L627.027,288L648.649,288L670.27,291L691.892,294L713.514,297L735.135,291L756.757,270L778.378,294L800,297L800,297L778.378,294L756.757,270L735.135,291L713.514,297L691.892,294L670.27,291L648.649,288L627.027,288L605.405,237L583.784,288L562.162,276L540.541,294L518.919,267L497.297,294L475.676,291L454.054,294L432.432,297L410.811,270L389.189,291L367.568,291L345.946,285L324.324,276L302.703,291L281.081,291L259.459,291L237.838,264L216.216,288L194.595,297L172.973,297L151.351,285L129.73,300L108.108,300L86.486,300L64.865,300L43.243,300L21.622,300L0,300Z" fill="#9d755d"/></g></g><path class="foreground" aria-hidden="true" d="" display="none"/></g><g transform="translate(0,0)"><path class="background" aria-hidden="true" d="M0,0h800v300h-800Z"/><g><g class="mark-area role-mark marks" role="graphics-object" aria-roledescription="area mark container"><path aria-label="Date: Mar 16, 2026; Unique Clones/day: 0; Repository: karlmdavis/obsidian-operator" role="graphics-symbol" aria-roledescription="area mark" d="M0,300L21.622,300L43.243,300L64.865,300L86.486,300L108.108,300L129.73,300L151.351,285L172.973,297L194.595,297L216.216,288L237.838,264L259.459,291L281.081,291L302.703,291L324.324,276L345.946,285L367.568,291L389.189,291L410.811,270L432.432,297L454.054,294L475.676,291L497.297,294L518.919,267L540.541,294L562.162,276L583.784,288L605.405,237L627.027,288L648.649,288L670.27,291L691.892,294L713.514,297L735.135,291L756.757,270L778.378,294L800,297L800,297L778.378,294L756.757,273L735.135,297L713.514,297L691.892,294L670.27,291L648.649,294L627.027,291L605.405,243L583.784,291L562.162,282L540.541,294L518.919,270L497.297,294L475.676,291L454.054,294L432.432,297L410.811,273L389.189,297L367.568,291L345.946,285L324.324,285L302.703,291L281.081,291L259.459,291L237.838,267L216.216,288L194.595,297L172.973,297L151.351,288L129.73,300L108.108,300L86.486,300L64.865,300L43.243,300L21.622,300L0,300Z" fill="#bab0ac"/></g></g><path class="foreground" aria-hidden="true" d="" display="none"/></g><g transform="translate(0,0)"><path class="background" aria-hidden="true" d="M0,0h800v300h-800Z"/><g><g class="mark-area role-mark marks" role="graphics-object" aria-roledescription="area mark container"><path aria-label="Date: Mar 16, 2026; Unique Clones/day: 0; Repository: karlmdavis/perfect-note" role="graphics-symbol" aria-roledescription="area mark" d="M0,300L21.622,300L43.243,300L64.865,300L86.486,300L108.108,300L129.73,300L151.351,288L172.973,297L194.595,297L216.216,288L237.838,267L259.459,291L281.081,291L302.703,291L324.324,285L345.946,285L367.568,291L389.189,297L410.811,273L432.432,297L454.054,294L475.676,291L497.297,294L518.919,270L540.541,294L562.162,282L583.784,291L605.405,243L627.027,291L648.649,294L670.27,291L691.892,294L713.514,297L735.135,297L756.757,273L778.378,294L800,297L800,297L778.378,294L756.757,276L735.135,297L713.514,297L691.892,294L670.27,291L648.649,294L627.027,294L605.405,249L583.784,291L562.162,282L540.541,294L518.919,273L497.297,294L475.676,291L454.054,294L432.432,297L410.811,276L389.189,297L367.568,291L345.946,285L324.324,285L302.703,291L281.081,291L259.459,294L237.838,270L216.216,291L194.595,297L172.973,297L151.351,288L129.73,300L108.108,300L86.486,300L64.865,300L43.243,300L21.622,300L0,300Z" fill="#4c78a8"/></g></g><path class="foreground" aria-hidden="true" d="" display="none"/></g><g transform="translate(0,0)"><path class="background" aria-hidden="true" d="M0,0h800v300h-800Z"/><g><g class="mark-area role-mark marks" role="graphics-object" aria-roledescription="area mark container"><path aria-label="Date: Mar 16, 2026; Unique Clones/day: 0; Repository: karlmdavis/puppet-archive" role="graphics-symbol" aria-roledescription="area mark" d="M0,300L21.622,300L43.243,300L64.865,300L86.486,300L108.108,300L129.73,300L151.351,288L172.973,297L194.595,297L216.216,291L237.838,270L259.459,294L281.081,291L302.703,291L324.324,285L345.946,285L367.568,291L389.189,297L410.811,276L432.432,297L454.054,294L475.676,291L497.297,294L518.919,273L540.541,294L562.162,282L583.784,291L605.405,249L627.027,294L648.649,294L670.27,291L691.892,294L713.514,297L735.135,297L756.757,276L778.378,294L800,297L800,297L778.378,294L756.757,276L735.135,297L713.514,297L691.892,294L670.27,291L648.649,294L627.027,294L605.405,249L583.784,291L562.162,285L540.541,294L518.919,276L497.297,294L475.676,291L454.054,294L432.432,297L410.811,276L389.189,297L367.568,291L345.946,285L324.324,285L302.703,291L281.081,291L259.459,294L237.838,270L216.216,291L194.595,297L172.973,297L151.351,291L129.73,300L108.108,300L86.486,300L64.865,300L43.243,300L21.622,300L0,300Z" fill="#f58518"/></g></g><path class="foreground" aria-hidden="true" d="" display="none"/></g><g transform="translate(0,0)"><path class="background" aria-hidden="true" d="M0,0h800v300h-800Z"/><g><g class="mark-area role-mark marks" role="graphics-object" aria-roledescription="area mark container"><path aria-label="Date: Mar 16, 2026; Unique Clones/day: 0; Repository: karlmdavis/puppet-sonar" role="graphics-symbol" aria-roledescription="area mark" d="M0,300L21.622,300L43.243,300L64.865,300L86.486,300L108.108,300L129.73,300L151.351,291L172.973,297L194.595,297L216.216,291L237.838,270L259.459,294L281.081,291L302.703,291L324.324,285L345.946,285L367.568,291L389.189,297L410.811,276L432.432,297L454.054,294L475.676,291L497.297,294L518.919,276L540.541,294L562.162,285L583.784,291L605.405,249L627.027,294L648.649,294L670.27,291L691.892,294L713.514,297L735.135,297L756.757,276L778.378,294L800,297L800,297L778.378,297L756.757,276L735.135,297L713.514,297L691.892,294L670.27,291L648.649,294L627.027,297L605.405,249L583.784,291L562.162,288L540.541,294L518.919,276L497.297,297L475.676,294L454.054,294L432.432,297L410.811,276L389.189,297L367.568,294L345.946,285L324.324,291L302.703,291L281.081,291L259.459,297L237.838,270L216.216,291L194.595,297L172.973,297L151.351,291L129.73,300L108.108,300L86.486,300L64.865,300L43.243,300L21.622,300L0,300Z" fill="#e45756"/></g></g><path class="foreground" aria-hidden="true" d="" display="none"/></g><g transform="translate(0,0)"><path class="background" aria-hidden="true" d="M0,0h800v300h-800Z"/><g><g class="mark-area role-mark marks" role="graphics-object" aria-roledescription="area mark container"><path aria-label="Date: Mar 16, 2026; Unique Clones/day: 0; Repository: karlmdavis/rps-tourney" role="graphics-symbol" aria-roledescription="area mark" d="M0,300L21.622,300L43.243,300L64.865,300L86.486,300L108.108,300L129.73,300L151.351,291L172.973,297L194.595,297L216.216,291L237.838,270L259.459,297L281.081,291L302.703,291L324.324,291L345.946,285L367.568,294L389.189,297L410.811,276L432.432,297L454.054,294L475.676,294L497.297,297L518.919,276L540.541,294L562.162,288L583.784,291L605.405,249L627.027,297L648.649,294L670.27,291L691.892,294L713.514,297L735.135,297L756.757,276L778.378,297L800,297L800,297L778.378,297L756.757,279L735.135,297L713.514,297L691.892,294L670.27,291L648.649,294L627.027,297L605.405,255L583.784,291L562.162,291L540.541,294L518.919,279L497.297,297L475.676,294L454.054,294L432.432,297L410.811,279L389.189,297L367.568,297L345.946,285L324.324,291L302.703,291L281.081,291L259.459,297L237.838,273L216.216,291L194.595,297L172.973,297L151.351,294L129.73,300L108.108,300L86.486,300L64.865,300L43.243,300L21.622,300L0,300Z" fill="#72b7b2"/></g></g><path class="foreground" aria-hidden="true" d="" display="none"/></g><g transform="translate(0,0)"><path class="background" aria-hidden="true" d="M0,0h800v300h-800Z"/><g><g class="mark-area role-mark marks" role="graphics-object" aria-roledescription="area mark container"><path aria-label="Date: Mar 16, 2026; Unique Clones/day: 0; Repository: karlmdavis/sample-maven-and-rcp" role="graphics-symbol" aria-roledescription="area mark" d="M0,300L21.622,300L43.243,300L64.865,300L86.486,300L108.108,300L129.73,300L151.351,294L172.973,297L194.595,297L216.216,291L237.838,273L259.459,297L281.081,291L302.703,291L324.324,291L345.946,285L367.568,297L389.189,297L410.811,279L432.432,297L454.054,294L475.676,294L497.297,297L518.919,279L540.541,294L562.162,291L583.784,291L605.405,255L627.027,297L648.649,294L670.27,291L691.892,294L713.514,297L735.135,297L756.757,279L778.378,297L800,297L800,297L778.378,297L756.757,282L735.135,297L713.514,297L691.892,294L670.27,291L648.649,294L627.027,297L605.405,261L583.784,291L562.162,291L540.541,294L518.919,282L497.297,297L475.676,294L454.054,294L432.432,297L410.811,282L389.189,297L367.568,297L345.946,288L324.324,291L302.703,291L281.081,291L259.459,297L237.838,276L216.216,291L194.595,297L172.973,297L151.351,294L129.73,300L108.108,300L86.486,300L64.865,300L43.243,300L21.622,300L0,300Z" fill="#54a24b"/></g></g><path class="foreground" aria-hidden="true" d="" display="none"/></g><g transform="translate(0,0)"><path class="background" aria-hidden="true" d="M0,0h800v300h-800Z"/><g><g class="mark-area role-mark marks" role="graphics-object" aria-roledescription="area mark container"><path aria-label="Date: Mar 16, 2026; Unique Clones/day: 0; Repository: karlmdavis/stockfighter-trades-solutions" role="graphics-symbol" aria-roledescription="area mark" d="M0,300L21.622,300L43.243,300L64.865,300L86.486,300L108.108,300L129.73,300L151.351,294L172.973,297L194.595,297L216.216,291L237.838,276L259.459,297L281.081,291L302.703,291L324.324,291L345.946,288L367.568,297L389.189,297L410.811,282L432.432,297L454.054,294L475.676,294L497.297,297L518.919,282L540.541,294L562.162,291L583.784,291L605.405,261L627.027,297L648.649,294L670.27,291L691.892,294L713.514,297L735.135,297L756.757,282L778.378,297L800,297L800,297L778.378,297L756.757,285L735.135,297L713.514,297L691.892,294L670.27,291L648.649,294L627.027,297L605.405,270L583.784,291L562.162,291L540.541,294L518.919,285L497.297,297L475.676,294L454.054,294L432.432,297L410.811,285L389.189,297L367.568,297L345.946,288L324.324,291L302.703,291L281.081,294L259.459,297L237.838,282L216.216,291L194.595,297L172.973,297L151.351,294L129.73,300L108.108,300L86.486,300L64.865,300L43.243,300L21.622,300L0,300Z" fill="#eeca3b"/></g></g><path class="foreground" aria-hidden="true" d="" display="none"/></g><g transform="translate(0,0)"><path class="background" aria-hidden="true" d="M0,0h800v300h-800Z"/><g><g class="mark-area role-mark marks" role="graphics-object" aria-roledescription="area mark container"><path aria-label="Date: Mar 16, 2026; Unique Clones/day: 0; Repository: karlmdavis/test-repo-for-move" role="graphics-symbol" aria-roledescription="area mark" d="M0,300L21.622,300L43.243,300L64.865,300L86.486,300L108.108,300L129.73,300L151.351,294L172.973,297L194.595,297L216.216,291L237.838,282L259.459,297L281.081,294L302.703,291L324.324,291L345.946,288L367.568,297L389.189,297L410.811,285L432.432,297L454.054,294L475.676,294L497.297,297L518.919,285L540.541,294L562.162,291L583.784,291L605.405,270L627.027,297L648.649,294L670.27,291L691.892,294L713.514,297L735.135,297L756.757,285L778.378,297L800,297L800,297L778.378,297L756.757,288L735.135,297L713.514,297L691.892,294L670.27,294L648.649,294L627.027,297L605.405,276L583.784,291L562.162,291L540.541,294L518.919,288L497.297,297L475.676,294L454.054,294L432.432,297L410.811,288L389.189,297L367.568,297L345.946,288L324.324,291L302.703,291L281.081,297L259.459,297L237.838,285L216.216,294L194.595,297L172.973,297L151.351,294L129.73,300L108.108,300L86.486,300L64.865,300L43.243,300L21.622,300L0,300Z" fill="#b279a2"/></g></g><path class="foreground" aria-hidden="true" d="" display="none"/></g><g transform="translate(0,0)"><path class="background" aria-hidden="true" d="M0,0h800v300h-800Z"/><g><g class="mark-area role-mark marks" role="graphics-object" aria-roledescription="area mark container"><path aria-label="Date: Mar 16, 2026; Unique Clones/day: 0; Repository: karlmdavis/todoist-ai" role="graphics-symbol" aria-roledescription="area mark" d="M0,300L21.622,300L43.243,300L64.865,300L86.486,300L108.108,300L129.73,300L151.351,294L172.973,297L194.595,297L216.216,294L237.838,285L259.459,297L281.081,297L302.703,291L324.324,291L345.946,288L367.568,297L389.189,297L410.811,288L432.432,297L454.054,294L475.676,294L497.297,297L518.919,288L540.541,294L562.162,291L583.784,291L605.405,276L627.027,297L648.649,294L670.27,294L691.892,294L713.514,297L735.135,297L756.757,288L778.378,297L800,297L800,297L778.378,297L756.757,288L735.135,297L713.514,297L691.892,294L670.27,294L648.649,297L627.027,297L605.405,276L583.784,291L562.162,294L540.541,294L518.919,288L497.297,297L475.676,294L454.054,294L432.432,297L410.811,288L389.189,297L367.568,297L345.946,294L324.324,291L302.703,291L281.081,297L259.459,297L237.838,285L216.216,294L194.595,297L172.973,297L151.351,294L129.73,300L108.108,300L86.486,300L64.865,300L43.243,300L21.622,300L0,300Z" fill="#ff9da6"/></g></g><path class="foreground" aria-hidden="true" d="" display="none"/></g><g transform="translate(0,0)"><path class="background" aria-hidden="true" d="M0,0h800v300h-800Z"/><g><g class="mark-area role-mark marks" role="graphics-object" aria-roledescription="area mark container"><path aria-label="Date: Mar 16, 2026; Unique Clones/day: 0; Repository: karlmdavis/usgs-water-api-java" role="graphics-symbol" aria-roledescription="area mark" d="M0,300L21.622,300L43.243,300L64.865,300L86.486,300L108.108,300L129.73,300L151.351,294L172.973,297L194.595,297L216.216,294L237.838,285L259.459,297L281.081,297L302.703,291L324.324,291L345.946,294L367.568,297L389.189,297L410.811,288L432.432,297L454.054,294L475.676,294L497.297,297L518.919,288L540.541,294L562.162,294L583.784,291L605.405,276L627.027,297L648.649,297L670.27,294L691.892,294L713.514,297L735.135,297L756.757,288L778.378,297L800,297L800,300L778.378,300L756.757,294L735.135,300L713.514,300L691.892,297L670.27,300L648.649,300L627.027,300L605.405,285L583.784,300L562.162,297L540.541,297L518.919,294L497.297,300L475.676,297L454.054,300L432.432,300L410.811,294L389.189,300L367.568,300L345.946,297L324.324,294L302.703,297L281.081,300L259.459,300L237.838,291L216.216,300L194.595,300L172.973,300L151.351,300L129.73,300L108.108,300L86.486,300L64.865,300L43.243,300L21.622,300L0,300Z" fill="#9d755d"/></g></g><path class="foreground" aria-hidden="true" d="" display="none"/></g><g transform="translate(0,0)"><path class="background" aria-hidden="true" d="M0,0h800v300h-800Z"/><g><g class="mark-area role-mark marks" role="graphics-object" aria-roledescription="area mark container"><path aria-label="Date: Mar 16, 2026; Unique Clones/day: 0; Repository: karlmdavis/workstation-base-ansible-role" role="graphics-symbol" aria-roledescription="area mark" d="M0,300L21.622,300L43.243,300L64.865,300L86.486,300L108.108,300L129.73,300L151.351,300L172.973,300L194.595,300L216.216,300L237.838,291L259.459,300L281.081,300L302.703,297L324.324,294L345.946,297L367.568,300L389.189,300L410.811,294L432.432,300L454.054,300L475.676,297L497.297,300L518.919,294L540.541,297L562.162,297L583.784,300L605.405,285L627.027,300L648.649,300L670.27,300L691.892,297L713.514,300L735.135,300L756.757,294L778.378,300L800,300L800,300L778.378,300L756.757,297L735.135,300L713.514,300L691.892,297L670.27,300L648.649,300L627.027,300L605.405,294L583.784,300L562.162,300L540.541,297L518.919,297L497.297,300L475.676,297L454.054,300L432.432,300L410.811,297L389.189,300L367.568,300L345.946,300L324.324,297L302.703,300L281.081,300L259.459,300L237.838,297L216.216,300L194.595,300L172.973,300L151.351,300L129.73,300L108.108,300L86.486,300L64.865,300L43.243,300L21.622,300L0,300Z" fill="#bab0ac"/></g></g><path class="foreground" aria-hidden="true" d="" display="none"/></g><g transform="translate(0,0)"><path class="background" aria-hidden="true" d="M0,0h800v300h-800Z"/><g><g class="mark-area role-mark marks" role="graphics-object" aria-roledescription="area mark container"><path aria-label="Date: Mar 16, 2026; Unique Clones/day: 0; Repository: karlmdavis/xmlpull" role="graphics-symbol" aria-roledescription="area mark" d="M0,300L21.622,300L43.243,300L64.865,300L86.486,300L108.108,300L129.73,300L151.351,300L172.973,300L194.595,300L216.216,300L237.838,297L259.459,300L281.081,300L302.703,300L324.324,297L345.946,300L367.568,300L389.189,300L410.811,297L432.432,300L454.054,300L475.676,297L497.297,300L518.919,297L540.541,297L562.162,300L583.784,300L605.405,294L627.027,300L648.649,300L670.27,300L691.892,297L713.514,300L735.135,300L756.757,297L778.378,300L800,300L800,300L778.378,300L756.757,300L735.135,300L713.514,300L691.892,300L670.27,300L648.649,300L627.027,300L605.405,300L583.784,300L562.162,300L540.541,300L518.919,300L497.297,300L475.676,300L454.054,300L432.432,300L410.811,300L389.189,300L367.568,300L345.946,300L324.324,300L302.703,300L281.081,300L259.459,300L237.838,300L216.216,300L194.595,300L172.973,300L151.351,300L129.73,300L108.108,300L86.486,300L64.865,300L43.243,300L21.622,300L0,300Z" fill="#4c78a8"/></g></g><path class="foreground" aria-hidden="true" d="" display="none"/></g></g><g class="mark-group role-legend" role="graphics-symbol" aria-roledescription="legend" aria-label="Symbol legend titled 'Repository' for fill color with 41 values: karlmdavis/FHIR-Server, karlmdavis/ansible, karlmdavis/ansible-jenkins, karlmdavis/ansible-role-acmetool, karlmdavis/ansible-role-bind-dns, ending with karlmdavis/xmlpull"><g transform="translate(818,0)"><path class="background" aria-hidden="true" d="M0,0h176v404h-176Z" pointer-events="none"/><g><g class="mark-group role-legend-entry"><g transform="translate(0,16)"><path class="background" aria-hidden="true" d="M0,0h0v0h0Z" pointer-events="none"/><g><g class="mark-group role-scope" role="graphics-object" aria-roledescription="group mark container"><g transform="translate(0,0)"><path class="background" aria-hidden="true" d="M0,0h176v11h-176Z" pointer-events="none" opacity="1"/><g><g class="mark-symbol role-legend-symbol" pointer-events="none"><path transform="translate(6,6)" d="M5,0A5,5,0,1,1,-5,0A5,5,0,1,1,5,0" fill="#4c78a8" stroke-width="1.5" opacity="1"/></g><g class="mark-text role-legend-label" pointer-events="none"><text text-anchor="start" transform="translate(16,9)" font-family="sans-serif" font-size="10px" fill="#000" opacity="1">karlmdavis/FHIR-Server</text></g></g><path class="foreground" aria-hidden="true" d="" pointer-events="none" display="none"/></g><g transform="translate(0,13)"><path class="background" aria-hidden="true" d="M0,0h176v11h-176Z" pointer-events="none" opacity="1"/><g><g class="mark-symbol role-legend-symbol" pointer-events="none"><path transform="translate(6,6)" d="M5,0A5,5,0,1,1,-5,0A5,5,0,1,1,5,0" fill="#f58518" stroke-width="1.5" opacity="1"/></g><g class="mark-text role-legend-label" pointer-events="none"><text text-anchor="start" transform="translate(16,9)" font-family="sans-serif" font-size="10px" fill="#000" opacity="1">karlmdavis/ansible</text></g></g><path class="foreground" aria-hidden="true" d="" pointer-events="none" display="none"/></g><g transform="translate(0,26)"><path class="background" aria-hidden="true" d="M0,0h176v11h-176Z" pointer-events="none" opacity="1"/><g><g class="mark-symbol role-legend-symbol" pointer-events="none"><path transform="translate(6,6)" d="M5,0A5,5,0,1,1,-5,0A5,5,0,1,1,5,0" fill="#e45756" stroke-width="1.5" opacity="1"/></g><g class="mark-text role-legend-label" pointer-events="none"><text text-anchor="start" transform="translate(16,9)" font-family="sans-serif" font-size="10px" fill="#000" opacity="1">karlmdavis/ansible-jenkins</text></g></g><path class="foreground" aria-hidden="true" d="" pointer-events="none" display="none"/></g><g transform="translate(0,39)"><path class="background" aria-hidden="true" d="M0,0h176v11h-176Z" pointer-events="none" opacity="1"/><g><g class="mark-symbol role-legend-symbol" pointer-events="none"><path transform="translate(6,6)" d="M5,0A5,5,0,1,1,-5,0A5,5,0,1,1,5,0" fill="#72b7b2" stroke-width="1.5" opacity="1"/></g><g class="mark-text role-legend-label" pointer-events="none"><text text-anchor="start" transform="translate(16,9)" font-family="sans-serif" font-size="10px" fill="#000" opacity="1">karlmdavis/ansible-role-acmetool</text></g></g><path class="foreground" aria-hidden="true" d="" pointer-events="none" display="none"/></g><g transform="translate(0,52)"><path class="background" aria-hidden="true" d="M0,0h176v11h-176Z" pointer-events="none" opacity="1"/><g><g class="mark-symbol role-legend-symbol" pointer-events="none"><path transform="translate(6,6)" d="M5,0A5,5,0,1,1,-5,0A5,5,0,1,1,5,0" fill="#54a24b" stroke-width="1.5" opacity="1"/></g><g class="mark-text role-legend-label" pointer-events="none"><text text-anchor="start" transform="translate(16,9)" font-family="sans-serif" font-size="10px" fill="#000" opacity="1">karlmdavis/ansible-role-bind-dns</text></g></g><path class="foreground" aria-hidden="true" d="" pointer-events="none" display="none"/></g><g transform="translate(0,65)"><path class="background" aria-hidden="true" d="M0,0h176v11h-176Z" pointer-events="none" opacity="1"/><g><g class="mark-symbol role-legend-symbol" pointer-events="none"><path transform="translate(6,6)" d="M5,0A5,5,0,1,1,-5,0A5,5,0,1,1,5,0" fill="#eeca3b" stroke-width="1.5" opacity="1"/></g><g class="mark-text role-legend-label" pointer-events="none"><text text-anchor="start" transform="translate(16,9)" font-family="sans-serif" font-size="10px" fill="#000" opacity="1">karlmdavis/ansible-role-jenkins2</text></g></g><path class="foreground" aria-hidden="true" d="" pointer-events="none" display="none"/></g><g transform="translate(0,78)"><path class="background" aria-hidden="true" d="M0,0h176v11h-176Z" pointer-events="none" opacity="1"/><g><g class="mark-symbol role-legend-symbol" pointer-events="none"><path transform="translate(6,6)" d="M5,0A5,5,0,1,1,-5,0A5,5,0,1,1,5,0" fill="#b279a2" stroke-width="1.5" opacity="1"/></g><g class="mark-text role-legend-label" pointer-events="none"><text text-anchor="start" transform="translate(16,9)" font-family="sans-serif" font-size="10px" fill="#000" opacity="1">karlmdavis/ansible-role-ldap</text></g></g><path class="foreground" aria-hidden="true" d="" pointer-events="none" display="none"/></g><g transform="translate(0,91)"><path class="background" aria-hidden="true" d="M0,0h176v11h-176Z" pointer-events="none" opacity="1"/><g><g class="mark-symbol role-legend-symbol" pointer-events="none"><path transform="translate(6,6)" d="M5,0A5,5,0,1,1,-5,0A5,5,0,1,1,5,0" fill="#ff9da6" stroke-width="1.5" opacity="1"/></g><g class="mark-text role-legend-label" pointer-events="none"><text text-anchor="start" transform="translate(16,9)" font-family="sans-serif" font-size="10px" fill="#000" opacity="1">karlmdavis/ansible-role-rcm-dotfiles</text></g></g><path class="foreground" aria-hidden="true" d="" pointer-events="none" display="none"/></g><g transform="translate(0,104)"><path class="background" aria-hidden="true" d="M0,0h176v11h-176Z" pointer-events="none" opacity="1"/><g><g class="mark-symbol role-legend-symbol" pointer-events="none"><path transform="translate(6,6)" d="M5,0A5,5,0,1,1,-5,0A5,5,0,1,1,5,0" fill="#9d755d" stroke-width="1.5" opacity="1"/></g><g class="mark-text role-legend-label" pointer-events="none"><text text-anchor="start" transform="translate(16,9)" font-family="sans-serif" font-size="10px" fill="#000" opacity="1">karlmdavis/ansible-roles</text></g></g><path class="foreground" aria-hidden="true" d="" pointer-events="none" display="none"/></g><g transform="translate(0,117)"><path class="background" aria-hidden="true" d="M0,0h176v11h-176Z" pointer-events="none" opacity="1"/><g><g class="mark-symbol role-legend-symbol" pointer-events="none"><path transform="translate(6,6)" d="M5,0A5,5,0,1,1,-5,0A5,5,0,1,1,5,0" fill="#bab0ac" stroke-width="1.5" opacity="1"/></g><g class="mark-text role-legend-label" pointer-events="none"><text text-anchor="start" transform="translate(16,9)" font-family="sans-serif" font-size="10px" fill="#000" opacity="1">karlmdavis/bbonfhir-dev-infra-doc…</text></g></g><path class="foreground" aria-hidden="true" d="" pointer-events="none" display="none"/></g><g transform="translate(0,130)"><path class="background" aria-hidden="true" d="M0,0h176v11h-176Z" pointer-events="none" opacity="1"/><g><g class="mark-symbol role-legend-symbol" pointer-events="none"><path transform="translate(6,6)" d="M5,0A5,5,0,1,1,-5,0A5,5,0,1,1,5,0" fill="#4c78a8" stroke-width="1.5" opacity="1"/></g><g class="mark-text role-legend-label" pointer-events="none"><text text-anchor="start" transform="translate(16,9)" font-family="sans-serif" font-size="10px" fill="#000" opacity="1">karlmdavis/can-i-kayak-baltimore</text></g></g><path class="foreground" aria-hidden="true" d="" pointer-events="none" display="none"/></g><g transform="translate(0,143)"><path class="background" aria-hidden="true" d="M0,0h176v11h-176Z" pointer-events="none" opacity="1"/><g><g class="mark-symbol role-legend-symbol" pointer-events="none"><path transform="translate(6,6)" d="M5,0A5,5,0,1,1,-5,0A5,5,0,1,1,5,0" fill="#f58518" stroke-width="1.5" opacity="1"/></g><g class="mark-text role-legend-label" pointer-events="none"><text text-anchor="start" transform="translate(16,9)" font-family="sans-serif" font-size="10px" fill="#000" opacity="1">karlmdavis/datanucleus-test-jdo-1…</text></g></g><path class="foreground" aria-hidden="true" d="" pointer-events="none" display="none"/></g><g transform="translate(0,156)"><path class="background" aria-hidden="true" d="M0,0h176v11h-176Z" pointer-events="none" opacity="1"/><g><g class="mark-symbol role-legend-symbol" pointer-events="none"><path transform="translate(6,6)" d="M5,0A5,5,0,1,1,-5,0A5,5,0,1,1,5,0" fill="#e45756" stroke-width="1.5" opacity="1"/></g><g class="mark-text role-legend-label" pointer-events="none"><text text-anchor="start" transform="translate(16,9)" font-family="sans-serif" font-size="10px" fill="#000" opacity="1">karlmdavis/dotfiles</text></g></g><path class="foreground" aria-hidden="true" d="" pointer-events="none" display="none"/></g><g transform="translate(0,169)"><path class="background" aria-hidden="true" d="M0,0h176v11h-176Z" pointer-events="none" opacity="1"/><g><g class="mark-symbol role-legend-symbol" pointer-events="none"><path transform="translate(6,6)" d="M5,0A5,5,0,1,1,-5,0A5,5,0,1,1,5,0" fill="#72b7b2" stroke-width="1.5" opacity="1"/></g><g class="mark-text role-legend-label" pointer-events="none"><text text-anchor="start" transform="translate(16,9)" font-family="sans-serif" font-size="10px" fill="#000" opacity="1">karlmdavis/fhir-benchmarks</text></g></g><path class="foreground" aria-hidden="true" d="" pointer-events="none" display="none"/></g><g transform="translate(0,182)"><path class="background" aria-hidden="true" d="M0,0h176v11h-176Z" pointer-events="none" opacity="1"/><g><g class="mark-symbol role-legend-symbol" pointer-events="none"><path transform="translate(6,6)" d="M5,0A5,5,0,1,1,-5,0A5,5,0,1,1,5,0" fill="#54a24b" stroke-width="1.5" opacity="1"/></g><g class="mark-text role-legend-label" pointer-events="none"><text text-anchor="start" transform="translate(16,9)" font-family="sans-serif" font-size="10px" fill="#000" opacity="1">karlmdavis/hapi-fhir-jpaserver-sta…</text></g></g><path class="foreground" aria-hidden="true" d="" pointer-events="none" display="none"/></g><g transform="translate(0,195)"><path class="background" aria-hidden="true" d="M0,0h176v11h-176Z" pointer-events="none" opacity="1"/><g><g class="mark-symbol role-legend-symbol" pointer-events="none"><path transform="translate(6,6)" d="M5,0A5,5,0,1,1,-5,0A5,5,0,1,1,5,0" fill="#eeca3b" stroke-width="1.5" opacity="1"/></g><g class="mark-text role-legend-label" pointer-events="none"><text text-anchor="start" transform="translate(16,9)" font-family="sans-serif" font-size="10px" fill="#000" opacity="1">karlmdavis/hello-rust-actix</text></g></g><path class="foreground" aria-hidden="true" d="" pointer-events="none" display="none"/></g><g transform="translate(0,208)"><path class="background" aria-hidden="true" d="M0,0h176v11h-176Z" pointer-events="none" opacity="1"/><g><g class="mark-symbol role-legend-symbol" pointer-events="none"><path transform="translate(6,6)" d="M5,0A5,5,0,1,1,-5,0A5,5,0,1,1,5,0" fill="#b279a2" stroke-width="1.5" opacity="1"/></g><g class="mark-text role-legend-label" pointer-events="none"><text text-anchor="start" transform="translate(16,9)" font-family="sans-serif" font-size="10px" fill="#000" opacity="1">karlmdavis/jessentials</text></g></g><path class="foreground" aria-hidden="true" d="" pointer-events="none" display="none"/></g><g transform="translate(0,221)"><path class="background" aria-hidden="true" d="M0,0h176v11h-176Z" pointer-events="none" opacity="1"/><g><g class="mark-symbol role-legend-symbol" pointer-events="none"><path transform="translate(6,6)" d="M5,0A5,5,0,1,1,-5,0A5,5,0,1,1,5,0" fill="#ff9da6" stroke-width="1.5" opacity="1"/></g><g class="mark-text role-legend-label" pointer-events="none"><text text-anchor="start" transform="translate(16,9)" font-family="sans-serif" font-size="10px" fill="#000" opacity="1">karlmdavis/justdavis-ansible</text></g></g><path class="foreground" aria-hidden="true" d="" pointer-events="none" display="none"/></g><g transform="translate(0,234)"><path class="background" aria-hidden="true" d="M0,0h176v11h-176Z" pointer-events="none" opacity="1"/><g><g class="mark-symbol role-legend-symbol" pointer-events="none"><path transform="translate(6,6)" d="M5,0A5,5,0,1,1,-5,0A5,5,0,1,1,5,0" fill="#9d755d" stroke-width="1.5" opacity="1"/></g><g class="mark-text role-legend-label" pointer-events="none"><text text-anchor="start" transform="translate(16,9)" font-family="sans-serif" font-size="10px" fill="#000" opacity="1">karlmdavis/justdavis-finances</text></g></g><path class="foreground" aria-hidden="true" d="" pointer-events="none" display="none"/></g><g transform="translate(0,247)"><path class="background" aria-hidden="true" d="M0,0h176v11h-176Z" pointer-events="none" opacity="1"/><g><g class="mark-symbol role-legend-symbol" pointer-events="none"><path transform="translate(6,6)" d="M5,0A5,5,0,1,1,-5,0A5,5,0,1,1,5,0" fill="#bab0ac" stroke-width="1.5" opacity="1"/></g><g class="mark-text role-legend-label" pointer-events="none"><text text-anchor="start" transform="translate(16,9)" font-family="sans-serif" font-size="10px" fill="#000" opacity="1">karlmdavis/justdavis-karl</text></g></g><path class="foreground" aria-hidden="true" d="" pointer-events="none" display="none"/></g><g transform="translate(0,260)"><path class="background" aria-hidden="true" d="M0,0h176v11h-176Z" pointer-events="none" opacity="1"/><g><g class="mark-symbol role-legend-symbol" pointer-events="none"><path transform="translate(6,6)" d="M5,0A5,5,0,1,1,-5,0A5,5,0,1,1,5,0" fill="#4c78a8" stroke-width="1.5" opacity="1"/></g><g class="mark-text role-legend-label" pointer-events="none"><text text-anchor="start" transform="translate(16,9)" font-family="sans-serif" font-size="10px" fill="#000" opacity="1">karlmdavis/justdavis-puppet</text></g></g><path class="foreground" aria-hidden="true" d="" pointer-events="none" display="none"/></g><g transform="translate(0,273)"><path class="background" aria-hidden="true" d="M0,0h176v11h-176Z" pointer-events="none" opacity="1"/><g><g class="mark-symbol role-legend-symbol" pointer-events="none"><path transform="translate(6,6)" d="M5,0A5,5,0,1,1,-5,0A5,5,0,1,1,5,0" fill="#f58518" stroke-width="1.5" opacity="1"/></g><g class="mark-text role-legend-label" pointer-events="none"><text text-anchor="start" transform="translate(16,9)" font-family="sans-serif" font-size="10px" fill="#000" opacity="1">karlmdavis/kobjects</text></g></g><path class="foreground" aria-hidden="true" d="" pointer-events="none" display="none"/></g><g transform="translate(0,286)"><path class="background" aria-hidden="true" d="M0,0h176v11h-176Z" pointer-events="none" opacity="1"/><g><g class="mark-symbol role-legend-symbol" pointer-events="none"><path transform="translate(6,6)" d="M5,0A5,5,0,1,1,-5,0A5,5,0,1,1,5,0" fill="#e45756" stroke-width="1.5" opacity="1"/></g><g class="mark-text role-legend-label" pointer-events="none"><text text-anchor="start" transform="translate(16,9)" font-family="sans-serif" font-size="10px" fill="#000" opacity="1">karlmdavis/ksoap2-android</text></g></g><path class="foreground" aria-hidden="true" d="" pointer-events="none" display="none"/></g><g transform="translate(0,299)"><path class="background" aria-hidden="true" d="M0,0h176v11h-176Z" pointer-events="none" opacity="1"/><g><g class="mark-symbol role-legend-symbol" pointer-events="none"><path transform="translate(6,6)" d="M5,0A5,5,0,1,1,-5,0A5,5,0,1,1,5,0" fill="#72b7b2" stroke-width="1.5" opacity="1"/></g><g class="mark-text role-legend-label" pointer-events="none"><text text-anchor="start" transform="translate(16,9)" font-family="sans-serif" font-size="10px" fill="#000" opacity="1">karlmdavis/kxml2</text></g></g><path class="foreground" aria-hidden="true" d="" pointer-events="none" display="none"/></g><g transform="translate(0,312)"><path class="background" aria-hidden="true" d="M0,0h176v11h-176Z" pointer-events="none" opacity="1"/><g><g class="mark-symbol role-legend-symbol" pointer-events="none"><path transform="translate(6,6)" d="M5,0A5,5,0,1,1,-5,0A5,5,0,1,1,5,0" fill="#54a24b" stroke-width="1.5" opacity="1"/></g><g class="mark-text role-legend-label" pointer-events="none"><text text-anchor="start" transform="translate(16,9)" font-family="sans-serif" font-size="10px" fill="#000" opacity="1">karlmdavis/ldap-plugin</text></g></g><path class="foreground" aria-hidden="true" d="" pointer-events="none" display="none"/></g><g transform="translate(0,325)"><path class="background" aria-hidden="true" d="M0,0h176v11h-176Z" pointer-events="none" opacity="1"/><g><g class="mark-symbol role-legend-symbol" pointer-events="none"><path transform="translate(6,6)" d="M5,0A5,5,0,1,1,-5,0A5,5,0,1,1,5,0" fill="#eeca3b" stroke-width="1.5" opacity="1"/></g><g class="mark-text role-legend-label" pointer-events="none"><text text-anchor="start" transform="translate(16,9)" font-family="sans-serif" font-size="10px" fill="#000" opacity="1">karlmdavis/lego-ev3dev-rs</text></g></g><path class="foreground" aria-hidden="true" d="" pointer-events="none" display="none"/></g><g transform="translate(0,338)"><path class="background" aria-hidden="true" d="M0,0h176v11h-176Z" pointer-events="none" opacity="1"/><g><g class="mark-symbol role-legend-symbol" pointer-events="none"><path transform="translate(6,6)" d="M5,0A5,5,0,1,1,-5,0A5,5,0,1,1,5,0" fill="#b279a2" stroke-width="1.5" opacity="1"/></g><g class="mark-text role-legend-label" pointer-events="none"><text text-anchor="start" transform="translate(16,9)" font-family="sans-serif" font-size="10px" fill="#000" opacity="1">karlmdavis/liquibase</text></g></g><path class="foreground" aria-hidden="true" d="" pointer-events="none" display="none"/></g><g transform="translate(0,351)"><path class="background" aria-hidden="true" d="M0,0h176v11h-176Z" pointer-events="none" opacity="1"/><g><g class="mark-symbol role-legend-symbol" pointer-events="none"><path transform="translate(6,6)" d="M5,0A5,5,0,1,1,-5,0A5,5,0,1,1,5,0" fill="#ff9da6" stroke-width="1.5" opacity="1"/></g><g class="mark-text role-legend-label" pointer-events="none"><text text-anchor="start" transform="translate(16,9)" font-family="sans-serif" font-size="10px" fill="#000" opacity="1">karlmdavis/m2e-core</text></g></g><path class="foreground" aria-hidden="true" d="" pointer-events="none" display="none"/></g><g transform="translate(0,364)"><path class="background" aria-hidden="true" d="M0,0h176v11h-176Z" pointer-events="none" opacity="1"/><g><g class="mark-symbol role-legend-symbol" pointer-events="none"><path transform="translate(6,6)" d="M5,0A5,5,0,1,1,-5,0A5,5,0,1,1,5,0" fill="#9d755d" stroke-width="1.5" opacity="1"/></g><g class="mark-text role-legend-label" pointer-events="none"><text text-anchor="start" transform="translate(16,9)" font-family="sans-serif" font-size="10px" fill="#000" opacity="1">karlmdavis/m2e-core-tests</text></g></g><path class="foreground" aria-hidden="true" d="" pointer-events="none" display="none"/></g><g transform="translate(0,377)"><path class="background" aria-hidden="true" d="M0,0h176v11h-176Z" pointer-events="none" opacity="1"/><g><g class="mark-symbol role-legend-symbol" pointer-events="none"><path transform="translate(6,6)" d="M5,0A5,5,0,1,1,-5,0A5,5,0,1,1,5,0" fill="#bab0ac" stroke-width="1.5" opacity="1"/></g><g class="mark-text role-legend-label" pointer-events="none"><text text-anchor="start" transform="translate(16,9)" font-family="sans-serif" font-size="10px" fill="#000" opacity="1">…12 entries</text></g></g><path class="foreground" aria-hidden="true" d="" pointer-events="none" display="none"/></g></g></g><path class="foreground" aria-hidden="true" d="" pointer-events="none" display="none"/></g></g><g class="mark-text role-legend-title" pointer-events="none"><text text-anchor="start" transform="translate(0,9)" font-family="sans-serif" font-size="11px" font-weight="bold" fill="#000" opacity="1">Repository</text></g></g><path class="foreground" aria-hidden="true" d="" pointer-events="none" display="none"/></g></g><g class="mark-group role-title"><g transform="translate(400,-22)"><path class="background" aria-hidden="true" d="M0,0h0v0h0Z" pointer-events="none"/><g><g class="mark-text role-title-text" role="graphics-symbol" aria-roledescription="title" aria-label="Title text 'Unique Clones per Day'" pointer-events="none"><text text-anchor="middle" transform="translate(0,10)" font-family="sans-serif" font-size="13px" font-weight="bold" fill="#000" opacity="1">Unique Clones per Day</text></g></g><path class="foreground" aria-hidden="true" d="" pointer-events="none" display="none"/></g></g></g><path class="foreground" aria-hidden="true" d="" display="none"/></g></g></g></svg>