<svg xmlns="http://www.w3.org/2000/svg" xmlns:xlink="http://www.w3.org/1999/xlink" version="1.1" class="marks" width="1043" height="436" viewBox="0 0 1043 436"><rect width="1043" height="436" fill="white"/><g fill="none" stroke-miterlimit="10" transform="translate(44,27)"><g class="mark-group role-frame root" role="graphics-object" aria-roledescription="group mark container"><g transform="translate(0,0)"><path class="background" aria-hidden="true" d="M0.5,0.5h800v300h-800Z" stroke="#ddd"/><g><g class="mark-group role-axis" aria-hidden="true"><g transform="translate(0.5,300.5)"><path class="background" aria-hidden="true" d="M0,0h0v0h0Z" pointer-events="none"/><g><g class="mark-rule role-axis-grid" pointer-events="none"><line transform="translate(28,-300)" x2="0" y2="300" stroke="#ddd" stroke-width="1" opacity="1"/><line transform="translate(83,-300)" x2="0" y2="300" stroke="#ddd" stroke-width="1" opacity="1"/><line transform="translate(138,-300)" x2="0" y2="300" stroke="#ddd" stroke-width="1" opacity="1"/><line transform="translate(193,-300)" x2="0" y2="300" stroke="#ddd" stroke-width="1" opacity="1"/><line transform="translate(248,-300)" x2="0" y2="300" stroke="#ddd" stroke-width="1" opacity="1"/><line transform="translate(303,-300)" x2="0" y2="300" stroke="#ddd" stroke-width="1" opacity="1"/><line transform="translate(359,-300)" x2="0" y2="300" stroke="#ddd" stroke-width="1" opacity="1"/><line transform="translate(414,-300)" x2="0" y2="300" stroke="#ddd" stroke-width="1" opacity="1"/><line transform="translate(441,-300)" x2="0" y2="300" stroke="#ddd" stroke-width="1" opacity="1"/><line transform="translate(497,-300)" x2="0" y2="300" stroke="#ddd" stroke-width="1" opacity="1"/><line transform="translate(552,-300)" x2="0" y2="300" stroke="#ddd" stroke-width="1" opacity="1"/><line transform="translate(607,-300)" x2="0" y2="300" stroke="#ddd" stroke-width="1" opacity="1"/><line transform="translate(662,-300)" x2="0" y2="300" stroke="#ddd" stroke-width="1" opacity="1"/><line transform="translate(717,-300)" x2="0" y2="300" stroke="#ddd" stroke-width="1" opacity="1"/><line transform="translate(772,-300)" x2="0" y2="300" stroke="#ddd" stroke-width="1" opacity="1"/></g></g><path class="foreground" aria-hidden="true" d="" pointer-events="none" display="none"/></g></g><g class="mark-group role-axis" aria-hidden="true"><g transform="translate(0.5,0.5)"><path class="background" aria-hidden="true" d="M0,0h0v0h0Z" pointer-events="none"/><g><g class="mark-rule role-axis-grid" pointer-events="none"><line transform="translate(0,300)" x2="800" y2="0" stroke="#ddd" stroke-width="1" opacity="1"/><line transform="translate(0,270)" x2="800" y2="0" stroke="#ddd" stroke-width="1" opacity="1"/><line transform="translate(0,240)" x2="800" y2="0" stroke="#ddd" stroke-width="1" opacity="1"/><line transform="translate(0,210)" x2="800" y2="0" stroke="#ddd" stroke-width="1" opacity="1"/><line transform="translate(0,180)" x2="800" y2="0" stroke="#ddd" stroke-width="1" opacity="1"/><line transform="translate(0,150)" x2="800" y2="0" stroke="#ddd" stroke-width="1" opacity="1"/><line transform="translate(0,120)" x2="800" y2="0" stroke="#ddd" stroke-width="1" opacity="1"/><line transform="translate(0,90)" x2="800" y2="0" stroke="#ddd" stroke-width="1" opacity="1"/><line transform="translate(0,60)" x2="800" y2="0" stroke="#ddd" stroke-width="1" opacity="1"/><line transform="translate(0,30)" x2="800" y2="0" stroke="#ddd" stroke-width="1" opacity="1"/><line transform="translate(0,0)" x2="800" y2="0" stroke="#ddd" stroke-width="1" opacity="1"/></g></g><path class="foreground" aria-hidden="true" d="" pointer-events="none" display="none"/></g></g><g class="mark-group role-axis" role="graphics-symbol" aria-roledescription="axis" aria-label="X-axis titled 'Date' for a time scale with values from Monday, 16 March 2026, 12:00:00 AM to Tuesday, 14 April 2026, 12:00:00 AM"><g transform="translate(0.5,300.5)"><path class="background" aria-hidden="true" d="M0,0h0v0h0Z" pointer-events="none"/><g><g class="mark-rule role-axis-tick" pointer-events="none"><line transform="translate(28,0)" x2="0" y2="5" stroke="#888" stroke-width="1" opacity="1"/><line transform="translate(83,0)" x2="0" y2="5" stroke="#888" stroke-width="1" opacity="1"/><line transform="translate(138,0)" x2="0" y2="5" stroke="#888" stroke-width="1" opacity="1"/><line transform="translate(193,0)" x2="0" y2="5" stroke="#888" stroke-width="1" opacity="1"/><line transform="translate(248,0)" x2="0" y2="5" stroke="#888" stroke-width="1" opacity="1"/><line transform="translate(303,0)" x2="0" y2="5" stroke="#888" stroke-width="1" opacity="1"/><line transform="translate(359,0)" x2="0" y2="5" stroke="#888" stroke-width="1" opacity="1"/><line transform="translate(414,0)" x2="0" y2="5" stroke="#888" stroke-width="1" opacity="1"/><line transform="translate(441,0)" x2="0" y2="5" stroke="#888" stroke-width="1" opacity="1"/><line transform="translate(497,0)" x2="0" y2="5" stroke="#888" stroke-width="1" opacity="1"/><line transform="translate(552,0)" x2="0" y2="5" stroke="#888" stroke-width="1" opacity="1"/><line transform="translate(607,0)" x2="0" y2="5" stroke="#888" stroke-width="1" opacity="1"/><line transform="translate(662,0)" x2="0" y2="5" stroke="#888" stroke-width="1" opacity="1"/><line transform="translate(717,0)" x2="0" y2="5" stroke="#888" stroke-width="1" opacity="1"/><line transform="translate(772,0)" x2="0" y2="5" stroke="#888" stroke-width="1" opacity="1"/></g><g class="mark-text role-axis-label" pointer-events="none"><text text-anchor="middle" transform="translate(27.586206896551722,15)" font-family="sans-serif" font-size="10px" fill="#000" opacity="1">Tue 17</text><text text-anchor="middle" transform="translate(82.75862068965517,15)" font-family="sans-serif" font-size="10px" fill="#000" opacity="1">Thu 19</text><text text-anchor="middle" transform="translate(137.93103448275863,15)" font-family="sans-serif" font-size="10px" fill="#000" opacity="1">Sat 21</text><text text-anchor="middle" transform="translate(193.10344827586206,15)" font-family="sans-serif" font-size="10px" fill="#000" opacity="1">Mon 23</text><text text-anchor="middle" transform="translate(248.27586206896552,15)" font-family="sans-serif" font-size="10px" fill="#000" opacity="1">Wed 25</text><text text-anchor="middle" transform="translate(303.44827586206895,15)" font-family="sans-serif" font-size="10px" fill="#000" opacity="1">Fri 27</text><text text-anchor="middle" transform="translate(358.62068965517244,15)" font-family="sans-serif" font-size="10px" fill="#000" opacity="1">Mar 29</text><text text-anchor="middle" transform="translate(413.7931034482759,15)" font-family="sans-serif" font-size="10px" fill="#000" opacity="1">Tue 31</text><text text-anchor="middle" transform="translate(441.37931034482756,15)" font-family="sans-serif" font-size="10px" fill="#000" opacity="1">April</text><text text-anchor="middle" transform="translate(496.55172413793105,15)" font-family="sans-serif" font-size="10px" fill="#000" opacity="1">Fri 03</text><text text-anchor="middle" transform="translate(551.7241379310345,15)" font-family="sans-serif" font-size="10px" fill="#000" opacity="1">Apr 05</text><text text-anchor="middle" transform="translate(606.8965517241379,15)" font-family="sans-serif" font-size="10px" fill="#000" opacity="1">Tue 07</text><text text-anchor="middle" transform="translate(662.0689655172414,15)" font-family="sans-serif" font-size="10px" fill="#000" opacity="1">Thu 09</text><text text-anchor="middle" transform="translate(717.2413793103449,15)" font-family="sans-serif" font-size="10px" fill="#000" opacity="1">Sat 11</text><text text-anchor="middle" transform="translate(772.4137931034483,15)" font-family="sans-serif" font-size="10px" fill="#000" opacity="1">Mon 13</text></g><g class="mark-rule role-axis-domain" pointer-events="none"><line transform="translate(0,0)" x2="800" y2="0" stroke="#888" stroke-width="1" opacity="1"/></g><g class="mark-text role-axis-title" pointer-events="none"><text text-anchor="middle" transform="translate(400,30)" font-family="sans-serif" font-size="11px" font-weight="bold" fill="#000" opacity="1">Date</text></g></g><path class="foreground" aria-hidden="true" d="" pointer-events="none" display="none"/></g></g><g class="mark-group role-axis" role="graphics-symbol" aria-roledescription="axis" aria-label="Y-axis titled 'Unique Clones/day' for a linear scale with values from 0 to 100"><g transform="translate(0.5,0.5)"><path class="background" aria-hidden="true" d="M0,0h0v0h0Z" pointer-events="none"/><g><g class="mark-rule role-axis-tick" pointer-events="none"><line transform="translate(0,300)" x2="-5" y2="0" stroke="#888" stroke-width="1" opacity="1"/><line transform="translate(0,270)" x2="-5" y2="0" stroke="#888" stroke-width="1" opacity="1"/><line transform="translate(0,240)" x2="-5" y2="0" stroke="#888" stroke-width="1" opacity="1"/><line transform="translate(0,210)" x2="-5" y2="0" stroke="#888" stroke-width="1" opacity="1"/><line transform="translate(0,180)" x2="-5" y2="0" stroke="#888" stroke-width="1" opacity="1"/><line transform="translate(0,150)" x2="-5" y2="0" stroke="#888" stroke-width="1" opacity="1"/><line transform="translate(0,120)" x2="-5" y2="0" stroke="#888" stroke-width="1" opacity="1"/><line transform="translate(0,90)" x2="-5" y2="0" stroke="#888" stroke-width="1" opacity="1"/><line transform="translate(0,60)" x2="-5" y2="0" stroke="#888" stroke-width="1" opacity="1"/><line transform="translate(0,30)" x2="-5" y2="0" stroke="#888" stroke-width="1" opacity="1"/><line transform="translate(0,0)" x2="-5" y2="0" stroke="#888" stroke-width="1" opacity="1"/></g><g class="mark-text role-axis-label" pointer-events="none"><text text-anchor="end" transform="translate(-7,303)" font-family="sans-serif" font-size="10px" fill="#000" opacity="1">0</text><text text-anchor="end" transform="translate(-7,273)" font-family="sans-serif" font-size="10px" fill="#000" opacity="1">10</text><text text-anchor="end" transform="translate(-7,243)" font-family="sans-serif" font-size="10px" fill="#000" opacity="1">20</text><text text-anchor="end" transform="translate(-7,213)" font-family="sans-serif" font-size="10px" fill="#000" opacity="1">30</text><text text-anchor="end" transform="translate(-7,183)" font-family="sans-serif" font-size="10px" fill="#000" opacity="1">40</text><text text-anchor="end" transform="translate(-7,153)" font-family="sans-serif" font-size="10px" fill="#000" opacity="1">50</text><text text-anchor="end" transform="translate(-7,123)" font-family="sans-serif" font-size="10px" fill="#000" opacity="1">60</text><text text-anchor="end" transform="translate(-7,93.00000000000001)" font-family="sans-serif" font-size="10px" fill="#000" opacity="1">70</text><text text-anchor="end" transform="translate(-7,62.999999999999986)" font-family="sans-serif" font-size="10px" fill="#000" opacity="1">80</text><text text-anchor="end" transform="translate(-7,32.99999999999999)" font-family="sans-serif" font-size="10px" fill="#000" opacity="1">90</text><text text-anchor="end" transform="translate(-7,3)" font-family="sans-serif" font-size="10px" fill="#000" opacity="1">100</text></g><g class="mark-rule role-axis-domain" pointer-events="none"><line transform="translate(0,300)" x2="0" y2="-300" stroke="#888" stroke-width="1" opacity="1"/></g><g class="mark-text role-axis-title" pointer-events="none"><text text-anchor="middle" transform="translate(-27.6845703125,150) rotate(-90) translate(0,-2)" font-family="sans-serif" font-size="11px" font-weight="bold" fill="#000" opacity="1">Unique Clones/day</text></g></g><path class="foreground" aria-hidden="true" d="" pointer-events="none" display="none"/></g></g><g class="mark-group role-scope pathgroup" role="graphics-object" aria-roledescription="group mark container"><g transform="translate(0,0)"><path class="background" aria-hidden="true" d="M0,0h800v300h-800Z"/><g><g class="mark-area role-mark marks" role="graphics-object" aria-roledescription="area mark container"><path aria-label="Date: Mar 16, 2026; Unique Clones/day: 0; Repository: karlmdavis/FHIR-Server" role="graphics-symbol" aria-roledescription="area mark" d="M0,297L27.586,300L55.172,300L82.759,297L110.345,300L137.931,300L165.517,300L193.103,264L220.69,294L248.276,279L275.862,252L303.448,93L331.034,162L358.621,12L386.207,201L413.793,231L441.379,246L468.966,270L496.552,213L524.138,36L551.724,57L579.31,261L606.897,210L634.483,213L662.069,177L689.655,264L717.241,222L744.828,192L772.414,33L800,273L800,273L772.414,33L744.828,195L717.241,228L689.655,264L662.069,177L634.483,213L606.897,210L579.31,261L551.724,57L524.138,36L496.552,213L468.966,270L441.379,246L413.793,234L386.207,201L358.621,12L331.034,162L303.448,93L275.862,252L248.276,279L220.69,294L193.103,264L165.517,300L137.931,300L110.345,300L82.759,297L55.172,300L27.586,300L0,297Z" fill="#4c78a8"/></g></g><path class="foreground" aria-hidden="true" d="" display="none"/></g><g transform="translate(0,0)"><path class="background" aria-hidden="true" d="M0,0h800v300h-800Z"/><g><g class="mark-area role-mark marks" role="graphics-object" aria-roledescription="area mark container"><path aria-label="Date: Mar 16, 2026; Unique Clones/day: 1; Repository: karlmdavis/ansible" role="graphics-symbol" aria-roledescription="area mark" d="M0,297L27.586,300L55.172,300L82.759,297L110.345,300L137.931,300L165.517,300L193.103,264L220.69,294L248.276,279L275.862,252L303.448,93L331.034,162L358.621,12L386.207,201L413.793,234L441.379,246L468.966,270L496.552,213L524.138,36L551.724,57L579.31,261L606.897,210L634.483,213L662.069,177L689.655,264L717.241,228L744.828,195L772.414,33L800,273L800,276L772.414,33L744.828,195L717.241,228L689.655,264L662.069,177L634.483,213L606.897,210L579.31,261L551.724,57L524.138,36L496.552,213L468.966,270L441.379,246L413.793,234L386.207,201L358.621,12L331.034,162L303.448,93L275.862,252L248.276,279L220.69,294L193.103,264L165.517,300L137.931,300L110.345,300L82.759,297L55.172,300L27.586,300L0,300Z" fill="#f58518"/></g></g><path class="foreground" aria-hidden="true" d="" display="none"/></g><g transform="translate(0,0)"><path class="background" aria-hidden="true" d="M0,0h800v300h-800Z"/><g><g class="mark-area role-mark marks" role="graphics-object" aria-roledescription="area mark container"><path aria-label="Date: Mar 16, 2026; Unique Clones/day: 0; Repository: karlmdavis/ansible-jenkins" role="graphics-symbol" aria-roledescription="area mark" d="M0,300L27.586,300L55.172,300L82.759,297L110.345,300L137.931,300L165.517,300L193.103,264L220.69,294L248.276,279L275.862,252L303.448,93L331.034,162L358.621,12L386.207,201L413.793,234L441.379,246L468.966,270L496.552,213L524.138,36L551.724,57L579.31,261L606.897,210L634.483,213L662.069,177L689.655,264L717.241,228L744.828,195L772.414,33L800,276L800,276L772.414,33L744.828,198L717.241,228L689.655,264L662.069,177L634.483,213L606.897,210L579.31,261L551.724,57L524.138,39L496.552,216L468.966,270L441.379,246L413.793,234L386.207,201L358.621,12L331.034,162L303.448,93L275.862,255L248.276,279L220.69,294L193.103,264L165.517,300L137.931,300L110.345,300L82.759,297L55.172,300L27.586,300L0,300Z" fill="#e45756"/></g></g><path class="foreground" aria-hidden="true" d="" display="none"/></g><g transform="translate(0,0)"><path class="background" aria-hidden="true" d="M0,0h800v300h-800Z"/><g><g class="mark-area role-mark marks" role="graphics-object" aria-roledescription="area mark container"><path aria-label="Date: Mar 16, 2026; Unique Clones/day: 0; Repository: karlmdavis/ansible-role-acmetool" role="graphics-symbol" aria-roledescription="area mark" d="M0,300L27.586,300L55.172,300L82.759,297L110.345,300L137.931,300L165.517,300L193.103,264L220.69,294L248.276,279L275.862,255L303.448,93L331.034,162L358.621,12L386.207,201L413.793,234L441.379,246L468.966,270L496.552,216L524.138,39L551.724,57L579.31,261L606.897,210L634.483,213L662.069,177L689.655,264L717.241,228L744.828,198L772.414,33L800,276L800,276L772.414,33L744.828,201L717.241,228L689.655,264L662.069,177L634.483,213L606.897,210L579.31,261L551.724,57L524.138,39L496.552,216L468.966,270L441.379,246L413.793,234L386.207,201L358.621,12L331.034,162L303.448,93L275.862,258L248.276,279L220.69,294L193.103,264L165.517,300L137.931,300L110.345,300L82.759,297L55.172,300L27.586,300L0,300Z" fill="#72b7b2"/></g></g><path class="foreground" aria-hidden="true" d="" display="none"/></g><g transform="translate(0,0)"><path class="background" aria-hidden="true" d="M0,0h800v300h-800Z"/><g><g class="mark-area role-mark marks" role="graphics-object" aria-roledescription="area mark container"><path aria-label="Date: Mar 16, 2026; Unique Clones/day: 0; Repository: karlmdavis/ansible-role-bind-dns" role="graphics-symbol" aria-roledescription="area mark" d="M0,300L27.586,300L55.172,300L82.759,297L110.345,300L137.931,300L165.517,300L193.103,264L220.69,294L248.276,279L275.862,258L303.448,93L331.034,162L358.621,12L386.207,201L413.793,234L441.379,246L468.966,270L496.552,216L524.138,39L551.724,57L579.31,261L606.897,210L634.483,213L662.069,177L689.655,264L717.241,228L744.828,201L772.414,33L800,276L800,276L772.414,45L744.828,204L717.241,228L689.655,264L662.069,180L634.483,216L606.897,210L579.31,261L551.724,57L524.138,42L496.552,216L468.966,270L441.379,255L413.793,234L386.207,204L358.621,15L331.034,162L303.448,99L275.862,258L248.276,279L220.69,294L193.103,264L165.517,300L137.931,300L110.345,300L82.759,297L55.172,300L27.586,300L0,300Z" fill="#54a24b"/></g></g><path class="foreground" aria-hidden="true" d="" display="none"/></g><g transform="translate(0,0)"><path class="background" aria-hidden="true" d="M0,0h800v300h-800Z"/><g><g class="mark-area role-mark marks" role="graphics-object" aria-roledescription="area mark container"><path aria-label="Date: Mar 16, 2026; Unique Clones/day: 0; Repository: karlmdavis/ansible-role-jenkins2" role="graphics-symbol" aria-roledescription="area mark" d="M0,300L27.586,300L55.172,300L82.759,297L110.345,300L137.931,300L165.517,300L193.103,264L220.69,294L248.276,279L275.862,258L303.448,99L331.034,162L358.621,15L386.207,204L413.793,234L441.379,255L468.966,270L496.552,216L524.138,42L551.724,57L579.31,261L606.897,210L634.483,216L662.069,180L689.655,264L717.241,228L744.828,204L772.414,45L800,276L800,276L772.414,60L744.828,204L717.241,231L689.655,270L662.069,195L634.483,216L606.897,210L579.31,261L551.724,60L524.138,48L496.552,219L468.966,273L441.379,258L413.793,237L386.207,204L358.621,15L331.034,165L303.448,102L275.862,261L248.276,282L220.69,297L193.103,264L165.517,300L137.931,300L110.345,300L82.759,297L55.172,300L27.586,300L0,300Z" fill="#eeca3b"/></g></g><path class="foreground" aria-hidden="true" d="" display="none"/></g><g transform="translate(0,0)"><path class="background" aria-hidden="true" d="M0,0h800v300h-800Z"/><g><g class="mark-area role-mark marks" role="graphics-object" aria-roledescription="area mark container"><path aria-label="Date: Mar 16, 2026; Unique Clones/day: 0; Repository: karlmdavis/ansible-role-ldap" role="graphics-symbol" aria-roledescription="area mark" d="M0,300L27.586,300L55.172,300L82.759,297L110.345,300L137.931,300L165.517,300L193.103,264L220.69,297L248.276,282L275.862,261L303.448,102L331.034,165L358.621,15L386.207,204L413.793,237L441.379,258L468.966,273L496.552,219L524.138,48L551.724,60L579.31,261L606.897,210L634.483,216L662.069,195L689.655,270L717.241,231L744.828,204L772.414,60L800,276L800,276L772.414,63L744.828,204L717.241,231L689.655,270L662.069,195L634.483,216L606.897,210L579.31,261L551.724,60L524.138,48L496.552,219L468.966,273L441.379,258L413.793,240L386.207,204L358.621,15L331.034,165L303.448,102L275.862,261L248.276,282L220.69,297L193.103,264L165.517,300L137.931,300L110.345,300L82.759,297L55.172,300L27.586,300L0,300Z" fill="#b279a2"/></g></g><path class="foreground" aria-hidden="true" d="" display="none"/></g><g transform="translate(0,0)"><path class="background" aria-hidden="true" d="M0,0h800v300h-800Z"/><g><g class="mark-area role-mark marks" role="graphics-object" aria-roledescription="area mark container"><path aria-label="Date: Mar 16, 2026; Unique Clones/day: 0; Repository: karlmdavis/ansible-role-rcm-dotfiles" role="graphics-symbol" aria-roledescription="area mark" d="M0,300L27.586,300L55.172,300L82.759,297L110.345,300L137.931,300L165.517,300L193.103,264L220.69,297L248.276,282L275.862,261L303.448,102L331.034,165L358.621,15L386.207,204L413.793,240L441.379,258L468.966,273L496.552,219L524.138,48L551.724,60L579.31,261L606.897,210L634.483,216L662.069,195L689.655,270L717.241,231L744.828,204L772.414,63L800,276L800,276L772.414,72L744.828,207L717.241,231L689.655,270L662.069,198L634.483,216L606.897,210L579.31,261L551.724,60L524.138,51L496.552,219L468.966,273L441.379,258L413.793,240L386.207,207L358.621,18L331.034,165L303.448,108L275.862,261L248.276,282L220.69,297L193.103,264L165.517,300L137.931,300L110.345,300L82.759,297L55.172,300L27.586,300L0,300Z" fill="#ff9da6"/></g></g><path class="foreground" aria-hidden="true" d="" display="none"/></g><g transform="translate(0,0)"><path class="background" aria-hidden="true" d="M0,0h800v300h-800Z"/><g><g class="mark-area role-mark marks" role="graphics-object" aria-roledescription="area mark container"><path aria-label="Date: Mar 16, 2026; Unique Clones/day: 0; Repository: karlmdavis/ansible-roles" role="graphics-symbol" aria-roledescription="area mark" d="M0,300L27.586,300L55.172,300L82.759,297L110.345,300L137.931,300L165.517,300L193.103,264L220.69,297L248.276,282L275.862,261L303.448,108L331.034,165L358.621,18L386.207,207L413.793,240L441.379,258L468.966,273L496.552,219L524.138,51L551.724,60L579.31,261L606.897,210L634.483,216L662.069,198L689.655,270L717.241,231L744.828,207L772.414,72L800,276L800,276L772.414,72L744.828,207L717.241,234L689.655,270L662.069,198L634.483,216L606.897,210L579.31,261L551.724,60L524.138,51L496.552,219L468.966,273L441.379,258L413.793,240L386.207,210L358.621,18L331.034,165L303.448,108L275.862,264L248.276,282L220.69,297L193.103,264L165.517,300L137.931,300L110.345,300L82.759,297L55.172,300L27.586,300L0,300Z" fill="#9d755d"/></g></g><path class="foreground" aria-hidden="true" d="" display="none"/></g><g transform="translate(0,0)"><path class="background" aria-hidden="true" d="M0,0h800v300h-800Z"/><g><g class="mark-area role-mark marks" role="graphics-object" aria-roledescription="area mark container"><path aria-label="Date: Mar 16, 2026; Unique Clones/day: 0; Repository: karlmdavis/bbonfhir-dev-infra-docker" role="graphics-symbol" aria-roledescription="area mark" d="M0,300L27.586,300L55.172,300L82.759,297L110.345,300L137.931,300L165.517,300L193.103,264L220.69,297L248.276,282L275.862,264L303.448,108L331.034,165L358.621,18L386.207,210L413.793,240L441.379,258L468.966,273L496.552,219L524.138,51L551.724,60L579.31,261L606.897,210L634.483,216L662.069,198L689.655,270L717.241,234L744.828,207L772.414,72L800,276L800,276L772.414,81L744.828,210L717.241,234L689.655,270L662.069,201L634.483,216L606.897,210L579.31,261L551.724,60L524.138,54L496.552,219L468.966,273L441.379,258L413.793,240L386.207,213L358.621,18L331.034,165L303.448,111L275.862,264L248.276,285L220.69,297L193.103,264L165.517,300L137.931,300L110.345,300L82.759,297L55.172,300L27.586,300L0,300Z" fill="#bab0ac"/></g></g><path class="foreground" aria-hidden="true" d="" display="none"/></g><g transform="translate(0,0)"><path class="background" aria-hidden="true" d="M0,0h800v300h-800Z"/><g><g class="mark-area role-mark marks" role="graphics-object" aria-roledescription="area mark container"><path aria-label="Date: Mar 16, 2026; Unique Clones/day: 0; Repository: karlmdavis/can-i-kayak-baltimore" role="graphics-symbol" aria-roledescription="area mark" d="M0,300L27.586,300L55.172,300L82.759,297L110.345,300L137.931,300L165.517,300L193.103,264L220.69,297L248.276,285L275.862,264L303.448,111L331.034,165L358.621,18L386.207,213L413.793,240L441.379,258L468.966,273L496.552,219L524.138,54L551.724,60L579.31,261L606.897,210L634.483,216L662.069,201L689.655,270L717.241,234L744.828,210L772.414,81L800,276L800,276L772.414,87L744.828,213L717.241,234L689.655,270L662.069,204L634.483,216L606.897,210L579.31,261L551.724,60L524.138,57L496.552,219L468.966,273L441.379,261L413.793,240L386.207,213L358.621,18L331.034,165L303.448,120L275.862,264L248.276,285L220.69,297L193.103,264L165.517,300L137.931,300L110.345,300L82.759,297L55.172,300L27.586,300L0,300Z" fill="#4c78a8"/></g></g><path class="foreground" aria-hidden="true" d="" display="none"/></g><g transform="translate(0,0)"><path class="background" aria-hidden="true" d="M0,0h800v300h-800Z"/><g><g class="mark-area role-mark marks" role="graphics-object" aria-roledescription="area mark container"><path aria-label="Date: Mar 16, 2026; Unique Clones/day: 0; Repository: karlmdavis/datanucleus-test-jdo-1-to-n" role="graphics-symbol" aria-roledescription="area mark" d="M0,300L27.586,300L55.172,300L82.759,297L110.345,300L137.931,300L165.517,300L193.103,264L220.69,297L248.276,285L275.862,264L303.448,120L331.034,165L358.621,18L386.207,213L413.793,240L441.379,261L468.966,273L496.552,219L524.138,57L551.724,60L579.31,261L606.897,210L634.483,216L662.069,204L689.655,270L717.241,234L744.828,213L772.414,87L800,276L800,276L772.414,87L744.828,213L717.241,234L689.655,270L662.069,204L634.483,216L606.897,210L579.31,261L551.724,60L524.138,57L496.552,219L468.966,273L441.379,261L413.793,240L386.207,213L358.621,18L331.034,168L303.448,120L275.862,264L248.276,285L220.69,297L193.103,264L165.517,300L137.931,300L110.345,300L82.759,297L55.172,300L27.586,300L0,300Z" fill="#f58518"/></g></g><path class="foreground" aria-hidden="true" d="" display="none"/></g><g transform="translate(0,0)"><path class="background" aria-hidden="true" d="M0,0h800v300h-800Z"/><g><g class="mark-area role-mark marks" role="graphics-object" aria-roledescription="area mark container"><path aria-label="Date: Mar 16, 2026; Unique Clones/day: 0; Repository: karlmdavis/dotfiles" role="graphics-symbol" aria-roledescription="area mark" d="M0,300L27.586,300L55.172,300L82.759,297L110.345,300L137.931,300L165.517,300L193.103,264L220.69,297L248.276,285L275.862,264L303.448,120L331.034,168L358.621,18L386.207,213L413.793,240L441.379,261L468.966,273L496.552,219L524.138,57L551.724,60L579.31,261L606.897,210L634.483,216L662.069,204L689.655,270L717.241,234L744.828,213L772.414,87L800,276L800,276L772.414,102L744.828,213L717.241,240L689.655,270L662.069,207L634.483,219L606.897,210L579.31,261L551.724,63L524.138,60L496.552,219L468.966,276L441.379,264L413.793,243L386.207,213L358.621,18L331.034,168L303.448,126L275.862,264L248.276,285L220.69,297L193.103,267L165.517,300L137.931,300L110.345,300L82.759,297L55.172,300L27.586,300L0,300Z" fill="#e45756"/></g></g><path class="foreground" aria-hidden="true" d="" display="none"/></g><g transform="translate(0,0)"><path class="background" aria-hidden="true" d="M0,0h800v300h-800Z"/><g><g class="mark-area role-mark marks" role="graphics-object" aria-roledescription="area mark container"><path aria-label="Date: Mar 16, 2026; Unique Clones/day: 0; Repository: karlmdavis/fhir-benchmarks" role="graphics-symbol" aria-roledescription="area mark" d="M0,300L27.586,300L55.172,300L82.759,297L110.345,300L137.931,300L165.517,300L193.103,267L220.69,297L248.276,285L275.862,264L303.448,126L331.034,168L358.621,18L386.207,213L413.793,243L441.379,264L468.966,276L496.552,219L524.138,60L551.724,63L579.31,261L606.897,210L634.483,219L662.069,207L689.655,270L717.241,240L744.828,213L772.414,102L800,276L800,285L772.414,117L744.828,213L717.241,246L689.655,270L662.069,213L634.483,240L606.897,213L579.31,261L551.724,66L524.138,63L496.552,222L468.966,276L441.379,267L413.793,249L386.207,216L358.621,21L331.034,168L303.448,132L275.862,264L248.276,288L220.69,297L193.103,270L165.517,300L137.931,300L110.345,300L82.759,297L55.172,300L27.586,300L0,300Z" fill="#72b7b2"/></g></g><path class="foreground" aria-hidden="true" d="" display="none"/></g><g transform="translate(0,0)"><path class="background" aria-hidden="true" d="M0,0h800v300h-800Z"/><g><g class="mark-area role-mark marks" role="graphics-object" aria-roledescription="area mark container"><path aria-label="Date: Mar 16, 2026; Unique Clones/day: 0; Repository: karlmdavis/hapi-fhir-jpaserver-starter" role="graphics-symbol" aria-roledescription="area mark" d="M0,300L27.586,300L55.172,300L82.759,297L110.345,300L137.931,300L165.517,300L193.103,270L220.69,297L248.276,288L275.862,264L303.448,132L331.034,168L358.621,21L386.207,216L413.793,249L441.379,267L468.966,276L496.552,222L524.138,63L551.724,66L579.31,261L606.897,213L634.483,240L662.069,213L689.655,270L717.241,246L744.828,213L772.414,117L800,285L800,285L772.414,120L744.828,213L717.241,246L689.655,270L662.069,213L634.483,240L606.897,213L579.31,261L551.724,66L524.138,63L496.552,225L468.966,279L441.379,267L413.793,249L386.207,216L358.621,21L331.034,168L303.448,132L275.862,267L248.276,288L220.69,297L193.103,270L165.517,300L137.931,300L110.345,300L82.759,297L55.172,300L27.586,300L0,300Z" fill="#54a24b"/></g></g><path class="foreground" aria-hidden="true" d="" display="none"/></g><g transform="translate(0,0)"><path class="background" aria-hidden="true" d="M0,0h800v300h-800Z"/><g><g class="mark-area role-mark marks" role="graphics-object" aria-roledescription="area mark container"><path aria-label="Date: Mar 16, 2026; Unique Clones/day: 0; Repository: karlmdavis/hello-rust-actix" role="graphics-symbol" aria-roledescription="area mark" d="M0,300L27.586,300L55.172,300L82.759,297L110.345,300L137.931,300L165.517,300L193.103,270L220.69,297L248.276,288L275.862,267L303.448,132L331.034,168L358.621,21L386.207,216L413.793,249L441.379,267L468.966,279L496.552,225L524.138,63L551.724,66L579.31,261L606.897,213L634.483,240L662.069,213L689.655,270L717.241,246L744.828,213L772.414,120L800,285L800,285L772.414,126L744.828,216L717.241,246L689.655,270L662.069,216L634.483,240L606.897,213L579.31,261L551.724,66L524.138,66L496.552,225L468.966,279L441.379,267L413.793,252L386.207,216L358.621,21L331.034,168L303.448,135L275.862,267L248.276,288L220.69,297L193.103,270L165.517,300L137.931,300L110.345,300L82.759,297L55.172,300L27.586,300L0,300Z" fill="#eeca3b"/></g></g><path class="foreground" aria-hidden="true" d="" display="none"/></g><g transform="translate(0,0)"><path class="background" aria-hidden="true" d="M0,0h800v300h-800Z"/><g><g class="mark-area role-mark marks" role="graphics-object" aria-roledescription="area mark container"><path aria-label="Date: Mar 16, 2026; Unique Clones/day: 0; Repository: karlmdavis/jessentials" role="graphics-symbol" aria-roledescription="area mark" d="M0,300L27.586,300L55.172,300L82.759,297L110.345,300L137.931,300L165.517,300L193.103,270L220.69,297L248.276,288L275.862,267L303.448,135L331.034,168L358.621,21L386.207,216L413.793,252L441.379,267L468.966,279L496.552,225L524.138,66L551.724,66L579.31,261L606.897,213L634.483,240L662.069,216L689.655,270L717.241,246L744.828,216L772.414,126L800,285L800,285L772.414,132L744.828,216L717.241,249L689.655,270L662.069,222L634.483,264L606.897,213L579.31,261L551.724,66L524.138,69L496.552,225L468.966,279L441.379,267L413.793,252L386.207,219L358.621,21L331.034,168L303.448,138L275.862,267L248.276,288L220.69,297L193.103,273L165.517,300L137.931,300L110.345,300L82.759,297L55.172,300L27.586,300L0,300Z" fill="#b279a2"/></g></g><path class="foreground" aria-hidden="true" d="" display="none"/></g><g transform="translate(0,0)"><path class="background" aria-hidden="true" d="M0,0h800v300h-800Z"/><g><g class="mark-area role-mark marks" role="graphics-object" aria-roledescription="area mark container"><path aria-label="Date: Mar 16, 2026; Unique Clones/day: 0; Repository: karlmdavis/justdavis-ansible" role="graphics-symbol" aria-roledescription="area mark" d="M0,300L27.586,300L55.172,300L82.759,297L110.345,300L137.931,300L165.517,300L193.103,273L220.69,297L248.276,288L275.862,267L303.448,138L331.034,168L358.621,21L386.207,219L413.793,252L441.379,267L468.966,279L496.552,225L524.138,69L551.724,66L579.31,261L606.897,213L634.483,264L662.069,222L689.655,270L717.241,249L744.828,216L772.414,132L800,285L800,285L772.414,141L744.828,228L717.241,249L689.655,273L662.069,225L634.483,264L606.897,213L579.31,261L551.724,66L524.138,72L496.552,225L468.966,279L441.379,270L413.793,252L386.207,219L358.621,21L331.034,171L303.448,141L275.862,267L248.276,291L220.69,297L193.103,273L165.517,300L137.931,300L110.345,300L82.759,297L55.172,300L27.586,300L0,300Z" fill="#ff9da6"/></g></g><path class="foreground" aria-hidden="true" d="" display="none"/></g><g transform="translate(0,0)"><path class="background" aria-hidden="true" d="M0,0h800v300h-800Z"/><g><g class="mark-area role-mark marks" role="graphics-object" aria-roledescription="area mark container"><path aria-label="Date: Mar 16, 2026; Unique Clones/day: 0; Repository: karlmdavis/justdavis-finances" role="graphics-symbol" aria-roledescription="area mark" d="M0,300L27.586,300L55.172,300L82.759,297L110.345,300L137.931,300L165.517,300L193.103,273L220.69,297L248.276,291L275.862,267L303.448,141L331.034,171L358.621,21L386.207,219L413.793,252L441.379,270L468.966,279L496.552,225L524.138,72L551.724,66L579.31,261L606.897,213L634.483,264L662.069,225L689.655,273L717.241,249L744.828,228L772.414,141L800,285L800,291L772.414,186L744.828,279L717.241,255L689.655,273L662.069,228L634.483,267L606.897,264L579.31,285L551.724,291L524.138,243L496.552,285L468.966,282L441.379,273L413.793,255L386.207,264L358.621,276L331.034,282L303.448,234L275.862,270L248.276,294L220.69,297L193.103,273L165.517,300L137.931,300L110.345,300L82.759,297L55.172,300L27.586,300L0,300Z" fill="#9d755d"/></g></g><path class="foreground" aria-hidden="true" d="" display="none"/></g><g transform="translate(0,0)"><path class="background" aria-hidden="true" d="M0,0h800v300h-800Z"/><g><g class="mark-area role-mark marks" role="graphics-object" aria-roledescription="area mark container"><path aria-label="Date: Mar 16, 2026; Unique Clones/day: 0; Repository: karlmdavis/justdavis-karl" role="graphics-symbol" aria-roledescription="area mark" d="M0,300L27.586,300L55.172,300L82.759,297L110.345,300L137.931,300L165.517,300L193.103,273L220.69,297L248.276,294L275.862,270L303.448,234L331.034,282L358.621,276L386.207,264L413.793,255L441.379,273L468.966,282L496.552,285L524.138,243L551.724,291L579.31,285L606.897,264L634.483,267L662.069,228L689.655,273L717.241,255L744.828,279L772.414,186L800,291L800,291L772.414,195L744.828,282L717.241,258L689.655,273L662.069,234L634.483,267L606.897,264L579.31,288L551.724,291L524.138,246L496.552,285L468.966,285L441.379,273L413.793,258L386.207,267L358.621,276L331.034,285L303.448,237L275.862,270L248.276,294L220.69,297L193.103,276L165.517,300L137.931,300L110.345,300L82.759,297L55.172,300L27.586,300L0,300Z" fill="#bab0ac"/></g></g><path class="foreground" aria-hidden="true" d="" display="none"/></g><g transform="translate(0,0)"><path class="background" aria-hidden="true" d="M0,0h800v300h-800Z"/><g><g class="mark-area role-mark marks" role="graphics-object" aria-roledescription="area mark container"><path aria-label="Date: Mar 16, 2026; Unique Clones/day: 0; Repository: karlmdavis/justdavis-puppet" role="graphics-symbol" aria-roledescription="area mark" d="M0,300L27.586,300L55.172,300L82.759,297L110.345,300L137.931,300L165.517,300L193.103,276L220.69,297L248.276,294L275.862,270L303.448,237L331.034,285L358.621,276L386.207,267L413.793,258L441.379,273L468.966,285L496.552,285L524.138,246L551.724,291L579.31,288L606.897,264L634.483,267L662.069,234L689.655,273L717.241,258L744.828,282L772.414,195L800,291L800,291L772.414,201L744.828,285L717.241,261L689.655,273L662.069,237L634.483,270L606.897,264L579.31,288L551.724,291L524.138,249L496.552,285L468.966,285L441.379,273L413.793,264L386.207,270L358.621,276L331.034,285L303.448,240L275.862,270L248.276,294L220.69,297L193.103,276L165.517,300L137.931,300L110.345,300L82.759,297L55.172,300L27.586,300L0,300Z" fill="#4c78a8"/></g></g><path class="foreground" aria-hidden="true" d="" display="none"/></g><g transform="translate(0,0)"><path class="background" aria-hidden="true" d="M0,0h800v300h-800Z"/><g><g class="mark-area role-mark marks" role="graphics-object" aria-roledescription="area mark container"><path aria-label="Date: Mar 16, 2026; Unique Clones/day: 0; Repository: karlmdavis/kobjects" role="graphics-symbol" aria-roledescription="area mark" d="M0,300L27.586,300L55.172,300L82.759,297L110.345,300L137.931,300L165.517,300L193.103,276L220.69,297L248.276,294L275.862,270L303.448,240L331.034,285L358.621,276L386.207,270L413.793,264L441.379,273L468.966,285L496.552,285L524.138,249L551.724,291L579.31,288L606.897,264L634.483,270L662.069,237L689.655,273L717.241,261L744.828,285L772.414,201L800,291L800,291L772.414,207L744.828,285L717.241,264L689.655,273L662.069,243L634.483,270L606.897,264L579.31,288L551.724,291L524.138,252L496.552,285L468.966,285L441.379,273L413.793,264L386.207,270L358.621,276L331.034,285L303.448,243L275.862,273L248.276,294L220.69,297L193.103,276L165.517,300L137.931,300L110.345,300L82.759,297L55.172,300L27.586,300L0,300Z" fill="#f58518"/></g></g><path class="foreground" aria-hidden="true" d="" display="none"/></g><g transform="translate(0,0)"><path class="background" aria-hidden="true" d="M0,0h800v300h-800Z"/><g><g class="mark-area role-mark marks" role="graphics-object" aria-roledescription="area mark container"><path aria-label="Date: Mar 16, 2026; Unique Clones/day: 0; Repository: karlmdavis/ksoap2-android" role="graphics-symbol" aria-roledescription="area mark" d="M0,300L27.586,300L55.172,300L82.759,297L110.345,300L137.931,300L165.517,300L193.103,276L220.69,297L248.276,294L275.862,273L303.448,243L331.034,285L358.621,276L386.207,270L413.793,264L441.379,273L468.966,285L496.552,285L524.138,252L551.724,291L579.31,288L606.897,264L634.483,270L662.069,243L689.655,273L717.241,264L744.828,285L772.414,207L800,291L800,291L772.414,213L744.828,285L717.241,267L689.655,282L662.069,246L634.483,288L606.897,279L579.31,291L551.724,291L524.138,261L496.552,285L468.966,288L441.379,276L413.793,267L386.207,282L358.621,282L331.034,285L303.448,246L275.862,282L248.276,294L220.69,297L193.103,279L165.517,300L137.931,300L110.345,300L82.759,297L55.172,300L27.586,300L0,300Z" fill="#e45756"/></g></g><path class="foreground" aria-hidden="true" d="" display="none"/></g><g transform="translate(0,0)"><path class="background" aria-hidden="true" d="M0,0h800v300h-800Z"/><g><g class="mark-area role-mark marks" role="graphics-object" aria-roledescription="area mark container"><path aria-label="Date: Mar 16, 2026; Unique Clones/day: 0; Repository: karlmdavis/kxml2" role="graphics-symbol" aria-roledescription="area mark" d="M0,300L27.586,300L55.172,300L82.759,297L110.345,300L137.931,300L165.517,300L193.103,279L220.69,297L248.276,294L275.862,282L303.448,246L331.034,285L358.621,282L386.207,282L413.793,267L441.379,276L468.966,288L496.552,285L524.138,261L551.724,291L579.31,291L606.897,279L634.483,288L662.069,246L689.655,282L717.241,267L744.828,285L772.414,213L800,291L800,294L772.414,222L744.828,285L717.241,267L689.655,282L662.069,249L634.483,288L606.897,282L579.31,294L551.724,294L524.138,264L496.552,285L468.966,288L441.379,276L413.793,270L386.207,291L358.621,285L331.034,285L303.448,252L275.862,285L248.276,294L220.69,297L193.103,282L165.517,300L137.931,300L110.345,300L82.759,297L55.172,300L27.586,300L0,300Z" fill="#72b7b2"/></g></g><path class="foreground" aria-hidden="true" d="" display="none"/></g><g transform="translate(0,0)"><path class="background" aria-hidden="true" d="M0,0h800v300h-800Z"/><g><g class="mark-area role-mark marks" role="graphics-object" aria-roledescription="area mark container"><path aria-label="Date: Mar 16, 2026; Unique Clones/day: 0; Repository: karlmdavis/ldap-plugin" role="graphics-symbol" aria-roledescription="area mark" d="M0,300L27.586,300L55.172,300L82.759,297L110.345,300L137.931,300L165.517,300L193.103,282L220.69,297L248.276,294L275.862,285L303.448,252L331.034,285L358.621,285L386.207,291L413.793,270L441.379,276L468.966,288L496.552,285L524.138,264L551.724,294L579.31,294L606.897,282L634.483,288L662.069,249L689.655,282L717.241,267L744.828,285L772.414,222L800,294L800,294L772.414,222L744.828,285L717.241,267L689.655,282L662.069,249L634.483,288L606.897,282L579.31,294L551.724,294L524.138,264L496.552,288L468.966,291L441.379,276L413.793,270L386.207,291L358.621,285L331.034,285L303.448,252L275.862,285L248.276,294L220.69,297L193.103,282L165.517,300L137.931,300L110.345,300L82.759,297L55.172,300L27.586,300L0,300Z" fill="#54a24b"/></g></g><path class="foreground" aria-hidden="true" d="" display="none"/></g><g transform="translate(0,0)"><path class="background" aria-hidden="true" d="M0,0h800v300h-800Z"/><g><g class="mark-area role-mark marks" role="graphics-object" aria-roledescription="area mark container"><path aria-label="Date: Mar 16, 2026; Unique Clones/day: 0; Repository: karlmdavis/lego-ev3dev-rs" role="graphics-symbol" aria-roledescription="area mark" d="M0,300L27.586,300L55.172,300L82.759,297L110.345,300L137.931,300L165.517,300L193.103,282L220.69,297L248.276,294L275.862,285L303.448,252L331.034,285L358.621,285L386.207,291L413.793,270L441.379,276L468.966,291L496.552,288L524.138,264L551.724,294L579.31,294L606.897,282L634.483,288L662.069,249L689.655,282L717.241,267L744.828,285L772.414,222L800,294L800,294L772.414,231L744.828,285L717.241,273L689.655,282L662.069,255L634.483,288L606.897,285L579.31,294L551.724,297L524.138,267L496.552,291L468.966,291L441.379,279L413.793,276L386.207,291L358.621,288L331.034,288L303.448,261L275.862,285L248.276,297L220.69,297L193.103,285L165.517,300L137.931,300L110.345,300L82.759,297L55.172,300L27.586,300L0,300Z" fill="#eeca3b"/></g></g><path class="foreground" aria-hidden="true" d="" display="none"/></g><g transform="translate(0,0)"><path class="background" aria-hidden="true" d="M0,0h800v300h-800Z"/><g><g class="mark-area role-mark marks" role="graphics-object" aria-roledescription="area mark container"><path aria-label="Date: Mar 16, 2026; Unique Clones/day: 0; Repository: karlmdavis/liquibase" role="graphics-symbol" aria-roledescription="area mark" d="M0,300L27.586,300L55.172,300L82.759,297L110.345,300L137.931,300L165.517,300L193.103,285L220.69,297L248.276,297L275.862,285L303.448,261L331.034,288L358.621,288L386.207,291L413.793,276L441.379,279L468.966,291L496.552,291L524.138,267L551.724,297L579.31,294L606.897,285L634.483,288L662.069,255L689.655,282L717.241,273L744.828,285L772.414,231L800,294L800,294L772.414,231L744.828,285L717.241,273L689.655,285L662.069,258L634.483,288L606.897,285L579.31,294L551.724,297L524.138,267L496.552,291L468.966,291L441.379,279L413.793,276L386.207,291L358.621,288L331.034,288L303.448,261L275.862,285L248.276,297L220.69,297L193.103,285L165.517,300L137.931,300L110.345,300L82.759,300L55.172,300L27.586,300L0,300Z" fill="#b279a2"/></g></g><path class="foreground" aria-hidden="true" d="" display="none"/></g><g transform="translate(0,0)"><path class="background" aria-hidden="true" d="M0,0h800v300h-800Z"/><g><g class="mark-area role-mark marks" role="graphics-object" aria-roledescription="area mark container"><path aria-label="Date: Mar 16, 2026; Unique Clones/day: 0; Repository: karlmdavis/m2e-core" role="graphics-symbol" aria-roledescription="area mark" d="M0,300L27.586,300L55.172,300L82.759,300L110.345,300L137.931,300L165.517,300L193.103,285L220.69,297L248.276,297L275.862,285L303.448,261L331.034,288L358.621,288L386.207,291L413.793,276L441.379,279L468.966,291L496.552,291L524.138,267L551.724,297L579.31,294L606.897,285L634.483,288L662.069,258L689.655,285L717.241,273L744.828,285L772.414,231L800,294L800,294L772.414,237L744.828,285L717.241,276L689.655,288L662.069,264L634.483,291L606.897,288L579.31,294L551.724,297L524.138,270L496.552,291L468.966,291L441.379,279L413.793,276L386.207,291L358.621,291L331.034,288L303.448,264L275.862,285L248.276,297L220.69,297L193.103,285L165.517,300L137.931,300L110.345,300L82.759,300L55.172,300L27.586,300L0,300Z" fill="#ff9da6"/></g></g><path class="foreground" aria-hidden="true" d="" display="none"/></g><g transform="translate(0,0)"><path class="background" aria-hidden="true" d="M0,0h800v300h-800Z"/><g><g class="mark-area role-mark marks" role="graphics-object" aria-roledescription="area mark container"><path aria-label="Date: Mar 16, 2026; Unique Clones/day: 0; Repository: karlmdavis/m2e-core-tests" role="graphics-symbol" aria-roledescription="area mark" d="M0,300L27.586,300L55.172,300L82.759,300L110.345,300L137.931,300L165.517,300L193.103,285L220.69,297L248.276,297L275.862,285L303.448,264L331.034,288L358.621,291L386.207,291L413.793,276L441.379,279L468.966,291L496.552,291L524.138,270L551.724,297L579.31,294L606.897,288L634.483,291L662.069,264L689.655,288L717.241,276L744.828,285L772.414,237L800,294L800,294L772.414,237L744.828,288L717.241,276L689.655,294L662.069,267L634.483,294L606.897,291L579.31,294L551.724,297L524.138,270L496.552,291L468.966,291L441.379,285L413.793,276L386.207,291L358.621,291L331.034,291L303.448,264L275.862,288L248.276,297L220.69,297L193.103,285L165.517,300L137.931,300L110.345,300L82.759,300L55.172,300L27.586,300L0,300Z" fill="#9d755d"/></g></g><path class="foreground" aria-hidden="true" d="" display="none"/></g><g transform="translate(0,0)"><path class="background" aria-hidden="true" d="M0,0h800v300h-800Z"/><g><g class="mark-area role-mark marks" role="graphics-object" aria-roledescription="area mark container"><path aria-label="Date: Mar 16, 2026; Unique Clones/day: 0; Repository: karlmdavis/obsidian-operator" role="graphics-symbol" aria-roledescription="area mark" d="M0,300L27.586,300L55.172,300L82.759,300L110.345,300L137.931,300L165.517,300L193.103,285L220.69,297L248.276,297L275.862,288L303.448,264L331.034,291L358.621,291L386.207,291L413.793,276L441.379,285L468.966,291L496.552,291L524.138,270L551.724,297L579.31,294L606.897,291L634.483,294L662.069,267L689.655,294L717.241,276L744.828,288L772.414,237L800,294L800,297L772.414,243L744.828,291L717.241,282L689.655,294L662.069,270L634.483,294L606.897,291L579.31,294L551.724,297L524.138,273L496.552,297L468.966,291L441.379,285L413.793,285L386.207,291L358.621,291L331.034,291L303.448,267L275.862,288L248.276,297L220.69,297L193.103,288L165.517,300L137.931,300L110.345,300L82.759,300L55.172,300L27.586,300L0,300Z" fill="#bab0ac"/></g></g><path class="foreground" aria-hidden="true" d="" display="none"/></g><g transform="translate(0,0)"><path class="background" aria-hidden="true" d="M0,0h800v300h-800Z"/><g><g class="mark-area role-mark marks" role="graphics-object" aria-roledescription="area mark container"><path aria-label="Date: Mar 16, 2026; Unique Clones/day: 0; Repository: karlmdavis/perfect-note" role="graphics-symbol" aria-roledescription="area mark" d="M0,300L27.586,300L55.172,300L82.759,300L110.345,300L137.931,300L165.517,300L193.103,288L220.69,297L248.276,297L275.862,288L303.448,267L331.034,291L358.621,291L386.207,291L413.793,285L441.379,285L468.966,291L496.552,297L524.138,273L551.724,297L579.31,294L606.897,291L634.483,294L662.069,270L689.655,294L717.241,282L744.828,291L772.414,243L800,297L800,297L772.414,249L744.828,291L717.241,282L689.655,294L662.069,273L634.483,294L606.897,291L579.31,294L551.724,297L524.138,276L496.552,297L468.966,291L441.379,285L413.793,285L386.207,291L358.621,291L331.034,294L303.448,270L275.862,291L248.276,297L220.69,297L193.103,288L165.517,300L137.931,300L110.345,300L82.759,300L55.172,300L27.586,300L0,300Z" fill="#4c78a8"/></g></g><path class="foreground" aria-hidden="true" d="" display="none"/></g><g transform="translate(0,0)"><path class="background" aria-hidden="true" d="M0,0h800v300h-800Z"/><g><g class="mark-area role-mark marks" role="graphics-object" aria-roledescription="area mark container"><path aria-label="Date: Mar 16, 2026; Unique Clones/day: 0; Repository: karlmdavis/puppet-archive" role="graphics-symbol" aria-roledescription="area mark" d="M0,300L27.586,300L55.172,300L82.759,300L110.345,300L137.931,300L165.517,300L193.103,288L220.69,297L248.276,297L275.862,291L303.448,270L331.034,294L358.621,291L386.207,291L413.793,285L441.379,285L468.966,291L496.552,297L524.138,276L551.724,297L579.31,294L606.897,291L634.483,294L662.069,273L689.655,294L717.241,282L744.828,291L772.414,249L800,297L800,297L772.414,249L744.828,291L717.241,285L689.655,294L662.069,276L634.483,294L606.897,291L579.31,294L551.724,297L524.138,276L496.552,297L468.966,291L441.379,285L413.793,285L386.207,291L358.621,291L331.034,294L303.448,270L275.862,291L248.276,297L220.69,297L193.103,291L165.517,300L137.931,300L110.345,300L82.759,300L55.172,300L27.586,300L0,300Z" fill="#f58518"/></g></g><path class="foreground" aria-hidden="true" d="" display="none"/></g><g transform="translate(0,0)"><path class="background" aria-hidden="true" d="M0,0h800v300h-800Z"/><g><g class="mark-area role-mark marks" role="graphics-object" aria-roledescription="area mark container"><path aria-label="Date: Mar 16, 2026; Unique Clones/day: 0; Repository: karlmdavis/puppet-sonar" role="graphics-symbol" aria-roledescription="area mark" d="M0,300L27.586,300L55.172,300L82.759,300L110.345,300L137.931,300L165.517,300L193.103,291L220.69,297L248.276,297L275.862,291L303.448,270L331.034,294L358.621,291L386.207,291L413.793,285L441.379,285L468.966,291L496.552,297L524.138,276L551.724,297L579.31,294L606.897,291L634.483,294L662.069,276L689.655,294L717.241,285L744.828,291L772.414,249L800,297L800,297L772.414,249L744.828,291L717.241,288L689.655,294L662.069,276L634.483,297L606.897,294L579.31,294L551.724,297L524.138,276L496.552,297L468.966,294L441.379,285L413.793,291L386.207,291L358.621,291L331.034,297L303.448,270L275.862,291L248.276,297L220.69,297L193.103,291L165.517,300L137.931,300L110.345,300L82.759,300L55.172,300L27.586,300L0,300Z" fill="#e45756"/></g></g><path class="foreground" aria-hidden="true" d="" display="none"/></g><g transform="translate(0,0)"><path class="background" aria-hidden="true" d="M0,0h800v300h-800Z"/><g><g class="mark-area role-mark marks" role="graphics-object" aria-roledescription="area mark container"><path aria-label="Date: Mar 16, 2026; Unique Clones/day: 0; Repository: karlmdavis/rps-tourney" role="graphics-symbol" aria-roledescription="area mark" d="M0,300L27.586,300L55.172,300L82.759,300L110.345,300L137.931,300L165.517,300L193.103,291L220.69,297L248.276,297L275.862,291L303.448,270L331.034,297L358.621,291L386.207,291L413.793,291L441.379,285L468.966,294L496.552,297L524.138,276L551.724,297L579.31,294L606.897,294L634.483,297L662.069,276L689.655,294L717.241,288L744.828,291L772.414,249L800,297L800,297L772.414,255L744.828,291L717.241,291L689.655,294L662.069,279L634.483,297L606.897,294L579.31,294L551.724,297L524.138,279L496.552,297L468.966,297L441.379,285L413.793,291L386.207,291L358.621,291L331.034,297L303.448,273L275.862,291L248.276,297L220.69,297L193.103,294L165.517,300L137.931,300L110.345,300L82.759,300L55.172,300L27.586,300L0,300Z" fill="#72b7b2"/></g></g><path class="foreground" aria-hidden="true" d="" display="none"/></g><g transform="translate(0,0)"><path class="background" aria-hidden="true" d="M0,0h800v300h-800Z"/><g><g class="mark-area role-mark marks" role="graphics-object" aria-roledescription="area mark container"><path aria-label="Date: Mar 16, 2026; Unique Clones/day: 0; Repository: karlmdavis/sample-maven-and-rcp" role="graphics-symbol" aria-roledescription="area mark" d="M0,300L27.586,300L55.172,300L82.759,300L110.345,300L137.931,300L165.517,300L193.103,294L220.69,297L248.276,297L275.862,291L303.448,273L331.034,297L358.621,291L386.207,291L413.793,291L441.379,285L468.966,297L496.552,297L524.138,279L551.724,297L579.31,294L606.897,294L634.483,297L662.069,279L689.655,294L717.241,291L744.828,291L772.414,255L800,297L800,297L772.414,261L744.828,291L717.241,291L689.655,294L662.069,282L634.483,297L606.897,294L579.31,294L551.724,297L524.138,282L496.552,297L468.966,297L441.379,288L413.793,291L386.207,291L358.621,291L331.034,297L303.448,276L275.862,291L248.276,297L220.69,297L193.103,294L165.517,300L137.931,300L110.345,300L82.759,300L55.172,300L27.586,300L0,300Z" fill="#54a24b"/></g></g><path class="foreground" aria-hidden="true" d="" display="none"/></g><g transform="translate(0,0)"><path class="background" aria-hidden="true" d="M0,0h800v300h-800Z"/><g><g class="mark-area role-mark marks" role="graphics-object" aria-roledescription="area mark container"><path aria-label="Date: Mar 16, 2026; Unique Clones/day: 0; Repository: karlmdavis/stockfighter-trades-solutions" role="graphics-symbol" aria-roledescription="area mark" d="M0,300L27.586,300L55.172,300L82.759,300L110.345,300L137.931,300L165.517,300L193.103,294L220.69,297L248.276,297L275.862,291L303.448,276L331.034,297L358.621,291L386.207,291L413.793,291L441.379,288L468.966,297L496.552,297L524.138,282L551.724,297L579.31,294L606.897,294L634.483,297L662.069,282L689.655,294L717.241,291L744.828,291L772.414,261L800,297L800,297L772.414,270L744.828,291L717.241,291L689.655,294L662.069,285L634.483,297L606.897,294L579.31,294L551.724,297L524.138,285L496.552,297L468.966,297L441.379,288L413.793,291L386.207,291L358.621,294L331.034,297L303.448,282L275.862,291L248.276,297L220.69,297L193.103,294L165.517,300L137.931,300L110.345,300L82.759,300L55.172,300L27.586,300L0,300Z" fill="#eeca3b"/></g></g><path class="foreground" aria-hidden="true" d="" display="none"/></g><g transform="translate(0,0)"><path class="background" aria-hidden="true" d="M0,0h800v300h-800Z"/><g><g class="mark-area role-mark marks" role="graphics-object" aria-roledescription="area mark container"><path aria-label="Date: Mar 16, 2026; Unique Clones/day: 0; Repository: karlmdavis/test-repo-for-move" role="graphics-symbol" aria-roledescription="area mark" d="M0,300L27.586,300L55.172,300L82.759,300L110.345,300L137.931,300L165.517,300L193.103,294L220.69,297L248.276,297L275.862,291L303.448,282L331.034,297L358.621,294L386.207,291L413.793,291L441.379,288L468.966,297L496.552,297L524.138,285L551.724,297L579.31,294L606.897,294L634.483,297L662.069,285L689.655,294L717.241,291L744.828,291L772.414,270L800,297L800,297L772.414,276L744.828,291L717.241,291L689.655,294L662.069,288L634.483,297L606.897,294L579.31,294L551.724,297L524.138,288L496.552,297L468.966,297L441.379,288L413.793,291L386.207,291L358.621,297L331.034,297L303.448,285L275.862,294L248.276,297L220.69,297L193.103,294L165.517,300L137.931,300L110.345,300L82.759,300L55.172,300L27.586,300L0,300Z" fill="#b279a2"/></g></g><path class="foreground" aria-hidden="true" d="" display="none"/></g><g transform="translate(0,0)"><path class="background" aria-hidden="true" d="M0,0h800v300h-800Z"/><g><g class="mark-area role-mark marks" role="graphics-object" aria-roledescription="area mark container"><path aria-label="Date: Mar 16, 2026; Unique Clones/day: 0; Repository: karlmdavis/todoist-ai" role="graphics-symbol" aria-roledescription="area mark" d="M0,300L27.586,300L55.172,300L82.759,300L110.345,300L137.931,300L165.517,300L193.103,294L220.69,297L248.276,297L275.862,294L303.448,285L331.034,297L358.621,297L386.207,291L413.793,291L441.379,288L468.966,297L496.552,297L524.138,288L551.724,297L579.31,294L606.897,294L634.483,297L662.069,288L689.655,294L717.241,291L744.828,291L772.414,276L800,297L800,297L772.414,276L744.828,291L717.241,294L689.655,294L662.069,288L634.483,297L606.897,294L579.31,294L551.724,297L524.138,288L496.552,297L468.966,297L441.379,294L413.793,291L386.207,291L358.621,297L331.034,297L303.448,285L275.862,294L248.276,297L220.69,297L193.103,294L165.517,300L137.931,300L110.345,300L82.759,300L55.172,300L27.586,300L0,300Z" fill="#ff9da6"/></g></g><path class="foreground" aria-hidden="true" d="" display="none"/></g><g transform="translate(0,0)"><path class="background" aria-hidden="true" d="M0,0h800v300h-800Z"/><g><g class="mark-area role-mark marks" role="graphics-object" aria-roledescription="area mark container"><path aria-label="Date: Mar 16, 2026; Unique Clones/day: 0; Repository: karlmdavis/usgs-water-api-java" role="graphics-symbol" aria-roledescription="area mark" d="M0,300L27.586,300L55.172,300L82.759,300L110.345,300L137.931,300L165.517,300L193.103,294L220.69,297L248.276,297L275.862,294L303.448,285L331.034,297L358.621,297L386.207,291L413.793,291L441.379,294L468.966,297L496.552,297L524.138,288L551.724,297L579.31,294L606.897,294L634.483,297L662.069,288L689.655,294L717.241,294L744.828,291L772.414,276L800,297L800,300L772.414,285L744.828,300L717.241,297L689.655,297L662.069,294L634.483,300L606.897,297L579.31,300L551.724,300L524.138,294L496.552,300L468.966,300L441.379,297L413.793,294L386.207,297L358.621,300L331.034,300L303.448,291L275.862,300L248.276,300L220.69,300L193.103,300L165.517,300L137.931,300L110.345,300L82.759,300L55.172,300L27.586,300L0,300Z" fill="#9d755d"/></g></g><path class="foreground" aria-hidden="true" d="" display="none"/></g><g transform="translate(0,0)"><path class="background" aria-hidden="true" d="M0,0h800v300h-800Z"/><g><g class="mark-area role-mark marks" role="graphics-object" aria-roledescription="area mark container"><path aria-label="Date: Mar 16, 2026; Unique Clones/day: 0; Repository: karlmdavis/workstation-base-ansible-role" role="graphics-symbol" aria-roledescription="area mark" d="M0,300L27.586,300L55.172,300L82.759,300L110.345,300L137.931,300L165.517,300L193.103,300L220.69,300L248.276,300L275.862,300L303.448,291L331.034,300L358.621,300L386.207,297L413.793,294L441.379,297L468.966,300L496.552,300L524.138,294L551.724,300L579.31,300L606.897,297L634.483,300L662.069,294L689.655,297L717.241,297L744.828,300L772.414,285L800,300L800,300L772.414,294L744.828,300L717.241,300L689.655,297L662.069,297L634.483,300L606.897,297L579.31,300L551.724,300L524.138,297L496.552,300L468.966,300L441.379,300L413.793,297L386.207,300L358.621,300L331.034,300L303.448,297L275.862,300L248.276,300L220.69,300L193.103,300L165.517,300L137.931,300L110.345,300L82.759,300L55.172,300L27.586,300L0,300Z" fill="#bab0ac"/></g></g><path class="foreground" aria-hidden="true" d="" display="none"/></g><g transform="translate(0,0)"><path class="background" aria-hidden="true" d="M0,0h800v300h-800Z"/><g><g class="mark-area role-mark marks" role="graphics-object" aria-roledescription="area mark container"><path aria-label="Date: Mar 16, 2026; Unique Clones/day: 0; Repository: karlmdavis/xmlpull" role="graphics-symbol" aria-roledescription="area mark" d="M0,300L27.586,300L55.172,300L82.759,300L110.345,300L137.931,300L165.517,300L193.103,300L220.69,300L248.276,300L275.862,300L303.448,297L331.034,300L358.621,300L386.207,300L413.793,297L441.379,300L468.966,300L496.552,300L524.138,297L551.724,300L579.31,300L606.897,297L634.483,300L662.069,297L689.655,297L717.241,300L744.828,300L772.414,294L800,300L800,300L772.414,300L744.828,300L717.241,300L689.655,300L662.069,300L634.483,300L606.897,300L579.31,300L551.724,300L524.138,300L496.552,300L468.966,300L441.379,300L413.793,300L386.207,300L358.621,300L331.034,300L303.448,300L275.862,300L248.276,300L220.69,300L193.103,300L165.517,300L137.931,300L110.345,300L82.759,300L55.172,300L27.586,300L0,300Z" fill="#4c78a8"/></g></g><path class="foreground" aria-hidden="true" d="" display="none"/></g></g><g class="mark-group role-legend" role="graphics-symbol" aria-roledescription="legend" aria-label="Symbol legend titled 'Repository' for fill color with 41 values: karlmdavis/FHIR-Server, karlmdavis/ansible, karlmdavis/ansible-jenkins, karlmdavis/ansible-role-acmetool, karlmdavis/ansible-role-bind-dns, ending with karlmdavis/xmlpull"><g transform="translate(818,0)"><path class="background" aria-hidden="true" d="M0,0h176v404h-176Z" pointer-events="none"/><g><g class="mark-group role-legend-entry"><g transform="translate(0,16)"><path class="background" aria-hidden="true" d="M0,0h0v0h0Z" pointer-events="none"/><g><g class="mark-group role-scope" role="graphics-object" aria-roledescription="group mark container"><g transform="translate(0,0)"><path class="background" aria-hidden="true" d="M0,0h176v11h-176Z" pointer-events="none" opacity="1"/><g><g class="mark-symbol role-legend-symbol" pointer-events="none"><path transform="translate(6,6)" d="M5,0A5,5,0,1,1,-5,0A5,5,0,1,1,5,0" fill="#4c78a8" stroke-width="1.5" opacity="1"/></g><g class="mark-text role-legend-label" pointer-events="none"><text text-anchor="start" transform="translate(16,9)" font-family="sans-serif" font-size="10px" fill="#000" opacity="1">karlmdavis/FHIR-Server</text></g></g><path class="foreground" aria-hidden="true" d="" pointer-events="none" display="none"/></g><g transform="translate(0,13)"><path class="background" aria-hidden="true" d="M0,0h176v11h-176Z" pointer-events="none" opacity="1"/><g><g class="mark-symbol role-legend-symbol" pointer-events="none"><path transform="translate(6,6)" d="M5,0A5,5,0,1,1,-5,0A5,5,0,1,1,5,0" fill="#f58518" stroke-width="1.5" opacity="1"/></g><g class="mark-text role-legend-label" pointer-events="none"><text text-anchor="start" transform="translate(16,9)" font-family="sans-serif" font-size="10px" fill="#000" opacity="1">karlmdavis/ansible</text></g></g><path class="foreground" aria-hidden="true" d="" pointer-events="none" display="none"/></g><g transform="translate(0,26)"><path class="background" aria-hidden="true" d="M0,0h176v11h-176Z" pointer-events="none" opacity="1"/><g><g class="mark-symbol role-legend-symbol" pointer-events="none"><path transform="translate(6,6)" d="M5,0A5,5,0,1,1,-5,0A5,5,0,1,1,5,0" fill="#e45756" stroke-width="1.5" opacity="1"/></g><g class="mark-text role-legend-label" pointer-events="none"><text text-anchor="start" transform="translate(16,9)" font-family="sans-serif" font-size="10px" fill="#000" opacity="1">karlmdavis/ansible-jenkins</text></g></g><path class="foreground" aria-hidden="true" d="" pointer-events="none" display="none"/></g><g transform="translate(0,39)"><path class="background" aria-hidden="true" d="M0,0h176v11h-176Z" pointer-events="none" opacity="1"/><g><g class="mark-symbol role-legend-symbol" pointer-events="none"><path transform="translate(6,6)" d="M5,0A5,5,0,1,1,-5,0A5,5,0,1,1,5,0" fill="#72b7b2" stroke-width="1.5" opacity="1"/></g><g class="mark-text role-legend-label" pointer-events="none"><text text-anchor="start" transform="translate(16,9)" font-family="sans-serif" font-size="10px" fill="#000" opacity="1">karlmdavis/ansible-role-acmetool</text></g></g><path class="foreground" aria-hidden="true" d="" pointer-events="none" display="none"/></g><g transform="translate(0,52)"><path class="background" aria-hidden="true" d="M0,0h176v11h-176Z" pointer-events="none" opacity="1"/><g><g class="mark-symbol role-legend-symbol" pointer-events="none"><path transform="translate(6,6)" d="M5,0A5,5,0,1,1,-5,0A5,5,0,1,1,5,0" fill="#54a24b" stroke-width="1.5" opacity="1"/></g><g class="mark-text role-legend-label" pointer-events="none"><text text-anchor="start" transform="translate(16,9)" font-family="sans-serif" font-size="10px" fill="#000" opacity="1">karlmdavis/ansible-role-bind-dns</text></g></g><path class="foreground" aria-hidden="true" d="" pointer-events="none" display="none"/></g><g transform="translate(0,65)"><path class="background" aria-hidden="true" d="M0,0h176v11h-176Z" pointer-events="none" opacity="1"/><g><g class="mark-symbol role-legend-symbol" pointer-events="none"><path transform="translate(6,6)" d="M5,0A5,5,0,1,1,-5,0A5,5,0,1,1,5,0" fill="#eeca3b" stroke-width="1.5" opacity="1"/></g><g class="mark-text role-legend-label" pointer-events="none"><text text-anchor="start" transform="translate(16,9)" font-family="sans-serif" font-size="10px" fill="#000" opacity="1">karlmdavis/ansible-role-jenkins2</text></g></g><path class="foreground" aria-hidden="true" d="" pointer-events="none" display="none"/></g><g transform="translate(0,78)"><path class="background" aria-hidden="true" d="M0,0h176v11h-176Z" pointer-events="none" opacity="1"/><g><g class="mark-symbol role-legend-symbol" pointer-events="none"><path transform="translate(6,6)" d="M5,0A5,5,0,1,1,-5,0A5,5,0,1,1,5,0" fill="#b279a2" stroke-width="1.5" opacity="1"/></g><g class="mark-text role-legend-label" pointer-events="none"><text text-anchor="start" transform="translate(16,9)" font-family="sans-serif" font-size="10px" fill="#000" opacity="1">karlmdavis/ansible-role-ldap</text></g></g><path class="foreground" aria-hidden="true" d="" pointer-events="none" display="none"/></g><g transform="translate(0,91)"><path class="background" aria-hidden="true" d="M0,0h176v11h-176Z" pointer-events="none" opacity="1"/><g><g class="mark-symbol role-legend-symbol" pointer-events="none"><path transform="translate(6,6)" d="M5,0A5,5,0,1,1,-5,0A5,5,0,1,1,5,0" fill="#ff9da6" stroke-width="1.5" opacity="1"/></g><g class="mark-text role-legend-label" pointer-events="none"><text text-anchor="start" transform="translate(16,9)" font-family="sans-serif" font-size="10px" fill="#000" opacity="1">karlmdavis/ansible-role-rcm-dotfiles</text></g></g><path class="foreground" aria-hidden="true" d="" pointer-events="none" display="none"/></g><g transform="translate(0,104)"><path class="background" aria-hidden="true" d="M0,0h176v11h-176Z" pointer-events="none" opacity="1"/><g><g class="mark-symbol role-legend-symbol" pointer-events="none"><path transform="translate(6,6)" d="M5,0A5,5,0,1,1,-5,0A5,5,0,1,1,5,0" fill="#9d755d" stroke-width="1.5" opacity="1"/></g><g class="mark-text role-legend-label" pointer-events="none"><text text-anchor="start" transform="translate(16,9)" font-family="sans-serif" font-size="10px" fill="#000" opacity="1">karlmdavis/ansible-roles</text></g></g><path class="foreground" aria-hidden="true" d="" pointer-events="none" display="none"/></g><g transform="translate(0,117)"><path class="background" aria-hidden="true" d="M0,0h176v11h-176Z" pointer-events="none" opacity="1"/><g><g class="mark-symbol role-legend-symbol" pointer-events="none"><path transform="translate(6,6)" d="M5,0A5,5,0,1,1,-5,0A5,5,0,1,1,5,0" fill="#bab0ac" stroke-width="1.5" opacity="1"/></g><g class="mark-text role-legend-label" pointer-events="none"><text text-anchor="start" transform="translate(16,9)" font-family="sans-serif" font-size="10px" fill="#000" opacity="1">karlmdavis/bbonfhir-dev-infra-doc…</text></g></g><path class="foreground" aria-hidden="true" d="" pointer-events="none" display="none"/></g><g transform="translate(0,130)"><path class="background" aria-hidden="true" d="M0,0h176v11h-176Z" pointer-events="none" opacity="1"/><g><g class="mark-symbol role-legend-symbol" pointer-events="none"><path transform="translate(6,6)" d="M5,0A5,5,0,1,1,-5,0A5,5,0,1,1,5,0" fill="#4c78a8" stroke-width="1.5" opacity="1"/></g><g class="mark-text role-legend-label" pointer-events="none"><text text-anchor="start" transform="translate(16,9)" font-family="sans-serif" font-size="10px" fill="#000" opacity="1">karlmdavis/can-i-kayak-baltimore</text></g></g><path class="foreground" aria-hidden="true" d="" pointer-events="none" display="none"/></g><g transform="translate(0,143)"><path class="background" aria-hidden="true" d="M0,0h176v11h-176Z" pointer-events="none" opacity="1"/><g><g class="mark-symbol role-legend-symbol" pointer-events="none"><path transform="translate(6,6)" d="M5,0A5,5,0,1,1,-5,0A5,5,0,1,1,5,0" fill="#f58518" stroke-width="1.5" opacity="1"/></g><g class="mark-text role-legend-label" pointer-events="none"><text text-anchor="start" transform="translate(16,9)" font-family="sans-serif" font-size="10px" fill="#000" opacity="1">karlmdavis/datanucleus-test-jdo-1…</text></g></g><path class="foreground" aria-hidden="true" d="" pointer-events="none" display="none"/></g><g transform="translate(0,156)"><path class="background" aria-hidden="true" d="M0,0h176v11h-176Z" pointer-events="none" opacity="1"/><g><g class="mark-symbol role-legend-symbol" pointer-events="none"><path transform="translate(6,6)" d="M5,0A5,5,0,1,1,-5,0A5,5,0,1,1,5,0" fill="#e45756" stroke-width="1.5" opacity="1"/></g><g class="mark-text role-legend-label" pointer-events="none"><text text-anchor="start" transform="translate(16,9)" font-family="sans-serif" font-size="10px" fill="#000" opacity="1">karlmdavis/dotfiles</text></g></g><path class="foreground" aria-hidden="true" d="" pointer-events="none" display="none"/></g><g transform="translate(0,169)"><path class="background" aria-hidden="true" d="M0,0h176v11h-176Z" pointer-events="none" opacity="1"/><g><g class="mark-symbol role-legend-symbol" pointer-events="none"><path transform="translate(6,6)" d="M5,0A5,5,0,1,1,-5,0A5,5,0,1,1,5,0" fill="#72b7b2" stroke-width="1.5" opacity="1"/></g><g class="mark-text role-legend-label" pointer-events="none"><text text-anchor="start" transform="translate(16,9)" font-family="sans-serif" font-size="10px" fill="#000" opacity="1">karlmdavis/fhir-benchmarks</text></g></g><path class="foreground" aria-hidden="true" d="" pointer-events="none" display="none"/></g><g transform="translate(0,182)"><path class="background" aria-hidden="true" d="M0,0h176v11h-176Z" pointer-events="none" opacity="1"/><g><g class="mark-symbol role-legend-symbol" pointer-events="none"><path transform="translate(6,6)" d="M5,0A5,5,0,1,1,-5,0A5,5,0,1,1,5,0" fill="#54a24b" stroke-width="1.5" opacity="1"/></g><g class="mark-text role-legend-label" pointer-events="none"><text text-anchor="start" transform="translate(16,9)" font-family="sans-serif" font-size="10px" fill="#000" opacity="1">karlmdavis/hapi-fhir-jpaserver-sta…</text></g></g><path class="foreground" aria-hidden="true" d="" pointer-events="none" display="none"/></g><g transform="translate(0,195)"><path class="background" aria-hidden="true" d="M0,0h176v11h-176Z" pointer-events="none" opacity="1"/><g><g class="mark-symbol role-legend-symbol" pointer-events="none"><path transform="translate(6,6)" d="M5,0A5,5,0,1,1,-5,0A5,5,0,1,1,5,0" fill="#eeca3b" stroke-width="1.5" opacity="1"/></g><g class="mark-text role-legend-label" pointer-events="none"><text text-anchor="start" transform="translate(16,9)" font-family="sans-serif" font-size="10px" fill="#000" opacity="1">karlmdavis/hello-rust-actix</text></g></g><path class="foreground" aria-hidden="true" d="" pointer-events="none" display="none"/></g><g transform="translate(0,208)"><path class="background" aria-hidden="true" d="M0,0h176v11h-176Z" pointer-events="none" opacity="1"/><g><g class="mark-symbol role-legend-symbol" pointer-events="none"><path transform="translate(6,6)" d="M5,0A5,5,0,1,1,-5,0A5,5,0,1,1,5,0" fill="#b279a2" stroke-width="1.5" opacity="1"/></g><g class="mark-text role-legend-label" pointer-events="none"><text text-anchor="start" transform="translate(16,9)" font-family="sans-serif" font-size="10px" fill="#000" opacity="1">karlmdavis/jessentials</text></g></g><path class="foreground" aria-hidden="true" d="" pointer-events="none" display="none"/></g><g transform="translate(0,221)"><path class="background" aria-hidden="true" d="M0,0h176v11h-176Z" pointer-events="none" opacity="1"/><g><g class="mark-symbol role-legend-symbol" pointer-events="none"><path transform="translate(6,6)" d="M5,0A5,5,0,1,1,-5,0A5,5,0,1,1,5,0" fill="#ff9da6" stroke-width="1.5" opacity="1"/></g><g class="mark-text role-legend-label" pointer-events="none"><text text-anchor="start" transform="translate(16,9)" font-family="sans-serif" font-size="10px" fill="#000" opacity="1">karlmdavis/justdavis-ansible</text></g></g><path class="foreground" aria-hidden="true" d="" pointer-events="none" display="none"/></g><g transform="translate(0,234)"><path class="background" aria-hidden="true" d="M0,0h176v11h-176Z" pointer-events="none" opacity="1"/><g><g class="mark-symbol role-legend-symbol" pointer-events="none"><path transform="translate(6,6)" d="M5,0A5,5,0,1,1,-5,0A5,5,0,1,1,5,0" fill="#9d755d" stroke-width="1.5" opacity="1"/></g><g class="mark-text role-legend-label" pointer-events="none"><text text-anchor="start" transform="translate(16,9)" font-family="sans-serif" font-size="10px" fill="#000" opacity="1">karlmdavis/justdavis-finances</text></g></g><path class="foreground" aria-hidden="true" d="" pointer-events="none" display="none"/></g><g transform="translate(0,247)"><path class="background" aria-hidden="true" d="M0,0h176v11h-176Z" pointer-events="none" opacity="1"/><g><g class="mark-symbol role-legend-symbol" pointer-events="none"><path transform="translate(6,6)" d="M5,0A5,5,0,1,1,-5,0A5,5,0,1,1,5,0" fill="#bab0ac" stroke-width="1.5" opacity="1"/></g><g class="mark-text role-legend-label" pointer-events="none"><text text-anchor="start" transform="translate(16,9)" font-family="sans-serif" font-size="10px" fill="#000" opacity="1">karlmdavis/justdavis-karl</text></g></g><path class="foreground" aria-hidden="true" d="" pointer-events="none" display="none"/></g><g transform="translate(0,260)"><path class="background" aria-hidden="true" d="M0,0h176v11h-176Z" pointer-events="none" opacity="1"/><g><g class="mark-symbol role-legend-symbol" pointer-events="none"><path transform="translate(6,6)" d="M5,0A5,5,0,1,1,-5,0A5,5,0,1,1,5,0" fill="#4c78a8" stroke-width="1.5" opacity="1"/></g><g class="mark-text role-legend-label" pointer-events="none"><text text-anchor="start" transform="translate(16,9)" font-family="sans-serif" font-size="10px" fill="#000" opacity="1">karlmdavis/justdavis-puppet</text></g></g><path class="foreground" aria-hidden="true" d="" pointer-events="none" display="none"/></g><g transform="translate(0,273)"><path class="background" aria-hidden="true" d="M0,0h176v11h-176Z" pointer-events="none" opacity="1"/><g><g class="mark-symbol role-legend-symbol" pointer-events="none"><path transform="translate(6,6)" d="M5,0A5,5,0,1,1,-5,0A5,5,0,1,1,5,0" fill="#f58518" stroke-width="1.5" opacity="1"/></g><g class="mark-text role-legend-label" pointer-events="none"><text text-anchor="start" transform="translate(16,9)" font-family="sans-serif" font-size="10px" fill="#000" opacity="1">karlmdavis/kobjects</text></g></g><path class="foreground" aria-hidden="true" d="" pointer-events="none" display="none"/></g><g transform="translate(0,286)"><path class="background" aria-hidden="true" d="M0,0h176v11h-176Z" pointer-events="none" opacity="1"/><g><g class="mark-symbol role-legend-symbol" pointer-events="none"><path transform="translate(6,6)" d="M5,0A5,5,0,1,1,-5,0A5,5,0,1,1,5,0" fill="#e45756" stroke-width="1.5" opacity="1"/></g><g class="mark-text role-legend-label" pointer-events="none"><text text-anchor="start" transform="translate(16,9)" font-family="sans-serif" font-size="10px" fill="#000" opacity="1">karlmdavis/ksoap2-android</text></g></g><path class="foreground" aria-hidden="true" d="" pointer-events="none" display="none"/></g><g transform="translate(0,299)"><path class="background" aria-hidden="true" d="M0,0h176v11h-176Z" pointer-events="none" opacity="1"/><g><g class="mark-symbol role-legend-symbol" pointer-events="none"><path transform="translate(6,6)" d="M5,0A5,5,0,1,1,-5,0A5,5,0,1,1,5,0" fill="#72b7b2" stroke-width="1.5" opacity="1"/></g><g class="mark-text role-legend-label" pointer-events="none"><text text-anchor="start" transform="translate(16,9)" font-family="sans-serif" font-size="10px" fill="#000" opacity="1">karlmdavis/kxml2</text></g></g><path class="foreground" aria-hidden="true" d="" pointer-events="none" display="none"/></g><g transform="translate(0,312)"><path class="background" aria-hidden="true" d="M0,0h176v11h-176Z" pointer-events="none" opacity="1"/><g><g class="mark-symbol role-legend-symbol" pointer-events="none"><path transform="translate(6,6)" d="M5,0A5,5,0,1,1,-5,0A5,5,0,1,1,5,0" fill="#54a24b" stroke-width="1.5" opacity="1"/></g><g class="mark-text role-legend-label" pointer-events="none"><text text-anchor="start" transform="translate(16,9)" font-family="sans-serif" font-size="10px" fill="#000" opacity="1">karlmdavis/ldap-plugin</text></g></g><path class="foreground" aria-hidden="true" d="" pointer-events="none" display="none"/></g><g transform="translate(0,325)"><path class="background" aria-hidden="true" d="M0,0h176v11h-176Z" pointer-events="none" opacity="1"/><g><g class="mark-symbol role-legend-symbol" pointer-events="none"><path transform="translate(6,6)" d="M5,0A5,5,0,1,1,-5,0A5,5,0,1,1,5,0" fill="#eeca3b" stroke-width="1.5" opacity="1"/></g><g class="mark-text role-legend-label" pointer-events="none"><text text-anchor="start" transform="translate(16,9)" font-family="sans-serif" font-size="10px" fill="#000" opacity="1">karlmdavis/lego-ev3dev-rs</text></g></g><path class="foreground" aria-hidden="true" d="" pointer-events="none" display="none"/></g><g transform="translate(0,338)"><path class="background" aria-hidden="true" d="M0,0h176v11h-176Z" pointer-events="none" opacity="1"/><g><g class="mark-symbol role-legend-symbol" pointer-events="none"><path transform="translate(6,6)" d="M5,0A5,5,0,1,1,-5,0A5,5,0,1,1,5,0" fill="#b279a2" stroke-width="1.5" opacity="1"/></g><g class="mark-text role-legend-label" pointer-events="none"><text text-anchor="start" transform="translate(16,9)" font-family="sans-serif" font-size="10px" fill="#000" opacity="1">karlmdavis/liquibase</text></g></g><path class="foreground" aria-hidden="true" d="" pointer-events="none" display="none"/></g><g transform="translate(0,351)"><path class="background" aria-hidden="true" d="M0,0h176v11h-176Z" pointer-events="none" opacity="1"/><g><g class="mark-symbol role-legend-symbol" pointer-events="none"><path transform="translate(6,6)" d="M5,0A5,5,0,1,1,-5,0A5,5,0,1,1,5,0" fill="#ff9da6" stroke-width="1.5" opacity="1"/></g><g class="mark-text role-legend-label" pointer-events="none"><text text-anchor="start" transform="translate(16,9)" font-family="sans-serif" font-size="10px" fill="#000" opacity="1">karlmdavis/m2e-core</text></g></g><path class="foreground" aria-hidden="true" d="" pointer-events="none" display="none"/></g><g transform="translate(0,364)"><path class="background" aria-hidden="true" d="M0,0h176v11h-176Z" pointer-events="none" opacity="1"/><g><g class="mark-symbol role-legend-symbol" pointer-events="none"><path transform="translate(6,6)" d="M5,0A5,5,0,1,1,-5,0A5,5,0,1,1,5,0" fill="#9d755d" stroke-width="1.5" opacity="1"/></g><g class="mark-text role-legend-label" pointer-events="none"><text text-anchor="start" transform="translate(16,9)" font-family="sans-serif" font-size="10px" fill="#000" opacity="1">karlmdavis/m2e-core-tests</text></g></g><path class="foreground" aria-hidden="true" d="" pointer-events="none" display="none"/></g><g transform="translate(0,377)"><path class="background" aria-hidden="true" d="M0,0h176v11h-176Z" pointer-events="none" opacity="1"/><g><g class="mark-symbol role-legend-symbol" pointer-events="none"><path transform="translate(6,6)" d="M5,0A5,5,0,1,1,-5,0A5,5,0,1,1,5,0" fill="#bab0ac" stroke-width="1.5" opacity="1"/></g><g class="mark-text role-legend-label" pointer-events="none"><text text-anchor="start" transform="translate(16,9)" font-family="sans-serif" font-size="10px" fill="#000" opacity="1">…12 entries</text></g></g><path class="foreground" aria-hidden="true" d="" pointer-events="none" display="none"/></g></g></g><path class="foreground" aria-hidden="true" d="" pointer-events="none" display="none"/></g></g><g class="mark-text role-legend-title" pointer-events="none"><text text-anchor="start" transform="translate(0,9)" font-family="sans-serif" font-size="11px" font-weight="bold" fill="#000" opacity="1">Repository</text></g></g><path class="foreground" aria-hidden="true" d="" pointer-events="none" display="none"/></g></g><g class="mark-group role-title"><g transform="translate(400,-22)"><path class="background" aria-hidden="true" d="M0,0h0v0h0Z" pointer-events="none"/><g><g class="mark-text role-title-text" role="graphics-symbol" aria-roledescription="title" aria-label="Title text 'Unique Clones per Day'" pointer-events="none"><text text-anchor="middle" transform="translate(0,10)" font-family="sans-serif" font-size="13px" font-weight="bold" fill="#000" opacity="1">Unique Clones per Day</text></g></g><path class="foreground" aria-hidden="true" d="" pointer-events="none" display="none"/></g></g></g><path class="foreground" aria-hidden="true" d="" display="none"/></g></g></g></svg>