<svg xmlns="http://www.w3.org/2000/svg" xmlns:xlink="http://www.w3.org/1999/xlink" version="1.1" class="marks" width="1043" height="436" viewBox="0 0 1043 436"><rect width="1043" height="436" fill="white"/><g fill="none" stroke-miterlimit="10" transform="translate(44,27)"><g class="mark-group role-frame root" role="graphics-object" aria-roledescription="group mark container"><g transform="translate(0,0)"><path class="background" aria-hidden="true" d="M0.5,0.5h800v300h-800Z" stroke="#ddd"/><g><g class="mark-group role-axis" aria-hidden="true"><g transform="translate(0.5,300.5)"><path class="background" aria-hidden="true" d="M0,0h0v0h0Z" pointer-events="none"/><g><g class="mark-rule role-axis-grid" pointer-events="none"><line transform="translate(20,-300)" x2="0" y2="300" stroke="#ddd" stroke-width="1" opacity="1"/><line transform="translate(59,-300)" x2="0" y2="300" stroke="#ddd" stroke-width="1" opacity="1"/><line transform="translate(98,-300)" x2="0" y2="300" stroke="#ddd" stroke-width="1" opacity="1"/><line transform="translate(137,-300)" x2="0" y2="300" stroke="#ddd" stroke-width="1" opacity="1"/><line transform="translate(176,-300)" x2="0" y2="300" stroke="#ddd" stroke-width="1" opacity="1"/><line transform="translate(215,-300)" x2="0" y2="300" stroke="#ddd" stroke-width="1" opacity="1"/><line transform="translate(254,-300)" x2="0" y2="300" stroke="#ddd" stroke-width="1" opacity="1"/><line transform="translate(293,-300)" x2="0" y2="300" stroke="#ddd" stroke-width="1" opacity="1"/><line transform="translate(312,-300)" x2="0" y2="300" stroke="#ddd" stroke-width="1" opacity="1"/><line transform="translate(351,-300)" x2="0" y2="300" stroke="#ddd" stroke-width="1" opacity="1"/><line transform="translate(390,-300)" x2="0" y2="300" stroke="#ddd" stroke-width="1" opacity="1"/><line transform="translate(429,-300)" x2="0" y2="300" stroke="#ddd" stroke-width="1" opacity="1"/><line transform="translate(468,-300)" x2="0" y2="300" stroke="#ddd" stroke-width="1" opacity="1"/><line transform="translate(507,-300)" x2="0" y2="300" stroke="#ddd" stroke-width="1" opacity="1"/><line transform="translate(546,-300)" x2="0" y2="300" stroke="#ddd" stroke-width="1" opacity="1"/><line transform="translate(585,-300)" x2="0" y2="300" stroke="#ddd" stroke-width="1" opacity="1"/><line transform="translate(624,-300)" x2="0" y2="300" stroke="#ddd" stroke-width="1" opacity="1"/><line transform="translate(663,-300)" x2="0" y2="300" stroke="#ddd" stroke-width="1" opacity="1"/><line transform="translate(702,-300)" x2="0" y2="300" stroke="#ddd" stroke-width="1" opacity="1"/><line transform="translate(741,-300)" x2="0" y2="300" stroke="#ddd" stroke-width="1" opacity="1"/><line transform="translate(780,-300)" x2="0" y2="300" stroke="#ddd" stroke-width="1" opacity="1"/></g></g><path class="foreground" aria-hidden="true" d="" pointer-events="none" display="none"/></g></g><g class="mark-group role-axis" aria-hidden="true"><g transform="translate(0.5,0.5)"><path class="background" aria-hidden="true" d="M0,0h0v0h0Z" pointer-events="none"/><g><g class="mark-rule role-axis-grid" pointer-events="none"><line transform="translate(0,300)" x2="800" y2="0" stroke="#ddd" stroke-width="1" opacity="1"/><line transform="translate(0,270)" x2="800" y2="0" stroke="#ddd" stroke-width="1" opacity="1"/><line transform="translate(0,240)" x2="800" y2="0" stroke="#ddd" stroke-width="1" opacity="1"/><line transform="translate(0,210)" x2="800" y2="0" stroke="#ddd" stroke-width="1" opacity="1"/><line transform="translate(0,180)" x2="800" y2="0" stroke="#ddd" stroke-width="1" opacity="1"/><line transform="translate(0,150)" x2="800" y2="0" stroke="#ddd" stroke-width="1" opacity="1"/><line transform="translate(0,120)" x2="800" y2="0" stroke="#ddd" stroke-width="1" opacity="1"/><line transform="translate(0,90)" x2="800" y2="0" stroke="#ddd" stroke-width="1" opacity="1"/><line transform="translate(0,60)" x2="800" y2="0" stroke="#ddd" stroke-width="1" opacity="1"/><line transform="translate(0,30)" x2="800" y2="0" stroke="#ddd" stroke-width="1" opacity="1"/><line transform="translate(0,0)" x2="800" y2="0" stroke="#ddd" stroke-width="1" opacity="1"/></g></g><path class="foreground" aria-hidden="true" d="" pointer-events="none" display="none"/></g></g><g class="mark-group role-axis" role="graphics-symbol" aria-roledescription="axis" aria-label="X-axis titled 'Date' for a time scale with values from Monday, 16 March 2026, 12:00:00 AM to Sunday, 26 April 2026, 12:00:00 AM"><g transform="translate(0.5,300.5)"><path class="background" aria-hidden="true" d="M0,0h0v0h0Z" pointer-events="none"/><g><g class="mark-rule role-axis-tick" pointer-events="none"><line transform="translate(20,0)" x2="0" y2="5" stroke="#888" stroke-width="1" opacity="1"/><line transform="translate(59,0)" x2="0" y2="5" stroke="#888" stroke-width="1" opacity="1"/><line transform="translate(98,0)" x2="0" y2="5" stroke="#888" stroke-width="1" opacity="1"/><line transform="translate(137,0)" x2="0" y2="5" stroke="#888" stroke-width="1" opacity="1"/><line transform="translate(176,0)" x2="0" y2="5" stroke="#888" stroke-width="1" opacity="1"/><line transform="translate(215,0)" x2="0" y2="5" stroke="#888" stroke-width="1" opacity="1"/><line transform="translate(254,0)" x2="0" y2="5" stroke="#888" stroke-width="1" opacity="1"/><line transform="translate(293,0)" x2="0" y2="5" stroke="#888" stroke-width="1" opacity="1"/><line transform="translate(312,0)" x2="0" y2="5" stroke="#888" stroke-width="1" opacity="1"/><line transform="translate(351,0)" x2="0" y2="5" stroke="#888" stroke-width="1" opacity="1"/><line transform="translate(390,0)" x2="0" y2="5" stroke="#888" stroke-width="1" opacity="1"/><line transform="translate(429,0)" x2="0" y2="5" stroke="#888" stroke-width="1" opacity="1"/><line transform="translate(468,0)" x2="0" y2="5" stroke="#888" stroke-width="1" opacity="1"/><line transform="translate(507,0)" x2="0" y2="5" stroke="#888" stroke-width="1" opacity="1"/><line transform="translate(546,0)" x2="0" y2="5" stroke="#888" stroke-width="1" opacity="1"/><line transform="translate(585,0)" x2="0" y2="5" stroke="#888" stroke-width="1" opacity="1"/><line transform="translate(624,0)" x2="0" y2="5" stroke="#888" stroke-width="1" opacity="1"/><line transform="translate(663,0)" x2="0" y2="5" stroke="#888" stroke-width="1" opacity="1"/><line transform="translate(702,0)" x2="0" y2="5" stroke="#888" stroke-width="1" opacity="1"/><line transform="translate(741,0)" x2="0" y2="5" stroke="#888" stroke-width="1" opacity="1"/><line transform="translate(780,0)" x2="0" y2="5" stroke="#888" stroke-width="1" opacity="1"/></g><g class="mark-text role-axis-label" pointer-events="none"><text text-anchor="middle" transform="translate(19.51219512195122,15)" font-family="sans-serif" font-size="10px" fill="#000" opacity="1">Tue 17</text><text text-anchor="middle" transform="translate(58.536585365853654,15)" font-family="sans-serif" font-size="10px" fill="#000" opacity="0">Thu 19</text><text text-anchor="middle" transform="translate(97.5609756097561,15)" font-family="sans-serif" font-size="10px" fill="#000" opacity="1">Sat 21</text><text text-anchor="middle" transform="translate(136.58536585365854,15)" font-family="sans-serif" font-size="10px" fill="#000" opacity="0">Mon 23</text><text text-anchor="middle" transform="translate(175.609756097561,15)" font-family="sans-serif" font-size="10px" fill="#000" opacity="1">Wed 25</text><text text-anchor="middle" transform="translate(214.63414634146343,15)" font-family="sans-serif" font-size="10px" fill="#000" opacity="0">Fri 27</text><text text-anchor="middle" transform="translate(253.65853658536585,15)" font-family="sans-serif" font-size="10px" fill="#000" opacity="1">Mar 29</text><text text-anchor="middle" transform="translate(292.6829268292683,15)" font-family="sans-serif" font-size="10px" fill="#000" opacity="0">Tue 31</text><text text-anchor="middle" transform="translate(312.1951219512195,15)" font-family="sans-serif" font-size="10px" fill="#000" opacity="1">April</text><text text-anchor="middle" transform="translate(351.219512195122,15)" font-family="sans-serif" font-size="10px" fill="#000" opacity="0">Fri 03</text><text text-anchor="middle" transform="translate(390.2439024390244,15)" font-family="sans-serif" font-size="10px" fill="#000" opacity="1">Apr 05</text><text text-anchor="middle" transform="translate(429.26829268292687,15)" font-family="sans-serif" font-size="10px" fill="#000" opacity="0">Tue 07</text><text text-anchor="middle" transform="translate(468.29268292682923,15)" font-family="sans-serif" font-size="10px" fill="#000" opacity="1">Thu 09</text><text text-anchor="middle" transform="translate(507.3170731707317,15)" font-family="sans-serif" font-size="10px" fill="#000" opacity="0">Sat 11</text><text text-anchor="middle" transform="translate(546.3414634146342,15)" font-family="sans-serif" font-size="10px" fill="#000" opacity="1">Mon 13</text><text text-anchor="middle" transform="translate(585.3658536585366,15)" font-family="sans-serif" font-size="10px" fill="#000" opacity="0">Wed 15</text><text text-anchor="middle" transform="translate(624.390243902439,15)" font-family="sans-serif" font-size="10px" fill="#000" opacity="1">Fri 17</text><text text-anchor="middle" transform="translate(663.4146341463414,15)" font-family="sans-serif" font-size="10px" fill="#000" opacity="0">Apr 19</text><text text-anchor="middle" transform="translate(702.439024390244,15)" font-family="sans-serif" font-size="10px" fill="#000" opacity="1">Tue 21</text><text text-anchor="middle" transform="translate(741.4634146341464,15)" font-family="sans-serif" font-size="10px" fill="#000" opacity="0">Thu 23</text><text text-anchor="middle" transform="translate(780.4878048780488,15)" font-family="sans-serif" font-size="10px" fill="#000" opacity="1">Sat 25</text></g><g class="mark-rule role-axis-domain" pointer-events="none"><line transform="translate(0,0)" x2="800" y2="0" stroke="#888" stroke-width="1" opacity="1"/></g><g class="mark-text role-axis-title" pointer-events="none"><text text-anchor="middle" transform="translate(400,30)" font-family="sans-serif" font-size="11px" font-weight="bold" fill="#000" opacity="1">Date</text></g></g><path class="foreground" aria-hidden="true" d="" pointer-events="none" display="none"/></g></g><g class="mark-group role-axis" role="graphics-symbol" aria-roledescription="axis" aria-label="Y-axis titled 'Unique Clones/day' for a linear scale with values from 0 to 100"><g transform="translate(0.5,0.5)"><path class="background" aria-hidden="true" d="M0,0h0v0h0Z" pointer-events="none"/><g><g class="mark-rule role-axis-tick" pointer-events="none"><line transform="translate(0,300)" x2="-5" y2="0" stroke="#888" stroke-width="1" opacity="1"/><line transform="translate(0,270)" x2="-5" y2="0" stroke="#888" stroke-width="1" opacity="1"/><line transform="translate(0,240)" x2="-5" y2="0" stroke="#888" stroke-width="1" opacity="1"/><line transform="translate(0,210)" x2="-5" y2="0" stroke="#888" stroke-width="1" opacity="1"/><line transform="translate(0,180)" x2="-5" y2="0" stroke="#888" stroke-width="1" opacity="1"/><line transform="translate(0,150)" x2="-5" y2="0" stroke="#888" stroke-width="1" opacity="1"/><line transform="translate(0,120)" x2="-5" y2="0" stroke="#888" stroke-width="1" opacity="1"/><line transform="translate(0,90)" x2="-5" y2="0" stroke="#888" stroke-width="1" opacity="1"/><line transform="translate(0,60)" x2="-5" y2="0" stroke="#888" stroke-width="1" opacity="1"/><line transform="translate(0,30)" x2="-5" y2="0" stroke="#888" stroke-width="1" opacity="1"/><line transform="translate(0,0)" x2="-5" y2="0" stroke="#888" stroke-width="1" opacity="1"/></g><g class="mark-text role-axis-label" pointer-events="none"><text text-anchor="end" transform="translate(-7,303)" font-family="sans-serif" font-size="10px" fill="#000" opacity="1">0</text><text text-anchor="end" transform="translate(-7,273)" font-family="sans-serif" font-size="10px" fill="#000" opacity="1">10</text><text text-anchor="end" transform="translate(-7,243)" font-family="sans-serif" font-size="10px" fill="#000" opacity="1">20</text><text text-anchor="end" transform="translate(-7,213)" font-family="sans-serif" font-size="10px" fill="#000" opacity="1">30</text><text text-anchor="end" transform="translate(-7,183)" font-family="sans-serif" font-size="10px" fill="#000" opacity="1">40</text><text text-anchor="end" transform="translate(-7,153)" font-family="sans-serif" font-size="10px" fill="#000" opacity="1">50</text><text text-anchor="end" transform="translate(-7,123)" font-family="sans-serif" font-size="10px" fill="#000" opacity="1">60</text><text text-anchor="end" transform="translate(-7,93.00000000000001)" font-family="sans-serif" font-size="10px" fill="#000" opacity="1">70</text><text text-anchor="end" transform="translate(-7,62.999999999999986)" font-family="sans-serif" font-size="10px" fill="#000" opacity="1">80</text><text text-anchor="end" transform="translate(-7,32.99999999999999)" font-family="sans-serif" font-size="10px" fill="#000" opacity="1">90</text><text text-anchor="end" transform="translate(-7,3)" font-family="sans-serif" font-size="10px" fill="#000" opacity="1">100</text></g><g class="mark-rule role-axis-domain" pointer-events="none"><line transform="translate(0,300)" x2="0" y2="-300" stroke="#888" stroke-width="1" opacity="1"/></g><g class="mark-text role-axis-title" pointer-events="none"><text text-anchor="middle" transform="translate(-27.6845703125,150) rotate(-90) translate(0,-2)" font-family="sans-serif" font-size="11px" font-weight="bold" fill="#000" opacity="1">Unique Clones/day</text></g></g><path class="foreground" aria-hidden="true" d="" pointer-events="none" display="none"/></g></g><g class="mark-group role-scope pathgroup" role="graphics-object" aria-roledescription="group mark container"><g transform="translate(0,0)"><path class="background" aria-hidden="true" d="M0,0h800v300h-800Z"/><g><g class="mark-area role-mark marks" role="graphics-object" aria-roledescription="area mark container"><path aria-label="Date: Mar 16, 2026; Unique Clones/day: 0; Repository: karlmdavis/FHIR-Server" role="graphics-symbol" aria-roledescription="area mark" d="M0,297L19.512,300L39.024,300L58.537,297L78.049,300L97.561,300L117.073,300L136.585,264L156.098,294L175.61,279L195.122,252L214.634,93L234.146,162L253.659,12L273.171,201L292.683,231L312.195,246L331.707,270L351.22,213L370.732,36L390.244,57L409.756,261L429.268,210L448.78,213L468.293,177L487.805,264L507.317,222L526.829,192L546.341,33L565.854,264L585.366,264L604.878,282L624.39,282L643.902,291L663.415,237L682.927,93L702.439,210L721.951,219L741.463,159L760.976,270L780.488,219L800,273L800,273L780.488,219L760.976,270L741.463,159L721.951,219L702.439,210L682.927,96L663.415,237L643.902,291L624.39,282L604.878,282L585.366,264L565.854,264L546.341,33L526.829,195L507.317,228L487.805,264L468.293,177L448.78,213L429.268,210L409.756,261L390.244,57L370.732,36L351.22,213L331.707,270L312.195,246L292.683,234L273.171,201L253.659,12L234.146,162L214.634,93L195.122,252L175.61,279L156.098,294L136.585,264L117.073,300L97.561,300L78.049,300L58.537,297L39.024,300L19.512,300L0,297Z" fill="#4c78a8"/></g></g><path class="foreground" aria-hidden="true" d="" display="none"/></g><g transform="translate(0,0)"><path class="background" aria-hidden="true" d="M0,0h800v300h-800Z"/><g><g class="mark-area role-mark marks" role="graphics-object" aria-roledescription="area mark container"><path aria-label="Date: Mar 16, 2026; Unique Clones/day: 1; Repository: karlmdavis/ansible" role="graphics-symbol" aria-roledescription="area mark" d="M0,297L19.512,300L39.024,300L58.537,297L78.049,300L97.561,300L117.073,300L136.585,264L156.098,294L175.61,279L195.122,252L214.634,93L234.146,162L253.659,12L273.171,201L292.683,234L312.195,246L331.707,270L351.22,213L370.732,36L390.244,57L409.756,261L429.268,210L448.78,213L468.293,177L487.805,264L507.317,228L526.829,195L546.341,33L565.854,264L585.366,264L604.878,282L624.39,282L643.902,291L663.415,237L682.927,96L702.439,210L721.951,219L741.463,159L760.976,270L780.488,219L800,273L800,273L780.488,219L760.976,270L741.463,159L721.951,219L702.439,210L682.927,96L663.415,237L643.902,291L624.39,282L604.878,282L585.366,264L565.854,267L546.341,33L526.829,195L507.317,228L487.805,264L468.293,177L448.78,213L429.268,210L409.756,261L390.244,57L370.732,36L351.22,213L331.707,270L312.195,246L292.683,234L273.171,201L253.659,12L234.146,162L214.634,93L195.122,252L175.61,279L156.098,294L136.585,264L117.073,300L97.561,300L78.049,300L58.537,297L39.024,300L19.512,300L0,300Z" fill="#f58518"/></g></g><path class="foreground" aria-hidden="true" d="" display="none"/></g><g transform="translate(0,0)"><path class="background" aria-hidden="true" d="M0,0h800v300h-800Z"/><g><g class="mark-area role-mark marks" role="graphics-object" aria-roledescription="area mark container"><path aria-label="Date: Mar 16, 2026; Unique Clones/day: 0; Repository: karlmdavis/ansible-jenkins" role="graphics-symbol" aria-roledescription="area mark" d="M0,300L19.512,300L39.024,300L58.537,297L78.049,300L97.561,300L117.073,300L136.585,264L156.098,294L175.61,279L195.122,252L214.634,93L234.146,162L253.659,12L273.171,201L292.683,234L312.195,246L331.707,270L351.22,213L370.732,36L390.244,57L409.756,261L429.268,210L448.78,213L468.293,177L487.805,264L507.317,228L526.829,195L546.341,33L565.854,267L585.366,264L604.878,282L624.39,282L643.902,291L663.415,237L682.927,96L702.439,210L721.951,219L741.463,159L760.976,270L780.488,219L800,273L800,273L780.488,219L760.976,270L741.463,159L721.951,219L702.439,210L682.927,96L663.415,237L643.902,291L624.39,282L604.878,282L585.366,264L565.854,267L546.341,33L526.829,198L507.317,228L487.805,264L468.293,177L448.78,213L429.268,210L409.756,261L390.244,57L370.732,39L351.22,216L331.707,270L312.195,246L292.683,234L273.171,201L253.659,12L234.146,162L214.634,93L195.122,255L175.61,279L156.098,294L136.585,264L117.073,300L97.561,300L78.049,300L58.537,297L39.024,300L19.512,300L0,300Z" fill="#e45756"/></g></g><path class="foreground" aria-hidden="true" d="" display="none"/></g><g transform="translate(0,0)"><path class="background" aria-hidden="true" d="M0,0h800v300h-800Z"/><g><g class="mark-area role-mark marks" role="graphics-object" aria-roledescription="area mark container"><path aria-label="Date: Mar 16, 2026; Unique Clones/day: 0; Repository: karlmdavis/ansible-role-acmetool" role="graphics-symbol" aria-roledescription="area mark" d="M0,300L19.512,300L39.024,300L58.537,297L78.049,300L97.561,300L117.073,300L136.585,264L156.098,294L175.61,279L195.122,255L214.634,93L234.146,162L253.659,12L273.171,201L292.683,234L312.195,246L331.707,270L351.22,216L370.732,39L390.244,57L409.756,261L429.268,210L448.78,213L468.293,177L487.805,264L507.317,228L526.829,198L546.341,33L565.854,267L585.366,264L604.878,282L624.39,282L643.902,291L663.415,237L682.927,96L702.439,210L721.951,219L741.463,159L760.976,270L780.488,219L800,273L800,273L780.488,219L760.976,270L741.463,159L721.951,219L702.439,210L682.927,96L663.415,237L643.902,291L624.39,282L604.878,282L585.366,264L565.854,267L546.341,33L526.829,201L507.317,228L487.805,264L468.293,177L448.78,213L429.268,210L409.756,261L390.244,57L370.732,39L351.22,216L331.707,270L312.195,246L292.683,234L273.171,201L253.659,12L234.146,162L214.634,93L195.122,258L175.61,279L156.098,294L136.585,264L117.073,300L97.561,300L78.049,300L58.537,297L39.024,300L19.512,300L0,300Z" fill="#72b7b2"/></g></g><path class="foreground" aria-hidden="true" d="" display="none"/></g><g transform="translate(0,0)"><path class="background" aria-hidden="true" d="M0,0h800v300h-800Z"/><g><g class="mark-area role-mark marks" role="graphics-object" aria-roledescription="area mark container"><path aria-label="Date: Mar 16, 2026; Unique Clones/day: 0; Repository: karlmdavis/ansible-role-bind-dns" role="graphics-symbol" aria-roledescription="area mark" d="M0,300L19.512,300L39.024,300L58.537,297L78.049,300L97.561,300L117.073,300L136.585,264L156.098,294L175.61,279L195.122,258L214.634,93L234.146,162L253.659,12L273.171,201L292.683,234L312.195,246L331.707,270L351.22,216L370.732,39L390.244,57L409.756,261L429.268,210L448.78,213L468.293,177L487.805,264L507.317,228L526.829,201L546.341,33L565.854,267L585.366,264L604.878,282L624.39,282L643.902,291L663.415,237L682.927,96L702.439,210L721.951,219L741.463,159L760.976,270L780.488,219L800,273L800,273L780.488,219L760.976,270L741.463,162L721.951,219L702.439,210L682.927,99L663.415,237L643.902,291L624.39,282L604.878,285L585.366,264L565.854,267L546.341,45L526.829,204L507.317,228L487.805,264L468.293,180L448.78,216L429.268,210L409.756,261L390.244,57L370.732,42L351.22,216L331.707,270L312.195,255L292.683,234L273.171,204L253.659,15L234.146,162L214.634,99L195.122,258L175.61,279L156.098,294L136.585,264L117.073,300L97.561,300L78.049,300L58.537,297L39.024,300L19.512,300L0,300Z" fill="#54a24b"/></g></g><path class="foreground" aria-hidden="true" d="" display="none"/></g><g transform="translate(0,0)"><path class="background" aria-hidden="true" d="M0,0h800v300h-800Z"/><g><g class="mark-area role-mark marks" role="graphics-object" aria-roledescription="area mark container"><path aria-label="Date: Mar 16, 2026; Unique Clones/day: 0; Repository: karlmdavis/ansible-role-jenkins2" role="graphics-symbol" aria-roledescription="area mark" d="M0,300L19.512,300L39.024,300L58.537,297L78.049,300L97.561,300L117.073,300L136.585,264L156.098,294L175.61,279L195.122,258L214.634,99L234.146,162L253.659,15L273.171,204L292.683,234L312.195,255L331.707,270L351.22,216L370.732,42L390.244,57L409.756,261L429.268,210L448.78,216L468.293,180L487.805,264L507.317,228L526.829,204L546.341,45L565.854,267L585.366,264L604.878,285L624.39,282L643.902,291L663.415,237L682.927,99L702.439,210L721.951,219L741.463,162L760.976,270L780.488,219L800,273L800,282L780.488,228L760.976,270L741.463,165L721.951,219L702.439,213L682.927,102L663.415,237L643.902,291L624.39,282L604.878,285L585.366,267L565.854,267L546.341,60L526.829,204L507.317,231L487.805,270L468.293,195L448.78,216L429.268,210L409.756,261L390.244,60L370.732,48L351.22,219L331.707,273L312.195,258L292.683,237L273.171,204L253.659,15L234.146,165L214.634,102L195.122,261L175.61,282L156.098,297L136.585,264L117.073,300L97.561,300L78.049,300L58.537,297L39.024,300L19.512,300L0,300Z" fill="#eeca3b"/></g></g><path class="foreground" aria-hidden="true" d="" display="none"/></g><g transform="translate(0,0)"><path class="background" aria-hidden="true" d="M0,0h800v300h-800Z"/><g><g class="mark-area role-mark marks" role="graphics-object" aria-roledescription="area mark container"><path aria-label="Date: Mar 16, 2026; Unique Clones/day: 0; Repository: karlmdavis/ansible-role-ldap" role="graphics-symbol" aria-roledescription="area mark" d="M0,300L19.512,300L39.024,300L58.537,297L78.049,300L97.561,300L117.073,300L136.585,264L156.098,297L175.61,282L195.122,261L214.634,102L234.146,165L253.659,15L273.171,204L292.683,237L312.195,258L331.707,273L351.22,219L370.732,48L390.244,60L409.756,261L429.268,210L448.78,216L468.293,195L487.805,270L507.317,231L526.829,204L546.341,60L565.854,267L585.366,267L604.878,285L624.39,282L643.902,291L663.415,237L682.927,102L702.439,213L721.951,219L741.463,165L760.976,270L780.488,228L800,282L800,282L780.488,228L760.976,270L741.463,165L721.951,219L702.439,213L682.927,102L663.415,237L643.902,291L624.39,282L604.878,285L585.366,267L565.854,267L546.341,63L526.829,204L507.317,231L487.805,270L468.293,195L448.78,216L429.268,210L409.756,261L390.244,60L370.732,48L351.22,219L331.707,273L312.195,258L292.683,240L273.171,204L253.659,15L234.146,165L214.634,102L195.122,261L175.61,282L156.098,297L136.585,264L117.073,300L97.561,300L78.049,300L58.537,297L39.024,300L19.512,300L0,300Z" fill="#b279a2"/></g></g><path class="foreground" aria-hidden="true" d="" display="none"/></g><g transform="translate(0,0)"><path class="background" aria-hidden="true" d="M0,0h800v300h-800Z"/><g><g class="mark-area role-mark marks" role="graphics-object" aria-roledescription="area mark container"><path aria-label="Date: Mar 16, 2026; Unique Clones/day: 0; Repository: karlmdavis/ansible-role-rcm-dotfiles" role="graphics-symbol" aria-roledescription="area mark" d="M0,300L19.512,300L39.024,300L58.537,297L78.049,300L97.561,300L117.073,300L136.585,264L156.098,297L175.61,282L195.122,261L214.634,102L234.146,165L253.659,15L273.171,204L292.683,240L312.195,258L331.707,273L351.22,219L370.732,48L390.244,60L409.756,261L429.268,210L448.78,216L468.293,195L487.805,270L507.317,231L526.829,204L546.341,63L565.854,267L585.366,267L604.878,285L624.39,282L643.902,291L663.415,237L682.927,102L702.439,213L721.951,219L741.463,165L760.976,270L780.488,228L800,282L800,282L780.488,228L760.976,270L741.463,168L721.951,219L702.439,213L682.927,105L663.415,237L643.902,291L624.39,282L604.878,285L585.366,270L565.854,267L546.341,72L526.829,207L507.317,231L487.805,270L468.293,198L448.78,216L429.268,210L409.756,261L390.244,60L370.732,51L351.22,219L331.707,273L312.195,258L292.683,240L273.171,207L253.659,18L234.146,165L214.634,108L195.122,261L175.61,282L156.098,297L136.585,264L117.073,300L97.561,300L78.049,300L58.537,297L39.024,300L19.512,300L0,300Z" fill="#ff9da6"/></g></g><path class="foreground" aria-hidden="true" d="" display="none"/></g><g transform="translate(0,0)"><path class="background" aria-hidden="true" d="M0,0h800v300h-800Z"/><g><g class="mark-area role-mark marks" role="graphics-object" aria-roledescription="area mark container"><path aria-label="Date: Mar 16, 2026; Unique Clones/day: 0; Repository: karlmdavis/ansible-roles" role="graphics-symbol" aria-roledescription="area mark" d="M0,300L19.512,300L39.024,300L58.537,297L78.049,300L97.561,300L117.073,300L136.585,264L156.098,297L175.61,282L195.122,261L214.634,108L234.146,165L253.659,18L273.171,207L292.683,240L312.195,258L331.707,273L351.22,219L370.732,51L390.244,60L409.756,261L429.268,210L448.78,216L468.293,198L487.805,270L507.317,231L526.829,207L546.341,72L565.854,267L585.366,270L604.878,285L624.39,282L643.902,291L663.415,237L682.927,105L702.439,213L721.951,219L741.463,168L760.976,270L780.488,228L800,282L800,282L780.488,228L760.976,270L741.463,168L721.951,219L702.439,213L682.927,105L663.415,237L643.902,291L624.39,282L604.878,285L585.366,270L565.854,267L546.341,72L526.829,207L507.317,234L487.805,270L468.293,198L448.78,216L429.268,210L409.756,261L390.244,60L370.732,51L351.22,219L331.707,273L312.195,258L292.683,240L273.171,210L253.659,18L234.146,165L214.634,108L195.122,264L175.61,282L156.098,297L136.585,264L117.073,300L97.561,300L78.049,300L58.537,297L39.024,300L19.512,300L0,300Z" fill="#9d755d"/></g></g><path class="foreground" aria-hidden="true" d="" display="none"/></g><g transform="translate(0,0)"><path class="background" aria-hidden="true" d="M0,0h800v300h-800Z"/><g><g class="mark-area role-mark marks" role="graphics-object" aria-roledescription="area mark container"><path aria-label="Date: Mar 16, 2026; Unique Clones/day: 0; Repository: karlmdavis/bbonfhir-dev-infra-docker" role="graphics-symbol" aria-roledescription="area mark" d="M0,300L19.512,300L39.024,300L58.537,297L78.049,300L97.561,300L117.073,300L136.585,264L156.098,297L175.61,282L195.122,264L214.634,108L234.146,165L253.659,18L273.171,210L292.683,240L312.195,258L331.707,273L351.22,219L370.732,51L390.244,60L409.756,261L429.268,210L448.78,216L468.293,198L487.805,270L507.317,234L526.829,207L546.341,72L565.854,267L585.366,270L604.878,285L624.39,282L643.902,291L663.415,237L682.927,105L702.439,213L721.951,219L741.463,168L760.976,270L780.488,228L800,282L800,282L780.488,228L760.976,273L741.463,171L721.951,222L702.439,213L682.927,108L663.415,237L643.902,291L624.39,282L604.878,285L585.366,270L565.854,267L546.341,81L526.829,210L507.317,234L487.805,270L468.293,201L448.78,216L429.268,210L409.756,261L390.244,60L370.732,54L351.22,219L331.707,273L312.195,258L292.683,240L273.171,213L253.659,18L234.146,165L214.634,111L195.122,264L175.61,285L156.098,297L136.585,264L117.073,300L97.561,300L78.049,300L58.537,297L39.024,300L19.512,300L0,300Z" fill="#bab0ac"/></g></g><path class="foreground" aria-hidden="true" d="" display="none"/></g><g transform="translate(0,0)"><path class="background" aria-hidden="true" d="M0,0h800v300h-800Z"/><g><g class="mark-area role-mark marks" role="graphics-object" aria-roledescription="area mark container"><path aria-label="Date: Mar 16, 2026; Unique Clones/day: 0; Repository: karlmdavis/can-i-kayak-baltimore" role="graphics-symbol" aria-roledescription="area mark" d="M0,300L19.512,300L39.024,300L58.537,297L78.049,300L97.561,300L117.073,300L136.585,264L156.098,297L175.61,285L195.122,264L214.634,111L234.146,165L253.659,18L273.171,213L292.683,240L312.195,258L331.707,273L351.22,219L370.732,54L390.244,60L409.756,261L429.268,210L448.78,216L468.293,201L487.805,270L507.317,234L526.829,210L546.341,81L565.854,267L585.366,270L604.878,285L624.39,282L643.902,291L663.415,237L682.927,108L702.439,213L721.951,222L741.463,171L760.976,273L780.488,228L800,282L800,282L780.488,228L760.976,273L741.463,174L721.951,222L702.439,213L682.927,111L663.415,237L643.902,291L624.39,282L604.878,285L585.366,270L565.854,267L546.341,87L526.829,213L507.317,234L487.805,270L468.293,204L448.78,216L429.268,210L409.756,261L390.244,60L370.732,57L351.22,219L331.707,273L312.195,261L292.683,240L273.171,213L253.659,18L234.146,165L214.634,120L195.122,264L175.61,285L156.098,297L136.585,264L117.073,300L97.561,300L78.049,300L58.537,297L39.024,300L19.512,300L0,300Z" fill="#4c78a8"/></g></g><path class="foreground" aria-hidden="true" d="" display="none"/></g><g transform="translate(0,0)"><path class="background" aria-hidden="true" d="M0,0h800v300h-800Z"/><g><g class="mark-area role-mark marks" role="graphics-object" aria-roledescription="area mark container"><path aria-label="Date: Mar 16, 2026; Unique Clones/day: 0; Repository: karlmdavis/datanucleus-test-jdo-1-to-n" role="graphics-symbol" aria-roledescription="area mark" d="M0,300L19.512,300L39.024,300L58.537,297L78.049,300L97.561,300L117.073,300L136.585,264L156.098,297L175.61,285L195.122,264L214.634,120L234.146,165L253.659,18L273.171,213L292.683,240L312.195,261L331.707,273L351.22,219L370.732,57L390.244,60L409.756,261L429.268,210L448.78,216L468.293,204L487.805,270L507.317,234L526.829,213L546.341,87L565.854,267L585.366,270L604.878,285L624.39,282L643.902,291L663.415,237L682.927,111L702.439,213L721.951,222L741.463,174L760.976,273L780.488,228L800,282L800,282L780.488,228L760.976,273L741.463,174L721.951,222L702.439,213L682.927,111L663.415,237L643.902,291L624.39,285L604.878,285L585.366,270L565.854,270L546.341,87L526.829,213L507.317,234L487.805,270L468.293,204L448.78,216L429.268,210L409.756,261L390.244,60L370.732,57L351.22,219L331.707,273L312.195,261L292.683,240L273.171,213L253.659,18L234.146,168L214.634,120L195.122,264L175.61,285L156.098,297L136.585,264L117.073,300L97.561,300L78.049,300L58.537,297L39.024,300L19.512,300L0,300Z" fill="#f58518"/></g></g><path class="foreground" aria-hidden="true" d="" display="none"/></g><g transform="translate(0,0)"><path class="background" aria-hidden="true" d="M0,0h800v300h-800Z"/><g><g class="mark-area role-mark marks" role="graphics-object" aria-roledescription="area mark container"><path aria-label="Date: Mar 16, 2026; Unique Clones/day: 0; Repository: karlmdavis/dotfiles" role="graphics-symbol" aria-roledescription="area mark" d="M0,300L19.512,300L39.024,300L58.537,297L78.049,300L97.561,300L117.073,300L136.585,264L156.098,297L175.61,285L195.122,264L214.634,120L234.146,168L253.659,18L273.171,213L292.683,240L312.195,261L331.707,273L351.22,219L370.732,57L390.244,60L409.756,261L429.268,210L448.78,216L468.293,204L487.805,270L507.317,234L526.829,213L546.341,87L565.854,270L585.366,270L604.878,285L624.39,285L643.902,291L663.415,237L682.927,111L702.439,213L721.951,222L741.463,174L760.976,273L780.488,228L800,282L800,285L780.488,228L760.976,276L741.463,183L721.951,249L702.439,216L682.927,156L663.415,243L643.902,291L624.39,288L604.878,288L585.366,270L565.854,270L546.341,102L526.829,213L507.317,240L487.805,270L468.293,207L448.78,219L429.268,210L409.756,261L390.244,63L370.732,60L351.22,219L331.707,276L312.195,264L292.683,243L273.171,213L253.659,18L234.146,168L214.634,126L195.122,264L175.61,285L156.098,297L136.585,267L117.073,300L97.561,300L78.049,300L58.537,297L39.024,300L19.512,300L0,300Z" fill="#e45756"/></g></g><path class="foreground" aria-hidden="true" d="" display="none"/></g><g transform="translate(0,0)"><path class="background" aria-hidden="true" d="M0,0h800v300h-800Z"/><g><g class="mark-area role-mark marks" role="graphics-object" aria-roledescription="area mark container"><path aria-label="Date: Mar 16, 2026; Unique Clones/day: 0; Repository: karlmdavis/fhir-benchmarks" role="graphics-symbol" aria-roledescription="area mark" d="M0,300L19.512,300L39.024,300L58.537,297L78.049,300L97.561,300L117.073,300L136.585,267L156.098,297L175.61,285L195.122,264L214.634,126L234.146,168L253.659,18L273.171,213L292.683,243L312.195,264L331.707,276L351.22,219L370.732,60L390.244,63L409.756,261L429.268,210L448.78,219L468.293,207L487.805,270L507.317,240L526.829,213L546.341,102L565.854,270L585.366,270L604.878,288L624.39,288L643.902,291L663.415,243L682.927,156L702.439,216L721.951,249L741.463,183L760.976,276L780.488,228L800,285L800,288L780.488,231L760.976,276L741.463,186L721.951,249L702.439,219L682.927,159L663.415,243L643.902,294L624.39,291L604.878,288L585.366,273L565.854,279L546.341,117L526.829,213L507.317,246L487.805,270L468.293,213L448.78,240L429.268,213L409.756,261L390.244,66L370.732,63L351.22,222L331.707,276L312.195,267L292.683,249L273.171,216L253.659,21L234.146,168L214.634,132L195.122,264L175.61,288L156.098,297L136.585,270L117.073,300L97.561,300L78.049,300L58.537,297L39.024,300L19.512,300L0,300Z" fill="#72b7b2"/></g></g><path class="foreground" aria-hidden="true" d="" display="none"/></g><g transform="translate(0,0)"><path class="background" aria-hidden="true" d="M0,0h800v300h-800Z"/><g><g class="mark-area role-mark marks" role="graphics-object" aria-roledescription="area mark container"><path aria-label="Date: Mar 16, 2026; Unique Clones/day: 0; Repository: karlmdavis/hapi-fhir-jpaserver-starter" role="graphics-symbol" aria-roledescription="area mark" d="M0,300L19.512,300L39.024,300L58.537,297L78.049,300L97.561,300L117.073,300L136.585,270L156.098,297L175.61,288L195.122,264L214.634,132L234.146,168L253.659,21L273.171,216L292.683,249L312.195,267L331.707,276L351.22,222L370.732,63L390.244,66L409.756,261L429.268,213L448.78,240L468.293,213L487.805,270L507.317,246L526.829,213L546.341,117L565.854,279L585.366,273L604.878,288L624.39,291L643.902,294L663.415,243L682.927,159L702.439,219L721.951,249L741.463,186L760.976,276L780.488,231L800,288L800,288L780.488,231L760.976,279L741.463,189L721.951,249L702.439,219L682.927,159L663.415,243L643.902,294L624.39,291L604.878,288L585.366,273L565.854,279L546.341,120L526.829,213L507.317,246L487.805,270L468.293,213L448.78,240L429.268,213L409.756,261L390.244,66L370.732,63L351.22,225L331.707,279L312.195,267L292.683,249L273.171,216L253.659,21L234.146,168L214.634,132L195.122,267L175.61,288L156.098,297L136.585,270L117.073,300L97.561,300L78.049,300L58.537,297L39.024,300L19.512,300L0,300Z" fill="#54a24b"/></g></g><path class="foreground" aria-hidden="true" d="" display="none"/></g><g transform="translate(0,0)"><path class="background" aria-hidden="true" d="M0,0h800v300h-800Z"/><g><g class="mark-area role-mark marks" role="graphics-object" aria-roledescription="area mark container"><path aria-label="Date: Mar 16, 2026; Unique Clones/day: 0; Repository: karlmdavis/hello-rust-actix" role="graphics-symbol" aria-roledescription="area mark" d="M0,300L19.512,300L39.024,300L58.537,297L78.049,300L97.561,300L117.073,300L136.585,270L156.098,297L175.61,288L195.122,267L214.634,132L234.146,168L253.659,21L273.171,216L292.683,249L312.195,267L331.707,279L351.22,225L370.732,63L390.244,66L409.756,261L429.268,213L448.78,240L468.293,213L487.805,270L507.317,246L526.829,213L546.341,120L565.854,279L585.366,273L604.878,288L624.39,291L643.902,294L663.415,243L682.927,159L702.439,219L721.951,249L741.463,189L760.976,279L780.488,231L800,288L800,288L780.488,231L760.976,279L741.463,192L721.951,249L702.439,219L682.927,162L663.415,243L643.902,294L624.39,291L604.878,288L585.366,273L565.854,279L546.341,126L526.829,216L507.317,246L487.805,270L468.293,216L448.78,240L429.268,213L409.756,261L390.244,66L370.732,66L351.22,225L331.707,279L312.195,267L292.683,252L273.171,216L253.659,21L234.146,168L214.634,135L195.122,267L175.61,288L156.098,297L136.585,270L117.073,300L97.561,300L78.049,300L58.537,297L39.024,300L19.512,300L0,300Z" fill="#eeca3b"/></g></g><path class="foreground" aria-hidden="true" d="" display="none"/></g><g transform="translate(0,0)"><path class="background" aria-hidden="true" d="M0,0h800v300h-800Z"/><g><g class="mark-area role-mark marks" role="graphics-object" aria-roledescription="area mark container"><path aria-label="Date: Mar 16, 2026; Unique Clones/day: 0; Repository: karlmdavis/jessentials" role="graphics-symbol" aria-roledescription="area mark" d="M0,300L19.512,300L39.024,300L58.537,297L78.049,300L97.561,300L117.073,300L136.585,270L156.098,297L175.61,288L195.122,267L214.634,135L234.146,168L253.659,21L273.171,216L292.683,252L312.195,267L331.707,279L351.22,225L370.732,66L390.244,66L409.756,261L429.268,213L448.78,240L468.293,216L487.805,270L507.317,246L526.829,216L546.341,126L565.854,279L585.366,273L604.878,288L624.39,291L643.902,294L663.415,243L682.927,162L702.439,219L721.951,249L741.463,192L760.976,279L780.488,231L800,288L800,288L780.488,231L760.976,279L741.463,195L721.951,252L702.439,219L682.927,165L663.415,246L643.902,294L624.39,291L604.878,288L585.366,273L565.854,279L546.341,132L526.829,216L507.317,249L487.805,270L468.293,222L448.78,264L429.268,213L409.756,261L390.244,66L370.732,69L351.22,225L331.707,279L312.195,267L292.683,252L273.171,219L253.659,21L234.146,168L214.634,138L195.122,267L175.61,288L156.098,297L136.585,273L117.073,300L97.561,300L78.049,300L58.537,297L39.024,300L19.512,300L0,300Z" fill="#b279a2"/></g></g><path class="foreground" aria-hidden="true" d="" display="none"/></g><g transform="translate(0,0)"><path class="background" aria-hidden="true" d="M0,0h800v300h-800Z"/><g><g class="mark-area role-mark marks" role="graphics-object" aria-roledescription="area mark container"><path aria-label="Date: Mar 16, 2026; Unique Clones/day: 0; Repository: karlmdavis/justdavis-ansible" role="graphics-symbol" aria-roledescription="area mark" d="M0,300L19.512,300L39.024,300L58.537,297L78.049,300L97.561,300L117.073,300L136.585,273L156.098,297L175.61,288L195.122,267L214.634,138L234.146,168L253.659,21L273.171,219L292.683,252L312.195,267L331.707,279L351.22,225L370.732,69L390.244,66L409.756,261L429.268,213L448.78,264L468.293,222L487.805,270L507.317,249L526.829,216L546.341,132L565.854,279L585.366,273L604.878,288L624.39,291L643.902,294L663.415,246L682.927,165L702.439,219L721.951,252L741.463,195L760.976,279L780.488,231L800,288L800,288L780.488,231L760.976,282L741.463,201L721.951,267L702.439,237L682.927,168L663.415,258L643.902,294L624.39,291L604.878,288L585.366,273L565.854,279L546.341,141L526.829,228L507.317,249L487.805,273L468.293,225L448.78,264L429.268,213L409.756,261L390.244,66L370.732,72L351.22,225L331.707,279L312.195,270L292.683,252L273.171,219L253.659,21L234.146,171L214.634,141L195.122,267L175.61,291L156.098,297L136.585,273L117.073,300L97.561,300L78.049,300L58.537,297L39.024,300L19.512,300L0,300Z" fill="#ff9da6"/></g></g><path class="foreground" aria-hidden="true" d="" display="none"/></g><g transform="translate(0,0)"><path class="background" aria-hidden="true" d="M0,0h800v300h-800Z"/><g><g class="mark-area role-mark marks" role="graphics-object" aria-roledescription="area mark container"><path aria-label="Date: Mar 16, 2026; Unique Clones/day: 0; Repository: karlmdavis/justdavis-finances" role="graphics-symbol" aria-roledescription="area mark" d="M0,300L19.512,300L39.024,300L58.537,297L78.049,300L97.561,300L117.073,300L136.585,273L156.098,297L175.61,291L195.122,267L214.634,141L234.146,171L253.659,21L273.171,219L292.683,252L312.195,270L331.707,279L351.22,225L370.732,72L390.244,66L409.756,261L429.268,213L448.78,264L468.293,225L487.805,273L507.317,249L526.829,228L546.341,141L565.854,279L585.366,273L604.878,288L624.39,291L643.902,294L663.415,258L682.927,168L702.439,237L721.951,267L741.463,201L760.976,282L780.488,231L800,288L800,288L780.488,279L760.976,285L741.463,237L721.951,294L702.439,285L682.927,243L663.415,288L643.902,294L624.39,291L604.878,288L585.366,276L565.854,285L546.341,186L526.829,279L507.317,255L487.805,273L468.293,228L448.78,267L429.268,264L409.756,285L390.244,291L370.732,243L351.22,285L331.707,282L312.195,273L292.683,255L273.171,264L253.659,276L234.146,282L214.634,234L195.122,270L175.61,294L156.098,297L136.585,273L117.073,300L97.561,300L78.049,300L58.537,297L39.024,300L19.512,300L0,300Z" fill="#9d755d"/></g></g><path class="foreground" aria-hidden="true" d="" display="none"/></g><g transform="translate(0,0)"><path class="background" aria-hidden="true" d="M0,0h800v300h-800Z"/><g><g class="mark-area role-mark marks" role="graphics-object" aria-roledescription="area mark container"><path aria-label="Date: Mar 16, 2026; Unique Clones/day: 0; Repository: karlmdavis/justdavis-karl" role="graphics-symbol" aria-roledescription="area mark" d="M0,300L19.512,300L39.024,300L58.537,297L78.049,300L97.561,300L117.073,300L136.585,273L156.098,297L175.61,294L195.122,270L214.634,234L234.146,282L253.659,276L273.171,264L292.683,255L312.195,273L331.707,282L351.22,285L370.732,243L390.244,291L409.756,285L429.268,264L448.78,267L468.293,228L487.805,273L507.317,255L526.829,279L546.341,186L565.854,285L585.366,276L604.878,288L624.39,291L643.902,294L663.415,288L682.927,243L702.439,285L721.951,294L741.463,237L760.976,285L780.488,279L800,288L800,288L780.488,279L760.976,285L741.463,240L721.951,294L702.439,285L682.927,246L663.415,288L643.902,294L624.39,291L604.878,288L585.366,276L565.854,285L546.341,195L526.829,282L507.317,258L487.805,273L468.293,234L448.78,267L429.268,264L409.756,288L390.244,291L370.732,246L351.22,285L331.707,285L312.195,273L292.683,258L273.171,267L253.659,276L234.146,285L214.634,237L195.122,270L175.61,294L156.098,297L136.585,276L117.073,300L97.561,300L78.049,300L58.537,297L39.024,300L19.512,300L0,300Z" fill="#bab0ac"/></g></g><path class="foreground" aria-hidden="true" d="" display="none"/></g><g transform="translate(0,0)"><path class="background" aria-hidden="true" d="M0,0h800v300h-800Z"/><g><g class="mark-area role-mark marks" role="graphics-object" aria-roledescription="area mark container"><path aria-label="Date: Mar 16, 2026; Unique Clones/day: 0; Repository: karlmdavis/justdavis-puppet" role="graphics-symbol" aria-roledescription="area mark" d="M0,300L19.512,300L39.024,300L58.537,297L78.049,300L97.561,300L117.073,300L136.585,276L156.098,297L175.61,294L195.122,270L214.634,237L234.146,285L253.659,276L273.171,267L292.683,258L312.195,273L331.707,285L351.22,285L370.732,246L390.244,291L409.756,288L429.268,264L448.78,267L468.293,234L487.805,273L507.317,258L526.829,282L546.341,195L565.854,285L585.366,276L604.878,288L624.39,291L643.902,294L663.415,288L682.927,246L702.439,285L721.951,294L741.463,240L760.976,285L780.488,279L800,288L800,288L780.488,279L760.976,285L741.463,243L721.951,294L702.439,285L682.927,249L663.415,288L643.902,294L624.39,291L604.878,288L585.366,276L565.854,285L546.341,201L526.829,285L507.317,261L487.805,273L468.293,237L448.78,270L429.268,264L409.756,288L390.244,291L370.732,249L351.22,285L331.707,285L312.195,273L292.683,264L273.171,270L253.659,276L234.146,285L214.634,240L195.122,270L175.61,294L156.098,297L136.585,276L117.073,300L97.561,300L78.049,300L58.537,297L39.024,300L19.512,300L0,300Z" fill="#4c78a8"/></g></g><path class="foreground" aria-hidden="true" d="" display="none"/></g><g transform="translate(0,0)"><path class="background" aria-hidden="true" d="M0,0h800v300h-800Z"/><g><g class="mark-area role-mark marks" role="graphics-object" aria-roledescription="area mark container"><path aria-label="Date: Mar 16, 2026; Unique Clones/day: 0; Repository: karlmdavis/kobjects" role="graphics-symbol" aria-roledescription="area mark" d="M0,300L19.512,300L39.024,300L58.537,297L78.049,300L97.561,300L117.073,300L136.585,276L156.098,297L175.61,294L195.122,270L214.634,240L234.146,285L253.659,276L273.171,270L292.683,264L312.195,273L331.707,285L351.22,285L370.732,249L390.244,291L409.756,288L429.268,264L448.78,270L468.293,237L487.805,273L507.317,261L526.829,285L546.341,201L565.854,285L585.366,276L604.878,288L624.39,291L643.902,294L663.415,288L682.927,249L702.439,285L721.951,294L741.463,243L760.976,285L780.488,279L800,288L800,288L780.488,279L760.976,285L741.463,246L721.951,294L702.439,285L682.927,252L663.415,288L643.902,294L624.39,291L604.878,288L585.366,276L565.854,285L546.341,207L526.829,285L507.317,264L487.805,273L468.293,243L448.78,270L429.268,264L409.756,288L390.244,291L370.732,252L351.22,285L331.707,285L312.195,273L292.683,264L273.171,270L253.659,276L234.146,285L214.634,243L195.122,273L175.61,294L156.098,297L136.585,276L117.073,300L97.561,300L78.049,300L58.537,297L39.024,300L19.512,300L0,300Z" fill="#f58518"/></g></g><path class="foreground" aria-hidden="true" d="" display="none"/></g><g transform="translate(0,0)"><path class="background" aria-hidden="true" d="M0,0h800v300h-800Z"/><g><g class="mark-area role-mark marks" role="graphics-object" aria-roledescription="area mark container"><path aria-label="Date: Mar 16, 2026; Unique Clones/day: 0; Repository: karlmdavis/ksoap2-android" role="graphics-symbol" aria-roledescription="area mark" d="M0,300L19.512,300L39.024,300L58.537,297L78.049,300L97.561,300L117.073,300L136.585,276L156.098,297L175.61,294L195.122,273L214.634,243L234.146,285L253.659,276L273.171,270L292.683,264L312.195,273L331.707,285L351.22,285L370.732,252L390.244,291L409.756,288L429.268,264L448.78,270L468.293,243L487.805,273L507.317,264L526.829,285L546.341,207L565.854,285L585.366,276L604.878,288L624.39,291L643.902,294L663.415,288L682.927,252L702.439,285L721.951,294L741.463,246L760.976,285L780.488,279L800,288L800,291L780.488,282L760.976,291L741.463,255L721.951,297L702.439,288L682.927,258L663.415,288L643.902,294L624.39,291L604.878,288L585.366,282L565.854,285L546.341,213L526.829,285L507.317,267L487.805,282L468.293,246L448.78,288L429.268,279L409.756,291L390.244,291L370.732,261L351.22,285L331.707,288L312.195,276L292.683,267L273.171,282L253.659,282L234.146,285L214.634,246L195.122,282L175.61,294L156.098,297L136.585,279L117.073,300L97.561,300L78.049,300L58.537,297L39.024,300L19.512,300L0,300Z" fill="#e45756"/></g></g><path class="foreground" aria-hidden="true" d="" display="none"/></g><g transform="translate(0,0)"><path class="background" aria-hidden="true" d="M0,0h800v300h-800Z"/><g><g class="mark-area role-mark marks" role="graphics-object" aria-roledescription="area mark container"><path aria-label="Date: Mar 16, 2026; Unique Clones/day: 0; Repository: karlmdavis/kxml2" role="graphics-symbol" aria-roledescription="area mark" d="M0,300L19.512,300L39.024,300L58.537,297L78.049,300L97.561,300L117.073,300L136.585,279L156.098,297L175.61,294L195.122,282L214.634,246L234.146,285L253.659,282L273.171,282L292.683,267L312.195,276L331.707,288L351.22,285L370.732,261L390.244,291L409.756,291L429.268,279L448.78,288L468.293,246L487.805,282L507.317,267L526.829,285L546.341,213L565.854,285L585.366,282L604.878,288L624.39,291L643.902,294L663.415,288L682.927,258L702.439,288L721.951,297L741.463,255L760.976,291L780.488,282L800,291L800,294L780.488,282L760.976,291L741.463,261L721.951,297L702.439,291L682.927,264L663.415,291L643.902,294L624.39,291L604.878,291L585.366,285L565.854,288L546.341,222L526.829,285L507.317,267L487.805,282L468.293,249L448.78,288L429.268,282L409.756,294L390.244,294L370.732,264L351.22,285L331.707,288L312.195,276L292.683,270L273.171,291L253.659,285L234.146,285L214.634,252L195.122,285L175.61,294L156.098,297L136.585,282L117.073,300L97.561,300L78.049,300L58.537,297L39.024,300L19.512,300L0,300Z" fill="#72b7b2"/></g></g><path class="foreground" aria-hidden="true" d="" display="none"/></g><g transform="translate(0,0)"><path class="background" aria-hidden="true" d="M0,0h800v300h-800Z"/><g><g class="mark-area role-mark marks" role="graphics-object" aria-roledescription="area mark container"><path aria-label="Date: Mar 16, 2026; Unique Clones/day: 0; Repository: karlmdavis/ldap-plugin" role="graphics-symbol" aria-roledescription="area mark" d="M0,300L19.512,300L39.024,300L58.537,297L78.049,300L97.561,300L117.073,300L136.585,282L156.098,297L175.61,294L195.122,285L214.634,252L234.146,285L253.659,285L273.171,291L292.683,270L312.195,276L331.707,288L351.22,285L370.732,264L390.244,294L409.756,294L429.268,282L448.78,288L468.293,249L487.805,282L507.317,267L526.829,285L546.341,222L565.854,288L585.366,285L604.878,291L624.39,291L643.902,294L663.415,291L682.927,264L702.439,291L721.951,297L741.463,261L760.976,291L780.488,282L800,294L800,294L780.488,282L760.976,291L741.463,261L721.951,297L702.439,291L682.927,264L663.415,291L643.902,294L624.39,291L604.878,291L585.366,285L565.854,288L546.341,222L526.829,285L507.317,267L487.805,282L468.293,249L448.78,288L429.268,282L409.756,294L390.244,294L370.732,264L351.22,288L331.707,291L312.195,276L292.683,270L273.171,291L253.659,285L234.146,285L214.634,252L195.122,285L175.61,294L156.098,297L136.585,282L117.073,300L97.561,300L78.049,300L58.537,297L39.024,300L19.512,300L0,300Z" fill="#54a24b"/></g></g><path class="foreground" aria-hidden="true" d="" display="none"/></g><g transform="translate(0,0)"><path class="background" aria-hidden="true" d="M0,0h800v300h-800Z"/><g><g class="mark-area role-mark marks" role="graphics-object" aria-roledescription="area mark container"><path aria-label="Date: Mar 16, 2026; Unique Clones/day: 0; Repository: karlmdavis/lego-ev3dev-rs" role="graphics-symbol" aria-roledescription="area mark" d="M0,300L19.512,300L39.024,300L58.537,297L78.049,300L97.561,300L117.073,300L136.585,282L156.098,297L175.61,294L195.122,285L214.634,252L234.146,285L253.659,285L273.171,291L292.683,270L312.195,276L331.707,291L351.22,288L370.732,264L390.244,294L409.756,294L429.268,282L448.78,288L468.293,249L487.805,282L507.317,267L526.829,285L546.341,222L565.854,288L585.366,285L604.878,291L624.39,291L643.902,294L663.415,291L682.927,264L702.439,291L721.951,297L741.463,261L760.976,291L780.488,282L800,294L800,297L780.488,288L760.976,291L741.463,264L721.951,297L702.439,294L682.927,267L663.415,291L643.902,297L624.39,294L604.878,291L585.366,288L565.854,288L546.341,231L526.829,285L507.317,273L487.805,282L468.293,255L448.78,288L429.268,285L409.756,294L390.244,297L370.732,267L351.22,291L331.707,291L312.195,279L292.683,276L273.171,291L253.659,288L234.146,288L214.634,261L195.122,285L175.61,297L156.098,297L136.585,285L117.073,300L97.561,300L78.049,300L58.537,297L39.024,300L19.512,300L0,300Z" fill="#eeca3b"/></g></g><path class="foreground" aria-hidden="true" d="" display="none"/></g><g transform="translate(0,0)"><path class="background" aria-hidden="true" d="M0,0h800v300h-800Z"/><g><g class="mark-area role-mark marks" role="graphics-object" aria-roledescription="area mark container"><path aria-label="Date: Mar 16, 2026; Unique Clones/day: 0; Repository: karlmdavis/liquibase" role="graphics-symbol" aria-roledescription="area mark" d="M0,300L19.512,300L39.024,300L58.537,297L78.049,300L97.561,300L117.073,300L136.585,285L156.098,297L175.61,297L195.122,285L214.634,261L234.146,288L253.659,288L273.171,291L292.683,276L312.195,279L331.707,291L351.22,291L370.732,267L390.244,297L409.756,294L429.268,285L448.78,288L468.293,255L487.805,282L507.317,273L526.829,285L546.341,231L565.854,288L585.366,288L604.878,291L624.39,294L643.902,297L663.415,291L682.927,267L702.439,294L721.951,297L741.463,264L760.976,291L780.488,288L800,297L800,297L780.488,288L760.976,291L741.463,264L721.951,297L702.439,294L682.927,267L663.415,291L643.902,297L624.39,294L604.878,291L585.366,288L565.854,288L546.341,231L526.829,285L507.317,273L487.805,285L468.293,258L448.78,288L429.268,285L409.756,294L390.244,297L370.732,267L351.22,291L331.707,291L312.195,279L292.683,276L273.171,291L253.659,288L234.146,288L214.634,261L195.122,285L175.61,297L156.098,297L136.585,285L117.073,300L97.561,300L78.049,300L58.537,300L39.024,300L19.512,300L0,300Z" fill="#b279a2"/></g></g><path class="foreground" aria-hidden="true" d="" display="none"/></g><g transform="translate(0,0)"><path class="background" aria-hidden="true" d="M0,0h800v300h-800Z"/><g><g class="mark-area role-mark marks" role="graphics-object" aria-roledescription="area mark container"><path aria-label="Date: Mar 16, 2026; Unique Clones/day: 0; Repository: karlmdavis/m2e-core" role="graphics-symbol" aria-roledescription="area mark" d="M0,300L19.512,300L39.024,300L58.537,300L78.049,300L97.561,300L117.073,300L136.585,285L156.098,297L175.61,297L195.122,285L214.634,261L234.146,288L253.659,288L273.171,291L292.683,276L312.195,279L331.707,291L351.22,291L370.732,267L390.244,297L409.756,294L429.268,285L448.78,288L468.293,258L487.805,285L507.317,273L526.829,285L546.341,231L565.854,288L585.366,288L604.878,291L624.39,294L643.902,297L663.415,291L682.927,267L702.439,294L721.951,297L741.463,264L760.976,291L780.488,288L800,297L800,297L780.488,288L760.976,291L741.463,267L721.951,297L702.439,294L682.927,270L663.415,291L643.902,297L624.39,294L604.878,291L585.366,288L565.854,288L546.341,237L526.829,285L507.317,276L487.805,288L468.293,264L448.78,291L429.268,288L409.756,294L390.244,297L370.732,270L351.22,291L331.707,291L312.195,279L292.683,276L273.171,291L253.659,291L234.146,288L214.634,264L195.122,285L175.61,297L156.098,297L136.585,285L117.073,300L97.561,300L78.049,300L58.537,300L39.024,300L19.512,300L0,300Z" fill="#ff9da6"/></g></g><path class="foreground" aria-hidden="true" d="" display="none"/></g><g transform="translate(0,0)"><path class="background" aria-hidden="true" d="M0,0h800v300h-800Z"/><g><g class="mark-area role-mark marks" role="graphics-object" aria-roledescription="area mark container"><path aria-label="Date: Mar 16, 2026; Unique Clones/day: 0; Repository: karlmdavis/m2e-core-tests" role="graphics-symbol" aria-roledescription="area mark" d="M0,300L19.512,300L39.024,300L58.537,300L78.049,300L97.561,300L117.073,300L136.585,285L156.098,297L175.61,297L195.122,285L214.634,264L234.146,288L253.659,291L273.171,291L292.683,276L312.195,279L331.707,291L351.22,291L370.732,270L390.244,297L409.756,294L429.268,288L448.78,291L468.293,264L487.805,288L507.317,276L526.829,285L546.341,237L565.854,288L585.366,288L604.878,291L624.39,294L643.902,297L663.415,291L682.927,270L702.439,294L721.951,297L741.463,267L760.976,291L780.488,288L800,297L800,297L780.488,288L760.976,291L741.463,267L721.951,297L702.439,294L682.927,270L663.415,291L643.902,297L624.39,294L604.878,291L585.366,288L565.854,288L546.341,237L526.829,288L507.317,276L487.805,294L468.293,267L448.78,294L429.268,291L409.756,294L390.244,297L370.732,270L351.22,291L331.707,291L312.195,285L292.683,276L273.171,291L253.659,291L234.146,291L214.634,264L195.122,288L175.61,297L156.098,297L136.585,285L117.073,300L97.561,300L78.049,300L58.537,300L39.024,300L19.512,300L0,300Z" fill="#9d755d"/></g></g><path class="foreground" aria-hidden="true" d="" display="none"/></g><g transform="translate(0,0)"><path class="background" aria-hidden="true" d="M0,0h800v300h-800Z"/><g><g class="mark-area role-mark marks" role="graphics-object" aria-roledescription="area mark container"><path aria-label="Date: Mar 16, 2026; Unique Clones/day: 0; Repository: karlmdavis/obsidian-operator" role="graphics-symbol" aria-roledescription="area mark" d="M0,300L19.512,300L39.024,300L58.537,300L78.049,300L97.561,300L117.073,300L136.585,285L156.098,297L175.61,297L195.122,288L214.634,264L234.146,291L253.659,291L273.171,291L292.683,276L312.195,285L331.707,291L351.22,291L370.732,270L390.244,297L409.756,294L429.268,291L448.78,294L468.293,267L487.805,294L507.317,276L526.829,288L546.341,237L565.854,288L585.366,288L604.878,291L624.39,294L643.902,297L663.415,291L682.927,270L702.439,294L721.951,297L741.463,267L760.976,291L780.488,288L800,297L800,297L780.488,288L760.976,291L741.463,270L721.951,297L702.439,294L682.927,273L663.415,297L643.902,297L624.39,294L604.878,291L585.366,294L565.854,291L546.341,243L526.829,291L507.317,282L487.805,294L468.293,270L448.78,294L429.268,291L409.756,294L390.244,297L370.732,273L351.22,297L331.707,291L312.195,285L292.683,285L273.171,291L253.659,291L234.146,291L214.634,267L195.122,288L175.61,297L156.098,297L136.585,288L117.073,300L97.561,300L78.049,300L58.537,300L39.024,300L19.512,300L0,300Z" fill="#bab0ac"/></g></g><path class="foreground" aria-hidden="true" d="" display="none"/></g><g transform="translate(0,0)"><path class="background" aria-hidden="true" d="M0,0h800v300h-800Z"/><g><g class="mark-area role-mark marks" role="graphics-object" aria-roledescription="area mark container"><path aria-label="Date: Mar 16, 2026; Unique Clones/day: 0; Repository: karlmdavis/perfect-note" role="graphics-symbol" aria-roledescription="area mark" d="M0,300L19.512,300L39.024,300L58.537,300L78.049,300L97.561,300L117.073,300L136.585,288L156.098,297L175.61,297L195.122,288L214.634,267L234.146,291L253.659,291L273.171,291L292.683,285L312.195,285L331.707,291L351.22,297L370.732,273L390.244,297L409.756,294L429.268,291L448.78,294L468.293,270L487.805,294L507.317,282L526.829,291L546.341,243L565.854,291L585.366,294L604.878,291L624.39,294L643.902,297L663.415,297L682.927,273L702.439,294L721.951,297L741.463,270L760.976,291L780.488,288L800,297L800,297L780.488,288L760.976,291L741.463,273L721.951,297L702.439,294L682.927,276L663.415,297L643.902,297L624.39,294L604.878,291L585.366,294L565.854,294L546.341,249L526.829,291L507.317,282L487.805,294L468.293,273L448.78,294L429.268,291L409.756,294L390.244,297L370.732,276L351.22,297L331.707,291L312.195,285L292.683,285L273.171,291L253.659,291L234.146,294L214.634,270L195.122,291L175.61,297L156.098,297L136.585,288L117.073,300L97.561,300L78.049,300L58.537,300L39.024,300L19.512,300L0,300Z" fill="#4c78a8"/></g></g><path class="foreground" aria-hidden="true" d="" display="none"/></g><g transform="translate(0,0)"><path class="background" aria-hidden="true" d="M0,0h800v300h-800Z"/><g><g class="mark-area role-mark marks" role="graphics-object" aria-roledescription="area mark container"><path aria-label="Date: Mar 16, 2026; Unique Clones/day: 0; Repository: karlmdavis/puppet-archive" role="graphics-symbol" aria-roledescription="area mark" d="M0,300L19.512,300L39.024,300L58.537,300L78.049,300L97.561,300L117.073,300L136.585,288L156.098,297L175.61,297L195.122,291L214.634,270L234.146,294L253.659,291L273.171,291L292.683,285L312.195,285L331.707,291L351.22,297L370.732,276L390.244,297L409.756,294L429.268,291L448.78,294L468.293,273L487.805,294L507.317,282L526.829,291L546.341,249L565.854,294L585.366,294L604.878,291L624.39,294L643.902,297L663.415,297L682.927,276L702.439,294L721.951,297L741.463,273L760.976,291L780.488,288L800,297L800,297L780.488,288L760.976,291L741.463,273L721.951,297L702.439,294L682.927,276L663.415,297L643.902,297L624.39,294L604.878,291L585.366,294L565.854,294L546.341,249L526.829,291L507.317,285L487.805,294L468.293,276L448.78,294L429.268,291L409.756,294L390.244,297L370.732,276L351.22,297L331.707,291L312.195,285L292.683,285L273.171,291L253.659,291L234.146,294L214.634,270L195.122,291L175.61,297L156.098,297L136.585,291L117.073,300L97.561,300L78.049,300L58.537,300L39.024,300L19.512,300L0,300Z" fill="#f58518"/></g></g><path class="foreground" aria-hidden="true" d="" display="none"/></g><g transform="translate(0,0)"><path class="background" aria-hidden="true" d="M0,0h800v300h-800Z"/><g><g class="mark-area role-mark marks" role="graphics-object" aria-roledescription="area mark container"><path aria-label="Date: Mar 16, 2026; Unique Clones/day: 0; Repository: karlmdavis/puppet-sonar" role="graphics-symbol" aria-roledescription="area mark" d="M0,300L19.512,300L39.024,300L58.537,300L78.049,300L97.561,300L117.073,300L136.585,291L156.098,297L175.61,297L195.122,291L214.634,270L234.146,294L253.659,291L273.171,291L292.683,285L312.195,285L331.707,291L351.22,297L370.732,276L390.244,297L409.756,294L429.268,291L448.78,294L468.293,276L487.805,294L507.317,285L526.829,291L546.341,249L565.854,294L585.366,294L604.878,291L624.39,294L643.902,297L663.415,297L682.927,276L702.439,294L721.951,297L741.463,273L760.976,291L780.488,288L800,297L800,297L780.488,288L760.976,291L741.463,276L721.951,297L702.439,297L682.927,276L663.415,297L643.902,297L624.39,294L604.878,291L585.366,294L565.854,297L546.341,249L526.829,291L507.317,288L487.805,294L468.293,276L448.78,297L429.268,294L409.756,294L390.244,297L370.732,276L351.22,297L331.707,294L312.195,285L292.683,291L273.171,291L253.659,291L234.146,297L214.634,270L195.122,291L175.61,297L156.098,297L136.585,291L117.073,300L97.561,300L78.049,300L58.537,300L39.024,300L19.512,300L0,300Z" fill="#e45756"/></g></g><path class="foreground" aria-hidden="true" d="" display="none"/></g><g transform="translate(0,0)"><path class="background" aria-hidden="true" d="M0,0h800v300h-800Z"/><g><g class="mark-area role-mark marks" role="graphics-object" aria-roledescription="area mark container"><path aria-label="Date: Mar 16, 2026; Unique Clones/day: 0; Repository: karlmdavis/rps-tourney" role="graphics-symbol" aria-roledescription="area mark" d="M0,300L19.512,300L39.024,300L58.537,300L78.049,300L97.561,300L117.073,300L136.585,291L156.098,297L175.61,297L195.122,291L214.634,270L234.146,297L253.659,291L273.171,291L292.683,291L312.195,285L331.707,294L351.22,297L370.732,276L390.244,297L409.756,294L429.268,294L448.78,297L468.293,276L487.805,294L507.317,288L526.829,291L546.341,249L565.854,297L585.366,294L604.878,291L624.39,294L643.902,297L663.415,297L682.927,276L702.439,297L721.951,297L741.463,276L760.976,291L780.488,288L800,297L800,297L780.488,288L760.976,291L741.463,279L721.951,297L702.439,297L682.927,279L663.415,297L643.902,297L624.39,294L604.878,291L585.366,294L565.854,297L546.341,255L526.829,291L507.317,291L487.805,294L468.293,279L448.78,297L429.268,294L409.756,294L390.244,297L370.732,279L351.22,297L331.707,297L312.195,285L292.683,291L273.171,291L253.659,291L234.146,297L214.634,273L195.122,291L175.61,297L156.098,297L136.585,294L117.073,300L97.561,300L78.049,300L58.537,300L39.024,300L19.512,300L0,300Z" fill="#72b7b2"/></g></g><path class="foreground" aria-hidden="true" d="" display="none"/></g><g transform="translate(0,0)"><path class="background" aria-hidden="true" d="M0,0h800v300h-800Z"/><g><g class="mark-area role-mark marks" role="graphics-object" aria-roledescription="area mark container"><path aria-label="Date: Mar 16, 2026; Unique Clones/day: 0; Repository: karlmdavis/sample-maven-and-rcp" role="graphics-symbol" aria-roledescription="area mark" d="M0,300L19.512,300L39.024,300L58.537,300L78.049,300L97.561,300L117.073,300L136.585,294L156.098,297L175.61,297L195.122,291L214.634,273L234.146,297L253.659,291L273.171,291L292.683,291L312.195,285L331.707,297L351.22,297L370.732,279L390.244,297L409.756,294L429.268,294L448.78,297L468.293,279L487.805,294L507.317,291L526.829,291L546.341,255L565.854,297L585.366,294L604.878,291L624.39,294L643.902,297L663.415,297L682.927,279L702.439,297L721.951,297L741.463,279L760.976,291L780.488,288L800,297L800,297L780.488,288L760.976,291L741.463,282L721.951,297L702.439,297L682.927,282L663.415,297L643.902,297L624.39,294L604.878,291L585.366,294L565.854,297L546.341,261L526.829,291L507.317,291L487.805,294L468.293,282L448.78,297L429.268,294L409.756,294L390.244,297L370.732,282L351.22,297L331.707,297L312.195,288L292.683,291L273.171,291L253.659,291L234.146,297L214.634,276L195.122,291L175.61,297L156.098,297L136.585,294L117.073,300L97.561,300L78.049,300L58.537,300L39.024,300L19.512,300L0,300Z" fill="#54a24b"/></g></g><path class="foreground" aria-hidden="true" d="" display="none"/></g><g transform="translate(0,0)"><path class="background" aria-hidden="true" d="M0,0h800v300h-800Z"/><g><g class="mark-area role-mark marks" role="graphics-object" aria-roledescription="area mark container"><path aria-label="Date: Mar 16, 2026; Unique Clones/day: 0; Repository: karlmdavis/stockfighter-trades-solutions" role="graphics-symbol" aria-roledescription="area mark" d="M0,300L19.512,300L39.024,300L58.537,300L78.049,300L97.561,300L117.073,300L136.585,294L156.098,297L175.61,297L195.122,291L214.634,276L234.146,297L253.659,291L273.171,291L292.683,291L312.195,288L331.707,297L351.22,297L370.732,282L390.244,297L409.756,294L429.268,294L448.78,297L468.293,282L487.805,294L507.317,291L526.829,291L546.341,261L565.854,297L585.366,294L604.878,291L624.39,294L643.902,297L663.415,297L682.927,282L702.439,297L721.951,297L741.463,282L760.976,291L780.488,288L800,297L800,297L780.488,294L760.976,294L741.463,285L721.951,297L702.439,297L682.927,285L663.415,297L643.902,297L624.39,294L604.878,291L585.366,294L565.854,297L546.341,270L526.829,291L507.317,291L487.805,294L468.293,285L448.78,297L429.268,294L409.756,294L390.244,297L370.732,285L351.22,297L331.707,297L312.195,288L292.683,291L273.171,291L253.659,294L234.146,297L214.634,282L195.122,291L175.61,297L156.098,297L136.585,294L117.073,300L97.561,300L78.049,300L58.537,300L39.024,300L19.512,300L0,300Z" fill="#eeca3b"/></g></g><path class="foreground" aria-hidden="true" d="" display="none"/></g><g transform="translate(0,0)"><path class="background" aria-hidden="true" d="M0,0h800v300h-800Z"/><g><g class="mark-area role-mark marks" role="graphics-object" aria-roledescription="area mark container"><path aria-label="Date: Mar 16, 2026; Unique Clones/day: 0; Repository: karlmdavis/test-repo-for-move" role="graphics-symbol" aria-roledescription="area mark" d="M0,300L19.512,300L39.024,300L58.537,300L78.049,300L97.561,300L117.073,300L136.585,294L156.098,297L175.61,297L195.122,291L214.634,282L234.146,297L253.659,294L273.171,291L292.683,291L312.195,288L331.707,297L351.22,297L370.732,285L390.244,297L409.756,294L429.268,294L448.78,297L468.293,285L487.805,294L507.317,291L526.829,291L546.341,270L565.854,297L585.366,294L604.878,291L624.39,294L643.902,297L663.415,297L682.927,285L702.439,297L721.951,297L741.463,285L760.976,294L780.488,294L800,297L800,297L780.488,294L760.976,294L741.463,288L721.951,297L702.439,297L682.927,288L663.415,297L643.902,297L624.39,294L604.878,294L585.366,294L565.854,297L546.341,276L526.829,291L507.317,291L487.805,294L468.293,288L448.78,297L429.268,294L409.756,294L390.244,297L370.732,288L351.22,297L331.707,297L312.195,288L292.683,291L273.171,291L253.659,297L234.146,297L214.634,285L195.122,294L175.61,297L156.098,297L136.585,294L117.073,300L97.561,300L78.049,300L58.537,300L39.024,300L19.512,300L0,300Z" fill="#b279a2"/></g></g><path class="foreground" aria-hidden="true" d="" display="none"/></g><g transform="translate(0,0)"><path class="background" aria-hidden="true" d="M0,0h800v300h-800Z"/><g><g class="mark-area role-mark marks" role="graphics-object" aria-roledescription="area mark container"><path aria-label="Date: Mar 16, 2026; Unique Clones/day: 0; Repository: karlmdavis/todoist-ai" role="graphics-symbol" aria-roledescription="area mark" d="M0,300L19.512,300L39.024,300L58.537,300L78.049,300L97.561,300L117.073,300L136.585,294L156.098,297L175.61,297L195.122,294L214.634,285L234.146,297L253.659,297L273.171,291L292.683,291L312.195,288L331.707,297L351.22,297L370.732,288L390.244,297L409.756,294L429.268,294L448.78,297L468.293,288L487.805,294L507.317,291L526.829,291L546.341,276L565.854,297L585.366,294L604.878,294L624.39,294L643.902,297L663.415,297L682.927,288L702.439,297L721.951,297L741.463,288L760.976,294L780.488,294L800,297L800,297L780.488,294L760.976,294L741.463,288L721.951,297L702.439,297L682.927,288L663.415,297L643.902,297L624.39,294L604.878,294L585.366,297L565.854,297L546.341,276L526.829,291L507.317,294L487.805,294L468.293,288L448.78,297L429.268,294L409.756,294L390.244,297L370.732,288L351.22,297L331.707,297L312.195,294L292.683,291L273.171,291L253.659,297L234.146,297L214.634,285L195.122,294L175.61,297L156.098,297L136.585,294L117.073,300L97.561,300L78.049,300L58.537,300L39.024,300L19.512,300L0,300Z" fill="#ff9da6"/></g></g><path class="foreground" aria-hidden="true" d="" display="none"/></g><g transform="translate(0,0)"><path class="background" aria-hidden="true" d="M0,0h800v300h-800Z"/><g><g class="mark-area role-mark marks" role="graphics-object" aria-roledescription="area mark container"><path aria-label="Date: Mar 16, 2026; Unique Clones/day: 0; Repository: karlmdavis/usgs-water-api-java" role="graphics-symbol" aria-roledescription="area mark" d="M0,300L19.512,300L39.024,300L58.537,300L78.049,300L97.561,300L117.073,300L136.585,294L156.098,297L175.61,297L195.122,294L214.634,285L234.146,297L253.659,297L273.171,291L292.683,291L312.195,294L331.707,297L351.22,297L370.732,288L390.244,297L409.756,294L429.268,294L448.78,297L468.293,288L487.805,294L507.317,294L526.829,291L546.341,276L565.854,297L585.366,297L604.878,294L624.39,294L643.902,297L663.415,297L682.927,288L702.439,297L721.951,297L741.463,288L760.976,294L780.488,294L800,297L800,300L780.488,297L760.976,297L741.463,294L721.951,300L702.439,300L682.927,294L663.415,300L643.902,300L624.39,297L604.878,300L585.366,300L565.854,300L546.341,285L526.829,300L507.317,297L487.805,297L468.293,294L448.78,300L429.268,297L409.756,300L390.244,300L370.732,294L351.22,300L331.707,300L312.195,297L292.683,294L273.171,297L253.659,300L234.146,300L214.634,291L195.122,300L175.61,300L156.098,300L136.585,300L117.073,300L97.561,300L78.049,300L58.537,300L39.024,300L19.512,300L0,300Z" fill="#9d755d"/></g></g><path class="foreground" aria-hidden="true" d="" display="none"/></g><g transform="translate(0,0)"><path class="background" aria-hidden="true" d="M0,0h800v300h-800Z"/><g><g class="mark-area role-mark marks" role="graphics-object" aria-roledescription="area mark container"><path aria-label="Date: Mar 16, 2026; Unique Clones/day: 0; Repository: karlmdavis/workstation-base-ansible-role" role="graphics-symbol" aria-roledescription="area mark" d="M0,300L19.512,300L39.024,300L58.537,300L78.049,300L97.561,300L117.073,300L136.585,300L156.098,300L175.61,300L195.122,300L214.634,291L234.146,300L253.659,300L273.171,297L292.683,294L312.195,297L331.707,300L351.22,300L370.732,294L390.244,300L409.756,300L429.268,297L448.78,300L468.293,294L487.805,297L507.317,297L526.829,300L546.341,285L565.854,300L585.366,300L604.878,300L624.39,297L643.902,300L663.415,300L682.927,294L702.439,300L721.951,300L741.463,294L760.976,297L780.488,297L800,300L800,300L780.488,297L760.976,300L741.463,297L721.951,300L702.439,300L682.927,297L663.415,300L643.902,300L624.39,297L604.878,300L585.366,300L565.854,300L546.341,294L526.829,300L507.317,300L487.805,297L468.293,297L448.78,300L429.268,297L409.756,300L390.244,300L370.732,297L351.22,300L331.707,300L312.195,300L292.683,297L273.171,300L253.659,300L234.146,300L214.634,297L195.122,300L175.61,300L156.098,300L136.585,300L117.073,300L97.561,300L78.049,300L58.537,300L39.024,300L19.512,300L0,300Z" fill="#bab0ac"/></g></g><path class="foreground" aria-hidden="true" d="" display="none"/></g><g transform="translate(0,0)"><path class="background" aria-hidden="true" d="M0,0h800v300h-800Z"/><g><g class="mark-area role-mark marks" role="graphics-object" aria-roledescription="area mark container"><path aria-label="Date: Mar 16, 2026; Unique Clones/day: 0; Repository: karlmdavis/xmlpull" role="graphics-symbol" aria-roledescription="area mark" d="M0,300L19.512,300L39.024,300L58.537,300L78.049,300L97.561,300L117.073,300L136.585,300L156.098,300L175.61,300L195.122,300L214.634,297L234.146,300L253.659,300L273.171,300L292.683,297L312.195,300L331.707,300L351.22,300L370.732,297L390.244,300L409.756,300L429.268,297L448.78,300L468.293,297L487.805,297L507.317,300L526.829,300L546.341,294L565.854,300L585.366,300L604.878,300L624.39,297L643.902,300L663.415,300L682.927,297L702.439,300L721.951,300L741.463,297L760.976,300L780.488,297L800,300L800,300L780.488,300L760.976,300L741.463,300L721.951,300L702.439,300L682.927,300L663.415,300L643.902,300L624.39,300L604.878,300L585.366,300L565.854,300L546.341,300L526.829,300L507.317,300L487.805,300L468.293,300L448.78,300L429.268,300L409.756,300L390.244,300L370.732,300L351.22,300L331.707,300L312.195,300L292.683,300L273.171,300L253.659,300L234.146,300L214.634,300L195.122,300L175.61,300L156.098,300L136.585,300L117.073,300L97.561,300L78.049,300L58.537,300L39.024,300L19.512,300L0,300Z" fill="#4c78a8"/></g></g><path class="foreground" aria-hidden="true" d="" display="none"/></g></g><g class="mark-group role-legend" role="graphics-symbol" aria-roledescription="legend" aria-label="Symbol legend titled 'Repository' for fill color with 41 values: karlmdavis/FHIR-Server, karlmdavis/ansible, karlmdavis/ansible-jenkins, karlmdavis/ansible-role-acmetool, karlmdavis/ansible-role-bind-dns, ending with karlmdavis/xmlpull"><g transform="translate(818,0)"><path class="background" aria-hidden="true" d="M0,0h176v404h-176Z" pointer-events="none"/><g><g class="mark-group role-legend-entry"><g transform="translate(0,16)"><path class="background" aria-hidden="true" d="M0,0h0v0h0Z" pointer-events="none"/><g><g class="mark-group role-scope" role="graphics-object" aria-roledescription="group mark container"><g transform="translate(0,0)"><path class="background" aria-hidden="true" d="M0,0h176v11h-176Z" pointer-events="none" opacity="1"/><g><g class="mark-symbol role-legend-symbol" pointer-events="none"><path transform="translate(6,6)" d="M5,0A5,5,0,1,1,-5,0A5,5,0,1,1,5,0" fill="#4c78a8" stroke-width="1.5" opacity="1"/></g><g class="mark-text role-legend-label" pointer-events="none"><text text-anchor="start" transform="translate(16,9)" font-family="sans-serif" font-size="10px" fill="#000" opacity="1">karlmdavis/FHIR-Server</text></g></g><path class="foreground" aria-hidden="true" d="" pointer-events="none" display="none"/></g><g transform="translate(0,13)"><path class="background" aria-hidden="true" d="M0,0h176v11h-176Z" pointer-events="none" opacity="1"/><g><g class="mark-symbol role-legend-symbol" pointer-events="none"><path transform="translate(6,6)" d="M5,0A5,5,0,1,1,-5,0A5,5,0,1,1,5,0" fill="#f58518" stroke-width="1.5" opacity="1"/></g><g class="mark-text role-legend-label" pointer-events="none"><text text-anchor="start" transform="translate(16,9)" font-family="sans-serif" font-size="10px" fill="#000" opacity="1">karlmdavis/ansible</text></g></g><path class="foreground" aria-hidden="true" d="" pointer-events="none" display="none"/></g><g transform="translate(0,26)"><path class="background" aria-hidden="true" d="M0,0h176v11h-176Z" pointer-events="none" opacity="1"/><g><g class="mark-symbol role-legend-symbol" pointer-events="none"><path transform="translate(6,6)" d="M5,0A5,5,0,1,1,-5,0A5,5,0,1,1,5,0" fill="#e45756" stroke-width="1.5" opacity="1"/></g><g class="mark-text role-legend-label" pointer-events="none"><text text-anchor="start" transform="translate(16,9)" font-family="sans-serif" font-size="10px" fill="#000" opacity="1">karlmdavis/ansible-jenkins</text></g></g><path class="foreground" aria-hidden="true" d="" pointer-events="none" display="none"/></g><g transform="translate(0,39)"><path class="background" aria-hidden="true" d="M0,0h176v11h-176Z" pointer-events="none" opacity="1"/><g><g class="mark-symbol role-legend-symbol" pointer-events="none"><path transform="translate(6,6)" d="M5,0A5,5,0,1,1,-5,0A5,5,0,1,1,5,0" fill="#72b7b2" stroke-width="1.5" opacity="1"/></g><g class="mark-text role-legend-label" pointer-events="none"><text text-anchor="start" transform="translate(16,9)" font-family="sans-serif" font-size="10px" fill="#000" opacity="1">karlmdavis/ansible-role-acmetool</text></g></g><path class="foreground" aria-hidden="true" d="" pointer-events="none" display="none"/></g><g transform="translate(0,52)"><path class="background" aria-hidden="true" d="M0,0h176v11h-176Z" pointer-events="none" opacity="1"/><g><g class="mark-symbol role-legend-symbol" pointer-events="none"><path transform="translate(6,6)" d="M5,0A5,5,0,1,1,-5,0A5,5,0,1,1,5,0" fill="#54a24b" stroke-width="1.5" opacity="1"/></g><g class="mark-text role-legend-label" pointer-events="none"><text text-anchor="start" transform="translate(16,9)" font-family="sans-serif" font-size="10px" fill="#000" opacity="1">karlmdavis/ansible-role-bind-dns</text></g></g><path class="foreground" aria-hidden="true" d="" pointer-events="none" display="none"/></g><g transform="translate(0,65)"><path class="background" aria-hidden="true" d="M0,0h176v11h-176Z" pointer-events="none" opacity="1"/><g><g class="mark-symbol role-legend-symbol" pointer-events="none"><path transform="translate(6,6)" d="M5,0A5,5,0,1,1,-5,0A5,5,0,1,1,5,0" fill="#eeca3b" stroke-width="1.5" opacity="1"/></g><g class="mark-text role-legend-label" pointer-events="none"><text text-anchor="start" transform="translate(16,9)" font-family="sans-serif" font-size="10px" fill="#000" opacity="1">karlmdavis/ansible-role-jenkins2</text></g></g><path class="foreground" aria-hidden="true" d="" pointer-events="none" display="none"/></g><g transform="translate(0,78)"><path class="background" aria-hidden="true" d="M0,0h176v11h-176Z" pointer-events="none" opacity="1"/><g><g class="mark-symbol role-legend-symbol" pointer-events="none"><path transform="translate(6,6)" d="M5,0A5,5,0,1,1,-5,0A5,5,0,1,1,5,0" fill="#b279a2" stroke-width="1.5" opacity="1"/></g><g class="mark-text role-legend-label" pointer-events="none"><text text-anchor="start" transform="translate(16,9)" font-family="sans-serif" font-size="10px" fill="#000" opacity="1">karlmdavis/ansible-role-ldap</text></g></g><path class="foreground" aria-hidden="true" d="" pointer-events="none" display="none"/></g><g transform="translate(0,91)"><path class="background" aria-hidden="true" d="M0,0h176v11h-176Z" pointer-events="none" opacity="1"/><g><g class="mark-symbol role-legend-symbol" pointer-events="none"><path transform="translate(6,6)" d="M5,0A5,5,0,1,1,-5,0A5,5,0,1,1,5,0" fill="#ff9da6" stroke-width="1.5" opacity="1"/></g><g class="mark-text role-legend-label" pointer-events="none"><text text-anchor="start" transform="translate(16,9)" font-family="sans-serif" font-size="10px" fill="#000" opacity="1">karlmdavis/ansible-role-rcm-dotfiles</text></g></g><path class="foreground" aria-hidden="true" d="" pointer-events="none" display="none"/></g><g transform="translate(0,104)"><path class="background" aria-hidden="true" d="M0,0h176v11h-176Z" pointer-events="none" opacity="1"/><g><g class="mark-symbol role-legend-symbol" pointer-events="none"><path transform="translate(6,6)" d="M5,0A5,5,0,1,1,-5,0A5,5,0,1,1,5,0" fill="#9d755d" stroke-width="1.5" opacity="1"/></g><g class="mark-text role-legend-label" pointer-events="none"><text text-anchor="start" transform="translate(16,9)" font-family="sans-serif" font-size="10px" fill="#000" opacity="1">karlmdavis/ansible-roles</text></g></g><path class="foreground" aria-hidden="true" d="" pointer-events="none" display="none"/></g><g transform="translate(0,117)"><path class="background" aria-hidden="true" d="M0,0h176v11h-176Z" pointer-events="none" opacity="1"/><g><g class="mark-symbol role-legend-symbol" pointer-events="none"><path transform="translate(6,6)" d="M5,0A5,5,0,1,1,-5,0A5,5,0,1,1,5,0" fill="#bab0ac" stroke-width="1.5" opacity="1"/></g><g class="mark-text role-legend-label" pointer-events="none"><text text-anchor="start" transform="translate(16,9)" font-family="sans-serif" font-size="10px" fill="#000" opacity="1">karlmdavis/bbonfhir-dev-infra-doc…</text></g></g><path class="foreground" aria-hidden="true" d="" pointer-events="none" display="none"/></g><g transform="translate(0,130)"><path class="background" aria-hidden="true" d="M0,0h176v11h-176Z" pointer-events="none" opacity="1"/><g><g class="mark-symbol role-legend-symbol" pointer-events="none"><path transform="translate(6,6)" d="M5,0A5,5,0,1,1,-5,0A5,5,0,1,1,5,0" fill="#4c78a8" stroke-width="1.5" opacity="1"/></g><g class="mark-text role-legend-label" pointer-events="none"><text text-anchor="start" transform="translate(16,9)" font-family="sans-serif" font-size="10px" fill="#000" opacity="1">karlmdavis/can-i-kayak-baltimore</text></g></g><path class="foreground" aria-hidden="true" d="" pointer-events="none" display="none"/></g><g transform="translate(0,143)"><path class="background" aria-hidden="true" d="M0,0h176v11h-176Z" pointer-events="none" opacity="1"/><g><g class="mark-symbol role-legend-symbol" pointer-events="none"><path transform="translate(6,6)" d="M5,0A5,5,0,1,1,-5,0A5,5,0,1,1,5,0" fill="#f58518" stroke-width="1.5" opacity="1"/></g><g class="mark-text role-legend-label" pointer-events="none"><text text-anchor="start" transform="translate(16,9)" font-family="sans-serif" font-size="10px" fill="#000" opacity="1">karlmdavis/datanucleus-test-jdo-1…</text></g></g><path class="foreground" aria-hidden="true" d="" pointer-events="none" display="none"/></g><g transform="translate(0,156)"><path class="background" aria-hidden="true" d="M0,0h176v11h-176Z" pointer-events="none" opacity="1"/><g><g class="mark-symbol role-legend-symbol" pointer-events="none"><path transform="translate(6,6)" d="M5,0A5,5,0,1,1,-5,0A5,5,0,1,1,5,0" fill="#e45756" stroke-width="1.5" opacity="1"/></g><g class="mark-text role-legend-label" pointer-events="none"><text text-anchor="start" transform="translate(16,9)" font-family="sans-serif" font-size="10px" fill="#000" opacity="1">karlmdavis/dotfiles</text></g></g><path class="foreground" aria-hidden="true" d="" pointer-events="none" display="none"/></g><g transform="translate(0,169)"><path class="background" aria-hidden="true" d="M0,0h176v11h-176Z" pointer-events="none" opacity="1"/><g><g class="mark-symbol role-legend-symbol" pointer-events="none"><path transform="translate(6,6)" d="M5,0A5,5,0,1,1,-5,0A5,5,0,1,1,5,0" fill="#72b7b2" stroke-width="1.5" opacity="1"/></g><g class="mark-text role-legend-label" pointer-events="none"><text text-anchor="start" transform="translate(16,9)" font-family="sans-serif" font-size="10px" fill="#000" opacity="1">karlmdavis/fhir-benchmarks</text></g></g><path class="foreground" aria-hidden="true" d="" pointer-events="none" display="none"/></g><g transform="translate(0,182)"><path class="background" aria-hidden="true" d="M0,0h176v11h-176Z" pointer-events="none" opacity="1"/><g><g class="mark-symbol role-legend-symbol" pointer-events="none"><path transform="translate(6,6)" d="M5,0A5,5,0,1,1,-5,0A5,5,0,1,1,5,0" fill="#54a24b" stroke-width="1.5" opacity="1"/></g><g class="mark-text role-legend-label" pointer-events="none"><text text-anchor="start" transform="translate(16,9)" font-family="sans-serif" font-size="10px" fill="#000" opacity="1">karlmdavis/hapi-fhir-jpaserver-sta…</text></g></g><path class="foreground" aria-hidden="true" d="" pointer-events="none" display="none"/></g><g transform="translate(0,195)"><path class="background" aria-hidden="true" d="M0,0h176v11h-176Z" pointer-events="none" opacity="1"/><g><g class="mark-symbol role-legend-symbol" pointer-events="none"><path transform="translate(6,6)" d="M5,0A5,5,0,1,1,-5,0A5,5,0,1,1,5,0" fill="#eeca3b" stroke-width="1.5" opacity="1"/></g><g class="mark-text role-legend-label" pointer-events="none"><text text-anchor="start" transform="translate(16,9)" font-family="sans-serif" font-size="10px" fill="#000" opacity="1">karlmdavis/hello-rust-actix</text></g></g><path class="foreground" aria-hidden="true" d="" pointer-events="none" display="none"/></g><g transform="translate(0,208)"><path class="background" aria-hidden="true" d="M0,0h176v11h-176Z" pointer-events="none" opacity="1"/><g><g class="mark-symbol role-legend-symbol" pointer-events="none"><path transform="translate(6,6)" d="M5,0A5,5,0,1,1,-5,0A5,5,0,1,1,5,0" fill="#b279a2" stroke-width="1.5" opacity="1"/></g><g class="mark-text role-legend-label" pointer-events="none"><text text-anchor="start" transform="translate(16,9)" font-family="sans-serif" font-size="10px" fill="#000" opacity="1">karlmdavis/jessentials</text></g></g><path class="foreground" aria-hidden="true" d="" pointer-events="none" display="none"/></g><g transform="translate(0,221)"><path class="background" aria-hidden="true" d="M0,0h176v11h-176Z" pointer-events="none" opacity="1"/><g><g class="mark-symbol role-legend-symbol" pointer-events="none"><path transform="translate(6,6)" d="M5,0A5,5,0,1,1,-5,0A5,5,0,1,1,5,0" fill="#ff9da6" stroke-width="1.5" opacity="1"/></g><g class="mark-text role-legend-label" pointer-events="none"><text text-anchor="start" transform="translate(16,9)" font-family="sans-serif" font-size="10px" fill="#000" opacity="1">karlmdavis/justdavis-ansible</text></g></g><path class="foreground" aria-hidden="true" d="" pointer-events="none" display="none"/></g><g transform="translate(0,234)"><path class="background" aria-hidden="true" d="M0,0h176v11h-176Z" pointer-events="none" opacity="1"/><g><g class="mark-symbol role-legend-symbol" pointer-events="none"><path transform="translate(6,6)" d="M5,0A5,5,0,1,1,-5,0A5,5,0,1,1,5,0" fill="#9d755d" stroke-width="1.5" opacity="1"/></g><g class="mark-text role-legend-label" pointer-events="none"><text text-anchor="start" transform="translate(16,9)" font-family="sans-serif" font-size="10px" fill="#000" opacity="1">karlmdavis/justdavis-finances</text></g></g><path class="foreground" aria-hidden="true" d="" pointer-events="none" display="none"/></g><g transform="translate(0,247)"><path class="background" aria-hidden="true" d="M0,0h176v11h-176Z" pointer-events="none" opacity="1"/><g><g class="mark-symbol role-legend-symbol" pointer-events="none"><path transform="translate(6,6)" d="M5,0A5,5,0,1,1,-5,0A5,5,0,1,1,5,0" fill="#bab0ac" stroke-width="1.5" opacity="1"/></g><g class="mark-text role-legend-label" pointer-events="none"><text text-anchor="start" transform="translate(16,9)" font-family="sans-serif" font-size="10px" fill="#000" opacity="1">karlmdavis/justdavis-karl</text></g></g><path class="foreground" aria-hidden="true" d="" pointer-events="none" display="none"/></g><g transform="translate(0,260)"><path class="background" aria-hidden="true" d="M0,0h176v11h-176Z" pointer-events="none" opacity="1"/><g><g class="mark-symbol role-legend-symbol" pointer-events="none"><path transform="translate(6,6)" d="M5,0A5,5,0,1,1,-5,0A5,5,0,1,1,5,0" fill="#4c78a8" stroke-width="1.5" opacity="1"/></g><g class="mark-text role-legend-label" pointer-events="none"><text text-anchor="start" transform="translate(16,9)" font-family="sans-serif" font-size="10px" fill="#000" opacity="1">karlmdavis/justdavis-puppet</text></g></g><path class="foreground" aria-hidden="true" d="" pointer-events="none" display="none"/></g><g transform="translate(0,273)"><path class="background" aria-hidden="true" d="M0,0h176v11h-176Z" pointer-events="none" opacity="1"/><g><g class="mark-symbol role-legend-symbol" pointer-events="none"><path transform="translate(6,6)" d="M5,0A5,5,0,1,1,-5,0A5,5,0,1,1,5,0" fill="#f58518" stroke-width="1.5" opacity="1"/></g><g class="mark-text role-legend-label" pointer-events="none"><text text-anchor="start" transform="translate(16,9)" font-family="sans-serif" font-size="10px" fill="#000" opacity="1">karlmdavis/kobjects</text></g></g><path class="foreground" aria-hidden="true" d="" pointer-events="none" display="none"/></g><g transform="translate(0,286)"><path class="background" aria-hidden="true" d="M0,0h176v11h-176Z" pointer-events="none" opacity="1"/><g><g class="mark-symbol role-legend-symbol" pointer-events="none"><path transform="translate(6,6)" d="M5,0A5,5,0,1,1,-5,0A5,5,0,1,1,5,0" fill="#e45756" stroke-width="1.5" opacity="1"/></g><g class="mark-text role-legend-label" pointer-events="none"><text text-anchor="start" transform="translate(16,9)" font-family="sans-serif" font-size="10px" fill="#000" opacity="1">karlmdavis/ksoap2-android</text></g></g><path class="foreground" aria-hidden="true" d="" pointer-events="none" display="none"/></g><g transform="translate(0,299)"><path class="background" aria-hidden="true" d="M0,0h176v11h-176Z" pointer-events="none" opacity="1"/><g><g class="mark-symbol role-legend-symbol" pointer-events="none"><path transform="translate(6,6)" d="M5,0A5,5,0,1,1,-5,0A5,5,0,1,1,5,0" fill="#72b7b2" stroke-width="1.5" opacity="1"/></g><g class="mark-text role-legend-label" pointer-events="none"><text text-anchor="start" transform="translate(16,9)" font-family="sans-serif" font-size="10px" fill="#000" opacity="1">karlmdavis/kxml2</text></g></g><path class="foreground" aria-hidden="true" d="" pointer-events="none" display="none"/></g><g transform="translate(0,312)"><path class="background" aria-hidden="true" d="M0,0h176v11h-176Z" pointer-events="none" opacity="1"/><g><g class="mark-symbol role-legend-symbol" pointer-events="none"><path transform="translate(6,6)" d="M5,0A5,5,0,1,1,-5,0A5,5,0,1,1,5,0" fill="#54a24b" stroke-width="1.5" opacity="1"/></g><g class="mark-text role-legend-label" pointer-events="none"><text text-anchor="start" transform="translate(16,9)" font-family="sans-serif" font-size="10px" fill="#000" opacity="1">karlmdavis/ldap-plugin</text></g></g><path class="foreground" aria-hidden="true" d="" pointer-events="none" display="none"/></g><g transform="translate(0,325)"><path class="background" aria-hidden="true" d="M0,0h176v11h-176Z" pointer-events="none" opacity="1"/><g><g class="mark-symbol role-legend-symbol" pointer-events="none"><path transform="translate(6,6)" d="M5,0A5,5,0,1,1,-5,0A5,5,0,1,1,5,0" fill="#eeca3b" stroke-width="1.5" opacity="1"/></g><g class="mark-text role-legend-label" pointer-events="none"><text text-anchor="start" transform="translate(16,9)" font-family="sans-serif" font-size="10px" fill="#000" opacity="1">karlmdavis/lego-ev3dev-rs</text></g></g><path class="foreground" aria-hidden="true" d="" pointer-events="none" display="none"/></g><g transform="translate(0,338)"><path class="background" aria-hidden="true" d="M0,0h176v11h-176Z" pointer-events="none" opacity="1"/><g><g class="mark-symbol role-legend-symbol" pointer-events="none"><path transform="translate(6,6)" d="M5,0A5,5,0,1,1,-5,0A5,5,0,1,1,5,0" fill="#b279a2" stroke-width="1.5" opacity="1"/></g><g class="mark-text role-legend-label" pointer-events="none"><text text-anchor="start" transform="translate(16,9)" font-family="sans-serif" font-size="10px" fill="#000" opacity="1">karlmdavis/liquibase</text></g></g><path class="foreground" aria-hidden="true" d="" pointer-events="none" display="none"/></g><g transform="translate(0,351)"><path class="background" aria-hidden="true" d="M0,0h176v11h-176Z" pointer-events="none" opacity="1"/><g><g class="mark-symbol role-legend-symbol" pointer-events="none"><path transform="translate(6,6)" d="M5,0A5,5,0,1,1,-5,0A5,5,0,1,1,5,0" fill="#ff9da6" stroke-width="1.5" opacity="1"/></g><g class="mark-text role-legend-label" pointer-events="none"><text text-anchor="start" transform="translate(16,9)" font-family="sans-serif" font-size="10px" fill="#000" opacity="1">karlmdavis/m2e-core</text></g></g><path class="foreground" aria-hidden="true" d="" pointer-events="none" display="none"/></g><g transform="translate(0,364)"><path class="background" aria-hidden="true" d="M0,0h176v11h-176Z" pointer-events="none" opacity="1"/><g><g class="mark-symbol role-legend-symbol" pointer-events="none"><path transform="translate(6,6)" d="M5,0A5,5,0,1,1,-5,0A5,5,0,1,1,5,0" fill="#9d755d" stroke-width="1.5" opacity="1"/></g><g class="mark-text role-legend-label" pointer-events="none"><text text-anchor="start" transform="translate(16,9)" font-family="sans-serif" font-size="10px" fill="#000" opacity="1">karlmdavis/m2e-core-tests</text></g></g><path class="foreground" aria-hidden="true" d="" pointer-events="none" display="none"/></g><g transform="translate(0,377)"><path class="background" aria-hidden="true" d="M0,0h176v11h-176Z" pointer-events="none" opacity="1"/><g><g class="mark-symbol role-legend-symbol" pointer-events="none"><path transform="translate(6,6)" d="M5,0A5,5,0,1,1,-5,0A5,5,0,1,1,5,0" fill="#bab0ac" stroke-width="1.5" opacity="1"/></g><g class="mark-text role-legend-label" pointer-events="none"><text text-anchor="start" transform="translate(16,9)" font-family="sans-serif" font-size="10px" fill="#000" opacity="1">…12 entries</text></g></g><path class="foreground" aria-hidden="true" d="" pointer-events="none" display="none"/></g></g></g><path class="foreground" aria-hidden="true" d="" pointer-events="none" display="none"/></g></g><g class="mark-text role-legend-title" pointer-events="none"><text text-anchor="start" transform="translate(0,9)" font-family="sans-serif" font-size="11px" font-weight="bold" fill="#000" opacity="1">Repository</text></g></g><path class="foreground" aria-hidden="true" d="" pointer-events="none" display="none"/></g></g><g class="mark-group role-title"><g transform="translate(400,-22)"><path class="background" aria-hidden="true" d="M0,0h0v0h0Z" pointer-events="none"/><g><g class="mark-text role-title-text" role="graphics-symbol" aria-roledescription="title" aria-label="Title text 'Unique Clones per Day'" pointer-events="none"><text text-anchor="middle" transform="translate(0,10)" font-family="sans-serif" font-size="13px" font-weight="bold" fill="#000" opacity="1">Unique Clones per Day</text></g></g><path class="foreground" aria-hidden="true" d="" pointer-events="none" display="none"/></g></g></g><path class="foreground" aria-hidden="true" d="" display="none"/></g></g></g></svg>