<svg xmlns="http://www.w3.org/2000/svg" xmlns:xlink="http://www.w3.org/1999/xlink" version="1.1" class="marks" width="1032" height="436" viewBox="0 0 1032 436"><rect width="1032" height="436" fill="white"/><g fill="none" stroke-miterlimit="10" transform="translate(33,27)"><g class="mark-group role-frame root" role="graphics-object" aria-roledescription="group mark container"><g transform="translate(0,0)"><path class="background" aria-hidden="true" d="M0.5,0.5h800v300h-800Z" stroke="#ddd"/><g><g class="mark-group role-axis" aria-hidden="true"><g transform="translate(0.5,300.5)"><path class="background" aria-hidden="true" d="M0,0h0v0h0Z" pointer-events="none"/><g><g class="mark-rule role-axis-grid" pointer-events="none"><line transform="translate(21,-300)" x2="0" y2="300" stroke="#ddd" stroke-width="1" opacity="1"/><line transform="translate(62,-300)" x2="0" y2="300" stroke="#ddd" stroke-width="1" opacity="1"/><line transform="translate(103,-300)" x2="0" y2="300" stroke="#ddd" stroke-width="1" opacity="1"/><line transform="translate(144,-300)" x2="0" y2="300" stroke="#ddd" stroke-width="1" opacity="1"/><line transform="translate(185,-300)" x2="0" y2="300" stroke="#ddd" stroke-width="1" opacity="1"/><line transform="translate(226,-300)" x2="0" y2="300" stroke="#ddd" stroke-width="1" opacity="1"/><line transform="translate(267,-300)" x2="0" y2="300" stroke="#ddd" stroke-width="1" opacity="1"/><line transform="translate(308,-300)" x2="0" y2="300" stroke="#ddd" stroke-width="1" opacity="1"/><line transform="translate(328,-300)" x2="0" y2="300" stroke="#ddd" stroke-width="1" opacity="1"/><line transform="translate(369,-300)" x2="0" y2="300" stroke="#ddd" stroke-width="1" opacity="1"/><line transform="translate(410,-300)" x2="0" y2="300" stroke="#ddd" stroke-width="1" opacity="1"/><line transform="translate(451,-300)" x2="0" y2="300" stroke="#ddd" stroke-width="1" opacity="1"/><line transform="translate(492,-300)" x2="0" y2="300" stroke="#ddd" stroke-width="1" opacity="1"/><line transform="translate(533,-300)" x2="0" y2="300" stroke="#ddd" stroke-width="1" opacity="1"/><line transform="translate(574,-300)" x2="0" y2="300" stroke="#ddd" stroke-width="1" opacity="1"/><line transform="translate(615,-300)" x2="0" y2="300" stroke="#ddd" stroke-width="1" opacity="1"/><line transform="translate(656,-300)" x2="0" y2="300" stroke="#ddd" stroke-width="1" opacity="1"/><line transform="translate(697,-300)" x2="0" y2="300" stroke="#ddd" stroke-width="1" opacity="1"/><line transform="translate(738,-300)" x2="0" y2="300" stroke="#ddd" stroke-width="1" opacity="1"/><line transform="translate(779,-300)" x2="0" y2="300" stroke="#ddd" stroke-width="1" opacity="1"/></g></g><path class="foreground" aria-hidden="true" d="" pointer-events="none" display="none"/></g></g><g class="mark-group role-axis" aria-hidden="true"><g transform="translate(0.5,0.5)"><path class="background" aria-hidden="true" d="M0,0h0v0h0Z" pointer-events="none"/><g><g class="mark-rule role-axis-grid" pointer-events="none"><line transform="translate(0,300)" x2="800" y2="0" stroke="#ddd" stroke-width="1" opacity="1"/><line transform="translate(0,257)" x2="800" y2="0" stroke="#ddd" stroke-width="1" opacity="1"/><line transform="translate(0,214)" x2="800" y2="0" stroke="#ddd" stroke-width="1" opacity="1"/><line transform="translate(0,171)" x2="800" y2="0" stroke="#ddd" stroke-width="1" opacity="1"/><line transform="translate(0,129)" x2="800" y2="0" stroke="#ddd" stroke-width="1" opacity="1"/><line transform="translate(0,86)" x2="800" y2="0" stroke="#ddd" stroke-width="1" opacity="1"/><line transform="translate(0,43)" x2="800" y2="0" stroke="#ddd" stroke-width="1" opacity="1"/><line transform="translate(0,0)" x2="800" y2="0" stroke="#ddd" stroke-width="1" opacity="1"/></g></g><path class="foreground" aria-hidden="true" d="" pointer-events="none" display="none"/></g></g><g class="mark-group role-axis" role="graphics-symbol" aria-roledescription="axis" aria-label="X-axis titled 'Date' for a time scale with values from Monday, 16 March 2026, 12:00:00 AM to Friday, 24 April 2026, 12:00:00 AM"><g transform="translate(0.5,300.5)"><path class="background" aria-hidden="true" d="M0,0h0v0h0Z" pointer-events="none"/><g><g class="mark-rule role-axis-tick" pointer-events="none"><line transform="translate(21,0)" x2="0" y2="5" stroke="#888" stroke-width="1" opacity="1"/><line transform="translate(62,0)" x2="0" y2="5" stroke="#888" stroke-width="1" opacity="1"/><line transform="translate(103,0)" x2="0" y2="5" stroke="#888" stroke-width="1" opacity="1"/><line transform="translate(144,0)" x2="0" y2="5" stroke="#888" stroke-width="1" opacity="1"/><line transform="translate(185,0)" x2="0" y2="5" stroke="#888" stroke-width="1" opacity="1"/><line transform="translate(226,0)" x2="0" y2="5" stroke="#888" stroke-width="1" opacity="1"/><line transform="translate(267,0)" x2="0" y2="5" stroke="#888" stroke-width="1" opacity="1"/><line transform="translate(308,0)" x2="0" y2="5" stroke="#888" stroke-width="1" opacity="1"/><line transform="translate(328,0)" x2="0" y2="5" stroke="#888" stroke-width="1" opacity="1"/><line transform="translate(369,0)" x2="0" y2="5" stroke="#888" stroke-width="1" opacity="1"/><line transform="translate(410,0)" x2="0" y2="5" stroke="#888" stroke-width="1" opacity="1"/><line transform="translate(451,0)" x2="0" y2="5" stroke="#888" stroke-width="1" opacity="1"/><line transform="translate(492,0)" x2="0" y2="5" stroke="#888" stroke-width="1" opacity="1"/><line transform="translate(533,0)" x2="0" y2="5" stroke="#888" stroke-width="1" opacity="1"/><line transform="translate(574,0)" x2="0" y2="5" stroke="#888" stroke-width="1" opacity="1"/><line transform="translate(615,0)" x2="0" y2="5" stroke="#888" stroke-width="1" opacity="1"/><line transform="translate(656,0)" x2="0" y2="5" stroke="#888" stroke-width="1" opacity="1"/><line transform="translate(697,0)" x2="0" y2="5" stroke="#888" stroke-width="1" opacity="1"/><line transform="translate(738,0)" x2="0" y2="5" stroke="#888" stroke-width="1" opacity="1"/><line transform="translate(779,0)" x2="0" y2="5" stroke="#888" stroke-width="1" opacity="1"/></g><g class="mark-text role-axis-label" pointer-events="none"><text text-anchor="middle" transform="translate(20.51282051282051,15)" font-family="sans-serif" font-size="10px" fill="#000" opacity="1">Tue 17</text><text text-anchor="middle" transform="translate(61.53846153846154,15)" font-family="sans-serif" font-size="10px" fill="#000" opacity="0">Thu 19</text><text text-anchor="middle" transform="translate(102.56410256410255,15)" font-family="sans-serif" font-size="10px" fill="#000" opacity="1">Sat 21</text><text text-anchor="middle" transform="translate(143.5897435897436,15)" font-family="sans-serif" font-size="10px" fill="#000" opacity="0">Mon 23</text><text text-anchor="middle" transform="translate(184.6153846153846,15)" font-family="sans-serif" font-size="10px" fill="#000" opacity="1">Wed 25</text><text text-anchor="middle" transform="translate(225.64102564102564,15)" font-family="sans-serif" font-size="10px" fill="#000" opacity="0">Fri 27</text><text text-anchor="middle" transform="translate(266.66666666666663,15)" font-family="sans-serif" font-size="10px" fill="#000" opacity="1">Mar 29</text><text text-anchor="middle" transform="translate(307.69230769230774,15)" font-family="sans-serif" font-size="10px" fill="#000" opacity="0">Tue 31</text><text text-anchor="middle" transform="translate(328.2051282051282,15)" font-family="sans-serif" font-size="10px" fill="#000" opacity="1">April</text><text text-anchor="middle" transform="translate(369.2307692307692,15)" font-family="sans-serif" font-size="10px" fill="#000" opacity="0">Fri 03</text><text text-anchor="middle" transform="translate(410.2564102564102,15)" font-family="sans-serif" font-size="10px" fill="#000" opacity="1">Apr 05</text><text text-anchor="middle" transform="translate(451.28205128205127,15)" font-family="sans-serif" font-size="10px" fill="#000" opacity="0">Tue 07</text><text text-anchor="middle" transform="translate(492.3076923076923,15)" font-family="sans-serif" font-size="10px" fill="#000" opacity="1">Thu 09</text><text text-anchor="middle" transform="translate(533.3333333333333,15)" font-family="sans-serif" font-size="10px" fill="#000" opacity="0">Sat 11</text><text text-anchor="middle" transform="translate(574.3589743589744,15)" font-family="sans-serif" font-size="10px" fill="#000" opacity="1">Mon 13</text><text text-anchor="middle" transform="translate(615.3846153846155,15)" font-family="sans-serif" font-size="10px" fill="#000" opacity="0">Wed 15</text><text text-anchor="middle" transform="translate(656.4102564102564,15)" font-family="sans-serif" font-size="10px" fill="#000" opacity="1">Fri 17</text><text text-anchor="middle" transform="translate(697.4358974358975,15)" font-family="sans-serif" font-size="10px" fill="#000" opacity="0">Apr 19</text><text text-anchor="middle" transform="translate(738.4615384615385,15)" font-family="sans-serif" font-size="10px" fill="#000" opacity="1">Tue 21</text><text text-anchor="middle" transform="translate(779.4871794871794,15)" font-family="sans-serif" font-size="10px" fill="#000" opacity="0">Thu 23</text></g><g class="mark-rule role-axis-domain" pointer-events="none"><line transform="translate(0,0)" x2="800" y2="0" stroke="#888" stroke-width="1" opacity="1"/></g><g class="mark-text role-axis-title" pointer-events="none"><text text-anchor="middle" transform="translate(400,30)" font-family="sans-serif" font-size="11px" font-weight="bold" fill="#000" opacity="1">Date</text></g></g><path class="foreground" aria-hidden="true" d="" pointer-events="none" display="none"/></g></g><g class="mark-group role-axis" role="graphics-symbol" aria-roledescription="axis" aria-label="Y-axis titled 'Unique Visitors/day' for a linear scale with values from 0 to 7"><g transform="translate(0.5,0.5)"><path class="background" aria-hidden="true" d="M0,0h0v0h0Z" pointer-events="none"/><g><g class="mark-rule role-axis-tick" pointer-events="none"><line transform="translate(0,300)" x2="-5" y2="0" stroke="#888" stroke-width="1" opacity="1"/><line transform="translate(0,257)" x2="-5" y2="0" stroke="#888" stroke-width="1" opacity="1"/><line transform="translate(0,214)" x2="-5" y2="0" stroke="#888" stroke-width="1" opacity="1"/><line transform="translate(0,171)" x2="-5" y2="0" stroke="#888" stroke-width="1" opacity="1"/><line transform="translate(0,129)" x2="-5" y2="0" stroke="#888" stroke-width="1" opacity="1"/><line transform="translate(0,86)" x2="-5" y2="0" stroke="#888" stroke-width="1" opacity="1"/><line transform="translate(0,43)" x2="-5" y2="0" stroke="#888" stroke-width="1" opacity="1"/><line transform="translate(0,0)" x2="-5" y2="0" stroke="#888" stroke-width="1" opacity="1"/></g><g class="mark-text role-axis-label" pointer-events="none"><text text-anchor="end" transform="translate(-7,303)" font-family="sans-serif" font-size="10px" fill="#000" opacity="1">0</text><text text-anchor="end" transform="translate(-7,260.14285714285717)" font-family="sans-serif" font-size="10px" fill="#000" opacity="1">1</text><text text-anchor="end" transform="translate(-7,217.28571428571428)" font-family="sans-serif" font-size="10px" fill="#000" opacity="1">2</text><text text-anchor="end" transform="translate(-7,174.42857142857142)" font-family="sans-serif" font-size="10px" fill="#000" opacity="1">3</text><text text-anchor="end" transform="translate(-7,131.57142857142858)" font-family="sans-serif" font-size="10px" fill="#000" opacity="1">4</text><text text-anchor="end" transform="translate(-7,88.71428571428571)" font-family="sans-serif" font-size="10px" fill="#000" opacity="1">5</text><text text-anchor="end" transform="translate(-7,45.85714285714287)" font-family="sans-serif" font-size="10px" fill="#000" opacity="1">6</text><text text-anchor="end" transform="translate(-7,3)" font-family="sans-serif" font-size="10px" fill="#000" opacity="1">7</text></g><g class="mark-rule role-axis-domain" pointer-events="none"><line transform="translate(0,300)" x2="0" y2="-300" stroke="#888" stroke-width="1" opacity="1"/></g><g class="mark-text role-axis-title" pointer-events="none"><text text-anchor="middle" transform="translate(-16.5615234375,150) rotate(-90) translate(0,-2)" font-family="sans-serif" font-size="11px" font-weight="bold" fill="#000" opacity="1">Unique Visitors/day</text></g></g><path class="foreground" aria-hidden="true" d="" pointer-events="none" display="none"/></g></g><g class="mark-group role-scope pathgroup" role="graphics-object" aria-roledescription="group mark container"><g transform="translate(0,0)"><path class="background" aria-hidden="true" d="M0,0h800v300h-800Z"/><g><g class="mark-area role-mark marks" role="graphics-object" aria-roledescription="area mark container"><path aria-label="Date: Mar 16, 2026; Unique Visitors/day: 0; Repository: karlmdavis/FHIR-Server" role="graphics-symbol" aria-roledescription="area mark" d="M0,300L20.513,300L41.026,300L61.538,300L82.051,300L102.564,300L123.077,300L143.59,171.429L164.103,171.429L184.615,128.571L205.128,171.429L225.641,171.429L246.154,171.429L266.667,257.143L287.179,0L307.692,257.143L328.205,128.571L348.718,257.143L369.231,300L389.744,214.286L410.256,257.143L430.769,300L451.282,257.143L471.795,257.143L492.308,257.143L512.821,214.286L533.333,300L553.846,42.857L574.359,300L594.872,257.143L615.385,171.429L635.897,300L656.41,214.286L676.923,300L697.436,257.143L717.949,171.429L738.462,171.429L758.974,171.429L779.487,214.286L800,257.143L800,257.143L779.487,214.286L758.974,171.429L738.462,171.429L717.949,171.429L697.436,257.143L676.923,300L656.41,214.286L635.897,300L615.385,171.429L594.872,257.143L574.359,300L553.846,42.857L533.333,300L512.821,214.286L492.308,257.143L471.795,257.143L451.282,257.143L430.769,300L410.256,257.143L389.744,214.286L369.231,300L348.718,257.143L328.205,128.571L307.692,257.143L287.179,0L266.667,257.143L246.154,171.429L225.641,171.429L205.128,171.429L184.615,128.571L164.103,171.429L143.59,171.429L123.077,300L102.564,300L82.051,300L61.538,300L41.026,300L20.513,300L0,300Z" fill="#4c78a8"/></g></g><path class="foreground" aria-hidden="true" d="" display="none"/></g><g transform="translate(0,0)"><path class="background" aria-hidden="true" d="M0,0h800v300h-800Z"/><g><g class="mark-area role-mark marks" role="graphics-object" aria-roledescription="area mark container"><path aria-label="Date: Mar 16, 2026; Unique Visitors/day: 0; Repository: karlmdavis/ansible" role="graphics-symbol" aria-roledescription="area mark" d="M0,300L20.513,300L41.026,300L61.538,300L82.051,300L102.564,300L123.077,300L143.59,171.429L164.103,171.429L184.615,128.571L205.128,171.429L225.641,171.429L246.154,171.429L266.667,257.143L287.179,0L307.692,257.143L328.205,128.571L348.718,257.143L369.231,300L389.744,214.286L410.256,257.143L430.769,300L451.282,257.143L471.795,257.143L492.308,257.143L512.821,214.286L533.333,300L553.846,42.857L574.359,300L594.872,257.143L615.385,171.429L635.897,300L656.41,214.286L676.923,300L697.436,257.143L717.949,171.429L738.462,171.429L758.974,171.429L779.487,214.286L800,257.143L800,257.143L779.487,214.286L758.974,171.429L738.462,171.429L717.949,171.429L697.436,257.143L676.923,300L656.41,214.286L635.897,300L615.385,171.429L594.872,257.143L574.359,300L553.846,42.857L533.333,300L512.821,214.286L492.308,257.143L471.795,257.143L451.282,257.143L430.769,300L410.256,257.143L389.744,214.286L369.231,300L348.718,257.143L328.205,128.571L307.692,257.143L287.179,0L266.667,257.143L246.154,171.429L225.641,171.429L205.128,171.429L184.615,128.571L164.103,171.429L143.59,171.429L123.077,300L102.564,300L82.051,300L61.538,300L41.026,300L20.513,300L0,300Z" fill="#f58518"/></g></g><path class="foreground" aria-hidden="true" d="" display="none"/></g><g transform="translate(0,0)"><path class="background" aria-hidden="true" d="M0,0h800v300h-800Z"/><g><g class="mark-area role-mark marks" role="graphics-object" aria-roledescription="area mark container"><path aria-label="Date: Mar 16, 2026; Unique Visitors/day: 0; Repository: karlmdavis/ansible-jenkins" role="graphics-symbol" aria-roledescription="area mark" d="M0,300L20.513,300L41.026,300L61.538,300L82.051,300L102.564,300L123.077,300L143.59,171.429L164.103,171.429L184.615,128.571L205.128,171.429L225.641,171.429L246.154,171.429L266.667,257.143L287.179,0L307.692,257.143L328.205,128.571L348.718,257.143L369.231,300L389.744,214.286L410.256,257.143L430.769,300L451.282,257.143L471.795,257.143L492.308,257.143L512.821,214.286L533.333,300L553.846,42.857L574.359,300L594.872,257.143L615.385,171.429L635.897,300L656.41,214.286L676.923,300L697.436,257.143L717.949,171.429L738.462,171.429L758.974,171.429L779.487,214.286L800,257.143L800,257.143L779.487,214.286L758.974,171.429L738.462,171.429L717.949,171.429L697.436,257.143L676.923,300L656.41,214.286L635.897,300L615.385,171.429L594.872,257.143L574.359,300L553.846,42.857L533.333,300L512.821,214.286L492.308,257.143L471.795,257.143L451.282,257.143L430.769,300L410.256,257.143L389.744,214.286L369.231,300L348.718,257.143L328.205,128.571L307.692,257.143L287.179,0L266.667,257.143L246.154,171.429L225.641,171.429L205.128,171.429L184.615,128.571L164.103,171.429L143.59,171.429L123.077,300L102.564,300L82.051,300L61.538,300L41.026,300L20.513,300L0,300Z" fill="#e45756"/></g></g><path class="foreground" aria-hidden="true" d="" display="none"/></g><g transform="translate(0,0)"><path class="background" aria-hidden="true" d="M0,0h800v300h-800Z"/><g><g class="mark-area role-mark marks" role="graphics-object" aria-roledescription="area mark container"><path aria-label="Date: Mar 16, 2026; Unique Visitors/day: 0; Repository: karlmdavis/ansible-role-acmetool" role="graphics-symbol" aria-roledescription="area mark" d="M0,300L20.513,300L41.026,300L61.538,300L82.051,300L102.564,300L123.077,300L143.59,171.429L164.103,171.429L184.615,128.571L205.128,171.429L225.641,171.429L246.154,171.429L266.667,257.143L287.179,0L307.692,257.143L328.205,128.571L348.718,257.143L369.231,300L389.744,214.286L410.256,257.143L430.769,300L451.282,257.143L471.795,257.143L492.308,257.143L512.821,214.286L533.333,300L553.846,42.857L574.359,300L594.872,257.143L615.385,171.429L635.897,300L656.41,214.286L676.923,300L697.436,257.143L717.949,171.429L738.462,171.429L758.974,171.429L779.487,214.286L800,257.143L800,257.143L779.487,214.286L758.974,171.429L738.462,171.429L717.949,171.429L697.436,257.143L676.923,300L656.41,214.286L635.897,300L615.385,171.429L594.872,257.143L574.359,300L553.846,42.857L533.333,300L512.821,214.286L492.308,257.143L471.795,257.143L451.282,257.143L430.769,300L410.256,257.143L389.744,214.286L369.231,300L348.718,257.143L328.205,128.571L307.692,257.143L287.179,0L266.667,257.143L246.154,171.429L225.641,171.429L205.128,171.429L184.615,128.571L164.103,171.429L143.59,171.429L123.077,300L102.564,300L82.051,300L61.538,300L41.026,300L20.513,300L0,300Z" fill="#72b7b2"/></g></g><path class="foreground" aria-hidden="true" d="" display="none"/></g><g transform="translate(0,0)"><path class="background" aria-hidden="true" d="M0,0h800v300h-800Z"/><g><g class="mark-area role-mark marks" role="graphics-object" aria-roledescription="area mark container"><path aria-label="Date: Mar 16, 2026; Unique Visitors/day: 0; Repository: karlmdavis/ansible-role-bind-dns" role="graphics-symbol" aria-roledescription="area mark" d="M0,300L20.513,300L41.026,300L61.538,300L82.051,300L102.564,300L123.077,300L143.59,171.429L164.103,171.429L184.615,128.571L205.128,171.429L225.641,171.429L246.154,171.429L266.667,257.143L287.179,0L307.692,257.143L328.205,128.571L348.718,257.143L369.231,300L389.744,214.286L410.256,257.143L430.769,300L451.282,257.143L471.795,257.143L492.308,257.143L512.821,214.286L533.333,300L553.846,42.857L574.359,300L594.872,257.143L615.385,171.429L635.897,300L656.41,214.286L676.923,300L697.436,257.143L717.949,171.429L738.462,171.429L758.974,171.429L779.487,214.286L800,257.143L800,257.143L779.487,214.286L758.974,171.429L738.462,171.429L717.949,171.429L697.436,300L676.923,300L656.41,214.286L635.897,300L615.385,214.286L594.872,257.143L574.359,300L553.846,42.857L533.333,300L512.821,214.286L492.308,257.143L471.795,257.143L451.282,257.143L430.769,300L410.256,257.143L389.744,257.143L369.231,300L348.718,257.143L328.205,128.571L307.692,257.143L287.179,0L266.667,257.143L246.154,214.286L225.641,171.429L205.128,171.429L184.615,171.429L164.103,171.429L143.59,171.429L123.077,300L102.564,300L82.051,300L61.538,300L41.026,300L20.513,300L0,300Z" fill="#54a24b"/></g></g><path class="foreground" aria-hidden="true" d="" display="none"/></g><g transform="translate(0,0)"><path class="background" aria-hidden="true" d="M0,0h800v300h-800Z"/><g><g class="mark-area role-mark marks" role="graphics-object" aria-roledescription="area mark container"><path aria-label="Date: Mar 16, 2026; Unique Visitors/day: 0; Repository: karlmdavis/ansible-role-jenkins2" role="graphics-symbol" aria-roledescription="area mark" d="M0,300L20.513,300L41.026,300L61.538,300L82.051,300L102.564,300L123.077,300L143.59,171.429L164.103,171.429L184.615,171.429L205.128,171.429L225.641,171.429L246.154,214.286L266.667,257.143L287.179,0L307.692,257.143L328.205,128.571L348.718,257.143L369.231,300L389.744,257.143L410.256,257.143L430.769,300L451.282,257.143L471.795,257.143L492.308,257.143L512.821,214.286L533.333,300L553.846,42.857L574.359,300L594.872,257.143L615.385,214.286L635.897,300L656.41,214.286L676.923,300L697.436,300L717.949,171.429L738.462,171.429L758.974,171.429L779.487,214.286L800,257.143L800,257.143L779.487,214.286L758.974,171.429L738.462,171.429L717.949,214.286L697.436,300L676.923,300L656.41,214.286L635.897,300L615.385,214.286L594.872,257.143L574.359,300L553.846,85.714L533.333,300L512.821,214.286L492.308,257.143L471.795,257.143L451.282,257.143L430.769,300L410.256,257.143L389.744,257.143L369.231,300L348.718,257.143L328.205,128.571L307.692,257.143L287.179,42.857L266.667,300L246.154,214.286L225.641,171.429L205.128,171.429L184.615,171.429L164.103,171.429L143.59,171.429L123.077,300L102.564,300L82.051,300L61.538,300L41.026,300L20.513,300L0,300Z" fill="#eeca3b"/></g></g><path class="foreground" aria-hidden="true" d="" display="none"/></g><g transform="translate(0,0)"><path class="background" aria-hidden="true" d="M0,0h800v300h-800Z"/><g><g class="mark-area role-mark marks" role="graphics-object" aria-roledescription="area mark container"><path aria-label="Date: Mar 16, 2026; Unique Visitors/day: 0; Repository: karlmdavis/ansible-role-ldap" role="graphics-symbol" aria-roledescription="area mark" d="M0,300L20.513,300L41.026,300L61.538,300L82.051,300L102.564,300L123.077,300L143.59,171.429L164.103,171.429L184.615,171.429L205.128,171.429L225.641,171.429L246.154,214.286L266.667,300L287.179,42.857L307.692,257.143L328.205,128.571L348.718,257.143L369.231,300L389.744,257.143L410.256,257.143L430.769,300L451.282,257.143L471.795,257.143L492.308,257.143L512.821,214.286L533.333,300L553.846,85.714L574.359,300L594.872,257.143L615.385,214.286L635.897,300L656.41,214.286L676.923,300L697.436,300L717.949,214.286L738.462,171.429L758.974,171.429L779.487,214.286L800,257.143L800,257.143L779.487,214.286L758.974,171.429L738.462,171.429L717.949,214.286L697.436,300L676.923,300L656.41,214.286L635.897,300L615.385,214.286L594.872,257.143L574.359,300L553.846,85.714L533.333,300L512.821,214.286L492.308,257.143L471.795,257.143L451.282,257.143L430.769,300L410.256,257.143L389.744,257.143L369.231,300L348.718,257.143L328.205,128.571L307.692,257.143L287.179,42.857L266.667,300L246.154,214.286L225.641,171.429L205.128,171.429L184.615,171.429L164.103,171.429L143.59,171.429L123.077,300L102.564,300L82.051,300L61.538,300L41.026,300L20.513,300L0,300Z" fill="#b279a2"/></g></g><path class="foreground" aria-hidden="true" d="" display="none"/></g><g transform="translate(0,0)"><path class="background" aria-hidden="true" d="M0,0h800v300h-800Z"/><g><g class="mark-area role-mark marks" role="graphics-object" aria-roledescription="area mark container"><path aria-label="Date: Mar 16, 2026; Unique Visitors/day: 0; Repository: karlmdavis/ansible-role-rcm-dotfiles" role="graphics-symbol" aria-roledescription="area mark" d="M0,300L20.513,300L41.026,300L61.538,300L82.051,300L102.564,300L123.077,300L143.59,171.429L164.103,171.429L184.615,171.429L205.128,171.429L225.641,171.429L246.154,214.286L266.667,300L287.179,42.857L307.692,257.143L328.205,128.571L348.718,257.143L369.231,300L389.744,257.143L410.256,257.143L430.769,300L451.282,257.143L471.795,257.143L492.308,257.143L512.821,214.286L533.333,300L553.846,85.714L574.359,300L594.872,257.143L615.385,214.286L635.897,300L656.41,214.286L676.923,300L697.436,300L717.949,214.286L738.462,171.429L758.974,171.429L779.487,214.286L800,257.143L800,257.143L779.487,214.286L758.974,171.429L738.462,214.286L717.949,214.286L697.436,300L676.923,300L656.41,214.286L635.897,300L615.385,214.286L594.872,257.143L574.359,300L553.846,85.714L533.333,300L512.821,214.286L492.308,257.143L471.795,257.143L451.282,257.143L430.769,300L410.256,257.143L389.744,257.143L369.231,300L348.718,257.143L328.205,128.571L307.692,257.143L287.179,42.857L266.667,300L246.154,214.286L225.641,171.429L205.128,171.429L184.615,171.429L164.103,171.429L143.59,171.429L123.077,300L102.564,300L82.051,300L61.538,300L41.026,300L20.513,300L0,300Z" fill="#ff9da6"/></g></g><path class="foreground" aria-hidden="true" d="" display="none"/></g><g transform="translate(0,0)"><path class="background" aria-hidden="true" d="M0,0h800v300h-800Z"/><g><g class="mark-area role-mark marks" role="graphics-object" aria-roledescription="area mark container"><path aria-label="Date: Mar 16, 2026; Unique Visitors/day: 0; Repository: karlmdavis/ansible-roles" role="graphics-symbol" aria-roledescription="area mark" d="M0,300L20.513,300L41.026,300L61.538,300L82.051,300L102.564,300L123.077,300L143.59,171.429L164.103,171.429L184.615,171.429L205.128,171.429L225.641,171.429L246.154,214.286L266.667,300L287.179,42.857L307.692,257.143L328.205,128.571L348.718,257.143L369.231,300L389.744,257.143L410.256,257.143L430.769,300L451.282,257.143L471.795,257.143L492.308,257.143L512.821,214.286L533.333,300L553.846,85.714L574.359,300L594.872,257.143L615.385,214.286L635.897,300L656.41,214.286L676.923,300L697.436,300L717.949,214.286L738.462,214.286L758.974,171.429L779.487,214.286L800,257.143L800,257.143L779.487,214.286L758.974,171.429L738.462,214.286L717.949,214.286L697.436,300L676.923,300L656.41,214.286L635.897,300L615.385,214.286L594.872,257.143L574.359,300L553.846,85.714L533.333,300L512.821,214.286L492.308,257.143L471.795,257.143L451.282,257.143L430.769,300L410.256,257.143L389.744,257.143L369.231,300L348.718,257.143L328.205,128.571L307.692,257.143L287.179,42.857L266.667,300L246.154,214.286L225.641,171.429L205.128,171.429L184.615,171.429L164.103,171.429L143.59,171.429L123.077,300L102.564,300L82.051,300L61.538,300L41.026,300L20.513,300L0,300Z" fill="#9d755d"/></g></g><path class="foreground" aria-hidden="true" d="" display="none"/></g><g transform="translate(0,0)"><path class="background" aria-hidden="true" d="M0,0h800v300h-800Z"/><g><g class="mark-area role-mark marks" role="graphics-object" aria-roledescription="area mark container"><path aria-label="Date: Mar 16, 2026; Unique Visitors/day: 0; Repository: karlmdavis/bbonfhir-dev-infra-docker" role="graphics-symbol" aria-roledescription="area mark" d="M0,300L20.513,300L41.026,300L61.538,300L82.051,300L102.564,300L123.077,300L143.59,171.429L164.103,171.429L184.615,171.429L205.128,171.429L225.641,171.429L246.154,214.286L266.667,300L287.179,42.857L307.692,257.143L328.205,128.571L348.718,257.143L369.231,300L389.744,257.143L410.256,257.143L430.769,300L451.282,257.143L471.795,257.143L492.308,257.143L512.821,214.286L533.333,300L553.846,85.714L574.359,300L594.872,257.143L615.385,214.286L635.897,300L656.41,214.286L676.923,300L697.436,300L717.949,214.286L738.462,214.286L758.974,171.429L779.487,214.286L800,257.143L800,257.143L779.487,214.286L758.974,171.429L738.462,214.286L717.949,214.286L697.436,300L676.923,300L656.41,214.286L635.897,300L615.385,214.286L594.872,257.143L574.359,300L553.846,85.714L533.333,300L512.821,214.286L492.308,257.143L471.795,257.143L451.282,257.143L430.769,300L410.256,257.143L389.744,257.143L369.231,300L348.718,257.143L328.205,128.571L307.692,257.143L287.179,42.857L266.667,300L246.154,214.286L225.641,171.429L205.128,171.429L184.615,171.429L164.103,171.429L143.59,171.429L123.077,300L102.564,300L82.051,300L61.538,300L41.026,300L20.513,300L0,300Z" fill="#bab0ac"/></g></g><path class="foreground" aria-hidden="true" d="" display="none"/></g><g transform="translate(0,0)"><path class="background" aria-hidden="true" d="M0,0h800v300h-800Z"/><g><g class="mark-area role-mark marks" role="graphics-object" aria-roledescription="area mark container"><path aria-label="Date: Mar 16, 2026; Unique Visitors/day: 0; Repository: karlmdavis/can-i-kayak-baltimore" role="graphics-symbol" aria-roledescription="area mark" d="M0,300L20.513,300L41.026,300L61.538,300L82.051,300L102.564,300L123.077,300L143.59,171.429L164.103,171.429L184.615,171.429L205.128,171.429L225.641,171.429L246.154,214.286L266.667,300L287.179,42.857L307.692,257.143L328.205,128.571L348.718,257.143L369.231,300L389.744,257.143L410.256,257.143L430.769,300L451.282,257.143L471.795,257.143L492.308,257.143L512.821,214.286L533.333,300L553.846,85.714L574.359,300L594.872,257.143L615.385,214.286L635.897,300L656.41,214.286L676.923,300L697.436,300L717.949,214.286L738.462,214.286L758.974,171.429L779.487,214.286L800,257.143L800,257.143L779.487,214.286L758.974,171.429L738.462,214.286L717.949,214.286L697.436,300L676.923,300L656.41,214.286L635.897,300L615.385,214.286L594.872,257.143L574.359,300L553.846,85.714L533.333,300L512.821,214.286L492.308,257.143L471.795,257.143L451.282,257.143L430.769,300L410.256,257.143L389.744,257.143L369.231,300L348.718,257.143L328.205,128.571L307.692,257.143L287.179,42.857L266.667,300L246.154,214.286L225.641,171.429L205.128,171.429L184.615,171.429L164.103,171.429L143.59,171.429L123.077,300L102.564,300L82.051,300L61.538,300L41.026,300L20.513,300L0,300Z" fill="#4c78a8"/></g></g><path class="foreground" aria-hidden="true" d="" display="none"/></g><g transform="translate(0,0)"><path class="background" aria-hidden="true" d="M0,0h800v300h-800Z"/><g><g class="mark-area role-mark marks" role="graphics-object" aria-roledescription="area mark container"><path aria-label="Date: Mar 16, 2026; Unique Visitors/day: 0; Repository: karlmdavis/datanucleus-test-jdo-1-to-n" role="graphics-symbol" aria-roledescription="area mark" d="M0,300L20.513,300L41.026,300L61.538,300L82.051,300L102.564,300L123.077,300L143.59,171.429L164.103,171.429L184.615,171.429L205.128,171.429L225.641,171.429L246.154,214.286L266.667,300L287.179,42.857L307.692,257.143L328.205,128.571L348.718,257.143L369.231,300L389.744,257.143L410.256,257.143L430.769,300L451.282,257.143L471.795,257.143L492.308,257.143L512.821,214.286L533.333,300L553.846,85.714L574.359,300L594.872,257.143L615.385,214.286L635.897,300L656.41,214.286L676.923,300L697.436,300L717.949,214.286L738.462,214.286L758.974,171.429L779.487,214.286L800,257.143L800,257.143L779.487,214.286L758.974,171.429L738.462,214.286L717.949,214.286L697.436,300L676.923,300L656.41,214.286L635.897,300L615.385,214.286L594.872,257.143L574.359,300L553.846,85.714L533.333,300L512.821,214.286L492.308,257.143L471.795,257.143L451.282,257.143L430.769,300L410.256,257.143L389.744,257.143L369.231,300L348.718,257.143L328.205,128.571L307.692,257.143L287.179,42.857L266.667,300L246.154,214.286L225.641,171.429L205.128,171.429L184.615,171.429L164.103,171.429L143.59,171.429L123.077,300L102.564,300L82.051,300L61.538,300L41.026,300L20.513,300L0,300Z" fill="#f58518"/></g></g><path class="foreground" aria-hidden="true" d="" display="none"/></g><g transform="translate(0,0)"><path class="background" aria-hidden="true" d="M0,0h800v300h-800Z"/><g><g class="mark-area role-mark marks" role="graphics-object" aria-roledescription="area mark container"><path aria-label="Date: Mar 16, 2026; Unique Visitors/day: 0; Repository: karlmdavis/dotfiles" role="graphics-symbol" aria-roledescription="area mark" d="M0,300L20.513,300L41.026,300L61.538,300L82.051,300L102.564,300L123.077,300L143.59,171.429L164.103,171.429L184.615,171.429L205.128,171.429L225.641,171.429L246.154,214.286L266.667,300L287.179,42.857L307.692,257.143L328.205,128.571L348.718,257.143L369.231,300L389.744,257.143L410.256,257.143L430.769,300L451.282,257.143L471.795,257.143L492.308,257.143L512.821,214.286L533.333,300L553.846,85.714L574.359,300L594.872,257.143L615.385,214.286L635.897,300L656.41,214.286L676.923,300L697.436,300L717.949,214.286L738.462,214.286L758.974,171.429L779.487,214.286L800,257.143L800,257.143L779.487,214.286L758.974,171.429L738.462,214.286L717.949,214.286L697.436,300L676.923,300L656.41,214.286L635.897,300L615.385,214.286L594.872,257.143L574.359,300L553.846,85.714L533.333,300L512.821,214.286L492.308,257.143L471.795,257.143L451.282,257.143L430.769,300L410.256,257.143L389.744,257.143L369.231,300L348.718,257.143L328.205,128.571L307.692,257.143L287.179,42.857L266.667,300L246.154,214.286L225.641,171.429L205.128,171.429L184.615,171.429L164.103,171.429L143.59,171.429L123.077,300L102.564,300L82.051,300L61.538,300L41.026,300L20.513,300L0,300Z" fill="#e45756"/></g></g><path class="foreground" aria-hidden="true" d="" display="none"/></g><g transform="translate(0,0)"><path class="background" aria-hidden="true" d="M0,0h800v300h-800Z"/><g><g class="mark-area role-mark marks" role="graphics-object" aria-roledescription="area mark container"><path aria-label="Date: Mar 16, 2026; Unique Visitors/day: 0; Repository: karlmdavis/fhir-benchmarks" role="graphics-symbol" aria-roledescription="area mark" d="M0,300L20.513,300L41.026,300L61.538,300L82.051,300L102.564,300L123.077,300L143.59,171.429L164.103,171.429L184.615,171.429L205.128,171.429L225.641,171.429L246.154,214.286L266.667,300L287.179,42.857L307.692,257.143L328.205,128.571L348.718,257.143L369.231,300L389.744,257.143L410.256,257.143L430.769,300L451.282,257.143L471.795,257.143L492.308,257.143L512.821,214.286L533.333,300L553.846,85.714L574.359,300L594.872,257.143L615.385,214.286L635.897,300L656.41,214.286L676.923,300L697.436,300L717.949,214.286L738.462,214.286L758.974,171.429L779.487,214.286L800,257.143L800,257.143L779.487,257.143L758.974,214.286L738.462,214.286L717.949,214.286L697.436,300L676.923,300L656.41,214.286L635.897,300L615.385,257.143L594.872,257.143L574.359,300L553.846,85.714L533.333,300L512.821,257.143L492.308,257.143L471.795,257.143L451.282,300L430.769,300L410.256,257.143L389.744,257.143L369.231,300L348.718,257.143L328.205,171.429L307.692,257.143L287.179,85.714L266.667,300L246.154,214.286L225.641,171.429L205.128,214.286L184.615,171.429L164.103,171.429L143.59,171.429L123.077,300L102.564,300L82.051,300L61.538,300L41.026,300L20.513,300L0,300Z" fill="#72b7b2"/></g></g><path class="foreground" aria-hidden="true" d="" display="none"/></g><g transform="translate(0,0)"><path class="background" aria-hidden="true" d="M0,0h800v300h-800Z"/><g><g class="mark-area role-mark marks" role="graphics-object" aria-roledescription="area mark container"><path aria-label="Date: Mar 16, 2026; Unique Visitors/day: 0; Repository: karlmdavis/hapi-fhir-jpaserver-starter" role="graphics-symbol" aria-roledescription="area mark" d="M0,300L20.513,300L41.026,300L61.538,300L82.051,300L102.564,300L123.077,300L143.59,171.429L164.103,171.429L184.615,171.429L205.128,214.286L225.641,171.429L246.154,214.286L266.667,300L287.179,85.714L307.692,257.143L328.205,171.429L348.718,257.143L369.231,300L389.744,257.143L410.256,257.143L430.769,300L451.282,300L471.795,257.143L492.308,257.143L512.821,257.143L533.333,300L553.846,85.714L574.359,300L594.872,257.143L615.385,257.143L635.897,300L656.41,214.286L676.923,300L697.436,300L717.949,214.286L738.462,214.286L758.974,214.286L779.487,257.143L800,257.143L800,257.143L779.487,257.143L758.974,214.286L738.462,214.286L717.949,214.286L697.436,300L676.923,300L656.41,214.286L635.897,300L615.385,257.143L594.872,257.143L574.359,300L553.846,85.714L533.333,300L512.821,257.143L492.308,257.143L471.795,257.143L451.282,300L430.769,300L410.256,257.143L389.744,257.143L369.231,300L348.718,257.143L328.205,171.429L307.692,257.143L287.179,85.714L266.667,300L246.154,214.286L225.641,171.429L205.128,214.286L184.615,171.429L164.103,171.429L143.59,171.429L123.077,300L102.564,300L82.051,300L61.538,300L41.026,300L20.513,300L0,300Z" fill="#54a24b"/></g></g><path class="foreground" aria-hidden="true" d="" display="none"/></g><g transform="translate(0,0)"><path class="background" aria-hidden="true" d="M0,0h800v300h-800Z"/><g><g class="mark-area role-mark marks" role="graphics-object" aria-roledescription="area mark container"><path aria-label="Date: Mar 16, 2026; Unique Visitors/day: 0; Repository: karlmdavis/hello-rust-actix" role="graphics-symbol" aria-roledescription="area mark" d="M0,300L20.513,300L41.026,300L61.538,300L82.051,300L102.564,300L123.077,300L143.59,171.429L164.103,171.429L184.615,171.429L205.128,214.286L225.641,171.429L246.154,214.286L266.667,300L287.179,85.714L307.692,257.143L328.205,171.429L348.718,257.143L369.231,300L389.744,257.143L410.256,257.143L430.769,300L451.282,300L471.795,257.143L492.308,257.143L512.821,257.143L533.333,300L553.846,85.714L574.359,300L594.872,257.143L615.385,257.143L635.897,300L656.41,214.286L676.923,300L697.436,300L717.949,214.286L738.462,214.286L758.974,214.286L779.487,257.143L800,257.143L800,257.143L779.487,257.143L758.974,214.286L738.462,214.286L717.949,214.286L697.436,300L676.923,300L656.41,214.286L635.897,300L615.385,257.143L594.872,257.143L574.359,300L553.846,85.714L533.333,300L512.821,257.143L492.308,257.143L471.795,257.143L451.282,300L430.769,300L410.256,257.143L389.744,257.143L369.231,300L348.718,257.143L328.205,171.429L307.692,257.143L287.179,85.714L266.667,300L246.154,214.286L225.641,171.429L205.128,214.286L184.615,171.429L164.103,171.429L143.59,171.429L123.077,300L102.564,300L82.051,300L61.538,300L41.026,300L20.513,300L0,300Z" fill="#eeca3b"/></g></g><path class="foreground" aria-hidden="true" d="" display="none"/></g><g transform="translate(0,0)"><path class="background" aria-hidden="true" d="M0,0h800v300h-800Z"/><g><g class="mark-area role-mark marks" role="graphics-object" aria-roledescription="area mark container"><path aria-label="Date: Mar 16, 2026; Unique Visitors/day: 0; Repository: karlmdavis/jessentials" role="graphics-symbol" aria-roledescription="area mark" d="M0,300L20.513,300L41.026,300L61.538,300L82.051,300L102.564,300L123.077,300L143.59,171.429L164.103,171.429L184.615,171.429L205.128,214.286L225.641,171.429L246.154,214.286L266.667,300L287.179,85.714L307.692,257.143L328.205,171.429L348.718,257.143L369.231,300L389.744,257.143L410.256,257.143L430.769,300L451.282,300L471.795,257.143L492.308,257.143L512.821,257.143L533.333,300L553.846,85.714L574.359,300L594.872,257.143L615.385,257.143L635.897,300L656.41,214.286L676.923,300L697.436,300L717.949,214.286L738.462,214.286L758.974,214.286L779.487,257.143L800,257.143L800,257.143L779.487,257.143L758.974,214.286L738.462,214.286L717.949,214.286L697.436,300L676.923,300L656.41,214.286L635.897,300L615.385,257.143L594.872,257.143L574.359,300L553.846,85.714L533.333,300L512.821,257.143L492.308,257.143L471.795,257.143L451.282,300L430.769,300L410.256,257.143L389.744,257.143L369.231,300L348.718,257.143L328.205,171.429L307.692,257.143L287.179,85.714L266.667,300L246.154,214.286L225.641,171.429L205.128,214.286L184.615,171.429L164.103,171.429L143.59,171.429L123.077,300L102.564,300L82.051,300L61.538,300L41.026,300L20.513,300L0,300Z" fill="#b279a2"/></g></g><path class="foreground" aria-hidden="true" d="" display="none"/></g><g transform="translate(0,0)"><path class="background" aria-hidden="true" d="M0,0h800v300h-800Z"/><g><g class="mark-area role-mark marks" role="graphics-object" aria-roledescription="area mark container"><path aria-label="Date: Mar 16, 2026; Unique Visitors/day: 0; Repository: karlmdavis/justdavis-ansible" role="graphics-symbol" aria-roledescription="area mark" d="M0,300L20.513,300L41.026,300L61.538,300L82.051,300L102.564,300L123.077,300L143.59,171.429L164.103,171.429L184.615,171.429L205.128,214.286L225.641,171.429L246.154,214.286L266.667,300L287.179,85.714L307.692,257.143L328.205,171.429L348.718,257.143L369.231,300L389.744,257.143L410.256,257.143L430.769,300L451.282,300L471.795,257.143L492.308,257.143L512.821,257.143L533.333,300L553.846,85.714L574.359,300L594.872,257.143L615.385,257.143L635.897,300L656.41,214.286L676.923,300L697.436,300L717.949,214.286L738.462,214.286L758.974,214.286L779.487,257.143L800,257.143L800,257.143L779.487,257.143L758.974,214.286L738.462,214.286L717.949,214.286L697.436,300L676.923,300L656.41,214.286L635.897,300L615.385,257.143L594.872,257.143L574.359,300L553.846,128.571L533.333,300L512.821,257.143L492.308,257.143L471.795,257.143L451.282,300L430.769,300L410.256,257.143L389.744,257.143L369.231,300L348.718,257.143L328.205,214.286L307.692,257.143L287.179,128.571L266.667,300L246.154,214.286L225.641,171.429L205.128,214.286L184.615,171.429L164.103,171.429L143.59,171.429L123.077,300L102.564,300L82.051,300L61.538,300L41.026,300L20.513,300L0,300Z" fill="#ff9da6"/></g></g><path class="foreground" aria-hidden="true" d="" display="none"/></g><g transform="translate(0,0)"><path class="background" aria-hidden="true" d="M0,0h800v300h-800Z"/><g><g class="mark-area role-mark marks" role="graphics-object" aria-roledescription="area mark container"><path aria-label="Date: Mar 16, 2026; Unique Visitors/day: 0; Repository: karlmdavis/justdavis-finances" role="graphics-symbol" aria-roledescription="area mark" d="M0,300L20.513,300L41.026,300L61.538,300L82.051,300L102.564,300L123.077,300L143.59,171.429L164.103,171.429L184.615,171.429L205.128,214.286L225.641,171.429L246.154,214.286L266.667,300L287.179,128.571L307.692,257.143L328.205,214.286L348.718,257.143L369.231,300L389.744,257.143L410.256,257.143L430.769,300L451.282,300L471.795,257.143L492.308,257.143L512.821,257.143L533.333,300L553.846,128.571L574.359,300L594.872,257.143L615.385,257.143L635.897,300L656.41,214.286L676.923,300L697.436,300L717.949,214.286L738.462,214.286L758.974,214.286L779.487,257.143L800,257.143L800,257.143L779.487,257.143L758.974,214.286L738.462,214.286L717.949,257.143L697.436,300L676.923,300L656.41,214.286L635.897,300L615.385,257.143L594.872,257.143L574.359,300L553.846,171.429L533.333,300L512.821,257.143L492.308,257.143L471.795,257.143L451.282,300L430.769,300L410.256,257.143L389.744,257.143L369.231,300L348.718,257.143L328.205,214.286L307.692,257.143L287.179,128.571L266.667,300L246.154,214.286L225.641,214.286L205.128,214.286L184.615,171.429L164.103,171.429L143.59,171.429L123.077,300L102.564,300L82.051,300L61.538,300L41.026,300L20.513,300L0,300Z" fill="#9d755d"/></g></g><path class="foreground" aria-hidden="true" d="" display="none"/></g><g transform="translate(0,0)"><path class="background" aria-hidden="true" d="M0,0h800v300h-800Z"/><g><g class="mark-area role-mark marks" role="graphics-object" aria-roledescription="area mark container"><path aria-label="Date: Mar 16, 2026; Unique Visitors/day: 0; Repository: karlmdavis/justdavis-karl" role="graphics-symbol" aria-roledescription="area mark" d="M0,300L20.513,300L41.026,300L61.538,300L82.051,300L102.564,300L123.077,300L143.59,171.429L164.103,171.429L184.615,171.429L205.128,214.286L225.641,214.286L246.154,214.286L266.667,300L287.179,128.571L307.692,257.143L328.205,214.286L348.718,257.143L369.231,300L389.744,257.143L410.256,257.143L430.769,300L451.282,300L471.795,257.143L492.308,257.143L512.821,257.143L533.333,300L553.846,171.429L574.359,300L594.872,257.143L615.385,257.143L635.897,300L656.41,214.286L676.923,300L697.436,300L717.949,257.143L738.462,214.286L758.974,214.286L779.487,257.143L800,257.143L800,257.143L779.487,257.143L758.974,214.286L738.462,214.286L717.949,257.143L697.436,300L676.923,300L656.41,214.286L635.897,300L615.385,257.143L594.872,257.143L574.359,300L553.846,171.429L533.333,300L512.821,257.143L492.308,257.143L471.795,257.143L451.282,300L430.769,300L410.256,257.143L389.744,257.143L369.231,300L348.718,257.143L328.205,214.286L307.692,257.143L287.179,128.571L266.667,300L246.154,214.286L225.641,214.286L205.128,214.286L184.615,171.429L164.103,171.429L143.59,171.429L123.077,300L102.564,300L82.051,300L61.538,300L41.026,300L20.513,300L0,300Z" fill="#bab0ac"/></g></g><path class="foreground" aria-hidden="true" d="" display="none"/></g><g transform="translate(0,0)"><path class="background" aria-hidden="true" d="M0,0h800v300h-800Z"/><g><g class="mark-area role-mark marks" role="graphics-object" aria-roledescription="area mark container"><path aria-label="Date: Mar 16, 2026; Unique Visitors/day: 0; Repository: karlmdavis/justdavis-puppet" role="graphics-symbol" aria-roledescription="area mark" d="M0,300L20.513,300L41.026,300L61.538,300L82.051,300L102.564,300L123.077,300L143.59,171.429L164.103,171.429L184.615,171.429L205.128,214.286L225.641,214.286L246.154,214.286L266.667,300L287.179,128.571L307.692,257.143L328.205,214.286L348.718,257.143L369.231,300L389.744,257.143L410.256,257.143L430.769,300L451.282,300L471.795,257.143L492.308,257.143L512.821,257.143L533.333,300L553.846,171.429L574.359,300L594.872,257.143L615.385,257.143L635.897,300L656.41,214.286L676.923,300L697.436,300L717.949,257.143L738.462,214.286L758.974,214.286L779.487,257.143L800,257.143L800,257.143L779.487,257.143L758.974,214.286L738.462,214.286L717.949,257.143L697.436,300L676.923,300L656.41,214.286L635.897,300L615.385,257.143L594.872,257.143L574.359,300L553.846,171.429L533.333,300L512.821,257.143L492.308,257.143L471.795,257.143L451.282,300L430.769,300L410.256,257.143L389.744,257.143L369.231,300L348.718,257.143L328.205,214.286L307.692,257.143L287.179,128.571L266.667,300L246.154,214.286L225.641,214.286L205.128,214.286L184.615,171.429L164.103,171.429L143.59,171.429L123.077,300L102.564,300L82.051,300L61.538,300L41.026,300L20.513,300L0,300Z" fill="#4c78a8"/></g></g><path class="foreground" aria-hidden="true" d="" display="none"/></g><g transform="translate(0,0)"><path class="background" aria-hidden="true" d="M0,0h800v300h-800Z"/><g><g class="mark-area role-mark marks" role="graphics-object" aria-roledescription="area mark container"><path aria-label="Date: Mar 16, 2026; Unique Visitors/day: 0; Repository: karlmdavis/kobjects" role="graphics-symbol" aria-roledescription="area mark" d="M0,300L20.513,300L41.026,300L61.538,300L82.051,300L102.564,300L123.077,300L143.59,171.429L164.103,171.429L184.615,171.429L205.128,214.286L225.641,214.286L246.154,214.286L266.667,300L287.179,128.571L307.692,257.143L328.205,214.286L348.718,257.143L369.231,300L389.744,257.143L410.256,257.143L430.769,300L451.282,300L471.795,257.143L492.308,257.143L512.821,257.143L533.333,300L553.846,171.429L574.359,300L594.872,257.143L615.385,257.143L635.897,300L656.41,214.286L676.923,300L697.436,300L717.949,257.143L738.462,214.286L758.974,214.286L779.487,257.143L800,257.143L800,257.143L779.487,257.143L758.974,214.286L738.462,214.286L717.949,257.143L697.436,300L676.923,300L656.41,214.286L635.897,300L615.385,257.143L594.872,257.143L574.359,300L553.846,171.429L533.333,300L512.821,257.143L492.308,257.143L471.795,257.143L451.282,300L430.769,300L410.256,257.143L389.744,257.143L369.231,300L348.718,257.143L328.205,214.286L307.692,257.143L287.179,128.571L266.667,300L246.154,214.286L225.641,214.286L205.128,214.286L184.615,171.429L164.103,171.429L143.59,171.429L123.077,300L102.564,300L82.051,300L61.538,300L41.026,300L20.513,300L0,300Z" fill="#f58518"/></g></g><path class="foreground" aria-hidden="true" d="" display="none"/></g><g transform="translate(0,0)"><path class="background" aria-hidden="true" d="M0,0h800v300h-800Z"/><g><g class="mark-area role-mark marks" role="graphics-object" aria-roledescription="area mark container"><path aria-label="Date: Mar 16, 2026; Unique Visitors/day: 0; Repository: karlmdavis/ksoap2-android" role="graphics-symbol" aria-roledescription="area mark" d="M0,300L20.513,300L41.026,300L61.538,300L82.051,300L102.564,300L123.077,300L143.59,171.429L164.103,171.429L184.615,171.429L205.128,214.286L225.641,214.286L246.154,214.286L266.667,300L287.179,128.571L307.692,257.143L328.205,214.286L348.718,257.143L369.231,300L389.744,257.143L410.256,257.143L430.769,300L451.282,300L471.795,257.143L492.308,257.143L512.821,257.143L533.333,300L553.846,171.429L574.359,300L594.872,257.143L615.385,257.143L635.897,300L656.41,214.286L676.923,300L697.436,300L717.949,257.143L738.462,214.286L758.974,214.286L779.487,257.143L800,257.143L800,257.143L779.487,300L758.974,300L738.462,257.143L717.949,257.143L697.436,300L676.923,300L656.41,300L635.897,300L615.385,300L594.872,300L574.359,300L553.846,214.286L533.333,300L512.821,300L492.308,257.143L471.795,300L451.282,300L430.769,300L410.256,300L389.744,300L369.231,300L348.718,300L328.205,257.143L307.692,257.143L287.179,214.286L266.667,300L246.154,214.286L225.641,257.143L205.128,214.286L184.615,214.286L164.103,257.143L143.59,257.143L123.077,300L102.564,300L82.051,300L61.538,300L41.026,300L20.513,300L0,300Z" fill="#e45756"/></g></g><path class="foreground" aria-hidden="true" d="" display="none"/></g><g transform="translate(0,0)"><path class="background" aria-hidden="true" d="M0,0h800v300h-800Z"/><g><g class="mark-area role-mark marks" role="graphics-object" aria-roledescription="area mark container"><path aria-label="Date: Mar 16, 2026; Unique Visitors/day: 0; Repository: karlmdavis/kxml2" role="graphics-symbol" aria-roledescription="area mark" d="M0,300L20.513,300L41.026,300L61.538,300L82.051,300L102.564,300L123.077,300L143.59,257.143L164.103,257.143L184.615,214.286L205.128,214.286L225.641,257.143L246.154,214.286L266.667,300L287.179,214.286L307.692,257.143L328.205,257.143L348.718,300L369.231,300L389.744,300L410.256,300L430.769,300L451.282,300L471.795,300L492.308,257.143L512.821,300L533.333,300L553.846,214.286L574.359,300L594.872,300L615.385,300L635.897,300L656.41,300L676.923,300L697.436,300L717.949,257.143L738.462,257.143L758.974,300L779.487,300L800,257.143L800,257.143L779.487,300L758.974,300L738.462,257.143L717.949,257.143L697.436,300L676.923,300L656.41,300L635.897,300L615.385,300L594.872,300L574.359,300L553.846,214.286L533.333,300L512.821,300L492.308,257.143L471.795,300L451.282,300L430.769,300L410.256,300L389.744,300L369.231,300L348.718,300L328.205,257.143L307.692,257.143L287.179,214.286L266.667,300L246.154,257.143L225.641,257.143L205.128,214.286L184.615,257.143L164.103,257.143L143.59,257.143L123.077,300L102.564,300L82.051,300L61.538,300L41.026,300L20.513,300L0,300Z" fill="#72b7b2"/></g></g><path class="foreground" aria-hidden="true" d="" display="none"/></g><g transform="translate(0,0)"><path class="background" aria-hidden="true" d="M0,0h800v300h-800Z"/><g><g class="mark-area role-mark marks" role="graphics-object" aria-roledescription="area mark container"><path aria-label="Date: Mar 16, 2026; Unique Visitors/day: 0; Repository: karlmdavis/ldap-plugin" role="graphics-symbol" aria-roledescription="area mark" d="M0,300L20.513,300L41.026,300L61.538,300L82.051,300L102.564,300L123.077,300L143.59,257.143L164.103,257.143L184.615,257.143L205.128,214.286L225.641,257.143L246.154,257.143L266.667,300L287.179,214.286L307.692,257.143L328.205,257.143L348.718,300L369.231,300L389.744,300L410.256,300L430.769,300L451.282,300L471.795,300L492.308,257.143L512.821,300L533.333,300L553.846,214.286L574.359,300L594.872,300L615.385,300L635.897,300L656.41,300L676.923,300L697.436,300L717.949,257.143L738.462,257.143L758.974,300L779.487,300L800,257.143L800,257.143L779.487,300L758.974,300L738.462,257.143L717.949,257.143L697.436,300L676.923,300L656.41,300L635.897,300L615.385,300L594.872,300L574.359,300L553.846,214.286L533.333,300L512.821,300L492.308,257.143L471.795,300L451.282,300L430.769,300L410.256,300L389.744,300L369.231,300L348.718,300L328.205,257.143L307.692,257.143L287.179,214.286L266.667,300L246.154,257.143L225.641,257.143L205.128,214.286L184.615,257.143L164.103,257.143L143.59,257.143L123.077,300L102.564,300L82.051,300L61.538,300L41.026,300L20.513,300L0,300Z" fill="#54a24b"/></g></g><path class="foreground" aria-hidden="true" d="" display="none"/></g><g transform="translate(0,0)"><path class="background" aria-hidden="true" d="M0,0h800v300h-800Z"/><g><g class="mark-area role-mark marks" role="graphics-object" aria-roledescription="area mark container"><path aria-label="Date: Mar 16, 2026; Unique Visitors/day: 0; Repository: karlmdavis/lego-ev3dev-rs" role="graphics-symbol" aria-roledescription="area mark" d="M0,300L20.513,300L41.026,300L61.538,300L82.051,300L102.564,300L123.077,300L143.59,257.143L164.103,257.143L184.615,257.143L205.128,214.286L225.641,257.143L246.154,257.143L266.667,300L287.179,214.286L307.692,257.143L328.205,257.143L348.718,300L369.231,300L389.744,300L410.256,300L430.769,300L451.282,300L471.795,300L492.308,257.143L512.821,300L533.333,300L553.846,214.286L574.359,300L594.872,300L615.385,300L635.897,300L656.41,300L676.923,300L697.436,300L717.949,257.143L738.462,257.143L758.974,300L779.487,300L800,257.143L800,257.143L779.487,300L758.974,300L738.462,257.143L717.949,257.143L697.436,300L676.923,300L656.41,300L635.897,300L615.385,300L594.872,300L574.359,300L553.846,214.286L533.333,300L512.821,300L492.308,257.143L471.795,300L451.282,300L430.769,300L410.256,300L389.744,300L369.231,300L348.718,300L328.205,257.143L307.692,257.143L287.179,214.286L266.667,300L246.154,257.143L225.641,257.143L205.128,214.286L184.615,257.143L164.103,257.143L143.59,257.143L123.077,300L102.564,300L82.051,300L61.538,300L41.026,300L20.513,300L0,300Z" fill="#eeca3b"/></g></g><path class="foreground" aria-hidden="true" d="" display="none"/></g><g transform="translate(0,0)"><path class="background" aria-hidden="true" d="M0,0h800v300h-800Z"/><g><g class="mark-area role-mark marks" role="graphics-object" aria-roledescription="area mark container"><path aria-label="Date: Mar 16, 2026; Unique Visitors/day: 0; Repository: karlmdavis/liquibase" role="graphics-symbol" aria-roledescription="area mark" d="M0,300L20.513,300L41.026,300L61.538,300L82.051,300L102.564,300L123.077,300L143.59,257.143L164.103,257.143L184.615,257.143L205.128,214.286L225.641,257.143L246.154,257.143L266.667,300L287.179,214.286L307.692,257.143L328.205,257.143L348.718,300L369.231,300L389.744,300L410.256,300L430.769,300L451.282,300L471.795,300L492.308,257.143L512.821,300L533.333,300L553.846,214.286L574.359,300L594.872,300L615.385,300L635.897,300L656.41,300L676.923,300L697.436,300L717.949,257.143L738.462,257.143L758.974,300L779.487,300L800,257.143L800,257.143L779.487,300L758.974,300L738.462,257.143L717.949,257.143L697.436,300L676.923,300L656.41,300L635.897,300L615.385,300L594.872,300L574.359,300L553.846,214.286L533.333,300L512.821,300L492.308,257.143L471.795,300L451.282,300L430.769,300L410.256,300L389.744,300L369.231,300L348.718,300L328.205,257.143L307.692,257.143L287.179,214.286L266.667,300L246.154,257.143L225.641,257.143L205.128,214.286L184.615,257.143L164.103,257.143L143.59,257.143L123.077,300L102.564,300L82.051,300L61.538,300L41.026,300L20.513,300L0,300Z" fill="#b279a2"/></g></g><path class="foreground" aria-hidden="true" d="" display="none"/></g><g transform="translate(0,0)"><path class="background" aria-hidden="true" d="M0,0h800v300h-800Z"/><g><g class="mark-area role-mark marks" role="graphics-object" aria-roledescription="area mark container"><path aria-label="Date: Mar 16, 2026; Unique Visitors/day: 0; Repository: karlmdavis/m2e-core" role="graphics-symbol" aria-roledescription="area mark" d="M0,300L20.513,300L41.026,300L61.538,300L82.051,300L102.564,300L123.077,300L143.59,257.143L164.103,257.143L184.615,257.143L205.128,214.286L225.641,257.143L246.154,257.143L266.667,300L287.179,214.286L307.692,257.143L328.205,257.143L348.718,300L369.231,300L389.744,300L410.256,300L430.769,300L451.282,300L471.795,300L492.308,257.143L512.821,300L533.333,300L553.846,214.286L574.359,300L594.872,300L615.385,300L635.897,300L656.41,300L676.923,300L697.436,300L717.949,257.143L738.462,257.143L758.974,300L779.487,300L800,257.143L800,257.143L779.487,300L758.974,300L738.462,257.143L717.949,257.143L697.436,300L676.923,300L656.41,300L635.897,300L615.385,300L594.872,300L574.359,300L553.846,214.286L533.333,300L512.821,300L492.308,257.143L471.795,300L451.282,300L430.769,300L410.256,300L389.744,300L369.231,300L348.718,300L328.205,257.143L307.692,257.143L287.179,214.286L266.667,300L246.154,257.143L225.641,257.143L205.128,214.286L184.615,257.143L164.103,257.143L143.59,257.143L123.077,300L102.564,300L82.051,300L61.538,300L41.026,300L20.513,300L0,300Z" fill="#ff9da6"/></g></g><path class="foreground" aria-hidden="true" d="" display="none"/></g><g transform="translate(0,0)"><path class="background" aria-hidden="true" d="M0,0h800v300h-800Z"/><g><g class="mark-area role-mark marks" role="graphics-object" aria-roledescription="area mark container"><path aria-label="Date: Mar 16, 2026; Unique Visitors/day: 0; Repository: karlmdavis/m2e-core-tests" role="graphics-symbol" aria-roledescription="area mark" d="M0,300L20.513,300L41.026,300L61.538,300L82.051,300L102.564,300L123.077,300L143.59,257.143L164.103,257.143L184.615,257.143L205.128,214.286L225.641,257.143L246.154,257.143L266.667,300L287.179,214.286L307.692,257.143L328.205,257.143L348.718,300L369.231,300L389.744,300L410.256,300L430.769,300L451.282,300L471.795,300L492.308,257.143L512.821,300L533.333,300L553.846,214.286L574.359,300L594.872,300L615.385,300L635.897,300L656.41,300L676.923,300L697.436,300L717.949,257.143L738.462,257.143L758.974,300L779.487,300L800,257.143L800,257.143L779.487,300L758.974,300L738.462,257.143L717.949,257.143L697.436,300L676.923,300L656.41,300L635.897,300L615.385,300L594.872,300L574.359,300L553.846,214.286L533.333,300L512.821,300L492.308,257.143L471.795,300L451.282,300L430.769,300L410.256,300L389.744,300L369.231,300L348.718,300L328.205,257.143L307.692,257.143L287.179,214.286L266.667,300L246.154,257.143L225.641,257.143L205.128,214.286L184.615,257.143L164.103,257.143L143.59,257.143L123.077,300L102.564,300L82.051,300L61.538,300L41.026,300L20.513,300L0,300Z" fill="#9d755d"/></g></g><path class="foreground" aria-hidden="true" d="" display="none"/></g><g transform="translate(0,0)"><path class="background" aria-hidden="true" d="M0,0h800v300h-800Z"/><g><g class="mark-area role-mark marks" role="graphics-object" aria-roledescription="area mark container"><path aria-label="Date: Mar 16, 2026; Unique Visitors/day: 0; Repository: karlmdavis/obsidian-operator" role="graphics-symbol" aria-roledescription="area mark" d="M0,300L20.513,300L41.026,300L61.538,300L82.051,300L102.564,300L123.077,300L143.59,257.143L164.103,257.143L184.615,257.143L205.128,214.286L225.641,257.143L246.154,257.143L266.667,300L287.179,214.286L307.692,257.143L328.205,257.143L348.718,300L369.231,300L389.744,300L410.256,300L430.769,300L451.282,300L471.795,300L492.308,257.143L512.821,300L533.333,300L553.846,214.286L574.359,300L594.872,300L615.385,300L635.897,300L656.41,300L676.923,300L697.436,300L717.949,257.143L738.462,257.143L758.974,300L779.487,300L800,257.143L800,257.143L779.487,300L758.974,300L738.462,257.143L717.949,257.143L697.436,300L676.923,300L656.41,300L635.897,300L615.385,300L594.872,300L574.359,300L553.846,257.143L533.333,300L512.821,300L492.308,257.143L471.795,300L451.282,300L430.769,300L410.256,300L389.744,300L369.231,300L348.718,300L328.205,257.143L307.692,257.143L287.179,214.286L266.667,300L246.154,257.143L225.641,257.143L205.128,214.286L184.615,257.143L164.103,257.143L143.59,257.143L123.077,300L102.564,300L82.051,300L61.538,300L41.026,300L20.513,300L0,300Z" fill="#bab0ac"/></g></g><path class="foreground" aria-hidden="true" d="" display="none"/></g><g transform="translate(0,0)"><path class="background" aria-hidden="true" d="M0,0h800v300h-800Z"/><g><g class="mark-area role-mark marks" role="graphics-object" aria-roledescription="area mark container"><path aria-label="Date: Mar 16, 2026; Unique Visitors/day: 0; Repository: karlmdavis/perfect-note" role="graphics-symbol" aria-roledescription="area mark" d="M0,300L20.513,300L41.026,300L61.538,300L82.051,300L102.564,300L123.077,300L143.59,257.143L164.103,257.143L184.615,257.143L205.128,214.286L225.641,257.143L246.154,257.143L266.667,300L287.179,214.286L307.692,257.143L328.205,257.143L348.718,300L369.231,300L389.744,300L410.256,300L430.769,300L451.282,300L471.795,300L492.308,257.143L512.821,300L533.333,300L553.846,257.143L574.359,300L594.872,300L615.385,300L635.897,300L656.41,300L676.923,300L697.436,300L717.949,257.143L738.462,257.143L758.974,300L779.487,300L800,257.143L800,257.143L779.487,300L758.974,300L738.462,257.143L717.949,257.143L697.436,300L676.923,300L656.41,300L635.897,300L615.385,300L594.872,300L574.359,300L553.846,257.143L533.333,300L512.821,300L492.308,257.143L471.795,300L451.282,300L430.769,300L410.256,300L389.744,300L369.231,300L348.718,300L328.205,257.143L307.692,257.143L287.179,214.286L266.667,300L246.154,257.143L225.641,257.143L205.128,214.286L184.615,257.143L164.103,257.143L143.59,257.143L123.077,300L102.564,300L82.051,300L61.538,300L41.026,300L20.513,300L0,300Z" fill="#4c78a8"/></g></g><path class="foreground" aria-hidden="true" d="" display="none"/></g><g transform="translate(0,0)"><path class="background" aria-hidden="true" d="M0,0h800v300h-800Z"/><g><g class="mark-area role-mark marks" role="graphics-object" aria-roledescription="area mark container"><path aria-label="Date: Mar 16, 2026; Unique Visitors/day: 0; Repository: karlmdavis/puppet-archive" role="graphics-symbol" aria-roledescription="area mark" d="M0,300L20.513,300L41.026,300L61.538,300L82.051,300L102.564,300L123.077,300L143.59,257.143L164.103,257.143L184.615,257.143L205.128,214.286L225.641,257.143L246.154,257.143L266.667,300L287.179,214.286L307.692,257.143L328.205,257.143L348.718,300L369.231,300L389.744,300L410.256,300L430.769,300L451.282,300L471.795,300L492.308,257.143L512.821,300L533.333,300L553.846,257.143L574.359,300L594.872,300L615.385,300L635.897,300L656.41,300L676.923,300L697.436,300L717.949,257.143L738.462,257.143L758.974,300L779.487,300L800,257.143L800,257.143L779.487,300L758.974,300L738.462,257.143L717.949,257.143L697.436,300L676.923,300L656.41,300L635.897,300L615.385,300L594.872,300L574.359,300L553.846,257.143L533.333,300L512.821,300L492.308,257.143L471.795,300L451.282,300L430.769,300L410.256,300L389.744,300L369.231,300L348.718,300L328.205,257.143L307.692,257.143L287.179,214.286L266.667,300L246.154,257.143L225.641,257.143L205.128,214.286L184.615,257.143L164.103,257.143L143.59,257.143L123.077,300L102.564,300L82.051,300L61.538,300L41.026,300L20.513,300L0,300Z" fill="#f58518"/></g></g><path class="foreground" aria-hidden="true" d="" display="none"/></g><g transform="translate(0,0)"><path class="background" aria-hidden="true" d="M0,0h800v300h-800Z"/><g><g class="mark-area role-mark marks" role="graphics-object" aria-roledescription="area mark container"><path aria-label="Date: Mar 16, 2026; Unique Visitors/day: 0; Repository: karlmdavis/puppet-sonar" role="graphics-symbol" aria-roledescription="area mark" d="M0,300L20.513,300L41.026,300L61.538,300L82.051,300L102.564,300L123.077,300L143.59,257.143L164.103,257.143L184.615,257.143L205.128,214.286L225.641,257.143L246.154,257.143L266.667,300L287.179,214.286L307.692,257.143L328.205,257.143L348.718,300L369.231,300L389.744,300L410.256,300L430.769,300L451.282,300L471.795,300L492.308,257.143L512.821,300L533.333,300L553.846,257.143L574.359,300L594.872,300L615.385,300L635.897,300L656.41,300L676.923,300L697.436,300L717.949,257.143L738.462,257.143L758.974,300L779.487,300L800,257.143L800,257.143L779.487,300L758.974,300L738.462,257.143L717.949,257.143L697.436,300L676.923,300L656.41,300L635.897,300L615.385,300L594.872,300L574.359,300L553.846,257.143L533.333,300L512.821,300L492.308,257.143L471.795,300L451.282,300L430.769,300L410.256,300L389.744,300L369.231,300L348.718,300L328.205,257.143L307.692,257.143L287.179,214.286L266.667,300L246.154,257.143L225.641,257.143L205.128,214.286L184.615,257.143L164.103,257.143L143.59,257.143L123.077,300L102.564,300L82.051,300L61.538,300L41.026,300L20.513,300L0,300Z" fill="#e45756"/></g></g><path class="foreground" aria-hidden="true" d="" display="none"/></g><g transform="translate(0,0)"><path class="background" aria-hidden="true" d="M0,0h800v300h-800Z"/><g><g class="mark-area role-mark marks" role="graphics-object" aria-roledescription="area mark container"><path aria-label="Date: Mar 16, 2026; Unique Visitors/day: 0; Repository: karlmdavis/rps-tourney" role="graphics-symbol" aria-roledescription="area mark" d="M0,300L20.513,300L41.026,300L61.538,300L82.051,300L102.564,300L123.077,300L143.59,257.143L164.103,257.143L184.615,257.143L205.128,214.286L225.641,257.143L246.154,257.143L266.667,300L287.179,214.286L307.692,257.143L328.205,257.143L348.718,300L369.231,300L389.744,300L410.256,300L430.769,300L451.282,300L471.795,300L492.308,257.143L512.821,300L533.333,300L553.846,257.143L574.359,300L594.872,300L615.385,300L635.897,300L656.41,300L676.923,300L697.436,300L717.949,257.143L738.462,257.143L758.974,300L779.487,300L800,257.143L800,257.143L779.487,300L758.974,300L738.462,300L717.949,257.143L697.436,300L676.923,300L656.41,300L635.897,300L615.385,300L594.872,300L574.359,300L553.846,300L533.333,300L512.821,300L492.308,257.143L471.795,300L451.282,300L430.769,300L410.256,300L389.744,300L369.231,300L348.718,300L328.205,300L307.692,257.143L287.179,214.286L266.667,300L246.154,257.143L225.641,300L205.128,214.286L184.615,257.143L164.103,300L143.59,300L123.077,300L102.564,300L82.051,300L61.538,300L41.026,300L20.513,300L0,300Z" fill="#72b7b2"/></g></g><path class="foreground" aria-hidden="true" d="" display="none"/></g><g transform="translate(0,0)"><path class="background" aria-hidden="true" d="M0,0h800v300h-800Z"/><g><g class="mark-area role-mark marks" role="graphics-object" aria-roledescription="area mark container"><path aria-label="Date: Mar 16, 2026; Unique Visitors/day: 0; Repository: karlmdavis/sample-maven-and-rcp" role="graphics-symbol" aria-roledescription="area mark" d="M0,300L20.513,300L41.026,300L61.538,300L82.051,300L102.564,300L123.077,300L143.59,300L164.103,300L184.615,257.143L205.128,214.286L225.641,300L246.154,257.143L266.667,300L287.179,214.286L307.692,257.143L328.205,300L348.718,300L369.231,300L389.744,300L410.256,300L430.769,300L451.282,300L471.795,300L492.308,257.143L512.821,300L533.333,300L553.846,300L574.359,300L594.872,300L615.385,300L635.897,300L656.41,300L676.923,300L697.436,300L717.949,257.143L738.462,300L758.974,300L779.487,300L800,257.143L800,257.143L779.487,300L758.974,300L738.462,300L717.949,257.143L697.436,300L676.923,300L656.41,300L635.897,300L615.385,300L594.872,300L574.359,300L553.846,300L533.333,300L512.821,300L492.308,257.143L471.795,300L451.282,300L430.769,300L410.256,300L389.744,300L369.231,300L348.718,300L328.205,300L307.692,257.143L287.179,214.286L266.667,300L246.154,257.143L225.641,300L205.128,214.286L184.615,257.143L164.103,300L143.59,300L123.077,300L102.564,300L82.051,300L61.538,300L41.026,300L20.513,300L0,300Z" fill="#54a24b"/></g></g><path class="foreground" aria-hidden="true" d="" display="none"/></g><g transform="translate(0,0)"><path class="background" aria-hidden="true" d="M0,0h800v300h-800Z"/><g><g class="mark-area role-mark marks" role="graphics-object" aria-roledescription="area mark container"><path aria-label="Date: Mar 16, 2026; Unique Visitors/day: 0; Repository: karlmdavis/stockfighter-trades-solutions" role="graphics-symbol" aria-roledescription="area mark" d="M0,300L20.513,300L41.026,300L61.538,300L82.051,300L102.564,300L123.077,300L143.59,300L164.103,300L184.615,257.143L205.128,214.286L225.641,300L246.154,257.143L266.667,300L287.179,214.286L307.692,257.143L328.205,300L348.718,300L369.231,300L389.744,300L410.256,300L430.769,300L451.282,300L471.795,300L492.308,257.143L512.821,300L533.333,300L553.846,300L574.359,300L594.872,300L615.385,300L635.897,300L656.41,300L676.923,300L697.436,300L717.949,257.143L738.462,300L758.974,300L779.487,300L800,257.143L800,257.143L779.487,300L758.974,300L738.462,300L717.949,257.143L697.436,300L676.923,300L656.41,300L635.897,300L615.385,300L594.872,300L574.359,300L553.846,300L533.333,300L512.821,300L492.308,257.143L471.795,300L451.282,300L430.769,300L410.256,300L389.744,300L369.231,300L348.718,300L328.205,300L307.692,257.143L287.179,214.286L266.667,300L246.154,257.143L225.641,300L205.128,214.286L184.615,257.143L164.103,300L143.59,300L123.077,300L102.564,300L82.051,300L61.538,300L41.026,300L20.513,300L0,300Z" fill="#eeca3b"/></g></g><path class="foreground" aria-hidden="true" d="" display="none"/></g><g transform="translate(0,0)"><path class="background" aria-hidden="true" d="M0,0h800v300h-800Z"/><g><g class="mark-area role-mark marks" role="graphics-object" aria-roledescription="area mark container"><path aria-label="Date: Mar 16, 2026; Unique Visitors/day: 0; Repository: karlmdavis/test-repo-for-move" role="graphics-symbol" aria-roledescription="area mark" d="M0,300L20.513,300L41.026,300L61.538,300L82.051,300L102.564,300L123.077,300L143.59,300L164.103,300L184.615,257.143L205.128,214.286L225.641,300L246.154,257.143L266.667,300L287.179,214.286L307.692,257.143L328.205,300L348.718,300L369.231,300L389.744,300L410.256,300L430.769,300L451.282,300L471.795,300L492.308,257.143L512.821,300L533.333,300L553.846,300L574.359,300L594.872,300L615.385,300L635.897,300L656.41,300L676.923,300L697.436,300L717.949,257.143L738.462,300L758.974,300L779.487,300L800,257.143L800,257.143L779.487,300L758.974,300L738.462,300L717.949,257.143L697.436,300L676.923,300L656.41,300L635.897,300L615.385,300L594.872,300L574.359,300L553.846,300L533.333,300L512.821,300L492.308,257.143L471.795,300L451.282,300L430.769,300L410.256,300L389.744,300L369.231,300L348.718,300L328.205,300L307.692,257.143L287.179,214.286L266.667,300L246.154,257.143L225.641,300L205.128,214.286L184.615,257.143L164.103,300L143.59,300L123.077,300L102.564,300L82.051,300L61.538,300L41.026,300L20.513,300L0,300Z" fill="#b279a2"/></g></g><path class="foreground" aria-hidden="true" d="" display="none"/></g><g transform="translate(0,0)"><path class="background" aria-hidden="true" d="M0,0h800v300h-800Z"/><g><g class="mark-area role-mark marks" role="graphics-object" aria-roledescription="area mark container"><path aria-label="Date: Mar 16, 2026; Unique Visitors/day: 0; Repository: karlmdavis/todoist-ai" role="graphics-symbol" aria-roledescription="area mark" d="M0,300L20.513,300L41.026,300L61.538,300L82.051,300L102.564,300L123.077,300L143.59,300L164.103,300L184.615,257.143L205.128,214.286L225.641,300L246.154,257.143L266.667,300L287.179,214.286L307.692,257.143L328.205,300L348.718,300L369.231,300L389.744,300L410.256,300L430.769,300L451.282,300L471.795,300L492.308,257.143L512.821,300L533.333,300L553.846,300L574.359,300L594.872,300L615.385,300L635.897,300L656.41,300L676.923,300L697.436,300L717.949,257.143L738.462,300L758.974,300L779.487,300L800,257.143L800,257.143L779.487,300L758.974,300L738.462,300L717.949,300L697.436,300L676.923,300L656.41,300L635.897,300L615.385,300L594.872,300L574.359,300L553.846,300L533.333,300L512.821,300L492.308,257.143L471.795,300L451.282,300L430.769,300L410.256,300L389.744,300L369.231,300L348.718,300L328.205,300L307.692,257.143L287.179,257.143L266.667,300L246.154,257.143L225.641,300L205.128,214.286L184.615,257.143L164.103,300L143.59,300L123.077,300L102.564,300L82.051,300L61.538,300L41.026,300L20.513,300L0,300Z" fill="#ff9da6"/></g></g><path class="foreground" aria-hidden="true" d="" display="none"/></g><g transform="translate(0,0)"><path class="background" aria-hidden="true" d="M0,0h800v300h-800Z"/><g><g class="mark-area role-mark marks" role="graphics-object" aria-roledescription="area mark container"><path aria-label="Date: Mar 16, 2026; Unique Visitors/day: 0; Repository: karlmdavis/usgs-water-api-java" role="graphics-symbol" aria-roledescription="area mark" d="M0,300L20.513,300L41.026,300L61.538,300L82.051,300L102.564,300L123.077,300L143.59,300L164.103,300L184.615,257.143L205.128,214.286L225.641,300L246.154,257.143L266.667,300L287.179,257.143L307.692,257.143L328.205,300L348.718,300L369.231,300L389.744,300L410.256,300L430.769,300L451.282,300L471.795,300L492.308,257.143L512.821,300L533.333,300L553.846,300L574.359,300L594.872,300L615.385,300L635.897,300L656.41,300L676.923,300L697.436,300L717.949,300L738.462,300L758.974,300L779.487,300L800,257.143L800,257.143L779.487,300L758.974,300L738.462,300L717.949,300L697.436,300L676.923,300L656.41,300L635.897,300L615.385,300L594.872,300L574.359,300L553.846,300L533.333,300L512.821,300L492.308,257.143L471.795,300L451.282,300L430.769,300L410.256,300L389.744,300L369.231,300L348.718,300L328.205,300L307.692,257.143L287.179,257.143L266.667,300L246.154,257.143L225.641,300L205.128,214.286L184.615,257.143L164.103,300L143.59,300L123.077,300L102.564,300L82.051,300L61.538,300L41.026,300L20.513,300L0,300Z" fill="#9d755d"/></g></g><path class="foreground" aria-hidden="true" d="" display="none"/></g><g transform="translate(0,0)"><path class="background" aria-hidden="true" d="M0,0h800v300h-800Z"/><g><g class="mark-area role-mark marks" role="graphics-object" aria-roledescription="area mark container"><path aria-label="Date: Mar 16, 2026; Unique Visitors/day: 0; Repository: karlmdavis/workstation-base-ansible-role" role="graphics-symbol" aria-roledescription="area mark" d="M0,300L20.513,300L41.026,300L61.538,300L82.051,300L102.564,300L123.077,300L143.59,300L164.103,300L184.615,257.143L205.128,214.286L225.641,300L246.154,257.143L266.667,300L287.179,257.143L307.692,257.143L328.205,300L348.718,300L369.231,300L389.744,300L410.256,300L430.769,300L451.282,300L471.795,300L492.308,257.143L512.821,300L533.333,300L553.846,300L574.359,300L594.872,300L615.385,300L635.897,300L656.41,300L676.923,300L697.436,300L717.949,300L738.462,300L758.974,300L779.487,300L800,257.143L800,257.143L779.487,300L758.974,300L738.462,300L717.949,300L697.436,300L676.923,300L656.41,300L635.897,300L615.385,300L594.872,300L574.359,300L553.846,300L533.333,300L512.821,300L492.308,257.143L471.795,300L451.282,300L430.769,300L410.256,300L389.744,300L369.231,300L348.718,300L328.205,300L307.692,257.143L287.179,257.143L266.667,300L246.154,257.143L225.641,300L205.128,214.286L184.615,257.143L164.103,300L143.59,300L123.077,300L102.564,300L82.051,300L61.538,300L41.026,300L20.513,300L0,300Z" fill="#bab0ac"/></g></g><path class="foreground" aria-hidden="true" d="" display="none"/></g><g transform="translate(0,0)"><path class="background" aria-hidden="true" d="M0,0h800v300h-800Z"/><g><g class="mark-area role-mark marks" role="graphics-object" aria-roledescription="area mark container"><path aria-label="Date: Mar 16, 2026; Unique Visitors/day: 0; Repository: karlmdavis/xmlpull" role="graphics-symbol" aria-roledescription="area mark" d="M0,300L20.513,300L41.026,300L61.538,300L82.051,300L102.564,300L123.077,300L143.59,300L164.103,300L184.615,257.143L205.128,214.286L225.641,300L246.154,257.143L266.667,300L287.179,257.143L307.692,257.143L328.205,300L348.718,300L369.231,300L389.744,300L410.256,300L430.769,300L451.282,300L471.795,300L492.308,257.143L512.821,300L533.333,300L553.846,300L574.359,300L594.872,300L615.385,300L635.897,300L656.41,300L676.923,300L697.436,300L717.949,300L738.462,300L758.974,300L779.487,300L800,257.143L800,300L779.487,300L758.974,300L738.462,300L717.949,300L697.436,300L676.923,300L656.41,300L635.897,300L615.385,300L594.872,300L574.359,300L553.846,300L533.333,300L512.821,300L492.308,300L471.795,300L451.282,300L430.769,300L410.256,300L389.744,300L369.231,300L348.718,300L328.205,300L307.692,300L287.179,300L266.667,300L246.154,300L225.641,300L205.128,300L184.615,300L164.103,300L143.59,300L123.077,300L102.564,300L82.051,300L61.538,300L41.026,300L20.513,300L0,300Z" fill="#4c78a8"/></g></g><path class="foreground" aria-hidden="true" d="" display="none"/></g></g><g class="mark-group role-legend" role="graphics-symbol" aria-roledescription="legend" aria-label="Symbol legend titled 'Repository' for fill color with 41 values: karlmdavis/FHIR-Server, karlmdavis/ansible, karlmdavis/ansible-jenkins, karlmdavis/ansible-role-acmetool, karlmdavis/ansible-role-bind-dns, ending with karlmdavis/xmlpull"><g transform="translate(818,0)"><path class="background" aria-hidden="true" d="M0,0h176v404h-176Z" pointer-events="none"/><g><g class="mark-group role-legend-entry"><g transform="translate(0,16)"><path class="background" aria-hidden="true" d="M0,0h0v0h0Z" pointer-events="none"/><g><g class="mark-group role-scope" role="graphics-object" aria-roledescription="group mark container"><g transform="translate(0,0)"><path class="background" aria-hidden="true" d="M0,0h176v11h-176Z" pointer-events="none" opacity="1"/><g><g class="mark-symbol role-legend-symbol" pointer-events="none"><path transform="translate(6,6)" d="M5,0A5,5,0,1,1,-5,0A5,5,0,1,1,5,0" fill="#4c78a8" stroke-width="1.5" opacity="1"/></g><g class="mark-text role-legend-label" pointer-events="none"><text text-anchor="start" transform="translate(16,9)" font-family="sans-serif" font-size="10px" fill="#000" opacity="1">karlmdavis/FHIR-Server</text></g></g><path class="foreground" aria-hidden="true" d="" pointer-events="none" display="none"/></g><g transform="translate(0,13)"><path class="background" aria-hidden="true" d="M0,0h176v11h-176Z" pointer-events="none" opacity="1"/><g><g class="mark-symbol role-legend-symbol" pointer-events="none"><path transform="translate(6,6)" d="M5,0A5,5,0,1,1,-5,0A5,5,0,1,1,5,0" fill="#f58518" stroke-width="1.5" opacity="1"/></g><g class="mark-text role-legend-label" pointer-events="none"><text text-anchor="start" transform="translate(16,9)" font-family="sans-serif" font-size="10px" fill="#000" opacity="1">karlmdavis/ansible</text></g></g><path class="foreground" aria-hidden="true" d="" pointer-events="none" display="none"/></g><g transform="translate(0,26)"><path class="background" aria-hidden="true" d="M0,0h176v11h-176Z" pointer-events="none" opacity="1"/><g><g class="mark-symbol role-legend-symbol" pointer-events="none"><path transform="translate(6,6)" d="M5,0A5,5,0,1,1,-5,0A5,5,0,1,1,5,0" fill="#e45756" stroke-width="1.5" opacity="1"/></g><g class="mark-text role-legend-label" pointer-events="none"><text text-anchor="start" transform="translate(16,9)" font-family="sans-serif" font-size="10px" fill="#000" opacity="1">karlmdavis/ansible-jenkins</text></g></g><path class="foreground" aria-hidden="true" d="" pointer-events="none" display="none"/></g><g transform="translate(0,39)"><path class="background" aria-hidden="true" d="M0,0h176v11h-176Z" pointer-events="none" opacity="1"/><g><g class="mark-symbol role-legend-symbol" pointer-events="none"><path transform="translate(6,6)" d="M5,0A5,5,0,1,1,-5,0A5,5,0,1,1,5,0" fill="#72b7b2" stroke-width="1.5" opacity="1"/></g><g class="mark-text role-legend-label" pointer-events="none"><text text-anchor="start" transform="translate(16,9)" font-family="sans-serif" font-size="10px" fill="#000" opacity="1">karlmdavis/ansible-role-acmetool</text></g></g><path class="foreground" aria-hidden="true" d="" pointer-events="none" display="none"/></g><g transform="translate(0,52)"><path class="background" aria-hidden="true" d="M0,0h176v11h-176Z" pointer-events="none" opacity="1"/><g><g class="mark-symbol role-legend-symbol" pointer-events="none"><path transform="translate(6,6)" d="M5,0A5,5,0,1,1,-5,0A5,5,0,1,1,5,0" fill="#54a24b" stroke-width="1.5" opacity="1"/></g><g class="mark-text role-legend-label" pointer-events="none"><text text-anchor="start" transform="translate(16,9)" font-family="sans-serif" font-size="10px" fill="#000" opacity="1">karlmdavis/ansible-role-bind-dns</text></g></g><path class="foreground" aria-hidden="true" d="" pointer-events="none" display="none"/></g><g transform="translate(0,65)"><path class="background" aria-hidden="true" d="M0,0h176v11h-176Z" pointer-events="none" opacity="1"/><g><g class="mark-symbol role-legend-symbol" pointer-events="none"><path transform="translate(6,6)" d="M5,0A5,5,0,1,1,-5,0A5,5,0,1,1,5,0" fill="#eeca3b" stroke-width="1.5" opacity="1"/></g><g class="mark-text role-legend-label" pointer-events="none"><text text-anchor="start" transform="translate(16,9)" font-family="sans-serif" font-size="10px" fill="#000" opacity="1">karlmdavis/ansible-role-jenkins2</text></g></g><path class="foreground" aria-hidden="true" d="" pointer-events="none" display="none"/></g><g transform="translate(0,78)"><path class="background" aria-hidden="true" d="M0,0h176v11h-176Z" pointer-events="none" opacity="1"/><g><g class="mark-symbol role-legend-symbol" pointer-events="none"><path transform="translate(6,6)" d="M5,0A5,5,0,1,1,-5,0A5,5,0,1,1,5,0" fill="#b279a2" stroke-width="1.5" opacity="1"/></g><g class="mark-text role-legend-label" pointer-events="none"><text text-anchor="start" transform="translate(16,9)" font-family="sans-serif" font-size="10px" fill="#000" opacity="1">karlmdavis/ansible-role-ldap</text></g></g><path class="foreground" aria-hidden="true" d="" pointer-events="none" display="none"/></g><g transform="translate(0,91)"><path class="background" aria-hidden="true" d="M0,0h176v11h-176Z" pointer-events="none" opacity="1"/><g><g class="mark-symbol role-legend-symbol" pointer-events="none"><path transform="translate(6,6)" d="M5,0A5,5,0,1,1,-5,0A5,5,0,1,1,5,0" fill="#ff9da6" stroke-width="1.5" opacity="1"/></g><g class="mark-text role-legend-label" pointer-events="none"><text text-anchor="start" transform="translate(16,9)" font-family="sans-serif" font-size="10px" fill="#000" opacity="1">karlmdavis/ansible-role-rcm-dotfiles</text></g></g><path class="foreground" aria-hidden="true" d="" pointer-events="none" display="none"/></g><g transform="translate(0,104)"><path class="background" aria-hidden="true" d="M0,0h176v11h-176Z" pointer-events="none" opacity="1"/><g><g class="mark-symbol role-legend-symbol" pointer-events="none"><path transform="translate(6,6)" d="M5,0A5,5,0,1,1,-5,0A5,5,0,1,1,5,0" fill="#9d755d" stroke-width="1.5" opacity="1"/></g><g class="mark-text role-legend-label" pointer-events="none"><text text-anchor="start" transform="translate(16,9)" font-family="sans-serif" font-size="10px" fill="#000" opacity="1">karlmdavis/ansible-roles</text></g></g><path class="foreground" aria-hidden="true" d="" pointer-events="none" display="none"/></g><g transform="translate(0,117)"><path class="background" aria-hidden="true" d="M0,0h176v11h-176Z" pointer-events="none" opacity="1"/><g><g class="mark-symbol role-legend-symbol" pointer-events="none"><path transform="translate(6,6)" d="M5,0A5,5,0,1,1,-5,0A5,5,0,1,1,5,0" fill="#bab0ac" stroke-width="1.5" opacity="1"/></g><g class="mark-text role-legend-label" pointer-events="none"><text text-anchor="start" transform="translate(16,9)" font-family="sans-serif" font-size="10px" fill="#000" opacity="1">karlmdavis/bbonfhir-dev-infra-doc…</text></g></g><path class="foreground" aria-hidden="true" d="" pointer-events="none" display="none"/></g><g transform="translate(0,130)"><path class="background" aria-hidden="true" d="M0,0h176v11h-176Z" pointer-events="none" opacity="1"/><g><g class="mark-symbol role-legend-symbol" pointer-events="none"><path transform="translate(6,6)" d="M5,0A5,5,0,1,1,-5,0A5,5,0,1,1,5,0" fill="#4c78a8" stroke-width="1.5" opacity="1"/></g><g class="mark-text role-legend-label" pointer-events="none"><text text-anchor="start" transform="translate(16,9)" font-family="sans-serif" font-size="10px" fill="#000" opacity="1">karlmdavis/can-i-kayak-baltimore</text></g></g><path class="foreground" aria-hidden="true" d="" pointer-events="none" display="none"/></g><g transform="translate(0,143)"><path class="background" aria-hidden="true" d="M0,0h176v11h-176Z" pointer-events="none" opacity="1"/><g><g class="mark-symbol role-legend-symbol" pointer-events="none"><path transform="translate(6,6)" d="M5,0A5,5,0,1,1,-5,0A5,5,0,1,1,5,0" fill="#f58518" stroke-width="1.5" opacity="1"/></g><g class="mark-text role-legend-label" pointer-events="none"><text text-anchor="start" transform="translate(16,9)" font-family="sans-serif" font-size="10px" fill="#000" opacity="1">karlmdavis/datanucleus-test-jdo-1…</text></g></g><path class="foreground" aria-hidden="true" d="" pointer-events="none" display="none"/></g><g transform="translate(0,156)"><path class="background" aria-hidden="true" d="M0,0h176v11h-176Z" pointer-events="none" opacity="1"/><g><g class="mark-symbol role-legend-symbol" pointer-events="none"><path transform="translate(6,6)" d="M5,0A5,5,0,1,1,-5,0A5,5,0,1,1,5,0" fill="#e45756" stroke-width="1.5" opacity="1"/></g><g class="mark-text role-legend-label" pointer-events="none"><text text-anchor="start" transform="translate(16,9)" font-family="sans-serif" font-size="10px" fill="#000" opacity="1">karlmdavis/dotfiles</text></g></g><path class="foreground" aria-hidden="true" d="" pointer-events="none" display="none"/></g><g transform="translate(0,169)"><path class="background" aria-hidden="true" d="M0,0h176v11h-176Z" pointer-events="none" opacity="1"/><g><g class="mark-symbol role-legend-symbol" pointer-events="none"><path transform="translate(6,6)" d="M5,0A5,5,0,1,1,-5,0A5,5,0,1,1,5,0" fill="#72b7b2" stroke-width="1.5" opacity="1"/></g><g class="mark-text role-legend-label" pointer-events="none"><text text-anchor="start" transform="translate(16,9)" font-family="sans-serif" font-size="10px" fill="#000" opacity="1">karlmdavis/fhir-benchmarks</text></g></g><path class="foreground" aria-hidden="true" d="" pointer-events="none" display="none"/></g><g transform="translate(0,182)"><path class="background" aria-hidden="true" d="M0,0h176v11h-176Z" pointer-events="none" opacity="1"/><g><g class="mark-symbol role-legend-symbol" pointer-events="none"><path transform="translate(6,6)" d="M5,0A5,5,0,1,1,-5,0A5,5,0,1,1,5,0" fill="#54a24b" stroke-width="1.5" opacity="1"/></g><g class="mark-text role-legend-label" pointer-events="none"><text text-anchor="start" transform="translate(16,9)" font-family="sans-serif" font-size="10px" fill="#000" opacity="1">karlmdavis/hapi-fhir-jpaserver-sta…</text></g></g><path class="foreground" aria-hidden="true" d="" pointer-events="none" display="none"/></g><g transform="translate(0,195)"><path class="background" aria-hidden="true" d="M0,0h176v11h-176Z" pointer-events="none" opacity="1"/><g><g class="mark-symbol role-legend-symbol" pointer-events="none"><path transform="translate(6,6)" d="M5,0A5,5,0,1,1,-5,0A5,5,0,1,1,5,0" fill="#eeca3b" stroke-width="1.5" opacity="1"/></g><g class="mark-text role-legend-label" pointer-events="none"><text text-anchor="start" transform="translate(16,9)" font-family="sans-serif" font-size="10px" fill="#000" opacity="1">karlmdavis/hello-rust-actix</text></g></g><path class="foreground" aria-hidden="true" d="" pointer-events="none" display="none"/></g><g transform="translate(0,208)"><path class="background" aria-hidden="true" d="M0,0h176v11h-176Z" pointer-events="none" opacity="1"/><g><g class="mark-symbol role-legend-symbol" pointer-events="none"><path transform="translate(6,6)" d="M5,0A5,5,0,1,1,-5,0A5,5,0,1,1,5,0" fill="#b279a2" stroke-width="1.5" opacity="1"/></g><g class="mark-text role-legend-label" pointer-events="none"><text text-anchor="start" transform="translate(16,9)" font-family="sans-serif" font-size="10px" fill="#000" opacity="1">karlmdavis/jessentials</text></g></g><path class="foreground" aria-hidden="true" d="" pointer-events="none" display="none"/></g><g transform="translate(0,221)"><path class="background" aria-hidden="true" d="M0,0h176v11h-176Z" pointer-events="none" opacity="1"/><g><g class="mark-symbol role-legend-symbol" pointer-events="none"><path transform="translate(6,6)" d="M5,0A5,5,0,1,1,-5,0A5,5,0,1,1,5,0" fill="#ff9da6" stroke-width="1.5" opacity="1"/></g><g class="mark-text role-legend-label" pointer-events="none"><text text-anchor="start" transform="translate(16,9)" font-family="sans-serif" font-size="10px" fill="#000" opacity="1">karlmdavis/justdavis-ansible</text></g></g><path class="foreground" aria-hidden="true" d="" pointer-events="none" display="none"/></g><g transform="translate(0,234)"><path class="background" aria-hidden="true" d="M0,0h176v11h-176Z" pointer-events="none" opacity="1"/><g><g class="mark-symbol role-legend-symbol" pointer-events="none"><path transform="translate(6,6)" d="M5,0A5,5,0,1,1,-5,0A5,5,0,1,1,5,0" fill="#9d755d" stroke-width="1.5" opacity="1"/></g><g class="mark-text role-legend-label" pointer-events="none"><text text-anchor="start" transform="translate(16,9)" font-family="sans-serif" font-size="10px" fill="#000" opacity="1">karlmdavis/justdavis-finances</text></g></g><path class="foreground" aria-hidden="true" d="" pointer-events="none" display="none"/></g><g transform="translate(0,247)"><path class="background" aria-hidden="true" d="M0,0h176v11h-176Z" pointer-events="none" opacity="1"/><g><g class="mark-symbol role-legend-symbol" pointer-events="none"><path transform="translate(6,6)" d="M5,0A5,5,0,1,1,-5,0A5,5,0,1,1,5,0" fill="#bab0ac" stroke-width="1.5" opacity="1"/></g><g class="mark-text role-legend-label" pointer-events="none"><text text-anchor="start" transform="translate(16,9)" font-family="sans-serif" font-size="10px" fill="#000" opacity="1">karlmdavis/justdavis-karl</text></g></g><path class="foreground" aria-hidden="true" d="" pointer-events="none" display="none"/></g><g transform="translate(0,260)"><path class="background" aria-hidden="true" d="M0,0h176v11h-176Z" pointer-events="none" opacity="1"/><g><g class="mark-symbol role-legend-symbol" pointer-events="none"><path transform="translate(6,6)" d="M5,0A5,5,0,1,1,-5,0A5,5,0,1,1,5,0" fill="#4c78a8" stroke-width="1.5" opacity="1"/></g><g class="mark-text role-legend-label" pointer-events="none"><text text-anchor="start" transform="translate(16,9)" font-family="sans-serif" font-size="10px" fill="#000" opacity="1">karlmdavis/justdavis-puppet</text></g></g><path class="foreground" aria-hidden="true" d="" pointer-events="none" display="none"/></g><g transform="translate(0,273)"><path class="background" aria-hidden="true" d="M0,0h176v11h-176Z" pointer-events="none" opacity="1"/><g><g class="mark-symbol role-legend-symbol" pointer-events="none"><path transform="translate(6,6)" d="M5,0A5,5,0,1,1,-5,0A5,5,0,1,1,5,0" fill="#f58518" stroke-width="1.5" opacity="1"/></g><g class="mark-text role-legend-label" pointer-events="none"><text text-anchor="start" transform="translate(16,9)" font-family="sans-serif" font-size="10px" fill="#000" opacity="1">karlmdavis/kobjects</text></g></g><path class="foreground" aria-hidden="true" d="" pointer-events="none" display="none"/></g><g transform="translate(0,286)"><path class="background" aria-hidden="true" d="M0,0h176v11h-176Z" pointer-events="none" opacity="1"/><g><g class="mark-symbol role-legend-symbol" pointer-events="none"><path transform="translate(6,6)" d="M5,0A5,5,0,1,1,-5,0A5,5,0,1,1,5,0" fill="#e45756" stroke-width="1.5" opacity="1"/></g><g class="mark-text role-legend-label" pointer-events="none"><text text-anchor="start" transform="translate(16,9)" font-family="sans-serif" font-size="10px" fill="#000" opacity="1">karlmdavis/ksoap2-android</text></g></g><path class="foreground" aria-hidden="true" d="" pointer-events="none" display="none"/></g><g transform="translate(0,299)"><path class="background" aria-hidden="true" d="M0,0h176v11h-176Z" pointer-events="none" opacity="1"/><g><g class="mark-symbol role-legend-symbol" pointer-events="none"><path transform="translate(6,6)" d="M5,0A5,5,0,1,1,-5,0A5,5,0,1,1,5,0" fill="#72b7b2" stroke-width="1.5" opacity="1"/></g><g class="mark-text role-legend-label" pointer-events="none"><text text-anchor="start" transform="translate(16,9)" font-family="sans-serif" font-size="10px" fill="#000" opacity="1">karlmdavis/kxml2</text></g></g><path class="foreground" aria-hidden="true" d="" pointer-events="none" display="none"/></g><g transform="translate(0,312)"><path class="background" aria-hidden="true" d="M0,0h176v11h-176Z" pointer-events="none" opacity="1"/><g><g class="mark-symbol role-legend-symbol" pointer-events="none"><path transform="translate(6,6)" d="M5,0A5,5,0,1,1,-5,0A5,5,0,1,1,5,0" fill="#54a24b" stroke-width="1.5" opacity="1"/></g><g class="mark-text role-legend-label" pointer-events="none"><text text-anchor="start" transform="translate(16,9)" font-family="sans-serif" font-size="10px" fill="#000" opacity="1">karlmdavis/ldap-plugin</text></g></g><path class="foreground" aria-hidden="true" d="" pointer-events="none" display="none"/></g><g transform="translate(0,325)"><path class="background" aria-hidden="true" d="M0,0h176v11h-176Z" pointer-events="none" opacity="1"/><g><g class="mark-symbol role-legend-symbol" pointer-events="none"><path transform="translate(6,6)" d="M5,0A5,5,0,1,1,-5,0A5,5,0,1,1,5,0" fill="#eeca3b" stroke-width="1.5" opacity="1"/></g><g class="mark-text role-legend-label" pointer-events="none"><text text-anchor="start" transform="translate(16,9)" font-family="sans-serif" font-size="10px" fill="#000" opacity="1">karlmdavis/lego-ev3dev-rs</text></g></g><path class="foreground" aria-hidden="true" d="" pointer-events="none" display="none"/></g><g transform="translate(0,338)"><path class="background" aria-hidden="true" d="M0,0h176v11h-176Z" pointer-events="none" opacity="1"/><g><g class="mark-symbol role-legend-symbol" pointer-events="none"><path transform="translate(6,6)" d="M5,0A5,5,0,1,1,-5,0A5,5,0,1,1,5,0" fill="#b279a2" stroke-width="1.5" opacity="1"/></g><g class="mark-text role-legend-label" pointer-events="none"><text text-anchor="start" transform="translate(16,9)" font-family="sans-serif" font-size="10px" fill="#000" opacity="1">karlmdavis/liquibase</text></g></g><path class="foreground" aria-hidden="true" d="" pointer-events="none" display="none"/></g><g transform="translate(0,351)"><path class="background" aria-hidden="true" d="M0,0h176v11h-176Z" pointer-events="none" opacity="1"/><g><g class="mark-symbol role-legend-symbol" pointer-events="none"><path transform="translate(6,6)" d="M5,0A5,5,0,1,1,-5,0A5,5,0,1,1,5,0" fill="#ff9da6" stroke-width="1.5" opacity="1"/></g><g class="mark-text role-legend-label" pointer-events="none"><text text-anchor="start" transform="translate(16,9)" font-family="sans-serif" font-size="10px" fill="#000" opacity="1">karlmdavis/m2e-core</text></g></g><path class="foreground" aria-hidden="true" d="" pointer-events="none" display="none"/></g><g transform="translate(0,364)"><path class="background" aria-hidden="true" d="M0,0h176v11h-176Z" pointer-events="none" opacity="1"/><g><g class="mark-symbol role-legend-symbol" pointer-events="none"><path transform="translate(6,6)" d="M5,0A5,5,0,1,1,-5,0A5,5,0,1,1,5,0" fill="#9d755d" stroke-width="1.5" opacity="1"/></g><g class="mark-text role-legend-label" pointer-events="none"><text text-anchor="start" transform="translate(16,9)" font-family="sans-serif" font-size="10px" fill="#000" opacity="1">karlmdavis/m2e-core-tests</text></g></g><path class="foreground" aria-hidden="true" d="" pointer-events="none" display="none"/></g><g transform="translate(0,377)"><path class="background" aria-hidden="true" d="M0,0h176v11h-176Z" pointer-events="none" opacity="1"/><g><g class="mark-symbol role-legend-symbol" pointer-events="none"><path transform="translate(6,6)" d="M5,0A5,5,0,1,1,-5,0A5,5,0,1,1,5,0" fill="#bab0ac" stroke-width="1.5" opacity="1"/></g><g class="mark-text role-legend-label" pointer-events="none"><text text-anchor="start" transform="translate(16,9)" font-family="sans-serif" font-size="10px" fill="#000" opacity="1">…12 entries</text></g></g><path class="foreground" aria-hidden="true" d="" pointer-events="none" display="none"/></g></g></g><path class="foreground" aria-hidden="true" d="" pointer-events="none" display="none"/></g></g><g class="mark-text role-legend-title" pointer-events="none"><text text-anchor="start" transform="translate(0,9)" font-family="sans-serif" font-size="11px" font-weight="bold" fill="#000" opacity="1">Repository</text></g></g><path class="foreground" aria-hidden="true" d="" pointer-events="none" display="none"/></g></g><g class="mark-group role-title"><g transform="translate(400,-22)"><path class="background" aria-hidden="true" d="M0,0h0v0h0Z" pointer-events="none"/><g><g class="mark-text role-title-text" role="graphics-symbol" aria-roledescription="title" aria-label="Title text 'Unique Visitors per Day'" pointer-events="none"><text text-anchor="middle" transform="translate(0,10)" font-family="sans-serif" font-size="13px" font-weight="bold" fill="#000" opacity="1">Unique Visitors per Day</text></g></g><path class="foreground" aria-hidden="true" d="" pointer-events="none" display="none"/></g></g></g><path class="foreground" aria-hidden="true" d="" display="none"/></g></g></g></svg>