<svg xmlns="http://www.w3.org/2000/svg" xmlns:xlink="http://www.w3.org/1999/xlink" version="1.1" class="marks" width="1043" height="436" viewBox="0 0 1043 436"><rect width="1043" height="436" fill="white"/><g fill="none" stroke-miterlimit="10" transform="translate(44,27)"><g class="mark-group role-frame root" role="graphics-object" aria-roledescription="group mark container"><g transform="translate(0,0)"><path class="background" aria-hidden="true" d="M0.5,0.5h800v300h-800Z" stroke="#ddd"/><g><g class="mark-group role-axis" aria-hidden="true"><g transform="translate(0.5,300.5)"><path class="background" aria-hidden="true" d="M0,0h0v0h0Z" pointer-events="none"/><g><g class="mark-rule role-axis-grid" pointer-events="none"><line transform="translate(19,-300)" x2="0" y2="300" stroke="#ddd" stroke-width="1" opacity="1"/><line transform="translate(57,-300)" x2="0" y2="300" stroke="#ddd" stroke-width="1" opacity="1"/><line transform="translate(95,-300)" x2="0" y2="300" stroke="#ddd" stroke-width="1" opacity="1"/><line transform="translate(133,-300)" x2="0" y2="300" stroke="#ddd" stroke-width="1" opacity="1"/><line transform="translate(171,-300)" x2="0" y2="300" stroke="#ddd" stroke-width="1" opacity="1"/><line transform="translate(210,-300)" x2="0" y2="300" stroke="#ddd" stroke-width="1" opacity="1"/><line transform="translate(248,-300)" x2="0" y2="300" stroke="#ddd" stroke-width="1" opacity="1"/><line transform="translate(286,-300)" x2="0" y2="300" stroke="#ddd" stroke-width="1" opacity="1"/><line transform="translate(305,-300)" x2="0" y2="300" stroke="#ddd" stroke-width="1" opacity="1"/><line transform="translate(343,-300)" x2="0" y2="300" stroke="#ddd" stroke-width="1" opacity="1"/><line transform="translate(381,-300)" x2="0" y2="300" stroke="#ddd" stroke-width="1" opacity="1"/><line transform="translate(419,-300)" x2="0" y2="300" stroke="#ddd" stroke-width="1" opacity="1"/><line transform="translate(457,-300)" x2="0" y2="300" stroke="#ddd" stroke-width="1" opacity="1"/><line transform="translate(495,-300)" x2="0" y2="300" stroke="#ddd" stroke-width="1" opacity="1"/><line transform="translate(533,-300)" x2="0" y2="300" stroke="#ddd" stroke-width="1" opacity="1"/><line transform="translate(571,-300)" x2="0" y2="300" stroke="#ddd" stroke-width="1" opacity="1"/><line transform="translate(610,-300)" x2="0" y2="300" stroke="#ddd" stroke-width="1" opacity="1"/><line transform="translate(648,-300)" x2="0" y2="300" stroke="#ddd" stroke-width="1" opacity="1"/><line transform="translate(686,-300)" x2="0" y2="300" stroke="#ddd" stroke-width="1" opacity="1"/><line transform="translate(724,-300)" x2="0" y2="300" stroke="#ddd" stroke-width="1" opacity="1"/><line transform="translate(762,-300)" x2="0" y2="300" stroke="#ddd" stroke-width="1" opacity="1"/><line transform="translate(800,-300)" x2="0" y2="300" stroke="#ddd" stroke-width="1" opacity="1"/></g></g><path class="foreground" aria-hidden="true" d="" pointer-events="none" display="none"/></g></g><g class="mark-group role-axis" aria-hidden="true"><g transform="translate(0.5,0.5)"><path class="background" aria-hidden="true" d="M0,0h0v0h0Z" pointer-events="none"/><g><g class="mark-rule role-axis-grid" pointer-events="none"><line transform="translate(0,300)" x2="800" y2="0" stroke="#ddd" stroke-width="1" opacity="1"/><line transform="translate(0,270)" x2="800" y2="0" stroke="#ddd" stroke-width="1" opacity="1"/><line transform="translate(0,240)" x2="800" y2="0" stroke="#ddd" stroke-width="1" opacity="1"/><line transform="translate(0,210)" x2="800" y2="0" stroke="#ddd" stroke-width="1" opacity="1"/><line transform="translate(0,180)" x2="800" y2="0" stroke="#ddd" stroke-width="1" opacity="1"/><line transform="translate(0,150)" x2="800" y2="0" stroke="#ddd" stroke-width="1" opacity="1"/><line transform="translate(0,120)" x2="800" y2="0" stroke="#ddd" stroke-width="1" opacity="1"/><line transform="translate(0,90)" x2="800" y2="0" stroke="#ddd" stroke-width="1" opacity="1"/><line transform="translate(0,60)" x2="800" y2="0" stroke="#ddd" stroke-width="1" opacity="1"/><line transform="translate(0,30)" x2="800" y2="0" stroke="#ddd" stroke-width="1" opacity="1"/><line transform="translate(0,0)" x2="800" y2="0" stroke="#ddd" stroke-width="1" opacity="1"/></g></g><path class="foreground" aria-hidden="true" d="" pointer-events="none" display="none"/></g></g><g class="mark-group role-axis" role="graphics-symbol" aria-roledescription="axis" aria-label="X-axis titled 'Date' for a time scale with values from Monday, 16 March 2026, 12:00:00 AM to Monday, 27 April 2026, 12:00:00 AM"><g transform="translate(0.5,300.5)"><path class="background" aria-hidden="true" d="M0,0h0v0h0Z" pointer-events="none"/><g><g class="mark-rule role-axis-tick" pointer-events="none"><line transform="translate(19,0)" x2="0" y2="5" stroke="#888" stroke-width="1" opacity="1"/><line transform="translate(57,0)" x2="0" y2="5" stroke="#888" stroke-width="1" opacity="1"/><line transform="translate(95,0)" x2="0" y2="5" stroke="#888" stroke-width="1" opacity="1"/><line transform="translate(133,0)" x2="0" y2="5" stroke="#888" stroke-width="1" opacity="1"/><line transform="translate(171,0)" x2="0" y2="5" stroke="#888" stroke-width="1" opacity="1"/><line transform="translate(210,0)" x2="0" y2="5" stroke="#888" stroke-width="1" opacity="1"/><line transform="translate(248,0)" x2="0" y2="5" stroke="#888" stroke-width="1" opacity="1"/><line transform="translate(286,0)" x2="0" y2="5" stroke="#888" stroke-width="1" opacity="1"/><line transform="translate(305,0)" x2="0" y2="5" stroke="#888" stroke-width="1" opacity="1"/><line transform="translate(343,0)" x2="0" y2="5" stroke="#888" stroke-width="1" opacity="1"/><line transform="translate(381,0)" x2="0" y2="5" stroke="#888" stroke-width="1" opacity="1"/><line transform="translate(419,0)" x2="0" y2="5" stroke="#888" stroke-width="1" opacity="1"/><line transform="translate(457,0)" x2="0" y2="5" stroke="#888" stroke-width="1" opacity="1"/><line transform="translate(495,0)" x2="0" y2="5" stroke="#888" stroke-width="1" opacity="1"/><line transform="translate(533,0)" x2="0" y2="5" stroke="#888" stroke-width="1" opacity="1"/><line transform="translate(571,0)" x2="0" y2="5" stroke="#888" stroke-width="1" opacity="1"/><line transform="translate(610,0)" x2="0" y2="5" stroke="#888" stroke-width="1" opacity="1"/><line transform="translate(648,0)" x2="0" y2="5" stroke="#888" stroke-width="1" opacity="1"/><line transform="translate(686,0)" x2="0" y2="5" stroke="#888" stroke-width="1" opacity="1"/><line transform="translate(724,0)" x2="0" y2="5" stroke="#888" stroke-width="1" opacity="1"/><line transform="translate(762,0)" x2="0" y2="5" stroke="#888" stroke-width="1" opacity="1"/><line transform="translate(800,0)" x2="0" y2="5" stroke="#888" stroke-width="1" opacity="1"/></g><g class="mark-text role-axis-label" pointer-events="none"><text text-anchor="middle" transform="translate(19.047619047619047,15)" font-family="sans-serif" font-size="10px" fill="#000" opacity="1">Tue 17</text><text text-anchor="middle" transform="translate(57.14285714285714,15)" font-family="sans-serif" font-size="10px" fill="#000" opacity="0">Thu 19</text><text text-anchor="middle" transform="translate(95.23809523809523,15)" font-family="sans-serif" font-size="10px" fill="#000" opacity="1">Sat 21</text><text text-anchor="middle" transform="translate(133.33333333333331,15)" font-family="sans-serif" font-size="10px" fill="#000" opacity="0">Mon 23</text><text text-anchor="middle" transform="translate(171.42857142857142,15)" font-family="sans-serif" font-size="10px" fill="#000" opacity="1">Wed 25</text><text text-anchor="middle" transform="translate(209.52380952380955,15)" font-family="sans-serif" font-size="10px" fill="#000" opacity="0">Fri 27</text><text text-anchor="middle" transform="translate(247.61904761904762,15)" font-family="sans-serif" font-size="10px" fill="#000" opacity="1">Mar 29</text><text text-anchor="middle" transform="translate(285.7142857142857,15)" font-family="sans-serif" font-size="10px" fill="#000" opacity="0">Tue 31</text><text text-anchor="middle" transform="translate(304.76190476190476,15)" font-family="sans-serif" font-size="10px" fill="#000" opacity="1">April</text><text text-anchor="middle" transform="translate(342.85714285714283,15)" font-family="sans-serif" font-size="10px" fill="#000" opacity="0">Fri 03</text><text text-anchor="middle" transform="translate(380.9523809523809,15)" font-family="sans-serif" font-size="10px" fill="#000" opacity="1">Apr 05</text><text text-anchor="middle" transform="translate(419.0476190476191,15)" font-family="sans-serif" font-size="10px" fill="#000" opacity="0">Tue 07</text><text text-anchor="middle" transform="translate(457.1428571428571,15)" font-family="sans-serif" font-size="10px" fill="#000" opacity="1">Thu 09</text><text text-anchor="middle" transform="translate(495.23809523809524,15)" font-family="sans-serif" font-size="10px" fill="#000" opacity="0">Sat 11</text><text text-anchor="middle" transform="translate(533.3333333333333,15)" font-family="sans-serif" font-size="10px" fill="#000" opacity="1">Mon 13</text><text text-anchor="middle" transform="translate(571.4285714285714,15)" font-family="sans-serif" font-size="10px" fill="#000" opacity="0">Wed 15</text><text text-anchor="middle" transform="translate(609.5238095238095,15)" font-family="sans-serif" font-size="10px" fill="#000" opacity="1">Fri 17</text><text text-anchor="middle" transform="translate(647.6190476190476,15)" font-family="sans-serif" font-size="10px" fill="#000" opacity="0">Apr 19</text><text text-anchor="middle" transform="translate(685.7142857142857,15)" font-family="sans-serif" font-size="10px" fill="#000" opacity="1">Tue 21</text><text text-anchor="middle" transform="translate(723.8095238095239,15)" font-family="sans-serif" font-size="10px" fill="#000" opacity="0">Thu 23</text><text text-anchor="middle" transform="translate(761.9047619047618,15)" font-family="sans-serif" font-size="10px" fill="#000" opacity="1">Sat 25</text><text text-anchor="end" transform="translate(800,15)" font-family="sans-serif" font-size="10px" fill="#000" opacity="0">Mon 27</text></g><g class="mark-rule role-axis-domain" pointer-events="none"><line transform="translate(0,0)" x2="800" y2="0" stroke="#888" stroke-width="1" opacity="1"/></g><g class="mark-text role-axis-title" pointer-events="none"><text text-anchor="middle" transform="translate(400,30)" font-family="sans-serif" font-size="11px" font-weight="bold" fill="#000" opacity="1">Date</text></g></g><path class="foreground" aria-hidden="true" d="" pointer-events="none" display="none"/></g></g><g class="mark-group role-axis" role="graphics-symbol" aria-roledescription="axis" aria-label="Y-axis titled 'Unique Clones/day' for a linear scale with values from 0 to 100"><g transform="translate(0.5,0.5)"><path class="background" aria-hidden="true" d="M0,0h0v0h0Z" pointer-events="none"/><g><g class="mark-rule role-axis-tick" pointer-events="none"><line transform="translate(0,300)" x2="-5" y2="0" stroke="#888" stroke-width="1" opacity="1"/><line transform="translate(0,270)" x2="-5" y2="0" stroke="#888" stroke-width="1" opacity="1"/><line transform="translate(0,240)" x2="-5" y2="0" stroke="#888" stroke-width="1" opacity="1"/><line transform="translate(0,210)" x2="-5" y2="0" stroke="#888" stroke-width="1" opacity="1"/><line transform="translate(0,180)" x2="-5" y2="0" stroke="#888" stroke-width="1" opacity="1"/><line transform="translate(0,150)" x2="-5" y2="0" stroke="#888" stroke-width="1" opacity="1"/><line transform="translate(0,120)" x2="-5" y2="0" stroke="#888" stroke-width="1" opacity="1"/><line transform="translate(0,90)" x2="-5" y2="0" stroke="#888" stroke-width="1" opacity="1"/><line transform="translate(0,60)" x2="-5" y2="0" stroke="#888" stroke-width="1" opacity="1"/><line transform="translate(0,30)" x2="-5" y2="0" stroke="#888" stroke-width="1" opacity="1"/><line transform="translate(0,0)" x2="-5" y2="0" stroke="#888" stroke-width="1" opacity="1"/></g><g class="mark-text role-axis-label" pointer-events="none"><text text-anchor="end" transform="translate(-7,303)" font-family="sans-serif" font-size="10px" fill="#000" opacity="1">0</text><text text-anchor="end" transform="translate(-7,273)" font-family="sans-serif" font-size="10px" fill="#000" opacity="1">10</text><text text-anchor="end" transform="translate(-7,243)" font-family="sans-serif" font-size="10px" fill="#000" opacity="1">20</text><text text-anchor="end" transform="translate(-7,213)" font-family="sans-serif" font-size="10px" fill="#000" opacity="1">30</text><text text-anchor="end" transform="translate(-7,183)" font-family="sans-serif" font-size="10px" fill="#000" opacity="1">40</text><text text-anchor="end" transform="translate(-7,153)" font-family="sans-serif" font-size="10px" fill="#000" opacity="1">50</text><text text-anchor="end" transform="translate(-7,123)" font-family="sans-serif" font-size="10px" fill="#000" opacity="1">60</text><text text-anchor="end" transform="translate(-7,93.00000000000001)" font-family="sans-serif" font-size="10px" fill="#000" opacity="1">70</text><text text-anchor="end" transform="translate(-7,62.999999999999986)" font-family="sans-serif" font-size="10px" fill="#000" opacity="1">80</text><text text-anchor="end" transform="translate(-7,32.99999999999999)" font-family="sans-serif" font-size="10px" fill="#000" opacity="1">90</text><text text-anchor="end" transform="translate(-7,3)" font-family="sans-serif" font-size="10px" fill="#000" opacity="1">100</text></g><g class="mark-rule role-axis-domain" pointer-events="none"><line transform="translate(0,300)" x2="0" y2="-300" stroke="#888" stroke-width="1" opacity="1"/></g><g class="mark-text role-axis-title" pointer-events="none"><text text-anchor="middle" transform="translate(-27.6845703125,150) rotate(-90) translate(0,-2)" font-family="sans-serif" font-size="11px" font-weight="bold" fill="#000" opacity="1">Unique Clones/day</text></g></g><path class="foreground" aria-hidden="true" d="" pointer-events="none" display="none"/></g></g><g class="mark-group role-scope pathgroup" role="graphics-object" aria-roledescription="group mark container"><g transform="translate(0,0)"><path class="background" aria-hidden="true" d="M0,0h800v300h-800Z"/><g><g class="mark-area role-mark marks" role="graphics-object" aria-roledescription="area mark container"><path aria-label="Date: Mar 16, 2026; Unique Clones/day: 0; Repository: karlmdavis/FHIR-Server" role="graphics-symbol" aria-roledescription="area mark" d="M0,297L19.048,300L38.095,300L57.143,297L76.19,300L95.238,300L114.286,300L133.333,264L152.381,294L171.429,279L190.476,252L209.524,93L228.571,162L247.619,12L266.667,201L285.714,231L304.762,246L323.81,270L342.857,213L361.905,36L380.952,57L400,261L419.048,210L438.095,213L457.143,177L476.19,264L495.238,222L514.286,192L533.333,33L552.381,264L571.429,264L590.476,282L609.524,282L628.571,291L647.619,237L666.667,93L685.714,210L704.762,219L723.81,159L742.857,270L761.905,219L780.952,273L800,291L800,291L780.952,273L761.905,219L742.857,270L723.81,159L704.762,219L685.714,210L666.667,96L647.619,237L628.571,291L609.524,282L590.476,282L571.429,264L552.381,264L533.333,33L514.286,195L495.238,228L476.19,264L457.143,177L438.095,213L419.048,210L400,261L380.952,57L361.905,36L342.857,213L323.81,270L304.762,246L285.714,234L266.667,201L247.619,12L228.571,162L209.524,93L190.476,252L171.429,279L152.381,294L133.333,264L114.286,300L95.238,300L76.19,300L57.143,297L38.095,300L19.048,300L0,297Z" fill="#4c78a8"/></g></g><path class="foreground" aria-hidden="true" d="" display="none"/></g><g transform="translate(0,0)"><path class="background" aria-hidden="true" d="M0,0h800v300h-800Z"/><g><g class="mark-area role-mark marks" role="graphics-object" aria-roledescription="area mark container"><path aria-label="Date: Mar 16, 2026; Unique Clones/day: 1; Repository: karlmdavis/ansible" role="graphics-symbol" aria-roledescription="area mark" d="M0,297L19.048,300L38.095,300L57.143,297L76.19,300L95.238,300L114.286,300L133.333,264L152.381,294L171.429,279L190.476,252L209.524,93L228.571,162L247.619,12L266.667,201L285.714,234L304.762,246L323.81,270L342.857,213L361.905,36L380.952,57L400,261L419.048,210L438.095,213L457.143,177L476.19,264L495.238,228L514.286,195L533.333,33L552.381,264L571.429,264L590.476,282L609.524,282L628.571,291L647.619,237L666.667,96L685.714,210L704.762,219L723.81,159L742.857,270L761.905,219L780.952,273L800,291L800,291L780.952,273L761.905,219L742.857,270L723.81,159L704.762,219L685.714,210L666.667,96L647.619,237L628.571,291L609.524,282L590.476,282L571.429,264L552.381,267L533.333,33L514.286,195L495.238,228L476.19,264L457.143,177L438.095,213L419.048,210L400,261L380.952,57L361.905,36L342.857,213L323.81,270L304.762,246L285.714,234L266.667,201L247.619,12L228.571,162L209.524,93L190.476,252L171.429,279L152.381,294L133.333,264L114.286,300L95.238,300L76.19,300L57.143,297L38.095,300L19.048,300L0,300Z" fill="#f58518"/></g></g><path class="foreground" aria-hidden="true" d="" display="none"/></g><g transform="translate(0,0)"><path class="background" aria-hidden="true" d="M0,0h800v300h-800Z"/><g><g class="mark-area role-mark marks" role="graphics-object" aria-roledescription="area mark container"><path aria-label="Date: Mar 16, 2026; Unique Clones/day: 0; Repository: karlmdavis/ansible-jenkins" role="graphics-symbol" aria-roledescription="area mark" d="M0,300L19.048,300L38.095,300L57.143,297L76.19,300L95.238,300L114.286,300L133.333,264L152.381,294L171.429,279L190.476,252L209.524,93L228.571,162L247.619,12L266.667,201L285.714,234L304.762,246L323.81,270L342.857,213L361.905,36L380.952,57L400,261L419.048,210L438.095,213L457.143,177L476.19,264L495.238,228L514.286,195L533.333,33L552.381,267L571.429,264L590.476,282L609.524,282L628.571,291L647.619,237L666.667,96L685.714,210L704.762,219L723.81,159L742.857,270L761.905,219L780.952,273L800,291L800,291L780.952,273L761.905,219L742.857,270L723.81,159L704.762,219L685.714,210L666.667,96L647.619,237L628.571,291L609.524,282L590.476,282L571.429,264L552.381,267L533.333,33L514.286,198L495.238,228L476.19,264L457.143,177L438.095,213L419.048,210L400,261L380.952,57L361.905,39L342.857,216L323.81,270L304.762,246L285.714,234L266.667,201L247.619,12L228.571,162L209.524,93L190.476,255L171.429,279L152.381,294L133.333,264L114.286,300L95.238,300L76.19,300L57.143,297L38.095,300L19.048,300L0,300Z" fill="#e45756"/></g></g><path class="foreground" aria-hidden="true" d="" display="none"/></g><g transform="translate(0,0)"><path class="background" aria-hidden="true" d="M0,0h800v300h-800Z"/><g><g class="mark-area role-mark marks" role="graphics-object" aria-roledescription="area mark container"><path aria-label="Date: Mar 16, 2026; Unique Clones/day: 0; Repository: karlmdavis/ansible-role-acmetool" role="graphics-symbol" aria-roledescription="area mark" d="M0,300L19.048,300L38.095,300L57.143,297L76.19,300L95.238,300L114.286,300L133.333,264L152.381,294L171.429,279L190.476,255L209.524,93L228.571,162L247.619,12L266.667,201L285.714,234L304.762,246L323.81,270L342.857,216L361.905,39L380.952,57L400,261L419.048,210L438.095,213L457.143,177L476.19,264L495.238,228L514.286,198L533.333,33L552.381,267L571.429,264L590.476,282L609.524,282L628.571,291L647.619,237L666.667,96L685.714,210L704.762,219L723.81,159L742.857,270L761.905,219L780.952,273L800,291L800,291L780.952,273L761.905,219L742.857,270L723.81,159L704.762,219L685.714,210L666.667,96L647.619,237L628.571,291L609.524,282L590.476,282L571.429,264L552.381,267L533.333,33L514.286,201L495.238,228L476.19,264L457.143,177L438.095,213L419.048,210L400,261L380.952,57L361.905,39L342.857,216L323.81,270L304.762,246L285.714,234L266.667,201L247.619,12L228.571,162L209.524,93L190.476,258L171.429,279L152.381,294L133.333,264L114.286,300L95.238,300L76.19,300L57.143,297L38.095,300L19.048,300L0,300Z" fill="#72b7b2"/></g></g><path class="foreground" aria-hidden="true" d="" display="none"/></g><g transform="translate(0,0)"><path class="background" aria-hidden="true" d="M0,0h800v300h-800Z"/><g><g class="mark-area role-mark marks" role="graphics-object" aria-roledescription="area mark container"><path aria-label="Date: Mar 16, 2026; Unique Clones/day: 0; Repository: karlmdavis/ansible-role-bind-dns" role="graphics-symbol" aria-roledescription="area mark" d="M0,300L19.048,300L38.095,300L57.143,297L76.19,300L95.238,300L114.286,300L133.333,264L152.381,294L171.429,279L190.476,258L209.524,93L228.571,162L247.619,12L266.667,201L285.714,234L304.762,246L323.81,270L342.857,216L361.905,39L380.952,57L400,261L419.048,210L438.095,213L457.143,177L476.19,264L495.238,228L514.286,201L533.333,33L552.381,267L571.429,264L590.476,282L609.524,282L628.571,291L647.619,237L666.667,96L685.714,210L704.762,219L723.81,159L742.857,270L761.905,219L780.952,273L800,291L800,291L780.952,273L761.905,219L742.857,270L723.81,162L704.762,219L685.714,210L666.667,99L647.619,237L628.571,291L609.524,282L590.476,285L571.429,264L552.381,267L533.333,45L514.286,204L495.238,228L476.19,264L457.143,180L438.095,216L419.048,210L400,261L380.952,57L361.905,42L342.857,216L323.81,270L304.762,255L285.714,234L266.667,204L247.619,15L228.571,162L209.524,99L190.476,258L171.429,279L152.381,294L133.333,264L114.286,300L95.238,300L76.19,300L57.143,297L38.095,300L19.048,300L0,300Z" fill="#54a24b"/></g></g><path class="foreground" aria-hidden="true" d="" display="none"/></g><g transform="translate(0,0)"><path class="background" aria-hidden="true" d="M0,0h800v300h-800Z"/><g><g class="mark-area role-mark marks" role="graphics-object" aria-roledescription="area mark container"><path aria-label="Date: Mar 16, 2026; Unique Clones/day: 0; Repository: karlmdavis/ansible-role-jenkins2" role="graphics-symbol" aria-roledescription="area mark" d="M0,300L19.048,300L38.095,300L57.143,297L76.19,300L95.238,300L114.286,300L133.333,264L152.381,294L171.429,279L190.476,258L209.524,99L228.571,162L247.619,15L266.667,204L285.714,234L304.762,255L323.81,270L342.857,216L361.905,42L380.952,57L400,261L419.048,210L438.095,216L457.143,180L476.19,264L495.238,228L514.286,204L533.333,45L552.381,267L571.429,264L590.476,285L609.524,282L628.571,291L647.619,237L666.667,99L685.714,210L704.762,219L723.81,162L742.857,270L761.905,219L780.952,273L800,291L800,294L780.952,282L761.905,228L742.857,270L723.81,165L704.762,219L685.714,213L666.667,102L647.619,237L628.571,291L609.524,282L590.476,285L571.429,267L552.381,267L533.333,60L514.286,204L495.238,231L476.19,270L457.143,195L438.095,216L419.048,210L400,261L380.952,60L361.905,48L342.857,219L323.81,273L304.762,258L285.714,237L266.667,204L247.619,15L228.571,165L209.524,102L190.476,261L171.429,282L152.381,297L133.333,264L114.286,300L95.238,300L76.19,300L57.143,297L38.095,300L19.048,300L0,300Z" fill="#eeca3b"/></g></g><path class="foreground" aria-hidden="true" d="" display="none"/></g><g transform="translate(0,0)"><path class="background" aria-hidden="true" d="M0,0h800v300h-800Z"/><g><g class="mark-area role-mark marks" role="graphics-object" aria-roledescription="area mark container"><path aria-label="Date: Mar 16, 2026; Unique Clones/day: 0; Repository: karlmdavis/ansible-role-ldap" role="graphics-symbol" aria-roledescription="area mark" d="M0,300L19.048,300L38.095,300L57.143,297L76.19,300L95.238,300L114.286,300L133.333,264L152.381,297L171.429,282L190.476,261L209.524,102L228.571,165L247.619,15L266.667,204L285.714,237L304.762,258L323.81,273L342.857,219L361.905,48L380.952,60L400,261L419.048,210L438.095,216L457.143,195L476.19,270L495.238,231L514.286,204L533.333,60L552.381,267L571.429,267L590.476,285L609.524,282L628.571,291L647.619,237L666.667,102L685.714,213L704.762,219L723.81,165L742.857,270L761.905,228L780.952,282L800,294L800,294L780.952,282L761.905,228L742.857,270L723.81,165L704.762,219L685.714,213L666.667,102L647.619,237L628.571,291L609.524,282L590.476,285L571.429,267L552.381,267L533.333,63L514.286,204L495.238,231L476.19,270L457.143,195L438.095,216L419.048,210L400,261L380.952,60L361.905,48L342.857,219L323.81,273L304.762,258L285.714,240L266.667,204L247.619,15L228.571,165L209.524,102L190.476,261L171.429,282L152.381,297L133.333,264L114.286,300L95.238,300L76.19,300L57.143,297L38.095,300L19.048,300L0,300Z" fill="#b279a2"/></g></g><path class="foreground" aria-hidden="true" d="" display="none"/></g><g transform="translate(0,0)"><path class="background" aria-hidden="true" d="M0,0h800v300h-800Z"/><g><g class="mark-area role-mark marks" role="graphics-object" aria-roledescription="area mark container"><path aria-label="Date: Mar 16, 2026; Unique Clones/day: 0; Repository: karlmdavis/ansible-role-rcm-dotfiles" role="graphics-symbol" aria-roledescription="area mark" d="M0,300L19.048,300L38.095,300L57.143,297L76.19,300L95.238,300L114.286,300L133.333,264L152.381,297L171.429,282L190.476,261L209.524,102L228.571,165L247.619,15L266.667,204L285.714,240L304.762,258L323.81,273L342.857,219L361.905,48L380.952,60L400,261L419.048,210L438.095,216L457.143,195L476.19,270L495.238,231L514.286,204L533.333,63L552.381,267L571.429,267L590.476,285L609.524,282L628.571,291L647.619,237L666.667,102L685.714,213L704.762,219L723.81,165L742.857,270L761.905,228L780.952,282L800,294L800,294L780.952,282L761.905,228L742.857,270L723.81,168L704.762,219L685.714,213L666.667,105L647.619,237L628.571,291L609.524,282L590.476,285L571.429,270L552.381,267L533.333,72L514.286,207L495.238,231L476.19,270L457.143,198L438.095,216L419.048,210L400,261L380.952,60L361.905,51L342.857,219L323.81,273L304.762,258L285.714,240L266.667,207L247.619,18L228.571,165L209.524,108L190.476,261L171.429,282L152.381,297L133.333,264L114.286,300L95.238,300L76.19,300L57.143,297L38.095,300L19.048,300L0,300Z" fill="#ff9da6"/></g></g><path class="foreground" aria-hidden="true" d="" display="none"/></g><g transform="translate(0,0)"><path class="background" aria-hidden="true" d="M0,0h800v300h-800Z"/><g><g class="mark-area role-mark marks" role="graphics-object" aria-roledescription="area mark container"><path aria-label="Date: Mar 16, 2026; Unique Clones/day: 0; Repository: karlmdavis/ansible-roles" role="graphics-symbol" aria-roledescription="area mark" d="M0,300L19.048,300L38.095,300L57.143,297L76.19,300L95.238,300L114.286,300L133.333,264L152.381,297L171.429,282L190.476,261L209.524,108L228.571,165L247.619,18L266.667,207L285.714,240L304.762,258L323.81,273L342.857,219L361.905,51L380.952,60L400,261L419.048,210L438.095,216L457.143,198L476.19,270L495.238,231L514.286,207L533.333,72L552.381,267L571.429,270L590.476,285L609.524,282L628.571,291L647.619,237L666.667,105L685.714,213L704.762,219L723.81,168L742.857,270L761.905,228L780.952,282L800,294L800,294L780.952,282L761.905,228L742.857,270L723.81,168L704.762,219L685.714,213L666.667,105L647.619,237L628.571,291L609.524,282L590.476,285L571.429,270L552.381,267L533.333,72L514.286,207L495.238,234L476.19,270L457.143,198L438.095,216L419.048,210L400,261L380.952,60L361.905,51L342.857,219L323.81,273L304.762,258L285.714,240L266.667,210L247.619,18L228.571,165L209.524,108L190.476,264L171.429,282L152.381,297L133.333,264L114.286,300L95.238,300L76.19,300L57.143,297L38.095,300L19.048,300L0,300Z" fill="#9d755d"/></g></g><path class="foreground" aria-hidden="true" d="" display="none"/></g><g transform="translate(0,0)"><path class="background" aria-hidden="true" d="M0,0h800v300h-800Z"/><g><g class="mark-area role-mark marks" role="graphics-object" aria-roledescription="area mark container"><path aria-label="Date: Mar 16, 2026; Unique Clones/day: 0; Repository: karlmdavis/bbonfhir-dev-infra-docker" role="graphics-symbol" aria-roledescription="area mark" d="M0,300L19.048,300L38.095,300L57.143,297L76.19,300L95.238,300L114.286,300L133.333,264L152.381,297L171.429,282L190.476,264L209.524,108L228.571,165L247.619,18L266.667,210L285.714,240L304.762,258L323.81,273L342.857,219L361.905,51L380.952,60L400,261L419.048,210L438.095,216L457.143,198L476.19,270L495.238,234L514.286,207L533.333,72L552.381,267L571.429,270L590.476,285L609.524,282L628.571,291L647.619,237L666.667,105L685.714,213L704.762,219L723.81,168L742.857,270L761.905,228L780.952,282L800,294L800,294L780.952,282L761.905,228L742.857,273L723.81,171L704.762,222L685.714,213L666.667,108L647.619,237L628.571,291L609.524,282L590.476,285L571.429,270L552.381,267L533.333,81L514.286,210L495.238,234L476.19,270L457.143,201L438.095,216L419.048,210L400,261L380.952,60L361.905,54L342.857,219L323.81,273L304.762,258L285.714,240L266.667,213L247.619,18L228.571,165L209.524,111L190.476,264L171.429,285L152.381,297L133.333,264L114.286,300L95.238,300L76.19,300L57.143,297L38.095,300L19.048,300L0,300Z" fill="#bab0ac"/></g></g><path class="foreground" aria-hidden="true" d="" display="none"/></g><g transform="translate(0,0)"><path class="background" aria-hidden="true" d="M0,0h800v300h-800Z"/><g><g class="mark-area role-mark marks" role="graphics-object" aria-roledescription="area mark container"><path aria-label="Date: Mar 16, 2026; Unique Clones/day: 0; Repository: karlmdavis/can-i-kayak-baltimore" role="graphics-symbol" aria-roledescription="area mark" d="M0,300L19.048,300L38.095,300L57.143,297L76.19,300L95.238,300L114.286,300L133.333,264L152.381,297L171.429,285L190.476,264L209.524,111L228.571,165L247.619,18L266.667,213L285.714,240L304.762,258L323.81,273L342.857,219L361.905,54L380.952,60L400,261L419.048,210L438.095,216L457.143,201L476.19,270L495.238,234L514.286,210L533.333,81L552.381,267L571.429,270L590.476,285L609.524,282L628.571,291L647.619,237L666.667,108L685.714,213L704.762,222L723.81,171L742.857,273L761.905,228L780.952,282L800,294L800,294L780.952,282L761.905,228L742.857,273L723.81,174L704.762,222L685.714,213L666.667,111L647.619,237L628.571,291L609.524,282L590.476,285L571.429,270L552.381,267L533.333,87L514.286,213L495.238,234L476.19,270L457.143,204L438.095,216L419.048,210L400,261L380.952,60L361.905,57L342.857,219L323.81,273L304.762,261L285.714,240L266.667,213L247.619,18L228.571,165L209.524,120L190.476,264L171.429,285L152.381,297L133.333,264L114.286,300L95.238,300L76.19,300L57.143,297L38.095,300L19.048,300L0,300Z" fill="#4c78a8"/></g></g><path class="foreground" aria-hidden="true" d="" display="none"/></g><g transform="translate(0,0)"><path class="background" aria-hidden="true" d="M0,0h800v300h-800Z"/><g><g class="mark-area role-mark marks" role="graphics-object" aria-roledescription="area mark container"><path aria-label="Date: Mar 16, 2026; Unique Clones/day: 0; Repository: karlmdavis/datanucleus-test-jdo-1-to-n" role="graphics-symbol" aria-roledescription="area mark" d="M0,300L19.048,300L38.095,300L57.143,297L76.19,300L95.238,300L114.286,300L133.333,264L152.381,297L171.429,285L190.476,264L209.524,120L228.571,165L247.619,18L266.667,213L285.714,240L304.762,261L323.81,273L342.857,219L361.905,57L380.952,60L400,261L419.048,210L438.095,216L457.143,204L476.19,270L495.238,234L514.286,213L533.333,87L552.381,267L571.429,270L590.476,285L609.524,282L628.571,291L647.619,237L666.667,111L685.714,213L704.762,222L723.81,174L742.857,273L761.905,228L780.952,282L800,294L800,294L780.952,282L761.905,228L742.857,273L723.81,174L704.762,222L685.714,213L666.667,111L647.619,237L628.571,291L609.524,285L590.476,285L571.429,270L552.381,270L533.333,87L514.286,213L495.238,234L476.19,270L457.143,204L438.095,216L419.048,210L400,261L380.952,60L361.905,57L342.857,219L323.81,273L304.762,261L285.714,240L266.667,213L247.619,18L228.571,168L209.524,120L190.476,264L171.429,285L152.381,297L133.333,264L114.286,300L95.238,300L76.19,300L57.143,297L38.095,300L19.048,300L0,300Z" fill="#f58518"/></g></g><path class="foreground" aria-hidden="true" d="" display="none"/></g><g transform="translate(0,0)"><path class="background" aria-hidden="true" d="M0,0h800v300h-800Z"/><g><g class="mark-area role-mark marks" role="graphics-object" aria-roledescription="area mark container"><path aria-label="Date: Mar 16, 2026; Unique Clones/day: 0; Repository: karlmdavis/dotfiles" role="graphics-symbol" aria-roledescription="area mark" d="M0,300L19.048,300L38.095,300L57.143,297L76.19,300L95.238,300L114.286,300L133.333,264L152.381,297L171.429,285L190.476,264L209.524,120L228.571,168L247.619,18L266.667,213L285.714,240L304.762,261L323.81,273L342.857,219L361.905,57L380.952,60L400,261L419.048,210L438.095,216L457.143,204L476.19,270L495.238,234L514.286,213L533.333,87L552.381,270L571.429,270L590.476,285L609.524,285L628.571,291L647.619,237L666.667,111L685.714,213L704.762,222L723.81,174L742.857,273L761.905,228L780.952,282L800,294L800,294L780.952,285L761.905,228L742.857,276L723.81,183L704.762,249L685.714,216L666.667,156L647.619,243L628.571,291L609.524,288L590.476,288L571.429,270L552.381,270L533.333,102L514.286,213L495.238,240L476.19,270L457.143,207L438.095,219L419.048,210L400,261L380.952,63L361.905,60L342.857,219L323.81,276L304.762,264L285.714,243L266.667,213L247.619,18L228.571,168L209.524,126L190.476,264L171.429,285L152.381,297L133.333,267L114.286,300L95.238,300L76.19,300L57.143,297L38.095,300L19.048,300L0,300Z" fill="#e45756"/></g></g><path class="foreground" aria-hidden="true" d="" display="none"/></g><g transform="translate(0,0)"><path class="background" aria-hidden="true" d="M0,0h800v300h-800Z"/><g><g class="mark-area role-mark marks" role="graphics-object" aria-roledescription="area mark container"><path aria-label="Date: Mar 16, 2026; Unique Clones/day: 0; Repository: karlmdavis/fhir-benchmarks" role="graphics-symbol" aria-roledescription="area mark" d="M0,300L19.048,300L38.095,300L57.143,297L76.19,300L95.238,300L114.286,300L133.333,267L152.381,297L171.429,285L190.476,264L209.524,126L228.571,168L247.619,18L266.667,213L285.714,243L304.762,264L323.81,276L342.857,219L361.905,60L380.952,63L400,261L419.048,210L438.095,219L457.143,207L476.19,270L495.238,240L514.286,213L533.333,102L552.381,270L571.429,270L590.476,288L609.524,288L628.571,291L647.619,243L666.667,156L685.714,216L704.762,249L723.81,183L742.857,276L761.905,228L780.952,285L800,294L800,294L780.952,288L761.905,231L742.857,276L723.81,186L704.762,249L685.714,219L666.667,159L647.619,243L628.571,294L609.524,291L590.476,288L571.429,273L552.381,279L533.333,117L514.286,213L495.238,246L476.19,270L457.143,213L438.095,240L419.048,213L400,261L380.952,66L361.905,63L342.857,222L323.81,276L304.762,267L285.714,249L266.667,216L247.619,21L228.571,168L209.524,132L190.476,264L171.429,288L152.381,297L133.333,270L114.286,300L95.238,300L76.19,300L57.143,297L38.095,300L19.048,300L0,300Z" fill="#72b7b2"/></g></g><path class="foreground" aria-hidden="true" d="" display="none"/></g><g transform="translate(0,0)"><path class="background" aria-hidden="true" d="M0,0h800v300h-800Z"/><g><g class="mark-area role-mark marks" role="graphics-object" aria-roledescription="area mark container"><path aria-label="Date: Mar 16, 2026; Unique Clones/day: 0; Repository: karlmdavis/hapi-fhir-jpaserver-starter" role="graphics-symbol" aria-roledescription="area mark" d="M0,300L19.048,300L38.095,300L57.143,297L76.19,300L95.238,300L114.286,300L133.333,270L152.381,297L171.429,288L190.476,264L209.524,132L228.571,168L247.619,21L266.667,216L285.714,249L304.762,267L323.81,276L342.857,222L361.905,63L380.952,66L400,261L419.048,213L438.095,240L457.143,213L476.19,270L495.238,246L514.286,213L533.333,117L552.381,279L571.429,273L590.476,288L609.524,291L628.571,294L647.619,243L666.667,159L685.714,219L704.762,249L723.81,186L742.857,276L761.905,231L780.952,288L800,294L800,294L780.952,288L761.905,231L742.857,279L723.81,189L704.762,249L685.714,219L666.667,159L647.619,243L628.571,294L609.524,291L590.476,288L571.429,273L552.381,279L533.333,120L514.286,213L495.238,246L476.19,270L457.143,213L438.095,240L419.048,213L400,261L380.952,66L361.905,63L342.857,225L323.81,279L304.762,267L285.714,249L266.667,216L247.619,21L228.571,168L209.524,132L190.476,267L171.429,288L152.381,297L133.333,270L114.286,300L95.238,300L76.19,300L57.143,297L38.095,300L19.048,300L0,300Z" fill="#54a24b"/></g></g><path class="foreground" aria-hidden="true" d="" display="none"/></g><g transform="translate(0,0)"><path class="background" aria-hidden="true" d="M0,0h800v300h-800Z"/><g><g class="mark-area role-mark marks" role="graphics-object" aria-roledescription="area mark container"><path aria-label="Date: Mar 16, 2026; Unique Clones/day: 0; Repository: karlmdavis/hello-rust-actix" role="graphics-symbol" aria-roledescription="area mark" d="M0,300L19.048,300L38.095,300L57.143,297L76.19,300L95.238,300L114.286,300L133.333,270L152.381,297L171.429,288L190.476,267L209.524,132L228.571,168L247.619,21L266.667,216L285.714,249L304.762,267L323.81,279L342.857,225L361.905,63L380.952,66L400,261L419.048,213L438.095,240L457.143,213L476.19,270L495.238,246L514.286,213L533.333,120L552.381,279L571.429,273L590.476,288L609.524,291L628.571,294L647.619,243L666.667,159L685.714,219L704.762,249L723.81,189L742.857,279L761.905,231L780.952,288L800,294L800,294L780.952,288L761.905,231L742.857,279L723.81,192L704.762,249L685.714,219L666.667,162L647.619,243L628.571,294L609.524,291L590.476,288L571.429,273L552.381,279L533.333,126L514.286,216L495.238,246L476.19,270L457.143,216L438.095,240L419.048,213L400,261L380.952,66L361.905,66L342.857,225L323.81,279L304.762,267L285.714,252L266.667,216L247.619,21L228.571,168L209.524,135L190.476,267L171.429,288L152.381,297L133.333,270L114.286,300L95.238,300L76.19,300L57.143,297L38.095,300L19.048,300L0,300Z" fill="#eeca3b"/></g></g><path class="foreground" aria-hidden="true" d="" display="none"/></g><g transform="translate(0,0)"><path class="background" aria-hidden="true" d="M0,0h800v300h-800Z"/><g><g class="mark-area role-mark marks" role="graphics-object" aria-roledescription="area mark container"><path aria-label="Date: Mar 16, 2026; Unique Clones/day: 0; Repository: karlmdavis/jessentials" role="graphics-symbol" aria-roledescription="area mark" d="M0,300L19.048,300L38.095,300L57.143,297L76.19,300L95.238,300L114.286,300L133.333,270L152.381,297L171.429,288L190.476,267L209.524,135L228.571,168L247.619,21L266.667,216L285.714,252L304.762,267L323.81,279L342.857,225L361.905,66L380.952,66L400,261L419.048,213L438.095,240L457.143,216L476.19,270L495.238,246L514.286,216L533.333,126L552.381,279L571.429,273L590.476,288L609.524,291L628.571,294L647.619,243L666.667,162L685.714,219L704.762,249L723.81,192L742.857,279L761.905,231L780.952,288L800,294L800,294L780.952,288L761.905,231L742.857,279L723.81,195L704.762,252L685.714,219L666.667,165L647.619,246L628.571,294L609.524,291L590.476,288L571.429,273L552.381,279L533.333,132L514.286,216L495.238,249L476.19,270L457.143,222L438.095,264L419.048,213L400,261L380.952,66L361.905,69L342.857,225L323.81,279L304.762,267L285.714,252L266.667,219L247.619,21L228.571,168L209.524,138L190.476,267L171.429,288L152.381,297L133.333,273L114.286,300L95.238,300L76.19,300L57.143,297L38.095,300L19.048,300L0,300Z" fill="#b279a2"/></g></g><path class="foreground" aria-hidden="true" d="" display="none"/></g><g transform="translate(0,0)"><path class="background" aria-hidden="true" d="M0,0h800v300h-800Z"/><g><g class="mark-area role-mark marks" role="graphics-object" aria-roledescription="area mark container"><path aria-label="Date: Mar 16, 2026; Unique Clones/day: 0; Repository: karlmdavis/justdavis-ansible" role="graphics-symbol" aria-roledescription="area mark" d="M0,300L19.048,300L38.095,300L57.143,297L76.19,300L95.238,300L114.286,300L133.333,273L152.381,297L171.429,288L190.476,267L209.524,138L228.571,168L247.619,21L266.667,219L285.714,252L304.762,267L323.81,279L342.857,225L361.905,69L380.952,66L400,261L419.048,213L438.095,264L457.143,222L476.19,270L495.238,249L514.286,216L533.333,132L552.381,279L571.429,273L590.476,288L609.524,291L628.571,294L647.619,246L666.667,165L685.714,219L704.762,252L723.81,195L742.857,279L761.905,231L780.952,288L800,294L800,294L780.952,288L761.905,231L742.857,282L723.81,201L704.762,267L685.714,237L666.667,168L647.619,258L628.571,294L609.524,291L590.476,288L571.429,273L552.381,279L533.333,141L514.286,228L495.238,249L476.19,273L457.143,225L438.095,264L419.048,213L400,261L380.952,66L361.905,72L342.857,225L323.81,279L304.762,270L285.714,252L266.667,219L247.619,21L228.571,171L209.524,141L190.476,267L171.429,291L152.381,297L133.333,273L114.286,300L95.238,300L76.19,300L57.143,297L38.095,300L19.048,300L0,300Z" fill="#ff9da6"/></g></g><path class="foreground" aria-hidden="true" d="" display="none"/></g><g transform="translate(0,0)"><path class="background" aria-hidden="true" d="M0,0h800v300h-800Z"/><g><g class="mark-area role-mark marks" role="graphics-object" aria-roledescription="area mark container"><path aria-label="Date: Mar 16, 2026; Unique Clones/day: 0; Repository: karlmdavis/justdavis-finances" role="graphics-symbol" aria-roledescription="area mark" d="M0,300L19.048,300L38.095,300L57.143,297L76.19,300L95.238,300L114.286,300L133.333,273L152.381,297L171.429,291L190.476,267L209.524,141L228.571,171L247.619,21L266.667,219L285.714,252L304.762,270L323.81,279L342.857,225L361.905,72L380.952,66L400,261L419.048,213L438.095,264L457.143,225L476.19,273L495.238,249L514.286,228L533.333,141L552.381,279L571.429,273L590.476,288L609.524,291L628.571,294L647.619,258L666.667,168L685.714,237L704.762,267L723.81,201L742.857,282L761.905,231L780.952,288L800,294L800,294L780.952,288L761.905,279L742.857,285L723.81,237L704.762,294L685.714,285L666.667,243L647.619,288L628.571,294L609.524,291L590.476,288L571.429,276L552.381,285L533.333,186L514.286,279L495.238,255L476.19,273L457.143,228L438.095,267L419.048,264L400,285L380.952,291L361.905,243L342.857,285L323.81,282L304.762,273L285.714,255L266.667,264L247.619,276L228.571,282L209.524,234L190.476,270L171.429,294L152.381,297L133.333,273L114.286,300L95.238,300L76.19,300L57.143,297L38.095,300L19.048,300L0,300Z" fill="#9d755d"/></g></g><path class="foreground" aria-hidden="true" d="" display="none"/></g><g transform="translate(0,0)"><path class="background" aria-hidden="true" d="M0,0h800v300h-800Z"/><g><g class="mark-area role-mark marks" role="graphics-object" aria-roledescription="area mark container"><path aria-label="Date: Mar 16, 2026; Unique Clones/day: 0; Repository: karlmdavis/justdavis-karl" role="graphics-symbol" aria-roledescription="area mark" d="M0,300L19.048,300L38.095,300L57.143,297L76.19,300L95.238,300L114.286,300L133.333,273L152.381,297L171.429,294L190.476,270L209.524,234L228.571,282L247.619,276L266.667,264L285.714,255L304.762,273L323.81,282L342.857,285L361.905,243L380.952,291L400,285L419.048,264L438.095,267L457.143,228L476.19,273L495.238,255L514.286,279L533.333,186L552.381,285L571.429,276L590.476,288L609.524,291L628.571,294L647.619,288L666.667,243L685.714,285L704.762,294L723.81,237L742.857,285L761.905,279L780.952,288L800,294L800,294L780.952,288L761.905,279L742.857,285L723.81,240L704.762,294L685.714,285L666.667,246L647.619,288L628.571,294L609.524,291L590.476,288L571.429,276L552.381,285L533.333,195L514.286,282L495.238,258L476.19,273L457.143,234L438.095,267L419.048,264L400,288L380.952,291L361.905,246L342.857,285L323.81,285L304.762,273L285.714,258L266.667,267L247.619,276L228.571,285L209.524,237L190.476,270L171.429,294L152.381,297L133.333,276L114.286,300L95.238,300L76.19,300L57.143,297L38.095,300L19.048,300L0,300Z" fill="#bab0ac"/></g></g><path class="foreground" aria-hidden="true" d="" display="none"/></g><g transform="translate(0,0)"><path class="background" aria-hidden="true" d="M0,0h800v300h-800Z"/><g><g class="mark-area role-mark marks" role="graphics-object" aria-roledescription="area mark container"><path aria-label="Date: Mar 16, 2026; Unique Clones/day: 0; Repository: karlmdavis/justdavis-puppet" role="graphics-symbol" aria-roledescription="area mark" d="M0,300L19.048,300L38.095,300L57.143,297L76.19,300L95.238,300L114.286,300L133.333,276L152.381,297L171.429,294L190.476,270L209.524,237L228.571,285L247.619,276L266.667,267L285.714,258L304.762,273L323.81,285L342.857,285L361.905,246L380.952,291L400,288L419.048,264L438.095,267L457.143,234L476.19,273L495.238,258L514.286,282L533.333,195L552.381,285L571.429,276L590.476,288L609.524,291L628.571,294L647.619,288L666.667,246L685.714,285L704.762,294L723.81,240L742.857,285L761.905,279L780.952,288L800,294L800,294L780.952,288L761.905,279L742.857,285L723.81,243L704.762,294L685.714,285L666.667,249L647.619,288L628.571,294L609.524,291L590.476,288L571.429,276L552.381,285L533.333,201L514.286,285L495.238,261L476.19,273L457.143,237L438.095,270L419.048,264L400,288L380.952,291L361.905,249L342.857,285L323.81,285L304.762,273L285.714,264L266.667,270L247.619,276L228.571,285L209.524,240L190.476,270L171.429,294L152.381,297L133.333,276L114.286,300L95.238,300L76.19,300L57.143,297L38.095,300L19.048,300L0,300Z" fill="#4c78a8"/></g></g><path class="foreground" aria-hidden="true" d="" display="none"/></g><g transform="translate(0,0)"><path class="background" aria-hidden="true" d="M0,0h800v300h-800Z"/><g><g class="mark-area role-mark marks" role="graphics-object" aria-roledescription="area mark container"><path aria-label="Date: Mar 16, 2026; Unique Clones/day: 0; Repository: karlmdavis/kobjects" role="graphics-symbol" aria-roledescription="area mark" d="M0,300L19.048,300L38.095,300L57.143,297L76.19,300L95.238,300L114.286,300L133.333,276L152.381,297L171.429,294L190.476,270L209.524,240L228.571,285L247.619,276L266.667,270L285.714,264L304.762,273L323.81,285L342.857,285L361.905,249L380.952,291L400,288L419.048,264L438.095,270L457.143,237L476.19,273L495.238,261L514.286,285L533.333,201L552.381,285L571.429,276L590.476,288L609.524,291L628.571,294L647.619,288L666.667,249L685.714,285L704.762,294L723.81,243L742.857,285L761.905,279L780.952,288L800,294L800,294L780.952,288L761.905,279L742.857,285L723.81,246L704.762,294L685.714,285L666.667,252L647.619,288L628.571,294L609.524,291L590.476,288L571.429,276L552.381,285L533.333,207L514.286,285L495.238,264L476.19,273L457.143,243L438.095,270L419.048,264L400,288L380.952,291L361.905,252L342.857,285L323.81,285L304.762,273L285.714,264L266.667,270L247.619,276L228.571,285L209.524,243L190.476,273L171.429,294L152.381,297L133.333,276L114.286,300L95.238,300L76.19,300L57.143,297L38.095,300L19.048,300L0,300Z" fill="#f58518"/></g></g><path class="foreground" aria-hidden="true" d="" display="none"/></g><g transform="translate(0,0)"><path class="background" aria-hidden="true" d="M0,0h800v300h-800Z"/><g><g class="mark-area role-mark marks" role="graphics-object" aria-roledescription="area mark container"><path aria-label="Date: Mar 16, 2026; Unique Clones/day: 0; Repository: karlmdavis/ksoap2-android" role="graphics-symbol" aria-roledescription="area mark" d="M0,300L19.048,300L38.095,300L57.143,297L76.19,300L95.238,300L114.286,300L133.333,276L152.381,297L171.429,294L190.476,273L209.524,243L228.571,285L247.619,276L266.667,270L285.714,264L304.762,273L323.81,285L342.857,285L361.905,252L380.952,291L400,288L419.048,264L438.095,270L457.143,243L476.19,273L495.238,264L514.286,285L533.333,207L552.381,285L571.429,276L590.476,288L609.524,291L628.571,294L647.619,288L666.667,252L685.714,285L704.762,294L723.81,246L742.857,285L761.905,279L780.952,288L800,294L800,297L780.952,291L761.905,282L742.857,291L723.81,255L704.762,297L685.714,288L666.667,258L647.619,288L628.571,294L609.524,291L590.476,288L571.429,282L552.381,285L533.333,213L514.286,285L495.238,267L476.19,282L457.143,246L438.095,288L419.048,279L400,291L380.952,291L361.905,261L342.857,285L323.81,288L304.762,276L285.714,267L266.667,282L247.619,282L228.571,285L209.524,246L190.476,282L171.429,294L152.381,297L133.333,279L114.286,300L95.238,300L76.19,300L57.143,297L38.095,300L19.048,300L0,300Z" fill="#e45756"/></g></g><path class="foreground" aria-hidden="true" d="" display="none"/></g><g transform="translate(0,0)"><path class="background" aria-hidden="true" d="M0,0h800v300h-800Z"/><g><g class="mark-area role-mark marks" role="graphics-object" aria-roledescription="area mark container"><path aria-label="Date: Mar 16, 2026; Unique Clones/day: 0; Repository: karlmdavis/kxml2" role="graphics-symbol" aria-roledescription="area mark" d="M0,300L19.048,300L38.095,300L57.143,297L76.19,300L95.238,300L114.286,300L133.333,279L152.381,297L171.429,294L190.476,282L209.524,246L228.571,285L247.619,282L266.667,282L285.714,267L304.762,276L323.81,288L342.857,285L361.905,261L380.952,291L400,291L419.048,279L438.095,288L457.143,246L476.19,282L495.238,267L514.286,285L533.333,213L552.381,285L571.429,282L590.476,288L609.524,291L628.571,294L647.619,288L666.667,258L685.714,288L704.762,297L723.81,255L742.857,291L761.905,282L780.952,291L800,297L800,297L780.952,294L761.905,282L742.857,291L723.81,261L704.762,297L685.714,291L666.667,264L647.619,291L628.571,294L609.524,291L590.476,291L571.429,285L552.381,288L533.333,222L514.286,285L495.238,267L476.19,282L457.143,249L438.095,288L419.048,282L400,294L380.952,294L361.905,264L342.857,285L323.81,288L304.762,276L285.714,270L266.667,291L247.619,285L228.571,285L209.524,252L190.476,285L171.429,294L152.381,297L133.333,282L114.286,300L95.238,300L76.19,300L57.143,297L38.095,300L19.048,300L0,300Z" fill="#72b7b2"/></g></g><path class="foreground" aria-hidden="true" d="" display="none"/></g><g transform="translate(0,0)"><path class="background" aria-hidden="true" d="M0,0h800v300h-800Z"/><g><g class="mark-area role-mark marks" role="graphics-object" aria-roledescription="area mark container"><path aria-label="Date: Mar 16, 2026; Unique Clones/day: 0; Repository: karlmdavis/ldap-plugin" role="graphics-symbol" aria-roledescription="area mark" d="M0,300L19.048,300L38.095,300L57.143,297L76.19,300L95.238,300L114.286,300L133.333,282L152.381,297L171.429,294L190.476,285L209.524,252L228.571,285L247.619,285L266.667,291L285.714,270L304.762,276L323.81,288L342.857,285L361.905,264L380.952,294L400,294L419.048,282L438.095,288L457.143,249L476.19,282L495.238,267L514.286,285L533.333,222L552.381,288L571.429,285L590.476,291L609.524,291L628.571,294L647.619,291L666.667,264L685.714,291L704.762,297L723.81,261L742.857,291L761.905,282L780.952,294L800,297L800,297L780.952,294L761.905,282L742.857,291L723.81,261L704.762,297L685.714,291L666.667,264L647.619,291L628.571,294L609.524,291L590.476,291L571.429,285L552.381,288L533.333,222L514.286,285L495.238,267L476.19,282L457.143,249L438.095,288L419.048,282L400,294L380.952,294L361.905,264L342.857,288L323.81,291L304.762,276L285.714,270L266.667,291L247.619,285L228.571,285L209.524,252L190.476,285L171.429,294L152.381,297L133.333,282L114.286,300L95.238,300L76.19,300L57.143,297L38.095,300L19.048,300L0,300Z" fill="#54a24b"/></g></g><path class="foreground" aria-hidden="true" d="" display="none"/></g><g transform="translate(0,0)"><path class="background" aria-hidden="true" d="M0,0h800v300h-800Z"/><g><g class="mark-area role-mark marks" role="graphics-object" aria-roledescription="area mark container"><path aria-label="Date: Mar 16, 2026; Unique Clones/day: 0; Repository: karlmdavis/lego-ev3dev-rs" role="graphics-symbol" aria-roledescription="area mark" d="M0,300L19.048,300L38.095,300L57.143,297L76.19,300L95.238,300L114.286,300L133.333,282L152.381,297L171.429,294L190.476,285L209.524,252L228.571,285L247.619,285L266.667,291L285.714,270L304.762,276L323.81,291L342.857,288L361.905,264L380.952,294L400,294L419.048,282L438.095,288L457.143,249L476.19,282L495.238,267L514.286,285L533.333,222L552.381,288L571.429,285L590.476,291L609.524,291L628.571,294L647.619,291L666.667,264L685.714,291L704.762,297L723.81,261L742.857,291L761.905,282L780.952,294L800,297L800,297L780.952,297L761.905,288L742.857,291L723.81,264L704.762,297L685.714,294L666.667,267L647.619,291L628.571,297L609.524,294L590.476,291L571.429,288L552.381,288L533.333,231L514.286,285L495.238,273L476.19,282L457.143,255L438.095,288L419.048,285L400,294L380.952,297L361.905,267L342.857,291L323.81,291L304.762,279L285.714,276L266.667,291L247.619,288L228.571,288L209.524,261L190.476,285L171.429,297L152.381,297L133.333,285L114.286,300L95.238,300L76.19,300L57.143,297L38.095,300L19.048,300L0,300Z" fill="#eeca3b"/></g></g><path class="foreground" aria-hidden="true" d="" display="none"/></g><g transform="translate(0,0)"><path class="background" aria-hidden="true" d="M0,0h800v300h-800Z"/><g><g class="mark-area role-mark marks" role="graphics-object" aria-roledescription="area mark container"><path aria-label="Date: Mar 16, 2026; Unique Clones/day: 0; Repository: karlmdavis/liquibase" role="graphics-symbol" aria-roledescription="area mark" d="M0,300L19.048,300L38.095,300L57.143,297L76.19,300L95.238,300L114.286,300L133.333,285L152.381,297L171.429,297L190.476,285L209.524,261L228.571,288L247.619,288L266.667,291L285.714,276L304.762,279L323.81,291L342.857,291L361.905,267L380.952,297L400,294L419.048,285L438.095,288L457.143,255L476.19,282L495.238,273L514.286,285L533.333,231L552.381,288L571.429,288L590.476,291L609.524,294L628.571,297L647.619,291L666.667,267L685.714,294L704.762,297L723.81,264L742.857,291L761.905,288L780.952,297L800,297L800,297L780.952,297L761.905,288L742.857,291L723.81,264L704.762,297L685.714,294L666.667,267L647.619,291L628.571,297L609.524,294L590.476,291L571.429,288L552.381,288L533.333,231L514.286,285L495.238,273L476.19,285L457.143,258L438.095,288L419.048,285L400,294L380.952,297L361.905,267L342.857,291L323.81,291L304.762,279L285.714,276L266.667,291L247.619,288L228.571,288L209.524,261L190.476,285L171.429,297L152.381,297L133.333,285L114.286,300L95.238,300L76.19,300L57.143,300L38.095,300L19.048,300L0,300Z" fill="#b279a2"/></g></g><path class="foreground" aria-hidden="true" d="" display="none"/></g><g transform="translate(0,0)"><path class="background" aria-hidden="true" d="M0,0h800v300h-800Z"/><g><g class="mark-area role-mark marks" role="graphics-object" aria-roledescription="area mark container"><path aria-label="Date: Mar 16, 2026; Unique Clones/day: 0; Repository: karlmdavis/m2e-core" role="graphics-symbol" aria-roledescription="area mark" d="M0,300L19.048,300L38.095,300L57.143,300L76.19,300L95.238,300L114.286,300L133.333,285L152.381,297L171.429,297L190.476,285L209.524,261L228.571,288L247.619,288L266.667,291L285.714,276L304.762,279L323.81,291L342.857,291L361.905,267L380.952,297L400,294L419.048,285L438.095,288L457.143,258L476.19,285L495.238,273L514.286,285L533.333,231L552.381,288L571.429,288L590.476,291L609.524,294L628.571,297L647.619,291L666.667,267L685.714,294L704.762,297L723.81,264L742.857,291L761.905,288L780.952,297L800,297L800,297L780.952,297L761.905,288L742.857,291L723.81,267L704.762,297L685.714,294L666.667,270L647.619,291L628.571,297L609.524,294L590.476,291L571.429,288L552.381,288L533.333,237L514.286,285L495.238,276L476.19,288L457.143,264L438.095,291L419.048,288L400,294L380.952,297L361.905,270L342.857,291L323.81,291L304.762,279L285.714,276L266.667,291L247.619,291L228.571,288L209.524,264L190.476,285L171.429,297L152.381,297L133.333,285L114.286,300L95.238,300L76.19,300L57.143,300L38.095,300L19.048,300L0,300Z" fill="#ff9da6"/></g></g><path class="foreground" aria-hidden="true" d="" display="none"/></g><g transform="translate(0,0)"><path class="background" aria-hidden="true" d="M0,0h800v300h-800Z"/><g><g class="mark-area role-mark marks" role="graphics-object" aria-roledescription="area mark container"><path aria-label="Date: Mar 16, 2026; Unique Clones/day: 0; Repository: karlmdavis/m2e-core-tests" role="graphics-symbol" aria-roledescription="area mark" d="M0,300L19.048,300L38.095,300L57.143,300L76.19,300L95.238,300L114.286,300L133.333,285L152.381,297L171.429,297L190.476,285L209.524,264L228.571,288L247.619,291L266.667,291L285.714,276L304.762,279L323.81,291L342.857,291L361.905,270L380.952,297L400,294L419.048,288L438.095,291L457.143,264L476.19,288L495.238,276L514.286,285L533.333,237L552.381,288L571.429,288L590.476,291L609.524,294L628.571,297L647.619,291L666.667,270L685.714,294L704.762,297L723.81,267L742.857,291L761.905,288L780.952,297L800,297L800,297L780.952,297L761.905,288L742.857,291L723.81,267L704.762,297L685.714,294L666.667,270L647.619,291L628.571,297L609.524,294L590.476,291L571.429,288L552.381,288L533.333,237L514.286,288L495.238,276L476.19,294L457.143,267L438.095,294L419.048,291L400,294L380.952,297L361.905,270L342.857,291L323.81,291L304.762,285L285.714,276L266.667,291L247.619,291L228.571,291L209.524,264L190.476,288L171.429,297L152.381,297L133.333,285L114.286,300L95.238,300L76.19,300L57.143,300L38.095,300L19.048,300L0,300Z" fill="#9d755d"/></g></g><path class="foreground" aria-hidden="true" d="" display="none"/></g><g transform="translate(0,0)"><path class="background" aria-hidden="true" d="M0,0h800v300h-800Z"/><g><g class="mark-area role-mark marks" role="graphics-object" aria-roledescription="area mark container"><path aria-label="Date: Mar 16, 2026; Unique Clones/day: 0; Repository: karlmdavis/obsidian-operator" role="graphics-symbol" aria-roledescription="area mark" d="M0,300L19.048,300L38.095,300L57.143,300L76.19,300L95.238,300L114.286,300L133.333,285L152.381,297L171.429,297L190.476,288L209.524,264L228.571,291L247.619,291L266.667,291L285.714,276L304.762,285L323.81,291L342.857,291L361.905,270L380.952,297L400,294L419.048,291L438.095,294L457.143,267L476.19,294L495.238,276L514.286,288L533.333,237L552.381,288L571.429,288L590.476,291L609.524,294L628.571,297L647.619,291L666.667,270L685.714,294L704.762,297L723.81,267L742.857,291L761.905,288L780.952,297L800,297L800,297L780.952,297L761.905,288L742.857,291L723.81,270L704.762,297L685.714,294L666.667,273L647.619,297L628.571,297L609.524,294L590.476,291L571.429,294L552.381,291L533.333,243L514.286,291L495.238,282L476.19,294L457.143,270L438.095,294L419.048,291L400,294L380.952,297L361.905,273L342.857,297L323.81,291L304.762,285L285.714,285L266.667,291L247.619,291L228.571,291L209.524,267L190.476,288L171.429,297L152.381,297L133.333,288L114.286,300L95.238,300L76.19,300L57.143,300L38.095,300L19.048,300L0,300Z" fill="#bab0ac"/></g></g><path class="foreground" aria-hidden="true" d="" display="none"/></g><g transform="translate(0,0)"><path class="background" aria-hidden="true" d="M0,0h800v300h-800Z"/><g><g class="mark-area role-mark marks" role="graphics-object" aria-roledescription="area mark container"><path aria-label="Date: Mar 16, 2026; Unique Clones/day: 0; Repository: karlmdavis/perfect-note" role="graphics-symbol" aria-roledescription="area mark" d="M0,300L19.048,300L38.095,300L57.143,300L76.19,300L95.238,300L114.286,300L133.333,288L152.381,297L171.429,297L190.476,288L209.524,267L228.571,291L247.619,291L266.667,291L285.714,285L304.762,285L323.81,291L342.857,297L361.905,273L380.952,297L400,294L419.048,291L438.095,294L457.143,270L476.19,294L495.238,282L514.286,291L533.333,243L552.381,291L571.429,294L590.476,291L609.524,294L628.571,297L647.619,297L666.667,273L685.714,294L704.762,297L723.81,270L742.857,291L761.905,288L780.952,297L800,297L800,297L780.952,297L761.905,288L742.857,291L723.81,273L704.762,297L685.714,294L666.667,276L647.619,297L628.571,297L609.524,294L590.476,291L571.429,294L552.381,294L533.333,249L514.286,291L495.238,282L476.19,294L457.143,273L438.095,294L419.048,291L400,294L380.952,297L361.905,276L342.857,297L323.81,291L304.762,285L285.714,285L266.667,291L247.619,291L228.571,294L209.524,270L190.476,291L171.429,297L152.381,297L133.333,288L114.286,300L95.238,300L76.19,300L57.143,300L38.095,300L19.048,300L0,300Z" fill="#4c78a8"/></g></g><path class="foreground" aria-hidden="true" d="" display="none"/></g><g transform="translate(0,0)"><path class="background" aria-hidden="true" d="M0,0h800v300h-800Z"/><g><g class="mark-area role-mark marks" role="graphics-object" aria-roledescription="area mark container"><path aria-label="Date: Mar 16, 2026; Unique Clones/day: 0; Repository: karlmdavis/puppet-archive" role="graphics-symbol" aria-roledescription="area mark" d="M0,300L19.048,300L38.095,300L57.143,300L76.19,300L95.238,300L114.286,300L133.333,288L152.381,297L171.429,297L190.476,291L209.524,270L228.571,294L247.619,291L266.667,291L285.714,285L304.762,285L323.81,291L342.857,297L361.905,276L380.952,297L400,294L419.048,291L438.095,294L457.143,273L476.19,294L495.238,282L514.286,291L533.333,249L552.381,294L571.429,294L590.476,291L609.524,294L628.571,297L647.619,297L666.667,276L685.714,294L704.762,297L723.81,273L742.857,291L761.905,288L780.952,297L800,297L800,297L780.952,297L761.905,288L742.857,291L723.81,273L704.762,297L685.714,294L666.667,276L647.619,297L628.571,297L609.524,294L590.476,291L571.429,294L552.381,294L533.333,249L514.286,291L495.238,285L476.19,294L457.143,276L438.095,294L419.048,291L400,294L380.952,297L361.905,276L342.857,297L323.81,291L304.762,285L285.714,285L266.667,291L247.619,291L228.571,294L209.524,270L190.476,291L171.429,297L152.381,297L133.333,291L114.286,300L95.238,300L76.19,300L57.143,300L38.095,300L19.048,300L0,300Z" fill="#f58518"/></g></g><path class="foreground" aria-hidden="true" d="" display="none"/></g><g transform="translate(0,0)"><path class="background" aria-hidden="true" d="M0,0h800v300h-800Z"/><g><g class="mark-area role-mark marks" role="graphics-object" aria-roledescription="area mark container"><path aria-label="Date: Mar 16, 2026; Unique Clones/day: 0; Repository: karlmdavis/puppet-sonar" role="graphics-symbol" aria-roledescription="area mark" d="M0,300L19.048,300L38.095,300L57.143,300L76.19,300L95.238,300L114.286,300L133.333,291L152.381,297L171.429,297L190.476,291L209.524,270L228.571,294L247.619,291L266.667,291L285.714,285L304.762,285L323.81,291L342.857,297L361.905,276L380.952,297L400,294L419.048,291L438.095,294L457.143,276L476.19,294L495.238,285L514.286,291L533.333,249L552.381,294L571.429,294L590.476,291L609.524,294L628.571,297L647.619,297L666.667,276L685.714,294L704.762,297L723.81,273L742.857,291L761.905,288L780.952,297L800,297L800,297L780.952,297L761.905,288L742.857,291L723.81,276L704.762,297L685.714,297L666.667,276L647.619,297L628.571,297L609.524,294L590.476,291L571.429,294L552.381,297L533.333,249L514.286,291L495.238,288L476.19,294L457.143,276L438.095,297L419.048,294L400,294L380.952,297L361.905,276L342.857,297L323.81,294L304.762,285L285.714,291L266.667,291L247.619,291L228.571,297L209.524,270L190.476,291L171.429,297L152.381,297L133.333,291L114.286,300L95.238,300L76.19,300L57.143,300L38.095,300L19.048,300L0,300Z" fill="#e45756"/></g></g><path class="foreground" aria-hidden="true" d="" display="none"/></g><g transform="translate(0,0)"><path class="background" aria-hidden="true" d="M0,0h800v300h-800Z"/><g><g class="mark-area role-mark marks" role="graphics-object" aria-roledescription="area mark container"><path aria-label="Date: Mar 16, 2026; Unique Clones/day: 0; Repository: karlmdavis/rps-tourney" role="graphics-symbol" aria-roledescription="area mark" d="M0,300L19.048,300L38.095,300L57.143,300L76.19,300L95.238,300L114.286,300L133.333,291L152.381,297L171.429,297L190.476,291L209.524,270L228.571,297L247.619,291L266.667,291L285.714,291L304.762,285L323.81,294L342.857,297L361.905,276L380.952,297L400,294L419.048,294L438.095,297L457.143,276L476.19,294L495.238,288L514.286,291L533.333,249L552.381,297L571.429,294L590.476,291L609.524,294L628.571,297L647.619,297L666.667,276L685.714,297L704.762,297L723.81,276L742.857,291L761.905,288L780.952,297L800,297L800,297L780.952,297L761.905,288L742.857,291L723.81,279L704.762,297L685.714,297L666.667,279L647.619,297L628.571,297L609.524,294L590.476,291L571.429,294L552.381,297L533.333,255L514.286,291L495.238,291L476.19,294L457.143,279L438.095,297L419.048,294L400,294L380.952,297L361.905,279L342.857,297L323.81,297L304.762,285L285.714,291L266.667,291L247.619,291L228.571,297L209.524,273L190.476,291L171.429,297L152.381,297L133.333,294L114.286,300L95.238,300L76.19,300L57.143,300L38.095,300L19.048,300L0,300Z" fill="#72b7b2"/></g></g><path class="foreground" aria-hidden="true" d="" display="none"/></g><g transform="translate(0,0)"><path class="background" aria-hidden="true" d="M0,0h800v300h-800Z"/><g><g class="mark-area role-mark marks" role="graphics-object" aria-roledescription="area mark container"><path aria-label="Date: Mar 16, 2026; Unique Clones/day: 0; Repository: karlmdavis/sample-maven-and-rcp" role="graphics-symbol" aria-roledescription="area mark" d="M0,300L19.048,300L38.095,300L57.143,300L76.19,300L95.238,300L114.286,300L133.333,294L152.381,297L171.429,297L190.476,291L209.524,273L228.571,297L247.619,291L266.667,291L285.714,291L304.762,285L323.81,297L342.857,297L361.905,279L380.952,297L400,294L419.048,294L438.095,297L457.143,279L476.19,294L495.238,291L514.286,291L533.333,255L552.381,297L571.429,294L590.476,291L609.524,294L628.571,297L647.619,297L666.667,279L685.714,297L704.762,297L723.81,279L742.857,291L761.905,288L780.952,297L800,297L800,297L780.952,297L761.905,288L742.857,291L723.81,282L704.762,297L685.714,297L666.667,282L647.619,297L628.571,297L609.524,294L590.476,291L571.429,294L552.381,297L533.333,261L514.286,291L495.238,291L476.19,294L457.143,282L438.095,297L419.048,294L400,294L380.952,297L361.905,282L342.857,297L323.81,297L304.762,288L285.714,291L266.667,291L247.619,291L228.571,297L209.524,276L190.476,291L171.429,297L152.381,297L133.333,294L114.286,300L95.238,300L76.19,300L57.143,300L38.095,300L19.048,300L0,300Z" fill="#54a24b"/></g></g><path class="foreground" aria-hidden="true" d="" display="none"/></g><g transform="translate(0,0)"><path class="background" aria-hidden="true" d="M0,0h800v300h-800Z"/><g><g class="mark-area role-mark marks" role="graphics-object" aria-roledescription="area mark container"><path aria-label="Date: Mar 16, 2026; Unique Clones/day: 0; Repository: karlmdavis/stockfighter-trades-solutions" role="graphics-symbol" aria-roledescription="area mark" d="M0,300L19.048,300L38.095,300L57.143,300L76.19,300L95.238,300L114.286,300L133.333,294L152.381,297L171.429,297L190.476,291L209.524,276L228.571,297L247.619,291L266.667,291L285.714,291L304.762,288L323.81,297L342.857,297L361.905,282L380.952,297L400,294L419.048,294L438.095,297L457.143,282L476.19,294L495.238,291L514.286,291L533.333,261L552.381,297L571.429,294L590.476,291L609.524,294L628.571,297L647.619,297L666.667,282L685.714,297L704.762,297L723.81,282L742.857,291L761.905,288L780.952,297L800,297L800,297L780.952,297L761.905,294L742.857,294L723.81,285L704.762,297L685.714,297L666.667,285L647.619,297L628.571,297L609.524,294L590.476,291L571.429,294L552.381,297L533.333,270L514.286,291L495.238,291L476.19,294L457.143,285L438.095,297L419.048,294L400,294L380.952,297L361.905,285L342.857,297L323.81,297L304.762,288L285.714,291L266.667,291L247.619,294L228.571,297L209.524,282L190.476,291L171.429,297L152.381,297L133.333,294L114.286,300L95.238,300L76.19,300L57.143,300L38.095,300L19.048,300L0,300Z" fill="#eeca3b"/></g></g><path class="foreground" aria-hidden="true" d="" display="none"/></g><g transform="translate(0,0)"><path class="background" aria-hidden="true" d="M0,0h800v300h-800Z"/><g><g class="mark-area role-mark marks" role="graphics-object" aria-roledescription="area mark container"><path aria-label="Date: Mar 16, 2026; Unique Clones/day: 0; Repository: karlmdavis/test-repo-for-move" role="graphics-symbol" aria-roledescription="area mark" d="M0,300L19.048,300L38.095,300L57.143,300L76.19,300L95.238,300L114.286,300L133.333,294L152.381,297L171.429,297L190.476,291L209.524,282L228.571,297L247.619,294L266.667,291L285.714,291L304.762,288L323.81,297L342.857,297L361.905,285L380.952,297L400,294L419.048,294L438.095,297L457.143,285L476.19,294L495.238,291L514.286,291L533.333,270L552.381,297L571.429,294L590.476,291L609.524,294L628.571,297L647.619,297L666.667,285L685.714,297L704.762,297L723.81,285L742.857,294L761.905,294L780.952,297L800,297L800,297L780.952,297L761.905,294L742.857,294L723.81,288L704.762,297L685.714,297L666.667,288L647.619,297L628.571,297L609.524,294L590.476,294L571.429,294L552.381,297L533.333,276L514.286,291L495.238,291L476.19,294L457.143,288L438.095,297L419.048,294L400,294L380.952,297L361.905,288L342.857,297L323.81,297L304.762,288L285.714,291L266.667,291L247.619,297L228.571,297L209.524,285L190.476,294L171.429,297L152.381,297L133.333,294L114.286,300L95.238,300L76.19,300L57.143,300L38.095,300L19.048,300L0,300Z" fill="#b279a2"/></g></g><path class="foreground" aria-hidden="true" d="" display="none"/></g><g transform="translate(0,0)"><path class="background" aria-hidden="true" d="M0,0h800v300h-800Z"/><g><g class="mark-area role-mark marks" role="graphics-object" aria-roledescription="area mark container"><path aria-label="Date: Mar 16, 2026; Unique Clones/day: 0; Repository: karlmdavis/todoist-ai" role="graphics-symbol" aria-roledescription="area mark" d="M0,300L19.048,300L38.095,300L57.143,300L76.19,300L95.238,300L114.286,300L133.333,294L152.381,297L171.429,297L190.476,294L209.524,285L228.571,297L247.619,297L266.667,291L285.714,291L304.762,288L323.81,297L342.857,297L361.905,288L380.952,297L400,294L419.048,294L438.095,297L457.143,288L476.19,294L495.238,291L514.286,291L533.333,276L552.381,297L571.429,294L590.476,294L609.524,294L628.571,297L647.619,297L666.667,288L685.714,297L704.762,297L723.81,288L742.857,294L761.905,294L780.952,297L800,297L800,297L780.952,297L761.905,294L742.857,294L723.81,288L704.762,297L685.714,297L666.667,288L647.619,297L628.571,297L609.524,294L590.476,294L571.429,297L552.381,297L533.333,276L514.286,291L495.238,294L476.19,294L457.143,288L438.095,297L419.048,294L400,294L380.952,297L361.905,288L342.857,297L323.81,297L304.762,294L285.714,291L266.667,291L247.619,297L228.571,297L209.524,285L190.476,294L171.429,297L152.381,297L133.333,294L114.286,300L95.238,300L76.19,300L57.143,300L38.095,300L19.048,300L0,300Z" fill="#ff9da6"/></g></g><path class="foreground" aria-hidden="true" d="" display="none"/></g><g transform="translate(0,0)"><path class="background" aria-hidden="true" d="M0,0h800v300h-800Z"/><g><g class="mark-area role-mark marks" role="graphics-object" aria-roledescription="area mark container"><path aria-label="Date: Mar 16, 2026; Unique Clones/day: 0; Repository: karlmdavis/usgs-water-api-java" role="graphics-symbol" aria-roledescription="area mark" d="M0,300L19.048,300L38.095,300L57.143,300L76.19,300L95.238,300L114.286,300L133.333,294L152.381,297L171.429,297L190.476,294L209.524,285L228.571,297L247.619,297L266.667,291L285.714,291L304.762,294L323.81,297L342.857,297L361.905,288L380.952,297L400,294L419.048,294L438.095,297L457.143,288L476.19,294L495.238,294L514.286,291L533.333,276L552.381,297L571.429,297L590.476,294L609.524,294L628.571,297L647.619,297L666.667,288L685.714,297L704.762,297L723.81,288L742.857,294L761.905,294L780.952,297L800,297L800,300L780.952,300L761.905,297L742.857,297L723.81,294L704.762,300L685.714,300L666.667,294L647.619,300L628.571,300L609.524,297L590.476,300L571.429,300L552.381,300L533.333,285L514.286,300L495.238,297L476.19,297L457.143,294L438.095,300L419.048,297L400,300L380.952,300L361.905,294L342.857,300L323.81,300L304.762,297L285.714,294L266.667,297L247.619,300L228.571,300L209.524,291L190.476,300L171.429,300L152.381,300L133.333,300L114.286,300L95.238,300L76.19,300L57.143,300L38.095,300L19.048,300L0,300Z" fill="#9d755d"/></g></g><path class="foreground" aria-hidden="true" d="" display="none"/></g><g transform="translate(0,0)"><path class="background" aria-hidden="true" d="M0,0h800v300h-800Z"/><g><g class="mark-area role-mark marks" role="graphics-object" aria-roledescription="area mark container"><path aria-label="Date: Mar 16, 2026; Unique Clones/day: 0; Repository: karlmdavis/workstation-base-ansible-role" role="graphics-symbol" aria-roledescription="area mark" d="M0,300L19.048,300L38.095,300L57.143,300L76.19,300L95.238,300L114.286,300L133.333,300L152.381,300L171.429,300L190.476,300L209.524,291L228.571,300L247.619,300L266.667,297L285.714,294L304.762,297L323.81,300L342.857,300L361.905,294L380.952,300L400,300L419.048,297L438.095,300L457.143,294L476.19,297L495.238,297L514.286,300L533.333,285L552.381,300L571.429,300L590.476,300L609.524,297L628.571,300L647.619,300L666.667,294L685.714,300L704.762,300L723.81,294L742.857,297L761.905,297L780.952,300L800,300L800,300L780.952,300L761.905,297L742.857,300L723.81,297L704.762,300L685.714,300L666.667,297L647.619,300L628.571,300L609.524,297L590.476,300L571.429,300L552.381,300L533.333,294L514.286,300L495.238,300L476.19,297L457.143,297L438.095,300L419.048,297L400,300L380.952,300L361.905,297L342.857,300L323.81,300L304.762,300L285.714,297L266.667,300L247.619,300L228.571,300L209.524,297L190.476,300L171.429,300L152.381,300L133.333,300L114.286,300L95.238,300L76.19,300L57.143,300L38.095,300L19.048,300L0,300Z" fill="#bab0ac"/></g></g><path class="foreground" aria-hidden="true" d="" display="none"/></g><g transform="translate(0,0)"><path class="background" aria-hidden="true" d="M0,0h800v300h-800Z"/><g><g class="mark-area role-mark marks" role="graphics-object" aria-roledescription="area mark container"><path aria-label="Date: Mar 16, 2026; Unique Clones/day: 0; Repository: karlmdavis/xmlpull" role="graphics-symbol" aria-roledescription="area mark" d="M0,300L19.048,300L38.095,300L57.143,300L76.19,300L95.238,300L114.286,300L133.333,300L152.381,300L171.429,300L190.476,300L209.524,297L228.571,300L247.619,300L266.667,300L285.714,297L304.762,300L323.81,300L342.857,300L361.905,297L380.952,300L400,300L419.048,297L438.095,300L457.143,297L476.19,297L495.238,300L514.286,300L533.333,294L552.381,300L571.429,300L590.476,300L609.524,297L628.571,300L647.619,300L666.667,297L685.714,300L704.762,300L723.81,297L742.857,300L761.905,297L780.952,300L800,300L800,300L780.952,300L761.905,300L742.857,300L723.81,300L704.762,300L685.714,300L666.667,300L647.619,300L628.571,300L609.524,300L590.476,300L571.429,300L552.381,300L533.333,300L514.286,300L495.238,300L476.19,300L457.143,300L438.095,300L419.048,300L400,300L380.952,300L361.905,300L342.857,300L323.81,300L304.762,300L285.714,300L266.667,300L247.619,300L228.571,300L209.524,300L190.476,300L171.429,300L152.381,300L133.333,300L114.286,300L95.238,300L76.19,300L57.143,300L38.095,300L19.048,300L0,300Z" fill="#4c78a8"/></g></g><path class="foreground" aria-hidden="true" d="" display="none"/></g></g><g class="mark-group role-legend" role="graphics-symbol" aria-roledescription="legend" aria-label="Symbol legend titled 'Repository' for fill color with 41 values: karlmdavis/FHIR-Server, karlmdavis/ansible, karlmdavis/ansible-jenkins, karlmdavis/ansible-role-acmetool, karlmdavis/ansible-role-bind-dns, ending with karlmdavis/xmlpull"><g transform="translate(818,0)"><path class="background" aria-hidden="true" d="M0,0h176v404h-176Z" pointer-events="none"/><g><g class="mark-group role-legend-entry"><g transform="translate(0,16)"><path class="background" aria-hidden="true" d="M0,0h0v0h0Z" pointer-events="none"/><g><g class="mark-group role-scope" role="graphics-object" aria-roledescription="group mark container"><g transform="translate(0,0)"><path class="background" aria-hidden="true" d="M0,0h176v11h-176Z" pointer-events="none" opacity="1"/><g><g class="mark-symbol role-legend-symbol" pointer-events="none"><path transform="translate(6,6)" d="M5,0A5,5,0,1,1,-5,0A5,5,0,1,1,5,0" fill="#4c78a8" stroke-width="1.5" opacity="1"/></g><g class="mark-text role-legend-label" pointer-events="none"><text text-anchor="start" transform="translate(16,9)" font-family="sans-serif" font-size="10px" fill="#000" opacity="1">karlmdavis/FHIR-Server</text></g></g><path class="foreground" aria-hidden="true" d="" pointer-events="none" display="none"/></g><g transform="translate(0,13)"><path class="background" aria-hidden="true" d="M0,0h176v11h-176Z" pointer-events="none" opacity="1"/><g><g class="mark-symbol role-legend-symbol" pointer-events="none"><path transform="translate(6,6)" d="M5,0A5,5,0,1,1,-5,0A5,5,0,1,1,5,0" fill="#f58518" stroke-width="1.5" opacity="1"/></g><g class="mark-text role-legend-label" pointer-events="none"><text text-anchor="start" transform="translate(16,9)" font-family="sans-serif" font-size="10px" fill="#000" opacity="1">karlmdavis/ansible</text></g></g><path class="foreground" aria-hidden="true" d="" pointer-events="none" display="none"/></g><g transform="translate(0,26)"><path class="background" aria-hidden="true" d="M0,0h176v11h-176Z" pointer-events="none" opacity="1"/><g><g class="mark-symbol role-legend-symbol" pointer-events="none"><path transform="translate(6,6)" d="M5,0A5,5,0,1,1,-5,0A5,5,0,1,1,5,0" fill="#e45756" stroke-width="1.5" opacity="1"/></g><g class="mark-text role-legend-label" pointer-events="none"><text text-anchor="start" transform="translate(16,9)" font-family="sans-serif" font-size="10px" fill="#000" opacity="1">karlmdavis/ansible-jenkins</text></g></g><path class="foreground" aria-hidden="true" d="" pointer-events="none" display="none"/></g><g transform="translate(0,39)"><path class="background" aria-hidden="true" d="M0,0h176v11h-176Z" pointer-events="none" opacity="1"/><g><g class="mark-symbol role-legend-symbol" pointer-events="none"><path transform="translate(6,6)" d="M5,0A5,5,0,1,1,-5,0A5,5,0,1,1,5,0" fill="#72b7b2" stroke-width="1.5" opacity="1"/></g><g class="mark-text role-legend-label" pointer-events="none"><text text-anchor="start" transform="translate(16,9)" font-family="sans-serif" font-size="10px" fill="#000" opacity="1">karlmdavis/ansible-role-acmetool</text></g></g><path class="foreground" aria-hidden="true" d="" pointer-events="none" display="none"/></g><g transform="translate(0,52)"><path class="background" aria-hidden="true" d="M0,0h176v11h-176Z" pointer-events="none" opacity="1"/><g><g class="mark-symbol role-legend-symbol" pointer-events="none"><path transform="translate(6,6)" d="M5,0A5,5,0,1,1,-5,0A5,5,0,1,1,5,0" fill="#54a24b" stroke-width="1.5" opacity="1"/></g><g class="mark-text role-legend-label" pointer-events="none"><text text-anchor="start" transform="translate(16,9)" font-family="sans-serif" font-size="10px" fill="#000" opacity="1">karlmdavis/ansible-role-bind-dns</text></g></g><path class="foreground" aria-hidden="true" d="" pointer-events="none" display="none"/></g><g transform="translate(0,65)"><path class="background" aria-hidden="true" d="M0,0h176v11h-176Z" pointer-events="none" opacity="1"/><g><g class="mark-symbol role-legend-symbol" pointer-events="none"><path transform="translate(6,6)" d="M5,0A5,5,0,1,1,-5,0A5,5,0,1,1,5,0" fill="#eeca3b" stroke-width="1.5" opacity="1"/></g><g class="mark-text role-legend-label" pointer-events="none"><text text-anchor="start" transform="translate(16,9)" font-family="sans-serif" font-size="10px" fill="#000" opacity="1">karlmdavis/ansible-role-jenkins2</text></g></g><path class="foreground" aria-hidden="true" d="" pointer-events="none" display="none"/></g><g transform="translate(0,78)"><path class="background" aria-hidden="true" d="M0,0h176v11h-176Z" pointer-events="none" opacity="1"/><g><g class="mark-symbol role-legend-symbol" pointer-events="none"><path transform="translate(6,6)" d="M5,0A5,5,0,1,1,-5,0A5,5,0,1,1,5,0" fill="#b279a2" stroke-width="1.5" opacity="1"/></g><g class="mark-text role-legend-label" pointer-events="none"><text text-anchor="start" transform="translate(16,9)" font-family="sans-serif" font-size="10px" fill="#000" opacity="1">karlmdavis/ansible-role-ldap</text></g></g><path class="foreground" aria-hidden="true" d="" pointer-events="none" display="none"/></g><g transform="translate(0,91)"><path class="background" aria-hidden="true" d="M0,0h176v11h-176Z" pointer-events="none" opacity="1"/><g><g class="mark-symbol role-legend-symbol" pointer-events="none"><path transform="translate(6,6)" d="M5,0A5,5,0,1,1,-5,0A5,5,0,1,1,5,0" fill="#ff9da6" stroke-width="1.5" opacity="1"/></g><g class="mark-text role-legend-label" pointer-events="none"><text text-anchor="start" transform="translate(16,9)" font-family="sans-serif" font-size="10px" fill="#000" opacity="1">karlmdavis/ansible-role-rcm-dotfiles</text></g></g><path class="foreground" aria-hidden="true" d="" pointer-events="none" display="none"/></g><g transform="translate(0,104)"><path class="background" aria-hidden="true" d="M0,0h176v11h-176Z" pointer-events="none" opacity="1"/><g><g class="mark-symbol role-legend-symbol" pointer-events="none"><path transform="translate(6,6)" d="M5,0A5,5,0,1,1,-5,0A5,5,0,1,1,5,0" fill="#9d755d" stroke-width="1.5" opacity="1"/></g><g class="mark-text role-legend-label" pointer-events="none"><text text-anchor="start" transform="translate(16,9)" font-family="sans-serif" font-size="10px" fill="#000" opacity="1">karlmdavis/ansible-roles</text></g></g><path class="foreground" aria-hidden="true" d="" pointer-events="none" display="none"/></g><g transform="translate(0,117)"><path class="background" aria-hidden="true" d="M0,0h176v11h-176Z" pointer-events="none" opacity="1"/><g><g class="mark-symbol role-legend-symbol" pointer-events="none"><path transform="translate(6,6)" d="M5,0A5,5,0,1,1,-5,0A5,5,0,1,1,5,0" fill="#bab0ac" stroke-width="1.5" opacity="1"/></g><g class="mark-text role-legend-label" pointer-events="none"><text text-anchor="start" transform="translate(16,9)" font-family="sans-serif" font-size="10px" fill="#000" opacity="1">karlmdavis/bbonfhir-dev-infra-doc…</text></g></g><path class="foreground" aria-hidden="true" d="" pointer-events="none" display="none"/></g><g transform="translate(0,130)"><path class="background" aria-hidden="true" d="M0,0h176v11h-176Z" pointer-events="none" opacity="1"/><g><g class="mark-symbol role-legend-symbol" pointer-events="none"><path transform="translate(6,6)" d="M5,0A5,5,0,1,1,-5,0A5,5,0,1,1,5,0" fill="#4c78a8" stroke-width="1.5" opacity="1"/></g><g class="mark-text role-legend-label" pointer-events="none"><text text-anchor="start" transform="translate(16,9)" font-family="sans-serif" font-size="10px" fill="#000" opacity="1">karlmdavis/can-i-kayak-baltimore</text></g></g><path class="foreground" aria-hidden="true" d="" pointer-events="none" display="none"/></g><g transform="translate(0,143)"><path class="background" aria-hidden="true" d="M0,0h176v11h-176Z" pointer-events="none" opacity="1"/><g><g class="mark-symbol role-legend-symbol" pointer-events="none"><path transform="translate(6,6)" d="M5,0A5,5,0,1,1,-5,0A5,5,0,1,1,5,0" fill="#f58518" stroke-width="1.5" opacity="1"/></g><g class="mark-text role-legend-label" pointer-events="none"><text text-anchor="start" transform="translate(16,9)" font-family="sans-serif" font-size="10px" fill="#000" opacity="1">karlmdavis/datanucleus-test-jdo-1…</text></g></g><path class="foreground" aria-hidden="true" d="" pointer-events="none" display="none"/></g><g transform="translate(0,156)"><path class="background" aria-hidden="true" d="M0,0h176v11h-176Z" pointer-events="none" opacity="1"/><g><g class="mark-symbol role-legend-symbol" pointer-events="none"><path transform="translate(6,6)" d="M5,0A5,5,0,1,1,-5,0A5,5,0,1,1,5,0" fill="#e45756" stroke-width="1.5" opacity="1"/></g><g class="mark-text role-legend-label" pointer-events="none"><text text-anchor="start" transform="translate(16,9)" font-family="sans-serif" font-size="10px" fill="#000" opacity="1">karlmdavis/dotfiles</text></g></g><path class="foreground" aria-hidden="true" d="" pointer-events="none" display="none"/></g><g transform="translate(0,169)"><path class="background" aria-hidden="true" d="M0,0h176v11h-176Z" pointer-events="none" opacity="1"/><g><g class="mark-symbol role-legend-symbol" pointer-events="none"><path transform="translate(6,6)" d="M5,0A5,5,0,1,1,-5,0A5,5,0,1,1,5,0" fill="#72b7b2" stroke-width="1.5" opacity="1"/></g><g class="mark-text role-legend-label" pointer-events="none"><text text-anchor="start" transform="translate(16,9)" font-family="sans-serif" font-size="10px" fill="#000" opacity="1">karlmdavis/fhir-benchmarks</text></g></g><path class="foreground" aria-hidden="true" d="" pointer-events="none" display="none"/></g><g transform="translate(0,182)"><path class="background" aria-hidden="true" d="M0,0h176v11h-176Z" pointer-events="none" opacity="1"/><g><g class="mark-symbol role-legend-symbol" pointer-events="none"><path transform="translate(6,6)" d="M5,0A5,5,0,1,1,-5,0A5,5,0,1,1,5,0" fill="#54a24b" stroke-width="1.5" opacity="1"/></g><g class="mark-text role-legend-label" pointer-events="none"><text text-anchor="start" transform="translate(16,9)" font-family="sans-serif" font-size="10px" fill="#000" opacity="1">karlmdavis/hapi-fhir-jpaserver-sta…</text></g></g><path class="foreground" aria-hidden="true" d="" pointer-events="none" display="none"/></g><g transform="translate(0,195)"><path class="background" aria-hidden="true" d="M0,0h176v11h-176Z" pointer-events="none" opacity="1"/><g><g class="mark-symbol role-legend-symbol" pointer-events="none"><path transform="translate(6,6)" d="M5,0A5,5,0,1,1,-5,0A5,5,0,1,1,5,0" fill="#eeca3b" stroke-width="1.5" opacity="1"/></g><g class="mark-text role-legend-label" pointer-events="none"><text text-anchor="start" transform="translate(16,9)" font-family="sans-serif" font-size="10px" fill="#000" opacity="1">karlmdavis/hello-rust-actix</text></g></g><path class="foreground" aria-hidden="true" d="" pointer-events="none" display="none"/></g><g transform="translate(0,208)"><path class="background" aria-hidden="true" d="M0,0h176v11h-176Z" pointer-events="none" opacity="1"/><g><g class="mark-symbol role-legend-symbol" pointer-events="none"><path transform="translate(6,6)" d="M5,0A5,5,0,1,1,-5,0A5,5,0,1,1,5,0" fill="#b279a2" stroke-width="1.5" opacity="1"/></g><g class="mark-text role-legend-label" pointer-events="none"><text text-anchor="start" transform="translate(16,9)" font-family="sans-serif" font-size="10px" fill="#000" opacity="1">karlmdavis/jessentials</text></g></g><path class="foreground" aria-hidden="true" d="" pointer-events="none" display="none"/></g><g transform="translate(0,221)"><path class="background" aria-hidden="true" d="M0,0h176v11h-176Z" pointer-events="none" opacity="1"/><g><g class="mark-symbol role-legend-symbol" pointer-events="none"><path transform="translate(6,6)" d="M5,0A5,5,0,1,1,-5,0A5,5,0,1,1,5,0" fill="#ff9da6" stroke-width="1.5" opacity="1"/></g><g class="mark-text role-legend-label" pointer-events="none"><text text-anchor="start" transform="translate(16,9)" font-family="sans-serif" font-size="10px" fill="#000" opacity="1">karlmdavis/justdavis-ansible</text></g></g><path class="foreground" aria-hidden="true" d="" pointer-events="none" display="none"/></g><g transform="translate(0,234)"><path class="background" aria-hidden="true" d="M0,0h176v11h-176Z" pointer-events="none" opacity="1"/><g><g class="mark-symbol role-legend-symbol" pointer-events="none"><path transform="translate(6,6)" d="M5,0A5,5,0,1,1,-5,0A5,5,0,1,1,5,0" fill="#9d755d" stroke-width="1.5" opacity="1"/></g><g class="mark-text role-legend-label" pointer-events="none"><text text-anchor="start" transform="translate(16,9)" font-family="sans-serif" font-size="10px" fill="#000" opacity="1">karlmdavis/justdavis-finances</text></g></g><path class="foreground" aria-hidden="true" d="" pointer-events="none" display="none"/></g><g transform="translate(0,247)"><path class="background" aria-hidden="true" d="M0,0h176v11h-176Z" pointer-events="none" opacity="1"/><g><g class="mark-symbol role-legend-symbol" pointer-events="none"><path transform="translate(6,6)" d="M5,0A5,5,0,1,1,-5,0A5,5,0,1,1,5,0" fill="#bab0ac" stroke-width="1.5" opacity="1"/></g><g class="mark-text role-legend-label" pointer-events="none"><text text-anchor="start" transform="translate(16,9)" font-family="sans-serif" font-size="10px" fill="#000" opacity="1">karlmdavis/justdavis-karl</text></g></g><path class="foreground" aria-hidden="true" d="" pointer-events="none" display="none"/></g><g transform="translate(0,260)"><path class="background" aria-hidden="true" d="M0,0h176v11h-176Z" pointer-events="none" opacity="1"/><g><g class="mark-symbol role-legend-symbol" pointer-events="none"><path transform="translate(6,6)" d="M5,0A5,5,0,1,1,-5,0A5,5,0,1,1,5,0" fill="#4c78a8" stroke-width="1.5" opacity="1"/></g><g class="mark-text role-legend-label" pointer-events="none"><text text-anchor="start" transform="translate(16,9)" font-family="sans-serif" font-size="10px" fill="#000" opacity="1">karlmdavis/justdavis-puppet</text></g></g><path class="foreground" aria-hidden="true" d="" pointer-events="none" display="none"/></g><g transform="translate(0,273)"><path class="background" aria-hidden="true" d="M0,0h176v11h-176Z" pointer-events="none" opacity="1"/><g><g class="mark-symbol role-legend-symbol" pointer-events="none"><path transform="translate(6,6)" d="M5,0A5,5,0,1,1,-5,0A5,5,0,1,1,5,0" fill="#f58518" stroke-width="1.5" opacity="1"/></g><g class="mark-text role-legend-label" pointer-events="none"><text text-anchor="start" transform="translate(16,9)" font-family="sans-serif" font-size="10px" fill="#000" opacity="1">karlmdavis/kobjects</text></g></g><path class="foreground" aria-hidden="true" d="" pointer-events="none" display="none"/></g><g transform="translate(0,286)"><path class="background" aria-hidden="true" d="M0,0h176v11h-176Z" pointer-events="none" opacity="1"/><g><g class="mark-symbol role-legend-symbol" pointer-events="none"><path transform="translate(6,6)" d="M5,0A5,5,0,1,1,-5,0A5,5,0,1,1,5,0" fill="#e45756" stroke-width="1.5" opacity="1"/></g><g class="mark-text role-legend-label" pointer-events="none"><text text-anchor="start" transform="translate(16,9)" font-family="sans-serif" font-size="10px" fill="#000" opacity="1">karlmdavis/ksoap2-android</text></g></g><path class="foreground" aria-hidden="true" d="" pointer-events="none" display="none"/></g><g transform="translate(0,299)"><path class="background" aria-hidden="true" d="M0,0h176v11h-176Z" pointer-events="none" opacity="1"/><g><g class="mark-symbol role-legend-symbol" pointer-events="none"><path transform="translate(6,6)" d="M5,0A5,5,0,1,1,-5,0A5,5,0,1,1,5,0" fill="#72b7b2" stroke-width="1.5" opacity="1"/></g><g class="mark-text role-legend-label" pointer-events="none"><text text-anchor="start" transform="translate(16,9)" font-family="sans-serif" font-size="10px" fill="#000" opacity="1">karlmdavis/kxml2</text></g></g><path class="foreground" aria-hidden="true" d="" pointer-events="none" display="none"/></g><g transform="translate(0,312)"><path class="background" aria-hidden="true" d="M0,0h176v11h-176Z" pointer-events="none" opacity="1"/><g><g class="mark-symbol role-legend-symbol" pointer-events="none"><path transform="translate(6,6)" d="M5,0A5,5,0,1,1,-5,0A5,5,0,1,1,5,0" fill="#54a24b" stroke-width="1.5" opacity="1"/></g><g class="mark-text role-legend-label" pointer-events="none"><text text-anchor="start" transform="translate(16,9)" font-family="sans-serif" font-size="10px" fill="#000" opacity="1">karlmdavis/ldap-plugin</text></g></g><path class="foreground" aria-hidden="true" d="" pointer-events="none" display="none"/></g><g transform="translate(0,325)"><path class="background" aria-hidden="true" d="M0,0h176v11h-176Z" pointer-events="none" opacity="1"/><g><g class="mark-symbol role-legend-symbol" pointer-events="none"><path transform="translate(6,6)" d="M5,0A5,5,0,1,1,-5,0A5,5,0,1,1,5,0" fill="#eeca3b" stroke-width="1.5" opacity="1"/></g><g class="mark-text role-legend-label" pointer-events="none"><text text-anchor="start" transform="translate(16,9)" font-family="sans-serif" font-size="10px" fill="#000" opacity="1">karlmdavis/lego-ev3dev-rs</text></g></g><path class="foreground" aria-hidden="true" d="" pointer-events="none" display="none"/></g><g transform="translate(0,338)"><path class="background" aria-hidden="true" d="M0,0h176v11h-176Z" pointer-events="none" opacity="1"/><g><g class="mark-symbol role-legend-symbol" pointer-events="none"><path transform="translate(6,6)" d="M5,0A5,5,0,1,1,-5,0A5,5,0,1,1,5,0" fill="#b279a2" stroke-width="1.5" opacity="1"/></g><g class="mark-text role-legend-label" pointer-events="none"><text text-anchor="start" transform="translate(16,9)" font-family="sans-serif" font-size="10px" fill="#000" opacity="1">karlmdavis/liquibase</text></g></g><path class="foreground" aria-hidden="true" d="" pointer-events="none" display="none"/></g><g transform="translate(0,351)"><path class="background" aria-hidden="true" d="M0,0h176v11h-176Z" pointer-events="none" opacity="1"/><g><g class="mark-symbol role-legend-symbol" pointer-events="none"><path transform="translate(6,6)" d="M5,0A5,5,0,1,1,-5,0A5,5,0,1,1,5,0" fill="#ff9da6" stroke-width="1.5" opacity="1"/></g><g class="mark-text role-legend-label" pointer-events="none"><text text-anchor="start" transform="translate(16,9)" font-family="sans-serif" font-size="10px" fill="#000" opacity="1">karlmdavis/m2e-core</text></g></g><path class="foreground" aria-hidden="true" d="" pointer-events="none" display="none"/></g><g transform="translate(0,364)"><path class="background" aria-hidden="true" d="M0,0h176v11h-176Z" pointer-events="none" opacity="1"/><g><g class="mark-symbol role-legend-symbol" pointer-events="none"><path transform="translate(6,6)" d="M5,0A5,5,0,1,1,-5,0A5,5,0,1,1,5,0" fill="#9d755d" stroke-width="1.5" opacity="1"/></g><g class="mark-text role-legend-label" pointer-events="none"><text text-anchor="start" transform="translate(16,9)" font-family="sans-serif" font-size="10px" fill="#000" opacity="1">karlmdavis/m2e-core-tests</text></g></g><path class="foreground" aria-hidden="true" d="" pointer-events="none" display="none"/></g><g transform="translate(0,377)"><path class="background" aria-hidden="true" d="M0,0h176v11h-176Z" pointer-events="none" opacity="1"/><g><g class="mark-symbol role-legend-symbol" pointer-events="none"><path transform="translate(6,6)" d="M5,0A5,5,0,1,1,-5,0A5,5,0,1,1,5,0" fill="#bab0ac" stroke-width="1.5" opacity="1"/></g><g class="mark-text role-legend-label" pointer-events="none"><text text-anchor="start" transform="translate(16,9)" font-family="sans-serif" font-size="10px" fill="#000" opacity="1">…12 entries</text></g></g><path class="foreground" aria-hidden="true" d="" pointer-events="none" display="none"/></g></g></g><path class="foreground" aria-hidden="true" d="" pointer-events="none" display="none"/></g></g><g class="mark-text role-legend-title" pointer-events="none"><text text-anchor="start" transform="translate(0,9)" font-family="sans-serif" font-size="11px" font-weight="bold" fill="#000" opacity="1">Repository</text></g></g><path class="foreground" aria-hidden="true" d="" pointer-events="none" display="none"/></g></g><g class="mark-group role-title"><g transform="translate(400,-22)"><path class="background" aria-hidden="true" d="M0,0h0v0h0Z" pointer-events="none"/><g><g class="mark-text role-title-text" role="graphics-symbol" aria-roledescription="title" aria-label="Title text 'Unique Clones per Day'" pointer-events="none"><text text-anchor="middle" transform="translate(0,10)" font-family="sans-serif" font-size="13px" font-weight="bold" fill="#000" opacity="1">Unique Clones per Day</text></g></g><path class="foreground" aria-hidden="true" d="" pointer-events="none" display="none"/></g></g></g><path class="foreground" aria-hidden="true" d="" display="none"/></g></g></g></svg>