<svg xmlns="http://www.w3.org/2000/svg" xmlns:xlink="http://www.w3.org/1999/xlink" version="1.1" class="marks" width="1043" height="436" viewBox="0 0 1043 436"><rect width="1043" height="436" fill="white"/><g fill="none" stroke-miterlimit="10" transform="translate(44,27)"><g class="mark-group role-frame root" role="graphics-object" aria-roledescription="group mark container"><g transform="translate(0,0)"><path class="background" aria-hidden="true" d="M0.5,0.5h800v300h-800Z" stroke="#ddd"/><g><g class="mark-group role-axis" aria-hidden="true"><g transform="translate(0.5,300.5)"><path class="background" aria-hidden="true" d="M0,0h0v0h0Z" pointer-events="none"/><g><g class="mark-rule role-axis-grid" pointer-events="none"><line transform="translate(21,-300)" x2="0" y2="300" stroke="#ddd" stroke-width="1" opacity="1"/><line transform="translate(62,-300)" x2="0" y2="300" stroke="#ddd" stroke-width="1" opacity="1"/><line transform="translate(103,-300)" x2="0" y2="300" stroke="#ddd" stroke-width="1" opacity="1"/><line transform="translate(144,-300)" x2="0" y2="300" stroke="#ddd" stroke-width="1" opacity="1"/><line transform="translate(185,-300)" x2="0" y2="300" stroke="#ddd" stroke-width="1" opacity="1"/><line transform="translate(226,-300)" x2="0" y2="300" stroke="#ddd" stroke-width="1" opacity="1"/><line transform="translate(267,-300)" x2="0" y2="300" stroke="#ddd" stroke-width="1" opacity="1"/><line transform="translate(308,-300)" x2="0" y2="300" stroke="#ddd" stroke-width="1" opacity="1"/><line transform="translate(328,-300)" x2="0" y2="300" stroke="#ddd" stroke-width="1" opacity="1"/><line transform="translate(369,-300)" x2="0" y2="300" stroke="#ddd" stroke-width="1" opacity="1"/><line transform="translate(410,-300)" x2="0" y2="300" stroke="#ddd" stroke-width="1" opacity="1"/><line transform="translate(451,-300)" x2="0" y2="300" stroke="#ddd" stroke-width="1" opacity="1"/><line transform="translate(492,-300)" x2="0" y2="300" stroke="#ddd" stroke-width="1" opacity="1"/><line transform="translate(533,-300)" x2="0" y2="300" stroke="#ddd" stroke-width="1" opacity="1"/><line transform="translate(574,-300)" x2="0" y2="300" stroke="#ddd" stroke-width="1" opacity="1"/><line transform="translate(615,-300)" x2="0" y2="300" stroke="#ddd" stroke-width="1" opacity="1"/><line transform="translate(656,-300)" x2="0" y2="300" stroke="#ddd" stroke-width="1" opacity="1"/><line transform="translate(697,-300)" x2="0" y2="300" stroke="#ddd" stroke-width="1" opacity="1"/><line transform="translate(738,-300)" x2="0" y2="300" stroke="#ddd" stroke-width="1" opacity="1"/><line transform="translate(779,-300)" x2="0" y2="300" stroke="#ddd" stroke-width="1" opacity="1"/></g></g><path class="foreground" aria-hidden="true" d="" pointer-events="none" display="none"/></g></g><g class="mark-group role-axis" aria-hidden="true"><g transform="translate(0.5,0.5)"><path class="background" aria-hidden="true" d="M0,0h0v0h0Z" pointer-events="none"/><g><g class="mark-rule role-axis-grid" pointer-events="none"><line transform="translate(0,300)" x2="800" y2="0" stroke="#ddd" stroke-width="1" opacity="1"/><line transform="translate(0,270)" x2="800" y2="0" stroke="#ddd" stroke-width="1" opacity="1"/><line transform="translate(0,240)" x2="800" y2="0" stroke="#ddd" stroke-width="1" opacity="1"/><line transform="translate(0,210)" x2="800" y2="0" stroke="#ddd" stroke-width="1" opacity="1"/><line transform="translate(0,180)" x2="800" y2="0" stroke="#ddd" stroke-width="1" opacity="1"/><line transform="translate(0,150)" x2="800" y2="0" stroke="#ddd" stroke-width="1" opacity="1"/><line transform="translate(0,120)" x2="800" y2="0" stroke="#ddd" stroke-width="1" opacity="1"/><line transform="translate(0,90)" x2="800" y2="0" stroke="#ddd" stroke-width="1" opacity="1"/><line transform="translate(0,60)" x2="800" y2="0" stroke="#ddd" stroke-width="1" opacity="1"/><line transform="translate(0,30)" x2="800" y2="0" stroke="#ddd" stroke-width="1" opacity="1"/><line transform="translate(0,0)" x2="800" y2="0" stroke="#ddd" stroke-width="1" opacity="1"/></g></g><path class="foreground" aria-hidden="true" d="" pointer-events="none" display="none"/></g></g><g class="mark-group role-axis" role="graphics-symbol" aria-roledescription="axis" aria-label="X-axis titled 'Date' for a time scale with values from Monday, 16 March 2026, 12:00:00 AM to Friday, 24 April 2026, 12:00:00 AM"><g transform="translate(0.5,300.5)"><path class="background" aria-hidden="true" d="M0,0h0v0h0Z" pointer-events="none"/><g><g class="mark-rule role-axis-tick" pointer-events="none"><line transform="translate(21,0)" x2="0" y2="5" stroke="#888" stroke-width="1" opacity="1"/><line transform="translate(62,0)" x2="0" y2="5" stroke="#888" stroke-width="1" opacity="1"/><line transform="translate(103,0)" x2="0" y2="5" stroke="#888" stroke-width="1" opacity="1"/><line transform="translate(144,0)" x2="0" y2="5" stroke="#888" stroke-width="1" opacity="1"/><line transform="translate(185,0)" x2="0" y2="5" stroke="#888" stroke-width="1" opacity="1"/><line transform="translate(226,0)" x2="0" y2="5" stroke="#888" stroke-width="1" opacity="1"/><line transform="translate(267,0)" x2="0" y2="5" stroke="#888" stroke-width="1" opacity="1"/><line transform="translate(308,0)" x2="0" y2="5" stroke="#888" stroke-width="1" opacity="1"/><line transform="translate(328,0)" x2="0" y2="5" stroke="#888" stroke-width="1" opacity="1"/><line transform="translate(369,0)" x2="0" y2="5" stroke="#888" stroke-width="1" opacity="1"/><line transform="translate(410,0)" x2="0" y2="5" stroke="#888" stroke-width="1" opacity="1"/><line transform="translate(451,0)" x2="0" y2="5" stroke="#888" stroke-width="1" opacity="1"/><line transform="translate(492,0)" x2="0" y2="5" stroke="#888" stroke-width="1" opacity="1"/><line transform="translate(533,0)" x2="0" y2="5" stroke="#888" stroke-width="1" opacity="1"/><line transform="translate(574,0)" x2="0" y2="5" stroke="#888" stroke-width="1" opacity="1"/><line transform="translate(615,0)" x2="0" y2="5" stroke="#888" stroke-width="1" opacity="1"/><line transform="translate(656,0)" x2="0" y2="5" stroke="#888" stroke-width="1" opacity="1"/><line transform="translate(697,0)" x2="0" y2="5" stroke="#888" stroke-width="1" opacity="1"/><line transform="translate(738,0)" x2="0" y2="5" stroke="#888" stroke-width="1" opacity="1"/><line transform="translate(779,0)" x2="0" y2="5" stroke="#888" stroke-width="1" opacity="1"/></g><g class="mark-text role-axis-label" pointer-events="none"><text text-anchor="middle" transform="translate(20.51282051282051,15)" font-family="sans-serif" font-size="10px" fill="#000" opacity="1">Tue 17</text><text text-anchor="middle" transform="translate(61.53846153846154,15)" font-family="sans-serif" font-size="10px" fill="#000" opacity="0">Thu 19</text><text text-anchor="middle" transform="translate(102.56410256410255,15)" font-family="sans-serif" font-size="10px" fill="#000" opacity="1">Sat 21</text><text text-anchor="middle" transform="translate(143.5897435897436,15)" font-family="sans-serif" font-size="10px" fill="#000" opacity="0">Mon 23</text><text text-anchor="middle" transform="translate(184.6153846153846,15)" font-family="sans-serif" font-size="10px" fill="#000" opacity="1">Wed 25</text><text text-anchor="middle" transform="translate(225.64102564102564,15)" font-family="sans-serif" font-size="10px" fill="#000" opacity="0">Fri 27</text><text text-anchor="middle" transform="translate(266.66666666666663,15)" font-family="sans-serif" font-size="10px" fill="#000" opacity="1">Mar 29</text><text text-anchor="middle" transform="translate(307.69230769230774,15)" font-family="sans-serif" font-size="10px" fill="#000" opacity="0">Tue 31</text><text text-anchor="middle" transform="translate(328.2051282051282,15)" font-family="sans-serif" font-size="10px" fill="#000" opacity="1">April</text><text text-anchor="middle" transform="translate(369.2307692307692,15)" font-family="sans-serif" font-size="10px" fill="#000" opacity="0">Fri 03</text><text text-anchor="middle" transform="translate(410.2564102564102,15)" font-family="sans-serif" font-size="10px" fill="#000" opacity="1">Apr 05</text><text text-anchor="middle" transform="translate(451.28205128205127,15)" font-family="sans-serif" font-size="10px" fill="#000" opacity="0">Tue 07</text><text text-anchor="middle" transform="translate(492.3076923076923,15)" font-family="sans-serif" font-size="10px" fill="#000" opacity="1">Thu 09</text><text text-anchor="middle" transform="translate(533.3333333333333,15)" font-family="sans-serif" font-size="10px" fill="#000" opacity="0">Sat 11</text><text text-anchor="middle" transform="translate(574.3589743589744,15)" font-family="sans-serif" font-size="10px" fill="#000" opacity="1">Mon 13</text><text text-anchor="middle" transform="translate(615.3846153846155,15)" font-family="sans-serif" font-size="10px" fill="#000" opacity="0">Wed 15</text><text text-anchor="middle" transform="translate(656.4102564102564,15)" font-family="sans-serif" font-size="10px" fill="#000" opacity="1">Fri 17</text><text text-anchor="middle" transform="translate(697.4358974358975,15)" font-family="sans-serif" font-size="10px" fill="#000" opacity="0">Apr 19</text><text text-anchor="middle" transform="translate(738.4615384615385,15)" font-family="sans-serif" font-size="10px" fill="#000" opacity="1">Tue 21</text><text text-anchor="middle" transform="translate(779.4871794871794,15)" font-family="sans-serif" font-size="10px" fill="#000" opacity="0">Thu 23</text></g><g class="mark-rule role-axis-domain" pointer-events="none"><line transform="translate(0,0)" x2="800" y2="0" stroke="#888" stroke-width="1" opacity="1"/></g><g class="mark-text role-axis-title" pointer-events="none"><text text-anchor="middle" transform="translate(400,30)" font-family="sans-serif" font-size="11px" font-weight="bold" fill="#000" opacity="1">Date</text></g></g><path class="foreground" aria-hidden="true" d="" pointer-events="none" display="none"/></g></g><g class="mark-group role-axis" role="graphics-symbol" aria-roledescription="axis" aria-label="Y-axis titled 'Unique Clones/day' for a linear scale with values from 0 to 100"><g transform="translate(0.5,0.5)"><path class="background" aria-hidden="true" d="M0,0h0v0h0Z" pointer-events="none"/><g><g class="mark-rule role-axis-tick" pointer-events="none"><line transform="translate(0,300)" x2="-5" y2="0" stroke="#888" stroke-width="1" opacity="1"/><line transform="translate(0,270)" x2="-5" y2="0" stroke="#888" stroke-width="1" opacity="1"/><line transform="translate(0,240)" x2="-5" y2="0" stroke="#888" stroke-width="1" opacity="1"/><line transform="translate(0,210)" x2="-5" y2="0" stroke="#888" stroke-width="1" opacity="1"/><line transform="translate(0,180)" x2="-5" y2="0" stroke="#888" stroke-width="1" opacity="1"/><line transform="translate(0,150)" x2="-5" y2="0" stroke="#888" stroke-width="1" opacity="1"/><line transform="translate(0,120)" x2="-5" y2="0" stroke="#888" stroke-width="1" opacity="1"/><line transform="translate(0,90)" x2="-5" y2="0" stroke="#888" stroke-width="1" opacity="1"/><line transform="translate(0,60)" x2="-5" y2="0" stroke="#888" stroke-width="1" opacity="1"/><line transform="translate(0,30)" x2="-5" y2="0" stroke="#888" stroke-width="1" opacity="1"/><line transform="translate(0,0)" x2="-5" y2="0" stroke="#888" stroke-width="1" opacity="1"/></g><g class="mark-text role-axis-label" pointer-events="none"><text text-anchor="end" transform="translate(-7,303)" font-family="sans-serif" font-size="10px" fill="#000" opacity="1">0</text><text text-anchor="end" transform="translate(-7,273)" font-family="sans-serif" font-size="10px" fill="#000" opacity="1">10</text><text text-anchor="end" transform="translate(-7,243)" font-family="sans-serif" font-size="10px" fill="#000" opacity="1">20</text><text text-anchor="end" transform="translate(-7,213)" font-family="sans-serif" font-size="10px" fill="#000" opacity="1">30</text><text text-anchor="end" transform="translate(-7,183)" font-family="sans-serif" font-size="10px" fill="#000" opacity="1">40</text><text text-anchor="end" transform="translate(-7,153)" font-family="sans-serif" font-size="10px" fill="#000" opacity="1">50</text><text text-anchor="end" transform="translate(-7,123)" font-family="sans-serif" font-size="10px" fill="#000" opacity="1">60</text><text text-anchor="end" transform="translate(-7,93.00000000000001)" font-family="sans-serif" font-size="10px" fill="#000" opacity="1">70</text><text text-anchor="end" transform="translate(-7,62.999999999999986)" font-family="sans-serif" font-size="10px" fill="#000" opacity="1">80</text><text text-anchor="end" transform="translate(-7,32.99999999999999)" font-family="sans-serif" font-size="10px" fill="#000" opacity="1">90</text><text text-anchor="end" transform="translate(-7,3)" font-family="sans-serif" font-size="10px" fill="#000" opacity="1">100</text></g><g class="mark-rule role-axis-domain" pointer-events="none"><line transform="translate(0,300)" x2="0" y2="-300" stroke="#888" stroke-width="1" opacity="1"/></g><g class="mark-text role-axis-title" pointer-events="none"><text text-anchor="middle" transform="translate(-27.6845703125,150) rotate(-90) translate(0,-2)" font-family="sans-serif" font-size="11px" font-weight="bold" fill="#000" opacity="1">Unique Clones/day</text></g></g><path class="foreground" aria-hidden="true" d="" pointer-events="none" display="none"/></g></g><g class="mark-group role-scope pathgroup" role="graphics-object" aria-roledescription="group mark container"><g transform="translate(0,0)"><path class="background" aria-hidden="true" d="M0,0h800v300h-800Z"/><g><g class="mark-area role-mark marks" role="graphics-object" aria-roledescription="area mark container"><path aria-label="Date: Mar 16, 2026; Unique Clones/day: 0; Repository: karlmdavis/FHIR-Server" role="graphics-symbol" aria-roledescription="area mark" d="M0,297L20.513,300L41.026,300L61.538,297L82.051,300L102.564,300L123.077,300L143.59,264L164.103,294L184.615,279L205.128,252L225.641,93L246.154,162L266.667,12L287.179,201L307.692,231L328.205,246L348.718,270L369.231,213L389.744,36L410.256,57L430.769,261L451.282,210L471.795,213L492.308,177L512.821,264L533.333,222L553.846,192L574.359,33L594.872,264L615.385,264L635.897,282L656.41,282L676.923,291L697.436,237L717.949,93L738.462,210L758.974,219L779.487,159L800,270L800,270L779.487,159L758.974,219L738.462,210L717.949,96L697.436,237L676.923,291L656.41,282L635.897,282L615.385,264L594.872,264L574.359,33L553.846,195L533.333,228L512.821,264L492.308,177L471.795,213L451.282,210L430.769,261L410.256,57L389.744,36L369.231,213L348.718,270L328.205,246L307.692,234L287.179,201L266.667,12L246.154,162L225.641,93L205.128,252L184.615,279L164.103,294L143.59,264L123.077,300L102.564,300L82.051,300L61.538,297L41.026,300L20.513,300L0,297Z" fill="#4c78a8"/></g></g><path class="foreground" aria-hidden="true" d="" display="none"/></g><g transform="translate(0,0)"><path class="background" aria-hidden="true" d="M0,0h800v300h-800Z"/><g><g class="mark-area role-mark marks" role="graphics-object" aria-roledescription="area mark container"><path aria-label="Date: Mar 16, 2026; Unique Clones/day: 1; Repository: karlmdavis/ansible" role="graphics-symbol" aria-roledescription="area mark" d="M0,297L20.513,300L41.026,300L61.538,297L82.051,300L102.564,300L123.077,300L143.59,264L164.103,294L184.615,279L205.128,252L225.641,93L246.154,162L266.667,12L287.179,201L307.692,234L328.205,246L348.718,270L369.231,213L389.744,36L410.256,57L430.769,261L451.282,210L471.795,213L492.308,177L512.821,264L533.333,228L553.846,195L574.359,33L594.872,264L615.385,264L635.897,282L656.41,282L676.923,291L697.436,237L717.949,96L738.462,210L758.974,219L779.487,159L800,270L800,270L779.487,159L758.974,219L738.462,210L717.949,96L697.436,237L676.923,291L656.41,282L635.897,282L615.385,264L594.872,267L574.359,33L553.846,195L533.333,228L512.821,264L492.308,177L471.795,213L451.282,210L430.769,261L410.256,57L389.744,36L369.231,213L348.718,270L328.205,246L307.692,234L287.179,201L266.667,12L246.154,162L225.641,93L205.128,252L184.615,279L164.103,294L143.59,264L123.077,300L102.564,300L82.051,300L61.538,297L41.026,300L20.513,300L0,300Z" fill="#f58518"/></g></g><path class="foreground" aria-hidden="true" d="" display="none"/></g><g transform="translate(0,0)"><path class="background" aria-hidden="true" d="M0,0h800v300h-800Z"/><g><g class="mark-area role-mark marks" role="graphics-object" aria-roledescription="area mark container"><path aria-label="Date: Mar 16, 2026; Unique Clones/day: 0; Repository: karlmdavis/ansible-jenkins" role="graphics-symbol" aria-roledescription="area mark" d="M0,300L20.513,300L41.026,300L61.538,297L82.051,300L102.564,300L123.077,300L143.59,264L164.103,294L184.615,279L205.128,252L225.641,93L246.154,162L266.667,12L287.179,201L307.692,234L328.205,246L348.718,270L369.231,213L389.744,36L410.256,57L430.769,261L451.282,210L471.795,213L492.308,177L512.821,264L533.333,228L553.846,195L574.359,33L594.872,267L615.385,264L635.897,282L656.41,282L676.923,291L697.436,237L717.949,96L738.462,210L758.974,219L779.487,159L800,270L800,270L779.487,159L758.974,219L738.462,210L717.949,96L697.436,237L676.923,291L656.41,282L635.897,282L615.385,264L594.872,267L574.359,33L553.846,198L533.333,228L512.821,264L492.308,177L471.795,213L451.282,210L430.769,261L410.256,57L389.744,39L369.231,216L348.718,270L328.205,246L307.692,234L287.179,201L266.667,12L246.154,162L225.641,93L205.128,255L184.615,279L164.103,294L143.59,264L123.077,300L102.564,300L82.051,300L61.538,297L41.026,300L20.513,300L0,300Z" fill="#e45756"/></g></g><path class="foreground" aria-hidden="true" d="" display="none"/></g><g transform="translate(0,0)"><path class="background" aria-hidden="true" d="M0,0h800v300h-800Z"/><g><g class="mark-area role-mark marks" role="graphics-object" aria-roledescription="area mark container"><path aria-label="Date: Mar 16, 2026; Unique Clones/day: 0; Repository: karlmdavis/ansible-role-acmetool" role="graphics-symbol" aria-roledescription="area mark" d="M0,300L20.513,300L41.026,300L61.538,297L82.051,300L102.564,300L123.077,300L143.59,264L164.103,294L184.615,279L205.128,255L225.641,93L246.154,162L266.667,12L287.179,201L307.692,234L328.205,246L348.718,270L369.231,216L389.744,39L410.256,57L430.769,261L451.282,210L471.795,213L492.308,177L512.821,264L533.333,228L553.846,198L574.359,33L594.872,267L615.385,264L635.897,282L656.41,282L676.923,291L697.436,237L717.949,96L738.462,210L758.974,219L779.487,159L800,270L800,270L779.487,159L758.974,219L738.462,210L717.949,96L697.436,237L676.923,291L656.41,282L635.897,282L615.385,264L594.872,267L574.359,33L553.846,201L533.333,228L512.821,264L492.308,177L471.795,213L451.282,210L430.769,261L410.256,57L389.744,39L369.231,216L348.718,270L328.205,246L307.692,234L287.179,201L266.667,12L246.154,162L225.641,93L205.128,258L184.615,279L164.103,294L143.59,264L123.077,300L102.564,300L82.051,300L61.538,297L41.026,300L20.513,300L0,300Z" fill="#72b7b2"/></g></g><path class="foreground" aria-hidden="true" d="" display="none"/></g><g transform="translate(0,0)"><path class="background" aria-hidden="true" d="M0,0h800v300h-800Z"/><g><g class="mark-area role-mark marks" role="graphics-object" aria-roledescription="area mark container"><path aria-label="Date: Mar 16, 2026; Unique Clones/day: 0; Repository: karlmdavis/ansible-role-bind-dns" role="graphics-symbol" aria-roledescription="area mark" d="M0,300L20.513,300L41.026,300L61.538,297L82.051,300L102.564,300L123.077,300L143.59,264L164.103,294L184.615,279L205.128,258L225.641,93L246.154,162L266.667,12L287.179,201L307.692,234L328.205,246L348.718,270L369.231,216L389.744,39L410.256,57L430.769,261L451.282,210L471.795,213L492.308,177L512.821,264L533.333,228L553.846,201L574.359,33L594.872,267L615.385,264L635.897,282L656.41,282L676.923,291L697.436,237L717.949,96L738.462,210L758.974,219L779.487,159L800,270L800,270L779.487,162L758.974,219L738.462,210L717.949,99L697.436,237L676.923,291L656.41,282L635.897,285L615.385,264L594.872,267L574.359,45L553.846,204L533.333,228L512.821,264L492.308,180L471.795,216L451.282,210L430.769,261L410.256,57L389.744,42L369.231,216L348.718,270L328.205,255L307.692,234L287.179,204L266.667,15L246.154,162L225.641,99L205.128,258L184.615,279L164.103,294L143.59,264L123.077,300L102.564,300L82.051,300L61.538,297L41.026,300L20.513,300L0,300Z" fill="#54a24b"/></g></g><path class="foreground" aria-hidden="true" d="" display="none"/></g><g transform="translate(0,0)"><path class="background" aria-hidden="true" d="M0,0h800v300h-800Z"/><g><g class="mark-area role-mark marks" role="graphics-object" aria-roledescription="area mark container"><path aria-label="Date: Mar 16, 2026; Unique Clones/day: 0; Repository: karlmdavis/ansible-role-jenkins2" role="graphics-symbol" aria-roledescription="area mark" d="M0,300L20.513,300L41.026,300L61.538,297L82.051,300L102.564,300L123.077,300L143.59,264L164.103,294L184.615,279L205.128,258L225.641,99L246.154,162L266.667,15L287.179,204L307.692,234L328.205,255L348.718,270L369.231,216L389.744,42L410.256,57L430.769,261L451.282,210L471.795,216L492.308,180L512.821,264L533.333,228L553.846,204L574.359,45L594.872,267L615.385,264L635.897,285L656.41,282L676.923,291L697.436,237L717.949,99L738.462,210L758.974,219L779.487,162L800,270L800,270L779.487,165L758.974,219L738.462,213L717.949,102L697.436,237L676.923,291L656.41,282L635.897,285L615.385,267L594.872,267L574.359,60L553.846,204L533.333,231L512.821,270L492.308,195L471.795,216L451.282,210L430.769,261L410.256,60L389.744,48L369.231,219L348.718,273L328.205,258L307.692,237L287.179,204L266.667,15L246.154,165L225.641,102L205.128,261L184.615,282L164.103,297L143.59,264L123.077,300L102.564,300L82.051,300L61.538,297L41.026,300L20.513,300L0,300Z" fill="#eeca3b"/></g></g><path class="foreground" aria-hidden="true" d="" display="none"/></g><g transform="translate(0,0)"><path class="background" aria-hidden="true" d="M0,0h800v300h-800Z"/><g><g class="mark-area role-mark marks" role="graphics-object" aria-roledescription="area mark container"><path aria-label="Date: Mar 16, 2026; Unique Clones/day: 0; Repository: karlmdavis/ansible-role-ldap" role="graphics-symbol" aria-roledescription="area mark" d="M0,300L20.513,300L41.026,300L61.538,297L82.051,300L102.564,300L123.077,300L143.59,264L164.103,297L184.615,282L205.128,261L225.641,102L246.154,165L266.667,15L287.179,204L307.692,237L328.205,258L348.718,273L369.231,219L389.744,48L410.256,60L430.769,261L451.282,210L471.795,216L492.308,195L512.821,270L533.333,231L553.846,204L574.359,60L594.872,267L615.385,267L635.897,285L656.41,282L676.923,291L697.436,237L717.949,102L738.462,213L758.974,219L779.487,165L800,270L800,270L779.487,165L758.974,219L738.462,213L717.949,102L697.436,237L676.923,291L656.41,282L635.897,285L615.385,267L594.872,267L574.359,63L553.846,204L533.333,231L512.821,270L492.308,195L471.795,216L451.282,210L430.769,261L410.256,60L389.744,48L369.231,219L348.718,273L328.205,258L307.692,240L287.179,204L266.667,15L246.154,165L225.641,102L205.128,261L184.615,282L164.103,297L143.59,264L123.077,300L102.564,300L82.051,300L61.538,297L41.026,300L20.513,300L0,300Z" fill="#b279a2"/></g></g><path class="foreground" aria-hidden="true" d="" display="none"/></g><g transform="translate(0,0)"><path class="background" aria-hidden="true" d="M0,0h800v300h-800Z"/><g><g class="mark-area role-mark marks" role="graphics-object" aria-roledescription="area mark container"><path aria-label="Date: Mar 16, 2026; Unique Clones/day: 0; Repository: karlmdavis/ansible-role-rcm-dotfiles" role="graphics-symbol" aria-roledescription="area mark" d="M0,300L20.513,300L41.026,300L61.538,297L82.051,300L102.564,300L123.077,300L143.59,264L164.103,297L184.615,282L205.128,261L225.641,102L246.154,165L266.667,15L287.179,204L307.692,240L328.205,258L348.718,273L369.231,219L389.744,48L410.256,60L430.769,261L451.282,210L471.795,216L492.308,195L512.821,270L533.333,231L553.846,204L574.359,63L594.872,267L615.385,267L635.897,285L656.41,282L676.923,291L697.436,237L717.949,102L738.462,213L758.974,219L779.487,165L800,270L800,270L779.487,168L758.974,219L738.462,213L717.949,105L697.436,237L676.923,291L656.41,282L635.897,285L615.385,270L594.872,267L574.359,72L553.846,207L533.333,231L512.821,270L492.308,198L471.795,216L451.282,210L430.769,261L410.256,60L389.744,51L369.231,219L348.718,273L328.205,258L307.692,240L287.179,207L266.667,18L246.154,165L225.641,108L205.128,261L184.615,282L164.103,297L143.59,264L123.077,300L102.564,300L82.051,300L61.538,297L41.026,300L20.513,300L0,300Z" fill="#ff9da6"/></g></g><path class="foreground" aria-hidden="true" d="" display="none"/></g><g transform="translate(0,0)"><path class="background" aria-hidden="true" d="M0,0h800v300h-800Z"/><g><g class="mark-area role-mark marks" role="graphics-object" aria-roledescription="area mark container"><path aria-label="Date: Mar 16, 2026; Unique Clones/day: 0; Repository: karlmdavis/ansible-roles" role="graphics-symbol" aria-roledescription="area mark" d="M0,300L20.513,300L41.026,300L61.538,297L82.051,300L102.564,300L123.077,300L143.59,264L164.103,297L184.615,282L205.128,261L225.641,108L246.154,165L266.667,18L287.179,207L307.692,240L328.205,258L348.718,273L369.231,219L389.744,51L410.256,60L430.769,261L451.282,210L471.795,216L492.308,198L512.821,270L533.333,231L553.846,207L574.359,72L594.872,267L615.385,270L635.897,285L656.41,282L676.923,291L697.436,237L717.949,105L738.462,213L758.974,219L779.487,168L800,270L800,270L779.487,168L758.974,219L738.462,213L717.949,105L697.436,237L676.923,291L656.41,282L635.897,285L615.385,270L594.872,267L574.359,72L553.846,207L533.333,234L512.821,270L492.308,198L471.795,216L451.282,210L430.769,261L410.256,60L389.744,51L369.231,219L348.718,273L328.205,258L307.692,240L287.179,210L266.667,18L246.154,165L225.641,108L205.128,264L184.615,282L164.103,297L143.59,264L123.077,300L102.564,300L82.051,300L61.538,297L41.026,300L20.513,300L0,300Z" fill="#9d755d"/></g></g><path class="foreground" aria-hidden="true" d="" display="none"/></g><g transform="translate(0,0)"><path class="background" aria-hidden="true" d="M0,0h800v300h-800Z"/><g><g class="mark-area role-mark marks" role="graphics-object" aria-roledescription="area mark container"><path aria-label="Date: Mar 16, 2026; Unique Clones/day: 0; Repository: karlmdavis/bbonfhir-dev-infra-docker" role="graphics-symbol" aria-roledescription="area mark" d="M0,300L20.513,300L41.026,300L61.538,297L82.051,300L102.564,300L123.077,300L143.59,264L164.103,297L184.615,282L205.128,264L225.641,108L246.154,165L266.667,18L287.179,210L307.692,240L328.205,258L348.718,273L369.231,219L389.744,51L410.256,60L430.769,261L451.282,210L471.795,216L492.308,198L512.821,270L533.333,234L553.846,207L574.359,72L594.872,267L615.385,270L635.897,285L656.41,282L676.923,291L697.436,237L717.949,105L738.462,213L758.974,219L779.487,168L800,270L800,273L779.487,171L758.974,222L738.462,213L717.949,108L697.436,237L676.923,291L656.41,282L635.897,285L615.385,270L594.872,267L574.359,81L553.846,210L533.333,234L512.821,270L492.308,201L471.795,216L451.282,210L430.769,261L410.256,60L389.744,54L369.231,219L348.718,273L328.205,258L307.692,240L287.179,213L266.667,18L246.154,165L225.641,111L205.128,264L184.615,285L164.103,297L143.59,264L123.077,300L102.564,300L82.051,300L61.538,297L41.026,300L20.513,300L0,300Z" fill="#bab0ac"/></g></g><path class="foreground" aria-hidden="true" d="" display="none"/></g><g transform="translate(0,0)"><path class="background" aria-hidden="true" d="M0,0h800v300h-800Z"/><g><g class="mark-area role-mark marks" role="graphics-object" aria-roledescription="area mark container"><path aria-label="Date: Mar 16, 2026; Unique Clones/day: 0; Repository: karlmdavis/can-i-kayak-baltimore" role="graphics-symbol" aria-roledescription="area mark" d="M0,300L20.513,300L41.026,300L61.538,297L82.051,300L102.564,300L123.077,300L143.59,264L164.103,297L184.615,285L205.128,264L225.641,111L246.154,165L266.667,18L287.179,213L307.692,240L328.205,258L348.718,273L369.231,219L389.744,54L410.256,60L430.769,261L451.282,210L471.795,216L492.308,201L512.821,270L533.333,234L553.846,210L574.359,81L594.872,267L615.385,270L635.897,285L656.41,282L676.923,291L697.436,237L717.949,108L738.462,213L758.974,222L779.487,171L800,273L800,273L779.487,174L758.974,222L738.462,213L717.949,111L697.436,237L676.923,291L656.41,282L635.897,285L615.385,270L594.872,267L574.359,87L553.846,213L533.333,234L512.821,270L492.308,204L471.795,216L451.282,210L430.769,261L410.256,60L389.744,57L369.231,219L348.718,273L328.205,261L307.692,240L287.179,213L266.667,18L246.154,165L225.641,120L205.128,264L184.615,285L164.103,297L143.59,264L123.077,300L102.564,300L82.051,300L61.538,297L41.026,300L20.513,300L0,300Z" fill="#4c78a8"/></g></g><path class="foreground" aria-hidden="true" d="" display="none"/></g><g transform="translate(0,0)"><path class="background" aria-hidden="true" d="M0,0h800v300h-800Z"/><g><g class="mark-area role-mark marks" role="graphics-object" aria-roledescription="area mark container"><path aria-label="Date: Mar 16, 2026; Unique Clones/day: 0; Repository: karlmdavis/datanucleus-test-jdo-1-to-n" role="graphics-symbol" aria-roledescription="area mark" d="M0,300L20.513,300L41.026,300L61.538,297L82.051,300L102.564,300L123.077,300L143.59,264L164.103,297L184.615,285L205.128,264L225.641,120L246.154,165L266.667,18L287.179,213L307.692,240L328.205,261L348.718,273L369.231,219L389.744,57L410.256,60L430.769,261L451.282,210L471.795,216L492.308,204L512.821,270L533.333,234L553.846,213L574.359,87L594.872,267L615.385,270L635.897,285L656.41,282L676.923,291L697.436,237L717.949,111L738.462,213L758.974,222L779.487,174L800,273L800,273L779.487,174L758.974,222L738.462,213L717.949,111L697.436,237L676.923,291L656.41,285L635.897,285L615.385,270L594.872,270L574.359,87L553.846,213L533.333,234L512.821,270L492.308,204L471.795,216L451.282,210L430.769,261L410.256,60L389.744,57L369.231,219L348.718,273L328.205,261L307.692,240L287.179,213L266.667,18L246.154,168L225.641,120L205.128,264L184.615,285L164.103,297L143.59,264L123.077,300L102.564,300L82.051,300L61.538,297L41.026,300L20.513,300L0,300Z" fill="#f58518"/></g></g><path class="foreground" aria-hidden="true" d="" display="none"/></g><g transform="translate(0,0)"><path class="background" aria-hidden="true" d="M0,0h800v300h-800Z"/><g><g class="mark-area role-mark marks" role="graphics-object" aria-roledescription="area mark container"><path aria-label="Date: Mar 16, 2026; Unique Clones/day: 0; Repository: karlmdavis/dotfiles" role="graphics-symbol" aria-roledescription="area mark" d="M0,300L20.513,300L41.026,300L61.538,297L82.051,300L102.564,300L123.077,300L143.59,264L164.103,297L184.615,285L205.128,264L225.641,120L246.154,168L266.667,18L287.179,213L307.692,240L328.205,261L348.718,273L369.231,219L389.744,57L410.256,60L430.769,261L451.282,210L471.795,216L492.308,204L512.821,270L533.333,234L553.846,213L574.359,87L594.872,270L615.385,270L635.897,285L656.41,285L676.923,291L697.436,237L717.949,111L738.462,213L758.974,222L779.487,174L800,273L800,276L779.487,183L758.974,249L738.462,216L717.949,156L697.436,243L676.923,291L656.41,288L635.897,288L615.385,270L594.872,270L574.359,102L553.846,213L533.333,240L512.821,270L492.308,207L471.795,219L451.282,210L430.769,261L410.256,63L389.744,60L369.231,219L348.718,276L328.205,264L307.692,243L287.179,213L266.667,18L246.154,168L225.641,126L205.128,264L184.615,285L164.103,297L143.59,267L123.077,300L102.564,300L82.051,300L61.538,297L41.026,300L20.513,300L0,300Z" fill="#e45756"/></g></g><path class="foreground" aria-hidden="true" d="" display="none"/></g><g transform="translate(0,0)"><path class="background" aria-hidden="true" d="M0,0h800v300h-800Z"/><g><g class="mark-area role-mark marks" role="graphics-object" aria-roledescription="area mark container"><path aria-label="Date: Mar 16, 2026; Unique Clones/day: 0; Repository: karlmdavis/fhir-benchmarks" role="graphics-symbol" aria-roledescription="area mark" d="M0,300L20.513,300L41.026,300L61.538,297L82.051,300L102.564,300L123.077,300L143.59,267L164.103,297L184.615,285L205.128,264L225.641,126L246.154,168L266.667,18L287.179,213L307.692,243L328.205,264L348.718,276L369.231,219L389.744,60L410.256,63L430.769,261L451.282,210L471.795,219L492.308,207L512.821,270L533.333,240L553.846,213L574.359,102L594.872,270L615.385,270L635.897,288L656.41,288L676.923,291L697.436,243L717.949,156L738.462,216L758.974,249L779.487,183L800,276L800,276L779.487,186L758.974,249L738.462,219L717.949,159L697.436,243L676.923,294L656.41,291L635.897,288L615.385,273L594.872,279L574.359,117L553.846,213L533.333,246L512.821,270L492.308,213L471.795,240L451.282,213L430.769,261L410.256,66L389.744,63L369.231,222L348.718,276L328.205,267L307.692,249L287.179,216L266.667,21L246.154,168L225.641,132L205.128,264L184.615,288L164.103,297L143.59,270L123.077,300L102.564,300L82.051,300L61.538,297L41.026,300L20.513,300L0,300Z" fill="#72b7b2"/></g></g><path class="foreground" aria-hidden="true" d="" display="none"/></g><g transform="translate(0,0)"><path class="background" aria-hidden="true" d="M0,0h800v300h-800Z"/><g><g class="mark-area role-mark marks" role="graphics-object" aria-roledescription="area mark container"><path aria-label="Date: Mar 16, 2026; Unique Clones/day: 0; Repository: karlmdavis/hapi-fhir-jpaserver-starter" role="graphics-symbol" aria-roledescription="area mark" d="M0,300L20.513,300L41.026,300L61.538,297L82.051,300L102.564,300L123.077,300L143.59,270L164.103,297L184.615,288L205.128,264L225.641,132L246.154,168L266.667,21L287.179,216L307.692,249L328.205,267L348.718,276L369.231,222L389.744,63L410.256,66L430.769,261L451.282,213L471.795,240L492.308,213L512.821,270L533.333,246L553.846,213L574.359,117L594.872,279L615.385,273L635.897,288L656.41,291L676.923,294L697.436,243L717.949,159L738.462,219L758.974,249L779.487,186L800,276L800,279L779.487,189L758.974,249L738.462,219L717.949,159L697.436,243L676.923,294L656.41,291L635.897,288L615.385,273L594.872,279L574.359,120L553.846,213L533.333,246L512.821,270L492.308,213L471.795,240L451.282,213L430.769,261L410.256,66L389.744,63L369.231,225L348.718,279L328.205,267L307.692,249L287.179,216L266.667,21L246.154,168L225.641,132L205.128,267L184.615,288L164.103,297L143.59,270L123.077,300L102.564,300L82.051,300L61.538,297L41.026,300L20.513,300L0,300Z" fill="#54a24b"/></g></g><path class="foreground" aria-hidden="true" d="" display="none"/></g><g transform="translate(0,0)"><path class="background" aria-hidden="true" d="M0,0h800v300h-800Z"/><g><g class="mark-area role-mark marks" role="graphics-object" aria-roledescription="area mark container"><path aria-label="Date: Mar 16, 2026; Unique Clones/day: 0; Repository: karlmdavis/hello-rust-actix" role="graphics-symbol" aria-roledescription="area mark" d="M0,300L20.513,300L41.026,300L61.538,297L82.051,300L102.564,300L123.077,300L143.59,270L164.103,297L184.615,288L205.128,267L225.641,132L246.154,168L266.667,21L287.179,216L307.692,249L328.205,267L348.718,279L369.231,225L389.744,63L410.256,66L430.769,261L451.282,213L471.795,240L492.308,213L512.821,270L533.333,246L553.846,213L574.359,120L594.872,279L615.385,273L635.897,288L656.41,291L676.923,294L697.436,243L717.949,159L738.462,219L758.974,249L779.487,189L800,279L800,279L779.487,192L758.974,249L738.462,219L717.949,162L697.436,243L676.923,294L656.41,291L635.897,288L615.385,273L594.872,279L574.359,126L553.846,216L533.333,246L512.821,270L492.308,216L471.795,240L451.282,213L430.769,261L410.256,66L389.744,66L369.231,225L348.718,279L328.205,267L307.692,252L287.179,216L266.667,21L246.154,168L225.641,135L205.128,267L184.615,288L164.103,297L143.59,270L123.077,300L102.564,300L82.051,300L61.538,297L41.026,300L20.513,300L0,300Z" fill="#eeca3b"/></g></g><path class="foreground" aria-hidden="true" d="" display="none"/></g><g transform="translate(0,0)"><path class="background" aria-hidden="true" d="M0,0h800v300h-800Z"/><g><g class="mark-area role-mark marks" role="graphics-object" aria-roledescription="area mark container"><path aria-label="Date: Mar 16, 2026; Unique Clones/day: 0; Repository: karlmdavis/jessentials" role="graphics-symbol" aria-roledescription="area mark" d="M0,300L20.513,300L41.026,300L61.538,297L82.051,300L102.564,300L123.077,300L143.59,270L164.103,297L184.615,288L205.128,267L225.641,135L246.154,168L266.667,21L287.179,216L307.692,252L328.205,267L348.718,279L369.231,225L389.744,66L410.256,66L430.769,261L451.282,213L471.795,240L492.308,216L512.821,270L533.333,246L553.846,216L574.359,126L594.872,279L615.385,273L635.897,288L656.41,291L676.923,294L697.436,243L717.949,162L738.462,219L758.974,249L779.487,192L800,279L800,279L779.487,195L758.974,252L738.462,219L717.949,165L697.436,246L676.923,294L656.41,291L635.897,288L615.385,273L594.872,279L574.359,132L553.846,216L533.333,249L512.821,270L492.308,222L471.795,264L451.282,213L430.769,261L410.256,66L389.744,69L369.231,225L348.718,279L328.205,267L307.692,252L287.179,219L266.667,21L246.154,168L225.641,138L205.128,267L184.615,288L164.103,297L143.59,273L123.077,300L102.564,300L82.051,300L61.538,297L41.026,300L20.513,300L0,300Z" fill="#b279a2"/></g></g><path class="foreground" aria-hidden="true" d="" display="none"/></g><g transform="translate(0,0)"><path class="background" aria-hidden="true" d="M0,0h800v300h-800Z"/><g><g class="mark-area role-mark marks" role="graphics-object" aria-roledescription="area mark container"><path aria-label="Date: Mar 16, 2026; Unique Clones/day: 0; Repository: karlmdavis/justdavis-ansible" role="graphics-symbol" aria-roledescription="area mark" d="M0,300L20.513,300L41.026,300L61.538,297L82.051,300L102.564,300L123.077,300L143.59,273L164.103,297L184.615,288L205.128,267L225.641,138L246.154,168L266.667,21L287.179,219L307.692,252L328.205,267L348.718,279L369.231,225L389.744,69L410.256,66L430.769,261L451.282,213L471.795,264L492.308,222L512.821,270L533.333,249L553.846,216L574.359,132L594.872,279L615.385,273L635.897,288L656.41,291L676.923,294L697.436,246L717.949,165L738.462,219L758.974,252L779.487,195L800,279L800,282L779.487,201L758.974,267L738.462,237L717.949,168L697.436,258L676.923,294L656.41,291L635.897,288L615.385,273L594.872,279L574.359,141L553.846,228L533.333,249L512.821,273L492.308,225L471.795,264L451.282,213L430.769,261L410.256,66L389.744,72L369.231,225L348.718,279L328.205,270L307.692,252L287.179,219L266.667,21L246.154,171L225.641,141L205.128,267L184.615,291L164.103,297L143.59,273L123.077,300L102.564,300L82.051,300L61.538,297L41.026,300L20.513,300L0,300Z" fill="#ff9da6"/></g></g><path class="foreground" aria-hidden="true" d="" display="none"/></g><g transform="translate(0,0)"><path class="background" aria-hidden="true" d="M0,0h800v300h-800Z"/><g><g class="mark-area role-mark marks" role="graphics-object" aria-roledescription="area mark container"><path aria-label="Date: Mar 16, 2026; Unique Clones/day: 0; Repository: karlmdavis/justdavis-finances" role="graphics-symbol" aria-roledescription="area mark" d="M0,300L20.513,300L41.026,300L61.538,297L82.051,300L102.564,300L123.077,300L143.59,273L164.103,297L184.615,291L205.128,267L225.641,141L246.154,171L266.667,21L287.179,219L307.692,252L328.205,270L348.718,279L369.231,225L389.744,72L410.256,66L430.769,261L451.282,213L471.795,264L492.308,225L512.821,273L533.333,249L553.846,228L574.359,141L594.872,279L615.385,273L635.897,288L656.41,291L676.923,294L697.436,258L717.949,168L738.462,237L758.974,267L779.487,201L800,282L800,285L779.487,237L758.974,294L738.462,285L717.949,243L697.436,288L676.923,294L656.41,291L635.897,288L615.385,276L594.872,285L574.359,186L553.846,279L533.333,255L512.821,273L492.308,228L471.795,267L451.282,264L430.769,285L410.256,291L389.744,243L369.231,285L348.718,282L328.205,273L307.692,255L287.179,264L266.667,276L246.154,282L225.641,234L205.128,270L184.615,294L164.103,297L143.59,273L123.077,300L102.564,300L82.051,300L61.538,297L41.026,300L20.513,300L0,300Z" fill="#9d755d"/></g></g><path class="foreground" aria-hidden="true" d="" display="none"/></g><g transform="translate(0,0)"><path class="background" aria-hidden="true" d="M0,0h800v300h-800Z"/><g><g class="mark-area role-mark marks" role="graphics-object" aria-roledescription="area mark container"><path aria-label="Date: Mar 16, 2026; Unique Clones/day: 0; Repository: karlmdavis/justdavis-karl" role="graphics-symbol" aria-roledescription="area mark" d="M0,300L20.513,300L41.026,300L61.538,297L82.051,300L102.564,300L123.077,300L143.59,273L164.103,297L184.615,294L205.128,270L225.641,234L246.154,282L266.667,276L287.179,264L307.692,255L328.205,273L348.718,282L369.231,285L389.744,243L410.256,291L430.769,285L451.282,264L471.795,267L492.308,228L512.821,273L533.333,255L553.846,279L574.359,186L594.872,285L615.385,276L635.897,288L656.41,291L676.923,294L697.436,288L717.949,243L738.462,285L758.974,294L779.487,237L800,285L800,285L779.487,240L758.974,294L738.462,285L717.949,246L697.436,288L676.923,294L656.41,291L635.897,288L615.385,276L594.872,285L574.359,195L553.846,282L533.333,258L512.821,273L492.308,234L471.795,267L451.282,264L430.769,288L410.256,291L389.744,246L369.231,285L348.718,285L328.205,273L307.692,258L287.179,267L266.667,276L246.154,285L225.641,237L205.128,270L184.615,294L164.103,297L143.59,276L123.077,300L102.564,300L82.051,300L61.538,297L41.026,300L20.513,300L0,300Z" fill="#bab0ac"/></g></g><path class="foreground" aria-hidden="true" d="" display="none"/></g><g transform="translate(0,0)"><path class="background" aria-hidden="true" d="M0,0h800v300h-800Z"/><g><g class="mark-area role-mark marks" role="graphics-object" aria-roledescription="area mark container"><path aria-label="Date: Mar 16, 2026; Unique Clones/day: 0; Repository: karlmdavis/justdavis-puppet" role="graphics-symbol" aria-roledescription="area mark" d="M0,300L20.513,300L41.026,300L61.538,297L82.051,300L102.564,300L123.077,300L143.59,276L164.103,297L184.615,294L205.128,270L225.641,237L246.154,285L266.667,276L287.179,267L307.692,258L328.205,273L348.718,285L369.231,285L389.744,246L410.256,291L430.769,288L451.282,264L471.795,267L492.308,234L512.821,273L533.333,258L553.846,282L574.359,195L594.872,285L615.385,276L635.897,288L656.41,291L676.923,294L697.436,288L717.949,246L738.462,285L758.974,294L779.487,240L800,285L800,285L779.487,243L758.974,294L738.462,285L717.949,249L697.436,288L676.923,294L656.41,291L635.897,288L615.385,276L594.872,285L574.359,201L553.846,285L533.333,261L512.821,273L492.308,237L471.795,270L451.282,264L430.769,288L410.256,291L389.744,249L369.231,285L348.718,285L328.205,273L307.692,264L287.179,270L266.667,276L246.154,285L225.641,240L205.128,270L184.615,294L164.103,297L143.59,276L123.077,300L102.564,300L82.051,300L61.538,297L41.026,300L20.513,300L0,300Z" fill="#4c78a8"/></g></g><path class="foreground" aria-hidden="true" d="" display="none"/></g><g transform="translate(0,0)"><path class="background" aria-hidden="true" d="M0,0h800v300h-800Z"/><g><g class="mark-area role-mark marks" role="graphics-object" aria-roledescription="area mark container"><path aria-label="Date: Mar 16, 2026; Unique Clones/day: 0; Repository: karlmdavis/kobjects" role="graphics-symbol" aria-roledescription="area mark" d="M0,300L20.513,300L41.026,300L61.538,297L82.051,300L102.564,300L123.077,300L143.59,276L164.103,297L184.615,294L205.128,270L225.641,240L246.154,285L266.667,276L287.179,270L307.692,264L328.205,273L348.718,285L369.231,285L389.744,249L410.256,291L430.769,288L451.282,264L471.795,270L492.308,237L512.821,273L533.333,261L553.846,285L574.359,201L594.872,285L615.385,276L635.897,288L656.41,291L676.923,294L697.436,288L717.949,249L738.462,285L758.974,294L779.487,243L800,285L800,285L779.487,246L758.974,294L738.462,285L717.949,252L697.436,288L676.923,294L656.41,291L635.897,288L615.385,276L594.872,285L574.359,207L553.846,285L533.333,264L512.821,273L492.308,243L471.795,270L451.282,264L430.769,288L410.256,291L389.744,252L369.231,285L348.718,285L328.205,273L307.692,264L287.179,270L266.667,276L246.154,285L225.641,243L205.128,273L184.615,294L164.103,297L143.59,276L123.077,300L102.564,300L82.051,300L61.538,297L41.026,300L20.513,300L0,300Z" fill="#f58518"/></g></g><path class="foreground" aria-hidden="true" d="" display="none"/></g><g transform="translate(0,0)"><path class="background" aria-hidden="true" d="M0,0h800v300h-800Z"/><g><g class="mark-area role-mark marks" role="graphics-object" aria-roledescription="area mark container"><path aria-label="Date: Mar 16, 2026; Unique Clones/day: 0; Repository: karlmdavis/ksoap2-android" role="graphics-symbol" aria-roledescription="area mark" d="M0,300L20.513,300L41.026,300L61.538,297L82.051,300L102.564,300L123.077,300L143.59,276L164.103,297L184.615,294L205.128,273L225.641,243L246.154,285L266.667,276L287.179,270L307.692,264L328.205,273L348.718,285L369.231,285L389.744,252L410.256,291L430.769,288L451.282,264L471.795,270L492.308,243L512.821,273L533.333,264L553.846,285L574.359,207L594.872,285L615.385,276L635.897,288L656.41,291L676.923,294L697.436,288L717.949,252L738.462,285L758.974,294L779.487,246L800,285L800,291L779.487,255L758.974,297L738.462,288L717.949,258L697.436,288L676.923,294L656.41,291L635.897,288L615.385,282L594.872,285L574.359,213L553.846,285L533.333,267L512.821,282L492.308,246L471.795,288L451.282,279L430.769,291L410.256,291L389.744,261L369.231,285L348.718,288L328.205,276L307.692,267L287.179,282L266.667,282L246.154,285L225.641,246L205.128,282L184.615,294L164.103,297L143.59,279L123.077,300L102.564,300L82.051,300L61.538,297L41.026,300L20.513,300L0,300Z" fill="#e45756"/></g></g><path class="foreground" aria-hidden="true" d="" display="none"/></g><g transform="translate(0,0)"><path class="background" aria-hidden="true" d="M0,0h800v300h-800Z"/><g><g class="mark-area role-mark marks" role="graphics-object" aria-roledescription="area mark container"><path aria-label="Date: Mar 16, 2026; Unique Clones/day: 0; Repository: karlmdavis/kxml2" role="graphics-symbol" aria-roledescription="area mark" d="M0,300L20.513,300L41.026,300L61.538,297L82.051,300L102.564,300L123.077,300L143.59,279L164.103,297L184.615,294L205.128,282L225.641,246L246.154,285L266.667,282L287.179,282L307.692,267L328.205,276L348.718,288L369.231,285L389.744,261L410.256,291L430.769,291L451.282,279L471.795,288L492.308,246L512.821,282L533.333,267L553.846,285L574.359,213L594.872,285L615.385,282L635.897,288L656.41,291L676.923,294L697.436,288L717.949,258L738.462,288L758.974,297L779.487,255L800,291L800,291L779.487,261L758.974,297L738.462,291L717.949,264L697.436,291L676.923,294L656.41,291L635.897,291L615.385,285L594.872,288L574.359,222L553.846,285L533.333,267L512.821,282L492.308,249L471.795,288L451.282,282L430.769,294L410.256,294L389.744,264L369.231,285L348.718,288L328.205,276L307.692,270L287.179,291L266.667,285L246.154,285L225.641,252L205.128,285L184.615,294L164.103,297L143.59,282L123.077,300L102.564,300L82.051,300L61.538,297L41.026,300L20.513,300L0,300Z" fill="#72b7b2"/></g></g><path class="foreground" aria-hidden="true" d="" display="none"/></g><g transform="translate(0,0)"><path class="background" aria-hidden="true" d="M0,0h800v300h-800Z"/><g><g class="mark-area role-mark marks" role="graphics-object" aria-roledescription="area mark container"><path aria-label="Date: Mar 16, 2026; Unique Clones/day: 0; Repository: karlmdavis/ldap-plugin" role="graphics-symbol" aria-roledescription="area mark" d="M0,300L20.513,300L41.026,300L61.538,297L82.051,300L102.564,300L123.077,300L143.59,282L164.103,297L184.615,294L205.128,285L225.641,252L246.154,285L266.667,285L287.179,291L307.692,270L328.205,276L348.718,288L369.231,285L389.744,264L410.256,294L430.769,294L451.282,282L471.795,288L492.308,249L512.821,282L533.333,267L553.846,285L574.359,222L594.872,288L615.385,285L635.897,291L656.41,291L676.923,294L697.436,291L717.949,264L738.462,291L758.974,297L779.487,261L800,291L800,291L779.487,261L758.974,297L738.462,291L717.949,264L697.436,291L676.923,294L656.41,291L635.897,291L615.385,285L594.872,288L574.359,222L553.846,285L533.333,267L512.821,282L492.308,249L471.795,288L451.282,282L430.769,294L410.256,294L389.744,264L369.231,288L348.718,291L328.205,276L307.692,270L287.179,291L266.667,285L246.154,285L225.641,252L205.128,285L184.615,294L164.103,297L143.59,282L123.077,300L102.564,300L82.051,300L61.538,297L41.026,300L20.513,300L0,300Z" fill="#54a24b"/></g></g><path class="foreground" aria-hidden="true" d="" display="none"/></g><g transform="translate(0,0)"><path class="background" aria-hidden="true" d="M0,0h800v300h-800Z"/><g><g class="mark-area role-mark marks" role="graphics-object" aria-roledescription="area mark container"><path aria-label="Date: Mar 16, 2026; Unique Clones/day: 0; Repository: karlmdavis/lego-ev3dev-rs" role="graphics-symbol" aria-roledescription="area mark" d="M0,300L20.513,300L41.026,300L61.538,297L82.051,300L102.564,300L123.077,300L143.59,282L164.103,297L184.615,294L205.128,285L225.641,252L246.154,285L266.667,285L287.179,291L307.692,270L328.205,276L348.718,291L369.231,288L389.744,264L410.256,294L430.769,294L451.282,282L471.795,288L492.308,249L512.821,282L533.333,267L553.846,285L574.359,222L594.872,288L615.385,285L635.897,291L656.41,291L676.923,294L697.436,291L717.949,264L738.462,291L758.974,297L779.487,261L800,291L800,291L779.487,264L758.974,297L738.462,294L717.949,267L697.436,291L676.923,297L656.41,294L635.897,291L615.385,288L594.872,288L574.359,231L553.846,285L533.333,273L512.821,282L492.308,255L471.795,288L451.282,285L430.769,294L410.256,297L389.744,267L369.231,291L348.718,291L328.205,279L307.692,276L287.179,291L266.667,288L246.154,288L225.641,261L205.128,285L184.615,297L164.103,297L143.59,285L123.077,300L102.564,300L82.051,300L61.538,297L41.026,300L20.513,300L0,300Z" fill="#eeca3b"/></g></g><path class="foreground" aria-hidden="true" d="" display="none"/></g><g transform="translate(0,0)"><path class="background" aria-hidden="true" d="M0,0h800v300h-800Z"/><g><g class="mark-area role-mark marks" role="graphics-object" aria-roledescription="area mark container"><path aria-label="Date: Mar 16, 2026; Unique Clones/day: 0; Repository: karlmdavis/liquibase" role="graphics-symbol" aria-roledescription="area mark" d="M0,300L20.513,300L41.026,300L61.538,297L82.051,300L102.564,300L123.077,300L143.59,285L164.103,297L184.615,297L205.128,285L225.641,261L246.154,288L266.667,288L287.179,291L307.692,276L328.205,279L348.718,291L369.231,291L389.744,267L410.256,297L430.769,294L451.282,285L471.795,288L492.308,255L512.821,282L533.333,273L553.846,285L574.359,231L594.872,288L615.385,288L635.897,291L656.41,294L676.923,297L697.436,291L717.949,267L738.462,294L758.974,297L779.487,264L800,291L800,291L779.487,264L758.974,297L738.462,294L717.949,267L697.436,291L676.923,297L656.41,294L635.897,291L615.385,288L594.872,288L574.359,231L553.846,285L533.333,273L512.821,285L492.308,258L471.795,288L451.282,285L430.769,294L410.256,297L389.744,267L369.231,291L348.718,291L328.205,279L307.692,276L287.179,291L266.667,288L246.154,288L225.641,261L205.128,285L184.615,297L164.103,297L143.59,285L123.077,300L102.564,300L82.051,300L61.538,300L41.026,300L20.513,300L0,300Z" fill="#b279a2"/></g></g><path class="foreground" aria-hidden="true" d="" display="none"/></g><g transform="translate(0,0)"><path class="background" aria-hidden="true" d="M0,0h800v300h-800Z"/><g><g class="mark-area role-mark marks" role="graphics-object" aria-roledescription="area mark container"><path aria-label="Date: Mar 16, 2026; Unique Clones/day: 0; Repository: karlmdavis/m2e-core" role="graphics-symbol" aria-roledescription="area mark" d="M0,300L20.513,300L41.026,300L61.538,300L82.051,300L102.564,300L123.077,300L143.59,285L164.103,297L184.615,297L205.128,285L225.641,261L246.154,288L266.667,288L287.179,291L307.692,276L328.205,279L348.718,291L369.231,291L389.744,267L410.256,297L430.769,294L451.282,285L471.795,288L492.308,258L512.821,285L533.333,273L553.846,285L574.359,231L594.872,288L615.385,288L635.897,291L656.41,294L676.923,297L697.436,291L717.949,267L738.462,294L758.974,297L779.487,264L800,291L800,291L779.487,267L758.974,297L738.462,294L717.949,270L697.436,291L676.923,297L656.41,294L635.897,291L615.385,288L594.872,288L574.359,237L553.846,285L533.333,276L512.821,288L492.308,264L471.795,291L451.282,288L430.769,294L410.256,297L389.744,270L369.231,291L348.718,291L328.205,279L307.692,276L287.179,291L266.667,291L246.154,288L225.641,264L205.128,285L184.615,297L164.103,297L143.59,285L123.077,300L102.564,300L82.051,300L61.538,300L41.026,300L20.513,300L0,300Z" fill="#ff9da6"/></g></g><path class="foreground" aria-hidden="true" d="" display="none"/></g><g transform="translate(0,0)"><path class="background" aria-hidden="true" d="M0,0h800v300h-800Z"/><g><g class="mark-area role-mark marks" role="graphics-object" aria-roledescription="area mark container"><path aria-label="Date: Mar 16, 2026; Unique Clones/day: 0; Repository: karlmdavis/m2e-core-tests" role="graphics-symbol" aria-roledescription="area mark" d="M0,300L20.513,300L41.026,300L61.538,300L82.051,300L102.564,300L123.077,300L143.59,285L164.103,297L184.615,297L205.128,285L225.641,264L246.154,288L266.667,291L287.179,291L307.692,276L328.205,279L348.718,291L369.231,291L389.744,270L410.256,297L430.769,294L451.282,288L471.795,291L492.308,264L512.821,288L533.333,276L553.846,285L574.359,237L594.872,288L615.385,288L635.897,291L656.41,294L676.923,297L697.436,291L717.949,270L738.462,294L758.974,297L779.487,267L800,291L800,291L779.487,267L758.974,297L738.462,294L717.949,270L697.436,291L676.923,297L656.41,294L635.897,291L615.385,288L594.872,288L574.359,237L553.846,288L533.333,276L512.821,294L492.308,267L471.795,294L451.282,291L430.769,294L410.256,297L389.744,270L369.231,291L348.718,291L328.205,285L307.692,276L287.179,291L266.667,291L246.154,291L225.641,264L205.128,288L184.615,297L164.103,297L143.59,285L123.077,300L102.564,300L82.051,300L61.538,300L41.026,300L20.513,300L0,300Z" fill="#9d755d"/></g></g><path class="foreground" aria-hidden="true" d="" display="none"/></g><g transform="translate(0,0)"><path class="background" aria-hidden="true" d="M0,0h800v300h-800Z"/><g><g class="mark-area role-mark marks" role="graphics-object" aria-roledescription="area mark container"><path aria-label="Date: Mar 16, 2026; Unique Clones/day: 0; Repository: karlmdavis/obsidian-operator" role="graphics-symbol" aria-roledescription="area mark" d="M0,300L20.513,300L41.026,300L61.538,300L82.051,300L102.564,300L123.077,300L143.59,285L164.103,297L184.615,297L205.128,288L225.641,264L246.154,291L266.667,291L287.179,291L307.692,276L328.205,285L348.718,291L369.231,291L389.744,270L410.256,297L430.769,294L451.282,291L471.795,294L492.308,267L512.821,294L533.333,276L553.846,288L574.359,237L594.872,288L615.385,288L635.897,291L656.41,294L676.923,297L697.436,291L717.949,270L738.462,294L758.974,297L779.487,267L800,291L800,291L779.487,270L758.974,297L738.462,294L717.949,273L697.436,297L676.923,297L656.41,294L635.897,291L615.385,294L594.872,291L574.359,243L553.846,291L533.333,282L512.821,294L492.308,270L471.795,294L451.282,291L430.769,294L410.256,297L389.744,273L369.231,297L348.718,291L328.205,285L307.692,285L287.179,291L266.667,291L246.154,291L225.641,267L205.128,288L184.615,297L164.103,297L143.59,288L123.077,300L102.564,300L82.051,300L61.538,300L41.026,300L20.513,300L0,300Z" fill="#bab0ac"/></g></g><path class="foreground" aria-hidden="true" d="" display="none"/></g><g transform="translate(0,0)"><path class="background" aria-hidden="true" d="M0,0h800v300h-800Z"/><g><g class="mark-area role-mark marks" role="graphics-object" aria-roledescription="area mark container"><path aria-label="Date: Mar 16, 2026; Unique Clones/day: 0; Repository: karlmdavis/perfect-note" role="graphics-symbol" aria-roledescription="area mark" d="M0,300L20.513,300L41.026,300L61.538,300L82.051,300L102.564,300L123.077,300L143.59,288L164.103,297L184.615,297L205.128,288L225.641,267L246.154,291L266.667,291L287.179,291L307.692,285L328.205,285L348.718,291L369.231,297L389.744,273L410.256,297L430.769,294L451.282,291L471.795,294L492.308,270L512.821,294L533.333,282L553.846,291L574.359,243L594.872,291L615.385,294L635.897,291L656.41,294L676.923,297L697.436,297L717.949,273L738.462,294L758.974,297L779.487,270L800,291L800,291L779.487,273L758.974,297L738.462,294L717.949,276L697.436,297L676.923,297L656.41,294L635.897,291L615.385,294L594.872,294L574.359,249L553.846,291L533.333,282L512.821,294L492.308,273L471.795,294L451.282,291L430.769,294L410.256,297L389.744,276L369.231,297L348.718,291L328.205,285L307.692,285L287.179,291L266.667,291L246.154,294L225.641,270L205.128,291L184.615,297L164.103,297L143.59,288L123.077,300L102.564,300L82.051,300L61.538,300L41.026,300L20.513,300L0,300Z" fill="#4c78a8"/></g></g><path class="foreground" aria-hidden="true" d="" display="none"/></g><g transform="translate(0,0)"><path class="background" aria-hidden="true" d="M0,0h800v300h-800Z"/><g><g class="mark-area role-mark marks" role="graphics-object" aria-roledescription="area mark container"><path aria-label="Date: Mar 16, 2026; Unique Clones/day: 0; Repository: karlmdavis/puppet-archive" role="graphics-symbol" aria-roledescription="area mark" d="M0,300L20.513,300L41.026,300L61.538,300L82.051,300L102.564,300L123.077,300L143.59,288L164.103,297L184.615,297L205.128,291L225.641,270L246.154,294L266.667,291L287.179,291L307.692,285L328.205,285L348.718,291L369.231,297L389.744,276L410.256,297L430.769,294L451.282,291L471.795,294L492.308,273L512.821,294L533.333,282L553.846,291L574.359,249L594.872,294L615.385,294L635.897,291L656.41,294L676.923,297L697.436,297L717.949,276L738.462,294L758.974,297L779.487,273L800,291L800,291L779.487,273L758.974,297L738.462,294L717.949,276L697.436,297L676.923,297L656.41,294L635.897,291L615.385,294L594.872,294L574.359,249L553.846,291L533.333,285L512.821,294L492.308,276L471.795,294L451.282,291L430.769,294L410.256,297L389.744,276L369.231,297L348.718,291L328.205,285L307.692,285L287.179,291L266.667,291L246.154,294L225.641,270L205.128,291L184.615,297L164.103,297L143.59,291L123.077,300L102.564,300L82.051,300L61.538,300L41.026,300L20.513,300L0,300Z" fill="#f58518"/></g></g><path class="foreground" aria-hidden="true" d="" display="none"/></g><g transform="translate(0,0)"><path class="background" aria-hidden="true" d="M0,0h800v300h-800Z"/><g><g class="mark-area role-mark marks" role="graphics-object" aria-roledescription="area mark container"><path aria-label="Date: Mar 16, 2026; Unique Clones/day: 0; Repository: karlmdavis/puppet-sonar" role="graphics-symbol" aria-roledescription="area mark" d="M0,300L20.513,300L41.026,300L61.538,300L82.051,300L102.564,300L123.077,300L143.59,291L164.103,297L184.615,297L205.128,291L225.641,270L246.154,294L266.667,291L287.179,291L307.692,285L328.205,285L348.718,291L369.231,297L389.744,276L410.256,297L430.769,294L451.282,291L471.795,294L492.308,276L512.821,294L533.333,285L553.846,291L574.359,249L594.872,294L615.385,294L635.897,291L656.41,294L676.923,297L697.436,297L717.949,276L738.462,294L758.974,297L779.487,273L800,291L800,291L779.487,276L758.974,297L738.462,297L717.949,276L697.436,297L676.923,297L656.41,294L635.897,291L615.385,294L594.872,297L574.359,249L553.846,291L533.333,288L512.821,294L492.308,276L471.795,297L451.282,294L430.769,294L410.256,297L389.744,276L369.231,297L348.718,294L328.205,285L307.692,291L287.179,291L266.667,291L246.154,297L225.641,270L205.128,291L184.615,297L164.103,297L143.59,291L123.077,300L102.564,300L82.051,300L61.538,300L41.026,300L20.513,300L0,300Z" fill="#e45756"/></g></g><path class="foreground" aria-hidden="true" d="" display="none"/></g><g transform="translate(0,0)"><path class="background" aria-hidden="true" d="M0,0h800v300h-800Z"/><g><g class="mark-area role-mark marks" role="graphics-object" aria-roledescription="area mark container"><path aria-label="Date: Mar 16, 2026; Unique Clones/day: 0; Repository: karlmdavis/rps-tourney" role="graphics-symbol" aria-roledescription="area mark" d="M0,300L20.513,300L41.026,300L61.538,300L82.051,300L102.564,300L123.077,300L143.59,291L164.103,297L184.615,297L205.128,291L225.641,270L246.154,297L266.667,291L287.179,291L307.692,291L328.205,285L348.718,294L369.231,297L389.744,276L410.256,297L430.769,294L451.282,294L471.795,297L492.308,276L512.821,294L533.333,288L553.846,291L574.359,249L594.872,297L615.385,294L635.897,291L656.41,294L676.923,297L697.436,297L717.949,276L738.462,297L758.974,297L779.487,276L800,291L800,291L779.487,279L758.974,297L738.462,297L717.949,279L697.436,297L676.923,297L656.41,294L635.897,291L615.385,294L594.872,297L574.359,255L553.846,291L533.333,291L512.821,294L492.308,279L471.795,297L451.282,294L430.769,294L410.256,297L389.744,279L369.231,297L348.718,297L328.205,285L307.692,291L287.179,291L266.667,291L246.154,297L225.641,273L205.128,291L184.615,297L164.103,297L143.59,294L123.077,300L102.564,300L82.051,300L61.538,300L41.026,300L20.513,300L0,300Z" fill="#72b7b2"/></g></g><path class="foreground" aria-hidden="true" d="" display="none"/></g><g transform="translate(0,0)"><path class="background" aria-hidden="true" d="M0,0h800v300h-800Z"/><g><g class="mark-area role-mark marks" role="graphics-object" aria-roledescription="area mark container"><path aria-label="Date: Mar 16, 2026; Unique Clones/day: 0; Repository: karlmdavis/sample-maven-and-rcp" role="graphics-symbol" aria-roledescription="area mark" d="M0,300L20.513,300L41.026,300L61.538,300L82.051,300L102.564,300L123.077,300L143.59,294L164.103,297L184.615,297L205.128,291L225.641,273L246.154,297L266.667,291L287.179,291L307.692,291L328.205,285L348.718,297L369.231,297L389.744,279L410.256,297L430.769,294L451.282,294L471.795,297L492.308,279L512.821,294L533.333,291L553.846,291L574.359,255L594.872,297L615.385,294L635.897,291L656.41,294L676.923,297L697.436,297L717.949,279L738.462,297L758.974,297L779.487,279L800,291L800,291L779.487,282L758.974,297L738.462,297L717.949,282L697.436,297L676.923,297L656.41,294L635.897,291L615.385,294L594.872,297L574.359,261L553.846,291L533.333,291L512.821,294L492.308,282L471.795,297L451.282,294L430.769,294L410.256,297L389.744,282L369.231,297L348.718,297L328.205,288L307.692,291L287.179,291L266.667,291L246.154,297L225.641,276L205.128,291L184.615,297L164.103,297L143.59,294L123.077,300L102.564,300L82.051,300L61.538,300L41.026,300L20.513,300L0,300Z" fill="#54a24b"/></g></g><path class="foreground" aria-hidden="true" d="" display="none"/></g><g transform="translate(0,0)"><path class="background" aria-hidden="true" d="M0,0h800v300h-800Z"/><g><g class="mark-area role-mark marks" role="graphics-object" aria-roledescription="area mark container"><path aria-label="Date: Mar 16, 2026; Unique Clones/day: 0; Repository: karlmdavis/stockfighter-trades-solutions" role="graphics-symbol" aria-roledescription="area mark" d="M0,300L20.513,300L41.026,300L61.538,300L82.051,300L102.564,300L123.077,300L143.59,294L164.103,297L184.615,297L205.128,291L225.641,276L246.154,297L266.667,291L287.179,291L307.692,291L328.205,288L348.718,297L369.231,297L389.744,282L410.256,297L430.769,294L451.282,294L471.795,297L492.308,282L512.821,294L533.333,291L553.846,291L574.359,261L594.872,297L615.385,294L635.897,291L656.41,294L676.923,297L697.436,297L717.949,282L738.462,297L758.974,297L779.487,282L800,291L800,294L779.487,285L758.974,297L738.462,297L717.949,285L697.436,297L676.923,297L656.41,294L635.897,291L615.385,294L594.872,297L574.359,270L553.846,291L533.333,291L512.821,294L492.308,285L471.795,297L451.282,294L430.769,294L410.256,297L389.744,285L369.231,297L348.718,297L328.205,288L307.692,291L287.179,291L266.667,294L246.154,297L225.641,282L205.128,291L184.615,297L164.103,297L143.59,294L123.077,300L102.564,300L82.051,300L61.538,300L41.026,300L20.513,300L0,300Z" fill="#eeca3b"/></g></g><path class="foreground" aria-hidden="true" d="" display="none"/></g><g transform="translate(0,0)"><path class="background" aria-hidden="true" d="M0,0h800v300h-800Z"/><g><g class="mark-area role-mark marks" role="graphics-object" aria-roledescription="area mark container"><path aria-label="Date: Mar 16, 2026; Unique Clones/day: 0; Repository: karlmdavis/test-repo-for-move" role="graphics-symbol" aria-roledescription="area mark" d="M0,300L20.513,300L41.026,300L61.538,300L82.051,300L102.564,300L123.077,300L143.59,294L164.103,297L184.615,297L205.128,291L225.641,282L246.154,297L266.667,294L287.179,291L307.692,291L328.205,288L348.718,297L369.231,297L389.744,285L410.256,297L430.769,294L451.282,294L471.795,297L492.308,285L512.821,294L533.333,291L553.846,291L574.359,270L594.872,297L615.385,294L635.897,291L656.41,294L676.923,297L697.436,297L717.949,285L738.462,297L758.974,297L779.487,285L800,294L800,294L779.487,288L758.974,297L738.462,297L717.949,288L697.436,297L676.923,297L656.41,294L635.897,294L615.385,294L594.872,297L574.359,276L553.846,291L533.333,291L512.821,294L492.308,288L471.795,297L451.282,294L430.769,294L410.256,297L389.744,288L369.231,297L348.718,297L328.205,288L307.692,291L287.179,291L266.667,297L246.154,297L225.641,285L205.128,294L184.615,297L164.103,297L143.59,294L123.077,300L102.564,300L82.051,300L61.538,300L41.026,300L20.513,300L0,300Z" fill="#b279a2"/></g></g><path class="foreground" aria-hidden="true" d="" display="none"/></g><g transform="translate(0,0)"><path class="background" aria-hidden="true" d="M0,0h800v300h-800Z"/><g><g class="mark-area role-mark marks" role="graphics-object" aria-roledescription="area mark container"><path aria-label="Date: Mar 16, 2026; Unique Clones/day: 0; Repository: karlmdavis/todoist-ai" role="graphics-symbol" aria-roledescription="area mark" d="M0,300L20.513,300L41.026,300L61.538,300L82.051,300L102.564,300L123.077,300L143.59,294L164.103,297L184.615,297L205.128,294L225.641,285L246.154,297L266.667,297L287.179,291L307.692,291L328.205,288L348.718,297L369.231,297L389.744,288L410.256,297L430.769,294L451.282,294L471.795,297L492.308,288L512.821,294L533.333,291L553.846,291L574.359,276L594.872,297L615.385,294L635.897,294L656.41,294L676.923,297L697.436,297L717.949,288L738.462,297L758.974,297L779.487,288L800,294L800,294L779.487,288L758.974,297L738.462,297L717.949,288L697.436,297L676.923,297L656.41,294L635.897,294L615.385,297L594.872,297L574.359,276L553.846,291L533.333,294L512.821,294L492.308,288L471.795,297L451.282,294L430.769,294L410.256,297L389.744,288L369.231,297L348.718,297L328.205,294L307.692,291L287.179,291L266.667,297L246.154,297L225.641,285L205.128,294L184.615,297L164.103,297L143.59,294L123.077,300L102.564,300L82.051,300L61.538,300L41.026,300L20.513,300L0,300Z" fill="#ff9da6"/></g></g><path class="foreground" aria-hidden="true" d="" display="none"/></g><g transform="translate(0,0)"><path class="background" aria-hidden="true" d="M0,0h800v300h-800Z"/><g><g class="mark-area role-mark marks" role="graphics-object" aria-roledescription="area mark container"><path aria-label="Date: Mar 16, 2026; Unique Clones/day: 0; Repository: karlmdavis/usgs-water-api-java" role="graphics-symbol" aria-roledescription="area mark" d="M0,300L20.513,300L41.026,300L61.538,300L82.051,300L102.564,300L123.077,300L143.59,294L164.103,297L184.615,297L205.128,294L225.641,285L246.154,297L266.667,297L287.179,291L307.692,291L328.205,294L348.718,297L369.231,297L389.744,288L410.256,297L430.769,294L451.282,294L471.795,297L492.308,288L512.821,294L533.333,294L553.846,291L574.359,276L594.872,297L615.385,297L635.897,294L656.41,294L676.923,297L697.436,297L717.949,288L738.462,297L758.974,297L779.487,288L800,294L800,297L779.487,294L758.974,300L738.462,300L717.949,294L697.436,300L676.923,300L656.41,297L635.897,300L615.385,300L594.872,300L574.359,285L553.846,300L533.333,297L512.821,297L492.308,294L471.795,300L451.282,297L430.769,300L410.256,300L389.744,294L369.231,300L348.718,300L328.205,297L307.692,294L287.179,297L266.667,300L246.154,300L225.641,291L205.128,300L184.615,300L164.103,300L143.59,300L123.077,300L102.564,300L82.051,300L61.538,300L41.026,300L20.513,300L0,300Z" fill="#9d755d"/></g></g><path class="foreground" aria-hidden="true" d="" display="none"/></g><g transform="translate(0,0)"><path class="background" aria-hidden="true" d="M0,0h800v300h-800Z"/><g><g class="mark-area role-mark marks" role="graphics-object" aria-roledescription="area mark container"><path aria-label="Date: Mar 16, 2026; Unique Clones/day: 0; Repository: karlmdavis/workstation-base-ansible-role" role="graphics-symbol" aria-roledescription="area mark" d="M0,300L20.513,300L41.026,300L61.538,300L82.051,300L102.564,300L123.077,300L143.59,300L164.103,300L184.615,300L205.128,300L225.641,291L246.154,300L266.667,300L287.179,297L307.692,294L328.205,297L348.718,300L369.231,300L389.744,294L410.256,300L430.769,300L451.282,297L471.795,300L492.308,294L512.821,297L533.333,297L553.846,300L574.359,285L594.872,300L615.385,300L635.897,300L656.41,297L676.923,300L697.436,300L717.949,294L738.462,300L758.974,300L779.487,294L800,297L800,300L779.487,297L758.974,300L738.462,300L717.949,297L697.436,300L676.923,300L656.41,297L635.897,300L615.385,300L594.872,300L574.359,294L553.846,300L533.333,300L512.821,297L492.308,297L471.795,300L451.282,297L430.769,300L410.256,300L389.744,297L369.231,300L348.718,300L328.205,300L307.692,297L287.179,300L266.667,300L246.154,300L225.641,297L205.128,300L184.615,300L164.103,300L143.59,300L123.077,300L102.564,300L82.051,300L61.538,300L41.026,300L20.513,300L0,300Z" fill="#bab0ac"/></g></g><path class="foreground" aria-hidden="true" d="" display="none"/></g><g transform="translate(0,0)"><path class="background" aria-hidden="true" d="M0,0h800v300h-800Z"/><g><g class="mark-area role-mark marks" role="graphics-object" aria-roledescription="area mark container"><path aria-label="Date: Mar 16, 2026; Unique Clones/day: 0; Repository: karlmdavis/xmlpull" role="graphics-symbol" aria-roledescription="area mark" d="M0,300L20.513,300L41.026,300L61.538,300L82.051,300L102.564,300L123.077,300L143.59,300L164.103,300L184.615,300L205.128,300L225.641,297L246.154,300L266.667,300L287.179,300L307.692,297L328.205,300L348.718,300L369.231,300L389.744,297L410.256,300L430.769,300L451.282,297L471.795,300L492.308,297L512.821,297L533.333,300L553.846,300L574.359,294L594.872,300L615.385,300L635.897,300L656.41,297L676.923,300L697.436,300L717.949,297L738.462,300L758.974,300L779.487,297L800,300L800,300L779.487,300L758.974,300L738.462,300L717.949,300L697.436,300L676.923,300L656.41,300L635.897,300L615.385,300L594.872,300L574.359,300L553.846,300L533.333,300L512.821,300L492.308,300L471.795,300L451.282,300L430.769,300L410.256,300L389.744,300L369.231,300L348.718,300L328.205,300L307.692,300L287.179,300L266.667,300L246.154,300L225.641,300L205.128,300L184.615,300L164.103,300L143.59,300L123.077,300L102.564,300L82.051,300L61.538,300L41.026,300L20.513,300L0,300Z" fill="#4c78a8"/></g></g><path class="foreground" aria-hidden="true" d="" display="none"/></g></g><g class="mark-group role-legend" role="graphics-symbol" aria-roledescription="legend" aria-label="Symbol legend titled 'Repository' for fill color with 41 values: karlmdavis/FHIR-Server, karlmdavis/ansible, karlmdavis/ansible-jenkins, karlmdavis/ansible-role-acmetool, karlmdavis/ansible-role-bind-dns, ending with karlmdavis/xmlpull"><g transform="translate(818,0)"><path class="background" aria-hidden="true" d="M0,0h176v404h-176Z" pointer-events="none"/><g><g class="mark-group role-legend-entry"><g transform="translate(0,16)"><path class="background" aria-hidden="true" d="M0,0h0v0h0Z" pointer-events="none"/><g><g class="mark-group role-scope" role="graphics-object" aria-roledescription="group mark container"><g transform="translate(0,0)"><path class="background" aria-hidden="true" d="M0,0h176v11h-176Z" pointer-events="none" opacity="1"/><g><g class="mark-symbol role-legend-symbol" pointer-events="none"><path transform="translate(6,6)" d="M5,0A5,5,0,1,1,-5,0A5,5,0,1,1,5,0" fill="#4c78a8" stroke-width="1.5" opacity="1"/></g><g class="mark-text role-legend-label" pointer-events="none"><text text-anchor="start" transform="translate(16,9)" font-family="sans-serif" font-size="10px" fill="#000" opacity="1">karlmdavis/FHIR-Server</text></g></g><path class="foreground" aria-hidden="true" d="" pointer-events="none" display="none"/></g><g transform="translate(0,13)"><path class="background" aria-hidden="true" d="M0,0h176v11h-176Z" pointer-events="none" opacity="1"/><g><g class="mark-symbol role-legend-symbol" pointer-events="none"><path transform="translate(6,6)" d="M5,0A5,5,0,1,1,-5,0A5,5,0,1,1,5,0" fill="#f58518" stroke-width="1.5" opacity="1"/></g><g class="mark-text role-legend-label" pointer-events="none"><text text-anchor="start" transform="translate(16,9)" font-family="sans-serif" font-size="10px" fill="#000" opacity="1">karlmdavis/ansible</text></g></g><path class="foreground" aria-hidden="true" d="" pointer-events="none" display="none"/></g><g transform="translate(0,26)"><path class="background" aria-hidden="true" d="M0,0h176v11h-176Z" pointer-events="none" opacity="1"/><g><g class="mark-symbol role-legend-symbol" pointer-events="none"><path transform="translate(6,6)" d="M5,0A5,5,0,1,1,-5,0A5,5,0,1,1,5,0" fill="#e45756" stroke-width="1.5" opacity="1"/></g><g class="mark-text role-legend-label" pointer-events="none"><text text-anchor="start" transform="translate(16,9)" font-family="sans-serif" font-size="10px" fill="#000" opacity="1">karlmdavis/ansible-jenkins</text></g></g><path class="foreground" aria-hidden="true" d="" pointer-events="none" display="none"/></g><g transform="translate(0,39)"><path class="background" aria-hidden="true" d="M0,0h176v11h-176Z" pointer-events="none" opacity="1"/><g><g class="mark-symbol role-legend-symbol" pointer-events="none"><path transform="translate(6,6)" d="M5,0A5,5,0,1,1,-5,0A5,5,0,1,1,5,0" fill="#72b7b2" stroke-width="1.5" opacity="1"/></g><g class="mark-text role-legend-label" pointer-events="none"><text text-anchor="start" transform="translate(16,9)" font-family="sans-serif" font-size="10px" fill="#000" opacity="1">karlmdavis/ansible-role-acmetool</text></g></g><path class="foreground" aria-hidden="true" d="" pointer-events="none" display="none"/></g><g transform="translate(0,52)"><path class="background" aria-hidden="true" d="M0,0h176v11h-176Z" pointer-events="none" opacity="1"/><g><g class="mark-symbol role-legend-symbol" pointer-events="none"><path transform="translate(6,6)" d="M5,0A5,5,0,1,1,-5,0A5,5,0,1,1,5,0" fill="#54a24b" stroke-width="1.5" opacity="1"/></g><g class="mark-text role-legend-label" pointer-events="none"><text text-anchor="start" transform="translate(16,9)" font-family="sans-serif" font-size="10px" fill="#000" opacity="1">karlmdavis/ansible-role-bind-dns</text></g></g><path class="foreground" aria-hidden="true" d="" pointer-events="none" display="none"/></g><g transform="translate(0,65)"><path class="background" aria-hidden="true" d="M0,0h176v11h-176Z" pointer-events="none" opacity="1"/><g><g class="mark-symbol role-legend-symbol" pointer-events="none"><path transform="translate(6,6)" d="M5,0A5,5,0,1,1,-5,0A5,5,0,1,1,5,0" fill="#eeca3b" stroke-width="1.5" opacity="1"/></g><g class="mark-text role-legend-label" pointer-events="none"><text text-anchor="start" transform="translate(16,9)" font-family="sans-serif" font-size="10px" fill="#000" opacity="1">karlmdavis/ansible-role-jenkins2</text></g></g><path class="foreground" aria-hidden="true" d="" pointer-events="none" display="none"/></g><g transform="translate(0,78)"><path class="background" aria-hidden="true" d="M0,0h176v11h-176Z" pointer-events="none" opacity="1"/><g><g class="mark-symbol role-legend-symbol" pointer-events="none"><path transform="translate(6,6)" d="M5,0A5,5,0,1,1,-5,0A5,5,0,1,1,5,0" fill="#b279a2" stroke-width="1.5" opacity="1"/></g><g class="mark-text role-legend-label" pointer-events="none"><text text-anchor="start" transform="translate(16,9)" font-family="sans-serif" font-size="10px" fill="#000" opacity="1">karlmdavis/ansible-role-ldap</text></g></g><path class="foreground" aria-hidden="true" d="" pointer-events="none" display="none"/></g><g transform="translate(0,91)"><path class="background" aria-hidden="true" d="M0,0h176v11h-176Z" pointer-events="none" opacity="1"/><g><g class="mark-symbol role-legend-symbol" pointer-events="none"><path transform="translate(6,6)" d="M5,0A5,5,0,1,1,-5,0A5,5,0,1,1,5,0" fill="#ff9da6" stroke-width="1.5" opacity="1"/></g><g class="mark-text role-legend-label" pointer-events="none"><text text-anchor="start" transform="translate(16,9)" font-family="sans-serif" font-size="10px" fill="#000" opacity="1">karlmdavis/ansible-role-rcm-dotfiles</text></g></g><path class="foreground" aria-hidden="true" d="" pointer-events="none" display="none"/></g><g transform="translate(0,104)"><path class="background" aria-hidden="true" d="M0,0h176v11h-176Z" pointer-events="none" opacity="1"/><g><g class="mark-symbol role-legend-symbol" pointer-events="none"><path transform="translate(6,6)" d="M5,0A5,5,0,1,1,-5,0A5,5,0,1,1,5,0" fill="#9d755d" stroke-width="1.5" opacity="1"/></g><g class="mark-text role-legend-label" pointer-events="none"><text text-anchor="start" transform="translate(16,9)" font-family="sans-serif" font-size="10px" fill="#000" opacity="1">karlmdavis/ansible-roles</text></g></g><path class="foreground" aria-hidden="true" d="" pointer-events="none" display="none"/></g><g transform="translate(0,117)"><path class="background" aria-hidden="true" d="M0,0h176v11h-176Z" pointer-events="none" opacity="1"/><g><g class="mark-symbol role-legend-symbol" pointer-events="none"><path transform="translate(6,6)" d="M5,0A5,5,0,1,1,-5,0A5,5,0,1,1,5,0" fill="#bab0ac" stroke-width="1.5" opacity="1"/></g><g class="mark-text role-legend-label" pointer-events="none"><text text-anchor="start" transform="translate(16,9)" font-family="sans-serif" font-size="10px" fill="#000" opacity="1">karlmdavis/bbonfhir-dev-infra-doc…</text></g></g><path class="foreground" aria-hidden="true" d="" pointer-events="none" display="none"/></g><g transform="translate(0,130)"><path class="background" aria-hidden="true" d="M0,0h176v11h-176Z" pointer-events="none" opacity="1"/><g><g class="mark-symbol role-legend-symbol" pointer-events="none"><path transform="translate(6,6)" d="M5,0A5,5,0,1,1,-5,0A5,5,0,1,1,5,0" fill="#4c78a8" stroke-width="1.5" opacity="1"/></g><g class="mark-text role-legend-label" pointer-events="none"><text text-anchor="start" transform="translate(16,9)" font-family="sans-serif" font-size="10px" fill="#000" opacity="1">karlmdavis/can-i-kayak-baltimore</text></g></g><path class="foreground" aria-hidden="true" d="" pointer-events="none" display="none"/></g><g transform="translate(0,143)"><path class="background" aria-hidden="true" d="M0,0h176v11h-176Z" pointer-events="none" opacity="1"/><g><g class="mark-symbol role-legend-symbol" pointer-events="none"><path transform="translate(6,6)" d="M5,0A5,5,0,1,1,-5,0A5,5,0,1,1,5,0" fill="#f58518" stroke-width="1.5" opacity="1"/></g><g class="mark-text role-legend-label" pointer-events="none"><text text-anchor="start" transform="translate(16,9)" font-family="sans-serif" font-size="10px" fill="#000" opacity="1">karlmdavis/datanucleus-test-jdo-1…</text></g></g><path class="foreground" aria-hidden="true" d="" pointer-events="none" display="none"/></g><g transform="translate(0,156)"><path class="background" aria-hidden="true" d="M0,0h176v11h-176Z" pointer-events="none" opacity="1"/><g><g class="mark-symbol role-legend-symbol" pointer-events="none"><path transform="translate(6,6)" d="M5,0A5,5,0,1,1,-5,0A5,5,0,1,1,5,0" fill="#e45756" stroke-width="1.5" opacity="1"/></g><g class="mark-text role-legend-label" pointer-events="none"><text text-anchor="start" transform="translate(16,9)" font-family="sans-serif" font-size="10px" fill="#000" opacity="1">karlmdavis/dotfiles</text></g></g><path class="foreground" aria-hidden="true" d="" pointer-events="none" display="none"/></g><g transform="translate(0,169)"><path class="background" aria-hidden="true" d="M0,0h176v11h-176Z" pointer-events="none" opacity="1"/><g><g class="mark-symbol role-legend-symbol" pointer-events="none"><path transform="translate(6,6)" d="M5,0A5,5,0,1,1,-5,0A5,5,0,1,1,5,0" fill="#72b7b2" stroke-width="1.5" opacity="1"/></g><g class="mark-text role-legend-label" pointer-events="none"><text text-anchor="start" transform="translate(16,9)" font-family="sans-serif" font-size="10px" fill="#000" opacity="1">karlmdavis/fhir-benchmarks</text></g></g><path class="foreground" aria-hidden="true" d="" pointer-events="none" display="none"/></g><g transform="translate(0,182)"><path class="background" aria-hidden="true" d="M0,0h176v11h-176Z" pointer-events="none" opacity="1"/><g><g class="mark-symbol role-legend-symbol" pointer-events="none"><path transform="translate(6,6)" d="M5,0A5,5,0,1,1,-5,0A5,5,0,1,1,5,0" fill="#54a24b" stroke-width="1.5" opacity="1"/></g><g class="mark-text role-legend-label" pointer-events="none"><text text-anchor="start" transform="translate(16,9)" font-family="sans-serif" font-size="10px" fill="#000" opacity="1">karlmdavis/hapi-fhir-jpaserver-sta…</text></g></g><path class="foreground" aria-hidden="true" d="" pointer-events="none" display="none"/></g><g transform="translate(0,195)"><path class="background" aria-hidden="true" d="M0,0h176v11h-176Z" pointer-events="none" opacity="1"/><g><g class="mark-symbol role-legend-symbol" pointer-events="none"><path transform="translate(6,6)" d="M5,0A5,5,0,1,1,-5,0A5,5,0,1,1,5,0" fill="#eeca3b" stroke-width="1.5" opacity="1"/></g><g class="mark-text role-legend-label" pointer-events="none"><text text-anchor="start" transform="translate(16,9)" font-family="sans-serif" font-size="10px" fill="#000" opacity="1">karlmdavis/hello-rust-actix</text></g></g><path class="foreground" aria-hidden="true" d="" pointer-events="none" display="none"/></g><g transform="translate(0,208)"><path class="background" aria-hidden="true" d="M0,0h176v11h-176Z" pointer-events="none" opacity="1"/><g><g class="mark-symbol role-legend-symbol" pointer-events="none"><path transform="translate(6,6)" d="M5,0A5,5,0,1,1,-5,0A5,5,0,1,1,5,0" fill="#b279a2" stroke-width="1.5" opacity="1"/></g><g class="mark-text role-legend-label" pointer-events="none"><text text-anchor="start" transform="translate(16,9)" font-family="sans-serif" font-size="10px" fill="#000" opacity="1">karlmdavis/jessentials</text></g></g><path class="foreground" aria-hidden="true" d="" pointer-events="none" display="none"/></g><g transform="translate(0,221)"><path class="background" aria-hidden="true" d="M0,0h176v11h-176Z" pointer-events="none" opacity="1"/><g><g class="mark-symbol role-legend-symbol" pointer-events="none"><path transform="translate(6,6)" d="M5,0A5,5,0,1,1,-5,0A5,5,0,1,1,5,0" fill="#ff9da6" stroke-width="1.5" opacity="1"/></g><g class="mark-text role-legend-label" pointer-events="none"><text text-anchor="start" transform="translate(16,9)" font-family="sans-serif" font-size="10px" fill="#000" opacity="1">karlmdavis/justdavis-ansible</text></g></g><path class="foreground" aria-hidden="true" d="" pointer-events="none" display="none"/></g><g transform="translate(0,234)"><path class="background" aria-hidden="true" d="M0,0h176v11h-176Z" pointer-events="none" opacity="1"/><g><g class="mark-symbol role-legend-symbol" pointer-events="none"><path transform="translate(6,6)" d="M5,0A5,5,0,1,1,-5,0A5,5,0,1,1,5,0" fill="#9d755d" stroke-width="1.5" opacity="1"/></g><g class="mark-text role-legend-label" pointer-events="none"><text text-anchor="start" transform="translate(16,9)" font-family="sans-serif" font-size="10px" fill="#000" opacity="1">karlmdavis/justdavis-finances</text></g></g><path class="foreground" aria-hidden="true" d="" pointer-events="none" display="none"/></g><g transform="translate(0,247)"><path class="background" aria-hidden="true" d="M0,0h176v11h-176Z" pointer-events="none" opacity="1"/><g><g class="mark-symbol role-legend-symbol" pointer-events="none"><path transform="translate(6,6)" d="M5,0A5,5,0,1,1,-5,0A5,5,0,1,1,5,0" fill="#bab0ac" stroke-width="1.5" opacity="1"/></g><g class="mark-text role-legend-label" pointer-events="none"><text text-anchor="start" transform="translate(16,9)" font-family="sans-serif" font-size="10px" fill="#000" opacity="1">karlmdavis/justdavis-karl</text></g></g><path class="foreground" aria-hidden="true" d="" pointer-events="none" display="none"/></g><g transform="translate(0,260)"><path class="background" aria-hidden="true" d="M0,0h176v11h-176Z" pointer-events="none" opacity="1"/><g><g class="mark-symbol role-legend-symbol" pointer-events="none"><path transform="translate(6,6)" d="M5,0A5,5,0,1,1,-5,0A5,5,0,1,1,5,0" fill="#4c78a8" stroke-width="1.5" opacity="1"/></g><g class="mark-text role-legend-label" pointer-events="none"><text text-anchor="start" transform="translate(16,9)" font-family="sans-serif" font-size="10px" fill="#000" opacity="1">karlmdavis/justdavis-puppet</text></g></g><path class="foreground" aria-hidden="true" d="" pointer-events="none" display="none"/></g><g transform="translate(0,273)"><path class="background" aria-hidden="true" d="M0,0h176v11h-176Z" pointer-events="none" opacity="1"/><g><g class="mark-symbol role-legend-symbol" pointer-events="none"><path transform="translate(6,6)" d="M5,0A5,5,0,1,1,-5,0A5,5,0,1,1,5,0" fill="#f58518" stroke-width="1.5" opacity="1"/></g><g class="mark-text role-legend-label" pointer-events="none"><text text-anchor="start" transform="translate(16,9)" font-family="sans-serif" font-size="10px" fill="#000" opacity="1">karlmdavis/kobjects</text></g></g><path class="foreground" aria-hidden="true" d="" pointer-events="none" display="none"/></g><g transform="translate(0,286)"><path class="background" aria-hidden="true" d="M0,0h176v11h-176Z" pointer-events="none" opacity="1"/><g><g class="mark-symbol role-legend-symbol" pointer-events="none"><path transform="translate(6,6)" d="M5,0A5,5,0,1,1,-5,0A5,5,0,1,1,5,0" fill="#e45756" stroke-width="1.5" opacity="1"/></g><g class="mark-text role-legend-label" pointer-events="none"><text text-anchor="start" transform="translate(16,9)" font-family="sans-serif" font-size="10px" fill="#000" opacity="1">karlmdavis/ksoap2-android</text></g></g><path class="foreground" aria-hidden="true" d="" pointer-events="none" display="none"/></g><g transform="translate(0,299)"><path class="background" aria-hidden="true" d="M0,0h176v11h-176Z" pointer-events="none" opacity="1"/><g><g class="mark-symbol role-legend-symbol" pointer-events="none"><path transform="translate(6,6)" d="M5,0A5,5,0,1,1,-5,0A5,5,0,1,1,5,0" fill="#72b7b2" stroke-width="1.5" opacity="1"/></g><g class="mark-text role-legend-label" pointer-events="none"><text text-anchor="start" transform="translate(16,9)" font-family="sans-serif" font-size="10px" fill="#000" opacity="1">karlmdavis/kxml2</text></g></g><path class="foreground" aria-hidden="true" d="" pointer-events="none" display="none"/></g><g transform="translate(0,312)"><path class="background" aria-hidden="true" d="M0,0h176v11h-176Z" pointer-events="none" opacity="1"/><g><g class="mark-symbol role-legend-symbol" pointer-events="none"><path transform="translate(6,6)" d="M5,0A5,5,0,1,1,-5,0A5,5,0,1,1,5,0" fill="#54a24b" stroke-width="1.5" opacity="1"/></g><g class="mark-text role-legend-label" pointer-events="none"><text text-anchor="start" transform="translate(16,9)" font-family="sans-serif" font-size="10px" fill="#000" opacity="1">karlmdavis/ldap-plugin</text></g></g><path class="foreground" aria-hidden="true" d="" pointer-events="none" display="none"/></g><g transform="translate(0,325)"><path class="background" aria-hidden="true" d="M0,0h176v11h-176Z" pointer-events="none" opacity="1"/><g><g class="mark-symbol role-legend-symbol" pointer-events="none"><path transform="translate(6,6)" d="M5,0A5,5,0,1,1,-5,0A5,5,0,1,1,5,0" fill="#eeca3b" stroke-width="1.5" opacity="1"/></g><g class="mark-text role-legend-label" pointer-events="none"><text text-anchor="start" transform="translate(16,9)" font-family="sans-serif" font-size="10px" fill="#000" opacity="1">karlmdavis/lego-ev3dev-rs</text></g></g><path class="foreground" aria-hidden="true" d="" pointer-events="none" display="none"/></g><g transform="translate(0,338)"><path class="background" aria-hidden="true" d="M0,0h176v11h-176Z" pointer-events="none" opacity="1"/><g><g class="mark-symbol role-legend-symbol" pointer-events="none"><path transform="translate(6,6)" d="M5,0A5,5,0,1,1,-5,0A5,5,0,1,1,5,0" fill="#b279a2" stroke-width="1.5" opacity="1"/></g><g class="mark-text role-legend-label" pointer-events="none"><text text-anchor="start" transform="translate(16,9)" font-family="sans-serif" font-size="10px" fill="#000" opacity="1">karlmdavis/liquibase</text></g></g><path class="foreground" aria-hidden="true" d="" pointer-events="none" display="none"/></g><g transform="translate(0,351)"><path class="background" aria-hidden="true" d="M0,0h176v11h-176Z" pointer-events="none" opacity="1"/><g><g class="mark-symbol role-legend-symbol" pointer-events="none"><path transform="translate(6,6)" d="M5,0A5,5,0,1,1,-5,0A5,5,0,1,1,5,0" fill="#ff9da6" stroke-width="1.5" opacity="1"/></g><g class="mark-text role-legend-label" pointer-events="none"><text text-anchor="start" transform="translate(16,9)" font-family="sans-serif" font-size="10px" fill="#000" opacity="1">karlmdavis/m2e-core</text></g></g><path class="foreground" aria-hidden="true" d="" pointer-events="none" display="none"/></g><g transform="translate(0,364)"><path class="background" aria-hidden="true" d="M0,0h176v11h-176Z" pointer-events="none" opacity="1"/><g><g class="mark-symbol role-legend-symbol" pointer-events="none"><path transform="translate(6,6)" d="M5,0A5,5,0,1,1,-5,0A5,5,0,1,1,5,0" fill="#9d755d" stroke-width="1.5" opacity="1"/></g><g class="mark-text role-legend-label" pointer-events="none"><text text-anchor="start" transform="translate(16,9)" font-family="sans-serif" font-size="10px" fill="#000" opacity="1">karlmdavis/m2e-core-tests</text></g></g><path class="foreground" aria-hidden="true" d="" pointer-events="none" display="none"/></g><g transform="translate(0,377)"><path class="background" aria-hidden="true" d="M0,0h176v11h-176Z" pointer-events="none" opacity="1"/><g><g class="mark-symbol role-legend-symbol" pointer-events="none"><path transform="translate(6,6)" d="M5,0A5,5,0,1,1,-5,0A5,5,0,1,1,5,0" fill="#bab0ac" stroke-width="1.5" opacity="1"/></g><g class="mark-text role-legend-label" pointer-events="none"><text text-anchor="start" transform="translate(16,9)" font-family="sans-serif" font-size="10px" fill="#000" opacity="1">…12 entries</text></g></g><path class="foreground" aria-hidden="true" d="" pointer-events="none" display="none"/></g></g></g><path class="foreground" aria-hidden="true" d="" pointer-events="none" display="none"/></g></g><g class="mark-text role-legend-title" pointer-events="none"><text text-anchor="start" transform="translate(0,9)" font-family="sans-serif" font-size="11px" font-weight="bold" fill="#000" opacity="1">Repository</text></g></g><path class="foreground" aria-hidden="true" d="" pointer-events="none" display="none"/></g></g><g class="mark-group role-title"><g transform="translate(400,-22)"><path class="background" aria-hidden="true" d="M0,0h0v0h0Z" pointer-events="none"/><g><g class="mark-text role-title-text" role="graphics-symbol" aria-roledescription="title" aria-label="Title text 'Unique Clones per Day'" pointer-events="none"><text text-anchor="middle" transform="translate(0,10)" font-family="sans-serif" font-size="13px" font-weight="bold" fill="#000" opacity="1">Unique Clones per Day</text></g></g><path class="foreground" aria-hidden="true" d="" pointer-events="none" display="none"/></g></g></g><path class="foreground" aria-hidden="true" d="" display="none"/></g></g></g></svg>