<svg xmlns="http://www.w3.org/2000/svg" xmlns:xlink="http://www.w3.org/1999/xlink" version="1.1" class="marks" width="1043" height="436" viewBox="0 0 1043 436"><rect width="1043" height="436" fill="white"/><g fill="none" stroke-miterlimit="10" transform="translate(44,27)"><g class="mark-group role-frame root" role="graphics-object" aria-roledescription="group mark container"><g transform="translate(0,0)"><path class="background" aria-hidden="true" d="M0.5,0.5h800v300h-800Z" stroke="#ddd"/><g><g class="mark-group role-axis" aria-hidden="true"><g transform="translate(0.5,300.5)"><path class="background" aria-hidden="true" d="M0,0h0v0h0Z" pointer-events="none"/><g><g class="mark-rule role-axis-grid" pointer-events="none"><line transform="translate(27,-300)" x2="0" y2="300" stroke="#ddd" stroke-width="1" opacity="1"/><line transform="translate(80,-300)" x2="0" y2="300" stroke="#ddd" stroke-width="1" opacity="1"/><line transform="translate(133,-300)" x2="0" y2="300" stroke="#ddd" stroke-width="1" opacity="1"/><line transform="translate(187,-300)" x2="0" y2="300" stroke="#ddd" stroke-width="1" opacity="1"/><line transform="translate(240,-300)" x2="0" y2="300" stroke="#ddd" stroke-width="1" opacity="1"/><line transform="translate(293,-300)" x2="0" y2="300" stroke="#ddd" stroke-width="1" opacity="1"/><line transform="translate(347,-300)" x2="0" y2="300" stroke="#ddd" stroke-width="1" opacity="1"/><line transform="translate(400,-300)" x2="0" y2="300" stroke="#ddd" stroke-width="1" opacity="1"/><line transform="translate(427,-300)" x2="0" y2="300" stroke="#ddd" stroke-width="1" opacity="1"/><line transform="translate(480,-300)" x2="0" y2="300" stroke="#ddd" stroke-width="1" opacity="1"/><line transform="translate(533,-300)" x2="0" y2="300" stroke="#ddd" stroke-width="1" opacity="1"/><line transform="translate(587,-300)" x2="0" y2="300" stroke="#ddd" stroke-width="1" opacity="1"/><line transform="translate(640,-300)" x2="0" y2="300" stroke="#ddd" stroke-width="1" opacity="1"/><line transform="translate(693,-300)" x2="0" y2="300" stroke="#ddd" stroke-width="1" opacity="1"/><line transform="translate(747,-300)" x2="0" y2="300" stroke="#ddd" stroke-width="1" opacity="1"/><line transform="translate(800,-300)" x2="0" y2="300" stroke="#ddd" stroke-width="1" opacity="1"/></g></g><path class="foreground" aria-hidden="true" d="" pointer-events="none" display="none"/></g></g><g class="mark-group role-axis" aria-hidden="true"><g transform="translate(0.5,0.5)"><path class="background" aria-hidden="true" d="M0,0h0v0h0Z" pointer-events="none"/><g><g class="mark-rule role-axis-grid" pointer-events="none"><line transform="translate(0,300)" x2="800" y2="0" stroke="#ddd" stroke-width="1" opacity="1"/><line transform="translate(0,270)" x2="800" y2="0" stroke="#ddd" stroke-width="1" opacity="1"/><line transform="translate(0,240)" x2="800" y2="0" stroke="#ddd" stroke-width="1" opacity="1"/><line transform="translate(0,210)" x2="800" y2="0" stroke="#ddd" stroke-width="1" opacity="1"/><line transform="translate(0,180)" x2="800" y2="0" stroke="#ddd" stroke-width="1" opacity="1"/><line transform="translate(0,150)" x2="800" y2="0" stroke="#ddd" stroke-width="1" opacity="1"/><line transform="translate(0,120)" x2="800" y2="0" stroke="#ddd" stroke-width="1" opacity="1"/><line transform="translate(0,90)" x2="800" y2="0" stroke="#ddd" stroke-width="1" opacity="1"/><line transform="translate(0,60)" x2="800" y2="0" stroke="#ddd" stroke-width="1" opacity="1"/><line transform="translate(0,30)" x2="800" y2="0" stroke="#ddd" stroke-width="1" opacity="1"/><line transform="translate(0,0)" x2="800" y2="0" stroke="#ddd" stroke-width="1" opacity="1"/></g></g><path class="foreground" aria-hidden="true" d="" pointer-events="none" display="none"/></g></g><g class="mark-group role-axis" role="graphics-symbol" aria-roledescription="axis" aria-label="X-axis titled 'Date' for a time scale with values from Monday, 16 March 2026, 12:00:00 AM to Wednesday, 15 April 2026, 12:00:00 AM"><g transform="translate(0.5,300.5)"><path class="background" aria-hidden="true" d="M0,0h0v0h0Z" pointer-events="none"/><g><g class="mark-rule role-axis-tick" pointer-events="none"><line transform="translate(27,0)" x2="0" y2="5" stroke="#888" stroke-width="1" opacity="1"/><line transform="translate(80,0)" x2="0" y2="5" stroke="#888" stroke-width="1" opacity="1"/><line transform="translate(133,0)" x2="0" y2="5" stroke="#888" stroke-width="1" opacity="1"/><line transform="translate(187,0)" x2="0" y2="5" stroke="#888" stroke-width="1" opacity="1"/><line transform="translate(240,0)" x2="0" y2="5" stroke="#888" stroke-width="1" opacity="1"/><line transform="translate(293,0)" x2="0" y2="5" stroke="#888" stroke-width="1" opacity="1"/><line transform="translate(347,0)" x2="0" y2="5" stroke="#888" stroke-width="1" opacity="1"/><line transform="translate(400,0)" x2="0" y2="5" stroke="#888" stroke-width="1" opacity="1"/><line transform="translate(427,0)" x2="0" y2="5" stroke="#888" stroke-width="1" opacity="1"/><line transform="translate(480,0)" x2="0" y2="5" stroke="#888" stroke-width="1" opacity="1"/><line transform="translate(533,0)" x2="0" y2="5" stroke="#888" stroke-width="1" opacity="1"/><line transform="translate(587,0)" x2="0" y2="5" stroke="#888" stroke-width="1" opacity="1"/><line transform="translate(640,0)" x2="0" y2="5" stroke="#888" stroke-width="1" opacity="1"/><line transform="translate(693,0)" x2="0" y2="5" stroke="#888" stroke-width="1" opacity="1"/><line transform="translate(747,0)" x2="0" y2="5" stroke="#888" stroke-width="1" opacity="1"/><line transform="translate(800,0)" x2="0" y2="5" stroke="#888" stroke-width="1" opacity="1"/></g><g class="mark-text role-axis-label" pointer-events="none"><text text-anchor="middle" transform="translate(26.666666666666668,15)" font-family="sans-serif" font-size="10px" fill="#000" opacity="1">Tue 17</text><text text-anchor="middle" transform="translate(80,15)" font-family="sans-serif" font-size="10px" fill="#000" opacity="1">Thu 19</text><text text-anchor="middle" transform="translate(133.33333333333331,15)" font-family="sans-serif" font-size="10px" fill="#000" opacity="1">Sat 21</text><text text-anchor="middle" transform="translate(186.66666666666666,15)" font-family="sans-serif" font-size="10px" fill="#000" opacity="1">Mon 23</text><text text-anchor="middle" transform="translate(240,15)" font-family="sans-serif" font-size="10px" fill="#000" opacity="1">Wed 25</text><text text-anchor="middle" transform="translate(293.3333333333333,15)" font-family="sans-serif" font-size="10px" fill="#000" opacity="1">Fri 27</text><text text-anchor="middle" transform="translate(346.6666666666667,15)" font-family="sans-serif" font-size="10px" fill="#000" opacity="1">Mar 29</text><text text-anchor="middle" transform="translate(400,15)" font-family="sans-serif" font-size="10px" fill="#000" opacity="1">Tue 31</text><text text-anchor="middle" transform="translate(426.6666666666667,15)" font-family="sans-serif" font-size="10px" fill="#000" opacity="1">April</text><text text-anchor="middle" transform="translate(480,15)" font-family="sans-serif" font-size="10px" fill="#000" opacity="1">Fri 03</text><text text-anchor="middle" transform="translate(533.3333333333333,15)" font-family="sans-serif" font-size="10px" fill="#000" opacity="1">Apr 05</text><text text-anchor="middle" transform="translate(586.6666666666666,15)" font-family="sans-serif" font-size="10px" fill="#000" opacity="1">Tue 07</text><text text-anchor="middle" transform="translate(640,15)" font-family="sans-serif" font-size="10px" fill="#000" opacity="1">Thu 09</text><text text-anchor="middle" transform="translate(693.3333333333334,15)" font-family="sans-serif" font-size="10px" fill="#000" opacity="1">Sat 11</text><text text-anchor="middle" transform="translate(746.6666666666666,15)" font-family="sans-serif" font-size="10px" fill="#000" opacity="1">Mon 13</text><text text-anchor="end" transform="translate(800,15)" font-family="sans-serif" font-size="10px" fill="#000" opacity="1">Wed 15</text></g><g class="mark-rule role-axis-domain" pointer-events="none"><line transform="translate(0,0)" x2="800" y2="0" stroke="#888" stroke-width="1" opacity="1"/></g><g class="mark-text role-axis-title" pointer-events="none"><text text-anchor="middle" transform="translate(400,30)" font-family="sans-serif" font-size="11px" font-weight="bold" fill="#000" opacity="1">Date</text></g></g><path class="foreground" aria-hidden="true" d="" pointer-events="none" display="none"/></g></g><g class="mark-group role-axis" role="graphics-symbol" aria-roledescription="axis" aria-label="Y-axis titled 'Unique Clones/day' for a linear scale with values from 0 to 100"><g transform="translate(0.5,0.5)"><path class="background" aria-hidden="true" d="M0,0h0v0h0Z" pointer-events="none"/><g><g class="mark-rule role-axis-tick" pointer-events="none"><line transform="translate(0,300)" x2="-5" y2="0" stroke="#888" stroke-width="1" opacity="1"/><line transform="translate(0,270)" x2="-5" y2="0" stroke="#888" stroke-width="1" opacity="1"/><line transform="translate(0,240)" x2="-5" y2="0" stroke="#888" stroke-width="1" opacity="1"/><line transform="translate(0,210)" x2="-5" y2="0" stroke="#888" stroke-width="1" opacity="1"/><line transform="translate(0,180)" x2="-5" y2="0" stroke="#888" stroke-width="1" opacity="1"/><line transform="translate(0,150)" x2="-5" y2="0" stroke="#888" stroke-width="1" opacity="1"/><line transform="translate(0,120)" x2="-5" y2="0" stroke="#888" stroke-width="1" opacity="1"/><line transform="translate(0,90)" x2="-5" y2="0" stroke="#888" stroke-width="1" opacity="1"/><line transform="translate(0,60)" x2="-5" y2="0" stroke="#888" stroke-width="1" opacity="1"/><line transform="translate(0,30)" x2="-5" y2="0" stroke="#888" stroke-width="1" opacity="1"/><line transform="translate(0,0)" x2="-5" y2="0" stroke="#888" stroke-width="1" opacity="1"/></g><g class="mark-text role-axis-label" pointer-events="none"><text text-anchor="end" transform="translate(-7,303)" font-family="sans-serif" font-size="10px" fill="#000" opacity="1">0</text><text text-anchor="end" transform="translate(-7,273)" font-family="sans-serif" font-size="10px" fill="#000" opacity="1">10</text><text text-anchor="end" transform="translate(-7,243)" font-family="sans-serif" font-size="10px" fill="#000" opacity="1">20</text><text text-anchor="end" transform="translate(-7,213)" font-family="sans-serif" font-size="10px" fill="#000" opacity="1">30</text><text text-anchor="end" transform="translate(-7,183)" font-family="sans-serif" font-size="10px" fill="#000" opacity="1">40</text><text text-anchor="end" transform="translate(-7,153)" font-family="sans-serif" font-size="10px" fill="#000" opacity="1">50</text><text text-anchor="end" transform="translate(-7,123)" font-family="sans-serif" font-size="10px" fill="#000" opacity="1">60</text><text text-anchor="end" transform="translate(-7,93.00000000000001)" font-family="sans-serif" font-size="10px" fill="#000" opacity="1">70</text><text text-anchor="end" transform="translate(-7,62.999999999999986)" font-family="sans-serif" font-size="10px" fill="#000" opacity="1">80</text><text text-anchor="end" transform="translate(-7,32.99999999999999)" font-family="sans-serif" font-size="10px" fill="#000" opacity="1">90</text><text text-anchor="end" transform="translate(-7,3)" font-family="sans-serif" font-size="10px" fill="#000" opacity="1">100</text></g><g class="mark-rule role-axis-domain" pointer-events="none"><line transform="translate(0,300)" x2="0" y2="-300" stroke="#888" stroke-width="1" opacity="1"/></g><g class="mark-text role-axis-title" pointer-events="none"><text text-anchor="middle" transform="translate(-27.6845703125,150) rotate(-90) translate(0,-2)" font-family="sans-serif" font-size="11px" font-weight="bold" fill="#000" opacity="1">Unique Clones/day</text></g></g><path class="foreground" aria-hidden="true" d="" pointer-events="none" display="none"/></g></g><g class="mark-group role-scope pathgroup" role="graphics-object" aria-roledescription="group mark container"><g transform="translate(0,0)"><path class="background" aria-hidden="true" d="M0,0h800v300h-800Z"/><g><g class="mark-area role-mark marks" role="graphics-object" aria-roledescription="area mark container"><path aria-label="Date: Mar 16, 2026; Unique Clones/day: 0; Repository: karlmdavis/FHIR-Server" role="graphics-symbol" aria-roledescription="area mark" d="M0,297L26.667,300L53.333,300L80,297L106.667,300L133.333,300L160,300L186.667,264L213.333,294L240,279L266.667,252L293.333,93L320,162L346.667,12L373.333,201L400,231L426.667,246L453.333,270L480,213L506.667,36L533.333,57L560,261L586.667,210L613.333,213L640,177L666.667,264L693.333,222L720,192L746.667,33L773.333,264L800,273L800,273L773.333,264L746.667,33L720,195L693.333,228L666.667,264L640,177L613.333,213L586.667,210L560,261L533.333,57L506.667,36L480,213L453.333,270L426.667,246L400,234L373.333,201L346.667,12L320,162L293.333,93L266.667,252L240,279L213.333,294L186.667,264L160,300L133.333,300L106.667,300L80,297L53.333,300L26.667,300L0,297Z" fill="#4c78a8"/></g></g><path class="foreground" aria-hidden="true" d="" display="none"/></g><g transform="translate(0,0)"><path class="background" aria-hidden="true" d="M0,0h800v300h-800Z"/><g><g class="mark-area role-mark marks" role="graphics-object" aria-roledescription="area mark container"><path aria-label="Date: Mar 16, 2026; Unique Clones/day: 1; Repository: karlmdavis/ansible" role="graphics-symbol" aria-roledescription="area mark" d="M0,297L26.667,300L53.333,300L80,297L106.667,300L133.333,300L160,300L186.667,264L213.333,294L240,279L266.667,252L293.333,93L320,162L346.667,12L373.333,201L400,234L426.667,246L453.333,270L480,213L506.667,36L533.333,57L560,261L586.667,210L613.333,213L640,177L666.667,264L693.333,228L720,195L746.667,33L773.333,264L800,273L800,273L773.333,267L746.667,33L720,195L693.333,228L666.667,264L640,177L613.333,213L586.667,210L560,261L533.333,57L506.667,36L480,213L453.333,270L426.667,246L400,234L373.333,201L346.667,12L320,162L293.333,93L266.667,252L240,279L213.333,294L186.667,264L160,300L133.333,300L106.667,300L80,297L53.333,300L26.667,300L0,300Z" fill="#f58518"/></g></g><path class="foreground" aria-hidden="true" d="" display="none"/></g><g transform="translate(0,0)"><path class="background" aria-hidden="true" d="M0,0h800v300h-800Z"/><g><g class="mark-area role-mark marks" role="graphics-object" aria-roledescription="area mark container"><path aria-label="Date: Mar 16, 2026; Unique Clones/day: 0; Repository: karlmdavis/ansible-jenkins" role="graphics-symbol" aria-roledescription="area mark" d="M0,300L26.667,300L53.333,300L80,297L106.667,300L133.333,300L160,300L186.667,264L213.333,294L240,279L266.667,252L293.333,93L320,162L346.667,12L373.333,201L400,234L426.667,246L453.333,270L480,213L506.667,36L533.333,57L560,261L586.667,210L613.333,213L640,177L666.667,264L693.333,228L720,195L746.667,33L773.333,267L800,273L800,273L773.333,267L746.667,33L720,198L693.333,228L666.667,264L640,177L613.333,213L586.667,210L560,261L533.333,57L506.667,39L480,216L453.333,270L426.667,246L400,234L373.333,201L346.667,12L320,162L293.333,93L266.667,255L240,279L213.333,294L186.667,264L160,300L133.333,300L106.667,300L80,297L53.333,300L26.667,300L0,300Z" fill="#e45756"/></g></g><path class="foreground" aria-hidden="true" d="" display="none"/></g><g transform="translate(0,0)"><path class="background" aria-hidden="true" d="M0,0h800v300h-800Z"/><g><g class="mark-area role-mark marks" role="graphics-object" aria-roledescription="area mark container"><path aria-label="Date: Mar 16, 2026; Unique Clones/day: 0; Repository: karlmdavis/ansible-role-acmetool" role="graphics-symbol" aria-roledescription="area mark" d="M0,300L26.667,300L53.333,300L80,297L106.667,300L133.333,300L160,300L186.667,264L213.333,294L240,279L266.667,255L293.333,93L320,162L346.667,12L373.333,201L400,234L426.667,246L453.333,270L480,216L506.667,39L533.333,57L560,261L586.667,210L613.333,213L640,177L666.667,264L693.333,228L720,198L746.667,33L773.333,267L800,273L800,273L773.333,267L746.667,33L720,201L693.333,228L666.667,264L640,177L613.333,213L586.667,210L560,261L533.333,57L506.667,39L480,216L453.333,270L426.667,246L400,234L373.333,201L346.667,12L320,162L293.333,93L266.667,258L240,279L213.333,294L186.667,264L160,300L133.333,300L106.667,300L80,297L53.333,300L26.667,300L0,300Z" fill="#72b7b2"/></g></g><path class="foreground" aria-hidden="true" d="" display="none"/></g><g transform="translate(0,0)"><path class="background" aria-hidden="true" d="M0,0h800v300h-800Z"/><g><g class="mark-area role-mark marks" role="graphics-object" aria-roledescription="area mark container"><path aria-label="Date: Mar 16, 2026; Unique Clones/day: 0; Repository: karlmdavis/ansible-role-bind-dns" role="graphics-symbol" aria-roledescription="area mark" d="M0,300L26.667,300L53.333,300L80,297L106.667,300L133.333,300L160,300L186.667,264L213.333,294L240,279L266.667,258L293.333,93L320,162L346.667,12L373.333,201L400,234L426.667,246L453.333,270L480,216L506.667,39L533.333,57L560,261L586.667,210L613.333,213L640,177L666.667,264L693.333,228L720,201L746.667,33L773.333,267L800,273L800,273L773.333,267L746.667,45L720,204L693.333,228L666.667,264L640,180L613.333,216L586.667,210L560,261L533.333,57L506.667,42L480,216L453.333,270L426.667,255L400,234L373.333,204L346.667,15L320,162L293.333,99L266.667,258L240,279L213.333,294L186.667,264L160,300L133.333,300L106.667,300L80,297L53.333,300L26.667,300L0,300Z" fill="#54a24b"/></g></g><path class="foreground" aria-hidden="true" d="" display="none"/></g><g transform="translate(0,0)"><path class="background" aria-hidden="true" d="M0,0h800v300h-800Z"/><g><g class="mark-area role-mark marks" role="graphics-object" aria-roledescription="area mark container"><path aria-label="Date: Mar 16, 2026; Unique Clones/day: 0; Repository: karlmdavis/ansible-role-jenkins2" role="graphics-symbol" aria-roledescription="area mark" d="M0,300L26.667,300L53.333,300L80,297L106.667,300L133.333,300L160,300L186.667,264L213.333,294L240,279L266.667,258L293.333,99L320,162L346.667,15L373.333,204L400,234L426.667,255L453.333,270L480,216L506.667,42L533.333,57L560,261L586.667,210L613.333,216L640,180L666.667,264L693.333,228L720,204L746.667,45L773.333,267L800,273L800,273L773.333,267L746.667,60L720,204L693.333,231L666.667,270L640,195L613.333,216L586.667,210L560,261L533.333,60L506.667,48L480,219L453.333,273L426.667,258L400,237L373.333,204L346.667,15L320,165L293.333,102L266.667,261L240,282L213.333,297L186.667,264L160,300L133.333,300L106.667,300L80,297L53.333,300L26.667,300L0,300Z" fill="#eeca3b"/></g></g><path class="foreground" aria-hidden="true" d="" display="none"/></g><g transform="translate(0,0)"><path class="background" aria-hidden="true" d="M0,0h800v300h-800Z"/><g><g class="mark-area role-mark marks" role="graphics-object" aria-roledescription="area mark container"><path aria-label="Date: Mar 16, 2026; Unique Clones/day: 0; Repository: karlmdavis/ansible-role-ldap" role="graphics-symbol" aria-roledescription="area mark" d="M0,300L26.667,300L53.333,300L80,297L106.667,300L133.333,300L160,300L186.667,264L213.333,297L240,282L266.667,261L293.333,102L320,165L346.667,15L373.333,204L400,237L426.667,258L453.333,273L480,219L506.667,48L533.333,60L560,261L586.667,210L613.333,216L640,195L666.667,270L693.333,231L720,204L746.667,60L773.333,267L800,273L800,273L773.333,267L746.667,63L720,204L693.333,231L666.667,270L640,195L613.333,216L586.667,210L560,261L533.333,60L506.667,48L480,219L453.333,273L426.667,258L400,240L373.333,204L346.667,15L320,165L293.333,102L266.667,261L240,282L213.333,297L186.667,264L160,300L133.333,300L106.667,300L80,297L53.333,300L26.667,300L0,300Z" fill="#b279a2"/></g></g><path class="foreground" aria-hidden="true" d="" display="none"/></g><g transform="translate(0,0)"><path class="background" aria-hidden="true" d="M0,0h800v300h-800Z"/><g><g class="mark-area role-mark marks" role="graphics-object" aria-roledescription="area mark container"><path aria-label="Date: Mar 16, 2026; Unique Clones/day: 0; Repository: karlmdavis/ansible-role-rcm-dotfiles" role="graphics-symbol" aria-roledescription="area mark" d="M0,300L26.667,300L53.333,300L80,297L106.667,300L133.333,300L160,300L186.667,264L213.333,297L240,282L266.667,261L293.333,102L320,165L346.667,15L373.333,204L400,240L426.667,258L453.333,273L480,219L506.667,48L533.333,60L560,261L586.667,210L613.333,216L640,195L666.667,270L693.333,231L720,204L746.667,63L773.333,267L800,273L800,276L773.333,267L746.667,72L720,207L693.333,231L666.667,270L640,198L613.333,216L586.667,210L560,261L533.333,60L506.667,51L480,219L453.333,273L426.667,258L400,240L373.333,207L346.667,18L320,165L293.333,108L266.667,261L240,282L213.333,297L186.667,264L160,300L133.333,300L106.667,300L80,297L53.333,300L26.667,300L0,300Z" fill="#ff9da6"/></g></g><path class="foreground" aria-hidden="true" d="" display="none"/></g><g transform="translate(0,0)"><path class="background" aria-hidden="true" d="M0,0h800v300h-800Z"/><g><g class="mark-area role-mark marks" role="graphics-object" aria-roledescription="area mark container"><path aria-label="Date: Mar 16, 2026; Unique Clones/day: 0; Repository: karlmdavis/ansible-roles" role="graphics-symbol" aria-roledescription="area mark" d="M0,300L26.667,300L53.333,300L80,297L106.667,300L133.333,300L160,300L186.667,264L213.333,297L240,282L266.667,261L293.333,108L320,165L346.667,18L373.333,207L400,240L426.667,258L453.333,273L480,219L506.667,51L533.333,60L560,261L586.667,210L613.333,216L640,198L666.667,270L693.333,231L720,207L746.667,72L773.333,267L800,276L800,276L773.333,267L746.667,72L720,207L693.333,234L666.667,270L640,198L613.333,216L586.667,210L560,261L533.333,60L506.667,51L480,219L453.333,273L426.667,258L400,240L373.333,210L346.667,18L320,165L293.333,108L266.667,264L240,282L213.333,297L186.667,264L160,300L133.333,300L106.667,300L80,297L53.333,300L26.667,300L0,300Z" fill="#9d755d"/></g></g><path class="foreground" aria-hidden="true" d="" display="none"/></g><g transform="translate(0,0)"><path class="background" aria-hidden="true" d="M0,0h800v300h-800Z"/><g><g class="mark-area role-mark marks" role="graphics-object" aria-roledescription="area mark container"><path aria-label="Date: Mar 16, 2026; Unique Clones/day: 0; Repository: karlmdavis/bbonfhir-dev-infra-docker" role="graphics-symbol" aria-roledescription="area mark" d="M0,300L26.667,300L53.333,300L80,297L106.667,300L133.333,300L160,300L186.667,264L213.333,297L240,282L266.667,264L293.333,108L320,165L346.667,18L373.333,210L400,240L426.667,258L453.333,273L480,219L506.667,51L533.333,60L560,261L586.667,210L613.333,216L640,198L666.667,270L693.333,234L720,207L746.667,72L773.333,267L800,276L800,276L773.333,267L746.667,81L720,210L693.333,234L666.667,270L640,201L613.333,216L586.667,210L560,261L533.333,60L506.667,54L480,219L453.333,273L426.667,258L400,240L373.333,213L346.667,18L320,165L293.333,111L266.667,264L240,285L213.333,297L186.667,264L160,300L133.333,300L106.667,300L80,297L53.333,300L26.667,300L0,300Z" fill="#bab0ac"/></g></g><path class="foreground" aria-hidden="true" d="" display="none"/></g><g transform="translate(0,0)"><path class="background" aria-hidden="true" d="M0,0h800v300h-800Z"/><g><g class="mark-area role-mark marks" role="graphics-object" aria-roledescription="area mark container"><path aria-label="Date: Mar 16, 2026; Unique Clones/day: 0; Repository: karlmdavis/can-i-kayak-baltimore" role="graphics-symbol" aria-roledescription="area mark" d="M0,300L26.667,300L53.333,300L80,297L106.667,300L133.333,300L160,300L186.667,264L213.333,297L240,285L266.667,264L293.333,111L320,165L346.667,18L373.333,213L400,240L426.667,258L453.333,273L480,219L506.667,54L533.333,60L560,261L586.667,210L613.333,216L640,201L666.667,270L693.333,234L720,210L746.667,81L773.333,267L800,276L800,276L773.333,267L746.667,87L720,213L693.333,234L666.667,270L640,204L613.333,216L586.667,210L560,261L533.333,60L506.667,57L480,219L453.333,273L426.667,261L400,240L373.333,213L346.667,18L320,165L293.333,120L266.667,264L240,285L213.333,297L186.667,264L160,300L133.333,300L106.667,300L80,297L53.333,300L26.667,300L0,300Z" fill="#4c78a8"/></g></g><path class="foreground" aria-hidden="true" d="" display="none"/></g><g transform="translate(0,0)"><path class="background" aria-hidden="true" d="M0,0h800v300h-800Z"/><g><g class="mark-area role-mark marks" role="graphics-object" aria-roledescription="area mark container"><path aria-label="Date: Mar 16, 2026; Unique Clones/day: 0; Repository: karlmdavis/datanucleus-test-jdo-1-to-n" role="graphics-symbol" aria-roledescription="area mark" d="M0,300L26.667,300L53.333,300L80,297L106.667,300L133.333,300L160,300L186.667,264L213.333,297L240,285L266.667,264L293.333,120L320,165L346.667,18L373.333,213L400,240L426.667,261L453.333,273L480,219L506.667,57L533.333,60L560,261L586.667,210L613.333,216L640,204L666.667,270L693.333,234L720,213L746.667,87L773.333,267L800,276L800,276L773.333,270L746.667,87L720,213L693.333,234L666.667,270L640,204L613.333,216L586.667,210L560,261L533.333,60L506.667,57L480,219L453.333,273L426.667,261L400,240L373.333,213L346.667,18L320,168L293.333,120L266.667,264L240,285L213.333,297L186.667,264L160,300L133.333,300L106.667,300L80,297L53.333,300L26.667,300L0,300Z" fill="#f58518"/></g></g><path class="foreground" aria-hidden="true" d="" display="none"/></g><g transform="translate(0,0)"><path class="background" aria-hidden="true" d="M0,0h800v300h-800Z"/><g><g class="mark-area role-mark marks" role="graphics-object" aria-roledescription="area mark container"><path aria-label="Date: Mar 16, 2026; Unique Clones/day: 0; Repository: karlmdavis/dotfiles" role="graphics-symbol" aria-roledescription="area mark" d="M0,300L26.667,300L53.333,300L80,297L106.667,300L133.333,300L160,300L186.667,264L213.333,297L240,285L266.667,264L293.333,120L320,168L346.667,18L373.333,213L400,240L426.667,261L453.333,273L480,219L506.667,57L533.333,60L560,261L586.667,210L613.333,216L640,204L666.667,270L693.333,234L720,213L746.667,87L773.333,270L800,276L800,276L773.333,270L746.667,102L720,213L693.333,240L666.667,270L640,207L613.333,219L586.667,210L560,261L533.333,63L506.667,60L480,219L453.333,276L426.667,264L400,243L373.333,213L346.667,18L320,168L293.333,126L266.667,264L240,285L213.333,297L186.667,267L160,300L133.333,300L106.667,300L80,297L53.333,300L26.667,300L0,300Z" fill="#e45756"/></g></g><path class="foreground" aria-hidden="true" d="" display="none"/></g><g transform="translate(0,0)"><path class="background" aria-hidden="true" d="M0,0h800v300h-800Z"/><g><g class="mark-area role-mark marks" role="graphics-object" aria-roledescription="area mark container"><path aria-label="Date: Mar 16, 2026; Unique Clones/day: 0; Repository: karlmdavis/fhir-benchmarks" role="graphics-symbol" aria-roledescription="area mark" d="M0,300L26.667,300L53.333,300L80,297L106.667,300L133.333,300L160,300L186.667,267L213.333,297L240,285L266.667,264L293.333,126L320,168L346.667,18L373.333,213L400,243L426.667,264L453.333,276L480,219L506.667,60L533.333,63L560,261L586.667,210L613.333,219L640,207L666.667,270L693.333,240L720,213L746.667,102L773.333,270L800,276L800,276L773.333,279L746.667,117L720,213L693.333,246L666.667,270L640,213L613.333,240L586.667,213L560,261L533.333,66L506.667,63L480,222L453.333,276L426.667,267L400,249L373.333,216L346.667,21L320,168L293.333,132L266.667,264L240,288L213.333,297L186.667,270L160,300L133.333,300L106.667,300L80,297L53.333,300L26.667,300L0,300Z" fill="#72b7b2"/></g></g><path class="foreground" aria-hidden="true" d="" display="none"/></g><g transform="translate(0,0)"><path class="background" aria-hidden="true" d="M0,0h800v300h-800Z"/><g><g class="mark-area role-mark marks" role="graphics-object" aria-roledescription="area mark container"><path aria-label="Date: Mar 16, 2026; Unique Clones/day: 0; Repository: karlmdavis/hapi-fhir-jpaserver-starter" role="graphics-symbol" aria-roledescription="area mark" d="M0,300L26.667,300L53.333,300L80,297L106.667,300L133.333,300L160,300L186.667,270L213.333,297L240,288L266.667,264L293.333,132L320,168L346.667,21L373.333,216L400,249L426.667,267L453.333,276L480,222L506.667,63L533.333,66L560,261L586.667,213L613.333,240L640,213L666.667,270L693.333,246L720,213L746.667,117L773.333,279L800,276L800,276L773.333,279L746.667,120L720,213L693.333,246L666.667,270L640,213L613.333,240L586.667,213L560,261L533.333,66L506.667,63L480,225L453.333,279L426.667,267L400,249L373.333,216L346.667,21L320,168L293.333,132L266.667,267L240,288L213.333,297L186.667,270L160,300L133.333,300L106.667,300L80,297L53.333,300L26.667,300L0,300Z" fill="#54a24b"/></g></g><path class="foreground" aria-hidden="true" d="" display="none"/></g><g transform="translate(0,0)"><path class="background" aria-hidden="true" d="M0,0h800v300h-800Z"/><g><g class="mark-area role-mark marks" role="graphics-object" aria-roledescription="area mark container"><path aria-label="Date: Mar 16, 2026; Unique Clones/day: 0; Repository: karlmdavis/hello-rust-actix" role="graphics-symbol" aria-roledescription="area mark" d="M0,300L26.667,300L53.333,300L80,297L106.667,300L133.333,300L160,300L186.667,270L213.333,297L240,288L266.667,267L293.333,132L320,168L346.667,21L373.333,216L400,249L426.667,267L453.333,279L480,225L506.667,63L533.333,66L560,261L586.667,213L613.333,240L640,213L666.667,270L693.333,246L720,213L746.667,120L773.333,279L800,276L800,276L773.333,279L746.667,126L720,216L693.333,246L666.667,270L640,216L613.333,240L586.667,213L560,261L533.333,66L506.667,66L480,225L453.333,279L426.667,267L400,252L373.333,216L346.667,21L320,168L293.333,135L266.667,267L240,288L213.333,297L186.667,270L160,300L133.333,300L106.667,300L80,297L53.333,300L26.667,300L0,300Z" fill="#eeca3b"/></g></g><path class="foreground" aria-hidden="true" d="" display="none"/></g><g transform="translate(0,0)"><path class="background" aria-hidden="true" d="M0,0h800v300h-800Z"/><g><g class="mark-area role-mark marks" role="graphics-object" aria-roledescription="area mark container"><path aria-label="Date: Mar 16, 2026; Unique Clones/day: 0; Repository: karlmdavis/jessentials" role="graphics-symbol" aria-roledescription="area mark" d="M0,300L26.667,300L53.333,300L80,297L106.667,300L133.333,300L160,300L186.667,270L213.333,297L240,288L266.667,267L293.333,135L320,168L346.667,21L373.333,216L400,252L426.667,267L453.333,279L480,225L506.667,66L533.333,66L560,261L586.667,213L613.333,240L640,216L666.667,270L693.333,246L720,216L746.667,126L773.333,279L800,276L800,276L773.333,279L746.667,132L720,216L693.333,249L666.667,270L640,222L613.333,264L586.667,213L560,261L533.333,66L506.667,69L480,225L453.333,279L426.667,267L400,252L373.333,219L346.667,21L320,168L293.333,138L266.667,267L240,288L213.333,297L186.667,273L160,300L133.333,300L106.667,300L80,297L53.333,300L26.667,300L0,300Z" fill="#b279a2"/></g></g><path class="foreground" aria-hidden="true" d="" display="none"/></g><g transform="translate(0,0)"><path class="background" aria-hidden="true" d="M0,0h800v300h-800Z"/><g><g class="mark-area role-mark marks" role="graphics-object" aria-roledescription="area mark container"><path aria-label="Date: Mar 16, 2026; Unique Clones/day: 0; Repository: karlmdavis/justdavis-ansible" role="graphics-symbol" aria-roledescription="area mark" d="M0,300L26.667,300L53.333,300L80,297L106.667,300L133.333,300L160,300L186.667,273L213.333,297L240,288L266.667,267L293.333,138L320,168L346.667,21L373.333,219L400,252L426.667,267L453.333,279L480,225L506.667,69L533.333,66L560,261L586.667,213L613.333,264L640,222L666.667,270L693.333,249L720,216L746.667,132L773.333,279L800,276L800,276L773.333,279L746.667,141L720,228L693.333,249L666.667,273L640,225L613.333,264L586.667,213L560,261L533.333,66L506.667,72L480,225L453.333,279L426.667,270L400,252L373.333,219L346.667,21L320,171L293.333,141L266.667,267L240,291L213.333,297L186.667,273L160,300L133.333,300L106.667,300L80,297L53.333,300L26.667,300L0,300Z" fill="#ff9da6"/></g></g><path class="foreground" aria-hidden="true" d="" display="none"/></g><g transform="translate(0,0)"><path class="background" aria-hidden="true" d="M0,0h800v300h-800Z"/><g><g class="mark-area role-mark marks" role="graphics-object" aria-roledescription="area mark container"><path aria-label="Date: Mar 16, 2026; Unique Clones/day: 0; Repository: karlmdavis/justdavis-finances" role="graphics-symbol" aria-roledescription="area mark" d="M0,300L26.667,300L53.333,300L80,297L106.667,300L133.333,300L160,300L186.667,273L213.333,297L240,291L266.667,267L293.333,141L320,171L346.667,21L373.333,219L400,252L426.667,270L453.333,279L480,225L506.667,72L533.333,66L560,261L586.667,213L613.333,264L640,225L666.667,273L693.333,249L720,228L746.667,141L773.333,279L800,276L800,279L773.333,285L746.667,186L720,279L693.333,255L666.667,273L640,228L613.333,267L586.667,264L560,285L533.333,291L506.667,243L480,285L453.333,282L426.667,273L400,255L373.333,264L346.667,276L320,282L293.333,234L266.667,270L240,294L213.333,297L186.667,273L160,300L133.333,300L106.667,300L80,297L53.333,300L26.667,300L0,300Z" fill="#9d755d"/></g></g><path class="foreground" aria-hidden="true" d="" display="none"/></g><g transform="translate(0,0)"><path class="background" aria-hidden="true" d="M0,0h800v300h-800Z"/><g><g class="mark-area role-mark marks" role="graphics-object" aria-roledescription="area mark container"><path aria-label="Date: Mar 16, 2026; Unique Clones/day: 0; Repository: karlmdavis/justdavis-karl" role="graphics-symbol" aria-roledescription="area mark" d="M0,300L26.667,300L53.333,300L80,297L106.667,300L133.333,300L160,300L186.667,273L213.333,297L240,294L266.667,270L293.333,234L320,282L346.667,276L373.333,264L400,255L426.667,273L453.333,282L480,285L506.667,243L533.333,291L560,285L586.667,264L613.333,267L640,228L666.667,273L693.333,255L720,279L746.667,186L773.333,285L800,279L800,279L773.333,285L746.667,195L720,282L693.333,258L666.667,273L640,234L613.333,267L586.667,264L560,288L533.333,291L506.667,246L480,285L453.333,285L426.667,273L400,258L373.333,267L346.667,276L320,285L293.333,237L266.667,270L240,294L213.333,297L186.667,276L160,300L133.333,300L106.667,300L80,297L53.333,300L26.667,300L0,300Z" fill="#bab0ac"/></g></g><path class="foreground" aria-hidden="true" d="" display="none"/></g><g transform="translate(0,0)"><path class="background" aria-hidden="true" d="M0,0h800v300h-800Z"/><g><g class="mark-area role-mark marks" role="graphics-object" aria-roledescription="area mark container"><path aria-label="Date: Mar 16, 2026; Unique Clones/day: 0; Repository: karlmdavis/justdavis-puppet" role="graphics-symbol" aria-roledescription="area mark" d="M0,300L26.667,300L53.333,300L80,297L106.667,300L133.333,300L160,300L186.667,276L213.333,297L240,294L266.667,270L293.333,237L320,285L346.667,276L373.333,267L400,258L426.667,273L453.333,285L480,285L506.667,246L533.333,291L560,288L586.667,264L613.333,267L640,234L666.667,273L693.333,258L720,282L746.667,195L773.333,285L800,279L800,279L773.333,285L746.667,201L720,285L693.333,261L666.667,273L640,237L613.333,270L586.667,264L560,288L533.333,291L506.667,249L480,285L453.333,285L426.667,273L400,264L373.333,270L346.667,276L320,285L293.333,240L266.667,270L240,294L213.333,297L186.667,276L160,300L133.333,300L106.667,300L80,297L53.333,300L26.667,300L0,300Z" fill="#4c78a8"/></g></g><path class="foreground" aria-hidden="true" d="" display="none"/></g><g transform="translate(0,0)"><path class="background" aria-hidden="true" d="M0,0h800v300h-800Z"/><g><g class="mark-area role-mark marks" role="graphics-object" aria-roledescription="area mark container"><path aria-label="Date: Mar 16, 2026; Unique Clones/day: 0; Repository: karlmdavis/kobjects" role="graphics-symbol" aria-roledescription="area mark" d="M0,300L26.667,300L53.333,300L80,297L106.667,300L133.333,300L160,300L186.667,276L213.333,297L240,294L266.667,270L293.333,240L320,285L346.667,276L373.333,270L400,264L426.667,273L453.333,285L480,285L506.667,249L533.333,291L560,288L586.667,264L613.333,270L640,237L666.667,273L693.333,261L720,285L746.667,201L773.333,285L800,279L800,279L773.333,285L746.667,207L720,285L693.333,264L666.667,273L640,243L613.333,270L586.667,264L560,288L533.333,291L506.667,252L480,285L453.333,285L426.667,273L400,264L373.333,270L346.667,276L320,285L293.333,243L266.667,273L240,294L213.333,297L186.667,276L160,300L133.333,300L106.667,300L80,297L53.333,300L26.667,300L0,300Z" fill="#f58518"/></g></g><path class="foreground" aria-hidden="true" d="" display="none"/></g><g transform="translate(0,0)"><path class="background" aria-hidden="true" d="M0,0h800v300h-800Z"/><g><g class="mark-area role-mark marks" role="graphics-object" aria-roledescription="area mark container"><path aria-label="Date: Mar 16, 2026; Unique Clones/day: 0; Repository: karlmdavis/ksoap2-android" role="graphics-symbol" aria-roledescription="area mark" d="M0,300L26.667,300L53.333,300L80,297L106.667,300L133.333,300L160,300L186.667,276L213.333,297L240,294L266.667,273L293.333,243L320,285L346.667,276L373.333,270L400,264L426.667,273L453.333,285L480,285L506.667,252L533.333,291L560,288L586.667,264L613.333,270L640,243L666.667,273L693.333,264L720,285L746.667,207L773.333,285L800,279L800,285L773.333,285L746.667,213L720,285L693.333,267L666.667,282L640,246L613.333,288L586.667,279L560,291L533.333,291L506.667,261L480,285L453.333,288L426.667,276L400,267L373.333,282L346.667,282L320,285L293.333,246L266.667,282L240,294L213.333,297L186.667,279L160,300L133.333,300L106.667,300L80,297L53.333,300L26.667,300L0,300Z" fill="#e45756"/></g></g><path class="foreground" aria-hidden="true" d="" display="none"/></g><g transform="translate(0,0)"><path class="background" aria-hidden="true" d="M0,0h800v300h-800Z"/><g><g class="mark-area role-mark marks" role="graphics-object" aria-roledescription="area mark container"><path aria-label="Date: Mar 16, 2026; Unique Clones/day: 0; Repository: karlmdavis/kxml2" role="graphics-symbol" aria-roledescription="area mark" d="M0,300L26.667,300L53.333,300L80,297L106.667,300L133.333,300L160,300L186.667,279L213.333,297L240,294L266.667,282L293.333,246L320,285L346.667,282L373.333,282L400,267L426.667,276L453.333,288L480,285L506.667,261L533.333,291L560,291L586.667,279L613.333,288L640,246L666.667,282L693.333,267L720,285L746.667,213L773.333,285L800,285L800,285L773.333,288L746.667,222L720,285L693.333,267L666.667,282L640,249L613.333,288L586.667,282L560,294L533.333,294L506.667,264L480,285L453.333,288L426.667,276L400,270L373.333,291L346.667,285L320,285L293.333,252L266.667,285L240,294L213.333,297L186.667,282L160,300L133.333,300L106.667,300L80,297L53.333,300L26.667,300L0,300Z" fill="#72b7b2"/></g></g><path class="foreground" aria-hidden="true" d="" display="none"/></g><g transform="translate(0,0)"><path class="background" aria-hidden="true" d="M0,0h800v300h-800Z"/><g><g class="mark-area role-mark marks" role="graphics-object" aria-roledescription="area mark container"><path aria-label="Date: Mar 16, 2026; Unique Clones/day: 0; Repository: karlmdavis/ldap-plugin" role="graphics-symbol" aria-roledescription="area mark" d="M0,300L26.667,300L53.333,300L80,297L106.667,300L133.333,300L160,300L186.667,282L213.333,297L240,294L266.667,285L293.333,252L320,285L346.667,285L373.333,291L400,270L426.667,276L453.333,288L480,285L506.667,264L533.333,294L560,294L586.667,282L613.333,288L640,249L666.667,282L693.333,267L720,285L746.667,222L773.333,288L800,285L800,285L773.333,288L746.667,222L720,285L693.333,267L666.667,282L640,249L613.333,288L586.667,282L560,294L533.333,294L506.667,264L480,288L453.333,291L426.667,276L400,270L373.333,291L346.667,285L320,285L293.333,252L266.667,285L240,294L213.333,297L186.667,282L160,300L133.333,300L106.667,300L80,297L53.333,300L26.667,300L0,300Z" fill="#54a24b"/></g></g><path class="foreground" aria-hidden="true" d="" display="none"/></g><g transform="translate(0,0)"><path class="background" aria-hidden="true" d="M0,0h800v300h-800Z"/><g><g class="mark-area role-mark marks" role="graphics-object" aria-roledescription="area mark container"><path aria-label="Date: Mar 16, 2026; Unique Clones/day: 0; Repository: karlmdavis/lego-ev3dev-rs" role="graphics-symbol" aria-roledescription="area mark" d="M0,300L26.667,300L53.333,300L80,297L106.667,300L133.333,300L160,300L186.667,282L213.333,297L240,294L266.667,285L293.333,252L320,285L346.667,285L373.333,291L400,270L426.667,276L453.333,291L480,288L506.667,264L533.333,294L560,294L586.667,282L613.333,288L640,249L666.667,282L693.333,267L720,285L746.667,222L773.333,288L800,285L800,288L773.333,288L746.667,231L720,285L693.333,273L666.667,282L640,255L613.333,288L586.667,285L560,294L533.333,297L506.667,267L480,291L453.333,291L426.667,279L400,276L373.333,291L346.667,288L320,288L293.333,261L266.667,285L240,297L213.333,297L186.667,285L160,300L133.333,300L106.667,300L80,297L53.333,300L26.667,300L0,300Z" fill="#eeca3b"/></g></g><path class="foreground" aria-hidden="true" d="" display="none"/></g><g transform="translate(0,0)"><path class="background" aria-hidden="true" d="M0,0h800v300h-800Z"/><g><g class="mark-area role-mark marks" role="graphics-object" aria-roledescription="area mark container"><path aria-label="Date: Mar 16, 2026; Unique Clones/day: 0; Repository: karlmdavis/liquibase" role="graphics-symbol" aria-roledescription="area mark" d="M0,300L26.667,300L53.333,300L80,297L106.667,300L133.333,300L160,300L186.667,285L213.333,297L240,297L266.667,285L293.333,261L320,288L346.667,288L373.333,291L400,276L426.667,279L453.333,291L480,291L506.667,267L533.333,297L560,294L586.667,285L613.333,288L640,255L666.667,282L693.333,273L720,285L746.667,231L773.333,288L800,288L800,288L773.333,288L746.667,231L720,285L693.333,273L666.667,285L640,258L613.333,288L586.667,285L560,294L533.333,297L506.667,267L480,291L453.333,291L426.667,279L400,276L373.333,291L346.667,288L320,288L293.333,261L266.667,285L240,297L213.333,297L186.667,285L160,300L133.333,300L106.667,300L80,300L53.333,300L26.667,300L0,300Z" fill="#b279a2"/></g></g><path class="foreground" aria-hidden="true" d="" display="none"/></g><g transform="translate(0,0)"><path class="background" aria-hidden="true" d="M0,0h800v300h-800Z"/><g><g class="mark-area role-mark marks" role="graphics-object" aria-roledescription="area mark container"><path aria-label="Date: Mar 16, 2026; Unique Clones/day: 0; Repository: karlmdavis/m2e-core" role="graphics-symbol" aria-roledescription="area mark" d="M0,300L26.667,300L53.333,300L80,300L106.667,300L133.333,300L160,300L186.667,285L213.333,297L240,297L266.667,285L293.333,261L320,288L346.667,288L373.333,291L400,276L426.667,279L453.333,291L480,291L506.667,267L533.333,297L560,294L586.667,285L613.333,288L640,258L666.667,285L693.333,273L720,285L746.667,231L773.333,288L800,288L800,288L773.333,288L746.667,237L720,285L693.333,276L666.667,288L640,264L613.333,291L586.667,288L560,294L533.333,297L506.667,270L480,291L453.333,291L426.667,279L400,276L373.333,291L346.667,291L320,288L293.333,264L266.667,285L240,297L213.333,297L186.667,285L160,300L133.333,300L106.667,300L80,300L53.333,300L26.667,300L0,300Z" fill="#ff9da6"/></g></g><path class="foreground" aria-hidden="true" d="" display="none"/></g><g transform="translate(0,0)"><path class="background" aria-hidden="true" d="M0,0h800v300h-800Z"/><g><g class="mark-area role-mark marks" role="graphics-object" aria-roledescription="area mark container"><path aria-label="Date: Mar 16, 2026; Unique Clones/day: 0; Repository: karlmdavis/m2e-core-tests" role="graphics-symbol" aria-roledescription="area mark" d="M0,300L26.667,300L53.333,300L80,300L106.667,300L133.333,300L160,300L186.667,285L213.333,297L240,297L266.667,285L293.333,264L320,288L346.667,291L373.333,291L400,276L426.667,279L453.333,291L480,291L506.667,270L533.333,297L560,294L586.667,288L613.333,291L640,264L666.667,288L693.333,276L720,285L746.667,237L773.333,288L800,288L800,288L773.333,288L746.667,237L720,288L693.333,276L666.667,294L640,267L613.333,294L586.667,291L560,294L533.333,297L506.667,270L480,291L453.333,291L426.667,285L400,276L373.333,291L346.667,291L320,291L293.333,264L266.667,288L240,297L213.333,297L186.667,285L160,300L133.333,300L106.667,300L80,300L53.333,300L26.667,300L0,300Z" fill="#9d755d"/></g></g><path class="foreground" aria-hidden="true" d="" display="none"/></g><g transform="translate(0,0)"><path class="background" aria-hidden="true" d="M0,0h800v300h-800Z"/><g><g class="mark-area role-mark marks" role="graphics-object" aria-roledescription="area mark container"><path aria-label="Date: Mar 16, 2026; Unique Clones/day: 0; Repository: karlmdavis/obsidian-operator" role="graphics-symbol" aria-roledescription="area mark" d="M0,300L26.667,300L53.333,300L80,300L106.667,300L133.333,300L160,300L186.667,285L213.333,297L240,297L266.667,288L293.333,264L320,291L346.667,291L373.333,291L400,276L426.667,285L453.333,291L480,291L506.667,270L533.333,297L560,294L586.667,291L613.333,294L640,267L666.667,294L693.333,276L720,288L746.667,237L773.333,288L800,288L800,294L773.333,291L746.667,243L720,291L693.333,282L666.667,294L640,270L613.333,294L586.667,291L560,294L533.333,297L506.667,273L480,297L453.333,291L426.667,285L400,285L373.333,291L346.667,291L320,291L293.333,267L266.667,288L240,297L213.333,297L186.667,288L160,300L133.333,300L106.667,300L80,300L53.333,300L26.667,300L0,300Z" fill="#bab0ac"/></g></g><path class="foreground" aria-hidden="true" d="" display="none"/></g><g transform="translate(0,0)"><path class="background" aria-hidden="true" d="M0,0h800v300h-800Z"/><g><g class="mark-area role-mark marks" role="graphics-object" aria-roledescription="area mark container"><path aria-label="Date: Mar 16, 2026; Unique Clones/day: 0; Repository: karlmdavis/perfect-note" role="graphics-symbol" aria-roledescription="area mark" d="M0,300L26.667,300L53.333,300L80,300L106.667,300L133.333,300L160,300L186.667,288L213.333,297L240,297L266.667,288L293.333,267L320,291L346.667,291L373.333,291L400,285L426.667,285L453.333,291L480,297L506.667,273L533.333,297L560,294L586.667,291L613.333,294L640,270L666.667,294L693.333,282L720,291L746.667,243L773.333,291L800,294L800,294L773.333,294L746.667,249L720,291L693.333,282L666.667,294L640,273L613.333,294L586.667,291L560,294L533.333,297L506.667,276L480,297L453.333,291L426.667,285L400,285L373.333,291L346.667,291L320,294L293.333,270L266.667,291L240,297L213.333,297L186.667,288L160,300L133.333,300L106.667,300L80,300L53.333,300L26.667,300L0,300Z" fill="#4c78a8"/></g></g><path class="foreground" aria-hidden="true" d="" display="none"/></g><g transform="translate(0,0)"><path class="background" aria-hidden="true" d="M0,0h800v300h-800Z"/><g><g class="mark-area role-mark marks" role="graphics-object" aria-roledescription="area mark container"><path aria-label="Date: Mar 16, 2026; Unique Clones/day: 0; Repository: karlmdavis/puppet-archive" role="graphics-symbol" aria-roledescription="area mark" d="M0,300L26.667,300L53.333,300L80,300L106.667,300L133.333,300L160,300L186.667,288L213.333,297L240,297L266.667,291L293.333,270L320,294L346.667,291L373.333,291L400,285L426.667,285L453.333,291L480,297L506.667,276L533.333,297L560,294L586.667,291L613.333,294L640,273L666.667,294L693.333,282L720,291L746.667,249L773.333,294L800,294L800,294L773.333,294L746.667,249L720,291L693.333,285L666.667,294L640,276L613.333,294L586.667,291L560,294L533.333,297L506.667,276L480,297L453.333,291L426.667,285L400,285L373.333,291L346.667,291L320,294L293.333,270L266.667,291L240,297L213.333,297L186.667,291L160,300L133.333,300L106.667,300L80,300L53.333,300L26.667,300L0,300Z" fill="#f58518"/></g></g><path class="foreground" aria-hidden="true" d="" display="none"/></g><g transform="translate(0,0)"><path class="background" aria-hidden="true" d="M0,0h800v300h-800Z"/><g><g class="mark-area role-mark marks" role="graphics-object" aria-roledescription="area mark container"><path aria-label="Date: Mar 16, 2026; Unique Clones/day: 0; Repository: karlmdavis/puppet-sonar" role="graphics-symbol" aria-roledescription="area mark" d="M0,300L26.667,300L53.333,300L80,300L106.667,300L133.333,300L160,300L186.667,291L213.333,297L240,297L266.667,291L293.333,270L320,294L346.667,291L373.333,291L400,285L426.667,285L453.333,291L480,297L506.667,276L533.333,297L560,294L586.667,291L613.333,294L640,276L666.667,294L693.333,285L720,291L746.667,249L773.333,294L800,294L800,294L773.333,297L746.667,249L720,291L693.333,288L666.667,294L640,276L613.333,297L586.667,294L560,294L533.333,297L506.667,276L480,297L453.333,294L426.667,285L400,291L373.333,291L346.667,291L320,297L293.333,270L266.667,291L240,297L213.333,297L186.667,291L160,300L133.333,300L106.667,300L80,300L53.333,300L26.667,300L0,300Z" fill="#e45756"/></g></g><path class="foreground" aria-hidden="true" d="" display="none"/></g><g transform="translate(0,0)"><path class="background" aria-hidden="true" d="M0,0h800v300h-800Z"/><g><g class="mark-area role-mark marks" role="graphics-object" aria-roledescription="area mark container"><path aria-label="Date: Mar 16, 2026; Unique Clones/day: 0; Repository: karlmdavis/rps-tourney" role="graphics-symbol" aria-roledescription="area mark" d="M0,300L26.667,300L53.333,300L80,300L106.667,300L133.333,300L160,300L186.667,291L213.333,297L240,297L266.667,291L293.333,270L320,297L346.667,291L373.333,291L400,291L426.667,285L453.333,294L480,297L506.667,276L533.333,297L560,294L586.667,294L613.333,297L640,276L666.667,294L693.333,288L720,291L746.667,249L773.333,297L800,294L800,294L773.333,297L746.667,255L720,291L693.333,291L666.667,294L640,279L613.333,297L586.667,294L560,294L533.333,297L506.667,279L480,297L453.333,297L426.667,285L400,291L373.333,291L346.667,291L320,297L293.333,273L266.667,291L240,297L213.333,297L186.667,294L160,300L133.333,300L106.667,300L80,300L53.333,300L26.667,300L0,300Z" fill="#72b7b2"/></g></g><path class="foreground" aria-hidden="true" d="" display="none"/></g><g transform="translate(0,0)"><path class="background" aria-hidden="true" d="M0,0h800v300h-800Z"/><g><g class="mark-area role-mark marks" role="graphics-object" aria-roledescription="area mark container"><path aria-label="Date: Mar 16, 2026; Unique Clones/day: 0; Repository: karlmdavis/sample-maven-and-rcp" role="graphics-symbol" aria-roledescription="area mark" d="M0,300L26.667,300L53.333,300L80,300L106.667,300L133.333,300L160,300L186.667,294L213.333,297L240,297L266.667,291L293.333,273L320,297L346.667,291L373.333,291L400,291L426.667,285L453.333,297L480,297L506.667,279L533.333,297L560,294L586.667,294L613.333,297L640,279L666.667,294L693.333,291L720,291L746.667,255L773.333,297L800,294L800,294L773.333,297L746.667,261L720,291L693.333,291L666.667,294L640,282L613.333,297L586.667,294L560,294L533.333,297L506.667,282L480,297L453.333,297L426.667,288L400,291L373.333,291L346.667,291L320,297L293.333,276L266.667,291L240,297L213.333,297L186.667,294L160,300L133.333,300L106.667,300L80,300L53.333,300L26.667,300L0,300Z" fill="#54a24b"/></g></g><path class="foreground" aria-hidden="true" d="" display="none"/></g><g transform="translate(0,0)"><path class="background" aria-hidden="true" d="M0,0h800v300h-800Z"/><g><g class="mark-area role-mark marks" role="graphics-object" aria-roledescription="area mark container"><path aria-label="Date: Mar 16, 2026; Unique Clones/day: 0; Repository: karlmdavis/stockfighter-trades-solutions" role="graphics-symbol" aria-roledescription="area mark" d="M0,300L26.667,300L53.333,300L80,300L106.667,300L133.333,300L160,300L186.667,294L213.333,297L240,297L266.667,291L293.333,276L320,297L346.667,291L373.333,291L400,291L426.667,288L453.333,297L480,297L506.667,282L533.333,297L560,294L586.667,294L613.333,297L640,282L666.667,294L693.333,291L720,291L746.667,261L773.333,297L800,294L800,294L773.333,297L746.667,270L720,291L693.333,291L666.667,294L640,285L613.333,297L586.667,294L560,294L533.333,297L506.667,285L480,297L453.333,297L426.667,288L400,291L373.333,291L346.667,294L320,297L293.333,282L266.667,291L240,297L213.333,297L186.667,294L160,300L133.333,300L106.667,300L80,300L53.333,300L26.667,300L0,300Z" fill="#eeca3b"/></g></g><path class="foreground" aria-hidden="true" d="" display="none"/></g><g transform="translate(0,0)"><path class="background" aria-hidden="true" d="M0,0h800v300h-800Z"/><g><g class="mark-area role-mark marks" role="graphics-object" aria-roledescription="area mark container"><path aria-label="Date: Mar 16, 2026; Unique Clones/day: 0; Repository: karlmdavis/test-repo-for-move" role="graphics-symbol" aria-roledescription="area mark" d="M0,300L26.667,300L53.333,300L80,300L106.667,300L133.333,300L160,300L186.667,294L213.333,297L240,297L266.667,291L293.333,282L320,297L346.667,294L373.333,291L400,291L426.667,288L453.333,297L480,297L506.667,285L533.333,297L560,294L586.667,294L613.333,297L640,285L666.667,294L693.333,291L720,291L746.667,270L773.333,297L800,294L800,294L773.333,297L746.667,276L720,291L693.333,291L666.667,294L640,288L613.333,297L586.667,294L560,294L533.333,297L506.667,288L480,297L453.333,297L426.667,288L400,291L373.333,291L346.667,297L320,297L293.333,285L266.667,294L240,297L213.333,297L186.667,294L160,300L133.333,300L106.667,300L80,300L53.333,300L26.667,300L0,300Z" fill="#b279a2"/></g></g><path class="foreground" aria-hidden="true" d="" display="none"/></g><g transform="translate(0,0)"><path class="background" aria-hidden="true" d="M0,0h800v300h-800Z"/><g><g class="mark-area role-mark marks" role="graphics-object" aria-roledescription="area mark container"><path aria-label="Date: Mar 16, 2026; Unique Clones/day: 0; Repository: karlmdavis/todoist-ai" role="graphics-symbol" aria-roledescription="area mark" d="M0,300L26.667,300L53.333,300L80,300L106.667,300L133.333,300L160,300L186.667,294L213.333,297L240,297L266.667,294L293.333,285L320,297L346.667,297L373.333,291L400,291L426.667,288L453.333,297L480,297L506.667,288L533.333,297L560,294L586.667,294L613.333,297L640,288L666.667,294L693.333,291L720,291L746.667,276L773.333,297L800,294L800,297L773.333,297L746.667,276L720,291L693.333,294L666.667,294L640,288L613.333,297L586.667,294L560,294L533.333,297L506.667,288L480,297L453.333,297L426.667,294L400,291L373.333,291L346.667,297L320,297L293.333,285L266.667,294L240,297L213.333,297L186.667,294L160,300L133.333,300L106.667,300L80,300L53.333,300L26.667,300L0,300Z" fill="#ff9da6"/></g></g><path class="foreground" aria-hidden="true" d="" display="none"/></g><g transform="translate(0,0)"><path class="background" aria-hidden="true" d="M0,0h800v300h-800Z"/><g><g class="mark-area role-mark marks" role="graphics-object" aria-roledescription="area mark container"><path aria-label="Date: Mar 16, 2026; Unique Clones/day: 0; Repository: karlmdavis/usgs-water-api-java" role="graphics-symbol" aria-roledescription="area mark" d="M0,300L26.667,300L53.333,300L80,300L106.667,300L133.333,300L160,300L186.667,294L213.333,297L240,297L266.667,294L293.333,285L320,297L346.667,297L373.333,291L400,291L426.667,294L453.333,297L480,297L506.667,288L533.333,297L560,294L586.667,294L613.333,297L640,288L666.667,294L693.333,294L720,291L746.667,276L773.333,297L800,297L800,300L773.333,300L746.667,285L720,300L693.333,297L666.667,297L640,294L613.333,300L586.667,297L560,300L533.333,300L506.667,294L480,300L453.333,300L426.667,297L400,294L373.333,297L346.667,300L320,300L293.333,291L266.667,300L240,300L213.333,300L186.667,300L160,300L133.333,300L106.667,300L80,300L53.333,300L26.667,300L0,300Z" fill="#9d755d"/></g></g><path class="foreground" aria-hidden="true" d="" display="none"/></g><g transform="translate(0,0)"><path class="background" aria-hidden="true" d="M0,0h800v300h-800Z"/><g><g class="mark-area role-mark marks" role="graphics-object" aria-roledescription="area mark container"><path aria-label="Date: Mar 16, 2026; Unique Clones/day: 0; Repository: karlmdavis/workstation-base-ansible-role" role="graphics-symbol" aria-roledescription="area mark" d="M0,300L26.667,300L53.333,300L80,300L106.667,300L133.333,300L160,300L186.667,300L213.333,300L240,300L266.667,300L293.333,291L320,300L346.667,300L373.333,297L400,294L426.667,297L453.333,300L480,300L506.667,294L533.333,300L560,300L586.667,297L613.333,300L640,294L666.667,297L693.333,297L720,300L746.667,285L773.333,300L800,300L800,300L773.333,300L746.667,294L720,300L693.333,300L666.667,297L640,297L613.333,300L586.667,297L560,300L533.333,300L506.667,297L480,300L453.333,300L426.667,300L400,297L373.333,300L346.667,300L320,300L293.333,297L266.667,300L240,300L213.333,300L186.667,300L160,300L133.333,300L106.667,300L80,300L53.333,300L26.667,300L0,300Z" fill="#bab0ac"/></g></g><path class="foreground" aria-hidden="true" d="" display="none"/></g><g transform="translate(0,0)"><path class="background" aria-hidden="true" d="M0,0h800v300h-800Z"/><g><g class="mark-area role-mark marks" role="graphics-object" aria-roledescription="area mark container"><path aria-label="Date: Mar 16, 2026; Unique Clones/day: 0; Repository: karlmdavis/xmlpull" role="graphics-symbol" aria-roledescription="area mark" d="M0,300L26.667,300L53.333,300L80,300L106.667,300L133.333,300L160,300L186.667,300L213.333,300L240,300L266.667,300L293.333,297L320,300L346.667,300L373.333,300L400,297L426.667,300L453.333,300L480,300L506.667,297L533.333,300L560,300L586.667,297L613.333,300L640,297L666.667,297L693.333,300L720,300L746.667,294L773.333,300L800,300L800,300L773.333,300L746.667,300L720,300L693.333,300L666.667,300L640,300L613.333,300L586.667,300L560,300L533.333,300L506.667,300L480,300L453.333,300L426.667,300L400,300L373.333,300L346.667,300L320,300L293.333,300L266.667,300L240,300L213.333,300L186.667,300L160,300L133.333,300L106.667,300L80,300L53.333,300L26.667,300L0,300Z" fill="#4c78a8"/></g></g><path class="foreground" aria-hidden="true" d="" display="none"/></g></g><g class="mark-group role-legend" role="graphics-symbol" aria-roledescription="legend" aria-label="Symbol legend titled 'Repository' for fill color with 41 values: karlmdavis/FHIR-Server, karlmdavis/ansible, karlmdavis/ansible-jenkins, karlmdavis/ansible-role-acmetool, karlmdavis/ansible-role-bind-dns, ending with karlmdavis/xmlpull"><g transform="translate(818,0)"><path class="background" aria-hidden="true" d="M0,0h176v404h-176Z" pointer-events="none"/><g><g class="mark-group role-legend-entry"><g transform="translate(0,16)"><path class="background" aria-hidden="true" d="M0,0h0v0h0Z" pointer-events="none"/><g><g class="mark-group role-scope" role="graphics-object" aria-roledescription="group mark container"><g transform="translate(0,0)"><path class="background" aria-hidden="true" d="M0,0h176v11h-176Z" pointer-events="none" opacity="1"/><g><g class="mark-symbol role-legend-symbol" pointer-events="none"><path transform="translate(6,6)" d="M5,0A5,5,0,1,1,-5,0A5,5,0,1,1,5,0" fill="#4c78a8" stroke-width="1.5" opacity="1"/></g><g class="mark-text role-legend-label" pointer-events="none"><text text-anchor="start" transform="translate(16,9)" font-family="sans-serif" font-size="10px" fill="#000" opacity="1">karlmdavis/FHIR-Server</text></g></g><path class="foreground" aria-hidden="true" d="" pointer-events="none" display="none"/></g><g transform="translate(0,13)"><path class="background" aria-hidden="true" d="M0,0h176v11h-176Z" pointer-events="none" opacity="1"/><g><g class="mark-symbol role-legend-symbol" pointer-events="none"><path transform="translate(6,6)" d="M5,0A5,5,0,1,1,-5,0A5,5,0,1,1,5,0" fill="#f58518" stroke-width="1.5" opacity="1"/></g><g class="mark-text role-legend-label" pointer-events="none"><text text-anchor="start" transform="translate(16,9)" font-family="sans-serif" font-size="10px" fill="#000" opacity="1">karlmdavis/ansible</text></g></g><path class="foreground" aria-hidden="true" d="" pointer-events="none" display="none"/></g><g transform="translate(0,26)"><path class="background" aria-hidden="true" d="M0,0h176v11h-176Z" pointer-events="none" opacity="1"/><g><g class="mark-symbol role-legend-symbol" pointer-events="none"><path transform="translate(6,6)" d="M5,0A5,5,0,1,1,-5,0A5,5,0,1,1,5,0" fill="#e45756" stroke-width="1.5" opacity="1"/></g><g class="mark-text role-legend-label" pointer-events="none"><text text-anchor="start" transform="translate(16,9)" font-family="sans-serif" font-size="10px" fill="#000" opacity="1">karlmdavis/ansible-jenkins</text></g></g><path class="foreground" aria-hidden="true" d="" pointer-events="none" display="none"/></g><g transform="translate(0,39)"><path class="background" aria-hidden="true" d="M0,0h176v11h-176Z" pointer-events="none" opacity="1"/><g><g class="mark-symbol role-legend-symbol" pointer-events="none"><path transform="translate(6,6)" d="M5,0A5,5,0,1,1,-5,0A5,5,0,1,1,5,0" fill="#72b7b2" stroke-width="1.5" opacity="1"/></g><g class="mark-text role-legend-label" pointer-events="none"><text text-anchor="start" transform="translate(16,9)" font-family="sans-serif" font-size="10px" fill="#000" opacity="1">karlmdavis/ansible-role-acmetool</text></g></g><path class="foreground" aria-hidden="true" d="" pointer-events="none" display="none"/></g><g transform="translate(0,52)"><path class="background" aria-hidden="true" d="M0,0h176v11h-176Z" pointer-events="none" opacity="1"/><g><g class="mark-symbol role-legend-symbol" pointer-events="none"><path transform="translate(6,6)" d="M5,0A5,5,0,1,1,-5,0A5,5,0,1,1,5,0" fill="#54a24b" stroke-width="1.5" opacity="1"/></g><g class="mark-text role-legend-label" pointer-events="none"><text text-anchor="start" transform="translate(16,9)" font-family="sans-serif" font-size="10px" fill="#000" opacity="1">karlmdavis/ansible-role-bind-dns</text></g></g><path class="foreground" aria-hidden="true" d="" pointer-events="none" display="none"/></g><g transform="translate(0,65)"><path class="background" aria-hidden="true" d="M0,0h176v11h-176Z" pointer-events="none" opacity="1"/><g><g class="mark-symbol role-legend-symbol" pointer-events="none"><path transform="translate(6,6)" d="M5,0A5,5,0,1,1,-5,0A5,5,0,1,1,5,0" fill="#eeca3b" stroke-width="1.5" opacity="1"/></g><g class="mark-text role-legend-label" pointer-events="none"><text text-anchor="start" transform="translate(16,9)" font-family="sans-serif" font-size="10px" fill="#000" opacity="1">karlmdavis/ansible-role-jenkins2</text></g></g><path class="foreground" aria-hidden="true" d="" pointer-events="none" display="none"/></g><g transform="translate(0,78)"><path class="background" aria-hidden="true" d="M0,0h176v11h-176Z" pointer-events="none" opacity="1"/><g><g class="mark-symbol role-legend-symbol" pointer-events="none"><path transform="translate(6,6)" d="M5,0A5,5,0,1,1,-5,0A5,5,0,1,1,5,0" fill="#b279a2" stroke-width="1.5" opacity="1"/></g><g class="mark-text role-legend-label" pointer-events="none"><text text-anchor="start" transform="translate(16,9)" font-family="sans-serif" font-size="10px" fill="#000" opacity="1">karlmdavis/ansible-role-ldap</text></g></g><path class="foreground" aria-hidden="true" d="" pointer-events="none" display="none"/></g><g transform="translate(0,91)"><path class="background" aria-hidden="true" d="M0,0h176v11h-176Z" pointer-events="none" opacity="1"/><g><g class="mark-symbol role-legend-symbol" pointer-events="none"><path transform="translate(6,6)" d="M5,0A5,5,0,1,1,-5,0A5,5,0,1,1,5,0" fill="#ff9da6" stroke-width="1.5" opacity="1"/></g><g class="mark-text role-legend-label" pointer-events="none"><text text-anchor="start" transform="translate(16,9)" font-family="sans-serif" font-size="10px" fill="#000" opacity="1">karlmdavis/ansible-role-rcm-dotfiles</text></g></g><path class="foreground" aria-hidden="true" d="" pointer-events="none" display="none"/></g><g transform="translate(0,104)"><path class="background" aria-hidden="true" d="M0,0h176v11h-176Z" pointer-events="none" opacity="1"/><g><g class="mark-symbol role-legend-symbol" pointer-events="none"><path transform="translate(6,6)" d="M5,0A5,5,0,1,1,-5,0A5,5,0,1,1,5,0" fill="#9d755d" stroke-width="1.5" opacity="1"/></g><g class="mark-text role-legend-label" pointer-events="none"><text text-anchor="start" transform="translate(16,9)" font-family="sans-serif" font-size="10px" fill="#000" opacity="1">karlmdavis/ansible-roles</text></g></g><path class="foreground" aria-hidden="true" d="" pointer-events="none" display="none"/></g><g transform="translate(0,117)"><path class="background" aria-hidden="true" d="M0,0h176v11h-176Z" pointer-events="none" opacity="1"/><g><g class="mark-symbol role-legend-symbol" pointer-events="none"><path transform="translate(6,6)" d="M5,0A5,5,0,1,1,-5,0A5,5,0,1,1,5,0" fill="#bab0ac" stroke-width="1.5" opacity="1"/></g><g class="mark-text role-legend-label" pointer-events="none"><text text-anchor="start" transform="translate(16,9)" font-family="sans-serif" font-size="10px" fill="#000" opacity="1">karlmdavis/bbonfhir-dev-infra-doc…</text></g></g><path class="foreground" aria-hidden="true" d="" pointer-events="none" display="none"/></g><g transform="translate(0,130)"><path class="background" aria-hidden="true" d="M0,0h176v11h-176Z" pointer-events="none" opacity="1"/><g><g class="mark-symbol role-legend-symbol" pointer-events="none"><path transform="translate(6,6)" d="M5,0A5,5,0,1,1,-5,0A5,5,0,1,1,5,0" fill="#4c78a8" stroke-width="1.5" opacity="1"/></g><g class="mark-text role-legend-label" pointer-events="none"><text text-anchor="start" transform="translate(16,9)" font-family="sans-serif" font-size="10px" fill="#000" opacity="1">karlmdavis/can-i-kayak-baltimore</text></g></g><path class="foreground" aria-hidden="true" d="" pointer-events="none" display="none"/></g><g transform="translate(0,143)"><path class="background" aria-hidden="true" d="M0,0h176v11h-176Z" pointer-events="none" opacity="1"/><g><g class="mark-symbol role-legend-symbol" pointer-events="none"><path transform="translate(6,6)" d="M5,0A5,5,0,1,1,-5,0A5,5,0,1,1,5,0" fill="#f58518" stroke-width="1.5" opacity="1"/></g><g class="mark-text role-legend-label" pointer-events="none"><text text-anchor="start" transform="translate(16,9)" font-family="sans-serif" font-size="10px" fill="#000" opacity="1">karlmdavis/datanucleus-test-jdo-1…</text></g></g><path class="foreground" aria-hidden="true" d="" pointer-events="none" display="none"/></g><g transform="translate(0,156)"><path class="background" aria-hidden="true" d="M0,0h176v11h-176Z" pointer-events="none" opacity="1"/><g><g class="mark-symbol role-legend-symbol" pointer-events="none"><path transform="translate(6,6)" d="M5,0A5,5,0,1,1,-5,0A5,5,0,1,1,5,0" fill="#e45756" stroke-width="1.5" opacity="1"/></g><g class="mark-text role-legend-label" pointer-events="none"><text text-anchor="start" transform="translate(16,9)" font-family="sans-serif" font-size="10px" fill="#000" opacity="1">karlmdavis/dotfiles</text></g></g><path class="foreground" aria-hidden="true" d="" pointer-events="none" display="none"/></g><g transform="translate(0,169)"><path class="background" aria-hidden="true" d="M0,0h176v11h-176Z" pointer-events="none" opacity="1"/><g><g class="mark-symbol role-legend-symbol" pointer-events="none"><path transform="translate(6,6)" d="M5,0A5,5,0,1,1,-5,0A5,5,0,1,1,5,0" fill="#72b7b2" stroke-width="1.5" opacity="1"/></g><g class="mark-text role-legend-label" pointer-events="none"><text text-anchor="start" transform="translate(16,9)" font-family="sans-serif" font-size="10px" fill="#000" opacity="1">karlmdavis/fhir-benchmarks</text></g></g><path class="foreground" aria-hidden="true" d="" pointer-events="none" display="none"/></g><g transform="translate(0,182)"><path class="background" aria-hidden="true" d="M0,0h176v11h-176Z" pointer-events="none" opacity="1"/><g><g class="mark-symbol role-legend-symbol" pointer-events="none"><path transform="translate(6,6)" d="M5,0A5,5,0,1,1,-5,0A5,5,0,1,1,5,0" fill="#54a24b" stroke-width="1.5" opacity="1"/></g><g class="mark-text role-legend-label" pointer-events="none"><text text-anchor="start" transform="translate(16,9)" font-family="sans-serif" font-size="10px" fill="#000" opacity="1">karlmdavis/hapi-fhir-jpaserver-sta…</text></g></g><path class="foreground" aria-hidden="true" d="" pointer-events="none" display="none"/></g><g transform="translate(0,195)"><path class="background" aria-hidden="true" d="M0,0h176v11h-176Z" pointer-events="none" opacity="1"/><g><g class="mark-symbol role-legend-symbol" pointer-events="none"><path transform="translate(6,6)" d="M5,0A5,5,0,1,1,-5,0A5,5,0,1,1,5,0" fill="#eeca3b" stroke-width="1.5" opacity="1"/></g><g class="mark-text role-legend-label" pointer-events="none"><text text-anchor="start" transform="translate(16,9)" font-family="sans-serif" font-size="10px" fill="#000" opacity="1">karlmdavis/hello-rust-actix</text></g></g><path class="foreground" aria-hidden="true" d="" pointer-events="none" display="none"/></g><g transform="translate(0,208)"><path class="background" aria-hidden="true" d="M0,0h176v11h-176Z" pointer-events="none" opacity="1"/><g><g class="mark-symbol role-legend-symbol" pointer-events="none"><path transform="translate(6,6)" d="M5,0A5,5,0,1,1,-5,0A5,5,0,1,1,5,0" fill="#b279a2" stroke-width="1.5" opacity="1"/></g><g class="mark-text role-legend-label" pointer-events="none"><text text-anchor="start" transform="translate(16,9)" font-family="sans-serif" font-size="10px" fill="#000" opacity="1">karlmdavis/jessentials</text></g></g><path class="foreground" aria-hidden="true" d="" pointer-events="none" display="none"/></g><g transform="translate(0,221)"><path class="background" aria-hidden="true" d="M0,0h176v11h-176Z" pointer-events="none" opacity="1"/><g><g class="mark-symbol role-legend-symbol" pointer-events="none"><path transform="translate(6,6)" d="M5,0A5,5,0,1,1,-5,0A5,5,0,1,1,5,0" fill="#ff9da6" stroke-width="1.5" opacity="1"/></g><g class="mark-text role-legend-label" pointer-events="none"><text text-anchor="start" transform="translate(16,9)" font-family="sans-serif" font-size="10px" fill="#000" opacity="1">karlmdavis/justdavis-ansible</text></g></g><path class="foreground" aria-hidden="true" d="" pointer-events="none" display="none"/></g><g transform="translate(0,234)"><path class="background" aria-hidden="true" d="M0,0h176v11h-176Z" pointer-events="none" opacity="1"/><g><g class="mark-symbol role-legend-symbol" pointer-events="none"><path transform="translate(6,6)" d="M5,0A5,5,0,1,1,-5,0A5,5,0,1,1,5,0" fill="#9d755d" stroke-width="1.5" opacity="1"/></g><g class="mark-text role-legend-label" pointer-events="none"><text text-anchor="start" transform="translate(16,9)" font-family="sans-serif" font-size="10px" fill="#000" opacity="1">karlmdavis/justdavis-finances</text></g></g><path class="foreground" aria-hidden="true" d="" pointer-events="none" display="none"/></g><g transform="translate(0,247)"><path class="background" aria-hidden="true" d="M0,0h176v11h-176Z" pointer-events="none" opacity="1"/><g><g class="mark-symbol role-legend-symbol" pointer-events="none"><path transform="translate(6,6)" d="M5,0A5,5,0,1,1,-5,0A5,5,0,1,1,5,0" fill="#bab0ac" stroke-width="1.5" opacity="1"/></g><g class="mark-text role-legend-label" pointer-events="none"><text text-anchor="start" transform="translate(16,9)" font-family="sans-serif" font-size="10px" fill="#000" opacity="1">karlmdavis/justdavis-karl</text></g></g><path class="foreground" aria-hidden="true" d="" pointer-events="none" display="none"/></g><g transform="translate(0,260)"><path class="background" aria-hidden="true" d="M0,0h176v11h-176Z" pointer-events="none" opacity="1"/><g><g class="mark-symbol role-legend-symbol" pointer-events="none"><path transform="translate(6,6)" d="M5,0A5,5,0,1,1,-5,0A5,5,0,1,1,5,0" fill="#4c78a8" stroke-width="1.5" opacity="1"/></g><g class="mark-text role-legend-label" pointer-events="none"><text text-anchor="start" transform="translate(16,9)" font-family="sans-serif" font-size="10px" fill="#000" opacity="1">karlmdavis/justdavis-puppet</text></g></g><path class="foreground" aria-hidden="true" d="" pointer-events="none" display="none"/></g><g transform="translate(0,273)"><path class="background" aria-hidden="true" d="M0,0h176v11h-176Z" pointer-events="none" opacity="1"/><g><g class="mark-symbol role-legend-symbol" pointer-events="none"><path transform="translate(6,6)" d="M5,0A5,5,0,1,1,-5,0A5,5,0,1,1,5,0" fill="#f58518" stroke-width="1.5" opacity="1"/></g><g class="mark-text role-legend-label" pointer-events="none"><text text-anchor="start" transform="translate(16,9)" font-family="sans-serif" font-size="10px" fill="#000" opacity="1">karlmdavis/kobjects</text></g></g><path class="foreground" aria-hidden="true" d="" pointer-events="none" display="none"/></g><g transform="translate(0,286)"><path class="background" aria-hidden="true" d="M0,0h176v11h-176Z" pointer-events="none" opacity="1"/><g><g class="mark-symbol role-legend-symbol" pointer-events="none"><path transform="translate(6,6)" d="M5,0A5,5,0,1,1,-5,0A5,5,0,1,1,5,0" fill="#e45756" stroke-width="1.5" opacity="1"/></g><g class="mark-text role-legend-label" pointer-events="none"><text text-anchor="start" transform="translate(16,9)" font-family="sans-serif" font-size="10px" fill="#000" opacity="1">karlmdavis/ksoap2-android</text></g></g><path class="foreground" aria-hidden="true" d="" pointer-events="none" display="none"/></g><g transform="translate(0,299)"><path class="background" aria-hidden="true" d="M0,0h176v11h-176Z" pointer-events="none" opacity="1"/><g><g class="mark-symbol role-legend-symbol" pointer-events="none"><path transform="translate(6,6)" d="M5,0A5,5,0,1,1,-5,0A5,5,0,1,1,5,0" fill="#72b7b2" stroke-width="1.5" opacity="1"/></g><g class="mark-text role-legend-label" pointer-events="none"><text text-anchor="start" transform="translate(16,9)" font-family="sans-serif" font-size="10px" fill="#000" opacity="1">karlmdavis/kxml2</text></g></g><path class="foreground" aria-hidden="true" d="" pointer-events="none" display="none"/></g><g transform="translate(0,312)"><path class="background" aria-hidden="true" d="M0,0h176v11h-176Z" pointer-events="none" opacity="1"/><g><g class="mark-symbol role-legend-symbol" pointer-events="none"><path transform="translate(6,6)" d="M5,0A5,5,0,1,1,-5,0A5,5,0,1,1,5,0" fill="#54a24b" stroke-width="1.5" opacity="1"/></g><g class="mark-text role-legend-label" pointer-events="none"><text text-anchor="start" transform="translate(16,9)" font-family="sans-serif" font-size="10px" fill="#000" opacity="1">karlmdavis/ldap-plugin</text></g></g><path class="foreground" aria-hidden="true" d="" pointer-events="none" display="none"/></g><g transform="translate(0,325)"><path class="background" aria-hidden="true" d="M0,0h176v11h-176Z" pointer-events="none" opacity="1"/><g><g class="mark-symbol role-legend-symbol" pointer-events="none"><path transform="translate(6,6)" d="M5,0A5,5,0,1,1,-5,0A5,5,0,1,1,5,0" fill="#eeca3b" stroke-width="1.5" opacity="1"/></g><g class="mark-text role-legend-label" pointer-events="none"><text text-anchor="start" transform="translate(16,9)" font-family="sans-serif" font-size="10px" fill="#000" opacity="1">karlmdavis/lego-ev3dev-rs</text></g></g><path class="foreground" aria-hidden="true" d="" pointer-events="none" display="none"/></g><g transform="translate(0,338)"><path class="background" aria-hidden="true" d="M0,0h176v11h-176Z" pointer-events="none" opacity="1"/><g><g class="mark-symbol role-legend-symbol" pointer-events="none"><path transform="translate(6,6)" d="M5,0A5,5,0,1,1,-5,0A5,5,0,1,1,5,0" fill="#b279a2" stroke-width="1.5" opacity="1"/></g><g class="mark-text role-legend-label" pointer-events="none"><text text-anchor="start" transform="translate(16,9)" font-family="sans-serif" font-size="10px" fill="#000" opacity="1">karlmdavis/liquibase</text></g></g><path class="foreground" aria-hidden="true" d="" pointer-events="none" display="none"/></g><g transform="translate(0,351)"><path class="background" aria-hidden="true" d="M0,0h176v11h-176Z" pointer-events="none" opacity="1"/><g><g class="mark-symbol role-legend-symbol" pointer-events="none"><path transform="translate(6,6)" d="M5,0A5,5,0,1,1,-5,0A5,5,0,1,1,5,0" fill="#ff9da6" stroke-width="1.5" opacity="1"/></g><g class="mark-text role-legend-label" pointer-events="none"><text text-anchor="start" transform="translate(16,9)" font-family="sans-serif" font-size="10px" fill="#000" opacity="1">karlmdavis/m2e-core</text></g></g><path class="foreground" aria-hidden="true" d="" pointer-events="none" display="none"/></g><g transform="translate(0,364)"><path class="background" aria-hidden="true" d="M0,0h176v11h-176Z" pointer-events="none" opacity="1"/><g><g class="mark-symbol role-legend-symbol" pointer-events="none"><path transform="translate(6,6)" d="M5,0A5,5,0,1,1,-5,0A5,5,0,1,1,5,0" fill="#9d755d" stroke-width="1.5" opacity="1"/></g><g class="mark-text role-legend-label" pointer-events="none"><text text-anchor="start" transform="translate(16,9)" font-family="sans-serif" font-size="10px" fill="#000" opacity="1">karlmdavis/m2e-core-tests</text></g></g><path class="foreground" aria-hidden="true" d="" pointer-events="none" display="none"/></g><g transform="translate(0,377)"><path class="background" aria-hidden="true" d="M0,0h176v11h-176Z" pointer-events="none" opacity="1"/><g><g class="mark-symbol role-legend-symbol" pointer-events="none"><path transform="translate(6,6)" d="M5,0A5,5,0,1,1,-5,0A5,5,0,1,1,5,0" fill="#bab0ac" stroke-width="1.5" opacity="1"/></g><g class="mark-text role-legend-label" pointer-events="none"><text text-anchor="start" transform="translate(16,9)" font-family="sans-serif" font-size="10px" fill="#000" opacity="1">…12 entries</text></g></g><path class="foreground" aria-hidden="true" d="" pointer-events="none" display="none"/></g></g></g><path class="foreground" aria-hidden="true" d="" pointer-events="none" display="none"/></g></g><g class="mark-text role-legend-title" pointer-events="none"><text text-anchor="start" transform="translate(0,9)" font-family="sans-serif" font-size="11px" font-weight="bold" fill="#000" opacity="1">Repository</text></g></g><path class="foreground" aria-hidden="true" d="" pointer-events="none" display="none"/></g></g><g class="mark-group role-title"><g transform="translate(400,-22)"><path class="background" aria-hidden="true" d="M0,0h0v0h0Z" pointer-events="none"/><g><g class="mark-text role-title-text" role="graphics-symbol" aria-roledescription="title" aria-label="Title text 'Unique Clones per Day'" pointer-events="none"><text text-anchor="middle" transform="translate(0,10)" font-family="sans-serif" font-size="13px" font-weight="bold" fill="#000" opacity="1">Unique Clones per Day</text></g></g><path class="foreground" aria-hidden="true" d="" pointer-events="none" display="none"/></g></g></g><path class="foreground" aria-hidden="true" d="" display="none"/></g></g></g></svg>