<svg xmlns="http://www.w3.org/2000/svg" xmlns:xlink="http://www.w3.org/1999/xlink" version="1.1" class="marks" width="1043" height="436" viewBox="0 0 1043 436"><rect width="1043" height="436" fill="white"/><g fill="none" stroke-miterlimit="10" transform="translate(44,27)"><g class="mark-group role-frame root" role="graphics-object" aria-roledescription="group mark container"><g transform="translate(0,0)"><path class="background" aria-hidden="true" d="M0.5,0.5h800v300h-800Z" stroke="#ddd"/><g><g class="mark-group role-axis" aria-hidden="true"><g transform="translate(0.5,300.5)"><path class="background" aria-hidden="true" d="M0,0h0v0h0Z" pointer-events="none"/><g><g class="mark-rule role-axis-grid" pointer-events="none"><line transform="translate(24,-300)" x2="0" y2="300" stroke="#ddd" stroke-width="1" opacity="1"/><line transform="translate(73,-300)" x2="0" y2="300" stroke="#ddd" stroke-width="1" opacity="1"/><line transform="translate(121,-300)" x2="0" y2="300" stroke="#ddd" stroke-width="1" opacity="1"/><line transform="translate(170,-300)" x2="0" y2="300" stroke="#ddd" stroke-width="1" opacity="1"/><line transform="translate(218,-300)" x2="0" y2="300" stroke="#ddd" stroke-width="1" opacity="1"/><line transform="translate(267,-300)" x2="0" y2="300" stroke="#ddd" stroke-width="1" opacity="1"/><line transform="translate(315,-300)" x2="0" y2="300" stroke="#ddd" stroke-width="1" opacity="1"/><line transform="translate(364,-300)" x2="0" y2="300" stroke="#ddd" stroke-width="1" opacity="1"/><line transform="translate(388,-300)" x2="0" y2="300" stroke="#ddd" stroke-width="1" opacity="1"/><line transform="translate(436,-300)" x2="0" y2="300" stroke="#ddd" stroke-width="1" opacity="1"/><line transform="translate(485,-300)" x2="0" y2="300" stroke="#ddd" stroke-width="1" opacity="1"/><line transform="translate(533,-300)" x2="0" y2="300" stroke="#ddd" stroke-width="1" opacity="1"/><line transform="translate(582,-300)" x2="0" y2="300" stroke="#ddd" stroke-width="1" opacity="1"/><line transform="translate(630,-300)" x2="0" y2="300" stroke="#ddd" stroke-width="1" opacity="1"/><line transform="translate(679,-300)" x2="0" y2="300" stroke="#ddd" stroke-width="1" opacity="1"/><line transform="translate(727,-300)" x2="0" y2="300" stroke="#ddd" stroke-width="1" opacity="1"/><line transform="translate(776,-300)" x2="0" y2="300" stroke="#ddd" stroke-width="1" opacity="1"/></g></g><path class="foreground" aria-hidden="true" d="" pointer-events="none" display="none"/></g></g><g class="mark-group role-axis" aria-hidden="true"><g transform="translate(0.5,0.5)"><path class="background" aria-hidden="true" d="M0,0h0v0h0Z" pointer-events="none"/><g><g class="mark-rule role-axis-grid" pointer-events="none"><line transform="translate(0,300)" x2="800" y2="0" stroke="#ddd" stroke-width="1" opacity="1"/><line transform="translate(0,270)" x2="800" y2="0" stroke="#ddd" stroke-width="1" opacity="1"/><line transform="translate(0,240)" x2="800" y2="0" stroke="#ddd" stroke-width="1" opacity="1"/><line transform="translate(0,210)" x2="800" y2="0" stroke="#ddd" stroke-width="1" opacity="1"/><line transform="translate(0,180)" x2="800" y2="0" stroke="#ddd" stroke-width="1" opacity="1"/><line transform="translate(0,150)" x2="800" y2="0" stroke="#ddd" stroke-width="1" opacity="1"/><line transform="translate(0,120)" x2="800" y2="0" stroke="#ddd" stroke-width="1" opacity="1"/><line transform="translate(0,90)" x2="800" y2="0" stroke="#ddd" stroke-width="1" opacity="1"/><line transform="translate(0,60)" x2="800" y2="0" stroke="#ddd" stroke-width="1" opacity="1"/><line transform="translate(0,30)" x2="800" y2="0" stroke="#ddd" stroke-width="1" opacity="1"/><line transform="translate(0,0)" x2="800" y2="0" stroke="#ddd" stroke-width="1" opacity="1"/></g></g><path class="foreground" aria-hidden="true" d="" pointer-events="none" display="none"/></g></g><g class="mark-group role-axis" role="graphics-symbol" aria-roledescription="axis" aria-label="X-axis titled 'Date' for a time scale with values from Monday, 16 March 2026, 12:00:00 AM to Saturday, 18 April 2026, 12:00:00 AM"><g transform="translate(0.5,300.5)"><path class="background" aria-hidden="true" d="M0,0h0v0h0Z" pointer-events="none"/><g><g class="mark-rule role-axis-tick" pointer-events="none"><line transform="translate(24,0)" x2="0" y2="5" stroke="#888" stroke-width="1" opacity="1"/><line transform="translate(73,0)" x2="0" y2="5" stroke="#888" stroke-width="1" opacity="1"/><line transform="translate(121,0)" x2="0" y2="5" stroke="#888" stroke-width="1" opacity="1"/><line transform="translate(170,0)" x2="0" y2="5" stroke="#888" stroke-width="1" opacity="1"/><line transform="translate(218,0)" x2="0" y2="5" stroke="#888" stroke-width="1" opacity="1"/><line transform="translate(267,0)" x2="0" y2="5" stroke="#888" stroke-width="1" opacity="1"/><line transform="translate(315,0)" x2="0" y2="5" stroke="#888" stroke-width="1" opacity="1"/><line transform="translate(364,0)" x2="0" y2="5" stroke="#888" stroke-width="1" opacity="1"/><line transform="translate(388,0)" x2="0" y2="5" stroke="#888" stroke-width="1" opacity="1"/><line transform="translate(436,0)" x2="0" y2="5" stroke="#888" stroke-width="1" opacity="1"/><line transform="translate(485,0)" x2="0" y2="5" stroke="#888" stroke-width="1" opacity="1"/><line transform="translate(533,0)" x2="0" y2="5" stroke="#888" stroke-width="1" opacity="1"/><line transform="translate(582,0)" x2="0" y2="5" stroke="#888" stroke-width="1" opacity="1"/><line transform="translate(630,0)" x2="0" y2="5" stroke="#888" stroke-width="1" opacity="1"/><line transform="translate(679,0)" x2="0" y2="5" stroke="#888" stroke-width="1" opacity="1"/><line transform="translate(727,0)" x2="0" y2="5" stroke="#888" stroke-width="1" opacity="1"/><line transform="translate(776,0)" x2="0" y2="5" stroke="#888" stroke-width="1" opacity="1"/></g><g class="mark-text role-axis-label" pointer-events="none"><text text-anchor="middle" transform="translate(24.242424242424242,15)" font-family="sans-serif" font-size="10px" fill="#000" opacity="1">Tue 17</text><text text-anchor="middle" transform="translate(72.72727272727273,15)" font-family="sans-serif" font-size="10px" fill="#000" opacity="0">Thu 19</text><text text-anchor="middle" transform="translate(121.21212121212122,15)" font-family="sans-serif" font-size="10px" fill="#000" opacity="1">Sat 21</text><text text-anchor="middle" transform="translate(169.6969696969697,15)" font-family="sans-serif" font-size="10px" fill="#000" opacity="0">Mon 23</text><text text-anchor="middle" transform="translate(218.18181818181816,15)" font-family="sans-serif" font-size="10px" fill="#000" opacity="1">Wed 25</text><text text-anchor="middle" transform="translate(266.66666666666663,15)" font-family="sans-serif" font-size="10px" fill="#000" opacity="0">Fri 27</text><text text-anchor="middle" transform="translate(315.1515151515151,15)" font-family="sans-serif" font-size="10px" fill="#000" opacity="1">Mar 29</text><text text-anchor="middle" transform="translate(363.6363636363636,15)" font-family="sans-serif" font-size="10px" fill="#000" opacity="0">Tue 31</text><text text-anchor="middle" transform="translate(387.8787878787879,15)" font-family="sans-serif" font-size="10px" fill="#000" opacity="1">April</text><text text-anchor="middle" transform="translate(436.3636363636363,15)" font-family="sans-serif" font-size="10px" fill="#000" opacity="0">Fri 03</text><text text-anchor="middle" transform="translate(484.8484848484849,15)" font-family="sans-serif" font-size="10px" fill="#000" opacity="1">Apr 05</text><text text-anchor="middle" transform="translate(533.3333333333333,15)" font-family="sans-serif" font-size="10px" fill="#000" opacity="0">Tue 07</text><text text-anchor="middle" transform="translate(581.8181818181819,15)" font-family="sans-serif" font-size="10px" fill="#000" opacity="1">Thu 09</text><text text-anchor="middle" transform="translate(630.3030303030303,15)" font-family="sans-serif" font-size="10px" fill="#000" opacity="0">Sat 11</text><text text-anchor="middle" transform="translate(678.7878787878788,15)" font-family="sans-serif" font-size="10px" fill="#000" opacity="1">Mon 13</text><text text-anchor="middle" transform="translate(727.2727272727273,15)" font-family="sans-serif" font-size="10px" fill="#000" opacity="0">Wed 15</text><text text-anchor="middle" transform="translate(775.7575757575758,15)" font-family="sans-serif" font-size="10px" fill="#000" opacity="1">Fri 17</text></g><g class="mark-rule role-axis-domain" pointer-events="none"><line transform="translate(0,0)" x2="800" y2="0" stroke="#888" stroke-width="1" opacity="1"/></g><g class="mark-text role-axis-title" pointer-events="none"><text text-anchor="middle" transform="translate(400,30)" font-family="sans-serif" font-size="11px" font-weight="bold" fill="#000" opacity="1">Date</text></g></g><path class="foreground" aria-hidden="true" d="" pointer-events="none" display="none"/></g></g><g class="mark-group role-axis" role="graphics-symbol" aria-roledescription="axis" aria-label="Y-axis titled 'Unique Clones/day' for a linear scale with values from 0 to 100"><g transform="translate(0.5,0.5)"><path class="background" aria-hidden="true" d="M0,0h0v0h0Z" pointer-events="none"/><g><g class="mark-rule role-axis-tick" pointer-events="none"><line transform="translate(0,300)" x2="-5" y2="0" stroke="#888" stroke-width="1" opacity="1"/><line transform="translate(0,270)" x2="-5" y2="0" stroke="#888" stroke-width="1" opacity="1"/><line transform="translate(0,240)" x2="-5" y2="0" stroke="#888" stroke-width="1" opacity="1"/><line transform="translate(0,210)" x2="-5" y2="0" stroke="#888" stroke-width="1" opacity="1"/><line transform="translate(0,180)" x2="-5" y2="0" stroke="#888" stroke-width="1" opacity="1"/><line transform="translate(0,150)" x2="-5" y2="0" stroke="#888" stroke-width="1" opacity="1"/><line transform="translate(0,120)" x2="-5" y2="0" stroke="#888" stroke-width="1" opacity="1"/><line transform="translate(0,90)" x2="-5" y2="0" stroke="#888" stroke-width="1" opacity="1"/><line transform="translate(0,60)" x2="-5" y2="0" stroke="#888" stroke-width="1" opacity="1"/><line transform="translate(0,30)" x2="-5" y2="0" stroke="#888" stroke-width="1" opacity="1"/><line transform="translate(0,0)" x2="-5" y2="0" stroke="#888" stroke-width="1" opacity="1"/></g><g class="mark-text role-axis-label" pointer-events="none"><text text-anchor="end" transform="translate(-7,303)" font-family="sans-serif" font-size="10px" fill="#000" opacity="1">0</text><text text-anchor="end" transform="translate(-7,273)" font-family="sans-serif" font-size="10px" fill="#000" opacity="1">10</text><text text-anchor="end" transform="translate(-7,243)" font-family="sans-serif" font-size="10px" fill="#000" opacity="1">20</text><text text-anchor="end" transform="translate(-7,213)" font-family="sans-serif" font-size="10px" fill="#000" opacity="1">30</text><text text-anchor="end" transform="translate(-7,183)" font-family="sans-serif" font-size="10px" fill="#000" opacity="1">40</text><text text-anchor="end" transform="translate(-7,153)" font-family="sans-serif" font-size="10px" fill="#000" opacity="1">50</text><text text-anchor="end" transform="translate(-7,123)" font-family="sans-serif" font-size="10px" fill="#000" opacity="1">60</text><text text-anchor="end" transform="translate(-7,93.00000000000001)" font-family="sans-serif" font-size="10px" fill="#000" opacity="1">70</text><text text-anchor="end" transform="translate(-7,62.999999999999986)" font-family="sans-serif" font-size="10px" fill="#000" opacity="1">80</text><text text-anchor="end" transform="translate(-7,32.99999999999999)" font-family="sans-serif" font-size="10px" fill="#000" opacity="1">90</text><text text-anchor="end" transform="translate(-7,3)" font-family="sans-serif" font-size="10px" fill="#000" opacity="1">100</text></g><g class="mark-rule role-axis-domain" pointer-events="none"><line transform="translate(0,300)" x2="0" y2="-300" stroke="#888" stroke-width="1" opacity="1"/></g><g class="mark-text role-axis-title" pointer-events="none"><text text-anchor="middle" transform="translate(-27.6845703125,150) rotate(-90) translate(0,-2)" font-family="sans-serif" font-size="11px" font-weight="bold" fill="#000" opacity="1">Unique Clones/day</text></g></g><path class="foreground" aria-hidden="true" d="" pointer-events="none" display="none"/></g></g><g class="mark-group role-scope pathgroup" role="graphics-object" aria-roledescription="group mark container"><g transform="translate(0,0)"><path class="background" aria-hidden="true" d="M0,0h800v300h-800Z"/><g><g class="mark-area role-mark marks" role="graphics-object" aria-roledescription="area mark container"><path aria-label="Date: Mar 16, 2026; Unique Clones/day: 0; Repository: karlmdavis/FHIR-Server" role="graphics-symbol" aria-roledescription="area mark" d="M0,297L24.242,300L48.485,300L72.727,297L96.97,300L121.212,300L145.455,300L169.697,264L193.939,294L218.182,279L242.424,252L266.667,93L290.909,162L315.152,12L339.394,201L363.636,231L387.879,246L412.121,270L436.364,213L460.606,36L484.848,57L509.091,261L533.333,210L557.576,213L581.818,177L606.061,264L630.303,222L654.545,192L678.788,33L703.03,264L727.273,264L751.515,282L775.758,282L800,294L800,294L775.758,282L751.515,282L727.273,264L703.03,264L678.788,33L654.545,195L630.303,228L606.061,264L581.818,177L557.576,213L533.333,210L509.091,261L484.848,57L460.606,36L436.364,213L412.121,270L387.879,246L363.636,234L339.394,201L315.152,12L290.909,162L266.667,93L242.424,252L218.182,279L193.939,294L169.697,264L145.455,300L121.212,300L96.97,300L72.727,297L48.485,300L24.242,300L0,297Z" fill="#4c78a8"/></g></g><path class="foreground" aria-hidden="true" d="" display="none"/></g><g transform="translate(0,0)"><path class="background" aria-hidden="true" d="M0,0h800v300h-800Z"/><g><g class="mark-area role-mark marks" role="graphics-object" aria-roledescription="area mark container"><path aria-label="Date: Mar 16, 2026; Unique Clones/day: 1; Repository: karlmdavis/ansible" role="graphics-symbol" aria-roledescription="area mark" d="M0,297L24.242,300L48.485,300L72.727,297L96.97,300L121.212,300L145.455,300L169.697,264L193.939,294L218.182,279L242.424,252L266.667,93L290.909,162L315.152,12L339.394,201L363.636,234L387.879,246L412.121,270L436.364,213L460.606,36L484.848,57L509.091,261L533.333,210L557.576,213L581.818,177L606.061,264L630.303,228L654.545,195L678.788,33L703.03,264L727.273,264L751.515,282L775.758,282L800,294L800,294L775.758,282L751.515,282L727.273,264L703.03,267L678.788,33L654.545,195L630.303,228L606.061,264L581.818,177L557.576,213L533.333,210L509.091,261L484.848,57L460.606,36L436.364,213L412.121,270L387.879,246L363.636,234L339.394,201L315.152,12L290.909,162L266.667,93L242.424,252L218.182,279L193.939,294L169.697,264L145.455,300L121.212,300L96.97,300L72.727,297L48.485,300L24.242,300L0,300Z" fill="#f58518"/></g></g><path class="foreground" aria-hidden="true" d="" display="none"/></g><g transform="translate(0,0)"><path class="background" aria-hidden="true" d="M0,0h800v300h-800Z"/><g><g class="mark-area role-mark marks" role="graphics-object" aria-roledescription="area mark container"><path aria-label="Date: Mar 16, 2026; Unique Clones/day: 0; Repository: karlmdavis/ansible-jenkins" role="graphics-symbol" aria-roledescription="area mark" d="M0,300L24.242,300L48.485,300L72.727,297L96.97,300L121.212,300L145.455,300L169.697,264L193.939,294L218.182,279L242.424,252L266.667,93L290.909,162L315.152,12L339.394,201L363.636,234L387.879,246L412.121,270L436.364,213L460.606,36L484.848,57L509.091,261L533.333,210L557.576,213L581.818,177L606.061,264L630.303,228L654.545,195L678.788,33L703.03,267L727.273,264L751.515,282L775.758,282L800,294L800,294L775.758,282L751.515,282L727.273,264L703.03,267L678.788,33L654.545,198L630.303,228L606.061,264L581.818,177L557.576,213L533.333,210L509.091,261L484.848,57L460.606,39L436.364,216L412.121,270L387.879,246L363.636,234L339.394,201L315.152,12L290.909,162L266.667,93L242.424,255L218.182,279L193.939,294L169.697,264L145.455,300L121.212,300L96.97,300L72.727,297L48.485,300L24.242,300L0,300Z" fill="#e45756"/></g></g><path class="foreground" aria-hidden="true" d="" display="none"/></g><g transform="translate(0,0)"><path class="background" aria-hidden="true" d="M0,0h800v300h-800Z"/><g><g class="mark-area role-mark marks" role="graphics-object" aria-roledescription="area mark container"><path aria-label="Date: Mar 16, 2026; Unique Clones/day: 0; Repository: karlmdavis/ansible-role-acmetool" role="graphics-symbol" aria-roledescription="area mark" d="M0,300L24.242,300L48.485,300L72.727,297L96.97,300L121.212,300L145.455,300L169.697,264L193.939,294L218.182,279L242.424,255L266.667,93L290.909,162L315.152,12L339.394,201L363.636,234L387.879,246L412.121,270L436.364,216L460.606,39L484.848,57L509.091,261L533.333,210L557.576,213L581.818,177L606.061,264L630.303,228L654.545,198L678.788,33L703.03,267L727.273,264L751.515,282L775.758,282L800,294L800,294L775.758,282L751.515,282L727.273,264L703.03,267L678.788,33L654.545,201L630.303,228L606.061,264L581.818,177L557.576,213L533.333,210L509.091,261L484.848,57L460.606,39L436.364,216L412.121,270L387.879,246L363.636,234L339.394,201L315.152,12L290.909,162L266.667,93L242.424,258L218.182,279L193.939,294L169.697,264L145.455,300L121.212,300L96.97,300L72.727,297L48.485,300L24.242,300L0,300Z" fill="#72b7b2"/></g></g><path class="foreground" aria-hidden="true" d="" display="none"/></g><g transform="translate(0,0)"><path class="background" aria-hidden="true" d="M0,0h800v300h-800Z"/><g><g class="mark-area role-mark marks" role="graphics-object" aria-roledescription="area mark container"><path aria-label="Date: Mar 16, 2026; Unique Clones/day: 0; Repository: karlmdavis/ansible-role-bind-dns" role="graphics-symbol" aria-roledescription="area mark" d="M0,300L24.242,300L48.485,300L72.727,297L96.97,300L121.212,300L145.455,300L169.697,264L193.939,294L218.182,279L242.424,258L266.667,93L290.909,162L315.152,12L339.394,201L363.636,234L387.879,246L412.121,270L436.364,216L460.606,39L484.848,57L509.091,261L533.333,210L557.576,213L581.818,177L606.061,264L630.303,228L654.545,201L678.788,33L703.03,267L727.273,264L751.515,282L775.758,282L800,294L800,294L775.758,282L751.515,285L727.273,264L703.03,267L678.788,45L654.545,204L630.303,228L606.061,264L581.818,180L557.576,216L533.333,210L509.091,261L484.848,57L460.606,42L436.364,216L412.121,270L387.879,255L363.636,234L339.394,204L315.152,15L290.909,162L266.667,99L242.424,258L218.182,279L193.939,294L169.697,264L145.455,300L121.212,300L96.97,300L72.727,297L48.485,300L24.242,300L0,300Z" fill="#54a24b"/></g></g><path class="foreground" aria-hidden="true" d="" display="none"/></g><g transform="translate(0,0)"><path class="background" aria-hidden="true" d="M0,0h800v300h-800Z"/><g><g class="mark-area role-mark marks" role="graphics-object" aria-roledescription="area mark container"><path aria-label="Date: Mar 16, 2026; Unique Clones/day: 0; Repository: karlmdavis/ansible-role-jenkins2" role="graphics-symbol" aria-roledescription="area mark" d="M0,300L24.242,300L48.485,300L72.727,297L96.97,300L121.212,300L145.455,300L169.697,264L193.939,294L218.182,279L242.424,258L266.667,99L290.909,162L315.152,15L339.394,204L363.636,234L387.879,255L412.121,270L436.364,216L460.606,42L484.848,57L509.091,261L533.333,210L557.576,216L581.818,180L606.061,264L630.303,228L654.545,204L678.788,45L703.03,267L727.273,264L751.515,285L775.758,282L800,294L800,294L775.758,282L751.515,285L727.273,267L703.03,267L678.788,60L654.545,204L630.303,231L606.061,270L581.818,195L557.576,216L533.333,210L509.091,261L484.848,60L460.606,48L436.364,219L412.121,273L387.879,258L363.636,237L339.394,204L315.152,15L290.909,165L266.667,102L242.424,261L218.182,282L193.939,297L169.697,264L145.455,300L121.212,300L96.97,300L72.727,297L48.485,300L24.242,300L0,300Z" fill="#eeca3b"/></g></g><path class="foreground" aria-hidden="true" d="" display="none"/></g><g transform="translate(0,0)"><path class="background" aria-hidden="true" d="M0,0h800v300h-800Z"/><g><g class="mark-area role-mark marks" role="graphics-object" aria-roledescription="area mark container"><path aria-label="Date: Mar 16, 2026; Unique Clones/day: 0; Repository: karlmdavis/ansible-role-ldap" role="graphics-symbol" aria-roledescription="area mark" d="M0,300L24.242,300L48.485,300L72.727,297L96.97,300L121.212,300L145.455,300L169.697,264L193.939,297L218.182,282L242.424,261L266.667,102L290.909,165L315.152,15L339.394,204L363.636,237L387.879,258L412.121,273L436.364,219L460.606,48L484.848,60L509.091,261L533.333,210L557.576,216L581.818,195L606.061,270L630.303,231L654.545,204L678.788,60L703.03,267L727.273,267L751.515,285L775.758,282L800,294L800,294L775.758,282L751.515,285L727.273,267L703.03,267L678.788,63L654.545,204L630.303,231L606.061,270L581.818,195L557.576,216L533.333,210L509.091,261L484.848,60L460.606,48L436.364,219L412.121,273L387.879,258L363.636,240L339.394,204L315.152,15L290.909,165L266.667,102L242.424,261L218.182,282L193.939,297L169.697,264L145.455,300L121.212,300L96.97,300L72.727,297L48.485,300L24.242,300L0,300Z" fill="#b279a2"/></g></g><path class="foreground" aria-hidden="true" d="" display="none"/></g><g transform="translate(0,0)"><path class="background" aria-hidden="true" d="M0,0h800v300h-800Z"/><g><g class="mark-area role-mark marks" role="graphics-object" aria-roledescription="area mark container"><path aria-label="Date: Mar 16, 2026; Unique Clones/day: 0; Repository: karlmdavis/ansible-role-rcm-dotfiles" role="graphics-symbol" aria-roledescription="area mark" d="M0,300L24.242,300L48.485,300L72.727,297L96.97,300L121.212,300L145.455,300L169.697,264L193.939,297L218.182,282L242.424,261L266.667,102L290.909,165L315.152,15L339.394,204L363.636,240L387.879,258L412.121,273L436.364,219L460.606,48L484.848,60L509.091,261L533.333,210L557.576,216L581.818,195L606.061,270L630.303,231L654.545,204L678.788,63L703.03,267L727.273,267L751.515,285L775.758,282L800,294L800,294L775.758,282L751.515,285L727.273,270L703.03,267L678.788,72L654.545,207L630.303,231L606.061,270L581.818,198L557.576,216L533.333,210L509.091,261L484.848,60L460.606,51L436.364,219L412.121,273L387.879,258L363.636,240L339.394,207L315.152,18L290.909,165L266.667,108L242.424,261L218.182,282L193.939,297L169.697,264L145.455,300L121.212,300L96.97,300L72.727,297L48.485,300L24.242,300L0,300Z" fill="#ff9da6"/></g></g><path class="foreground" aria-hidden="true" d="" display="none"/></g><g transform="translate(0,0)"><path class="background" aria-hidden="true" d="M0,0h800v300h-800Z"/><g><g class="mark-area role-mark marks" role="graphics-object" aria-roledescription="area mark container"><path aria-label="Date: Mar 16, 2026; Unique Clones/day: 0; Repository: karlmdavis/ansible-roles" role="graphics-symbol" aria-roledescription="area mark" d="M0,300L24.242,300L48.485,300L72.727,297L96.97,300L121.212,300L145.455,300L169.697,264L193.939,297L218.182,282L242.424,261L266.667,108L290.909,165L315.152,18L339.394,207L363.636,240L387.879,258L412.121,273L436.364,219L460.606,51L484.848,60L509.091,261L533.333,210L557.576,216L581.818,198L606.061,270L630.303,231L654.545,207L678.788,72L703.03,267L727.273,270L751.515,285L775.758,282L800,294L800,294L775.758,282L751.515,285L727.273,270L703.03,267L678.788,72L654.545,207L630.303,234L606.061,270L581.818,198L557.576,216L533.333,210L509.091,261L484.848,60L460.606,51L436.364,219L412.121,273L387.879,258L363.636,240L339.394,210L315.152,18L290.909,165L266.667,108L242.424,264L218.182,282L193.939,297L169.697,264L145.455,300L121.212,300L96.97,300L72.727,297L48.485,300L24.242,300L0,300Z" fill="#9d755d"/></g></g><path class="foreground" aria-hidden="true" d="" display="none"/></g><g transform="translate(0,0)"><path class="background" aria-hidden="true" d="M0,0h800v300h-800Z"/><g><g class="mark-area role-mark marks" role="graphics-object" aria-roledescription="area mark container"><path aria-label="Date: Mar 16, 2026; Unique Clones/day: 0; Repository: karlmdavis/bbonfhir-dev-infra-docker" role="graphics-symbol" aria-roledescription="area mark" d="M0,300L24.242,300L48.485,300L72.727,297L96.97,300L121.212,300L145.455,300L169.697,264L193.939,297L218.182,282L242.424,264L266.667,108L290.909,165L315.152,18L339.394,210L363.636,240L387.879,258L412.121,273L436.364,219L460.606,51L484.848,60L509.091,261L533.333,210L557.576,216L581.818,198L606.061,270L630.303,234L654.545,207L678.788,72L703.03,267L727.273,270L751.515,285L775.758,282L800,294L800,294L775.758,282L751.515,285L727.273,270L703.03,267L678.788,81L654.545,210L630.303,234L606.061,270L581.818,201L557.576,216L533.333,210L509.091,261L484.848,60L460.606,54L436.364,219L412.121,273L387.879,258L363.636,240L339.394,213L315.152,18L290.909,165L266.667,111L242.424,264L218.182,285L193.939,297L169.697,264L145.455,300L121.212,300L96.97,300L72.727,297L48.485,300L24.242,300L0,300Z" fill="#bab0ac"/></g></g><path class="foreground" aria-hidden="true" d="" display="none"/></g><g transform="translate(0,0)"><path class="background" aria-hidden="true" d="M0,0h800v300h-800Z"/><g><g class="mark-area role-mark marks" role="graphics-object" aria-roledescription="area mark container"><path aria-label="Date: Mar 16, 2026; Unique Clones/day: 0; Repository: karlmdavis/can-i-kayak-baltimore" role="graphics-symbol" aria-roledescription="area mark" d="M0,300L24.242,300L48.485,300L72.727,297L96.97,300L121.212,300L145.455,300L169.697,264L193.939,297L218.182,285L242.424,264L266.667,111L290.909,165L315.152,18L339.394,213L363.636,240L387.879,258L412.121,273L436.364,219L460.606,54L484.848,60L509.091,261L533.333,210L557.576,216L581.818,201L606.061,270L630.303,234L654.545,210L678.788,81L703.03,267L727.273,270L751.515,285L775.758,282L800,294L800,294L775.758,282L751.515,285L727.273,270L703.03,267L678.788,87L654.545,213L630.303,234L606.061,270L581.818,204L557.576,216L533.333,210L509.091,261L484.848,60L460.606,57L436.364,219L412.121,273L387.879,261L363.636,240L339.394,213L315.152,18L290.909,165L266.667,120L242.424,264L218.182,285L193.939,297L169.697,264L145.455,300L121.212,300L96.97,300L72.727,297L48.485,300L24.242,300L0,300Z" fill="#4c78a8"/></g></g><path class="foreground" aria-hidden="true" d="" display="none"/></g><g transform="translate(0,0)"><path class="background" aria-hidden="true" d="M0,0h800v300h-800Z"/><g><g class="mark-area role-mark marks" role="graphics-object" aria-roledescription="area mark container"><path aria-label="Date: Mar 16, 2026; Unique Clones/day: 0; Repository: karlmdavis/datanucleus-test-jdo-1-to-n" role="graphics-symbol" aria-roledescription="area mark" d="M0,300L24.242,300L48.485,300L72.727,297L96.97,300L121.212,300L145.455,300L169.697,264L193.939,297L218.182,285L242.424,264L266.667,120L290.909,165L315.152,18L339.394,213L363.636,240L387.879,261L412.121,273L436.364,219L460.606,57L484.848,60L509.091,261L533.333,210L557.576,216L581.818,204L606.061,270L630.303,234L654.545,213L678.788,87L703.03,267L727.273,270L751.515,285L775.758,282L800,294L800,294L775.758,285L751.515,285L727.273,270L703.03,270L678.788,87L654.545,213L630.303,234L606.061,270L581.818,204L557.576,216L533.333,210L509.091,261L484.848,60L460.606,57L436.364,219L412.121,273L387.879,261L363.636,240L339.394,213L315.152,18L290.909,168L266.667,120L242.424,264L218.182,285L193.939,297L169.697,264L145.455,300L121.212,300L96.97,300L72.727,297L48.485,300L24.242,300L0,300Z" fill="#f58518"/></g></g><path class="foreground" aria-hidden="true" d="" display="none"/></g><g transform="translate(0,0)"><path class="background" aria-hidden="true" d="M0,0h800v300h-800Z"/><g><g class="mark-area role-mark marks" role="graphics-object" aria-roledescription="area mark container"><path aria-label="Date: Mar 16, 2026; Unique Clones/day: 0; Repository: karlmdavis/dotfiles" role="graphics-symbol" aria-roledescription="area mark" d="M0,300L24.242,300L48.485,300L72.727,297L96.97,300L121.212,300L145.455,300L169.697,264L193.939,297L218.182,285L242.424,264L266.667,120L290.909,168L315.152,18L339.394,213L363.636,240L387.879,261L412.121,273L436.364,219L460.606,57L484.848,60L509.091,261L533.333,210L557.576,216L581.818,204L606.061,270L630.303,234L654.545,213L678.788,87L703.03,270L727.273,270L751.515,285L775.758,285L800,294L800,294L775.758,288L751.515,288L727.273,270L703.03,270L678.788,102L654.545,213L630.303,240L606.061,270L581.818,207L557.576,219L533.333,210L509.091,261L484.848,63L460.606,60L436.364,219L412.121,276L387.879,264L363.636,243L339.394,213L315.152,18L290.909,168L266.667,126L242.424,264L218.182,285L193.939,297L169.697,267L145.455,300L121.212,300L96.97,300L72.727,297L48.485,300L24.242,300L0,300Z" fill="#e45756"/></g></g><path class="foreground" aria-hidden="true" d="" display="none"/></g><g transform="translate(0,0)"><path class="background" aria-hidden="true" d="M0,0h800v300h-800Z"/><g><g class="mark-area role-mark marks" role="graphics-object" aria-roledescription="area mark container"><path aria-label="Date: Mar 16, 2026; Unique Clones/day: 0; Repository: karlmdavis/fhir-benchmarks" role="graphics-symbol" aria-roledescription="area mark" d="M0,300L24.242,300L48.485,300L72.727,297L96.97,300L121.212,300L145.455,300L169.697,267L193.939,297L218.182,285L242.424,264L266.667,126L290.909,168L315.152,18L339.394,213L363.636,243L387.879,264L412.121,276L436.364,219L460.606,60L484.848,63L509.091,261L533.333,210L557.576,219L581.818,207L606.061,270L630.303,240L654.545,213L678.788,102L703.03,270L727.273,270L751.515,288L775.758,288L800,294L800,294L775.758,291L751.515,288L727.273,273L703.03,279L678.788,117L654.545,213L630.303,246L606.061,270L581.818,213L557.576,240L533.333,213L509.091,261L484.848,66L460.606,63L436.364,222L412.121,276L387.879,267L363.636,249L339.394,216L315.152,21L290.909,168L266.667,132L242.424,264L218.182,288L193.939,297L169.697,270L145.455,300L121.212,300L96.97,300L72.727,297L48.485,300L24.242,300L0,300Z" fill="#72b7b2"/></g></g><path class="foreground" aria-hidden="true" d="" display="none"/></g><g transform="translate(0,0)"><path class="background" aria-hidden="true" d="M0,0h800v300h-800Z"/><g><g class="mark-area role-mark marks" role="graphics-object" aria-roledescription="area mark container"><path aria-label="Date: Mar 16, 2026; Unique Clones/day: 0; Repository: karlmdavis/hapi-fhir-jpaserver-starter" role="graphics-symbol" aria-roledescription="area mark" d="M0,300L24.242,300L48.485,300L72.727,297L96.97,300L121.212,300L145.455,300L169.697,270L193.939,297L218.182,288L242.424,264L266.667,132L290.909,168L315.152,21L339.394,216L363.636,249L387.879,267L412.121,276L436.364,222L460.606,63L484.848,66L509.091,261L533.333,213L557.576,240L581.818,213L606.061,270L630.303,246L654.545,213L678.788,117L703.03,279L727.273,273L751.515,288L775.758,291L800,294L800,294L775.758,291L751.515,288L727.273,273L703.03,279L678.788,120L654.545,213L630.303,246L606.061,270L581.818,213L557.576,240L533.333,213L509.091,261L484.848,66L460.606,63L436.364,225L412.121,279L387.879,267L363.636,249L339.394,216L315.152,21L290.909,168L266.667,132L242.424,267L218.182,288L193.939,297L169.697,270L145.455,300L121.212,300L96.97,300L72.727,297L48.485,300L24.242,300L0,300Z" fill="#54a24b"/></g></g><path class="foreground" aria-hidden="true" d="" display="none"/></g><g transform="translate(0,0)"><path class="background" aria-hidden="true" d="M0,0h800v300h-800Z"/><g><g class="mark-area role-mark marks" role="graphics-object" aria-roledescription="area mark container"><path aria-label="Date: Mar 16, 2026; Unique Clones/day: 0; Repository: karlmdavis/hello-rust-actix" role="graphics-symbol" aria-roledescription="area mark" d="M0,300L24.242,300L48.485,300L72.727,297L96.97,300L121.212,300L145.455,300L169.697,270L193.939,297L218.182,288L242.424,267L266.667,132L290.909,168L315.152,21L339.394,216L363.636,249L387.879,267L412.121,279L436.364,225L460.606,63L484.848,66L509.091,261L533.333,213L557.576,240L581.818,213L606.061,270L630.303,246L654.545,213L678.788,120L703.03,279L727.273,273L751.515,288L775.758,291L800,294L800,294L775.758,291L751.515,288L727.273,273L703.03,279L678.788,126L654.545,216L630.303,246L606.061,270L581.818,216L557.576,240L533.333,213L509.091,261L484.848,66L460.606,66L436.364,225L412.121,279L387.879,267L363.636,252L339.394,216L315.152,21L290.909,168L266.667,135L242.424,267L218.182,288L193.939,297L169.697,270L145.455,300L121.212,300L96.97,300L72.727,297L48.485,300L24.242,300L0,300Z" fill="#eeca3b"/></g></g><path class="foreground" aria-hidden="true" d="" display="none"/></g><g transform="translate(0,0)"><path class="background" aria-hidden="true" d="M0,0h800v300h-800Z"/><g><g class="mark-area role-mark marks" role="graphics-object" aria-roledescription="area mark container"><path aria-label="Date: Mar 16, 2026; Unique Clones/day: 0; Repository: karlmdavis/jessentials" role="graphics-symbol" aria-roledescription="area mark" d="M0,300L24.242,300L48.485,300L72.727,297L96.97,300L121.212,300L145.455,300L169.697,270L193.939,297L218.182,288L242.424,267L266.667,135L290.909,168L315.152,21L339.394,216L363.636,252L387.879,267L412.121,279L436.364,225L460.606,66L484.848,66L509.091,261L533.333,213L557.576,240L581.818,216L606.061,270L630.303,246L654.545,216L678.788,126L703.03,279L727.273,273L751.515,288L775.758,291L800,294L800,294L775.758,291L751.515,288L727.273,273L703.03,279L678.788,132L654.545,216L630.303,249L606.061,270L581.818,222L557.576,264L533.333,213L509.091,261L484.848,66L460.606,69L436.364,225L412.121,279L387.879,267L363.636,252L339.394,219L315.152,21L290.909,168L266.667,138L242.424,267L218.182,288L193.939,297L169.697,273L145.455,300L121.212,300L96.97,300L72.727,297L48.485,300L24.242,300L0,300Z" fill="#b279a2"/></g></g><path class="foreground" aria-hidden="true" d="" display="none"/></g><g transform="translate(0,0)"><path class="background" aria-hidden="true" d="M0,0h800v300h-800Z"/><g><g class="mark-area role-mark marks" role="graphics-object" aria-roledescription="area mark container"><path aria-label="Date: Mar 16, 2026; Unique Clones/day: 0; Repository: karlmdavis/justdavis-ansible" role="graphics-symbol" aria-roledescription="area mark" d="M0,300L24.242,300L48.485,300L72.727,297L96.97,300L121.212,300L145.455,300L169.697,273L193.939,297L218.182,288L242.424,267L266.667,138L290.909,168L315.152,21L339.394,219L363.636,252L387.879,267L412.121,279L436.364,225L460.606,69L484.848,66L509.091,261L533.333,213L557.576,264L581.818,222L606.061,270L630.303,249L654.545,216L678.788,132L703.03,279L727.273,273L751.515,288L775.758,291L800,294L800,294L775.758,291L751.515,288L727.273,273L703.03,279L678.788,141L654.545,228L630.303,249L606.061,273L581.818,225L557.576,264L533.333,213L509.091,261L484.848,66L460.606,72L436.364,225L412.121,279L387.879,270L363.636,252L339.394,219L315.152,21L290.909,171L266.667,141L242.424,267L218.182,291L193.939,297L169.697,273L145.455,300L121.212,300L96.97,300L72.727,297L48.485,300L24.242,300L0,300Z" fill="#ff9da6"/></g></g><path class="foreground" aria-hidden="true" d="" display="none"/></g><g transform="translate(0,0)"><path class="background" aria-hidden="true" d="M0,0h800v300h-800Z"/><g><g class="mark-area role-mark marks" role="graphics-object" aria-roledescription="area mark container"><path aria-label="Date: Mar 16, 2026; Unique Clones/day: 0; Repository: karlmdavis/justdavis-finances" role="graphics-symbol" aria-roledescription="area mark" d="M0,300L24.242,300L48.485,300L72.727,297L96.97,300L121.212,300L145.455,300L169.697,273L193.939,297L218.182,291L242.424,267L266.667,141L290.909,171L315.152,21L339.394,219L363.636,252L387.879,270L412.121,279L436.364,225L460.606,72L484.848,66L509.091,261L533.333,213L557.576,264L581.818,225L606.061,273L630.303,249L654.545,228L678.788,141L703.03,279L727.273,273L751.515,288L775.758,291L800,294L800,294L775.758,291L751.515,288L727.273,276L703.03,285L678.788,186L654.545,279L630.303,255L606.061,273L581.818,228L557.576,267L533.333,264L509.091,285L484.848,291L460.606,243L436.364,285L412.121,282L387.879,273L363.636,255L339.394,264L315.152,276L290.909,282L266.667,234L242.424,270L218.182,294L193.939,297L169.697,273L145.455,300L121.212,300L96.97,300L72.727,297L48.485,300L24.242,300L0,300Z" fill="#9d755d"/></g></g><path class="foreground" aria-hidden="true" d="" display="none"/></g><g transform="translate(0,0)"><path class="background" aria-hidden="true" d="M0,0h800v300h-800Z"/><g><g class="mark-area role-mark marks" role="graphics-object" aria-roledescription="area mark container"><path aria-label="Date: Mar 16, 2026; Unique Clones/day: 0; Repository: karlmdavis/justdavis-karl" role="graphics-symbol" aria-roledescription="area mark" d="M0,300L24.242,300L48.485,300L72.727,297L96.97,300L121.212,300L145.455,300L169.697,273L193.939,297L218.182,294L242.424,270L266.667,234L290.909,282L315.152,276L339.394,264L363.636,255L387.879,273L412.121,282L436.364,285L460.606,243L484.848,291L509.091,285L533.333,264L557.576,267L581.818,228L606.061,273L630.303,255L654.545,279L678.788,186L703.03,285L727.273,276L751.515,288L775.758,291L800,294L800,294L775.758,291L751.515,288L727.273,276L703.03,285L678.788,195L654.545,282L630.303,258L606.061,273L581.818,234L557.576,267L533.333,264L509.091,288L484.848,291L460.606,246L436.364,285L412.121,285L387.879,273L363.636,258L339.394,267L315.152,276L290.909,285L266.667,237L242.424,270L218.182,294L193.939,297L169.697,276L145.455,300L121.212,300L96.97,300L72.727,297L48.485,300L24.242,300L0,300Z" fill="#bab0ac"/></g></g><path class="foreground" aria-hidden="true" d="" display="none"/></g><g transform="translate(0,0)"><path class="background" aria-hidden="true" d="M0,0h800v300h-800Z"/><g><g class="mark-area role-mark marks" role="graphics-object" aria-roledescription="area mark container"><path aria-label="Date: Mar 16, 2026; Unique Clones/day: 0; Repository: karlmdavis/justdavis-puppet" role="graphics-symbol" aria-roledescription="area mark" d="M0,300L24.242,300L48.485,300L72.727,297L96.97,300L121.212,300L145.455,300L169.697,276L193.939,297L218.182,294L242.424,270L266.667,237L290.909,285L315.152,276L339.394,267L363.636,258L387.879,273L412.121,285L436.364,285L460.606,246L484.848,291L509.091,288L533.333,264L557.576,267L581.818,234L606.061,273L630.303,258L654.545,282L678.788,195L703.03,285L727.273,276L751.515,288L775.758,291L800,294L800,294L775.758,291L751.515,288L727.273,276L703.03,285L678.788,201L654.545,285L630.303,261L606.061,273L581.818,237L557.576,270L533.333,264L509.091,288L484.848,291L460.606,249L436.364,285L412.121,285L387.879,273L363.636,264L339.394,270L315.152,276L290.909,285L266.667,240L242.424,270L218.182,294L193.939,297L169.697,276L145.455,300L121.212,300L96.97,300L72.727,297L48.485,300L24.242,300L0,300Z" fill="#4c78a8"/></g></g><path class="foreground" aria-hidden="true" d="" display="none"/></g><g transform="translate(0,0)"><path class="background" aria-hidden="true" d="M0,0h800v300h-800Z"/><g><g class="mark-area role-mark marks" role="graphics-object" aria-roledescription="area mark container"><path aria-label="Date: Mar 16, 2026; Unique Clones/day: 0; Repository: karlmdavis/kobjects" role="graphics-symbol" aria-roledescription="area mark" d="M0,300L24.242,300L48.485,300L72.727,297L96.97,300L121.212,300L145.455,300L169.697,276L193.939,297L218.182,294L242.424,270L266.667,240L290.909,285L315.152,276L339.394,270L363.636,264L387.879,273L412.121,285L436.364,285L460.606,249L484.848,291L509.091,288L533.333,264L557.576,270L581.818,237L606.061,273L630.303,261L654.545,285L678.788,201L703.03,285L727.273,276L751.515,288L775.758,291L800,294L800,294L775.758,291L751.515,288L727.273,276L703.03,285L678.788,207L654.545,285L630.303,264L606.061,273L581.818,243L557.576,270L533.333,264L509.091,288L484.848,291L460.606,252L436.364,285L412.121,285L387.879,273L363.636,264L339.394,270L315.152,276L290.909,285L266.667,243L242.424,273L218.182,294L193.939,297L169.697,276L145.455,300L121.212,300L96.97,300L72.727,297L48.485,300L24.242,300L0,300Z" fill="#f58518"/></g></g><path class="foreground" aria-hidden="true" d="" display="none"/></g><g transform="translate(0,0)"><path class="background" aria-hidden="true" d="M0,0h800v300h-800Z"/><g><g class="mark-area role-mark marks" role="graphics-object" aria-roledescription="area mark container"><path aria-label="Date: Mar 16, 2026; Unique Clones/day: 0; Repository: karlmdavis/ksoap2-android" role="graphics-symbol" aria-roledescription="area mark" d="M0,300L24.242,300L48.485,300L72.727,297L96.97,300L121.212,300L145.455,300L169.697,276L193.939,297L218.182,294L242.424,273L266.667,243L290.909,285L315.152,276L339.394,270L363.636,264L387.879,273L412.121,285L436.364,285L460.606,252L484.848,291L509.091,288L533.333,264L557.576,270L581.818,243L606.061,273L630.303,264L654.545,285L678.788,207L703.03,285L727.273,276L751.515,288L775.758,291L800,294L800,294L775.758,291L751.515,288L727.273,282L703.03,285L678.788,213L654.545,285L630.303,267L606.061,282L581.818,246L557.576,288L533.333,279L509.091,291L484.848,291L460.606,261L436.364,285L412.121,288L387.879,276L363.636,267L339.394,282L315.152,282L290.909,285L266.667,246L242.424,282L218.182,294L193.939,297L169.697,279L145.455,300L121.212,300L96.97,300L72.727,297L48.485,300L24.242,300L0,300Z" fill="#e45756"/></g></g><path class="foreground" aria-hidden="true" d="" display="none"/></g><g transform="translate(0,0)"><path class="background" aria-hidden="true" d="M0,0h800v300h-800Z"/><g><g class="mark-area role-mark marks" role="graphics-object" aria-roledescription="area mark container"><path aria-label="Date: Mar 16, 2026; Unique Clones/day: 0; Repository: karlmdavis/kxml2" role="graphics-symbol" aria-roledescription="area mark" d="M0,300L24.242,300L48.485,300L72.727,297L96.97,300L121.212,300L145.455,300L169.697,279L193.939,297L218.182,294L242.424,282L266.667,246L290.909,285L315.152,282L339.394,282L363.636,267L387.879,276L412.121,288L436.364,285L460.606,261L484.848,291L509.091,291L533.333,279L557.576,288L581.818,246L606.061,282L630.303,267L654.545,285L678.788,213L703.03,285L727.273,282L751.515,288L775.758,291L800,294L800,294L775.758,291L751.515,291L727.273,285L703.03,288L678.788,222L654.545,285L630.303,267L606.061,282L581.818,249L557.576,288L533.333,282L509.091,294L484.848,294L460.606,264L436.364,285L412.121,288L387.879,276L363.636,270L339.394,291L315.152,285L290.909,285L266.667,252L242.424,285L218.182,294L193.939,297L169.697,282L145.455,300L121.212,300L96.97,300L72.727,297L48.485,300L24.242,300L0,300Z" fill="#72b7b2"/></g></g><path class="foreground" aria-hidden="true" d="" display="none"/></g><g transform="translate(0,0)"><path class="background" aria-hidden="true" d="M0,0h800v300h-800Z"/><g><g class="mark-area role-mark marks" role="graphics-object" aria-roledescription="area mark container"><path aria-label="Date: Mar 16, 2026; Unique Clones/day: 0; Repository: karlmdavis/ldap-plugin" role="graphics-symbol" aria-roledescription="area mark" d="M0,300L24.242,300L48.485,300L72.727,297L96.97,300L121.212,300L145.455,300L169.697,282L193.939,297L218.182,294L242.424,285L266.667,252L290.909,285L315.152,285L339.394,291L363.636,270L387.879,276L412.121,288L436.364,285L460.606,264L484.848,294L509.091,294L533.333,282L557.576,288L581.818,249L606.061,282L630.303,267L654.545,285L678.788,222L703.03,288L727.273,285L751.515,291L775.758,291L800,294L800,294L775.758,291L751.515,291L727.273,285L703.03,288L678.788,222L654.545,285L630.303,267L606.061,282L581.818,249L557.576,288L533.333,282L509.091,294L484.848,294L460.606,264L436.364,288L412.121,291L387.879,276L363.636,270L339.394,291L315.152,285L290.909,285L266.667,252L242.424,285L218.182,294L193.939,297L169.697,282L145.455,300L121.212,300L96.97,300L72.727,297L48.485,300L24.242,300L0,300Z" fill="#54a24b"/></g></g><path class="foreground" aria-hidden="true" d="" display="none"/></g><g transform="translate(0,0)"><path class="background" aria-hidden="true" d="M0,0h800v300h-800Z"/><g><g class="mark-area role-mark marks" role="graphics-object" aria-roledescription="area mark container"><path aria-label="Date: Mar 16, 2026; Unique Clones/day: 0; Repository: karlmdavis/lego-ev3dev-rs" role="graphics-symbol" aria-roledescription="area mark" d="M0,300L24.242,300L48.485,300L72.727,297L96.97,300L121.212,300L145.455,300L169.697,282L193.939,297L218.182,294L242.424,285L266.667,252L290.909,285L315.152,285L339.394,291L363.636,270L387.879,276L412.121,291L436.364,288L460.606,264L484.848,294L509.091,294L533.333,282L557.576,288L581.818,249L606.061,282L630.303,267L654.545,285L678.788,222L703.03,288L727.273,285L751.515,291L775.758,291L800,294L800,297L775.758,294L751.515,291L727.273,288L703.03,288L678.788,231L654.545,285L630.303,273L606.061,282L581.818,255L557.576,288L533.333,285L509.091,294L484.848,297L460.606,267L436.364,291L412.121,291L387.879,279L363.636,276L339.394,291L315.152,288L290.909,288L266.667,261L242.424,285L218.182,297L193.939,297L169.697,285L145.455,300L121.212,300L96.97,300L72.727,297L48.485,300L24.242,300L0,300Z" fill="#eeca3b"/></g></g><path class="foreground" aria-hidden="true" d="" display="none"/></g><g transform="translate(0,0)"><path class="background" aria-hidden="true" d="M0,0h800v300h-800Z"/><g><g class="mark-area role-mark marks" role="graphics-object" aria-roledescription="area mark container"><path aria-label="Date: Mar 16, 2026; Unique Clones/day: 0; Repository: karlmdavis/liquibase" role="graphics-symbol" aria-roledescription="area mark" d="M0,300L24.242,300L48.485,300L72.727,297L96.97,300L121.212,300L145.455,300L169.697,285L193.939,297L218.182,297L242.424,285L266.667,261L290.909,288L315.152,288L339.394,291L363.636,276L387.879,279L412.121,291L436.364,291L460.606,267L484.848,297L509.091,294L533.333,285L557.576,288L581.818,255L606.061,282L630.303,273L654.545,285L678.788,231L703.03,288L727.273,288L751.515,291L775.758,294L800,297L800,297L775.758,294L751.515,291L727.273,288L703.03,288L678.788,231L654.545,285L630.303,273L606.061,285L581.818,258L557.576,288L533.333,285L509.091,294L484.848,297L460.606,267L436.364,291L412.121,291L387.879,279L363.636,276L339.394,291L315.152,288L290.909,288L266.667,261L242.424,285L218.182,297L193.939,297L169.697,285L145.455,300L121.212,300L96.97,300L72.727,300L48.485,300L24.242,300L0,300Z" fill="#b279a2"/></g></g><path class="foreground" aria-hidden="true" d="" display="none"/></g><g transform="translate(0,0)"><path class="background" aria-hidden="true" d="M0,0h800v300h-800Z"/><g><g class="mark-area role-mark marks" role="graphics-object" aria-roledescription="area mark container"><path aria-label="Date: Mar 16, 2026; Unique Clones/day: 0; Repository: karlmdavis/m2e-core" role="graphics-symbol" aria-roledescription="area mark" d="M0,300L24.242,300L48.485,300L72.727,300L96.97,300L121.212,300L145.455,300L169.697,285L193.939,297L218.182,297L242.424,285L266.667,261L290.909,288L315.152,288L339.394,291L363.636,276L387.879,279L412.121,291L436.364,291L460.606,267L484.848,297L509.091,294L533.333,285L557.576,288L581.818,258L606.061,285L630.303,273L654.545,285L678.788,231L703.03,288L727.273,288L751.515,291L775.758,294L800,297L800,297L775.758,294L751.515,291L727.273,288L703.03,288L678.788,237L654.545,285L630.303,276L606.061,288L581.818,264L557.576,291L533.333,288L509.091,294L484.848,297L460.606,270L436.364,291L412.121,291L387.879,279L363.636,276L339.394,291L315.152,291L290.909,288L266.667,264L242.424,285L218.182,297L193.939,297L169.697,285L145.455,300L121.212,300L96.97,300L72.727,300L48.485,300L24.242,300L0,300Z" fill="#ff9da6"/></g></g><path class="foreground" aria-hidden="true" d="" display="none"/></g><g transform="translate(0,0)"><path class="background" aria-hidden="true" d="M0,0h800v300h-800Z"/><g><g class="mark-area role-mark marks" role="graphics-object" aria-roledescription="area mark container"><path aria-label="Date: Mar 16, 2026; Unique Clones/day: 0; Repository: karlmdavis/m2e-core-tests" role="graphics-symbol" aria-roledescription="area mark" d="M0,300L24.242,300L48.485,300L72.727,300L96.97,300L121.212,300L145.455,300L169.697,285L193.939,297L218.182,297L242.424,285L266.667,264L290.909,288L315.152,291L339.394,291L363.636,276L387.879,279L412.121,291L436.364,291L460.606,270L484.848,297L509.091,294L533.333,288L557.576,291L581.818,264L606.061,288L630.303,276L654.545,285L678.788,237L703.03,288L727.273,288L751.515,291L775.758,294L800,297L800,297L775.758,294L751.515,291L727.273,288L703.03,288L678.788,237L654.545,288L630.303,276L606.061,294L581.818,267L557.576,294L533.333,291L509.091,294L484.848,297L460.606,270L436.364,291L412.121,291L387.879,285L363.636,276L339.394,291L315.152,291L290.909,291L266.667,264L242.424,288L218.182,297L193.939,297L169.697,285L145.455,300L121.212,300L96.97,300L72.727,300L48.485,300L24.242,300L0,300Z" fill="#9d755d"/></g></g><path class="foreground" aria-hidden="true" d="" display="none"/></g><g transform="translate(0,0)"><path class="background" aria-hidden="true" d="M0,0h800v300h-800Z"/><g><g class="mark-area role-mark marks" role="graphics-object" aria-roledescription="area mark container"><path aria-label="Date: Mar 16, 2026; Unique Clones/day: 0; Repository: karlmdavis/obsidian-operator" role="graphics-symbol" aria-roledescription="area mark" d="M0,300L24.242,300L48.485,300L72.727,300L96.97,300L121.212,300L145.455,300L169.697,285L193.939,297L218.182,297L242.424,288L266.667,264L290.909,291L315.152,291L339.394,291L363.636,276L387.879,285L412.121,291L436.364,291L460.606,270L484.848,297L509.091,294L533.333,291L557.576,294L581.818,267L606.061,294L630.303,276L654.545,288L678.788,237L703.03,288L727.273,288L751.515,291L775.758,294L800,297L800,297L775.758,294L751.515,291L727.273,294L703.03,291L678.788,243L654.545,291L630.303,282L606.061,294L581.818,270L557.576,294L533.333,291L509.091,294L484.848,297L460.606,273L436.364,297L412.121,291L387.879,285L363.636,285L339.394,291L315.152,291L290.909,291L266.667,267L242.424,288L218.182,297L193.939,297L169.697,288L145.455,300L121.212,300L96.97,300L72.727,300L48.485,300L24.242,300L0,300Z" fill="#bab0ac"/></g></g><path class="foreground" aria-hidden="true" d="" display="none"/></g><g transform="translate(0,0)"><path class="background" aria-hidden="true" d="M0,0h800v300h-800Z"/><g><g class="mark-area role-mark marks" role="graphics-object" aria-roledescription="area mark container"><path aria-label="Date: Mar 16, 2026; Unique Clones/day: 0; Repository: karlmdavis/perfect-note" role="graphics-symbol" aria-roledescription="area mark" d="M0,300L24.242,300L48.485,300L72.727,300L96.97,300L121.212,300L145.455,300L169.697,288L193.939,297L218.182,297L242.424,288L266.667,267L290.909,291L315.152,291L339.394,291L363.636,285L387.879,285L412.121,291L436.364,297L460.606,273L484.848,297L509.091,294L533.333,291L557.576,294L581.818,270L606.061,294L630.303,282L654.545,291L678.788,243L703.03,291L727.273,294L751.515,291L775.758,294L800,297L800,297L775.758,294L751.515,291L727.273,294L703.03,294L678.788,249L654.545,291L630.303,282L606.061,294L581.818,273L557.576,294L533.333,291L509.091,294L484.848,297L460.606,276L436.364,297L412.121,291L387.879,285L363.636,285L339.394,291L315.152,291L290.909,294L266.667,270L242.424,291L218.182,297L193.939,297L169.697,288L145.455,300L121.212,300L96.97,300L72.727,300L48.485,300L24.242,300L0,300Z" fill="#4c78a8"/></g></g><path class="foreground" aria-hidden="true" d="" display="none"/></g><g transform="translate(0,0)"><path class="background" aria-hidden="true" d="M0,0h800v300h-800Z"/><g><g class="mark-area role-mark marks" role="graphics-object" aria-roledescription="area mark container"><path aria-label="Date: Mar 16, 2026; Unique Clones/day: 0; Repository: karlmdavis/puppet-archive" role="graphics-symbol" aria-roledescription="area mark" d="M0,300L24.242,300L48.485,300L72.727,300L96.97,300L121.212,300L145.455,300L169.697,288L193.939,297L218.182,297L242.424,291L266.667,270L290.909,294L315.152,291L339.394,291L363.636,285L387.879,285L412.121,291L436.364,297L460.606,276L484.848,297L509.091,294L533.333,291L557.576,294L581.818,273L606.061,294L630.303,282L654.545,291L678.788,249L703.03,294L727.273,294L751.515,291L775.758,294L800,297L800,297L775.758,294L751.515,291L727.273,294L703.03,294L678.788,249L654.545,291L630.303,285L606.061,294L581.818,276L557.576,294L533.333,291L509.091,294L484.848,297L460.606,276L436.364,297L412.121,291L387.879,285L363.636,285L339.394,291L315.152,291L290.909,294L266.667,270L242.424,291L218.182,297L193.939,297L169.697,291L145.455,300L121.212,300L96.97,300L72.727,300L48.485,300L24.242,300L0,300Z" fill="#f58518"/></g></g><path class="foreground" aria-hidden="true" d="" display="none"/></g><g transform="translate(0,0)"><path class="background" aria-hidden="true" d="M0,0h800v300h-800Z"/><g><g class="mark-area role-mark marks" role="graphics-object" aria-roledescription="area mark container"><path aria-label="Date: Mar 16, 2026; Unique Clones/day: 0; Repository: karlmdavis/puppet-sonar" role="graphics-symbol" aria-roledescription="area mark" d="M0,300L24.242,300L48.485,300L72.727,300L96.97,300L121.212,300L145.455,300L169.697,291L193.939,297L218.182,297L242.424,291L266.667,270L290.909,294L315.152,291L339.394,291L363.636,285L387.879,285L412.121,291L436.364,297L460.606,276L484.848,297L509.091,294L533.333,291L557.576,294L581.818,276L606.061,294L630.303,285L654.545,291L678.788,249L703.03,294L727.273,294L751.515,291L775.758,294L800,297L800,297L775.758,294L751.515,291L727.273,294L703.03,297L678.788,249L654.545,291L630.303,288L606.061,294L581.818,276L557.576,297L533.333,294L509.091,294L484.848,297L460.606,276L436.364,297L412.121,294L387.879,285L363.636,291L339.394,291L315.152,291L290.909,297L266.667,270L242.424,291L218.182,297L193.939,297L169.697,291L145.455,300L121.212,300L96.97,300L72.727,300L48.485,300L24.242,300L0,300Z" fill="#e45756"/></g></g><path class="foreground" aria-hidden="true" d="" display="none"/></g><g transform="translate(0,0)"><path class="background" aria-hidden="true" d="M0,0h800v300h-800Z"/><g><g class="mark-area role-mark marks" role="graphics-object" aria-roledescription="area mark container"><path aria-label="Date: Mar 16, 2026; Unique Clones/day: 0; Repository: karlmdavis/rps-tourney" role="graphics-symbol" aria-roledescription="area mark" d="M0,300L24.242,300L48.485,300L72.727,300L96.97,300L121.212,300L145.455,300L169.697,291L193.939,297L218.182,297L242.424,291L266.667,270L290.909,297L315.152,291L339.394,291L363.636,291L387.879,285L412.121,294L436.364,297L460.606,276L484.848,297L509.091,294L533.333,294L557.576,297L581.818,276L606.061,294L630.303,288L654.545,291L678.788,249L703.03,297L727.273,294L751.515,291L775.758,294L800,297L800,297L775.758,294L751.515,291L727.273,294L703.03,297L678.788,255L654.545,291L630.303,291L606.061,294L581.818,279L557.576,297L533.333,294L509.091,294L484.848,297L460.606,279L436.364,297L412.121,297L387.879,285L363.636,291L339.394,291L315.152,291L290.909,297L266.667,273L242.424,291L218.182,297L193.939,297L169.697,294L145.455,300L121.212,300L96.97,300L72.727,300L48.485,300L24.242,300L0,300Z" fill="#72b7b2"/></g></g><path class="foreground" aria-hidden="true" d="" display="none"/></g><g transform="translate(0,0)"><path class="background" aria-hidden="true" d="M0,0h800v300h-800Z"/><g><g class="mark-area role-mark marks" role="graphics-object" aria-roledescription="area mark container"><path aria-label="Date: Mar 16, 2026; Unique Clones/day: 0; Repository: karlmdavis/sample-maven-and-rcp" role="graphics-symbol" aria-roledescription="area mark" d="M0,300L24.242,300L48.485,300L72.727,300L96.97,300L121.212,300L145.455,300L169.697,294L193.939,297L218.182,297L242.424,291L266.667,273L290.909,297L315.152,291L339.394,291L363.636,291L387.879,285L412.121,297L436.364,297L460.606,279L484.848,297L509.091,294L533.333,294L557.576,297L581.818,279L606.061,294L630.303,291L654.545,291L678.788,255L703.03,297L727.273,294L751.515,291L775.758,294L800,297L800,297L775.758,294L751.515,291L727.273,294L703.03,297L678.788,261L654.545,291L630.303,291L606.061,294L581.818,282L557.576,297L533.333,294L509.091,294L484.848,297L460.606,282L436.364,297L412.121,297L387.879,288L363.636,291L339.394,291L315.152,291L290.909,297L266.667,276L242.424,291L218.182,297L193.939,297L169.697,294L145.455,300L121.212,300L96.97,300L72.727,300L48.485,300L24.242,300L0,300Z" fill="#54a24b"/></g></g><path class="foreground" aria-hidden="true" d="" display="none"/></g><g transform="translate(0,0)"><path class="background" aria-hidden="true" d="M0,0h800v300h-800Z"/><g><g class="mark-area role-mark marks" role="graphics-object" aria-roledescription="area mark container"><path aria-label="Date: Mar 16, 2026; Unique Clones/day: 0; Repository: karlmdavis/stockfighter-trades-solutions" role="graphics-symbol" aria-roledescription="area mark" d="M0,300L24.242,300L48.485,300L72.727,300L96.97,300L121.212,300L145.455,300L169.697,294L193.939,297L218.182,297L242.424,291L266.667,276L290.909,297L315.152,291L339.394,291L363.636,291L387.879,288L412.121,297L436.364,297L460.606,282L484.848,297L509.091,294L533.333,294L557.576,297L581.818,282L606.061,294L630.303,291L654.545,291L678.788,261L703.03,297L727.273,294L751.515,291L775.758,294L800,297L800,297L775.758,294L751.515,291L727.273,294L703.03,297L678.788,270L654.545,291L630.303,291L606.061,294L581.818,285L557.576,297L533.333,294L509.091,294L484.848,297L460.606,285L436.364,297L412.121,297L387.879,288L363.636,291L339.394,291L315.152,294L290.909,297L266.667,282L242.424,291L218.182,297L193.939,297L169.697,294L145.455,300L121.212,300L96.97,300L72.727,300L48.485,300L24.242,300L0,300Z" fill="#eeca3b"/></g></g><path class="foreground" aria-hidden="true" d="" display="none"/></g><g transform="translate(0,0)"><path class="background" aria-hidden="true" d="M0,0h800v300h-800Z"/><g><g class="mark-area role-mark marks" role="graphics-object" aria-roledescription="area mark container"><path aria-label="Date: Mar 16, 2026; Unique Clones/day: 0; Repository: karlmdavis/test-repo-for-move" role="graphics-symbol" aria-roledescription="area mark" d="M0,300L24.242,300L48.485,300L72.727,300L96.97,300L121.212,300L145.455,300L169.697,294L193.939,297L218.182,297L242.424,291L266.667,282L290.909,297L315.152,294L339.394,291L363.636,291L387.879,288L412.121,297L436.364,297L460.606,285L484.848,297L509.091,294L533.333,294L557.576,297L581.818,285L606.061,294L630.303,291L654.545,291L678.788,270L703.03,297L727.273,294L751.515,291L775.758,294L800,297L800,297L775.758,294L751.515,294L727.273,294L703.03,297L678.788,276L654.545,291L630.303,291L606.061,294L581.818,288L557.576,297L533.333,294L509.091,294L484.848,297L460.606,288L436.364,297L412.121,297L387.879,288L363.636,291L339.394,291L315.152,297L290.909,297L266.667,285L242.424,294L218.182,297L193.939,297L169.697,294L145.455,300L121.212,300L96.97,300L72.727,300L48.485,300L24.242,300L0,300Z" fill="#b279a2"/></g></g><path class="foreground" aria-hidden="true" d="" display="none"/></g><g transform="translate(0,0)"><path class="background" aria-hidden="true" d="M0,0h800v300h-800Z"/><g><g class="mark-area role-mark marks" role="graphics-object" aria-roledescription="area mark container"><path aria-label="Date: Mar 16, 2026; Unique Clones/day: 0; Repository: karlmdavis/todoist-ai" role="graphics-symbol" aria-roledescription="area mark" d="M0,300L24.242,300L48.485,300L72.727,300L96.97,300L121.212,300L145.455,300L169.697,294L193.939,297L218.182,297L242.424,294L266.667,285L290.909,297L315.152,297L339.394,291L363.636,291L387.879,288L412.121,297L436.364,297L460.606,288L484.848,297L509.091,294L533.333,294L557.576,297L581.818,288L606.061,294L630.303,291L654.545,291L678.788,276L703.03,297L727.273,294L751.515,294L775.758,294L800,297L800,297L775.758,294L751.515,294L727.273,297L703.03,297L678.788,276L654.545,291L630.303,294L606.061,294L581.818,288L557.576,297L533.333,294L509.091,294L484.848,297L460.606,288L436.364,297L412.121,297L387.879,294L363.636,291L339.394,291L315.152,297L290.909,297L266.667,285L242.424,294L218.182,297L193.939,297L169.697,294L145.455,300L121.212,300L96.97,300L72.727,300L48.485,300L24.242,300L0,300Z" fill="#ff9da6"/></g></g><path class="foreground" aria-hidden="true" d="" display="none"/></g><g transform="translate(0,0)"><path class="background" aria-hidden="true" d="M0,0h800v300h-800Z"/><g><g class="mark-area role-mark marks" role="graphics-object" aria-roledescription="area mark container"><path aria-label="Date: Mar 16, 2026; Unique Clones/day: 0; Repository: karlmdavis/usgs-water-api-java" role="graphics-symbol" aria-roledescription="area mark" d="M0,300L24.242,300L48.485,300L72.727,300L96.97,300L121.212,300L145.455,300L169.697,294L193.939,297L218.182,297L242.424,294L266.667,285L290.909,297L315.152,297L339.394,291L363.636,291L387.879,294L412.121,297L436.364,297L460.606,288L484.848,297L509.091,294L533.333,294L557.576,297L581.818,288L606.061,294L630.303,294L654.545,291L678.788,276L703.03,297L727.273,297L751.515,294L775.758,294L800,297L800,300L775.758,297L751.515,300L727.273,300L703.03,300L678.788,285L654.545,300L630.303,297L606.061,297L581.818,294L557.576,300L533.333,297L509.091,300L484.848,300L460.606,294L436.364,300L412.121,300L387.879,297L363.636,294L339.394,297L315.152,300L290.909,300L266.667,291L242.424,300L218.182,300L193.939,300L169.697,300L145.455,300L121.212,300L96.97,300L72.727,300L48.485,300L24.242,300L0,300Z" fill="#9d755d"/></g></g><path class="foreground" aria-hidden="true" d="" display="none"/></g><g transform="translate(0,0)"><path class="background" aria-hidden="true" d="M0,0h800v300h-800Z"/><g><g class="mark-area role-mark marks" role="graphics-object" aria-roledescription="area mark container"><path aria-label="Date: Mar 16, 2026; Unique Clones/day: 0; Repository: karlmdavis/workstation-base-ansible-role" role="graphics-symbol" aria-roledescription="area mark" d="M0,300L24.242,300L48.485,300L72.727,300L96.97,300L121.212,300L145.455,300L169.697,300L193.939,300L218.182,300L242.424,300L266.667,291L290.909,300L315.152,300L339.394,297L363.636,294L387.879,297L412.121,300L436.364,300L460.606,294L484.848,300L509.091,300L533.333,297L557.576,300L581.818,294L606.061,297L630.303,297L654.545,300L678.788,285L703.03,300L727.273,300L751.515,300L775.758,297L800,300L800,300L775.758,297L751.515,300L727.273,300L703.03,300L678.788,294L654.545,300L630.303,300L606.061,297L581.818,297L557.576,300L533.333,297L509.091,300L484.848,300L460.606,297L436.364,300L412.121,300L387.879,300L363.636,297L339.394,300L315.152,300L290.909,300L266.667,297L242.424,300L218.182,300L193.939,300L169.697,300L145.455,300L121.212,300L96.97,300L72.727,300L48.485,300L24.242,300L0,300Z" fill="#bab0ac"/></g></g><path class="foreground" aria-hidden="true" d="" display="none"/></g><g transform="translate(0,0)"><path class="background" aria-hidden="true" d="M0,0h800v300h-800Z"/><g><g class="mark-area role-mark marks" role="graphics-object" aria-roledescription="area mark container"><path aria-label="Date: Mar 16, 2026; Unique Clones/day: 0; Repository: karlmdavis/xmlpull" role="graphics-symbol" aria-roledescription="area mark" d="M0,300L24.242,300L48.485,300L72.727,300L96.97,300L121.212,300L145.455,300L169.697,300L193.939,300L218.182,300L242.424,300L266.667,297L290.909,300L315.152,300L339.394,300L363.636,297L387.879,300L412.121,300L436.364,300L460.606,297L484.848,300L509.091,300L533.333,297L557.576,300L581.818,297L606.061,297L630.303,300L654.545,300L678.788,294L703.03,300L727.273,300L751.515,300L775.758,297L800,300L800,300L775.758,300L751.515,300L727.273,300L703.03,300L678.788,300L654.545,300L630.303,300L606.061,300L581.818,300L557.576,300L533.333,300L509.091,300L484.848,300L460.606,300L436.364,300L412.121,300L387.879,300L363.636,300L339.394,300L315.152,300L290.909,300L266.667,300L242.424,300L218.182,300L193.939,300L169.697,300L145.455,300L121.212,300L96.97,300L72.727,300L48.485,300L24.242,300L0,300Z" fill="#4c78a8"/></g></g><path class="foreground" aria-hidden="true" d="" display="none"/></g></g><g class="mark-group role-legend" role="graphics-symbol" aria-roledescription="legend" aria-label="Symbol legend titled 'Repository' for fill color with 41 values: karlmdavis/FHIR-Server, karlmdavis/ansible, karlmdavis/ansible-jenkins, karlmdavis/ansible-role-acmetool, karlmdavis/ansible-role-bind-dns, ending with karlmdavis/xmlpull"><g transform="translate(818,0)"><path class="background" aria-hidden="true" d="M0,0h176v404h-176Z" pointer-events="none"/><g><g class="mark-group role-legend-entry"><g transform="translate(0,16)"><path class="background" aria-hidden="true" d="M0,0h0v0h0Z" pointer-events="none"/><g><g class="mark-group role-scope" role="graphics-object" aria-roledescription="group mark container"><g transform="translate(0,0)"><path class="background" aria-hidden="true" d="M0,0h176v11h-176Z" pointer-events="none" opacity="1"/><g><g class="mark-symbol role-legend-symbol" pointer-events="none"><path transform="translate(6,6)" d="M5,0A5,5,0,1,1,-5,0A5,5,0,1,1,5,0" fill="#4c78a8" stroke-width="1.5" opacity="1"/></g><g class="mark-text role-legend-label" pointer-events="none"><text text-anchor="start" transform="translate(16,9)" font-family="sans-serif" font-size="10px" fill="#000" opacity="1">karlmdavis/FHIR-Server</text></g></g><path class="foreground" aria-hidden="true" d="" pointer-events="none" display="none"/></g><g transform="translate(0,13)"><path class="background" aria-hidden="true" d="M0,0h176v11h-176Z" pointer-events="none" opacity="1"/><g><g class="mark-symbol role-legend-symbol" pointer-events="none"><path transform="translate(6,6)" d="M5,0A5,5,0,1,1,-5,0A5,5,0,1,1,5,0" fill="#f58518" stroke-width="1.5" opacity="1"/></g><g class="mark-text role-legend-label" pointer-events="none"><text text-anchor="start" transform="translate(16,9)" font-family="sans-serif" font-size="10px" fill="#000" opacity="1">karlmdavis/ansible</text></g></g><path class="foreground" aria-hidden="true" d="" pointer-events="none" display="none"/></g><g transform="translate(0,26)"><path class="background" aria-hidden="true" d="M0,0h176v11h-176Z" pointer-events="none" opacity="1"/><g><g class="mark-symbol role-legend-symbol" pointer-events="none"><path transform="translate(6,6)" d="M5,0A5,5,0,1,1,-5,0A5,5,0,1,1,5,0" fill="#e45756" stroke-width="1.5" opacity="1"/></g><g class="mark-text role-legend-label" pointer-events="none"><text text-anchor="start" transform="translate(16,9)" font-family="sans-serif" font-size="10px" fill="#000" opacity="1">karlmdavis/ansible-jenkins</text></g></g><path class="foreground" aria-hidden="true" d="" pointer-events="none" display="none"/></g><g transform="translate(0,39)"><path class="background" aria-hidden="true" d="M0,0h176v11h-176Z" pointer-events="none" opacity="1"/><g><g class="mark-symbol role-legend-symbol" pointer-events="none"><path transform="translate(6,6)" d="M5,0A5,5,0,1,1,-5,0A5,5,0,1,1,5,0" fill="#72b7b2" stroke-width="1.5" opacity="1"/></g><g class="mark-text role-legend-label" pointer-events="none"><text text-anchor="start" transform="translate(16,9)" font-family="sans-serif" font-size="10px" fill="#000" opacity="1">karlmdavis/ansible-role-acmetool</text></g></g><path class="foreground" aria-hidden="true" d="" pointer-events="none" display="none"/></g><g transform="translate(0,52)"><path class="background" aria-hidden="true" d="M0,0h176v11h-176Z" pointer-events="none" opacity="1"/><g><g class="mark-symbol role-legend-symbol" pointer-events="none"><path transform="translate(6,6)" d="M5,0A5,5,0,1,1,-5,0A5,5,0,1,1,5,0" fill="#54a24b" stroke-width="1.5" opacity="1"/></g><g class="mark-text role-legend-label" pointer-events="none"><text text-anchor="start" transform="translate(16,9)" font-family="sans-serif" font-size="10px" fill="#000" opacity="1">karlmdavis/ansible-role-bind-dns</text></g></g><path class="foreground" aria-hidden="true" d="" pointer-events="none" display="none"/></g><g transform="translate(0,65)"><path class="background" aria-hidden="true" d="M0,0h176v11h-176Z" pointer-events="none" opacity="1"/><g><g class="mark-symbol role-legend-symbol" pointer-events="none"><path transform="translate(6,6)" d="M5,0A5,5,0,1,1,-5,0A5,5,0,1,1,5,0" fill="#eeca3b" stroke-width="1.5" opacity="1"/></g><g class="mark-text role-legend-label" pointer-events="none"><text text-anchor="start" transform="translate(16,9)" font-family="sans-serif" font-size="10px" fill="#000" opacity="1">karlmdavis/ansible-role-jenkins2</text></g></g><path class="foreground" aria-hidden="true" d="" pointer-events="none" display="none"/></g><g transform="translate(0,78)"><path class="background" aria-hidden="true" d="M0,0h176v11h-176Z" pointer-events="none" opacity="1"/><g><g class="mark-symbol role-legend-symbol" pointer-events="none"><path transform="translate(6,6)" d="M5,0A5,5,0,1,1,-5,0A5,5,0,1,1,5,0" fill="#b279a2" stroke-width="1.5" opacity="1"/></g><g class="mark-text role-legend-label" pointer-events="none"><text text-anchor="start" transform="translate(16,9)" font-family="sans-serif" font-size="10px" fill="#000" opacity="1">karlmdavis/ansible-role-ldap</text></g></g><path class="foreground" aria-hidden="true" d="" pointer-events="none" display="none"/></g><g transform="translate(0,91)"><path class="background" aria-hidden="true" d="M0,0h176v11h-176Z" pointer-events="none" opacity="1"/><g><g class="mark-symbol role-legend-symbol" pointer-events="none"><path transform="translate(6,6)" d="M5,0A5,5,0,1,1,-5,0A5,5,0,1,1,5,0" fill="#ff9da6" stroke-width="1.5" opacity="1"/></g><g class="mark-text role-legend-label" pointer-events="none"><text text-anchor="start" transform="translate(16,9)" font-family="sans-serif" font-size="10px" fill="#000" opacity="1">karlmdavis/ansible-role-rcm-dotfiles</text></g></g><path class="foreground" aria-hidden="true" d="" pointer-events="none" display="none"/></g><g transform="translate(0,104)"><path class="background" aria-hidden="true" d="M0,0h176v11h-176Z" pointer-events="none" opacity="1"/><g><g class="mark-symbol role-legend-symbol" pointer-events="none"><path transform="translate(6,6)" d="M5,0A5,5,0,1,1,-5,0A5,5,0,1,1,5,0" fill="#9d755d" stroke-width="1.5" opacity="1"/></g><g class="mark-text role-legend-label" pointer-events="none"><text text-anchor="start" transform="translate(16,9)" font-family="sans-serif" font-size="10px" fill="#000" opacity="1">karlmdavis/ansible-roles</text></g></g><path class="foreground" aria-hidden="true" d="" pointer-events="none" display="none"/></g><g transform="translate(0,117)"><path class="background" aria-hidden="true" d="M0,0h176v11h-176Z" pointer-events="none" opacity="1"/><g><g class="mark-symbol role-legend-symbol" pointer-events="none"><path transform="translate(6,6)" d="M5,0A5,5,0,1,1,-5,0A5,5,0,1,1,5,0" fill="#bab0ac" stroke-width="1.5" opacity="1"/></g><g class="mark-text role-legend-label" pointer-events="none"><text text-anchor="start" transform="translate(16,9)" font-family="sans-serif" font-size="10px" fill="#000" opacity="1">karlmdavis/bbonfhir-dev-infra-doc…</text></g></g><path class="foreground" aria-hidden="true" d="" pointer-events="none" display="none"/></g><g transform="translate(0,130)"><path class="background" aria-hidden="true" d="M0,0h176v11h-176Z" pointer-events="none" opacity="1"/><g><g class="mark-symbol role-legend-symbol" pointer-events="none"><path transform="translate(6,6)" d="M5,0A5,5,0,1,1,-5,0A5,5,0,1,1,5,0" fill="#4c78a8" stroke-width="1.5" opacity="1"/></g><g class="mark-text role-legend-label" pointer-events="none"><text text-anchor="start" transform="translate(16,9)" font-family="sans-serif" font-size="10px" fill="#000" opacity="1">karlmdavis/can-i-kayak-baltimore</text></g></g><path class="foreground" aria-hidden="true" d="" pointer-events="none" display="none"/></g><g transform="translate(0,143)"><path class="background" aria-hidden="true" d="M0,0h176v11h-176Z" pointer-events="none" opacity="1"/><g><g class="mark-symbol role-legend-symbol" pointer-events="none"><path transform="translate(6,6)" d="M5,0A5,5,0,1,1,-5,0A5,5,0,1,1,5,0" fill="#f58518" stroke-width="1.5" opacity="1"/></g><g class="mark-text role-legend-label" pointer-events="none"><text text-anchor="start" transform="translate(16,9)" font-family="sans-serif" font-size="10px" fill="#000" opacity="1">karlmdavis/datanucleus-test-jdo-1…</text></g></g><path class="foreground" aria-hidden="true" d="" pointer-events="none" display="none"/></g><g transform="translate(0,156)"><path class="background" aria-hidden="true" d="M0,0h176v11h-176Z" pointer-events="none" opacity="1"/><g><g class="mark-symbol role-legend-symbol" pointer-events="none"><path transform="translate(6,6)" d="M5,0A5,5,0,1,1,-5,0A5,5,0,1,1,5,0" fill="#e45756" stroke-width="1.5" opacity="1"/></g><g class="mark-text role-legend-label" pointer-events="none"><text text-anchor="start" transform="translate(16,9)" font-family="sans-serif" font-size="10px" fill="#000" opacity="1">karlmdavis/dotfiles</text></g></g><path class="foreground" aria-hidden="true" d="" pointer-events="none" display="none"/></g><g transform="translate(0,169)"><path class="background" aria-hidden="true" d="M0,0h176v11h-176Z" pointer-events="none" opacity="1"/><g><g class="mark-symbol role-legend-symbol" pointer-events="none"><path transform="translate(6,6)" d="M5,0A5,5,0,1,1,-5,0A5,5,0,1,1,5,0" fill="#72b7b2" stroke-width="1.5" opacity="1"/></g><g class="mark-text role-legend-label" pointer-events="none"><text text-anchor="start" transform="translate(16,9)" font-family="sans-serif" font-size="10px" fill="#000" opacity="1">karlmdavis/fhir-benchmarks</text></g></g><path class="foreground" aria-hidden="true" d="" pointer-events="none" display="none"/></g><g transform="translate(0,182)"><path class="background" aria-hidden="true" d="M0,0h176v11h-176Z" pointer-events="none" opacity="1"/><g><g class="mark-symbol role-legend-symbol" pointer-events="none"><path transform="translate(6,6)" d="M5,0A5,5,0,1,1,-5,0A5,5,0,1,1,5,0" fill="#54a24b" stroke-width="1.5" opacity="1"/></g><g class="mark-text role-legend-label" pointer-events="none"><text text-anchor="start" transform="translate(16,9)" font-family="sans-serif" font-size="10px" fill="#000" opacity="1">karlmdavis/hapi-fhir-jpaserver-sta…</text></g></g><path class="foreground" aria-hidden="true" d="" pointer-events="none" display="none"/></g><g transform="translate(0,195)"><path class="background" aria-hidden="true" d="M0,0h176v11h-176Z" pointer-events="none" opacity="1"/><g><g class="mark-symbol role-legend-symbol" pointer-events="none"><path transform="translate(6,6)" d="M5,0A5,5,0,1,1,-5,0A5,5,0,1,1,5,0" fill="#eeca3b" stroke-width="1.5" opacity="1"/></g><g class="mark-text role-legend-label" pointer-events="none"><text text-anchor="start" transform="translate(16,9)" font-family="sans-serif" font-size="10px" fill="#000" opacity="1">karlmdavis/hello-rust-actix</text></g></g><path class="foreground" aria-hidden="true" d="" pointer-events="none" display="none"/></g><g transform="translate(0,208)"><path class="background" aria-hidden="true" d="M0,0h176v11h-176Z" pointer-events="none" opacity="1"/><g><g class="mark-symbol role-legend-symbol" pointer-events="none"><path transform="translate(6,6)" d="M5,0A5,5,0,1,1,-5,0A5,5,0,1,1,5,0" fill="#b279a2" stroke-width="1.5" opacity="1"/></g><g class="mark-text role-legend-label" pointer-events="none"><text text-anchor="start" transform="translate(16,9)" font-family="sans-serif" font-size="10px" fill="#000" opacity="1">karlmdavis/jessentials</text></g></g><path class="foreground" aria-hidden="true" d="" pointer-events="none" display="none"/></g><g transform="translate(0,221)"><path class="background" aria-hidden="true" d="M0,0h176v11h-176Z" pointer-events="none" opacity="1"/><g><g class="mark-symbol role-legend-symbol" pointer-events="none"><path transform="translate(6,6)" d="M5,0A5,5,0,1,1,-5,0A5,5,0,1,1,5,0" fill="#ff9da6" stroke-width="1.5" opacity="1"/></g><g class="mark-text role-legend-label" pointer-events="none"><text text-anchor="start" transform="translate(16,9)" font-family="sans-serif" font-size="10px" fill="#000" opacity="1">karlmdavis/justdavis-ansible</text></g></g><path class="foreground" aria-hidden="true" d="" pointer-events="none" display="none"/></g><g transform="translate(0,234)"><path class="background" aria-hidden="true" d="M0,0h176v11h-176Z" pointer-events="none" opacity="1"/><g><g class="mark-symbol role-legend-symbol" pointer-events="none"><path transform="translate(6,6)" d="M5,0A5,5,0,1,1,-5,0A5,5,0,1,1,5,0" fill="#9d755d" stroke-width="1.5" opacity="1"/></g><g class="mark-text role-legend-label" pointer-events="none"><text text-anchor="start" transform="translate(16,9)" font-family="sans-serif" font-size="10px" fill="#000" opacity="1">karlmdavis/justdavis-finances</text></g></g><path class="foreground" aria-hidden="true" d="" pointer-events="none" display="none"/></g><g transform="translate(0,247)"><path class="background" aria-hidden="true" d="M0,0h176v11h-176Z" pointer-events="none" opacity="1"/><g><g class="mark-symbol role-legend-symbol" pointer-events="none"><path transform="translate(6,6)" d="M5,0A5,5,0,1,1,-5,0A5,5,0,1,1,5,0" fill="#bab0ac" stroke-width="1.5" opacity="1"/></g><g class="mark-text role-legend-label" pointer-events="none"><text text-anchor="start" transform="translate(16,9)" font-family="sans-serif" font-size="10px" fill="#000" opacity="1">karlmdavis/justdavis-karl</text></g></g><path class="foreground" aria-hidden="true" d="" pointer-events="none" display="none"/></g><g transform="translate(0,260)"><path class="background" aria-hidden="true" d="M0,0h176v11h-176Z" pointer-events="none" opacity="1"/><g><g class="mark-symbol role-legend-symbol" pointer-events="none"><path transform="translate(6,6)" d="M5,0A5,5,0,1,1,-5,0A5,5,0,1,1,5,0" fill="#4c78a8" stroke-width="1.5" opacity="1"/></g><g class="mark-text role-legend-label" pointer-events="none"><text text-anchor="start" transform="translate(16,9)" font-family="sans-serif" font-size="10px" fill="#000" opacity="1">karlmdavis/justdavis-puppet</text></g></g><path class="foreground" aria-hidden="true" d="" pointer-events="none" display="none"/></g><g transform="translate(0,273)"><path class="background" aria-hidden="true" d="M0,0h176v11h-176Z" pointer-events="none" opacity="1"/><g><g class="mark-symbol role-legend-symbol" pointer-events="none"><path transform="translate(6,6)" d="M5,0A5,5,0,1,1,-5,0A5,5,0,1,1,5,0" fill="#f58518" stroke-width="1.5" opacity="1"/></g><g class="mark-text role-legend-label" pointer-events="none"><text text-anchor="start" transform="translate(16,9)" font-family="sans-serif" font-size="10px" fill="#000" opacity="1">karlmdavis/kobjects</text></g></g><path class="foreground" aria-hidden="true" d="" pointer-events="none" display="none"/></g><g transform="translate(0,286)"><path class="background" aria-hidden="true" d="M0,0h176v11h-176Z" pointer-events="none" opacity="1"/><g><g class="mark-symbol role-legend-symbol" pointer-events="none"><path transform="translate(6,6)" d="M5,0A5,5,0,1,1,-5,0A5,5,0,1,1,5,0" fill="#e45756" stroke-width="1.5" opacity="1"/></g><g class="mark-text role-legend-label" pointer-events="none"><text text-anchor="start" transform="translate(16,9)" font-family="sans-serif" font-size="10px" fill="#000" opacity="1">karlmdavis/ksoap2-android</text></g></g><path class="foreground" aria-hidden="true" d="" pointer-events="none" display="none"/></g><g transform="translate(0,299)"><path class="background" aria-hidden="true" d="M0,0h176v11h-176Z" pointer-events="none" opacity="1"/><g><g class="mark-symbol role-legend-symbol" pointer-events="none"><path transform="translate(6,6)" d="M5,0A5,5,0,1,1,-5,0A5,5,0,1,1,5,0" fill="#72b7b2" stroke-width="1.5" opacity="1"/></g><g class="mark-text role-legend-label" pointer-events="none"><text text-anchor="start" transform="translate(16,9)" font-family="sans-serif" font-size="10px" fill="#000" opacity="1">karlmdavis/kxml2</text></g></g><path class="foreground" aria-hidden="true" d="" pointer-events="none" display="none"/></g><g transform="translate(0,312)"><path class="background" aria-hidden="true" d="M0,0h176v11h-176Z" pointer-events="none" opacity="1"/><g><g class="mark-symbol role-legend-symbol" pointer-events="none"><path transform="translate(6,6)" d="M5,0A5,5,0,1,1,-5,0A5,5,0,1,1,5,0" fill="#54a24b" stroke-width="1.5" opacity="1"/></g><g class="mark-text role-legend-label" pointer-events="none"><text text-anchor="start" transform="translate(16,9)" font-family="sans-serif" font-size="10px" fill="#000" opacity="1">karlmdavis/ldap-plugin</text></g></g><path class="foreground" aria-hidden="true" d="" pointer-events="none" display="none"/></g><g transform="translate(0,325)"><path class="background" aria-hidden="true" d="M0,0h176v11h-176Z" pointer-events="none" opacity="1"/><g><g class="mark-symbol role-legend-symbol" pointer-events="none"><path transform="translate(6,6)" d="M5,0A5,5,0,1,1,-5,0A5,5,0,1,1,5,0" fill="#eeca3b" stroke-width="1.5" opacity="1"/></g><g class="mark-text role-legend-label" pointer-events="none"><text text-anchor="start" transform="translate(16,9)" font-family="sans-serif" font-size="10px" fill="#000" opacity="1">karlmdavis/lego-ev3dev-rs</text></g></g><path class="foreground" aria-hidden="true" d="" pointer-events="none" display="none"/></g><g transform="translate(0,338)"><path class="background" aria-hidden="true" d="M0,0h176v11h-176Z" pointer-events="none" opacity="1"/><g><g class="mark-symbol role-legend-symbol" pointer-events="none"><path transform="translate(6,6)" d="M5,0A5,5,0,1,1,-5,0A5,5,0,1,1,5,0" fill="#b279a2" stroke-width="1.5" opacity="1"/></g><g class="mark-text role-legend-label" pointer-events="none"><text text-anchor="start" transform="translate(16,9)" font-family="sans-serif" font-size="10px" fill="#000" opacity="1">karlmdavis/liquibase</text></g></g><path class="foreground" aria-hidden="true" d="" pointer-events="none" display="none"/></g><g transform="translate(0,351)"><path class="background" aria-hidden="true" d="M0,0h176v11h-176Z" pointer-events="none" opacity="1"/><g><g class="mark-symbol role-legend-symbol" pointer-events="none"><path transform="translate(6,6)" d="M5,0A5,5,0,1,1,-5,0A5,5,0,1,1,5,0" fill="#ff9da6" stroke-width="1.5" opacity="1"/></g><g class="mark-text role-legend-label" pointer-events="none"><text text-anchor="start" transform="translate(16,9)" font-family="sans-serif" font-size="10px" fill="#000" opacity="1">karlmdavis/m2e-core</text></g></g><path class="foreground" aria-hidden="true" d="" pointer-events="none" display="none"/></g><g transform="translate(0,364)"><path class="background" aria-hidden="true" d="M0,0h176v11h-176Z" pointer-events="none" opacity="1"/><g><g class="mark-symbol role-legend-symbol" pointer-events="none"><path transform="translate(6,6)" d="M5,0A5,5,0,1,1,-5,0A5,5,0,1,1,5,0" fill="#9d755d" stroke-width="1.5" opacity="1"/></g><g class="mark-text role-legend-label" pointer-events="none"><text text-anchor="start" transform="translate(16,9)" font-family="sans-serif" font-size="10px" fill="#000" opacity="1">karlmdavis/m2e-core-tests</text></g></g><path class="foreground" aria-hidden="true" d="" pointer-events="none" display="none"/></g><g transform="translate(0,377)"><path class="background" aria-hidden="true" d="M0,0h176v11h-176Z" pointer-events="none" opacity="1"/><g><g class="mark-symbol role-legend-symbol" pointer-events="none"><path transform="translate(6,6)" d="M5,0A5,5,0,1,1,-5,0A5,5,0,1,1,5,0" fill="#bab0ac" stroke-width="1.5" opacity="1"/></g><g class="mark-text role-legend-label" pointer-events="none"><text text-anchor="start" transform="translate(16,9)" font-family="sans-serif" font-size="10px" fill="#000" opacity="1">…12 entries</text></g></g><path class="foreground" aria-hidden="true" d="" pointer-events="none" display="none"/></g></g></g><path class="foreground" aria-hidden="true" d="" pointer-events="none" display="none"/></g></g><g class="mark-text role-legend-title" pointer-events="none"><text text-anchor="start" transform="translate(0,9)" font-family="sans-serif" font-size="11px" font-weight="bold" fill="#000" opacity="1">Repository</text></g></g><path class="foreground" aria-hidden="true" d="" pointer-events="none" display="none"/></g></g><g class="mark-group role-title"><g transform="translate(400,-22)"><path class="background" aria-hidden="true" d="M0,0h0v0h0Z" pointer-events="none"/><g><g class="mark-text role-title-text" role="graphics-symbol" aria-roledescription="title" aria-label="Title text 'Unique Clones per Day'" pointer-events="none"><text text-anchor="middle" transform="translate(0,10)" font-family="sans-serif" font-size="13px" font-weight="bold" fill="#000" opacity="1">Unique Clones per Day</text></g></g><path class="foreground" aria-hidden="true" d="" pointer-events="none" display="none"/></g></g></g><path class="foreground" aria-hidden="true" d="" display="none"/></g></g></g></svg>