<svg xmlns="http://www.w3.org/2000/svg" xmlns:xlink="http://www.w3.org/1999/xlink" version="1.1" class="marks" width="1043" height="436" viewBox="0 0 1043 436"><rect width="1043" height="436" fill="white"/><g fill="none" stroke-miterlimit="10" transform="translate(44,27)"><g class="mark-group role-frame root" role="graphics-object" aria-roledescription="group mark container"><g transform="translate(0,0)"><path class="background" aria-hidden="true" d="M0.5,0.5h800v300h-800Z" stroke="#ddd"/><g><g class="mark-group role-axis" aria-hidden="true"><g transform="translate(0.5,300.5)"><path class="background" aria-hidden="true" d="M0,0h0v0h0Z" pointer-events="none"/><g><g class="mark-rule role-axis-grid" pointer-events="none"><line transform="translate(23,-300)" x2="0" y2="300" stroke="#ddd" stroke-width="1" opacity="1"/><line transform="translate(69,-300)" x2="0" y2="300" stroke="#ddd" stroke-width="1" opacity="1"/><line transform="translate(114,-300)" x2="0" y2="300" stroke="#ddd" stroke-width="1" opacity="1"/><line transform="translate(160,-300)" x2="0" y2="300" stroke="#ddd" stroke-width="1" opacity="1"/><line transform="translate(206,-300)" x2="0" y2="300" stroke="#ddd" stroke-width="1" opacity="1"/><line transform="translate(251,-300)" x2="0" y2="300" stroke="#ddd" stroke-width="1" opacity="1"/><line transform="translate(297,-300)" x2="0" y2="300" stroke="#ddd" stroke-width="1" opacity="1"/><line transform="translate(343,-300)" x2="0" y2="300" stroke="#ddd" stroke-width="1" opacity="1"/><line transform="translate(366,-300)" x2="0" y2="300" stroke="#ddd" stroke-width="1" opacity="1"/><line transform="translate(411,-300)" x2="0" y2="300" stroke="#ddd" stroke-width="1" opacity="1"/><line transform="translate(457,-300)" x2="0" y2="300" stroke="#ddd" stroke-width="1" opacity="1"/><line transform="translate(503,-300)" x2="0" y2="300" stroke="#ddd" stroke-width="1" opacity="1"/><line transform="translate(549,-300)" x2="0" y2="300" stroke="#ddd" stroke-width="1" opacity="1"/><line transform="translate(594,-300)" x2="0" y2="300" stroke="#ddd" stroke-width="1" opacity="1"/><line transform="translate(640,-300)" x2="0" y2="300" stroke="#ddd" stroke-width="1" opacity="1"/><line transform="translate(686,-300)" x2="0" y2="300" stroke="#ddd" stroke-width="1" opacity="1"/><line transform="translate(731,-300)" x2="0" y2="300" stroke="#ddd" stroke-width="1" opacity="1"/><line transform="translate(777,-300)" x2="0" y2="300" stroke="#ddd" stroke-width="1" opacity="1"/></g></g><path class="foreground" aria-hidden="true" d="" pointer-events="none" display="none"/></g></g><g class="mark-group role-axis" aria-hidden="true"><g transform="translate(0.5,0.5)"><path class="background" aria-hidden="true" d="M0,0h0v0h0Z" pointer-events="none"/><g><g class="mark-rule role-axis-grid" pointer-events="none"><line transform="translate(0,300)" x2="800" y2="0" stroke="#ddd" stroke-width="1" opacity="1"/><line transform="translate(0,270)" x2="800" y2="0" stroke="#ddd" stroke-width="1" opacity="1"/><line transform="translate(0,240)" x2="800" y2="0" stroke="#ddd" stroke-width="1" opacity="1"/><line transform="translate(0,210)" x2="800" y2="0" stroke="#ddd" stroke-width="1" opacity="1"/><line transform="translate(0,180)" x2="800" y2="0" stroke="#ddd" stroke-width="1" opacity="1"/><line transform="translate(0,150)" x2="800" y2="0" stroke="#ddd" stroke-width="1" opacity="1"/><line transform="translate(0,120)" x2="800" y2="0" stroke="#ddd" stroke-width="1" opacity="1"/><line transform="translate(0,90)" x2="800" y2="0" stroke="#ddd" stroke-width="1" opacity="1"/><line transform="translate(0,60)" x2="800" y2="0" stroke="#ddd" stroke-width="1" opacity="1"/><line transform="translate(0,30)" x2="800" y2="0" stroke="#ddd" stroke-width="1" opacity="1"/><line transform="translate(0,0)" x2="800" y2="0" stroke="#ddd" stroke-width="1" opacity="1"/></g></g><path class="foreground" aria-hidden="true" d="" pointer-events="none" display="none"/></g></g><g class="mark-group role-axis" role="graphics-symbol" aria-roledescription="axis" aria-label="X-axis titled 'Date' for a time scale with values from Monday, 16 March 2026, 12:00:00 AM to Monday, 20 April 2026, 12:00:00 AM"><g transform="translate(0.5,300.5)"><path class="background" aria-hidden="true" d="M0,0h0v0h0Z" pointer-events="none"/><g><g class="mark-rule role-axis-tick" pointer-events="none"><line transform="translate(23,0)" x2="0" y2="5" stroke="#888" stroke-width="1" opacity="1"/><line transform="translate(69,0)" x2="0" y2="5" stroke="#888" stroke-width="1" opacity="1"/><line transform="translate(114,0)" x2="0" y2="5" stroke="#888" stroke-width="1" opacity="1"/><line transform="translate(160,0)" x2="0" y2="5" stroke="#888" stroke-width="1" opacity="1"/><line transform="translate(206,0)" x2="0" y2="5" stroke="#888" stroke-width="1" opacity="1"/><line transform="translate(251,0)" x2="0" y2="5" stroke="#888" stroke-width="1" opacity="1"/><line transform="translate(297,0)" x2="0" y2="5" stroke="#888" stroke-width="1" opacity="1"/><line transform="translate(343,0)" x2="0" y2="5" stroke="#888" stroke-width="1" opacity="1"/><line transform="translate(366,0)" x2="0" y2="5" stroke="#888" stroke-width="1" opacity="1"/><line transform="translate(411,0)" x2="0" y2="5" stroke="#888" stroke-width="1" opacity="1"/><line transform="translate(457,0)" x2="0" y2="5" stroke="#888" stroke-width="1" opacity="1"/><line transform="translate(503,0)" x2="0" y2="5" stroke="#888" stroke-width="1" opacity="1"/><line transform="translate(549,0)" x2="0" y2="5" stroke="#888" stroke-width="1" opacity="1"/><line transform="translate(594,0)" x2="0" y2="5" stroke="#888" stroke-width="1" opacity="1"/><line transform="translate(640,0)" x2="0" y2="5" stroke="#888" stroke-width="1" opacity="1"/><line transform="translate(686,0)" x2="0" y2="5" stroke="#888" stroke-width="1" opacity="1"/><line transform="translate(731,0)" x2="0" y2="5" stroke="#888" stroke-width="1" opacity="1"/><line transform="translate(777,0)" x2="0" y2="5" stroke="#888" stroke-width="1" opacity="1"/></g><g class="mark-text role-axis-label" pointer-events="none"><text text-anchor="middle" transform="translate(22.857142857142858,15)" font-family="sans-serif" font-size="10px" fill="#000" opacity="1">Tue 17</text><text text-anchor="middle" transform="translate(68.57142857142857,15)" font-family="sans-serif" font-size="10px" fill="#000" opacity="0">Thu 19</text><text text-anchor="middle" transform="translate(114.28571428571428,15)" font-family="sans-serif" font-size="10px" fill="#000" opacity="1">Sat 21</text><text text-anchor="middle" transform="translate(160,15)" font-family="sans-serif" font-size="10px" fill="#000" opacity="0">Mon 23</text><text text-anchor="middle" transform="translate(205.7142857142857,15)" font-family="sans-serif" font-size="10px" fill="#000" opacity="1">Wed 25</text><text text-anchor="middle" transform="translate(251.42857142857142,15)" font-family="sans-serif" font-size="10px" fill="#000" opacity="0">Fri 27</text><text text-anchor="middle" transform="translate(297.14285714285717,15)" font-family="sans-serif" font-size="10px" fill="#000" opacity="1">Mar 29</text><text text-anchor="middle" transform="translate(342.85714285714283,15)" font-family="sans-serif" font-size="10px" fill="#000" opacity="0">Tue 31</text><text text-anchor="middle" transform="translate(365.7142857142857,15)" font-family="sans-serif" font-size="10px" fill="#000" opacity="1">April</text><text text-anchor="middle" transform="translate(411.4285714285714,15)" font-family="sans-serif" font-size="10px" fill="#000" opacity="0">Fri 03</text><text text-anchor="middle" transform="translate(457.1428571428571,15)" font-family="sans-serif" font-size="10px" fill="#000" opacity="1">Apr 05</text><text text-anchor="middle" transform="translate(502.85714285714283,15)" font-family="sans-serif" font-size="10px" fill="#000" opacity="0">Tue 07</text><text text-anchor="middle" transform="translate(548.5714285714286,15)" font-family="sans-serif" font-size="10px" fill="#000" opacity="1">Thu 09</text><text text-anchor="middle" transform="translate(594.2857142857143,15)" font-family="sans-serif" font-size="10px" fill="#000" opacity="0">Sat 11</text><text text-anchor="middle" transform="translate(640,15)" font-family="sans-serif" font-size="10px" fill="#000" opacity="1">Mon 13</text><text text-anchor="middle" transform="translate(685.7142857142857,15)" font-family="sans-serif" font-size="10px" fill="#000" opacity="0">Wed 15</text><text text-anchor="middle" transform="translate(731.4285714285714,15)" font-family="sans-serif" font-size="10px" fill="#000" opacity="1">Fri 17</text><text text-anchor="middle" transform="translate(777.1428571428571,15)" font-family="sans-serif" font-size="10px" fill="#000" opacity="0">Apr 19</text></g><g class="mark-rule role-axis-domain" pointer-events="none"><line transform="translate(0,0)" x2="800" y2="0" stroke="#888" stroke-width="1" opacity="1"/></g><g class="mark-text role-axis-title" pointer-events="none"><text text-anchor="middle" transform="translate(400,30)" font-family="sans-serif" font-size="11px" font-weight="bold" fill="#000" opacity="1">Date</text></g></g><path class="foreground" aria-hidden="true" d="" pointer-events="none" display="none"/></g></g><g class="mark-group role-axis" role="graphics-symbol" aria-roledescription="axis" aria-label="Y-axis titled 'Unique Clones/day' for a linear scale with values from 0 to 100"><g transform="translate(0.5,0.5)"><path class="background" aria-hidden="true" d="M0,0h0v0h0Z" pointer-events="none"/><g><g class="mark-rule role-axis-tick" pointer-events="none"><line transform="translate(0,300)" x2="-5" y2="0" stroke="#888" stroke-width="1" opacity="1"/><line transform="translate(0,270)" x2="-5" y2="0" stroke="#888" stroke-width="1" opacity="1"/><line transform="translate(0,240)" x2="-5" y2="0" stroke="#888" stroke-width="1" opacity="1"/><line transform="translate(0,210)" x2="-5" y2="0" stroke="#888" stroke-width="1" opacity="1"/><line transform="translate(0,180)" x2="-5" y2="0" stroke="#888" stroke-width="1" opacity="1"/><line transform="translate(0,150)" x2="-5" y2="0" stroke="#888" stroke-width="1" opacity="1"/><line transform="translate(0,120)" x2="-5" y2="0" stroke="#888" stroke-width="1" opacity="1"/><line transform="translate(0,90)" x2="-5" y2="0" stroke="#888" stroke-width="1" opacity="1"/><line transform="translate(0,60)" x2="-5" y2="0" stroke="#888" stroke-width="1" opacity="1"/><line transform="translate(0,30)" x2="-5" y2="0" stroke="#888" stroke-width="1" opacity="1"/><line transform="translate(0,0)" x2="-5" y2="0" stroke="#888" stroke-width="1" opacity="1"/></g><g class="mark-text role-axis-label" pointer-events="none"><text text-anchor="end" transform="translate(-7,303)" font-family="sans-serif" font-size="10px" fill="#000" opacity="1">0</text><text text-anchor="end" transform="translate(-7,273)" font-family="sans-serif" font-size="10px" fill="#000" opacity="1">10</text><text text-anchor="end" transform="translate(-7,243)" font-family="sans-serif" font-size="10px" fill="#000" opacity="1">20</text><text text-anchor="end" transform="translate(-7,213)" font-family="sans-serif" font-size="10px" fill="#000" opacity="1">30</text><text text-anchor="end" transform="translate(-7,183)" font-family="sans-serif" font-size="10px" fill="#000" opacity="1">40</text><text text-anchor="end" transform="translate(-7,153)" font-family="sans-serif" font-size="10px" fill="#000" opacity="1">50</text><text text-anchor="end" transform="translate(-7,123)" font-family="sans-serif" font-size="10px" fill="#000" opacity="1">60</text><text text-anchor="end" transform="translate(-7,93.00000000000001)" font-family="sans-serif" font-size="10px" fill="#000" opacity="1">70</text><text text-anchor="end" transform="translate(-7,62.999999999999986)" font-family="sans-serif" font-size="10px" fill="#000" opacity="1">80</text><text text-anchor="end" transform="translate(-7,32.99999999999999)" font-family="sans-serif" font-size="10px" fill="#000" opacity="1">90</text><text text-anchor="end" transform="translate(-7,3)" font-family="sans-serif" font-size="10px" fill="#000" opacity="1">100</text></g><g class="mark-rule role-axis-domain" pointer-events="none"><line transform="translate(0,300)" x2="0" y2="-300" stroke="#888" stroke-width="1" opacity="1"/></g><g class="mark-text role-axis-title" pointer-events="none"><text text-anchor="middle" transform="translate(-27.6845703125,150) rotate(-90) translate(0,-2)" font-family="sans-serif" font-size="11px" font-weight="bold" fill="#000" opacity="1">Unique Clones/day</text></g></g><path class="foreground" aria-hidden="true" d="" pointer-events="none" display="none"/></g></g><g class="mark-group role-scope pathgroup" role="graphics-object" aria-roledescription="group mark container"><g transform="translate(0,0)"><path class="background" aria-hidden="true" d="M0,0h800v300h-800Z"/><g><g class="mark-area role-mark marks" role="graphics-object" aria-roledescription="area mark container"><path aria-label="Date: Mar 16, 2026; Unique Clones/day: 0; Repository: karlmdavis/FHIR-Server" role="graphics-symbol" aria-roledescription="area mark" d="M0,297L22.857,300L45.714,300L68.571,297L91.429,300L114.286,300L137.143,300L160,264L182.857,294L205.714,279L228.571,252L251.429,93L274.286,162L297.143,12L320,201L342.857,231L365.714,246L388.571,270L411.429,213L434.286,36L457.143,57L480,261L502.857,210L525.714,213L548.571,177L571.429,264L594.286,222L617.143,192L640,33L662.857,264L685.714,264L708.571,282L731.429,282L754.286,291L777.143,237L800,183L800,186L777.143,237L754.286,291L731.429,282L708.571,282L685.714,264L662.857,264L640,33L617.143,195L594.286,228L571.429,264L548.571,177L525.714,213L502.857,210L480,261L457.143,57L434.286,36L411.429,213L388.571,270L365.714,246L342.857,234L320,201L297.143,12L274.286,162L251.429,93L228.571,252L205.714,279L182.857,294L160,264L137.143,300L114.286,300L91.429,300L68.571,297L45.714,300L22.857,300L0,297Z" fill="#4c78a8"/></g></g><path class="foreground" aria-hidden="true" d="" display="none"/></g><g transform="translate(0,0)"><path class="background" aria-hidden="true" d="M0,0h800v300h-800Z"/><g><g class="mark-area role-mark marks" role="graphics-object" aria-roledescription="area mark container"><path aria-label="Date: Mar 16, 2026; Unique Clones/day: 1; Repository: karlmdavis/ansible" role="graphics-symbol" aria-roledescription="area mark" d="M0,297L22.857,300L45.714,300L68.571,297L91.429,300L114.286,300L137.143,300L160,264L182.857,294L205.714,279L228.571,252L251.429,93L274.286,162L297.143,12L320,201L342.857,234L365.714,246L388.571,270L411.429,213L434.286,36L457.143,57L480,261L502.857,210L525.714,213L548.571,177L571.429,264L594.286,228L617.143,195L640,33L662.857,264L685.714,264L708.571,282L731.429,282L754.286,291L777.143,237L800,186L800,186L777.143,237L754.286,291L731.429,282L708.571,282L685.714,264L662.857,267L640,33L617.143,195L594.286,228L571.429,264L548.571,177L525.714,213L502.857,210L480,261L457.143,57L434.286,36L411.429,213L388.571,270L365.714,246L342.857,234L320,201L297.143,12L274.286,162L251.429,93L228.571,252L205.714,279L182.857,294L160,264L137.143,300L114.286,300L91.429,300L68.571,297L45.714,300L22.857,300L0,300Z" fill="#f58518"/></g></g><path class="foreground" aria-hidden="true" d="" display="none"/></g><g transform="translate(0,0)"><path class="background" aria-hidden="true" d="M0,0h800v300h-800Z"/><g><g class="mark-area role-mark marks" role="graphics-object" aria-roledescription="area mark container"><path aria-label="Date: Mar 16, 2026; Unique Clones/day: 0; Repository: karlmdavis/ansible-jenkins" role="graphics-symbol" aria-roledescription="area mark" d="M0,300L22.857,300L45.714,300L68.571,297L91.429,300L114.286,300L137.143,300L160,264L182.857,294L205.714,279L228.571,252L251.429,93L274.286,162L297.143,12L320,201L342.857,234L365.714,246L388.571,270L411.429,213L434.286,36L457.143,57L480,261L502.857,210L525.714,213L548.571,177L571.429,264L594.286,228L617.143,195L640,33L662.857,267L685.714,264L708.571,282L731.429,282L754.286,291L777.143,237L800,186L800,186L777.143,237L754.286,291L731.429,282L708.571,282L685.714,264L662.857,267L640,33L617.143,198L594.286,228L571.429,264L548.571,177L525.714,213L502.857,210L480,261L457.143,57L434.286,39L411.429,216L388.571,270L365.714,246L342.857,234L320,201L297.143,12L274.286,162L251.429,93L228.571,255L205.714,279L182.857,294L160,264L137.143,300L114.286,300L91.429,300L68.571,297L45.714,300L22.857,300L0,300Z" fill="#e45756"/></g></g><path class="foreground" aria-hidden="true" d="" display="none"/></g><g transform="translate(0,0)"><path class="background" aria-hidden="true" d="M0,0h800v300h-800Z"/><g><g class="mark-area role-mark marks" role="graphics-object" aria-roledescription="area mark container"><path aria-label="Date: Mar 16, 2026; Unique Clones/day: 0; Repository: karlmdavis/ansible-role-acmetool" role="graphics-symbol" aria-roledescription="area mark" d="M0,300L22.857,300L45.714,300L68.571,297L91.429,300L114.286,300L137.143,300L160,264L182.857,294L205.714,279L228.571,255L251.429,93L274.286,162L297.143,12L320,201L342.857,234L365.714,246L388.571,270L411.429,216L434.286,39L457.143,57L480,261L502.857,210L525.714,213L548.571,177L571.429,264L594.286,228L617.143,198L640,33L662.857,267L685.714,264L708.571,282L731.429,282L754.286,291L777.143,237L800,186L800,186L777.143,237L754.286,291L731.429,282L708.571,282L685.714,264L662.857,267L640,33L617.143,201L594.286,228L571.429,264L548.571,177L525.714,213L502.857,210L480,261L457.143,57L434.286,39L411.429,216L388.571,270L365.714,246L342.857,234L320,201L297.143,12L274.286,162L251.429,93L228.571,258L205.714,279L182.857,294L160,264L137.143,300L114.286,300L91.429,300L68.571,297L45.714,300L22.857,300L0,300Z" fill="#72b7b2"/></g></g><path class="foreground" aria-hidden="true" d="" display="none"/></g><g transform="translate(0,0)"><path class="background" aria-hidden="true" d="M0,0h800v300h-800Z"/><g><g class="mark-area role-mark marks" role="graphics-object" aria-roledescription="area mark container"><path aria-label="Date: Mar 16, 2026; Unique Clones/day: 0; Repository: karlmdavis/ansible-role-bind-dns" role="graphics-symbol" aria-roledescription="area mark" d="M0,300L22.857,300L45.714,300L68.571,297L91.429,300L114.286,300L137.143,300L160,264L182.857,294L205.714,279L228.571,258L251.429,93L274.286,162L297.143,12L320,201L342.857,234L365.714,246L388.571,270L411.429,216L434.286,39L457.143,57L480,261L502.857,210L525.714,213L548.571,177L571.429,264L594.286,228L617.143,201L640,33L662.857,267L685.714,264L708.571,282L731.429,282L754.286,291L777.143,237L800,186L800,189L777.143,237L754.286,291L731.429,282L708.571,285L685.714,264L662.857,267L640,45L617.143,204L594.286,228L571.429,264L548.571,180L525.714,216L502.857,210L480,261L457.143,57L434.286,42L411.429,216L388.571,270L365.714,255L342.857,234L320,204L297.143,15L274.286,162L251.429,99L228.571,258L205.714,279L182.857,294L160,264L137.143,300L114.286,300L91.429,300L68.571,297L45.714,300L22.857,300L0,300Z" fill="#54a24b"/></g></g><path class="foreground" aria-hidden="true" d="" display="none"/></g><g transform="translate(0,0)"><path class="background" aria-hidden="true" d="M0,0h800v300h-800Z"/><g><g class="mark-area role-mark marks" role="graphics-object" aria-roledescription="area mark container"><path aria-label="Date: Mar 16, 2026; Unique Clones/day: 0; Repository: karlmdavis/ansible-role-jenkins2" role="graphics-symbol" aria-roledescription="area mark" d="M0,300L22.857,300L45.714,300L68.571,297L91.429,300L114.286,300L137.143,300L160,264L182.857,294L205.714,279L228.571,258L251.429,99L274.286,162L297.143,15L320,204L342.857,234L365.714,255L388.571,270L411.429,216L434.286,42L457.143,57L480,261L502.857,210L525.714,216L548.571,180L571.429,264L594.286,228L617.143,204L640,45L662.857,267L685.714,264L708.571,285L731.429,282L754.286,291L777.143,237L800,189L800,192L777.143,237L754.286,291L731.429,282L708.571,285L685.714,267L662.857,267L640,60L617.143,204L594.286,231L571.429,270L548.571,195L525.714,216L502.857,210L480,261L457.143,60L434.286,48L411.429,219L388.571,273L365.714,258L342.857,237L320,204L297.143,15L274.286,165L251.429,102L228.571,261L205.714,282L182.857,297L160,264L137.143,300L114.286,300L91.429,300L68.571,297L45.714,300L22.857,300L0,300Z" fill="#eeca3b"/></g></g><path class="foreground" aria-hidden="true" d="" display="none"/></g><g transform="translate(0,0)"><path class="background" aria-hidden="true" d="M0,0h800v300h-800Z"/><g><g class="mark-area role-mark marks" role="graphics-object" aria-roledescription="area mark container"><path aria-label="Date: Mar 16, 2026; Unique Clones/day: 0; Repository: karlmdavis/ansible-role-ldap" role="graphics-symbol" aria-roledescription="area mark" d="M0,300L22.857,300L45.714,300L68.571,297L91.429,300L114.286,300L137.143,300L160,264L182.857,297L205.714,282L228.571,261L251.429,102L274.286,165L297.143,15L320,204L342.857,237L365.714,258L388.571,273L411.429,219L434.286,48L457.143,60L480,261L502.857,210L525.714,216L548.571,195L571.429,270L594.286,231L617.143,204L640,60L662.857,267L685.714,267L708.571,285L731.429,282L754.286,291L777.143,237L800,192L800,192L777.143,237L754.286,291L731.429,282L708.571,285L685.714,267L662.857,267L640,63L617.143,204L594.286,231L571.429,270L548.571,195L525.714,216L502.857,210L480,261L457.143,60L434.286,48L411.429,219L388.571,273L365.714,258L342.857,240L320,204L297.143,15L274.286,165L251.429,102L228.571,261L205.714,282L182.857,297L160,264L137.143,300L114.286,300L91.429,300L68.571,297L45.714,300L22.857,300L0,300Z" fill="#b279a2"/></g></g><path class="foreground" aria-hidden="true" d="" display="none"/></g><g transform="translate(0,0)"><path class="background" aria-hidden="true" d="M0,0h800v300h-800Z"/><g><g class="mark-area role-mark marks" role="graphics-object" aria-roledescription="area mark container"><path aria-label="Date: Mar 16, 2026; Unique Clones/day: 0; Repository: karlmdavis/ansible-role-rcm-dotfiles" role="graphics-symbol" aria-roledescription="area mark" d="M0,300L22.857,300L45.714,300L68.571,297L91.429,300L114.286,300L137.143,300L160,264L182.857,297L205.714,282L228.571,261L251.429,102L274.286,165L297.143,15L320,204L342.857,240L365.714,258L388.571,273L411.429,219L434.286,48L457.143,60L480,261L502.857,210L525.714,216L548.571,195L571.429,270L594.286,231L617.143,204L640,63L662.857,267L685.714,267L708.571,285L731.429,282L754.286,291L777.143,237L800,192L800,195L777.143,237L754.286,291L731.429,282L708.571,285L685.714,270L662.857,267L640,72L617.143,207L594.286,231L571.429,270L548.571,198L525.714,216L502.857,210L480,261L457.143,60L434.286,51L411.429,219L388.571,273L365.714,258L342.857,240L320,207L297.143,18L274.286,165L251.429,108L228.571,261L205.714,282L182.857,297L160,264L137.143,300L114.286,300L91.429,300L68.571,297L45.714,300L22.857,300L0,300Z" fill="#ff9da6"/></g></g><path class="foreground" aria-hidden="true" d="" display="none"/></g><g transform="translate(0,0)"><path class="background" aria-hidden="true" d="M0,0h800v300h-800Z"/><g><g class="mark-area role-mark marks" role="graphics-object" aria-roledescription="area mark container"><path aria-label="Date: Mar 16, 2026; Unique Clones/day: 0; Repository: karlmdavis/ansible-roles" role="graphics-symbol" aria-roledescription="area mark" d="M0,300L22.857,300L45.714,300L68.571,297L91.429,300L114.286,300L137.143,300L160,264L182.857,297L205.714,282L228.571,261L251.429,108L274.286,165L297.143,18L320,207L342.857,240L365.714,258L388.571,273L411.429,219L434.286,51L457.143,60L480,261L502.857,210L525.714,216L548.571,198L571.429,270L594.286,231L617.143,207L640,72L662.857,267L685.714,270L708.571,285L731.429,282L754.286,291L777.143,237L800,195L800,195L777.143,237L754.286,291L731.429,282L708.571,285L685.714,270L662.857,267L640,72L617.143,207L594.286,234L571.429,270L548.571,198L525.714,216L502.857,210L480,261L457.143,60L434.286,51L411.429,219L388.571,273L365.714,258L342.857,240L320,210L297.143,18L274.286,165L251.429,108L228.571,264L205.714,282L182.857,297L160,264L137.143,300L114.286,300L91.429,300L68.571,297L45.714,300L22.857,300L0,300Z" fill="#9d755d"/></g></g><path class="foreground" aria-hidden="true" d="" display="none"/></g><g transform="translate(0,0)"><path class="background" aria-hidden="true" d="M0,0h800v300h-800Z"/><g><g class="mark-area role-mark marks" role="graphics-object" aria-roledescription="area mark container"><path aria-label="Date: Mar 16, 2026; Unique Clones/day: 0; Repository: karlmdavis/bbonfhir-dev-infra-docker" role="graphics-symbol" aria-roledescription="area mark" d="M0,300L22.857,300L45.714,300L68.571,297L91.429,300L114.286,300L137.143,300L160,264L182.857,297L205.714,282L228.571,264L251.429,108L274.286,165L297.143,18L320,210L342.857,240L365.714,258L388.571,273L411.429,219L434.286,51L457.143,60L480,261L502.857,210L525.714,216L548.571,198L571.429,270L594.286,234L617.143,207L640,72L662.857,267L685.714,270L708.571,285L731.429,282L754.286,291L777.143,237L800,195L800,198L777.143,237L754.286,291L731.429,282L708.571,285L685.714,270L662.857,267L640,81L617.143,210L594.286,234L571.429,270L548.571,201L525.714,216L502.857,210L480,261L457.143,60L434.286,54L411.429,219L388.571,273L365.714,258L342.857,240L320,213L297.143,18L274.286,165L251.429,111L228.571,264L205.714,285L182.857,297L160,264L137.143,300L114.286,300L91.429,300L68.571,297L45.714,300L22.857,300L0,300Z" fill="#bab0ac"/></g></g><path class="foreground" aria-hidden="true" d="" display="none"/></g><g transform="translate(0,0)"><path class="background" aria-hidden="true" d="M0,0h800v300h-800Z"/><g><g class="mark-area role-mark marks" role="graphics-object" aria-roledescription="area mark container"><path aria-label="Date: Mar 16, 2026; Unique Clones/day: 0; Repository: karlmdavis/can-i-kayak-baltimore" role="graphics-symbol" aria-roledescription="area mark" d="M0,300L22.857,300L45.714,300L68.571,297L91.429,300L114.286,300L137.143,300L160,264L182.857,297L205.714,285L228.571,264L251.429,111L274.286,165L297.143,18L320,213L342.857,240L365.714,258L388.571,273L411.429,219L434.286,54L457.143,60L480,261L502.857,210L525.714,216L548.571,201L571.429,270L594.286,234L617.143,210L640,81L662.857,267L685.714,270L708.571,285L731.429,282L754.286,291L777.143,237L800,198L800,201L777.143,237L754.286,291L731.429,282L708.571,285L685.714,270L662.857,267L640,87L617.143,213L594.286,234L571.429,270L548.571,204L525.714,216L502.857,210L480,261L457.143,60L434.286,57L411.429,219L388.571,273L365.714,261L342.857,240L320,213L297.143,18L274.286,165L251.429,120L228.571,264L205.714,285L182.857,297L160,264L137.143,300L114.286,300L91.429,300L68.571,297L45.714,300L22.857,300L0,300Z" fill="#4c78a8"/></g></g><path class="foreground" aria-hidden="true" d="" display="none"/></g><g transform="translate(0,0)"><path class="background" aria-hidden="true" d="M0,0h800v300h-800Z"/><g><g class="mark-area role-mark marks" role="graphics-object" aria-roledescription="area mark container"><path aria-label="Date: Mar 16, 2026; Unique Clones/day: 0; Repository: karlmdavis/datanucleus-test-jdo-1-to-n" role="graphics-symbol" aria-roledescription="area mark" d="M0,300L22.857,300L45.714,300L68.571,297L91.429,300L114.286,300L137.143,300L160,264L182.857,297L205.714,285L228.571,264L251.429,120L274.286,165L297.143,18L320,213L342.857,240L365.714,261L388.571,273L411.429,219L434.286,57L457.143,60L480,261L502.857,210L525.714,216L548.571,204L571.429,270L594.286,234L617.143,213L640,87L662.857,267L685.714,270L708.571,285L731.429,282L754.286,291L777.143,237L800,201L800,201L777.143,237L754.286,291L731.429,285L708.571,285L685.714,270L662.857,270L640,87L617.143,213L594.286,234L571.429,270L548.571,204L525.714,216L502.857,210L480,261L457.143,60L434.286,57L411.429,219L388.571,273L365.714,261L342.857,240L320,213L297.143,18L274.286,168L251.429,120L228.571,264L205.714,285L182.857,297L160,264L137.143,300L114.286,300L91.429,300L68.571,297L45.714,300L22.857,300L0,300Z" fill="#f58518"/></g></g><path class="foreground" aria-hidden="true" d="" display="none"/></g><g transform="translate(0,0)"><path class="background" aria-hidden="true" d="M0,0h800v300h-800Z"/><g><g class="mark-area role-mark marks" role="graphics-object" aria-roledescription="area mark container"><path aria-label="Date: Mar 16, 2026; Unique Clones/day: 0; Repository: karlmdavis/dotfiles" role="graphics-symbol" aria-roledescription="area mark" d="M0,300L22.857,300L45.714,300L68.571,297L91.429,300L114.286,300L137.143,300L160,264L182.857,297L205.714,285L228.571,264L251.429,120L274.286,168L297.143,18L320,213L342.857,240L365.714,261L388.571,273L411.429,219L434.286,57L457.143,60L480,261L502.857,210L525.714,216L548.571,204L571.429,270L594.286,234L617.143,213L640,87L662.857,270L685.714,270L708.571,285L731.429,285L754.286,291L777.143,237L800,201L800,246L777.143,243L754.286,291L731.429,288L708.571,288L685.714,270L662.857,270L640,102L617.143,213L594.286,240L571.429,270L548.571,207L525.714,219L502.857,210L480,261L457.143,63L434.286,60L411.429,219L388.571,276L365.714,264L342.857,243L320,213L297.143,18L274.286,168L251.429,126L228.571,264L205.714,285L182.857,297L160,267L137.143,300L114.286,300L91.429,300L68.571,297L45.714,300L22.857,300L0,300Z" fill="#e45756"/></g></g><path class="foreground" aria-hidden="true" d="" display="none"/></g><g transform="translate(0,0)"><path class="background" aria-hidden="true" d="M0,0h800v300h-800Z"/><g><g class="mark-area role-mark marks" role="graphics-object" aria-roledescription="area mark container"><path aria-label="Date: Mar 16, 2026; Unique Clones/day: 0; Repository: karlmdavis/fhir-benchmarks" role="graphics-symbol" aria-roledescription="area mark" d="M0,300L22.857,300L45.714,300L68.571,297L91.429,300L114.286,300L137.143,300L160,267L182.857,297L205.714,285L228.571,264L251.429,126L274.286,168L297.143,18L320,213L342.857,243L365.714,264L388.571,276L411.429,219L434.286,60L457.143,63L480,261L502.857,210L525.714,219L548.571,207L571.429,270L594.286,240L617.143,213L640,102L662.857,270L685.714,270L708.571,288L731.429,288L754.286,291L777.143,243L800,246L800,249L777.143,243L754.286,294L731.429,291L708.571,288L685.714,273L662.857,279L640,117L617.143,213L594.286,246L571.429,270L548.571,213L525.714,240L502.857,213L480,261L457.143,66L434.286,63L411.429,222L388.571,276L365.714,267L342.857,249L320,216L297.143,21L274.286,168L251.429,132L228.571,264L205.714,288L182.857,297L160,270L137.143,300L114.286,300L91.429,300L68.571,297L45.714,300L22.857,300L0,300Z" fill="#72b7b2"/></g></g><path class="foreground" aria-hidden="true" d="" display="none"/></g><g transform="translate(0,0)"><path class="background" aria-hidden="true" d="M0,0h800v300h-800Z"/><g><g class="mark-area role-mark marks" role="graphics-object" aria-roledescription="area mark container"><path aria-label="Date: Mar 16, 2026; Unique Clones/day: 0; Repository: karlmdavis/hapi-fhir-jpaserver-starter" role="graphics-symbol" aria-roledescription="area mark" d="M0,300L22.857,300L45.714,300L68.571,297L91.429,300L114.286,300L137.143,300L160,270L182.857,297L205.714,288L228.571,264L251.429,132L274.286,168L297.143,21L320,216L342.857,249L365.714,267L388.571,276L411.429,222L434.286,63L457.143,66L480,261L502.857,213L525.714,240L548.571,213L571.429,270L594.286,246L617.143,213L640,117L662.857,279L685.714,273L708.571,288L731.429,291L754.286,294L777.143,243L800,249L800,249L777.143,243L754.286,294L731.429,291L708.571,288L685.714,273L662.857,279L640,120L617.143,213L594.286,246L571.429,270L548.571,213L525.714,240L502.857,213L480,261L457.143,66L434.286,63L411.429,225L388.571,279L365.714,267L342.857,249L320,216L297.143,21L274.286,168L251.429,132L228.571,267L205.714,288L182.857,297L160,270L137.143,300L114.286,300L91.429,300L68.571,297L45.714,300L22.857,300L0,300Z" fill="#54a24b"/></g></g><path class="foreground" aria-hidden="true" d="" display="none"/></g><g transform="translate(0,0)"><path class="background" aria-hidden="true" d="M0,0h800v300h-800Z"/><g><g class="mark-area role-mark marks" role="graphics-object" aria-roledescription="area mark container"><path aria-label="Date: Mar 16, 2026; Unique Clones/day: 0; Repository: karlmdavis/hello-rust-actix" role="graphics-symbol" aria-roledescription="area mark" d="M0,300L22.857,300L45.714,300L68.571,297L91.429,300L114.286,300L137.143,300L160,270L182.857,297L205.714,288L228.571,267L251.429,132L274.286,168L297.143,21L320,216L342.857,249L365.714,267L388.571,279L411.429,225L434.286,63L457.143,66L480,261L502.857,213L525.714,240L548.571,213L571.429,270L594.286,246L617.143,213L640,120L662.857,279L685.714,273L708.571,288L731.429,291L754.286,294L777.143,243L800,249L800,252L777.143,243L754.286,294L731.429,291L708.571,288L685.714,273L662.857,279L640,126L617.143,216L594.286,246L571.429,270L548.571,216L525.714,240L502.857,213L480,261L457.143,66L434.286,66L411.429,225L388.571,279L365.714,267L342.857,252L320,216L297.143,21L274.286,168L251.429,135L228.571,267L205.714,288L182.857,297L160,270L137.143,300L114.286,300L91.429,300L68.571,297L45.714,300L22.857,300L0,300Z" fill="#eeca3b"/></g></g><path class="foreground" aria-hidden="true" d="" display="none"/></g><g transform="translate(0,0)"><path class="background" aria-hidden="true" d="M0,0h800v300h-800Z"/><g><g class="mark-area role-mark marks" role="graphics-object" aria-roledescription="area mark container"><path aria-label="Date: Mar 16, 2026; Unique Clones/day: 0; Repository: karlmdavis/jessentials" role="graphics-symbol" aria-roledescription="area mark" d="M0,300L22.857,300L45.714,300L68.571,297L91.429,300L114.286,300L137.143,300L160,270L182.857,297L205.714,288L228.571,267L251.429,135L274.286,168L297.143,21L320,216L342.857,252L365.714,267L388.571,279L411.429,225L434.286,66L457.143,66L480,261L502.857,213L525.714,240L548.571,216L571.429,270L594.286,246L617.143,216L640,126L662.857,279L685.714,273L708.571,288L731.429,291L754.286,294L777.143,243L800,252L800,255L777.143,246L754.286,294L731.429,291L708.571,288L685.714,273L662.857,279L640,132L617.143,216L594.286,249L571.429,270L548.571,222L525.714,264L502.857,213L480,261L457.143,66L434.286,69L411.429,225L388.571,279L365.714,267L342.857,252L320,219L297.143,21L274.286,168L251.429,138L228.571,267L205.714,288L182.857,297L160,273L137.143,300L114.286,300L91.429,300L68.571,297L45.714,300L22.857,300L0,300Z" fill="#b279a2"/></g></g><path class="foreground" aria-hidden="true" d="" display="none"/></g><g transform="translate(0,0)"><path class="background" aria-hidden="true" d="M0,0h800v300h-800Z"/><g><g class="mark-area role-mark marks" role="graphics-object" aria-roledescription="area mark container"><path aria-label="Date: Mar 16, 2026; Unique Clones/day: 0; Repository: karlmdavis/justdavis-ansible" role="graphics-symbol" aria-roledescription="area mark" d="M0,300L22.857,300L45.714,300L68.571,297L91.429,300L114.286,300L137.143,300L160,273L182.857,297L205.714,288L228.571,267L251.429,138L274.286,168L297.143,21L320,219L342.857,252L365.714,267L388.571,279L411.429,225L434.286,69L457.143,66L480,261L502.857,213L525.714,264L548.571,222L571.429,270L594.286,249L617.143,216L640,132L662.857,279L685.714,273L708.571,288L731.429,291L754.286,294L777.143,246L800,255L800,258L777.143,258L754.286,294L731.429,291L708.571,288L685.714,273L662.857,279L640,141L617.143,228L594.286,249L571.429,273L548.571,225L525.714,264L502.857,213L480,261L457.143,66L434.286,72L411.429,225L388.571,279L365.714,270L342.857,252L320,219L297.143,21L274.286,171L251.429,141L228.571,267L205.714,291L182.857,297L160,273L137.143,300L114.286,300L91.429,300L68.571,297L45.714,300L22.857,300L0,300Z" fill="#ff9da6"/></g></g><path class="foreground" aria-hidden="true" d="" display="none"/></g><g transform="translate(0,0)"><path class="background" aria-hidden="true" d="M0,0h800v300h-800Z"/><g><g class="mark-area role-mark marks" role="graphics-object" aria-roledescription="area mark container"><path aria-label="Date: Mar 16, 2026; Unique Clones/day: 0; Repository: karlmdavis/justdavis-finances" role="graphics-symbol" aria-roledescription="area mark" d="M0,300L22.857,300L45.714,300L68.571,297L91.429,300L114.286,300L137.143,300L160,273L182.857,297L205.714,291L228.571,267L251.429,141L274.286,171L297.143,21L320,219L342.857,252L365.714,270L388.571,279L411.429,225L434.286,72L457.143,66L480,261L502.857,213L525.714,264L548.571,225L571.429,273L594.286,249L617.143,228L640,141L662.857,279L685.714,273L708.571,288L731.429,291L754.286,294L777.143,258L800,258L800,258L777.143,288L754.286,294L731.429,291L708.571,288L685.714,276L662.857,285L640,186L617.143,279L594.286,255L571.429,273L548.571,228L525.714,267L502.857,264L480,285L457.143,291L434.286,243L411.429,285L388.571,282L365.714,273L342.857,255L320,264L297.143,276L274.286,282L251.429,234L228.571,270L205.714,294L182.857,297L160,273L137.143,300L114.286,300L91.429,300L68.571,297L45.714,300L22.857,300L0,300Z" fill="#9d755d"/></g></g><path class="foreground" aria-hidden="true" d="" display="none"/></g><g transform="translate(0,0)"><path class="background" aria-hidden="true" d="M0,0h800v300h-800Z"/><g><g class="mark-area role-mark marks" role="graphics-object" aria-roledescription="area mark container"><path aria-label="Date: Mar 16, 2026; Unique Clones/day: 0; Repository: karlmdavis/justdavis-karl" role="graphics-symbol" aria-roledescription="area mark" d="M0,300L22.857,300L45.714,300L68.571,297L91.429,300L114.286,300L137.143,300L160,273L182.857,297L205.714,294L228.571,270L251.429,234L274.286,282L297.143,276L320,264L342.857,255L365.714,273L388.571,282L411.429,285L434.286,243L457.143,291L480,285L502.857,264L525.714,267L548.571,228L571.429,273L594.286,255L617.143,279L640,186L662.857,285L685.714,276L708.571,288L731.429,291L754.286,294L777.143,288L800,258L800,261L777.143,288L754.286,294L731.429,291L708.571,288L685.714,276L662.857,285L640,195L617.143,282L594.286,258L571.429,273L548.571,234L525.714,267L502.857,264L480,288L457.143,291L434.286,246L411.429,285L388.571,285L365.714,273L342.857,258L320,267L297.143,276L274.286,285L251.429,237L228.571,270L205.714,294L182.857,297L160,276L137.143,300L114.286,300L91.429,300L68.571,297L45.714,300L22.857,300L0,300Z" fill="#bab0ac"/></g></g><path class="foreground" aria-hidden="true" d="" display="none"/></g><g transform="translate(0,0)"><path class="background" aria-hidden="true" d="M0,0h800v300h-800Z"/><g><g class="mark-area role-mark marks" role="graphics-object" aria-roledescription="area mark container"><path aria-label="Date: Mar 16, 2026; Unique Clones/day: 0; Repository: karlmdavis/justdavis-puppet" role="graphics-symbol" aria-roledescription="area mark" d="M0,300L22.857,300L45.714,300L68.571,297L91.429,300L114.286,300L137.143,300L160,276L182.857,297L205.714,294L228.571,270L251.429,237L274.286,285L297.143,276L320,267L342.857,258L365.714,273L388.571,285L411.429,285L434.286,246L457.143,291L480,288L502.857,264L525.714,267L548.571,234L571.429,273L594.286,258L617.143,282L640,195L662.857,285L685.714,276L708.571,288L731.429,291L754.286,294L777.143,288L800,261L800,261L777.143,288L754.286,294L731.429,291L708.571,288L685.714,276L662.857,285L640,201L617.143,285L594.286,261L571.429,273L548.571,237L525.714,270L502.857,264L480,288L457.143,291L434.286,249L411.429,285L388.571,285L365.714,273L342.857,264L320,270L297.143,276L274.286,285L251.429,240L228.571,270L205.714,294L182.857,297L160,276L137.143,300L114.286,300L91.429,300L68.571,297L45.714,300L22.857,300L0,300Z" fill="#4c78a8"/></g></g><path class="foreground" aria-hidden="true" d="" display="none"/></g><g transform="translate(0,0)"><path class="background" aria-hidden="true" d="M0,0h800v300h-800Z"/><g><g class="mark-area role-mark marks" role="graphics-object" aria-roledescription="area mark container"><path aria-label="Date: Mar 16, 2026; Unique Clones/day: 0; Repository: karlmdavis/kobjects" role="graphics-symbol" aria-roledescription="area mark" d="M0,300L22.857,300L45.714,300L68.571,297L91.429,300L114.286,300L137.143,300L160,276L182.857,297L205.714,294L228.571,270L251.429,240L274.286,285L297.143,276L320,270L342.857,264L365.714,273L388.571,285L411.429,285L434.286,249L457.143,291L480,288L502.857,264L525.714,270L548.571,237L571.429,273L594.286,261L617.143,285L640,201L662.857,285L685.714,276L708.571,288L731.429,291L754.286,294L777.143,288L800,261L800,264L777.143,288L754.286,294L731.429,291L708.571,288L685.714,276L662.857,285L640,207L617.143,285L594.286,264L571.429,273L548.571,243L525.714,270L502.857,264L480,288L457.143,291L434.286,252L411.429,285L388.571,285L365.714,273L342.857,264L320,270L297.143,276L274.286,285L251.429,243L228.571,273L205.714,294L182.857,297L160,276L137.143,300L114.286,300L91.429,300L68.571,297L45.714,300L22.857,300L0,300Z" fill="#f58518"/></g></g><path class="foreground" aria-hidden="true" d="" display="none"/></g><g transform="translate(0,0)"><path class="background" aria-hidden="true" d="M0,0h800v300h-800Z"/><g><g class="mark-area role-mark marks" role="graphics-object" aria-roledescription="area mark container"><path aria-label="Date: Mar 16, 2026; Unique Clones/day: 0; Repository: karlmdavis/ksoap2-android" role="graphics-symbol" aria-roledescription="area mark" d="M0,300L22.857,300L45.714,300L68.571,297L91.429,300L114.286,300L137.143,300L160,276L182.857,297L205.714,294L228.571,273L251.429,243L274.286,285L297.143,276L320,270L342.857,264L365.714,273L388.571,285L411.429,285L434.286,252L457.143,291L480,288L502.857,264L525.714,270L548.571,243L571.429,273L594.286,264L617.143,285L640,207L662.857,285L685.714,276L708.571,288L731.429,291L754.286,294L777.143,288L800,264L800,270L777.143,288L754.286,294L731.429,291L708.571,288L685.714,282L662.857,285L640,213L617.143,285L594.286,267L571.429,282L548.571,246L525.714,288L502.857,279L480,291L457.143,291L434.286,261L411.429,285L388.571,288L365.714,276L342.857,267L320,282L297.143,282L274.286,285L251.429,246L228.571,282L205.714,294L182.857,297L160,279L137.143,300L114.286,300L91.429,300L68.571,297L45.714,300L22.857,300L0,300Z" fill="#e45756"/></g></g><path class="foreground" aria-hidden="true" d="" display="none"/></g><g transform="translate(0,0)"><path class="background" aria-hidden="true" d="M0,0h800v300h-800Z"/><g><g class="mark-area role-mark marks" role="graphics-object" aria-roledescription="area mark container"><path aria-label="Date: Mar 16, 2026; Unique Clones/day: 0; Repository: karlmdavis/kxml2" role="graphics-symbol" aria-roledescription="area mark" d="M0,300L22.857,300L45.714,300L68.571,297L91.429,300L114.286,300L137.143,300L160,279L182.857,297L205.714,294L228.571,282L251.429,246L274.286,285L297.143,282L320,282L342.857,267L365.714,276L388.571,288L411.429,285L434.286,261L457.143,291L480,291L502.857,279L525.714,288L548.571,246L571.429,282L594.286,267L617.143,285L640,213L662.857,285L685.714,282L708.571,288L731.429,291L754.286,294L777.143,288L800,270L800,276L777.143,291L754.286,294L731.429,291L708.571,291L685.714,285L662.857,288L640,222L617.143,285L594.286,267L571.429,282L548.571,249L525.714,288L502.857,282L480,294L457.143,294L434.286,264L411.429,285L388.571,288L365.714,276L342.857,270L320,291L297.143,285L274.286,285L251.429,252L228.571,285L205.714,294L182.857,297L160,282L137.143,300L114.286,300L91.429,300L68.571,297L45.714,300L22.857,300L0,300Z" fill="#72b7b2"/></g></g><path class="foreground" aria-hidden="true" d="" display="none"/></g><g transform="translate(0,0)"><path class="background" aria-hidden="true" d="M0,0h800v300h-800Z"/><g><g class="mark-area role-mark marks" role="graphics-object" aria-roledescription="area mark container"><path aria-label="Date: Mar 16, 2026; Unique Clones/day: 0; Repository: karlmdavis/ldap-plugin" role="graphics-symbol" aria-roledescription="area mark" d="M0,300L22.857,300L45.714,300L68.571,297L91.429,300L114.286,300L137.143,300L160,282L182.857,297L205.714,294L228.571,285L251.429,252L274.286,285L297.143,285L320,291L342.857,270L365.714,276L388.571,288L411.429,285L434.286,264L457.143,294L480,294L502.857,282L525.714,288L548.571,249L571.429,282L594.286,267L617.143,285L640,222L662.857,288L685.714,285L708.571,291L731.429,291L754.286,294L777.143,291L800,276L800,276L777.143,291L754.286,294L731.429,291L708.571,291L685.714,285L662.857,288L640,222L617.143,285L594.286,267L571.429,282L548.571,249L525.714,288L502.857,282L480,294L457.143,294L434.286,264L411.429,288L388.571,291L365.714,276L342.857,270L320,291L297.143,285L274.286,285L251.429,252L228.571,285L205.714,294L182.857,297L160,282L137.143,300L114.286,300L91.429,300L68.571,297L45.714,300L22.857,300L0,300Z" fill="#54a24b"/></g></g><path class="foreground" aria-hidden="true" d="" display="none"/></g><g transform="translate(0,0)"><path class="background" aria-hidden="true" d="M0,0h800v300h-800Z"/><g><g class="mark-area role-mark marks" role="graphics-object" aria-roledescription="area mark container"><path aria-label="Date: Mar 16, 2026; Unique Clones/day: 0; Repository: karlmdavis/lego-ev3dev-rs" role="graphics-symbol" aria-roledescription="area mark" d="M0,300L22.857,300L45.714,300L68.571,297L91.429,300L114.286,300L137.143,300L160,282L182.857,297L205.714,294L228.571,285L251.429,252L274.286,285L297.143,285L320,291L342.857,270L365.714,276L388.571,291L411.429,288L434.286,264L457.143,294L480,294L502.857,282L525.714,288L548.571,249L571.429,282L594.286,267L617.143,285L640,222L662.857,288L685.714,285L708.571,291L731.429,291L754.286,294L777.143,291L800,276L800,279L777.143,291L754.286,297L731.429,294L708.571,291L685.714,288L662.857,288L640,231L617.143,285L594.286,273L571.429,282L548.571,255L525.714,288L502.857,285L480,294L457.143,297L434.286,267L411.429,291L388.571,291L365.714,279L342.857,276L320,291L297.143,288L274.286,288L251.429,261L228.571,285L205.714,297L182.857,297L160,285L137.143,300L114.286,300L91.429,300L68.571,297L45.714,300L22.857,300L0,300Z" fill="#eeca3b"/></g></g><path class="foreground" aria-hidden="true" d="" display="none"/></g><g transform="translate(0,0)"><path class="background" aria-hidden="true" d="M0,0h800v300h-800Z"/><g><g class="mark-area role-mark marks" role="graphics-object" aria-roledescription="area mark container"><path aria-label="Date: Mar 16, 2026; Unique Clones/day: 0; Repository: karlmdavis/liquibase" role="graphics-symbol" aria-roledescription="area mark" d="M0,300L22.857,300L45.714,300L68.571,297L91.429,300L114.286,300L137.143,300L160,285L182.857,297L205.714,297L228.571,285L251.429,261L274.286,288L297.143,288L320,291L342.857,276L365.714,279L388.571,291L411.429,291L434.286,267L457.143,297L480,294L502.857,285L525.714,288L548.571,255L571.429,282L594.286,273L617.143,285L640,231L662.857,288L685.714,288L708.571,291L731.429,294L754.286,297L777.143,291L800,279L800,279L777.143,291L754.286,297L731.429,294L708.571,291L685.714,288L662.857,288L640,231L617.143,285L594.286,273L571.429,285L548.571,258L525.714,288L502.857,285L480,294L457.143,297L434.286,267L411.429,291L388.571,291L365.714,279L342.857,276L320,291L297.143,288L274.286,288L251.429,261L228.571,285L205.714,297L182.857,297L160,285L137.143,300L114.286,300L91.429,300L68.571,300L45.714,300L22.857,300L0,300Z" fill="#b279a2"/></g></g><path class="foreground" aria-hidden="true" d="" display="none"/></g><g transform="translate(0,0)"><path class="background" aria-hidden="true" d="M0,0h800v300h-800Z"/><g><g class="mark-area role-mark marks" role="graphics-object" aria-roledescription="area mark container"><path aria-label="Date: Mar 16, 2026; Unique Clones/day: 0; Repository: karlmdavis/m2e-core" role="graphics-symbol" aria-roledescription="area mark" d="M0,300L22.857,300L45.714,300L68.571,300L91.429,300L114.286,300L137.143,300L160,285L182.857,297L205.714,297L228.571,285L251.429,261L274.286,288L297.143,288L320,291L342.857,276L365.714,279L388.571,291L411.429,291L434.286,267L457.143,297L480,294L502.857,285L525.714,288L548.571,258L571.429,285L594.286,273L617.143,285L640,231L662.857,288L685.714,288L708.571,291L731.429,294L754.286,297L777.143,291L800,279L800,279L777.143,291L754.286,297L731.429,294L708.571,291L685.714,288L662.857,288L640,237L617.143,285L594.286,276L571.429,288L548.571,264L525.714,291L502.857,288L480,294L457.143,297L434.286,270L411.429,291L388.571,291L365.714,279L342.857,276L320,291L297.143,291L274.286,288L251.429,264L228.571,285L205.714,297L182.857,297L160,285L137.143,300L114.286,300L91.429,300L68.571,300L45.714,300L22.857,300L0,300Z" fill="#ff9da6"/></g></g><path class="foreground" aria-hidden="true" d="" display="none"/></g><g transform="translate(0,0)"><path class="background" aria-hidden="true" d="M0,0h800v300h-800Z"/><g><g class="mark-area role-mark marks" role="graphics-object" aria-roledescription="area mark container"><path aria-label="Date: Mar 16, 2026; Unique Clones/day: 0; Repository: karlmdavis/m2e-core-tests" role="graphics-symbol" aria-roledescription="area mark" d="M0,300L22.857,300L45.714,300L68.571,300L91.429,300L114.286,300L137.143,300L160,285L182.857,297L205.714,297L228.571,285L251.429,264L274.286,288L297.143,291L320,291L342.857,276L365.714,279L388.571,291L411.429,291L434.286,270L457.143,297L480,294L502.857,288L525.714,291L548.571,264L571.429,288L594.286,276L617.143,285L640,237L662.857,288L685.714,288L708.571,291L731.429,294L754.286,297L777.143,291L800,279L800,279L777.143,291L754.286,297L731.429,294L708.571,291L685.714,288L662.857,288L640,237L617.143,288L594.286,276L571.429,294L548.571,267L525.714,294L502.857,291L480,294L457.143,297L434.286,270L411.429,291L388.571,291L365.714,285L342.857,276L320,291L297.143,291L274.286,291L251.429,264L228.571,288L205.714,297L182.857,297L160,285L137.143,300L114.286,300L91.429,300L68.571,300L45.714,300L22.857,300L0,300Z" fill="#9d755d"/></g></g><path class="foreground" aria-hidden="true" d="" display="none"/></g><g transform="translate(0,0)"><path class="background" aria-hidden="true" d="M0,0h800v300h-800Z"/><g><g class="mark-area role-mark marks" role="graphics-object" aria-roledescription="area mark container"><path aria-label="Date: Mar 16, 2026; Unique Clones/day: 0; Repository: karlmdavis/obsidian-operator" role="graphics-symbol" aria-roledescription="area mark" d="M0,300L22.857,300L45.714,300L68.571,300L91.429,300L114.286,300L137.143,300L160,285L182.857,297L205.714,297L228.571,288L251.429,264L274.286,291L297.143,291L320,291L342.857,276L365.714,285L388.571,291L411.429,291L434.286,270L457.143,297L480,294L502.857,291L525.714,294L548.571,267L571.429,294L594.286,276L617.143,288L640,237L662.857,288L685.714,288L708.571,291L731.429,294L754.286,297L777.143,291L800,279L800,279L777.143,297L754.286,297L731.429,294L708.571,291L685.714,294L662.857,291L640,243L617.143,291L594.286,282L571.429,294L548.571,270L525.714,294L502.857,291L480,294L457.143,297L434.286,273L411.429,297L388.571,291L365.714,285L342.857,285L320,291L297.143,291L274.286,291L251.429,267L228.571,288L205.714,297L182.857,297L160,288L137.143,300L114.286,300L91.429,300L68.571,300L45.714,300L22.857,300L0,300Z" fill="#bab0ac"/></g></g><path class="foreground" aria-hidden="true" d="" display="none"/></g><g transform="translate(0,0)"><path class="background" aria-hidden="true" d="M0,0h800v300h-800Z"/><g><g class="mark-area role-mark marks" role="graphics-object" aria-roledescription="area mark container"><path aria-label="Date: Mar 16, 2026; Unique Clones/day: 0; Repository: karlmdavis/perfect-note" role="graphics-symbol" aria-roledescription="area mark" d="M0,300L22.857,300L45.714,300L68.571,300L91.429,300L114.286,300L137.143,300L160,288L182.857,297L205.714,297L228.571,288L251.429,267L274.286,291L297.143,291L320,291L342.857,285L365.714,285L388.571,291L411.429,297L434.286,273L457.143,297L480,294L502.857,291L525.714,294L548.571,270L571.429,294L594.286,282L617.143,291L640,243L662.857,291L685.714,294L708.571,291L731.429,294L754.286,297L777.143,297L800,279L800,282L777.143,297L754.286,297L731.429,294L708.571,291L685.714,294L662.857,294L640,249L617.143,291L594.286,282L571.429,294L548.571,273L525.714,294L502.857,291L480,294L457.143,297L434.286,276L411.429,297L388.571,291L365.714,285L342.857,285L320,291L297.143,291L274.286,294L251.429,270L228.571,291L205.714,297L182.857,297L160,288L137.143,300L114.286,300L91.429,300L68.571,300L45.714,300L22.857,300L0,300Z" fill="#4c78a8"/></g></g><path class="foreground" aria-hidden="true" d="" display="none"/></g><g transform="translate(0,0)"><path class="background" aria-hidden="true" d="M0,0h800v300h-800Z"/><g><g class="mark-area role-mark marks" role="graphics-object" aria-roledescription="area mark container"><path aria-label="Date: Mar 16, 2026; Unique Clones/day: 0; Repository: karlmdavis/puppet-archive" role="graphics-symbol" aria-roledescription="area mark" d="M0,300L22.857,300L45.714,300L68.571,300L91.429,300L114.286,300L137.143,300L160,288L182.857,297L205.714,297L228.571,291L251.429,270L274.286,294L297.143,291L320,291L342.857,285L365.714,285L388.571,291L411.429,297L434.286,276L457.143,297L480,294L502.857,291L525.714,294L548.571,273L571.429,294L594.286,282L617.143,291L640,249L662.857,294L685.714,294L708.571,291L731.429,294L754.286,297L777.143,297L800,282L800,282L777.143,297L754.286,297L731.429,294L708.571,291L685.714,294L662.857,294L640,249L617.143,291L594.286,285L571.429,294L548.571,276L525.714,294L502.857,291L480,294L457.143,297L434.286,276L411.429,297L388.571,291L365.714,285L342.857,285L320,291L297.143,291L274.286,294L251.429,270L228.571,291L205.714,297L182.857,297L160,291L137.143,300L114.286,300L91.429,300L68.571,300L45.714,300L22.857,300L0,300Z" fill="#f58518"/></g></g><path class="foreground" aria-hidden="true" d="" display="none"/></g><g transform="translate(0,0)"><path class="background" aria-hidden="true" d="M0,0h800v300h-800Z"/><g><g class="mark-area role-mark marks" role="graphics-object" aria-roledescription="area mark container"><path aria-label="Date: Mar 16, 2026; Unique Clones/day: 0; Repository: karlmdavis/puppet-sonar" role="graphics-symbol" aria-roledescription="area mark" d="M0,300L22.857,300L45.714,300L68.571,300L91.429,300L114.286,300L137.143,300L160,291L182.857,297L205.714,297L228.571,291L251.429,270L274.286,294L297.143,291L320,291L342.857,285L365.714,285L388.571,291L411.429,297L434.286,276L457.143,297L480,294L502.857,291L525.714,294L548.571,276L571.429,294L594.286,285L617.143,291L640,249L662.857,294L685.714,294L708.571,291L731.429,294L754.286,297L777.143,297L800,282L800,282L777.143,297L754.286,297L731.429,294L708.571,291L685.714,294L662.857,297L640,249L617.143,291L594.286,288L571.429,294L548.571,276L525.714,297L502.857,294L480,294L457.143,297L434.286,276L411.429,297L388.571,294L365.714,285L342.857,291L320,291L297.143,291L274.286,297L251.429,270L228.571,291L205.714,297L182.857,297L160,291L137.143,300L114.286,300L91.429,300L68.571,300L45.714,300L22.857,300L0,300Z" fill="#e45756"/></g></g><path class="foreground" aria-hidden="true" d="" display="none"/></g><g transform="translate(0,0)"><path class="background" aria-hidden="true" d="M0,0h800v300h-800Z"/><g><g class="mark-area role-mark marks" role="graphics-object" aria-roledescription="area mark container"><path aria-label="Date: Mar 16, 2026; Unique Clones/day: 0; Repository: karlmdavis/rps-tourney" role="graphics-symbol" aria-roledescription="area mark" d="M0,300L22.857,300L45.714,300L68.571,300L91.429,300L114.286,300L137.143,300L160,291L182.857,297L205.714,297L228.571,291L251.429,270L274.286,297L297.143,291L320,291L342.857,291L365.714,285L388.571,294L411.429,297L434.286,276L457.143,297L480,294L502.857,294L525.714,297L548.571,276L571.429,294L594.286,288L617.143,291L640,249L662.857,297L685.714,294L708.571,291L731.429,294L754.286,297L777.143,297L800,282L800,285L777.143,297L754.286,297L731.429,294L708.571,291L685.714,294L662.857,297L640,255L617.143,291L594.286,291L571.429,294L548.571,279L525.714,297L502.857,294L480,294L457.143,297L434.286,279L411.429,297L388.571,297L365.714,285L342.857,291L320,291L297.143,291L274.286,297L251.429,273L228.571,291L205.714,297L182.857,297L160,294L137.143,300L114.286,300L91.429,300L68.571,300L45.714,300L22.857,300L0,300Z" fill="#72b7b2"/></g></g><path class="foreground" aria-hidden="true" d="" display="none"/></g><g transform="translate(0,0)"><path class="background" aria-hidden="true" d="M0,0h800v300h-800Z"/><g><g class="mark-area role-mark marks" role="graphics-object" aria-roledescription="area mark container"><path aria-label="Date: Mar 16, 2026; Unique Clones/day: 0; Repository: karlmdavis/sample-maven-and-rcp" role="graphics-symbol" aria-roledescription="area mark" d="M0,300L22.857,300L45.714,300L68.571,300L91.429,300L114.286,300L137.143,300L160,294L182.857,297L205.714,297L228.571,291L251.429,273L274.286,297L297.143,291L320,291L342.857,291L365.714,285L388.571,297L411.429,297L434.286,279L457.143,297L480,294L502.857,294L525.714,297L548.571,279L571.429,294L594.286,291L617.143,291L640,255L662.857,297L685.714,294L708.571,291L731.429,294L754.286,297L777.143,297L800,285L800,288L777.143,297L754.286,297L731.429,294L708.571,291L685.714,294L662.857,297L640,261L617.143,291L594.286,291L571.429,294L548.571,282L525.714,297L502.857,294L480,294L457.143,297L434.286,282L411.429,297L388.571,297L365.714,288L342.857,291L320,291L297.143,291L274.286,297L251.429,276L228.571,291L205.714,297L182.857,297L160,294L137.143,300L114.286,300L91.429,300L68.571,300L45.714,300L22.857,300L0,300Z" fill="#54a24b"/></g></g><path class="foreground" aria-hidden="true" d="" display="none"/></g><g transform="translate(0,0)"><path class="background" aria-hidden="true" d="M0,0h800v300h-800Z"/><g><g class="mark-area role-mark marks" role="graphics-object" aria-roledescription="area mark container"><path aria-label="Date: Mar 16, 2026; Unique Clones/day: 0; Repository: karlmdavis/stockfighter-trades-solutions" role="graphics-symbol" aria-roledescription="area mark" d="M0,300L22.857,300L45.714,300L68.571,300L91.429,300L114.286,300L137.143,300L160,294L182.857,297L205.714,297L228.571,291L251.429,276L274.286,297L297.143,291L320,291L342.857,291L365.714,288L388.571,297L411.429,297L434.286,282L457.143,297L480,294L502.857,294L525.714,297L548.571,282L571.429,294L594.286,291L617.143,291L640,261L662.857,297L685.714,294L708.571,291L731.429,294L754.286,297L777.143,297L800,288L800,291L777.143,297L754.286,297L731.429,294L708.571,291L685.714,294L662.857,297L640,270L617.143,291L594.286,291L571.429,294L548.571,285L525.714,297L502.857,294L480,294L457.143,297L434.286,285L411.429,297L388.571,297L365.714,288L342.857,291L320,291L297.143,294L274.286,297L251.429,282L228.571,291L205.714,297L182.857,297L160,294L137.143,300L114.286,300L91.429,300L68.571,300L45.714,300L22.857,300L0,300Z" fill="#eeca3b"/></g></g><path class="foreground" aria-hidden="true" d="" display="none"/></g><g transform="translate(0,0)"><path class="background" aria-hidden="true" d="M0,0h800v300h-800Z"/><g><g class="mark-area role-mark marks" role="graphics-object" aria-roledescription="area mark container"><path aria-label="Date: Mar 16, 2026; Unique Clones/day: 0; Repository: karlmdavis/test-repo-for-move" role="graphics-symbol" aria-roledescription="area mark" d="M0,300L22.857,300L45.714,300L68.571,300L91.429,300L114.286,300L137.143,300L160,294L182.857,297L205.714,297L228.571,291L251.429,282L274.286,297L297.143,294L320,291L342.857,291L365.714,288L388.571,297L411.429,297L434.286,285L457.143,297L480,294L502.857,294L525.714,297L548.571,285L571.429,294L594.286,291L617.143,291L640,270L662.857,297L685.714,294L708.571,291L731.429,294L754.286,297L777.143,297L800,291L800,291L777.143,297L754.286,297L731.429,294L708.571,294L685.714,294L662.857,297L640,276L617.143,291L594.286,291L571.429,294L548.571,288L525.714,297L502.857,294L480,294L457.143,297L434.286,288L411.429,297L388.571,297L365.714,288L342.857,291L320,291L297.143,297L274.286,297L251.429,285L228.571,294L205.714,297L182.857,297L160,294L137.143,300L114.286,300L91.429,300L68.571,300L45.714,300L22.857,300L0,300Z" fill="#b279a2"/></g></g><path class="foreground" aria-hidden="true" d="" display="none"/></g><g transform="translate(0,0)"><path class="background" aria-hidden="true" d="M0,0h800v300h-800Z"/><g><g class="mark-area role-mark marks" role="graphics-object" aria-roledescription="area mark container"><path aria-label="Date: Mar 16, 2026; Unique Clones/day: 0; Repository: karlmdavis/todoist-ai" role="graphics-symbol" aria-roledescription="area mark" d="M0,300L22.857,300L45.714,300L68.571,300L91.429,300L114.286,300L137.143,300L160,294L182.857,297L205.714,297L228.571,294L251.429,285L274.286,297L297.143,297L320,291L342.857,291L365.714,288L388.571,297L411.429,297L434.286,288L457.143,297L480,294L502.857,294L525.714,297L548.571,288L571.429,294L594.286,291L617.143,291L640,276L662.857,297L685.714,294L708.571,294L731.429,294L754.286,297L777.143,297L800,291L800,291L777.143,297L754.286,297L731.429,294L708.571,294L685.714,297L662.857,297L640,276L617.143,291L594.286,294L571.429,294L548.571,288L525.714,297L502.857,294L480,294L457.143,297L434.286,288L411.429,297L388.571,297L365.714,294L342.857,291L320,291L297.143,297L274.286,297L251.429,285L228.571,294L205.714,297L182.857,297L160,294L137.143,300L114.286,300L91.429,300L68.571,300L45.714,300L22.857,300L0,300Z" fill="#ff9da6"/></g></g><path class="foreground" aria-hidden="true" d="" display="none"/></g><g transform="translate(0,0)"><path class="background" aria-hidden="true" d="M0,0h800v300h-800Z"/><g><g class="mark-area role-mark marks" role="graphics-object" aria-roledescription="area mark container"><path aria-label="Date: Mar 16, 2026; Unique Clones/day: 0; Repository: karlmdavis/usgs-water-api-java" role="graphics-symbol" aria-roledescription="area mark" d="M0,300L22.857,300L45.714,300L68.571,300L91.429,300L114.286,300L137.143,300L160,294L182.857,297L205.714,297L228.571,294L251.429,285L274.286,297L297.143,297L320,291L342.857,291L365.714,294L388.571,297L411.429,297L434.286,288L457.143,297L480,294L502.857,294L525.714,297L548.571,288L571.429,294L594.286,294L617.143,291L640,276L662.857,297L685.714,297L708.571,294L731.429,294L754.286,297L777.143,297L800,291L800,297L777.143,300L754.286,300L731.429,297L708.571,300L685.714,300L662.857,300L640,285L617.143,300L594.286,297L571.429,297L548.571,294L525.714,300L502.857,297L480,300L457.143,300L434.286,294L411.429,300L388.571,300L365.714,297L342.857,294L320,297L297.143,300L274.286,300L251.429,291L228.571,300L205.714,300L182.857,300L160,300L137.143,300L114.286,300L91.429,300L68.571,300L45.714,300L22.857,300L0,300Z" fill="#9d755d"/></g></g><path class="foreground" aria-hidden="true" d="" display="none"/></g><g transform="translate(0,0)"><path class="background" aria-hidden="true" d="M0,0h800v300h-800Z"/><g><g class="mark-area role-mark marks" role="graphics-object" aria-roledescription="area mark container"><path aria-label="Date: Mar 16, 2026; Unique Clones/day: 0; Repository: karlmdavis/workstation-base-ansible-role" role="graphics-symbol" aria-roledescription="area mark" d="M0,300L22.857,300L45.714,300L68.571,300L91.429,300L114.286,300L137.143,300L160,300L182.857,300L205.714,300L228.571,300L251.429,291L274.286,300L297.143,300L320,297L342.857,294L365.714,297L388.571,300L411.429,300L434.286,294L457.143,300L480,300L502.857,297L525.714,300L548.571,294L571.429,297L594.286,297L617.143,300L640,285L662.857,300L685.714,300L708.571,300L731.429,297L754.286,300L777.143,300L800,297L800,297L777.143,300L754.286,300L731.429,297L708.571,300L685.714,300L662.857,300L640,294L617.143,300L594.286,300L571.429,297L548.571,297L525.714,300L502.857,297L480,300L457.143,300L434.286,297L411.429,300L388.571,300L365.714,300L342.857,297L320,300L297.143,300L274.286,300L251.429,297L228.571,300L205.714,300L182.857,300L160,300L137.143,300L114.286,300L91.429,300L68.571,300L45.714,300L22.857,300L0,300Z" fill="#bab0ac"/></g></g><path class="foreground" aria-hidden="true" d="" display="none"/></g><g transform="translate(0,0)"><path class="background" aria-hidden="true" d="M0,0h800v300h-800Z"/><g><g class="mark-area role-mark marks" role="graphics-object" aria-roledescription="area mark container"><path aria-label="Date: Mar 16, 2026; Unique Clones/day: 0; Repository: karlmdavis/xmlpull" role="graphics-symbol" aria-roledescription="area mark" d="M0,300L22.857,300L45.714,300L68.571,300L91.429,300L114.286,300L137.143,300L160,300L182.857,300L205.714,300L228.571,300L251.429,297L274.286,300L297.143,300L320,300L342.857,297L365.714,300L388.571,300L411.429,300L434.286,297L457.143,300L480,300L502.857,297L525.714,300L548.571,297L571.429,297L594.286,300L617.143,300L640,294L662.857,300L685.714,300L708.571,300L731.429,297L754.286,300L777.143,300L800,297L800,300L777.143,300L754.286,300L731.429,300L708.571,300L685.714,300L662.857,300L640,300L617.143,300L594.286,300L571.429,300L548.571,300L525.714,300L502.857,300L480,300L457.143,300L434.286,300L411.429,300L388.571,300L365.714,300L342.857,300L320,300L297.143,300L274.286,300L251.429,300L228.571,300L205.714,300L182.857,300L160,300L137.143,300L114.286,300L91.429,300L68.571,300L45.714,300L22.857,300L0,300Z" fill="#4c78a8"/></g></g><path class="foreground" aria-hidden="true" d="" display="none"/></g></g><g class="mark-group role-legend" role="graphics-symbol" aria-roledescription="legend" aria-label="Symbol legend titled 'Repository' for fill color with 41 values: karlmdavis/FHIR-Server, karlmdavis/ansible, karlmdavis/ansible-jenkins, karlmdavis/ansible-role-acmetool, karlmdavis/ansible-role-bind-dns, ending with karlmdavis/xmlpull"><g transform="translate(818,0)"><path class="background" aria-hidden="true" d="M0,0h176v404h-176Z" pointer-events="none"/><g><g class="mark-group role-legend-entry"><g transform="translate(0,16)"><path class="background" aria-hidden="true" d="M0,0h0v0h0Z" pointer-events="none"/><g><g class="mark-group role-scope" role="graphics-object" aria-roledescription="group mark container"><g transform="translate(0,0)"><path class="background" aria-hidden="true" d="M0,0h176v11h-176Z" pointer-events="none" opacity="1"/><g><g class="mark-symbol role-legend-symbol" pointer-events="none"><path transform="translate(6,6)" d="M5,0A5,5,0,1,1,-5,0A5,5,0,1,1,5,0" fill="#4c78a8" stroke-width="1.5" opacity="1"/></g><g class="mark-text role-legend-label" pointer-events="none"><text text-anchor="start" transform="translate(16,9)" font-family="sans-serif" font-size="10px" fill="#000" opacity="1">karlmdavis/FHIR-Server</text></g></g><path class="foreground" aria-hidden="true" d="" pointer-events="none" display="none"/></g><g transform="translate(0,13)"><path class="background" aria-hidden="true" d="M0,0h176v11h-176Z" pointer-events="none" opacity="1"/><g><g class="mark-symbol role-legend-symbol" pointer-events="none"><path transform="translate(6,6)" d="M5,0A5,5,0,1,1,-5,0A5,5,0,1,1,5,0" fill="#f58518" stroke-width="1.5" opacity="1"/></g><g class="mark-text role-legend-label" pointer-events="none"><text text-anchor="start" transform="translate(16,9)" font-family="sans-serif" font-size="10px" fill="#000" opacity="1">karlmdavis/ansible</text></g></g><path class="foreground" aria-hidden="true" d="" pointer-events="none" display="none"/></g><g transform="translate(0,26)"><path class="background" aria-hidden="true" d="M0,0h176v11h-176Z" pointer-events="none" opacity="1"/><g><g class="mark-symbol role-legend-symbol" pointer-events="none"><path transform="translate(6,6)" d="M5,0A5,5,0,1,1,-5,0A5,5,0,1,1,5,0" fill="#e45756" stroke-width="1.5" opacity="1"/></g><g class="mark-text role-legend-label" pointer-events="none"><text text-anchor="start" transform="translate(16,9)" font-family="sans-serif" font-size="10px" fill="#000" opacity="1">karlmdavis/ansible-jenkins</text></g></g><path class="foreground" aria-hidden="true" d="" pointer-events="none" display="none"/></g><g transform="translate(0,39)"><path class="background" aria-hidden="true" d="M0,0h176v11h-176Z" pointer-events="none" opacity="1"/><g><g class="mark-symbol role-legend-symbol" pointer-events="none"><path transform="translate(6,6)" d="M5,0A5,5,0,1,1,-5,0A5,5,0,1,1,5,0" fill="#72b7b2" stroke-width="1.5" opacity="1"/></g><g class="mark-text role-legend-label" pointer-events="none"><text text-anchor="start" transform="translate(16,9)" font-family="sans-serif" font-size="10px" fill="#000" opacity="1">karlmdavis/ansible-role-acmetool</text></g></g><path class="foreground" aria-hidden="true" d="" pointer-events="none" display="none"/></g><g transform="translate(0,52)"><path class="background" aria-hidden="true" d="M0,0h176v11h-176Z" pointer-events="none" opacity="1"/><g><g class="mark-symbol role-legend-symbol" pointer-events="none"><path transform="translate(6,6)" d="M5,0A5,5,0,1,1,-5,0A5,5,0,1,1,5,0" fill="#54a24b" stroke-width="1.5" opacity="1"/></g><g class="mark-text role-legend-label" pointer-events="none"><text text-anchor="start" transform="translate(16,9)" font-family="sans-serif" font-size="10px" fill="#000" opacity="1">karlmdavis/ansible-role-bind-dns</text></g></g><path class="foreground" aria-hidden="true" d="" pointer-events="none" display="none"/></g><g transform="translate(0,65)"><path class="background" aria-hidden="true" d="M0,0h176v11h-176Z" pointer-events="none" opacity="1"/><g><g class="mark-symbol role-legend-symbol" pointer-events="none"><path transform="translate(6,6)" d="M5,0A5,5,0,1,1,-5,0A5,5,0,1,1,5,0" fill="#eeca3b" stroke-width="1.5" opacity="1"/></g><g class="mark-text role-legend-label" pointer-events="none"><text text-anchor="start" transform="translate(16,9)" font-family="sans-serif" font-size="10px" fill="#000" opacity="1">karlmdavis/ansible-role-jenkins2</text></g></g><path class="foreground" aria-hidden="true" d="" pointer-events="none" display="none"/></g><g transform="translate(0,78)"><path class="background" aria-hidden="true" d="M0,0h176v11h-176Z" pointer-events="none" opacity="1"/><g><g class="mark-symbol role-legend-symbol" pointer-events="none"><path transform="translate(6,6)" d="M5,0A5,5,0,1,1,-5,0A5,5,0,1,1,5,0" fill="#b279a2" stroke-width="1.5" opacity="1"/></g><g class="mark-text role-legend-label" pointer-events="none"><text text-anchor="start" transform="translate(16,9)" font-family="sans-serif" font-size="10px" fill="#000" opacity="1">karlmdavis/ansible-role-ldap</text></g></g><path class="foreground" aria-hidden="true" d="" pointer-events="none" display="none"/></g><g transform="translate(0,91)"><path class="background" aria-hidden="true" d="M0,0h176v11h-176Z" pointer-events="none" opacity="1"/><g><g class="mark-symbol role-legend-symbol" pointer-events="none"><path transform="translate(6,6)" d="M5,0A5,5,0,1,1,-5,0A5,5,0,1,1,5,0" fill="#ff9da6" stroke-width="1.5" opacity="1"/></g><g class="mark-text role-legend-label" pointer-events="none"><text text-anchor="start" transform="translate(16,9)" font-family="sans-serif" font-size="10px" fill="#000" opacity="1">karlmdavis/ansible-role-rcm-dotfiles</text></g></g><path class="foreground" aria-hidden="true" d="" pointer-events="none" display="none"/></g><g transform="translate(0,104)"><path class="background" aria-hidden="true" d="M0,0h176v11h-176Z" pointer-events="none" opacity="1"/><g><g class="mark-symbol role-legend-symbol" pointer-events="none"><path transform="translate(6,6)" d="M5,0A5,5,0,1,1,-5,0A5,5,0,1,1,5,0" fill="#9d755d" stroke-width="1.5" opacity="1"/></g><g class="mark-text role-legend-label" pointer-events="none"><text text-anchor="start" transform="translate(16,9)" font-family="sans-serif" font-size="10px" fill="#000" opacity="1">karlmdavis/ansible-roles</text></g></g><path class="foreground" aria-hidden="true" d="" pointer-events="none" display="none"/></g><g transform="translate(0,117)"><path class="background" aria-hidden="true" d="M0,0h176v11h-176Z" pointer-events="none" opacity="1"/><g><g class="mark-symbol role-legend-symbol" pointer-events="none"><path transform="translate(6,6)" d="M5,0A5,5,0,1,1,-5,0A5,5,0,1,1,5,0" fill="#bab0ac" stroke-width="1.5" opacity="1"/></g><g class="mark-text role-legend-label" pointer-events="none"><text text-anchor="start" transform="translate(16,9)" font-family="sans-serif" font-size="10px" fill="#000" opacity="1">karlmdavis/bbonfhir-dev-infra-doc…</text></g></g><path class="foreground" aria-hidden="true" d="" pointer-events="none" display="none"/></g><g transform="translate(0,130)"><path class="background" aria-hidden="true" d="M0,0h176v11h-176Z" pointer-events="none" opacity="1"/><g><g class="mark-symbol role-legend-symbol" pointer-events="none"><path transform="translate(6,6)" d="M5,0A5,5,0,1,1,-5,0A5,5,0,1,1,5,0" fill="#4c78a8" stroke-width="1.5" opacity="1"/></g><g class="mark-text role-legend-label" pointer-events="none"><text text-anchor="start" transform="translate(16,9)" font-family="sans-serif" font-size="10px" fill="#000" opacity="1">karlmdavis/can-i-kayak-baltimore</text></g></g><path class="foreground" aria-hidden="true" d="" pointer-events="none" display="none"/></g><g transform="translate(0,143)"><path class="background" aria-hidden="true" d="M0,0h176v11h-176Z" pointer-events="none" opacity="1"/><g><g class="mark-symbol role-legend-symbol" pointer-events="none"><path transform="translate(6,6)" d="M5,0A5,5,0,1,1,-5,0A5,5,0,1,1,5,0" fill="#f58518" stroke-width="1.5" opacity="1"/></g><g class="mark-text role-legend-label" pointer-events="none"><text text-anchor="start" transform="translate(16,9)" font-family="sans-serif" font-size="10px" fill="#000" opacity="1">karlmdavis/datanucleus-test-jdo-1…</text></g></g><path class="foreground" aria-hidden="true" d="" pointer-events="none" display="none"/></g><g transform="translate(0,156)"><path class="background" aria-hidden="true" d="M0,0h176v11h-176Z" pointer-events="none" opacity="1"/><g><g class="mark-symbol role-legend-symbol" pointer-events="none"><path transform="translate(6,6)" d="M5,0A5,5,0,1,1,-5,0A5,5,0,1,1,5,0" fill="#e45756" stroke-width="1.5" opacity="1"/></g><g class="mark-text role-legend-label" pointer-events="none"><text text-anchor="start" transform="translate(16,9)" font-family="sans-serif" font-size="10px" fill="#000" opacity="1">karlmdavis/dotfiles</text></g></g><path class="foreground" aria-hidden="true" d="" pointer-events="none" display="none"/></g><g transform="translate(0,169)"><path class="background" aria-hidden="true" d="M0,0h176v11h-176Z" pointer-events="none" opacity="1"/><g><g class="mark-symbol role-legend-symbol" pointer-events="none"><path transform="translate(6,6)" d="M5,0A5,5,0,1,1,-5,0A5,5,0,1,1,5,0" fill="#72b7b2" stroke-width="1.5" opacity="1"/></g><g class="mark-text role-legend-label" pointer-events="none"><text text-anchor="start" transform="translate(16,9)" font-family="sans-serif" font-size="10px" fill="#000" opacity="1">karlmdavis/fhir-benchmarks</text></g></g><path class="foreground" aria-hidden="true" d="" pointer-events="none" display="none"/></g><g transform="translate(0,182)"><path class="background" aria-hidden="true" d="M0,0h176v11h-176Z" pointer-events="none" opacity="1"/><g><g class="mark-symbol role-legend-symbol" pointer-events="none"><path transform="translate(6,6)" d="M5,0A5,5,0,1,1,-5,0A5,5,0,1,1,5,0" fill="#54a24b" stroke-width="1.5" opacity="1"/></g><g class="mark-text role-legend-label" pointer-events="none"><text text-anchor="start" transform="translate(16,9)" font-family="sans-serif" font-size="10px" fill="#000" opacity="1">karlmdavis/hapi-fhir-jpaserver-sta…</text></g></g><path class="foreground" aria-hidden="true" d="" pointer-events="none" display="none"/></g><g transform="translate(0,195)"><path class="background" aria-hidden="true" d="M0,0h176v11h-176Z" pointer-events="none" opacity="1"/><g><g class="mark-symbol role-legend-symbol" pointer-events="none"><path transform="translate(6,6)" d="M5,0A5,5,0,1,1,-5,0A5,5,0,1,1,5,0" fill="#eeca3b" stroke-width="1.5" opacity="1"/></g><g class="mark-text role-legend-label" pointer-events="none"><text text-anchor="start" transform="translate(16,9)" font-family="sans-serif" font-size="10px" fill="#000" opacity="1">karlmdavis/hello-rust-actix</text></g></g><path class="foreground" aria-hidden="true" d="" pointer-events="none" display="none"/></g><g transform="translate(0,208)"><path class="background" aria-hidden="true" d="M0,0h176v11h-176Z" pointer-events="none" opacity="1"/><g><g class="mark-symbol role-legend-symbol" pointer-events="none"><path transform="translate(6,6)" d="M5,0A5,5,0,1,1,-5,0A5,5,0,1,1,5,0" fill="#b279a2" stroke-width="1.5" opacity="1"/></g><g class="mark-text role-legend-label" pointer-events="none"><text text-anchor="start" transform="translate(16,9)" font-family="sans-serif" font-size="10px" fill="#000" opacity="1">karlmdavis/jessentials</text></g></g><path class="foreground" aria-hidden="true" d="" pointer-events="none" display="none"/></g><g transform="translate(0,221)"><path class="background" aria-hidden="true" d="M0,0h176v11h-176Z" pointer-events="none" opacity="1"/><g><g class="mark-symbol role-legend-symbol" pointer-events="none"><path transform="translate(6,6)" d="M5,0A5,5,0,1,1,-5,0A5,5,0,1,1,5,0" fill="#ff9da6" stroke-width="1.5" opacity="1"/></g><g class="mark-text role-legend-label" pointer-events="none"><text text-anchor="start" transform="translate(16,9)" font-family="sans-serif" font-size="10px" fill="#000" opacity="1">karlmdavis/justdavis-ansible</text></g></g><path class="foreground" aria-hidden="true" d="" pointer-events="none" display="none"/></g><g transform="translate(0,234)"><path class="background" aria-hidden="true" d="M0,0h176v11h-176Z" pointer-events="none" opacity="1"/><g><g class="mark-symbol role-legend-symbol" pointer-events="none"><path transform="translate(6,6)" d="M5,0A5,5,0,1,1,-5,0A5,5,0,1,1,5,0" fill="#9d755d" stroke-width="1.5" opacity="1"/></g><g class="mark-text role-legend-label" pointer-events="none"><text text-anchor="start" transform="translate(16,9)" font-family="sans-serif" font-size="10px" fill="#000" opacity="1">karlmdavis/justdavis-finances</text></g></g><path class="foreground" aria-hidden="true" d="" pointer-events="none" display="none"/></g><g transform="translate(0,247)"><path class="background" aria-hidden="true" d="M0,0h176v11h-176Z" pointer-events="none" opacity="1"/><g><g class="mark-symbol role-legend-symbol" pointer-events="none"><path transform="translate(6,6)" d="M5,0A5,5,0,1,1,-5,0A5,5,0,1,1,5,0" fill="#bab0ac" stroke-width="1.5" opacity="1"/></g><g class="mark-text role-legend-label" pointer-events="none"><text text-anchor="start" transform="translate(16,9)" font-family="sans-serif" font-size="10px" fill="#000" opacity="1">karlmdavis/justdavis-karl</text></g></g><path class="foreground" aria-hidden="true" d="" pointer-events="none" display="none"/></g><g transform="translate(0,260)"><path class="background" aria-hidden="true" d="M0,0h176v11h-176Z" pointer-events="none" opacity="1"/><g><g class="mark-symbol role-legend-symbol" pointer-events="none"><path transform="translate(6,6)" d="M5,0A5,5,0,1,1,-5,0A5,5,0,1,1,5,0" fill="#4c78a8" stroke-width="1.5" opacity="1"/></g><g class="mark-text role-legend-label" pointer-events="none"><text text-anchor="start" transform="translate(16,9)" font-family="sans-serif" font-size="10px" fill="#000" opacity="1">karlmdavis/justdavis-puppet</text></g></g><path class="foreground" aria-hidden="true" d="" pointer-events="none" display="none"/></g><g transform="translate(0,273)"><path class="background" aria-hidden="true" d="M0,0h176v11h-176Z" pointer-events="none" opacity="1"/><g><g class="mark-symbol role-legend-symbol" pointer-events="none"><path transform="translate(6,6)" d="M5,0A5,5,0,1,1,-5,0A5,5,0,1,1,5,0" fill="#f58518" stroke-width="1.5" opacity="1"/></g><g class="mark-text role-legend-label" pointer-events="none"><text text-anchor="start" transform="translate(16,9)" font-family="sans-serif" font-size="10px" fill="#000" opacity="1">karlmdavis/kobjects</text></g></g><path class="foreground" aria-hidden="true" d="" pointer-events="none" display="none"/></g><g transform="translate(0,286)"><path class="background" aria-hidden="true" d="M0,0h176v11h-176Z" pointer-events="none" opacity="1"/><g><g class="mark-symbol role-legend-symbol" pointer-events="none"><path transform="translate(6,6)" d="M5,0A5,5,0,1,1,-5,0A5,5,0,1,1,5,0" fill="#e45756" stroke-width="1.5" opacity="1"/></g><g class="mark-text role-legend-label" pointer-events="none"><text text-anchor="start" transform="translate(16,9)" font-family="sans-serif" font-size="10px" fill="#000" opacity="1">karlmdavis/ksoap2-android</text></g></g><path class="foreground" aria-hidden="true" d="" pointer-events="none" display="none"/></g><g transform="translate(0,299)"><path class="background" aria-hidden="true" d="M0,0h176v11h-176Z" pointer-events="none" opacity="1"/><g><g class="mark-symbol role-legend-symbol" pointer-events="none"><path transform="translate(6,6)" d="M5,0A5,5,0,1,1,-5,0A5,5,0,1,1,5,0" fill="#72b7b2" stroke-width="1.5" opacity="1"/></g><g class="mark-text role-legend-label" pointer-events="none"><text text-anchor="start" transform="translate(16,9)" font-family="sans-serif" font-size="10px" fill="#000" opacity="1">karlmdavis/kxml2</text></g></g><path class="foreground" aria-hidden="true" d="" pointer-events="none" display="none"/></g><g transform="translate(0,312)"><path class="background" aria-hidden="true" d="M0,0h176v11h-176Z" pointer-events="none" opacity="1"/><g><g class="mark-symbol role-legend-symbol" pointer-events="none"><path transform="translate(6,6)" d="M5,0A5,5,0,1,1,-5,0A5,5,0,1,1,5,0" fill="#54a24b" stroke-width="1.5" opacity="1"/></g><g class="mark-text role-legend-label" pointer-events="none"><text text-anchor="start" transform="translate(16,9)" font-family="sans-serif" font-size="10px" fill="#000" opacity="1">karlmdavis/ldap-plugin</text></g></g><path class="foreground" aria-hidden="true" d="" pointer-events="none" display="none"/></g><g transform="translate(0,325)"><path class="background" aria-hidden="true" d="M0,0h176v11h-176Z" pointer-events="none" opacity="1"/><g><g class="mark-symbol role-legend-symbol" pointer-events="none"><path transform="translate(6,6)" d="M5,0A5,5,0,1,1,-5,0A5,5,0,1,1,5,0" fill="#eeca3b" stroke-width="1.5" opacity="1"/></g><g class="mark-text role-legend-label" pointer-events="none"><text text-anchor="start" transform="translate(16,9)" font-family="sans-serif" font-size="10px" fill="#000" opacity="1">karlmdavis/lego-ev3dev-rs</text></g></g><path class="foreground" aria-hidden="true" d="" pointer-events="none" display="none"/></g><g transform="translate(0,338)"><path class="background" aria-hidden="true" d="M0,0h176v11h-176Z" pointer-events="none" opacity="1"/><g><g class="mark-symbol role-legend-symbol" pointer-events="none"><path transform="translate(6,6)" d="M5,0A5,5,0,1,1,-5,0A5,5,0,1,1,5,0" fill="#b279a2" stroke-width="1.5" opacity="1"/></g><g class="mark-text role-legend-label" pointer-events="none"><text text-anchor="start" transform="translate(16,9)" font-family="sans-serif" font-size="10px" fill="#000" opacity="1">karlmdavis/liquibase</text></g></g><path class="foreground" aria-hidden="true" d="" pointer-events="none" display="none"/></g><g transform="translate(0,351)"><path class="background" aria-hidden="true" d="M0,0h176v11h-176Z" pointer-events="none" opacity="1"/><g><g class="mark-symbol role-legend-symbol" pointer-events="none"><path transform="translate(6,6)" d="M5,0A5,5,0,1,1,-5,0A5,5,0,1,1,5,0" fill="#ff9da6" stroke-width="1.5" opacity="1"/></g><g class="mark-text role-legend-label" pointer-events="none"><text text-anchor="start" transform="translate(16,9)" font-family="sans-serif" font-size="10px" fill="#000" opacity="1">karlmdavis/m2e-core</text></g></g><path class="foreground" aria-hidden="true" d="" pointer-events="none" display="none"/></g><g transform="translate(0,364)"><path class="background" aria-hidden="true" d="M0,0h176v11h-176Z" pointer-events="none" opacity="1"/><g><g class="mark-symbol role-legend-symbol" pointer-events="none"><path transform="translate(6,6)" d="M5,0A5,5,0,1,1,-5,0A5,5,0,1,1,5,0" fill="#9d755d" stroke-width="1.5" opacity="1"/></g><g class="mark-text role-legend-label" pointer-events="none"><text text-anchor="start" transform="translate(16,9)" font-family="sans-serif" font-size="10px" fill="#000" opacity="1">karlmdavis/m2e-core-tests</text></g></g><path class="foreground" aria-hidden="true" d="" pointer-events="none" display="none"/></g><g transform="translate(0,377)"><path class="background" aria-hidden="true" d="M0,0h176v11h-176Z" pointer-events="none" opacity="1"/><g><g class="mark-symbol role-legend-symbol" pointer-events="none"><path transform="translate(6,6)" d="M5,0A5,5,0,1,1,-5,0A5,5,0,1,1,5,0" fill="#bab0ac" stroke-width="1.5" opacity="1"/></g><g class="mark-text role-legend-label" pointer-events="none"><text text-anchor="start" transform="translate(16,9)" font-family="sans-serif" font-size="10px" fill="#000" opacity="1">…12 entries</text></g></g><path class="foreground" aria-hidden="true" d="" pointer-events="none" display="none"/></g></g></g><path class="foreground" aria-hidden="true" d="" pointer-events="none" display="none"/></g></g><g class="mark-text role-legend-title" pointer-events="none"><text text-anchor="start" transform="translate(0,9)" font-family="sans-serif" font-size="11px" font-weight="bold" fill="#000" opacity="1">Repository</text></g></g><path class="foreground" aria-hidden="true" d="" pointer-events="none" display="none"/></g></g><g class="mark-group role-title"><g transform="translate(400,-22)"><path class="background" aria-hidden="true" d="M0,0h0v0h0Z" pointer-events="none"/><g><g class="mark-text role-title-text" role="graphics-symbol" aria-roledescription="title" aria-label="Title text 'Unique Clones per Day'" pointer-events="none"><text text-anchor="middle" transform="translate(0,10)" font-family="sans-serif" font-size="13px" font-weight="bold" fill="#000" opacity="1">Unique Clones per Day</text></g></g><path class="foreground" aria-hidden="true" d="" pointer-events="none" display="none"/></g></g></g><path class="foreground" aria-hidden="true" d="" display="none"/></g></g></g></svg>